<svg width="20" height="20" viewBox="0 0 20 20" fill="none" xmlns="http://www.w3.org/2000/svg">
<path d="M9.46069 13.4324C9.28828 13.4334 9.11613 13.4186 8.94637 13.3885C8.79262 13.3607 8.64092 13.3227 8.49227 13.2746C8.35651 13.2294 8.2243 13.1742 8.09676 13.1093C7.98455 13.0528 7.87729 12.9869 7.77612 12.9124C7.74314 12.888 7.71531 12.8573 7.69422 12.8221C7.67313 12.7869 7.6592 12.7479 7.65322 12.7073C7.64725 12.6667 7.64935 12.6253 7.65941 12.5855C7.66946 12.5457 7.68728 12.5083 7.71183 12.4754C7.86563 12.2516 8.07804 12.2386 8.34008 12.3965C8.42081 12.4432 8.50423 12.485 8.58993 12.5218C8.71265 12.5742 8.83949 12.6164 8.96915 12.6479C9.34445 12.7346 9.73638 12.7163 10.102 12.595C10.2941 12.5298 10.4699 12.4239 10.6172 12.2844C10.7646 12.1449 10.88 11.9752 10.9556 11.7869C11.0479 11.5611 11.0928 11.3187 11.0875 11.0749C11.0893 10.8742 11.0582 10.6746 10.9955 10.484C10.9422 10.3227 10.8532 10.1756 10.7351 10.0535C10.6057 9.92504 10.4495 9.82667 10.2777 9.76543C9.87807 9.64197 9.45436 9.61766 9.04319 9.6946C8.83245 9.72453 8.62352 9.7661 8.41736 9.81911C8.34939 9.8362 8.27762 9.82959 8.21391 9.80039L8.13416 9.76456C8.07049 9.7361 8.01818 9.68714 7.98558 9.62549C7.95298 9.56383 7.94197 9.49303 7.95431 9.42439L8.42146 6.82436C8.43443 6.75222 8.47235 6.68694 8.52858 6.63993C8.58481 6.59292 8.65578 6.56718 8.72908 6.5672H11.374C11.4568 6.56722 11.5363 6.60015 11.5949 6.65875C11.6535 6.71735 11.6864 6.79683 11.6865 6.8797V6.92446C11.6806 7.0245 11.6386 7.11903 11.5685 7.19057C11.4955 7.24976 11.4059 7.2845 11.3121 7.28986H9.0782L8.76403 9.01593C8.83237 9.00453 8.89994 8.99396 8.96586 8.98501C9.48587 8.89618 10.0196 8.93414 10.5218 9.09568C10.791 9.19131 11.0365 9.34336 11.2421 9.54164C11.4394 9.73695 11.5906 9.97381 11.6848 10.235C11.7812 10.5077 11.8291 10.7953 11.8264 11.0846C11.8317 11.4244 11.7657 11.7615 11.6327 12.0742C11.5115 12.3553 11.333 12.6081 11.1086 12.8163C10.8893 13.0189 10.6317 13.1756 10.351 13.277C10.0658 13.3811 9.76431 13.4338 9.46069 13.4324Z" fill="#171723"/>
<path d="M9.79464 1.81226C7.67767 1.72314 5.60953 2.46391 4.03056 3.87684L3.38257 3.22841C3.35734 3.20314 3.3259 3.18497 3.29142 3.17571C3.25693 3.16645 3.22062 3.16644 3.18613 3.17567C3.15164 3.1849 3.12018 3.20305 3.09493 3.22829C3.06968 3.25353 3.05152 3.28498 3.04229 3.31947L2.34908 5.90388C2.34132 5.93283 2.34132 5.96332 2.34908 5.99227C2.35683 6.02123 2.37207 6.04763 2.39326 6.06884C2.41445 6.09004 2.44084 6.10529 2.46979 6.11307C2.49874 6.12084 2.52923 6.12086 2.55819 6.11312L5.14304 5.42163C5.17753 5.41242 5.20899 5.39428 5.23426 5.36905C5.25952 5.34381 5.27769 5.31237 5.28694 5.27789C5.2962 5.2434 5.29621 5.20709 5.28697 5.17259C5.27774 5.1381 5.25958 5.10665 5.23434 5.08141L4.6196 4.46628C5.46644 3.72064 6.47379 3.18028 7.56338 2.88718C8.65297 2.59408 9.79546 2.55613 10.9021 2.77628C12.3684 3.05429 13.7135 3.77715 14.7545 4.84656C15.7954 5.91597 16.4818 7.28005 16.7202 8.75329C16.9476 10.1241 16.7856 11.5312 16.2527 12.8146C15.7198 14.0979 14.8374 15.2059 13.7059 16.0124C12.5744 16.819 11.2392 17.2917 9.85223 17.3769C8.46528 17.462 7.08228 17.1562 5.86059 16.4941C5.25047 16.2068 4.71557 15.7814 4.29819 15.2517C4.2638 15.206 4.22038 15.1679 4.17063 15.1397C4.12088 15.1115 4.06586 15.0939 4.00899 15.0879C3.95213 15.0819 3.89464 15.0876 3.8401 15.1048C3.78556 15.122 3.73514 15.1502 3.69198 15.1877C3.64881 15.2252 3.61383 15.2712 3.58921 15.3228C3.56459 15.3744 3.55085 15.4305 3.54885 15.4877C3.54685 15.5448 3.55664 15.6018 3.5776 15.655C3.59856 15.7082 3.63025 15.7565 3.67069 15.7969C4.84615 16.9713 6.35084 17.7606 7.98521 18.0601C9.61958 18.3597 11.3064 18.1553 12.8219 17.4741C14.3375 16.7929 15.6101 15.6671 16.4711 14.2459C17.332 12.8248 17.7406 11.1755 17.6427 9.51681C17.5136 7.49131 16.6411 5.58479 15.1928 4.16293C13.7445 2.74108 11.8222 1.904 9.79464 1.81226Z" fill="#171723"/>
</svg>
