<svg width="20" height="20" viewBox="0 0 20 20" fill="none" xmlns="http://www.w3.org/2000/svg">
<path d="M15.8724 3.04273H4.16946C3.97368 3.04229 3.77973 3.08043 3.59869 3.15496C3.41766 3.2295 3.25308 3.33898 3.11437 3.47714C2.97566 3.61531 2.86553 3.77945 2.79028 3.96019C2.71502 4.14093 2.67611 4.33472 2.67578 4.5305V12.7654C2.67616 13.1615 2.8336 13.5414 3.1136 13.8217C3.39359 14.102 3.77328 14.2598 4.16946 14.2606H15.8724C16.2686 14.2598 16.6483 14.102 16.9282 13.8217C17.2082 13.5414 17.3657 13.1615 17.3661 12.7654V4.5305C17.3657 4.33472 17.3268 4.14093 17.2516 3.96019C17.1763 3.77945 17.0662 3.61531 16.9275 3.47714C16.7888 3.33898 16.6242 3.2295 16.4432 3.15496C16.2621 3.08043 16.0682 3.04229 15.8724 3.04273ZM10.0172 5.07356C10.4166 5.07441 10.8068 5.19367 11.1385 5.41628C11.4701 5.63888 11.7283 5.95482 11.8804 6.32416C12.0325 6.6935 12.0717 7.09965 11.993 7.49124C11.9143 7.88284 11.7212 8.2423 11.4382 8.52418C11.1552 8.80606 10.795 8.99769 10.4031 9.07485C10.0112 9.15201 9.60518 9.11123 9.23645 8.95767C8.86772 8.8041 8.5528 8.54465 8.33152 8.21212C8.11024 7.87959 7.99252 7.48891 7.99326 7.08948C7.99518 6.55403 8.20929 6.04117 8.58867 5.6633C8.96804 5.28542 9.48175 5.07336 10.0172 5.07357V5.07356ZM13.6618 12.1554C13.6616 12.2396 13.6449 12.3229 13.6125 12.4006C13.5801 12.4783 13.5328 12.5489 13.4731 12.6083C13.4135 12.6677 13.3427 12.7148 13.2649 12.7469C13.1871 12.7789 13.1037 12.7953 13.0195 12.7952H7.02238C6.9382 12.7953 6.8548 12.7789 6.77696 12.7469C6.69912 12.7148 6.62835 12.6677 6.56871 12.6083C6.50906 12.5489 6.4617 12.4783 6.42934 12.4006C6.39697 12.3229 6.38023 12.2396 6.38006 12.1554V11.6719C6.38048 11.3841 6.43761 11.0991 6.54821 10.8334C6.65881 10.5677 6.82069 10.3264 7.02462 10.1233C7.22854 9.92014 7.4705 9.75921 7.73665 9.64966C8.00281 9.54012 8.28795 9.48411 8.57577 9.48484H11.4661C11.7539 9.48411 12.039 9.54011 12.3052 9.64966C12.5713 9.7592 12.8133 9.92013 13.0172 10.1232C13.2211 10.3264 13.383 10.5677 13.4936 10.8334C13.6042 11.0991 13.6614 11.3841 13.6618 11.6719V12.1554Z" fill="#171723"/>
<path d="M16.9491 16.9989H3.09212C2.87111 16.9989 2.65915 16.9111 2.50287 16.7549C2.34659 16.5986 2.25879 16.3866 2.25879 16.1656C2.25879 15.9446 2.34659 15.7326 2.50287 15.5764C2.65915 15.4201 2.87111 15.3323 3.09212 15.3323H16.9491C17.1701 15.3323 17.382 15.4201 17.5383 15.5764C17.6946 15.7326 17.7824 15.9446 17.7824 16.1656C17.7824 16.3866 17.6946 16.5986 17.5383 16.7549C17.382 16.9111 17.1701 16.9989 16.9491 16.9989Z" fill="#171723"/>
</svg>
