<svg width="20" height="20" viewBox="0 0 20 20" fill="none" xmlns="http://www.w3.org/2000/svg">
<g clip-path="url(#clip0_5400_35222)">
<path d="M16.6542 9.80683C15.7961 9.07335 14.685 8.70497 13.5587 8.78054C12.4324 8.85612 11.3804 9.36965 10.6281 10.2112C10.3208 10.0422 9.99926 9.90076 9.66712 9.78841C10.4192 9.36991 11.0113 8.71372 11.3504 7.92267C11.6896 7.13162 11.7568 6.25039 11.5415 5.41706C11.3261 4.58374 10.8404 3.84539 10.1604 3.31771C9.48044 2.79003 8.64463 2.50283 7.78393 2.50111C6.92322 2.49938 6.08627 2.78324 5.40419 3.3082C4.72211 3.83315 4.23345 4.56955 4.01476 5.40201C3.79608 6.23447 3.85974 7.11596 4.19576 7.90836C4.53177 8.70076 5.12117 9.35931 5.8716 9.78082C4.9984 10.0721 4.20504 10.5628 3.55436 11.2139C2.43932 12.3357 1.81151 13.8518 1.80713 15.4335V16.9667C1.80713 17.0772 1.85103 17.1831 1.92917 17.2613C2.00731 17.3394 2.11329 17.3833 2.2238 17.3833C2.3343 17.3833 2.44028 17.3394 2.51842 17.2613C2.59656 17.1831 2.64046 17.0772 2.64046 16.9667V15.4335C2.64413 14.0727 3.18422 12.7682 4.14355 11.8031C4.91136 11.0303 5.90676 10.5241 6.98352 10.3589C8.06029 10.1936 9.16166 10.3781 10.1259 10.8851C9.74889 11.4957 9.5313 12.1913 9.49304 12.9079C9.45478 13.6246 9.59709 14.3393 9.9069 14.9867C10.3298 15.8807 11.0446 16.604 11.9336 17.0375C12.8226 17.471 13.8327 17.5887 14.7975 17.3713C15.7624 17.1539 16.6244 16.6144 17.2416 15.8416C17.8588 15.0688 18.1944 14.1088 18.193 13.1198C18.1939 12.4887 18.0566 11.8651 17.7907 11.2928C17.5249 10.7205 17.1369 10.2133 16.6542 9.80683ZM4.72057 6.41165C4.72041 5.80723 4.89949 5.21634 5.23517 4.7137C5.57084 4.21106 6.04804 3.81926 6.60641 3.58784C7.16478 3.35642 7.77923 3.29579 8.37206 3.4136C8.96488 3.53142 9.50946 3.82239 9.93691 4.24973C10.3644 4.67706 10.6555 5.22155 10.7735 5.81435C10.8914 6.40715 10.831 7.02162 10.5997 7.58005C10.3684 8.13847 9.97677 8.61578 9.47422 8.9516C8.97167 9.28741 8.38083 9.46665 7.7764 9.46665C6.96633 9.46587 6.18965 9.14378 5.61676 8.57105C5.04387 7.99832 4.72157 7.22173 4.72057 6.41165ZM13.8441 16.6444C13.1774 16.6422 12.5248 16.4519 11.9615 16.0953C11.3981 15.7387 10.9469 15.2303 10.6597 14.6286C10.435 14.1574 10.319 13.6418 10.3203 13.1198C10.3213 12.4241 10.5285 11.7442 10.9156 11.1661C11.3028 10.588 11.8526 10.1377 12.4956 9.87191C13.1385 9.60614 13.8459 9.5369 14.5282 9.67293C15.2105 9.80896 15.8372 10.1442 16.3291 10.6362C16.821 11.1282 17.1561 11.755 17.292 12.4373C17.4278 13.1197 17.3584 13.827 17.0925 14.4699C16.8266 15.1129 16.3761 15.6626 15.7979 16.0496C15.2198 16.4366 14.5399 16.6436 13.8441 16.6444Z" fill="#171723"/>
<path d="M15.7407 12.704H14.2588V11.2221C14.2588 11.1116 14.2149 11.0056 14.1367 10.9275C14.0586 10.8493 13.9526 10.8054 13.8421 10.8054C13.7316 10.8054 13.6256 10.8493 13.5475 10.9275C13.4694 11.0056 13.4255 11.1116 13.4255 11.2221V12.704H11.9435C11.833 12.704 11.727 12.7479 11.6489 12.8261C11.5708 12.9042 11.5269 13.0102 11.5269 13.1207C11.5269 13.2312 11.5708 13.3372 11.6489 13.4153C11.727 13.4935 11.833 13.5374 11.9435 13.5374H13.4255V15.0193C13.4255 15.1298 13.4694 15.2358 13.5475 15.3139C13.6256 15.3921 13.7316 15.436 13.8421 15.436C13.9526 15.436 14.0586 15.3921 14.1367 15.3139C14.2149 15.2358 14.2588 15.1298 14.2588 15.0193V13.5374H15.7407C15.8512 13.5374 15.9572 13.4935 16.0353 13.4153C16.1135 13.3372 16.1574 13.2312 16.1574 13.1207C16.1574 13.0102 16.1135 12.9042 16.0353 12.8261C15.9572 12.7479 15.8512 12.704 15.7407 12.704Z" fill="#171723"/>
</g>
<defs>
<clipPath id="clip0_5400_35222">
<rect width="20" height="20" fill="white"/>
</clipPath>
</defs>
</svg>
