<svg width="20" height="20" viewBox="0 0 20 20" fill="none" xmlns="http://www.w3.org/2000/svg">
<g clip-path="url(#clip0_5313_35081)">
<path d="M16.6828 10.7337V7.31111C16.6822 6.80061 16.4792 6.31117 16.1182 5.9502C15.7573 5.58922 15.2678 5.38619 14.7573 5.38565H9.50016C9.40696 5.38594 9.31463 5.36767 9.22856 5.3319C9.14249 5.29613 9.0644 5.24358 8.99886 5.17731L7.64632 3.83414C7.50329 3.69076 7.33329 3.57711 7.14613 3.49973C6.95897 3.42235 6.75835 3.38279 6.55582 3.38331H3.73111C3.22185 3.38256 2.73309 3.5839 2.3721 3.94312C2.01112 4.30235 1.8074 4.79012 1.80566 5.29939V14.4791C1.80613 14.9896 2.00914 15.4791 2.37013 15.8401C2.73112 16.201 3.2206 16.4041 3.73111 16.4045H9.41421C9.9108 17.3184 10.6981 18.0405 11.6515 18.4563C12.6048 18.8721 13.6697 18.958 14.6773 18.7002C15.685 18.4424 16.5778 17.8558 17.2143 17.0333C17.8509 16.2107 18.1948 15.1993 18.1916 14.1592C18.1916 13.5148 18.0575 12.8774 17.7978 12.2876C17.538 11.6978 17.1583 11.1686 16.6828 10.7337ZM2.639 14.4791V5.29939C2.64058 5.01109 2.75645 4.73519 2.96119 4.53221C3.16593 4.32922 3.44281 4.21573 3.73111 4.21662H6.55582C6.64915 4.21632 6.7416 4.23459 6.82781 4.27035C6.91401 4.30612 6.99224 4.35867 7.05794 4.42496L8.41048 5.76732C8.55311 5.91108 8.72289 6.02504 8.90996 6.10258C9.09704 6.18012 9.29766 6.21969 9.50016 6.21899H14.7573C15.0469 6.21931 15.3245 6.33447 15.5292 6.53922C15.734 6.74396 15.8491 7.02156 15.8494 7.31111V10.1124C15.0335 9.6367 14.0925 9.4196 13.1506 9.48973C12.2087 9.55986 11.3102 9.91391 10.5737 10.5052C9.83719 11.0964 9.29725 11.8971 9.02515 12.8016C8.75304 13.706 8.76155 14.6717 9.04956 15.5712H3.73111C3.44156 15.5709 3.16396 15.4557 2.95922 15.251C2.75448 15.0462 2.63932 14.7686 2.639 14.4791ZM13.5138 18.0126C12.7849 18.01 12.0714 17.8019 11.4554 17.412C10.8395 17.0222 10.3459 16.4665 10.0316 15.8088C9.67551 15.0554 9.57369 14.2067 9.74143 13.3904C9.90917 12.5741 10.3374 11.8343 10.9617 11.2823C11.586 10.7302 12.3727 10.3958 13.2034 10.3293C14.0341 10.2628 14.8639 10.4678 15.5681 10.9135C16.2723 11.3591 16.8128 12.0213 17.1083 12.8006C17.4037 13.5798 17.4382 14.4339 17.2066 15.2344C16.9749 16.0349 16.4897 16.7386 15.8237 17.2396C15.1578 17.7406 14.3472 18.0119 13.5138 18.0126Z" fill="#171723"/>
<path d="M15.5693 13.7425H13.9287V12.1023C13.9287 11.9918 13.8848 11.8858 13.8067 11.8077C13.7285 11.7296 13.6226 11.6857 13.512 11.6857C13.4015 11.6857 13.2956 11.7296 13.2174 11.8077C13.1393 11.8858 13.0954 11.9918 13.0954 12.1023V13.7425H11.4548C11.3442 13.7425 11.2383 13.7864 11.1601 13.8646C11.082 13.9427 11.0381 14.0487 11.0381 14.1592C11.0381 14.2697 11.082 14.3757 11.1601 14.4538C11.2383 14.532 11.3442 14.5759 11.4548 14.5759H13.0954V16.2165C13.0954 16.327 13.1393 16.433 13.2174 16.5111C13.2956 16.5893 13.4015 16.6332 13.512 16.6332C13.6226 16.6332 13.7285 16.5893 13.8067 16.5111C13.8848 16.433 13.9287 16.327 13.9287 16.2165V14.5759H15.5693C15.6798 14.5759 15.7858 14.532 15.864 14.4538C15.9421 14.3757 15.986 14.2697 15.986 14.1592C15.986 14.0487 15.9421 13.9427 15.864 13.8646C15.7858 13.7864 15.6798 13.7425 15.5693 13.7425Z" fill="#171723"/>
</g>
<defs>
<clipPath id="clip0_5313_35081">
<rect width="20" height="20" fill="white"/>
</clipPath>
</defs>
</svg>
