<svg width="16" height="16" viewBox="0 0 16 16" fill="none" xmlns="http://www.w3.org/2000/svg">
<g clip-path="url(#clip0_10314_145593)">
<g clip-path="url(#clip1_10314_145593)">
<path d="M7.99951 3.2627C6.74838 3.26416 5.54854 3.76007 4.66147 4.64236C3.77439 5.52464 3.27199 6.72178 3.26374 7.97288C3.26313 7.98229 3.2583 7.99028 3.2583 7.99984C3.2583 8.0094 3.26313 8.01739 3.26374 8.0268C3.26912 8.96254 3.55152 9.87572 4.07532 10.6511C4.59913 11.4266 5.34086 12.0295 6.20694 12.3838C7.07302 12.7381 8.02464 12.828 8.94174 12.6421C9.85884 12.4561 10.7003 12.0027 11.36 11.3391C12.0197 10.6754 12.4681 9.83126 12.6486 8.91307C12.829 7.99487 12.7335 7.0438 12.374 6.17985C12.0145 5.3159 11.4072 4.57778 10.6286 4.05861C9.85012 3.53944 8.93527 3.26249 7.99951 3.2627ZM4.56071 6.19157H7.58287V7.58317H4.13787C4.18911 7.09665 4.33262 6.62436 4.56071 6.19157ZM4.13782 8.4165H7.58282V9.8081H4.56032C4.3324 9.37527 4.18901 8.90299 4.13782 8.4165ZM7.58282 4.13817V5.35824H5.14342C5.78192 4.66948 6.64875 4.23592 7.58284 4.13815L7.58282 4.13817ZM5.14282 10.6415H7.58282V11.8624C6.6484 11.7646 5.78131 11.3307 5.14286 10.6414L5.14282 10.6415ZM8.41615 11.8624V10.2288L8.41699 10.2248L8.41615 10.2208V8.00385L8.41699 7.99984L8.41615 7.99582V5.77892L8.41699 5.7749L8.41615 5.77089V4.13815C9.37251 4.2358 10.2586 4.68483 10.9029 5.39829C11.5473 6.11175 11.9039 7.03889 11.9039 8.00023C11.9039 8.96157 11.5473 9.88871 10.9029 10.6022C10.2586 11.3156 9.37251 11.7647 8.41615 11.8623V11.8624Z" fill="#171723"/>
<path d="M7.99967 2.20144C8.0544 2.20147 8.1086 2.19071 8.15916 2.16978C8.20973 2.14886 8.25568 2.11817 8.29437 2.07947C8.33307 2.04077 8.36376 1.99483 8.38469 1.94426C8.40562 1.89369 8.41637 1.8395 8.41634 1.78477V0.630778C8.41634 0.520271 8.37244 0.41429 8.2943 0.33615C8.21616 0.25801 8.11018 0.214111 7.99967 0.214111C7.88917 0.214111 7.78319 0.25801 7.70505 0.33615C7.62691 0.41429 7.58301 0.520271 7.58301 0.630778V1.78477C7.58298 1.8395 7.59373 1.89369 7.61466 1.94426C7.63559 1.99483 7.66628 2.04077 7.70498 2.07947C7.74367 2.11817 7.78962 2.14886 7.84019 2.16978C7.89075 2.19071 7.94495 2.20147 7.99967 2.20144Z" fill="#171723"/>
<path d="M3.31057 3.89994C3.38897 3.97677 3.49451 4.01956 3.60428 4.019C3.71405 4.01845 3.81916 3.9746 3.89677 3.89698C3.97439 3.81936 4.01824 3.71425 4.0188 3.60449C4.01935 3.49472 3.97656 3.38917 3.89973 3.31077L3.0843 2.49452C3.04576 2.4552 2.9998 2.4239 2.94909 2.40244C2.89838 2.38098 2.84391 2.36979 2.78885 2.36951C2.73378 2.36923 2.67921 2.37987 2.62828 2.40082C2.57735 2.42176 2.53108 2.4526 2.49214 2.49153C2.45321 2.53047 2.42237 2.57674 2.40143 2.62767C2.38049 2.6786 2.36984 2.73317 2.37012 2.78824C2.3704 2.8433 2.38159 2.89777 2.40305 2.94848C2.42451 2.99919 2.45581 3.04515 2.49513 3.08369L3.31057 3.89994Z" fill="#171723"/>
<path d="M1.78467 7.58313H0.63151C0.521004 7.58313 0.415023 7.62703 0.336883 7.70517C0.258743 7.78331 0.214844 7.88929 0.214844 7.9998C0.214844 8.1103 0.258743 8.21628 0.336883 8.29442C0.415023 8.37256 0.521004 8.41646 0.63151 8.41646H1.78467C1.89518 8.41646 2.00116 8.37256 2.0793 8.29442C2.15744 8.21628 2.20134 8.1103 2.20134 7.9998C2.20134 7.88929 2.15744 7.78331 2.0793 7.70517C2.00116 7.62703 1.89518 7.58313 1.78467 7.58313Z" fill="#171723"/>
<path d="M3.31057 12.1006L2.49513 12.916C2.45581 12.9546 2.42451 13.0005 2.40305 13.0512C2.38159 13.102 2.3704 13.1564 2.37012 13.2115C2.36984 13.2666 2.38049 13.3211 2.40143 13.3721C2.42237 13.423 2.45321 13.4693 2.49214 13.5082C2.53108 13.5471 2.57735 13.578 2.62828 13.5989C2.67921 13.6199 2.73378 13.6305 2.78885 13.6302C2.84391 13.6299 2.89838 13.6187 2.94909 13.5973C2.9998 13.5758 3.04576 13.5445 3.0843 13.5052L3.89973 12.6898C3.93906 12.6512 3.97036 12.6053 3.99182 12.5546C4.01328 12.5038 4.02447 12.4494 4.02475 12.3943C4.02503 12.3392 4.01438 12.2847 3.99344 12.2337C3.9725 12.1828 3.94166 12.1365 3.90273 12.0976C3.86379 12.0587 3.81752 12.0278 3.76659 12.0069C3.71566 11.986 3.66109 11.9753 3.60602 11.9756C3.55096 11.9759 3.49649 11.9871 3.44578 12.0085C3.39507 12.03 3.34911 12.0613 3.31057 12.1006V12.1006Z" fill="#171723"/>
<path d="M7.99967 13.799C7.94495 13.7989 7.89075 13.8097 7.84019 13.8306C7.78962 13.8515 7.74368 13.8822 7.70498 13.9209C7.66628 13.9596 7.63559 14.0056 7.61466 14.0561C7.59373 14.1067 7.58298 14.1609 7.58301 14.2156V15.3688C7.58301 15.4793 7.62691 15.5853 7.70505 15.6634C7.78319 15.7415 7.88917 15.7854 7.99967 15.7854C8.11018 15.7854 8.21616 15.7415 8.2943 15.6634C8.37244 15.5853 8.41634 15.4793 8.41634 15.3688V14.2156C8.41637 14.1609 8.40561 14.1067 8.38469 14.0561C8.36376 14.0056 8.33307 13.9596 8.29437 13.9209C8.25567 13.8822 8.20973 13.8515 8.15916 13.8306C8.1086 13.8097 8.0544 13.7989 7.99967 13.799Z" fill="#171723"/>
<path d="M12.6898 12.1006C12.6512 12.0613 12.6053 12.03 12.5546 12.0085C12.5038 11.9871 12.4494 11.9759 12.3943 11.9756C12.3392 11.9753 12.2847 11.986 12.2337 12.0069C12.1828 12.0278 12.1365 12.0587 12.0976 12.0976C12.0587 12.1365 12.0278 12.1828 12.0069 12.2337C11.986 12.2847 11.9753 12.3392 11.9756 12.3943C11.9759 12.4494 11.9871 12.5038 12.0085 12.5546C12.03 12.6053 12.0613 12.6512 12.1006 12.6898L12.916 13.5052C12.9546 13.5445 13.0005 13.5758 13.0512 13.5973C13.102 13.6187 13.1564 13.6299 13.2115 13.6302C13.2666 13.6305 13.3211 13.6199 13.3721 13.5989C13.423 13.578 13.4693 13.5471 13.5082 13.5082C13.5471 13.4693 13.578 13.423 13.5989 13.3721C13.6199 13.3211 13.6305 13.2666 13.6302 13.2115C13.6299 13.1564 13.6187 13.102 13.5973 13.0512C13.5758 13.0005 13.5445 12.9546 13.5052 12.916L12.6898 12.1006Z" fill="#171723"/>
<path d="M15.3687 7.58313H14.2155C14.105 7.58313 13.999 7.62703 13.9209 7.70517C13.8427 7.78331 13.7988 7.88929 13.7988 7.9998C13.7988 8.1103 13.8427 8.21628 13.9209 8.29442C13.999 8.37256 14.105 8.41646 14.2155 8.41646H15.3687C15.4792 8.41646 15.5851 8.37256 15.6633 8.29442C15.7414 8.21628 15.7853 8.1103 15.7853 7.9998C15.7853 7.88929 15.7414 7.78331 15.6633 7.70517C15.5851 7.62703 15.4792 7.58313 15.3687 7.58313Z" fill="#171723"/>
<path d="M12.916 2.49452L12.1006 3.31077C12.0613 3.34931 12.03 3.39527 12.0085 3.44598C11.9871 3.49669 11.9759 3.55116 11.9756 3.60622C11.9753 3.66129 11.986 3.71586 12.0069 3.76679C12.0278 3.81772 12.0587 3.86399 12.0976 3.90292C12.1365 3.94186 12.1828 3.97269 12.2337 3.99364C12.2847 4.01458 12.3392 4.02522 12.3943 4.02495C12.4494 4.02467 12.5038 4.01348 12.5546 3.99202C12.6053 3.97056 12.6512 3.93926 12.6898 3.89993L13.5052 3.08369C13.5445 3.04515 13.5758 2.99919 13.5973 2.94848C13.6187 2.89777 13.6299 2.8433 13.6302 2.78824C13.6305 2.73317 13.6199 2.6786 13.5989 2.62767C13.578 2.57674 13.5471 2.53047 13.5082 2.49153C13.4693 2.4526 13.423 2.42176 13.3721 2.40082C13.3211 2.37987 13.2666 2.36923 13.2115 2.36951C13.1564 2.36979 13.102 2.38098 13.0512 2.40244C13.0005 2.4239 12.9546 2.4552 12.916 2.49452V2.49452Z" fill="#171723"/>
</g>
</g>
<defs>
<clipPath id="clip0_10314_145593">
<rect width="16" height="16" fill="white" transform="translate(16 16) rotate(-180)"/>
</clipPath>
<clipPath id="clip1_10314_145593">
<rect width="16" height="16" fill="white"/>
</clipPath>
</defs>
</svg>
