<svg width="20" height="20" viewBox="0 0 20 20" fill="none" xmlns="http://www.w3.org/2000/svg">
<g clip-path="url(#clip0_10314_145590)">
<path d="M18.1246 4.63717C18.1138 4.5541 18.0783 4.47617 18.0228 4.41349C17.9672 4.35081 17.8941 4.30625 17.8129 4.2856C14.0702 3.34977 11.13 4.97571 10.5465 7.02161C10.4285 7.61071 10.4378 8.21821 10.5737 8.80342C10.7096 9.38864 10.969 9.93808 11.3344 10.4149C10.7992 11.3618 10.3865 12.3729 10.1062 13.4238C9.82759 11.8516 9.28755 10.3373 8.50851 8.94358C8.87065 8.49694 9.13559 7.97964 9.2864 7.42476C9.43721 6.86988 9.47057 6.28964 9.38435 5.72113C8.91234 3.64675 6.06485 1.8678 2.27579 2.59858C2.19354 2.6148 2.11807 2.65537 2.05915 2.71501C2.00024 2.77465 1.9606 2.85061 1.94538 2.93305C1.30004 6.46903 2.96508 9.20097 4.94828 9.79993C5.26476 9.89504 5.59357 9.94276 5.92403 9.94153C6.58427 9.92761 7.23356 9.77005 7.82675 9.47979C9.05214 11.7898 9.65379 14.3795 9.57231 16.9931C9.57064 17.0761 9.57064 17.1306 9.57064 17.151C9.57128 17.2608 9.61524 17.3659 9.69296 17.4435C9.77068 17.521 9.87588 17.5648 9.98568 17.5652H9.98731C10.0967 17.5654 10.2018 17.5224 10.2798 17.4457C10.3578 17.3689 10.4024 17.2645 10.404 17.1551C10.404 17.1274 10.4048 17.0989 10.4048 17.0721C10.4782 14.9275 11.0279 12.8262 12.0141 10.9205C12.6163 11.2386 13.2843 11.4119 13.9652 11.4267C14.2317 11.4273 14.4973 11.3956 14.7562 11.3323C16.7696 10.8416 18.5795 8.20324 18.1246 4.63717ZM5.1892 9.0024C3.60716 8.5247 2.28718 6.30384 2.7185 3.36682C5.77516 2.87854 8.19538 4.25468 8.57217 5.90588C8.68644 6.70033 8.49159 7.50834 8.02779 8.16338C7.36569 7.12135 6.5075 6.21784 5.50088 5.50305C5.40732 5.44424 5.29422 5.425 5.18647 5.44957C5.07873 5.47414 4.98515 5.54051 4.92634 5.63408C4.86752 5.72764 4.84829 5.84074 4.87286 5.94848C4.89743 6.05623 4.9638 6.1498 5.05736 6.20862C5.99383 6.9019 6.78839 7.76862 7.39785 8.76167C6.71396 9.10295 5.93055 9.18834 5.1892 9.0024ZM14.5585 10.5234C13.8409 10.6658 13.0961 10.5537 12.4522 10.2063C13.0702 9.26661 13.8839 8.47147 14.8376 7.87528C14.8845 7.84675 14.9252 7.80926 14.9575 7.76495C14.9898 7.72064 15.0131 7.67038 15.0259 7.61707C15.0387 7.56376 15.0409 7.50844 15.0323 7.45428C15.0237 7.40012 15.0045 7.34819 14.9758 7.30148C14.9471 7.25476 14.9094 7.21418 14.865 7.18205C14.8205 7.14992 14.7702 7.12689 14.7168 7.11427C14.6635 7.10165 14.6081 7.09969 14.554 7.10851C14.4999 7.11732 14.448 7.13674 14.4014 7.16564C13.3813 7.8019 12.5049 8.64369 11.8281 9.63736C11.5943 9.29078 11.4314 8.90134 11.3489 8.4915C11.2663 8.08166 11.2658 7.65952 11.3472 7.24946C11.8111 5.62104 14.298 4.38325 17.3295 5.02863C17.6021 7.98515 16.1649 10.1311 14.5585 10.5234Z" fill="#171723"/>
</g>
<defs>
<clipPath id="clip0_10314_145590">
<rect width="20" height="20" fill="white"/>
</clipPath>
</defs>
</svg>
