<svg width="20" height="20" viewBox="0 0 20 20" fill="none" xmlns="http://www.w3.org/2000/svg">
<path d="M15.9382 17.2023H4.06156C3.66274 17.2023 3.27106 17.0965 2.92651 16.8957C2.58196 16.6948 2.2969 16.4061 2.10044 16.059C1.90398 15.712 1.80316 15.319 1.80829 14.9202C1.81342 14.5214 1.9243 14.1311 2.12962 13.7892L8.06795 3.89253C8.26798 3.55873 8.55109 3.28245 8.88968 3.09063C9.22826 2.8988 9.61077 2.79797 9.99992 2.79797C10.3891 2.79797 10.7716 2.8988 11.1102 3.09063C11.4487 3.28245 11.7319 3.55873 11.9319 3.89253L17.8702 13.79C18.0755 14.1319 18.1863 14.5221 18.1914 14.9208C18.1965 15.3196 18.0956 15.7125 17.8991 16.0595C17.7027 16.4065 17.4176 16.6951 17.0731 16.8959C16.7286 17.0966 16.337 17.2024 15.9382 17.2023ZM9.99989 3.63129C9.7545 3.63016 9.51307 3.69317 9.29953 3.81407C9.08598 3.93497 8.90773 4.10957 8.78244 4.32058L2.84411 14.2181C2.71496 14.4336 2.64528 14.6795 2.64216 14.9307C2.63904 15.1819 2.7026 15.4295 2.82636 15.6481C2.95012 15.8667 3.12965 16.0487 3.34664 16.1753C3.56363 16.3019 3.81032 16.3687 4.06156 16.3689H15.9382C16.1894 16.3688 16.436 16.302 16.653 16.1755C16.87 16.0489 17.0495 15.8671 17.1732 15.6485C17.297 15.4299 17.3606 15.1825 17.3575 14.9313C17.3544 14.6801 17.2848 14.4343 17.1557 14.2188L11.2174 4.32058C11.0921 4.10957 10.9138 3.93496 10.7003 3.81406C10.4867 3.69315 10.2453 3.63015 9.99989 3.63129Z" fill="#171723"/>
<path d="M9.99984 14.8062C10.4601 14.8062 10.8332 14.4331 10.8332 13.9729C10.8332 13.5126 10.4601 13.1395 9.99984 13.1395C9.5396 13.1395 9.1665 13.5126 9.1665 13.9729C9.1665 14.4331 9.5396 14.8062 9.99984 14.8062Z" fill="#171723"/>
<path d="M10.0002 11.5984C9.9044 11.5984 9.80957 11.5796 9.7211 11.5429C9.63262 11.5063 9.55223 11.4526 9.48452 11.3849C9.4168 11.3172 9.3631 11.2368 9.32646 11.1483C9.28982 11.0598 9.27098 10.965 9.271 10.8692V7.95585C9.271 7.76246 9.34782 7.577 9.48456 7.44025C9.62131 7.30351 9.80678 7.22668 10.0002 7.22668C10.1935 7.22668 10.379 7.30351 10.5158 7.44025C10.6525 7.577 10.7293 7.76246 10.7293 7.95585V10.8692C10.7294 10.9649 10.7105 11.0598 10.6739 11.1483C10.6372 11.2367 10.5835 11.3171 10.5158 11.3849C10.4481 11.4526 10.3677 11.5063 10.2792 11.5429C10.1908 11.5796 10.0959 11.5984 10.0002 11.5984Z" fill="#171723"/>
</svg>
