<svg width="24" height="24" viewBox="0 0 24 24" fill="none" xmlns="http://www.w3.org/2000/svg">
<path d="M18.8009 4.58044H5.1988C3.80025 4.58044 2.6665 5.71419 2.6665 7.11274V16.8876C2.6665 18.2861 3.80025 19.4199 5.1988 19.4199H18.8009C20.1995 19.4199 21.3332 18.2861 21.3332 16.8876V7.11274C21.3332 5.71419 20.1995 4.58044 18.8009 4.58044Z" fill="white"/>
<path d="M18.8013 19.4946H5.19873C4.50746 19.4938 3.84476 19.2188 3.35596 18.73C2.86716 18.2412 2.59217 17.5785 2.59131 16.8872V7.11279C2.59217 6.42153 2.86716 5.75882 3.35596 5.27002C3.84476 4.78122 4.50746 4.50623 5.19873 4.50537H18.8013C19.4925 4.50623 20.1552 4.78122 20.644 5.27002C21.1328 5.75882 21.4078 6.42153 21.4087 7.11279V16.8872C21.4078 17.5785 21.1328 18.2412 20.644 18.73C20.1552 19.2188 19.4925 19.4938 18.8013 19.4946ZM5.19873 4.65576C4.54735 4.65662 3.9229 4.91575 3.46231 5.37634C3.00172 5.83694 2.74258 6.46139 2.74173 7.11276V16.8872C2.74258 17.5386 3.00172 18.163 3.46231 18.6236C3.9229 19.0842 4.54735 19.3433 5.19873 19.3442H18.8013C19.4526 19.3433 20.0771 19.0842 20.5377 18.6236C20.9983 18.163 21.2574 17.5386 21.2583 16.8872V7.11279C21.2574 6.46142 20.9983 5.83697 20.5377 5.37637C20.0771 4.91578 19.4526 4.65665 18.8013 4.65579L5.19873 4.65576Z" fill="#E4E4E4"/>
<path d="M5.86035 10.6684H6.36565L6.11304 10.0253L5.86035 10.6684Z" fill="#2FABF7"/>
<path d="M12.1309 10.1172C12.0719 10.0968 12.0093 10.0889 11.9472 10.0942H11.4878V10.4617H11.9472C12.0093 10.4669 12.0719 10.4591 12.1309 10.4387C12.1552 10.42 12.1743 10.3955 12.1863 10.3673C12.1984 10.3391 12.203 10.3084 12.1998 10.2779C12.2109 10.2474 12.21 10.2138 12.1972 10.1839C12.1844 10.154 12.1607 10.1302 12.1309 10.1172Z" fill="#228FE0"/>
<path d="M17.0462 9.42797V9.7036L16.9084 9.42797H15.8288V9.7036L15.691 9.42797H14.221C13.9987 9.42214 13.7783 9.46938 13.5779 9.56579V9.42797H12.5443V9.56579C12.4198 9.46946 12.2651 9.4206 12.1079 9.42797H8.4099L8.15725 10.0022L7.90462 9.42797H6.73322V9.7036L6.5954 9.42797H5.60778L5.14839 10.5075L4.62012 11.7019H5.79152L5.92934 11.3344H6.25089L6.38871 11.7019H7.72088V11.4263L7.83571 11.7019H8.50181L8.61667 11.4263V11.7019H11.8093V11.1048H11.8552C11.9012 11.1048 11.9012 11.1048 11.9012 11.1737V11.679H13.5549V11.5412C13.7481 11.6348 13.9605 11.682 14.1751 11.679H14.8641L15.0019 11.3115H15.3235L15.4613 11.679H16.7935V11.3344L17.0002 11.679H18.0797V9.42797H17.0462ZM9.28274 11.3574H8.89228V10.0941L8.34104 11.3574H7.99651L7.44524 10.0941V11.3574H6.66431L6.50355 11.0129H5.72261L5.5848 11.3804H5.14839L5.83745 9.74957H6.41166L7.05478 11.2885V9.74957H7.67495L8.18025 10.8521L8.63962 9.74957H9.28274V11.3574ZM10.8446 10.0941H9.94884V10.3927H10.8217V10.7143H9.94884V11.0358H10.8446V11.3804H9.55837V9.74957H10.8446V10.0941ZM12.5673 10.7602C12.6168 10.8517 12.6407 10.9549 12.6362 11.0588V11.3804H12.2457V11.1737C12.2563 11.0619 12.2322 10.9497 12.1768 10.8521C12.1079 10.7832 12.039 10.7832 11.9012 10.7832H11.4878V11.3804H11.0973V9.74957H11.9701C12.1267 9.73101 12.2853 9.75481 12.4295 9.81848C12.4912 9.85669 12.541 9.91129 12.5735 9.97619C12.6059 10.0411 12.6197 10.1137 12.6132 10.186C12.6166 10.278 12.5921 10.3689 12.5429 10.4468C12.4937 10.5247 12.4222 10.5859 12.3376 10.6224C12.4267 10.6432 12.507 10.6914 12.5673 10.7602ZM13.2563 11.3574H12.8659V9.72662H13.2563V11.3574ZM17.7812 11.3574H17.2299L16.4949 10.14V11.3574H15.714L15.5762 11.0129H14.7723L14.6345 11.3804H14.198C14.0915 11.3924 13.9837 11.3795 13.883 11.3426C13.7823 11.3057 13.6916 11.2459 13.6181 11.1679C13.5445 11.0899 13.4901 10.9959 13.4592 10.8932C13.4283 10.7905 13.4218 10.6821 13.44 10.5765C13.427 10.3439 13.5007 10.1148 13.6468 9.93334C13.7237 9.86325 13.8147 9.81056 13.9138 9.77884C14.0129 9.74713 14.1177 9.73715 14.221 9.74957H14.5885V10.0941H14.221C14.1134 10.0856 14.0066 10.1184 13.9224 10.186C13.8402 10.2902 13.7993 10.421 13.8076 10.5535C13.7983 10.623 13.8037 10.6937 13.8234 10.7609C13.8432 10.8282 13.877 10.8906 13.9224 10.944C13.9597 10.9773 14.0033 11.0026 14.0507 11.0184C14.0981 11.0342 14.1483 11.0401 14.198 11.0358H14.3588L14.8871 9.77255H15.4613L16.1044 11.3114V9.77255H16.6787L17.3448 10.898V9.77255H17.7352V11.3574H17.7812Z" fill="#0571C1"/>
<path d="M14.9102 10.6684H15.4384L15.1858 10.0253L14.9102 10.6684Z" fill="#228FE0"/>
<path d="M11.0054 13.9759V12.6667L10.4082 13.3098L11.0054 13.9759Z" fill="#228FE0"/>
<path d="M8.54785 12.8275V13.1261H9.39769V13.4476H8.54785V13.7921H9.48958L9.92597 13.3098L9.51253 12.8275H8.54785Z" fill="#2FABF7"/>
<path d="M11.8778 12.8274H11.3955V13.2409H11.9008C12.0386 13.2409 12.1305 13.172 12.1305 13.0341C12.1242 12.9733 12.0941 12.9174 12.0468 12.8787C11.9994 12.84 11.9387 12.8216 11.8778 12.8274Z" fill="#228FE0"/>
<path d="M18.9753 13.2179V12.1843H18.0106C17.8388 12.1738 17.6686 12.2224 17.5283 12.3221V12.1843H16.4717C16.3074 12.1771 16.1455 12.2257 16.0123 12.3221V12.1843H14.1519V12.3221C14.0011 12.2264 13.825 12.1784 13.6466 12.1843H12.4062V12.3221C12.2495 12.2208 12.0643 12.1725 11.878 12.1843H10.4999L10.1783 12.5288L9.87969 12.1843H7.8125V14.4352H9.83374L10.1553 14.0907L10.4539 14.4352H11.6942V13.907H11.855C12.0339 13.9181 12.2132 13.8947 12.3833 13.8381V14.4582H13.4169V13.861H13.4629C13.5318 13.861 13.5318 13.861 13.5318 13.9299V14.4582H16.6555C16.8416 14.468 17.0262 14.4199 17.1838 14.3204V14.4582H18.1714C18.3623 14.4718 18.5531 14.432 18.7227 14.3434C18.839 14.2708 18.9341 14.1689 18.9986 14.048C19.0631 13.9271 19.0947 13.7913 19.0902 13.6543C19.0905 13.5013 19.0509 13.3509 18.9753 13.2179ZM11.855 13.5854H11.3956V14.1366H10.6606L10.2013 13.6084L9.71891 14.1366H8.20297V12.5059H9.74186L10.2012 13.0341L10.6835 12.5059H11.9009C12.1995 12.5059 12.544 12.5977 12.544 13.0341C12.5211 13.4935 12.1995 13.5854 11.855 13.5854ZM14.1519 13.4935C14.2042 13.5839 14.2282 13.6879 14.2208 13.7921V14.1137H13.8303V13.907C13.8433 13.7952 13.819 13.6822 13.7614 13.5855C13.7155 13.5165 13.6236 13.5165 13.4858 13.5165H13.0723V14.1137H12.6819V12.4829H13.5546C13.7111 12.4664 13.8693 12.4901 14.014 12.5518C14.0788 12.5883 14.1323 12.6418 14.1688 12.7066C14.2052 12.7714 14.2232 12.845 14.2207 12.9193C14.2241 13.0113 14.1996 13.1023 14.1504 13.1801C14.1012 13.258 14.0297 13.3192 13.9451 13.3557C14.0271 13.3781 14.0997 13.4264 14.1519 13.4935ZM15.7367 12.8274H14.8409V13.126H15.7137V13.4476H14.8409V13.7691H15.7367V14.1136H14.4505V12.4829H15.7367V12.8274ZM16.7014 14.1137H15.9664V13.7692H16.7014C16.7299 13.774 16.7592 13.7724 16.787 13.7644C16.8148 13.7564 16.8405 13.7423 16.8622 13.7232C16.8917 13.6922 16.9081 13.6511 16.9081 13.6083C16.9081 13.5656 16.8917 13.5245 16.8622 13.4935C16.8239 13.4609 16.7745 13.4445 16.7244 13.4476C16.3569 13.4246 15.9205 13.4476 15.9205 12.9422C15.9205 12.7125 16.0583 12.4599 16.4717 12.4599H17.2297V12.8504H16.5177C16.463 12.8449 16.4079 12.8528 16.3569 12.8733C16.311 12.8963 16.311 12.9422 16.311 12.9882C16.311 13.0571 16.3569 13.08 16.4029 13.103C16.4463 13.1218 16.4936 13.1296 16.5407 13.126H16.7474C16.8257 13.1185 16.9047 13.1268 16.9796 13.1505C17.0546 13.1741 17.1241 13.2127 17.1838 13.2638C17.2662 13.3589 17.3075 13.4828 17.2986 13.6083C17.2986 13.9529 17.0919 14.1137 16.7014 14.1137ZM18.6767 13.9529C18.5433 14.0678 18.37 14.1255 18.1943 14.1137H17.4593V13.7692H18.1943C18.2229 13.774 18.2521 13.7724 18.28 13.7644C18.3078 13.7564 18.3335 13.7423 18.3551 13.7232C18.3846 13.6922 18.4011 13.6511 18.4011 13.6083C18.4011 13.5656 18.3846 13.5245 18.3551 13.4935C18.3169 13.4609 18.2675 13.4445 18.2173 13.4476C17.8498 13.4246 17.4134 13.4476 17.4134 12.9422C17.4134 12.7125 17.5512 12.4599 17.9647 12.4599H18.7227V12.8504H18.0337C17.979 12.8449 17.9238 12.8528 17.8729 12.8733C17.8269 12.8963 17.8269 12.9422 17.8269 12.9882C17.8269 13.0571 17.8499 13.08 17.9188 13.103C17.9622 13.1218 18.0095 13.1296 18.0566 13.126H18.2633C18.3416 13.1185 18.4206 13.1268 18.4956 13.1505C18.5706 13.1741 18.64 13.2127 18.6998 13.2638C18.7028 13.2637 18.7058 13.2643 18.7086 13.2654C18.7115 13.2665 18.714 13.2682 18.7162 13.2704C18.7183 13.2725 18.72 13.2751 18.7211 13.2779C18.7223 13.2807 18.7228 13.2838 18.7228 13.2868C18.7875 13.3812 18.8197 13.494 18.8147 13.6084C18.8164 13.6722 18.8051 13.7356 18.7813 13.7949C18.7576 13.8542 18.722 13.9079 18.6767 13.9529Z" fill="#0571C1"/>
<path d="M13.7383 12.8733C13.6794 12.853 13.6168 12.8452 13.5546 12.8504H13.0952V13.2179H13.5546C13.6168 13.2231 13.6794 13.2153 13.7383 13.1949C13.7626 13.1762 13.7817 13.1516 13.7938 13.1235C13.8059 13.0953 13.8105 13.0646 13.8072 13.0341C13.8184 13.0036 13.8174 12.9699 13.8046 12.9401C13.7918 12.9102 13.7681 12.8863 13.7383 12.8733Z" fill="#228FE0"/>
<path d="M12.1309 10.1172C12.0719 10.0968 12.0093 10.0889 11.9472 10.0942H11.4878V10.4617H11.9472C12.0094 10.4669 12.0719 10.4591 12.1309 10.4387C12.1552 10.42 12.1743 10.3955 12.1864 10.3673C12.1984 10.3391 12.2031 10.3084 12.1998 10.2779C12.211 10.2474 12.21 10.2137 12.1972 10.1839C12.1844 10.154 12.1607 10.1302 12.1309 10.1172Z" fill="#228FE0"/>
<path d="M14.9102 10.6684H15.4384L15.1858 10.0253L14.9102 10.6684Z" fill="#228FE0"/>
<path d="M11.0054 13.9759V12.6667L10.4082 13.3098L11.0054 13.9759Z" fill="#228FE0"/>
<path d="M11.8779 12.8275H11.3955V13.2409H11.9008C12.0386 13.2409 12.1305 13.172 12.1305 13.0342C12.1242 12.9734 12.0941 12.9175 12.0468 12.8788C11.9994 12.8401 11.9387 12.8216 11.8779 12.8275Z" fill="#228FE0"/>
<path d="M13.7384 12.8734C13.6794 12.853 13.6168 12.8452 13.5546 12.8505H13.0952V13.2179H13.5546C13.6168 13.2232 13.6794 13.2153 13.7384 13.1949C13.7627 13.1763 13.7817 13.1517 13.7938 13.1236C13.8059 13.0954 13.8105 13.0646 13.8072 13.0342C13.8184 13.0036 13.8174 12.97 13.8047 12.9401C13.7919 12.9103 13.7681 12.8864 13.7384 12.8734Z" fill="#228FE0"/>
<path d="M11.7172 14.0677L11.3956 13.7232V14.1137H10.6376L10.1783 13.5854L9.67296 14.1137H8.15704V12.5059H9.69596L10.1783 13.0342L10.408 12.7585L9.83374 12.1843H7.8125V14.4353H9.83374L10.1783 14.0907L10.4769 14.4353H11.7172V14.0677Z" fill="#2FABF7"/>
<path d="M9.32867 11.679L9.03012 11.3575H8.89228V11.2197L8.54774 10.8751L8.31804 11.3575H7.99648L7.44524 10.0942V11.3575H6.66431L6.50352 11.013H5.72258L5.56182 11.3575H5.14837L5.83737 9.74969H6.41161L7.05473 11.2886V9.74969H7.39932L7.07773 9.4281H6.73322V9.70373L6.61835 9.4281H5.60775L5.14837 10.5076L4.62012 11.679H5.81447L5.95228 11.3345H6.27384L6.43461 11.679H7.72088V11.4034L7.83571 11.679H8.50181L8.61665 11.4034V11.679H9.32867Z" fill="#2FABF7"/>
<path d="M8.27182 10.6224L7.9043 10.2549L8.17993 10.8521L8.27182 10.6224Z" fill="#2FABF7"/>
<path d="M18.7226 14.3205C18.826 14.2509 18.9126 14.1591 18.9762 14.0518C19.0398 13.9446 19.0786 13.8245 19.09 13.7003L18.7685 13.3788C18.797 13.4521 18.8125 13.5298 18.8144 13.6085C18.8162 13.6723 18.8049 13.7358 18.7812 13.795C18.7575 13.8543 18.7219 13.908 18.6766 13.953C18.5432 14.0679 18.3699 14.1257 18.1943 14.1138H17.4593V13.7692H18.1943C18.2228 13.7741 18.252 13.7725 18.2799 13.7645C18.3077 13.7566 18.3334 13.7425 18.355 13.7233C18.3845 13.6924 18.401 13.6512 18.401 13.6085C18.401 13.5657 18.3845 13.5246 18.355 13.4936C18.3168 13.461 18.2674 13.4446 18.2172 13.4476C17.8497 13.4246 17.4133 13.4476 17.4133 12.9423C17.4133 12.7126 17.5512 12.5059 17.8957 12.46L17.643 12.2073C17.5971 12.2303 17.5741 12.2533 17.5512 12.2533V12.1155H16.4946C16.3303 12.1083 16.1684 12.1569 16.0352 12.2533V12.1155H14.1518V12.2533C14.001 12.1576 13.8249 12.1096 13.6465 12.1155H12.4062V12.2533C12.2494 12.152 12.0642 12.1037 11.8779 12.1155H10.4998L10.1782 12.46L9.87965 12.1155H9.62695L10.316 12.8045L10.6605 12.437H11.8778C12.1764 12.437 12.521 12.5289 12.521 12.9653C12.521 13.4247 12.1994 13.5166 11.8549 13.5166H11.3955V13.8611L11.74 14.2056V13.8611H11.8549C12.0338 13.8722 12.2131 13.8488 12.3832 13.7922V14.4124H13.4168V13.8152H13.4627C13.5316 13.8152 13.5316 13.8152 13.5316 13.8841V14.4124H16.6554C16.8415 14.4222 17.0261 14.374 17.1837 14.2745V14.4124H18.1713C18.3601 14.4402 18.553 14.4081 18.7226 14.3205ZM14.1518 13.4936C14.2042 13.584 14.2282 13.688 14.2207 13.7922V14.1138H13.8302V13.907C13.8432 13.7952 13.819 13.6822 13.7613 13.5855C13.7153 13.5166 13.6235 13.5166 13.4857 13.5166H13.0722V14.1137H12.6818V12.483H13.5546C13.7111 12.4665 13.8692 12.4902 14.014 12.5519C14.0788 12.5884 14.1323 12.642 14.1687 12.7068C14.2052 12.7715 14.2232 12.8451 14.2207 12.9194C14.224 13.0115 14.1995 13.1024 14.1503 13.1802C14.1012 13.2581 14.0296 13.3193 13.9451 13.3558C14.0271 13.3782 14.0996 13.4265 14.1518 13.4936ZM15.7366 12.8275H14.8408V13.1261H15.7137V13.4477H14.8408V13.7692H15.7366V14.1138H14.4504V12.483H15.7366V12.8275ZM16.7013 14.1138H15.9663V13.7692H16.7013C16.7298 13.7741 16.7591 13.7725 16.7869 13.7645C16.8147 13.7566 16.8404 13.7425 16.8621 13.7233C16.8916 13.6923 16.908 13.6512 16.908 13.6085C16.908 13.5657 16.8916 13.5246 16.8621 13.4936C16.8238 13.461 16.7744 13.4446 16.7243 13.4476C16.3568 13.4246 15.9204 13.4476 15.9204 12.9423C15.9204 12.7126 16.0582 12.46 16.4716 12.46H17.2296V12.8505H16.5176C16.4629 12.845 16.4077 12.8529 16.3568 12.8735C16.3109 12.8965 16.3109 12.9424 16.3109 12.9883C16.3109 13.0572 16.3568 13.0802 16.4027 13.1032C16.4461 13.1219 16.4934 13.1297 16.5405 13.1261H16.7473C16.8255 13.1185 16.9045 13.1269 16.9795 13.1505C17.0545 13.1742 17.1239 13.2128 17.1837 13.2639C17.266 13.359 17.3073 13.4829 17.2985 13.6085C17.2985 13.953 17.0918 14.1138 16.7013 14.1138Z" fill="#228FE0"/>
<path d="M17.8042 12.9883C17.8042 13.0572 17.8272 13.0802 17.8961 13.1032C17.9395 13.1219 17.9868 13.1297 18.0339 13.1261H18.2406C18.3519 13.1219 18.4624 13.1456 18.5622 13.195L18.2176 12.8505H18.0109C17.9562 12.8451 17.9011 12.853 17.8501 12.8735C17.8214 12.9049 17.8051 12.9457 17.8042 12.9883Z" fill="#228FE0"/>
<path d="M17 11.6102L17.0459 11.6791H17.0689L17 11.6102Z" fill="#228FE0"/>
<path d="M15.7368 10.3469L16.1273 11.2886V10.7374L15.7368 10.3469Z" fill="#228FE0"/>
<path d="M11.8094 11.1049H11.8553C11.9012 11.1049 11.9012 11.1049 11.9012 11.1737V11.679H13.555V11.5412C13.7481 11.6349 13.9605 11.6821 14.1751 11.679H14.8641L15.002 11.3115H15.3235L15.4613 11.679H16.7935V11.4493L16.472 11.1278V11.3804H15.691L15.5761 11.0129H14.7722L14.6344 11.3804H14.198C14.0915 11.3925 13.9836 11.3795 13.8829 11.3427C13.7823 11.3058 13.6916 11.246 13.618 11.168C13.5445 11.09 13.4901 10.9959 13.4592 10.8933C13.4283 10.7906 13.4217 10.6822 13.44 10.5765C13.427 10.344 13.5006 10.1148 13.6467 9.93339C13.7236 9.86331 13.8147 9.81062 13.9138 9.77891C14.0129 9.7472 14.1176 9.73722 14.2209 9.74965H14.5884V10.0942H14.2211C14.1134 10.0857 14.0066 10.1185 13.9225 10.1861C13.8403 10.2903 13.7994 10.4211 13.8076 10.5536C13.7983 10.6231 13.8037 10.6937 13.8235 10.761C13.8433 10.8283 13.877 10.8906 13.9225 10.944C13.9597 10.9773 14.0034 11.0027 14.0508 11.0185C14.0982 11.0343 14.1483 11.0402 14.1981 11.0359H14.3589L14.8872 9.77267H15.1168L14.7953 9.45111H14.1981C13.9758 9.44526 13.7553 9.4925 13.555 9.58892V9.45111H12.5444V9.58892C12.4199 9.49258 12.2652 9.44373 12.1079 9.45111H8.40993L8.15725 10.0253L7.90465 9.45111H6.89404L7.2156 9.77267H7.67498L8.06544 10.6225L8.20326 10.7603L8.61668 9.74969H9.25982V11.3805H8.86936V10.1172L8.47889 11.036L9.14496 11.702H11.7864L11.8094 11.1049ZM12.8659 9.74969H13.2564V11.3805H12.8659V9.74969ZM10.8446 10.0942H9.94887V10.3928H10.8217V10.7144H9.94887V11.036H10.8446V11.3805H9.5584V9.74969H10.8446V10.0942ZM11.4878 11.3575H11.0973V9.72674H11.9702C12.1267 9.70817 12.2853 9.73197 12.4295 9.79565C12.4912 9.83385 12.5411 9.88844 12.5735 9.95334C12.606 10.0182 12.6197 10.0909 12.6133 10.1631C12.6166 10.2552 12.5921 10.3461 12.5429 10.4239C12.4938 10.5018 12.4222 10.563 12.3377 10.5995C12.4147 10.6194 12.4808 10.6689 12.5214 10.7373C12.571 10.8288 12.5948 10.932 12.5903 11.036V11.3575H12.1999V11.1508C12.2104 11.0391 12.1864 10.9268 12.131 10.8292C12.108 10.7832 12.0391 10.7832 11.9012 10.7832H11.4878L11.4878 11.3575Z" fill="#228FE0"/>
</svg>
