<svg width="20" height="20" viewBox="0 0 20 20" fill="none" xmlns="http://www.w3.org/2000/svg">
<g clip-path="url(#clip0_5313_35229)">
<path d="M6.04167 10.6943H2.43083C2.20071 10.6943 2.01416 10.8809 2.01416 11.111V17.7777C2.01416 18.0078 2.20071 18.1943 2.43083 18.1943H6.04167C6.27179 18.1943 6.45833 18.0078 6.45833 17.7777V11.111C6.45833 10.8809 6.27179 10.6943 6.04167 10.6943Z" fill="#171723"/>
<path d="M11.8057 1.80566H8.19401C7.96389 1.80566 7.77734 1.99221 7.77734 2.22233V17.7777C7.77734 18.0079 7.96389 18.1944 8.19401 18.1944H11.8057C12.0358 18.1944 12.2223 18.0079 12.2223 17.7777V2.22233C12.2223 1.99221 12.0358 1.80566 11.8057 1.80566Z" fill="#171723"/>
<path d="M17.569 6.24976H13.9582C13.7281 6.24976 13.5415 6.4363 13.5415 6.66642V17.7777C13.5415 18.0078 13.7281 18.1943 13.9582 18.1943H17.569C17.7991 18.1943 17.9857 18.0078 17.9857 17.7777V6.66642C17.9857 6.4363 17.7991 6.24976 17.569 6.24976Z" fill="#171723"/>
</g>
<defs>
<clipPath id="clip0_5313_35229">
<rect width="20" height="20" fill="white"/>
</clipPath>
</defs>
</svg>
