<svg width="20" height="20" viewBox="0 0 20 20" fill="none" xmlns="http://www.w3.org/2000/svg">
<path d="M6.04118 18.1943H2.43034C2.37561 18.1944 2.32142 18.1836 2.27085 18.1627C2.22028 18.1418 2.17434 18.1111 2.13564 18.0724C2.09695 18.0337 2.06625 17.9877 2.04533 17.9372C2.0244 17.8866 2.01364 17.8324 2.01367 17.7777V11.111C2.01364 11.0563 2.0244 11.0021 2.04533 10.9515C2.06625 10.9009 2.09695 10.855 2.13564 10.8163C2.17434 10.7776 2.22028 10.7469 2.27085 10.726C2.32142 10.7051 2.37561 10.6943 2.43034 10.6943H6.04117C6.0959 10.6943 6.15009 10.7051 6.20066 10.726C6.25123 10.7469 6.29717 10.7776 6.33587 10.8163C6.37457 10.855 6.40526 10.9009 6.42619 10.9515C6.44711 11.0021 6.45787 11.0563 6.45784 11.111V17.7777C6.45787 17.8324 6.44711 17.8866 6.42619 17.9372C6.40526 17.9877 6.37457 18.0337 6.33587 18.0724C6.29718 18.1111 6.25123 18.1418 6.20067 18.1627C6.1501 18.1836 6.09591 18.1944 6.04118 18.1943ZM2.84701 17.361H5.62451V11.5277H2.84701L2.84701 17.361Z" fill="#171723"/>
<path d="M11.8048 18.1944H8.19401C8.13928 18.1944 8.08509 18.1837 8.03452 18.1628C7.98395 18.1418 7.93801 18.1111 7.89931 18.0724C7.86061 18.0337 7.82992 17.9878 7.809 17.9372C7.78807 17.8867 7.77731 17.8325 7.77734 17.7777V2.22233C7.77731 2.1676 7.78807 2.11341 7.809 2.06284C7.82992 2.01228 7.86061 1.96633 7.89931 1.92763C7.93801 1.88893 7.98395 1.85824 8.03452 1.83732C8.08509 1.81639 8.13928 1.80563 8.19401 1.80566H11.8048C11.8596 1.80563 11.9138 1.81639 11.9643 1.83732C12.0149 1.85825 12.0608 1.88894 12.0995 1.92763C12.1382 1.96633 12.1689 2.01228 12.1899 2.06284C12.2108 2.11341 12.2215 2.1676 12.2215 2.22233V17.7777C12.2215 17.8325 12.2108 17.8867 12.1899 17.9372C12.1689 17.9878 12.1382 18.0337 12.0995 18.0724C12.0608 18.1111 12.0149 18.1418 11.9643 18.1628C11.9138 18.1837 11.8596 18.1944 11.8048 18.1944ZM8.61068 17.3611H11.3882V2.639H8.61068V17.3611Z" fill="#171723"/>
<path d="M17.5693 18.1943H13.9577C13.903 18.1944 13.8488 18.1836 13.7982 18.1627C13.7476 18.1418 13.7017 18.1111 13.663 18.0724C13.6243 18.0337 13.5936 17.9877 13.5727 17.9372C13.5517 17.8866 13.541 17.8324 13.541 17.7777V6.66642C13.541 6.6117 13.5517 6.5575 13.5727 6.50693C13.5936 6.45637 13.6243 6.41042 13.663 6.37172C13.7017 6.33303 13.7476 6.30234 13.7982 6.28141C13.8488 6.26048 13.903 6.24972 13.9577 6.24976H17.5693C17.6241 6.24973 17.6783 6.26048 17.7288 6.28141C17.7794 6.30234 17.8253 6.33303 17.864 6.37173C17.9027 6.41042 17.9334 6.45637 17.9544 6.50693C17.9753 6.5575 17.986 6.6117 17.986 6.66642V17.7777C17.986 17.8324 17.9753 17.8866 17.9544 17.9372C17.9334 17.9877 17.9027 18.0337 17.864 18.0724C17.8253 18.1111 17.7794 18.1417 17.7288 18.1627C17.6783 18.1836 17.6241 18.1944 17.5693 18.1943ZM14.3743 17.361H17.1527V7.08309H14.3743V17.361Z" fill="#171723"/>
</svg>
