<svg width="20" height="20" viewBox="0 0 20 20" fill="none" xmlns="http://www.w3.org/2000/svg">
<path d="M17.1792 5.80835C17.4485 5.80726 17.7065 5.69979 17.8969 5.50937C18.0873 5.31894 18.1948 5.06099 18.1959 4.79169V2.81669C18.1945 2.54825 18.0867 2.29133 17.8961 2.1023C17.7055 1.91327 17.4477 1.80755 17.1792 1.80835H15.2041C15.0717 1.80812 14.9404 1.83403 14.818 1.88462C14.6955 1.93521 14.5843 2.00948 14.4906 2.10316C14.3969 2.19684 14.3227 2.30809 14.2721 2.43053C14.2215 2.55298 14.1956 2.6842 14.1958 2.81669V3.39169H5.80412V2.81669C5.80272 2.54825 5.6949 2.29132 5.5043 2.10228C5.3137 1.91324 5.05589 1.80754 4.78745 1.80835H2.82087C2.55242 1.80754 2.29461 1.91324 2.10402 2.10228C1.91342 2.29132 1.80559 2.54825 1.8042 2.81669V4.79169C1.80527 5.061 1.91272 5.31897 2.10315 5.5094C2.29358 5.69983 2.55156 5.80729 2.82087 5.80835H3.38753V14.1917H2.82087C2.55155 14.1927 2.29357 14.3002 2.10314 14.4906C1.91271 14.6811 1.80525 14.939 1.8042 15.2084V17.1834C1.80559 17.4518 1.91342 17.7087 2.10402 17.8978C2.29461 18.0868 2.55242 18.1925 2.82087 18.1917H4.78753C5.05598 18.1925 5.31378 18.0868 5.50438 17.8978C5.69498 17.7087 5.80281 17.4518 5.8042 17.1834V16.6084H14.1959V17.1834C14.1956 17.3158 14.2215 17.4471 14.2721 17.5695C14.3227 17.692 14.397 17.8032 14.4907 17.8969C14.5843 17.9906 14.6956 18.0648 14.818 18.1154C14.9405 18.166 15.0717 18.1919 15.2042 18.1917H17.1793C17.4477 18.1925 17.7055 18.0868 17.8961 17.8977C18.0867 17.7087 18.1946 17.4518 18.196 17.1834V15.2084C18.1949 14.939 18.0874 14.6811 17.897 14.4907C17.7066 14.3002 17.4486 14.1928 17.1793 14.1917H16.6125V5.80835H17.1792ZM15.0292 2.81669C15.0309 2.77081 15.0499 2.72728 15.0823 2.69481C15.1148 2.66235 15.1583 2.64338 15.2042 2.64169H17.1793C17.2029 2.64098 17.2263 2.64496 17.2484 2.6534C17.2704 2.66184 17.2905 2.67457 17.3076 2.69085C17.3246 2.70713 17.3383 2.72664 17.3477 2.74824C17.3572 2.76985 17.3622 2.79311 17.3626 2.81669V4.79169C17.3622 4.84018 17.3427 4.88656 17.3085 4.92084C17.2742 4.95513 17.2278 4.97459 17.1793 4.97502H15.2041C15.157 4.97284 15.1125 4.95257 15.0799 4.91842C15.0473 4.88428 15.0291 4.83889 15.0291 4.79169V2.81669H15.0292ZM7.7542 12.2C7.7529 12.1856 7.75579 12.1711 7.76253 12.1584C7.87056 11.5051 8.16583 10.8971 8.61253 10.4084C9.03234 9.93706 9.50172 9.51239 10.0125 9.14169C10.0626 9.10835 10.1625 9.05835 10.1542 8.99169C10.1542 8.95002 10.0875 8.90835 10.0625 8.8834L9.90415 8.72506C9.85551 8.67564 9.81719 8.61703 9.79144 8.55265C9.76569 8.48826 9.75301 8.4194 9.75415 8.35006V6.27502C9.75366 6.2304 9.76614 6.1866 9.79007 6.14893C9.81399 6.11126 9.84834 6.08135 9.88893 6.06282C9.92952 6.04429 9.97463 6.03794 10.0188 6.04454C10.0629 6.05115 10.1042 6.07042 10.1375 6.10002L10.8125 6.69169C10.8679 6.73323 10.9349 6.75653 11.0042 6.75835H11.5042C11.5712 6.75786 11.6359 6.73432 11.6875 6.69169L12.3626 6.10002C12.3966 6.07037 12.4383 6.05107 12.483 6.0444C12.5276 6.03772 12.5732 6.04395 12.6143 6.06235C12.6555 6.08076 12.6906 6.11056 12.7154 6.14824C12.7402 6.18593 12.7537 6.22992 12.7543 6.27502V8.35002C12.7527 8.48932 12.6992 8.62302 12.6043 8.72502C12.4536 8.84178 12.3263 8.98598 12.2292 9.15002C12.206 9.21122 12.1947 9.27626 12.1959 9.34169C12.1459 9.85835 12.1793 10.3917 12.1459 10.9084C12.1243 11.4067 12.2095 11.904 12.3959 12.3667C12.4541 12.55 12.5292 12.725 12.5959 12.9C12.6024 12.9279 12.6146 12.9542 12.6318 12.9771C12.649 13.0001 12.6708 13.0192 12.6958 13.0333C12.7323 13.0504 12.7723 13.0589 12.8126 13.0583C12.934 13.0699 13.0487 13.1197 13.14 13.2006C13.2313 13.2814 13.2946 13.3892 13.3208 13.5083C13.3291 13.5166 13.3291 13.5166 13.3291 13.525C13.3408 13.6011 13.3296 13.6789 13.297 13.7487C13.2643 13.8184 13.2117 13.8769 13.1458 13.9166C13.0461 13.9595 12.9365 13.9739 12.8291 13.9583C12.2708 13.95 11.7041 13.9583 11.1459 13.9583H7.8292C7.6471 13.9487 7.46986 13.8961 7.31198 13.8049C7.15411 13.7136 7.02008 13.5863 6.92087 13.4333C6.81325 13.2314 6.74536 13.0108 6.72087 12.7833C6.59757 11.7068 6.70263 10.6164 7.0292 9.58331C7.1542 9.15831 7.3542 8.39165 7.9292 8.41665C8.03341 8.42117 8.1336 8.45814 8.21577 8.52239C8.29795 8.58663 8.358 8.67494 8.38753 8.77498C8.46253 9.09165 8.22091 9.46665 8.11247 9.74998C7.99558 10.0759 7.90365 10.4102 7.83747 10.75C7.78508 11.0058 7.74889 11.2646 7.72913 11.525C7.71526 11.6383 7.70969 11.7525 7.71247 11.8666C7.72087 11.975 7.7542 12.1 7.7542 12.2ZM2.63753 4.79169V2.81669C2.63791 2.79311 2.64297 2.76984 2.65243 2.74823C2.66188 2.72663 2.67553 2.70711 2.69259 2.69083C2.70965 2.67455 2.72977 2.66182 2.75179 2.65338C2.77381 2.64494 2.79729 2.64097 2.82087 2.64169H4.78753C4.81111 2.64096 4.83459 2.64493 4.85661 2.65337C4.87864 2.6618 4.89877 2.67453 4.91583 2.69081C4.93289 2.7071 4.94654 2.72661 4.95599 2.74822C4.96544 2.76983 4.97049 2.79311 4.97087 2.81669V4.79169C4.97046 4.84018 4.95101 4.88658 4.91672 4.92087C4.88243 4.95517 4.83603 4.97461 4.78753 4.97502H2.82087C2.77238 4.97459 2.726 4.95513 2.69171 4.92084C2.65742 4.88656 2.63797 4.84018 2.63753 4.79169ZM4.97078 17.1834C4.97041 17.2069 4.96535 17.2302 4.95591 17.2518C4.94646 17.2734 4.93281 17.2929 4.91575 17.3092C4.89868 17.3255 4.87856 17.3382 4.85653 17.3467C4.83451 17.3551 4.81102 17.3591 4.78745 17.3584H2.82087C2.79729 17.3591 2.77381 17.3551 2.75179 17.3467C2.72977 17.3382 2.70965 17.3255 2.69259 17.3092C2.67553 17.2929 2.66188 17.2734 2.65243 17.2518C2.64297 17.2302 2.63791 17.2069 2.63753 17.1834V15.2084C2.63795 15.1599 2.65739 15.1135 2.69169 15.0792C2.72598 15.0449 2.77237 15.0254 2.82087 15.025H4.78753C4.83603 15.0254 4.88243 15.0449 4.91673 15.0792C4.95103 15.1135 4.97047 15.1599 4.97087 15.2084V17.1834H4.97078ZM17.3625 15.2084V17.1834C17.3621 17.2069 17.3571 17.2302 17.3476 17.2518C17.3382 17.2734 17.3245 17.2929 17.3075 17.3092C17.2904 17.3255 17.2703 17.3382 17.2483 17.3466C17.2262 17.3551 17.2028 17.3591 17.1792 17.3584H15.2041C15.1583 17.3567 15.1147 17.3377 15.0823 17.3052C15.0498 17.2728 15.0308 17.2292 15.0291 17.1834V15.2084C15.0284 15.1848 15.0324 15.1613 15.0408 15.1393C15.0493 15.1173 15.062 15.0971 15.0783 15.0801C15.0946 15.063 15.1141 15.0494 15.1357 15.0399C15.1573 15.0305 15.1806 15.0254 15.2041 15.025H17.1792C17.2034 15.0245 17.2275 15.0289 17.25 15.038C17.2724 15.047 17.2928 15.0605 17.3099 15.0776C17.3271 15.0948 17.3405 15.1152 17.3496 15.1376C17.3586 15.1601 17.363 15.1841 17.3625 15.2084Z" fill="#171723"/>
</svg>
