<svg width="20" height="20" viewBox="0 0 20 20" fill="none" xmlns="http://www.w3.org/2000/svg">
<g clip-path="url(#clip0_10314_146728)">
<path d="M14.3515 12.9999L11.8848 10.5416C11.8608 10.5159 11.8318 10.4955 11.7995 10.4815C11.7673 10.4675 11.7325 10.4603 11.6973 10.4603C11.6622 10.4603 11.6274 10.4675 11.5952 10.4815C11.5629 10.4955 11.5339 10.5159 11.5098 10.5416L9.80983 12.2333C9.68182 12.3563 9.5107 12.4244 9.33313 12.4228C9.15556 12.4213 8.98567 12.3502 8.85983 12.2249L8.04316 11.4166C8.02063 11.3901 7.99251 11.3688 7.96082 11.3544C7.92912 11.34 7.89464 11.3328 7.85983 11.3333C7.82396 11.3338 7.78855 11.3414 7.75565 11.3557C7.72275 11.37 7.69302 11.3907 7.66816 11.4166L5.71816 13.3666L5.40983 13.6749L5.11816 13.9666C5.24875 14.1466 5.42053 14.2927 5.61915 14.3928C5.81777 14.4928 6.03745 14.5438 6.25983 14.5416H13.7432C14.0193 14.5428 14.2898 14.4639 14.522 14.3146C14.7542 14.1652 14.9381 13.9517 15.0515 13.6999L14.7265 13.3749L14.3515 12.9999Z" fill="#171723"/>
<path d="M13.7434 5.45832H6.26003C6.07053 5.45768 5.88278 5.49453 5.70758 5.56676C5.53238 5.63898 5.37319 5.74515 5.2392 5.87915C5.1052 6.01315 4.99903 6.17233 4.9268 6.34753C4.85458 6.52273 4.81773 6.71049 4.81837 6.89999V13.0833L5.6517 12.25L7.0767 10.825C7.17514 10.7163 7.29644 10.6308 7.43189 10.5746C7.56734 10.5184 7.71356 10.4929 7.86003 10.5C8.00428 10.5003 8.14705 10.5291 8.28007 10.5849C8.4131 10.6407 8.53374 10.7223 8.63503 10.825L9.34337 11.5333L10.9267 9.94999C11.133 9.7458 11.4115 9.63126 11.7017 9.63126C11.9919 9.63126 12.2704 9.7458 12.4767 9.94999L15.185 12.6583V6.89999C15.1849 6.51767 15.033 6.15106 14.7626 5.88072C14.4923 5.61039 14.1257 5.45846 13.7434 5.45832ZM8.0017 9.80832C7.72069 9.80914 7.44574 9.72662 7.21163 9.57118C6.97752 9.41574 6.79476 9.19437 6.68646 8.93507C6.57816 8.67576 6.54919 8.39016 6.6032 8.11439C6.65722 7.83862 6.79179 7.58505 6.98992 7.38576C7.18804 7.18648 7.44081 7.05041 7.71626 6.99478C7.99171 6.93915 8.27748 6.96645 8.53742 7.07322C8.79735 7.18 9.01979 7.36146 9.1766 7.59466C9.33341 7.82785 9.41754 8.10231 9.41837 8.38332C9.41853 8.75985 9.26959 9.12113 9.00413 9.38815C8.73866 9.65517 8.37826 9.80622 8.00173 9.80825L8.0017 9.80832Z" fill="#171723"/>
<path d="M8.00132 7.8C7.88477 7.79918 7.77061 7.83304 7.67336 7.89728C7.57611 7.96151 7.50017 8.05322 7.45519 8.16074C7.4102 8.26827 7.39822 8.38673 7.42076 8.50109C7.44329 8.61544 7.49933 8.7205 7.58174 8.80291C7.66416 8.88533 7.76922 8.94137 7.88357 8.9639C7.99792 8.98644 8.11639 8.97445 8.22391 8.92947C8.33143 8.88449 8.42314 8.80854 8.48738 8.71129C8.55162 8.61404 8.58548 8.49988 8.58465 8.38334C8.58513 8.3066 8.57037 8.23053 8.54122 8.15954C8.51207 8.08855 8.46913 8.02406 8.41486 7.96979C8.3606 7.91553 8.2961 7.87258 8.22512 7.84344C8.15413 7.81429 8.07806 7.79953 8.00132 7.8Z" fill="#171723"/>
<path d="M17.7773 15.8163H17.2488C17.4862 15.4853 17.614 15.0883 17.6146 14.681V5.31906C17.614 4.79712 17.4065 4.29672 17.0374 3.92766C16.6683 3.55859 16.1679 3.35101 15.646 3.35046H4.35368C3.83174 3.35101 3.33134 3.55859 2.96228 3.92765C2.59321 4.29672 2.38563 4.79712 2.38509 5.31906V14.681C2.38562 15.0883 2.51351 15.4853 2.75085 15.8163H2.22233C2.11182 15.8163 2.00584 15.8602 1.9277 15.9383C1.84956 16.0165 1.80566 16.1224 1.80566 16.233C1.80566 16.3435 1.84956 16.4494 1.9277 16.5276C2.00584 16.6057 2.11182 16.6496 2.22233 16.6496H17.7773C17.8878 16.6496 17.9938 16.6057 18.072 16.5276C18.1501 16.4494 18.194 16.3435 18.194 16.233C18.194 16.1224 18.1501 16.0165 18.072 15.9383C17.9938 15.8602 17.8878 15.8163 17.7773 15.8163ZM4.35366 15.8163C4.0527 15.8159 3.76417 15.6962 3.55135 15.4833C3.33854 15.2705 3.2188 14.982 3.21841 14.681V5.31906C3.2188 5.01809 3.33854 4.72956 3.55136 4.51674C3.76418 4.30392 4.05271 4.18419 4.35368 4.1838H15.646C15.947 4.1842 16.2355 4.30393 16.4483 4.51675C16.6611 4.72956 16.7808 5.01809 16.7812 5.31906V14.681C16.7808 14.982 16.6611 15.2705 16.4483 15.4833C16.2355 15.6962 15.947 15.8159 15.646 15.8163H4.35366Z" fill="#171723"/>
</g>
<defs>
<clipPath id="clip0_10314_146728">
<rect width="20" height="20" fill="white" transform="translate(20) rotate(90)"/>
</clipPath>
</defs>
</svg>
