<svg width="20" height="20" viewBox="0 0 20 20" fill="none" xmlns="http://www.w3.org/2000/svg">
<path d="M13.7393 5.45502H6.26042C5.87734 5.45556 5.51012 5.60804 5.23932 5.87899C4.96851 6.14995 4.81625 6.51725 4.81592 6.90033V13.0999C4.81592 13.1445 4.82513 13.1867 4.82909 13.2303C4.82877 13.2607 4.83185 13.291 4.83826 13.3208C4.89046 13.6608 5.06247 13.971 5.32325 14.1954C5.58403 14.4197 5.91641 14.5435 6.26043 14.5444H13.7393C14.1223 14.544 14.4895 14.3917 14.7603 14.1209C15.0311 13.8501 15.1834 13.4829 15.1838 13.0999V6.90032C15.1834 6.51724 15.0312 6.14993 14.7604 5.87898C14.4896 5.60803 14.1223 5.45556 13.7393 5.45502ZM6.26042 6.28835H13.7393C13.9014 6.28861 14.0568 6.35319 14.1714 6.46793C14.286 6.58267 14.3504 6.73818 14.3504 6.90033V11.8269L12.4746 9.95046C12.3731 9.84798 12.2523 9.76665 12.1192 9.71119C11.9861 9.65573 11.8433 9.62725 11.699 9.62738H11.6982C11.5545 9.62759 11.4122 9.65616 11.2795 9.71147C11.1469 9.76677 11.0264 9.84771 10.9251 9.94965L9.33988 11.53L8.63268 10.8269C8.5321 10.7242 8.41209 10.6425 8.27964 10.5866C8.14719 10.5308 8.00495 10.5018 7.8612 10.5014H7.85628C7.71192 10.5011 7.56894 10.5295 7.43566 10.585C7.30238 10.6404 7.18145 10.7218 7.07992 10.8245L5.64925 12.2551V6.90032C5.6493 6.73817 5.71368 6.58266 5.82826 6.46792C5.94284 6.35319 6.09827 6.28861 6.26042 6.28835ZM13.7393 13.711H6.26042C6.14658 13.7102 6.03525 13.6775 5.93913 13.6165C5.843 13.5555 5.76593 13.4687 5.71669 13.3661L7.66993 11.4129C7.69422 11.3881 7.72321 11.3684 7.75522 11.355C7.78722 11.3416 7.82158 11.3347 7.85628 11.3347C7.92375 11.3456 7.98749 11.373 8.04183 11.4145L8.86052 12.2283C8.98751 12.3516 9.15714 12.4212 9.33415 12.4228C9.51116 12.4243 9.68195 12.3575 9.81103 12.2364L11.5144 10.5388C11.5384 10.5141 11.5671 10.4945 11.5988 10.4811C11.6306 10.4677 11.6647 10.4607 11.6991 10.4607C11.7338 10.461 11.7682 10.4681 11.8001 10.4816C11.8321 10.4952 11.8611 10.5149 11.8855 10.5396L14.3505 13.0054V13.0999C14.3502 13.2619 14.2858 13.4172 14.1712 13.5318C14.0566 13.6464 13.9013 13.7108 13.7393 13.711V13.711Z" fill="#171723"/>
<path d="M7.99902 9.81047C8.28041 9.81039 8.55547 9.72688 8.78941 9.57049C9.02334 9.41411 9.20566 9.19187 9.31331 8.93188C9.42096 8.67189 9.44911 8.38582 9.39419 8.10984C9.33927 7.83385 9.20376 7.58034 9.00478 7.38137C8.80581 7.18239 8.5523 7.04688 8.27632 6.99196C8.00033 6.93704 7.71426 6.96519 7.45427 7.07284C7.19428 7.18049 6.97204 7.36281 6.81566 7.59674C6.65927 7.83068 6.57576 8.10574 6.57568 8.38713C6.57622 8.76446 6.72635 9.12618 6.99316 9.39299C7.25997 9.6598 7.62169 9.80993 7.99902 9.81047ZM7.99902 7.79797C8.11563 7.79805 8.2296 7.8327 8.32652 7.89756C8.42343 7.96241 8.49894 8.05455 8.54349 8.16231C8.58804 8.27008 8.59964 8.38864 8.57681 8.503C8.55398 8.61735 8.49775 8.72237 8.41523 8.80477C8.33272 8.88717 8.22762 8.94325 8.11323 8.96592C7.99884 8.98859 7.8803 8.97683 7.77259 8.93212C7.66489 8.88742 7.57286 8.81178 7.50814 8.71477C7.44343 8.61777 7.40893 8.50375 7.40902 8.38713C7.40929 8.23082 7.47157 8.08099 7.58218 7.97053C7.69279 7.86007 7.8427 7.798 7.99902 7.79793V7.79797Z" fill="#171723"/>
<path d="M17.7773 15.8163H17.2488C17.4862 15.4853 17.614 15.0883 17.6146 14.681V5.31906C17.614 4.79712 17.4064 4.29672 17.0374 3.92765C16.6683 3.55859 16.1679 3.35101 15.646 3.35046H4.35363C3.8317 3.35101 3.3313 3.55859 2.96223 3.92766C2.59317 4.29672 2.38559 4.79712 2.38505 5.31906V14.681C2.38558 15.0883 2.51346 15.4853 2.7508 15.8163H2.22233C2.11182 15.8163 2.00584 15.8602 1.9277 15.9383C1.84956 16.0165 1.80566 16.1224 1.80566 16.233C1.80566 16.3435 1.84956 16.4494 1.9277 16.5276C2.00584 16.6057 2.11182 16.6496 2.22233 16.6496H17.7773C17.8878 16.6496 17.9938 16.6057 18.072 16.5276C18.1501 16.4494 18.194 16.3435 18.194 16.233C18.194 16.1224 18.1501 16.0165 18.072 15.9383C17.9938 15.8602 17.8878 15.8163 17.7773 15.8163ZM4.35366 15.8163C4.0527 15.8159 3.76417 15.6962 3.55136 15.4833C3.33854 15.2705 3.21881 14.982 3.21841 14.681V5.31906C3.21881 5.01809 3.33854 4.72956 3.55136 4.51675C3.76417 4.30393 4.0527 4.1842 4.35366 4.1838H15.6459C15.9469 4.18419 16.2354 4.30393 16.4483 4.51675C16.6611 4.72956 16.7808 5.01809 16.7812 5.31906V14.681C16.7808 14.982 16.6611 15.2705 16.4483 15.4833C16.2354 15.6962 15.9469 15.8159 15.6459 15.8163H4.35366Z" fill="#171723"/>
</svg>
