<svg width="20" height="20" viewBox="0 0 20 20" fill="none" xmlns="http://www.w3.org/2000/svg">
<path d="M18.1959 5.55845L18.195 5.55443V5.13894C18.1941 4.25517 17.8426 3.40787 17.2177 2.78295C16.5928 2.15803 15.7455 1.80654 14.8617 1.8056H5.1392C4.25543 1.80654 3.40813 2.15804 2.78322 2.78295C2.1583 3.40787 1.80681 4.25517 1.80587 5.13894V5.55036L1.8042 5.55845L1.80587 5.56654V14.861C1.80681 15.7448 2.1583 16.5921 2.78322 17.217C3.40813 17.8419 4.25543 18.1934 5.1392 18.1944H14.8617C15.7455 18.1934 16.5928 17.8419 17.2177 17.217C17.8426 16.5921 18.1941 15.7448 18.195 14.861V5.56248L18.1959 5.55845ZM5.1392 2.63894H14.8617C15.5245 2.63966 16.16 2.90328 16.6287 3.37197C17.0974 3.84065 17.361 4.47612 17.3617 5.13894V5.14179H2.6392V5.13894C2.63992 4.47612 2.90355 3.84065 3.37223 3.37197C3.84092 2.90328 4.47638 2.63966 5.1392 2.63894ZM14.8617 17.361H5.1392C4.47638 17.3603 3.84092 17.0967 3.37223 16.628C2.90355 16.1593 2.63992 15.5238 2.6392 14.861V5.97512H17.3617V14.861C17.361 15.5238 17.0974 16.1593 16.6287 16.628C16.16 17.0967 15.5245 17.3603 14.8617 17.361Z" fill="#171723"/>
<path d="M7.02381 8.83809C6.98453 8.77833 6.93085 8.72942 6.8677 8.69586C6.80456 8.6623 6.73399 8.64516 6.66249 8.64603C6.60085 8.64593 6.54057 8.66413 6.48928 8.69832C6.438 8.73251 6.39801 8.78115 6.37439 8.83809L4.22922 13.9777C4.21433 14.0276 4.21181 14.0805 4.22187 14.1317C4.23193 14.1828 4.25428 14.2308 4.28699 14.2714C4.3216 14.315 4.36566 14.3502 4.41584 14.3743C4.46603 14.3984 4.52103 14.4108 4.57671 14.4106C4.64804 14.4041 4.71657 14.3796 4.7759 14.3395C4.83524 14.2994 4.88345 14.2449 4.91606 14.1811L5.55164 12.6561H7.84414L8.46914 14.1494C8.49612 14.2209 8.54273 14.2834 8.60363 14.3296C8.66452 14.3758 8.73723 14.4039 8.81338 14.4106H8.87929C8.9308 14.4107 8.98154 14.3981 9.02697 14.3738C9.0724 14.3496 9.11112 14.3144 9.13965 14.2715C9.16819 14.2287 9.18565 14.1794 9.19049 14.1281C9.19533 14.0768 9.18739 14.0251 9.16739 13.9777L7.02381 8.83809ZM5.84214 11.9578L6.69827 9.90214L7.55439 11.9578H5.84214Z" fill="#171723"/>
<path d="M11.3615 8.64601H10.2002C10.1173 8.64603 10.0378 8.67896 9.97925 8.73756C9.92065 8.79616 9.88772 8.87564 9.8877 8.95851V14.0981C9.88772 14.181 9.92065 14.2604 9.97925 14.319C10.0378 14.3776 10.1173 14.4106 10.2002 14.4106H10.2889C10.3718 14.4106 10.4513 14.3776 10.5099 14.319C10.5685 14.2604 10.6014 14.181 10.6014 14.0981V12.208H11.3615C11.635 12.2105 11.9069 12.1676 12.1663 12.0811C12.4035 12.0026 12.6238 11.8803 12.8158 11.7206C13.003 11.565 13.1536 11.3701 13.2568 11.1497C13.3622 10.9235 13.4156 10.6765 13.4131 10.427C13.4295 10.1739 13.387 9.92049 13.2889 9.68664C13.1907 9.45279 13.0396 9.2449 12.8475 9.07936C12.4167 8.76837 11.8919 8.61532 11.3615 8.64601ZM12.6123 10.8429C12.551 10.9728 12.4634 11.0886 12.3552 11.183C12.2329 11.2881 12.0914 11.3684 11.9385 11.4195C11.7528 11.4824 11.5576 11.5131 11.3615 11.5102H10.6014V9.34507H11.3615C11.7281 9.31452 12.0939 9.4128 12.3959 9.62298C12.5036 9.72567 12.5869 9.8512 12.6397 9.99034C12.6926 10.1295 12.7135 10.2787 12.701 10.427C12.7023 10.5705 12.6721 10.7124 12.6123 10.8429H12.6123Z" fill="#171723"/>
<path d="M14.7606 8.64606H14.6719C14.4993 8.64606 14.3594 8.78597 14.3594 8.95856V14.0981C14.3594 14.2707 14.4993 14.4106 14.6719 14.4106H14.7606C14.9332 14.4106 15.0731 14.2707 15.0731 14.0981V8.95856C15.0731 8.78597 14.9332 8.64606 14.7606 8.64606Z" fill="#171723"/>
</svg>
