<svg width="20" height="20" viewBox="0 0 20 20" fill="none" xmlns="http://www.w3.org/2000/svg">
<g clip-path="url(#clip0_10317_147156)">
<path d="M6.69574 9.89581L7.55407 11.9541H5.8374L6.69574 9.89581Z" fill="#171723"/>
<path d="M12.3959 9.6208C12.0933 9.41307 11.7283 9.31595 11.3625 9.3458H10.5958V11.5041H11.3625C11.5574 11.5081 11.7517 11.48 11.9375 11.4208C12.089 11.3642 12.2298 11.2825 12.3542 11.1791C12.4608 11.0823 12.5484 10.9664 12.6125 10.8375C12.6696 10.709 12.698 10.5697 12.6958 10.4291C12.7083 10.2806 12.6878 10.1312 12.636 9.99153C12.5842 9.85182 12.5022 9.72524 12.3959 9.6208ZM12.3959 9.6208C12.0933 9.41307 11.7283 9.31595 11.3625 9.3458H10.5958V11.5041H11.3625C11.5574 11.5081 11.7517 11.48 11.9375 11.4208C12.089 11.3642 12.2298 11.2825 12.3542 11.1791C12.4608 11.0823 12.5484 10.9664 12.6125 10.8375C12.6696 10.709 12.698 10.5697 12.6958 10.4291C12.7083 10.2806 12.6878 10.1312 12.636 9.99153C12.5842 9.85182 12.5022 9.72524 12.3959 9.6208ZM12.3959 9.6208C12.0933 9.41307 11.7283 9.31595 11.3625 9.3458H10.5958V11.5041H11.3625C11.5574 11.5081 11.7517 11.48 11.9375 11.4208C12.089 11.3642 12.2298 11.2825 12.3542 11.1791C12.4608 11.0823 12.5484 10.9664 12.6125 10.8375C12.6696 10.709 12.698 10.5697 12.6958 10.4291C12.7083 10.2806 12.6878 10.1312 12.636 9.99153C12.5842 9.85182 12.5022 9.72524 12.3959 9.6208ZM14.8626 1.80414H5.13753C4.69976 1.80401 4.26625 1.89015 3.86177 2.05762C3.4573 2.22509 3.08979 2.47062 2.78023 2.78017C2.47068 3.08973 2.22515 3.45724 2.05768 3.86171C1.89021 4.26619 1.80408 4.6997 1.8042 5.13747H18.1959C18.1947 4.25378 17.8431 3.40662 17.2182 2.78176C16.5934 2.15689 15.7462 1.80532 14.8625 1.80414H14.8626ZM12.3959 9.6208C12.0933 9.41307 11.7283 9.31595 11.3625 9.3458H10.5958V11.5041H11.3625C11.5574 11.5081 11.7517 11.48 11.9375 11.4208C12.089 11.3642 12.2298 11.2825 12.3542 11.1791C12.4608 11.0823 12.5484 10.9664 12.6125 10.8375C12.6696 10.709 12.698 10.5697 12.6958 10.4291C12.7083 10.2806 12.6878 10.1312 12.636 9.99153C12.5842 9.85182 12.5022 9.72524 12.3959 9.6208ZM1.8042 5.9708V14.8625C1.80537 15.7462 2.15693 16.5933 2.7818 17.2182C3.40667 17.8431 4.25384 18.1946 5.13753 18.1958H14.8625C15.7458 18.1932 16.5921 17.8412 17.2167 17.2166C17.8412 16.5921 18.1933 15.7457 18.1959 14.8625V5.9708H1.8042ZM9.13747 14.2708C9.10844 14.3129 9.06997 14.3477 9.02512 14.3723C8.98028 14.3969 8.9303 14.4106 8.87919 14.4125H8.81252C8.73737 14.4049 8.66574 14.3767 8.60548 14.3312C8.54523 14.2856 8.49865 14.2244 8.47086 14.1541L7.84586 12.6541H5.5542L4.91253 14.1791C4.88018 14.2439 4.83181 14.2994 4.77202 14.3402C4.71222 14.381 4.64298 14.4059 4.57087 14.4125C4.51618 14.4109 4.46251 14.3973 4.41358 14.3729C4.36465 14.3484 4.32163 14.3136 4.28753 14.2708C4.2548 14.2306 4.23238 14.183 4.22222 14.1322C4.21205 14.0814 4.21445 14.0288 4.2292 13.9791L6.37087 8.83747C6.39558 8.78062 6.43633 8.73221 6.48813 8.69817C6.53994 8.66413 6.60054 8.64593 6.66253 8.6458C6.73354 8.64518 6.80357 8.6624 6.86619 8.69589C6.92881 8.72938 6.98201 8.77806 7.02092 8.83747L9.16253 13.9791C9.18315 14.026 9.19165 14.0772 9.18727 14.1282C9.18289 14.1791 9.16575 14.2282 9.13745 14.2708H9.13747ZM13.2542 11.1458C13.1539 11.3693 13.0027 11.5663 12.8126 11.7208C12.6208 11.8806 12.4001 12.0022 12.1626 12.0791C11.9046 12.1644 11.6343 12.2066 11.3625 12.2041H10.5959V14.0958C10.5968 14.1369 10.5896 14.1779 10.5745 14.2162C10.5595 14.2545 10.537 14.2894 10.5083 14.3189C10.4796 14.3484 10.4453 14.3718 10.4074 14.3879C10.3695 14.404 10.3288 14.4123 10.2876 14.4125H10.1959C10.1132 14.4107 10.0345 14.3766 9.97687 14.3173C9.91919 14.2581 9.88715 14.1785 9.88766 14.0958V8.95414C9.88887 8.87276 9.92172 8.79505 9.97926 8.73749C10.0368 8.67993 10.1145 8.64704 10.1959 8.6458H11.3625C11.8922 8.61446 12.4164 8.76759 12.8459 9.07914C13.0386 9.24479 13.1901 9.45299 13.2885 9.6873C13.3868 9.9216 13.4293 10.1756 13.4126 10.4291C13.4166 10.6771 13.3623 10.9226 13.2542 11.1458H13.2542ZM15.0709 14.0958C15.0709 14.1374 15.0627 14.1786 15.0468 14.217C15.0309 14.2555 15.0075 14.2904 14.9781 14.3198C14.9487 14.3492 14.9138 14.3725 14.8753 14.3884C14.8369 14.4043 14.7957 14.4125 14.7541 14.4125H14.6709C14.6293 14.4125 14.5881 14.4043 14.5496 14.3884C14.5112 14.3725 14.4763 14.3492 14.4468 14.3198C14.4174 14.2904 14.3941 14.2555 14.3782 14.217C14.3623 14.1786 14.3541 14.1374 14.3541 14.0958V8.95414C14.3558 8.87144 14.39 8.79274 14.4493 8.73505C14.5086 8.67735 14.5882 8.6453 14.6709 8.6458H14.7541C14.8368 8.6453 14.9164 8.67736 14.9757 8.73505C15.0349 8.79274 15.0691 8.87144 15.0708 8.95414L15.0709 14.0958ZM11.3625 9.3458H10.5958V11.5041H11.3625C11.5574 11.5081 11.7517 11.48 11.9375 11.4208C12.089 11.3642 12.2298 11.2825 12.3542 11.1791C12.4608 11.0823 12.5484 10.9664 12.6125 10.8375C12.6695 10.709 12.698 10.5697 12.6958 10.4291C12.7082 10.2806 12.6878 10.1312 12.636 9.99153C12.5842 9.85182 12.5022 9.72525 12.3959 9.6208C12.0933 9.41308 11.7284 9.31596 11.3625 9.3458H11.3625ZM12.3959 9.6208C12.0933 9.41307 11.7283 9.31595 11.3625 9.3458H10.5958V11.5041H11.3625C11.5574 11.5081 11.7517 11.48 11.9375 11.4208C12.089 11.3642 12.2298 11.2825 12.3542 11.1791C12.4608 11.0823 12.5484 10.9664 12.6125 10.8375C12.6695 10.709 12.698 10.5697 12.6958 10.4291C12.7082 10.2806 12.6878 10.1312 12.636 9.99153C12.5842 9.85182 12.5022 9.72525 12.3959 9.6208H12.3959ZM12.3959 9.6208C12.0933 9.41307 11.7283 9.31595 11.3625 9.3458H10.5958V11.5041H11.3625C11.5574 11.5081 11.7517 11.48 11.9375 11.4208C12.089 11.3642 12.2298 11.2825 12.3542 11.1791C12.4608 11.0823 12.5484 10.9664 12.6125 10.8375C12.6695 10.709 12.698 10.5697 12.6958 10.4291C12.7082 10.2806 12.6878 10.1312 12.636 9.99153C12.5842 9.85182 12.5022 9.72525 12.3959 9.6208H12.3959Z" fill="#171723"/>
</g>
<defs>
<clipPath id="clip0_10317_147156">
<rect width="20" height="20" fill="white"/>
</clipPath>
</defs>
</svg>
