<svg width="20" height="20" viewBox="0 0 20 20" fill="none" xmlns="http://www.w3.org/2000/svg">
<path d="M16.9443 1.80383H3.05518C2.72377 1.80419 2.40603 1.93601 2.17169 2.17035C1.93735 2.40469 1.80554 2.72242 1.80518 3.05383V4.71967C1.80614 5.02631 1.92002 5.32186 2.12508 5.54986C2.33015 5.77786 2.61201 5.92233 2.91684 5.95568V15.2796C2.91778 16.0528 3.22537 16.7942 3.77215 17.3409C4.31893 17.8877 5.06025 18.1953 5.83351 18.1963H14.1668C14.9401 18.1953 15.6814 17.8877 16.2282 17.3409C16.775 16.7942 17.0826 16.0528 17.0835 15.2796V5.9556C17.3882 5.92207 17.6698 5.77753 17.8747 5.54958C18.0796 5.32162 18.1934 5.0262 18.1943 4.71969V3.05386C18.194 2.72244 18.0622 2.40471 17.8278 2.17036C17.5935 1.93601 17.2758 1.8042 16.9443 1.80383ZM14.1668 17.3629H5.83351C5.28113 17.3624 4.75152 17.1428 4.36093 16.7522C3.97034 16.3616 3.75069 15.832 3.75018 15.2796V5.96969H16.2502V15.2796C16.2497 15.832 16.03 16.3616 15.6394 16.7522C15.2488 17.1428 14.7192 17.3624 14.1668 17.3629H14.1668ZM17.361 4.71969C17.3608 4.83013 17.3168 4.93598 17.2387 5.01408C17.1606 5.09217 17.0548 5.13614 16.9443 5.13636H3.05518C2.94474 5.13614 2.83888 5.09217 2.76079 5.01408C2.6827 4.93598 2.63873 4.83013 2.63851 4.71969V3.05386C2.63873 2.94342 2.6827 2.83757 2.76079 2.75947C2.83888 2.68138 2.94474 2.63741 3.05518 2.63719H16.9443C17.0548 2.63741 17.1606 2.68138 17.2387 2.75947C17.3168 2.83757 17.3608 2.94342 17.361 3.05386V4.71969Z" fill="#171723"/>
<path d="M12.2222 7.35962H7.77799C7.66749 7.35962 7.56151 7.40352 7.48337 7.48166C7.40523 7.5598 7.36133 7.66578 7.36133 7.77629C7.36133 7.88679 7.40523 7.99277 7.48337 8.07091C7.56151 8.14905 7.66749 8.19295 7.77799 8.19295H12.2222C12.3327 8.19295 12.4386 8.14905 12.5168 8.07091C12.5949 7.99277 12.6388 7.88679 12.6388 7.77629C12.6388 7.66578 12.5949 7.5598 12.5168 7.48166C12.4386 7.40352 12.3327 7.35962 12.2222 7.35962Z" fill="#171723"/>
</svg>
