<svg width="20" height="20" viewBox="0 0 20 20" fill="none" xmlns="http://www.w3.org/2000/svg">
<g clip-path="url(#clip0_5313_35122)">
<path d="M13.0726 13.5997C12.9952 13.5209 12.8897 13.476 12.7793 13.4748C12.6689 13.4736 12.5625 13.5162 12.4834 13.5932L10.3529 15.6764V3.33317C10.3529 3.22266 10.309 3.11668 10.2308 3.03854C10.1527 2.9604 10.0467 2.9165 9.93621 2.9165C9.8257 2.9165 9.71972 2.9604 9.64158 3.03854C9.56344 3.11668 9.51954 3.22266 9.51954 3.33317V15.6452L7.52245 13.6046C7.44493 13.5267 7.3398 13.4827 7.22995 13.4819C7.12009 13.4812 7.0144 13.5239 6.93586 13.6007C6.85733 13.6775 6.81231 13.7823 6.8106 13.8921C6.80889 14.002 6.85063 14.108 6.92674 14.1873L9.63833 16.9578C9.69601 17.017 9.77003 17.0576 9.85092 17.0745C9.93181 17.0913 10.0159 17.0836 10.0924 17.0524L10.0932 17.0522L10.0956 17.0503C10.1446 17.0303 10.1894 17.0012 10.2275 16.9644L13.066 14.1889C13.1052 14.1506 13.1364 14.105 13.1579 14.0547C13.1794 14.0044 13.1908 13.9504 13.1914 13.8956C13.192 13.8409 13.1818 13.7866 13.1614 13.7358C13.141 13.6851 13.1108 13.6388 13.0726 13.5997Z" fill="#494446"/>
</g>
<defs>
<clipPath id="clip0_5313_35122">
<rect width="20" height="20" fill="white"/>
</clipPath>
</defs>
</svg>
