<svg width="20" height="20" viewBox="0 0 20 20" fill="none" xmlns="http://www.w3.org/2000/svg">
<g clip-path="url(#clip0_10310_144565)">
<path d="M16.6669 9.52007H4.35491L6.39593 7.52257C6.47377 7.44505 6.51785 7.33992 6.51857 7.23007C6.51929 7.12021 6.47659 7.01452 6.39978 6.93598C6.32296 6.85745 6.21823 6.81243 6.10839 6.81072C5.99854 6.80901 5.89247 6.85075 5.81325 6.92686L3.04225 9.63886C2.99103 9.69153 2.9551 9.75712 2.93829 9.82863C2.93373 9.84508 2.93028 9.86182 2.92796 9.87873C2.91547 9.95043 2.92228 10.0242 2.9477 10.0924L2.94785 10.0942L2.95285 10.1003C2.97229 10.1477 3.00041 10.191 3.03575 10.2281L5.81163 13.0662C5.85032 13.106 5.89663 13.1376 5.9478 13.1592C5.99898 13.1807 6.05397 13.1917 6.10949 13.1915C6.1915 13.1915 6.27169 13.1673 6.34 13.1219C6.40832 13.0765 6.46172 13.012 6.49353 12.9364C6.52533 12.8608 6.53411 12.7775 6.51878 12.697C6.50345 12.6164 6.46468 12.5421 6.40734 12.4835L4.32394 10.3534H16.6669C16.7774 10.3534 16.8834 10.3095 16.9615 10.2314C17.0397 10.1532 17.0836 10.0472 17.0836 9.93674C17.0836 9.82623 17.0397 9.72025 16.9615 9.64211C16.8834 9.56397 16.7774 9.52007 16.6669 9.52007Z" fill="#171723"/>
</g>
<defs>
<clipPath id="clip0_10310_144565">
<rect width="20" height="20" fill="white" transform="matrix(1.19249e-08 1 1 -1.19249e-08 0 0)"/>
</clipPath>
</defs>
</svg>
