<svg width="20" height="20" viewBox="0 0 20 20" fill="none" xmlns="http://www.w3.org/2000/svg">
<g clip-path="url(#clip0_6280_68608)">
<path d="M6.9405 18.3464C6.05306 18.3474 5.18551 18.0835 4.44899 17.5884C3.71248 17.0933 3.14053 16.3897 2.80643 15.5675C2.47232 14.7453 2.39127 13.8422 2.57365 12.9737C2.75604 12.1052 3.19355 11.3109 3.83016 10.6926L11.8795 2.64327C12.1835 2.3326 12.5461 2.08526 12.9463 1.91554C13.3465 1.74583 13.7763 1.6571 14.211 1.65449C14.647 1.64831 15.0796 1.73254 15.4814 1.90189C15.9859 2.10887 16.4311 2.43805 16.7768 2.85981C17.1226 3.28158 17.358 3.78269 17.462 4.31804C17.5659 4.8534 17.5351 5.40621 17.3724 5.92671C17.2096 6.44721 16.92 6.91908 16.5295 7.29984L8.3907 15.4305C8.09431 15.7196 7.7195 15.9151 7.31288 15.9929C6.90625 16.0706 6.48574 16.0271 6.10362 15.8679C5.7215 15.7086 5.39461 15.4405 5.1636 15.097C4.93259 14.7534 4.80764 14.3496 4.80428 13.9356C4.79858 13.3809 5.01242 12.8464 5.39915 12.4488L9.70665 8.14127C9.78505 8.06444 9.8906 8.02165 10.0004 8.02221C10.1101 8.02276 10.2152 8.06661 10.2929 8.14423C10.3705 8.22184 10.4143 8.32696 10.4149 8.43672C10.4154 8.54649 10.3726 8.65204 10.2958 8.73043L5.99324 13.0331C5.8205 13.2134 5.70434 13.4404 5.65907 13.686C5.61381 13.9316 5.64142 14.1851 5.73851 14.4152C5.8356 14.6452 5.99792 14.8419 6.20544 14.9808C6.41296 15.1197 6.65661 15.1949 6.90633 15.197H6.91772C7.2497 15.1977 7.56872 15.0682 7.8064 14.8365L15.9436 6.70739C16.2363 6.42344 16.4536 6.07109 16.576 5.68213C16.6984 5.29317 16.7221 4.87985 16.6448 4.47947C16.5675 4.07909 16.3917 3.70426 16.1333 3.3888C15.875 3.07334 15.5421 2.82719 15.1648 2.67256C14.8609 2.55881 14.5402 2.49638 14.2159 2.48783C13.8905 2.48948 13.5688 2.55589 13.2694 2.68317C12.97 2.81046 12.6989 2.99607 12.4719 3.2292L4.41525 11.2859C3.9825 11.7045 3.66089 12.2243 3.47952 12.7984C3.29815 13.3725 3.26274 13.9828 3.37648 14.574C3.49022 15.1653 3.74952 15.7188 4.13096 16.1847C4.51239 16.6505 5.00391 17.0139 5.56109 17.2421C6.00603 17.423 6.48212 17.5151 6.96245 17.5131C7.44262 17.5094 7.91727 17.4104 8.35886 17.2218C8.80045 17.0332 9.20019 16.7588 9.53488 16.4144L14.8441 11.1044C14.9225 11.0276 15.0281 10.9848 15.1378 10.9853C15.2476 10.9859 15.3527 11.0297 15.4303 11.1074C15.508 11.185 15.5518 11.2901 15.5524 11.3998C15.5529 11.5096 15.5101 11.6152 15.4333 11.6936L10.1281 16.9995C9.71666 17.4219 9.22549 17.7584 8.68307 17.9896C8.14065 18.2208 7.55774 18.3421 6.96812 18.3464H6.9405Z" fill="#171723"/>
</g>
<defs>
<clipPath id="clip0_6280_68608">
<rect width="20" height="20" fill="white"/>
</clipPath>
</defs>
</svg>
