<svg width="20" height="20" viewBox="0 0 20 20" fill="none" xmlns="http://www.w3.org/2000/svg">
<path d="M12.4056 11.1514H16.9413C17.2737 11.1514 17.5924 11.2834 17.8275 11.5184C18.0625 11.7535 18.1945 12.0722 18.1945 12.4046V16.9408C18.1945 17.2734 18.0624 17.5923 17.8272 17.8275C17.5921 18.0627 17.2731 18.1948 16.9405 18.1948H12.4051C12.0727 18.1948 11.754 18.0628 11.5189 17.8278C11.2839 17.5927 11.1519 17.274 11.1519 16.9416V12.405C11.1519 12.2404 11.1843 12.0774 11.2473 11.9253C11.3103 11.7732 11.4026 11.635 11.5191 11.5185C11.6355 11.4021 11.7737 11.3098 11.9258 11.2468C12.0779 11.1838 12.2409 11.1514 12.4056 11.1514Z" fill="#171723"/>
<path d="M7.95997 11.3597C7.92352 11.2963 7.87099 11.2437 7.80769 11.2071C7.74439 11.1705 7.67256 11.1513 7.59945 11.1514H4.01465C3.94154 11.1513 3.86971 11.1705 3.80641 11.2071C3.74311 11.2437 3.69058 11.2963 3.65413 11.3597L1.86133 14.4644C1.82455 14.5276 1.80518 14.5995 1.80518 14.6727C1.80518 14.7459 1.82455 14.8178 1.86133 14.881L3.65413 17.9865C3.69065 18.0498 3.74319 18.1024 3.80647 18.139C3.86976 18.1755 3.94156 18.1948 4.01465 18.1948H7.59945C7.67254 18.1948 7.74434 18.1755 7.80762 18.139C7.87091 18.1024 7.92345 18.0498 7.95997 17.9865L9.75277 14.881C9.78955 14.8178 9.80892 14.7459 9.80892 14.6727C9.80892 14.5995 9.78955 14.5276 9.75277 14.4644L7.95997 11.3597ZM7.35857 17.3615H4.25553L2.7028 14.6727L4.25553 11.9847H7.35857L8.9113 14.6727L7.35857 17.3615Z" fill="#171723"/>
<path d="M11.5687 8.01664H17.778C17.8511 8.01658 17.9229 7.99729 17.9862 7.96069C18.0495 7.9241 18.1021 7.87149 18.1386 7.80816C18.1751 7.74483 18.1943 7.673 18.1943 7.59989C18.1943 7.52678 18.1751 7.45496 18.1385 7.39164L15.0338 2.01404C14.9944 1.95455 14.9408 1.90574 14.8779 1.87198C14.815 1.83822 14.7447 1.82056 14.6733 1.82056C14.6019 1.82056 14.5317 1.83822 14.4688 1.87198C14.4059 1.90574 14.3523 1.95455 14.3128 2.01404L11.2082 7.39164C11.1716 7.45496 11.1524 7.52678 11.1523 7.59989C11.1523 7.673 11.1716 7.74483 11.2081 7.80816C11.2446 7.87149 11.2972 7.9241 11.3605 7.96069C11.4238 7.99729 11.4956 8.01658 11.5687 8.01664ZM14.6733 3.05571L17.0561 7.18331H12.2905L14.6733 3.05571Z" fill="#171723"/>
<path d="M5.3265 8.84832C6.02295 8.84832 6.70376 8.64179 7.28284 8.25487C7.86192 7.86794 8.31326 7.31798 8.57978 6.67455C8.8463 6.03111 8.91604 5.32309 8.78017 4.64002C8.64429 3.95695 8.30892 3.32951 7.81646 2.83704C7.32399 2.34457 6.69655 2.0092 6.01348 1.87333C5.33041 1.73746 4.62239 1.80719 3.97895 2.07371C3.33552 2.34023 2.78556 2.79156 2.39863 3.37064C2.0117 3.94972 1.80518 4.63053 1.80518 5.32698C1.80639 6.26052 2.17777 7.15548 2.83789 7.8156C3.498 8.47571 4.39296 8.8471 5.3265 8.84832ZM3.10996 3.81087H7.54381C7.60028 3.8995 7.65153 3.99134 7.69731 4.08593H2.95648C3.00223 3.99133 3.05347 3.89949 3.10996 3.81087ZM3.79996 3.11914H6.85365C6.97195 3.20179 7.08344 3.29377 7.18706 3.39421H3.46666C3.57026 3.2938 3.68172 3.20182 3.79996 3.11915V3.11914ZM2.63851 5.32698C2.63851 5.28141 2.64975 5.23894 2.65199 5.19392H8.00183C8.00406 5.23892 8.0153 5.28142 8.0153 5.32698C8.0153 5.37282 8.00406 5.41558 8.00178 5.46086H2.65204C2.64975 5.41558 2.63851 5.37281 2.63851 5.32698ZM7.95763 5.87752C7.93414 5.9707 7.90558 6.06252 7.87208 6.15258H2.78174C2.74823 6.06253 2.71967 5.9707 2.69619 5.87752H7.95763ZM7.87241 4.5026C7.90589 4.59252 7.93441 4.68421 7.95786 4.77726H2.69593C2.71936 4.68421 2.74789 4.59252 2.78138 4.5026H7.87241ZM7.69663 6.56927C7.65082 6.66372 7.59955 6.75543 7.54308 6.84392H3.11067C3.05416 6.75545 3.00289 6.66374 2.95712 6.56927H7.69663ZM7.18602 7.26059C7.08243 7.36103 6.97096 7.45301 6.85268 7.53566H3.80093C3.68265 7.45301 3.57118 7.36103 3.46759 7.26059H7.18602ZM4.75983 7.95232H5.89342C5.52018 8.03588 5.13308 8.03588 4.75984 7.95232H4.75983ZM5.89601 2.70248H4.75724C5.13211 2.61785 5.52114 2.61785 5.89601 2.70248Z" fill="#171723"/>
</svg>
