<svg width="20" height="20" viewBox="0 0 20 20" fill="none" xmlns="http://www.w3.org/2000/svg">
<path d="M18.0633 17.4762L17.0555 16.4599C16.9796 16.386 16.8781 16.3442 16.7722 16.3432C16.7328 16.3441 16.6936 16.3497 16.6555 16.3599L16.1225 15.8268C16.1891 15.7518 16.2474 15.6768 16.3057 15.6019C16.4227 15.4563 16.5258 15.3001 16.6139 15.1354C16.9216 14.5827 17.0822 13.9603 17.0804 13.3278C17.0789 12.5631 16.8434 11.8173 16.4056 11.1904C15.9678 10.5635 15.3487 10.0856 14.6314 9.82086C14.3646 9.71354 14.0843 9.64347 13.7984 9.61261C13.644 9.58878 13.488 9.57763 13.3319 9.57928C12.5562 9.57848 11.7995 9.81856 11.1662 10.2663C10.5328 10.7141 10.0542 11.3475 9.79634 12.0791C9.53848 12.8106 9.51414 13.6041 9.72669 14.3501C9.93923 15.096 10.3782 15.7576 10.9829 16.2433C11.4921 16.6608 12.1055 16.9315 12.7571 17.0264C12.9468 17.0603 13.1392 17.077 13.3319 17.0764C13.9618 17.0781 14.5815 16.9175 15.1312 16.6099C15.2959 16.5218 15.4521 16.4186 15.5977 16.3017C15.6726 16.2433 15.7476 16.185 15.8226 16.1184L16.364 16.6599C16.3518 16.6949 16.3434 16.7313 16.339 16.7682V16.7765C16.3433 16.8809 16.3882 16.9796 16.464 17.0514L17.4803 18.0677C17.5179 18.1072 17.5631 18.1386 17.6132 18.1601C17.6633 18.1816 17.7173 18.1926 17.7718 18.1926C17.8264 18.1926 17.8803 18.1816 17.9304 18.1601C17.9806 18.1386 18.0258 18.1072 18.0634 18.0677C18.103 18.0284 18.1344 17.9817 18.1559 17.9302C18.1773 17.8788 18.1884 17.8235 18.1884 17.7678C18.1866 17.6579 18.1417 17.5532 18.0633 17.4762ZM14.673 15.9185C14.2808 16.1214 13.8477 16.2327 13.4062 16.2438C12.9647 16.255 12.5265 16.1657 12.1245 15.9827C11.7226 15.7998 11.3675 15.5279 11.0859 15.1877C10.8044 14.8475 10.6038 14.4477 10.4993 14.0187C10.3948 13.5896 10.3891 13.1424 10.4826 12.7108C10.5762 12.2792 10.7665 11.8745 11.0393 11.5272C11.3121 11.1799 11.6602 10.8991 12.0573 10.706C12.4545 10.5128 12.8903 10.4124 13.3319 10.4123C13.5736 10.4125 13.8143 10.4433 14.0483 10.504C14.0816 10.5123 14.1066 10.5206 14.14 10.5289C14.5541 10.6485 14.9365 10.8584 15.2598 11.1435C15.5831 11.4286 15.8392 11.7818 16.0096 12.1777C16.1801 12.5736 16.2607 13.0023 16.2456 13.4331C16.2306 13.8638 16.1202 14.2859 15.9225 14.6689C15.6404 15.201 15.2051 15.6363 14.673 15.9185ZM12.324 1.8075H4.11064C3.50127 1.80871 2.9172 2.05131 2.4863 2.48219C2.0554 2.91306 1.81277 3.49712 1.81152 4.10649V14.7772C1.81275 15.3866 2.05537 15.9707 2.48626 16.4016C2.91716 16.8325 3.50123 17.0751 4.11061 17.0763H10.708C10.6247 17.018 10.5414 16.9514 10.4581 16.8847C10.2174 16.6968 9.99937 16.4815 9.80835 16.2433C9.12099 15.4277 8.74602 14.3944 8.75042 13.3278C8.75257 12.1134 9.23596 10.9493 10.0947 10.0906C10.9534 9.23183 12.1175 8.74845 13.3319 8.74631C13.4878 8.74609 13.6435 8.75444 13.7984 8.77131C13.846 8.77276 13.8934 8.77834 13.94 8.78797C14.1749 8.81483 14.4065 8.86508 14.6314 8.93797V4.10649C14.6297 3.49582 14.3858 2.91078 13.9532 2.47976C13.5206 2.04874 12.9346 1.80697 12.324 1.8075ZM8.47552 9.85416H4.27719C4.22234 9.8547 4.16794 9.8443 4.11716 9.82356C4.06639 9.80282 4.02026 9.77216 3.98147 9.73338C3.94269 9.6946 3.91203 9.64847 3.89129 9.59769C3.87055 9.54691 3.86015 9.49251 3.86069 9.43766C3.86101 9.3273 3.905 9.22155 3.98303 9.14351C4.06107 9.06547 4.16683 9.02148 4.27719 9.02116H8.47552C8.58545 9.02289 8.69038 9.06733 8.76812 9.14507C8.84586 9.2228 8.89029 9.32774 8.89202 9.43766C8.89171 9.54803 8.84773 9.65379 8.76969 9.73183C8.69165 9.80987 8.58589 9.85385 8.47552 9.85416ZM12.5406 7.79666H4.27723C4.16687 7.79633 4.06112 7.75235 3.98309 7.67431C3.90505 7.59627 3.86106 7.49052 3.86073 7.38016C3.86019 7.32532 3.87059 7.27091 3.89133 7.22014C3.91207 7.16936 3.94273 7.12323 3.98152 7.08445C4.0203 7.04566 4.06643 7.015 4.11721 6.99427C4.16798 6.97353 4.22239 6.96312 4.27723 6.96366H12.5406C12.5954 6.96312 12.6498 6.97352 12.7006 6.99426C12.7514 7.015 12.7975 7.04565 12.8363 7.08444C12.8751 7.12322 12.9057 7.16936 12.9265 7.22013C12.9472 7.27091 12.9576 7.32532 12.9571 7.38016C12.9568 7.49054 12.9128 7.5963 12.8347 7.67436C12.7567 7.75241 12.6509 7.7964 12.5406 7.79672V7.79666ZM12.5406 5.73079H4.27723C4.16677 5.73079 4.06083 5.68691 3.98272 5.6088C3.90461 5.53069 3.86073 5.42475 3.86073 5.31429C3.86073 5.20383 3.90461 5.09789 3.98272 5.01978C4.06083 4.94167 4.16677 4.89779 4.27723 4.89779H12.5406C12.651 4.89779 12.757 4.94167 12.8351 5.01978C12.9132 5.09789 12.9571 5.20383 12.9571 5.31429C12.9571 5.42475 12.9132 5.53069 12.8351 5.6088C12.757 5.68691 12.651 5.73079 12.5406 5.73079Z" fill="#171723"/>
</svg>
