<svg width="20" height="20" viewBox="0 0 20 20" fill="none" xmlns="http://www.w3.org/2000/svg">
<g clip-path="url(#clip0_10314_145358)">
<path d="M9.99607 3.76673C8.5738 3.76548 7.18169 4.1768 5.98849 4.95084C4.79529 5.72489 3.85223 6.82841 3.27361 8.12767C2.69499 9.42692 2.50565 10.8661 2.72855 12.2708C2.95144 13.6755 3.577 14.9854 4.52941 16.0417C4.57941 16.1001 4.62107 16.1501 4.67107 16.2001C5.27776 15.3407 6.08177 14.6394 7.01559 14.1551C7.94941 13.6708 8.9858 13.4176 10.0377 13.4167C10.2466 13.4123 10.4555 13.4234 10.6627 13.4501C11.5923 13.5444 12.4895 13.8428 13.2904 14.324C14.0913 14.8051 14.7762 15.4571 15.2961 16.2334C15.3461 16.1917 15.3877 16.1417 15.4377 16.0917C16.4005 15.0372 17.0358 13.7254 17.2663 12.3162C17.4967 10.907 17.3123 9.46119 16.7356 8.15492C16.1588 6.84865 15.2146 5.73831 14.018 4.95917C12.8214 4.18003 11.424 3.76572 9.99607 3.76673ZM9.99607 12.5751C9.46407 12.5734 8.94448 12.4142 8.50294 12.1174C8.0614 11.8206 7.71769 11.3997 7.51525 10.9077C7.3128 10.4157 7.26068 9.87477 7.36548 9.35319C7.47028 8.8316 7.72729 8.35277 8.10405 7.97717C8.48082 7.60157 8.96044 7.34604 9.48234 7.24285C10.0042 7.13967 10.545 7.19346 11.0364 7.39742C11.5277 7.60139 11.9476 7.94639 12.243 8.38885C12.5384 8.83131 12.6961 9.35139 12.6961 9.88339C12.6972 10.2379 12.628 10.5891 12.4926 10.9167C12.3572 11.2443 12.1582 11.5418 11.9072 11.7921C11.6562 12.0424 11.358 12.2404 11.03 12.3748C10.702 12.5092 10.3506 12.5773 9.99607 12.5751Z" fill="#171723"/>
</g>
<defs>
<clipPath id="clip0_10314_145358">
<rect width="20" height="20" fill="white"/>
</clipPath>
</defs>
</svg>
