<svg width="20" height="20" viewBox="0 0 20 20" fill="none" xmlns="http://www.w3.org/2000/svg">
<g clip-path="url(#clip0_5313_35234)">
<path d="M7.58627 8.44687L13.7044 5.02158C13.9815 4.87693 14.2914 4.80666 14.6038 4.81764C14.9162 4.82863 15.2204 4.92049 15.4867 5.08425C15.7674 5.25534 15.999 5.4964 16.1586 5.78385C16.3182 6.0713 16.4005 6.39527 16.3973 6.72405V13.2768C16.4004 13.6056 16.3182 13.9295 16.1587 14.2171C15.9993 14.5046 15.768 14.7459 15.4875 14.9174C15.2035 15.091 14.8771 15.1831 14.5443 15.1835C14.2478 15.1828 13.9558 15.1108 13.693 14.9735L7.58708 11.5572C7.31051 11.4025 7.08018 11.1769 6.91982 10.9036C6.75947 10.6303 6.67489 10.3191 6.6748 10.0023C6.67472 9.68538 6.75913 9.3742 6.91934 9.1008C7.07955 8.82739 7.30976 8.60165 7.58625 8.44684L7.58627 8.44687Z" fill="#171723"/>
<path d="M3.60254 5.64986V14.3502C3.60254 14.5712 3.69034 14.7832 3.84662 14.9395C4.0029 15.0957 4.21486 15.1835 4.43587 15.1835C4.65689 15.1835 4.86885 15.0957 5.02513 14.9395C5.18141 14.7832 5.26921 14.5712 5.26921 14.3502V5.64986C5.26921 5.42885 5.18141 5.21689 5.02513 5.06061C4.86885 4.90433 4.65689 4.81653 4.43587 4.81653C4.21486 4.81653 4.0029 4.90433 3.84662 5.06061C3.69034 5.21689 3.60254 5.42885 3.60254 5.64986Z" fill="#171723"/>
</g>
<defs>
<clipPath id="clip0_5313_35234">
<rect width="20" height="20" fill="white"/>
</clipPath>
</defs>
</svg>
