<svg width="20" height="20" viewBox="0 0 20 20" fill="none" xmlns="http://www.w3.org/2000/svg">
<g clip-path="url(#clip0_10314_144690)">
<path d="M16.2523 7.08349C16.5426 7.08308 16.8209 6.96752 17.0261 6.76216C17.2313 6.55681 17.3466 6.27843 17.3468 5.98812V3.74772C17.3466 3.45741 17.2313 3.17903 17.0261 2.97367C16.8209 2.76832 16.5426 2.65275 16.2523 2.65234H14.0111C13.7208 2.65275 13.4425 2.76832 13.2373 2.97367C13.0321 3.17903 12.9167 3.45741 12.9165 3.74772V4.03011H7.08317V3.74772C7.08298 3.45741 6.96762 3.17903 6.76241 2.97367C6.55721 2.76832 6.27892 2.65275 5.98861 2.65234H3.7474C3.45709 2.65275 3.1788 2.76832 2.97359 2.97367C2.76839 3.17903 2.65303 3.45741 2.65283 3.74772V5.98812C2.65303 6.27843 2.76839 6.55681 2.97359 6.76216C3.1788 6.96752 3.45709 7.08308 3.7474 7.08349H4.03061V12.9168H3.7474C3.45717 12.9171 3.1789 13.0324 2.97367 13.2377C2.76845 13.4429 2.65306 13.7212 2.65283 14.0114V16.2526C2.65306 16.5428 2.76845 16.8211 2.97367 17.0263C3.1789 17.2315 3.45717 17.3469 3.7474 17.3472H5.98861C6.27883 17.3469 6.55711 17.2315 6.76233 17.0263C6.96755 16.8211 7.08295 16.5428 7.08317 16.2526V15.971H12.9165V16.2526C12.9167 16.5428 13.0321 16.8211 13.2373 17.0263C13.4426 17.2315 13.7208 17.3469 14.0111 17.3472H16.2523C16.5425 17.3469 16.8208 17.2315 17.026 17.0263C17.2312 16.8211 17.3466 16.5428 17.3468 16.2526V14.0114C17.3466 13.7212 17.2312 13.4429 17.026 13.2377C16.8208 13.0324 16.5425 12.9171 16.2523 12.9168H15.9723V7.08349H16.2523ZM13.7498 3.74772C13.7497 3.67833 13.7772 3.61175 13.8262 3.56261C13.8752 3.51347 13.9417 3.48579 14.0111 3.48568H16.2523C16.3217 3.48579 16.3882 3.51347 16.4371 3.56261C16.4861 3.61175 16.5136 3.67833 16.5135 3.74772V5.98812C16.5136 6.05751 16.4861 6.12409 16.4371 6.17323C16.3882 6.22237 16.3217 6.25004 16.2523 6.25016H15.5759C15.5688 6.2498 15.5628 6.24609 15.5557 6.24609C15.5485 6.24609 15.5425 6.2498 15.5355 6.25016H14.0111C13.9417 6.25004 13.8752 6.22237 13.8262 6.17323C13.7772 6.12409 13.7497 6.05751 13.7498 5.98812V3.74772ZM3.48617 5.98812V3.74772C3.48607 3.67833 3.51353 3.61174 3.56252 3.5626C3.61151 3.51346 3.67801 3.48579 3.7474 3.48568H5.98861C6.058 3.48579 6.1245 3.51346 6.17349 3.5626C6.22247 3.61174 6.24994 3.67833 6.24984 3.74772V4.43467L6.2474 4.44678L6.24984 4.45889V5.98812C6.24994 6.05751 6.22247 6.12409 6.17349 6.17323C6.1245 6.22237 6.058 6.25005 5.98861 6.25016H4.46746C4.46039 6.2498 4.45444 6.24609 4.44727 6.24609C4.44009 6.24609 4.43414 6.2498 4.42707 6.25016H3.7474C3.67801 6.25005 3.61151 6.22237 3.56252 6.17323C3.51353 6.12409 3.48607 6.05751 3.48617 5.98812ZM5.98861 16.5138H3.7474C3.67814 16.5138 3.61174 16.4862 3.56277 16.4372C3.51379 16.3883 3.48624 16.3219 3.48617 16.2526V14.0114C3.48624 13.9421 3.51379 13.8757 3.56277 13.8268C3.61174 13.7778 3.67814 13.7502 3.7474 13.7502H5.98861C6.05787 13.7502 6.12427 13.7778 6.17324 13.8268C6.22221 13.8757 6.24976 13.9421 6.24984 14.0114V15.5422L6.2474 15.5543L6.24984 15.5664V16.2526C6.24977 16.3218 6.22222 16.3882 6.17325 16.4372C6.12427 16.4862 6.05787 16.5138 5.98861 16.5138ZM16.5135 14.0114V16.2526C16.5134 16.3219 16.4859 16.3883 16.4369 16.4372C16.3879 16.4862 16.3215 16.5138 16.2523 16.5138H14.0111C13.9418 16.5138 13.8754 16.4862 13.8264 16.4372C13.7775 16.3883 13.7499 16.3219 13.7498 16.2526V14.0114C13.7499 13.9421 13.7775 13.8757 13.8264 13.8268C13.8754 13.7778 13.9418 13.7502 14.0111 13.7502H16.2523C16.3215 13.7502 16.3879 13.7778 16.4369 13.8268C16.4859 13.8757 16.5134 13.9421 16.5135 14.0114ZM15.139 12.9168H14.0111C13.7208 12.9171 13.4426 13.0324 13.2373 13.2377C13.0321 13.4429 12.9167 13.7212 12.9165 14.0114V15.1377H7.08317V14.0114C7.08295 13.7212 6.96755 13.4429 6.76233 13.2377C6.55711 13.0324 6.27883 12.9171 5.98861 12.9168H4.86394V7.08349H5.98861C6.27892 7.08308 6.55721 6.96752 6.76241 6.76216C6.96762 6.55681 7.08298 6.27843 7.08317 5.98812V4.86344H12.9165V5.98812C12.9167 6.27843 13.0321 6.55681 13.2373 6.76216C13.4425 6.96752 13.7208 7.08308 14.0111 7.08349H15.139V12.9168Z" fill="#171723"/>
</g>
<defs>
<clipPath id="clip0_10314_144690">
<rect width="20" height="20" fill="white"/>
</clipPath>
</defs>
</svg>
