<svg width="20" height="20" viewBox="0 0 20 20" fill="none" xmlns="http://www.w3.org/2000/svg">
<g clip-path="url(#clip0_5313_35212)">
<path d="M17.5362 5.33058C17.8431 5.05271 18.0577 4.68749 18.1509 4.28405C18.2441 3.88062 18.2116 3.45831 18.0576 3.07392C17.9037 2.68954 17.6357 2.36151 17.2898 2.13396C16.9438 1.90641 16.5365 1.79026 16.1226 1.80111C15.8483 1.80709 15.5781 1.86917 15.3287 1.98351C15.0793 2.09786 14.8559 2.26206 14.6724 2.466L10.3413 7.22433C10.3164 7.25291 10.2858 7.27599 10.2515 7.2921C10.2172 7.30821 10.1799 7.317 10.1419 7.31791C10.1017 7.31804 10.0618 7.31011 10.0246 7.2946C9.98742 7.27909 9.95372 7.2563 9.92548 7.22758L8.99774 6.29981C8.64964 5.95976 8.1822 5.76958 7.69557 5.77004C7.20895 5.77049 6.74186 5.96155 6.3944 6.30225L4.71145 7.9852C4.70605 7.99059 4.70438 7.99781 4.69934 8.0034L2.48091 10.2301C2.05718 10.6491 1.81324 11.2167 1.80079 11.8124C1.78835 12.4082 2.00838 12.9855 2.41425 13.4218L4.48925 11.3468C4.52769 11.3072 4.57368 11.2758 4.62449 11.2543C4.67531 11.2328 4.72991 11.2218 4.78508 11.2218C4.84024 11.2218 4.89485 11.2328 4.94566 11.2543C4.99648 11.2758 5.04247 11.3072 5.08091 11.3468C5.15705 11.4248 5.19967 11.5294 5.19967 11.6384C5.19967 11.7474 5.15705 11.8521 5.08091 11.9301L2.99758 14.0134L6.50591 17.5217C6.7193 17.7382 6.97359 17.9101 7.25398 18.0274C7.53438 18.1447 7.8353 18.2051 8.13925 18.2051C8.44319 18.2051 8.74411 18.1447 9.02451 18.0274C9.3049 17.9101 9.55919 17.7382 9.77258 17.5217L11.9909 15.3035C11.9963 15.2986 12.0036 15.2967 12.0088 15.2915L13.6926 13.6078C14.0377 13.262 14.2315 12.7934 14.2315 12.3048C14.2315 11.8163 14.0377 11.3477 13.6926 11.0019L12.7722 10.0823C12.7427 10.0527 12.7196 10.0173 12.7044 9.97839C12.6891 9.93948 12.682 9.89786 12.6835 9.85609C12.6844 9.81648 12.6933 9.77747 12.7097 9.74138C12.726 9.7053 12.7495 9.67289 12.7787 9.64609L17.5362 5.33058ZM12.1781 10.6667L13.1034 11.5912C13.2925 11.7805 13.3988 12.0372 13.3988 12.3049C13.3988 12.5725 13.2925 12.8292 13.1034 13.0186L11.7142 14.4077L5.59524 8.2798L6.98114 6.89389C7.17199 6.70691 7.42839 6.60199 7.69556 6.60153C7.96274 6.60108 8.2195 6.70512 8.41099 6.89145L9.33221 7.81267C9.5548 8.03102 9.85458 8.15269 10.1664 8.15121C10.318 8.14712 10.4671 8.11183 10.6044 8.04757C10.7418 7.9833 10.8644 7.89143 10.9647 7.77768L15.29 3.02589C15.3979 2.9056 15.5293 2.80877 15.6762 2.74143C15.823 2.67409 15.9822 2.63768 16.1437 2.63445C16.3061 2.62612 16.4684 2.65292 16.6196 2.71304C16.7707 2.77315 16.907 2.86516 17.0194 2.98278C17.1348 3.09678 17.2256 3.23321 17.2863 3.38366C17.347 3.53412 17.3762 3.69541 17.3722 3.85759C17.3681 4.01977 17.3309 4.1794 17.2628 4.32665C17.1947 4.47389 17.0972 4.60563 16.9762 4.71374L12.2179 9.03015L12.2162 9.03098C12.1044 9.13276 12.0143 9.2561 11.9514 9.39357C11.8885 9.53105 11.854 9.67983 11.85 9.83098C11.8454 9.98522 11.8721 10.1388 11.9285 10.2824C11.9849 10.4261 12.0698 10.5568 12.1781 10.6667Z" fill="#171723"/>
</g>
<defs>
<clipPath id="clip0_5313_35212">
<rect width="20" height="20" fill="white"/>
</clipPath>
</defs>
</svg>
