<svg width="20" height="20" viewBox="0 0 20 20" fill="none" xmlns="http://www.w3.org/2000/svg">
<g clip-path="url(#clip0_10314_146456)">
<path d="M13.2594 12.2487L15.5893 7.63623C15.863 7.5116 16.1069 7.32995 16.3048 7.10345C16.4303 7.17101 16.5703 7.20711 16.7128 7.20863C16.7905 7.20864 16.868 7.19852 16.9431 7.17852C17.056 7.14872 17.1619 7.09675 17.2545 7.02563C17.3471 6.95452 17.4247 6.86568 17.4826 6.7643L17.8 6.21416C17.9934 5.88002 18.119 5.51104 18.1697 5.12832C18.2204 4.7456 18.1951 4.35664 18.0954 3.98368C17.9957 3.61072 17.8235 3.26107 17.5885 2.95471C17.3536 2.64835 17.0606 2.39129 16.7263 2.19823C16.392 2.00516 16.0229 1.87988 15.6401 1.82953C15.2574 1.77919 14.8684 1.80477 14.4956 1.90482C14.1227 2.00487 13.7732 2.17742 13.467 2.41262C13.1609 2.64781 12.9041 2.94103 12.7113 3.27552L12.3923 3.82646C12.281 4.02235 12.2486 4.25339 12.302 4.47231C12.3553 4.69124 12.4903 4.88151 12.6793 5.00421C12.5798 5.29349 12.544 5.60085 12.5744 5.90525L9.99974 8.70442L7.42592 5.90527C7.4563 5.60092 7.42054 5.2936 7.32109 5.00435C7.51241 4.88361 7.64925 4.69317 7.70264 4.47333C7.75603 4.25349 7.72179 4.02151 7.60717 3.82646L7.28897 3.27552C7.0962 2.94103 6.8394 2.64781 6.53326 2.41262C6.22711 2.17742 5.87761 2.00487 5.50473 1.90482C5.13186 1.80477 4.74293 1.77919 4.36016 1.82953C3.9774 1.87988 3.60831 2.00516 3.27399 2.19823C2.93967 2.39129 2.64667 2.64835 2.41175 2.95471C2.17683 3.26107 2.00459 3.61072 1.90488 3.98368C1.80516 4.35664 1.77992 4.7456 1.83061 5.12832C1.88129 5.51104 2.00691 5.88002 2.20027 6.21416L2.51765 6.7643C2.63078 6.96343 2.81735 7.11037 3.03744 7.17368C3.25754 7.237 3.49367 7.21166 3.69532 7.10309C3.89318 7.32973 4.13717 7.5115 4.41096 7.63623L6.74062 12.2489L1.91543 17.4951C1.8606 17.5547 1.8243 17.6289 1.81099 17.7088C1.79767 17.7887 1.80791 17.8707 1.84045 17.9449C1.873 18.019 1.92643 18.0821 1.99423 18.1263C2.06203 18.1706 2.14126 18.1942 2.22223 18.1941H17.7781C17.859 18.1942 17.9383 18.1706 18.0061 18.1263C18.0739 18.0821 18.1273 18.019 18.1598 17.9449C18.1924 17.8707 18.2026 17.7887 18.1893 17.7088C18.176 17.6289 18.1397 17.5547 18.0849 17.4951L13.2594 12.2487ZM13.4248 5.44634L15.5645 6.68171C15.3587 6.86301 15.1014 6.97548 14.8286 7.00342C14.5557 7.03135 14.281 6.97336 14.0427 6.83755C13.8944 6.75197 13.7646 6.63786 13.6607 6.50181C13.5567 6.36576 13.4808 6.21046 13.4372 6.0449C13.387 5.84901 13.3828 5.64415 13.4248 5.44634ZM13.4323 3.69217C13.7115 3.20859 14.1714 2.85573 14.7107 2.7112C15.2501 2.56667 15.8247 2.64231 16.3083 2.92149C16.7919 3.20067 17.1448 3.66052 17.2893 4.19987C17.4338 4.73923 17.3582 5.3139 17.079 5.79748L16.6876 6.36796L16.4191 6.21296C16.4149 6.21036 16.4127 6.20604 16.4084 6.2036C16.4042 6.2011 16.3994 6.20136 16.3951 6.19907L13.428 4.48588L13.4185 4.47755L13.4065 4.47348L13.1345 4.31642L13.1142 4.24317L13.4323 3.69217ZM12.8754 6.80975C13.0476 7.10747 13.292 7.35694 13.5862 7.53506C13.8804 7.71318 14.2147 7.81419 14.5583 7.82873L12.6568 11.5934L10.5662 9.32043L12.8754 6.80975ZM12.2553 12.388L9.99977 16.8532L7.74452 12.3879L9.99972 9.93567L12.2553 12.388ZM4.43548 6.68149L6.57548 5.44629C6.61761 5.6441 6.61336 5.84899 6.56307 6.04489C6.5195 6.21046 6.44357 6.36575 6.33964 6.50181C6.23572 6.63786 6.10586 6.75197 5.95758 6.83755C5.71926 6.97341 5.44443 7.03141 5.17152 7.00343C4.89862 6.97545 4.64128 6.86289 4.43548 6.68149ZM3.23868 6.34763L2.92129 5.7975C2.64211 5.31403 2.56642 4.73946 2.71087 4.20019C2.85533 3.66091 3.20809 3.20111 3.69156 2.92193C4.17502 2.64275 4.74959 2.56706 5.28887 2.71151C5.82814 2.85596 6.28794 3.20872 6.56713 3.69219L6.89021 4.28386C6.88851 4.29053 6.88547 4.29679 6.88127 4.30224C6.87708 4.3077 6.87181 4.31225 6.86579 4.3156V4.31643L3.23868 6.34763ZM5.44189 7.82875C5.78549 7.81421 6.11986 7.71321 6.41404 7.53509C6.70823 7.35697 6.9527 7.10749 7.12483 6.80976L9.43415 9.32045L7.34342 11.5936L5.44189 7.82875ZM7.14183 13.0433L9.32246 17.3608H3.17113L7.14183 13.0433ZM10.6771 17.3608L12.858 13.0433L16.8292 17.3608H10.6771Z" fill="#171723"/>
</g>
<defs>
<clipPath id="clip0_10314_146456">
<rect width="20" height="20" fill="white"/>
</clipPath>
</defs>
</svg>
