<svg width="20" height="20" viewBox="0 0 20 20" fill="none" xmlns="http://www.w3.org/2000/svg">
<g clip-path="url(#clip0_10314_144687)">
<path d="M16.1125 12.834C16.1953 12.832 16.2756 12.8046 16.3424 12.7557C16.3543 12.7485 16.3658 12.7408 16.3768 12.7325C16.438 12.6811 16.4826 12.6128 16.5052 12.5362C16.5074 12.529 16.5151 12.5257 16.5169 12.5182L18.1836 5.85156C18.1869 5.82752 18.188 5.80322 18.1868 5.77898C18.1876 5.76911 18.1925 5.76072 18.1925 5.75064C18.1925 5.74424 18.1892 5.73898 18.1889 5.73259C18.1869 5.69275 18.1789 5.65343 18.1654 5.61592C18.1611 5.60168 18.156 5.58769 18.1502 5.57401C18.1342 5.54157 18.1139 5.51142 18.0898 5.48439C18.0788 5.47047 18.0669 5.45726 18.0543 5.44487C18.0109 5.40992 17.9625 5.38168 17.9107 5.3611C17.8997 5.35739 17.8915 5.34944 17.88 5.34655C17.8449 5.34747 17.8098 5.34323 17.7759 5.33394H5.60362L4.85029 2.31636C4.82772 2.22617 4.77566 2.14612 4.70238 2.08891C4.6291 2.0317 4.5388 2.00062 4.44583 2.00061H2.22087C2.11036 2.00061 2.00438 2.04451 1.92624 2.12265C1.8481 2.20079 1.8042 2.30677 1.8042 2.41728C1.8042 2.52778 1.8481 2.63376 1.92624 2.7119C2.00438 2.79004 2.11036 2.83394 2.22087 2.83394H4.12027L6.98221 14.2973C6.59991 14.4073 6.26227 14.6356 6.01771 14.9493C5.77314 15.2631 5.6342 15.6462 5.62082 16.0438C5.60743 16.4414 5.72029 16.833 5.94321 17.1625C6.16612 17.492 6.48765 17.7424 6.86168 17.8779C7.23571 18.0134 7.64304 18.0269 8.02525 17.9166C8.40747 17.8064 8.74495 17.5779 8.98929 17.2639C9.23363 16.95 9.3723 16.5668 9.3854 16.1692C9.3985 15.7716 9.28536 15.38 9.06221 15.0507H13.9874C13.7514 15.3997 13.6387 15.8175 13.6672 16.2378C13.6957 16.6581 13.8638 17.0569 14.1447 17.3708C14.4256 17.6847 14.8034 17.8958 15.2179 17.9707C15.6325 18.0455 16.0602 17.9797 16.4332 17.7838C16.8061 17.5879 17.1029 17.273 17.2766 16.8892C17.4502 16.5054 17.4907 16.0746 17.3916 15.6651C17.2925 15.2557 17.0596 14.891 16.7296 14.629C16.3997 14.3671 15.9918 14.2228 15.5705 14.219L15.5623 14.2174H7.82154L7.47613 12.8339L16.1125 12.834ZM17.2453 6.16732L15.7869 12.0007H7.26811L5.81171 6.16732H17.2453ZM8.55305 16.1083C8.55305 16.3175 8.49102 16.522 8.3748 16.6959C8.25859 16.8698 8.09341 17.0053 7.90015 17.0854C7.7069 17.1654 7.49425 17.1863 7.28911 17.1455C7.08396 17.1046 6.89553 17.0039 6.74765 16.856C6.59978 16.708 6.49909 16.5196 6.45832 16.3144C6.41756 16.1092 6.43856 15.8966 6.51865 15.7034C6.59875 15.5102 6.73435 15.345 6.9083 15.2289C7.08225 15.1127 7.28675 15.0507 7.49592 15.0508C7.77622 15.0512 8.04492 15.1628 8.24309 15.361C8.44127 15.5593 8.55273 15.828 8.55305 16.1083ZM16.6113 16.1083C16.6113 16.3175 16.5493 16.522 16.4331 16.6959C16.3169 16.8698 16.1517 17.0053 15.9584 17.0854C15.7652 17.1654 15.5525 17.1863 15.3474 17.1455C15.1422 17.1046 14.9538 17.0039 14.8059 16.856C14.658 16.708 14.5574 16.5196 14.5166 16.3144C14.4758 16.1092 14.4968 15.8966 14.5769 15.7034C14.657 15.5101 14.7926 15.345 14.9666 15.2289C15.1405 15.1127 15.345 15.0507 15.5542 15.0508C15.8345 15.0512 16.1032 15.1628 16.3014 15.361C16.4995 15.5593 16.611 15.828 16.6113 16.1083Z" fill="#171723"/>
</g>
<defs>
<clipPath id="clip0_10314_144687">
<rect width="20" height="20" fill="white"/>
</clipPath>
</defs>
</svg>
