<svg width="20" height="20" viewBox="0 0 20 20" fill="none" xmlns="http://www.w3.org/2000/svg">
<g clip-path="url(#clip0_10314_144693)">
<path d="M9.76628 18.1997C9.54275 18.2 9.32135 18.1562 9.1148 18.0707C8.90825 17.9852 8.72062 17.8598 8.56266 17.7017L2.29965 11.4386C2.14149 11.2805 2.01603 11.0928 1.93043 10.8861C1.84484 10.6795 1.80078 10.4581 1.80078 10.2344C1.80078 10.0108 1.84484 9.7893 1.93043 9.58268C2.01603 9.37605 2.14149 9.18832 2.29965 9.03019L9.04118 2.28865C9.22109 2.10729 9.4398 1.96911 9.68085 1.88453C9.9219 1.79995 10.179 1.77117 10.4328 1.80037L16.0651 2.42498C16.45 2.46592 16.8094 2.63743 17.0833 2.91097C17.3572 3.18451 17.5292 3.54359 17.5706 3.92848L18.1997 9.56731C18.2289 9.82134 18.2002 10.0787 18.1156 10.32C18.031 10.5613 17.8928 10.7803 17.7114 10.9605L10.9707 17.7016C10.8126 17.8599 10.6249 17.9854 10.4182 18.0708C10.2115 18.1563 9.98995 18.2001 9.76628 18.1997ZM10.2432 2.62313C10.1293 2.62307 10.0165 2.64555 9.91132 2.68927C9.80615 2.73298 9.71067 2.79707 9.63037 2.87784L2.88884 9.61978C2.80808 9.70052 2.74402 9.79637 2.70032 9.90186C2.65661 10.0074 2.63411 10.1204 2.63411 10.2346C2.63411 10.3488 2.65661 10.4619 2.70032 10.5674C2.74402 10.6729 2.80808 10.7687 2.88884 10.8494L9.15186 17.1125C9.31516 17.2751 9.53623 17.3664 9.76669 17.3664C9.99714 17.3664 10.2182 17.2751 10.3815 17.1125L17.1223 10.3713C17.2148 10.2794 17.2853 10.1676 17.3284 10.0445C17.3716 9.9214 17.3862 9.7901 17.3713 9.6605L16.7422 4.02126C16.7211 3.82478 16.6334 3.64143 16.4936 3.50174C16.3539 3.36204 16.1705 3.27442 15.974 3.25343L10.3408 2.62884C10.3084 2.62511 10.2758 2.62321 10.2432 2.62313Z" fill="#171723"/>
<path d="M13.5954 8.36739C13.1415 8.36705 12.7017 8.20935 12.3511 7.92116C12.0004 7.63296 11.7605 7.23209 11.6722 6.78685C11.584 6.34161 11.6528 5.87954 11.867 5.47936C12.0812 5.07918 12.4275 4.76565 12.847 4.59218C13.2664 4.41871 13.7331 4.39603 14.1674 4.52801C14.6016 4.66 14.9768 4.93847 15.2288 5.31599C15.4808 5.69352 15.5941 6.14674 15.5494 6.59844C15.5047 7.05014 15.3048 7.47238 14.9837 7.79322C14.8016 7.97572 14.5852 8.12041 14.3469 8.21895C14.1086 8.31748 13.8532 8.36793 13.5954 8.36739ZM13.5954 5.27616C13.3342 5.27641 13.0811 5.3672 12.8794 5.53309C12.6776 5.69898 12.5396 5.92969 12.4888 6.18592C12.438 6.44216 12.4777 6.70807 12.601 6.93834C12.7243 7.16862 12.9236 7.34903 13.165 7.44883C13.4064 7.54863 13.675 7.56165 13.9249 7.48568C14.1748 7.4097 14.3906 7.24942 14.5357 7.03216C14.6807 6.81489 14.7458 6.55406 14.7201 6.29412C14.6944 6.03418 14.5793 5.79119 14.3946 5.60656C14.2897 5.50157 14.1651 5.41834 14.0279 5.36164C13.8908 5.30494 13.7438 5.27589 13.5954 5.27616Z" fill="#171723"/>
</g>
<defs>
<clipPath id="clip0_10314_144693">
<rect width="20" height="20" fill="white"/>
</clipPath>
</defs>
</svg>
