<svg width="20" height="20" viewBox="0 0 20 20" fill="none" xmlns="http://www.w3.org/2000/svg">
<g clip-path="url(#clip0_5313_35036)">
<path d="M15.2713 18.1946H6.95101C6.17597 18.1938 5.4329 17.8856 4.88487 17.3376C4.33683 16.7896 4.02861 16.0465 4.02783 15.2714V6.95114C4.02861 6.1761 4.33683 5.43303 4.88486 4.88499C5.4329 4.33696 6.17597 4.02873 6.95101 4.02795H15.2713C16.0464 4.02873 16.7894 4.33696 17.3375 4.88499C17.8855 5.43303 18.1937 6.1761 18.1945 6.95114V15.2714C18.1937 16.0465 17.8855 16.7896 17.3375 17.3376C16.7894 17.8856 16.0464 18.1938 15.2713 18.1946ZM6.95101 4.86129C6.39694 4.86191 5.86574 5.0823 5.47395 5.47408C5.08217 5.86587 4.86179 6.39707 4.86117 6.95114V15.2714C4.86179 15.8255 5.08217 16.3567 5.47396 16.7485C5.86574 17.1403 6.39694 17.3607 6.95101 17.3613H15.2713C15.8254 17.3607 16.3566 17.1403 16.7484 16.7485C17.1402 16.3567 17.3605 15.8255 17.3612 15.2714V6.95114C17.3605 6.39707 17.1402 5.86587 16.7484 5.47408C16.3566 5.08229 15.8254 4.86191 15.2713 4.86129H6.95101Z" fill="#171723"/>
<path d="M2.22184 13.7497C2.16712 13.7497 2.11292 13.739 2.06235 13.7181C2.01179 13.6971 1.96584 13.6664 1.92715 13.6277C1.88845 13.589 1.85776 13.5431 1.83683 13.4925C1.8159 13.442 1.80515 13.3878 1.80518 13.3331V6.46619C1.80672 5.23045 2.29836 4.04577 3.17223 3.17205C4.04611 2.29832 5.23087 1.80688 6.46661 1.80554H13.3335C13.444 1.80554 13.55 1.84944 13.6281 1.92758C13.7062 2.00572 13.7501 2.1117 13.7501 2.22221C13.7501 2.33272 13.7062 2.4387 13.6281 2.51684C13.55 2.59498 13.444 2.63888 13.3335 2.63888H6.46661C5.45179 2.63993 4.47883 3.04347 3.76117 3.76098C3.04351 4.4785 2.63977 5.45138 2.63851 6.46619V13.3331C2.63854 13.3878 2.62779 13.442 2.60686 13.4925C2.58593 13.5431 2.55524 13.5891 2.51654 13.6277C2.47784 13.6664 2.4319 13.6971 2.38133 13.7181C2.33076 13.739 2.27657 13.7497 2.22184 13.7497Z" fill="#171723"/>
</g>
<defs>
<clipPath id="clip0_5313_35036">
<rect width="20" height="20" fill="white"/>
</clipPath>
</defs>
</svg>
