<svg width="20" height="20" viewBox="0 0 20 20" fill="none" xmlns="http://www.w3.org/2000/svg">
<path d="M17.0918 13.7469V12.9136C17.0915 12.8032 17.0475 12.6974 16.9694 12.6193C16.8914 12.5412 16.7856 12.4972 16.6752 12.4969H10.4168V11.6552H15.7252C16.33 11.6563 16.9141 11.4351 17.3666 11.0336C17.819 10.6322 18.1082 10.0785 18.1791 9.47788C18.2501 8.87721 18.0979 8.27141 17.7515 7.7756C17.4051 7.27979 16.8886 6.92853 16.3002 6.78857C16.1028 6.74674 15.9019 6.72441 15.7002 6.72191C15.6996 6.31073 15.6025 5.90543 15.4168 5.53857C15.1057 4.99227 14.6107 4.57423 14.02 4.35902C13.4293 4.14381 12.7814 4.14542 12.1918 4.36357C11.8838 3.62183 11.3618 2.98867 10.6924 2.54488C10.0231 2.10109 9.23661 1.8668 8.43349 1.87191H8.29182C7.33991 1.9304 6.43945 2.32399 5.75 2.98293C5.06055 3.64188 4.62663 4.52362 4.52515 5.47191C3.829 5.55896 3.18282 5.87911 2.69182 6.38024C2.40265 6.67274 2.17539 7.02052 2.02362 7.40281C1.87186 7.78509 1.79869 8.19405 1.80849 8.60524C1.8345 9.42759 2.18126 10.2071 2.7746 10.7771C3.36794 11.3471 4.16076 11.6623 4.98349 11.6552H9.58349V12.4969H3.33349C3.25106 12.4966 3.17043 12.521 3.10207 12.5671C3.03372 12.6132 2.98079 12.6787 2.95015 12.7552C2.92376 12.8039 2.90947 12.8582 2.90849 12.9136C2.90847 12.9147 2.90867 12.9158 2.90908 12.9168C2.9095 12.9178 2.91011 12.9187 2.91089 12.9195C2.91167 12.9203 2.91259 12.9209 2.91361 12.9213C2.91463 12.9217 2.91572 12.9219 2.91682 12.9219V13.7469C2.59261 13.8467 2.31496 14.0595 2.13434 14.3466C1.95372 14.6337 1.88213 14.9761 1.93257 15.3116C1.98302 15.647 2.15215 15.9532 2.40923 16.1746C2.66631 16.3959 2.99427 16.5176 3.33349 16.5176C3.6727 16.5176 4.00066 16.3959 4.25774 16.1746C4.51482 15.9532 4.68395 15.647 4.7344 15.3116C4.78485 14.9761 4.71325 14.6337 4.53264 14.3466C4.35202 14.0595 4.07437 13.8467 3.75015 13.7469V13.3302H9.58349V15.3636C9.25927 15.4633 8.98162 15.6761 8.801 15.9633C8.62039 16.2504 8.54879 16.5928 8.59924 16.9283C8.64968 17.2637 8.81882 17.5699 9.0759 17.7912C9.33298 18.0125 9.66094 18.1342 10.0002 18.1342C10.3394 18.1342 10.6673 18.0125 10.9244 17.7912C11.1815 17.5699 11.3506 17.2637 11.4011 16.9283C11.4515 16.5928 11.3799 16.2504 11.1993 15.9633C11.0187 15.6761 10.741 15.4633 10.4168 15.3636V13.3302H16.2585V13.7469C15.9366 13.8466 15.6611 14.0584 15.482 14.3439C15.303 14.6294 15.2323 14.9697 15.2827 15.3029C15.3331 15.6361 15.5013 15.9402 15.7568 16.1599C16.0123 16.3797 16.3382 16.5005 16.6752 16.5005C17.0122 16.5005 17.338 16.3797 17.5935 16.1599C17.849 15.9402 18.0172 15.6361 18.0676 15.3029C18.1181 14.9697 18.0473 14.6294 17.8683 14.3439C17.6892 14.0584 17.4137 13.8466 17.0918 13.7469Z" fill="#171723"/>
</svg>
