<svg width="20" height="20" viewBox="0 0 20 20" fill="none" xmlns="http://www.w3.org/2000/svg">
<path d="M17.0894 13.7481V12.9132C17.0895 12.8585 17.0787 12.8043 17.0578 12.7537C17.0369 12.7032 17.0062 12.6572 16.9675 12.6185C16.9288 12.5798 16.8828 12.5491 16.8323 12.5282C16.7817 12.5073 16.7275 12.4965 16.6728 12.4966C16.667 12.4966 16.6623 12.4996 16.6566 12.4998H10.4146V11.6592H15.7255C16.0905 11.6596 16.451 11.5792 16.7811 11.4235C17.1112 11.2679 17.4027 11.041 17.6346 10.7592C17.8665 10.4773 18.033 10.1475 18.1221 9.79362C18.2111 9.43969 18.2206 9.07041 18.1498 8.71238C18.0592 8.24802 17.8364 7.8197 17.5083 7.47886C17.1802 7.13802 16.7606 6.89917 16.3 6.79099C16.1041 6.74314 15.9028 6.72018 15.7011 6.72265C15.697 6.31238 15.6008 5.90828 15.4195 5.5402C15.1079 4.9939 14.6128 4.57559 14.0222 4.35944C13.4315 4.1433 12.7834 4.14327 12.1928 4.35937C11.8835 3.61828 11.3608 2.9859 10.6912 2.54262C10.0215 2.09935 9.23524 1.8652 8.4322 1.86994L8.29549 1.87239C7.34264 1.93073 6.44121 2.32451 5.75094 2.98395C5.06067 3.64338 4.62614 4.52589 4.52434 5.47508C3.76409 5.56853 3.06545 5.94045 2.56343 6.51897C2.06141 7.0975 1.79163 7.84157 1.80623 8.6074C1.83236 9.43038 2.1795 10.2105 2.77339 10.7808C3.36728 11.3511 4.16077 11.6664 4.98413 11.6592H9.58129V12.4998H3.34747C3.34177 12.4996 3.33704 12.4966 3.33129 12.4966C3.22035 12.4975 3.11424 12.5421 3.03594 12.6207C2.95765 12.6993 2.91348 12.8055 2.913 12.9165L2.91463 12.9246V13.7471C2.59056 13.8474 2.31326 14.0607 2.13314 14.3482C1.95302 14.6357 1.88204 14.9783 1.9331 15.3137C1.98416 15.6491 2.15387 15.955 2.41138 16.1759C2.6689 16.3968 2.99711 16.5179 3.33636 16.5173C3.67562 16.5166 4.00339 16.3943 4.26009 16.1725C4.51679 15.9507 4.68538 15.6441 4.73521 15.3086C4.78504 14.973 4.71281 14.6307 4.53164 14.3438C4.35047 14.057 4.07239 13.8447 3.74796 13.7455V13.3332H9.58129V15.3673C9.25722 15.4677 8.97993 15.681 8.79981 15.9685C8.61969 16.256 8.54871 16.5986 8.59977 16.9339C8.65083 17.2693 8.82054 17.5753 9.07805 17.7961C9.33556 18.017 9.66378 18.1381 10.003 18.1375C10.3423 18.1369 10.6701 18.0146 10.9268 17.7928C11.1835 17.5709 11.352 17.2644 11.4019 16.9288C11.4517 16.5932 11.3795 16.2509 11.1983 15.9641C11.0171 15.6773 10.7391 15.465 10.4146 15.3658V13.3332H16.2561V13.7445C15.9314 13.8429 15.6528 14.0545 15.4709 14.341C15.289 14.6274 15.2159 14.9695 15.2649 15.3053C15.3139 15.641 15.4818 15.948 15.738 16.1704C15.9942 16.3929 16.3217 16.516 16.6609 16.5175C17.0002 16.5189 17.3288 16.3986 17.5868 16.1783C17.8449 15.9581 18.0154 15.6525 18.0672 15.3172C18.1191 14.9819 18.049 14.6392 17.8695 14.3512C17.6901 14.0632 17.4133 13.8492 17.0894 13.7481ZM2.63956 8.59601C2.63322 8.29385 2.68745 7.99347 2.79905 7.7126C2.91065 7.43174 3.07737 7.17606 3.28936 6.96065C3.50136 6.74524 3.75434 6.57446 4.03339 6.45839C4.31244 6.34232 4.61191 6.2833 4.91414 6.28481C5.02298 6.28487 5.12753 6.24233 5.2054 6.16628C5.28327 6.09023 5.32828 5.98673 5.3308 5.87791C5.3392 5.07005 5.65151 4.29499 6.20557 3.707C6.75962 3.11902 7.51478 2.76124 8.32071 2.70489L8.4379 2.70323C9.14522 2.69754 9.8345 2.92638 10.398 3.35396C10.9615 3.78154 11.3674 4.38377 11.5523 5.06651C11.5692 5.13122 11.6014 5.1909 11.6463 5.24051C11.6911 5.29012 11.7472 5.32819 11.8099 5.3515C11.8726 5.37482 11.94 5.38268 12.0063 5.37444C12.0727 5.36619 12.1361 5.34208 12.1912 5.30414C12.3928 5.1764 12.6181 5.09068 12.8537 5.05211C13.0892 5.01354 13.3301 5.02292 13.562 5.07968C13.7938 5.13645 14.0118 5.23943 14.2029 5.38246C14.394 5.52548 14.5543 5.70561 14.6741 5.91205C14.8592 6.27903 14.913 6.69841 14.8262 7.1002C14.8102 7.1693 14.8121 7.24133 14.8316 7.30953C14.8511 7.37772 14.8876 7.43983 14.9377 7.49001C14.9877 7.54074 15.0499 7.57761 15.1184 7.59701C15.1869 7.61642 15.2592 7.61768 15.3284 7.60069C15.5852 7.54102 15.8523 7.54159 16.1088 7.60235C16.3783 7.66666 16.627 7.79844 16.8316 7.98531C17.0362 8.17217 17.1898 8.40799 17.2782 8.67058C17.3666 8.93318 17.3867 9.21393 17.3368 9.48645C17.2868 9.75898 17.1684 10.0143 16.9926 10.2285C16.8379 10.4146 16.6442 10.5646 16.4253 10.6678C16.2064 10.771 15.9675 10.8249 15.7255 10.8258H4.98413C4.37952 10.834 3.79571 10.6053 3.35756 10.1886C2.91941 9.77187 2.66171 9.20027 2.63956 8.59601ZM3.33373 15.6769C3.17983 15.6772 3.03207 15.6166 2.92272 15.5083C2.81336 15.4 2.7513 15.2528 2.75008 15.0989C2.74885 14.9451 2.80857 14.7969 2.91619 14.6869C3.02381 14.5769 3.17059 14.514 3.32447 14.5118L3.33129 14.5132L3.34054 14.5113C3.49463 14.5129 3.64179 14.5755 3.74984 14.6854C3.8579 14.7952 3.91806 14.9434 3.91716 15.0975C3.91625 15.2516 3.85437 15.399 3.74504 15.5076C3.6357 15.6162 3.48782 15.6771 3.33373 15.6769ZM10.0004 17.2972C9.88499 17.2972 9.77217 17.263 9.67622 17.1988C9.58026 17.1347 9.50547 17.0436 9.4613 16.937C9.41714 16.8304 9.40558 16.713 9.4281 16.5999C9.45061 16.4867 9.50618 16.3827 9.58779 16.3011C9.66939 16.2195 9.77336 16.1639 9.88655 16.1414C9.99973 16.1189 10.1171 16.1304 10.2237 16.1746C10.3303 16.2188 10.4214 16.2936 10.4855 16.3895C10.5497 16.4855 10.5839 16.5983 10.5839 16.7137C10.5836 16.8684 10.522 17.0166 10.4127 17.126C10.3033 17.2353 10.1551 17.2969 10.0004 17.2972H10.0004ZM16.6671 15.6769C16.5129 15.6768 16.3651 15.6158 16.2559 15.507C16.1467 15.3982 16.085 15.2506 16.0843 15.0965C16.0836 14.9424 16.144 14.7943 16.2522 14.6845C16.3605 14.5748 16.5077 14.5124 16.6619 14.511L16.6728 14.5132L16.6779 14.5121C16.8316 14.5148 16.9779 14.5781 17.085 14.6882C17.1922 14.7983 17.2515 14.9463 17.2501 15.0999C17.2486 15.2535 17.1865 15.4004 17.0774 15.5084C16.9682 15.6165 16.8207 15.677 16.6671 15.6769Z" fill="#171723"/>
</svg>
