<svg width="20" height="20" viewBox="0 0 20 20" fill="none" xmlns="http://www.w3.org/2000/svg">
<g clip-path="url(#clip0_5313_35091)">
<path d="M16.9584 9.6383L14.1874 6.92673C14.1484 6.8879 14.1021 6.85717 14.0512 6.83633C14.0003 6.81549 13.9457 6.80495 13.8907 6.80531C13.8356 6.80567 13.7812 6.81693 13.7306 6.83843C13.6799 6.85994 13.634 6.89127 13.5955 6.93061C13.557 6.96995 13.5267 7.01653 13.5064 7.06765C13.486 7.11877 13.4759 7.17342 13.4768 7.22844C13.4776 7.28347 13.4894 7.33778 13.5113 7.38824C13.5333 7.4387 13.565 7.48431 13.6047 7.52244L16.078 9.94263L13.5933 12.4834C13.5545 12.5224 13.5237 12.5687 13.5028 12.6196C13.4819 12.6706 13.4713 12.7251 13.4717 12.7802C13.472 12.8352 13.4833 12.8897 13.5048 12.9404C13.5263 12.9911 13.5576 13.037 13.597 13.0755C13.6364 13.114 13.683 13.1443 13.7341 13.1647C13.7852 13.1851 13.8399 13.1951 13.895 13.1942C13.95 13.1934 14.0044 13.1816 14.0548 13.1596C14.1053 13.1376 14.1509 13.1058 14.189 13.0661L16.9649 10.2275C17.0032 10.1884 17.0334 10.1421 17.0538 10.0914C17.0742 10.0406 17.0843 9.98628 17.0837 9.93156C17.0831 9.87684 17.0718 9.82278 17.0503 9.77246C17.0287 9.72214 16.9975 9.67655 16.9584 9.6383Z" fill="#171723"/>
<path d="M3.92266 9.94272L6.39519 7.52255C6.4734 7.44511 6.51779 7.33987 6.51867 7.22981C6.51955 7.11975 6.47685 7.01382 6.39989 6.93513C6.32293 6.85645 6.21796 6.81141 6.10791 6.80986C5.99786 6.8083 5.89166 6.85035 5.81251 6.92682L3.04233 9.63839C3.0032 9.67664 2.972 9.72222 2.9505 9.77254C2.929 9.82285 2.91762 9.87691 2.91702 9.93162C2.91641 9.98633 2.92659 10.0406 2.94698 10.0914C2.96736 10.1422 2.99755 10.1884 3.03582 10.2276L5.81088 13.0661C5.84957 13.1059 5.89588 13.1375 5.94705 13.1591C5.99823 13.1806 6.05321 13.1916 6.10873 13.1914C6.19075 13.1914 6.27093 13.1672 6.33925 13.1218C6.40756 13.0764 6.46097 13.0119 6.49277 12.9363C6.52457 12.8607 6.53336 12.7774 6.51803 12.6969C6.5027 12.6163 6.46393 12.542 6.40658 12.4834L3.92266 9.94272Z" fill="#171723"/>
<path d="M12.545 4.06132C12.4434 4.01786 12.3286 4.01649 12.2259 4.05753C12.1233 4.09857 12.0411 4.17866 11.9974 4.28023L7.23578 15.3911C7.19268 15.4926 7.19157 15.6072 7.23272 15.7095C7.27387 15.8119 7.35391 15.8938 7.45531 15.9373C7.55672 15.9808 7.67123 15.9823 7.77377 15.9416C7.87631 15.9008 7.95851 15.8211 8.00238 15.7198L12.7639 4.60902C12.8074 4.50734 12.8087 4.39259 12.7677 4.28993C12.7266 4.18726 12.6466 4.10505 12.545 4.06132Z" fill="#171723"/>
</g>
<defs>
<clipPath id="clip0_5313_35091">
<rect width="20" height="20" fill="white"/>
</clipPath>
</defs>
</svg>
