<svg width="20" height="20" viewBox="0 0 20 20" fill="none" xmlns="http://www.w3.org/2000/svg">
<g clip-path="url(#clip0_5886_36181)">
<path d="M15.9613 9.84329C15.959 9.82643 15.9556 9.80975 15.9511 9.79336C15.9342 9.72175 15.8983 9.65606 15.847 9.60328L11.5371 5.38533C11.4981 5.34645 11.4518 5.31568 11.4009 5.2948C11.3499 5.27392 11.2953 5.26334 11.2403 5.26368C11.1852 5.26402 11.1308 5.27527 11.0801 5.29678C11.0294 5.31828 10.9835 5.34962 10.945 5.38898C10.9065 5.42834 10.8762 5.47494 10.8558 5.52609C10.8354 5.57724 10.8254 5.63192 10.8262 5.68697C10.8271 5.74203 10.8389 5.79636 10.8609 5.84683C10.8829 5.8973 10.9147 5.94292 10.9544 5.98103L14.5343 9.48445H2.22233C2.11182 9.48445 2.00584 9.52835 1.9277 9.60649C1.84956 9.68463 1.80566 9.79061 1.80566 9.90111C1.80566 10.0116 1.84956 10.1176 1.9277 10.1957C2.00584 10.2739 2.11182 10.3178 2.22233 10.3178H14.5656L10.9406 14.0255C10.9017 14.0645 10.871 14.1108 10.8502 14.1617C10.8293 14.2126 10.8188 14.2672 10.8191 14.3222C10.8195 14.3772 10.8308 14.4317 10.8523 14.4823C10.8738 14.533 10.9051 14.5789 10.9445 14.6173C10.9838 14.6558 11.0304 14.6861 11.0815 14.7065C11.1326 14.7269 11.1873 14.737 11.2423 14.7361C11.2973 14.7352 11.3516 14.7235 11.4021 14.7015C11.4525 14.6796 11.4982 14.6478 11.5363 14.6081L15.8536 10.1925C15.8896 10.1549 15.9183 10.1108 15.9379 10.0626L15.9414 10.0582L15.9415 10.0569C15.967 9.98871 15.9738 9.91499 15.9613 9.84329Z" fill="#171723"/>
<path d="M17.778 5.26648C17.7233 5.26645 17.6691 5.2772 17.6185 5.29813C17.5679 5.31906 17.522 5.34975 17.4833 5.38845C17.4446 5.42715 17.4139 5.47309 17.393 5.52366C17.3721 5.57422 17.3613 5.62842 17.3613 5.68315V14.3168C17.3613 14.4273 17.4052 14.5333 17.4834 14.6114C17.5615 14.6895 17.6675 14.7334 17.778 14.7334C17.8885 14.7334 17.9945 14.6895 18.0726 14.6114C18.1508 14.5333 18.1947 14.4273 18.1947 14.3168V5.68315C18.1947 5.62842 18.1839 5.57422 18.163 5.52366C18.1421 5.47309 18.1114 5.42715 18.0727 5.38845C18.034 5.34975 17.988 5.31906 17.9375 5.29813C17.8869 5.2772 17.8327 5.26645 17.778 5.26648Z" fill="#171723"/>
</g>
<defs>
<clipPath id="clip0_5886_36181">
<rect width="20" height="20" fill="white" transform="translate(0 20) rotate(-90)"/>
</clipPath>
</defs>
</svg>
