<svg width="20" height="20" viewBox="0 0 20 20" fill="none" xmlns="http://www.w3.org/2000/svg">
<g clip-path="url(#clip0_5313_35201)">
<path d="M14.8612 1.80579H5.13949C4.2557 1.80667 3.40837 2.15814 2.78344 2.78307C2.15851 3.408 1.80703 4.25534 1.80615 5.13912V14.8608C1.80703 15.7446 2.15851 16.5919 2.78344 17.2168C3.40837 17.8418 4.2557 18.1932 5.13949 18.1941H14.8612C15.7449 18.1932 16.5923 17.8418 17.2172 17.2168C17.8421 16.5919 18.1936 15.7446 18.1945 14.8608V5.13912C18.1936 4.25534 17.8421 3.40801 17.2172 2.78308C16.5923 2.15815 15.745 1.80667 14.8612 1.80579ZM2.6395 14.8608V5.13912C2.64023 4.4763 2.90385 3.84084 3.37253 3.37215C3.84122 2.90347 4.47668 2.63984 5.1395 2.63912H9.58367V17.3608H5.1395C4.47668 17.3601 3.84122 17.0964 3.37253 16.6278C2.90385 16.1591 2.64022 15.5236 2.63949 14.8608L2.6395 14.8608ZM17.3612 14.8608C17.3604 15.5236 17.0968 16.1591 16.6281 16.6278C16.1595 17.0964 15.524 17.3601 14.8612 17.3608H10.417V2.63912H14.8612C15.524 2.63984 16.1595 2.90347 16.6281 3.37215C17.0968 3.84084 17.3604 4.4763 17.3612 5.13912V14.8608Z" fill="#171723"/>
</g>
<defs>
<clipPath id="clip0_5313_35201">
<rect width="20" height="20" fill="white"/>
</clipPath>
</defs>
</svg>
