<svg width="20" height="20" viewBox="0 0 20 20" fill="none" xmlns="http://www.w3.org/2000/svg">
<g clip-path="url(#clip0_10325_129868)">
<path d="M15.1851 18.1947C14.7898 18.1947 14.3985 18.1169 14.0333 17.9657C13.6682 17.8145 13.3364 17.5928 13.057 17.3134C12.7775 17.0339 12.5558 16.7021 12.4046 16.337C12.2534 15.9718 12.1756 15.5805 12.1756 15.1853V13.0092H7.82422V15.1853C7.82524 15.5806 7.74787 15.9723 7.59659 16.3376C7.44532 16.7028 7.22312 17.0345 6.94287 17.3134C6.36972 17.861 5.60751 18.1666 4.81478 18.1666C4.02204 18.1666 3.25983 17.861 2.68668 17.3134C2.26578 16.8925 1.97914 16.3563 1.86301 15.7725C1.74688 15.1887 1.80648 14.5835 2.03427 14.0336C2.26206 13.4837 2.64781 13.0137 3.14274 12.683C3.63767 12.3523 4.21954 12.1758 4.81478 12.1759H6.99088V7.82442H4.81478C4.21957 7.82439 3.63774 7.64787 3.14286 7.31718C2.64797 6.98649 2.26225 6.51648 2.03447 5.96659C1.80669 5.4167 1.74708 4.81161 1.86317 4.22784C1.97926 3.64407 2.26584 3.10782 2.68668 2.68692C3.25983 2.13926 4.02204 1.83365 4.81478 1.83365C5.60751 1.83365 6.36972 2.13926 6.94287 2.68692C7.22312 2.96579 7.44531 3.29744 7.59659 3.66271C7.74787 4.02798 7.82523 4.41962 7.82422 4.81498V6.99109H12.1756V4.81498C12.1748 4.41964 12.2522 4.02806 12.4035 3.6628C12.5548 3.29755 12.7769 2.96587 13.057 2.68689C13.6301 2.13923 14.3923 1.83362 15.1851 1.83362C15.9778 1.83362 16.74 2.13923 17.3131 2.68689C17.7341 3.10777 18.0207 3.64401 18.1368 4.22781C18.253 4.8116 18.1934 5.41672 17.9656 5.96664C17.7378 6.51656 17.352 6.98658 16.8571 7.31726C16.3622 7.64793 15.7803 7.82442 15.1851 7.82439H13.0089V12.1758H15.1851C15.5807 12.1751 15.9726 12.2525 16.3383 12.4034C16.704 12.5544 17.0363 12.7759 17.3163 13.0555C17.5963 13.335 17.8184 13.667 17.9699 14.0324C18.1215 14.3979 18.1995 14.7896 18.1995 15.1852C18.1995 15.5808 18.1215 15.9726 17.9699 16.338C17.8184 16.7035 17.5963 17.0355 17.3163 17.315C17.0363 17.5945 16.704 17.8161 16.3383 17.967C15.9726 18.118 15.5807 18.1953 15.1851 18.1947V18.1947ZM13.0089 13.0092V15.1853C13.0082 15.4711 13.0642 15.7543 13.1736 16.0185C13.2829 16.2826 13.4436 16.5225 13.6462 16.7242C14.0608 17.1198 14.6119 17.3406 15.1851 17.3406C15.7582 17.3406 16.3093 17.1198 16.724 16.7242C17.0284 16.4198 17.2357 16.032 17.3196 15.6099C17.4036 15.1877 17.3605 14.7501 17.1958 14.3525C17.0311 13.9548 16.7521 13.6149 16.3942 13.3758C16.0363 13.1367 15.6155 13.0091 15.1851 13.0092L13.0089 13.0092ZM4.81478 13.0092C4.38439 13.0092 3.96368 13.1369 3.60583 13.376C3.24799 13.6151 2.96908 13.955 2.80437 14.3526C2.63965 14.7502 2.59654 15.1878 2.68046 15.6099C2.76439 16.032 2.9716 16.4198 3.27588 16.7242C3.69052 17.1198 4.24164 17.3406 4.81478 17.3406C5.38793 17.3406 5.93904 17.1198 6.35368 16.7242C6.55629 16.5225 6.71691 16.2826 6.82628 16.0185C6.93565 15.7543 6.9916 15.4711 6.99089 15.1853V13.0092H4.81478ZM7.82422 12.1758H12.1756V7.82442H7.82422L7.82422 12.1758ZM13.009 6.99109H15.1851C15.6155 6.99104 16.0362 6.86338 16.394 6.62426C16.7519 6.38513 17.0308 6.04527 17.1955 5.64764C17.3602 5.25002 17.4033 4.81248 17.3194 4.39036C17.2355 3.96823 17.0283 3.58046 16.724 3.27609C16.3093 2.8804 15.7582 2.65963 15.1851 2.65963C14.6119 2.65963 14.0608 2.8804 13.6462 3.27609C13.4436 3.47779 13.2829 3.71763 13.1736 3.98177C13.0642 4.24591 13.0082 4.5291 13.009 4.81499V6.99109ZM4.81479 2.63887C4.23765 2.63887 3.68415 2.86814 3.27605 3.27624C2.86795 3.68434 2.63868 4.23784 2.63868 4.81498C2.63868 5.39212 2.86795 5.94562 3.27605 6.35372C3.68415 6.76182 4.23765 6.99109 4.81479 6.99109H6.99088V4.81498C6.99095 4.52919 6.93472 4.24618 6.82538 3.98213C6.71605 3.71808 6.55576 3.47816 6.35367 3.27608C6.15159 3.07399 5.91167 2.9137 5.64762 2.80437C5.38357 2.69504 5.10057 2.6388 4.81478 2.63887H4.81479Z" fill="#171723"/>
</g>
<defs>
<clipPath id="clip0_10325_129868">
<rect width="20" height="20" fill="white"/>
</clipPath>
</defs>
</svg>
