<svg width="24" height="24" viewBox="0 0 24 24" fill="none" xmlns="http://www.w3.org/2000/svg">
<g clip-path="url(#clip0_10317_147256)">
<path d="M12.2605 12.0174H11.1203C11.0225 12.0174 10.9286 11.9785 10.8595 11.9094C10.7903 11.8402 10.7515 11.7464 10.7515 11.6485V10.5083C10.7515 10.4599 10.761 10.4119 10.7795 10.3672C10.7981 10.3224 10.8252 10.2817 10.8595 10.2475C10.8937 10.2132 10.9344 10.1861 10.9791 10.1675C11.0239 10.149 11.0718 10.1395 11.1203 10.1395H12.2605C12.309 10.1395 12.3569 10.149 12.4017 10.1675C12.4464 10.1861 12.4871 10.2132 12.5214 10.2475C12.5556 10.2817 12.5828 10.3224 12.6013 10.3671C12.6199 10.4119 12.6294 10.4599 12.6294 10.5083V11.6485C12.6294 11.697 12.6199 11.7449 12.6013 11.7897C12.5828 11.8345 12.5556 11.8751 12.5214 11.9094C12.4871 11.9436 12.4465 11.9708 12.4017 11.9894C12.3569 12.0079 12.309 12.0174 12.2605 12.0174Z" fill="#29CEF6"/>
<path d="M16.2697 16.1711L7.82881 7.73026C7.80582 7.70725 7.77739 7.69042 7.74615 7.68131C7.71492 7.67221 7.6819 7.67113 7.65014 7.67817C7.61838 7.68522 7.58891 7.70015 7.56446 7.72161C7.54001 7.74306 7.52136 7.77034 7.51024 7.80091L2.67824 21.0826C2.6661 21.116 2.66373 21.1521 2.67142 21.1868C2.6791 21.2214 2.69653 21.2532 2.72164 21.2783C2.74676 21.3034 2.77852 21.3208 2.81319 21.3285C2.84786 21.3362 2.88401 21.3338 2.91737 21.3217L16.199 16.4897C16.2296 16.4786 16.2569 16.46 16.2783 16.4355C16.2998 16.4111 16.3147 16.3816 16.3218 16.3498C16.3288 16.3181 16.3277 16.285 16.3186 16.2538C16.3095 16.2226 16.2927 16.1941 16.2697 16.1711Z" fill="#F78E36"/>
<path d="M2.67821 21.0826L2.96733 20.2879C2.97665 20.2623 2.99146 20.239 3.01074 20.2197C3.03001 20.2004 3.05327 20.1856 3.07889 20.1763L15.6877 15.5891L16.2697 16.1711C16.2927 16.1941 16.3095 16.2226 16.3186 16.2538C16.3277 16.285 16.3287 16.318 16.3217 16.3498C16.3146 16.3815 16.2997 16.411 16.2783 16.4355C16.2568 16.4599 16.2295 16.4786 16.199 16.4897L2.91732 21.3217C2.88395 21.3338 2.84781 21.3362 2.81315 21.3285C2.77849 21.3208 2.74675 21.3033 2.72165 21.2782C2.69654 21.2531 2.67912 21.2214 2.67143 21.1867C2.66373 21.1521 2.66609 21.1159 2.67821 21.0826Z" fill="#F86F1B"/>
<path d="M7.45992 19.6689L4.00152 17.4444L3.50146 18.8198L5.77427 20.2821L7.45992 19.6689Z" fill="#F3F3F3"/>
<path d="M4.6958 19.5881L6.38127 18.9749L7.46021 19.6689L5.77457 20.2822L4.6958 19.5881Z" fill="#E4E4E4"/>
<path d="M11.6603 18.1408L5.24889 14.0166L4.74854 15.3918L9.97513 18.754L11.6603 18.1408Z" fill="#F3F3F3"/>
<path d="M8.89648 18.0599L10.5817 17.4468L11.6606 18.1408L9.9755 18.754L8.89648 18.0599Z" fill="#E4E4E4"/>
<path d="M15.861 16.6127L6.49615 10.5888L5.99609 11.9637L14.176 17.2259L15.861 16.6127Z" fill="#F3F3F3"/>
<path d="M14.7819 15.9186L15.8608 16.6126L14.1757 17.2258L13.0967 16.5317L14.7819 15.9186Z" fill="#E4E4E4"/>
<path d="M9.58518 5.95544L8.64634 5.30844C8.5658 5.25292 8.51061 5.16769 8.49291 5.07149C8.47521 4.97528 8.49644 4.87599 8.55195 4.79544L9.19901 3.85661C9.25453 3.77607 9.33976 3.72087 9.43597 3.70317C9.53217 3.68547 9.63147 3.70671 9.71201 3.76222L10.6509 4.40927C10.7314 4.46479 10.7866 4.55003 10.8043 4.64623C10.822 4.74244 10.8007 4.84173 10.7452 4.92227L10.0982 5.86111C10.0427 5.94165 9.95745 5.99683 9.86124 6.01452C9.76503 6.03221 9.66573 6.01096 9.58518 5.95544Z" fill="#F75632"/>
<path d="M18.9354 10.3187L18.3654 9.3312C18.3411 9.28926 18.3254 9.24295 18.3191 9.19493C18.3128 9.14691 18.3159 9.09811 18.3285 9.05132C18.341 9.00453 18.3626 8.96067 18.3921 8.92224C18.4216 8.88381 18.4584 8.85156 18.5003 8.82734L19.4878 8.25725C19.5725 8.20833 19.6732 8.19507 19.7677 8.22039C19.8622 8.24571 19.9428 8.30753 19.9917 8.39225L20.5617 9.37973C20.5859 9.42167 20.6017 9.46798 20.608 9.516C20.6143 9.56402 20.6111 9.61282 20.5986 9.65961C20.5861 9.7064 20.5644 9.75026 20.535 9.78869C20.5055 9.82712 20.4687 9.85936 20.4268 9.88358L19.4393 10.4537C19.3973 10.4779 19.351 10.4936 19.303 10.4999C19.255 10.5063 19.2062 10.5031 19.1594 10.4905C19.1126 10.478 19.0687 10.4564 19.0303 10.4269C18.9918 10.3974 18.9596 10.3606 18.9354 10.3187Z" fill="#FFD54F"/>
<path d="M18.9282 14.9015V13.7612C18.9282 13.7128 18.9377 13.6648 18.9563 13.6201C18.9748 13.5753 19.002 13.5346 19.0362 13.5004C19.0705 13.4661 19.1111 13.439 19.1559 13.4204C19.2006 13.4019 19.2486 13.3923 19.297 13.3923H20.4373C20.5351 13.3923 20.6289 13.4312 20.6981 13.5004C20.7672 13.5696 20.8061 13.6634 20.8061 13.7612V14.9015C20.8061 14.9499 20.7966 14.9978 20.778 15.0426C20.7595 15.0873 20.7323 15.128 20.6981 15.1623C20.6638 15.1965 20.6232 15.2237 20.5784 15.2422C20.5337 15.2607 20.4857 15.2703 20.4373 15.2703H19.297C19.2486 15.2703 19.2006 15.2607 19.1559 15.2422C19.1111 15.2237 19.0705 15.1965 19.0362 15.1622C19.002 15.128 18.9748 15.0873 18.9563 15.0426C18.9378 14.9978 18.9282 14.9499 18.9282 14.9015Z" fill="#F75632"/>
<path d="M16.8179 4.34302V3.20283C16.8179 3.105 16.8568 3.01118 16.9259 2.94201C16.9951 2.87284 17.0889 2.83398 17.1868 2.83398H18.327C18.4248 2.83399 18.5186 2.87285 18.5878 2.94202C18.657 3.0112 18.6958 3.10501 18.6958 3.20283V4.34302C18.6958 4.39146 18.6863 4.43942 18.6678 4.48418C18.6492 4.52893 18.622 4.56959 18.5878 4.60384C18.5535 4.63809 18.5129 4.66526 18.4681 4.6838C18.4234 4.70233 18.3754 4.71187 18.327 4.71187H17.1868C17.0889 4.71188 16.9951 4.67302 16.9259 4.60385C16.8568 4.53467 16.8179 4.44085 16.8179 4.34302Z" fill="#FFD54F"/>
<path d="M5.85382 3.85882L5.14047 3.46868C5.12424 3.45981 5.1109 3.44648 5.10204 3.43026L4.7119 2.71692C4.70358 2.70169 4.69131 2.68899 4.67639 2.68014C4.66147 2.6713 4.64444 2.66663 4.6271 2.66663C4.60975 2.66663 4.59272 2.6713 4.5778 2.68014C4.56288 2.68899 4.55062 2.70169 4.5423 2.71692L4.15213 3.43026C4.14326 3.44648 4.12992 3.45981 4.1137 3.46868L3.40039 3.85882C3.38517 3.86714 3.37246 3.8794 3.36362 3.89432C3.35477 3.90925 3.3501 3.92627 3.3501 3.94362C3.3501 3.96097 3.35477 3.978 3.36362 3.99292C3.37246 4.00784 3.38517 4.02011 3.40039 4.02843L4.11374 4.41857C4.12996 4.42743 4.1433 4.44077 4.15216 4.457L4.5423 5.17034C4.55062 5.18556 4.56288 5.19826 4.5778 5.20711C4.59272 5.21596 4.60975 5.22063 4.6271 5.22063C4.64444 5.22063 4.66147 5.21596 4.67639 5.20711C4.69131 5.19826 4.70358 5.18556 4.7119 5.17034L5.10204 4.45698C5.1109 4.44075 5.12424 4.42741 5.14047 4.41855L5.85382 4.02841C5.86903 4.02008 5.88172 4.00782 5.89057 3.9929C5.89941 3.97798 5.90408 3.96095 5.90408 3.94361C5.90408 3.92627 5.89941 3.90925 5.89057 3.89433C5.88172 3.87941 5.86903 3.86714 5.85382 3.85882Z" fill="#FFC328"/>
<path d="M4.71175 5.17034L5.10189 4.45699C5.11076 4.44076 5.1241 4.42742 5.14032 4.41856L5.85367 4.02842C5.86889 4.0201 5.88159 4.00783 5.89044 3.99291C5.89928 3.97799 5.90395 3.96096 5.90395 3.94362C5.90395 3.92627 5.89928 3.90925 5.89044 3.89432C5.88159 3.8794 5.86889 3.86714 5.85367 3.85882L5.14032 3.46867C5.12409 3.45981 5.11075 3.44647 5.10189 3.43025L4.71175 2.71691C4.70351 2.70162 4.69126 2.68887 4.67632 2.68001C4.66139 2.67115 4.64432 2.66653 4.62695 2.66663V5.22063C4.64432 5.22073 4.66139 5.21611 4.67633 5.20725C4.69127 5.19839 4.70352 5.18563 4.71175 5.17034Z" fill="#FFA000"/>
<path d="M21.283 19.9715L20.5696 19.5814C20.5534 19.5725 20.5401 19.5592 20.5312 19.5429L20.1411 18.8296C20.1327 18.8144 20.1205 18.8017 20.1055 18.7929C20.0906 18.784 20.0736 18.7794 20.0562 18.7794C20.0389 18.7794 20.0219 18.784 20.0069 18.7929C19.992 18.8017 19.9798 18.8144 19.9714 18.8296L19.5813 19.5429C19.5725 19.5592 19.5591 19.5725 19.5429 19.5814L18.8296 19.9715C18.8144 19.9798 18.8017 19.9921 18.7928 20.007C18.784 20.0219 18.7793 20.039 18.7793 20.0563C18.7793 20.0737 18.784 20.0907 18.7928 20.1056C18.8017 20.1205 18.8144 20.1328 18.8296 20.1411L19.5429 20.5313C19.5591 20.5401 19.5724 20.5535 19.5813 20.5697L19.9714 21.2831C19.9798 21.2983 19.992 21.311 20.0069 21.3198C20.0219 21.3287 20.0389 21.3333 20.0562 21.3333C20.0736 21.3333 20.0906 21.3287 20.1055 21.3198C20.1205 21.311 20.1327 21.2983 20.1411 21.2831L20.5312 20.5697C20.5401 20.5535 20.5534 20.5401 20.5696 20.5313L21.283 20.1411C21.2982 20.1328 21.3109 20.1205 21.3198 20.1056C21.3286 20.0907 21.3333 20.0737 21.3333 20.0563C21.3333 20.039 21.3286 20.0219 21.3198 20.007C21.3109 19.9921 21.2982 19.9798 21.283 19.9715Z" fill="#FFC328"/>
<path d="M20.1409 21.283L20.5311 20.5697C20.5399 20.5534 20.5532 20.5401 20.5695 20.5312L21.2829 20.1411C21.2981 20.1328 21.3108 20.1205 21.3196 20.1056C21.3285 20.0907 21.3331 20.0736 21.3331 20.0563C21.3331 20.0389 21.3285 20.0219 21.3196 20.007C21.3108 19.9921 21.2981 19.9798 21.2829 19.9715L20.5695 19.5813C20.5532 19.5725 20.5399 19.5592 20.5311 19.5429L20.1409 18.8295C20.1327 18.8143 20.1204 18.8015 20.1055 18.7927C20.0906 18.7838 20.0735 18.7792 20.0562 18.7793V21.3333C20.0735 21.3334 20.0906 21.3288 20.1055 21.3199C20.1204 21.3111 20.1327 21.2983 20.1409 21.283Z" fill="#FFA000"/>
<path d="M13.9767 6.14872C13.9325 5.90233 13.9061 5.65308 13.8977 5.4029C13.9015 5.09235 13.9722 4.78628 14.1051 4.50556C14.2379 4.22484 14.4298 3.97609 14.6675 3.77627C14.6972 3.75233 14.7167 3.71801 14.7221 3.68025C14.7274 3.6425 14.7183 3.60411 14.6964 3.57287L14.2173 2.89722C14.2056 2.88067 14.1907 2.86667 14.1734 2.85607C14.1562 2.84547 14.137 2.83849 14.1169 2.83556C14.0969 2.83263 14.0765 2.8338 14.0569 2.83901C14.0373 2.84422 14.019 2.85336 14.0031 2.86587C13.5031 3.27229 13.13 3.81343 12.9279 4.42526C12.7257 5.03708 12.7031 5.694 12.8626 6.31829C12.9673 6.71443 12.9659 7.13115 12.8584 7.52656C12.7816 7.68625 12.6591 7.81949 12.5063 7.90932C12.3535 7.99914 12.1775 8.04148 12.0006 8.03096C11.9662 8.02766 11.9316 8.03665 11.9031 8.05633C11.8746 8.07601 11.854 8.10513 11.8449 8.13854L11.6332 8.94985C11.628 8.97 11.627 8.99102 11.6304 9.01157C11.6337 9.03211 11.6413 9.05174 11.6527 9.06919C11.664 9.08664 11.6789 9.10155 11.6963 9.11295C11.7137 9.12435 11.7333 9.13201 11.7538 9.13543C12.1903 9.20376 12.6372 9.12587 13.0248 8.91386C13.4125 8.70185 13.7191 8.36762 13.8971 7.96322C14.0947 7.37809 14.1223 6.74891 13.9767 6.14872Z" fill="#29CEF6"/>
<path d="M16.3023 8.6029C16.7232 8.34438 17.1676 8.12629 17.6296 7.95156C18.2668 7.7184 18.8688 7.39846 19.4185 7.00081C20.252 6.3349 20.793 5.37021 20.9265 4.31175C20.9289 4.29172 20.9272 4.27142 20.9216 4.25207C20.9159 4.23271 20.9064 4.2147 20.8936 4.1991C20.8808 4.18351 20.865 4.17065 20.8472 4.16131C20.8293 4.15197 20.8097 4.14634 20.7896 4.14475L19.9637 4.079C19.9254 4.07604 19.8875 4.08792 19.8577 4.11217C19.828 4.13642 19.8087 4.17118 19.8038 4.20927C19.7012 4.95996 19.3138 5.64243 18.7218 6.11538C18.2511 6.44787 17.738 6.7157 17.196 6.91171C16.2767 7.1725 15.4518 7.69201 14.8194 8.40837C14.1869 9.12474 13.7737 10.0078 13.6289 10.9523C13.6261 10.9723 13.6273 10.9927 13.6326 11.0122C13.6378 11.0317 13.6469 11.05 13.6594 11.0659C13.6719 11.0818 13.6874 11.095 13.7052 11.1047C13.7229 11.1144 13.7424 11.1205 13.7625 11.1225L14.5855 11.2035C14.6239 11.2072 14.6622 11.1959 14.6925 11.172C14.7227 11.1481 14.7426 11.1134 14.7479 11.0752C14.8228 10.5783 14.9995 10.1022 15.267 9.67676C15.5345 9.25133 15.887 8.88573 16.3023 8.6029Z" fill="#F75632"/>
<path d="M19.0371 11.4549C18.5035 11.4869 17.9659 11.3829 17.4073 11.4603C16.9382 11.5244 16.4907 11.6978 16.1009 11.9664C15.711 12.2349 15.3896 12.5913 15.1625 13.0067C15.153 13.0245 15.1472 13.0441 15.1455 13.0642C15.1438 13.0843 15.1463 13.1046 15.1526 13.1238C15.159 13.1429 15.1692 13.1606 15.1827 13.1757C15.1961 13.1908 15.2124 13.203 15.2307 13.2116L15.9803 13.5673C16.0138 13.5834 16.0522 13.5864 16.0879 13.5756C16.1235 13.5647 16.1537 13.5409 16.1726 13.5088C16.3179 13.2596 16.5177 13.0464 16.7569 12.8851C16.9961 12.7239 17.2686 12.6187 17.5541 12.5774C17.8118 12.553 18.0711 12.5514 18.3291 12.5726C18.7963 12.6742 19.2832 12.6356 19.7286 12.4617C20.174 12.2877 20.5581 11.986 20.8327 11.5946C20.8423 11.5759 20.8479 11.5554 20.849 11.5344C20.8502 11.5134 20.8469 11.4924 20.8393 11.4727C20.8318 11.4531 20.8202 11.4353 20.8053 11.4205C20.7904 11.4056 20.7725 11.3941 20.7528 11.3867L19.9692 11.0879C19.9385 11.0766 19.9049 11.0755 19.8735 11.0849C19.8421 11.0942 19.8146 11.1135 19.7951 11.1398C19.5928 11.339 19.321 11.452 19.0371 11.4549Z" fill="#FFD54F"/>
</g>
<defs>
<clipPath id="clip0_10317_147256">
<rect width="24" height="24" fill="white"/>
</clipPath>
</defs>
</svg>
