<svg width="20" height="20" viewBox="0 0 20 20" fill="none" xmlns="http://www.w3.org/2000/svg">
<path d="M14.8625 1.80835H5.13753C4.25384 1.80952 3.40667 2.16109 2.78181 2.78596C2.15694 3.41083 1.80537 4.25799 1.8042 5.14168V14.8584C1.80537 15.742 2.15694 16.5892 2.78181 17.2141C3.40667 17.8389 4.25384 18.1905 5.13753 18.1917H14.8625C15.3003 18.1918 15.7338 18.1057 16.1383 17.9382C16.5428 17.7707 16.9103 17.5252 17.2198 17.2156C17.5294 16.9061 17.7749 16.5386 17.9424 16.1341C18.1098 15.7296 18.196 15.2961 18.1959 14.8584V5.14168C18.196 4.70391 18.1098 4.2704 17.9424 3.86593C17.7749 3.46146 17.5294 3.09395 17.2198 2.78439C16.9103 2.47484 16.5428 2.22931 16.1383 2.06184C15.7338 1.89437 15.3003 1.80823 14.8625 1.80835ZM10.0042 4.60835C10.469 4.60834 10.9233 4.74616 11.3098 5.00437C11.6963 5.26259 11.9975 5.6296 12.1754 6.05901C12.3532 6.48841 12.3998 6.96092 12.3091 7.41678C12.2184 7.87264 11.9946 8.29138 11.666 8.62003C11.3373 8.94869 10.9186 9.17251 10.4627 9.26319C10.0069 9.35387 9.53436 9.30734 9.10495 9.12947C8.67554 8.95161 8.30852 8.6504 8.0503 8.26395C7.79208 7.87749 7.65425 7.42314 7.65425 6.95835C7.65636 6.33575 7.90462 5.73925 8.34486 5.299C8.7851 4.85874 9.3816 4.61047 10.0042 4.60835ZM13.5542 14.075C13.5544 14.3742 13.4361 14.6613 13.2254 14.8736C13.0146 15.086 12.7284 15.2063 12.4292 15.2084H7.5792C7.27871 15.208 6.99062 15.0885 6.77815 14.8761C6.56567 14.6636 6.44617 14.3755 6.44587 14.075V13.5334C6.44245 13.0651 6.53216 12.6009 6.70977 12.1676C6.88738 11.7343 7.14936 11.3407 7.48046 11.0096C7.81157 10.6785 8.20519 10.4165 8.63845 10.2389C9.07171 10.0613 9.53596 9.9716 10.0042 9.97502H10.1042C10.1876 9.97502 10.2708 9.97502 10.3542 9.98335C11.2467 10.0976 12.066 10.5361 12.656 11.2153C13.2461 11.8945 13.5658 12.767 13.5542 13.6667L13.5542 14.075Z" fill="#171723"/>
</svg>
