<svg width="20" height="20" viewBox="0 0 20 20" fill="none" xmlns="http://www.w3.org/2000/svg">
<g clip-path="url(#clip0_10314_145783)">
<path d="M16.9474 7.27588H8.52213C8.19157 7.27618 7.87463 7.40763 7.64089 7.64138C7.40715 7.87512 7.2757 8.19206 7.27539 8.52262V16.9479C7.27569 17.2785 7.40714 17.5954 7.64089 17.8292C7.87463 18.0629 8.19157 18.1944 8.52213 18.1947H16.9474C17.278 18.1944 17.5949 18.0629 17.8286 17.8292C18.0624 17.5954 18.1938 17.2785 18.1941 16.9479V8.52262C18.1938 8.19206 18.0624 7.87512 17.8286 7.64137C17.5949 7.40763 17.278 7.27618 16.9474 7.27588ZM17.3608 16.9479C17.3607 17.0575 17.317 17.1626 17.2395 17.2401C17.1621 17.3176 17.057 17.3612 16.9474 17.3613H8.52213C8.41254 17.3612 8.30747 17.3176 8.22998 17.2401C8.15248 17.1626 8.10888 17.0575 8.10872 16.9479V8.52262C8.10888 8.41303 8.15248 8.30796 8.22998 8.23047C8.30747 8.15297 8.41254 8.10937 8.52213 8.10921H16.9474C17.057 8.10937 17.162 8.15297 17.2395 8.23047C17.317 8.30796 17.3607 8.41303 17.3608 8.52262V16.9479Z" fill="#171723"/>
<path d="M3.93262 7.27588C3.512 7.27596 3.10084 7.40076 2.75114 7.63449C2.40144 7.86823 2.1289 8.20041 1.96797 8.58902C1.80705 8.97764 1.76496 9.40526 1.84704 9.81779C1.92912 10.2303 2.13168 10.6093 2.4291 10.9067C2.72653 11.2041 3.10546 11.4067 3.518 11.4887C3.93054 11.5708 4.35815 11.5287 4.74677 11.3678C5.13538 11.2069 5.46756 10.9343 5.70129 10.5846C5.93503 10.2349 6.05982 9.82378 6.0599 9.40315C6.05935 8.83914 5.83504 8.29838 5.43622 7.89955C5.0374 7.50073 4.49664 7.27643 3.93262 7.27588ZM3.93262 10.6963C3.67678 10.6962 3.42671 10.6203 3.21404 10.4781C3.00136 10.3359 2.83563 10.1338 2.7378 9.89739C2.63997 9.66099 2.61443 9.40089 2.66442 9.14999C2.71441 8.89908 2.83768 8.66863 3.01865 8.48779C3.19961 8.30694 3.43013 8.18381 3.68107 8.13398C3.93201 8.08415 4.19209 8.10985 4.42842 8.20783C4.66476 8.30581 4.86673 8.47167 5.0088 8.68443C5.15087 8.8972 5.22665 9.14732 5.22657 9.40315C5.22613 9.74612 5.08964 10.0749 4.84705 10.3173C4.60446 10.5598 4.27559 10.6961 3.93262 10.6963Z" fill="#171723"/>
<path d="M5.64324 12.4996H2.22282C2.11231 12.4996 2.00633 12.5435 1.92819 12.6217C1.85005 12.6998 1.80615 12.8058 1.80615 12.9163C1.80615 13.0268 1.85005 13.1328 1.92819 13.2109C2.00633 13.2891 2.11231 13.333 2.22282 13.333H5.64324C5.75374 13.333 5.85972 13.2891 5.93786 13.2109C6.016 13.1328 6.0599 13.0268 6.0599 12.9163C6.0599 12.8058 6.016 12.6998 5.93786 12.6217C5.85972 12.5435 5.75374 12.4996 5.64324 12.4996Z" fill="#171723"/>
<path d="M5.64324 17.3613H2.22282C2.11231 17.3613 2.00633 17.4052 1.92819 17.4834C1.85005 17.5615 1.80615 17.6675 1.80615 17.778C1.80615 17.8885 1.85005 17.9945 1.92819 18.0726C2.00633 18.1508 2.11231 18.1947 2.22282 18.1947H5.64324C5.75374 18.1947 5.85972 18.1508 5.93786 18.0726C6.016 17.9945 6.0599 17.8885 6.0599 17.778C6.0599 17.6675 6.016 17.5615 5.93786 17.4834C5.85972 17.4052 5.75374 17.3613 5.64324 17.3613Z" fill="#171723"/>
<path d="M5.64324 14.9305H2.22282C2.11231 14.9305 2.00633 14.9744 1.92819 15.0526C1.85005 15.1307 1.80615 15.2367 1.80615 15.3472C1.80615 15.4577 1.85005 15.5637 1.92819 15.6418C2.00633 15.72 2.11231 15.7639 2.22282 15.7639H5.64324C5.75374 15.7639 5.85972 15.72 5.93786 15.6418C6.016 15.5637 6.0599 15.4577 6.0599 15.3472C6.0599 15.2367 6.016 15.1307 5.93786 15.0526C5.85972 14.9744 5.75374 14.9305 5.64324 14.9305Z" fill="#171723"/>
<path d="M2.22282 6.27982H12.2676C12.3223 6.27986 12.3765 6.2691 12.4271 6.24817C12.4776 6.22724 12.5236 6.19655 12.5623 6.15785C12.601 6.11916 12.6317 6.07321 12.6526 6.02265C12.6735 5.97208 12.6843 5.91788 12.6842 5.86316V2.22221C12.6843 2.16748 12.6735 2.11329 12.6526 2.06272C12.6317 2.01215 12.601 1.96621 12.5623 1.92751C12.5236 1.88881 12.4776 1.85812 12.4271 1.83719C12.3765 1.81627 12.3223 1.80551 12.2676 1.80554H2.22282C2.16809 1.80551 2.1139 1.81627 2.06333 1.8372C2.01277 1.85813 1.96682 1.88882 1.92812 1.92751C1.88943 1.96621 1.85874 2.01215 1.83781 2.06272C1.81688 2.11329 1.80612 2.16748 1.80615 2.22221V5.86316C1.80612 5.91788 1.81688 5.97208 1.83781 6.02265C1.85874 6.07321 1.88943 6.11916 1.92812 6.15785C1.96682 6.19655 2.01277 6.22724 2.06333 6.24817C2.1139 6.2691 2.16809 6.27986 2.22282 6.27982ZM2.63949 2.63888H11.8509V5.44649H2.63949V2.63888Z" fill="#171723"/>
<path d="M15.6171 5.90953C16.0162 5.90933 16.4064 5.79195 16.7395 5.57196L17.4538 6.28632C17.5322 6.36315 17.6378 6.40594 17.7475 6.40538C17.8573 6.40483 17.9624 6.36098 18.04 6.28336C18.1176 6.20575 18.1615 6.10063 18.162 5.99087C18.1626 5.8811 18.1198 5.77555 18.043 5.69716L17.3297 4.98382C17.5799 4.60223 17.6957 4.14805 17.6587 3.69322C17.6216 3.23838 17.4339 2.80891 17.1252 2.47283C16.8165 2.13675 16.4045 1.91327 15.9545 1.8378C15.5044 1.76233 15.042 1.83919 14.6406 2.05619C14.2392 2.27319 13.9216 2.61793 13.7382 3.0358C13.5549 3.45367 13.5161 3.92078 13.6282 4.36313C13.7403 4.80549 13.9968 5.1978 14.3571 5.47791C14.7173 5.75803 15.1607 5.90994 15.6171 5.90957L15.6171 5.90953ZM15.6171 2.63886C15.8581 2.63879 16.0937 2.71018 16.2942 2.84402C16.4946 2.97787 16.6509 3.16814 16.7432 3.3908C16.8355 3.61345 16.8597 3.85847 16.8128 4.09489C16.7659 4.3313 16.6499 4.54848 16.4795 4.71897C16.3091 4.88946 16.092 5.0056 15.8556 5.0527C15.6192 5.0998 15.3742 5.07575 15.1515 4.98359C14.9288 4.89142 14.7384 4.73529 14.6044 4.53492C14.4704 4.33456 14.3989 4.09897 14.3988 3.85794C14.3992 3.53487 14.5276 3.22513 14.756 2.99661C14.9843 2.76809 15.294 2.63944 15.6171 2.63886Z" fill="#171723"/>
<path d="M14.1076 12.1189L11.8965 10.842C11.7883 10.7797 11.6656 10.7469 11.5407 10.7469C11.4158 10.747 11.2931 10.78 11.185 10.8425C11.0769 10.905 10.9871 10.9949 10.9247 11.1031C10.8623 11.2113 10.8295 11.334 10.8296 11.4589V14.0118C10.8292 14.1369 10.8619 14.2598 10.9243 14.3682C10.9867 14.4766 11.0766 14.5666 11.185 14.6291C11.2934 14.6915 11.4163 14.7242 11.5414 14.7239C11.6665 14.7235 11.7893 14.6901 11.8973 14.627L14.1076 13.3518C14.2157 13.2893 14.3055 13.1994 14.3679 13.0912C14.4304 12.983 14.4632 12.8602 14.4632 12.7353C14.4632 12.6104 14.4304 12.4877 14.3679 12.3795C14.3055 12.2713 14.2157 12.1814 14.1076 12.1189ZM11.6629 13.8002V11.6697L13.5078 12.7349L11.6629 13.8002Z" fill="#171723"/>
</g>
<defs>
<clipPath id="clip0_10314_145783">
<rect width="20" height="20" fill="white"/>
</clipPath>
</defs>
</svg>
