<svg width="20" height="20" viewBox="0 0 20 20" fill="none" xmlns="http://www.w3.org/2000/svg">
<g clip-path="url(#clip0_5313_35034)">
<path d="M13.7498 2.91305H13.7344C13.6997 2.60851 13.5544 2.32731 13.3261 2.12284C13.0977 1.91836 12.8023 1.80485 12.4958 1.80383H7.50229C7.19578 1.80485 6.90031 1.91836 6.67198 2.12284C6.44364 2.32731 6.29833 2.60851 6.26363 2.91305H6.24984C5.36607 2.91399 4.51877 3.26548 3.89385 3.8904C3.26893 4.51532 2.91744 5.36262 2.9165 6.24638V14.8625C2.91739 15.7463 3.26886 16.5937 3.89379 17.2186C4.51872 17.8435 5.36605 18.195 6.24984 18.1959H13.7498C14.6336 18.195 15.481 17.8435 16.1059 17.2186C16.7308 16.5937 17.0823 15.7463 17.0832 14.8625V6.24638C17.0822 5.36262 16.7307 4.51532 16.1058 3.8904C15.4809 3.26548 14.6336 2.91399 13.7498 2.91305ZM7.50229 2.63717H12.4958C12.6071 2.63723 12.7139 2.68149 12.7926 2.76023C12.8714 2.83897 12.9156 2.94574 12.9157 3.05709V3.60641C12.9156 3.71776 12.8714 3.82453 12.7926 3.90327C12.7139 3.982 12.6071 4.02626 12.4958 4.02632H7.50229C7.39094 4.02626 7.28416 3.982 7.20543 3.90327C7.12669 3.82453 7.08243 3.71776 7.08236 3.60641V3.33373L7.08317 3.32972L7.08234 3.32569V3.05709C7.0824 2.94573 7.12666 2.83896 7.20541 2.76022C7.28415 2.68148 7.39093 2.63722 7.50229 2.63717ZM16.2498 14.8625C16.2491 15.5254 15.9855 16.1608 15.5168 16.6295C15.0481 17.0982 14.4127 17.3618 13.7498 17.3625H6.24984C5.58702 17.3618 4.95155 17.0982 4.48287 16.6295C4.01419 16.1608 3.75056 15.5254 3.74984 14.8625V6.24638C3.75056 5.58356 4.01419 4.9481 4.48287 4.47941C4.95155 4.01073 5.58702 3.74711 6.24984 3.74638H6.26321C6.29697 4.05174 6.44192 4.33399 6.67045 4.53931C6.89897 4.74463 7.19507 4.85866 7.50229 4.85966H12.4958C12.803 4.85866 13.0991 4.74463 13.3276 4.53931C13.5561 4.33399 13.7011 4.05174 13.7348 3.74638H13.7498C14.4127 3.74711 15.0481 4.01073 15.5168 4.47941C15.9855 4.9481 16.2491 5.58356 16.2498 6.24638V14.8625Z" fill="#171723"/>
</g>
<defs>
<clipPath id="clip0_5313_35034">
<rect width="20" height="20" fill="white"/>
</clipPath>
</defs>
</svg>
