<svg width="20" height="20" viewBox="0 0 20 20" fill="none" xmlns="http://www.w3.org/2000/svg">
<g clip-path="url(#clip0_10317_147029)">
<path d="M14.9919 16.4518C14.9371 16.4518 14.8829 16.4626 14.8324 16.4835C14.7818 16.5044 14.7359 16.5351 14.6972 16.5738C14.6585 16.6125 14.6278 16.6585 14.6068 16.709C14.5859 16.7596 14.5752 16.8138 14.5752 16.8685V17.7775C14.5752 17.888 14.6191 17.994 14.6972 18.0721C14.7754 18.1503 14.8814 18.1942 14.9919 18.1942C15.1024 18.1942 15.2084 18.1503 15.2865 18.0721C15.3646 17.994 15.4085 17.888 15.4085 17.7775V16.8685C15.4086 16.8138 15.3978 16.7596 15.3769 16.709C15.3559 16.6585 15.3253 16.6125 15.2866 16.5738C15.2479 16.5351 15.2019 16.5044 15.1514 16.4835C15.1008 16.4626 15.0466 16.4518 14.9919 16.4518Z" fill="#171723"/>
<path d="M17.7776 14.5817H15.4087V7.82796C15.4065 6.96858 15.0634 6.14516 14.4548 5.53839C13.8462 4.93163 13.0218 4.59108 12.1624 4.59148H6.86943C6.75893 4.59148 6.65295 4.63538 6.57481 4.71352C6.49667 4.79166 6.45277 4.89764 6.45277 5.00814C6.45277 5.11865 6.49667 5.22463 6.57481 5.30277C6.65295 5.38091 6.75893 5.42481 6.86943 5.42481H12.1624C12.8009 5.4242 13.4135 5.67688 13.8658 6.12741C14.3182 6.57794 14.5733 7.18952 14.5753 7.82796V14.5817H7.81996C7.18243 14.5809 6.57124 14.3273 6.12044 13.8764C5.66963 13.4256 5.416 12.8145 5.41518 12.1769V2.22209C5.41518 2.11158 5.37128 2.0056 5.29314 1.92746C5.215 1.84932 5.10902 1.80542 4.99851 1.80542C4.888 1.80542 4.78202 1.84932 4.70388 1.92746C4.62574 2.0056 4.58184 2.11158 4.58184 2.22209V4.59148H2.22184C2.11134 4.59148 2.00535 4.63538 1.92721 4.71352C1.84907 4.79166 1.80518 4.89764 1.80518 5.00814C1.80518 5.11865 1.84907 5.22463 1.92721 5.30277C2.00535 5.38091 2.11134 5.42481 2.22184 5.42481H4.58184V12.1769C4.58282 13.0354 4.92429 13.8585 5.53134 14.4655C6.1384 15.0726 6.96146 15.4141 7.81996 15.415H17.7776C17.8881 15.415 17.9941 15.3711 18.0723 15.293C18.1504 15.2149 18.1943 15.1089 18.1943 14.9984C18.1943 14.8879 18.1504 14.7819 18.0723 14.7038C17.9941 14.6256 17.8881 14.5817 17.7776 14.5817Z" fill="#171723"/>
</g>
<defs>
<clipPath id="clip0_10317_147029">
<rect width="20" height="20" fill="white"/>
</clipPath>
</defs>
</svg>
