<svg width="21" height="20" viewBox="0 0 21 20" fill="none" xmlns="http://www.w3.org/2000/svg">
<g clip-path="url(#clip0_10314_145407)">
<path d="M10.8077 17.7777C8.95711 17.7646 7.16667 17.1192 5.73333 15.9487C4.29998 14.7781 3.30988 13.1527 2.92727 11.3421C2.54465 9.53147 2.79251 7.64447 3.62973 5.99409C4.46696 4.34371 5.84323 3.02913 7.53024 2.26843C7.63256 2.22384 7.74593 2.2111 7.8556 2.23187C7.96526 2.25265 8.06612 2.30597 8.14504 2.38489C8.22396 2.46381 8.27728 2.56467 8.29805 2.67433C8.31882 2.78399 8.30608 2.89737 8.26149 2.99968C7.903 3.90041 7.72976 4.86416 7.75212 5.83335C7.75421 7.67448 8.48652 9.43961 9.7884 10.7415C11.0903 12.0434 12.8554 12.7757 14.6965 12.7778C15.6657 12.8001 16.6295 12.6269 17.5302 12.2683C17.6325 12.2238 17.7459 12.211 17.8556 12.2318C17.9652 12.2526 18.0661 12.3059 18.145 12.3848C18.2239 12.4637 18.2773 12.5646 18.298 12.6743C18.3188 12.7839 18.306 12.8973 18.2614 12.9996C17.6193 14.4354 16.5718 15.6524 15.2477 16.5012C13.9236 17.35 12.3804 17.7937 10.8077 17.7777Z" fill="#171723"/>
</g>
<defs>
<clipPath id="clip0_10314_145407">
<rect width="20" height="20" fill="white" transform="translate(0.529785)"/>
</clipPath>
</defs>
</svg>
