<svg width="20" height="20" viewBox="0 0 20 20" fill="none" xmlns="http://www.w3.org/2000/svg">
<g clip-path="url(#clip0_10314_144845)">
<path d="M4.80191 7.21599V8.26433C3.92094 8.29852 3.04466 8.12026 2.24707 7.74458C3.04338 7.36429 3.92008 7.18291 4.80191 7.21599Z" fill="#171723"/>
<path d="M2.2207 8.70496V10.185C3.02888 10.5587 3.91184 10.7426 4.802 10.7225V9.14545C3.92363 9.13671 3.05226 8.98801 2.2207 8.70496Z" fill="#171723"/>
<path d="M17.7791 13.568V14.9423C17.7689 14.9737 17.763 15.0063 17.7614 15.0392C17.1689 15.3968 16.4888 15.5829 15.7968 15.5766L15.4884 15.6031C15.4004 15.6031 15.2947 15.6031 15.1978 15.6119V14.0173C15.5589 14.0085 15.9202 13.9909 16.2902 13.9468C16.8013 13.8883 17.3021 13.7609 17.7791 13.568Z" fill="#171723"/>
<path d="M14.3169 13.9733V15.9202C14.0878 16.2022 12.4667 16.722 9.99998 16.722C8.52411 16.8101 7.0476 16.56 5.68311 15.9907V13.982C5.74477 14.0085 5.81527 14.0261 5.88576 14.0525L5.93862 14.079C5.98448 14.0948 6.03164 14.1066 6.07956 14.1142C6.26741 14.1775 6.45858 14.2304 6.65222 14.2728C6.72175 14.2917 6.79236 14.3064 6.86366 14.3168C7.14558 14.3785 7.42751 14.4314 7.72699 14.4666C7.80631 14.4754 7.8768 14.4842 7.95606 14.493C8.19394 14.5195 8.43183 14.5459 8.67848 14.5635C8.80181 14.5723 8.91636 14.5812 9.03966 14.5899C9.33922 14.5987 9.62996 14.6164 9.91189 14.6164H10.0705C10.2731 14.6164 10.5021 14.6076 10.74 14.5987C10.8223 14.6002 10.9047 14.5973 10.9867 14.5899C12.1229 14.5672 13.2478 14.3589 14.3169 13.9733Z" fill="#171723"/>
<path d="M4.80197 14.0261V15.603C4.66104 15.5942 4.52886 15.5942 4.37911 15.5854C4.26458 15.5766 4.14123 15.5678 4.00911 15.5502C3.62552 15.5039 3.24572 15.4303 2.87259 15.3299C2.81293 15.3156 2.75412 15.298 2.69644 15.2771C2.59949 15.2419 2.50259 15.2066 2.44977 15.189C2.30002 15.1009 2.24716 15.0304 2.2207 15.048V13.5944L2.23834 13.6032C2.7048 13.774 3.18975 13.8893 3.68317 13.9468C3.70075 13.9468 3.7977 13.9556 3.81529 13.9556C4.14257 13.9979 4.472 14.0214 4.80197 14.0261Z" fill="#171723"/>
<path d="M4.80204 11.6034V13.1451C4.4937 13.1363 4.20297 13.1186 3.92986 13.0834C3.91228 13.0834 3.81533 13.0746 3.79774 13.0746C3.38925 13.0295 2.98725 12.9378 2.59955 12.8015L2.41455 12.7134C2.29122 12.6517 2.22955 12.5989 2.2207 12.5989V11.1541C3.05212 11.4388 3.9233 11.5904 4.80204 11.6034Z" fill="#171723"/>
<path d="M14.308 10.9779V12.9249C14.0966 13.2068 12.5284 13.709 10.1585 13.7354C9.99115 13.7354 9.83257 13.7354 9.65636 13.7266C8.68492 13.7111 7.71723 13.6019 6.76674 13.4006C6.72271 13.383 6.66985 13.3742 6.61693 13.3566C6.51123 13.3301 6.41433 13.3037 6.32625 13.2773C6.28221 13.2597 6.23811 13.2509 6.20291 13.2332C6.01165 13.1728 5.83476 13.0738 5.68311 12.9425V10.9867C5.71838 11.0044 5.7536 11.0131 5.78887 11.0308C5.81881 11.041 5.8482 11.0528 5.87695 11.066C5.88576 11.066 5.96502 11.1013 5.97385 11.1013C6.61874 11.3047 7.28306 11.4406 7.95607 11.5065C8.05297 11.5153 8.15869 11.5241 8.30849 11.5418C8.36135 11.5506 8.40539 11.5506 8.45825 11.5593H8.51991C8.58413 11.5688 8.64883 11.5747 8.71371 11.577H8.83704C9.2335 11.6034 9.62996 11.621 9.99996 11.621C10.2466 11.621 10.5109 11.621 10.8016 11.6034C10.8634 11.6049 10.9252 11.6019 10.9866 11.5946C12.1201 11.5725 13.2422 11.3642 14.308 10.9779Z" fill="#171723"/>
<path d="M17.7791 11.1365V12.5637C17.7703 12.5725 17.7438 12.5989 17.6822 12.6518C17.6522 12.662 17.6228 12.6737 17.5941 12.687C17.1494 12.9032 16.6684 13.0346 16.1757 13.0747C15.8511 13.1127 15.5246 13.1333 15.1978 13.1363V12.9778C15.1978 12.9689 15.189 12.9689 15.189 12.9601V11.5858C15.7931 11.5748 16.3948 11.5069 16.9862 11.3832C17.0229 11.3818 17.0589 11.3728 17.0919 11.3567C17.2769 11.3127 17.4443 11.2598 17.5852 11.2158C17.6381 11.1981 17.6822 11.1805 17.7262 11.1629L17.7791 11.1365Z" fill="#171723"/>
<path d="M17.7791 8.69604V10.1321C17.7791 10.1332 17.7789 10.1344 17.7784 10.1355C17.778 10.1365 17.7774 10.1375 17.7765 10.1384C17.7757 10.1392 17.7747 10.1398 17.7737 10.1403C17.7726 10.1407 17.7714 10.1409 17.7702 10.1409C17.7381 10.1687 17.7026 10.1924 17.6645 10.2114C17.6118 10.2487 17.5558 10.2811 17.4971 10.3083C17.4307 10.3264 17.3659 10.35 17.3033 10.3788C17.18 10.4228 17.0302 10.458 16.8716 10.5021C16.854 10.5109 16.8364 10.5109 16.8188 10.5197C16.2817 10.6272 15.7365 10.6891 15.189 10.7047V10.0087C15.189 9.99989 15.1978 9.99989 15.1978 9.99108V9.14535C16.0778 9.14711 16.9514 8.99505 17.7791 8.69604Z" fill="#171723"/>
<path d="M17.735 7.74465C16.944 8.12127 16.0732 8.29966 15.1978 8.2644V7.21606C16.0742 7.17989 16.9459 7.3615 17.735 7.74465Z" fill="#171723"/>
<path d="M14.3169 7.99133V9.92953C14.1142 10.1938 12.8016 10.6255 10.7841 10.7224C10.4934 10.7312 10.1939 10.74 9.89431 10.74H9.77977C9.47144 10.7312 9.16311 10.7224 8.84592 10.696C8.69617 10.6872 8.54636 10.6783 8.40543 10.6696C8.39093 10.6658 8.37623 10.6628 8.36139 10.6608C8.31736 10.6608 8.2909 10.6519 8.24686 10.6519C7.54047 10.5871 6.84327 10.4453 6.16769 10.2291C5.98687 10.1776 5.82081 10.084 5.68311 9.95598V8.02661C7.07621 8.47912 8.53563 8.69356 10 8.66089C11.4673 8.69564 12.9291 8.46892 14.3169 7.99133Z" fill="#171723"/>
<path d="M9.9999 4.79336C12.3694 4.79336 14.2903 4.45415 14.2903 4.03572C14.2903 3.61728 12.3694 3.27808 9.9999 3.27808C7.63036 3.27808 5.70947 3.61728 5.70947 4.03572C5.70947 4.45415 7.63036 4.79336 9.9999 4.79336Z" fill="#171723"/>
<path d="M14.3169 5.02234V6.96936C14.2992 6.98694 14.2728 7.00457 14.2552 7.02221C14.1266 7.10977 13.9874 7.1808 13.8411 7.23364C13.753 7.26886 13.6473 7.30413 13.5416 7.33936C13.3566 7.39221 13.154 7.44507 12.8544 7.50675C11.9135 7.68359 10.9573 7.76623 9.99998 7.75345C7.45391 7.75345 5.88576 7.25127 5.68311 6.96053V5.02234C7.07675 5.47419 8.53506 5.69442 9.99998 5.67426C11.4649 5.69442 12.9232 5.47419 14.3169 5.02234Z" fill="#171723"/>
</g>
<defs>
<clipPath id="clip0_10314_144845">
<rect width="20" height="20" fill="white"/>
</clipPath>
</defs>
</svg>
