<svg width="20" height="20" viewBox="0 0 20 20" fill="none" xmlns="http://www.w3.org/2000/svg">
<path d="M4.99773 4.78674C4.67058 4.78674 1.80518 4.82091 1.80518 6.00541L1.80762 6.02124V9.98253L1.80595 9.99062V12.1509L1.80762 12.1589V14.152C1.80998 14.1705 1.81367 14.1888 1.81866 14.2068C1.83624 14.2793 1.86374 14.3491 1.90039 14.414C1.90533 14.4201 1.91393 14.4251 1.91911 14.4311C1.93022 14.4426 1.94201 14.4534 1.95441 14.4634C2.44538 14.9788 3.81774 15.2132 5.00017 15.2132C6.10287 15.2132 8.18783 14.9593 8.18783 13.9982V11.9914L8.18616 11.9833V10.0053L8.18783 9.99345V6.01595L8.18949 6.00542C8.18946 4.82093 5.32406 4.78674 4.99773 4.78674ZM4.79198 12.3727C4.75088 12.3717 4.71009 12.3707 4.67002 12.3692C4.42771 12.3598 4.17773 12.3395 3.9201 12.3084C3.83409 12.2969 3.75042 12.2848 3.67204 12.2712C3.63817 12.2655 3.60378 12.2602 3.57098 12.2535C3.47439 12.2351 3.3838 12.2156 3.30023 12.1952C3.19338 12.1667 3.09363 12.1395 2.99984 12.111L3.00068 12.1101L2.85501 12.0572C2.75908 12.0169 2.70776 11.9899 2.67584 11.9772C2.66455 11.9711 2.64918 11.9645 2.63933 11.9587V10.8598C2.67071 10.8712 2.69823 10.8846 2.73083 10.8954L2.7321 10.896L2.7323 10.896C2.80854 10.9214 2.89166 10.9427 2.97364 10.9649C3.14284 11.0122 3.31444 11.0504 3.48772 11.0794C3.54621 11.0897 3.60363 11.1003 3.66329 11.1093C3.70307 11.115 3.73598 11.1236 3.77702 11.1287L3.92188 11.145C3.94456 11.1476 3.96257 11.1485 3.98505 11.1511C4.05128 11.1585 4.11703 11.1644 4.18372 11.1703L4.21648 11.1735C4.26851 11.1807 4.31438 11.1816 4.36357 11.1839C4.57796 11.1985 4.79208 11.2085 5.00017 11.2085C5.12544 11.2085 5.2646 11.2047 5.41078 11.1975C5.47563 11.1951 5.54195 11.1956 5.60726 11.1922C6.20133 11.1637 6.78867 11.0538 7.35287 10.8656V11.9222C6.77758 12.2198 6.13804 12.3717 5.49037 12.3645C5.26618 12.3763 5.03257 12.3788 4.79198 12.3727ZM7.08188 8.95913C7.13594 8.94229 7.18375 8.92571 7.23151 8.90923L7.25384 8.9018L7.28451 8.89158C7.30968 8.88263 7.3313 8.87393 7.35451 8.86508V9.91905C6.77727 10.2174 6.13561 10.3695 5.48587 10.3619L5.48087 10.3621C5.34313 10.3699 5.1967 10.3735 5.04543 10.3743C4.87922 10.3746 4.70486 10.3705 4.507 10.3593C4.44132 10.3586 4.37574 10.354 4.31062 10.3455L4.27461 10.3423C4.18711 10.336 4.10117 10.3266 4.01628 10.317L3.95726 10.3105C3.86794 10.299 3.78413 10.286 3.70274 10.2723C3.65763 10.2652 3.61358 10.2576 3.57019 10.2496C3.46994 10.2305 3.37493 10.2103 3.28868 10.189C3.20607 10.168 3.12408 10.1467 3.05237 10.1223C3.03828 10.1179 3.02078 10.1137 3.00725 10.1093C2.92015 10.0806 2.83481 10.0468 2.75167 10.0081C2.71242 9.98814 2.67533 9.96417 2.64098 9.9366V8.87799C3.4034 9.12081 4.20015 9.23835 5.0002 9.22603C5.68428 9.22822 6.36584 9.14301 7.02832 8.97246C7.04484 8.96746 7.06636 8.96429 7.08188 8.95913ZM7.35449 7.92443C7.34218 7.93475 7.32825 7.94477 7.32453 7.95678L7.32347 7.95746C7.27179 7.99289 7.2161 8.02207 7.15756 8.04438C7.1093 8.06744 7.0597 8.08759 7.00903 8.10471L6.98768 8.11238C6.94877 8.12638 6.90441 8.14067 6.85601 8.15598C6.83063 8.16366 6.80118 8.17103 6.77407 8.17861C6.72308 8.19415 6.67125 8.2068 6.61883 8.2165C6.08505 8.32843 5.54065 8.38178 4.9953 8.3756C4.36024 8.38486 3.72668 8.31114 3.11072 8.15629C3.07415 8.14556 3.03244 8.13508 2.99933 8.12419L2.98285 8.1188C2.86495 8.08185 2.75107 8.03312 2.64293 7.97334L2.64095 7.97207V6.87638C3.40426 7.11155 4.19903 7.22867 4.99773 7.22368C5.79644 7.22865 6.59122 7.11143 7.35449 6.87608V7.92443ZM4.99773 5.62008C5.7762 5.57781 6.55431 5.70944 7.27556 6.00541C6.55417 6.30087 5.77614 6.43235 4.99773 6.39034C4.2193 6.43245 3.44125 6.30097 2.71989 6.00541C3.44114 5.70944 4.21926 5.57781 4.99773 5.62008ZM2.64095 13.9594V12.8646C2.75448 12.9059 2.87497 12.9433 3.00243 12.9768C3.0388 12.9867 3.06759 12.9958 3.10726 13.0061L3.11876 13.0088C3.14592 13.0153 3.17303 13.0216 3.20064 13.0278L3.3042 13.0517C3.43685 13.0835 3.58415 13.1054 3.76644 13.1323C3.79644 13.1361 3.82513 13.1345 3.85509 13.138C4.23434 13.1863 4.61623 13.2111 4.99854 13.212H5.00017L5.00183 13.212C5.13718 13.2119 5.28728 13.2081 5.44643 13.1995C5.49017 13.1976 5.53643 13.1983 5.57958 13.1957C6.1839 13.1691 6.78143 13.0572 7.35448 12.8635V13.9233C6.62379 14.2807 5.81148 14.4382 5.00016 14.3798C4.19199 14.4213 3.38502 14.2775 2.64095 13.9594Z" fill="#171723"/>
<path d="M18.1943 8.00614C18.1943 6.82166 15.3289 6.78748 15.0026 6.78748C14.6755 6.78748 11.8101 6.82164 11.8101 8.00614L11.8117 8.01668V11.9873L11.8109 11.9913V14.152C11.8132 14.1705 11.8169 14.1888 11.8219 14.2068C11.8255 14.2645 11.8453 14.32 11.8791 14.3669C11.8862 14.3832 11.8944 14.3989 11.9037 14.414C11.9086 14.4201 11.9172 14.4251 11.9224 14.4311C11.9335 14.4426 11.9453 14.4534 11.9577 14.4634C12.1162 14.6162 12.3042 14.7351 12.5102 14.8129C12.5172 14.8159 12.5208 14.8196 12.5279 14.8226C12.5462 14.8306 12.5744 14.8389 12.5973 14.8468C12.7395 14.9009 12.8847 14.9469 13.032 14.9847C13.0604 14.9923 13.0818 14.9994 13.1122 15.0073L13.1257 15.0104C13.1519 15.0166 13.1779 15.0227 13.2045 15.0286L13.3091 15.0529C13.3677 15.0667 13.4375 15.0749 13.5011 15.086C13.5515 15.0948 13.6008 15.1043 13.6521 15.1122C13.693 15.1183 13.7288 15.1268 13.7706 15.1326C13.7972 15.1361 13.8232 15.1346 13.8499 15.1378C14.2324 15.187 14.6177 15.2122 15.0035 15.2132H15.0051L15.0068 15.2131C15.1421 15.2131 15.2922 15.2092 15.4514 15.2006C15.4951 15.1987 15.5414 15.1995 15.5845 15.1969C16.4332 15.2077 17.2649 14.9598 17.9692 14.4863C17.9825 14.4731 17.9951 14.4597 18.0073 14.4461C18.0407 14.4098 18.0707 14.3706 18.097 14.3288C18.1385 14.2576 18.1658 14.1789 18.1774 14.0973C18.1795 14.0839 18.189 14.0737 18.1903 14.06C18.1915 14.0485 18.187 14.0375 18.1872 14.026C18.1877 14.0161 18.1912 14.0073 18.1912 13.9973V12.0005L18.192 11.9946V8.02196L18.1943 8.00614ZM14.7827 14.3734C14.7482 14.3726 14.7139 14.3717 14.6801 14.3704C14.4336 14.3608 14.1834 14.341 13.935 14.3108C13.8537 14.3 13.7757 14.2883 13.7011 14.2757C13.659 14.269 13.6165 14.2625 13.5759 14.2543C13.4771 14.2354 13.384 14.2155 13.2988 14.1946C13.1913 14.1659 13.0916 14.1377 12.9982 14.1097L12.9976 14.1096C12.9442 14.092 12.9024 14.0747 12.8581 14.0574L12.8582 14.0568C12.7676 14.0194 12.7162 13.9933 12.6834 13.9792C12.6712 13.9727 12.6548 13.9656 12.6442 13.9593V12.8612C12.7829 12.9116 12.9241 12.9548 13.0673 12.9906C13.1921 13.0232 13.3267 13.0511 13.4682 13.0759C13.5394 13.0887 13.6097 13.1015 13.6826 13.1124C13.7168 13.1171 13.7452 13.1247 13.7803 13.1291L13.9194 13.1445C13.9349 13.1464 13.9468 13.1469 13.9622 13.1487C14.0471 13.1584 14.1316 13.1664 14.2173 13.1737L14.2189 13.1738C14.2963 13.1841 14.3741 13.19 14.4521 13.1914C14.6382 13.2025 14.8235 13.2097 15.0042 13.2097C15.1433 13.2097 15.2981 13.2056 15.4623 13.1966C15.5117 13.1946 15.5625 13.1954 15.6122 13.1926C16.2065 13.1647 16.794 13.0541 17.3578 12.8637V13.9234C16.7827 14.2211 16.1434 14.3729 15.4959 14.3657C15.2669 14.3779 15.0271 14.3802 14.7827 14.3734ZM17.0868 10.9594C17.1438 10.9419 17.1931 10.9248 17.241 10.908L17.2558 10.9031L17.287 10.8927C17.3128 10.8835 17.3349 10.8748 17.3586 10.8658V11.9198C16.6393 12.272 15.8402 12.429 15.0412 12.3752C14.8777 12.3752 14.7068 12.3712 14.5119 12.36C14.449 12.3593 14.3862 12.355 14.3239 12.3469L14.2607 12.3413C14.1781 12.3348 14.0965 12.3266 14.0155 12.3169L13.9568 12.3104C13.8686 12.299 13.7855 12.2862 13.7051 12.2726C13.6619 12.2658 13.6197 12.2586 13.5781 12.251C13.4762 12.2316 13.3799 12.2111 13.2923 12.1894C13.195 12.1645 13.0959 12.1402 13.0129 12.1102C12.9259 12.0814 12.8406 12.048 12.7573 12.0101C12.7174 11.9896 12.6798 11.965 12.645 11.9367V10.8788C13.4075 11.1214 14.2042 11.2387 15.0042 11.2263C15.6873 11.2285 16.3679 11.1436 17.0296 10.9737C17.0475 10.9683 17.0698 10.9652 17.0868 10.9594ZM17.3586 9.8255L17.3572 9.93361L17.3294 9.95694L17.319 9.96397C17.27 9.99676 17.2175 10.024 17.1624 10.0451C17.1127 10.0689 17.0616 10.0895 17.0093 10.1068L16.9933 10.1126C16.9557 10.1263 16.9124 10.1403 16.8666 10.1549C16.8369 10.164 16.8022 10.1726 16.77 10.1815C16.7219 10.1961 16.6731 10.208 16.6237 10.2172C16.0898 10.3284 15.5455 10.3818 15.0002 10.3763C14.3661 10.3855 13.7336 10.3121 13.1184 10.158C13.0794 10.1465 13.035 10.1354 12.9998 10.1238L12.9897 10.1206C12.8701 10.0833 12.7546 10.0338 12.6451 9.97303V8.87681C14.1821 9.34015 15.8215 9.34028 17.3586 8.87717L17.3586 9.8255ZM15.0026 7.62079C15.7811 7.57853 16.5592 7.71016 17.2804 8.00613C16.5591 8.30168 15.781 8.43316 15.0026 8.39106C14.2239 8.43324 13.4456 8.30176 12.7239 8.00614C13.4455 7.7101 14.2239 7.57847 15.0026 7.62079Z" fill="#171723"/>
<path d="M11.5118 10.3675C11.4973 10.291 11.4611 10.2203 11.4075 10.1639C11.4025 10.1589 11.3957 10.1573 11.3905 10.1527L10.5497 9.31145C10.4713 9.23462 10.3657 9.19183 10.256 9.19239C10.1462 9.19294 10.0411 9.23679 9.96348 9.31441C9.88586 9.39203 9.84202 9.49714 9.84146 9.6069C9.84091 9.71667 9.88369 9.82222 9.96052 9.90062L10.1037 10.0442H8.88708C8.83223 10.044 8.77788 10.0546 8.72713 10.0754C8.67639 10.0962 8.63026 10.1269 8.59139 10.1656C8.55252 10.2043 8.52168 10.2503 8.50063 10.3009C8.47958 10.3516 8.46875 10.4059 8.46875 10.4607C8.46875 10.5156 8.47958 10.5699 8.50063 10.6205C8.52168 10.6712 8.55252 10.7172 8.59139 10.7559C8.63026 10.7946 8.67639 10.8252 8.72713 10.846C8.77788 10.8668 8.83223 10.8774 8.88708 10.8772H10.1046L9.95967 11.022C9.92034 11.0606 9.88904 11.1065 9.86759 11.1572C9.84613 11.208 9.83494 11.2624 9.83466 11.3175C9.83438 11.3726 9.84502 11.4271 9.86597 11.4781C9.88691 11.529 9.91774 11.5753 9.95668 11.6142C9.99562 11.6531 10.0419 11.684 10.0928 11.7049C10.1437 11.7258 10.1983 11.7365 10.2534 11.7362C10.3084 11.7359 10.3629 11.7247 10.4136 11.7033C10.4643 11.6818 10.5103 11.6505 10.5488 11.6112L11.4075 10.7531C11.4531 10.7064 11.4869 10.6493 11.5059 10.5868C11.5249 10.5243 11.5287 10.4582 11.5169 10.3939L11.5118 10.3675Z" fill="#171723"/>
</svg>
