<svg width="20" height="20" viewBox="0 0 20 20" fill="none" xmlns="http://www.w3.org/2000/svg">
<path d="M8.88587 12.9173H7.06299C6.96533 12.9173 6.86903 12.8944 6.78183 12.8504C6.69462 12.8065 6.61894 12.7427 6.56087 12.6642L5.92855 11.8105C5.8487 11.7029 5.80561 11.5725 5.80566 11.4386V7.74963C5.80571 7.58389 5.87157 7.42494 5.98877 7.30774C6.10597 7.19054 6.26492 7.12468 6.43066 7.12463H8.88587C9.05163 7.12463 9.2106 7.19048 9.32781 7.30769C9.44502 7.4249 9.51087 7.58387 9.51087 7.74963C9.51087 7.91539 9.44502 8.07437 9.32781 8.19158C9.2106 8.30879 9.05163 8.37463 8.88587 8.37463H7.05566V11.2327L7.37793 11.6673H8.88587C9.05163 11.6673 9.2106 11.7331 9.32781 11.8503C9.44502 11.9676 9.51087 12.1265 9.51087 12.2923C9.51087 12.458 9.44502 12.617 9.32781 12.7342C9.2106 12.8514 9.05163 12.9173 8.88587 12.9173Z" fill="#171723"/>
<path d="M8.88601 15.8942H5.56248C5.46482 15.8942 5.36852 15.8713 5.28132 15.8274C5.19411 15.7834 5.11843 15.7196 5.06036 15.6411L2.95101 12.7928C2.87116 12.6853 2.82807 12.5548 2.82813 12.4209V4.77197C2.82817 4.60623 2.89403 4.44728 3.01123 4.33008C3.12843 4.21288 3.28738 4.14702 3.45313 4.14697H8.88601C9.05177 4.14697 9.21074 4.21282 9.32795 4.33003C9.44516 4.44724 9.51101 4.60621 9.51101 4.77197C9.51101 4.93773 9.44516 5.0967 9.32795 5.21391C9.21074 5.33112 9.05177 5.39697 8.88601 5.39697H4.0781V12.215L5.87742 14.6442H8.88601C9.05177 14.6442 9.21074 14.71 9.32795 14.8273C9.44516 14.9445 9.51101 15.1034 9.51101 15.2692C9.51101 15.435 9.44516 15.5939 9.32795 15.7111C9.21074 15.8284 9.05177 15.8942 8.88601 15.8942Z" fill="#171723"/>
<path d="M11.3405 12.9173H10.9995C10.8338 12.9173 10.6748 12.8514 10.5576 12.7342C10.4404 12.617 10.3745 12.458 10.3745 12.2923C10.3745 12.1265 10.4404 11.9676 10.5576 11.8503C10.6748 11.7331 10.8338 11.6673 10.9995 11.6673H11.3405C11.7771 11.6673 12.1959 11.4938 12.5046 11.1851C12.8134 10.8763 12.9868 10.4576 12.9868 10.021C12.9868 9.58433 12.8134 9.16558 12.5046 8.85683C12.1959 8.54809 11.7771 8.37463 11.3405 8.37463H10.9995C10.8338 8.37463 10.6748 8.30879 10.5576 8.19158C10.4404 8.07437 10.3745 7.91539 10.3745 7.74963C10.3745 7.58387 10.4404 7.4249 10.5576 7.30769C10.6748 7.19048 10.8338 7.12463 10.9995 7.12463H11.3405C12.1086 7.12463 12.8453 7.42978 13.3885 7.97295C13.9317 8.51611 14.2368 9.25281 14.2368 10.021C14.2368 10.7891 13.9317 11.5258 13.3885 12.069C12.8453 12.6121 12.1086 12.9173 11.3405 12.9173Z" fill="#171723"/>
<path d="M11.3405 15.8942H10.9995C10.8338 15.8942 10.6748 15.8284 10.5576 15.7111C10.4404 15.5939 10.3745 15.435 10.3745 15.2692C10.3745 15.1034 10.4404 14.9445 10.5576 14.8273C10.6748 14.7101 10.8338 14.6442 10.9995 14.6442H11.3405C12.5668 14.6442 13.7428 14.1571 14.6099 13.29C15.477 12.4229 15.9641 11.2469 15.9641 10.0206C15.9641 8.79433 15.477 7.6183 14.6099 6.7512C13.7428 5.8841 12.5668 5.39697 11.3405 5.39697H10.9995C10.8338 5.39697 10.6748 5.33112 10.5576 5.21391C10.4404 5.0967 10.3745 4.93773 10.3745 4.77197C10.3745 4.60621 10.4404 4.44724 10.5576 4.33003C10.6748 4.21282 10.8338 4.14697 10.9995 4.14697H11.3405C12.1118 4.14697 12.8756 4.2989 13.5882 4.59408C14.3009 4.88925 14.9484 5.3219 15.4938 5.86732C16.0392 6.41273 16.4718 7.06023 16.767 7.77285C17.0622 8.48547 17.2141 9.24926 17.2141 10.0206C17.2141 10.7919 17.0622 11.5557 16.767 12.2683C16.4718 12.9809 16.0392 13.6284 15.4938 14.1739C14.9484 14.7193 14.3009 15.1519 13.5882 15.4471C12.8756 15.7423 12.1118 15.8942 11.3405 15.8942Z" fill="#171723"/>
</svg>
