<svg width="20" height="20" viewBox="0 0 20 20" fill="none" xmlns="http://www.w3.org/2000/svg">
<path d="M11.5174 10.3911L11.5137 10.3718C11.4996 10.2941 11.4631 10.2222 11.4087 10.165C11.4029 10.1592 11.3953 10.1575 11.3893 10.1521L10.5501 9.31291C10.4717 9.23608 10.3662 9.1933 10.2564 9.19385C10.1467 9.19441 10.0416 9.23826 9.96394 9.31587C9.88632 9.39349 9.84247 9.4986 9.84192 9.60837C9.84136 9.71813 9.88415 9.82368 9.96098 9.90208L10.1042 10.0453H8.88835C8.77784 10.0453 8.67186 10.0892 8.59372 10.1673C8.51558 10.2455 8.47168 10.3515 8.47168 10.462C8.47168 10.5725 8.51558 10.6785 8.59372 10.7566C8.67186 10.8347 8.77784 10.8786 8.88835 10.8786H10.1058L9.96099 11.0235C9.92166 11.062 9.89036 11.108 9.8689 11.1587C9.84745 11.2094 9.83625 11.2639 9.83598 11.319C9.8357 11.374 9.84634 11.4286 9.86728 11.4795C9.88823 11.5304 9.91906 11.5767 9.958 11.6157C9.99693 11.6546 10.0432 11.6854 10.0941 11.7064C10.1451 11.7273 10.1996 11.738 10.2547 11.7377C10.3098 11.7374 10.3642 11.7262 10.4149 11.7047C10.4657 11.6833 10.5116 11.652 10.5502 11.6127L11.4087 10.7541C11.4548 10.7068 11.4887 10.6492 11.5076 10.5859C11.5266 10.5227 11.5299 10.4559 11.5174 10.3911Z" fill="#171723"/>
<path d="M18.0911 7.30727C17.1134 7.70827 16.0583 7.88538 15.0033 7.8256C13.952 7.88449 12.9008 7.70739 11.9268 7.30727C12.9004 6.90572 13.9519 6.72854 15.0033 6.78886C16.0583 6.72906 17.1134 6.9062 18.0911 7.30727Z" fill="#171723"/>
<path d="M18.1923 8.23755V9.6462C18.1805 9.66414 18.1652 9.67947 18.1473 9.69125C18.0793 9.74448 18.0032 9.78633 17.9219 9.81519C17.8527 9.84703 17.7811 9.87342 17.7077 9.89409C17.6326 9.93053 17.5531 9.95704 17.4711 9.97298C17.3857 10.0114 17.2941 10.0343 17.2006 10.0406C16.4785 10.1944 15.7414 10.2663 15.0032 10.2547C13.9123 10.3298 12.8191 10.1444 11.814 9.71381V8.23755C12.848 8.54979 13.923 8.70551 15.0032 8.69955C16.0834 8.70617 17.1584 8.55043 18.1923 8.23755Z" fill="#171723"/>
<path d="M18.1923 10.6779V12.1203C17.4481 12.5195 16.6139 12.7212 15.7695 12.7064C15.2926 12.7305 14.8147 12.7267 14.3383 12.6951C14.2443 12.6961 14.1502 12.6924 14.0566 12.6838C13.9326 12.6725 13.7974 12.6613 13.6734 12.6388L13.4818 12.6162C13.0879 12.5705 12.6993 12.4875 12.3211 12.3683C12.1859 12.312 12.0618 12.2669 11.9717 12.2218C11.8816 12.1767 11.8477 12.1429 11.814 12.1316V10.6666C12.8466 10.9866 13.9221 11.1463 15.0032 11.14C15.817 11.1507 16.6296 11.0714 17.426 10.9034C17.5594 10.8824 17.6912 10.8522 17.8205 10.8132C17.9219 10.7793 18.012 10.7455 18.0909 10.7117L18.1923 10.6779Z" fill="#171723"/>
<path d="M18.1923 13.1452V14.6102C17.4481 15.0093 16.6139 15.211 15.7695 15.1962C15.2926 15.2203 14.8147 15.2165 14.3383 15.1849C14.2443 15.1861 14.1502 15.1824 14.0566 15.1737C13.9326 15.1624 13.7974 15.1511 13.6734 15.1285L13.4818 15.1173C13.0877 15.0671 12.6991 14.9803 12.3211 14.8581C12.1859 14.8018 12.0618 14.7566 11.9717 14.7116C11.9156 14.6883 11.8626 14.658 11.814 14.6214V13.1339C11.859 13.1564 11.8929 13.1677 11.9379 13.1902C12.3983 13.3468 12.8745 13.4526 13.3578 13.5057L13.5381 13.5283C13.6846 13.5396 13.8311 13.5621 13.9439 13.5621C14.0626 13.5849 14.1838 13.5925 14.3045 13.5846C14.5411 13.6072 14.7778 13.6072 15.0145 13.6072C15.2962 13.6072 15.5554 13.6072 15.8258 13.5846C16.6314 13.5502 17.4281 13.4022 18.1923 13.1452Z" fill="#171723"/>
<path d="M8.08606 5.30758C7.10845 5.7028 6.05641 5.88008 5.00327 5.82705C3.9464 5.88097 2.89049 5.70369 1.90918 5.30758C2.88885 4.90567 3.94606 4.72817 5.00327 4.78811C6.05676 4.72907 7.1101 4.90656 8.08606 5.30758Z" fill="#171723"/>
<path d="M8.18783 13.1509V14.585C7.20004 15.0703 6.10112 15.2847 5.00337 15.2061C3.90785 15.2649 2.81369 15.0677 1.80762 14.6302V13.1396C1.85276 13.1621 1.88667 13.1735 1.93178 13.1961C2.3896 13.3518 2.86284 13.4578 3.34333 13.5122L3.53528 13.5348C3.68209 13.5462 3.82889 13.5687 3.94186 13.5687C4.06079 13.5921 4.1823 13.5997 4.30323 13.5913C4.52906 13.6139 4.76618 13.6139 5.00334 13.6139C5.28565 13.6139 5.55668 13.6139 5.82767 13.5913C6.63112 13.5557 7.42559 13.4074 8.18783 13.1509Z" fill="#171723"/>
<path d="M8.18783 10.8007V12.2461C7.44198 12.646 6.60611 12.8482 5.75993 12.8333C5.28584 12.8575 4.81074 12.8537 4.33709 12.822C4.24285 12.8235 4.14861 12.8197 4.05478 12.8107C3.91928 12.7994 3.79508 12.7882 3.65958 12.7656L3.47886 12.743C3.08049 12.6971 2.68731 12.6139 2.30448 12.4946C2.16898 12.4381 2.04478 12.3929 1.95442 12.3478C1.87537 12.3026 1.83025 12.2687 1.80762 12.2574V10.7894C1.85276 10.812 1.88667 10.8233 1.93178 10.8459C2.38995 11.0004 2.86305 11.1063 3.34333 11.1621L3.53528 11.1846C3.68209 11.1959 3.82889 11.2185 3.94186 11.2185C4.06145 11.2363 4.18235 11.2438 4.30323 11.2411C4.52906 11.2636 4.76618 11.2636 5.00334 11.2636C5.28565 11.2636 5.55668 11.2636 5.82767 11.2411C6.63111 11.2054 7.42557 11.0572 8.18783 10.8007Z" fill="#171723"/>
<path d="M8.18783 8.45211V9.89757C7.4422 10.2969 6.60549 10.4954 5.75993 10.4735C5.28626 10.5074 4.81077 10.5074 4.33709 10.4735C4.24285 10.4749 4.14861 10.4712 4.05478 10.4622C3.91928 10.4509 3.79508 10.4396 3.65958 10.417L3.46756 10.3945C3.07237 10.3517 2.68263 10.2685 2.30448 10.146C2.16898 10.0896 2.04478 10.0444 1.95442 9.9992C1.90156 9.97139 1.85227 9.93727 1.80762 9.8976V8.4408C2.83866 8.76057 3.91259 8.92054 4.99207 8.91512C5.80766 8.9271 6.62203 8.84755 7.41988 8.67796C7.55841 8.65746 7.69459 8.62341 7.82646 8.5763C7.91942 8.55475 8.01016 8.52453 8.09747 8.48601C8.12826 8.47658 8.15843 8.46526 8.18783 8.45211Z" fill="#171723"/>
<path d="M8.18778 6.11755V7.55172C8.18535 7.55972 8.18098 7.567 8.17506 7.57291C8.16915 7.57883 8.16187 7.58319 8.15387 7.58563C8.0842 7.63649 8.0083 7.67822 7.92803 7.7098C7.85917 7.74287 7.78733 7.76934 7.71348 7.78885L7.47638 7.8679C7.38359 7.89562 7.28934 7.91824 7.19408 7.93565C6.47048 8.0898 5.73179 8.16178 4.99205 8.15021C3.90276 8.22163 2.81193 8.03595 1.80762 7.60815V6.11755C2.84218 6.43886 3.92008 6.59885 5.00337 6.59189C6.08293 6.59864 7.15706 6.43864 8.18778 6.11755Z" fill="#171723"/>
</svg>
