<svg width="20" height="20" viewBox="0 0 20 20" fill="none" xmlns="http://www.w3.org/2000/svg">
<path d="M18.195 8.29263L18.1959 8.28943C18.1959 8.28399 18.1921 8.27976 18.192 8.27432C18.1898 8.21657 18.1753 8.15996 18.1496 8.10821C17.934 7.32416 16.389 7.00057 14.9154 6.95737V4.79893C14.9156 4.79283 14.9187 4.78769 14.9187 4.78154C14.9187 3.2756 10.5046 3.23206 10.0017 3.23206C9.49876 3.23206 5.08468 3.2756 5.08468 4.78154C5.08468 4.78769 5.08779 4.79283 5.08794 4.79893V6.95726C3.50049 7.00337 1.8042 7.36699 1.8042 8.28943C1.8042 8.30138 1.80852 8.3199 1.81003 8.33475L1.80907 8.33948V15.1783C1.80907 15.189 1.81436 15.198 1.81517 15.2085C1.81502 15.2135 1.81232 15.2176 1.81232 15.2226C1.81232 15.7084 2.30223 15.9758 2.49022 16.0771C2.59188 16.1244 2.69689 16.1641 2.80438 16.1959C2.88378 16.2286 2.9657 16.2547 3.04933 16.274C3.43718 16.3798 3.83247 16.4562 4.23183 16.5023C4.36692 16.5202 4.5012 16.5296 4.62082 16.5373C4.80444 16.5555 4.99782 16.5576 5.18982 16.562C5.19359 16.5664 5.19466 16.5721 5.19862 16.5764L5.20554 16.5818C5.21609 16.5909 5.22709 16.5995 5.23851 16.6076C5.94082 17.3023 8.18472 17.6213 10.0058 17.6213C11.4469 17.6213 13.9704 17.3863 14.7038 16.569C14.8829 16.5665 15.0592 16.5622 15.245 16.5548L15.5583 16.5296C16.4052 16.5125 17.2295 16.2534 17.9338 15.7829C18.0434 15.6782 18.1234 15.5465 18.1658 15.401C18.1843 15.3548 18.1942 15.3057 18.1951 15.256L18.195 8.29263ZM17.2632 12.9359C17.2357 12.9453 17.2093 12.9574 17.1843 12.9721C16.7629 13.1724 16.3089 13.2951 15.8439 13.3342C15.5334 13.3731 15.2241 13.3821 14.9154 13.3927V13.2411L14.9137 13.233V11.9232C15.4961 11.9136 16.0762 11.8487 16.6463 11.7294V11.7269C16.6716 11.7214 16.6966 11.7144 16.7212 11.7062C16.8937 11.663 17.0483 11.6195 17.1785 11.576C17.2282 11.5593 17.2729 11.5422 17.3112 11.5251C17.3288 11.5199 17.3445 11.509 17.3616 11.5024V12.8491C17.3305 12.8799 17.2977 12.9089 17.2632 12.9359ZM6.82432 13.6102C6.71161 13.5817 6.60703 13.5512 6.5078 13.5195C6.47591 13.5093 6.44452 13.4992 6.41457 13.489C6.23098 13.4323 6.06185 13.3366 5.91881 13.2084V11.3594C5.95297 11.3734 5.98631 11.3874 6.02201 11.4007C6.05156 11.4125 6.08201 11.4246 6.10436 11.4331C6.10924 11.4348 6.18817 11.4657 6.19225 11.4669C6.80221 11.6621 7.43138 11.7911 8.06892 11.8518C8.16087 11.8575 8.25365 11.8685 8.40095 11.8856C8.44545 11.8912 8.48497 11.8911 8.52952 11.896C8.56482 11.8991 8.59967 11.9016 8.63502 11.9045C8.68644 11.9085 8.74392 11.9181 8.78913 11.917C8.81858 11.9192 8.85052 11.9183 8.88007 11.9203C9.2618 11.946 9.64257 11.9625 10.0058 11.9625C10.2303 11.9625 10.4822 11.9564 10.7487 11.9438C10.809 11.9414 10.8735 11.9423 10.9327 11.9393C12.0066 11.9145 13.0695 11.7168 14.0805 11.3538V13.1951C13.8769 13.4611 12.4124 13.9282 10.1971 13.9553C9.09503 13.9687 7.9948 13.8605 6.9164 13.6327C6.88566 13.6251 6.85387 13.6178 6.82432 13.6102V13.6102ZM17.3617 10.5556C17.3609 10.5614 17.3574 10.5662 17.3568 10.5721C17.356 10.564 17.356 10.5603 17.3495 10.5628C17.3199 10.5902 17.2865 10.6131 17.2502 10.6307C17.2128 10.6523 17.1753 10.6751 17.0907 10.7219C17.0302 10.7385 16.9712 10.7598 16.9141 10.7858C16.7969 10.8248 16.6578 10.8631 16.5023 10.9021C16.4852 10.9066 16.4683 10.9122 16.4519 10.9188C15.9456 11.0233 15.4307 11.0804 14.9138 11.0893V10.4273L14.9154 10.4175V9.62152C15.7492 9.62128 16.5766 9.47774 17.3617 9.19717L17.3617 10.5556ZM9.90284 11.1267C9.8648 11.1264 9.82955 11.1244 9.79187 11.124C9.49874 11.1199 9.20176 11.1082 8.90263 11.0881C8.76942 11.079 8.63423 11.0709 8.50778 11.059L8.44649 11.0519C8.40306 11.0469 8.36933 11.0447 8.32844 11.0402C7.66924 10.9806 7.01852 10.8492 6.38788 10.6482C6.21427 10.5977 6.05461 10.5079 5.92127 10.3858V8.55911C7.23903 8.98883 8.62004 9.19235 10.0057 9.16101C11.3911 9.19353 12.7712 8.98011 14.0821 8.53067V10.3639C13.8956 10.6075 12.6537 11.0206 10.7442 11.1098C10.4687 11.1211 10.1892 11.1288 9.90282 11.1267L9.90284 11.1267ZM14.0821 7.56194C14.0638 7.58108 14.0438 7.59845 14.0222 7.61382C13.9025 7.69556 13.7724 7.76089 13.6353 7.80806C13.5431 7.8467 13.4488 7.88025 13.3529 7.90857C13.1796 7.96351 12.9826 8.01107 12.7051 8.07174C11.8139 8.2346 10.9092 8.31213 10.0033 8.30326C7.59688 8.30326 6.11163 7.82871 5.92127 7.55217V5.71996C7.23835 6.1475 8.61712 6.35411 10.0017 6.33142C11.3862 6.35411 12.765 6.1475 14.0821 5.71996V7.56194ZM5.08791 10.4013L5.08547 10.4135V11.1125C4.24307 11.1279 3.40804 10.9532 2.64243 10.6015V9.20012C3.43033 9.46852 4.25563 9.61092 5.08791 9.62208V10.4013ZM2.64244 11.5175C3.42941 11.787 4.25376 11.9314 5.08547 11.9456V13.404C4.79657 13.3942 4.51622 13.3768 4.25784 13.3431C4.23993 13.3407 4.15042 13.3342 4.13252 13.3342C3.74617 13.2903 3.36593 13.2034 2.99889 13.075L2.8288 12.9945C2.70592 12.9302 2.65221 12.8797 2.6457 12.8882L2.64244 12.8748V11.5175ZM14.9154 8.78763V7.78996C15.7467 7.75904 16.573 7.93044 17.3234 8.28943C16.5726 8.64706 15.7465 8.81797 14.9154 8.78763ZM10.0017 4.06539C12.317 4.06539 13.7842 4.50362 14.0601 4.78154C13.7842 5.05987 12.3178 5.49809 10.0017 5.49809C7.68562 5.49809 6.2191 5.05945 5.94322 4.78154C6.2191 4.50362 7.68639 4.06539 10.0017 4.06539ZM5.08792 7.78996V8.78875C4.25364 8.8197 3.42407 8.65059 2.66848 8.29553C3.42088 7.92994 4.25207 7.75625 5.08792 7.78996ZM4.33677 15.6755C3.97427 15.6338 3.61545 15.5647 3.26337 15.4688C3.20533 15.4559 3.14845 15.4382 3.09329 15.4159C3.00214 15.3879 2.91181 15.3533 2.86217 15.3321C2.71487 15.2515 2.66442 15.1893 2.64488 15.2027C2.64463 15.1968 2.64137 15.192 2.64087 15.1861L2.64244 15.1783V13.8276L2.65953 13.8355C3.10013 13.998 3.55857 14.1073 4.02509 14.161C4.04299 14.163 4.13252 14.1691 4.15042 14.1691C4.44375 14.2076 4.76125 14.2271 5.08792 14.2373V15.7242C4.95557 15.7193 4.82267 15.7201 4.68916 15.7069C4.57441 15.6995 4.45803 15.6918 4.33677 15.6755ZM5.92125 16.0917V14.193C5.98137 14.2174 6.04775 14.2393 6.11239 14.2622C6.13086 14.2694 6.14317 14.278 6.16213 14.2852C6.19866 14.2975 6.24682 14.3063 6.28482 14.3182C6.46207 14.3742 6.65006 14.425 6.85087 14.4707C6.91027 14.4844 6.96617 14.4985 7.02762 14.5113C7.29602 14.5669 7.57469 14.6161 7.86608 14.6548C7.91282 14.6611 7.96252 14.6648 8.00987 14.6706C8.26251 14.7016 8.51757 14.7264 8.77505 14.745C8.87255 14.7521 8.96873 14.7584 9.06762 14.7638C9.38512 14.7816 9.7005 14.7938 10.0033 14.7938C10.2176 14.7938 10.4563 14.7886 10.7094 14.7771C10.7828 14.7744 10.8609 14.7754 10.9326 14.7718C12.0072 14.7471 13.0707 14.549 14.0821 14.1853V16.0227C13.8724 16.2967 12.3322 16.788 10.0057 16.788C8.60895 16.8703 7.21186 16.6321 5.92125 16.0917ZM15.4875 15.6991L15.1897 15.7231C15.1025 15.7266 15.011 15.7299 14.9154 15.7328V14.226C15.2587 14.215 15.6029 14.2039 15.9498 14.1606C16.4341 14.105 16.9089 13.9854 17.3617 13.8049V15.107C17.3518 15.1353 17.3455 15.1647 17.343 15.1945C16.7827 15.5301 16.1407 15.7047 15.4875 15.6991Z" fill="#171723"/>
</svg>
