<svg width="20" height="20" viewBox="0 0 20 20" fill="none" xmlns="http://www.w3.org/2000/svg">
<g clip-path="url(#clip0_5313_35114)">
<path d="M16.5282 3.47119H3.47233C3.03048 3.47176 2.60689 3.64754 2.29445 3.95998C1.98202 4.27242 1.80624 4.69601 1.80566 5.13786V12.6379C1.80624 13.0797 1.98202 13.5033 2.29445 13.8157C2.60689 14.1282 3.03048 14.304 3.47233 14.3045H9.584V15.6937H6.6665C6.55599 15.6937 6.45001 15.7376 6.37187 15.8157C6.29373 15.8939 6.24983 15.9999 6.24983 16.1104C6.24983 16.2209 6.29373 16.3268 6.37187 16.405C6.45001 16.4831 6.55599 16.527 6.6665 16.527H9.99256L10.0006 16.5287L10.0087 16.527H13.3332C13.4437 16.527 13.5497 16.4831 13.6278 16.405C13.7059 16.3268 13.7498 16.2209 13.7498 16.1104C13.7498 15.9999 13.7059 15.8939 13.6278 15.8157C13.5497 15.7376 13.4437 15.6937 13.3332 15.6937H10.4173V14.3045H16.5282C16.97 14.304 17.3936 14.1282 17.706 13.8157C18.0185 13.5033 18.1943 13.0797 18.1948 12.6379V5.13786C18.1943 4.69601 18.0185 4.27241 17.706 3.95998C17.3936 3.64754 16.97 3.47176 16.5282 3.47119ZM17.3615 12.6379C17.3613 12.8588 17.2735 13.0707 17.1172 13.227C16.961 13.3832 16.7491 13.471 16.5282 13.4712H10.0047L10.0006 13.4704L9.99663 13.4712H3.47233C3.25136 13.471 3.03949 13.3832 2.88324 13.227C2.72699 13.0707 2.63915 12.8588 2.639 12.6379V5.13786C2.63915 4.91689 2.72699 4.70502 2.88324 4.54877C3.03949 4.39252 3.25136 4.30467 3.47233 4.30452H16.5282C16.7491 4.30467 16.961 4.39252 17.1173 4.54877C17.2735 4.70502 17.3613 4.91689 17.3615 5.13786L17.3615 12.6379Z" fill="#171723"/>
</g>
<defs>
<clipPath id="clip0_5313_35114">
<rect width="20" height="20" fill="white"/>
</clipPath>
</defs>
</svg>
