<svg width="20" height="20" viewBox="0 0 20 20" fill="none" xmlns="http://www.w3.org/2000/svg">
<g clip-path="url(#clip0_10317_147443)">
<path d="M16.061 6.07282C16.4831 6.07282 16.8956 5.94768 17.2465 5.71321C17.5974 5.47875 17.8709 5.1455 18.0324 4.7556C18.1939 4.3657 18.2362 3.93666 18.1538 3.52275C18.0715 3.10883 17.8683 2.72863 17.5699 2.43021C17.2714 2.13179 16.8912 1.92857 16.4773 1.84624C16.0634 1.76391 15.6344 1.80616 15.2445 1.96766C14.8546 2.12916 14.5213 2.40266 14.2869 2.75356C14.0524 3.10446 13.9272 3.51701 13.9272 3.93903C13.9278 4.50477 14.1528 5.04717 14.5529 5.44721C14.9529 5.84725 15.4953 6.07224 16.061 6.07282ZM16.061 2.63858C16.3182 2.63858 16.5697 2.71485 16.7835 2.85775C16.9974 3.00064 17.1641 3.20375 17.2625 3.44138C17.3609 3.679 17.3867 3.94048 17.3365 4.19275C17.2863 4.44501 17.1625 4.67673 16.9806 4.8586C16.7987 5.04048 16.567 5.16433 16.3147 5.21451C16.0625 5.26469 15.801 5.23893 15.5634 5.1405C15.3257 5.04207 15.1226 4.87539 14.9797 4.66153C14.8368 4.44767 14.7606 4.19624 14.7606 3.93903C14.761 3.59426 14.8982 3.26373 15.142 3.01994C15.3857 2.77616 15.7163 2.63901 16.061 2.63858Z" fill="#171723"/>
<path d="M16.061 13.9268C15.639 13.9268 15.2265 14.052 14.8756 14.2864C14.5247 14.5209 14.2512 14.8541 14.0897 15.244C13.9282 15.6339 13.8859 16.063 13.9682 16.4769C14.0506 16.8908 14.2538 17.271 14.5522 17.5694C14.8506 17.8678 15.2308 18.0711 15.6448 18.1534C16.0587 18.2357 16.4877 18.1935 16.8776 18.032C17.2675 17.8705 17.6008 17.597 17.8352 17.2461C18.0697 16.8952 18.1948 16.4826 18.1948 16.0606C18.1943 15.4949 17.9693 14.9525 17.5692 14.5524C17.1692 14.1524 16.6268 13.9274 16.061 13.9268ZM16.061 17.3611C15.8038 17.3611 15.5524 17.2848 15.3385 17.1419C15.1247 16.999 14.958 16.7959 14.8596 16.5583C14.7611 16.3206 14.7354 16.0592 14.7856 15.8069C14.8357 15.5546 14.9596 15.3229 15.1415 15.141C15.3233 14.9592 15.5551 14.8353 15.8073 14.7851C16.0596 14.735 16.3211 14.7607 16.5587 14.8591C16.7963 14.9576 16.9994 15.1242 17.1423 15.3381C17.2852 15.552 17.3615 15.8034 17.3615 16.0606C17.3611 16.4054 17.2239 16.7359 16.9801 16.9797C16.7363 17.2235 16.4058 17.3606 16.061 17.3611Z" fill="#171723"/>
<path d="M16.061 7.86646C15.639 7.86646 15.2265 7.9916 14.8756 8.22606C14.5247 8.46053 14.2512 8.79378 14.0897 9.18368C13.9282 9.57358 13.8859 10.0026 13.9682 10.4165C14.0506 10.8304 14.2538 11.2106 14.5522 11.5091C14.8506 11.8075 15.2308 12.0107 15.6448 12.093C16.0587 12.1754 16.4877 12.1331 16.8776 11.9716C17.2675 11.8101 17.6008 11.5366 17.8352 11.1857C18.0697 10.8348 18.1948 10.4223 18.1948 10.0002C18.1943 9.43451 17.9693 8.89211 17.5692 8.49207C17.1692 8.09203 16.6268 7.86703 16.061 7.86646ZM16.061 11.3007C15.8038 11.3007 15.5524 11.2244 15.3385 11.0815C15.1247 10.9386 14.958 10.7355 14.8596 10.4979C14.7611 10.2603 14.7354 9.9988 14.7856 9.74654C14.8357 9.49428 14.9596 9.26256 15.1415 9.08068C15.3233 8.89881 15.5551 8.77495 15.8073 8.72478C16.0596 8.6746 16.3211 8.70035 16.5587 8.79878C16.7963 8.89721 16.9994 9.06389 17.1423 9.27775C17.2852 9.49161 17.3615 9.74304 17.3615 10.0002C17.3611 10.345 17.2239 10.6755 16.9801 10.9193C16.7363 11.1631 16.4058 11.3003 16.061 11.3007Z" fill="#171723"/>
<path d="M13.3131 9.94924C13.311 9.93234 13.3078 9.9156 13.3034 9.89914C13.2875 9.82979 13.2537 9.76585 13.2052 9.71375L13.2031 9.70968L12.22 8.71766C12.1817 8.67789 12.1359 8.64612 12.0853 8.62419C12.0346 8.60227 11.9801 8.59062 11.9249 8.58994C11.8697 8.58926 11.815 8.59955 11.7638 8.62022C11.7126 8.64088 11.666 8.67151 11.6268 8.71033C11.5875 8.74914 11.5564 8.79536 11.5352 8.84631C11.5139 8.89726 11.503 8.95192 11.5031 9.00712C11.5032 9.06231 11.5142 9.11695 11.5356 9.16784C11.557 9.21874 11.5882 9.26488 11.6276 9.30359L11.9075 9.58598H7.9472C7.90215 9.24886 7.80099 8.92165 7.64791 8.61792L11.9581 6.46125L11.8367 6.82557C11.802 6.93047 11.8102 7.04486 11.8597 7.14369C11.9091 7.24252 11.9956 7.31775 12.1004 7.35292C12.1429 7.36706 12.1874 7.37421 12.2322 7.37407C12.3196 7.37388 12.4048 7.3463 12.4757 7.29521C12.5467 7.24412 12.5998 7.17209 12.6277 7.08924L13.0671 5.77007C13.083 5.72065 13.0893 5.6687 13.0859 5.61692L13.0875 5.60976L13.087 5.60823C13.0796 5.53635 13.0535 5.46767 13.0112 5.40907C13.0017 5.39469 12.9911 5.38097 12.9797 5.36802C12.9339 5.31205 12.8739 5.26932 12.8061 5.24422L12.8051 5.24356L12.8046 5.24341L12.8035 5.24272L12.8023 5.24257L11.4819 4.79673C11.4299 4.77864 11.3749 4.77101 11.32 4.77431C11.265 4.7776 11.2113 4.79174 11.1618 4.81592C11.1124 4.8401 11.0682 4.87383 11.0319 4.91516C10.9956 4.9565 10.9678 5.00463 10.9502 5.05676C10.9326 5.10889 10.9254 5.164 10.9292 5.2189C10.933 5.27381 10.9476 5.32741 10.9722 5.37663C10.9969 5.42585 11.031 5.46971 11.0727 5.50566C11.1143 5.54162 11.1627 5.56897 11.215 5.58612L11.591 5.71307L7.17241 7.92389C6.75307 7.46126 6.20348 7.13644 5.59598 6.99218C4.98848 6.84793 4.35153 6.891 3.76898 7.11572C3.18643 7.34045 2.68557 7.7363 2.33234 8.25118C1.9791 8.76605 1.79004 9.37581 1.79004 10.0002C1.79004 10.6246 1.9791 11.2344 2.33234 11.7492C2.68557 12.2641 3.18643 12.66 3.76898 12.8847C4.35153 13.1094 4.98848 13.1525 5.59598 13.0082C6.20348 12.864 6.75307 12.5392 7.17241 12.0765L11.5909 14.2874L11.215 14.4143C11.1214 14.446 11.0421 14.5098 10.9913 14.5945C10.9404 14.6792 10.9213 14.7792 10.9374 14.8766C10.9534 14.9741 11.0035 15.0627 11.0788 15.1266C11.1541 15.1906 11.2497 15.2257 11.3484 15.2257C11.3938 15.2255 11.4389 15.2181 11.4819 15.2037L12.802 14.7572L12.8035 14.7569L12.8046 14.7563L12.8051 14.7561L12.806 14.7554C12.874 14.7303 12.9339 14.6875 12.9798 14.6315C12.9913 14.6184 13.002 14.6046 13.0116 14.5901C13.0536 14.5316 13.0796 14.4631 13.087 14.3914L13.0875 14.3899L13.0859 14.3828C13.0893 14.331 13.0829 14.279 13.0671 14.2296L12.6277 12.9104C12.6104 12.8585 12.583 12.8105 12.5471 12.7691C12.5113 12.7277 12.4676 12.6938 12.4186 12.6694C12.3696 12.6449 12.3163 12.6303 12.2617 12.6264C12.2071 12.6225 12.1523 12.6294 12.1003 12.6467C12.0484 12.6641 12.0004 12.6914 11.959 12.7273C11.9177 12.7632 11.8838 12.8068 11.8593 12.8558C11.8348 12.9048 11.8202 12.9581 11.8163 13.0127C11.8124 13.0673 11.8194 13.1222 11.8367 13.1741L11.9581 13.5386L7.64797 11.3825C7.80037 11.0803 7.90132 10.7547 7.94668 10.4193H11.901L11.6292 10.6911C11.5899 10.7297 11.5586 10.7756 11.5371 10.8263C11.5157 10.877 11.5045 10.9315 11.5042 10.9866C11.5039 11.0416 11.5146 11.0962 11.5355 11.1471C11.5565 11.1981 11.5873 11.2443 11.6262 11.2833C11.6652 11.3222 11.7114 11.353 11.7624 11.374C11.8133 11.3949 11.8679 11.4056 11.9229 11.4053C11.978 11.405 12.0325 11.3938 12.0832 11.3724C12.1339 11.3509 12.1798 11.3196 12.2184 11.2803L13.2015 10.2972C13.2373 10.2604 13.2659 10.2173 13.2859 10.1701L13.2918 10.1629L13.292 10.1609C13.3175 10.0934 13.3248 10.0204 13.3131 9.94924ZM4.89742 12.2585C4.45077 12.2585 4.01414 12.1261 3.64276 11.8779C3.27138 11.6298 2.98192 11.2771 2.811 10.8644C2.64007 10.4517 2.59535 9.99767 2.68248 9.5596C2.76962 9.12152 2.98471 8.71912 3.30054 8.40329C3.61637 8.08746 4.01877 7.87237 4.45684 7.78523C4.89492 7.6981 5.34899 7.74282 5.76165 7.91375C6.17431 8.08467 6.52701 8.37413 6.77516 8.74551C7.02331 9.11689 7.15576 9.55352 7.15576 10.0002C7.15505 10.5989 6.91689 11.1729 6.49352 11.5963C6.07016 12.0196 5.49615 12.2578 4.89742 12.2585Z" fill="#171723"/>
</g>
<defs>
<clipPath id="clip0_10317_147443">
<rect width="20" height="20" fill="white"/>
</clipPath>
</defs>
</svg>
