<svg width="21" height="20" viewBox="0 0 21 20" fill="none" xmlns="http://www.w3.org/2000/svg">
<g clip-path="url(#clip0_10314_145365)">
<path d="M18.3075 7.3615H13.1683V2.22233C13.1683 2.1676 13.1576 2.11341 13.1366 2.06284C13.1157 2.01228 13.085 1.96633 13.0463 1.92763C13.0076 1.88893 12.9617 1.85824 12.9111 1.83732C12.8605 1.81639 12.8064 1.80563 12.7516 1.80566H2.75163C2.6969 1.80563 2.64271 1.81639 2.59214 1.83732C2.54157 1.85824 2.49563 1.88893 2.45693 1.92763C2.41823 1.96633 2.38754 2.01228 2.36661 2.06284C2.34569 2.11341 2.33493 2.1676 2.33496 2.22233V12.2223C2.33493 12.2771 2.34569 12.3313 2.36661 12.3818C2.38754 12.4324 2.41823 12.4783 2.45693 12.517C2.49563 12.5557 2.54157 12.5864 2.59214 12.6073C2.64271 12.6283 2.6969 12.639 2.75163 12.639H7.89079V17.7782C7.89076 17.8329 7.90152 17.8871 7.92245 17.9377C7.94338 17.9882 7.97407 18.0342 8.01276 18.0729C8.05146 18.1116 8.09741 18.1422 8.14797 18.1632C8.19854 18.1841 8.25274 18.1949 8.30746 18.1948H18.3075C18.3622 18.1949 18.4164 18.1841 18.467 18.1632C18.5175 18.1423 18.5635 18.1116 18.6022 18.0729C18.6409 18.0342 18.6715 17.9882 18.6925 17.9377C18.7134 17.8871 18.7242 17.8329 18.7241 17.7782V7.77816C18.7242 7.72344 18.7134 7.66924 18.6925 7.61868C18.6715 7.56811 18.6409 7.52217 18.6022 7.48347C18.5635 7.44477 18.5175 7.41408 18.4669 7.39315C18.4164 7.37222 18.3622 7.36147 18.3075 7.3615ZM3.16829 11.8057V2.639H12.335V7.3615H8.30746C8.25274 7.36147 8.19854 7.37222 8.14797 7.39315C8.09741 7.41408 8.05146 7.44477 8.01276 7.48347C7.97407 7.52217 7.94338 7.56811 7.92245 7.61868C7.90152 7.66924 7.89076 7.72344 7.89079 7.77816V11.8057H3.16829ZM12.335 8.19483V11.8057H8.72413V8.19483H12.335ZM17.8908 17.3615H8.72413V12.639H12.7516C12.8064 12.639 12.8605 12.6283 12.9111 12.6073C12.9617 12.5864 13.0076 12.5557 13.0463 12.517C13.085 12.4783 13.1157 12.4324 13.1366 12.3818C13.1576 12.3313 13.1683 12.2771 13.1683 12.2223V8.19483H17.8908V17.3615Z" fill="#171723"/>
</g>
<defs>
<clipPath id="clip0_10314_145365">
<rect width="20" height="20" fill="white" transform="translate(0.529785)"/>
</clipPath>
</defs>
</svg>
