<svg width="20" height="20" viewBox="0 0 20 20" fill="none" xmlns="http://www.w3.org/2000/svg">
<g clip-path="url(#clip0_10277_158895)">
<path d="M9.99984 5.77775C10.7362 5.77775 11.3332 5.1808 11.3332 4.44442C11.3332 3.70804 10.7362 3.11108 9.99984 3.11108C9.26346 3.11108 8.6665 3.70804 8.6665 4.44442C8.6665 5.1808 9.26346 5.77775 9.99984 5.77775Z" fill="#171723"/>
<path d="M9.99984 11.3333C10.7362 11.3333 11.3332 10.7363 11.3332 9.99996C11.3332 9.26358 10.7362 8.66663 9.99984 8.66663C9.26346 8.66663 8.6665 9.26358 8.6665 9.99996C8.6665 10.7363 9.26346 11.3333 9.99984 11.3333Z" fill="#171723"/>
<path d="M9.99984 16.8888C10.7362 16.8888 11.3332 16.2919 11.3332 15.5555C11.3332 14.8191 10.7362 14.2222 9.99984 14.2222C9.26346 14.2222 8.6665 14.8191 8.6665 15.5555C8.6665 16.2919 9.26346 16.8888 9.99984 16.8888Z" fill="#171723"/>
</g>
<defs>
<clipPath id="clip0_10277_158895">
<rect width="20" height="20" fill="white"/>
</clipPath>
</defs>
</svg>
