<svg width="20" height="20" viewBox="0 0 20 20" fill="none" xmlns="http://www.w3.org/2000/svg">
<g clip-path="url(#clip0_5313_35042)">
<path d="M9.77221 14.1852C9.81014 14.2215 9.85457 14.2504 9.90318 14.2704L9.90651 14.2731L9.90768 14.2733C9.98414 14.3045 10.0682 14.3121 10.149 14.2953C10.2298 14.2784 10.3038 14.2378 10.3614 14.1787L13.073 11.4077C13.149 11.3284 13.1907 11.2224 13.1889 11.1126C13.1872 11.0028 13.1422 10.8982 13.0637 10.8214C12.9852 10.7446 12.8795 10.7019 12.7697 10.7026C12.6599 10.7033 12.5549 10.7472 12.4773 10.825L10.4802 12.866V2.77568C10.4802 2.66517 10.4363 2.55919 10.3582 2.48105C10.2801 2.40291 10.1741 2.35901 10.0636 2.35901C9.95307 2.35901 9.84709 2.40291 9.76895 2.48105C9.69081 2.55919 9.64691 2.66517 9.64691 2.77568V12.8971L7.51635 10.8136C7.47736 10.7748 7.43106 10.744 7.38012 10.7232C7.32919 10.7024 7.27463 10.6918 7.2196 10.6922C7.16457 10.6925 7.11015 10.7038 7.0595 10.7253C7.00884 10.7468 6.96295 10.7781 6.92446 10.8175C6.88598 10.8568 6.85568 10.9034 6.83529 10.9545C6.81491 11.0056 6.80486 11.0603 6.80571 11.1153C6.80657 11.1703 6.81832 11.2247 6.84028 11.2751C6.86224 11.3256 6.89398 11.3712 6.93367 11.4093L9.77221 14.1852Z" fill="#171723"/>
<path d="M17.7773 12.359C17.7226 12.359 17.6684 12.3697 17.6178 12.3907C17.5673 12.4116 17.5213 12.4423 17.4826 12.481C17.4439 12.5197 17.4132 12.5656 17.3923 12.6162C17.3714 12.6668 17.3606 12.7209 17.3607 12.7757V14.3073C17.3599 14.9701 17.0963 15.6055 16.6276 16.0742C16.1589 16.5429 15.5235 16.8065 14.8607 16.8073H5.139C4.47618 16.8065 3.84071 16.5429 3.37203 16.0742C2.90335 15.6055 2.63972 14.9701 2.639 14.3073V12.7757C2.639 12.6652 2.5951 12.5592 2.51696 12.481C2.43882 12.4029 2.33284 12.359 2.22233 12.359C2.11182 12.359 2.00584 12.4029 1.9277 12.481C1.84956 12.5592 1.80566 12.6652 1.80566 12.7757V14.3073C1.80655 15.191 2.15802 16.0384 2.78295 16.6633C3.40788 17.2882 4.25521 17.6397 5.139 17.6406H14.8607C15.7444 17.6397 16.5918 17.2882 17.2167 16.6633C17.8416 16.0384 18.1931 15.191 18.194 14.3073V12.7757C18.194 12.7209 18.1833 12.6668 18.1623 12.6162C18.1414 12.5656 18.1107 12.5197 18.072 12.481C18.0333 12.4423 17.9874 12.4116 17.9368 12.3907C17.8863 12.3697 17.8321 12.359 17.7773 12.359Z" fill="#171723"/>
</g>
<defs>
<clipPath id="clip0_5313_35042">
<rect width="20" height="20" fill="white"/>
</clipPath>
</defs>
</svg>
