<svg width="20" height="20" viewBox="0 0 20 20" fill="none" xmlns="http://www.w3.org/2000/svg">
<g clip-path="url(#clip0_5313_35138)">
<path d="M6.66683 5.77775C7.40321 5.77775 8.00016 5.1808 8.00016 4.44442C8.00016 3.70804 7.40321 3.11108 6.66683 3.11108C5.93045 3.11108 5.3335 3.70804 5.3335 4.44442C5.3335 5.1808 5.93045 5.77775 6.66683 5.77775Z" fill="#171723"/>
<path d="M6.66683 11.3333C7.40321 11.3333 8.00016 10.7363 8.00016 9.99996C8.00016 9.26358 7.40321 8.66663 6.66683 8.66663C5.93045 8.66663 5.3335 9.26358 5.3335 9.99996C5.3335 10.7363 5.93045 11.3333 6.66683 11.3333Z" fill="#171723"/>
<path d="M6.66683 16.8888C7.40321 16.8888 8.00016 16.2919 8.00016 15.5555C8.00016 14.8191 7.40321 14.2222 6.66683 14.2222C5.93045 14.2222 5.3335 14.8191 5.3335 15.5555C5.3335 16.2919 5.93045 16.8888 6.66683 16.8888Z" fill="#171723"/>
<path d="M13.3333 5.77775C14.0697 5.77775 14.6667 5.1808 14.6667 4.44442C14.6667 3.70804 14.0697 3.11108 13.3333 3.11108C12.597 3.11108 12 3.70804 12 4.44442C12 5.1808 12.597 5.77775 13.3333 5.77775Z" fill="#171723"/>
<path d="M13.3333 11.3333C14.0697 11.3333 14.6667 10.7363 14.6667 9.99996C14.6667 9.26358 14.0697 8.66663 13.3333 8.66663C12.597 8.66663 12 9.26358 12 9.99996C12 10.7363 12.597 11.3333 13.3333 11.3333Z" fill="#171723"/>
<path d="M13.3333 16.8888C14.0697 16.8888 14.6667 16.2919 14.6667 15.5555C14.6667 14.8191 14.0697 14.2222 13.3333 14.2222C12.597 14.2222 12 14.8191 12 15.5555C12 16.2919 12.597 16.8888 13.3333 16.8888Z" fill="#171723"/>
</g>
<defs>
<clipPath id="clip0_5313_35138">
<rect width="20" height="20" fill="white"/>
</clipPath>
</defs>
</svg>
