<svg width="20" height="20" viewBox="0 0 20 20" fill="none" xmlns="http://www.w3.org/2000/svg">
<g clip-path="url(#clip0_10314_145598)">
<path d="M17.3687 2.74198H11.0934C11.0387 2.74195 10.9845 2.75271 10.9339 2.77363C10.8834 2.79456 10.8374 2.82525 10.7987 2.86395C10.76 2.90265 10.7293 2.94859 10.7084 2.99916C10.6875 3.04973 10.6767 3.10392 10.6768 3.15865V4.02531H10.3219V3.15698C10.322 3.10225 10.3112 3.04806 10.2903 2.99749C10.2694 2.94693 10.2387 2.90098 10.2 2.86228C10.1613 2.82359 10.1153 2.79289 10.0648 2.77197C10.0142 2.75104 9.96 2.74028 9.90527 2.74031H8.64876V2.22196C8.64876 2.11146 8.60486 2.00548 8.52672 1.92734C8.44858 1.8492 8.3426 1.8053 8.23209 1.8053C8.12159 1.8053 8.01561 1.8492 7.93747 1.92734C7.85933 2.00548 7.81543 2.11146 7.81543 2.22196V2.74036H6.55892C6.50419 2.74032 6.45 2.75108 6.39943 2.77201C6.34886 2.79294 6.30292 2.82363 6.26422 2.86232C6.22552 2.90102 6.19483 2.94697 6.1739 2.99753C6.15298 3.0481 6.14222 3.1023 6.14225 3.15702V4.02536H5.53516C5.48043 4.02533 5.42624 4.03608 5.37567 4.05701C5.32511 4.07794 5.27916 4.10863 5.24046 4.14733C5.20177 4.18602 5.17108 4.23197 5.15015 4.28254C5.12922 4.3331 5.11846 4.3873 5.11849 4.44202V6.50828H2.63151C2.57678 6.50825 2.52259 6.519 2.47202 6.53993C2.42145 6.56086 2.37551 6.59155 2.33681 6.63025C2.29811 6.66895 2.26742 6.71489 2.2465 6.76546C2.22557 6.81603 2.21481 6.87022 2.21484 6.92495V17.7778C2.21481 17.8325 2.22557 17.8867 2.2465 17.9373C2.26743 17.9878 2.29812 18.0338 2.33681 18.0725C2.37551 18.1112 2.42146 18.1419 2.47202 18.1628C2.52259 18.1837 2.57678 18.1945 2.63151 18.1945H8.21175L8.22385 18.192H8.23871L8.25081 18.1945H13.8302L13.8423 18.192H17.3687C17.4234 18.192 17.4776 18.1813 17.5281 18.1604C17.5787 18.1394 17.6247 18.1087 17.6633 18.07C17.702 18.0313 17.7327 17.9854 17.7537 17.9348C17.7746 17.8843 17.7853 17.8301 17.7853 17.7753V3.15868C17.7854 3.10395 17.7746 3.04975 17.7537 2.99918C17.7327 2.94861 17.7021 2.90266 17.6634 2.86396C17.6247 2.82526 17.5787 2.79457 17.5281 2.77364C17.4776 2.75271 17.4234 2.74195 17.3687 2.74198ZM13.4136 17.3586H8.66748V10.7783H13.4136V17.3586ZM6.97558 3.57369H9.4886V4.02536H6.97558V3.57369ZM5.95183 4.85868H6.54683L6.55894 4.86112H9.90529L9.91739 4.85868H10.6768V9.94495H8.62844V9.42578H9.69371C9.80422 9.42578 9.9102 9.38188 9.98834 9.30374C10.0665 9.2256 10.1104 9.11962 10.1104 9.00911C10.1104 8.89861 10.0665 8.79263 9.98834 8.71449C9.9102 8.63635 9.80422 8.59245 9.69371 8.59245H8.62842V7.77535H9.69369C9.80419 7.77535 9.91017 7.73145 9.98831 7.65331C10.0665 7.57517 10.1104 7.46919 10.1104 7.35868C10.1104 7.24817 10.0665 7.14219 9.98831 7.06405C9.91017 6.98591 9.80419 6.94201 9.69369 6.94201H8.62842V6.92495C8.62845 6.87022 8.61769 6.81603 8.59676 6.76546C8.57584 6.71489 8.54514 6.66895 8.50645 6.63025C8.46775 6.59155 8.42181 6.56086 8.37124 6.53994C8.32067 6.51901 8.26648 6.50825 8.21175 6.50828H5.95183V4.85868ZM3.04818 7.34161H5.53114L5.53515 7.34245L5.53918 7.34161H7.79509V7.35061L7.79342 7.35871L7.79509 7.36679V9.00101L7.79342 9.0091L7.79509 9.01718V17.3587H7.05289V15.5553C7.05292 15.5006 7.04217 15.4464 7.02124 15.3958C7.00031 15.3452 6.96962 15.2993 6.93093 15.2606C6.89223 15.2219 6.84628 15.1912 6.79572 15.1703C6.74515 15.1494 6.69095 15.1386 6.63623 15.1386H4.20623C4.1515 15.1386 4.0973 15.1494 4.04674 15.1703C3.99617 15.1912 3.95023 15.2219 3.91153 15.2606C3.87283 15.2993 3.84214 15.3452 3.82121 15.3958C3.80028 15.4464 3.78953 15.5006 3.78956 15.5553V17.3611H3.04818V7.34161ZM4.62288 15.972H6.21955V17.3587H5.53516L5.52306 17.3611H4.62288V15.972ZM16.952 17.3587H14.2469V10.3616C14.2469 10.3069 14.2362 10.2527 14.2153 10.2021C14.1943 10.1516 14.1636 10.1056 14.1249 10.0669C14.0862 10.0282 14.0403 9.99753 13.9897 9.9766C13.9392 9.95567 13.885 9.94492 13.8302 9.94495H13.3747C13.4425 9.9108 13.4995 9.85862 13.5395 9.79416C13.5795 9.72969 13.601 9.65543 13.6016 9.57956V9.16289C13.6016 9.05238 13.5577 8.9464 13.4795 8.86826C13.4014 8.79012 13.2954 8.74622 13.1849 8.74622C13.0744 8.74622 12.9684 8.79012 12.8903 8.86826C12.8121 8.9464 12.7682 9.05238 12.7682 9.16289V9.57956C12.7688 9.65543 12.7902 9.72969 12.8303 9.79416C12.8703 9.85862 12.9273 9.9108 12.9951 9.94495H11.5101V3.57531H16.952L16.952 17.3587Z" fill="#171723"/>
<path d="M13.1847 5.50818C13.2395 5.50821 13.2937 5.49745 13.3442 5.47653C13.3948 5.4556 13.4407 5.42491 13.4794 5.38621C13.5181 5.34751 13.5488 5.30157 13.5697 5.251C13.5907 5.20043 13.6014 5.14624 13.6014 5.09151V4.67485C13.6014 4.56434 13.5575 4.45836 13.4794 4.38022C13.4012 4.30208 13.2952 4.25818 13.1847 4.25818C13.0742 4.25818 12.9682 4.30208 12.8901 4.38022C12.812 4.45836 12.7681 4.56434 12.7681 4.67485V5.09151C12.768 5.14624 12.7788 5.20043 12.7997 5.251C12.8206 5.30157 12.8513 5.34751 12.89 5.38621C12.9287 5.42491 12.9747 5.4556 13.0252 5.47653C13.0758 5.49745 13.13 5.50821 13.1847 5.50818Z" fill="#171723"/>
<path d="M15.277 5.50818C15.3317 5.50821 15.3859 5.49745 15.4365 5.47653C15.4871 5.4556 15.533 5.42491 15.5717 5.38621C15.6104 5.34751 15.6411 5.30157 15.662 5.251C15.683 5.20043 15.6937 5.14624 15.6937 5.09151V4.67485C15.6937 4.56434 15.6498 4.45836 15.5716 4.38022C15.4935 4.30208 15.3875 4.25818 15.277 4.25818C15.1665 4.25818 15.0605 4.30208 14.9824 4.38022C14.9042 4.45836 14.8604 4.56434 14.8604 4.67485V5.09151C14.8603 5.14624 14.8711 5.20043 14.892 5.251C14.9129 5.30157 14.9436 5.34751 14.9823 5.38621C15.021 5.42491 15.067 5.4556 15.1175 5.47652C15.1681 5.49745 15.2223 5.50821 15.277 5.50818Z" fill="#171723"/>
<path d="M13.1847 7.72741C13.2395 7.72745 13.2937 7.71669 13.3442 7.69576C13.3948 7.67483 13.4407 7.64414 13.4794 7.60545C13.5181 7.56675 13.5488 7.5208 13.5697 7.47024C13.5907 7.41967 13.6014 7.36547 13.6014 7.31075V6.9185C13.6014 6.80799 13.5575 6.70201 13.4794 6.62387C13.4012 6.54573 13.2952 6.50183 13.1847 6.50183C13.0742 6.50183 12.9682 6.54573 12.8901 6.62387C12.812 6.70201 12.7681 6.80799 12.7681 6.9185V7.31075C12.768 7.36547 12.7788 7.41967 12.7997 7.47024C12.8206 7.5208 12.8513 7.56675 12.89 7.60545C12.9287 7.64414 12.9747 7.67483 13.0252 7.69576C13.0758 7.71669 13.13 7.72745 13.1847 7.72741Z" fill="#171723"/>
<path d="M15.277 7.72741C15.3317 7.72745 15.3859 7.71669 15.4365 7.69576C15.4871 7.67483 15.533 7.64414 15.5717 7.60545C15.6104 7.56675 15.6411 7.5208 15.662 7.47024C15.683 7.41967 15.6937 7.36547 15.6937 7.31075V6.9185C15.6937 6.80799 15.6498 6.70201 15.5716 6.62387C15.4935 6.54573 15.3875 6.50183 15.277 6.50183C15.1665 6.50183 15.0605 6.54573 14.9824 6.62387C14.9042 6.70201 14.8604 6.80799 14.8604 6.9185V7.31075C14.8603 7.36547 14.8711 7.41967 14.892 7.47024C14.9129 7.5208 14.9436 7.56675 14.9823 7.60544C15.021 7.64414 15.067 7.67483 15.1175 7.69576C15.1681 7.71669 15.2223 7.72744 15.277 7.72741Z" fill="#171723"/>
<path d="M4.37516 9.56006C4.42989 9.56009 4.48409 9.54933 4.53465 9.5284C4.58522 9.50748 4.63116 9.47679 4.66986 9.43809C4.70856 9.39939 4.73925 9.35344 4.76018 9.30288C4.78111 9.25231 4.79186 9.19812 4.79183 9.14339V8.75114C4.79183 8.64063 4.74793 8.53465 4.66979 8.45651C4.59165 8.37837 4.48567 8.33447 4.37516 8.33447C4.26466 8.33447 4.15868 8.37837 4.08054 8.45651C4.00239 8.53465 3.9585 8.64063 3.9585 8.75114V9.14339C3.95846 9.19812 3.96922 9.25231 3.99015 9.30288C4.01108 9.35344 4.04177 9.39939 4.08046 9.43809C4.11916 9.47679 4.16511 9.50748 4.21567 9.5284C4.26624 9.54933 4.32044 9.56009 4.37516 9.56006Z" fill="#171723"/>
<path d="M6.46745 9.56006C6.52217 9.56009 6.57637 9.54933 6.62694 9.5284C6.6775 9.50748 6.72345 9.47679 6.76215 9.43809C6.80084 9.39939 6.83153 9.35344 6.85246 9.30288C6.87339 9.25231 6.88415 9.19812 6.88412 9.14339V8.75114C6.88412 8.64063 6.84022 8.53465 6.76208 8.45651C6.68394 8.37837 6.57795 8.33447 6.46745 8.33447C6.35694 8.33447 6.25096 8.37837 6.17282 8.45651C6.09468 8.53465 6.05078 8.64063 6.05078 8.75114V9.14339C6.05075 9.19812 6.06151 9.25231 6.08244 9.30288C6.10336 9.35344 6.13405 9.39939 6.17275 9.43809C6.21145 9.47678 6.25739 9.50747 6.30796 9.5284C6.35853 9.54933 6.41272 9.56009 6.46745 9.56006Z" fill="#171723"/>
<path d="M4.37516 11.9185C4.42989 11.9185 4.48408 11.9077 4.53465 11.8868C4.58522 11.8659 4.63116 11.8352 4.66986 11.7965C4.70856 11.7578 4.73925 11.7118 4.76017 11.6613C4.7811 11.6107 4.79186 11.5565 4.79183 11.5018V11.1095C4.79183 10.999 4.74793 10.893 4.66979 10.8149C4.59165 10.7368 4.48567 10.6929 4.37516 10.6929C4.26466 10.6929 4.15868 10.7368 4.08054 10.8149C4.00239 10.893 3.9585 10.999 3.9585 11.1095V11.5018C3.95847 11.5565 3.96922 11.6107 3.99015 11.6613C4.01108 11.7118 4.04177 11.7578 4.08047 11.7965C4.11916 11.8352 4.16511 11.8659 4.21568 11.8868C4.26624 11.9077 4.32044 11.9185 4.37516 11.9185Z" fill="#171723"/>
<path d="M6.46745 11.9185C6.52217 11.9185 6.57637 11.9077 6.62694 11.8868C6.6775 11.8659 6.72345 11.8352 6.76214 11.7965C6.80084 11.7578 6.83153 11.7118 6.85246 11.6613C6.87339 11.6107 6.88415 11.5565 6.88412 11.5018V11.1095C6.88412 10.999 6.84022 10.893 6.76208 10.8149C6.68394 10.7368 6.57795 10.6929 6.46745 10.6929C6.35694 10.6929 6.25096 10.7368 6.17282 10.8149C6.09468 10.893 6.05078 10.999 6.05078 11.1095V11.5018C6.05075 11.5565 6.06151 11.6107 6.08244 11.6613C6.10336 11.7118 6.13405 11.7578 6.17275 11.7965C6.21145 11.8352 6.25739 11.8659 6.30796 11.8868C6.35853 11.9077 6.41272 11.9185 6.46745 11.9185Z" fill="#171723"/>
<path d="M4.37516 14.2769C4.42989 14.2769 4.48408 14.2661 4.53465 14.2452C4.58522 14.2243 4.63116 14.1936 4.66986 14.1549C4.70856 14.1162 4.73925 14.0702 4.76017 14.0197C4.7811 13.9691 4.79186 13.9149 4.79183 13.8602V13.4679C4.79183 13.3574 4.74793 13.2514 4.66979 13.1733C4.59165 13.0952 4.48567 13.0513 4.37516 13.0513C4.26466 13.0513 4.15868 13.0952 4.08054 13.1733C4.00239 13.2514 3.9585 13.3574 3.9585 13.4679V13.8602C3.95847 13.9149 3.96922 13.9691 3.99015 14.0197C4.01108 14.0702 4.04177 14.1162 4.08047 14.1549C4.11916 14.1936 4.16511 14.2243 4.21568 14.2452C4.26624 14.2661 4.32044 14.2769 4.37516 14.2769Z" fill="#171723"/>
<path d="M6.46745 14.2769C6.52217 14.2769 6.57637 14.2661 6.62694 14.2452C6.6775 14.2243 6.72345 14.1936 6.76214 14.1549C6.80084 14.1162 6.83153 14.0702 6.85246 14.0197C6.87339 13.9691 6.88415 13.9149 6.88412 13.8602V13.4679C6.88412 13.3574 6.84022 13.2514 6.76208 13.1733C6.68394 13.0952 6.57795 13.0513 6.46745 13.0513C6.35694 13.0513 6.25096 13.0952 6.17282 13.1733C6.09468 13.2514 6.05078 13.3574 6.05078 13.4679V13.8602C6.05075 13.9149 6.06151 13.9691 6.08244 14.0197C6.10336 14.0702 6.13405 14.1162 6.17275 14.1549C6.21145 14.1936 6.25739 14.2243 6.30796 14.2452C6.35853 14.2661 6.41272 14.2769 6.46745 14.2769Z" fill="#171723"/>
<path d="M15.277 9.99622C15.3317 9.99625 15.3859 9.98549 15.4365 9.96456C15.4871 9.94363 15.533 9.91294 15.5717 9.87425C15.6104 9.83555 15.6411 9.7896 15.662 9.73904C15.683 9.68847 15.6937 9.63428 15.6937 9.57955V9.16288C15.6937 9.05238 15.6498 8.9464 15.5716 8.86826C15.4935 8.79011 15.3875 8.74622 15.277 8.74622C15.1665 8.74622 15.0605 8.79011 14.9824 8.86826C14.9042 8.9464 14.8604 9.05238 14.8604 9.16288V9.57955C14.8603 9.63428 14.8711 9.68847 14.892 9.73904C14.9129 9.7896 14.9436 9.83555 14.9823 9.87425C15.021 9.91294 15.067 9.94363 15.1175 9.96456C15.1681 9.98549 15.2223 9.99625 15.277 9.99622Z" fill="#171723"/>
<path d="M15.277 12.2407C15.3317 12.2408 15.3859 12.23 15.4365 12.2091C15.4871 12.1881 15.533 12.1574 15.5717 12.1188C15.6104 12.0801 15.6411 12.0341 15.662 11.9835C15.683 11.933 15.6937 11.8788 15.6937 11.8241V11.4074C15.6937 11.2969 15.6498 11.1909 15.5716 11.1128C15.4935 11.0346 15.3875 10.9907 15.277 10.9907C15.1665 10.9907 15.0605 11.0346 14.9824 11.1128C14.9042 11.1909 14.8604 11.2969 14.8604 11.4074V11.8241C14.8603 11.8788 14.8711 11.933 14.892 11.9835C14.9129 12.0341 14.9436 12.0801 14.9823 12.1188C15.021 12.1574 15.067 12.1881 15.1175 12.2091C15.1681 12.23 15.2223 12.2408 15.277 12.2407Z" fill="#171723"/>
<path d="M15.277 14.4852C15.3317 14.4853 15.3859 14.4745 15.4365 14.4536C15.4871 14.4326 15.533 14.402 15.5717 14.3633C15.6104 14.3246 15.6411 14.2786 15.662 14.2281C15.683 14.1775 15.6937 14.1233 15.6937 14.0686V13.6519C15.6937 13.5414 15.6498 13.4354 15.5716 13.3573C15.4935 13.2791 15.3875 13.2352 15.277 13.2352C15.1665 13.2352 15.0605 13.2791 14.9824 13.3573C14.9042 13.4354 14.8604 13.5414 14.8604 13.6519V14.0686C14.8603 14.1233 14.8711 14.1775 14.892 14.2281C14.9129 14.2786 14.9436 14.3246 14.9823 14.3633C15.021 14.402 15.067 14.4326 15.1175 14.4536C15.1681 14.4745 15.2223 14.4853 15.277 14.4852Z" fill="#171723"/>
<path d="M15.277 16.7289C15.3317 16.7289 15.3859 16.7182 15.4365 16.6972C15.4871 16.6763 15.533 16.6456 15.5717 16.6069C15.6104 16.5682 15.6411 16.5223 15.662 16.4717C15.683 16.4211 15.6937 16.3669 15.6937 16.3122V15.8955C15.6937 15.785 15.6498 15.6791 15.5716 15.6009C15.4935 15.5228 15.3875 15.4789 15.277 15.4789C15.1665 15.4789 15.0605 15.5228 14.9824 15.6009C14.9042 15.6791 14.8604 15.785 14.8604 15.8955V16.3122C14.8603 16.3669 14.8711 16.4211 14.892 16.4717C14.9129 16.5223 14.9436 16.5682 14.9823 16.6069C15.021 16.6456 15.067 16.6763 15.1175 16.6972C15.1681 16.7182 15.2223 16.7289 15.277 16.7289Z" fill="#171723"/>
<path d="M9.85075 16.9087C9.90548 16.9087 9.95967 16.898 10.0102 16.877C10.0608 16.8561 10.1068 16.8254 10.1454 16.7867C10.1841 16.748 10.2148 16.7021 10.2358 16.6515C10.2567 16.6009 10.2674 16.5467 10.2674 16.492V11.6442C10.2674 11.5337 10.2235 11.4277 10.1454 11.3496C10.0672 11.2714 9.96126 11.2275 9.85075 11.2275C9.74024 11.2275 9.63426 11.2714 9.55612 11.3496C9.47798 11.4277 9.43408 11.5337 9.43408 11.6442V16.492C9.43405 16.5467 9.44481 16.6009 9.46574 16.6515C9.48667 16.7021 9.51736 16.748 9.55605 16.7867C9.59475 16.8254 9.64069 16.8561 9.69126 16.877C9.74183 16.898 9.79602 16.9087 9.85075 16.9087Z" fill="#171723"/>
<path d="M12.2277 16.9087C12.2824 16.9087 12.3366 16.898 12.3872 16.877C12.4378 16.8561 12.4837 16.8254 12.5224 16.7867C12.5611 16.748 12.5918 16.7021 12.6127 16.6515C12.6336 16.6009 12.6444 16.5467 12.6444 16.492V11.6442C12.6444 11.5337 12.6005 11.4277 12.5223 11.3496C12.4442 11.2714 12.3382 11.2275 12.2277 11.2275C12.1172 11.2275 12.0112 11.2714 11.9331 11.3496C11.8549 11.4277 11.811 11.5337 11.811 11.6442V16.492C11.811 16.5467 11.8218 16.6009 11.8427 16.6515C11.8636 16.7021 11.8943 16.748 11.933 16.7867C11.9717 16.8254 12.0176 16.8561 12.0682 16.877C12.1188 16.898 12.173 16.9087 12.2277 16.9087Z" fill="#171723"/>
</g>
<defs>
<clipPath id="clip0_10314_145598">
<rect width="20" height="20" fill="white"/>
</clipPath>
</defs>
</svg>
