<svg width="20" height="20" viewBox="0 0 20 20" fill="none" xmlns="http://www.w3.org/2000/svg">
<g clip-path="url(#clip0_5313_35214)">
<path d="M17.543 7.2029L13.2746 2.93451C12.8565 2.51802 12.2904 2.28418 11.7003 2.28418C11.1102 2.28418 10.5441 2.51802 10.126 2.93451L4.83547 8.23399L2.45673 10.6119C2.04241 11.0311 1.81006 11.5968 1.81006 12.1862C1.81006 12.7756 2.04241 13.3413 2.45673 13.7605L5.8934 17.1972C6.05754 17.3624 6.25283 17.4934 6.46795 17.5827C6.68307 17.672 6.91375 17.7177 7.14666 17.7172H9.44402C9.91316 17.7137 10.3625 17.5275 10.6965 17.198L12.2516 15.6518L12.2519 15.6513L12.2524 15.651L17.543 10.3515C17.9599 9.93364 18.194 9.36747 18.194 8.7772C18.194 8.18693 17.9599 7.62076 17.543 7.2029H17.543ZM16.9538 9.76231L11.9579 14.7672L5.71926 8.52858L10.7152 3.5237C10.9766 3.26263 11.3309 3.11599 11.7003 3.11599C12.0697 3.11599 12.424 3.26263 12.6854 3.5237L16.9538 7.79209C17.2144 8.05371 17.3607 8.40793 17.3607 8.7772C17.3607 9.14646 17.2144 9.50068 16.9538 9.76231H16.9538Z" fill="#171723"/>
</g>
<defs>
<clipPath id="clip0_5313_35214">
<rect width="20" height="20" fill="white"/>
</clipPath>
</defs>
</svg>
