<svg width="20" height="20" viewBox="0 0 20 20" fill="none" xmlns="http://www.w3.org/2000/svg">
<g clip-path="url(#clip0_5313_35075)">
<path d="M17.5434 7.20294L13.2742 2.93378C12.8561 2.51729 12.2901 2.28345 11.6999 2.28345C11.1098 2.28345 10.5437 2.51729 10.1256 2.93378L4.83511 8.23322L2.45637 10.612C2.04169 11.031 1.80908 11.5967 1.80908 12.1863C1.80908 12.7758 2.04169 13.3415 2.45637 13.7606L5.89303 17.1972C6.05718 17.3625 6.25246 17.4935 6.46758 17.5827C6.6827 17.672 6.91339 17.7177 7.14629 17.7172H9.44365C9.91288 17.7142 10.3624 17.5279 10.6961 17.1981L12.2513 15.6518L12.2516 15.6513L12.2521 15.651L17.5434 10.3515C17.9601 9.93356 18.1941 9.36744 18.1941 8.77725C18.1941 8.18706 17.9601 7.62094 17.5434 7.20294ZM10.1126 16.6032C9.93381 16.779 9.69437 16.8795 9.44366 16.8839H7.14631C6.8973 16.8829 6.65873 16.7838 6.48224 16.6081L3.04718 13.173C2.78751 12.9107 2.64172 12.5565 2.64142 12.1874C2.64112 11.8183 2.78634 11.4639 3.04559 11.2012L5.12976 9.11698L8.24433 12.232L11.3676 15.3556L10.1126 16.6032ZM16.9543 9.76234L11.9575 14.7672L8.8382 11.6476L5.71892 8.52782L10.7149 3.52294C10.9762 3.26186 11.3305 3.11522 11.7 3.11522C12.0694 3.11522 12.4237 3.26186 12.6851 3.52294L16.9542 7.7921C17.215 8.05366 17.3614 8.40791 17.3614 8.77722C17.3614 9.14653 17.215 9.50079 16.9543 9.76235L16.9543 9.76234Z" fill="#171723"/>
</g>
<defs>
<clipPath id="clip0_5313_35075">
<rect width="20" height="20" fill="white"/>
</clipPath>
</defs>
</svg>
