<svg width="20" height="20" viewBox="0 0 20 20" fill="none" xmlns="http://www.w3.org/2000/svg">
<path d="M9.99984 2.91663C8.59889 2.91663 7.2294 3.33206 6.06455 4.11038C4.8997 4.88871 3.99181 5.99497 3.45569 7.28928C2.91957 8.58359 2.7793 10.0078 3.05261 11.3818C3.32592 12.7559 4.00055 14.018 4.99117 15.0086C5.98179 15.9993 7.24392 16.6739 8.61795 16.9472C9.99198 17.2205 11.4162 17.0802 12.7105 16.5441C14.0048 16.008 15.1111 15.1001 15.8894 13.9352C16.6677 12.7704 17.0832 11.4009 17.0832 9.99996C17.0819 8.12173 16.3352 6.32079 15.0071 4.99268C13.679 3.66457 11.8781 2.91788 9.99984 2.91663ZM9.99984 13.3333C9.83502 13.3333 9.67391 13.2844 9.53686 13.1929C9.39982 13.1013 9.29301 12.9711 9.22994 12.8189C9.16687 12.6666 9.15036 12.499 9.18252 12.3374C9.21467 12.1757 9.29404 12.0272 9.41058 11.9107C9.52713 11.7942 9.67561 11.7148 9.83727 11.6826C9.99892 11.6505 10.1665 11.667 10.3187 11.7301C10.471 11.7931 10.6012 11.8999 10.6927 12.037C10.7843 12.174 10.8332 12.3351 10.8332 12.5C10.8325 12.7208 10.7445 12.9324 10.5884 13.0885C10.4322 13.2446 10.2207 13.3327 9.99984 13.3333ZM9.99984 6.43329C10.0957 6.4336 10.1905 6.45283 10.2789 6.48989C10.3672 6.52696 10.4474 6.58111 10.5148 6.64926C10.5822 6.7174 10.6354 6.79819 10.6715 6.88697C10.7076 6.97576 10.7257 7.0708 10.7249 7.16663V10.075C10.7249 10.2683 10.6481 10.4538 10.5114 10.5906C10.3746 10.7273 10.1892 10.8041 9.99577 10.8041C9.80239 10.8041 9.61692 10.7273 9.48018 10.5906C9.34343 10.4538 9.26661 10.2683 9.26661 10.075V7.16663C9.26686 6.97223 9.3442 6.78587 9.48164 6.6484C9.61909 6.51093 9.80544 6.43358 9.99984 6.43329Z" fill="#171723"/>
</svg>
