<svg width="20" height="20" viewBox="0 0 20 20" fill="none" xmlns="http://www.w3.org/2000/svg">
<g clip-path="url(#clip0_10317_147178)">
<path d="M11.3081 18.1946H8.69172C8.42774 18.1952 8.17128 18.1066 7.96391 17.9433C7.75654 17.7799 7.61039 17.5513 7.54914 17.2945L7.20491 15.8712C7.18186 15.7771 7.14007 15.6886 7.08204 15.611C7.02401 15.5334 6.95093 15.4682 6.86717 15.4195C6.78242 15.3709 6.68875 15.3397 6.59173 15.328C6.4947 15.3163 6.39631 15.3241 6.3024 15.3512L4.9108 15.7622C4.65766 15.8378 4.38637 15.8257 4.14099 15.7278C3.8956 15.6298 3.69053 15.4518 3.55907 15.2226L2.25211 12.9618C2.11988 12.7337 2.06828 12.4678 2.10563 12.2067C2.14298 11.9457 2.2671 11.7049 2.458 11.523L3.50861 10.5212C3.57852 10.4527 3.63404 10.3708 3.67191 10.2805C3.70979 10.1902 3.72926 10.0933 3.72918 9.99536C3.7291 9.89743 3.70948 9.80051 3.67146 9.71026C3.63344 9.62002 3.5778 9.53827 3.50778 9.46981L2.458 8.4672C2.2668 8.2857 2.14245 8.04497 2.10508 7.784C2.06772 7.52303 2.11952 7.25709 2.25211 7.02922L3.55988 4.76766C3.69185 4.53939 3.89671 4.36209 4.14156 4.26424C4.3864 4.16639 4.65703 4.15367 4.90998 4.22811L6.31216 4.64071C6.40469 4.66815 6.50183 4.67645 6.59767 4.66512C6.69351 4.65379 6.78604 4.62305 6.86961 4.5748C6.95516 4.52627 7.02994 4.46084 7.08939 4.38249C7.14885 4.30414 7.19174 4.21451 7.21545 4.11906L7.55728 2.70468C7.61919 2.44816 7.76565 2.21995 7.97307 2.05682C8.18049 1.89369 8.43679 1.80513 8.70067 1.80542H11.3081C11.5718 1.80502 11.8279 1.89344 12.0352 2.05644C12.2425 2.21944 12.3889 2.44751 12.4507 2.70386L12.7949 4.1215C12.8176 4.21513 12.859 4.30319 12.9166 4.38039C12.9742 4.45759 13.0469 4.52234 13.1302 4.57072C13.216 4.62295 13.3118 4.65685 13.4113 4.6703C13.5109 4.68375 13.6122 4.67644 13.7088 4.64885L15.0971 4.2387C15.3504 4.16265 15.6219 4.17468 15.8674 4.27282C16.1129 4.37096 16.3179 4.54941 16.4489 4.77905L17.7493 7.0398C17.8811 7.26766 17.9324 7.53324 17.8949 7.79379C17.8574 8.05434 17.7333 8.29469 17.5427 8.47616L16.4912 9.47876C16.4214 9.54727 16.3659 9.62901 16.328 9.7192C16.2901 9.8094 16.2706 9.90625 16.2706 10.0041C16.2706 10.1019 16.2901 10.1987 16.328 10.2889C16.3659 10.3791 16.4214 10.4609 16.4912 10.5294L16.492 10.5302L17.5418 11.5328C17.733 11.7145 17.8573 11.9554 17.8945 12.2165C17.9318 12.4777 17.8797 12.7437 17.7469 12.9716L16.4399 15.2323C16.3085 15.4614 16.1036 15.6394 15.8584 15.7373C15.6131 15.8353 15.342 15.8474 15.089 15.7719L13.6909 15.3601C13.5981 15.3328 13.5007 15.3247 13.4046 15.3362C13.3086 15.3477 13.2158 15.3785 13.1321 15.4269C13.0483 15.4753 12.9752 15.5402 12.9173 15.6177C12.8593 15.6952 12.8177 15.7836 12.7949 15.8777L12.4515 17.2953C12.3896 17.5519 12.2431 17.7801 12.0357 17.9432C11.8283 18.1063 11.572 18.1949 11.3081 18.1946ZM6.50422 14.4885C6.85269 14.4886 7.19105 14.6057 7.46506 14.821C7.73908 15.0362 7.9329 15.3373 8.01545 15.6758L8.35969 17.0992C8.37724 17.174 8.41963 17.2406 8.47994 17.2882C8.54024 17.3358 8.6149 17.3615 8.69172 17.3612H11.3081C11.385 17.3612 11.4597 17.3353 11.5202 17.2878C11.5807 17.2403 11.6235 17.1739 11.6418 17.0992L11.9844 15.6815C12.0339 15.4778 12.1243 15.2863 12.25 15.1185C12.3757 14.9507 12.5342 14.8102 12.7158 14.7054C12.8974 14.6006 13.0984 14.5338 13.3065 14.509C13.5147 14.4841 13.7258 14.5018 13.9269 14.5609L15.325 14.9727C15.3989 14.9942 15.4778 14.9903 15.5492 14.9617C15.6206 14.9331 15.6803 14.8814 15.7189 14.8148L17.0259 12.5541C17.0645 12.4877 17.0796 12.4101 17.0687 12.3341C17.0578 12.258 17.0215 12.1878 16.9657 12.135L15.9159 11.1324C15.7645 10.9861 15.6441 10.8109 15.5619 10.6171C15.4797 10.4233 15.4373 10.215 15.4373 10.0045C15.4373 9.79397 15.4797 9.58563 15.5619 9.39185C15.6441 9.19807 15.7645 9.02282 15.9159 8.87655L16.9673 7.87394C17.0227 7.82102 17.0588 7.75104 17.0697 7.6752C17.0806 7.59936 17.0658 7.52205 17.0275 7.45565L15.727 5.19491C15.6888 5.12823 15.6292 5.07643 15.5579 5.04791C15.4865 5.0194 15.4076 5.01585 15.334 5.03785L13.9448 5.448C13.743 5.50754 13.5312 5.52533 13.3223 5.50028C13.1134 5.47524 12.9118 5.40788 12.7298 5.30233C12.5454 5.19713 12.3843 5.05563 12.2562 4.88638C12.128 4.71712 12.0356 4.52364 11.9844 4.31763L11.6409 2.90084C11.623 2.82612 11.5803 2.75964 11.52 2.71211C11.4596 2.66457 11.3849 2.63874 11.3081 2.63879H8.70068C8.62377 2.63884 8.54909 2.66469 8.4886 2.7122C8.42811 2.75971 8.3853 2.82613 8.36702 2.90084L8.02521 4.31519C7.97523 4.51935 7.88442 4.71128 7.75828 4.87941C7.63213 5.04754 7.47325 5.18839 7.29121 5.29348C7.10918 5.39856 6.90775 5.46571 6.69907 5.49087C6.49038 5.51603 6.27877 5.49868 6.07697 5.43986L4.67398 5.02726C4.60027 5.005 4.52118 5.00851 4.44974 5.03721C4.37829 5.06591 4.31875 5.11809 4.28091 5.18515L2.97313 7.44589C2.93464 7.51222 2.91964 7.5896 2.93057 7.66552C2.9415 7.74143 2.97771 7.81144 3.03336 7.86422L4.08397 8.86764C4.23527 9.01385 4.35561 9.189 4.43782 9.38268C4.52003 9.57635 4.56244 9.78459 4.56252 9.99499C4.5626 10.2054 4.52034 10.4137 4.43827 10.6074C4.3562 10.8011 4.236 10.9764 4.08481 11.1227L3.03336 12.1252C2.97782 12.1785 2.94178 12.2488 2.93101 12.3249C2.92023 12.4011 2.93536 12.4786 2.97395 12.5452L4.28095 14.8059C4.3194 14.8725 4.37918 14.9243 4.45064 14.9528C4.5221 14.9813 4.60107 14.9849 4.67482 14.963L6.06643 14.552C6.20856 14.5099 6.356 14.4886 6.50422 14.4885Z" fill="#171723"/>
<path d="M9.18477 12.9757C8.91988 12.9752 8.66026 12.9017 8.43444 12.7633C8.21516 12.63 8.03415 12.4422 7.90907 12.2181C7.78399 11.994 7.7191 11.7414 7.72074 11.4848V8.51684C7.7189 8.26009 7.78369 8.00725 7.90879 7.78302C8.03388 7.55879 8.215 7.37085 8.43444 7.23755C8.64686 7.10736 8.88936 7.03436 9.13836 7.02566C9.38735 7.01696 9.63435 7.07286 9.85534 7.18791L12.6451 8.74878H12.6459C12.8684 8.87361 13.0536 9.05547 13.1825 9.27564C13.3114 9.49581 13.3792 9.74635 13.3792 10.0015C13.3791 10.2566 13.311 10.5071 13.182 10.7272C13.053 10.9472 12.8676 11.129 12.6451 11.2537L9.87894 12.8007C9.66498 12.914 9.42686 12.974 9.18477 12.9757ZM9.19291 7.85767C9.07825 7.8577 8.96585 7.88954 8.8682 7.94962C8.77116 8.00883 8.69117 8.09224 8.6361 8.19168C8.58102 8.29112 8.55274 8.40317 8.55403 8.51684V11.4848C8.55284 11.5984 8.58116 11.7104 8.63622 11.8099C8.69129 11.9093 8.77122 11.9927 8.8682 12.052C8.96043 12.1083 9.06585 12.1392 9.17385 12.1418C9.28185 12.1444 9.38863 12.1185 9.48343 12.0666L12.2382 10.5261C12.3314 10.4739 12.4091 10.3977 12.4632 10.3054C12.5173 10.2132 12.5458 10.1082 12.5458 10.0012C12.5458 9.89429 12.5173 9.78928 12.4632 9.69702C12.4091 9.60476 12.3314 9.52858 12.2382 9.47632L9.46066 7.92196C9.37787 7.87934 9.28603 7.85728 9.19291 7.85767Z" fill="#171723"/>
</g>
<defs>
<clipPath id="clip0_10317_147178">
<rect width="20" height="20" fill="white"/>
</clipPath>
</defs>
</svg>
