<svg width="20" height="20" viewBox="0 0 20 20" fill="none" xmlns="http://www.w3.org/2000/svg">
<g clip-path="url(#clip0_5886_36182)">
<path d="M17.7778 9.4845H5.46575L9.04567 5.98108C9.12341 5.90354 9.1674 5.79845 9.16808 5.68865C9.16876 5.57884 9.12606 5.47322 9.04928 5.39472C8.9725 5.31623 8.86784 5.27121 8.75805 5.26946C8.64827 5.26771 8.54222 5.30937 8.46298 5.38538L4.15309 9.60332C4.10186 9.65609 4.06591 9.72179 4.04908 9.79339C4.04452 9.80979 4.04107 9.82647 4.03875 9.84333C4.02632 9.91504 4.03316 9.98877 4.05858 10.057L4.05868 10.0582L4.06225 10.0626C4.08189 10.1109 4.1105 10.1549 4.14658 10.1925L8.4638 14.6082C8.50249 14.648 8.5488 14.6796 8.59997 14.7012C8.65114 14.7227 8.70613 14.7337 8.76165 14.7335C8.84366 14.7335 8.92385 14.7093 8.99217 14.6639C9.06048 14.6186 9.11389 14.554 9.14569 14.4784C9.17749 14.4028 9.18628 14.3195 9.17094 14.239C9.15561 14.1584 9.11685 14.0841 9.0595 14.0255L5.4345 10.3178H17.7778C17.8883 10.3178 17.9943 10.2739 18.0724 10.1958C18.1505 10.1177 18.1944 10.0117 18.1944 9.90117C18.1944 9.79066 18.1505 9.68468 18.0724 9.60654C17.9943 9.5284 17.8883 9.4845 17.7778 9.4845Z" fill="#171723"/>
<path d="M2.22184 5.26648C2.16712 5.26645 2.11292 5.27721 2.06235 5.29813C2.01179 5.31906 1.96584 5.34975 1.92715 5.38845C1.88845 5.42715 1.85776 5.47309 1.83683 5.52366C1.8159 5.57422 1.80515 5.62842 1.80518 5.68315V14.3168C1.80518 14.4273 1.84907 14.5333 1.92721 14.6114C2.00535 14.6895 2.11134 14.7334 2.22184 14.7334C2.33235 14.7334 2.43833 14.6895 2.51647 14.6114C2.59461 14.5333 2.63851 14.4273 2.63851 14.3168V5.68315C2.63854 5.62842 2.62779 5.57422 2.60686 5.52366C2.58593 5.47309 2.55524 5.42715 2.51654 5.38845C2.47784 5.34975 2.4319 5.31906 2.38133 5.29813C2.33076 5.2772 2.27657 5.26645 2.22184 5.26648Z" fill="#171723"/>
</g>
<defs>
<clipPath id="clip0_5886_36182">
<rect width="20" height="20" fill="white" transform="translate(20) rotate(90)"/>
</clipPath>
</defs>
</svg>
