<svg width="20" height="20" viewBox="0 0 20 20" fill="none" xmlns="http://www.w3.org/2000/svg">
<path d="M16.1125 7.35834H3.88753C3.33506 7.35854 2.80527 7.57809 2.41461 7.96875C2.02396 8.35941 1.8044 8.8892 1.8042 9.44167V16.1083C1.8044 16.6608 2.02396 17.1906 2.41462 17.5813C2.80527 17.9719 3.33506 18.1915 3.88753 18.1917H16.1125C16.6646 18.19 17.1935 17.97 17.5839 17.5797C17.9742 17.1893 18.1942 16.6604 18.1959 16.1083V9.44167C18.1942 8.88964 17.9742 8.36068 17.5839 7.97033C17.1935 7.57999 16.6646 7.35997 16.1125 7.35834ZM6.1542 11.4083C6.1542 11.2699 6.19525 11.1346 6.27217 11.0194C6.34909 10.9043 6.45841 10.8146 6.58632 10.7616C6.71423 10.7086 6.85498 10.6948 6.99076 10.7218C7.12655 10.7488 7.25128 10.8155 7.34917 10.9134C7.44707 11.0113 7.51374 11.136 7.54075 11.2718C7.56776 11.4076 7.5539 11.5483 7.50091 11.6762C7.44793 11.8041 7.35821 11.9134 7.2431 11.9904C7.12798 12.0673 6.99265 12.1083 6.8542 12.1083C6.76223 12.1085 6.67114 12.0905 6.58614 12.0554C6.50114 12.0202 6.42391 11.9687 6.35888 11.9037C6.29385 11.8386 6.24229 11.7614 6.20717 11.6764C6.17205 11.5914 6.15405 11.5003 6.1542 11.4083ZM12.8542 14.1333C12.0847 14.8662 11.0627 15.275 10 15.275C8.93735 15.275 7.91539 14.8662 7.14587 14.1333C7.10618 14.0963 7.07424 14.0518 7.0519 14.0023C7.02956 13.9528 7.01726 13.8994 7.01571 13.8452C7.01416 13.7909 7.02339 13.7369 7.04287 13.6862C7.06235 13.6355 7.0917 13.5892 7.1292 13.55C7.20567 13.4697 7.31077 13.4229 7.4216 13.4198C7.53243 13.4167 7.64 13.4575 7.72087 13.5333C8.34451 14.1004 9.15714 14.4146 10 14.4146C10.8429 14.4146 11.6556 14.1004 12.2792 13.5333C12.3186 13.4956 12.365 13.4659 12.4159 13.4461C12.4667 13.4263 12.521 13.4167 12.5755 13.4179C12.6301 13.419 12.6839 13.4309 12.7339 13.4529C12.7838 13.4748 12.829 13.5064 12.8667 13.5458C12.9045 13.5852 12.9341 13.6317 12.9539 13.6825C12.9737 13.7333 12.9833 13.7876 12.9822 13.8422C12.981 13.8967 12.9691 13.9505 12.9472 14.0005C12.9252 14.0504 12.8937 14.0956 12.8543 14.1333H12.8542ZM13.1459 12.1083C13.0074 12.1083 12.8721 12.0673 12.757 11.9903C12.6419 11.9134 12.5522 11.8041 12.4992 11.6762C12.4462 11.5483 12.4324 11.4075 12.4594 11.2717C12.4864 11.1359 12.5531 11.0112 12.651 10.9133C12.7489 10.8154 12.8736 10.7488 13.0094 10.7218C13.1452 10.6948 13.2859 10.7086 13.4138 10.7616C13.5417 10.8146 13.6511 10.9043 13.728 11.0194C13.8049 11.1346 13.8459 11.2699 13.8459 11.4083C13.8461 11.5003 13.8281 11.5914 13.793 11.6764C13.7578 11.7614 13.7063 11.8387 13.6412 11.9037C13.5762 11.9687 13.499 12.0203 13.4139 12.0554C13.3289 12.0905 13.2378 12.1085 13.1459 12.1083Z" fill="#171723"/>
<path d="M9.9957 1.80835C9.6589 1.80786 9.3331 1.92827 9.07756 2.14769C8.82203 2.3671 8.65373 2.67094 8.60327 3.00394C8.55282 3.33695 8.62356 3.67701 8.80263 3.96227C8.9817 4.24753 9.2572 4.45904 9.57904 4.55835V4.74168C9.57936 4.85209 9.62336 4.95789 9.70143 5.03596C9.7795 5.11403 9.88529 5.15803 9.9957 5.15835C10.0506 5.15889 10.105 5.14848 10.1558 5.12774C10.2066 5.10699 10.2527 5.07632 10.2915 5.03752C10.3303 4.99872 10.361 4.95257 10.3818 4.90177C10.4025 4.85098 10.4129 4.79655 10.4124 4.74168V4.55835C10.7342 4.45908 11.0098 4.24757 11.1889 3.9623C11.368 3.67703 11.4387 3.33695 11.3883 3.00392C11.3378 2.67089 11.1695 2.36704 10.9139 2.14763C10.6584 1.92821 10.3325 1.80782 9.9957 1.80835ZM9.9957 3.79168C9.88198 3.79167 9.77082 3.75794 9.67627 3.69475C9.58171 3.63156 9.50802 3.54176 9.46451 3.43669C9.421 3.33162 9.40962 3.21601 9.43182 3.10447C9.45401 2.99294 9.50878 2.89049 9.58919 2.81008C9.66961 2.72967 9.77207 2.67491 9.88361 2.65273C9.99514 2.63055 10.1108 2.64194 10.2158 2.68546C10.3209 2.72898 10.4107 2.80268 10.4739 2.89724C10.537 2.99179 10.5708 3.10296 10.5708 3.21668C10.5705 3.3691 10.5098 3.51518 10.402 3.62295C10.2942 3.73072 10.1481 3.79139 9.9957 3.79168Z" fill="#171723"/>
<path d="M11.1089 7.23043H8.88639C8.77589 7.23043 8.66991 7.18653 8.59177 7.10839C8.51363 7.03025 8.46973 6.92427 8.46973 6.81376C8.46973 6.70325 8.51363 6.59727 8.59177 6.51913C8.66991 6.44099 8.77589 6.39709 8.88639 6.39709H11.1089C11.2194 6.39709 11.3254 6.44099 11.4035 6.51913C11.4817 6.59727 11.5256 6.70325 11.5256 6.81376C11.5256 6.92427 11.4817 7.03025 11.4035 7.10839C11.3254 7.18653 11.2194 7.23043 11.1089 7.23043Z" fill="#171723"/>
<path d="M11.1089 6.19527H8.88639C8.77589 6.19527 8.66991 6.15137 8.59177 6.07323C8.51363 5.99509 8.46973 5.88911 8.46973 5.77861C8.46973 5.6681 8.51363 5.56212 8.59177 5.48398C8.66991 5.40584 8.77589 5.36194 8.88639 5.36194H11.1089C11.2194 5.36194 11.3254 5.40584 11.4035 5.48398C11.4817 5.56212 11.5256 5.6681 11.5256 5.77861C11.5256 5.88911 11.4817 5.99509 11.4035 6.07323C11.3254 6.15137 11.2194 6.19527 11.1089 6.19527Z" fill="#171723"/>
</svg>
