<svg width="20" height="20" viewBox="0 0 20 20" fill="none" xmlns="http://www.w3.org/2000/svg">
<g clip-path="url(#clip0_5313_35086)">
<path d="M16.8766 5.33256C16.874 5.3077 16.8691 5.28315 16.8619 5.25922C16.8298 4.66465 16.5805 4.10255 16.1613 3.67969L15.0098 2.52576C14.5493 2.06586 13.9255 1.80692 13.2748 1.80554H5.57292C4.92329 1.80635 4.30051 2.06477 3.84115 2.52413C3.3818 2.98348 3.12337 3.60627 3.12256 4.25589V15.7444C3.12337 16.394 3.38179 17.0168 3.84115 17.4761C4.3005 17.9355 4.92329 18.1939 5.57292 18.1947H14.4263C15.0759 18.1939 15.6987 17.9355 16.158 17.4761C16.6174 17.0168 16.8758 16.394 16.8766 15.7444V5.41069C16.8766 5.39283 16.8718 5.37585 16.8715 5.35805C16.872 5.34914 16.8766 5.34162 16.8766 5.33256ZM15.5713 4.2681C15.7501 4.4502 15.8829 4.67226 15.9588 4.91589H13.7663V2.72408C14.012 2.80026 14.2361 2.93399 14.4198 3.11414L15.5713 4.2681ZM14.4263 17.3614H5.57292C5.14417 17.361 4.7331 17.1905 4.42993 16.8873C4.12677 16.5842 3.95628 16.1731 3.95589 15.7444V4.25589C3.95628 3.82715 4.12677 3.41608 4.42993 3.11291C4.7331 2.80975 5.14417 2.63926 5.57292 2.63888H12.9329V5.33256C12.9329 5.38728 12.9436 5.44148 12.9646 5.49205C12.9855 5.54261 13.0162 5.58856 13.0549 5.62725C13.0936 5.66595 13.1395 5.69664 13.1901 5.71757C13.2407 5.7385 13.2949 5.74926 13.3496 5.74923H16.0433V15.7444C16.0429 16.1731 15.8724 16.5842 15.5692 16.8873C15.2661 17.1905 14.855 17.361 14.4263 17.3614L14.4263 17.3614Z" fill="#171723"/>
<path d="M5.55583 8.19466H12.2225C12.333 8.19466 12.439 8.15076 12.5171 8.07262C12.5953 7.99448 12.6392 7.8885 12.6392 7.77799C12.6392 7.66749 12.5953 7.56151 12.5171 7.48337C12.439 7.40523 12.333 7.36133 12.2225 7.36133H5.55583C5.44532 7.36133 5.33934 7.40523 5.2612 7.48337C5.18306 7.56151 5.13916 7.66749 5.13916 7.77799C5.13916 7.8885 5.18306 7.99448 5.2612 8.07262C5.33934 8.15076 5.44532 8.19466 5.55583 8.19466Z" fill="#171723"/>
<path d="M14.4605 10.6947H5.55583C5.44532 10.6947 5.33934 10.7386 5.2612 10.8167C5.18306 10.8949 5.13916 11.0009 5.13916 11.1114C5.13916 11.2219 5.18306 11.3279 5.2612 11.406C5.33934 11.4841 5.44532 11.528 5.55583 11.528H14.4605C14.571 11.528 14.6769 11.4841 14.7551 11.406C14.8332 11.3279 14.8771 11.2219 14.8771 11.1114C14.8771 11.0009 14.8332 10.8949 14.7551 10.8167C14.6769 10.7386 14.571 10.6947 14.4605 10.6947Z" fill="#171723"/>
<path d="M14.4605 14.028H5.55583C5.44532 14.028 5.33934 14.0719 5.2612 14.15C5.18306 14.2281 5.13916 14.3341 5.13916 14.4446C5.13916 14.5551 5.18306 14.6611 5.2612 14.7392C5.33934 14.8174 5.44532 14.8613 5.55583 14.8613H14.4605C14.571 14.8613 14.6769 14.8174 14.7551 14.7392C14.8332 14.6611 14.8771 14.5551 14.8771 14.4446C14.8771 14.3341 14.8332 14.2281 14.7551 14.15C14.6769 14.0719 14.571 14.028 14.4605 14.028Z" fill="#171723"/>
</g>
<defs>
<clipPath id="clip0_5313_35086">
<rect width="20" height="20" fill="white"/>
</clipPath>
</defs>
</svg>
