<svg width="20" height="20" viewBox="0 0 20 20" fill="none" xmlns="http://www.w3.org/2000/svg">
<path d="M15.8031 4.51046C15.7499 4.47141 15.6882 4.44565 15.6231 4.43531C15.558 4.42498 15.4913 4.43037 15.4287 4.45105C13.7594 4.96532 11.96 4.85393 10.3669 4.13771C7.06364 2.7746 5.11865 3.30605 4.25358 3.74221C4.18483 3.77703 4.12708 3.83022 4.08672 3.89587C4.04635 3.96151 4.02496 4.03705 4.0249 4.11411V16.3228C4.0249 16.4333 4.0688 16.5393 4.14694 16.6174C4.22508 16.6956 4.33106 16.7395 4.44157 16.7395C4.55208 16.7395 4.65806 16.6956 4.7362 16.6174C4.81434 16.5393 4.85824 16.4333 4.85824 16.3228V11.7727C5.69329 11.4388 7.33112 11.1781 10.0487 12.2993C11.1011 12.7497 12.2324 12.9873 13.3771 12.9984C14.1606 12.9986 14.9393 12.8764 15.6851 12.6362C15.7692 12.6093 15.8426 12.5563 15.8947 12.4849C15.9467 12.4135 15.9748 12.3275 15.9748 12.2391V4.84736C15.9747 4.78165 15.9591 4.71688 15.9293 4.65833C15.8994 4.59978 15.8562 4.54912 15.8031 4.51046Z" fill="#171723"/>
</svg>
