<svg width="20" height="20" viewBox="0 0 20 20" fill="none" xmlns="http://www.w3.org/2000/svg">
<g clip-path="url(#clip0_5313_35079)">
<path d="M16.1219 17.1296H3.97265C3.42315 17.1289 2.89637 16.9103 2.50781 16.5217C2.11925 16.1331 1.90064 15.6063 1.8999 15.0568V4.94291C1.90055 4.39335 2.11913 3.86647 2.50769 3.47783C2.89626 3.08919 3.42309 2.87052 3.97265 2.86976H7.08705C7.30504 2.86926 7.52097 2.91194 7.72238 2.99533C7.92379 3.07871 8.1067 3.20115 8.26055 3.35559L9.7433 4.83915C9.8199 4.91606 9.91097 4.97705 10.0113 5.0186C10.1115 5.06016 10.2191 5.08145 10.3276 5.08125H16.1219C16.6714 5.08192 17.1982 5.30051 17.5868 5.68908C17.9754 6.07766 18.194 6.60448 18.1946 7.15401V15.0568C18.1939 15.6063 17.9753 16.1331 17.5867 16.5217C17.1982 16.9103 16.6714 17.1289 16.1219 17.1296ZM3.97265 3.70309C3.64399 3.70349 3.32891 3.83426 3.09655 4.0667C2.86419 4.29913 2.73353 4.61425 2.73324 4.94291V15.0568C2.73355 15.3855 2.86423 15.7005 3.0966 15.9329C3.32896 16.1653 3.64403 16.296 3.97265 16.2963H16.1219C16.4505 16.296 16.7656 16.1653 16.998 15.9329C17.2303 15.7005 17.361 15.3855 17.3613 15.0568V7.15401C17.361 6.82539 17.2303 6.51032 16.998 6.27796C16.7656 6.04559 16.4505 5.91491 16.1219 5.9146H10.3277C10.1097 5.91509 9.89373 5.87241 9.69232 5.78902C9.4909 5.70564 9.308 5.5832 9.15414 5.42876L7.67136 3.9452C7.59476 3.86828 7.50369 3.80729 7.4034 3.76574C7.30312 3.72419 7.1956 3.70289 7.08705 3.70309H3.97265Z" fill="#171723"/>
</g>
<defs>
<clipPath id="clip0_5313_35079">
<rect width="20" height="20" fill="white"/>
</clipPath>
</defs>
</svg>
