<svg width="20" height="20" viewBox="0 0 20 20" fill="none" xmlns="http://www.w3.org/2000/svg">
<path d="M16.0745 5.08144H10.2803C10.1718 5.08162 10.0643 5.06037 9.96401 5.01889C9.86374 4.97742 9.77265 4.91655 9.69596 4.83977L8.2124 3.35537C8.05859 3.20115 7.87579 3.0789 7.67453 2.99566C7.47326 2.91242 7.25751 2.86984 7.03971 2.87037H3.92529C3.37579 2.8711 2.84901 3.08972 2.46045 3.47828C2.07189 3.86683 1.85328 4.39362 1.85254 4.94312V15.057C1.85328 15.6065 2.07189 16.1333 2.46045 16.5219C2.849 16.9104 3.37579 17.129 3.92529 17.1298H16.0745C16.6241 17.129 17.1508 16.9104 17.5394 16.5219C17.9279 16.1333 18.1466 15.6065 18.1473 15.057V7.15422C18.1466 6.60471 17.928 6.07792 17.5394 5.68936C17.1508 5.3008 16.6241 5.08218 16.0745 5.08144Z" fill="#171723"/>
</svg>
