<svg width="20" height="20" viewBox="0 0 20 20" fill="none" xmlns="http://www.w3.org/2000/svg">
<g clip-path="url(#clip0_10314_146185)">
<path d="M14.8607 1.80566H5.139C4.25521 1.80655 3.40788 2.15802 2.78295 2.78295C2.15802 3.40788 1.80655 4.25521 1.80566 5.139V14.8615C1.80655 15.7453 2.15802 16.5926 2.78295 17.2175C3.40788 17.8425 4.25521 18.1939 5.139 18.1948H14.8607C15.7444 18.1939 16.5918 17.8425 17.2167 17.2175C17.8416 16.5926 18.1931 15.7453 18.194 14.8615V5.139C18.1931 4.25521 17.8416 3.40788 17.2167 2.78295C16.5918 2.15802 15.7444 1.80655 14.8607 1.80566V1.80566ZM17.3607 14.8615C17.3599 15.5243 17.0963 16.1598 16.6276 16.6285C16.1589 17.0971 15.5235 17.3608 14.8607 17.3615H5.139C4.47618 17.3608 3.84071 17.0971 3.37203 16.6285C2.90335 16.1598 2.63972 15.5243 2.639 14.8615V5.139C2.63972 4.47618 2.90335 3.84071 3.37203 3.37203C3.84071 2.90335 4.47618 2.63972 5.139 2.639H14.8607C15.5235 2.63972 16.1589 2.90335 16.6276 3.37203C17.0963 3.84071 17.3599 4.47618 17.3607 5.139V14.8615Z" fill="#171723"/>
<path d="M8.13949 10.8432C8.0993 10.8433 8.05963 10.8521 8.02319 10.8691C7.98676 10.8861 7.95443 10.9107 7.92844 10.9414L4.72206 14.1428V13.335C4.72206 13.2613 4.69279 13.1907 4.6407 13.1386C4.58861 13.0865 4.51795 13.0572 4.44428 13.0572C4.37061 13.0572 4.29996 13.0865 4.24786 13.1386C4.19577 13.1907 4.1665 13.2613 4.1665 13.335V14.8129C4.1665 14.821 4.17258 14.8272 4.17329 14.8352C4.17627 14.8747 4.1879 14.913 4.20737 14.9475C4.21394 14.9591 4.22143 14.9702 4.22975 14.9807C4.25473 15.015 4.28738 15.043 4.32509 15.0625C4.3628 15.0819 4.40453 15.0923 4.44697 15.0928H5.92864C6.00231 15.0928 6.07296 15.0636 6.12506 15.0115C6.17715 14.9594 6.20641 14.8887 6.20641 14.8151C6.20641 14.7414 6.17715 14.6707 6.12506 14.6186C6.07296 14.5665 6.00231 14.5373 5.92864 14.5373H5.11346L8.33589 11.3201C8.38815 11.2659 8.41733 11.1935 8.41726 11.1182C8.41723 11.0819 8.41001 11.0459 8.39601 11.0124C8.382 10.9788 8.3615 10.9484 8.33567 10.9228C8.30985 10.8973 8.27922 10.8771 8.24555 10.8634C8.21187 10.8497 8.17583 10.8428 8.13949 10.8432V10.8432Z" fill="#171723"/>
<path d="M15.0926 4.4444C15.0913 4.39511 15.0766 4.34709 15.0501 4.30555C15.0451 4.29717 15.0397 4.28909 15.0338 4.28134C15.0089 4.24632 14.9761 4.21767 14.938 4.19774C14.9 4.1778 14.8578 4.16714 14.8148 4.16663H13.3239C13.2502 4.16663 13.1796 4.19589 13.1275 4.24799C13.0754 4.30008 13.0461 4.37073 13.0461 4.4444C13.0461 4.51808 13.0754 4.58873 13.1275 4.64082C13.1796 4.69292 13.2502 4.72218 13.3239 4.72218H14.1452L10.9232 7.94375C10.897 7.96945 10.8761 8.00009 10.8618 8.0339C10.8475 8.0677 10.84 8.10401 10.8398 8.14072C10.8397 8.17743 10.8468 8.21382 10.8607 8.24777C10.8747 8.28172 10.8952 8.31257 10.9212 8.33853C10.9472 8.36448 10.978 8.38504 11.012 8.399C11.0459 8.41296 11.0823 8.42006 11.119 8.41987C11.1557 8.41969 11.192 8.41223 11.2258 8.39792C11.2596 8.38362 11.2903 8.36275 11.316 8.33653L14.537 5.11605V5.93366C14.537 6.00734 14.5663 6.07799 14.6184 6.13008C14.6704 6.18218 14.7411 6.21144 14.8148 6.21144C14.8884 6.21144 14.9591 6.18218 15.0112 6.13008C15.0633 6.07799 15.0926 6.00734 15.0926 5.93366V4.44549L15.0926 4.4444Z" fill="#171723"/>
</g>
<defs>
<clipPath id="clip0_10314_146185">
<rect width="20" height="20" fill="white"/>
</clipPath>
</defs>
</svg>
