<svg width="20" height="20" viewBox="0 0 20 20" fill="none" xmlns="http://www.w3.org/2000/svg">
<g clip-path="url(#clip0_10314_145340)">
<path d="M3.26546 17.7774C3.05911 17.7774 2.8574 17.7162 2.68583 17.6015C2.51427 17.4868 2.38055 17.3239 2.30159 17.1332C2.22262 16.9426 2.20196 16.7328 2.24221 16.5304C2.28246 16.328 2.38181 16.1421 2.52771 15.9962L11.8919 6.63287C12.0877 6.43801 12.3528 6.32876 12.6291 6.3291C12.9053 6.32944 13.1702 6.43934 13.3655 6.63468C13.5609 6.83003 13.6708 7.09488 13.6711 7.37114C13.6715 7.64741 13.5622 7.91253 13.3674 8.10836L4.00322 17.4717C3.90647 17.5688 3.79148 17.6458 3.66487 17.6982C3.53825 17.7507 3.40251 17.7776 3.26546 17.7774Z" fill="#171723"/>
<path d="M14.64 5.77691C14.5574 5.7769 14.4768 5.75241 14.4081 5.70655C14.3395 5.66068 14.286 5.5955 14.2544 5.51924C14.2228 5.44297 14.2146 5.35906 14.2307 5.2781C14.2468 5.19714 14.2865 5.12278 14.3449 5.06441L15.5555 3.85466C15.5942 3.8159 15.6402 3.78516 15.6908 3.76419C15.7415 3.74322 15.7957 3.73242 15.8506 3.73242C15.9054 3.73242 15.9596 3.74322 16.0103 3.76419C16.0609 3.78516 16.1069 3.8159 16.1457 3.85466C16.1844 3.89341 16.2151 3.93942 16.2361 3.99005C16.2571 4.04068 16.2679 4.09495 16.2679 4.14976C16.2679 4.20456 16.2571 4.25883 16.2361 4.30946C16.2151 4.3601 16.1844 4.4061 16.1457 4.44486L14.9351 5.65461C14.8964 5.69343 14.8504 5.72422 14.7997 5.74521C14.7491 5.7662 14.6948 5.77697 14.64 5.77691Z" fill="#171723"/>
<path d="M12.206 4.76843C12.1511 4.76846 12.0969 4.75768 12.0462 4.73672C11.9955 4.71575 11.9495 4.68501 11.9108 4.64625C11.872 4.60748 11.8413 4.56146 11.8203 4.51081C11.7993 4.46015 11.7885 4.40586 11.7886 4.35104V2.63995C11.7883 2.58498 11.7989 2.53051 11.8198 2.47965C11.8407 2.4288 11.8714 2.38257 11.9102 2.34361C11.9489 2.30466 11.995 2.27375 12.0458 2.25265C12.0966 2.23156 12.151 2.2207 12.206 2.2207C12.2609 2.2207 12.3154 2.23156 12.3661 2.25265C12.4169 2.27375 12.463 2.30466 12.5018 2.34361C12.5405 2.38257 12.5712 2.4288 12.5921 2.47965C12.613 2.53051 12.6236 2.58498 12.6233 2.63995V4.35104C12.6234 4.40586 12.6126 4.46015 12.5916 4.5108C12.5707 4.56146 12.5399 4.60748 12.5012 4.64625C12.4624 4.68501 12.4164 4.71575 12.3657 4.73672C12.3151 4.75768 12.2608 4.76846 12.206 4.76843Z" fill="#171723"/>
<path d="M9.77194 5.77689C9.71713 5.77696 9.66283 5.76619 9.61219 5.7452C9.56155 5.72421 9.51555 5.69343 9.47684 5.65461L8.26628 4.44486C8.22752 4.4061 8.19678 4.3601 8.17581 4.30946C8.15484 4.25883 8.14404 4.20456 8.14404 4.14976C8.14404 4.09495 8.15484 4.04068 8.17581 3.99005C8.19678 3.93942 8.22752 3.89341 8.26628 3.85466C8.34454 3.77639 8.45069 3.73242 8.56138 3.73242C8.61618 3.73242 8.67045 3.74322 8.72108 3.76419C8.77172 3.78516 8.81772 3.8159 8.85648 3.85466L10.0671 5.06441C10.1254 5.12278 10.1652 5.19714 10.1813 5.2781C10.1974 5.35906 10.1891 5.44298 10.1575 5.51924C10.1259 5.5955 10.0724 5.66069 10.0038 5.70655C9.93518 5.75241 9.85449 5.7769 9.77194 5.77691V5.77689Z" fill="#171723"/>
<path d="M15.8506 11.8558C15.7957 11.8559 15.7414 11.8451 15.6908 11.8241C15.6402 11.8031 15.5942 11.7723 15.5555 11.7335L14.3449 10.5237C14.2666 10.4455 14.2227 10.3393 14.2227 10.2286C14.2227 10.1179 14.2666 10.0118 14.3449 9.93352C14.4232 9.85525 14.5293 9.81128 14.64 9.81128C14.7507 9.81128 14.8568 9.85525 14.9351 9.93351L16.1457 11.1433C16.204 11.2017 16.2438 11.276 16.2599 11.357C16.276 11.4379 16.2677 11.5219 16.2361 11.5981C16.2045 11.6744 16.1511 11.7396 16.0824 11.7854C16.0138 11.8313 15.9331 11.8558 15.8506 11.8558Z" fill="#171723"/>
<path d="M17.3606 8.21184H15.6487C15.5938 8.21208 15.5393 8.20147 15.4884 8.1806C15.4376 8.15974 15.3914 8.12903 15.3524 8.09025C15.3134 8.05147 15.2825 8.00538 15.2614 7.95461C15.2403 7.90385 15.2295 7.84943 15.2295 7.79446C15.2295 7.73949 15.2403 7.68506 15.2614 7.6343C15.2825 7.58354 15.3134 7.53745 15.3524 7.49867C15.3914 7.45988 15.4376 7.42918 15.4884 7.40831C15.5393 7.38745 15.5938 7.37683 15.6487 7.37708H17.3606C17.4156 7.37683 17.4701 7.38745 17.5209 7.40831C17.5718 7.42918 17.618 7.45988 17.657 7.49867C17.6959 7.53745 17.7269 7.58354 17.7479 7.6343C17.769 7.68506 17.7799 7.73949 17.7799 7.79446C17.7799 7.84943 17.769 7.90385 17.7479 7.95461C17.7269 8.00538 17.6959 8.05147 17.657 8.09025C17.618 8.12903 17.5718 8.15974 17.5209 8.1806C17.4701 8.20147 17.4156 8.21208 17.3606 8.21184Z" fill="#171723"/>
</g>
<defs>
<clipPath id="clip0_10314_145340">
<rect width="20" height="20" fill="white"/>
</clipPath>
</defs>
</svg>
