<svg width="20" height="20" viewBox="0 0 20 20" fill="none" xmlns="http://www.w3.org/2000/svg">
<g clip-path="url(#clip0_6397_68706)">
<path d="M14.8615 1.80566H5.139C4.25523 1.80661 3.40793 2.1581 2.78302 2.78302C2.1581 3.40793 1.80661 4.25523 1.80566 5.139V14.8611C1.80655 15.7449 2.15802 16.5922 2.78295 17.2171C3.40788 17.8421 4.25521 18.1935 5.139 18.1944H14.8615C15.7453 18.1935 16.5926 17.8421 17.2175 17.2171C17.8425 16.5922 18.1939 15.7449 18.1948 14.8611V5.139C18.1939 4.25523 17.8424 3.40793 17.2175 2.78301C16.5926 2.15809 15.7453 1.8066 14.8615 1.80566ZM17.3615 14.8611C17.3608 15.5239 17.0971 16.1594 16.6285 16.6281C16.1598 17.0967 15.5243 17.3604 14.8615 17.3611H5.139C4.47618 17.3604 3.84071 17.0967 3.37203 16.6281C2.90335 16.1594 2.63972 15.5239 2.639 14.8611V5.139C2.63972 4.47618 2.90335 3.84071 3.37203 3.37203C3.84071 2.90335 4.47618 2.63972 5.139 2.639H14.8615C15.5243 2.63972 16.1598 2.90335 16.6285 3.37203C17.0971 3.84071 17.3608 4.47618 17.3615 5.139L17.3615 14.8611Z" fill="#171723"/>
<path d="M14.2044 4.68609C14.1803 4.62982 14.1441 4.57955 14.0984 4.53883C14.0526 4.49812 13.9985 4.46796 13.9399 4.45049C13.8194 4.41632 13.1814 4.28895 11.9159 5.09382C10.8873 4.84642 9.81469 4.84642 8.78607 5.09382C7.52142 4.28896 6.88503 4.41632 6.76296 4.45049C6.70451 4.46808 6.65062 4.49825 6.60507 4.53888C6.55952 4.57951 6.52342 4.62962 6.49928 4.68568C6.24954 5.26423 6.20419 5.91058 6.37071 6.51834C5.94582 7.04738 5.71619 7.70667 5.72047 8.3852C5.72047 10.8974 7.13731 11.6819 8.45567 11.9688C8.4402 12.0042 8.42556 12.0404 8.41253 12.0774C8.31834 12.3306 8.27841 12.6008 8.29535 12.8705V12.954C7.79735 13.0949 7.26453 13.0427 6.80333 12.8079C6.34214 12.573 5.98653 12.1728 5.80755 11.6872C5.75797 11.5886 5.67131 11.5137 5.56658 11.479C5.46185 11.4442 5.34761 11.4524 5.24891 11.5017C5.15021 11.5511 5.07511 11.6376 5.0401 11.7422C5.00508 11.8468 5.01299 11.9611 5.06211 12.0599C5.28014 12.5871 5.64783 13.0388 6.11975 13.3593C6.59167 13.6798 7.14715 13.855 7.71755 13.8633C7.91134 13.8621 8.10467 13.8441 8.29535 13.8095V14.6031C8.29572 14.8619 8.39876 15.11 8.58184 15.2929C8.76492 15.4759 9.0131 15.5787 9.27191 15.5788H11.4309C11.6896 15.5785 11.9376 15.4756 12.1205 15.2927C12.3034 15.1098 12.4063 14.8618 12.4067 14.6031L12.4058 12.9023C12.4274 12.6203 12.3891 12.337 12.2935 12.071C12.2797 12.0339 12.2659 11.9973 12.2504 11.9611C13.5687 11.6881 14.9815 10.9113 14.9815 8.371C14.9827 7.69746 14.7532 7.04383 14.3313 6.5188C14.4979 5.91116 14.4531 5.26495 14.2044 4.68609ZM11.5034 11.2343C11.4259 11.243 11.3524 11.2733 11.2912 11.3217C11.23 11.37 11.1837 11.4346 11.1574 11.508C11.1311 11.5815 11.126 11.6608 11.1425 11.737C11.1591 11.8132 11.1967 11.8832 11.2511 11.9391C11.3652 12.0573 11.4531 12.1984 11.509 12.3529C11.5669 12.5189 11.5888 12.6954 11.5733 12.8705V14.6031C11.5733 14.6408 11.5583 14.677 11.5316 14.7037C11.5049 14.7304 11.4687 14.7455 11.4309 14.7455H9.27191C9.23407 14.7455 9.19776 14.7305 9.17093 14.7038C9.14409 14.6771 9.12891 14.6409 9.12868 14.6031L9.12785 12.8412C9.11654 12.6786 9.13953 12.5155 9.19533 12.3624C9.25113 12.2093 9.33849 12.0697 9.45174 11.9525C9.50565 11.8969 9.54296 11.8273 9.5595 11.7516C9.57604 11.6759 9.57114 11.5972 9.54535 11.5241C9.51956 11.4511 9.47391 11.3866 9.41353 11.3381C9.35314 11.2896 9.28042 11.2589 9.20353 11.2494C7.82739 11.0781 6.55379 10.613 6.55379 8.38319C6.55 7.83206 6.76072 7.30107 7.14137 6.9025C7.19517 6.84585 7.23199 6.77525 7.24767 6.69872C7.26335 6.62219 7.25726 6.5428 7.23008 6.46955C7.08611 6.08601 7.06674 5.66683 7.17474 5.27164C7.64645 5.3889 8.09015 5.59872 8.48008 5.88891C8.52952 5.92228 8.58558 5.94458 8.64444 5.95427C8.70329 5.96396 8.76354 5.96082 8.82107 5.94506C9.82303 5.67406 10.879 5.67406 11.881 5.94506C11.9385 5.96088 11.9987 5.9641 12.0575 5.95447C12.1164 5.94485 12.1725 5.92262 12.2219 5.88931C12.6124 5.5994 13.0559 5.38872 13.5273 5.26917C13.6361 5.66497 13.6168 6.08507 13.4719 6.46917C13.4447 6.54247 13.4386 6.62193 13.4543 6.69852C13.47 6.77512 13.5068 6.84579 13.5606 6.9025C13.9388 7.29777 14.1493 7.824 14.1482 8.371C14.1482 10.6285 12.877 11.0813 11.5034 11.2343Z" fill="#171723"/>
</g>
<defs>
<clipPath id="clip0_6397_68706">
<rect width="20" height="20" fill="white"/>
</clipPath>
</defs>
</svg>
