<svg width="20" height="20" viewBox="0 0 20 20" fill="none" xmlns="http://www.w3.org/2000/svg">
<path fill-rule="evenodd" clip-rule="evenodd" d="M11.2079 3.40008C11.2079 3.63303 11.1363 3.86075 11.0022 4.05444C10.8681 4.24813 10.6776 4.39909 10.4546 4.48824C10.2316 4.57738 9.9863 4.6007 9.74961 4.55525C9.51292 4.5098 9.29551 4.39762 9.12487 4.2329C8.95422 4.06817 8.83801 3.85831 8.79093 3.62983C8.74385 3.40135 8.76801 3.16453 8.86035 2.9493C8.9527 2.73408 9.10909 2.55012 9.30974 2.42069C9.51039 2.29127 9.74629 2.22218 9.98762 2.22217C10.3111 2.22257 10.6213 2.3468 10.85 2.56761C11.0788 2.78843 11.2074 3.0878 11.2079 3.40008ZM12.1012 7.18414V7.48094C12.1016 7.52245 12.0934 7.5636 12.0771 7.60202C12.0608 7.64043 12.0368 7.67532 12.0064 7.70467C11.976 7.73402 11.9398 7.75723 11.9 7.77295C11.8602 7.78868 11.8176 7.7966 11.7746 7.79626H8.20043C8.15742 7.79661 8.11478 7.7887 8.07497 7.77298C8.03517 7.75726 7.99901 7.73406 7.96859 7.70471C7.93818 7.67536 7.91412 7.64046 7.89782 7.60204C7.88153 7.56362 7.87332 7.52246 7.87367 7.48094V7.09136C7.87315 6.82327 7.92747 6.55772 8.03351 6.30994C8.13955 6.06216 8.29523 5.83703 8.49161 5.64746C8.68799 5.45789 8.92121 5.30762 9.1779 5.20525C9.43458 5.10289 9.70968 5.05046 9.9874 5.05096C10.058 5.04963 10.1287 5.05271 10.1989 5.06019C10.7315 5.12534 11.2204 5.37826 11.5716 5.77033C11.9228 6.1624 12.1114 6.66594 12.1012 7.18414ZM5.12442 13.8787C5.25965 13.6862 5.33281 13.4594 5.33469 13.2268C5.33515 12.9134 5.20703 12.6126 4.97836 12.3901C4.74968 12.1676 4.43906 12.0416 4.1144 12.0396C3.87345 12.0396 3.63789 12.1085 3.43741 12.2375C3.23693 12.3665 3.08051 12.55 2.98787 12.7647C2.89523 12.9794 2.8705 13.2158 2.91682 13.444C2.96314 13.6723 3.07842 13.8822 3.24813 14.0473C3.41784 14.2124 3.6344 14.3253 3.87049 14.3718C4.10658 14.4183 4.35165 14.3963 4.57479 14.3086C4.79794 14.2208 4.98919 14.0712 5.12442 13.8787ZM6.22765 17.011V17.2986C6.22802 17.3401 6.21982 17.3812 6.20353 17.4197C6.18725 17.4581 6.1632 17.493 6.13279 17.5223C6.10239 17.5517 6.06623 17.5749 6.02643 17.5906C5.98663 17.6063 5.94399 17.6142 5.90099 17.6139H2.32655C2.28356 17.6142 2.24093 17.6063 2.20114 17.5906C2.16136 17.5749 2.12521 17.5516 2.09482 17.5223C2.06442 17.4929 2.04039 17.458 2.02411 17.4196C2.00783 17.3812 1.99964 17.3401 2.00001 17.2986V16.909C2.00164 16.6392 2.05839 16.3723 2.167 16.1236C2.27561 15.8749 2.43396 15.6494 2.63297 15.4598C2.83199 15.2703 3.06778 15.1205 3.32683 15.019C3.58588 14.9176 3.86312 14.8664 4.14268 14.8685H4.16191C4.21652 14.867 4.27115 14.8701 4.32519 14.8778C4.85931 14.9436 5.34926 15.198 5.70056 15.5919C6.05186 15.9859 6.23962 16.4914 6.22765 17.011ZM16.7215 14.0585C16.9507 13.8391 17.0821 13.542 17.088 13.2305C17.0889 12.9971 17.0182 12.7688 16.8846 12.5742C16.7511 12.3797 16.5609 12.2278 16.3379 12.1376C16.1149 12.0475 15.8692 12.0232 15.632 12.0678C15.3947 12.1124 15.1765 12.224 15.0049 12.3883C14.8332 12.5527 14.716 12.7625 14.6679 12.9911C14.6198 13.2198 14.643 13.4572 14.7347 13.6731C14.8263 13.889 14.9822 14.0739 15.1827 14.2043C15.3831 14.3347 15.6191 14.4048 15.8609 14.4057C16.1836 14.4025 16.4924 14.278 16.7215 14.0585ZM17.9796 17.0061V17.2929C17.98 17.3343 17.9718 17.3754 17.9555 17.4137C17.9393 17.4521 17.9153 17.4869 17.8849 17.5162C17.8546 17.5454 17.8185 17.5686 17.7788 17.5843C17.7391 17.6 17.6965 17.6079 17.6536 17.6075H14.0779C14.035 17.6079 13.9925 17.6 13.9528 17.5843C13.9131 17.5686 13.877 17.5454 13.8467 17.5161C13.8163 17.4869 13.7923 17.452 13.7761 17.4137C13.7598 17.3754 13.7516 17.3343 13.752 17.2929V16.9043C13.7539 16.6343 13.8111 16.3674 13.9201 16.1188C14.0292 15.8702 14.1881 15.6449 14.3876 15.4557C14.5871 15.2666 14.8234 15.1173 15.0829 15.0165C15.3423 14.9157 15.6198 14.8654 15.8995 14.8684H15.9185C15.9699 14.8672 16.0212 14.8703 16.072 14.8777C16.6059 14.9429 17.096 15.1963 17.4481 15.5892C17.8002 15.982 17.9895 16.4866 17.9796 17.0061ZM7.32622 18.1277C8.17356 18.453 9.07797 18.6175 9.98985 18.612C10.8986 18.6169 11.7997 18.4525 12.6439 18.1277C12.6986 18.1073 12.7486 18.0766 12.791 18.0374C12.8333 17.9981 12.8672 17.9512 12.8905 17.8993C12.9139 17.8473 12.9264 17.7914 12.9272 17.7348C12.928 17.6781 12.9172 17.6219 12.8953 17.5693C12.8734 17.5168 12.8409 17.469 12.7997 17.4286C12.7585 17.3883 12.7094 17.3563 12.6553 17.3344C12.6011 17.3125 12.5431 17.3013 12.4844 17.3013C12.4257 17.3013 12.3676 17.3125 12.3135 17.3344C10.8157 17.896 9.15441 17.896 7.65665 17.3344C7.60251 17.3125 7.54442 17.3013 7.48574 17.3013C7.42706 17.3013 7.36897 17.3125 7.31484 17.3344C7.26071 17.3563 7.21162 17.3883 7.17042 17.4286C7.12922 17.469 7.09673 17.5168 7.07484 17.5693C7.05295 17.6219 7.0421 17.6781 7.04291 17.7348C7.04373 17.7914 7.05619 17.8473 7.07958 17.8993C7.10297 17.9512 7.13681 17.9981 7.17915 18.0374C7.2215 18.0766 7.27149 18.1073 7.32622 18.1277ZM16.8193 11.3685C16.7086 11.3683 16.602 11.328 16.5205 11.2557C16.439 11.1834 16.3885 11.0842 16.379 10.9777C16.2868 9.95984 15.9323 8.98039 15.3477 8.12859C14.7631 7.27678 13.967 6.5797 13.032 6.10081C12.9806 6.07436 12.9351 6.03838 12.8981 5.99493C12.8611 5.95148 12.8334 5.90142 12.8165 5.84761C12.7996 5.79379 12.7939 5.73729 12.7996 5.68134C12.8054 5.62539 12.8225 5.57108 12.8501 5.52153C12.8776 5.47199 12.915 5.42817 12.9601 5.3926C13.0052 5.35703 13.0572 5.3304 13.113 5.31424C13.1688 5.29808 13.2273 5.2927 13.2853 5.29842C13.3432 5.30414 13.3994 5.32084 13.4507 5.34756C14.5156 5.89342 15.4221 6.68778 16.0877 7.6583C16.7533 8.62881 17.1568 9.74464 17.2614 10.9042C17.2665 10.9601 17.26 11.0165 17.2425 11.07C17.225 11.1235 17.1967 11.1732 17.1592 11.2162C17.1218 11.2592 17.0759 11.2946 17.0243 11.3204C16.9727 11.3463 16.9162 11.362 16.8583 11.3668C16.8453 11.3677 16.8323 11.3685 16.8193 11.3685ZM3.10901 11.3668C3.12285 11.3677 3.13668 11.3685 3.15138 11.3685C3.26155 11.3683 3.36769 11.3285 3.4491 11.2569C3.53051 11.1853 3.58136 11.0869 3.59172 10.981C3.69099 9.96529 4.04769 8.98873 4.63034 8.13749C5.213 7.28626 6.0037 6.58652 6.93272 6.09998C6.98384 6.07311 7.02898 6.03679 7.06556 5.99308C7.10214 5.94937 7.12944 5.89914 7.14591 5.84525C7.16238 5.79135 7.16769 5.73485 7.16153 5.67898C7.15538 5.62311 7.13789 5.56895 7.11006 5.5196C7.08222 5.47025 7.04459 5.42668 6.99931 5.39137C6.95404 5.35606 6.902 5.3297 6.84616 5.31381C6.79033 5.29791 6.73181 5.29278 6.67392 5.29872C6.61604 5.30466 6.55994 5.32154 6.50882 5.34841C5.45233 5.90214 4.55318 6.69822 3.89059 7.6665C3.228 8.63478 2.82232 9.74553 2.70931 10.9008C2.69848 11.0138 2.73447 11.1262 2.80939 11.2136C2.88431 11.3009 2.99204 11.356 3.10899 11.3668L3.10901 11.3668Z" fill="#171723"/>
</svg>
