<svg width="20" height="20" viewBox="0 0 20 20" fill="none" xmlns="http://www.w3.org/2000/svg">
<g clip-path="url(#clip0_10314_146455)">
<path d="M4.86475 6.394H16.9212C17.2588 6.39368 17.5824 6.25951 17.8212 6.02091C18.0599 5.78231 18.1943 5.45876 18.1948 5.12122V3.07939C18.1945 2.74172 18.0602 2.41799 17.8214 2.17922C17.5826 1.94046 17.2589 1.80615 16.9212 1.80579H3.07926C2.7416 1.80616 2.41787 1.94046 2.1791 2.17922C1.94034 2.41799 1.80603 2.74172 1.80566 3.07939V5.12122C1.8062 5.45876 1.94058 5.78231 2.17934 6.02091C2.41809 6.25951 2.74172 6.39368 3.07926 6.394H4.03141V14.2089C4.03206 14.7673 4.25416 15.3026 4.649 15.6975C5.04384 16.0923 5.57916 16.3144 6.13754 16.315H9.15511V16.9213C9.15565 17.2589 9.29003 17.5824 9.52878 17.821C9.76754 18.0596 10.0912 18.1938 10.4287 18.1941H16.9212C17.2588 18.1938 17.5824 18.0596 17.8211 17.821C18.0599 17.5824 18.1943 17.2589 18.1948 16.9213V14.8795C18.1945 14.5419 18.0602 14.2181 17.8214 13.9794C17.5826 13.7406 17.2589 13.6063 16.9212 13.6059H10.4287C10.091 13.6063 9.76732 13.7406 9.52855 13.9794C9.28979 14.2181 9.15548 14.5419 9.15511 14.8795V15.4817H6.13754C5.80012 15.4812 5.47667 15.347 5.23808 15.1084C4.99949 14.8698 4.86524 14.5463 4.86475 14.2089V10.415H9.15511V11.0213C9.15565 11.3589 9.29003 11.6824 9.52878 11.921C9.76754 12.1596 10.0912 12.2938 10.4287 12.2941H16.9212C17.2588 12.2938 17.5824 12.1596 17.8211 11.921C18.0599 11.6824 18.1943 11.3589 18.1948 11.0213V8.97945C18.1944 8.64179 18.0601 8.31806 17.8214 8.0793C17.5826 7.84054 17.2589 7.70624 16.9212 7.70587H10.4287C10.0911 7.70624 9.76733 7.84054 9.52856 8.07931C9.28979 8.31807 9.15549 8.6418 9.15512 8.97947V9.5817H4.86475V6.394ZM2.639 5.12122V3.07939C2.63922 2.96269 2.68567 2.85083 2.76819 2.76831C2.85071 2.68579 2.96256 2.63934 3.07926 2.63912H16.9212C17.0379 2.63934 17.1498 2.68579 17.2323 2.76831C17.3148 2.85083 17.3613 2.96269 17.3615 3.07939V5.12122C17.3612 5.23783 17.3148 5.34959 17.2322 5.43197C17.1497 5.51435 17.0378 5.56064 16.9212 5.56067H3.07926C2.96265 5.56063 2.85081 5.51435 2.76828 5.43197C2.68574 5.34959 2.63925 5.23783 2.639 5.12122ZM10.4287 14.4393H16.9212C17.0379 14.4395 17.1498 14.4859 17.2323 14.5684C17.3148 14.651 17.3613 14.7628 17.3615 14.8795V16.9213C17.3612 17.038 17.3147 17.1497 17.2322 17.2321C17.1497 17.3145 17.0378 17.3608 16.9212 17.3608H10.4287C10.3121 17.3608 10.2003 17.3145 10.1177 17.2321C10.0352 17.1497 9.9887 17.038 9.98845 16.9213V15.9024L9.98928 15.8984L9.98845 15.8944V14.8795C9.98866 14.7628 10.0351 14.651 10.1176 14.5684C10.2002 14.4859 10.312 14.4395 10.4287 14.4393ZM10.4287 8.53919H16.9212C17.0379 8.5394 17.1498 8.58586 17.2323 8.66838C17.3148 8.7509 17.3613 8.86275 17.3615 8.97945V11.0213C17.3612 11.1379 17.3147 11.2497 17.2322 11.332C17.1497 11.4144 17.0378 11.4607 16.9212 11.4607H10.4287C10.3121 11.4607 10.2003 11.4144 10.1177 11.332C10.0352 11.2497 9.9887 11.1379 9.98845 11.0213V10.0024L9.98928 9.99833L9.98845 9.99431V8.97945C9.98867 8.86276 10.0351 8.7509 10.1176 8.66839C10.2002 8.58587 10.312 8.53942 10.4287 8.5392V8.53919Z" fill="#171723"/>
</g>
<defs>
<clipPath id="clip0_10314_146455">
<rect width="20" height="20" fill="white"/>
</clipPath>
</defs>
</svg>
