<svg width="16" height="16" viewBox="0 0 16 16" fill="none" xmlns="http://www.w3.org/2000/svg">
<g clip-path="url(#clip0_5313_35065)">
<path d="M16.6701 5.97701H3.33024C3.21973 5.97701 3.11375 5.93311 3.03561 5.85497C2.95747 5.77683 2.91357 5.67085 2.91357 5.56034C2.91357 5.44984 2.95747 5.34386 3.03561 5.26572C3.11375 5.18758 3.21973 5.14368 3.33024 5.14368H16.6701C16.7806 5.14368 16.8866 5.18758 16.9647 5.26572C17.0429 5.34386 17.0868 5.44984 17.0868 5.56034C17.0868 5.67085 17.0429 5.77683 16.9647 5.85497C16.8866 5.93311 16.7806 5.97701 16.6701 5.97701Z" fill="#171723"/>
<path d="M16.6619 14.8564H3.33024C3.21973 14.8564 3.11375 14.8125 3.03561 14.7344C2.95747 14.6562 2.91357 14.5502 2.91357 14.4397C2.91357 14.3292 2.95747 14.2232 3.03561 14.1451C3.11375 14.067 3.21973 14.0231 3.33024 14.0231H16.6619C16.7725 14.0231 16.8784 14.067 16.9566 14.1451C17.0347 14.2232 17.0786 14.3292 17.0786 14.4397C17.0786 14.5502 17.0347 14.6562 16.9566 14.7344C16.8784 14.8125 16.7725 14.8564 16.6619 14.8564Z" fill="#171723"/>
<path d="M16.666 10.4228H3.33024C3.21973 10.4228 3.11375 10.3789 3.03561 10.3008C2.95747 10.2226 2.91357 10.1167 2.91357 10.0061C2.91357 9.89564 2.95747 9.78966 3.03561 9.71152C3.11375 9.63338 3.21973 9.58948 3.33024 9.58948H16.666C16.7765 9.58948 16.8825 9.63338 16.9606 9.71152C17.0388 9.78966 17.0827 9.89564 17.0827 10.0061C17.0827 10.1167 17.0388 10.2226 16.9606 10.3008C16.8825 10.3789 16.7765 10.4228 16.666 10.4228Z" fill="#171723"/>
</g>
<defs>
<clipPath id="clip0_5313_35065">
<rect width="16" height="16" fill="white"/>
</clipPath>
</defs>
</svg>
