<svg width="20" height="20" viewBox="0 0 20 20" fill="none" xmlns="http://www.w3.org/2000/svg">
<g clip-path="url(#clip0_5313_35066)">
<path d="M17.8541 9.00213C16.6408 7.43312 14.0065 4.80213 9.99604 4.80213C9.40969 4.79879 8.8247 4.85882 8.25125 4.98117C8.19781 4.99271 8.14717 5.01466 8.10222 5.04578C8.05727 5.07689 8.01889 5.11655 7.98927 5.16249C7.92944 5.25529 7.90893 5.36804 7.93224 5.47596C7.95555 5.58388 8.02077 5.67811 8.11356 5.73794C8.20636 5.79776 8.31911 5.81828 8.42703 5.79497C8.94279 5.68565 9.46883 5.63218 9.99604 5.63547C13.6508 5.63547 16.0751 8.06385 17.1933 9.50998C17.3008 9.64848 17.3594 9.81868 17.36 9.99401C17.3606 10.1693 17.3031 10.3399 17.1966 10.4792C16.6599 11.1707 16.0455 11.7982 15.3655 12.3493C15.2792 12.4183 15.2238 12.5189 15.2116 12.6288C15.1994 12.7386 15.2313 12.8489 15.3004 12.9352C15.3695 13.0215 15.47 13.0769 15.5799 13.0891C15.6898 13.1013 15.8 13.0694 15.8863 13.0003C16.6167 12.4086 17.2766 11.7349 17.8533 10.9927C18.0734 10.7076 18.1929 10.3577 18.1931 9.99754C18.1932 9.63739 18.074 9.28735 17.8541 9.00213Z" fill="#171723"/>
<path d="M12.2119 9.72232C12.2236 9.82389 12.2721 9.91764 12.3483 9.98576C12.4245 10.0539 12.5231 10.0916 12.6254 10.0918C12.6414 10.0918 12.6574 10.091 12.6734 10.0894C12.7832 10.0768 12.8836 10.0211 12.9524 9.93462C13.0212 9.8481 13.0529 9.73778 13.0404 9.62793C12.9631 8.94755 12.6575 8.31345 12.1735 7.82911C11.6894 7.34477 11.0555 7.03878 10.3752 6.9611C10.3209 6.95458 10.2659 6.95882 10.2132 6.97357C10.1606 6.98832 10.1113 7.0133 10.0683 7.04708C10.0253 7.08086 9.98941 7.12278 9.96262 7.17044C9.93582 7.2181 9.91867 7.27058 9.91215 7.32487C9.90563 7.37916 9.90987 7.4342 9.92462 7.48685C9.93937 7.5395 9.96435 7.58873 9.99813 7.63173C10.0319 7.67473 10.0738 7.71065 10.1215 7.73745C10.1692 7.76425 10.2216 7.7814 10.2759 7.78792C10.7698 7.84404 11.23 8.06584 11.5816 8.41715C11.9332 8.76845 12.1554 9.22852 12.2119 9.72232Z" fill="#171723"/>
<path d="M12.1769 11.5891L12.1754 11.5867L12.1729 11.585L8.4181 7.83022L8.41643 7.82777L8.41399 7.82611L4.93095 4.34307C4.85256 4.26624 4.74701 4.22345 4.63724 4.224C4.52748 4.22456 4.42236 4.26841 4.34475 4.34603C4.26713 4.42364 4.22328 4.52875 4.22273 4.63852C4.22217 4.74829 4.26496 4.85383 4.34179 4.93223L5.46531 6.05578C4.1795 6.81628 3.05206 7.81711 2.14448 9.00368C1.92542 9.28829 1.80664 9.63737 1.80664 9.99652C1.80664 10.3557 1.92542 10.7047 2.14448 10.9894C3.11046 12.2548 5.80903 15.1992 9.99604 15.1992C11.2967 15.1963 12.5804 14.9046 13.7546 14.3451L15.066 15.6565C15.1444 15.7333 15.25 15.7761 15.3597 15.7756C15.4695 15.775 15.5746 15.7312 15.6522 15.6536C15.7299 15.5759 15.7737 15.4708 15.7743 15.3611C15.7748 15.2513 15.732 15.1457 15.6552 15.0673L12.1769 11.5891ZM8.15 8.7405L11.2576 11.8481C10.9208 12.0765 10.5282 12.2089 10.1219 12.2312C9.7156 12.2534 9.3109 12.1646 8.95123 11.9743C8.59155 11.784 8.29047 11.4994 8.08027 11.151C7.87008 10.8025 7.75871 10.4035 7.7581 9.99655C7.75809 9.54777 7.89479 9.10964 8.15 8.7405ZM9.99605 14.3659C6.18095 14.3659 3.69723 11.651 2.80449 10.4799C2.6976 10.3406 2.63988 10.1697 2.64032 9.99412C2.64076 9.81848 2.69935 9.64794 2.80693 9.50912C3.69239 8.34925 4.80567 7.3827 6.07836 6.66886L7.5609 8.15137C7.15126 8.67947 6.92762 9.32815 6.92477 9.99651C6.92302 10.5684 7.08149 11.1294 7.38222 11.6159C7.68295 12.1024 8.11392 12.4949 8.6263 12.749C9.13868 13.0031 9.71199 13.1086 10.2813 13.0536C10.8505 12.9986 11.393 12.7852 11.8473 12.4377L13.1235 13.714C12.136 14.141 11.072 14.3628 9.99605 14.3659Z" fill="#171723"/>
</g>
<defs>
<clipPath id="clip0_5313_35066">
<rect width="20" height="20" fill="white"/>
</clipPath>
</defs>
</svg>
