<svg width="20" height="20" viewBox="0 0 20 20" fill="none" xmlns="http://www.w3.org/2000/svg">
<g clip-path="url(#clip0_5313_35057)">
<path d="M17.6427 9.51683C17.5135 7.49132 16.6411 5.5848 15.1928 4.16294C13.7444 2.74109 11.8221 1.904 9.7946 1.81225C7.67763 1.72316 5.6095 2.46393 4.03054 3.87687L3.38255 3.22839C3.35732 3.20313 3.32589 3.18496 3.29141 3.1757C3.25692 3.16644 3.22061 3.16643 3.18612 3.17566C3.15163 3.18488 3.12018 3.20303 3.09493 3.22827C3.06968 3.25351 3.05152 3.28496 3.04228 3.31944L2.34908 5.90389C2.34132 5.93285 2.34132 5.96333 2.34908 5.99228C2.35683 6.02123 2.37206 6.04764 2.39325 6.06884C2.41444 6.09004 2.44083 6.1053 2.46977 6.11308C2.49872 6.12085 2.5292 6.12088 2.55816 6.11314L5.143 5.42167C5.17749 5.41244 5.20895 5.39429 5.23421 5.36906C5.25946 5.34382 5.27763 5.31238 5.28688 5.27789C5.29613 5.24341 5.29615 5.20709 5.28692 5.1726C5.27769 5.13811 5.25954 5.10666 5.2343 5.0814L4.61957 4.46632C5.4664 3.72068 6.47373 3.18031 7.56331 2.8872C8.6529 2.59409 9.79538 2.55612 10.902 2.77625C12.3683 3.05427 13.7134 3.77713 14.7544 4.84654C15.7954 5.91596 16.4817 7.28003 16.7202 8.75328C16.9475 10.1241 16.7856 11.5312 16.2527 12.8146C15.7198 14.0979 14.8374 15.2059 13.7058 16.0124C12.5743 16.819 11.2391 17.2917 9.85217 17.3769C8.46522 17.462 7.08222 17.1562 5.86052 16.4941C5.25042 16.2068 4.71554 15.7814 4.29816 15.2517C4.26379 15.206 4.22037 15.1679 4.17062 15.1397C4.12086 15.1115 4.06584 15.0938 4.00896 15.0878C3.95209 15.0818 3.89459 15.0876 3.84004 15.1047C3.78549 15.1219 3.73506 15.1501 3.69188 15.1876C3.64871 15.2251 3.61373 15.2711 3.5891 15.3228C3.56448 15.3744 3.55074 15.4305 3.54875 15.4877C3.54676 15.5448 3.55655 15.6018 3.57753 15.655C3.5985 15.7082 3.6302 15.7565 3.67066 15.7969C4.84612 16.9713 6.35082 17.7606 7.98519 18.0601C9.61955 18.3597 11.3064 18.1553 12.8219 17.4741C14.3374 16.7929 15.6101 15.6671 16.471 14.2459C17.332 12.8248 17.7406 11.1755 17.6427 9.51682L17.6427 9.51683Z" fill="#494446"/>
<path d="M9.3234 5.59021C9.26868 5.59018 9.21448 5.60094 9.16392 5.62186C9.11335 5.64279 9.06741 5.67348 9.02871 5.71218C8.99001 5.75088 8.95932 5.79682 8.93839 5.84739C8.91746 5.89796 8.90671 5.95215 8.90674 6.00688V10.3062C8.90673 10.3609 8.9175 10.4151 8.93845 10.4656C8.95939 10.5162 8.9901 10.5621 9.0288 10.6008L12.3621 13.9341C12.4007 13.9735 12.4466 14.0048 12.4973 14.0262C12.5481 14.0477 12.6025 14.0589 12.6576 14.0591C12.7127 14.0594 12.7672 14.0488 12.8182 14.0278C12.8691 14.0069 12.9154 13.9761 12.9543 13.9371C12.9932 13.8982 13.0241 13.8519 13.045 13.801C13.066 13.7501 13.0766 13.6955 13.0763 13.6404C13.076 13.5854 13.0648 13.5309 13.0434 13.4802C13.0219 13.4295 12.9906 13.3835 12.9513 13.345L9.74004 10.1337V6.00688C9.74007 5.95215 9.72931 5.89796 9.70839 5.8474C9.68746 5.79683 9.65677 5.75089 9.61808 5.71219C9.57939 5.6735 9.53344 5.6428 9.48288 5.62187C9.43232 5.60094 9.37813 5.59018 9.3234 5.59021Z" fill="#494446"/>
</g>
<defs>
<clipPath id="clip0_5313_35057">
<rect width="20" height="20" fill="white"/>
</clipPath>
</defs>
</svg>
