<svg width="20" height="20" viewBox="0 0 20 20" fill="none" xmlns="http://www.w3.org/2000/svg">
<path d="M18.1498 11.9474C18.0592 11.4832 17.8364 11.055 17.5083 10.7143C17.1801 10.3736 16.7606 10.1349 16.3001 10.0269C16.1025 9.98852 15.9022 9.9654 15.7011 9.95769C15.697 9.54741 15.6008 9.14329 15.4195 8.77519C15.1074 8.22933 14.6124 7.8114 14.0219 7.59531C13.4314 7.37922 12.7835 7.37888 12.1928 7.59436C11.8832 6.85297 11.3601 6.2204 10.6901 5.77712C10.02 5.33384 9.23319 5.09988 8.42978 5.105L8.2955 5.10825C7.34277 5.16656 6.44143 5.56022 5.75117 6.21949C5.06092 6.87877 4.62631 7.76109 4.52434 8.71014C3.76395 8.80362 3.06521 9.17566 2.56317 9.75435C2.06114 10.333 1.79145 11.0773 1.80624 11.8433C1.83238 12.6662 2.17951 13.4463 2.7734 14.0166C3.36729 14.5869 4.16077 14.9022 4.98412 14.895H15.7255C16.0905 14.8955 16.4511 14.815 16.7813 14.6593C17.1115 14.5036 17.403 14.2766 17.6349 13.9947C17.8668 13.7127 18.0332 13.3829 18.1223 13.0289C18.2113 12.6749 18.2207 12.3055 18.1498 11.9474V11.9474Z" fill="#171723"/>
</svg>
