<svg width="20" height="20" viewBox="0 0 20 20" fill="none" xmlns="http://www.w3.org/2000/svg">
<g clip-path="url(#clip0_10317_146887)">
<path d="M4.98449 14.4781C4.27055 14.4857 3.58194 14.2138 3.06585 13.7204C2.54977 13.227 2.24716 12.5513 2.2227 11.8377C2.21557 11.4803 2.27999 11.1252 2.41217 10.793C2.54434 10.4609 2.7416 10.1586 2.99234 9.90385C3.24308 9.6491 3.54224 9.44707 3.87221 9.30964C4.20219 9.17221 4.55631 9.10217 4.91376 9.10362H4.91453C4.9224 8.18722 5.27784 7.30798 5.90902 6.64356C6.54021 5.97914 7.40008 5.57909 8.31487 5.52425L8.43782 5.52194C9.23718 5.51632 10.0159 5.77569 10.6522 6.25952C11.2885 6.74334 11.7467 7.42435 11.955 8.19611C12.2942 7.95764 12.6991 7.83037 13.1138 7.83187C13.4377 7.82237 13.7596 7.88751 14.0543 8.02226C14.3491 8.15701 14.609 8.35776 14.8138 8.60898C15.0186 8.86021 15.1628 9.15517 15.2354 9.47106C15.308 9.78695 15.3069 10.1153 15.2323 10.4307C15.3916 10.3936 15.5545 10.3748 15.718 10.3746C15.988 10.3732 16.2557 10.425 16.5057 10.5272C16.7557 10.6294 16.983 10.78 17.1746 10.9702C17.3663 11.1605 17.5185 11.3867 17.6225 11.6359C17.7266 11.8851 17.7804 12.1524 17.7809 12.4225C17.7814 12.6926 17.7286 12.9601 17.6255 13.2097C17.5224 13.4593 17.371 13.686 17.1801 13.877C16.9891 14.068 16.7624 14.2194 16.5128 14.3225C16.2632 14.4257 15.9957 14.4785 15.7257 14.4781L4.98449 14.4781Z" stroke="#171723" stroke-linecap="round" stroke-linejoin="round"/>
</g>
<defs>
<clipPath id="clip0_10317_146887">
<rect width="20" height="20" fill="white"/>
</clipPath>
</defs>
</svg>
