<svg width="20" height="20" viewBox="0 0 20 20" fill="none" xmlns="http://www.w3.org/2000/svg">
<g clip-path="url(#clip0_10277_158601)">
<path d="M14.8599 1.80396H8.4764C7.59262 1.80484 6.74528 2.15631 6.12035 2.78124C5.49542 3.40617 5.14395 4.2535 5.14307 5.13729V7.49569C5.14307 7.60619 5.18697 7.71218 5.26511 7.79032C5.34325 7.86846 5.44923 7.91235 5.55973 7.91235C5.67024 7.91235 5.77622 7.86846 5.85436 7.79032C5.9325 7.71218 5.9764 7.60619 5.9764 7.49569V5.13729C5.97712 4.47447 6.24075 3.839 6.70943 3.37032C7.17812 2.90164 7.81358 2.63801 8.4764 2.63729H14.8599C15.5227 2.63801 16.1581 2.90164 16.6268 3.37032C17.0955 3.839 17.3591 4.47447 17.3599 5.13729V14.8622C17.3591 15.525 17.0955 16.1605 16.6268 16.6292C16.1581 17.0979 15.5227 17.3615 14.8599 17.3622H8.4764C7.81358 17.3615 7.17812 17.0979 6.70943 16.6292C6.24075 16.1605 5.97712 15.525 5.9764 14.8622V12.4957C5.9764 12.3852 5.9325 12.2792 5.85436 12.2011C5.77622 12.1229 5.67024 12.079 5.55973 12.079C5.44923 12.079 5.34325 12.1229 5.26511 12.2011C5.18697 12.2792 5.14307 12.3852 5.14307 12.4957V14.8622C5.14395 15.746 5.49542 16.5933 6.12035 17.2183C6.74528 17.8432 7.59262 18.1947 8.4764 18.1956H14.8599C15.7436 18.1947 16.591 17.8432 17.2159 17.2183C17.8408 16.5933 18.1923 15.746 18.1932 14.8622V5.13729C18.1923 4.2535 17.8408 3.40617 17.2159 2.78124C16.591 2.15631 15.7436 1.80484 14.8599 1.80396Z" fill="#171723"/>
<path d="M7.93343 11.3508C7.89455 11.3897 7.86378 11.436 7.8429 11.487C7.82201 11.5379 7.81144 11.5925 7.81178 11.6476C7.81212 11.7026 7.82337 11.7571 7.84487 11.8078C7.86638 11.8584 7.89772 11.9044 7.93708 11.9429C7.97644 11.9814 8.02304 12.0117 8.07419 12.0321C8.12534 12.0524 8.18002 12.0625 8.23507 12.0616C8.29012 12.0607 8.34446 12.049 8.39493 12.027C8.4454 12.005 8.49101 11.9732 8.52913 11.9334L10.1722 10.2529C10.2083 10.2154 10.2369 10.1713 10.2565 10.123L10.2601 10.1187L10.2602 10.1174C10.2856 10.0492 10.2925 9.97547 10.28 9.90376C10.2777 9.8869 10.2743 9.87022 10.2697 9.85382C10.2529 9.78222 10.2169 9.71652 10.1657 9.66375L8.52504 8.05811C8.4458 7.9821 8.33976 7.94044 8.22997 7.94219C8.12018 7.94394 8.01552 7.98895 7.93874 8.06745C7.86196 8.14594 7.81927 8.25157 7.81994 8.36138C7.82062 8.47118 7.86461 8.57627 7.94235 8.65381L8.853 9.54493H2.2238C2.11329 9.54493 2.00731 9.58883 1.92917 9.66697C1.85103 9.74511 1.80713 9.85109 1.80713 9.9616C1.80713 10.0721 1.85103 10.1781 1.92917 10.2562C2.00731 10.3344 2.11329 10.3783 2.2238 10.3783H8.88425L7.93343 11.3508Z" fill="#171723"/>
</g>
<defs>
<clipPath id="clip0_10277_158601">
<rect width="20" height="20" fill="white"/>
</clipPath>
</defs>
</svg>
