<svg width="20" height="20" viewBox="0 0 20 20" fill="none" xmlns="http://www.w3.org/2000/svg">
<path d="M7.09798 12.4727C7.10004 12.5913 7.0589 12.7066 6.98224 12.797C6.90557 12.8875 6.79861 12.947 6.68131 12.9644H4.15631C4.0459 12.9641 3.9401 12.9201 3.86203 12.842C3.78396 12.7639 3.73996 12.6581 3.73964 12.5477C3.73625 12.4288 3.77691 12.3129 3.85382 12.2221C3.93073 12.1314 4.03846 12.0722 4.15631 12.0561H4.97298V8.50611L4.36464 9.04777C4.26575 9.1227 4.14328 9.1597 4.01945 9.15205C3.89561 9.14441 3.77862 9.09263 3.68969 9.00611C3.62037 8.92009 3.58467 8.8118 3.58926 8.70142C3.59385 8.59103 3.6384 8.48608 3.71462 8.40611L5.148 7.11441C5.21338 7.06755 5.28963 7.03815 5.36955 7.029C5.44946 7.01986 5.53038 7.03126 5.60466 7.06214C5.67893 7.09302 5.74409 7.14235 5.79397 7.20545C5.84384 7.26855 5.87678 7.34334 5.88967 7.42274V12.0561H6.68129C6.73616 12.0555 6.79059 12.0659 6.84139 12.0867C6.89219 12.1074 6.93834 12.1381 6.97714 12.1769C7.01594 12.2157 7.04661 12.2618 7.06736 12.3126C7.08811 12.3634 7.09852 12.4179 7.09798 12.4727Z" fill="#171723"/>
<path d="M11.3425 12.9603H8.15892C8.1042 12.9603 8.05 12.9495 7.99943 12.9286C7.94887 12.9077 7.90292 12.877 7.86422 12.8383C7.82553 12.7996 7.79484 12.7536 7.77391 12.7031C7.75298 12.6525 7.74222 12.5983 7.74225 12.5436C7.73891 12.4729 7.75068 12.4022 7.77678 12.3364C7.80289 12.2706 7.84272 12.2111 7.89362 12.1619L9.72224 10.3032C9.86953 10.1543 10.0079 10.0089 10.1372 9.86701C10.2501 9.74479 10.3532 9.6139 10.4457 9.47556C10.5246 9.35717 10.5894 9.22988 10.6385 9.09633C10.6804 8.97797 10.7013 8.85322 10.7004 8.72768C10.7051 8.59401 10.6804 8.46094 10.628 8.33787C10.5849 8.24239 10.5213 8.15763 10.4416 8.08966C10.3587 8.02258 10.2636 7.97202 10.1617 7.94073C9.92026 7.86621 9.6616 7.86906 9.42191 7.94887C9.20949 8.02585 9.03299 8.17858 8.92631 8.37775C8.86824 8.48765 8.82891 8.60646 8.80993 8.72931C8.78375 8.83764 8.72445 8.93512 8.6403 9.00819C8.55614 9.08127 8.4513 9.1263 8.34036 9.13702C8.27845 9.13701 8.21719 9.12445 8.16026 9.10012C8.10334 9.07578 8.05193 9.04017 8.00915 8.99542C7.96736 8.95187 7.9352 8.90002 7.91473 8.84325C7.89426 8.78647 7.88595 8.72603 7.89033 8.66583C7.92024 8.42723 7.9907 8.19549 8.09866 7.98061C8.20192 7.77473 8.34427 7.59091 8.51777 7.43943C8.68967 7.29066 8.88784 7.17529 9.10209 7.09926C9.53342 6.95126 10.0004 6.943 10.4367 7.07566C10.6531 7.13993 10.8546 7.24674 11.0292 7.38983C11.2103 7.54133 11.3564 7.73043 11.4572 7.944C11.5707 8.18937 11.6266 8.45741 11.6208 8.72769C11.6223 8.96161 11.5821 9.19393 11.502 9.41372C11.4269 9.61487 11.3277 9.80615 11.2066 9.98339C11.0859 10.1595 10.9518 10.3261 10.8054 10.4814C10.667 10.6312 10.5205 10.7825 10.3684 10.938L9.28112 12.0472H11.3059C11.4238 12.0538 11.5352 12.1035 11.6188 12.187C11.7024 12.2705 11.7524 12.3818 11.7591 12.4997C11.7607 12.6149 11.7186 12.7264 11.6413 12.8118C11.564 12.8972 11.4573 12.9503 11.3425 12.9603Z" fill="#171723"/>
<path d="M14.4093 13.0181C14.1927 13.0207 13.9766 12.9955 13.7664 12.9432C13.5891 12.8975 13.4188 12.828 13.2602 12.7365C13.1148 12.6521 12.9842 12.5443 12.8737 12.4175C12.7814 12.3105 12.7006 12.194 12.6328 12.07C12.5718 11.9573 12.5209 11.8394 12.4806 11.7177C12.4464 11.6078 12.4196 11.511 12.3976 11.419C12.3758 11.3276 12.3855 11.2315 12.4253 11.1464C12.465 11.0613 12.5325 10.9922 12.6165 10.9502C12.6888 10.9167 12.7666 10.8969 12.846 10.8917C12.9293 10.8909 13.0112 10.9127 13.083 10.9549C13.1548 10.997 13.2138 11.0578 13.2537 11.1309C13.2779 11.184 13.2986 11.2387 13.3156 11.2945C13.3253 11.3392 13.3367 11.3799 13.353 11.4361C13.3701 11.4883 13.3921 11.5387 13.4189 11.5866C13.455 11.6567 13.4981 11.723 13.5475 11.7844C13.5954 11.8431 13.6522 11.894 13.716 11.9349C13.8026 11.9905 13.8969 12.033 13.9959 12.0611C14.2915 12.1393 14.6039 12.1263 14.8919 12.0237C15.018 11.9696 15.1327 11.892 15.2296 11.795C15.3139 11.7106 15.3803 11.6101 15.425 11.4996C15.4657 11.4046 15.4875 11.3026 15.4892 11.1993C15.4909 11.0855 15.4704 10.9724 15.429 10.8664C15.3913 10.7774 15.3326 10.6986 15.2581 10.6369C15.1526 10.5527 15.0315 10.4902 14.9017 10.453C14.7025 10.3973 14.4965 10.3705 14.2897 10.3733C14.1798 10.3724 14.0746 10.3281 13.9972 10.25C13.9198 10.172 13.8763 10.0665 13.8763 9.95659C13.8745 9.84203 13.9144 9.73072 13.9885 9.64331C14.0625 9.55591 14.1658 9.49836 14.2791 9.48134C14.4445 9.47824 14.6084 9.45082 14.7658 9.39995C14.8851 9.36214 14.9962 9.30193 15.0929 9.22254C15.1727 9.15659 15.237 9.07377 15.2809 8.98004C15.3248 8.88267 15.3465 8.77676 15.3444 8.66998C15.3488 8.54471 15.3258 8.42 15.2769 8.30459C15.2383 8.21665 15.1795 8.13911 15.1051 8.07834C15.0251 8.01444 14.9333 7.96688 14.835 7.93834C14.5923 7.86573 14.3331 7.86971 14.0928 7.94974C13.9868 7.98701 13.8888 8.04388 13.8039 8.11738C13.718 8.19173 13.6463 8.28107 13.5923 8.38105C13.5338 8.49028 13.4942 8.60858 13.4751 8.73099C13.4502 8.83839 13.3924 8.93531 13.3096 9.00814C13.2269 9.08097 13.1234 9.12606 13.0137 9.13707C12.9518 9.13706 12.8905 9.1245 12.8336 9.10016C12.7766 9.07583 12.7252 9.04021 12.6825 8.99547C12.6407 8.95192 12.6085 8.90007 12.588 8.84329C12.5676 8.78652 12.5593 8.72607 12.5636 8.66588C12.5937 8.42778 12.6636 8.19643 12.7703 7.98147C12.9785 7.56843 13.3388 7.25222 13.7753 7.09931C14.2034 6.95287 14.6663 6.94293 15.1002 7.07085C15.3114 7.13209 15.5089 7.23319 15.6821 7.3687C15.8627 7.51441 16.008 7.69916 16.1069 7.90907C16.2162 8.14757 16.2702 8.40768 16.2648 8.66997C16.2667 8.89291 16.2204 9.11363 16.1289 9.31694C16.0453 9.50376 15.9277 9.67346 15.7822 9.81744C15.77 9.82964 15.7578 9.84184 15.7448 9.85327C15.8191 9.90618 15.8888 9.96525 15.9531 10.0299C16.104 10.1823 16.2213 10.3648 16.2974 10.5653C16.3735 10.768 16.4118 10.9828 16.4105 11.1993C16.4103 11.4441 16.357 11.6859 16.2542 11.9081C16.152 12.1283 16.0064 12.3257 15.8262 12.4884C15.6424 12.6549 15.4294 12.786 15.1979 12.8749C14.9465 12.9721 14.6789 13.0207 14.4093 13.0181Z" fill="#171723"/>
</svg>
