<svg width="20" height="20" viewBox="0 0 20 20" fill="none" xmlns="http://www.w3.org/2000/svg">
<g clip-path="url(#clip0_10314_146624)">
<path d="M16.0622 2.88989H3.93734C3.38496 2.8904 2.85535 3.11006 2.46476 3.50065C2.07417 3.89124 1.85451 4.42085 1.854 4.97323V15.0261C1.85742 15.096 1.86445 15.1656 1.87506 15.2347C1.87035 15.2868 1.87564 15.3392 1.89067 15.3893C1.97571 15.8706 2.22735 16.3067 2.60152 16.6212C2.97569 16.9356 3.44856 17.1085 3.93734 17.1095H16.0622C16.6145 17.1089 17.1442 16.8893 17.5347 16.4987C17.9253 16.1081 18.145 15.5785 18.1455 15.0261V4.97323C18.145 4.42085 17.9253 3.89124 17.5347 3.50065C17.1442 3.11006 16.6145 2.8904 16.0622 2.88989ZM3.93734 3.72323H16.0622C16.3936 3.72359 16.7113 3.8554 16.9457 4.08974C17.18 4.32408 17.3118 4.64182 17.3122 4.97323V13.5864L13.8291 10.1026C13.5406 9.82523 13.156 9.67023 12.7559 9.67007C12.3557 9.66992 11.971 9.82462 11.6823 10.1018L8.93652 12.8517L7.59863 11.5227C7.45995 11.3803 7.2942 11.267 7.11112 11.1896C6.92804 11.1122 6.73133 11.0722 6.53255 11.0719H6.52441C6.32426 11.0715 6.12602 11.1109 5.9412 11.1877C5.75638 11.2645 5.58865 11.3773 5.44775 11.5195L2.68733 14.2799V4.97323C2.68769 4.64182 2.8195 4.32408 3.05385 4.08974C3.28819 3.8554 3.60593 3.72359 3.93734 3.72323ZM16.0622 16.2761H3.93734C3.6714 16.2752 3.41272 16.1893 3.19904 16.031C2.98536 15.8727 2.82786 15.6502 2.74954 15.396L6.03695 12.1086C6.10084 12.0441 6.1769 11.9929 6.26071 11.958C6.34452 11.9231 6.43443 11.9051 6.52523 11.9052H6.52848C6.61785 11.9055 6.70625 11.9237 6.78844 11.9588C6.87064 11.9939 6.94496 12.0451 7.007 12.1095L8.34 13.4335C8.49611 13.5862 8.70535 13.6725 8.92373 13.6742C9.14212 13.6758 9.35265 13.5928 9.51107 13.4425L12.2707 10.6918C12.4005 10.5658 12.5743 10.4953 12.7553 10.4953C12.9362 10.4953 13.1101 10.5658 13.2399 10.6918L17.3122 14.7649V15.0261C17.3118 15.3575 17.18 15.6753 16.9457 15.9096C16.7113 16.1439 16.3936 16.2758 16.0622 16.2761Z" fill="#171723"/>
<path d="M6.75537 9.4337C7.16049 9.4337 7.55651 9.31357 7.89336 9.0885C8.2302 8.86342 8.49274 8.54352 8.64778 8.16923C8.80281 7.79495 8.84338 7.3831 8.76434 6.98576C8.6853 6.58842 8.49022 6.22344 8.20375 5.93698C7.91729 5.65052 7.55231 5.45543 7.15497 5.3764C6.75764 5.29736 6.34579 5.33792 5.9715 5.49296C5.59722 5.64799 5.27731 5.91053 5.05224 6.24738C4.82716 6.58422 4.70703 6.98025 4.70703 7.38537C4.70761 7.92844 4.92361 8.44911 5.30762 8.83312C5.69163 9.21713 6.21229 9.43312 6.75537 9.4337ZM6.75537 6.17037C6.99567 6.17037 7.23058 6.24163 7.43038 6.37513C7.63019 6.50864 7.78592 6.6984 7.87788 6.92041C7.96984 7.14242 7.9939 7.38672 7.94702 7.62241C7.90014 7.85809 7.78442 8.07458 7.6145 8.24451C7.44458 8.41443 7.22809 8.53014 6.9924 8.57702C6.75671 8.62391 6.51242 8.59984 6.2904 8.50788C6.06839 8.41592 5.87864 8.26019 5.74513 8.06039C5.61162 7.86058 5.54036 7.62567 5.54036 7.38537C5.5408 7.06327 5.66895 6.75448 5.89671 6.52671C6.12447 6.29895 6.43326 6.17079 6.75537 6.17035V6.17037Z" fill="#171723"/>
</g>
<defs>
<clipPath id="clip0_10314_146624">
<rect width="20" height="20" fill="white"/>
</clipPath>
</defs>
</svg>
