<svg width="20" height="20" viewBox="0 0 20 20" fill="none" xmlns="http://www.w3.org/2000/svg">
<g clip-path="url(#clip0_10314_146626)">
<path d="M7.97089 7.38339C7.97172 7.62355 7.9012 7.85855 7.76829 8.05858C7.63537 8.25861 7.44605 8.41467 7.22432 8.50696C7.0026 8.59924 6.75846 8.62361 6.52287 8.57695C6.28728 8.5303 6.07085 8.41474 5.90103 8.24492C5.73121 8.07509 5.61565 7.85867 5.56899 7.62308C5.52234 7.38749 5.54671 7.14335 5.63899 6.92162C5.73128 6.6999 5.88733 6.51058 6.08737 6.37766C6.2874 6.24475 6.5224 6.17423 6.76256 6.17506C7.08281 6.17576 7.38975 6.30329 7.61621 6.52974C7.84266 6.7562 7.97019 7.06313 7.97089 7.38339Z" fill="#171723"/>
<path d="M16.0627 2.89172H3.93767C3.38521 2.89194 2.85543 3.11151 2.46478 3.50216C2.07412 3.89281 1.85456 4.42259 1.85434 4.97506V15.0251C1.85297 15.0531 1.85578 15.0812 1.86267 15.1084L2.68767 14.2833L5.45434 11.5167C5.59556 11.3759 5.76324 11.2643 5.94773 11.1885C6.13222 11.1127 6.32988 11.0742 6.52934 11.0751H6.53767C6.73657 11.0746 6.93352 11.1142 7.11678 11.1916C7.30004 11.2689 7.46585 11.3823 7.60434 11.5251L8.93767 12.8501L11.6877 10.1001C11.8283 9.95937 11.9952 9.84777 12.179 9.77162C12.3627 9.69548 12.5596 9.65629 12.7585 9.65629C12.9574 9.65629 13.1544 9.69548 13.3381 9.77162C13.5219 9.84777 13.6888 9.95937 13.8294 10.1001L18.146 14.4167V4.97506C18.1458 4.42258 17.9262 3.8928 17.5356 3.50214C17.1449 3.11148 16.6151 2.89192 16.0627 2.89172ZM6.76276 9.43339C6.35814 9.43421 5.96235 9.31503 5.62546 9.09092C5.28857 8.86681 5.0257 8.54782 4.8701 8.17431C4.71449 7.8008 4.67314 7.38954 4.75127 6.99252C4.8294 6.59551 5.0235 6.23058 5.30904 5.94389C5.59457 5.65719 5.9587 5.4616 6.35539 5.38186C6.75208 5.30211 7.16351 5.34178 7.53766 5.49587C7.9118 5.64995 8.23185 5.91152 8.45733 6.24749C8.68281 6.58347 8.80361 6.97876 8.80443 7.38339C8.80483 7.92576 8.59012 8.44616 8.20738 8.83045C7.82465 9.21475 7.30513 9.43158 6.76276 9.43339Z" fill="#171723"/>
<path d="M18.079 15.5333C17.9659 15.9827 17.7062 16.3816 17.341 16.6669C16.9757 16.9521 16.5258 17.1075 16.0623 17.1083H3.93727C3.56475 17.1091 3.199 17.0087 2.87905 16.818C2.5591 16.6272 2.29696 16.3531 2.12061 16.0249L6.03727 12.1083C6.10186 12.044 6.17861 11.9932 6.26303 11.9588C6.34746 11.9245 6.43787 11.9073 6.52901 11.9083C6.61888 11.9074 6.70802 11.9246 6.79108 11.959C6.87413 11.9933 6.94939 12.0441 7.01234 12.1083L8.34567 13.4333C8.5006 13.5866 8.70933 13.6733 8.92731 13.6749C9.14529 13.6764 9.35524 13.5927 9.51234 13.4416L12.2706 10.6916C12.3344 10.6273 12.4104 10.5762 12.4941 10.5413C12.5777 10.5065 12.6675 10.4885 12.7581 10.4885C12.8487 10.4885 12.9385 10.5065 13.0222 10.5413C13.1058 10.5762 13.1818 10.6273 13.2456 10.6916L17.3123 14.7666L18.079 15.5333Z" fill="#171723"/>
</g>
<defs>
<clipPath id="clip0_10314_146626">
<rect width="20" height="20" fill="white" transform="matrix(-1 0 0 1 20 0)"/>
</clipPath>
</defs>
</svg>
