<svg width="20" height="20" viewBox="0 0 20 20" fill="none" xmlns="http://www.w3.org/2000/svg">
<g clip-path="url(#clip0_10317_147137)">
<path d="M12.2373 11.5583C12.1844 11.3983 12.0993 11.2508 11.9872 11.125C11.8841 11.0088 11.7558 10.9176 11.6123 10.8583C11.4499 10.7968 11.2776 10.7658 11.1039 10.7666C10.932 10.7643 10.7616 10.7984 10.6038 10.8666C10.4592 10.92 10.3302 11.0088 10.2289 11.125C10.1153 11.2543 10.0276 11.4043 9.9705 11.5666C9.83731 11.967 9.83731 12.3997 9.9705 12.8C10.0276 12.9599 10.1154 13.1071 10.2289 13.2333C10.3321 13.3495 10.4603 13.4407 10.6038 13.5C10.9284 13.625 11.2877 13.625 11.6123 13.5C11.7558 13.4407 11.8841 13.3495 11.9872 13.2333C12.101 13.1087 12.1863 12.9609 12.2373 12.8C12.3075 12.6021 12.3414 12.3932 12.3373 12.1833C12.3406 11.9707 12.3068 11.7592 12.2373 11.5583Z" fill="#171723"/>
<path d="M17.2209 3.99168L16.0124 2.78335C15.3866 2.15872 14.5384 1.80804 13.6542 1.80835H5.13753C4.69976 1.80823 4.26625 1.89436 3.86177 2.06183C3.4573 2.2293 3.08979 2.47483 2.78023 2.78438C2.47068 3.09394 2.22515 3.46145 2.05768 3.86593C1.89021 4.2704 1.80408 4.70391 1.8042 5.14168V14.8583C1.80408 15.2961 1.89021 15.7296 2.05768 16.1341C2.22515 16.5386 2.47068 16.9061 2.78023 17.2156C3.08979 17.5252 3.4573 17.7707 3.86177 17.9382C4.26625 18.1057 4.69976 18.1918 5.13753 18.1917H14.8625C15.3003 18.1918 15.7338 18.1056 16.1383 17.9382C16.5427 17.7707 16.9102 17.5252 17.2198 17.2156C17.5294 16.9061 17.7749 16.5386 17.9424 16.1341C18.1098 15.7296 18.196 15.2961 18.1959 14.8583V6.35002C18.1962 5.46577 17.8455 4.61755 17.2209 3.99168ZM5.12087 12.8C5.12281 13.0064 5.09187 13.2117 5.0292 13.4083C4.97413 13.5834 4.8833 13.7452 4.76245 13.8833C4.64717 14.0143 4.50112 14.1146 4.33745 14.175C4.17366 14.2425 3.99802 14.2765 3.82088 14.275C3.64205 14.273 3.46473 14.242 3.29578 14.1833C3.25497 14.171 3.21715 14.1503 3.18467 14.1227C3.15219 14.095 3.12574 14.061 3.10698 14.0227C3.08822 13.9844 3.07755 13.9426 3.07562 13.9C3.07369 13.8574 3.08056 13.8149 3.09578 13.775C3.13691 13.6889 3.20705 13.6199 3.29392 13.5803C3.38078 13.5407 3.47882 13.5329 3.57084 13.5583C3.57917 13.5583 3.71245 13.5917 3.72078 13.5917C3.8446 13.6059 3.97003 13.5917 4.08751 13.55C4.15213 13.526 4.20953 13.4858 4.25423 13.4333C4.31519 13.3643 4.3581 13.2813 4.37915 13.1917C4.42199 13.0657 4.44177 12.933 4.43754 12.8V10.45C4.43659 10.4089 4.44384 10.368 4.45889 10.3297C4.47394 10.2914 4.49647 10.2565 4.52517 10.227C4.55387 10.1975 4.58816 10.174 4.62604 10.1579C4.66392 10.1419 4.70463 10.1335 4.74577 10.1333C4.8361 10.1315 4.92399 10.1627 4.99302 10.221C5.06205 10.2792 5.10748 10.3607 5.12083 10.45L5.12087 12.8ZM8.39591 13.4583C8.33023 13.6172 8.23393 13.7616 8.1125 13.8833C7.98903 14.0105 7.83789 14.1074 7.67083 14.1666C7.49175 14.2424 7.29862 14.2794 7.10422 14.275C6.97532 14.2748 6.8468 14.2609 6.72088 14.2333C6.60806 14.2083 6.49886 14.1691 6.39588 14.1166C6.2963 14.0683 6.20377 14.0067 6.12088 13.9333C6.04175 13.8626 5.96664 13.7874 5.89588 13.7083C5.84424 13.6474 5.81877 13.5686 5.82502 13.4889C5.83126 13.4093 5.86871 13.3354 5.92922 13.2833C6.00234 13.2272 6.08819 13.19 6.17916 13.175C6.22971 13.1769 6.27935 13.1889 6.32515 13.2104C6.37095 13.2319 6.41197 13.2623 6.44577 13.3L6.52085 13.375C6.54824 13.4036 6.57902 13.4288 6.61252 13.45C6.64414 13.4788 6.68088 13.5014 6.72085 13.5166C6.77401 13.5423 6.82993 13.5619 6.88752 13.5749C7.06217 13.6134 7.24413 13.6018 7.41252 13.5416C7.49397 13.5143 7.56808 13.4687 7.62918 13.4083C7.68571 13.3505 7.73093 13.2827 7.76252 13.2083C7.78986 13.1249 7.80394 13.0377 7.80422 12.9499C7.80428 12.8962 7.79584 12.8427 7.77922 12.7916C7.76197 12.7526 7.73952 12.7162 7.71249 12.6833C7.67082 12.6499 7.62916 12.6249 7.57923 12.5916C7.52084 12.5583 7.4459 12.5333 7.3709 12.4999C7.28748 12.4749 7.20417 12.4416 7.1209 12.4166C7.0209 12.3916 6.92923 12.3583 6.82916 12.3249C6.73246 12.2855 6.63792 12.241 6.54595 12.1916C6.4421 12.1363 6.34895 12.0629 6.27088 11.9749C6.18368 11.887 6.11559 11.7821 6.07088 11.6666C6.01965 11.5337 5.99417 11.3923 5.99582 11.2499C5.99363 11.1013 6.02202 10.9538 6.07922 10.8166C6.13257 10.674 6.21812 10.5457 6.3292 10.4417C6.44435 10.3302 6.58025 10.2425 6.7292 10.1833C7.08074 10.0595 7.46496 10.0655 7.81253 10.2C7.98989 10.2811 8.15085 10.3941 8.28739 10.5333C8.3331 10.5853 8.36099 10.6506 8.36699 10.7195C8.37298 10.7885 8.35677 10.8576 8.32072 10.9167C8.31239 10.9333 8.28739 10.9583 8.27912 10.975C8.2117 11.0463 8.11892 11.0882 8.02084 11.0917C7.96322 11.0885 7.90687 11.0736 7.85525 11.0478C7.80364 11.022 7.75786 10.9859 7.72075 10.9417C7.71242 10.9333 7.69575 10.9167 7.64575 10.875C7.59321 10.8437 7.53727 10.8186 7.47902 10.8C7.31431 10.761 7.14245 10.7638 6.97914 10.8083C6.91475 10.8373 6.8556 10.8767 6.80407 10.925C6.76161 10.9651 6.72761 11.0133 6.70407 11.0667C6.6842 11.1259 6.67298 11.1876 6.67074 11.25C6.66747 11.3112 6.68196 11.3719 6.71245 11.425C6.73718 11.4801 6.77777 11.5265 6.82903 11.5583C6.89495 11.6059 6.96812 11.6425 7.0457 11.6667C7.14579 11.7083 7.25403 11.75 7.36247 11.7833C7.47904 11.825 7.5958 11.8667 7.70406 11.9083C7.8389 11.9547 7.9655 12.0222 8.07906 12.1084C8.19747 12.199 8.29665 12.3123 8.3708 12.4417C8.45121 12.5959 8.49134 12.7679 8.48747 12.9417C8.48684 13.1179 8.45586 13.2927 8.39587 13.4583H8.39591ZM12.8875 13.025C12.8025 13.2711 12.6694 13.4977 12.4958 13.6917C12.3216 13.8763 12.1119 14.0237 11.8791 14.125C11.6319 14.2199 11.3691 14.2679 11.1042 14.2667C10.842 14.2679 10.582 14.2199 10.3375 14.125C10.1037 14.0257 9.89352 13.8781 9.72087 13.6917C9.54741 13.5008 9.41418 13.2769 9.32913 13.0333C9.23364 12.7602 9.18574 12.4727 9.18752 12.1833C9.18646 11.8975 9.23149 11.6133 9.32086 11.3417C9.41194 11.0967 9.54755 10.8707 9.72086 10.675C9.89192 10.4868 10.1025 10.3389 10.3375 10.2417C10.8328 10.0459 11.384 10.0459 11.8792 10.2417C12.1136 10.34 12.3239 10.4878 12.4959 10.675C12.6694 10.869 12.8026 11.0956 12.8875 11.3417C13.0765 11.8869 13.0765 12.4798 12.8875 13.025H12.8875ZM6.42082 8.15002C6.31086 8.14826 6.20589 8.1038 6.12813 8.02604C6.05036 7.94827 6.0059 7.84331 6.00415 7.73335V3.75002C6.00449 3.63961 6.04849 3.53383 6.12656 3.45576C6.20463 3.3777 6.31041 3.33369 6.42082 3.33335H13.5709C13.6257 3.33281 13.6802 3.34322 13.731 3.36396C13.7818 3.38471 13.8279 3.41538 13.8667 3.45418C13.9055 3.49298 13.9362 3.53913 13.9569 3.58993C13.9777 3.64072 13.9881 3.69515 13.9875 3.75002V7.73335C13.9872 7.84376 13.9432 7.94955 13.8651 8.02762C13.7871 8.10569 13.6813 8.1497 13.5709 8.15002H6.42082ZM16.9209 13.925C16.9191 14.0077 16.885 14.0864 16.8257 14.1441C16.7665 14.2018 16.6869 14.2338 16.6042 14.2333C16.5437 14.23 16.4847 14.2133 16.4314 14.1844C16.3781 14.1556 16.3318 14.1154 16.2959 14.0667L14.4042 11.4917V13.925C14.403 14.0064 14.3701 14.0841 14.3125 14.1417C14.255 14.1992 14.1773 14.2321 14.0959 14.2333C14.0077 14.2352 13.9219 14.205 13.8544 14.1482C13.787 14.0915 13.7424 14.0122 13.7291 13.925V10.45C13.7291 10.4084 13.7373 10.3672 13.7532 10.3288C13.7692 10.2904 13.7925 10.2555 13.8219 10.226C13.8513 10.1966 13.8863 10.1733 13.9247 10.1574C13.9631 10.1415 14.0043 10.1333 14.0459 10.1333C14.1033 10.1373 14.1594 10.1526 14.2109 10.1784C14.2623 10.2041 14.3082 10.2398 14.3458 10.2834L16.2458 12.8584V10.45C16.2449 10.4089 16.2521 10.3679 16.2672 10.3296C16.2823 10.2913 16.3048 10.2564 16.3335 10.2269C16.3623 10.1974 16.3966 10.174 16.4345 10.1579C16.4724 10.1418 16.5131 10.1335 16.5542 10.1333C16.6436 10.1317 16.7304 10.1632 16.7981 10.2216C16.8657 10.28 16.9094 10.3614 16.9208 10.45L16.9209 13.925Z" fill="#171723"/>
</g>
<defs>
<clipPath id="clip0_10317_147137">
<rect width="20" height="20" fill="white"/>
</clipPath>
</defs>
</svg>
