<svg width="20" height="20" viewBox="0 0 20 20" fill="none" xmlns="http://www.w3.org/2000/svg">
<path d="M4.20617 7.44632C4.15144 7.44629 4.09725 7.45705 4.04668 7.47797C3.99611 7.4989 3.95017 7.52959 3.91147 7.56829C3.87277 7.60699 3.84208 7.65293 3.82116 7.7035C3.80023 7.75407 3.78947 7.80826 3.7895 7.86299V10.7573C3.79288 10.9172 3.77231 11.0767 3.72847 11.2305C3.69856 11.3335 3.64788 11.4294 3.57955 11.5121C3.5257 11.5747 3.45721 11.6231 3.38016 11.6529C3.24111 11.7004 3.09334 11.7169 2.94722 11.7013C2.91055 11.6952 2.87889 11.6887 2.86015 11.6838L2.76818 11.6569C2.70795 11.6389 2.64549 11.6295 2.58264 11.6289C2.48713 11.638 2.39598 11.6732 2.31918 11.7307C2.24238 11.7882 2.1829 11.8657 2.14725 11.9548C2.12864 12.007 2.12062 12.0623 2.12368 12.1176C2.12674 12.1729 2.14081 12.2271 2.16506 12.2769C2.18932 12.3267 2.22327 12.3711 2.26493 12.4076C2.30659 12.4441 2.35512 12.472 2.40767 12.4895C2.61908 12.5622 2.84085 12.6002 3.0644 12.6022C3.28524 12.604 3.50444 12.5643 3.71056 12.485C3.91841 12.4034 4.1043 12.2744 4.25337 12.1082C4.40387 11.936 4.51719 11.7346 4.58621 11.5165C4.6628 11.2708 4.69989 11.0146 4.69608 10.7572V7.86299C4.67936 7.74571 4.62031 7.63859 4.53006 7.56184C4.43982 7.48509 4.32462 7.444 4.20617 7.44632Z" fill="#171723"/>
<path d="M7.94297 9.87919C7.80198 9.77442 7.64691 9.69004 7.48237 9.62854C7.3432 9.57604 7.20079 9.52521 7.05756 9.47799C6.9241 9.43364 6.79227 9.38739 6.66206 9.33924C6.57052 9.30646 6.48397 9.26113 6.40489 9.20455C6.34906 9.16474 6.30244 9.11339 6.26817 9.054C6.23868 8.99098 6.22526 8.92164 6.22911 8.85217C6.22852 8.77951 6.24235 8.70746 6.2698 8.64018C6.29573 8.57565 6.33512 8.51738 6.38536 8.46928C6.44371 8.41411 6.51265 8.37133 6.588 8.34355C6.78173 8.2856 6.98748 8.28082 7.1837 8.32971C7.24888 8.35186 7.31138 8.38121 7.37006 8.41721C7.4029 8.43793 7.43346 8.46207 7.46121 8.48924C7.50891 8.5484 7.5686 8.59679 7.63634 8.63123C7.70409 8.66566 7.77836 8.68536 7.85427 8.68902C7.92283 8.68592 7.99003 8.66883 8.05174 8.63881C8.11346 8.60879 8.16839 8.56648 8.21316 8.51446C8.21804 8.50836 8.23595 8.48354 8.24002 8.47703C8.29645 8.39801 8.32344 8.30172 8.31631 8.20487C8.30917 8.10803 8.26836 8.01674 8.20095 7.94684C8.03467 7.76936 7.8339 7.62772 7.61095 7.53057C7.17489 7.36102 6.69227 7.35467 6.2519 7.51267C6.06646 7.58436 5.89715 7.69225 5.75385 7.83006C5.61635 7.96343 5.50825 8.12406 5.43647 8.30166C5.3646 8.47628 5.32783 8.66335 5.32823 8.85219C5.32544 9.03028 5.35694 9.20724 5.42101 9.37343C5.48028 9.52158 5.56728 9.65706 5.67735 9.7726C5.7797 9.87766 5.89709 9.96693 6.02568 10.0375C6.14091 10.1001 6.26027 10.1547 6.38294 10.2011C6.49932 10.2446 6.61732 10.2845 6.74183 10.3227C6.84517 10.3528 6.9461 10.387 7.04457 10.4232C7.1319 10.4551 7.217 10.4927 7.29928 10.5359C7.35485 10.564 7.40566 10.6007 7.44984 10.6446C7.48362 10.6785 7.5102 10.7189 7.52797 10.7634C7.54922 10.822 7.55889 10.8842 7.55645 10.9465C7.55717 11.0497 7.53868 11.152 7.50192 11.2484C7.46827 11.3356 7.41671 11.4148 7.35056 11.4808C7.27765 11.5517 7.19133 11.6075 7.09665 11.6448C6.89424 11.7141 6.67673 11.7269 6.46758 11.6818C6.40057 11.6663 6.33538 11.6438 6.27308 11.6146C6.22562 11.5922 6.18062 11.565 6.13881 11.5333C6.0999 11.5036 6.06267 11.4718 6.02732 11.438L5.9467 11.3554C5.87159 11.2679 5.76748 11.2105 5.65345 11.1935C5.53941 11.1765 5.42308 11.2012 5.32577 11.263C5.30787 11.2757 5.26392 11.3151 5.24764 11.3305C5.17195 11.4038 5.12678 11.5029 5.12119 11.608C5.11561 11.7132 5.15003 11.8166 5.21753 11.8974C5.30249 11.9991 5.39557 12.0939 5.49587 12.1806C5.60096 12.2701 5.71623 12.347 5.83929 12.4097C5.96988 12.4745 6.10789 12.5231 6.25026 12.5545C6.40727 12.5878 6.56747 12.6038 6.72797 12.6021C6.97019 12.6056 7.21084 12.5626 7.43678 12.4752C7.64489 12.3946 7.83391 12.2715 7.99178 12.1138C8.14367 11.9604 8.26226 11.7773 8.34012 11.5759C8.41873 11.3712 8.45847 11.1536 8.4573 10.9342C8.46267 10.713 8.41141 10.4941 8.30837 10.2983C8.21708 10.1347 8.09262 9.99192 7.94297 9.87919Z" fill="#171723"/>
<path d="M12.693 8.11891C12.4781 7.88553 12.2148 7.70193 11.9216 7.58098C11.3033 7.3373 10.6155 7.33802 9.99772 7.58302C9.70655 7.70562 9.44512 7.88935 9.23112 8.12176C9.01332 8.36242 8.84616 8.64443 8.73958 8.95102C8.51389 9.63282 8.51389 10.3692 8.73958 11.051C8.84668 11.3569 9.01411 11.6382 9.23193 11.8782C9.44659 12.1097 9.70862 12.2922 10.0002 12.4133C10.6174 12.6575 11.3044 12.6575 11.9216 12.4133C12.214 12.2929 12.4767 12.1104 12.6914 11.8782C12.9096 11.6385 13.0771 11.3571 13.1838 11.051C13.4105 10.3687 13.4105 9.6313 13.1838 8.94897C13.0776 8.64214 12.9107 8.35984 12.693 8.11891ZM12.3252 10.7507C12.2602 10.9436 12.1573 11.1215 12.0225 11.274C11.8965 11.4113 11.7417 11.5188 11.5692 11.589C11.1786 11.7392 10.7462 11.739 10.3558 11.5885C10.1829 11.5183 10.0277 11.4105 9.90169 11.2728C9.76494 11.1204 9.66032 10.942 9.59408 10.7483C9.43782 10.261 9.43782 9.737 9.59408 9.24968C9.66077 9.05471 9.76593 8.87511 9.90332 8.72152C10.0287 8.58366 10.1833 8.47551 10.3558 8.40496C10.5474 8.3278 10.7524 8.28949 10.9589 8.29225C11.168 8.28913 11.3758 8.32758 11.57 8.40537C11.7423 8.47549 11.8966 8.5834 12.0217 8.72112C12.157 8.87443 12.2602 9.05334 12.3252 9.24724C12.4793 9.73656 12.4793 10.2614 12.3252 10.7507H12.3252Z" fill="#171723"/>
<path d="M17.3991 7.4463C17.3444 7.44627 17.2902 7.45702 17.2396 7.47795C17.1891 7.49888 17.1431 7.52957 17.1044 7.56827C17.0657 7.60696 17.035 7.65291 17.0141 7.70348C16.9932 7.75404 16.9824 7.80824 16.9824 7.86296V10.73L14.7136 7.64121H14.7127C14.6619 7.58373 14.6003 7.53691 14.5313 7.50345C14.4622 7.46999 14.3873 7.45057 14.3107 7.4463C14.256 7.44627 14.2018 7.45702 14.1512 7.47795C14.1007 7.49888 14.0547 7.52957 14.016 7.56827C13.9773 7.60696 13.9466 7.65291 13.9257 7.70348C13.9048 7.75404 13.894 7.80824 13.894 7.86296V12.1371C13.9078 12.2533 13.9641 12.3602 14.0523 12.4372C14.1404 12.5142 14.2539 12.5557 14.3709 12.5537C14.4257 12.5538 14.4798 12.543 14.5304 12.5221C14.581 12.5011 14.6269 12.4705 14.6656 12.4318C14.7043 12.3931 14.735 12.3471 14.7559 12.2965C14.7769 12.246 14.7876 12.1918 14.7876 12.1371V9.25372L17.0622 12.3466C17.1096 12.4078 17.1697 12.4581 17.2384 12.4938C17.3071 12.5296 17.3827 12.55 17.4601 12.5537C17.5148 12.5537 17.569 12.543 17.6196 12.522C17.6702 12.5011 17.7161 12.4704 17.7548 12.4317C17.7935 12.393 17.8242 12.3471 17.8451 12.2965C17.8661 12.2459 17.8768 12.1917 17.8768 12.137V7.86296C17.8629 7.7467 17.8063 7.63972 17.7181 7.56275C17.6299 7.48578 17.5162 7.44429 17.3991 7.4463Z" fill="#171723"/>
</svg>
