<svg width="20" height="20" viewBox="0 0 20 20" fill="none" xmlns="http://www.w3.org/2000/svg">
<g clip-path="url(#clip0_10314_145062)">
<path d="M11.7268 8.4471L5.60866 5.02099C5.33166 4.8766 5.02199 4.80641 4.70981 4.81725C4.39763 4.82809 4.09357 4.91959 3.82725 5.08284C3.54651 5.25417 3.31503 5.49541 3.15541 5.78297C2.99579 6.07053 2.9135 6.39459 2.91659 6.72346V13.277C2.9135 13.6059 2.99579 13.9299 3.15541 14.2175C3.31503 14.5051 3.54652 14.7463 3.82725 14.9176C4.11068 15.0912 4.43647 15.1833 4.76882 15.1837C5.06562 15.1828 5.35784 15.1105 5.62087 14.973L11.7268 11.5575C12.0033 11.4026 12.2334 11.1769 12.3936 10.9036C12.5538 10.6302 12.6383 10.3191 12.6383 10.0023C12.6383 9.68546 12.5538 9.37435 12.3936 9.101C12.2334 8.82765 12.0033 8.60194 11.7268 8.44712V8.4471Z" fill="#171723"/>
<path d="M15.5548 8.47241C15.2527 8.47249 14.9573 8.56216 14.7061 8.73009C14.4549 8.89801 14.2592 9.13664 14.1436 9.41581C14.028 9.69499 13.9978 10.0022 14.0567 10.2985C14.1157 10.5949 14.2612 10.8671 14.4749 11.0807C14.6885 11.2944 14.9607 11.4399 15.2571 11.4989C15.5534 11.5578 15.8606 11.5276 16.1398 11.412C16.419 11.2964 16.6576 11.1007 16.8255 10.8495C16.9934 10.5983 17.0831 10.3029 17.0832 10.0007C17.0829 9.59549 16.9218 9.20692 16.6352 8.92036C16.3487 8.63381 15.9601 8.47269 15.5548 8.47241Z" fill="#171723"/>
</g>
<defs>
<clipPath id="clip0_10314_145062">
<rect width="20" height="20" fill="white"/>
</clipPath>
</defs>
</svg>
