<svg width="21" height="20" viewBox="0 0 21 20" fill="none" xmlns="http://www.w3.org/2000/svg">
<g clip-path="url(#clip0_10314_145368)">
<path d="M10.53 5.2627C9.59292 5.26261 8.67691 5.54041 7.89776 6.06095C7.11861 6.58148 6.51132 7.32138 6.1527 8.18708C5.79407 9.05277 5.70022 10.0054 5.88301 10.9244C6.06579 11.8434 6.51701 12.6876 7.17959 13.3502C7.84217 14.0128 8.68636 14.464 9.60539 14.6468C10.5244 14.8296 11.477 14.7357 12.3427 14.3771C13.2084 14.0185 13.9483 13.4112 14.4688 12.632C14.9894 11.8529 15.2672 10.9369 15.2671 9.99984C15.2656 8.74394 14.766 7.53991 13.8779 6.65186C12.9899 5.7638 11.7859 5.26422 10.53 5.2627Z" fill="#171723"/>
<path d="M10.5299 4.20144C10.5847 4.20147 10.6389 4.19071 10.6894 4.16978C10.74 4.14886 10.7859 4.11817 10.8246 4.07947C10.8633 4.04077 10.894 3.99483 10.915 3.94426C10.9359 3.89369 10.9466 3.8395 10.9466 3.78477V2.63078C10.9466 2.52027 10.9027 2.41429 10.8246 2.33615C10.7464 2.25801 10.6405 2.21411 10.5299 2.21411C10.4194 2.21411 10.3135 2.25801 10.2353 2.33615C10.1572 2.41429 10.1133 2.52027 10.1133 2.63078V3.78477C10.1132 3.8395 10.124 3.89369 10.1449 3.94426C10.1659 3.99483 10.1966 4.04077 10.2352 4.07947C10.2739 4.11817 10.3199 4.14886 10.3705 4.16978C10.421 4.19071 10.4752 4.20147 10.5299 4.20144Z" fill="#171723"/>
<path d="M5.84009 5.89993C5.91849 5.97676 6.02404 6.01954 6.1338 6.01899C6.24357 6.01844 6.34868 5.97459 6.4263 5.89697C6.50391 5.81935 6.54776 5.71424 6.54832 5.60448C6.54887 5.49471 6.50609 5.38916 6.42926 5.31076L5.61383 4.49451C5.5754 4.45472 5.52942 4.42297 5.47858 4.40114C5.42775 4.3793 5.37307 4.36781 5.31775 4.36733C5.26242 4.36684 5.20756 4.37739 5.15635 4.39834C5.10514 4.41929 5.05862 4.45023 5.0195 4.48935C4.98038 4.52847 4.94944 4.57499 4.92849 4.6262C4.90754 4.67741 4.897 4.73227 4.89748 4.7876C4.89796 4.84292 4.90945 4.8976 4.93129 4.94843C4.95313 4.99927 4.98487 5.04524 5.02466 5.08368L5.84009 5.89993Z" fill="#171723"/>
<path d="M4.31396 9.58313H3.16081C3.0503 9.58313 2.94432 9.62703 2.86618 9.70517C2.78804 9.78331 2.74414 9.88929 2.74414 9.9998C2.74414 10.1103 2.78804 10.2163 2.86618 10.2944C2.94432 10.3726 3.0503 10.4165 3.16081 10.4165H4.31396C4.42446 10.4165 4.53044 10.3726 4.60859 10.2944C4.68673 10.2163 4.73062 10.1103 4.73062 9.9998C4.73062 9.88929 4.68673 9.78331 4.60859 9.70517C4.53044 9.62703 4.42446 9.58313 4.31396 9.58313Z" fill="#171723"/>
<path d="M5.8401 14.1006L5.02466 14.916C4.98487 14.9545 4.95313 15.0004 4.93129 15.0513C4.90945 15.1021 4.89796 15.1568 4.89748 15.2121C4.897 15.2674 4.90754 15.3223 4.92849 15.3735C4.94944 15.4247 4.98038 15.4712 5.0195 15.5104C5.05862 15.5495 5.10514 15.5804 5.15635 15.6014C5.20756 15.6223 5.26242 15.6329 5.31775 15.6324C5.37307 15.6319 5.42775 15.6204 5.47858 15.5986C5.52942 15.5767 5.57539 15.545 5.61383 15.5052L6.42926 14.6898C6.46858 14.6512 6.49988 14.6053 6.52134 14.5546C6.5428 14.5038 6.55399 14.4494 6.55427 14.3943C6.55455 14.3392 6.54391 14.2847 6.52296 14.2337C6.50202 14.1828 6.47118 14.1365 6.43225 14.0976C6.39331 14.0587 6.34704 14.0278 6.29611 14.0069C6.24518 13.986 6.19061 13.9753 6.13554 13.9756C6.08048 13.9759 6.02601 13.9871 5.9753 14.0085C5.92459 14.03 5.87863 14.0613 5.84009 14.1006L5.8401 14.1006Z" fill="#171723"/>
<path d="M10.5299 15.799C10.4752 15.7989 10.421 15.8097 10.3705 15.8306C10.3199 15.8515 10.2739 15.8822 10.2353 15.9209C10.1966 15.9596 10.1659 16.0056 10.1449 16.0561C10.124 16.1067 10.1133 16.1609 10.1133 16.2156V17.3688C10.1133 17.4793 10.1572 17.5853 10.2353 17.6634C10.3135 17.7415 10.4194 17.7854 10.5299 17.7854C10.6405 17.7854 10.7464 17.7415 10.8246 17.6634C10.9027 17.5853 10.9466 17.4793 10.9466 17.3688V16.2156C10.9466 16.1609 10.9359 16.1067 10.915 16.0561C10.894 16.0056 10.8633 15.9596 10.8246 15.9209C10.7859 15.8822 10.74 15.8515 10.6894 15.8306C10.6389 15.8097 10.5847 15.7989 10.5299 15.799Z" fill="#171723"/>
<path d="M15.2191 14.1006C15.1805 14.0613 15.1346 14.03 15.0839 14.0085C15.0331 13.9871 14.9787 13.9759 14.9236 13.9756C14.8685 13.9753 14.814 13.986 14.763 14.0069C14.7121 14.0278 14.6658 14.0587 14.6269 14.0976C14.588 14.1365 14.5571 14.1828 14.5362 14.2337C14.5153 14.2847 14.5046 14.3392 14.5049 14.3943C14.5052 14.4494 14.5164 14.5038 14.5378 14.5546C14.5593 14.6053 14.5906 14.6512 14.6299 14.6898L15.4461 15.5052C15.5245 15.582 15.6301 15.6248 15.7399 15.6243C15.8496 15.6237 15.9547 15.5799 16.0323 15.5022C16.11 15.4246 16.1538 15.3195 16.1544 15.2097C16.1549 15.1 16.1121 14.9944 16.0353 14.916L15.2191 14.1006Z" fill="#171723"/>
<path d="M17.8987 9.58313H16.7448C16.6343 9.58313 16.5283 9.62703 16.4502 9.70517C16.372 9.78331 16.3281 9.88929 16.3281 9.9998C16.3281 10.1103 16.372 10.2163 16.4502 10.2944C16.5283 10.3726 16.6343 10.4165 16.7448 10.4165H17.8987C18.0092 10.4165 18.1152 10.3726 18.1934 10.2944C18.2715 10.2163 18.3154 10.1103 18.3154 9.9998C18.3154 9.88929 18.2715 9.78331 18.1934 9.70517C18.1152 9.62703 18.0092 9.58313 17.8987 9.58313Z" fill="#171723"/>
<path d="M15.4461 4.49442L14.6299 5.31067C14.5906 5.34922 14.5593 5.39517 14.5378 5.44589C14.5164 5.4966 14.5052 5.55106 14.5049 5.60613C14.5046 5.66119 14.5152 5.71577 14.5362 5.7667C14.5571 5.81762 14.588 5.86389 14.6269 5.90283C14.6658 5.94177 14.7121 5.9726 14.763 5.99355C14.814 6.01449 14.8685 6.02513 14.9236 6.02485C14.9787 6.02457 15.0331 6.01338 15.0839 5.99193C15.1346 5.97047 15.1805 5.93917 15.2191 5.89984L16.0353 5.0836C16.1121 5.0052 16.1549 4.89965 16.1544 4.78989C16.1538 4.68012 16.11 4.57501 16.0323 4.49739C15.9547 4.41978 15.8496 4.37593 15.7399 4.37537C15.6301 4.37482 15.5245 4.4176 15.4461 4.49443V4.49442Z" fill="#171723"/>
</g>
<defs>
<clipPath id="clip0_10314_145368">
<rect width="20" height="20" fill="white" transform="translate(0.529785)"/>
</clipPath>
</defs>
</svg>
