<svg width="20" height="20" viewBox="0 0 20 20" fill="none" xmlns="http://www.w3.org/2000/svg">
<g clip-path="url(#clip0_1827_8421)">
<path d="M5.55527 14.8609C5.47287 14.8609 5.39233 14.8364 5.32382 14.7906C5.25531 14.7449 5.20192 14.6798 5.17038 14.6037C5.13885 14.5275 5.1306 14.4438 5.14668 14.3629C5.16275 14.2821 5.20242 14.2079 5.26068 14.1496L14.1499 5.26128C14.2283 5.18445 14.3338 5.14166 14.4436 5.14222C14.5533 5.14277 14.6584 5.18662 14.7361 5.26424C14.8137 5.34186 14.8575 5.44697 14.8581 5.55673C14.8586 5.6665 14.8159 5.77205 14.739 5.85044L5.84986 14.7388C5.81122 14.7776 5.7653 14.8083 5.71475 14.8292C5.66419 14.8502 5.61 14.8609 5.55527 14.8609Z" fill="#171723"/>
</g>
<defs>
<clipPath id="clip0_1827_8421">
<rect width="20" height="20" fill="white"/>
</clipPath>
</defs>
</svg>
