<svg width="20" height="20" viewBox="0 0 20 20" fill="none" xmlns="http://www.w3.org/2000/svg">
<g clip-path="url(#clip0_10314_145178)">
<path d="M11.5731 12.7693C11.469 12.7693 11.3648 12.7661 11.2606 12.7588C10.6408 12.7135 10.0379 12.5362 9.49223 12.2388C8.94671 11.9419 8.47196 11.5305 8.10063 11.0327C8.03442 10.9442 8.00608 10.833 8.02184 10.7237C8.0376 10.6143 8.09616 10.5156 8.18465 10.4494C8.27315 10.3832 8.38431 10.3549 8.4937 10.3706C8.60309 10.3864 8.70174 10.4449 8.76794 10.5334C9.06834 10.9352 9.45166 11.2675 9.89188 11.508C10.3321 11.7484 10.8189 11.8914 11.3192 11.927C11.8198 11.9654 12.3227 11.8931 12.7922 11.7155C13.2617 11.5396 13.6881 11.2654 14.0431 10.9114L16.3925 8.56197C17.028 7.90139 17.3787 7.01778 17.3694 6.10121C17.36 5.18465 16.9913 4.30838 16.3425 3.66091C15.6937 3.01343 14.8167 2.64649 13.9001 2.63902C12.9835 2.63155 12.1006 2.98415 11.4413 3.62097L10.0985 4.95561C10.0198 5.0318 9.91428 5.07393 9.80475 5.07289C9.69522 5.07184 9.5905 5.02772 9.51326 4.95005C9.43602 4.87238 9.39248 4.76742 9.39204 4.65789C9.39161 4.54835 9.43432 4.44305 9.51094 4.36478L10.8578 3.02567C11.6641 2.24164 12.745 1.80386 13.8697 1.80579H13.9079C14.755 1.81294 15.5814 2.06835 16.2848 2.54039C16.9882 3.01244 17.5378 3.6804 17.8654 4.46159C18.1931 5.24278 18.2844 6.1029 18.1282 6.9355C17.972 7.76809 17.5751 8.5366 16.9865 9.14589L14.6322 11.5006C14.1926 11.9389 13.6647 12.2785 13.0835 12.4967C12.6004 12.6772 12.0888 12.7696 11.5731 12.7693Z" fill="#171723"/>
<path d="M6.13022 18.1941H6.09197C5.24485 18.1869 4.41845 17.9315 3.71503 17.4594C3.01162 16.9873 2.46209 16.3193 2.13444 15.5381C1.8068 14.7569 1.71543 13.8967 1.87165 13.0641C2.02786 12.2315 2.42481 11.4629 3.01335 10.8536L5.36768 8.4997C5.80682 8.06052 6.33526 7.72091 6.91718 7.50389C7.49909 7.28688 8.12087 7.19753 8.74034 7.24191C9.35982 7.28629 9.96251 7.46336 10.5075 7.76111C11.0526 8.05887 11.5272 8.47034 11.8993 8.96763C11.932 9.01145 11.9558 9.06129 11.9693 9.11431C11.9828 9.16732 11.9857 9.22248 11.9779 9.27662C11.9701 9.33077 11.9517 9.38284 11.9237 9.42987C11.8958 9.4769 11.8588 9.51797 11.815 9.55072C11.7712 9.58348 11.7214 9.60728 11.6684 9.62078C11.6153 9.63427 11.5602 9.63719 11.506 9.62937C11.4519 9.62155 11.3998 9.60314 11.3528 9.57519C11.3058 9.54725 11.2647 9.51031 11.2319 9.46649C10.9315 9.06481 10.5482 8.73244 10.108 8.49192C9.66784 8.25141 9.18108 8.10837 8.68075 8.07252C8.18043 8.03666 7.67825 8.10883 7.20827 8.28413C6.73829 8.45942 6.31151 8.73374 5.95687 9.08848L3.60743 11.4379C3.13375 11.9306 2.81475 12.5512 2.68983 13.2231C2.56491 13.8951 2.63953 14.5889 2.90449 15.2189C3.16946 15.8488 3.61314 16.3874 4.18076 16.7681C4.74838 17.1487 5.41506 17.3548 6.09847 17.3608C7.01333 17.3576 7.89276 17.0067 8.5586 16.3793L9.89322 15.0455C9.97161 14.9687 10.0772 14.9259 10.1869 14.9265C10.2967 14.927 10.4018 14.9709 10.4794 15.0485C10.557 15.1261 10.6009 15.2312 10.6014 15.341C10.602 15.4507 10.5592 15.5563 10.4824 15.6347L9.14286 16.9734C8.33654 17.758 7.25529 18.1961 6.13022 18.1941Z" fill="#171723"/>
</g>
<defs>
<clipPath id="clip0_10314_145178">
<rect width="20" height="20" fill="white"/>
</clipPath>
</defs>
</svg>
