<svg width="20" height="20" viewBox="0 0 20 20" fill="none" xmlns="http://www.w3.org/2000/svg">
<g clip-path="url(#clip0_5313_35035)">
<path d="M15.2716 1.80542H6.95052C6.1755 1.80626 5.43247 2.11451 4.88446 2.66253C4.33644 3.21055 4.02819 3.95358 4.02734 4.7286V13.0493C4.0282 13.8243 4.33647 14.5673 4.88449 15.1152C5.43252 15.6632 6.17554 15.9713 6.95052 15.9721H15.2716C16.0465 15.9712 16.7893 15.6629 17.3372 15.115C17.8851 14.567 18.1932 13.8242 18.194 13.0493V4.7286C18.1932 3.95371 17.8851 3.21077 17.3372 2.66277C16.7894 2.11476 16.0465 1.80643 15.2716 1.80542ZM17.3607 13.0493C17.36 13.6032 17.1397 14.1342 16.7481 14.5259C16.3565 14.9176 15.8255 15.138 15.2716 15.1388H6.95052C6.39651 15.1381 5.86537 14.9178 5.47359 14.5261C5.08181 14.1344 4.86139 13.6033 4.86068 13.0493V4.7286C4.8613 4.17453 5.08168 3.64333 5.47347 3.25155C5.86525 2.85976 6.39645 2.63938 6.95052 2.63875H15.2716C15.8256 2.63955 16.3566 2.86001 16.7482 3.25178C17.1398 3.64355 17.3601 4.17465 17.3607 4.7286V13.0493Z" fill="#171723"/>
<path d="M14.5637 8.28772H11.6462V5.37065C11.6462 5.26014 11.6023 5.15416 11.5241 5.07602C11.446 4.99788 11.34 4.95398 11.2295 4.95398C11.119 4.95398 11.013 4.99788 10.9349 5.07602C10.8567 5.15416 10.8128 5.26014 10.8128 5.37065V8.28772H7.89616C7.78565 8.28772 7.67967 8.33162 7.60153 8.40976C7.52339 8.4879 7.47949 8.59388 7.47949 8.70439C7.47949 8.81489 7.52339 8.92088 7.60153 8.99902C7.67967 9.07716 7.78565 9.12105 7.89616 9.12105H10.8128V12.0381C10.8128 12.1486 10.8567 12.2546 10.9349 12.3327C11.013 12.4109 11.119 12.4548 11.2295 12.4548C11.34 12.4548 11.446 12.4109 11.5241 12.3327C11.6023 12.2546 11.6462 12.1486 11.6462 12.0381V9.12105H14.5637C14.6742 9.12105 14.7801 9.07716 14.8583 8.99902C14.9364 8.92088 14.9803 8.81489 14.9803 8.70439C14.9803 8.59388 14.9364 8.4879 14.8583 8.40976C14.7801 8.33162 14.6742 8.28772 14.5637 8.28772Z" fill="#171723"/>
<path d="M13.3332 17.3612H6.4663C5.45154 17.36 4.47871 16.9563 3.76121 16.2387C3.04371 15.5212 2.64013 14.5483 2.639 13.5335V6.66667C2.639 6.55616 2.5951 6.45018 2.51696 6.37204C2.43882 6.2939 2.33284 6.25 2.22233 6.25C2.11182 6.25 2.00584 6.2939 1.9277 6.37204C1.84956 6.45018 1.80566 6.55616 1.80566 6.66667V13.5335C1.80701 14.7692 2.29846 15.9539 3.1722 16.8278C4.04593 17.7016 5.2306 18.1931 6.4663 18.1946H13.3332C13.4437 18.1946 13.5497 18.1507 13.6278 18.0725C13.7059 17.9944 13.7498 17.8884 13.7498 17.7779C13.7498 17.6674 13.7059 17.5614 13.6278 17.4833C13.5497 17.4051 13.4437 17.3612 13.3332 17.3612Z" fill="#171723"/>
</g>
<defs>
<clipPath id="clip0_5313_35035">
<rect width="20" height="20" fill="white"/>
</clipPath>
</defs>
</svg>
