<svg width="20" height="20" viewBox="0 0 20 20" fill="none" xmlns="http://www.w3.org/2000/svg">
<g clip-path="url(#clip0_10314_145786)">
<path d="M13.7501 13.4565H17.7752C17.8299 13.4566 17.8841 13.4458 17.9347 13.4249C17.9852 13.404 18.0312 13.3733 18.0699 13.3346C18.1086 13.2959 18.1393 13.2499 18.1602 13.1994C18.1811 13.1488 18.1919 13.0946 18.1919 13.0399V9.78061C18.1919 9.72588 18.1811 9.67168 18.1602 9.62112C18.1393 9.57055 18.1086 9.52461 18.0699 9.48591C18.0312 9.44721 17.9852 9.41652 17.9347 9.39559C17.8841 9.37467 17.8299 9.36391 17.7752 9.36394H13.7501V7.50033L13.7485 7.49224V4.25663L13.7493 4.24996C13.7493 2.66223 10.6731 1.8053 7.77845 1.8053C4.88378 1.8053 1.80762 2.66223 1.80762 4.24996L1.80845 4.25663V14.0058L1.80876 14.0075L1.80845 14.0091C1.80845 15.5952 4.88218 16.4505 7.77443 16.4505C8.09975 16.4505 8.39333 16.4391 8.67532 16.4223V17.7778C8.67529 17.8326 8.68604 17.8868 8.70697 17.9373C8.7279 17.9879 8.75859 18.0338 8.79729 18.0725C8.83598 18.1112 8.88193 18.1419 8.9325 18.1629C8.98306 18.1838 9.03726 18.1945 9.09198 18.1945H17.7752C17.8299 18.1945 17.8841 18.1838 17.9347 18.1629C17.9852 18.1419 18.0312 18.1112 18.0699 18.0725C18.1086 18.0338 18.1393 17.9879 18.1602 17.9373C18.1811 17.8868 18.1919 17.8326 18.1919 17.7778V14.5186C18.1919 14.4638 18.1811 14.4096 18.1602 14.3591C18.1393 14.3085 18.1086 14.2626 18.0699 14.2239C18.0312 14.1852 17.9852 14.1545 17.9347 14.1335C17.8841 14.1126 17.8299 14.1019 17.7752 14.1019H13.734C13.7365 14.0704 13.7501 14.041 13.7501 14.0091V13.4565ZM17.3585 12.6232H9.50858V10.1973H13.3173C13.323 10.1975 13.3277 10.2005 13.3335 10.2005C13.3392 10.2005 13.3439 10.1975 13.3496 10.1973H17.3585V12.6232ZM8.67525 12.3371C8.39453 12.3549 8.10152 12.3669 7.77437 12.3669C6.49024 12.3885 5.2116 12.1943 3.99182 11.7923C3.75883 11.7112 3.53381 11.6088 3.31962 11.4863C3.25451 11.4489 3.19348 11.4147 3.13163 11.3716C2.99553 11.2854 2.87341 11.1789 2.76948 11.0558C2.74678 11.0313 2.7281 11.0032 2.71415 10.9728C2.70683 10.9582 2.66207 10.8654 2.6523 10.8508C2.64611 10.8177 2.64257 10.7843 2.64172 10.7507V8.78171C2.8898 8.95875 3.15843 9.10506 3.44172 9.21746C3.57356 9.27605 3.71434 9.32731 3.85672 9.37533C3.97878 9.42009 4.10737 9.4559 4.24083 9.49415L4.35233 9.52507C4.36702 9.52927 4.38197 9.53253 4.39708 9.53483C4.56875 9.58041 4.74864 9.6268 4.93419 9.66586C5.03919 9.68783 5.15392 9.71061 5.23774 9.7212C6.07463 9.87313 6.9238 9.94723 7.77436 9.94255C8.07486 9.94255 8.37525 9.92704 8.67524 9.90921L8.67525 12.3371ZM12.9153 7.50358L12.9152 7.50441L12.8964 7.60941L12.8566 7.69893C12.827 7.76486 12.7841 7.8239 12.7304 7.87226C12.6909 7.91568 12.6469 7.95495 12.5994 7.98945C12.5475 8.03609 12.492 8.07854 12.4334 8.11641C12.3463 8.17174 12.2519 8.22626 12.1477 8.28241C12.0347 8.34402 11.9178 8.39839 11.7978 8.44518C11.673 8.50225 11.5447 8.55145 11.4137 8.59248C11.3112 8.62991 11.2037 8.65998 11.0914 8.69095L10.9897 8.72025C10.9685 8.72431 10.9482 8.72838 10.9352 8.73164C10.7732 8.77314 10.6113 8.81465 10.4404 8.85046C10.2557 8.89033 10.0628 8.92206 9.87642 8.95379C8.38173 9.17707 6.86087 9.15866 5.37203 8.89926C5.28576 8.88706 5.1938 8.86916 5.10673 8.85044C4.92443 8.81219 4.74947 8.76661 4.58427 8.72267C4.57287 8.71941 4.56148 8.71697 4.54843 8.71453L4.46543 8.69093C4.35312 8.66001 4.2457 8.6299 4.13339 8.58921C4.00725 8.54607 3.88923 8.50457 3.76311 8.44921C3.44704 8.33284 3.15434 8.16086 2.89885 7.9414C2.86734 7.91465 2.83845 7.88494 2.81259 7.85269C2.74812 7.78319 2.69707 7.70234 2.66204 7.61425C2.65878 7.59797 2.64658 7.51333 2.64169 7.49787V5.54037C4.22127 6.37382 5.99417 6.77193 7.77843 6.69385C9.56269 6.77193 11.3356 6.37382 12.9152 5.54039V7.50277L12.9153 7.50358ZM11.7324 9.36394C11.8655 9.32068 11.996 9.26987 12.1233 9.21176C12.2663 9.15543 12.4057 9.09048 12.5408 9.01726C12.6637 8.95216 12.776 8.88623 12.9168 8.79509V9.36394H11.7324ZM7.77843 2.63867C10.9122 2.63867 12.912 3.59159 12.9154 4.24827L12.9152 4.24919V4.25229C12.9108 4.90903 10.9114 5.86051 7.77843 5.86051C4.6455 5.86051 2.64609 4.90903 2.64172 4.25229V4.24919L2.64156 4.2483C2.64489 3.59163 4.64469 2.63867 7.77843 2.63867ZM7.77437 15.6172C4.64123 15.6172 2.64172 14.665 2.64172 14.0091L2.64141 14.0075L2.64172 14.0058V12.0444L2.66125 12.0592C2.73612 12.1113 2.81588 12.1585 2.96561 12.2447C3.20264 12.3762 3.45071 12.4868 3.70698 12.5751C5.01807 13.0104 6.3931 13.2217 7.77437 13.2001C8.10899 13.2001 8.41103 13.1881 8.70159 13.1705C8.72821 13.2532 8.78029 13.3254 8.85039 13.3768C8.92049 13.4281 9.00502 13.456 9.09192 13.4565H12.9168V14.0091C12.9152 14.0407 12.9094 14.0719 12.8996 14.1019H9.09192C9.03719 14.1019 8.983 14.1126 8.93243 14.1336C8.88186 14.1545 8.83592 14.1852 8.79722 14.2239C8.75852 14.2626 8.72783 14.3085 8.7069 14.3591C8.68598 14.4096 8.67522 14.4638 8.67525 14.5186V15.5872C8.39535 15.605 8.10248 15.6172 7.77437 15.6172ZM17.3585 17.3612H9.50858V14.9352H17.3585L17.3585 17.3612Z" fill="#171723"/>
<path d="M10.547 16.5653H12.7191C12.8296 16.5653 12.9356 16.5214 13.0137 16.4432C13.0919 16.3651 13.1358 16.2591 13.1358 16.1486C13.1358 16.0381 13.0919 15.9321 13.0137 15.854C12.9356 15.7758 12.8296 15.7319 12.7191 15.7319H10.547C10.4365 15.7319 10.3306 15.7758 10.2524 15.854C10.1743 15.9321 10.1304 16.0381 10.1304 16.1486C10.1304 16.2591 10.1743 16.3651 10.2524 16.4432C10.3306 16.5214 10.4365 16.5653 10.547 16.5653Z" fill="#171723"/>
<path d="M16.2819 16.5557C16.5068 16.5557 16.6892 16.3733 16.6892 16.1483C16.6892 15.9233 16.5068 15.741 16.2819 15.741C16.0569 15.741 15.8745 15.9233 15.8745 16.1483C15.8745 16.3733 16.0569 16.5557 16.2819 16.5557Z" fill="#171723"/>
<path d="M12.7191 10.9932H10.547C10.4365 10.9932 10.3306 11.0371 10.2524 11.1152C10.1743 11.1933 10.1304 11.2993 10.1304 11.4098C10.1304 11.5203 10.1743 11.6263 10.2524 11.7045C10.3306 11.7826 10.4365 11.8265 10.547 11.8265H12.7191C12.8296 11.8265 12.9356 11.7826 13.0137 11.7045C13.0919 11.6263 13.1358 11.5203 13.1358 11.4098C13.1358 11.2993 13.0919 11.1933 13.0137 11.1152C12.9356 11.0371 12.8296 10.9932 12.7191 10.9932Z" fill="#171723"/>
<path d="M16.2819 11.8175C16.5068 11.8175 16.6892 11.6351 16.6892 11.4102C16.6892 11.1852 16.5068 11.0028 16.2819 11.0028C16.0569 11.0028 15.8745 11.1852 15.8745 11.4102C15.8745 11.6351 16.0569 11.8175 16.2819 11.8175Z" fill="#171723"/>
</g>
<defs>
<clipPath id="clip0_10314_145786">
<rect width="20" height="20" fill="white"/>
</clipPath>
</defs>
</svg>
