<svg width="20" height="20" viewBox="0 0 20 20" fill="none" xmlns="http://www.w3.org/2000/svg">
<path d="M16.2314 7.82666H4.38005C4.26954 7.82666 4.16356 7.87056 4.08542 7.9487C4.00728 8.02684 3.96338 8.13282 3.96338 8.24333C3.96338 8.35383 4.00728 8.45981 4.08542 8.53795C4.16356 8.61609 4.26954 8.65999 4.38005 8.65999H5.96202L5.16374 16.6727C5.14452 16.8651 5.16582 17.0594 5.22627 17.243C5.28672 17.4267 5.38496 17.5957 5.51469 17.739C5.64441 17.8824 5.80273 17.997 5.97944 18.0755C6.15615 18.1539 6.34734 18.1945 6.54069 18.1945H14.07C14.2635 18.1946 14.4548 18.1542 14.6316 18.0757C14.8085 17.9972 14.9669 17.8826 15.0967 17.7391C15.2264 17.5956 15.3247 17.4265 15.385 17.2426C15.4453 17.0588 15.4664 16.8644 15.4469 16.6719L14.6417 8.65999H16.2314C16.342 8.65999 16.4479 8.61609 16.5261 8.53795C16.6042 8.45981 16.6481 8.35383 16.6481 8.24333C16.6481 8.13282 16.6042 8.02684 16.5261 7.9487C16.4479 7.87056 16.342 7.82666 16.2314 7.82666ZM6.79948 8.65999H13.8047L13.9413 10.0182H6.66403L6.79948 8.65999ZM14.4785 17.1797C14.4272 17.2372 14.3642 17.2831 14.2938 17.3144C14.2233 17.3457 14.147 17.3617 14.07 17.3612H6.54069C6.46375 17.3611 6.38767 17.345 6.31735 17.3138C6.24702 17.2825 6.18401 17.237 6.13235 17.1799C6.0807 17.1229 6.04154 17.0557 6.0174 16.9827C5.99326 16.9096 5.98467 16.8323 5.99219 16.7557L6.58092 10.8516H14.025L14.6185 16.7549C14.6265 16.8316 14.6182 16.9091 14.594 16.9823C14.5699 17.0555 14.5305 17.1228 14.4785 17.1797Z" fill="#171723"/>
<path d="M6.07818 5.67748C6.09639 5.67761 6.1146 5.67651 6.13266 5.6742L16.1123 4.37133C16.2219 4.35696 16.3213 4.29971 16.3888 4.21214C16.4562 4.12457 16.4862 4.01383 16.472 3.90421C16.4565 3.79516 16.399 3.6965 16.3117 3.62929C16.2244 3.56209 16.1143 3.53166 16.0049 3.54451L6.02525 4.8474C5.92031 4.86102 5.82448 4.91404 5.7572 4.99572C5.68992 5.0774 5.65622 5.18161 5.66295 5.28721C5.66968 5.39282 5.71633 5.49191 5.79343 5.56438C5.87054 5.63686 5.97232 5.67729 6.07814 5.67748H6.07818Z" fill="#171723"/>
<path d="M7.70243 3.43763C7.82263 3.43764 7.94013 3.402 8.04008 3.33523C8.14002 3.26845 8.21792 3.17354 8.26392 3.06249C8.30993 2.95144 8.32197 2.82925 8.29852 2.71136C8.27507 2.59347 8.2172 2.48518 8.13221 2.40018C8.04722 2.31519 7.93893 2.2573 7.82104 2.23385C7.70315 2.2104 7.58096 2.22243 7.46991 2.26842C7.35886 2.31442 7.26394 2.39231 7.19716 2.49225C7.13038 2.59219 7.09473 2.70969 7.09473 2.82988C7.09472 2.90969 7.11044 2.98872 7.14098 3.06245C7.17152 3.13619 7.21628 3.20319 7.27271 3.25962C7.32914 3.31606 7.39614 3.36082 7.46987 3.39137C7.5436 3.42191 7.62263 3.43763 7.70243 3.43763Z" fill="#171723"/>
<path d="M8.00635 6.47629C8.00635 6.59648 8.042 6.71398 8.10878 6.81392C8.17556 6.91385 8.27048 6.99175 8.38152 7.03774C8.49257 7.08374 8.61476 7.09577 8.73265 7.07232C8.85054 7.04887 8.95882 6.99099 9.04381 6.906C9.1288 6.821 9.18669 6.71272 9.21014 6.59483C9.23359 6.47695 9.22155 6.35475 9.17556 6.24371C9.12956 6.13266 9.05167 6.03774 8.95174 5.97096C8.8518 5.90418 8.7343 5.86854 8.61411 5.86853C8.45292 5.86853 8.29833 5.93256 8.18436 6.04654C8.07038 6.16052 8.00635 6.3151 8.00635 6.47629Z" fill="#171723"/>
<path d="M4.98397 5.86852C4.98396 5.74833 4.94831 5.63084 4.88153 5.53091C4.81475 5.43098 4.71983 5.3531 4.60879 5.30711C4.49774 5.26112 4.37556 5.24909 4.25767 5.27255C4.13979 5.296 4.03152 5.35388 3.94653 5.43888C3.86155 5.52387 3.80367 5.63215 3.78023 5.75003C3.75678 5.86792 3.76882 5.9901 3.81482 6.10114C3.86082 6.21219 3.93871 6.30709 4.03864 6.37387C4.13858 6.44064 4.25607 6.47628 4.37626 6.47628C4.45607 6.47628 4.5351 6.46057 4.60884 6.43002C4.68257 6.39948 4.74957 6.35471 4.806 6.29828C4.86244 6.24184 4.9072 6.17484 4.93773 6.1011C4.96827 6.02736 4.98398 5.94833 4.98397 5.86852Z" fill="#171723"/>
</svg>
