<svg width="20" height="20" viewBox="0 0 20 20" fill="none" xmlns="http://www.w3.org/2000/svg">
<path d="M2.20778 17.2001H5.18548C5.24527 17.1996 5.30421 17.186 5.35821 17.1604C5.40871 17.1282 5.45595 17.0912 5.49926 17.0499C5.50481 17.0434 5.5131 17.0411 5.51833 17.0341L6.27313 16.0325L9.60036 14.3657C9.61415 14.3587 9.62198 14.3449 9.6348 14.3366C9.66114 14.323 9.68589 14.3066 9.7086 14.2876L17.3811 6.61506C17.911 6.08519 18.2086 5.36653 18.2086 4.61718C18.2086 3.86783 17.911 3.14917 17.3811 2.6193C16.8512 2.08943 16.1326 1.79175 15.3832 1.79175C14.6339 1.79175 13.9152 2.08943 13.3853 2.6193L5.71283 10.2918C5.6938 10.3145 5.67735 10.3393 5.6638 10.3656C5.65551 10.3784 5.64167 10.3862 5.63471 10.4L3.95796 13.7487L1.87411 16.5336C1.82776 16.5956 1.79956 16.6692 1.79267 16.7462C1.78578 16.8233 1.80048 16.9008 1.83511 16.9699C1.86974 17.0391 1.92294 17.0973 1.98876 17.1379C2.05458 17.1786 2.13042 17.2001 2.20778 17.2001ZM13.9745 3.20847C14.3488 2.83791 14.8545 2.63062 15.3812 2.63191C15.9078 2.63321 16.4125 2.84299 16.7849 3.21539C17.1573 3.58779 17.3671 4.0925 17.3684 4.61915C17.3698 5.1458 17.1625 5.65155 16.7919 6.02579L9.414 13.4037L6.59661 10.5864L13.9745 3.20847ZM6.12135 11.2895L8.71087 13.879L6.08961 15.1925L4.80869 13.9108L6.12135 11.2895ZM4.34385 14.6245L5.45385 15.735L4.97777 16.3668H3.0403L4.34385 14.6245Z" fill="#171723"/>
<path d="M17.7651 17.3744H2.20768C2.09718 17.3744 1.99119 17.4183 1.91305 17.4964C1.83491 17.5746 1.79102 17.6805 1.79102 17.7911C1.79102 17.9016 1.83491 18.0075 1.91305 18.0857C1.99119 18.1638 2.09718 18.2077 2.20768 18.2077H17.7651C17.8756 18.2077 17.9816 18.1638 18.0598 18.0857C18.1379 18.0075 18.1818 17.9016 18.1818 17.7911C18.1818 17.6805 18.1379 17.5746 18.0598 17.4964C17.9816 17.4183 17.8756 17.3744 17.7651 17.3744Z" fill="#171723"/>
</svg>
