<svg width="20" height="20" viewBox="0 0 20 20" fill="none" xmlns="http://www.w3.org/2000/svg">
<g clip-path="url(#clip0_10314_146457)">
<path d="M17.7782 9.51445H16.3098C16.6347 8.80082 16.7437 8.00772 16.6233 7.23292C16.5028 6.45811 16.1583 5.73549 15.6322 5.15413C14.8992 4.43815 13.9303 4.01411 12.907 3.96152C11.8837 3.90893 10.8764 4.23139 10.0739 4.86846C9.27138 4.23094 8.26377 3.90827 7.24021 3.96102C6.21665 4.01378 5.24754 4.43832 4.51481 5.15496C3.96028 5.77647 3.60915 6.55276 3.50858 7.37961C3.40801 8.20646 3.5628 9.04428 3.95217 9.78061H2.22233C2.11182 9.78061 2.00584 9.82451 1.9277 9.90265C1.84956 9.98079 1.80566 10.0868 1.80566 10.1973C1.80566 10.3078 1.84956 10.4138 1.9277 10.4919C2.00584 10.57 2.11182 10.6139 2.22233 10.6139H4.40785C4.69208 11.0529 5.028 11.4562 5.40837 11.8151L9.78906 15.9281C9.86611 16.0007 9.968 16.0412 10.0739 16.0412C10.1798 16.0412 10.2817 16.0007 10.3587 15.9281L14.7394 11.8151C15.1973 11.3848 15.5905 10.8906 15.9071 10.3478H17.7782C17.8887 10.3478 17.9947 10.3039 18.0728 10.2258C18.1509 10.1476 18.1948 10.0417 18.1948 9.93116C18.1948 9.82065 18.1509 9.71467 18.0728 9.63653C17.9947 9.55839 17.8887 9.51449 17.7782 9.51449V9.51445ZM5.12516 5.72213C5.40989 5.41958 5.75482 5.18 6.13775 5.01882C6.52067 4.85764 6.93311 4.77844 7.3485 4.7863C8.24959 4.78974 9.11872 5.12062 9.79397 5.71729C9.87046 5.78718 9.97031 5.82594 10.0739 5.82594C10.1775 5.82594 10.2774 5.78718 10.3539 5.71729C10.9843 5.11975 11.8202 4.78709 12.6888 4.788C13.5575 4.78891 14.3926 5.12331 15.0218 5.72218C15.4692 6.23758 15.746 6.87885 15.8141 7.55789C15.8823 8.23693 15.7386 8.92043 15.4027 9.51449H14.641L13.6245 8.52246C13.5484 8.44779 13.4465 8.40523 13.3398 8.40356C13.2332 8.40189 13.13 8.44126 13.0516 8.51351L12.3184 9.18733L11.507 6.72396C11.4778 6.63938 11.4227 6.56617 11.3495 6.51474C11.2763 6.4633 11.1887 6.43628 11.0993 6.4375C11.0095 6.44021 10.9229 6.47186 10.8525 6.52773C10.7822 6.58359 10.7317 6.6607 10.7087 6.74756L9.61898 10.8654L8.31283 7.60446C8.2834 7.5303 8.23319 7.46621 8.16824 7.41987C8.10329 7.37354 8.02635 7.34692 7.94665 7.34323C7.866 7.33337 7.78433 7.34993 7.7139 7.39043C7.64347 7.43092 7.58807 7.49318 7.55602 7.56783L6.4126 9.78057H4.8796C4.47622 9.16849 4.28211 8.44215 4.32638 7.71045C4.37066 6.97874 4.65092 6.28111 5.12516 5.72213ZM14.1698 11.208L10.0739 15.0532L5.9781 11.208C5.78158 11.0231 5.59837 10.8246 5.42985 10.6139H6.66651C6.74295 10.6138 6.8179 10.5927 6.88319 10.553C6.94848 10.5132 7.00161 10.4563 7.03679 10.3885L7.87826 8.76005L9.31299 12.3432C9.34391 12.4205 9.39725 12.4867 9.46614 12.5334C9.53503 12.5801 9.61632 12.6052 9.69955 12.6053C9.70768 12.6053 9.71664 12.6053 9.72477 12.6044C9.81223 12.5991 9.89579 12.5664 9.96358 12.5109C10.0314 12.4554 10.0799 12.3799 10.1024 12.2952L11.1546 8.31814L11.7292 10.0613C11.7508 10.1275 11.7888 10.1871 11.8396 10.2348C11.8903 10.2824 11.9523 10.3165 12.0197 10.3339C12.0869 10.3525 12.1579 10.3534 12.2256 10.3366C12.2933 10.3198 12.3555 10.2858 12.4063 10.2379L13.3242 9.39398L14.1803 10.229C14.2581 10.3053 14.3627 10.3479 14.4717 10.3478H14.9171C14.6972 10.6587 14.4469 10.9468 14.1698 11.208V11.208Z" fill="#171723"/>
</g>
<defs>
<clipPath id="clip0_10314_146457">
<rect width="20" height="20" fill="white"/>
</clipPath>
</defs>
</svg>
