<svg width="20" height="20" viewBox="0 0 20 20" fill="none" xmlns="http://www.w3.org/2000/svg">
<path d="M8.22603 10.7043C7.46915 10.9975 6.79867 11.4773 6.27692 12.0991C5.75517 12.7209 5.39907 13.4646 5.24172 14.2609H2.84717C2.68161 14.2602 2.52301 14.1942 2.40593 14.0771C2.28886 13.96 2.22281 13.8014 2.22217 13.6359V12.8787C2.22116 12.3225 2.33746 11.7724 2.56347 11.2642C2.78949 10.7561 3.12014 10.3013 3.53384 9.92958C3.94293 9.55237 4.42788 9.26691 4.95624 9.09231C5.48459 8.91771 6.04415 8.858 6.59745 8.91718C6.72071 8.92598 6.84397 8.96118 6.96717 8.9788C7.17762 9.68075 7.62182 10.2896 8.22603 10.7043Z" fill="#171723"/>
<path d="M13.9836 15.414V15.9862C13.9832 16.0678 13.9666 16.1484 13.9349 16.2235C13.9032 16.2986 13.857 16.3668 13.7989 16.424C13.7409 16.4813 13.6721 16.5265 13.5965 16.5571C13.521 16.5877 13.4401 16.6032 13.3586 16.6025H6.6416C6.56007 16.6032 6.47921 16.5877 6.40365 16.5571C6.32809 16.5265 6.25932 16.4813 6.20126 16.424C6.14321 16.3668 6.09701 16.2986 6.06532 16.2235C6.03364 16.1484 6.01708 16.0678 6.0166 15.9862V15.2292C6.01633 14.1729 6.43518 13.1598 7.18121 12.4121C7.92724 11.6644 8.93947 11.2433 9.99569 11.2412C10.1278 11.2412 10.2598 11.25 10.3919 11.2588C11.3969 11.3881 12.319 11.8835 12.9817 12.6501C13.6444 13.4168 14.0011 14.4008 13.9836 15.414Z" fill="#171723"/>
<path d="M17.7779 13.0636V13.6358C17.7783 13.718 17.7624 13.7995 17.7312 13.8755C17.6999 13.9515 17.6539 14.0206 17.5958 14.0787C17.5376 14.1369 17.4686 14.1829 17.3925 14.2141C17.3165 14.2454 17.235 14.2613 17.1528 14.2608H14.7231C14.5463 13.4749 14.1839 12.7428 13.6662 12.1256C13.1485 11.5084 12.4907 11.0241 11.7476 10.7131C12.3635 10.3047 12.8179 9.69464 13.0329 8.98762C13.411 8.90207 13.8004 8.87828 14.1861 8.91717C15.1899 9.04583 16.111 9.53978 16.7736 10.3047C17.4362 11.0695 17.7937 12.0517 17.7779 13.0636Z" fill="#171723"/>
<path d="M16.0963 5.70397C16.0957 6.3155 15.8525 6.90182 15.4201 7.33424C14.9877 7.76666 14.4014 8.00985 13.7898 8.01044C13.5812 8.00407 13.3742 7.97154 13.1736 7.91362C13.1492 7.3713 12.9857 6.84438 12.699 6.38344C12.4122 5.92249 12.0118 5.54299 11.5361 5.28137C11.6398 4.71651 11.9512 4.21091 12.4089 3.86407C12.8666 3.51724 13.4376 3.35428 14.0095 3.40727C14.5813 3.46027 15.1126 3.72538 15.4988 4.15042C15.885 4.57547 16.0982 5.12967 16.0963 5.70397H16.0963Z" fill="#171723"/>
<path d="M12.3107 8.05441C12.3106 8.47094 12.1976 8.87966 11.9839 9.23718C11.7701 9.59469 11.4636 9.88764 11.0967 10.0849C10.7299 10.2822 10.3165 10.3765 9.90034 10.3577C9.48423 10.339 9.08096 10.2079 8.73336 9.97837C8.38576 9.74886 8.1068 9.4295 7.9261 9.0542C7.7454 8.67891 7.6697 8.26168 7.70704 7.84682C7.74439 7.43196 7.89338 7.03496 8.13819 6.69797C8.38301 6.36097 8.71452 6.09656 9.09752 5.93282C9.1151 5.92401 9.13271 5.92401 9.14153 5.91519C9.41604 5.80573 9.70871 5.74899 10.0042 5.74792C10.2941 5.74897 10.581 5.80576 10.8494 5.91519C10.867 5.92401 10.8846 5.92401 10.9022 5.93282C11.3191 6.10942 11.6749 6.4047 11.9253 6.78191C12.1758 7.15912 12.3098 7.60163 12.3107 8.05441Z" fill="#171723"/>
<path d="M8.46403 5.28135C7.98806 5.54482 7.5876 5.92595 7.30093 6.38833C7.01426 6.8507 6.85096 7.37887 6.82662 7.92236C6.62297 7.97871 6.41285 8.00831 6.20156 8.01042C5.76325 8.01136 5.33375 7.88739 4.96336 7.65303C4.59298 7.41867 4.29703 7.08363 4.11019 6.68714C3.92335 6.29065 3.85335 5.84913 3.9084 5.41429C3.96344 4.97946 4.14124 4.56931 4.42098 4.23188C4.70072 3.89445 5.07082 3.64371 5.48792 3.50904C5.90503 3.37436 6.35187 3.36132 6.77612 3.47145C7.20036 3.58157 7.58445 3.81029 7.88339 4.13084C8.18233 4.45138 8.38375 4.85046 8.46406 5.28135H8.46403Z" fill="#171723"/>
</svg>
