<svg width="20" height="20" viewBox="0 0 20 20" fill="none" xmlns="http://www.w3.org/2000/svg">
<path d="M17.7773 17.361H15.4344C14.104 17.3595 12.8286 16.8304 11.8879 15.8897C10.9471 14.949 10.418 13.6735 10.4165 12.3431V3.24029L11.3068 4.14732C11.3454 4.187 11.3916 4.2185 11.4426 4.23996C11.4937 4.26142 11.5485 4.2724 11.6038 4.27224C11.686 4.27234 11.7663 4.24816 11.8347 4.20273C11.9031 4.1573 11.9565 4.09266 11.9882 4.01694C12.02 3.94121 12.0286 3.85779 12.0131 3.77716C11.9976 3.69654 11.9585 3.62231 11.9009 3.56382L10.3009 1.93382L10.2993 1.93138L10.2952 1.92858C10.257 1.89015 10.2118 1.8595 10.162 1.83834L10.1617 1.83824C10.1255 1.82536 10.0878 1.8176 10.0495 1.8152C10.0348 1.8114 10.02 1.80838 10.0051 1.80615L10.0034 1.80635L9.99983 1.8056C9.97387 1.80822 9.94823 1.81338 9.92328 1.82101C9.89783 1.82331 9.87264 1.82798 9.84806 1.83495L9.84486 1.83683C9.80084 1.8554 9.7604 1.8815 9.72533 1.91394C9.72014 1.91852 9.71347 1.91999 9.70849 1.92482L9.70788 1.92565L9.70259 1.9313L8.03125 3.56016C7.99208 3.59832 7.96081 3.64381 7.93923 3.69405C7.91765 3.74429 7.90617 3.79828 7.90546 3.85296C7.90474 3.90763 7.9148 3.96191 7.93506 4.0127C7.95533 4.06348 7.98539 4.10978 8.02355 4.14894C8.0617 4.18811 8.1072 4.21938 8.15744 4.24096C8.20767 4.26254 8.26167 4.27402 8.31634 4.27474C8.37102 4.27545 8.4253 4.26539 8.47608 4.24513C8.52687 4.22487 8.57317 4.1948 8.61233 4.15664L9.58316 3.21053V12.3431C9.58168 13.6735 9.05253 14.949 8.11181 15.8897C7.17109 16.8304 5.89564 17.3595 4.56526 17.361H2.22233C2.11182 17.361 2.00584 17.4049 1.9277 17.4831C1.84956 17.5612 1.80566 17.6672 1.80566 17.7777C1.80566 17.8882 1.84956 17.9942 1.9277 18.0723C2.00584 18.1505 2.11182 18.1944 2.22233 18.1944H4.56526C5.73682 18.1927 6.88094 17.8396 7.84974 17.1809C8.81855 16.5221 9.56752 15.588 9.99983 14.4991C10.4321 15.588 11.1811 16.5221 12.1499 17.1809C13.1187 17.8396 14.2629 18.1927 15.4344 18.1944H17.7773C17.8878 18.1944 17.9938 18.1505 18.072 18.0723C18.1501 17.9942 18.194 17.8882 18.194 17.7777C18.194 17.6672 18.1501 17.5612 18.072 17.4831C17.9938 17.4049 17.8878 17.361 17.7773 17.361Z" fill="#171723"/>
</svg>
