<svg width="20" height="20" viewBox="0 0 20 20" fill="none" xmlns="http://www.w3.org/2000/svg">
<path d="M17.3797 8.63687C17.3228 8.63898 17.2662 8.64471 17.21 8.65401L14.7582 4.40723C14.8737 4.25315 14.955 4.07624 14.9968 3.88827C15.0386 3.70031 15.0398 3.5056 15.0005 3.31712C14.9611 3.12863 14.8821 2.95069 14.7686 2.79513C14.6551 2.63958 14.5098 2.50998 14.3423 2.41496C14.1749 2.31994 13.9891 2.26169 13.7973 2.24407C13.6056 2.22645 13.4123 2.24988 13.2303 2.31279C13.0483 2.3757 12.8818 2.47666 12.7419 2.60893C12.602 2.7412 12.4918 2.90176 12.4188 3.07992H7.61475C7.54434 2.90035 7.43643 2.73786 7.29822 2.60331C7.16001 2.46876 6.99469 2.36524 6.8133 2.29966C6.6319 2.23408 6.4386 2.20795 6.24631 2.22302C6.05401 2.23808 5.86714 2.29399 5.69817 2.38702C5.5292 2.48005 5.38202 2.60806 5.26646 2.76249C5.15089 2.91693 5.0696 3.09424 5.02801 3.28259C4.98642 3.47093 4.98549 3.66599 5.02528 3.85473C5.06507 4.04347 5.14466 4.22154 5.25874 4.37707L2.78958 8.65396C2.73349 8.64467 2.67687 8.63896 2.62005 8.63687C2.2598 8.63687 1.9143 8.77998 1.65957 9.03471C1.40483 9.28945 1.26172 9.63495 1.26172 9.9952C1.26172 10.3555 1.40483 10.7009 1.65957 10.9557C1.9143 11.2104 2.2598 11.3535 2.62005 11.3535C2.67687 11.3514 2.73349 11.3457 2.78958 11.3364L5.27142 15.6357C5.15992 15.7923 5.08302 15.9709 5.04583 16.1596C5.00864 16.3483 5.01201 16.5427 5.05571 16.73C5.09941 16.9173 5.18245 17.0931 5.29932 17.2458C5.41618 17.3986 5.56419 17.5247 5.73353 17.6158C5.90287 17.707 6.08965 17.761 6.28149 17.7745C6.47333 17.7879 6.66583 17.7603 6.84621 17.6937C7.02659 17.627 7.19072 17.5227 7.32772 17.3878C7.46471 17.2528 7.57143 17.0903 7.64079 16.9109H12.5275C12.6077 17.0856 12.7241 17.2412 12.8691 17.3674C13.014 17.4936 13.1842 17.5875 13.3682 17.6429C13.5523 17.6983 13.746 17.7139 13.9365 17.6886C14.1271 17.6634 14.31 17.5979 14.4733 17.4965C14.6366 17.395 14.7764 17.26 14.8835 17.1004C14.9905 16.9408 15.0624 16.7603 15.0943 16.5707C15.1262 16.3812 15.1175 16.1871 15.0686 16.0012C15.0197 15.8153 14.9318 15.642 14.8107 15.4927L17.2101 11.3364C17.2662 11.3457 17.3229 11.3514 17.3797 11.3535C17.74 11.3535 18.0855 11.2104 18.3402 10.9557C18.595 10.701 18.7381 10.3555 18.7381 9.99521C18.7381 9.63496 18.595 9.28946 18.3402 9.03472C18.0855 8.77998 17.74 8.63687 17.3797 8.63687L17.3797 8.63687ZM16.4016 9.05618L13.7541 7.76839C13.7973 7.52264 13.7681 7.26961 13.6699 7.0402C13.5718 6.81079 13.4089 6.61491 13.2013 6.47648L13.6835 4.95415C13.8163 4.95162 13.9481 4.92941 14.0744 4.88823L16.4524 9.0074C16.4352 9.02352 16.418 9.03915 16.4016 9.05618H16.4016ZM10.0099 10.6108L9.99703 10.5871L11.7991 8.7848C12.0573 8.92081 12.3529 8.96852 12.6407 8.92062C12.9285 8.87271 13.1927 8.73184 13.3928 8.51955L15.9691 9.77263L10.0099 10.6108ZM12.4228 16.0775H7.68723C7.62233 15.8272 7.48695 15.6008 7.29716 15.4251L8.6305 12.5446C8.88982 12.5892 9.15661 12.5447 9.38738 12.4182L12.5611 15.7024C12.4965 15.8198 12.4498 15.9463 12.4228 16.0776L12.4228 16.0775ZM12.8893 4.70216L12.4075 6.22274C12.1025 6.22535 11.8074 6.33155 11.5706 6.5239L7.65812 3.9413C7.66071 3.93179 7.66438 3.92283 7.66682 3.91322H12.3567C12.433 4.23196 12.6222 4.51225 12.8893 4.70219L12.8893 4.70216ZM7.19874 4.63688L11.1111 7.21927C11.0623 7.38042 11.0459 7.54964 11.0628 7.71716C11.0798 7.88469 11.1298 8.04719 11.2099 8.19528L9.40774 9.99795C9.21869 9.89888 9.00876 9.8463 8.79534 9.84455L7.14437 4.68174C7.16349 4.66796 7.18033 4.65158 7.19874 4.63688ZM5.9376 4.86678C6.0709 4.91223 6.21051 4.93645 6.35132 4.93855L8.00239 10.1016C7.84029 10.2193 7.70624 10.3714 7.60984 10.547L3.96208 9.83321C3.92541 9.51762 3.7785 9.2251 3.54724 9.00725L5.9376 4.86678ZM3.8026 10.6511L7.45057 11.3649C7.4878 11.6835 7.6375 11.9785 7.87274 12.1966L6.53931 15.0775C6.4858 15.0688 6.43181 15.0633 6.37764 15.0612C6.23041 15.0629 6.08446 15.0888 5.94562 15.1379L3.54721 10.9832C3.64905 10.8864 3.73521 10.7744 3.80259 10.6511H3.8026ZM14.1143 15.0335C13.7965 14.9377 13.4539 14.9695 13.1593 15.1223L9.9859 11.8385C10.0542 11.7127 10.102 11.5767 10.1272 11.4358L16.1625 10.5871C16.2342 10.7356 16.3325 10.8698 16.4525 10.9831L14.1143 15.0335Z" fill="#171723"/>
</svg>
