<svg width="20" height="20" viewBox="0 0 20 20" fill="none" xmlns="http://www.w3.org/2000/svg">
<g clip-path="url(#clip0_5313_35080)">
<path d="M16.6807 10.7387V7.3125C16.6802 6.80199 16.4772 6.31252 16.1162 5.95153C15.7552 5.59054 15.2657 5.38753 14.7552 5.38705H9.49886C9.40572 5.38741 9.31344 5.36925 9.22738 5.33363C9.14132 5.29801 9.0632 5.24563 8.99756 5.17955L7.64506 3.83597C7.50223 3.69254 7.33239 3.57885 7.14535 3.50147C6.95831 3.42409 6.75779 3.38455 6.55538 3.38514H3.73067C3.22146 3.38436 2.73275 3.58562 2.37176 3.94476C2.01078 4.3039 1.80701 4.79157 1.80518 5.30077V14.4796C1.80582 14.99 2.00891 15.4793 2.3699 15.8402C2.73088 16.201 3.22027 16.4039 3.73067 16.4043H9.42673C9.75006 17.0002 10.1994 17.5185 10.7434 17.9232C11.2874 18.3278 11.9131 18.609 12.5769 18.7472C13.2407 18.8854 13.9266 18.8774 14.5869 18.7235C15.2472 18.5697 15.8661 18.2738 16.4004 17.8565C16.9348 17.4391 17.3717 16.9104 17.6809 16.307C17.9901 15.7036 18.1641 15.04 18.1908 14.3626C18.2175 13.6851 18.0962 13.0099 17.8354 12.3841C17.5746 11.7582 17.1805 11.1968 16.6807 10.7387ZM3.73067 15.571C3.44125 15.5707 3.16374 15.4556 2.95902 15.2511C2.75429 15.0465 2.63904 14.7691 2.63855 14.4796V5.30077C2.64022 5.01254 2.75613 4.73673 2.96086 4.53383C3.16559 4.33093 3.44243 4.2175 3.73067 4.21841H6.55533C6.64848 4.21806 6.74076 4.23622 6.82682 4.27184C6.91288 4.30746 6.991 4.35984 7.05664 4.42591L8.40914 5.7695C8.55197 5.91292 8.72181 6.02662 8.90885 6.104C9.09589 6.18138 9.29641 6.22092 9.49883 6.22033H14.7552C15.0447 6.22064 15.3224 6.33581 15.5271 6.54057C15.7319 6.74532 15.847 7.02294 15.8473 7.3125V10.1252C15.0331 9.65697 14.0965 9.44543 13.16 9.51822C12.2236 9.59101 11.3309 9.94474 10.5988 10.5331C9.86671 11.1215 9.32922 11.9172 9.05669 12.8161C8.78415 13.7149 8.78925 14.6751 9.07132 15.571L3.73067 15.571ZM13.5247 18.0058C12.7661 18.0058 12.0245 17.7807 11.3937 17.3591C10.763 16.9376 10.2714 16.3385 9.98116 15.6375C9.69091 14.9366 9.61503 14.1653 9.76312 13.4213C9.91121 12.6772 10.2766 11.9938 10.8131 11.4574C11.3496 10.921 12.0331 10.5557 12.7772 10.4078C13.5213 10.2599 14.2926 10.3359 14.9934 10.6263C15.6943 10.9167 16.2933 11.4084 16.7148 12.0393C17.1362 12.6701 17.3611 13.4117 17.361 14.1704C17.3599 15.1874 16.9554 16.1625 16.2361 16.8816C15.5169 17.6006 14.5418 18.005 13.5247 18.0058Z" fill="#171723"/>
<path d="M16.015 14.0996C16.0129 14.0833 16.0097 14.0671 16.0055 14.0513C15.9895 13.9795 15.9543 13.9135 15.9037 13.8603L14.4608 12.4175C14.4223 12.3782 14.3763 12.3469 14.3256 12.3254C14.2749 12.304 14.2204 12.2928 14.1653 12.2925C14.1103 12.2922 14.0557 12.3028 14.0048 12.3238C13.9538 12.3447 13.9076 12.3756 13.8686 12.4145C13.8297 12.4534 13.7989 12.4997 13.7779 12.5506C13.757 12.6016 13.7463 12.6561 13.7466 12.7112C13.7469 12.7663 13.7581 12.8207 13.7795 12.8715C13.801 12.9222 13.8323 12.9681 13.8716 13.0067L14.6032 13.7383H11.4416C11.3311 13.7383 11.2251 13.7822 11.1469 13.8603C11.0688 13.9385 11.0249 14.0444 11.0249 14.1549C11.0249 14.2654 11.0688 14.3714 11.1469 14.4496C11.2251 14.5277 11.3311 14.5716 11.4416 14.5716H14.6028L13.8667 15.3073C13.8274 15.3458 13.7961 15.3918 13.7746 15.4425C13.7532 15.4932 13.742 15.5477 13.7417 15.6027C13.7414 15.6578 13.7521 15.7124 13.773 15.7633C13.7939 15.8142 13.8248 15.8605 13.8637 15.8994C13.9026 15.9384 13.9489 15.9692 13.9998 15.9902C14.0508 16.0111 14.1053 16.0217 14.1604 16.0215C14.2155 16.0212 14.2699 16.01 14.3207 15.9885C14.3714 15.9671 14.4173 15.9358 14.4559 15.8964L15.9036 14.4495C15.9408 14.4118 15.9705 14.3672 15.9909 14.3183L15.994 14.3145L15.9941 14.3134C16.0199 14.2452 16.0271 14.1714 16.015 14.0996Z" fill="#171723"/>
</g>
<defs>
<clipPath id="clip0_5313_35080">
<rect width="20" height="20" fill="white"/>
</clipPath>
</defs>
</svg>
