<svg width="20" height="20" viewBox="0 0 20 20" fill="none" xmlns="http://www.w3.org/2000/svg">
<g clip-path="url(#clip0_10314_144686)">
<path d="M15.5552 6.53397C15.5005 6.53394 15.4463 6.5447 15.3957 6.56563C15.3451 6.58656 15.2992 6.61725 15.2605 6.65594C15.2218 6.69464 15.1911 6.74059 15.1702 6.79115C15.1492 6.84172 15.1385 6.89591 15.1385 6.95064V15.2718C15.1377 15.8257 14.9173 16.3567 14.5255 16.7483C14.1337 17.14 13.6026 17.3602 13.0487 17.3608H4.72836C4.17442 17.3602 3.64331 17.14 3.25154 16.7483C2.85977 16.3567 2.63931 15.8257 2.63851 15.2718V6.95064C2.63914 6.39657 2.85952 5.86537 3.2513 5.47359C3.64309 5.0818 4.17429 4.86142 4.72836 4.8608H13.0487C13.1592 4.8608 13.2652 4.8169 13.3433 4.73876C13.4214 4.66062 13.4653 4.55464 13.4653 4.44413C13.4653 4.33363 13.4214 4.22764 13.3433 4.1495C13.2652 4.07136 13.1592 4.02747 13.0487 4.02747H4.72836C3.95332 4.02824 3.21025 4.33647 2.66221 4.8845C2.11418 5.43253 1.80595 6.1756 1.80518 6.95064V15.2718C1.80612 16.0467 2.11443 16.7896 2.66245 17.3374C3.21047 17.8853 3.95345 18.1934 4.72836 18.1941H13.0487C13.8236 18.1934 14.5666 17.8853 15.1146 17.3374C15.6626 16.7896 15.9709 16.0467 15.9718 15.2718V6.95064C15.9719 6.89591 15.9611 6.84172 15.9402 6.79115C15.9193 6.74059 15.8886 6.69464 15.8499 6.65594C15.8112 6.61724 15.7652 6.58655 15.7147 6.56563C15.6641 6.5447 15.6099 6.53394 15.5552 6.53397Z" fill="#171723"/>
<path d="M18.1623 2.06335C18.1307 1.98731 18.0773 1.92231 18.0089 1.87648C17.9405 1.83066 17.86 1.80607 17.7777 1.80579H14.4444C14.3338 1.80579 14.2279 1.84968 14.1497 1.92783C14.0716 2.00597 14.0277 2.11195 14.0277 2.22245C14.0277 2.33296 14.0716 2.43894 14.1497 2.51708C14.2279 2.59522 14.3338 2.63912 14.4444 2.63912H16.7719L11.9199 7.49099C11.8806 7.52954 11.8493 7.57549 11.8279 7.62621C11.8064 7.67692 11.7952 7.73138 11.7949 7.78645C11.7946 7.84151 11.8053 7.89609 11.8262 7.94702C11.8472 7.99794 11.878 8.04421 11.9169 8.08315C11.9559 8.12209 12.0022 8.15292 12.0531 8.17387C12.104 8.19481 12.1586 8.20545 12.2137 8.20517C12.2687 8.2049 12.3232 8.1937 12.3739 8.17225C12.4246 8.15079 12.4706 8.11949 12.5091 8.08016L17.361 3.22827V5.55577C17.361 5.66628 17.4049 5.77226 17.483 5.8504C17.5612 5.92854 17.6672 5.97244 17.7777 5.97244C17.8882 5.97244 17.9942 5.92854 18.0723 5.8504C18.1504 5.77226 18.1943 5.66628 18.1943 5.55577V2.22244C18.1942 2.16782 18.1833 2.11377 18.1623 2.06335Z" fill="#171723"/>
</g>
<defs>
<clipPath id="clip0_10314_144686">
<rect width="20" height="20" fill="white"/>
</clipPath>
</defs>
</svg>
