<svg width="20" height="20" viewBox="0 0 20 20" fill="none" xmlns="http://www.w3.org/2000/svg">
<g clip-path="url(#clip0_5313_35236)">
<path d="M12.4137 8.44687L6.29551 5.02158C6.01841 4.87693 5.70852 4.80666 5.39613 4.81764C5.08374 4.82863 4.77954 4.92049 4.51329 5.08425C4.23251 5.25534 4.00097 5.4964 3.84134 5.78385C3.68171 6.0713 3.59945 6.39527 3.60263 6.72405V13.2768C3.59956 13.6056 3.68176 13.9295 3.84122 14.2171C4.00068 14.5046 4.23195 14.7459 4.51246 14.9174C4.79647 15.091 5.12279 15.1831 5.45566 15.1835C5.75214 15.1828 6.0441 15.1108 6.30689 14.9735L12.4129 11.5572C12.6894 11.4025 12.9198 11.1769 13.0801 10.9036C13.2405 10.6303 13.325 10.3191 13.3251 10.0023C13.3252 9.68538 13.2408 9.3742 13.0806 9.1008C12.9204 8.82739 12.6902 8.60165 12.4137 8.44684L12.4137 8.44687Z" fill="#171723"/>
<path d="M16.3976 5.64986V14.3502C16.3976 14.5712 16.3098 14.7832 16.1535 14.9395C15.9973 15.0957 15.7853 15.1835 15.5643 15.1835C15.3433 15.1835 15.1313 15.0957 14.975 14.9395C14.8188 14.7832 14.731 14.5712 14.731 14.3502V5.64986C14.731 5.42885 14.8188 5.21689 14.975 5.06061C15.1313 4.90433 15.3433 4.81653 15.5643 4.81653C15.7853 4.81653 15.9973 4.90433 16.1535 5.06061C16.3098 5.21689 16.3976 5.42885 16.3976 5.64986Z" fill="#171723"/>
</g>
<defs>
<clipPath id="clip0_5313_35236">
<rect width="20" height="20" fill="white"/>
</clipPath>
</defs>
</svg>
