<svg width="24" height="24" viewBox="0 0 24 24" fill="none" xmlns="http://www.w3.org/2000/svg">
<path d="M18.179 8.03771C18.1281 8.03966 18.0774 8.04477 18.0272 8.05302L16.08 4.67964C16.1859 4.53727 16.2603 4.37402 16.2983 4.20072C16.3363 4.02742 16.3371 3.84802 16.3005 3.67441C16.264 3.50079 16.1909 3.33693 16.0863 3.19367C15.9816 3.05042 15.8477 2.93104 15.6934 2.84346C15.5391 2.75587 15.3679 2.70208 15.1913 2.68563C15.0146 2.66919 14.8365 2.69048 14.6687 2.74808C14.5009 2.80569 14.3472 2.8983 14.2179 3.01977C14.0886 3.14125 13.9866 3.28882 13.9186 3.45271H10.1094C10.0436 3.28756 9.94347 3.13831 9.81558 3.01486C9.68769 2.89141 9.53499 2.7966 9.36763 2.73672C9.20027 2.67684 9.02208 2.65327 8.8449 2.66758C8.66773 2.68188 8.49563 2.73373 8.34004 2.81969C8.18446 2.90564 8.04895 3.02373 7.94252 3.16609C7.8361 3.30846 7.76119 3.47185 7.72279 3.64541C7.68439 3.81896 7.68336 3.9987 7.71979 4.17267C7.75621 4.34665 7.82925 4.51089 7.93405 4.65446L5.97193 8.05301C5.92187 8.04481 5.87135 8.03971 5.82066 8.03775C5.48801 8.03775 5.16899 8.16989 4.93377 8.40511C4.69855 8.64033 4.56641 8.95935 4.56641 9.292C4.56641 9.62465 4.69855 9.94367 4.93377 10.1789C5.16899 10.4141 5.48801 10.5462 5.82066 10.5462C5.87148 10.5443 5.92212 10.5392 5.97232 10.531L7.94479 13.9481C7.84221 14.0926 7.77147 14.2573 7.73724 14.4311C7.70302 14.605 7.7061 14.7842 7.74627 14.9568C7.78643 15.1294 7.86278 15.2915 7.97026 15.4324C8.07774 15.5733 8.21391 15.6898 8.36975 15.7742C8.5256 15.8585 8.69758 15.9089 8.87432 15.9218C9.05106 15.9348 9.22854 15.9101 9.39503 15.8494C9.56151 15.7886 9.71321 15.6933 9.8401 15.5695C9.96699 15.4458 10.0662 15.2966 10.1311 15.1317H14.0105C14.0844 15.2927 14.1917 15.4362 14.3252 15.5527C14.4587 15.6692 14.6155 15.7559 14.7851 15.8072C14.9546 15.8586 15.1332 15.8733 15.3089 15.8504C15.4846 15.8275 15.6534 15.7676 15.8042 15.6745C15.955 15.5815 16.0843 15.4574 16.1835 15.3107C16.2828 15.1639 16.3497 14.9977 16.3799 14.8231C16.4101 14.6485 16.4028 14.4695 16.3586 14.2979C16.3144 14.1263 16.2342 13.9661 16.1234 13.8279L18.0276 10.5309C18.0777 10.5391 18.1283 10.5442 18.1791 10.5462C18.5117 10.5462 18.8307 10.4141 19.0659 10.1788C19.3012 9.94363 19.4333 9.62461 19.4333 9.29196C19.4333 8.95931 19.3012 8.64029 19.0659 8.40507C18.8307 8.16985 18.5117 8.03771 18.1791 8.03771H18.179ZM17.2844 8.41429L15.2599 7.42929C15.2978 7.20697 15.2708 6.97844 15.1821 6.7711C15.0933 6.56376 14.9467 6.3864 14.7597 6.26029L15.0996 5.18644C15.2091 5.18335 15.3177 5.16579 15.4226 5.13423L17.3046 8.39473L17.2844 8.41429ZM13.9196 14.3353H10.1699C10.1098 14.1165 9.99114 13.9182 9.82675 13.7617L10.8536 11.5436C10.8984 11.5506 10.9435 11.5552 10.9888 11.5572C11.1749 11.5563 11.3585 11.5135 11.5258 11.4321L14.0346 14.0284C13.9829 14.1251 13.9442 14.2283 13.9196 14.3352V14.3353ZM14.3401 4.94587L14.0008 6.01787C13.729 6.02287 13.4663 6.11695 13.253 6.28567L10.167 4.24917H13.8667C13.9392 4.52916 14.1065 4.77536 14.3401 4.94583V4.94587ZM9.71615 4.90543L12.8138 6.95001C12.7293 7.24256 12.7612 7.55644 12.9028 7.82601L11.5448 9.18401C11.3777 9.09933 11.1936 9.05365 11.0062 9.05038L9.68753 4.92891C9.69745 4.92157 9.70639 4.91301 9.71611 4.90539L9.71615 4.90543ZM12.1119 9.74334L13.4661 8.38901C13.7018 8.50936 13.9699 8.55087 14.2309 8.50743C14.4919 8.46399 14.7321 8.3379 14.9161 8.14771L16.8313 9.07982L12.1119 9.74334ZM8.58699 5.11626C8.69789 5.15121 8.81315 5.17042 8.9294 5.17333L10.2479 9.2956C10.107 9.40002 9.98956 9.53289 9.90327 9.6856L7.05848 9.12906C7.02346 8.8501 6.89519 8.59118 6.69448 8.39431L8.58699 5.11626ZM6.90584 9.91001L9.75111 10.4668C9.78749 10.7513 9.92093 11.0146 10.1289 11.2121L9.10197 13.4303C8.93115 13.4009 8.75557 13.4179 8.5936 13.4796L6.69448 10.1896C6.77767 10.1068 6.84882 10.0126 6.90584 9.91001ZM15.4555 13.3919C15.172 13.3127 14.8693 13.3418 14.6061 13.4736L12.0976 10.8776C12.1554 10.7692 12.1966 10.6529 12.2199 10.5323L17.0619 9.85148C17.1236 9.97701 17.2058 10.0913 17.3052 10.1897L15.4555 13.3919Z" fill="#171723"/>
<path d="M7.01758 21.2825H6.40137V18.0687H5.30762V17.5472H8.1084V18.0687H7.01758V21.2825Z" fill="#171723"/>
<path d="M10.2588 18.4007C10.3066 18.4007 10.3584 18.4037 10.415 18.4085C10.4639 18.4124 10.5125 18.4193 10.5606 18.4291L10.5039 18.9906C10.461 18.9793 10.4172 18.9718 10.3731 18.9681C10.3203 18.9632 10.2744 18.9603 10.2334 18.9603C10.1289 18.9598 10.0251 18.9776 9.92676 19.013C9.83059 19.0469 9.74271 19.1008 9.66895 19.1712C9.59125 19.2453 9.53089 19.3357 9.49219 19.4359C9.4479 19.5531 9.42636 19.6778 9.42871 19.8031V21.2826H8.82617V18.4544H9.2959L9.3779 18.9524H9.40524C9.46202 18.8513 9.5327 18.7586 9.61524 18.6771C9.6982 18.5934 9.79543 18.5253 9.90235 18.4759C10.0143 18.4252 10.1359 18.3996 10.2588 18.4007Z" fill="#171723"/>
<path d="M12.4025 18.4007C12.6927 18.3798 12.9808 18.4641 13.214 18.638C13.3114 18.7338 13.3865 18.8499 13.4339 18.978C13.4813 19.1061 13.5 19.2431 13.4884 19.3792V21.2825H13.0617L12.9464 20.8812H12.9259C12.8541 20.9755 12.7708 21.0605 12.6779 21.1341C12.59 21.2022 12.4899 21.2529 12.383 21.2835C12.2503 21.3195 12.1132 21.3362 11.9758 21.3333C11.8201 21.3359 11.6657 21.3042 11.5236 21.2405C11.3924 21.1795 11.2828 21.0801 11.2092 20.9554C11.1275 20.807 11.0877 20.6393 11.094 20.47C11.0867 20.3417 11.113 20.2138 11.1702 20.0987C11.2273 19.9837 11.3135 19.8855 11.4201 19.8138C11.7205 19.645 12.0611 19.561 12.4055 19.5706L12.8957 19.553V19.4046C12.9086 19.3323 12.9043 19.2579 12.883 19.1876C12.8618 19.1173 12.8242 19.053 12.7733 19C12.7225 18.947 12.6598 18.9067 12.5905 18.8825C12.5211 18.8583 12.447 18.8508 12.3742 18.8607C12.2349 18.8603 12.0963 18.8811 11.9631 18.9222C11.8301 18.963 11.7003 19.0133 11.5744 19.0726L11.3801 18.6487C11.6964 18.4861 12.0469 18.4011 12.4025 18.4007L12.4025 18.4007ZM12.8927 19.931L12.5275 19.9437C12.3068 19.933 12.0878 19.9863 11.8966 20.097C11.8378 20.1404 11.7906 20.1975 11.7589 20.2634C11.7272 20.3293 11.7122 20.4019 11.715 20.4749C11.71 20.5321 11.7188 20.5897 11.7405 20.6429C11.7623 20.696 11.7964 20.7432 11.84 20.7806C11.9364 20.8481 12.0525 20.8818 12.1701 20.8763C12.3586 20.8828 12.5429 20.8195 12.6877 20.6986C12.7586 20.6322 12.8138 20.5509 12.8492 20.4605C12.8847 20.3701 12.8996 20.273 12.8927 20.1761V19.931Z" fill="#171723"/>
<path d="M14.8418 17.3715C14.9272 17.3692 15.011 17.3953 15.0801 17.4457C15.1453 17.5143 15.1816 17.6054 15.1816 17.7001C15.1816 17.7947 15.1453 17.8858 15.0801 17.9545C15.01 18.004 14.9262 18.0306 14.8403 18.0306C14.7545 18.0306 14.6707 18.004 14.6006 17.9545C14.5371 17.8849 14.502 17.7942 14.502 17.7001C14.502 17.6059 14.5371 17.5152 14.6006 17.4457C14.6704 17.3946 14.7554 17.3684 14.8418 17.3715ZM15.1377 18.4545V21.2826H14.5381V18.4545L15.1377 18.4545Z" fill="#171723"/>
<path d="M17.6807 18.4007C17.9514 18.3844 18.2181 18.4725 18.4258 18.6468C18.5228 18.7529 18.5965 18.878 18.6424 19.0142C18.6883 19.1504 18.7054 19.2947 18.6924 19.4378V21.2825H18.0918V19.5501C18.1047 19.3749 18.0571 19.2005 17.957 19.056C17.9043 18.9985 17.8392 18.9538 17.7666 18.9252C17.694 18.8966 17.6159 18.8849 17.5381 18.891C17.429 18.8792 17.3188 18.8963 17.2185 18.9407C17.1182 18.9851 17.0313 19.0552 16.9668 19.1439C16.8468 19.369 16.7914 19.6228 16.8066 19.8773V21.2826H16.207V18.4544H16.6738L16.7588 18.8372H16.792C16.8505 18.741 16.9283 18.6578 17.0205 18.5931C17.114 18.5285 17.2177 18.4799 17.3272 18.4495C17.4422 18.4169 17.5612 18.4004 17.6807 18.4007Z" fill="#171723"/>
</svg>
