<svg width="20" height="20" viewBox="0 0 20 20" fill="none" xmlns="http://www.w3.org/2000/svg">
<g clip-path="url(#clip0_5313_35055)">
<path d="M16.0494 13.4365L15.3666 12.8684C15.2207 12.7474 15.1034 12.5956 15.0229 12.424C14.9425 12.2524 14.9009 12.0652 14.9011 11.8756V8.35917C14.9024 7.71645 14.7763 7.07985 14.53 6.48618C14.2838 5.89251 13.9222 5.35356 13.4664 4.90051C12.9719 4.40798 12.3763 4.02887 11.7207 3.78947V3.52926C11.7207 3.07223 11.5392 2.63392 11.216 2.31075C10.8929 1.98758 10.4545 1.80603 9.99752 1.80603C9.54049 1.80603 9.10218 1.98758 8.77902 2.31075C8.45585 2.63392 8.2743 3.07223 8.2743 3.52926V3.80565C7.68339 4.04281 7.14438 4.39286 6.68738 4.83622C6.18733 5.32009 5.78917 5.89914 5.51636 6.53926C5.24354 7.17937 5.10158 7.86761 5.09884 8.56344V11.8756C5.09907 12.0649 5.05763 12.2519 4.97746 12.4233C4.89729 12.5948 4.78036 12.7465 4.63497 12.8676L3.95056 13.4365C3.70031 13.6479 3.52054 13.9306 3.4353 14.2469C3.35006 14.5632 3.36341 14.898 3.47356 15.2065C3.58371 15.515 3.78542 15.7826 4.05171 15.9734C4.31801 16.1642 4.6362 16.2691 4.96375 16.2742H7.70036C7.79761 16.8129 8.08102 17.3004 8.5011 17.6514C8.92118 18.0025 9.45123 18.1948 9.99867 18.1948C10.5461 18.1948 11.0762 18.0025 11.4962 17.6514C11.9163 17.3004 12.1997 16.8129 12.297 16.2742H15.037C15.4566 16.2736 15.8588 16.1066 16.1555 15.8099C16.4523 15.5132 16.6192 15.111 16.6198 14.6914V14.6539C16.6202 14.4215 16.5693 14.1919 16.4707 13.9814C16.3721 13.771 16.2282 13.5849 16.0494 13.4365ZM9.10765 3.52926C9.10765 3.29324 9.2014 3.06689 9.36829 2.90001C9.53518 2.73312 9.76152 2.63936 9.99754 2.63936C10.2336 2.63936 10.4599 2.73312 10.6268 2.90001C10.7937 3.06689 10.8874 3.29324 10.8874 3.52926V3.55708C10.6489 3.50853 10.4071 3.47774 10.164 3.46496C9.80941 3.45723 9.4551 3.48919 9.10765 3.56023V3.52926ZM9.9955 17.3614C9.67043 17.3603 9.35451 17.2537 9.09522 17.0577C8.83593 16.8616 8.64728 16.5867 8.55765 16.2742H11.4395C11.3487 16.5872 11.1589 16.8623 10.8986 17.0584C10.6382 17.2544 10.3214 17.3607 9.99549 17.3614H9.9955ZM15.7865 14.6914C15.7863 14.8901 15.7073 15.0806 15.5668 15.2212C15.4263 15.3617 15.2357 15.4407 15.037 15.4409H4.96375C4.86244 15.4397 4.7624 15.4182 4.6695 15.3778C4.57661 15.3374 4.49274 15.2788 4.42283 15.2054C4.35292 15.1321 4.29837 15.0456 4.26241 14.9508C4.22645 14.8561 4.20979 14.7552 4.21342 14.6539C4.21322 14.544 4.23725 14.4354 4.28381 14.3358C4.33037 14.2362 4.39831 14.1481 4.4828 14.0778L5.16801 13.5081C5.40751 13.3089 5.60016 13.0593 5.73224 12.7771C5.86432 12.4949 5.93258 12.1871 5.93218 11.8756V8.56344C5.9348 7.97936 6.05423 7.4017 6.28344 6.86447C6.51264 6.32723 6.84699 5.84127 7.26681 5.43518C7.99695 4.71158 8.98138 4.30261 10.0093 4.29586C10.0516 4.29586 10.0939 4.29667 10.1363 4.2983C11.1899 4.33428 12.1885 4.77765 12.9218 5.53509C13.6551 6.29252 14.0659 7.30493 14.0677 8.35917V11.8756C14.0675 12.1874 14.1359 12.4955 14.2683 12.7778C14.4007 13.0601 14.5937 13.3097 14.8335 13.5089L15.5171 14.0778C15.6016 14.1481 15.6696 14.2362 15.7161 14.3358C15.7627 14.4354 15.7867 14.544 15.7865 14.654L15.7865 14.6914Z" fill="#171723"/>
</g>
<defs>
<clipPath id="clip0_5313_35055">
<rect width="20" height="20" fill="white"/>
</clipPath>
</defs>
</svg>
