<svg width="20" height="20" viewBox="0 0 20 20" fill="none" xmlns="http://www.w3.org/2000/svg">
<path d="M5.42773 7.16583H7.72357L6.57523 4.40833L5.42773 7.16583Z" fill="#171723"/>
<path d="M8.02267 7.89414H5.12756L4.32231 9.8129C4.29504 9.88555 4.24564 9.94779 4.18107 9.99083C4.11651 10.0339 4.04005 10.0555 3.96251 10.0528C3.90549 10.0537 3.84899 10.0418 3.79712 10.0181C3.74526 9.99439 3.69935 9.9594 3.66272 9.91568C3.62753 9.87349 3.60295 9.82348 3.59103 9.76983C3.57912 9.71619 3.58022 9.66048 3.59424 9.60735L6.23246 3.28581C6.25786 3.22738 6.29975 3.17762 6.35299 3.14264C6.40624 3.10765 6.46853 3.08894 6.53224 3.08882H6.61798C6.68085 3.08791 6.74248 3.10632 6.79456 3.14154C6.84664 3.17677 6.88666 3.22712 6.90922 3.28581L9.20487 8.78497C9.36456 8.69575 9.54433 8.6486 9.72726 8.64794H10.9266V2.87464C10.9266 2.78914 10.9098 2.70447 10.8771 2.62548C10.8444 2.54648 10.7964 2.4747 10.736 2.41424C10.6755 2.35379 10.6037 2.30583 10.5247 2.27313C10.4458 2.24042 10.3611 2.2236 10.2756 2.22363H2.87463C2.78913 2.2236 2.70447 2.24042 2.62547 2.27313C2.54647 2.30583 2.47469 2.35379 2.41424 2.41424C2.35378 2.4747 2.30583 2.54648 2.27312 2.62548C2.24042 2.70447 2.2236 2.78914 2.22363 2.87464V10.2755C2.2236 10.361 2.24042 10.4456 2.27313 10.5246C2.30583 10.6036 2.35379 10.6754 2.41424 10.7359C2.4747 10.7963 2.54648 10.8443 2.62547 10.877C2.70447 10.9097 2.78914 10.9265 2.87463 10.9264H8.64797V9.72727C8.64682 9.64418 8.65731 9.56133 8.67913 9.48115L8.66512 9.44458L8.02267 7.89414Z" fill="#171723"/>
<path d="M13.4433 15.193C13.4788 15.2269 13.5071 15.2676 13.5265 15.3127C13.5458 15.3579 13.5558 15.4064 13.5558 15.4555C13.5558 15.5046 13.5458 15.5532 13.5265 15.5983C13.5071 15.6435 13.4788 15.6842 13.4433 15.718C13.374 15.7856 13.2817 15.8244 13.185 15.8264C13.0864 15.8214 12.9924 15.7833 12.9183 15.718L11.1599 13.943C11.1245 13.9109 11.0961 13.8716 11.0768 13.8279C11.0574 13.7841 11.0474 13.7367 11.0474 13.6889C11.0474 13.641 11.0574 13.5937 11.0768 13.5499C11.0961 13.5061 11.1245 13.4669 11.1599 13.4347C11.1938 13.3992 11.2345 13.3709 11.2796 13.3515C11.3247 13.3322 11.3733 13.3222 11.4224 13.3222C11.4715 13.3222 11.5201 13.3322 11.5652 13.3515C11.6103 13.3709 11.6511 13.3992 11.6849 13.4347L13.4433 15.193Z" fill="#171723"/>
<path d="M14.4265 14.2097C14.462 14.2436 14.4903 14.2843 14.5097 14.3294C14.529 14.3745 14.539 14.4231 14.539 14.4722C14.539 14.5213 14.529 14.5699 14.5097 14.615C14.4903 14.6601 14.462 14.7008 14.4265 14.7347C14.3556 14.7987 14.2636 14.8343 14.1681 14.8347C14.0701 14.8344 13.9754 14.7989 13.9014 14.7347L12.1432 12.9597C12.0746 12.8912 12.0361 12.7983 12.0361 12.7014C12.0361 12.6045 12.0746 12.5116 12.1431 12.4431C12.2116 12.3746 12.3045 12.3361 12.4014 12.3361C12.4983 12.3361 12.5912 12.3745 12.6597 12.443L14.4265 14.2097Z" fill="#171723"/>
<path d="M15.4095 12.0014C15.4622 12.1499 15.4714 12.3103 15.436 12.4639C15.4006 12.6174 15.322 12.7576 15.2095 12.868C15.1319 12.9485 15.0386 13.0122 14.9354 13.0552C14.8322 13.0982 14.7213 13.1196 14.6095 13.118C14.4853 13.1186 14.3625 13.092 14.2498 13.0398C14.137 12.9877 14.0371 12.9115 13.9571 12.8165C13.8771 12.7215 13.8189 12.6101 13.7867 12.4901C13.7546 12.3701 13.7492 12.2446 13.7709 12.1223C13.7926 12 13.8409 11.884 13.9125 11.7824C13.984 11.6809 14.077 11.5963 14.1848 11.5347C14.2927 11.4731 14.4127 11.4359 14.5365 11.4258C14.6603 11.4157 14.7848 11.433 14.9012 11.4764L14.5762 11.793L14.3512 12.0097C14.3165 12.0441 14.289 12.0849 14.2702 12.13C14.2515 12.1751 14.2418 12.2234 14.2418 12.2722C14.2418 12.321 14.2515 12.3693 14.2702 12.4144C14.289 12.4594 14.3165 12.5003 14.3512 12.5347C14.4241 12.5953 14.5148 12.6304 14.6096 12.6347C14.7076 12.6344 14.8022 12.5989 14.8762 12.5347L15.1012 12.318L15.4095 12.0014Z" fill="#171723"/>
<path d="M17.1262 9.07641H9.72613C9.68985 9.07471 9.6535 9.0775 9.6179 9.0847C9.52221 9.10114 9.43122 9.1381 9.35117 9.19303C9.20062 9.30905 9.10182 9.4797 9.07617 9.66803V17.1264C9.07639 17.2987 9.14493 17.4639 9.26677 17.5857C9.3886 17.7076 9.55379 17.7761 9.7261 17.7764H17.1262C17.2985 17.7761 17.4637 17.7076 17.5856 17.5857C17.7074 17.4639 17.776 17.2987 17.7762 17.1264V9.72637C17.776 9.55406 17.7074 9.38887 17.5856 9.26703C17.4637 9.14519 17.2985 9.07664 17.1262 9.07641ZM16.2762 11.3431L16.5012 13.3931C16.5171 13.5192 16.5035 13.6473 16.4616 13.7673C16.4196 13.8873 16.3505 13.9959 16.2596 14.0847L13.8096 16.5347C13.6516 16.6897 13.4392 16.7765 13.2179 16.7765C12.9967 16.7765 12.7842 16.6897 12.6263 16.5347L10.3512 14.2514C10.2721 14.1753 10.2093 14.0841 10.1663 13.9831C10.1234 13.8822 10.1012 13.7736 10.1012 13.6639C10.1012 13.5542 10.1234 13.4456 10.1663 13.3447C10.2093 13.2437 10.2721 13.1525 10.3512 13.0764L12.8096 10.6181C12.8952 10.528 13.0012 10.4598 13.1186 10.4192C13.2361 10.3786 13.3616 10.3668 13.4845 10.3847L15.5346 10.6014C15.6015 10.6093 15.6664 10.629 15.7263 10.6597L15.9346 10.4514C15.9676 10.4159 16.0076 10.3876 16.052 10.3682C16.0965 10.3489 16.1445 10.3389 16.1929 10.3389C16.2414 10.3389 16.2894 10.3489 16.3338 10.3682C16.3783 10.3876 16.4182 10.4159 16.4513 10.4514C16.4853 10.4863 16.5122 10.5277 16.5302 10.573C16.5483 10.6184 16.5572 10.6668 16.5564 10.7156C16.5556 10.7644 16.5452 10.8126 16.5257 10.8574C16.5062 10.9021 16.4781 10.9426 16.4429 10.9764L16.2429 11.1847C16.2512 11.2347 16.2679 11.2847 16.2762 11.3431L16.2762 11.3431Z" fill="#171723"/>
</svg>
