<svg width="21" height="20" viewBox="0 0 21 20" fill="none" xmlns="http://www.w3.org/2000/svg">
<g clip-path="url(#clip0_10314_145408)">
<path d="M8.43213 1.78455H12.6281C12.959 1.78456 13.2763 1.91601 13.5102 2.14997C13.7442 2.38393 13.8756 2.70124 13.8756 3.0321V7.22888C13.8756 7.3926 13.8434 7.55473 13.7807 7.70599C13.7181 7.85725 13.6262 7.99469 13.5105 8.11046C13.3947 8.22623 13.2572 8.31806 13.106 8.38072C12.9547 8.44337 12.7926 8.47562 12.6289 8.47562H8.43132C8.2676 8.47562 8.10547 8.44338 7.95421 8.38072C7.80295 8.31807 7.66551 8.22623 7.54974 8.11046C7.43396 7.99469 7.34213 7.85725 7.27947 7.70599C7.21682 7.55473 7.18457 7.3926 7.18457 7.22888V3.0321C7.18457 2.86827 7.21684 2.70605 7.27954 2.55468C7.34223 2.40332 7.43413 2.26579 7.54997 2.14995C7.66582 2.0341 7.80335 1.94221 7.95471 1.87951C8.10607 1.81681 8.2683 1.78455 8.43213 1.78455Z" fill="#171723"/>
<path d="M9.05409 13.2592H12.0074C12.1388 13.2592 12.269 13.2851 12.3904 13.3354C12.5119 13.3857 12.6222 13.4594 12.7152 13.5524C12.8081 13.6453 12.8818 13.7557 12.9321 13.8771C12.9824 13.9985 13.0083 14.1287 13.0083 14.2602V17.2143C13.0083 17.48 12.9028 17.7348 12.7149 17.9226C12.527 18.1105 12.2722 18.2161 12.0065 18.2161H9.05404C8.78835 18.2161 8.53354 18.1105 8.34566 17.9226C8.15779 17.7348 8.05225 17.48 8.05225 17.2143V14.261C8.05224 14.1294 8.07815 13.9991 8.1285 13.8776C8.17884 13.756 8.25264 13.6456 8.34567 13.5526C8.4387 13.4595 8.54915 13.3857 8.6707 13.3354C8.79225 13.2851 8.92252 13.2591 9.05409 13.2592Z" fill="#171723"/>
<path d="M14.769 13.2592H17.7231C17.9886 13.2592 18.2432 13.3646 18.4309 13.5523C18.6187 13.7401 18.7241 13.9947 18.7241 14.2601V17.2142C18.7241 17.4799 18.6186 17.7347 18.4307 17.9226C18.2428 18.1105 17.988 18.216 17.7223 18.216H14.769C14.5036 18.216 14.249 18.1106 14.0612 17.9228C13.8735 17.7351 13.7681 17.4805 13.7681 17.215V14.2601C13.7681 13.9947 13.8735 13.7401 14.0612 13.5523C14.249 13.3646 14.5036 13.2592 14.769 13.2592Z" fill="#171723"/>
<path d="M6.29004 13.2592H3.33675C2.78348 13.2592 2.33496 13.7077 2.33496 14.2609V17.2142C2.33496 17.7675 2.78348 18.216 3.33675 18.216H6.29004C6.84331 18.216 7.29183 17.7675 7.29183 17.2142V14.2609C7.29183 13.7077 6.84331 13.2592 6.29004 13.2592Z" fill="#171723"/>
<path d="M4.81315 12.8385C4.86788 12.8385 4.92207 12.8278 4.97264 12.8069C5.02321 12.7859 5.06915 12.7552 5.10785 12.7165C5.14654 12.6778 5.17723 12.6319 5.19816 12.5813C5.21909 12.5308 5.22985 12.4766 5.22982 12.4218V11.0465H10.1134V12.4218C10.1134 12.5323 10.1573 12.6383 10.2355 12.7165C10.3136 12.7946 10.4196 12.8385 10.5301 12.8385C10.6406 12.8385 10.7466 12.7946 10.8247 12.7165C10.9029 12.6383 10.9468 12.5323 10.9468 12.4218V11.0465H15.8304V12.4218C15.8304 12.5323 15.8743 12.6383 15.9524 12.7165C16.0306 12.7946 16.1366 12.8385 16.2471 12.8385C16.3576 12.8385 16.4636 12.7946 16.5417 12.7165C16.6198 12.6383 16.6637 12.5323 16.6637 12.4218V10.6298C16.6638 10.5751 16.653 10.5209 16.6321 10.4704C16.6112 10.4198 16.5805 10.3738 16.5418 10.3351C16.5031 10.2965 16.4571 10.2658 16.4066 10.2448C16.356 10.2239 16.3018 10.2131 16.2471 10.2132H10.9468V9.30497C10.9468 9.19447 10.9029 9.08848 10.8248 9.01034C10.7466 8.9322 10.6407 8.88831 10.5301 8.88831C10.4196 8.88831 10.3137 8.9322 10.2355 9.01034C10.1574 9.08848 10.1135 9.19447 10.1135 9.30497V10.2132H4.81315C4.75842 10.2131 4.70423 10.2239 4.65366 10.2448C4.6031 10.2658 4.55715 10.2965 4.51845 10.3351C4.47976 10.3738 4.44907 10.4198 4.42814 10.4704C4.40721 10.5209 4.39645 10.5751 4.39648 10.6298V12.4218C4.39645 12.4766 4.40721 12.5308 4.42814 12.5813C4.44907 12.6319 4.47976 12.6778 4.51846 12.7165C4.55715 12.7552 4.6031 12.7859 4.65366 12.8069C4.70423 12.8278 4.75843 12.8385 4.81315 12.8385Z" fill="#171723"/>
</g>
<defs>
<clipPath id="clip0_10314_145408">
<rect width="20" height="20" fill="white" transform="translate(0.529785)"/>
</clipPath>
</defs>
</svg>
