<svg width="12" height="12" viewBox="0 0 12 12" fill="none" xmlns="http://www.w3.org/2000/svg">
<g clip-path="url(#clip0_10314_146646)">
<path d="M6.00002 9.58326C5.29131 9.58331 4.59851 9.37321 4.00922 8.97951C3.41993 8.58582 2.96062 8.02623 2.68936 7.37149C2.41811 6.71676 2.3471 5.99629 2.48531 5.30119C2.62352 4.6061 2.96475 3.9676 3.46584 3.46644C3.96693 2.96528 4.60538 2.62396 5.30046 2.48565C5.99553 2.34734 6.71601 2.41825 7.37078 2.68941C8.02556 2.96058 8.58522 3.41981 8.97899 4.00905C9.37277 4.59829 9.58297 5.29106 9.58302 5.99976C9.58199 6.94976 9.20418 7.86056 8.53247 8.53236C7.86077 9.20416 6.95002 9.5821 6.00002 9.58326ZM6.00002 2.91676C5.39018 2.91671 4.79403 3.0975 4.28695 3.43628C3.77988 3.77505 3.38465 4.25658 3.15125 4.81999C2.91786 5.38339 2.85678 6.00335 2.97574 6.60147C3.0947 7.19958 3.38835 7.74899 3.81957 8.18021C4.25079 8.61142 4.80019 8.90508 5.39831 9.02404C5.99643 9.143 6.61639 9.08192 7.17979 8.84852C7.74319 8.61513 8.22473 8.2199 8.5635 7.71282C8.90227 7.20574 9.08307 6.60959 9.08302 5.99976C9.08206 5.18239 8.75693 4.39878 8.17897 3.82081C7.601 3.24284 6.81738 2.91772 6.00002 2.91675V2.91676Z" fill="#171723"/>
</g>
<defs>
<clipPath id="clip0_10314_146646">
<rect width="12" height="12" fill="white"/>
</clipPath>
</defs>
</svg>
