<svg width="20" height="20" viewBox="0 0 20 20" fill="none" xmlns="http://www.w3.org/2000/svg">
<path d="M14.425 1.80835H5.575C4.92641 1.80752 4.30402 2.06423 3.84462 2.52208C3.38521 2.97992 3.12638 3.60143 3.125 4.25002V15.7417C3.12482 16.0635 3.18807 16.3821 3.31113 16.6795C3.43419 16.9768 3.61465 17.247 3.84219 17.4745C4.06973 17.702 4.33988 17.8825 4.63721 18.0056C4.93454 18.1286 5.25321 18.1919 5.575 18.1917H14.425C14.7468 18.1919 15.0655 18.1286 15.3628 18.0055C15.6601 17.8825 15.9303 17.702 16.1578 17.4745C16.3853 17.247 16.5658 16.9768 16.6889 16.6795C16.8119 16.3822 16.8752 16.0635 16.875 15.7417V4.25002C16.8736 3.60144 16.6148 2.97994 16.1554 2.5221C15.696 2.06426 15.0736 1.80754 14.425 1.80835ZM5.075 14.15C5.11345 14.1105 5.15944 14.079 5.21025 14.0575C5.26107 14.0361 5.31567 14.025 5.37083 14.025C5.426 14.025 5.4806 14.0361 5.53141 14.0575C5.58223 14.079 5.62822 14.1105 5.66667 14.15L6.11667 14.6084L7.20833 13.5167C7.28699 13.4392 7.3931 13.396 7.50352 13.3964C7.61393 13.3968 7.71971 13.4408 7.79779 13.5189C7.87586 13.597 7.91991 13.7028 7.92032 13.8132C7.92074 13.9236 7.87749 14.0297 7.8 14.1084L6.41667 15.4917C6.37738 15.5313 6.33065 15.5627 6.27916 15.5842C6.22767 15.6056 6.17245 15.6167 6.11667 15.6167C6.0068 15.6149 5.90204 15.57 5.825 15.4917L5.075 14.7417C5.03544 14.7032 5.00399 14.6573 4.98251 14.6064C4.96104 14.5556 4.94997 14.501 4.94997 14.4459C4.94997 14.3907 4.96104 14.3361 4.98251 14.2853C5.00399 14.2345 5.03544 14.1885 5.075 14.15ZM6.11667 5.60002L7.20833 4.50835C7.28706 4.43116 7.39306 4.38816 7.50332 4.3887C7.61357 4.38924 7.71915 4.43328 7.79711 4.51124C7.87507 4.5892 7.91911 4.69478 7.91965 4.80504C7.92019 4.91529 7.87719 5.0213 7.8 5.10002L6.41667 6.48335C6.37698 6.52184 6.32999 6.55199 6.27846 6.57202C6.22694 6.59206 6.17193 6.60158 6.11667 6.60002C6.06276 6.60078 6.00923 6.59086 5.95917 6.57083C5.90912 6.55081 5.86352 6.52108 5.825 6.48335L5.075 5.73335C4.99751 5.65469 4.95426 5.54859 4.95468 5.43817C4.95509 5.32775 4.99914 5.22198 5.07722 5.1439C5.15529 5.06582 5.26107 5.02178 5.37148 5.02136C5.4819 5.02095 5.58801 5.0642 5.66667 5.14169L6.11667 5.60002ZM7.8 9.60002L6.41667 10.9834C6.37738 11.0229 6.33064 11.0544 6.27915 11.0758C6.22767 11.0973 6.17245 11.1083 6.11667 11.1084C6.00681 11.1066 5.90205 11.0617 5.825 10.9834L5.075 10.2334C5.03544 10.1949 5.00399 10.1489 4.98251 10.0981C4.96104 10.0473 4.94997 9.99269 4.94997 9.93752C4.94997 9.88235 4.96104 9.82775 4.98251 9.77694C5.00399 9.72612 5.03544 9.68013 5.075 9.64169C5.15463 9.56547 5.26061 9.52293 5.37083 9.52293C5.48106 9.52293 5.58703 9.56547 5.66667 9.64169L6.11667 10.1L7.20833 9.01669C7.24678 8.97713 7.29278 8.94569 7.34359 8.92422C7.3944 8.90275 7.449 8.89169 7.50417 8.89169C7.55933 8.89169 7.61393 8.90275 7.66474 8.92422C7.71556 8.94569 7.76155 8.97713 7.8 9.01669C7.87615 9.09468 7.91878 9.19935 7.91878 9.30835C7.91878 9.41735 7.87615 9.52203 7.8 9.60002ZM8.65 14.5084C8.65032 14.3979 8.69433 14.2922 8.7724 14.2141C8.85047 14.136 8.95626 14.092 9.06667 14.0917H14.6334C14.6882 14.0912 14.7427 14.1016 14.7935 14.1223C14.8443 14.1431 14.8904 14.1737 14.9292 14.2125C14.968 14.2513 14.9987 14.2975 15.0194 14.3483C15.0402 14.3991 15.0506 14.4535 15.05 14.5084C15.0497 14.6188 15.0057 14.7245 14.9276 14.8026C14.8496 14.8807 14.7438 14.9247 14.6334 14.925H9.06667C8.9567 14.9233 8.85172 14.8788 8.77395 14.8011C8.69619 14.7233 8.65173 14.6183 8.65 14.5084ZM8.65 10C8.65031 9.88961 8.69431 9.78381 8.77239 9.70574C8.85046 9.62767 8.95626 9.58367 9.06667 9.58335H14.6334C14.7439 9.58335 14.8499 9.62725 14.928 9.70539C15.0062 9.78353 15.05 9.88951 15.05 10C15.05 10.1105 15.0062 10.2165 14.928 10.2946C14.8499 10.3728 14.7439 10.4167 14.6334 10.4167H9.06667C8.95626 10.4164 8.85047 10.3724 8.7724 10.2943C8.69433 10.2162 8.65032 10.1104 8.65 10ZM14.6334 5.90835H9.06667C8.95626 5.90804 8.85046 5.86404 8.77239 5.78597C8.69431 5.70789 8.65031 5.6021 8.65 5.49169C8.65174 5.38172 8.6962 5.27675 8.77396 5.19898C8.85173 5.12122 8.9567 5.07676 9.06667 5.07502H14.6334C14.7438 5.07536 14.8496 5.11936 14.9276 5.19743C15.0057 5.2755 15.0497 5.38128 15.05 5.49169C15.0506 5.54655 15.0402 5.60098 15.0194 5.65177C14.9987 5.70256 14.968 5.74871 14.9292 5.78751C14.8904 5.82631 14.8443 5.85698 14.7935 5.87773C14.7427 5.89848 14.6883 5.90889 14.6334 5.90835Z" fill="#171723"/>
</svg>
