<svg width="20" height="20" viewBox="0 0 20 20" fill="none" xmlns="http://www.w3.org/2000/svg">
<path d="M14.4246 18.1956H5.57454C4.92508 18.1949 4.30242 17.9366 3.84318 17.4774C3.38394 17.0181 3.12566 16.3955 3.125 15.746V4.25435C3.12562 3.6048 3.38386 2.98202 3.84308 2.52264C4.3023 2.06326 4.92499 1.8048 5.57454 1.80396H14.4246C15.0743 1.80476 15.6971 2.06319 16.1564 2.52254C16.6158 2.9819 16.8742 3.60469 16.875 4.25431V15.746C16.8742 16.3955 16.6157 17.0182 16.1563 17.4774C15.697 17.9367 15.0742 18.1949 14.4246 18.1956ZM5.57454 2.63729C5.14593 2.63785 4.73504 2.80842 4.43204 3.11158C4.12904 3.41473 3.95868 3.8257 3.95833 4.25431V15.746C3.95884 16.1745 4.12928 16.5853 4.43227 16.8882C4.73526 17.1912 5.14605 17.3617 5.57454 17.3622H14.4246C14.8533 17.3618 15.2642 17.1915 15.5674 16.8885C15.8705 16.5855 16.0411 16.1746 16.0417 15.746V4.25431C16.0413 3.82557 15.8708 3.4145 15.5676 3.11133C15.2645 2.80816 14.8534 2.63767 14.4246 2.63729H5.57454Z" fill="#171723"/>
<path d="M14.633 5.91207H9.06901C8.9585 5.91207 8.85252 5.86817 8.77438 5.79003C8.69624 5.71189 8.65234 5.60591 8.65234 5.4954C8.65234 5.3849 8.69624 5.27891 8.77438 5.20077C8.85252 5.12263 8.9585 5.07874 9.06901 5.07874H14.633C14.7435 5.07874 14.8495 5.12263 14.9276 5.20077C15.0057 5.27891 15.0496 5.3849 15.0496 5.4954C15.0496 5.60591 15.0057 5.71189 14.9276 5.79003C14.8495 5.86817 14.7435 5.91207 14.633 5.91207Z" fill="#171723"/>
<path d="M6.11923 6.60378C6.0645 6.60384 6.01031 6.59309 5.95975 6.57214C5.90919 6.5512 5.86328 6.52046 5.82464 6.48171L5.07268 5.72976C4.99585 5.65136 4.95306 5.54581 4.95362 5.43605C4.95417 5.32628 4.99802 5.22117 5.07564 5.14355C5.15326 5.06594 5.25837 5.02209 5.36813 5.02153C5.4779 5.02098 5.58345 5.06376 5.66185 5.14059L6.1192 5.59795L7.20813 4.50905C7.24667 4.46972 7.29263 4.43842 7.34334 4.41697C7.39405 4.39551 7.44852 4.38432 7.50358 4.38404C7.55865 4.38376 7.61322 4.3944 7.66415 4.41535C7.71508 4.43629 7.76135 4.46712 7.80029 4.50606C7.83922 4.545 7.87006 4.59127 7.891 4.64219C7.91194 4.69312 7.92259 4.7477 7.92231 4.80276C7.92203 4.85783 7.91084 4.91229 7.88938 4.96301C7.86792 5.01372 7.83662 5.05967 7.7973 5.09822L6.41386 6.48171C6.37522 6.52047 6.32929 6.5512 6.27873 6.57215C6.22817 6.5931 6.17396 6.60385 6.11923 6.60378Z" fill="#171723"/>
<path d="M14.633 10.4165H9.06901C8.9585 10.4165 8.85252 10.3726 8.77438 10.2944C8.69624 10.2163 8.65234 10.1103 8.65234 9.9998C8.65234 9.88929 8.69624 9.78331 8.77438 9.70517C8.85252 9.62703 8.9585 9.58313 9.06901 9.58313H14.633C14.7435 9.58313 14.8495 9.62703 14.9276 9.70517C15.0057 9.78331 15.0496 9.88929 15.0496 9.9998C15.0496 10.1103 15.0057 10.2163 14.9276 10.2944C14.8495 10.3726 14.7435 10.4165 14.633 10.4165Z" fill="#171723"/>
<path d="M6.1192 11.1082C6.06447 11.1083 6.01027 11.0975 5.95972 11.0766C5.90916 11.0556 5.86324 11.0249 5.8246 10.9861L5.07268 10.2342C4.99585 10.1558 4.95306 10.0502 4.95362 9.94044C4.95417 9.83067 4.99802 9.72556 5.07564 9.64794C5.15326 9.57033 5.25837 9.52648 5.36813 9.52592C5.4779 9.52537 5.58345 9.56816 5.66185 9.64498L6.1192 10.1023L7.20807 9.01348C7.28647 8.93665 7.39202 8.89386 7.50178 8.89441C7.61155 8.89497 7.71666 8.93882 7.79428 9.01644C7.87189 9.09405 7.91574 9.19917 7.9163 9.30893C7.91685 9.4187 7.87407 9.52424 7.79724 9.60264L6.41383 10.9861C6.37518 11.0249 6.32926 11.0556 6.2787 11.0766C6.22813 11.0975 6.17393 11.1083 6.1192 11.1082Z" fill="#171723"/>
<path d="M14.633 14.9209H9.06901C8.9585 14.9209 8.85252 14.877 8.77438 14.7988C8.69624 14.7207 8.65234 14.6147 8.65234 14.5042C8.65234 14.3937 8.69624 14.2877 8.77438 14.2096C8.85252 14.1314 8.9585 14.0875 9.06901 14.0875H14.633C14.7435 14.0875 14.8495 14.1314 14.9276 14.2096C15.0057 14.2877 15.0496 14.3937 15.0496 14.5042C15.0496 14.6147 15.0057 14.7207 14.9276 14.7988C14.8495 14.877 14.7435 14.9209 14.633 14.9209Z" fill="#171723"/>
<path d="M6.11923 15.6134C6.06451 15.6134 6.01033 15.6026 5.95978 15.5816C5.90924 15.5607 5.86331 15.53 5.82464 15.4913L5.07268 14.7393C4.99585 14.6609 4.95306 14.5554 4.95362 14.4456C4.95417 14.3359 4.99802 14.2307 5.07564 14.1531C5.15326 14.0755 5.25837 14.0317 5.36813 14.0311C5.4779 14.0305 5.58345 14.0733 5.66185 14.1502L6.1192 14.6075L7.20807 13.5178C7.24661 13.4785 7.29257 13.4472 7.34328 13.4258C7.394 13.4043 7.44846 13.3931 7.50353 13.3928C7.55859 13.3925 7.61317 13.4032 7.66409 13.4241C7.71502 13.4451 7.76129 13.4759 7.80023 13.5149C7.83917 13.5538 7.87 13.6001 7.89094 13.651C7.91189 13.7019 7.92253 13.7565 7.92225 13.8116C7.92197 13.8666 7.91078 13.9211 7.88932 13.9718C7.86786 14.0225 7.83657 14.0685 7.79724 14.107L6.41386 15.4913C6.37518 15.53 6.32925 15.5607 6.2787 15.5816C6.22814 15.6026 6.17395 15.6134 6.11923 15.6134Z" fill="#171723"/>
</svg>
