<svg width="20" height="20" viewBox="0 0 20 20" fill="none" xmlns="http://www.w3.org/2000/svg">
<g clip-path="url(#clip0_6394_68553)">
<path d="M17.998 4.28904C17.877 3.72713 17.5964 3.21209 17.1899 2.80573C16.7834 2.39937 16.2683 2.11898 15.7063 1.9982C14.5673 1.71468 13.3756 1.71933 12.2388 2.01173C11.102 2.30413 10.0559 2.87507 9.19508 3.673L7.82418 5.04389L7.14267 4.64874C6.54697 4.30357 5.85395 4.1648 5.17128 4.25398C4.4886 4.34316 3.85449 4.6553 3.36744 5.1419L2.74814 5.76039C2.53136 5.97738 2.4096 6.27155 2.4096 6.57826C2.4096 6.88498 2.53136 7.17915 2.74814 7.39613L4.11004 8.75803L3.98675 8.88132C3.84525 9.02328 3.7658 9.21555 3.7658 9.41599C3.7658 9.61643 3.84525 9.80869 3.98675 9.95066L4.60361 10.5676L2.77092 11.5229C2.71295 11.5532 2.66293 11.5967 2.62489 11.6499C2.58685 11.7031 2.56187 11.7645 2.55197 11.8292C2.54206 11.8939 2.54752 11.9599 2.56788 12.0221C2.58825 12.0842 2.62296 12.1407 2.6692 12.187L3.25463 12.7725C2.78198 13.0152 2.39292 13.394 2.1377 13.86C1.88248 14.3261 1.77281 14.8579 1.82285 15.3869C1.83295 15.4721 1.86919 15.5521 1.9266 15.616C1.98401 15.6798 2.05977 15.7243 2.14348 15.7433C2.29967 15.7791 2.45823 15.8035 2.61793 15.8165C2.30705 16.3297 2.11001 16.9036 2.04013 17.4995C2.04072 17.5135 2.04208 17.5276 2.0442 17.5415C2.04213 17.5551 2.04077 17.5688 2.04013 17.5825C2.04343 17.5961 2.04744 17.6095 2.05213 17.6227C2.05715 17.6488 2.06477 17.6743 2.07487 17.6988C2.09296 17.7445 2.11946 17.7864 2.153 17.8223C2.17725 17.8489 2.20506 17.872 2.23565 17.8909C2.24923 17.8993 2.26329 17.9069 2.27777 17.9137C2.3102 17.9288 2.34454 17.9393 2.37984 17.945C2.39144 17.9472 2.4009 17.954 2.41285 17.9552C2.4269 17.9569 2.44103 17.9577 2.45517 17.9576C2.46275 17.9576 2.46934 17.9539 2.47689 17.9535C2.4835 17.9531 2.48915 17.956 2.49586 17.9552C3.09167 17.8855 3.66558 17.6888 4.17881 17.3782C4.19181 17.5379 4.21629 17.6965 4.25205 17.8527C4.27125 17.9362 4.3158 18.0118 4.37961 18.069C4.44342 18.1263 4.52336 18.1624 4.60849 18.1725C4.71271 18.1853 4.81761 18.1918 4.92262 18.192C5.39984 18.1743 5.86394 18.0309 6.26807 17.7765C6.67219 17.522 7.00206 17.1655 7.22436 16.7428L7.80836 17.327C7.85461 17.3732 7.9111 17.4079 7.97326 17.4283C8.03541 17.4486 8.10149 17.4541 8.16614 17.4442C8.23079 17.4343 8.29221 17.4093 8.34542 17.3713C8.39862 17.3332 8.44213 17.2832 8.47242 17.2252L9.42798 15.3926L10.0447 16.0094C10.1865 16.1511 10.3788 16.2308 10.5794 16.2308C10.7799 16.2308 10.9722 16.1511 11.114 16.0094L11.2377 15.8857L12.5992 17.2472C12.8162 17.464 13.1104 17.5857 13.4171 17.5857C13.7238 17.5857 14.018 17.464 14.235 17.2472L14.8535 16.6287C15.34 16.1415 15.6521 15.5073 15.7414 14.8245C15.8307 14.1418 15.6922 13.4487 15.3474 12.8527L14.9517 12.1717L16.3289 10.7946C17.1334 9.93912 17.7084 8.89398 18.0002 7.75649C18.292 6.619 18.2913 5.42615 17.998 4.28904ZM3.33736 6.80693C3.27691 6.74635 3.24296 6.66425 3.24296 6.57866C3.24296 6.49308 3.27691 6.41098 3.33736 6.35039L3.95666 5.73109C4.31366 5.37423 4.77858 5.14532 5.27911 5.07998C5.77965 5.01463 6.28775 5.11651 6.7244 5.36977L7.21431 5.65379L4.69923 8.16884L3.33736 6.80693ZM5.01377 17.3554C5.0017 17.2343 4.99898 17.1124 5.00562 16.9909C5.01297 16.8628 5.03011 16.7355 5.0569 16.61C5.07509 16.524 5.06569 16.4345 5.03004 16.3541C4.99439 16.2737 4.9343 16.2067 4.85833 16.1624C4.7819 16.1192 4.69389 16.1008 4.60653 16.1098C4.51916 16.1189 4.43678 16.1549 4.37083 16.2129C4.19642 16.3689 4.00789 16.5084 3.80768 16.6295C3.55323 16.783 3.28178 16.9063 2.99882 16.997C3.16063 16.4898 3.42766 16.0223 3.78246 15.6253C3.84112 15.5598 3.87758 15.4774 3.8866 15.3899C3.89562 15.3024 3.87676 15.2144 3.8327 15.1382C3.78864 15.0621 3.72165 15.0019 3.6413 14.9662C3.56095 14.9304 3.47135 14.921 3.38532 14.9393C3.26011 14.9657 3.13306 14.9826 3.00527 14.9897C2.88345 14.9964 2.76129 14.9936 2.63988 14.9816C2.68609 14.6311 2.82397 14.299 3.03961 14.0188C3.25525 13.7387 3.541 13.5204 3.86801 13.386L6.60951 16.1279C6.47529 16.455 6.25701 16.7408 5.97678 16.9564C5.69655 17.1719 5.36433 17.3096 5.01377 17.3554ZM7.99635 16.3366L3.6596 11.999L5.22127 11.186L7.01569 12.98L8.80992 14.7744L7.99635 16.3366ZM14.6264 13.271C14.8793 13.7079 14.9808 14.2161 14.9154 14.7167C14.8499 15.2173 14.621 15.6823 14.2642 16.0395L13.6458 16.658C13.5849 16.7182 13.5027 16.752 13.4171 16.752C13.3315 16.752 13.2493 16.7182 13.1884 16.658L11.8269 15.2965L14.3419 12.7815L14.6264 13.271ZM10.5794 15.3657L9.61653 14.4027L9.61582 14.4013L7.60491 12.3908L4.63047 9.41599L9.77857 4.26788C10.5373 3.56012 11.4626 3.05566 12.4685 2.80141C13.4744 2.54715 14.5283 2.55135 15.5322 2.81361C15.937 2.90021 16.3082 3.10199 16.601 3.39466C16.8938 3.68732 17.0958 4.05839 17.1826 4.46319C17.4447 5.46573 17.4494 6.51825 17.1962 7.52309C16.943 8.52793 16.44 9.45252 15.734 10.2111L10.5794 15.3657Z" fill="#171723"/>
<path d="M10.2847 6.14209C9.93155 6.49502 9.69102 6.94476 9.59352 7.43441C9.49602 7.92405 9.54592 8.43162 9.73692 8.8929C9.92792 9.35419 10.2514 9.74847 10.6665 10.0259C11.0816 10.3033 11.5697 10.4513 12.0689 10.4513C12.5682 10.4513 13.0562 10.3033 13.4714 10.0259C13.8865 9.74847 14.21 9.35419 14.401 8.8929C14.592 8.43162 14.6419 7.92405 14.5444 7.43441C14.4469 6.94476 14.2063 6.49502 13.8532 6.14209C13.3796 5.66955 12.7379 5.40417 12.0689 5.40417C11.3999 5.40417 10.7583 5.66955 10.2847 6.14209ZM13.264 9.12142C12.9876 9.39741 12.624 9.56901 12.2352 9.607C11.8464 9.64499 11.4565 9.54701 11.1318 9.32976C10.8072 9.11251 10.5679 8.78942 10.4547 8.41554C10.3416 8.04166 10.3615 7.6401 10.5112 7.27929C10.6609 6.91847 10.931 6.62071 11.2756 6.43672C11.6202 6.25274 12.018 6.19392 12.4011 6.27028C12.7842 6.34664 13.1289 6.55345 13.3767 6.85549C13.6244 7.15754 13.7597 7.53612 13.7596 7.92675C13.7593 8.37492 13.581 8.80462 13.264 9.12142Z" fill="#171723"/>
<path d="M7.28831 9.33952C7.20991 9.2627 7.10436 9.21991 6.9946 9.22046C6.88483 9.22102 6.77972 9.26487 6.7021 9.34249C6.62449 9.4201 6.58064 9.52521 6.58008 9.63498C6.57953 9.74475 6.62231 9.85029 6.69914 9.92869L10.0666 13.297C10.145 13.3739 10.2506 13.4166 10.3604 13.4161C10.4701 13.4155 10.5752 13.3717 10.6528 13.2941C10.7305 13.2164 10.7743 13.1113 10.7749 13.0016C10.7754 12.8918 10.7326 12.7863 10.6558 12.7079L7.28831 9.33952Z" fill="#171723"/>
</g>
<defs>
<clipPath id="clip0_6394_68553">
<rect width="20" height="20" fill="white"/>
</clipPath>
</defs>
</svg>
