<svg width="20" height="20" viewBox="0 0 20 20" fill="none" xmlns="http://www.w3.org/2000/svg">
<g clip-path="url(#clip0_10314_144691)">
<path d="M16.2523 7.08304C16.5426 7.08285 16.821 6.96749 17.0263 6.76229C17.2317 6.55709 17.3472 6.2788 17.3477 5.98849V3.74727C17.3472 3.45696 17.2317 3.17867 17.0263 2.97346C16.821 2.76826 16.5426 2.6529 16.2523 2.65271H14.0119C13.7216 2.6529 13.4432 2.76826 13.2378 2.97346C13.0325 3.17867 12.9169 3.45696 12.9165 3.74727V5.98849C12.9165 6.13402 12.9457 6.27807 13.0023 6.41212L9.99857 9.41586L6.99817 6.40861C7.05409 6.27559 7.08299 6.13278 7.08317 5.98849V3.74727C7.08295 3.45704 6.96756 3.17877 6.76233 2.97354C6.55711 2.76832 6.27883 2.65293 5.98861 2.65271H3.7474C3.45717 2.65294 3.1789 2.76833 2.97367 2.97355C2.76845 3.17877 2.65306 3.45704 2.65283 3.74727V5.98849C2.65306 6.27871 2.76845 6.55699 2.97367 6.76221C3.1789 6.96743 3.45717 7.08282 3.7474 7.08304H4.0306V12.9164H3.7474C3.45709 12.9168 3.1788 13.0324 2.97359 13.2377C2.76839 13.4431 2.65303 13.7214 2.65283 14.0118V16.2522C2.65303 16.5425 2.76839 16.8208 2.97359 17.0262C3.1788 17.2316 3.45709 17.3471 3.7474 17.3475H5.98861C6.27892 17.3471 6.55721 17.2315 6.76241 17.0262C6.96762 16.8208 7.08297 16.5425 7.08316 16.2521V15.9714H12.9165V16.2521C12.9169 16.5425 13.0324 16.8209 13.2378 17.0263C13.4431 17.2316 13.7215 17.3471 14.0119 17.3475H16.2523C16.5427 17.3471 16.8211 17.2316 17.0264 17.0263C17.2317 16.8209 17.3473 16.5425 17.3477 16.2521V14.0118C17.3473 13.7214 17.2317 13.443 17.0264 13.2376C16.8211 13.0323 16.5427 12.9168 16.2523 12.9164H15.9723V7.08304H16.2523ZM13.7498 3.74727C13.7499 3.67788 13.7776 3.61138 13.8268 3.56239C13.8759 3.5134 13.9425 3.48594 14.0119 3.48604H16.2523C16.3217 3.48594 16.3883 3.5134 16.4374 3.56239C16.4865 3.61138 16.5142 3.67788 16.5143 3.74727V5.98849C16.5142 6.05787 16.4865 6.12437 16.4374 6.17336C16.3883 6.22235 16.3217 6.24981 16.2523 6.24971H15.5718C15.5661 6.24946 15.5614 6.24646 15.5557 6.24646C15.5499 6.24646 15.5452 6.24946 15.5395 6.24971H14.0119C13.9482 6.24808 13.8873 6.22293 13.841 6.17912L13.8344 6.16912C13.8305 6.1652 13.8252 6.16404 13.8212 6.16032C13.7768 6.11398 13.7513 6.05266 13.7498 5.98846L13.7498 3.74727ZM3.48617 5.98849V3.74727C3.48624 3.67801 3.51379 3.61161 3.56276 3.56264C3.61174 3.51366 3.67814 3.48612 3.7474 3.48604H5.98861C6.05786 3.48612 6.12426 3.51367 6.17324 3.56264C6.22221 3.61161 6.24975 3.67801 6.24983 3.74727V5.98849C6.24885 6.05441 6.22268 6.11747 6.1767 6.16472L6.1701 6.16914L6.16522 6.17642C6.1179 6.22256 6.0547 6.24881 5.98862 6.24975H4.46343C4.45773 6.2495 4.45301 6.2465 4.44726 6.2465C4.44151 6.2465 4.43678 6.2495 4.43108 6.24975H3.7474C3.67813 6.24968 3.61173 6.22213 3.56275 6.17314C3.51377 6.12416 3.48623 6.05775 3.48617 5.98849ZM5.98861 16.5142H3.7474C3.67801 16.5141 3.61151 16.4864 3.56252 16.4373C3.51353 16.3881 3.48606 16.3215 3.48617 16.2521V14.0118C3.48606 13.9424 3.51353 13.8758 3.56252 13.8266C3.61151 13.7775 3.67801 13.7498 3.7474 13.7497H5.98861C6.058 13.7498 6.1245 13.7775 6.17348 13.8266C6.22247 13.8758 6.24993 13.9424 6.24983 14.0118V15.5426L6.2474 15.5547L6.24983 15.5668V16.2521C6.24994 16.3215 6.22248 16.3881 6.17349 16.4373C6.1245 16.4864 6.058 16.5141 5.98861 16.5142ZM16.5143 14.0118V16.2521C16.5143 16.2866 16.5076 16.3206 16.4944 16.3525C16.4813 16.3843 16.462 16.4132 16.4376 16.4375C16.4133 16.4618 16.3844 16.4811 16.3526 16.4943C16.3208 16.5075 16.2867 16.5142 16.2523 16.5142H14.0119C13.9775 16.5142 13.9434 16.5075 13.9116 16.4943C13.8798 16.4811 13.8509 16.4618 13.8265 16.4375C13.8022 16.4132 13.7829 16.3843 13.7697 16.3525C13.7566 16.3206 13.7498 16.2866 13.7498 16.2521V14.0118C13.7498 13.9773 13.7566 13.9433 13.7697 13.9115C13.7829 13.8796 13.8022 13.8508 13.8265 13.8264C13.8509 13.8021 13.8798 13.7828 13.9116 13.7696C13.9434 13.7565 13.9775 13.7497 14.0119 13.7497H16.2523C16.2867 13.7497 16.3208 13.7565 16.3526 13.7696C16.3844 13.7828 16.4133 13.8021 16.4376 13.8264C16.462 13.8508 16.4813 13.8796 16.4944 13.9115C16.5076 13.9433 16.5143 13.9773 16.5143 14.0118V14.0118ZM15.139 12.9164H14.0119C13.7215 12.9167 13.4431 13.0323 13.2378 13.2376C13.0324 13.443 12.9169 13.7214 12.9165 14.0118V15.1381H7.08316V14.0118C7.08297 13.7214 6.96762 13.4431 6.76241 13.2377C6.55721 13.0324 6.27892 12.9168 5.98861 12.9164H4.86393V7.08304H5.98861C6.13306 7.08289 6.27603 7.05398 6.40919 6.998L9.70362 10.3C9.74229 10.3387 9.78822 10.3694 9.83876 10.3904C9.88931 10.4113 9.94349 10.4221 9.9982 10.4221C10.0529 10.4221 10.1071 10.4113 10.1576 10.3904C10.2082 10.3694 10.2541 10.3387 10.2928 10.3L13.5942 6.99861C13.7265 7.05402 13.8684 7.08272 14.0119 7.08304H15.139V12.9164Z" fill="#171723"/>
</g>
<defs>
<clipPath id="clip0_10314_144691">
<rect width="20" height="20" fill="white"/>
</clipPath>
</defs>
</svg>
