<svg width="20" height="20" viewBox="0 0 20 20" fill="none" xmlns="http://www.w3.org/2000/svg">
<g clip-path="url(#clip0_5313_35144)">
<path d="M16.6195 4.81905L15.1612 3.36072C15.0645 3.26397 14.9496 3.18722 14.8233 3.13486C14.6969 3.08249 14.5615 3.05554 14.4247 3.05554C14.2879 3.05554 14.1524 3.08249 14.0261 3.13486C13.8997 3.18722 13.7849 3.26397 13.6882 3.36072L12.2298 4.81905C12.0348 5.01454 11.9253 5.2794 11.9253 5.55554C11.9253 5.83168 12.0348 6.09655 12.2298 6.29203L12.6698 6.73203L6.74342 12.6814L6.31104 12.2491C6.11552 12.0544 5.85086 11.9451 5.57496 11.9451C5.29906 11.9451 5.03439 12.0544 4.83887 12.2491L3.37892 13.709C3.18455 13.9046 3.07553 14.1692 3.07568 14.4449C3.07584 14.7206 3.18516 14.9851 3.37975 15.1804L4.83892 16.6396C4.93538 16.7366 5.05015 16.8136 5.17657 16.866C5.303 16.9184 5.43856 16.9451 5.57541 16.9447H5.57624C5.71284 16.9451 5.84815 16.9183 5.9743 16.8659C6.10045 16.8135 6.21494 16.7366 6.3111 16.6396L7.76943 15.1812C7.86635 15.0847 7.94327 14.9699 7.99578 14.8436C8.04829 14.7172 8.07535 14.5817 8.07543 14.4449C8.07551 14.3081 8.04859 14.1726 7.99623 14.0462C7.94386 13.9198 7.86708 13.8049 7.77027 13.7083L7.33269 13.2707L13.2591 7.32123L13.6882 7.7504C13.8838 7.94531 14.1486 8.05476 14.4247 8.05476C14.7008 8.05476 14.9656 7.94531 15.1612 7.7504L16.6195 6.29207C16.8146 6.09657 16.9241 5.8317 16.9241 5.55555C16.9241 5.2794 16.8145 5.01453 16.6195 4.81905ZM7.18102 14.5912L5.72106 16.0512C5.68208 16.0899 5.62933 16.1116 5.5744 16.1114C5.51946 16.1112 5.46684 16.0893 5.42808 16.0504L3.96892 14.5912C3.93021 14.5521 3.90849 14.4993 3.90849 14.4443C3.90849 14.3893 3.93021 14.3365 3.96892 14.2974L5.42725 12.8391C5.46663 12.8 5.51987 12.778 5.57536 12.778C5.60254 12.7779 5.62948 12.7831 5.65463 12.7935C5.67977 12.8038 5.70262 12.819 5.72184 12.8383L6.44206 13.5585L6.44857 13.5682L6.45818 13.5746L7.18099 14.2974C7.20033 14.3167 7.21568 14.3396 7.22616 14.3648C7.23663 14.39 7.24202 14.417 7.24202 14.4443C7.24202 14.4716 7.23663 14.4986 7.22616 14.5238C7.21568 14.549 7.20033 14.5719 7.18099 14.5912H7.18102ZM16.0303 5.70283L14.572 7.16117C14.5559 7.18555 14.534 7.20557 14.5083 7.21942C14.4826 7.23327 14.4539 7.24052 14.4247 7.24052C14.3955 7.24052 14.3667 7.23327 14.341 7.21942C14.3153 7.20557 14.2934 7.18555 14.2774 7.16117L12.819 5.70283C12.7997 5.68349 12.7843 5.66053 12.7739 5.63526C12.7634 5.60998 12.758 5.58289 12.758 5.55554C12.758 5.52818 12.7634 5.50109 12.7739 5.47582C12.7843 5.45054 12.7997 5.42758 12.819 5.40824L14.2774 3.94991C14.2967 3.93056 14.3197 3.91521 14.3449 3.90474C14.3702 3.89427 14.3973 3.88888 14.4247 3.88888C14.452 3.88888 14.4791 3.89427 14.5044 3.90474C14.5297 3.91521 14.5526 3.93056 14.572 3.94991L16.0303 5.40824C16.0496 5.42758 16.065 5.45054 16.0755 5.47582C16.0859 5.50109 16.0913 5.52818 16.0913 5.55554C16.0913 5.58289 16.0859 5.60998 16.0755 5.63526C16.065 5.66053 16.0496 5.68349 16.0303 5.70283Z" fill="#171723"/>
</g>
<defs>
<clipPath id="clip0_5313_35144">
<rect width="20" height="20" fill="white"/>
</clipPath>
</defs>
</svg>
