<svg width="20" height="20" viewBox="0 0 20 20" fill="none" xmlns="http://www.w3.org/2000/svg">
<path d="M17.9048 10.5871C18.061 10.3162 18.1032 9.99435 18.0221 9.69236C17.9411 9.39037 17.7435 9.1329 17.4727 8.97654L17.4719 8.97571L16.5974 8.47186L17.4711 7.96828C17.6507 7.86501 17.8 7.71621 17.9038 7.53687C18.0076 7.35754 18.0623 7.154 18.0624 6.94679C18.0625 6.73957 18.008 6.53599 17.9043 6.35657C17.8006 6.17715 17.6515 6.02823 17.4719 5.92482L10.5888 1.96161C10.4089 1.85973 10.2058 1.80625 9.99907 1.8064C9.79239 1.80654 9.58928 1.86031 9.4096 1.96244L2.52969 5.92478C2.34985 6.0272 2.20065 6.17583 2.09756 6.35528C2.01975 6.48946 1.96918 6.63767 1.94875 6.79142C1.92832 6.94517 1.93843 7.10145 1.97849 7.25129C2.01856 7.40112 2.0878 7.54158 2.18224 7.66462C2.27669 7.78765 2.39448 7.89084 2.52887 7.96828L3.40325 8.47213L2.52806 8.97658C2.34933 9.08017 2.20067 9.22854 2.09674 9.40708C2.0192 9.54136 1.96888 9.6896 1.94863 9.84333C1.92839 9.99706 1.93862 10.1533 1.97875 10.3031C2.01887 10.4528 2.08811 10.5932 2.1825 10.7163C2.27689 10.8393 2.39459 10.9425 2.52887 11.02L3.40325 11.5239L2.52806 12.0283C2.34933 12.1319 2.20067 12.2802 2.09674 12.4588C2.0192 12.5931 1.96888 12.7413 1.94863 12.895C1.92839 13.0488 1.93862 13.205 1.97875 13.3548C2.01887 13.5045 2.08811 13.6449 2.1825 13.768C2.27689 13.891 2.39459 13.9942 2.52887 14.0717L9.41038 18.0374C9.59031 18.1399 9.79377 18.1937 10.0008 18.1937C10.2078 18.1937 10.4113 18.1399 10.5912 18.0374L17.4711 14.0718C17.6507 13.9685 17.7999 13.8197 17.9037 13.6404C18.0075 13.4612 18.0622 13.2577 18.0624 13.0505C18.0625 12.8434 18.0081 12.6398 17.9046 12.4604C17.8011 12.2809 17.6522 12.1319 17.4728 12.0283L17.4719 12.0275L16.5974 11.5236L17.4711 11.02C17.651 10.916 17.8006 10.7668 17.9048 10.5871ZM2.81696 7.11782C2.78683 7.06525 2.77111 7.00566 2.7714 6.94507C2.7717 6.88448 2.78799 6.82504 2.81862 6.77277C2.84861 6.72012 2.89252 6.67676 2.94554 6.64744L9.82461 2.68585C9.87818 2.65539 9.93876 2.63941 10.0004 2.63947C10.0615 2.63892 10.1216 2.65465 10.1746 2.68504L17.0561 6.64744C17.1088 6.67759 17.1527 6.72119 17.1831 6.7738C17.2136 6.8264 17.2295 6.88614 17.2294 6.94693C17.2292 7.00722 17.2132 7.06642 17.183 7.11859C17.1523 7.1714 17.1082 7.21519 17.0552 7.24554L15.555 8.1103L15.5538 8.11066L13.1021 9.52418L10.1753 11.2112C10.1221 11.2414 10.0619 11.2573 10.0008 11.2573C9.93956 11.2573 9.87941 11.2414 9.82619 11.2112L4.44701 8.11066L4.44492 8.1101L2.94472 7.24558C2.89133 7.21538 2.84716 7.17121 2.81696 7.11782ZM17.0552 12.7493C17.1076 12.7799 17.1513 12.8233 17.1822 12.8755C17.2053 12.9148 17.2204 12.9584 17.2265 13.0036C17.2326 13.0488 17.2297 13.0948 17.2179 13.1389C17.2061 13.1829 17.1856 13.2242 17.1577 13.2603C17.1298 13.2964 17.0949 13.3266 17.0552 13.3491L10.1762 17.3148C10.1229 17.3454 10.0626 17.3615 10.0012 17.3615C9.9398 17.3615 9.87947 17.3454 9.82623 17.3148L2.94472 13.3491C2.89196 13.3187 2.84816 13.2749 2.81777 13.2222C2.78705 13.1699 2.77103 13.1103 2.77138 13.0497C2.77152 12.9888 2.78751 12.9291 2.81777 12.8763C2.8485 12.8238 2.89258 12.7802 2.94554 12.7502L4.23812 12.0051L9.41038 14.9857C9.56234 15.0698 9.73112 15.119 9.90447 15.1297C9.93636 15.1323 9.96763 15.142 9.99957 15.142L9.99988 15.1419C10.0285 15.1419 10.0565 15.1331 10.0851 15.131C10.2626 15.1211 10.4355 15.0714 10.5912 14.9857L15.7625 12.005L17.0552 12.7493ZM17.1838 10.1696C17.1529 10.2227 17.1085 10.2667 17.0552 10.2973L15.5553 11.162L15.5538 11.1624L10.1762 14.263C10.1229 14.2936 10.0626 14.3097 10.0012 14.3097C9.9398 14.3097 9.87947 14.2936 9.82623 14.263L4.44701 11.1624L4.44492 11.1619L2.94472 10.2973C2.89196 10.267 2.84816 10.2232 2.81777 10.1704C2.78705 10.1181 2.77103 10.0585 2.77138 9.99789C2.77152 9.93707 2.78751 9.87732 2.81777 9.82456C2.8485 9.77199 2.89258 9.72847 2.94554 9.69842L4.23812 8.95328L9.41038 11.9339C9.59013 12.0368 9.79367 12.091 10.0008 12.091C10.2079 12.091 10.4115 12.0368 10.5912 11.9339L15.7625 8.95318L17.0552 9.6976C17.1076 9.72814 17.1513 9.77156 17.1822 9.82373C17.2128 9.87615 17.2291 9.93572 17.2294 9.99643C17.2297 10.0571 17.214 10.1169 17.1839 10.1696L17.1838 10.1696Z" fill="#171723"/>
</svg>
