<svg width="20" height="20" viewBox="0 0 20 20" fill="none" xmlns="http://www.w3.org/2000/svg">
<g clip-path="url(#clip0_10314_146598)">
<path d="M5.97227 3.88877C5.97226 3.49462 5.86042 3.10855 5.64976 2.77541C5.4391 2.44228 5.13825 2.17573 4.78216 2.00674C4.42607 1.83775 4.02934 1.77324 3.63806 1.8207C3.24677 1.86817 2.87697 2.02567 2.57161 2.2749C2.26626 2.52413 2.03787 2.85487 1.91297 3.22872C1.78807 3.60256 1.77179 4.00417 1.86601 4.3869C1.96023 4.76963 2.1611 5.11777 2.44527 5.39091C2.72945 5.66404 3.08528 5.85096 3.47144 5.92995V14.0701C2.96549 14.1735 2.51593 14.461 2.20993 14.877C1.90393 15.2929 1.76329 15.8077 1.81528 16.3215C1.86726 16.8353 2.10817 17.3115 2.49129 17.6577C2.87441 18.004 3.37245 18.1956 3.88885 18.1955C4.40525 18.1954 4.90322 18.0036 5.28622 17.6572C5.66922 17.3108 5.90995 16.8345 5.96175 16.3208C6.01355 15.807 5.87272 15.2922 5.56657 14.8764C5.26043 14.4605 4.81077 14.1731 4.30477 14.07V5.9301C4.7752 5.83373 5.19797 5.57803 5.50176 5.20615C5.80554 4.83426 5.97173 4.36896 5.97227 3.88877ZM2.63894 3.88877C2.63894 3.64155 2.71225 3.39987 2.8496 3.19431C2.98696 2.98875 3.18218 2.82853 3.41059 2.73392C3.63899 2.63931 3.89033 2.61456 4.1328 2.66279C4.37528 2.71102 4.59801 2.83007 4.77283 3.00489C4.94764 3.17971 5.06669 3.40243 5.11492 3.64491C5.16315 3.88739 5.1384 4.13872 5.04379 4.36713C4.94918 4.59554 4.78897 4.79076 4.5834 4.92811C4.37784 5.06546 4.13617 5.13877 3.88894 5.13877C3.55753 5.13841 3.2398 5.0066 3.00546 4.77226C2.77112 4.53791 2.6393 4.22018 2.63894 3.88877ZM5.13894 16.1113C5.13894 16.3585 5.06563 16.6002 4.92828 16.8057C4.79093 17.0113 4.5957 17.1715 4.3673 17.2661C4.13889 17.3607 3.88755 17.3855 3.64508 17.3373C3.4026 17.289 3.17987 17.17 3.00506 16.9952C2.83024 16.8203 2.71119 16.5976 2.66296 16.3551C2.61473 16.1127 2.63948 15.8613 2.73409 15.6329C2.8287 15.4045 2.98892 15.2093 3.19448 15.0719C3.40004 14.9346 3.64171 14.8613 3.88894 14.8613C4.22035 14.8616 4.53808 14.9934 4.77242 15.2278C5.00676 15.4621 5.13858 15.7799 5.13894 16.1113V16.1113Z" fill="#171723"/>
<path d="M16.5308 14.0705V6.39203C16.5299 5.61877 16.2223 4.87745 15.6755 4.33067C15.1287 3.78389 14.3874 3.4763 13.6141 3.47536H9.89509L10.717 2.65342C10.7939 2.57503 10.8366 2.46948 10.8361 2.35971C10.8355 2.24995 10.7917 2.14483 10.7141 2.06722C10.6365 1.9896 10.5313 1.94575 10.4216 1.9452C10.3118 1.94464 10.2063 1.98743 10.1279 2.06426L8.5938 3.59745L8.59151 3.60172C8.54318 3.65351 8.50928 3.71706 8.49318 3.78605C8.48846 3.80372 8.48501 3.8217 8.48286 3.83986C8.47145 3.91015 8.47847 3.9822 8.50325 4.04896L8.50351 4.05155L8.50895 4.05816C8.52928 4.10638 8.55865 4.15027 8.59547 4.18746L10.1287 5.71252C10.2074 5.78871 10.3129 5.83084 10.4224 5.8298C10.532 5.82876 10.6367 5.78463 10.7139 5.70696C10.7912 5.62929 10.8347 5.52433 10.8351 5.4148C10.8356 5.30527 10.7929 5.19997 10.7162 5.12169L9.89891 4.30871H13.6142C14.1666 4.30922 14.6962 4.52888 15.0868 4.91947C15.4773 5.31006 15.697 5.83966 15.6975 6.39204V14.0697C15.1919 14.1725 14.7425 14.4593 14.4364 14.8746C14.1303 15.2899 13.9893 15.8041 14.0407 16.3174C14.0921 16.8307 14.3323 17.3067 14.7147 17.653C15.0971 17.9994 15.5945 18.1914 16.1104 18.1919C16.6263 18.1923 17.124 18.0012 17.507 17.6556C17.8901 17.31 18.1311 16.8345 18.1835 16.3212C18.2359 15.808 18.0958 15.2935 17.7905 14.8777C17.4851 14.4618 17.0362 14.1742 16.5308 14.0705L16.5308 14.0705ZM16.1109 17.3613C15.8637 17.3613 15.622 17.288 15.4164 17.1506C15.2109 17.0133 15.0507 16.818 14.956 16.5896C14.8614 16.3612 14.8367 16.1099 14.8849 15.8674C14.9331 15.6249 15.0522 15.4022 15.227 15.2274C15.4018 15.0526 15.6246 14.9335 15.867 14.8853C16.1095 14.8371 16.3608 14.8618 16.5892 14.9564C16.8177 15.051 17.0129 15.2113 17.1502 15.4168C17.2876 15.6224 17.3609 15.8641 17.3609 16.1113C17.3605 16.4427 17.2287 16.7604 16.9944 16.9947C16.76 17.2291 16.4423 17.3609 16.1109 17.3613L16.1109 17.3613Z" fill="#171723"/>
</g>
<defs>
<clipPath id="clip0_10314_146598">
<rect width="20" height="20" fill="white"/>
</clipPath>
</defs>
</svg>
