<svg width="20" height="20" viewBox="0 0 20 20" fill="none" xmlns="http://www.w3.org/2000/svg">
<path d="M15.903 6.38894C17.1686 6.38894 18.1947 5.36292 18.1947 4.09727C18.1947 2.83162 17.1686 1.8056 15.903 1.8056C14.6373 1.8056 13.6113 2.83162 13.6113 4.09727C13.6113 5.36292 14.6373 6.38894 15.903 6.38894Z" fill="#171723"/>
<path d="M4.09684 6.38894C5.3625 6.38894 6.38851 5.36292 6.38851 4.09727C6.38851 2.83162 5.3625 1.8056 4.09684 1.8056C2.83119 1.8056 1.80518 2.83162 1.80518 4.09727C1.80518 5.36292 2.83119 6.38894 4.09684 6.38894Z" fill="#171723"/>
<path d="M10.0007 1.8056C9.5474 1.8056 9.10433 1.94001 8.72747 2.19182C8.35061 2.44363 8.05688 2.80154 7.88343 3.22029C7.70998 3.63903 7.66459 4.09981 7.75302 4.54435C7.84144 4.98889 8.0597 5.39723 8.3802 5.71772C8.70069 6.03822 9.10903 6.25648 9.55357 6.3449C9.99811 6.43333 10.4589 6.38794 10.8776 6.21449C11.2964 6.04104 11.6543 5.74731 11.9061 5.37045C12.1579 4.99359 12.2923 4.55052 12.2923 4.09727C12.2917 3.48967 12.0501 2.90714 11.6204 2.4775C11.1908 2.04786 10.6083 1.80622 10.0007 1.8056ZM10.0007 5.5556C9.71222 5.5556 9.43027 5.47007 9.19045 5.30983C8.95062 5.14959 8.76371 4.92183 8.65333 4.65535C8.54295 4.38887 8.51407 4.09565 8.57034 3.81276C8.62661 3.52987 8.7655 3.27002 8.96945 3.06607C9.17341 2.86212 9.43326 2.72323 9.71615 2.66696C9.99903 2.61069 10.2923 2.63957 10.5587 2.74995C10.8252 2.86032 11.053 3.04724 11.2132 3.28706C11.3735 3.52688 11.459 3.80884 11.459 4.09727C11.4585 4.4839 11.3047 4.85456 11.0313 5.12795C10.7579 5.40134 10.3873 5.55514 10.0007 5.5556Z" fill="#171723"/>
<path d="M15.903 18.1944C17.1686 18.1944 18.1947 17.1683 18.1947 15.9027C18.1947 14.637 17.1686 13.611 15.903 13.611C14.6373 13.611 13.6113 14.637 13.6113 15.9027C13.6113 17.1683 14.6373 18.1944 15.903 18.1944Z" fill="#171723"/>
<path d="M4.09684 18.1944C5.3625 18.1944 6.38851 17.1683 6.38851 15.9027C6.38851 14.637 5.3625 13.611 4.09684 13.611C2.83119 13.611 1.80518 14.637 1.80518 15.9027C1.80518 17.1683 2.83119 18.1944 4.09684 18.1944Z" fill="#171723"/>
<path d="M10.0007 13.611C9.5474 13.611 9.10433 13.7454 8.72747 13.9972C8.35061 14.2491 8.05688 14.607 7.88343 15.0257C7.70998 15.4445 7.66459 15.9052 7.75302 16.3498C7.84144 16.7943 8.0597 17.2026 8.3802 17.5231C8.70069 17.8436 9.10903 18.0619 9.55357 18.1503C9.99811 18.2387 10.4589 18.1934 10.8776 18.0199C11.2964 17.8465 11.6543 17.5527 11.9061 17.1759C12.1579 16.799 12.2923 16.3559 12.2923 15.9027C12.2917 15.2951 12.0501 14.7126 11.6204 14.2829C11.1908 13.8533 10.6083 13.6116 10.0007 13.611ZM10.0007 17.361C9.71222 17.361 9.43027 17.2755 9.19045 17.1153C8.95062 16.955 8.76371 16.7272 8.65333 16.4608C8.54295 16.1943 8.51407 15.9011 8.57034 15.6182C8.62661 15.3353 8.7655 15.0754 8.96945 14.8715C9.17341 14.6675 9.43326 14.5286 9.71615 14.4724C9.99903 14.4161 10.2923 14.445 10.5587 14.5554C10.8252 14.6657 11.053 14.8527 11.2132 15.0925C11.3735 15.3323 11.459 15.6143 11.459 15.9027C11.4585 16.2893 11.3047 16.66 11.0313 16.9334C10.7579 17.2068 10.3873 17.3606 10.0007 17.361Z" fill="#171723"/>
<path d="M15.903 12.2919C17.1686 12.2919 18.1947 11.2659 18.1947 10.0002C18.1947 8.73457 17.1686 7.70856 15.903 7.70856C14.6373 7.70856 13.6113 8.73457 13.6113 10.0002C13.6113 11.2659 14.6373 12.2919 15.903 12.2919Z" fill="#171723"/>
<path d="M4.09684 7.70856C3.64359 7.70856 3.20052 7.84296 2.82366 8.09477C2.4468 8.34658 2.15307 8.70449 1.97962 9.12324C1.80617 9.54199 1.76079 10.0028 1.84921 10.4473C1.93764 10.8918 2.15589 11.3002 2.47639 11.6207C2.79689 11.9412 3.20522 12.1594 3.64976 12.2479C4.0943 12.3363 4.55508 12.2909 4.97383 12.1174C5.39257 11.944 5.75048 11.6503 6.00229 11.2734C6.25411 10.8965 6.38851 10.4535 6.38851 10.0002C6.38789 9.39263 6.14625 8.81009 5.71661 8.38045C5.28698 7.95082 4.70444 7.70917 4.09684 7.70856ZM4.09684 11.4586C3.80841 11.4586 3.52646 11.373 3.28664 11.2128C3.04682 11.0525 2.8599 10.8248 2.74952 10.5583C2.63914 10.2918 2.61026 9.99861 2.66653 9.71572C2.7228 9.43283 2.86169 9.17298 3.06565 8.96903C3.2696 8.76507 3.52945 8.62618 3.81234 8.56991C4.09523 8.51364 4.38845 8.54252 4.65492 8.6529C4.9214 8.76328 5.14916 8.9502 5.3094 9.19002C5.46965 9.42984 5.55518 9.71179 5.55518 10.0002C5.55471 10.3869 5.40091 10.7575 5.12752 11.0309C4.85414 11.3043 4.48347 11.4581 4.09684 11.4586Z" fill="#171723"/>
<path d="M10.0007 12.2919C11.2663 12.2919 12.2923 11.2659 12.2923 10.0002C12.2923 8.73457 11.2663 7.70856 10.0007 7.70856C8.735 7.70856 7.70898 8.73457 7.70898 10.0002C7.70898 11.2659 8.735 12.2919 10.0007 12.2919Z" fill="#171723"/>
</svg>
