<svg width="20" height="20" viewBox="0 0 20 20" fill="none" xmlns="http://www.w3.org/2000/svg">
<g clip-path="url(#clip0_5313_35045)">
<path d="M8.90853 6.13594C8.54106 5.73733 8.09119 5.42353 7.59019 5.21635C6.52064 4.79693 5.33189 4.79838 4.26337 5.22042C3.76447 5.42963 3.31648 5.74382 2.94986 6.14164C2.57438 6.55796 2.28605 7.04524 2.10186 7.57474C1.89771 8.16837 1.7975 8.79276 1.80563 9.42045C1.7975 10.0489 1.89771 10.6741 2.10186 11.2686C2.28522 11.797 2.57399 12.2826 2.95066 12.696C3.31739 13.093 3.76576 13.4059 4.26495 13.6132C5.11864 13.9462 6.05226 14.017 6.94643 13.8166C7.16228 13.7682 7.37378 13.7021 7.57875 13.6189L8.8556 14.9681C8.89322 15.0079 8.9383 15.0398 8.98827 15.0622C9.03824 15.0845 9.09212 15.0968 9.14683 15.0983C9.20154 15.0998 9.25601 15.0905 9.30714 15.071C9.35826 15.0515 9.40504 15.022 9.4448 14.9844C9.48455 14.9468 9.51651 14.9017 9.53884 14.8517C9.56118 14.8018 9.57345 14.7479 9.57496 14.6932C9.57647 14.6385 9.5672 14.584 9.54765 14.5329C9.52811 14.4818 9.49869 14.435 9.46108 14.3952L8.33235 13.2022C8.52617 13.0686 8.70586 12.9157 8.86864 12.7456C9.12685 12.4746 9.34523 12.1683 9.51724 11.8358C9.69747 11.4818 9.83201 11.1064 9.91763 10.7185C10.0099 10.292 10.0553 9.85676 10.0527 9.42045C10.061 8.79089 9.96084 8.16459 9.7565 7.56905C9.57276 7.03934 9.28439 6.55198 8.90853 6.13594ZM9.10465 10.5354C9.03534 10.8537 8.9251 11.1617 8.77669 11.4517C8.64187 11.7142 8.47002 11.9559 8.26643 12.1695C7.85767 12.5899 7.33397 12.8803 6.7609 13.0045C6.03605 13.1655 5.27983 13.1098 4.58643 12.8442C4.19736 12.683 3.84781 12.4395 3.56186 12.1304C3.26195 11.7987 3.03219 11.4098 2.8864 10.987C2.71437 10.483 2.63068 9.95299 2.639 9.42045C2.631 8.88872 2.71469 8.35959 2.8864 7.85629C3.03297 7.43134 3.2632 7.04007 3.56348 6.70558C3.84884 6.39532 4.19813 6.1507 4.58724 5.98861C5.01121 5.81549 5.4656 5.72916 5.92353 5.73474C6.38441 5.72874 6.84192 5.81421 7.26955 5.9862C7.65948 6.1466 8.0097 6.39017 8.29576 6.69991C8.59562 7.03458 8.82555 7.42582 8.97203 7.85063C9.14392 8.35584 9.2276 8.88686 9.21943 9.42045C9.2218 9.79516 9.18331 10.169 9.10464 10.5354H9.10465Z" fill="#171723"/>
<path d="M18.1629 13.3535L17.0043 10.5761C16.9999 10.5644 16.9956 10.5536 16.9903 10.5425L14.7441 5.15771C14.7124 5.08176 14.6589 5.01689 14.5904 4.97128C14.5219 4.92566 14.4415 4.90134 14.3592 4.90137H14.242C14.1597 4.90134 14.0792 4.92566 14.0107 4.97128C13.9422 5.01689 13.8887 5.08176 13.857 5.15771L10.4383 13.3535C10.3962 13.4556 10.3962 13.5701 10.4384 13.6721C10.4806 13.774 10.5615 13.8551 10.6634 13.8975C10.7653 13.94 10.8798 13.9403 10.9819 13.8984C11.084 13.8565 11.1654 13.7759 11.2081 13.6742L12.2665 11.1368H16.3347L17.3931 13.6742C17.4248 13.7501 17.4782 13.815 17.5467 13.8606C17.6152 13.9063 17.6957 13.9306 17.778 13.9305C17.833 13.9304 17.8874 13.9196 17.9383 13.8988C18.0403 13.8561 18.1211 13.7747 18.1632 13.6725C18.2053 13.5703 18.2052 13.4556 18.1629 13.3535ZM12.614 10.3034L14.3006 6.2596L15.9871 10.3034H12.614Z" fill="#171723"/>
</g>
<defs>
<clipPath id="clip0_5313_35045">
<rect width="20" height="20" fill="white"/>
</clipPath>
</defs>
</svg>
