<svg width="20" height="20" viewBox="0 0 20 20" fill="none" xmlns="http://www.w3.org/2000/svg">
<g clip-path="url(#clip0_10314_144683)">
<path d="M2.22233 18.1941C2.16761 18.194 2.11343 18.1832 2.06282 18.1624C1.98672 18.1308 1.92167 18.0774 1.8759 18.0089C1.83013 17.9404 1.80569 17.8599 1.80566 17.7775V4.75826C1.80668 3.97553 2.11807 3.22516 2.67154 2.67168C3.22501 2.11821 3.97538 1.80681 4.75811 1.80579H15.2415C16.0243 1.8068 16.7747 2.11819 17.3282 2.67167C17.8816 3.22515 18.193 3.97555 18.194 4.75829V12.1728C18.193 12.9556 17.8816 13.706 17.3282 14.2595C16.7747 14.8129 16.0243 15.1243 15.2415 15.1253H6.33529C5.77222 15.1272 5.23262 15.3512 4.83382 15.7487L2.51774 18.0721C2.4393 18.1502 2.33307 18.1941 2.22233 18.1941ZM4.75811 2.63912C4.19625 2.63971 3.65757 2.86316 3.26028 3.26046C2.86298 3.65775 2.63953 4.19643 2.63894 4.75829V16.7692L4.24376 15.1595C4.7996 14.6064 5.55108 14.2947 6.33523 14.292H15.2415C15.8033 14.2914 16.342 14.068 16.7393 13.6707C17.1366 13.2734 17.3601 12.7347 17.3606 12.1728V4.75826C17.3601 4.1964 17.1366 3.65772 16.7393 3.26043C16.342 2.86314 15.8033 2.63968 15.2415 2.63909L4.75811 2.63912Z" fill="#171723"/>
<path d="M9.57585 10.6176C9.52112 10.6177 9.46693 10.6069 9.41636 10.586C9.3658 10.5651 9.31985 10.5344 9.28115 10.4957C9.24245 10.457 9.21177 10.411 9.19084 10.3605C9.16991 10.3099 9.15915 10.2557 9.15918 10.201V9.29602C9.1596 8.97434 9.28757 8.66596 9.51503 8.4385C9.7425 8.21105 10.0509 8.08309 10.3726 8.08268C10.6621 8.08268 10.9452 7.99681 11.1859 7.83595C11.4267 7.67508 11.6143 7.44643 11.7251 7.17892C11.8359 6.91141 11.8649 6.61705 11.8084 6.33306C11.7519 6.04907 11.6125 5.78821 11.4078 5.58347C11.203 5.37872 10.9422 5.23929 10.6582 5.1828C10.3742 5.12631 10.0798 5.1553 9.8123 5.2661C9.54479 5.37691 9.31614 5.56455 9.15528 5.8053C8.99441 6.04605 8.90854 6.3291 8.90853 6.61865C8.90853 6.72916 8.86464 6.83514 8.7865 6.91328C8.70836 6.99142 8.60237 7.03532 8.49187 7.03532C8.38136 7.03532 8.27538 6.99142 8.19724 6.91328C8.1191 6.83514 8.0752 6.72916 8.0752 6.61865C8.07444 6.27318 8.15195 5.93203 8.30192 5.6208C8.45188 5.30958 8.67041 5.03637 8.94108 4.8217C9.21473 4.60485 9.53388 4.45268 9.87464 4.37659C10.2154 4.30049 10.569 4.30244 10.9089 4.38228C11.3228 4.47834 11.7016 4.68856 12.0021 4.98906C12.3026 5.28957 12.5128 5.66831 12.6089 6.08228C12.6888 6.42218 12.6908 6.77577 12.6147 7.11655C12.5386 7.45733 12.3864 7.77647 12.1694 8.05005C11.9547 8.32072 11.6815 8.53924 11.3703 8.68921C11.0591 8.83917 10.718 8.91669 10.3725 8.91594C10.3226 8.91594 10.2732 8.92576 10.2271 8.94485C10.181 8.96395 10.1391 8.99194 10.1038 9.02723C10.0685 9.06251 10.0405 9.1044 10.0214 9.15051C10.0023 9.19662 9.99248 9.24604 9.99248 9.29594V10.2009C9.99253 10.2556 9.98178 10.3098 9.96086 10.3604C9.93993 10.411 9.90925 10.4569 9.87055 10.4956C9.83186 10.5343 9.78591 10.565 9.73535 10.586C9.68478 10.6069 9.63058 10.6177 9.57585 10.6176Z" fill="#171723"/>
<path d="M9.57601 12.6441C9.89818 12.6441 10.1593 12.3829 10.1593 12.0608C10.1593 11.7386 9.89818 11.4774 9.57601 11.4774C9.25384 11.4774 8.99268 11.7386 8.99268 12.0608C8.99268 12.3829 9.25384 12.6441 9.57601 12.6441Z" fill="#171723"/>
</g>
<defs>
<clipPath id="clip0_10314_144683">
<rect width="20" height="20" fill="white"/>
</clipPath>
</defs>
</svg>
