<svg width="20" height="20" viewBox="0 0 20 20" fill="none" xmlns="http://www.w3.org/2000/svg">
<g clip-path="url(#clip0_5313_35054)">
<path d="M8.36443 14.7847C8.3097 14.7847 8.2555 14.7739 8.20494 14.753C8.15437 14.7321 8.10842 14.7014 8.06973 14.6627C8.03103 14.624 8.00034 14.5781 7.97941 14.5275C7.95848 14.4769 7.94773 14.4227 7.94776 14.368V12.3783C7.94842 11.8342 8.16489 11.3127 8.54967 10.928C8.93445 10.5434 9.45611 10.3271 10.0002 10.3266C10.5177 10.3277 11.0288 10.2116 11.495 9.98691C11.9613 9.76225 12.3706 9.43489 12.6922 9.02942C13.0178 8.61737 13.2458 8.13697 13.3593 7.62424C13.4727 7.1115 13.4686 6.57974 13.3473 6.06881C13.1995 5.45477 12.8849 4.8935 12.4383 4.4469C11.9917 4.00031 11.4304 3.68574 10.8164 3.53789C10.3056 3.41595 9.77387 3.41155 9.26117 3.52504C8.74846 3.63852 8.26821 3.86693 7.85663 4.19303C7.45115 4.51467 7.12379 4.92397 6.89913 5.39022C6.67446 5.85646 6.55831 6.36754 6.55941 6.88509C6.55941 6.9956 6.51551 7.10158 6.43737 7.17972C6.35923 7.25786 6.25325 7.30176 6.14274 7.30176C6.03223 7.30176 5.92625 7.25786 5.84811 7.17972C5.76997 7.10158 5.72607 6.9956 5.72607 6.88509C5.72561 5.83804 6.10933 4.82722 6.80449 4.04424C7.49965 3.26126 8.45793 2.76055 9.49767 2.63704C10.5374 2.51353 11.5863 2.7758 12.4456 3.37414C13.3048 3.97247 13.9147 4.86527 14.1595 5.88329C14.3092 6.51622 14.3134 7.17483 14.1721 7.80966C14.0307 8.44449 13.7473 9.03904 13.3433 9.54866C12.9439 10.0523 12.4357 10.459 11.8567 10.7381C11.2777 11.0171 10.6429 11.1614 10.0002 11.16C9.67707 11.1603 9.3673 11.2887 9.13877 11.5171C8.91024 11.7455 8.78161 12.0552 8.78109 12.3783V14.368C8.78112 14.4228 8.77036 14.477 8.74942 14.5275C8.72849 14.5781 8.6978 14.624 8.65911 14.6627C8.62041 14.7014 8.57447 14.7321 8.5239 14.753C8.47334 14.7739 8.41915 14.7847 8.36443 14.7847Z" fill="#171723"/>
<path d="M8.36502 16.9722C8.67691 16.9722 8.92974 16.7194 8.92974 16.4075C8.92974 16.0956 8.67691 15.8428 8.36502 15.8428C8.05313 15.8428 7.80029 16.0956 7.80029 16.4075C7.80029 16.7194 8.05313 16.9722 8.36502 16.9722Z" fill="#171723"/>
</g>
<defs>
<clipPath id="clip0_5313_35054">
<rect width="20" height="20" fill="white"/>
</clipPath>
</defs>
</svg>
