<svg width="20" height="20" viewBox="0 0 20 20" fill="none" xmlns="http://www.w3.org/2000/svg">
<g clip-path="url(#clip0_10317_147048)">
<path d="M16.5356 10H8.9995C8.74139 10.0002 8.4897 10.0805 8.27917 10.2298C8.06863 10.3791 7.90965 10.5901 7.82415 10.8336C7.77363 10.9668 7.74816 11.1081 7.74905 11.2505V14.8267C7.74884 14.991 7.78104 15.1537 7.8438 15.3055C7.90657 15.4573 7.99867 15.5953 8.11483 15.7114C8.23098 15.8276 8.36892 15.9197 8.52073 15.9824C8.67253 16.0452 8.83523 16.0774 8.9995 16.0772H16.5356C16.8661 16.0759 17.1825 15.9435 17.4154 15.709C17.6483 15.4745 17.7786 15.1572 17.7777 14.8267V11.2505C17.7786 10.92 17.6483 10.6026 17.4154 10.3682C17.1825 10.1337 16.8661 10.0013 16.5356 10Z" fill="#171723"/>
<path d="M12.2508 6.12361V5.1649C12.2495 4.83443 12.1171 4.51799 11.8827 4.28509C11.6482 4.05219 11.3309 3.92189 11.0004 3.9228H3.46428C3.1351 3.92361 2.81964 4.05473 2.58687 4.2875C2.35411 4.52026 2.22298 4.83573 2.22217 5.1649V8.74953C2.22125 9.08001 2.35155 9.39734 2.58445 9.63181C2.81735 9.86627 3.1338 9.9987 3.46428 9.99999H4.14782V8.2077C4.14802 7.65502 4.36766 7.12504 4.75846 6.73424C5.14926 6.34345 5.67924 6.12381 6.23191 6.12361H12.2508Z" fill="#171723"/>
<path d="M12.1757 9.16639H15.0185V8.20773C15.0187 8.04345 14.9865 7.88075 14.9237 7.72894C14.861 7.57713 14.7689 7.4392 14.6527 7.32304C14.5365 7.20688 14.3986 7.11478 14.2468 7.05202C14.095 6.98925 13.9323 6.95706 13.768 6.95728H6.2319C6.06763 6.95706 5.90493 6.98925 5.75312 7.05202C5.60131 7.11478 5.46337 7.20688 5.34721 7.32304C5.23105 7.4392 5.13895 7.57713 5.07619 7.72894C5.01343 7.88075 4.98123 8.04345 4.98145 8.20773V11.7924C4.98123 11.9566 5.01343 12.1193 5.0762 12.2711C5.13896 12.4229 5.23106 12.5609 5.34722 12.677C5.46338 12.7932 5.60131 12.8853 5.75312 12.9481C5.90493 13.0108 6.06763 13.043 6.2319 13.0428H6.91544V11.2505C6.91651 11.1105 6.93048 10.971 6.95716 10.8337C7.01971 10.5317 7.14775 10.2471 7.33226 10C7.52597 9.74074 7.77761 9.53034 8.06709 9.3856C8.35657 9.24086 8.67588 9.16579 8.99953 9.16639H12.1757Z" fill="#171723"/>
</g>
<defs>
<clipPath id="clip0_10317_147048">
<rect width="20" height="20" fill="white"/>
</clipPath>
</defs>
</svg>
