<svg width="20" height="20" viewBox="0 0 20 20" fill="none" xmlns="http://www.w3.org/2000/svg">
<path d="M12.819 2.2222H7.1605C7.0978 2.22144 7.03557 2.23264 6.97738 2.25514C6.91918 2.27765 6.86618 2.31103 6.82141 2.35337C6.77663 2.3957 6.74098 2.44615 6.71649 2.50181C6.692 2.55748 6.67916 2.61727 6.67871 2.67773V3.27901C6.67916 3.33948 6.69199 3.39927 6.71648 3.45494C6.74097 3.51061 6.77662 3.56106 6.8214 3.60339C6.86617 3.64572 6.91918 3.6791 6.97737 3.70161C7.03557 3.72412 7.0978 3.73531 7.1605 3.73454H12.819C12.8812 3.73514 12.9429 3.72376 13.0005 3.70108C13.0581 3.6784 13.1104 3.64487 13.1544 3.60245C13.1984 3.56003 13.2332 3.50958 13.2567 3.45404C13.2802 3.3985 13.292 3.339 13.2914 3.27901V2.67773C13.292 2.61775 13.2802 2.55825 13.2567 2.50271C13.2331 2.44718 13.1984 2.39673 13.1544 2.35431C13.1104 2.31189 13.0581 2.27836 13.0005 2.25568C12.9429 2.23299 12.8812 2.22161 12.819 2.2222ZM12.819 2.2222H7.1605C7.0978 2.22144 7.03557 2.23264 6.97738 2.25514C6.91918 2.27765 6.86618 2.31103 6.82141 2.35337C6.77663 2.3957 6.74098 2.44615 6.71649 2.50181C6.692 2.55748 6.67916 2.61727 6.67871 2.67773V3.27901C6.67916 3.33948 6.69199 3.39927 6.71648 3.45494C6.74097 3.51061 6.77662 3.56106 6.8214 3.60339C6.86617 3.64572 6.91918 3.6791 6.97737 3.70161C7.03557 3.72412 7.0978 3.73531 7.1605 3.73454H12.819C12.8812 3.73514 12.9429 3.72376 13.0005 3.70108C13.0581 3.6784 13.1104 3.64487 13.1544 3.60245C13.1984 3.56003 13.2332 3.50958 13.2567 3.45404C13.2802 3.3985 13.292 3.339 13.2914 3.27901V2.67773C13.292 2.61775 13.2802 2.55825 13.2567 2.50271C13.2331 2.44718 13.1984 2.39673 13.1544 2.35431C13.1104 2.31189 13.0581 2.27836 13.0005 2.25568C12.9429 2.23299 12.8812 2.22161 12.819 2.2222ZM12.819 2.2222H7.1605C7.0978 2.22144 7.03557 2.23264 6.97738 2.25514C6.91918 2.27765 6.86618 2.31103 6.82141 2.35337C6.77663 2.3957 6.74098 2.44615 6.71649 2.50181C6.692 2.55748 6.67916 2.61727 6.67871 2.67773V3.27901C6.67916 3.33948 6.69199 3.39927 6.71648 3.45494C6.74097 3.51061 6.77662 3.56106 6.8214 3.60339C6.86617 3.64572 6.91918 3.6791 6.97737 3.70161C7.03557 3.72412 7.0978 3.73531 7.1605 3.73454H12.819C12.8812 3.73514 12.9429 3.72376 13.0005 3.70108C13.0581 3.6784 13.1104 3.64487 13.1544 3.60245C13.1984 3.56003 13.2332 3.50958 13.2567 3.45404C13.2802 3.3985 13.292 3.339 13.2914 3.27901V2.67773C13.292 2.61775 13.2802 2.55825 13.2567 2.50271C13.2331 2.44718 13.1984 2.39673 13.1544 2.35431C13.1104 2.31189 13.0581 2.27836 13.0005 2.25568C12.9429 2.23299 12.8812 2.22161 12.819 2.2222ZM12.819 2.2222H7.1605C7.0978 2.22144 7.03557 2.23264 6.97738 2.25514C6.91918 2.27765 6.86618 2.31103 6.82141 2.35337C6.77663 2.3957 6.74098 2.44615 6.71649 2.50181C6.692 2.55748 6.67916 2.61727 6.67871 2.67773V3.27901C6.67916 3.33948 6.69199 3.39927 6.71648 3.45494C6.74097 3.51061 6.77662 3.56106 6.8214 3.60339C6.86617 3.64572 6.91918 3.6791 6.97737 3.70161C7.03557 3.72412 7.0978 3.73531 7.1605 3.73454H12.819C12.8812 3.73514 12.9429 3.72376 13.0005 3.70108C13.0581 3.6784 13.1104 3.64487 13.1544 3.60245C13.1984 3.56003 13.2332 3.50958 13.2567 3.45404C13.2802 3.3985 13.292 3.339 13.2914 3.27901V2.67773C13.292 2.61775 13.2802 2.55825 13.2567 2.50271C13.2331 2.44718 13.1984 2.39673 13.1544 2.35431C13.1104 2.31189 13.0581 2.27836 13.0005 2.25568C12.9429 2.23299 12.8812 2.22161 12.819 2.2222ZM12.819 2.2222H7.1605C7.0978 2.22144 7.03557 2.23264 6.97738 2.25514C6.91918 2.27765 6.86618 2.31103 6.82141 2.35337C6.77663 2.3957 6.74098 2.44615 6.71649 2.50181C6.692 2.55748 6.67916 2.61727 6.67871 2.67773V3.27901C6.67916 3.33948 6.69199 3.39927 6.71648 3.45494C6.74097 3.51061 6.77662 3.56106 6.8214 3.60339C6.86617 3.64572 6.91918 3.6791 6.97737 3.70161C7.03557 3.72412 7.0978 3.73531 7.1605 3.73454H12.819C12.8812 3.73514 12.9429 3.72376 13.0005 3.70108C13.0581 3.6784 13.1104 3.64487 13.1544 3.60245C13.1984 3.56003 13.2332 3.50958 13.2567 3.45404C13.2802 3.3985 13.292 3.339 13.2914 3.27901V2.67773C13.292 2.61775 13.2802 2.55825 13.2567 2.50271C13.2331 2.44718 13.1984 2.39673 13.1544 2.35431C13.1104 2.31189 13.0581 2.27836 13.0005 2.25568C12.9429 2.23299 12.8812 2.22161 12.819 2.2222ZM12.819 2.2222H7.1605C7.0978 2.22144 7.03557 2.23264 6.97738 2.25514C6.91918 2.27765 6.86618 2.31103 6.82141 2.35337C6.77663 2.3957 6.74098 2.44615 6.71649 2.50181C6.692 2.55748 6.67916 2.61727 6.67871 2.67773V3.27901C6.67916 3.33948 6.69199 3.39927 6.71648 3.45494C6.74097 3.51061 6.77662 3.56106 6.8214 3.60339C6.86617 3.64572 6.91918 3.6791 6.97737 3.70161C7.03557 3.72412 7.0978 3.73531 7.1605 3.73454H12.819C12.8812 3.73514 12.9429 3.72376 13.0005 3.70108C13.0581 3.6784 13.1104 3.64487 13.1544 3.60245C13.1984 3.56003 13.2332 3.50958 13.2567 3.45404C13.2802 3.3985 13.292 3.339 13.2914 3.27901V2.67773C13.292 2.61775 13.2802 2.55825 13.2567 2.50271C13.2331 2.44718 13.1984 2.39673 13.1544 2.35431C13.1104 2.31189 13.0581 2.27836 13.0005 2.25568C12.9429 2.23299 12.8812 2.22161 12.819 2.2222ZM12.819 2.2222H7.1605C7.0978 2.22144 7.03557 2.23264 6.97738 2.25514C6.91918 2.27765 6.86618 2.31103 6.82141 2.35337C6.77663 2.3957 6.74098 2.44615 6.71649 2.50181C6.692 2.55748 6.67916 2.61727 6.67871 2.67773V3.27901C6.67916 3.33948 6.69199 3.39927 6.71648 3.45494C6.74097 3.51061 6.77662 3.56106 6.8214 3.60339C6.86617 3.64572 6.91918 3.6791 6.97737 3.70161C7.03557 3.72412 7.0978 3.73531 7.1605 3.73454H12.819C12.8812 3.73514 12.9429 3.72376 13.0005 3.70108C13.0581 3.6784 13.1104 3.64487 13.1544 3.60245C13.1984 3.56003 13.2332 3.50958 13.2567 3.45404C13.2802 3.3985 13.292 3.339 13.2914 3.27901V2.67773C13.292 2.61775 13.2802 2.55825 13.2567 2.50271C13.2331 2.44718 13.1984 2.39673 13.1544 2.35431C13.1104 2.31189 13.0581 2.27836 13.0005 2.25568C12.9429 2.23299 12.8812 2.22161 12.819 2.2222ZM12.819 2.2222H7.1605C7.0978 2.22144 7.03557 2.23264 6.97738 2.25514C6.91918 2.27765 6.86618 2.31103 6.82141 2.35337C6.77663 2.3957 6.74098 2.44615 6.71649 2.50181C6.692 2.55748 6.67916 2.61727 6.67871 2.67773V3.27901C6.67916 3.33948 6.69199 3.39927 6.71648 3.45494C6.74097 3.51061 6.77662 3.56106 6.8214 3.60339C6.86617 3.64572 6.91918 3.6791 6.97737 3.70161C7.03557 3.72412 7.0978 3.73531 7.1605 3.73454H12.819C12.8812 3.73514 12.9429 3.72376 13.0005 3.70108C13.0581 3.6784 13.1104 3.64487 13.1544 3.60245C13.1984 3.56003 13.2332 3.50958 13.2567 3.45404C13.2802 3.3985 13.292 3.339 13.2914 3.27901V2.67773C13.292 2.61775 13.2802 2.55825 13.2567 2.50271C13.2331 2.44718 13.1984 2.39673 13.1544 2.35431C13.1104 2.31189 13.0581 2.27836 13.0005 2.25568C12.9429 2.23299 12.8812 2.22161 12.819 2.2222ZM12.819 2.2222H7.1605C7.0978 2.22144 7.03557 2.23264 6.97738 2.25514C6.91918 2.27765 6.86618 2.31103 6.82141 2.35337C6.77663 2.3957 6.74098 2.44615 6.71649 2.50181C6.692 2.55748 6.67916 2.61727 6.67871 2.67773V3.27901C6.67916 3.33948 6.69199 3.39927 6.71648 3.45494C6.74097 3.51061 6.77662 3.56106 6.8214 3.60339C6.86617 3.64572 6.91918 3.6791 6.97737 3.70161C7.03557 3.72412 7.0978 3.73531 7.1605 3.73454H12.819C12.8812 3.73514 12.9429 3.72376 13.0005 3.70108C13.0581 3.6784 13.1104 3.64487 13.1544 3.60245C13.1984 3.56003 13.2332 3.50958 13.2567 3.45404C13.2802 3.3985 13.292 3.339 13.2914 3.27901V2.67773C13.292 2.61775 13.2802 2.55825 13.2567 2.50271C13.2331 2.44718 13.1984 2.39673 13.1544 2.35431C13.1104 2.31189 13.0581 2.27836 13.0005 2.25568C12.9429 2.23299 12.8812 2.22161 12.819 2.2222ZM12.819 2.2222H7.1605C7.0978 2.22144 7.03557 2.23264 6.97738 2.25514C6.91918 2.27765 6.86618 2.31103 6.82141 2.35337C6.77663 2.3957 6.74098 2.44615 6.71649 2.50181C6.692 2.55748 6.67916 2.61727 6.67871 2.67773V3.27901C6.67916 3.33948 6.69199 3.39927 6.71648 3.45494C6.74097 3.51061 6.77662 3.56106 6.8214 3.60339C6.86617 3.64572 6.91918 3.6791 6.97737 3.70161C7.03557 3.72412 7.0978 3.73531 7.1605 3.73454H12.819C12.8812 3.73514 12.9429 3.72376 13.0005 3.70108C13.0581 3.6784 13.1104 3.64487 13.1544 3.60245C13.1984 3.56003 13.2332 3.50958 13.2567 3.45404C13.2802 3.3985 13.292 3.339 13.2914 3.27901V2.67773C13.292 2.61775 13.2802 2.55825 13.2567 2.50271C13.2331 2.44718 13.1984 2.39673 13.1544 2.35431C13.1104 2.31189 13.0581 2.27836 13.0005 2.25568C12.9429 2.23299 12.8812 2.22161 12.819 2.2222ZM12.819 2.2222H7.1605C7.0978 2.22144 7.03557 2.23264 6.97738 2.25514C6.91918 2.27765 6.86618 2.31103 6.82141 2.35337C6.77663 2.3957 6.74098 2.44615 6.71649 2.50181C6.692 2.55748 6.67916 2.61727 6.67871 2.67773V3.27901C6.67916 3.33948 6.69199 3.39927 6.71648 3.45494C6.74097 3.51061 6.77662 3.56106 6.8214 3.60339C6.86617 3.64572 6.91918 3.6791 6.97737 3.70161C7.03557 3.72412 7.0978 3.73531 7.1605 3.73454H12.819C12.8812 3.73514 12.9429 3.72376 13.0005 3.70108C13.0581 3.6784 13.1104 3.64487 13.1544 3.60245C13.1984 3.56003 13.2332 3.50958 13.2567 3.45404C13.2802 3.3985 13.292 3.339 13.2914 3.27901V2.67773C13.292 2.61775 13.2802 2.55825 13.2567 2.50271C13.2331 2.44718 13.1984 2.39673 13.1544 2.35431C13.1104 2.31189 13.0581 2.27836 13.0005 2.25568C12.9429 2.23299 12.8812 2.22161 12.819 2.2222ZM12.819 2.2222H7.1605C7.0978 2.22144 7.03557 2.23264 6.97738 2.25514C6.91918 2.27765 6.86618 2.31103 6.82141 2.35337C6.77663 2.3957 6.74098 2.44615 6.71649 2.50181C6.692 2.55748 6.67916 2.61727 6.67871 2.67773V3.27901C6.67916 3.33948 6.69199 3.39927 6.71648 3.45494C6.74097 3.51061 6.77662 3.56106 6.8214 3.60339C6.86617 3.64572 6.91918 3.6791 6.97737 3.70161C7.03557 3.72412 7.0978 3.73531 7.1605 3.73454H12.819C12.8812 3.73514 12.9429 3.72376 13.0005 3.70108C13.0581 3.6784 13.1104 3.64487 13.1544 3.60245C13.1984 3.56003 13.2332 3.50958 13.2567 3.45404C13.2802 3.3985 13.292 3.339 13.2914 3.27901V2.67773C13.292 2.61775 13.2802 2.55825 13.2567 2.50271C13.2331 2.44718 13.1984 2.39673 13.1544 2.35431C13.1104 2.31189 13.0581 2.27836 13.0005 2.25568C12.9429 2.23299 12.8812 2.22161 12.819 2.2222Z" fill="#171723"/>
<path d="M14.2359 3.73462H14.217C14.1805 4.06756 14.0175 4.37566 13.7592 4.59944C13.501 4.82321 13.166 4.94678 12.8189 4.94629H7.16035C6.81217 4.94704 6.47596 4.82379 6.2162 4.60018C5.95645 4.37657 5.79143 4.06835 5.7528 3.73462H5.73389C4.98246 3.73521 4.26197 4.02335 3.73063 4.5358C3.19929 5.04824 2.90051 5.74309 2.8999 6.4678V15.879C2.90051 16.6038 3.19929 17.2986 3.73063 17.811C4.26198 18.3235 4.98246 18.6116 5.73389 18.6122H14.2359C14.6082 18.6127 14.977 18.5423 15.321 18.4052C15.6651 18.268 15.9777 18.0667 16.241 17.8128C16.5042 17.5589 16.713 17.2574 16.8552 16.9256C16.9974 16.5937 17.0704 16.2381 17.0699 15.879V6.4678C17.0704 6.10874 16.9974 5.75311 16.8552 5.42129C16.713 5.08946 16.5042 4.78797 16.241 4.53407C15.9777 4.28018 15.6651 4.07887 15.321 3.94169C14.977 3.8045 14.6082 3.73414 14.2359 3.73462ZM8.27511 7.65218H9.51257V6.45868C9.51292 6.33798 9.5628 6.22231 9.6513 6.13695C9.7398 6.0516 9.85974 6.0035 9.9849 6.00316C10.0471 6.00256 10.1088 6.01394 10.1664 6.03662C10.224 6.0593 10.2763 6.09283 10.3203 6.13525C10.3642 6.17767 10.399 6.22812 10.4225 6.28366C10.4461 6.3392 10.4578 6.3987 10.4572 6.45868V7.65218H11.6948C11.7571 7.65181 11.8188 7.66332 11.8764 7.68605C11.9341 7.70877 11.9865 7.74227 12.0307 7.7846C12.0748 7.82694 12.1099 7.87728 12.1338 7.93273C12.1577 7.98818 12.17 8.04765 12.17 8.10771C12.17 8.16777 12.1577 8.22723 12.1338 8.28268C12.1099 8.33813 12.0748 8.38847 12.0307 8.43081C11.9865 8.47315 11.9341 8.50664 11.8764 8.52937C11.8188 8.5521 11.7571 8.56361 11.6948 8.56324H10.4572V9.75672C10.4578 9.81671 10.4461 9.87621 10.4225 9.93175C10.399 9.98728 10.3642 10.0377 10.3203 10.0802C10.2763 10.1226 10.224 10.1561 10.1664 10.1788C10.1088 10.2015 10.0471 10.2128 9.9849 10.2123C9.85974 10.2119 9.7398 10.1638 9.6513 10.0785C9.5628 9.9931 9.51292 9.87743 9.51257 9.75672V8.56325H8.27511C8.21284 8.56361 8.15111 8.5521 8.09347 8.52938C8.03583 8.50665 7.98341 8.47316 7.93924 8.43082C7.89507 8.38848 7.86002 8.33814 7.8361 8.28269C7.81218 8.22724 7.79987 8.16777 7.79987 8.10772C7.79987 8.04766 7.81218 7.98819 7.8361 7.93274C7.86002 7.87729 7.89507 7.82695 7.93924 7.78461C7.98341 7.74228 8.03583 7.70878 8.09347 7.68605C8.15111 7.66333 8.21284 7.65182 8.27511 7.65219V7.65218ZM13.7636 17.0999H6.20625C6.08159 17.098 5.96258 17.0494 5.87442 16.9644C5.78626 16.8794 5.73587 16.7646 5.73391 16.6444C5.73427 16.5237 5.78415 16.408 5.87266 16.3226C5.96116 16.2373 6.08109 16.1892 6.20625 16.1888H13.7636C13.8258 16.1882 13.8874 16.1996 13.945 16.2223C14.0026 16.245 14.0549 16.2785 14.0989 16.3209C14.1429 16.3634 14.1777 16.4138 14.2012 16.4693C14.2247 16.5249 14.2365 16.5844 14.2359 16.6444C14.2355 16.7651 14.1857 16.8808 14.0972 16.9661C14.0087 17.0515 13.8887 17.0996 13.7636 17.0999ZM13.7636 14.6674H6.20625C6.14398 14.6677 6.08224 14.6562 6.0246 14.6335C5.96696 14.6108 5.91455 14.5773 5.87038 14.535C5.82621 14.4926 5.79116 14.4423 5.76724 14.3868C5.74332 14.3314 5.731 14.2719 5.731 14.2118C5.731 14.1518 5.74332 14.0923 5.76724 14.0369C5.79116 13.9814 5.82621 13.9311 5.87038 13.8887C5.91455 13.8464 5.96696 13.8129 6.0246 13.7902C6.08224 13.7675 6.14398 13.7559 6.20625 13.7563H13.7636C13.8258 13.7559 13.8876 13.7675 13.9452 13.7902C14.0028 13.8129 14.0553 13.8464 14.0994 13.8887C14.1436 13.9311 14.1786 13.9814 14.2026 14.0369C14.2265 14.0923 14.2388 14.1518 14.2388 14.2118C14.2388 14.2719 14.2265 14.3314 14.2026 14.3868C14.1786 14.4423 14.1436 14.4926 14.0994 14.535C14.0553 14.5773 14.0028 14.6108 13.9452 14.6335C13.8876 14.6562 13.8258 14.6677 13.7636 14.6674ZM13.7636 12.2348H6.20625C6.08108 12.2345 5.96115 12.1864 5.87264 12.101C5.78414 12.0156 5.73426 11.9 5.73391 11.7793C5.73588 11.659 5.78628 11.5443 5.87444 11.4593C5.96259 11.3742 6.08159 11.3256 6.20625 11.3237H13.7636C13.8887 11.3241 14.0086 11.3722 14.0971 11.4575C14.1856 11.5429 14.2355 11.6586 14.2359 11.7793C14.2365 11.8393 14.2247 11.8988 14.2012 11.9543C14.1777 12.0098 14.1429 12.0603 14.0989 12.1027C14.0549 12.1451 14.0026 12.1787 13.945 12.2013C13.8875 12.224 13.8258 12.2354 13.7636 12.2348Z" fill="#171723"/>
</svg>
