<svg width="20" height="20" viewBox="0 0 20 20" fill="none" xmlns="http://www.w3.org/2000/svg">
<g clip-path="url(#clip0_10314_146459)">
<path d="M15.9619 6.545C15.9742 6.47351 15.9674 6.40003 15.9421 6.33204L15.9419 6.32954L15.9352 6.32135C15.9162 6.27533 15.889 6.23316 15.8549 6.19689L14.2183 4.51794C14.1802 4.47831 14.1347 4.4466 14.0843 4.42464C14.034 4.40267 13.9798 4.39089 13.9248 4.38995C13.8699 4.38902 13.8153 4.39896 13.7642 4.4192C13.7132 4.43944 13.6666 4.46958 13.6272 4.50789C13.5878 4.5462 13.5564 4.59192 13.5348 4.64242C13.5131 4.69291 13.5017 4.74719 13.5011 4.80213C13.5005 4.85707 13.5108 4.91158 13.5314 4.96253C13.5519 5.01347 13.5824 5.05985 13.6209 5.09899L14.5681 6.07065H7.34814C6.46643 6.073 5.62165 6.42502 4.99918 7.04948C4.3767 7.67394 4.02737 8.51983 4.02783 9.40155V15.1909C4.02783 15.3014 4.07173 15.4074 4.14987 15.4856C4.22801 15.5637 4.33399 15.6076 4.4445 15.6076C4.55501 15.6076 4.66099 15.5637 4.73913 15.4856C4.81727 15.4074 4.86117 15.3014 4.86117 15.1909V9.40156C4.86056 8.74081 5.12205 8.1068 5.58827 7.63859C6.0545 7.17038 6.6874 6.9062 7.34814 6.904H14.5373L13.6307 7.7943C13.5909 7.83249 13.5591 7.87819 13.5371 7.92877C13.5151 7.97934 13.5034 8.03377 13.5026 8.08891C13.5018 8.14405 13.512 8.1988 13.5325 8.24998C13.553 8.30116 13.5835 8.34776 13.6222 8.38708C13.6608 8.42639 13.7069 8.45764 13.7578 8.47901C13.8086 8.50038 13.8632 8.51145 13.9183 8.51157C13.9735 8.51169 14.0281 8.50086 14.079 8.47972C14.1299 8.45857 14.1762 8.42752 14.215 8.38838L15.8466 6.78605L15.8467 6.786L15.8467 6.7859L15.8483 6.78438L15.8503 6.78061C15.8998 6.72882 15.9346 6.66491 15.9514 6.59532C15.956 6.5788 15.9595 6.56199 15.9619 6.545Z" fill="#171723"/>
</g>
<defs>
<clipPath id="clip0_10314_146459">
<rect width="20" height="20" fill="white"/>
</clipPath>
</defs>
</svg>
