<svg width="20" height="20" viewBox="0 0 20 20" fill="none" xmlns="http://www.w3.org/2000/svg">
<g clip-path="url(#clip0_10310_144562)">
<path d="M10.2051 1.81226C12.322 1.72314 14.3902 2.46391 15.9691 3.87684L16.6171 3.22841C16.6424 3.20314 16.6738 3.18497 16.7083 3.17571C16.7428 3.16645 16.7791 3.16644 16.8136 3.17567C16.8481 3.1849 16.8795 3.20305 16.9048 3.22829C16.93 3.25353 16.9482 3.28498 16.9574 3.31947L17.6506 5.90388C17.6584 5.93283 17.6584 5.96332 17.6506 5.99227C17.6429 6.02123 17.6276 6.04763 17.6064 6.06883C17.5852 6.09003 17.5589 6.10529 17.5299 6.11306C17.501 6.12084 17.4705 6.12086 17.4415 6.11312L14.8567 5.42163C14.8222 5.41242 14.7907 5.39428 14.7654 5.36905C14.7402 5.34381 14.722 5.31237 14.7128 5.27789C14.7035 5.2434 14.7035 5.20709 14.7127 5.17259C14.722 5.1381 14.7401 5.10665 14.7654 5.08141L15.3801 4.46628C14.5333 3.72064 13.5259 3.18028 12.4363 2.88718C11.3467 2.59408 10.2042 2.55613 9.09759 2.77628C7.63131 3.05429 6.28622 3.77715 5.24524 4.84656C4.20426 5.91597 3.51791 7.28005 3.27951 8.75329C3.05213 10.1241 3.2141 11.5312 3.74699 12.8146C4.27988 14.0979 5.16228 15.2059 6.2938 16.0124C7.42532 16.819 8.76052 17.2917 10.1475 17.3769C11.5344 17.462 12.9174 17.1562 14.1391 16.4941C14.7492 16.2068 15.2841 15.7814 15.7015 15.2517C15.7359 15.206 15.7793 15.1679 15.8291 15.1397C15.8788 15.1115 15.9338 15.0939 15.9907 15.0879C16.0476 15.0819 16.1051 15.0876 16.1596 15.1048C16.2141 15.122 16.2646 15.1502 16.3077 15.1877C16.3509 15.2252 16.3859 15.2712 16.4105 15.3228C16.4351 15.3744 16.4488 15.4305 16.4508 15.4877C16.4528 15.5448 16.4431 15.6018 16.4221 15.655C16.4011 15.7082 16.3694 15.7565 16.329 15.7969C15.1535 16.9713 13.6489 17.7606 12.0145 18.0601C10.3801 18.3596 8.69333 18.1553 7.1778 17.4741C5.66227 16.7929 4.38963 15.667 3.52866 14.2459C2.6677 12.8248 2.25909 11.1755 2.35702 9.51683C2.48616 7.49133 3.35856 5.5848 4.80689 4.16295C6.25523 2.74109 8.17752 1.90401 10.2051 1.81226Z" fill="#494446"/>
</g>
<defs>
<clipPath id="clip0_10310_144562">
<rect width="20" height="20" fill="white" transform="translate(20) rotate(90)"/>
</clipPath>
</defs>
</svg>
