<svg width="20" height="20" viewBox="0 0 20 20" fill="none" xmlns="http://www.w3.org/2000/svg">
<path d="M16.9212 6.39432C17.2589 6.39395 17.5826 6.25965 17.8214 6.02088C18.0602 5.78212 18.1945 5.45839 18.1948 5.12072V3.0789C18.1945 2.74123 18.0602 2.4175 17.8214 2.17874C17.5826 1.93997 17.2589 1.80567 16.9212 1.8053H3.07926C2.7416 1.80567 2.41787 1.93997 2.1791 2.17874C1.94034 2.4175 1.80603 2.74123 1.80566 3.0789V5.12072C1.80603 5.45839 1.94034 5.78212 2.1791 6.02088C2.41787 6.25965 2.7416 6.39395 3.07926 6.39432H4.03141V14.2085C4.03188 14.767 4.2539 15.3025 4.64875 15.6975C5.0436 16.0925 5.57903 16.3147 6.13754 16.3154H9.15511V16.9209C9.15548 17.2586 9.28979 17.5823 9.52855 17.8211C9.76732 18.0598 10.091 18.1941 10.4287 18.1945H16.9212C17.2589 18.1941 17.5826 18.0598 17.8214 17.8211C18.0601 17.5823 18.1944 17.2586 18.1948 16.9209V14.8791C18.1944 14.5414 18.0601 14.2177 17.8214 13.9789C17.5826 13.7401 17.2589 13.6058 16.9212 13.6055H10.4287C10.091 13.6058 9.76732 13.7401 9.52855 13.9789C9.28979 14.2177 9.15548 14.5414 9.15511 14.8791V15.4821H6.13754C5.79999 15.4816 5.47643 15.3472 5.23783 15.1084C4.99923 14.8696 4.86506 14.546 4.86475 14.2084V6.39428L16.9212 6.39432ZM10.4287 14.4388H16.9212C17.0379 14.439 17.1498 14.4854 17.2323 14.5679C17.3148 14.6505 17.3613 14.7623 17.3615 14.879V16.9209C17.3613 17.0376 17.3148 17.1494 17.2323 17.2319C17.1498 17.3145 17.0379 17.3609 16.9212 17.3611H10.4287C10.312 17.3609 10.2002 17.3145 10.1177 17.2319C10.0351 17.1494 9.98868 17.0376 9.98846 16.9209V15.9068L9.99009 15.8987L9.98846 15.8906V14.879C9.98868 14.7623 10.0351 14.6505 10.1177 14.568C10.2002 14.4854 10.312 14.439 10.4287 14.4388H10.4287ZM2.639 5.12072V3.0789C2.63922 2.9622 2.68567 2.85034 2.76819 2.76782C2.85071 2.6853 2.96257 2.63885 3.07926 2.63863H16.9212C17.0379 2.63885 17.1498 2.6853 17.2323 2.76782C17.3148 2.85034 17.3613 2.9622 17.3615 3.0789V5.12072C17.3613 5.23742 17.3148 5.34928 17.2323 5.4318C17.1498 5.51432 17.0379 5.56077 16.9212 5.56099H3.07926C2.96257 5.56077 2.85071 5.51432 2.76819 5.4318C2.68567 5.34928 2.63922 5.23742 2.639 5.12072Z" fill="#171723"/>
</svg>
