<svg width="20" height="20" viewBox="0 0 20 20" fill="none" xmlns="http://www.w3.org/2000/svg">
<g clip-path="url(#clip0_10317_147251)">
<path d="M10.2747 18.4663C8.65452 18.4663 7.07074 17.9858 5.72363 17.0857C4.37652 16.1856 3.32657 14.9063 2.70656 13.4094C2.08656 11.9126 1.92433 10.2655 2.24041 8.6765C2.55649 7.08747 3.33667 5.62786 4.48229 4.48223C5.62792 3.33661 7.08753 2.55643 8.67656 2.24035C10.2656 1.92427 11.9127 2.0865 13.4095 2.7065C14.9063 3.32651 16.1857 4.37646 17.0858 5.72357C17.9859 7.07068 18.4663 8.65446 18.4663 10.2746C18.4638 12.4464 17.5999 14.5285 16.0642 16.0641C14.5285 17.5998 12.4464 18.4637 10.2747 18.4663ZM10.2747 3.04668C8.84512 3.04668 7.44768 3.47059 6.25905 4.2648C5.07042 5.05902 4.144 6.18787 3.59693 7.5086C3.04987 8.82934 2.90673 10.2826 3.18562 11.6847C3.46451 13.0868 4.15291 14.3747 5.16375 15.3855C6.1746 16.3964 7.46249 17.0848 8.86458 17.3637C10.2667 17.6426 11.72 17.4994 13.0407 16.9524C14.3614 16.4053 15.4903 15.4789 16.2845 14.2902C17.0787 13.1016 17.5026 11.7042 17.5026 10.2746C17.5005 8.35829 16.7383 6.52105 15.3833 5.166C14.0282 3.81095 12.191 3.04877 10.2747 3.04668Z" fill="#171723"/>
<path d="M12.8077 9.07412L9.91052 7.45223C9.74618 7.36633 9.56233 7.32461 9.37701 7.33118C9.19168 7.33774 9.01125 7.39235 8.85339 7.48966C8.68851 7.59013 8.55249 7.73164 8.45864 7.90038C8.36478 8.06912 8.3163 8.25931 8.31791 8.45239V11.5481C8.3163 11.7412 8.36478 11.9314 8.45864 12.1001C8.55249 12.2688 8.68851 12.4104 8.85339 12.5108C9.02123 12.6136 9.21407 12.6682 9.41084 12.6687C9.58916 12.6678 9.76467 12.6243 9.92273 12.5417L12.8077 10.928C12.9725 10.8358 13.1098 10.7013 13.2053 10.5383C13.3009 10.3754 13.3513 10.1899 13.3513 10.0011C13.3513 9.81217 13.3009 9.6267 13.2053 9.46377C13.1098 9.30084 12.9725 9.16634 12.8077 9.07413V9.07412Z" fill="#171723"/>
</g>
<defs>
<clipPath id="clip0_10317_147251">
<rect width="20" height="20" fill="white"/>
</clipPath>
</defs>
</svg>
