<svg width="20" height="20" viewBox="0 0 20 20" fill="none" xmlns="http://www.w3.org/2000/svg">
<g clip-path="url(#clip0_10317_146755)">
<path d="M17.5664 11.2336C17.5664 11.2586 17.5581 11.2753 17.5581 11.3003C17.5164 11.5503 17.4664 11.792 17.3998 12.042C17.3665 12.1753 17.3331 12.3086 17.2913 12.4336C17.2497 12.5586 17.2081 12.692 17.1581 12.817C17.1339 12.8905 17.1061 12.9629 17.0747 13.0336C17.0381 13.0989 16.985 13.1533 16.9206 13.1913C16.8562 13.2294 16.7828 13.2497 16.7081 13.2503C16.6571 13.2501 16.6064 13.2417 16.5581 13.2253C16.5066 13.2056 16.4595 13.176 16.4195 13.1382C16.3795 13.1003 16.3473 13.0549 16.3249 13.0046C16.3024 12.9543 16.2901 12.9 16.2887 12.8449C16.2872 12.7898 16.2967 12.735 16.3164 12.6836C16.5085 12.1942 16.6482 11.6858 16.7331 11.1669C16.8595 10.3661 16.8567 9.55019 16.7248 8.75026C16.4853 7.27656 15.7976 5.91241 14.7554 4.84334C13.7131 3.77427 12.3669 3.05217 10.8998 2.77526C9.79288 2.55536 8.6502 2.59359 7.56047 2.88698C6.47075 3.18037 5.46332 3.72101 4.61645 4.46692L5.23312 5.08359C5.25875 5.10881 5.27723 5.14038 5.28668 5.17508C5.29613 5.20978 5.2962 5.24636 5.2869 5.2811C5.27759 5.31584 5.25923 5.34748 5.2337 5.37281C5.20817 5.39813 5.17638 5.41623 5.14157 5.42526L2.55815 6.11692C2.5286 6.12403 2.49771 6.12328 2.46854 6.11475C2.43937 6.10622 2.41295 6.09021 2.39188 6.0683C2.37082 6.04639 2.35586 6.01936 2.34848 5.98988C2.3411 5.9604 2.34156 5.9295 2.34982 5.90026L3.04155 3.31692C3.05135 3.28269 3.06984 3.25158 3.09522 3.22662C3.12061 3.20165 3.15202 3.18368 3.18641 3.17445C3.2208 3.16522 3.25699 3.16505 3.29146 3.17396C3.32594 3.18286 3.35752 3.20053 3.38314 3.22526L4.03314 3.87526C5.61288 2.46172 7.68176 1.72026 9.79974 1.80859C11.8264 1.90315 13.747 2.74182 15.1938 4.16406C16.6407 5.58631 17.5122 7.49221 17.6415 9.51692C17.6757 10.0902 17.6505 10.6655 17.5664 11.2336Z" fill="#171723"/>
<path d="M9.45672 18.1977C9.21746 18.1977 8.98064 18.1874 8.74627 18.1668C8.69175 18.162 8.6387 18.1465 8.59016 18.1213C8.54163 18.096 8.49855 18.0614 8.4634 18.0194C8.42826 17.9775 8.40173 17.929 8.38533 17.8768C8.36893 17.8246 8.363 17.7696 8.36785 17.7151C8.38088 17.6064 8.43485 17.5068 8.51876 17.4365C8.60267 17.3662 8.71023 17.3305 8.81952 17.3367C9.3435 17.382 9.87081 17.3717 10.3926 17.3058C10.5022 17.2919 10.6129 17.3223 10.7002 17.39C10.7875 17.4578 10.8443 17.5574 10.8581 17.6671C10.8719 17.7767 10.8416 17.8874 10.7738 17.9747C10.7061 18.062 10.6064 18.1188 10.4968 18.1326C10.1518 18.1758 9.80442 18.1975 9.45672 18.1977Z" fill="#171723"/>
<path d="M7.15284 17.8511C7.1109 17.8512 7.06919 17.8449 7.02915 17.8324C6.47089 17.6588 5.93265 17.4264 5.42352 17.139C5.32777 17.0846 5.25749 16.9944 5.22805 16.8883C5.19861 16.7822 5.2124 16.6687 5.26642 16.5727C5.32044 16.4767 5.41028 16.406 5.51628 16.3761C5.62228 16.3462 5.73582 16.3595 5.83204 16.4131C6.29018 16.6713 6.77438 16.8803 7.27654 17.0364C7.37177 17.066 7.45324 17.1287 7.50617 17.2132C7.5591 17.2977 7.57998 17.3984 7.56501 17.4969C7.55004 17.5955 7.50022 17.6855 7.42459 17.7504C7.34897 17.8154 7.25255 17.8511 7.15284 17.8511V17.8511Z" fill="#171723"/>
<path d="M12.0606 17.7518C11.9625 17.7517 11.8675 17.7169 11.7925 17.6536C11.7175 17.5904 11.6672 17.5026 11.6506 17.4059C11.6339 17.3092 11.652 17.2097 11.7015 17.1249C11.7511 17.0402 11.829 16.9757 11.9215 16.9428C12.4161 16.7663 12.8905 16.5377 13.3367 16.2609C13.3832 16.2314 13.435 16.2115 13.4893 16.2022C13.5435 16.1929 13.5991 16.1945 13.6527 16.2068C13.7064 16.2191 13.757 16.2419 13.8018 16.2739C13.8466 16.3059 13.8846 16.3464 13.9136 16.3932C13.9427 16.4399 13.9621 16.492 13.9709 16.5463C13.9797 16.6006 13.9777 16.6561 13.9649 16.7097C13.9521 16.7632 13.9288 16.8137 13.8964 16.8582C13.864 16.9027 13.8232 16.9403 13.7761 16.9689C13.2794 17.2776 12.7509 17.5318 12.1998 17.7273C12.1553 17.7438 12.1081 17.7521 12.0606 17.7518Z" fill="#171723"/>
<path d="M14.8659 16.0094C14.7829 16.0094 14.7018 15.9846 14.633 15.9382C14.5641 15.8918 14.5108 15.8259 14.4796 15.749C14.4485 15.6721 14.4411 15.5876 14.4583 15.5064C14.4755 15.4252 14.5165 15.351 14.5762 15.2933C14.9538 14.9274 15.2915 14.5226 15.5837 14.0856C15.6456 13.9945 15.7409 13.9316 15.849 13.9105C15.9571 13.8895 16.0692 13.912 16.1607 13.9733C16.2522 14.0345 16.3158 14.1294 16.3376 14.2374C16.3594 14.3453 16.3376 14.4575 16.277 14.5495C15.9512 15.035 15.5753 15.485 15.1556 15.8922C15.078 15.9675 14.974 16.0095 14.8659 16.0094Z" fill="#171723"/>
<path d="M4.26897 16.2063C4.16577 16.2066 4.06619 16.1683 3.9898 16.0989C3.77292 15.9032 3.56622 15.6965 3.3705 15.4796C3.33374 15.439 3.30534 15.3916 3.28693 15.34C3.26853 15.2884 3.26047 15.2337 3.26322 15.179C3.26598 15.1243 3.27949 15.0707 3.30298 15.0213C3.32648 14.9718 3.3595 14.9274 3.40015 14.8907C3.4408 14.854 3.48829 14.8257 3.5399 14.8074C3.59151 14.7891 3.64622 14.7811 3.70091 14.7839C3.75561 14.7868 3.8092 14.8004 3.85863 14.824C3.90806 14.8475 3.95236 14.8806 3.98899 14.9213C4.16545 15.1173 4.35207 15.304 4.54807 15.4804C4.61057 15.5369 4.6545 15.6109 4.67408 15.6928C4.69366 15.7747 4.68795 15.8606 4.65773 15.9392C4.6275 16.0178 4.57417 16.0854 4.50476 16.1331C4.43534 16.1808 4.35311 16.2063 4.2689 16.2063H4.26897Z" fill="#171723"/>
<path d="M11.9742 9.07418L9.07702 7.45229C8.91268 7.36639 8.72883 7.32467 8.54351 7.33124C8.35819 7.3378 8.17775 7.39241 8.0199 7.48972C7.85501 7.59019 7.719 7.7317 7.62514 7.90044C7.53129 8.06918 7.4828 8.25938 7.48441 8.45245V11.5482C7.4828 11.7412 7.53129 11.9314 7.62514 12.1002C7.719 12.2689 7.85501 12.4104 8.0199 12.5109C8.18773 12.6136 8.38057 12.6682 8.57735 12.6688C8.75566 12.6679 8.93117 12.6243 9.08923 12.5418L11.9742 10.928C12.139 10.8358 12.2763 10.7013 12.3718 10.5384C12.4674 10.3755 12.5178 10.19 12.5178 10.0011C12.5178 9.81223 12.4674 9.62676 12.3718 9.46383C12.2763 9.3009 12.139 9.1664 11.9742 9.0742V9.07418Z" fill="#171723"/>
</g>
<defs>
<clipPath id="clip0_10317_146755">
<rect width="20" height="20" fill="white"/>
</clipPath>
</defs>
</svg>
