<svg width="20" height="20" viewBox="0 0 20 20" fill="none" xmlns="http://www.w3.org/2000/svg">
<g clip-path="url(#clip0_10314_146187)">
<path d="M9.79464 1.81226C7.67767 1.72314 5.60953 2.46391 4.03056 3.87684L3.38257 3.2284C3.35734 3.20314 3.3259 3.18497 3.29142 3.17571C3.25693 3.16645 3.22062 3.16643 3.18613 3.17567C3.15164 3.1849 3.12018 3.20305 3.09493 3.22829C3.06968 3.25353 3.05153 3.28498 3.04229 3.31947L2.34908 5.90388C2.34132 5.93283 2.34132 5.96332 2.34908 5.99227C2.35683 6.02123 2.37207 6.04763 2.39326 6.06883C2.41445 6.09004 2.44084 6.10529 2.46979 6.11306C2.49874 6.12084 2.52923 6.12086 2.55819 6.11312L5.14304 5.42163C5.17753 5.41241 5.20899 5.39428 5.23426 5.36905C5.25952 5.34381 5.27769 5.31237 5.28694 5.27789C5.2962 5.2434 5.29621 5.20708 5.28697 5.17259C5.27774 5.1381 5.25958 5.10665 5.23434 5.0814L4.6196 4.46628C5.46644 3.72064 6.47379 3.18028 7.56338 2.88718C8.65297 2.59408 9.79546 2.55613 10.9021 2.77628C12.3684 3.05429 13.7135 3.77715 14.7545 4.84656C15.7954 5.91597 16.4818 7.28004 16.7202 8.75329C16.9476 10.1241 16.7856 11.5312 16.2527 12.8146C15.7198 14.0979 14.8374 15.2058 13.7059 16.0124C12.5744 16.819 11.2392 17.2917 9.85223 17.3769C8.46528 17.462 7.08228 17.1562 5.86059 16.4941C5.25047 16.2068 4.71557 15.7814 4.29819 15.2517C4.2638 15.206 4.22038 15.1679 4.17063 15.1397C4.12088 15.1115 4.06586 15.0939 4.009 15.0879C3.95213 15.0819 3.89464 15.0876 3.8401 15.1048C3.78556 15.122 3.73514 15.1502 3.69198 15.1877C3.64881 15.2252 3.61383 15.2712 3.58921 15.3228C3.56459 15.3744 3.55085 15.4305 3.54885 15.4877C3.54685 15.5448 3.55664 15.6018 3.5776 15.655C3.59856 15.7082 3.63025 15.7565 3.67069 15.7969C4.84615 16.9713 6.35084 17.7606 7.98521 18.0601C9.61958 18.3597 11.3064 18.1553 12.8219 17.4741C14.3375 16.7929 15.6101 15.6671 16.4711 14.2459C17.332 12.8248 17.7406 11.1755 17.6427 9.51681C17.5136 7.49131 16.6411 5.58479 15.1928 4.16293C13.7445 2.74108 11.8222 1.904 9.79464 1.81226Z" fill="#171723"/>
<path d="M9.99988 11.5682C10.866 11.5682 11.5681 10.8661 11.5681 10C11.5681 9.13389 10.866 8.43176 9.99988 8.43176C9.13377 8.43176 8.43164 9.13389 8.43164 10C8.43164 10.8661 9.13377 11.5682 9.99988 11.5682Z" fill="#171723"/>
</g>
<defs>
<clipPath id="clip0_10314_146187">
<rect width="16" height="18" fill="white" transform="translate(2 1)"/>
</clipPath>
</defs>
</svg>
