<svg width="20" height="20" viewBox="0 0 20 20" fill="none" xmlns="http://www.w3.org/2000/svg">
<path d="M15.5772 18.1949H13.7176C13.6071 18.1949 13.5011 18.151 13.423 18.0729C13.3448 17.9947 13.3009 17.8887 13.3009 17.7782C13.3009 17.6677 13.3448 17.5618 13.423 17.4836C13.5011 17.4055 13.6071 17.3616 13.7176 17.3616H15.5772C15.5954 17.3614 15.6136 17.3625 15.6317 17.3648C15.6747 17.2728 15.7504 17.2 15.8441 17.1606C16.1455 17.0321 16.4185 16.8451 16.6473 16.6104C16.6854 16.5707 16.731 16.5389 16.7815 16.5169C16.832 16.4949 16.8863 16.4831 16.9414 16.4823C16.9964 16.4814 17.0511 16.4914 17.1022 16.5118C17.1534 16.5322 17.2 16.5625 17.2393 16.601C17.2787 16.6395 17.3101 16.6854 17.3316 16.7361C17.3531 16.7868 17.3643 16.8412 17.3647 16.8963C17.365 16.9514 17.3544 17.0059 17.3335 17.0569C17.3127 17.1078 17.2819 17.1541 17.243 17.1931C16.9376 17.5061 16.5734 17.7555 16.1712 17.9272C16.103 17.9571 16.0278 17.9676 15.9539 17.9573C15.92 18.0284 15.8666 18.0885 15.7999 18.1305C15.7332 18.1726 15.656 18.1949 15.5772 18.1949ZM12.5734 18.1949H11.43C11.3195 18.1949 11.2135 18.151 11.1354 18.0729C11.0573 17.9947 11.0134 17.8887 11.0134 17.7782C11.0134 17.6677 11.0573 17.5618 11.1354 17.4836C11.2135 17.4055 11.3195 17.3616 11.43 17.3616H12.5734C12.6839 17.3616 12.7899 17.4055 12.868 17.4836C12.9462 17.5618 12.9901 17.6677 12.9901 17.7782C12.9901 17.8887 12.9462 17.9947 12.868 18.0729C12.7899 18.151 12.6839 18.1949 12.5734 18.1949ZM10.2858 18.1949H9.14246C9.03195 18.1949 8.92597 18.151 8.84783 18.0729C8.76969 17.9947 8.72579 17.8887 8.72579 17.7782C8.72579 17.6677 8.76969 17.5618 8.84783 17.4836C8.92597 17.4055 9.03195 17.3616 9.14246 17.3616H10.2858C10.3963 17.3616 10.5023 17.4055 10.5804 17.4836C10.6586 17.5618 10.7025 17.6677 10.7025 17.7782C10.7025 17.8887 10.6586 17.9947 10.5804 18.0729C10.5023 18.151 10.3963 18.1949 10.2858 18.1949H10.2858ZM7.99821 18.1949H6.85482C6.74431 18.1949 6.63833 18.151 6.56019 18.0729C6.48205 17.9947 6.43815 17.8887 6.43815 17.7782C6.43815 17.6677 6.48205 17.5618 6.56019 17.4836C6.63833 17.4055 6.74431 17.3616 6.85482 17.3616H7.99821C8.10872 17.3616 8.2147 17.4055 8.29284 17.4836C8.37098 17.5618 8.41488 17.6677 8.41488 17.7782C8.41488 17.8887 8.37098 17.9947 8.29284 18.0729C8.2147 18.151 8.10872 18.1949 7.99821 18.1949ZM5.71062 18.1949H5.13851C4.92047 18.1952 4.70295 18.1739 4.48909 18.1314C4.38102 18.1096 4.28602 18.0457 4.22492 17.954C4.16382 17.8622 4.14161 17.7499 4.16315 17.6418C4.1847 17.5336 4.24824 17.4384 4.33984 17.3771C4.43145 17.3157 4.54366 17.2931 4.65186 17.3144C4.81218 17.3457 4.97516 17.3615 5.13853 17.3616H5.71063C5.82114 17.3616 5.92712 17.4055 6.00526 17.4836C6.0834 17.5618 6.1273 17.6677 6.1273 17.7782C6.1273 17.8887 6.0834 17.9947 6.00526 18.0729C5.92712 18.151 5.82114 18.1949 5.71063 18.1949H5.71062ZM3.52145 17.7058C3.43895 17.7057 3.35828 17.6814 3.28952 17.6358C2.92672 17.3932 2.6149 17.0819 2.37163 16.7195C2.34106 16.6742 2.31972 16.6233 2.30882 16.5697C2.29792 16.5162 2.29768 16.461 2.30811 16.4073C2.31854 16.3537 2.33943 16.3026 2.3696 16.257C2.39976 16.2114 2.43861 16.1722 2.48393 16.1417C2.52924 16.1111 2.58013 16.0898 2.63369 16.0789C2.68725 16.068 2.74243 16.0677 2.79608 16.0782C2.84974 16.0886 2.90081 16.1095 2.94639 16.1397C2.99197 16.1698 3.03116 16.2087 3.06173 16.254C3.24547 16.5262 3.48041 16.76 3.75346 16.9425C3.82785 16.9922 3.88428 17.0645 3.91441 17.1487C3.94454 17.2329 3.94677 17.3246 3.92076 17.4102C3.89475 17.4958 3.84189 17.5708 3.77 17.624C3.6981 17.6772 3.61098 17.7059 3.52153 17.7058L3.52145 17.7058ZM17.5677 16.3679C17.4996 16.3679 17.4324 16.3512 17.3723 16.3192C17.3121 16.2872 17.2607 16.241 17.2225 16.1845C17.1843 16.1281 17.1606 16.0631 17.1534 15.9953C17.1462 15.9276 17.1557 15.859 17.1812 15.7958C17.3005 15.4988 17.3616 15.1816 17.361 14.8616C17.3604 14.7496 17.4037 14.6418 17.4816 14.5614C17.5595 14.4809 17.6657 14.4341 17.7777 14.4311C17.8317 14.4296 17.8855 14.4389 17.9358 14.4585C17.9862 14.4781 18.0322 14.5076 18.071 14.5452C18.1098 14.5828 18.1407 14.6278 18.1619 14.6775C18.1831 14.7272 18.1941 14.7807 18.1943 14.8347V14.8616C18.1949 15.2882 18.1134 15.7109 17.9543 16.1067C17.9233 16.1839 17.87 16.2501 17.8011 16.2966C17.7322 16.3432 17.6509 16.368 17.5677 16.3679ZM2.27881 15.8552C2.18272 15.855 2.08967 15.8215 2.01538 15.7606C1.94109 15.6997 1.89012 15.6149 1.87109 15.5208C1.82774 15.3042 1.80567 15.084 1.80518 14.8632V14.2984C1.80518 14.1879 1.84907 14.0819 1.92721 14.0038C2.00535 13.9256 2.11134 13.8817 2.22184 13.8817C2.33235 13.8817 2.43833 13.9256 2.51647 14.0038C2.59461 14.0819 2.63851 14.1879 2.63851 14.2984V14.8616C2.63894 15.0277 2.65557 15.1934 2.68815 15.3563C2.70989 15.4647 2.68773 15.5772 2.62654 15.6692C2.56535 15.7613 2.47014 15.8252 2.36182 15.8471C2.3345 15.8526 2.30668 15.8553 2.27881 15.8552ZM17.7777 14.1072C17.7229 14.1072 17.6687 14.0964 17.6182 14.0755C17.5676 14.0546 17.5217 14.0239 17.483 13.9852C17.4443 13.9465 17.4136 13.9006 17.3927 13.85C17.3717 13.7994 17.361 13.7452 17.361 13.6905V12.5471C17.361 12.4366 17.4049 12.3306 17.483 12.2525C17.5612 12.1743 17.6672 12.1305 17.7777 12.1305C17.8882 12.1305 17.9942 12.1743 18.0723 12.2525C18.1504 12.3306 18.1943 12.4366 18.1943 12.5471V13.6905C18.1944 13.7452 18.1836 13.7994 18.1627 13.85C18.1418 13.9006 18.1111 13.9465 18.0724 13.9852C18.0337 14.0239 17.9877 14.0546 17.9372 14.0755C17.8866 14.0965 17.8324 14.1072 17.7777 14.1072ZM2.22184 13.5717C2.16712 13.5718 2.11292 13.561 2.06235 13.5401C2.01179 13.5191 1.96584 13.4885 1.92714 13.4498C1.88845 13.4111 1.85776 13.3651 1.83683 13.3145C1.8159 13.264 1.80514 13.2098 1.80518 13.1551V12.0109C1.80518 11.9004 1.84907 11.7944 1.92721 11.7163C2.00535 11.6381 2.11134 11.5942 2.22184 11.5942C2.33235 11.5942 2.43833 11.6381 2.51647 11.7163C2.59461 11.7944 2.63851 11.9004 2.63851 12.0109V13.1551C2.63854 13.2098 2.62779 13.264 2.60686 13.3145C2.58593 13.3651 2.55524 13.4111 2.51654 13.4498C2.47784 13.4885 2.4319 13.5191 2.38133 13.5401C2.33076 13.561 2.27657 13.5718 2.22184 13.5717ZM17.7777 11.8196C17.7229 11.8196 17.6688 11.8089 17.6182 11.788C17.5676 11.767 17.5217 11.7363 17.483 11.6976C17.4443 11.6589 17.4136 11.613 17.3927 11.5624C17.3717 11.5119 17.361 11.4577 17.361 11.4029V10.2595C17.361 10.149 17.4049 10.043 17.483 9.96489C17.5612 9.88675 17.6672 9.84285 17.7777 9.84285C17.8882 9.84285 17.9942 9.88675 18.0723 9.96489C18.1504 10.043 18.1943 10.149 18.1943 10.2595V11.4029C18.1944 11.4576 18.1836 11.5118 18.1627 11.5624C18.1418 11.613 18.1111 11.6589 18.0724 11.6976C18.0337 11.7363 17.9877 11.767 17.9372 11.7879C17.8866 11.8089 17.8324 11.8196 17.7777 11.8196L17.7777 11.8196ZM2.22184 11.2841C2.16712 11.2842 2.11292 11.2734 2.06235 11.2525C2.01179 11.2316 1.96584 11.2009 1.92715 11.1622C1.88845 11.1235 1.85776 11.0775 1.83683 11.027C1.8159 10.9764 1.80515 10.9222 1.80518 10.8675V9.72323C1.80518 9.61272 1.84907 9.50674 1.92721 9.4286C2.00535 9.35046 2.11134 9.30656 2.22184 9.30656C2.33235 9.30656 2.43833 9.35046 2.51647 9.4286C2.59461 9.50674 2.63851 9.61272 2.63851 9.72323V10.8674C2.63854 10.9222 2.62778 10.9764 2.60685 11.0269C2.58593 11.0775 2.55524 11.1234 2.51654 11.1621C2.47784 11.2008 2.4319 11.2315 2.38133 11.2524C2.33076 11.2734 2.27657 11.2841 2.22184 11.2841V11.2841ZM17.7777 9.53283C17.7229 9.53286 17.6688 9.5221 17.6182 9.50117C17.5676 9.48024 17.5217 9.44955 17.483 9.41086C17.4443 9.37216 17.4136 9.32621 17.3927 9.27565C17.3717 9.22508 17.361 9.17089 17.361 9.11616V7.97199C17.361 7.86149 17.4049 7.7555 17.483 7.67736C17.5612 7.59922 17.6672 7.55533 17.7777 7.55533C17.8882 7.55533 17.9942 7.59922 18.0723 7.67736C18.1504 7.7555 18.1943 7.86149 18.1943 7.97199V9.11616C18.1944 9.17088 18.1836 9.22508 18.1627 9.27564C18.1418 9.3262 18.1111 9.37215 18.0724 9.41084C18.0337 9.44953 17.9877 9.48022 17.9372 9.50115C17.8866 9.52207 17.8324 9.53282 17.7777 9.53279L17.7777 9.53283ZM2.22184 8.99653C2.16712 8.99657 2.11292 8.98581 2.06235 8.96488C2.01179 8.94395 1.96584 8.91326 1.92714 8.87457C1.88845 8.83587 1.85776 8.78992 1.83683 8.73936C1.8159 8.68879 1.80514 8.63459 1.80518 8.57987V7.43563C1.80518 7.32512 1.84907 7.21914 1.92721 7.141C2.00535 7.06286 2.11134 7.01896 2.22184 7.01896C2.33235 7.01896 2.43833 7.06286 2.51647 7.141C2.59461 7.21914 2.63851 7.32512 2.63851 7.43563V8.57983C2.63854 8.63456 2.62779 8.68876 2.60686 8.73932C2.58593 8.78989 2.55524 8.83584 2.51654 8.87453C2.47784 8.91323 2.4319 8.94392 2.38133 8.96485C2.33076 8.98578 2.27657 8.99653 2.22184 8.9965V8.99653ZM17.7777 7.24523C17.7229 7.24527 17.6688 7.23451 17.6182 7.21358C17.5676 7.19265 17.5217 7.16196 17.483 7.12326C17.4443 7.08457 17.4136 7.03862 17.3927 6.98806C17.3717 6.93749 17.361 6.88329 17.361 6.82857V5.68433C17.361 5.57382 17.4049 5.46784 17.483 5.3897C17.5612 5.31156 17.6672 5.26766 17.7777 5.26766C17.8882 5.26766 17.9942 5.31156 18.0723 5.3897C18.1504 5.46784 18.1943 5.57382 18.1943 5.68433V6.82853C18.1944 6.88326 18.1836 6.93746 18.1627 6.98802C18.1418 7.03859 18.1111 7.08454 18.0724 7.12323C18.0337 7.16193 17.9877 7.19262 17.9372 7.21355C17.8866 7.23448 17.8324 7.24523 17.7777 7.2452L17.7777 7.24523ZM2.22184 6.70893C2.16712 6.70897 2.11292 6.69821 2.06235 6.67728C2.01179 6.65635 1.96584 6.62566 1.92714 6.58697C1.88845 6.54827 1.85776 6.50232 1.83683 6.45176C1.8159 6.40119 1.80514 6.34699 1.80518 6.29227V5.1481C1.80518 5.03759 1.84907 4.93161 1.92721 4.85347C2.00535 4.77533 2.11134 4.73143 2.22184 4.73143C2.33235 4.73143 2.43833 4.77533 2.51647 4.85347C2.59461 4.93161 2.63851 5.03759 2.63851 5.1481V6.29227C2.63854 6.34699 2.62778 6.40118 2.60685 6.45175C2.58592 6.50231 2.55523 6.54825 2.51653 6.58694C2.47783 6.62564 2.43189 6.65633 2.38132 6.67725C2.33076 6.69818 2.27657 6.70893 2.22184 6.7089V6.70893ZM17.7158 4.96248C17.6201 4.96233 17.5275 4.92924 17.4533 4.86876C17.3792 4.80829 17.3282 4.72413 17.3089 4.63045C17.2429 4.30929 17.1137 4.00444 16.9289 3.73364C16.8981 3.68844 16.8765 3.63761 16.8654 3.58407C16.8543 3.53053 16.8538 3.47531 16.864 3.42158C16.8742 3.36785 16.8949 3.31666 16.9248 3.27093C16.9548 3.22519 16.9935 3.18581 17.0387 3.15503C17.0839 3.12425 17.1348 3.10268 17.1883 3.09154C17.2419 3.08041 17.2971 3.07993 17.3508 3.09013C17.4045 3.10033 17.4557 3.12101 17.5015 3.151C17.5472 3.18099 17.5866 3.21969 17.6174 3.26489C17.8639 3.62613 18.0363 4.03277 18.1244 4.46118C18.1356 4.51473 18.1361 4.56997 18.1259 4.62373C18.1158 4.67749 18.0951 4.72872 18.0651 4.77446C18.035 4.8202 17.9963 4.85957 17.951 4.8903C17.9058 4.92103 17.8549 4.94252 17.8013 4.95353C17.7732 4.95973 17.7445 4.96273 17.7158 4.96248ZM2.43829 4.4506C2.36975 4.45081 2.30222 4.43409 2.2417 4.40192C2.18118 4.36975 2.12955 4.32313 2.09138 4.2662C2.05321 4.20927 2.0297 4.14379 2.02292 4.07559C2.01615 4.00739 2.02633 3.93857 2.05255 3.87524C2.21889 3.47112 2.46305 3.10364 2.77113 2.7937C2.84941 2.71708 2.95471 2.67436 3.06425 2.6748C3.17378 2.67523 3.27874 2.71878 3.35641 2.79602C3.43407 2.87326 3.4782 2.97797 3.47924 3.0875C3.48028 3.19703 3.43815 3.30257 3.36197 3.38127C3.13063 3.61337 2.94777 3.88918 2.82404 4.19263C2.79235 4.26887 2.73882 4.33405 2.67018 4.37995C2.60154 4.42585 2.52086 4.45043 2.43829 4.4506ZM16.4634 3.11923C16.3817 3.11945 16.3018 3.09537 16.2339 3.05006C15.9608 2.86949 15.6546 2.745 15.3331 2.68384C15.2791 2.67377 15.2277 2.65314 15.1818 2.62315C15.1358 2.59315 15.0963 2.55439 15.0654 2.50907C15.0344 2.46375 15.0128 2.41278 15.0016 2.35906C14.9904 2.30535 14.99 2.24996 15.0003 2.19608C15.0105 2.14219 15.0314 2.09086 15.0615 2.04504C15.0917 1.99922 15.1306 1.9598 15.1761 1.92906C15.2215 1.89831 15.2726 1.87684 15.3263 1.86588C15.3801 1.85491 15.4355 1.85467 15.4893 1.86516C15.919 1.94722 16.3281 2.11373 16.6929 2.35506C16.7676 2.40443 16.8244 2.47655 16.8549 2.56074C16.8853 2.64492 16.8879 2.73669 16.8622 2.82244C16.8364 2.90819 16.7837 2.98336 16.7119 3.03682C16.6401 3.09028 16.5529 3.11917 16.4634 3.11923ZM4.00733 2.86613C3.91111 2.86611 3.81787 2.83279 3.74344 2.77182C3.669 2.71086 3.61796 2.62602 3.59898 2.53169C3.58 2.43737 3.59425 2.33939 3.63932 2.25438C3.68438 2.16937 3.75748 2.10258 3.84619 2.06535C4.24869 1.89588 4.68064 1.80739 5.11735 1.80493H5.12061C5.23112 1.8045 5.33727 1.84799 5.41571 1.92582C5.49416 2.00366 5.53847 2.10947 5.5389 2.21998C5.53933 2.33048 5.49585 2.43664 5.41801 2.51508C5.34018 2.59353 5.23437 2.63784 5.12386 2.63827C4.79566 2.64003 4.47102 2.70639 4.16846 2.83358C4.11745 2.85503 4.06267 2.8661 4.00733 2.86613ZM14.271 2.63908H13.1276C13.0171 2.63908 12.9111 2.59518 12.833 2.51704C12.7548 2.4389 12.7109 2.33292 12.7109 2.22241C12.7109 2.1119 12.7548 2.00592 12.833 1.92778C12.9111 1.84964 13.0171 1.80574 13.1276 1.80574H14.271C14.3815 1.80574 14.4875 1.84964 14.5656 1.92778C14.6438 2.00592 14.6877 2.1119 14.6877 2.22241C14.6877 2.33292 14.6438 2.4389 14.5656 2.51704C14.4875 2.59518 14.3815 2.63908 14.271 2.63908ZM11.9834 2.63908H10.84C10.7295 2.63908 10.6235 2.59518 10.5454 2.51704C10.4672 2.4389 10.4233 2.33292 10.4233 2.22241C10.4233 2.1119 10.4672 2.00592 10.5454 1.92778C10.6235 1.84964 10.7295 1.80574 10.84 1.80574H11.9834C12.0939 1.80574 12.1999 1.84964 12.278 1.92778C12.3562 2.00592 12.4001 2.1119 12.4001 2.22241C12.4001 2.33292 12.3562 2.4389 12.278 2.51704C12.1999 2.59518 12.0939 2.63908 11.9834 2.63908ZM9.6958 2.63908H8.55241C8.4419 2.63908 8.33592 2.59518 8.25778 2.51704C8.17964 2.4389 8.13574 2.33292 8.13574 2.22241C8.13574 2.1119 8.17964 2.00592 8.25778 1.92778C8.33592 1.84964 8.4419 1.80574 8.55241 1.80574H9.69579C9.8063 1.80574 9.91228 1.84964 9.99042 1.92778C10.0686 2.00592 10.1125 2.1119 10.1125 2.22241C10.1125 2.33292 10.0686 2.4389 9.99042 2.51704C9.91228 2.59518 9.8063 2.63908 9.69579 2.63908H9.6958ZM7.4082 2.63908H6.26481C6.1543 2.63908 6.04832 2.59518 5.97018 2.51704C5.89204 2.4389 5.84814 2.33292 5.84814 2.22241C5.84814 2.1119 5.89204 2.00592 5.97018 1.92778C6.04832 1.84964 6.1543 1.80574 6.26481 1.80574H7.4082C7.51871 1.80574 7.62469 1.84964 7.70283 1.92778C7.78097 2.00592 7.82487 2.1119 7.82487 2.22241C7.82487 2.33292 7.78097 2.4389 7.70283 2.51704C7.62469 2.59518 7.51871 2.63908 7.4082 2.63908Z" fill="#171723"/>
<path d="M12.3519 5.43958H7.64779C6.42816 5.43958 5.43945 6.42828 5.43945 7.64791V12.352C5.43945 13.5716 6.42816 14.5603 7.64779 14.5603H12.3519C13.5715 14.5603 14.5602 13.5716 14.5602 12.352V7.64791C14.5602 6.42828 13.5715 5.43958 12.3519 5.43958Z" fill="#171723"/>
</svg>
