<svg width="20" height="20" viewBox="0 0 20 20" fill="none" xmlns="http://www.w3.org/2000/svg">
<g clip-path="url(#clip0_5313_35039)">
<path d="M17.2126 4.40552L15.5776 2.78037C15.3019 2.51151 14.9818 2.29222 14.6315 2.13212C14.6191 2.12459 14.6062 2.11777 14.593 2.11167C14.1585 1.91181 13.6861 1.80738 13.2078 1.80542H5.15687C4.27079 1.80394 3.4203 2.15402 2.79203 2.77886C2.16376 3.4037 1.80903 4.25226 1.80566 5.13834V14.8617C1.80911 15.7477 2.16389 16.5962 2.79215 17.2209C3.42042 17.8457 4.27085 18.1957 5.15687 18.1942H14.8427C15.7288 18.1957 16.5794 17.8457 17.2078 17.221C17.8362 16.5963 18.1911 15.7478 18.1948 14.8617V6.7627C18.1957 6.32427 18.1093 5.89005 17.9407 5.48535C17.7721 5.08065 17.5245 4.71357 17.2126 4.40552ZM14.0257 2.78377V5.44801C14.026 5.53638 14.0087 5.62393 13.9748 5.70552C13.9408 5.78711 13.8909 5.86111 13.828 5.92318C13.7651 5.98525 13.6905 6.03414 13.6084 6.067C13.5264 6.09985 13.4386 6.116 13.3503 6.11451H6.64209C6.46537 6.11435 6.29593 6.04408 6.17098 5.91912C6.04602 5.79416 5.97575 5.62473 5.97559 5.44801V2.63876H13.2078C13.4866 2.64164 13.763 2.69064 14.0257 2.78377ZM14.0282 17.3608H5.95443V12.6017C5.95598 12.3277 6.06619 12.0655 6.26088 11.8726C6.45556 11.6798 6.71881 11.5721 6.99284 11.5731H12.9897C13.2638 11.5721 13.527 11.6798 13.7217 11.8726C13.9164 12.0655 14.0266 12.3277 14.0282 12.6017V17.3608ZM17.3615 14.8617C17.358 15.5234 17.0934 16.157 16.6252 16.6246C16.1571 17.0923 15.5232 17.3562 14.8615 17.359V12.6017C14.8597 12.1068 14.6616 11.6328 14.3107 11.2837C13.9598 10.9346 13.4847 10.739 12.9897 10.7398H6.99284C6.49788 10.739 6.02284 10.9346 5.67193 11.2837C5.32103 11.6328 5.12293 12.1068 5.1211 12.6017V17.3572C4.46269 17.3501 3.83346 17.0845 3.36913 16.6176C2.9048 16.1508 2.64257 15.5201 2.639 14.8617V5.13834C2.64235 4.47594 2.90733 3.84171 3.3762 3.3738C3.84507 2.90589 4.47985 2.64222 5.14226 2.64023V5.44801C5.14277 5.84563 5.30095 6.22682 5.58211 6.50798C5.86328 6.78914 6.24447 6.94733 6.64209 6.94784H13.3503C13.7491 6.9485 14.1319 6.79098 14.4147 6.50982C14.6975 6.22866 14.8573 5.84681 14.8591 5.44801V3.26467C14.9018 3.30181 14.9495 3.33134 14.9901 3.37159L16.625 4.99635C16.8589 5.2271 17.0445 5.50214 17.171 5.80542C17.2974 6.10869 17.3622 6.43412 17.3615 6.7627V14.8617Z" fill="#171723"/>
<path d="M12.5371 12.9158H7.75358C7.64307 12.9158 7.53709 12.9597 7.45895 13.0378C7.38081 13.116 7.33691 13.2219 7.33691 13.3324C7.33691 13.4429 7.38081 13.5489 7.45895 13.6271C7.53709 13.7052 7.64307 13.7491 7.75358 13.7491H12.5371C12.6476 13.7491 12.7536 13.7052 12.8317 13.6271C12.9099 13.5489 12.9538 13.4429 12.9538 13.3324C12.9538 13.2219 12.9099 13.116 12.8317 13.0378C12.7536 12.9597 12.6476 12.9158 12.5371 12.9158Z" fill="#171723"/>
</g>
<defs>
<clipPath id="clip0_5313_35039">
<rect width="20" height="20" fill="white"/>
</clipPath>
</defs>
</svg>
