<svg width="21" height="20" viewBox="0 0 21 20" fill="none" xmlns="http://www.w3.org/2000/svg">
<g clip-path="url(#clip0_10314_145410)">
<path d="M18.6256 15.7026C18.668 15.6525 18.6977 15.5929 18.7122 15.5289C18.7268 15.4649 18.7257 15.3983 18.7092 15.3348L18.2469 13.6511C18.2176 13.5445 18.1471 13.4539 18.0509 13.3992C17.9548 13.3446 17.8409 13.3304 17.7342 13.3597C17.6276 13.3891 17.537 13.4596 17.4824 13.5557C17.4277 13.6519 17.4135 13.7658 17.4429 13.8724L17.6445 14.6069L16.7048 14.086V8.18802C16.7051 8.04518 16.6671 7.90487 16.5946 7.78175C16.5222 7.65864 16.418 7.55724 16.293 7.48815L10.9268 4.50801L10.9227 4.50634V3.4963L11.4671 4.02867C11.545 4.10475 11.6496 4.14738 11.7585 4.14749C11.8413 4.14749 11.9222 4.12281 11.9909 4.07662C12.0596 4.03043 12.113 3.96481 12.1443 3.88814C12.1755 3.81148 12.1832 3.72723 12.1664 3.64616C12.1496 3.56509 12.109 3.49087 12.0498 3.43297L10.8015 2.21227C10.754 2.16758 10.6966 2.13474 10.6341 2.11645C10.5715 2.09816 10.5054 2.09493 10.4414 2.10703C10.4292 2.1089 10.4171 2.11137 10.4051 2.11446C10.3324 2.13068 10.2656 2.1668 10.2123 2.21878L10.2113 2.22036L10.2082 2.22202L9.0176 3.4403C8.97871 3.47928 8.94794 3.52559 8.92706 3.57653C8.90618 3.62748 8.8956 3.68206 8.89594 3.73712C8.89628 3.79218 8.90753 3.84662 8.92904 3.89731C8.95055 3.94799 8.98189 3.99391 9.02125 4.03241C9.06061 4.07091 9.10721 4.10123 9.15836 4.12161C9.2095 4.14199 9.26418 4.15204 9.31924 4.15116C9.37429 4.15028 9.42862 4.1385 9.4791 4.1165C9.52957 4.0945 9.57518 4.06272 9.6133 4.02298L10.0894 3.53548V4.54066L4.78175 7.48977C4.65874 7.5585 4.55601 7.65843 4.4839 7.77949C4.41115 7.9034 4.37241 8.04433 4.3716 8.18802V14.0764L3.41477 14.6068L3.61644 13.8724C3.64579 13.7658 3.63158 13.6519 3.57695 13.5557C3.52231 13.4596 3.43171 13.3891 3.32509 13.3597C3.21847 13.3304 3.10455 13.3446 3.0084 13.3992C2.91225 13.4539 2.84175 13.5445 2.8124 13.6511L2.35015 15.3348C2.3336 15.3983 2.33255 15.4649 2.3471 15.5289C2.36164 15.5929 2.39135 15.6525 2.43372 15.7026C2.44161 15.7126 2.44872 15.721 2.45743 15.7302C2.50688 15.7855 2.57056 15.826 2.6415 15.8475L2.64379 15.8478L2.64718 15.85L4.28943 16.3C4.32526 16.3096 4.36219 16.3145 4.3993 16.3146C4.50022 16.3147 4.59773 16.278 4.6737 16.2116C4.74967 16.1451 4.79894 16.0534 4.81236 15.9534C4.82579 15.8533 4.80245 15.7518 4.74668 15.6677C4.69092 15.5836 4.60652 15.5225 4.50915 15.496L3.85405 15.3161L4.76468 14.8113C4.77144 14.8154 4.77653 14.8215 4.7834 14.8254L10.1496 17.8055C10.2684 17.8716 10.4021 17.9063 10.5381 17.9065C10.674 17.9066 10.8078 17.8722 10.9268 17.8064L16.2922 14.8254L16.304 14.8166L17.2053 15.3161L16.5502 15.496C16.4528 15.5226 16.3684 15.5836 16.3126 15.6677C16.2569 15.7518 16.2335 15.8533 16.2469 15.9534C16.2604 16.0534 16.3096 16.1452 16.3856 16.2116C16.4616 16.2781 16.5591 16.3147 16.66 16.3147C16.6971 16.3145 16.7341 16.3096 16.7699 16.3L18.4121 15.85L18.4155 15.8479L18.4178 15.8476C18.4888 15.8261 18.5524 15.7855 18.6019 15.7303C18.6106 15.721 18.6177 15.7126 18.6256 15.7026ZM10.506 7.99433C10.5608 7.99437 10.615 7.98361 10.6655 7.96268C10.7161 7.94175 10.762 7.91106 10.8007 7.87237C10.8394 7.83367 10.8701 7.78772 10.8911 7.73716C10.912 7.68659 10.9227 7.63239 10.9227 7.57767V5.45868L15.4444 7.96442L10.5239 10.684L5.63385 7.96844L10.0894 5.47791V7.57767C10.0893 7.63239 10.1001 7.68659 10.121 7.73715C10.142 7.78772 10.1726 7.83367 10.2113 7.87236C10.25 7.91106 10.296 7.94175 10.3465 7.96268C10.3971 7.98361 10.4513 7.99436 10.506 7.99433ZM7.82212 12.6403C7.76827 12.544 7.67852 12.4728 7.57243 12.4423C7.46634 12.4118 7.3525 12.4245 7.25571 12.4776L5.20351 13.6152L5.18993 8.67605L10.0999 11.4017L10.1195 11.4131V16.837L5.60435 14.3458L7.65935 13.2067C7.70726 13.1802 7.74948 13.1446 7.78359 13.1018C7.81771 13.059 7.84305 13.0099 7.85816 12.9573C7.87328 12.9047 7.87788 12.8496 7.87169 12.7952C7.86551 12.7408 7.84866 12.6882 7.82212 12.6403ZM10.9528 16.8548V11.4172L10.961 11.4123L15.8728 8.68108L15.8864 13.6324L13.8003 12.4759C13.7524 12.4494 13.6998 12.4326 13.6454 12.4265C13.5911 12.4203 13.536 12.4249 13.4834 12.44C13.4308 12.4551 13.3817 12.4805 13.3389 12.5145C13.2961 12.5486 13.2604 12.5908 13.2339 12.6387C13.2074 12.6866 13.1906 12.7392 13.1844 12.7936C13.1783 12.848 13.1829 12.903 13.198 12.9556C13.2131 13.0082 13.2384 13.0573 13.2725 13.1001C13.3066 13.1429 13.3488 13.1786 13.3967 13.2051L15.4479 14.342L10.9528 16.8548Z" fill="#171723"/>
</g>
<defs>
<clipPath id="clip0_10314_145410">
<rect width="20" height="20" fill="white" transform="translate(0.529785)"/>
</clipPath>
</defs>
</svg>
