<svg width="20" height="20" viewBox="0 0 20 20" fill="none" xmlns="http://www.w3.org/2000/svg">
<g clip-path="url(#clip0_10314_145251)">
<path d="M17.7773 15.143H17.3476V6.66647C17.3477 6.61174 17.3369 6.55754 17.316 6.50698C17.2951 6.45641 17.2644 6.41046 17.2257 6.37177C17.187 6.33307 17.141 6.30238 17.0905 6.28145C17.0399 6.26052 16.9857 6.24977 16.931 6.2498H13.1411C13.1114 4.81936 12.5337 3.45489 11.5273 2.43795C11.1201 2.04648 10.5772 1.8277 10.0124 1.82739C9.44748 1.82709 8.90438 2.04529 8.49673 2.43632C7.4832 3.45013 6.9009 4.81655 6.87163 6.2498H3.07276C3.01803 6.24977 2.96383 6.26052 2.91327 6.28145C2.8627 6.30238 2.81675 6.33307 2.77806 6.37177C2.73936 6.41046 2.70867 6.45641 2.68774 6.50698C2.66681 6.55754 2.65606 6.61174 2.65609 6.66647V15.143H2.22233C2.1676 15.143 2.11341 15.1538 2.06284 15.1747C2.01228 15.1956 1.96633 15.2263 1.92763 15.265C1.88893 15.3037 1.85824 15.3496 1.83732 15.4002C1.81639 15.4508 1.80563 15.505 1.80566 15.5597V16.4467C1.80605 16.9112 1.99066 17.3565 2.31898 17.685C2.64731 18.0134 3.09253 18.1983 3.55696 18.1989H16.4427C16.9071 18.1983 17.3524 18.0134 17.6807 17.685C18.009 17.3565 18.1936 16.9112 18.194 16.4467V15.5597C18.194 15.505 18.1833 15.4508 18.1623 15.4002C18.1414 15.3496 18.1107 15.3037 18.072 15.265C18.0333 15.2263 17.9874 15.1956 17.9368 15.1747C17.8863 15.1538 17.8321 15.143 17.7773 15.143ZM8.28841 15.139H7.23128V13.8466L7.23211 13.8426L7.23128 13.8386V13.4308C7.23168 13.335 7.25799 13.2411 7.30742 13.159C7.35684 13.0769 7.42755 13.0097 7.51205 12.9645C7.59288 12.9246 7.68242 12.9057 7.77247 12.9095C7.86251 12.9132 7.95018 12.9395 8.02743 12.9859C8.10469 13.0323 8.16906 13.0973 8.21466 13.1751C8.26026 13.2528 8.28562 13.3407 8.28841 13.4308V15.139ZM6.86591 12.4148C6.72061 12.5404 6.60378 12.6956 6.5232 12.8699C6.44262 13.0443 6.40016 13.2338 6.39864 13.4259H5.39616C5.3889 13.0411 5.49565 12.6628 5.70297 12.3386C5.97671 11.9332 6.39106 11.6437 6.86589 11.5261L6.86591 12.4148ZM9.12175 14.8769H10.8812V15.1414H9.12175V14.8769ZM13.6044 13.4259C13.6031 13.2349 13.5617 13.0464 13.4828 12.8725C13.404 12.6986 13.2895 12.5431 13.1468 12.4163V11.528C13.6194 11.6462 14.0316 11.9349 14.304 12.3387C14.5114 12.6629 14.6181 13.0412 14.6108 13.4259L13.6044 13.4259ZM12.5185 12.9751C12.5961 13.0231 12.6602 13.0902 12.7045 13.1699C12.7488 13.2497 12.7719 13.3395 12.7716 13.4308V15.139H11.7145V13.4308C11.7142 13.3367 11.739 13.2443 11.7862 13.1629C11.8335 13.0816 11.9015 13.0143 11.9833 12.9679C12.0652 12.9215 12.1579 12.8977 12.2519 12.899C12.346 12.9002 12.438 12.9265 12.5186 12.9751H12.5185ZM16.5143 15.1414H13.605V14.2592H14.9893C15.087 14.2593 15.1816 14.2251 15.2566 14.1624C15.3315 14.0998 15.3821 14.0128 15.3994 13.9166C15.4698 13.5552 15.467 13.1834 15.3912 12.8231C15.3154 12.4628 15.1681 12.1214 14.9581 11.819C14.7481 11.5166 14.4796 11.2593 14.1685 11.0624C13.8574 10.8656 13.51 10.733 13.1468 10.6727V7.08313H16.5143V15.1414ZM9.08431 3.02714C9.33234 2.78548 9.66494 2.65024 10.0112 2.65024C10.3575 2.65024 10.6901 2.78548 10.9381 3.02714C11.818 3.91525 12.3121 5.11443 12.3135 6.36455V12.0694C12.2896 12.0682 12.2676 12.0595 12.2435 12.0595C11.8811 12.0612 11.5342 12.2064 11.2788 12.4635C11.0234 12.7206 10.8804 13.0684 10.8812 13.4308V14.0436H9.12175V13.4308C9.12255 13.0686 8.97967 12.7208 8.72445 12.4637C8.46923 12.2067 8.12249 12.0613 7.76026 12.0595C7.73884 12.0595 7.72033 12.067 7.69922 12.0679V6.36455C7.70024 5.11245 8.19844 3.91201 9.08431 3.02714ZM3.48942 7.08313H6.86589V10.6714C6.50209 10.7311 6.15397 10.8632 5.84215 11.0599C5.53033 11.2566 5.26116 11.5139 5.05058 11.8165C4.84 12.1191 4.69228 12.4609 4.61619 12.8217C4.5401 13.1824 4.53717 13.5547 4.60758 13.9166C4.62489 14.0128 4.67546 14.0998 4.75044 14.1624C4.82542 14.2251 4.92004 14.2593 5.01774 14.2592H6.39795V15.1414H3.48942V7.08313ZM17.3607 16.4467C17.3606 16.6902 17.2638 16.9238 17.0917 17.096C16.9196 17.2683 16.6862 17.3652 16.4427 17.3655H3.55696C3.31346 17.3652 3.08003 17.2683 2.90793 17.096C2.73582 16.9238 2.6391 16.6902 2.639 16.4467V15.9764H17.3607V16.4467Z" fill="#171723"/>
<path d="M10.0065 8.46334C10.355 8.46334 10.6956 8.36001 10.9854 8.16641C11.2751 7.97281 11.5009 7.69764 11.6343 7.3757C11.7676 7.05376 11.8025 6.6995 11.7345 6.35773C11.6666 6.01596 11.4988 5.70202 11.2524 5.45562C11.0059 5.20922 10.692 5.04141 10.3502 4.97343C10.0085 4.90545 9.65421 4.94034 9.33227 5.07369C9.01033 5.20704 8.73516 5.43287 8.54156 5.72261C8.34796 6.01235 8.24463 6.35299 8.24463 6.70146C8.2451 7.1686 8.43087 7.61647 8.76119 7.94678C9.0915 8.2771 9.53937 8.46287 10.0065 8.46334ZM10.0065 5.77291C10.1902 5.77291 10.3697 5.82737 10.5224 5.9294C10.6751 6.03143 10.7941 6.17645 10.8644 6.34612C10.9347 6.51579 10.953 6.70249 10.9172 6.88261C10.8814 7.06273 10.793 7.22818 10.6631 7.35804C10.5332 7.4879 10.3678 7.57634 10.1877 7.61217C10.0075 7.648 9.82084 7.62961 9.65117 7.55933C9.4815 7.48905 9.33648 7.37003 9.23445 7.21733C9.13242 7.06463 9.07796 6.88511 9.07796 6.70146C9.07828 6.45529 9.17621 6.2193 9.35028 6.04523C9.52435 5.87116 9.76034 5.77323 10.0065 5.77291Z" fill="#171723"/>
</g>
<defs>
<clipPath id="clip0_10314_145251">
<rect width="20" height="20" fill="white"/>
</clipPath>
</defs>
</svg>
