<svg width="20" height="20" viewBox="0 0 20 20" fill="none" xmlns="http://www.w3.org/2000/svg">
<g clip-path="url(#clip0_6394_68552)">
<path d="M16.8771 5.33245C16.8745 5.30769 16.8696 5.28323 16.8624 5.2594C16.8308 4.66463 16.5814 4.10229 16.1618 3.67961L15.0094 2.52483C14.7824 2.29609 14.5122 2.11472 14.2145 1.99123C13.9168 1.86774 13.5975 1.80458 13.2752 1.80543H5.5734C4.92376 1.80624 4.30097 2.06467 3.84162 2.52403C3.38226 2.9834 3.12385 3.6062 3.12305 4.25583V15.7442C3.12386 16.3939 3.38228 17.0166 3.84163 17.476C4.30099 17.9354 4.92377 18.1938 5.5734 18.1946H14.4267C15.0764 18.1938 15.6991 17.9354 16.1585 17.476C16.6179 17.0166 16.8763 16.3939 16.8771 15.7442V5.41057C16.8771 5.39266 16.8723 5.37573 16.8719 5.35788C16.8726 5.34898 16.8771 5.3415 16.8771 5.33245ZM15.5726 4.2688C15.7512 4.45056 15.8839 4.67238 15.9594 4.91578H13.7667V2.72245C14.0129 2.79857 14.237 2.9329 14.4202 3.11404L15.5726 4.2688ZM14.4267 17.3613H5.5734C5.14465 17.3609 4.73358 17.1904 4.43041 16.8872C4.12724 16.584 3.95676 16.173 3.95637 15.7442V4.25583C3.95674 3.82708 4.12723 3.41599 4.4304 3.11282C4.73357 2.80964 5.14465 2.63915 5.5734 2.63876H12.9334V5.33245C12.9334 5.38717 12.9441 5.44137 12.9651 5.49193C12.986 5.5425 13.0167 5.58844 13.0554 5.62714C13.0941 5.66584 13.14 5.69653 13.1906 5.71746C13.2411 5.73839 13.2953 5.74914 13.3501 5.74911H16.0438V15.7442C16.0434 16.173 15.8729 16.584 15.5697 16.8872C15.2665 17.1904 14.8555 17.3609 14.4267 17.3613Z" fill="#171723"/>
<path d="M7.0041 10.8158C6.87822 10.7217 6.73956 10.6461 6.59232 10.5912C6.46781 10.5448 6.34329 10.5001 6.21879 10.4594C6.09997 10.4195 5.98359 10.3788 5.86885 10.3365C5.78905 10.3077 5.7135 10.2683 5.64426 10.2193C5.59581 10.1843 5.55509 10.1397 5.52463 10.0883C5.49867 10.0335 5.48692 9.97305 5.49047 9.91252C5.49015 9.84918 5.50233 9.78641 5.5263 9.72778C5.5491 9.67136 5.58347 9.62035 5.62722 9.57805C5.67856 9.52992 5.73921 9.49281 5.80544 9.469C5.97358 9.41928 6.1519 9.41507 6.3222 9.45679C6.38126 9.47647 6.43759 9.50354 6.48984 9.53736C6.51925 9.55506 6.54632 9.57638 6.57041 9.60083C6.61309 9.65278 6.66625 9.69515 6.72642 9.72516C6.78658 9.75517 6.8524 9.77215 6.91958 9.775C7.0403 9.76945 7.15388 9.71617 7.23533 9.62689C7.24265 9.61794 7.26056 9.59273 7.26788 9.58295C7.31764 9.51165 7.34111 9.42529 7.33428 9.33861C7.32746 9.25193 7.29075 9.17031 7.23044 9.10768C7.08281 8.95097 6.90512 8.82559 6.70799 8.73903C6.32037 8.58745 5.89086 8.58196 5.49949 8.72358C5.3356 8.78746 5.18597 8.88316 5.05923 9.00515C4.9371 9.12333 4.84117 9.26586 4.77765 9.42348C4.71385 9.57863 4.68122 9.74482 4.68162 9.91258C4.67913 10.071 4.70703 10.2285 4.76381 10.3764C4.81601 10.5066 4.89251 10.6256 4.98923 10.7272C5.08034 10.8227 5.18578 10.9034 5.30173 10.9665C5.40362 11.0215 5.50911 11.0697 5.61749 11.1105C5.71999 11.1496 5.82499 11.1846 5.93406 11.2179C6.02521 11.2448 6.11473 11.2749 6.2018 11.3066C6.27934 11.3353 6.35491 11.369 6.42804 11.4075C6.47528 11.4315 6.51863 11.4625 6.55662 11.4995C6.58587 11.5295 6.60908 11.5649 6.62495 11.6037C6.64376 11.6546 6.65207 11.7089 6.64937 11.7632C6.65049 11.8531 6.63419 11.9423 6.60135 12.026C6.57238 12.1024 6.52743 12.1718 6.46952 12.2295C6.406 12.2915 6.33074 12.3402 6.24816 12.3727C6.06977 12.4334 5.87827 12.4446 5.69399 12.4053C5.63711 12.392 5.58175 12.3729 5.52879 12.3483C5.48588 12.3277 5.44498 12.3032 5.40661 12.275C5.37159 12.2479 5.33816 12.2189 5.30651 12.1879L5.22843 12.1073C5.18846 12.0639 5.14024 12.0289 5.08659 12.0043C5.03293 11.9797 4.97492 11.966 4.91593 11.9641C4.84144 11.9656 4.76847 11.9854 4.70353 12.0219C4.6595 12.0483 4.62062 12.0825 4.58878 12.1228C4.53125 12.19 4.49929 12.2753 4.49855 12.3638C4.4978 12.4522 4.52832 12.5381 4.58471 12.6062C4.65954 12.6964 4.74175 12.7803 4.83048 12.8569C5.02211 13.0219 5.25214 13.136 5.49943 13.1889C5.63891 13.2194 5.78144 13.2339 5.92423 13.232C6.13889 13.235 6.35215 13.1969 6.55249 13.1197C6.73693 13.0483 6.90457 12.9394 7.04483 12.7999C7.18032 12.6634 7.28591 12.5001 7.35489 12.3206C7.42495 12.1391 7.46028 11.9462 7.45906 11.7517C7.46395 11.5552 7.41827 11.3607 7.32641 11.1869C7.24589 11.0422 7.13612 10.9158 7.0041 10.8158Z" fill="#171723"/>
<path d="M11.1488 9.27613C10.9566 9.07498 10.7227 8.91832 10.4635 8.81714C10.1935 8.7135 9.90641 8.6616 9.61719 8.66415H8.26872C8.16928 8.66433 8.07396 8.70391 8.00364 8.77423C7.93332 8.84454 7.89373 8.93987 7.89355 9.03931V12.8137C7.89373 12.9132 7.93332 13.0085 8.00364 13.0788C8.07396 13.1491 8.16928 13.1887 8.26872 13.1889H9.61719C9.90641 13.1914 10.1935 13.1395 10.4635 13.0359C10.7234 12.9343 10.9578 12.7771 11.1504 12.5753C11.3446 12.3673 11.4939 12.1216 11.589 11.8534C11.7909 11.2522 11.7909 10.6016 11.589 10.0004C11.4938 9.73122 11.3439 9.48463 11.1488 9.27613ZM10.8184 11.5808C10.762 11.7451 10.6729 11.8963 10.5564 12.0252C10.4461 12.1419 10.3109 12.2323 10.1608 12.2896C9.98738 12.3558 9.80285 12.3881 9.61722 12.3849H8.70899V9.46819H9.61719C9.80305 9.46524 9.98779 9.49755 10.1616 9.56341C10.3104 9.62096 10.4447 9.71073 10.5547 9.82627C10.6723 9.95598 10.7623 10.1083 10.8192 10.2739C10.9529 10.6993 10.9526 11.1556 10.8183 11.5808H10.8184Z" fill="#171723"/>
<path d="M13.6339 10.8876L15.2794 9.31041C15.3314 9.25708 15.366 9.18937 15.3789 9.11608C15.3919 9.04278 15.3824 8.9673 15.3519 8.89944C15.3268 8.84711 15.2913 8.80054 15.2474 8.76264C15.2034 8.72474 15.1522 8.69633 15.0968 8.67921C15.0413 8.66209 14.983 8.65662 14.9254 8.66315C14.8677 8.66968 14.8121 8.68806 14.7619 8.71714C14.7151 8.74479 14.671 8.77666 14.63 8.81236L12.9894 10.3724V9.03368C12.9745 8.92831 12.9216 8.83201 12.8407 8.76291C12.7598 8.69382 12.6564 8.65669 12.55 8.65851C12.4505 8.65869 12.3552 8.69827 12.2849 8.76859C12.2146 8.83891 12.175 8.93423 12.1748 9.03368V12.8138C12.1897 12.9192 12.2426 13.0155 12.3235 13.0845C12.4045 13.1536 12.5079 13.1908 12.6143 13.1889C12.7137 13.1888 12.809 13.1492 12.8793 13.0789C12.9497 13.0086 12.9892 12.9132 12.9894 12.8138V11.3888L14.731 13.0335C14.774 13.0757 14.8224 13.1121 14.875 13.1417C14.954 13.1777 15.0406 13.1939 15.1273 13.1889C15.2023 13.1888 15.2757 13.1662 15.3378 13.1241C15.3998 13.0819 15.4478 13.022 15.4755 12.9522C15.5032 12.8825 15.5094 12.806 15.4931 12.7327C15.4769 12.6594 15.439 12.5927 15.3844 12.5411L13.6339 10.8876Z" fill="#171723"/>
</g>
<defs>
<clipPath id="clip0_6394_68552">
<rect width="20" height="20" fill="white"/>
</clipPath>
</defs>
</svg>
