<svg width="20" height="20" viewBox="0 0 20 20" fill="none" xmlns="http://www.w3.org/2000/svg">
<g clip-path="url(#clip0_5313_35150)">
<path d="M11.703 16.9699H11.6973C11.3822 16.9723 11.0747 16.8726 10.8209 16.6859C10.5729 16.4997 10.3914 16.2386 10.3033 15.9412L8.89867 11.3807C8.8786 11.3157 8.84298 11.2567 8.7949 11.2086C8.74683 11.1605 8.68775 11.1249 8.62279 11.1049L4.05655 9.69861C3.76171 9.60943 3.50291 9.42873 3.31762 9.18266C3.13132 8.93682 3.02941 8.63738 3.02709 8.32894C3.02155 8.02071 3.11421 7.71871 3.29167 7.46664C3.46913 7.21456 3.72219 7.02548 4.01423 6.92675L15.0331 3.11246C15.2924 3.02158 15.5721 3.00582 15.84 3.067C16.1078 3.12818 16.3529 3.26382 16.547 3.45827C16.7412 3.65273 16.8764 3.89808 16.9371 4.16605C16.9978 4.43401 16.9815 4.71368 16.8902 4.97281L13.0759 15.986C12.9794 16.2734 12.7949 16.5232 12.5485 16.6998C12.302 16.8764 12.0062 16.9709 11.703 16.9699ZM15.5157 3.8636C15.4447 3.86373 15.3743 3.87584 15.3074 3.89944L4.28278 7.71533C4.15736 7.75728 4.04867 7.83831 3.97266 7.94654C3.89665 8.05477 3.85732 8.18451 3.86042 8.31673V8.31917C3.86191 8.45015 3.90518 8.57722 3.98393 8.68189C4.06269 8.78655 4.17281 8.86333 4.29825 8.90104L8.86856 10.3089C9.06308 10.369 9.24 10.4756 9.38395 10.6195C9.5279 10.7635 9.63453 10.9404 9.69457 11.1349L11.1008 15.7012C11.1368 15.8268 11.2128 15.9373 11.3172 16.0158C11.4216 16.0944 11.5488 16.1368 11.6794 16.1366H11.6819C11.8179 16.1403 11.9514 16.1001 12.0627 16.0218C12.1678 15.9471 12.2462 15.8407 12.2865 15.7183L16.1033 4.69775C16.1431 4.58598 16.1504 4.4652 16.1244 4.34942C16.0973 4.23464 16.039 4.12958 15.956 4.04587C15.8724 3.9629 15.7672 3.90509 15.6524 3.87905C15.6075 3.869 15.5617 3.86382 15.5157 3.8636Z" fill="#171723"/>
</g>
<defs>
<clipPath id="clip0_5313_35150">
<rect width="20" height="20" fill="white"/>
</clipPath>
</defs>
</svg>
