<svg width="20" height="20" viewBox="0 0 20 20" fill="none" xmlns="http://www.w3.org/2000/svg">
<g clip-path="url(#clip0_5313_35215)">
<path d="M16.0051 11.3992C15.5344 11.1664 15.0404 10.9839 14.5313 10.8547C14.2424 10.7709 13.9527 10.6879 13.6728 10.5805C13.3009 10.4397 12.4171 10.0304 12.2364 9.27759C12.1775 8.89742 12.2034 8.50892 12.3121 8.1399C12.3569 7.94378 12.4041 7.74846 12.4513 7.55397C12.6132 6.94743 12.7315 6.33008 12.8053 5.70663C12.9243 4.80806 12.7511 3.89503 12.3113 3.10247C12.0684 2.67982 11.7102 2.33506 11.2786 2.10852C10.847 1.88197 10.3597 1.78301 9.87394 1.82319C9.45615 1.9086 9.05996 2.07764 8.70921 2.32015C8.35846 2.56266 8.06039 2.87362 7.83295 3.23433C7.40904 3.89905 6.74793 4.37743 5.98399 4.57222C5.64995 4.61969 5.31053 4.61448 4.97811 4.55676L4.8243 4.53397C4.42832 4.45373 4.02156 4.44161 3.62151 4.49813C3.27501 4.56764 2.95246 4.72579 2.68531 4.95714C2.41817 5.18849 2.21557 5.48514 2.09727 5.81815C1.99892 6.0998 1.96505 6.39993 1.99815 6.69642C2.03125 6.9929 2.13048 7.27818 2.28852 7.5312C2.43389 7.74615 2.61117 7.93769 2.81424 8.09924C2.92736 8.19201 3.04454 8.27909 3.16257 8.36535C3.28953 8.45813 3.41648 8.55089 3.53448 8.65425C3.63737 8.74314 3.72747 8.84584 3.80222 8.95943L3.80306 8.96026C3.9124 9.12849 3.98404 9.31839 4.01306 9.51693C4.07668 10.0308 4.00892 10.5525 3.81611 11.033C3.66379 11.3729 3.45678 11.6855 3.20332 11.9583C3.11381 12.0674 3.02429 12.1764 2.94128 12.2847C2.89977 12.3384 2.85909 12.3929 2.82165 12.4466C2.47194 12.9271 2.22467 13.4743 2.09518 14.0542C1.96569 14.6342 1.95674 15.2346 2.06888 15.8182C2.181 16.3358 2.42522 16.8155 2.77776 17.2106C3.1303 17.6058 3.57914 17.903 4.08061 18.0732C4.35091 18.1543 4.63174 18.1949 4.91394 18.1936C5.85009 18.1311 6.7576 17.845 7.56042 17.3595L7.68249 17.2952C8.49621 16.7417 9.45482 16.44 10.4388 16.4277C11.0898 16.5538 11.7078 16.8126 12.2544 17.1878C12.8765 17.6036 13.5732 17.8952 14.306 18.0463C15.1234 18.1306 15.9436 17.9141 16.6129 17.4373C17.2822 16.9605 17.7547 16.2561 17.9421 15.456C18.0883 14.6619 17.9797 13.842 17.6318 13.1134C17.2839 12.3847 16.7146 11.7847 16.0051 11.3992Z" fill="#171723"/>
</g>
<defs>
<clipPath id="clip0_5313_35215">
<rect width="20" height="20" fill="white"/>
</clipPath>
</defs>
</svg>
