<svg width="20" height="20" viewBox="0 0 20 20" fill="none" xmlns="http://www.w3.org/2000/svg">
<g clip-path="url(#clip0_5313_35167)">
<path d="M4.91364 18.1938C4.63171 18.195 4.35117 18.1544 4.08114 18.0733C3.57966 17.903 3.13079 17.6058 2.77814 17.2107C2.4255 16.8155 2.18108 16.3359 2.06864 15.8183C1.9569 15.2348 1.96605 14.6347 2.09553 14.0549C2.22501 13.4751 2.47206 12.928 2.82141 12.4475L2.94104 12.2848C3.02323 12.1774 3.11193 12.0699 3.20146 11.9617C3.45547 11.6877 3.66301 11.3741 3.81586 11.0331C4.00698 10.5524 4.07469 10.0315 4.0128 9.51785C3.98393 9.31903 3.91228 9.12884 3.8028 8.96039L3.80196 8.95956C3.72766 8.84589 3.63781 8.74317 3.53504 8.65439C3.41703 8.55105 3.29008 8.45826 3.16313 8.36549C3.04513 8.27922 2.92712 8.19215 2.81397 8.09937C2.61093 7.93782 2.4337 7.74629 2.28836 7.53135C2.13075 7.27815 2.03178 6.9929 1.99868 6.6965C1.96558 6.40009 1.9992 6.10004 2.09707 5.81831C2.21551 5.48538 2.41815 5.18881 2.68528 4.95748C2.9524 4.72615 3.27489 4.56796 3.62132 4.49831C4.02111 4.44179 4.4276 4.45391 4.82331 4.53414L4.97875 4.55694C5.31107 4.6155 5.65061 4.62072 5.98458 4.57239C6.74854 4.3776 7.40966 3.89922 7.83357 3.23448C8.06101 2.87377 8.35908 2.5628 8.70984 2.32028C9.06059 2.07777 9.45679 1.90872 9.87458 1.82331C10.3605 1.78223 10.8481 1.8808 11.2799 2.10744C11.7116 2.33408 12.0697 2.67935 12.3119 3.10261C12.7514 3.89529 12.9243 4.80829 12.8051 5.70678C12.7324 6.32611 12.6151 6.9394 12.4543 7.5419C12.4063 7.74047 12.3583 7.93985 12.3135 8.13923C12.2031 8.5082 12.1767 8.89722 12.2362 9.27774C12.4169 10.0305 13.3007 10.4399 13.6726 10.5806C13.9525 10.6872 14.2423 10.7711 14.5303 10.8549C15.0397 10.9837 15.5341 11.1662 16.0049 11.3993C16.7144 11.7848 17.2839 12.3848 17.6319 13.1134C17.9799 13.842 18.0886 14.662 17.9426 15.4561C17.7537 16.2555 17.2806 16.959 16.6115 17.4356C15.9425 17.9121 15.123 18.1292 14.3057 18.0465C13.573 17.8957 12.8765 17.6041 12.2549 17.1879C11.708 16.8127 11.0897 16.554 10.4385 16.4278C9.45458 16.4404 8.49604 16.7421 7.6822 17.2953L7.56012 17.3596C6.75735 17.8453 5.84981 18.1313 4.91364 18.1938ZM4.50023 8.50385C4.67589 8.77253 4.79061 9.07641 4.83633 9.39415C4.92199 10.0469 4.83964 10.7108 4.59707 11.3229C4.41457 11.7522 4.15997 12.1472 3.84431 12.4907C3.76212 12.5916 3.67911 12.6925 3.60014 12.795L3.49842 12.9325C3.21676 13.3164 3.01666 13.7538 2.91043 14.2179C2.8042 14.682 2.7941 15.1629 2.88074 15.6311C2.95906 16.0063 3.13297 16.3548 3.38563 16.643C3.63829 16.9311 3.96112 17.1491 4.32282 17.2758C5.32017 17.431 6.33906 17.1977 7.16949 16.624L7.29156 16.5589C8.24902 15.9175 9.37902 15.5829 10.5313 15.5994C11.2986 15.7342 12.0287 16.0301 12.6732 16.4677C13.2044 16.8269 13.7985 17.0826 14.4245 17.2213C15.0333 17.2729 15.6405 17.1051 16.1364 16.7483C16.6323 16.3915 16.9843 15.8691 17.1288 15.2755C17.2396 14.6589 17.1526 14.0231 16.8803 13.4589C16.608 12.8947 16.1643 12.4311 15.6127 12.1342C15.1924 11.9293 14.7519 11.7687 14.2984 11.6549C13.9883 11.5653 13.6775 11.4742 13.3764 11.3603C12.9249 11.2228 12.5126 10.98 12.1735 10.6519C11.8343 10.3237 11.578 9.9197 11.4257 9.47305C11.3331 8.96842 11.3588 8.4492 11.5005 7.95613C11.5461 7.75268 11.5949 7.54923 11.6446 7.34578C11.7957 6.78206 11.9061 6.20822 11.975 5.62869C12.0714 4.90893 11.9402 4.17706 11.5999 3.53559C11.4413 3.25067 11.2054 3.01638 10.9195 2.85972C10.6335 2.70306 10.3091 2.63042 9.98365 2.65017C9.32448 2.73644 8.95011 3.19054 8.47648 3.76426C7.93283 4.58494 7.09615 5.16688 6.1376 5.39105C5.71454 5.45679 5.28365 5.45376 4.86156 5.3821L4.70042 5.3585C4.39722 5.29374 4.08537 5.27972 3.77757 5.31699C3.57529 5.35927 3.38714 5.45246 3.23092 5.58775C3.0747 5.72304 2.95558 5.89594 2.88483 6.09011C2.8295 6.25189 2.80979 6.42372 2.82707 6.59382C2.84435 6.76392 2.8982 6.92828 2.98493 7.07563C3.08541 7.2196 3.20662 7.34793 3.34463 7.45646C3.44473 7.53947 3.55052 7.61596 3.65551 7.69328C3.80199 7.80069 3.94766 7.9073 4.08356 8.02612C4.24323 8.16596 4.38338 8.32663 4.50023 8.50382V8.50385Z" fill="#171723"/>
</g>
<defs>
<clipPath id="clip0_5313_35167">
<rect width="20" height="20" fill="white"/>
</clipPath>
</defs>
</svg>
