<svg width="20" height="20" viewBox="0 0 20 20" fill="none" xmlns="http://www.w3.org/2000/svg">
<g clip-path="url(#clip0_10317_147003)">
<path d="M9.27229 3.71283C9.27229 3.72141 9.26372 3.72993 9.26372 3.73851C9.21287 3.80477 9.16976 3.87663 9.13521 3.95267C9.08384 4.04276 9.04085 4.13739 9.00681 4.23535C8.97365 4.30084 8.94777 4.36978 8.92964 4.44091C8.90562 4.51691 8.88562 4.59411 8.86973 4.67221C8.84146 4.78769 8.82144 4.90504 8.80982 5.02337C8.31764 5.07874 7.85871 5.29915 7.50783 5.64871C7.12294 6.05222 6.91085 6.59008 6.91674 7.14769C6.91532 7.20776 6.91819 7.26785 6.92532 7.32751C6.93388 7.40462 6.95103 7.49026 6.96808 7.57595H3.79883C3.3929 7.57971 3.00142 7.42538 2.70726 7.1456C2.41311 6.86583 2.23936 6.48257 2.22278 6.07696C2.21696 5.87323 2.2525 5.67044 2.32727 5.48084C2.40203 5.29124 2.51447 5.11877 2.65778 4.97385C2.80108 4.82893 2.97229 4.71458 3.16104 4.63771C3.3498 4.56083 3.55218 4.52303 3.75596 4.52658C3.78416 4.52687 3.81214 4.52153 3.83826 4.51086C3.86437 4.5002 3.88809 4.48444 3.90804 4.46449C3.92798 4.44455 3.94375 4.42083 3.95441 4.39471C3.96507 4.3686 3.97041 4.34062 3.97013 4.31241C3.97646 3.77587 4.18434 3.26132 4.5525 2.87095C4.92066 2.48059 5.42216 2.24296 5.95742 2.20525H6.03458C6.5048 2.20049 6.96332 2.35177 7.33839 2.6354C7.71346 2.91903 7.9839 3.31902 8.1074 3.77275C8.11491 3.80584 8.13061 3.83652 8.15306 3.86196C8.17552 3.8874 8.204 3.90679 8.23591 3.91835C8.26815 3.93155 8.30327 3.93612 8.33782 3.93161C8.37236 3.9271 8.40513 3.91367 8.4329 3.89263C8.55386 3.80842 8.69039 3.74915 8.83451 3.71828C8.97863 3.68741 9.12745 3.68556 9.27229 3.71283Z" fill="#171723"/>
<path d="M17.7776 7.55019C17.7827 7.83449 17.6854 8.11114 17.5035 8.32969C17.3906 8.47125 17.2473 8.58556 17.0841 8.66414C16.921 8.74273 16.7423 8.78357 16.5613 8.78364H15.4906C15.5085 8.74806 15.5229 8.71075 15.5333 8.67229C15.5432 8.63302 15.549 8.59282 15.5505 8.55235C15.552 8.4658 15.5314 8.3803 15.4906 8.30397L15.011 7.48164C14.9576 7.38399 14.8723 7.30768 14.7694 7.26556C14.6664 7.22344 14.552 7.21809 14.4456 7.2504L13.9317 7.396C13.9082 7.40522 13.883 7.40922 13.8579 7.40774C13.8327 7.40626 13.8082 7.39933 13.786 7.38743C13.7774 7.37886 13.7689 7.37029 13.7603 7.37029C13.7181 7.34207 13.6877 7.29945 13.6747 7.2504L13.5461 6.7279C13.5188 6.62109 13.4569 6.52629 13.3702 6.45816C13.2835 6.39003 13.1768 6.35238 13.0665 6.35103H12.1071C11.9973 6.35034 11.8905 6.38739 11.8048 6.456C11.719 6.5246 11.6595 6.62058 11.636 6.72787L11.5075 7.25037C11.5003 7.27668 11.4873 7.30106 11.4695 7.32179C11.4518 7.34251 11.4296 7.35906 11.4047 7.37025C11.3831 7.38688 11.3577 7.39792 11.3308 7.40241C11.3039 7.40689 11.2764 7.40468 11.2505 7.39597L10.7281 7.2418C10.6216 7.21227 10.5082 7.21896 10.4059 7.26082C10.3036 7.30268 10.2181 7.37735 10.1628 7.47309L9.68314 8.30393C9.64327 8.37756 9.62263 8.46006 9.62314 8.54379C9.62403 8.5843 9.62978 8.62454 9.64029 8.66367C9.64935 8.70533 9.66376 8.74564 9.68317 8.7836H9.06636C8.76294 8.78751 8.46414 8.70913 8.20171 8.5568C7.93928 8.40447 7.72303 8.18387 7.57594 7.91846C7.5483 7.87839 7.52532 7.83529 7.50746 7.79001L7.48173 7.73862C7.4796 7.72572 7.47362 7.71377 7.46458 7.70432C7.46458 7.69575 7.45601 7.69575 7.45601 7.68723C7.45601 7.67865 7.45601 7.67008 7.44744 7.67008C7.42172 7.59296 7.39599 7.49875 7.37895 7.42169C7.35542 7.33225 7.34389 7.24007 7.34466 7.14759C7.33968 6.92597 7.37895 6.70559 7.46017 6.49934C7.54138 6.29308 7.66291 6.1051 7.81765 5.94637C7.97239 5.78765 8.15722 5.66137 8.36134 5.57494C8.56547 5.4885 8.78477 5.44364 9.00644 5.44298C9.06166 5.44261 9.11464 5.4211 9.15448 5.38286C9.19432 5.34462 9.21798 5.29257 9.22061 5.23741C9.23741 4.75841 9.39207 4.29444 9.66604 3.90117C9.67462 3.8926 9.69166 3.85835 9.70021 3.84978C9.71736 3.82411 9.72593 3.80696 9.74298 3.79839C9.75219 3.77521 9.7669 3.75462 9.78584 3.73839C9.81634 3.70878 9.84498 3.67732 9.87158 3.64417C10.2664 3.22298 10.8109 2.9738 11.3877 2.95036H11.4733C11.9834 2.94551 12.4806 3.11032 12.8869 3.41888C13.2931 3.72744 13.5853 4.16226 13.7175 4.65498C13.7257 4.68824 13.7419 4.71899 13.7647 4.74454C13.7875 4.77008 13.8162 4.78963 13.8483 4.80148C13.8805 4.81332 13.915 4.81709 13.9489 4.81246C13.9829 4.80783 14.0151 4.79493 14.0429 4.77491C14.1943 4.67955 14.3634 4.61577 14.5401 4.58742C14.7167 4.55907 14.8973 4.56672 15.0709 4.60992C15.2445 4.65312 15.4076 4.73098 15.5504 4.83881C15.6932 4.94664 15.8127 5.08223 15.9017 5.23741C16.0317 5.51217 16.0707 5.82125 16.0131 6.1197C16.0041 6.1542 16.0041 6.19041 16.0131 6.2249C16.0221 6.25938 16.0398 6.29098 16.0645 6.31669C16.0919 6.34148 16.125 6.35914 16.1609 6.3681C16.1967 6.37707 16.2342 6.37706 16.2701 6.36809C16.4555 6.32098 16.6499 6.32098 16.8353 6.36809C17.0628 6.42175 17.2704 6.53873 17.4341 6.70548C17.5978 6.87223 17.711 7.08194 17.7605 7.31034C17.7705 7.38992 17.7762 7.46999 17.7776 7.55019Z" fill="#171723"/>
<path d="M12.7494 12.4926V15.9396C12.7494 15.983 12.7409 16.026 12.7243 16.0661C12.7077 16.1062 12.6833 16.1426 12.6526 16.1733C12.622 16.204 12.5855 16.2283 12.5454 16.2449C12.5054 16.2615 12.4624 16.2701 12.419 16.2701H3.02379C2.93616 16.2701 2.85211 16.2352 2.79014 16.1733C2.72817 16.1113 2.69336 16.0273 2.69336 15.9396V10.8101C2.69336 10.7667 2.70191 10.7237 2.71851 10.6837C2.73512 10.6436 2.75946 10.6071 2.79014 10.5765C2.82083 10.5458 2.85725 10.5214 2.89734 10.5048C2.93743 10.4882 2.9804 10.4797 3.02379 10.4797H9.65734C9.66732 10.502 9.67591 10.5249 9.68307 10.5482L10.1712 11.3791C10.2275 11.4736 10.3135 11.5467 10.4159 11.587C10.5182 11.6273 10.631 11.6325 10.7366 11.6018L11.2419 11.4476C11.2699 11.4409 11.2988 11.438 11.3276 11.439H11.3619C11.379 11.4476 11.3962 11.4648 11.4132 11.4733C11.4578 11.5009 11.4912 11.5434 11.5075 11.5933L11.6274 12.1158C11.6536 12.2232 11.7151 12.3187 11.8021 12.387C11.8891 12.4554 11.9964 12.4926 12.107 12.4927L12.7494 12.4926Z" fill="#171723"/>
<path d="M14.723 9.8818H14.7146C14.5935 9.76224 14.5246 9.59957 14.523 9.42935C14.5215 9.25914 14.5874 9.09523 14.7063 8.97347L14.8396 8.84013L15.1064 8.59847C15.1155 8.58681 15.1212 8.57277 15.1227 8.558C15.1241 8.54324 15.1213 8.52836 15.1146 8.51513L14.6313 7.69847C14.6304 7.69201 14.6281 7.68583 14.6245 7.68042C14.6208 7.67501 14.616 7.67051 14.6104 7.66728C14.6047 7.66405 14.5984 7.66218 14.5919 7.6618C14.5854 7.66143 14.5789 7.66257 14.5729 7.66513L14.048 7.8068C13.9696 7.83154 13.887 7.83987 13.8052 7.83127C13.7235 7.82267 13.6444 7.79732 13.5729 7.7568C13.5525 7.74752 13.5329 7.73636 13.5145 7.72347C13.449 7.68383 13.3928 7.63058 13.3497 7.56731C13.3066 7.50405 13.2775 7.43226 13.2646 7.3568L13.1313 6.8318C13.1266 6.81763 13.1177 6.80524 13.1058 6.79629C13.0939 6.78735 13.0795 6.78229 13.0646 6.7818H12.1063C12.0813 6.7818 12.0562 6.79013 12.0562 6.82351L11.923 7.35684C11.902 7.44014 11.8637 7.51808 11.8106 7.58557C11.7574 7.65306 11.6907 7.70858 11.6146 7.74851C11.5422 7.79048 11.462 7.8173 11.3789 7.82733C11.2959 7.83736 11.2116 7.83039 11.1313 7.80684L10.6145 7.65684C10.5989 7.65211 10.5822 7.65284 10.567 7.6589C10.5519 7.66496 10.5392 7.67599 10.5312 7.69017L10.0562 8.51517C10.0488 8.52882 10.0464 8.54463 10.0494 8.55986C10.0524 8.5751 10.0607 8.58877 10.0729 8.59851L10.3395 8.85688L10.4562 8.96522C10.5169 9.02338 10.5652 9.09325 10.5981 9.17059C10.631 9.24793 10.648 9.33115 10.6479 9.41522C10.6482 9.59245 10.5794 9.76284 10.4562 9.89022L10.0729 10.2485C10.0732 10.2563 10.0719 10.264 10.0691 10.2712C10.0662 10.2784 10.0618 10.2849 10.0562 10.2902C10.0562 10.3069 10.0562 10.3152 10.0479 10.3235L10.5395 11.1569C10.5562 11.1902 10.5811 11.1986 10.6229 11.1902L11.1229 11.0402C11.181 11.0164 11.2435 11.005 11.3063 11.0069C11.414 11.011 11.5194 11.0395 11.6146 11.0902C11.6312 11.0985 11.6479 11.1152 11.6645 11.1235C11.7895 11.2095 11.8808 11.3362 11.9229 11.4819L12.0395 12.0152C12.0427 12.0302 12.0512 12.0435 12.0635 12.0527C12.0758 12.0619 12.0909 12.0664 12.1062 12.0652H13.0646C13.0795 12.0647 13.0939 12.0597 13.1058 12.0507C13.1177 12.0418 13.1266 12.0294 13.1312 12.0152L13.2646 11.4985C13.2831 11.4172 13.318 11.3404 13.3671 11.2729C13.4161 11.2053 13.4783 11.1484 13.55 11.1056C13.6216 11.0627 13.7012 11.0349 13.7839 11.0236C13.8666 11.0124 13.9508 11.018 14.0312 11.0402L14.5561 11.1902C14.5718 11.1949 14.5885 11.1942 14.6037 11.1882C14.6188 11.1821 14.6315 11.1711 14.6396 11.1569L15.1145 10.3319C15.1219 10.3182 15.1243 10.3024 15.1213 10.2872C15.1183 10.272 15.11 10.2583 15.0979 10.2485L14.723 9.8818ZM12.5897 10.2568C12.4237 10.2576 12.2612 10.2091 12.1228 10.1174C11.9845 10.0257 11.8765 9.89493 11.8126 9.74173C11.7487 9.58852 11.7317 9.41979 11.7639 9.25694C11.7961 9.09409 11.8759 8.94448 11.9933 8.82711C12.1107 8.70973 12.2603 8.62988 12.4232 8.5977C12.586 8.56552 12.7547 8.58245 12.9079 8.64636C13.0611 8.71026 13.1919 8.81825 13.2836 8.95661C13.3753 9.09498 13.4238 9.25747 13.423 9.42347C13.4219 9.64414 13.3338 9.85546 13.1777 10.0115C13.0217 10.1675 12.8104 10.2557 12.5897 10.2568V10.2568Z" fill="#171723"/>
<path d="M15.2265 14.8254H14.3558C14.3005 14.8254 14.2476 14.8034 14.2085 14.7644C14.1694 14.7253 14.1475 14.6723 14.1475 14.617C14.1475 14.5618 14.1694 14.5088 14.2085 14.4697C14.2476 14.4307 14.3005 14.4087 14.3558 14.4087H15.2266C15.6247 14.4081 16.0064 14.2496 16.2879 13.968C16.5694 13.6864 16.7277 13.3046 16.728 12.9064V10.4268C16.728 10.3715 16.75 10.3185 16.789 10.2795C16.8281 10.2404 16.8811 10.2184 16.9364 10.2184C16.9916 10.2184 17.0446 10.2404 17.0837 10.2795C17.1227 10.3185 17.1447 10.3715 17.1447 10.4268V12.9064C17.1443 13.4151 16.942 13.9028 16.5824 14.2626C16.2228 14.6223 15.7352 14.8247 15.2265 14.8254Z" fill="#171723"/>
<path d="M12.5902 17.7947H2.84472C2.69929 17.7947 2.55982 17.737 2.45699 17.6341C2.35416 17.5313 2.29639 17.3918 2.29639 17.2464C2.29639 17.101 2.35416 16.9615 2.45699 16.8587C2.55982 16.7558 2.69929 16.6981 2.84472 16.6981H12.5902C12.7357 16.6981 12.8751 16.7558 12.978 16.8587C13.0808 16.9615 13.1386 17.101 13.1386 17.2464C13.1386 17.3918 13.0808 17.5313 12.978 17.6341C12.8751 17.737 12.7357 17.7947 12.5902 17.7947Z" fill="#171723"/>
</g>
<defs>
<clipPath id="clip0_10317_147003">
<rect width="20" height="20" fill="white"/>
</clipPath>
</defs>
</svg>
