<svg width="20" height="20" viewBox="0 0 20 20" fill="none" xmlns="http://www.w3.org/2000/svg">
<g clip-path="url(#clip0_5313_35069)">
<path d="M9.99705 13.1446C9.18136 13.145 8.39734 12.8288 7.81016 12.2626C7.22298 11.6964 6.87847 10.9244 6.8492 10.1092C6.81993 9.29405 7.10818 8.49934 7.65323 7.89249C8.19829 7.28563 8.9576 6.91401 9.77123 6.8559C10.5849 6.7978 11.3893 7.05774 12.015 7.58098C12.6408 8.10421 13.0391 8.84989 13.1259 9.66095C13.2128 10.472 12.9815 11.2851 12.4807 11.929C11.98 12.5729 11.2489 12.9973 10.4414 13.1128C10.2942 13.134 10.1457 13.1446 9.99705 13.1446ZM9.99949 7.68885C9.59183 7.68894 9.19145 7.79691 8.83901 8.00178C8.48657 8.20665 8.19461 8.50113 7.99278 8.85532C7.79095 9.20951 7.68643 9.6108 7.68984 10.0184C7.69325 10.4261 7.80446 10.8256 8.01218 11.1763L8.01302 11.1772C8.20671 11.5037 8.47789 11.7773 8.80255 11.9741C9.12722 12.1708 9.49536 12.2844 9.87441 12.3049C10.2535 12.3255 10.6317 12.2523 10.9757 12.0918C11.3198 11.9313 11.6189 11.6885 11.8468 11.3849C12.0746 11.0813 12.2241 10.7262 12.282 10.351C12.3399 9.97587 12.3045 9.59222 12.1788 9.23402C12.0531 8.87582 11.8411 8.55412 11.5615 8.29738C11.2819 8.04064 10.9433 7.85678 10.5757 7.76206C10.3874 7.71357 10.1939 7.68897 9.99949 7.68885Z" fill="#171723"/>
<path d="M11.3081 18.1946H8.69175C8.42792 18.195 8.17165 18.1065 7.96433 17.9433C7.75701 17.7802 7.61075 17.5519 7.54917 17.2953L7.20493 15.8716C7.18176 15.777 7.13968 15.6881 7.08124 15.6103C7.02279 15.5324 6.94919 15.4672 6.86487 15.4185C6.78054 15.3699 6.68724 15.3388 6.59058 15.3271C6.49392 15.3155 6.3959 15.3235 6.30243 15.3508L4.91083 15.7621C4.65764 15.8376 4.38638 15.8253 4.14104 15.7273C3.89569 15.6293 3.69063 15.4513 3.5591 15.2222L2.2521 12.9623C2.11942 12.7341 2.06765 12.4678 2.10516 12.2065C2.14268 11.9452 2.26729 11.7043 2.45881 11.5226L3.5078 10.5204C3.57762 10.4538 3.63321 10.3736 3.67125 10.2849C3.70929 10.1962 3.72899 10.1006 3.72915 10.0041C3.73061 9.90459 3.71172 9.80585 3.67366 9.71391C3.6356 9.62197 3.57916 9.53878 3.5078 9.46942L2.458 8.46803C2.26703 8.28623 2.14279 8.04544 2.10531 7.78445C2.06782 7.52346 2.11925 7.25744 2.25133 7.02923L3.55989 4.76727C3.69112 4.53829 3.89592 4.3604 4.14102 4.26252C4.38612 4.16464 4.65712 4.15251 4.90999 4.22811L6.31216 4.64071C6.40475 4.66787 6.50187 4.676 6.59768 4.6646C6.69349 4.6532 6.786 4.62251 6.86962 4.57438C6.95505 4.52581 7.02975 4.46041 7.08919 4.38215C7.14863 4.30389 7.19158 4.21439 7.21546 4.11906L7.55725 2.70426C7.61925 2.44783 7.76575 2.21973 7.97316 2.05668C8.18057 1.89363 8.43682 1.80513 8.70064 1.80542H11.3081C11.5719 1.80486 11.8281 1.89328 12.0355 2.05638C12.2428 2.21949 12.3891 2.44775 12.4506 2.70426L12.7949 4.12151C12.8177 4.21509 12.8592 4.30311 12.9168 4.3803C12.9744 4.45749 13.047 4.52226 13.1302 4.57074C13.216 4.6231 13.3117 4.65704 13.4113 4.67042C13.5109 4.6838 13.6122 4.67632 13.7088 4.64846L15.0971 4.2383C15.3504 4.16292 15.6218 4.17531 15.8671 4.27347C16.1125 4.37163 16.3175 4.54979 16.4489 4.77907L17.7493 7.039C17.8814 7.26697 17.9328 7.53284 17.8952 7.79362C17.8575 8.05441 17.733 8.29488 17.5418 8.47617L16.492 9.47959C16.4222 9.54626 16.3666 9.62638 16.3285 9.71512C16.2905 9.80387 16.2708 9.89939 16.2707 9.99595C16.2691 10.0953 16.2879 10.194 16.326 10.2858C16.364 10.3777 16.4205 10.4607 16.492 10.5298L17.5418 11.532C17.7329 11.714 17.8571 11.955 17.8943 12.2162C17.9315 12.4774 17.8796 12.7435 17.7469 12.9716L16.4391 15.2328C16.3075 15.4614 16.1027 15.6389 15.8577 15.7368C15.6127 15.8346 15.3419 15.847 15.089 15.7719L13.6909 15.3605C13.5981 15.333 13.5007 15.3247 13.4046 15.3361C13.3086 15.3474 13.2158 15.3782 13.132 15.4265C13.0481 15.4749 12.975 15.5398 12.9171 15.6173C12.8591 15.6948 12.8176 15.7832 12.7949 15.8773L12.4507 17.2962C12.389 17.5526 12.2427 17.7808 12.0354 17.9438C11.8281 18.1068 11.5718 18.1952 11.3081 18.1946ZM6.50258 14.4889C6.85115 14.4889 7.18964 14.6058 7.46392 14.8209C7.73819 15.0361 7.93239 15.3369 8.01544 15.6755L8.35886 17.0992C8.37685 17.1739 8.41947 17.2404 8.47985 17.288C8.54023 17.3355 8.61486 17.3613 8.6917 17.3613H11.3081C11.3848 17.3616 11.4595 17.3359 11.5198 17.2884C11.58 17.2408 11.6225 17.1743 11.6401 17.0996L11.9843 15.6811C12.0337 15.4774 12.1239 15.2858 12.2495 15.118C12.3751 14.9502 12.5335 14.8097 12.7151 14.7049C12.8967 14.6002 13.0977 14.5335 13.3059 14.5088C13.514 14.4841 13.725 14.502 13.9261 14.5613L15.3242 14.9727C15.3978 14.9942 15.4765 14.9904 15.5477 14.962C15.6189 14.9336 15.6786 14.8823 15.7173 14.8161L17.0259 12.5542C17.0646 12.4877 17.0796 12.4101 17.0687 12.334C17.0578 12.2578 17.0215 12.1876 16.9657 12.1347L15.9159 11.1329C15.7645 10.9866 15.644 10.8113 15.5618 10.6174C15.4796 10.4236 15.4373 10.2151 15.4374 10.0046C15.4374 9.794 15.4799 9.58561 15.5623 9.39181C15.6446 9.19802 15.7652 9.0228 15.9167 8.87661L16.9665 7.87319C17.0222 7.82056 17.0586 7.75068 17.0696 7.67485C17.0807 7.59901 17.0659 7.52166 17.0276 7.4553L15.727 5.19533C15.6891 5.12837 15.6296 5.07629 15.5581 5.04761C15.4867 5.01892 15.4077 5.01534 15.334 5.03746L13.9448 5.44761C13.7429 5.50743 13.5309 5.52532 13.3218 5.5002C13.1127 5.47508 12.911 5.40747 12.729 5.30153C12.5448 5.19647 12.3839 5.05514 12.2559 4.8861C12.1279 4.71706 12.0355 4.52381 11.9843 4.31805L11.6401 2.90085C11.6226 2.82606 11.5802 2.75943 11.5199 2.71184C11.4596 2.66424 11.3849 2.6385 11.3081 2.63881H8.70067C8.62368 2.63879 8.54892 2.66466 8.4884 2.71226C8.42789 2.75986 8.38513 2.82643 8.36701 2.90126L8.02522 4.31561C7.97518 4.51973 7.88435 4.71161 7.75818 4.8797C7.63201 5.04778 7.47313 5.18858 7.2911 5.29363C7.10907 5.39868 6.90765 5.46579 6.699 5.49092C6.49034 5.51606 6.27875 5.49869 6.07698 5.43988L4.67398 5.02728C4.6005 5.00558 4.52186 5.00923 4.45071 5.03764C4.37956 5.06606 4.32004 5.11759 4.28173 5.18395L2.97314 7.4459C2.93468 7.51238 2.9197 7.58986 2.93062 7.66589C2.94155 7.74191 2.97773 7.81205 3.03335 7.86501L4.08398 8.86721C4.23534 9.01349 4.35571 9.18873 4.43792 9.38251C4.52013 9.57629 4.5625 9.78463 4.5625 9.99512C4.5625 10.2056 4.52013 10.414 4.43792 10.6077C4.35571 10.8015 4.23534 10.9768 4.08398 11.123L3.03417 12.1261C2.97826 12.1788 2.94181 12.2489 2.93073 12.325C2.91965 12.4011 2.9346 12.4787 2.97314 12.5452L4.28091 14.8055C4.31942 14.8721 4.37918 14.9239 4.45061 14.9524C4.52204 14.981 4.60099 14.9847 4.6748 14.963L6.0664 14.5516C6.20805 14.51 6.35494 14.4889 6.50258 14.4889Z" fill="#171723"/>
</g>
<defs>
<clipPath id="clip0_5313_35069">
<rect width="20" height="20" fill="white"/>
</clipPath>
</defs>
</svg>
