<svg width="20" height="20" viewBox="0 0 20 20" fill="none" xmlns="http://www.w3.org/2000/svg">
<g clip-path="url(#clip0_5313_35067)">
<path d="M10.0002 15.1992C5.97591 15.1992 3.3514 12.5641 2.14454 10.9934C1.92603 10.7083 1.80762 10.3591 1.80762 9.9998C1.80762 9.64055 1.92603 9.29131 2.14454 9.00615C3.35136 7.43551 5.97587 4.80042 10.0002 4.80042C14.0245 4.80042 16.6489 7.43551 17.8558 9.00615C18.0743 9.29131 18.1927 9.64055 18.1927 9.9998C18.1927 10.359 18.0743 10.7083 17.8558 10.9934C16.6489 12.5641 14.0244 15.1992 10.0002 15.1992ZM10.0002 5.63375C6.33317 5.63375 3.91862 8.06458 2.80534 9.51396C2.69697 9.65272 2.63811 9.82373 2.63811 9.99979C2.63811 10.1759 2.69697 10.3469 2.80534 10.4856C3.91858 11.935 6.33313 14.3658 10.0002 14.3658C13.6672 14.3658 16.0817 11.935 17.195 10.4856C17.3034 10.3469 17.3622 10.1759 17.3622 9.99981C17.3622 9.82374 17.3034 9.65273 17.195 9.51397C16.0817 8.06458 13.6671 5.63375 10.0002 5.63375Z" fill="#171723"/>
<path d="M9.99983 13.0695C9.39271 13.0695 8.79922 12.8895 8.29442 12.5522C7.78962 12.2149 7.39617 11.7354 7.16384 11.1745C6.9315 10.6136 6.87072 9.99642 6.98916 9.40097C7.10761 8.80551 7.39996 8.25855 7.82926 7.82926C8.25856 7.39996 8.80552 7.1076 9.40098 6.98916C9.99643 6.87072 10.6136 6.93151 11.1745 7.16384C11.7355 7.39618 12.2149 7.78962 12.5522 8.29443C12.8895 8.79923 13.0695 9.39272 13.0695 9.99984C13.0686 10.8137 12.7449 11.594 12.1694 12.1694C11.5939 12.7449 10.8137 13.0686 9.99983 13.0695ZM9.99983 7.76351C9.55752 7.76351 9.12515 7.89467 8.75739 8.1404C8.38963 8.38614 8.103 8.7354 7.93374 9.14404C7.76448 9.55267 7.72019 10.0023 7.80648 10.4361C7.89277 10.8699 8.10576 11.2684 8.41852 11.5812C8.73127 11.8939 9.12975 12.1069 9.56355 12.1932C9.99736 12.2795 10.447 12.2352 10.8556 12.0659C11.2643 11.8967 11.6135 11.61 11.8593 11.2423C12.105 10.8745 12.2362 10.4421 12.2362 9.99984C12.2354 9.40695 11.9996 8.83856 11.5803 8.41933C11.1611 8.0001 10.5927 7.76425 9.99983 7.76351Z" fill="#171723"/>
</g>
<defs>
<clipPath id="clip0_5313_35067">
<rect width="20" height="20" fill="white"/>
</clipPath>
</defs>
</svg>
