<svg width="20" height="20" viewBox="0 0 20 20" fill="none" xmlns="http://www.w3.org/2000/svg">
<g clip-path="url(#clip0_10314_146188)">
<path d="M13.1924 5.13879H3.474C3.03159 5.13943 2.6075 5.31552 2.29474 5.62842C1.98198 5.94132 1.8061 6.36549 1.80566 6.8079V16.5255C1.8061 16.9679 1.98198 17.3921 2.29474 17.705C2.6075 18.0179 3.03159 18.194 3.474 18.1946H13.1924C13.6348 18.194 14.0589 18.0179 14.3717 17.705C14.6844 17.3921 14.8603 16.9679 14.8608 16.5255V6.8079C14.8603 6.36549 14.6844 5.94132 14.3717 5.62842C14.0589 5.31551 13.6348 5.13943 13.1924 5.13879ZM14.0274 16.5255C14.0273 16.747 13.9393 16.9594 13.7827 17.1161C13.6262 17.2727 13.4139 17.3609 13.1924 17.3613H3.474C3.25252 17.3609 3.04022 17.2727 2.88368 17.1161C2.72714 16.9594 2.63914 16.747 2.639 16.5255V6.8079C2.63914 6.58642 2.72714 6.37404 2.88368 6.21735C3.04022 6.06067 3.25251 5.97248 3.474 5.97213H13.1924C13.4139 5.97248 13.6262 6.06067 13.7827 6.21735C13.9393 6.37404 14.0273 6.58642 14.0274 6.8079V16.5255Z" fill="#171723"/>
<path d="M14.4445 1.80556C14.3898 1.80553 14.3356 1.81628 14.285 1.83721C14.2344 1.85814 14.1885 1.88883 14.1498 1.92753C14.1111 1.96622 14.0804 2.01217 14.0595 2.06274C14.0386 2.1133 14.0278 2.1675 14.0278 2.22223V2.69421H2.63949V2.22221C2.63949 2.1117 2.59559 2.00572 2.51745 1.92758C2.43931 1.84944 2.33333 1.80554 2.22282 1.80554C2.11231 1.80554 2.00633 1.84944 1.92819 1.92758C1.85005 2.00572 1.80615 2.1117 1.80615 2.22221V3.99957C1.80615 4.11007 1.85005 4.21605 1.92819 4.29419C2.00633 4.37233 2.11231 4.41623 2.22282 4.41623C2.33333 4.41623 2.43931 4.37233 2.51745 4.29419C2.59559 4.21605 2.63949 4.11007 2.63949 3.99957V3.52754H14.0278V3.99955C14.0278 4.11006 14.0717 4.21604 14.1499 4.29418C14.228 4.37232 14.334 4.41622 14.4445 4.41622C14.555 4.41622 14.661 4.37232 14.7391 4.29418C14.8173 4.21604 14.8612 4.11006 14.8612 3.99955V2.22223C14.8612 2.1675 14.8504 2.11331 14.8295 2.06274C14.8086 2.01217 14.7779 1.96623 14.7392 1.92753C14.7005 1.88884 14.6546 1.85814 14.604 1.83722C14.5534 1.81629 14.4992 1.80553 14.4445 1.80556Z" fill="#171723"/>
<path d="M17.7777 17.3613H17.3073V5.97213H17.7777C17.8882 5.97213 17.9942 5.92823 18.0723 5.85009C18.1504 5.77195 18.1943 5.66597 18.1943 5.55546C18.1943 5.44495 18.1504 5.33897 18.0723 5.26083C17.9942 5.18269 17.8882 5.13879 17.7777 5.13879H16.0036C15.8931 5.13879 15.7871 5.18269 15.709 5.26083C15.6308 5.33897 15.5869 5.44495 15.5869 5.55546C15.5869 5.66597 15.6308 5.77195 15.709 5.85009C15.7871 5.92823 15.8931 5.97213 16.0036 5.97213H16.474V17.3613H16.0036C15.8931 17.3613 15.7871 17.4052 15.709 17.4833C15.6308 17.5615 15.5869 17.6675 15.5869 17.778C15.5869 17.8885 15.6308 17.9944 15.709 18.0726C15.7871 18.1507 15.8931 18.1946 16.0036 18.1946H17.7777C17.8882 18.1946 17.9942 18.1507 18.0723 18.0726C18.1504 17.9944 18.1943 17.8885 18.1943 17.778C18.1943 17.6675 18.1504 17.5615 18.0723 17.4833C17.9942 17.4052 17.8882 17.3613 17.7777 17.3613V17.3613Z" fill="#171723"/>
</g>
<defs>
<clipPath id="clip0_10314_146188">
<rect width="20" height="20" fill="white"/>
</clipPath>
</defs>
</svg>
