<svg width="20" height="20" viewBox="0 0 20 20" fill="none" xmlns="http://www.w3.org/2000/svg">
<g clip-path="url(#clip0_10314_145155)">
<path d="M10.0002 4.05355C10.0549 4.05358 10.1091 4.04283 10.1597 4.0219C10.2102 4.00097 10.2562 3.97028 10.2949 3.93158C10.3336 3.89289 10.3642 3.84694 10.3852 3.79637C10.4061 3.74581 10.4169 3.69161 10.4168 3.63689V2.22209C10.4168 2.11158 10.3729 2.0056 10.2948 1.92746C10.2167 1.84932 10.1107 1.80542 10.0002 1.80542C9.88966 1.80542 9.78367 1.84932 9.70553 1.92746C9.62739 2.0056 9.5835 2.11158 9.5835 2.22209V3.63689C9.58347 3.69161 9.59422 3.74581 9.61515 3.79637C9.63608 3.84694 9.66677 3.89289 9.70547 3.93158C9.74416 3.97028 9.79011 4.00097 9.84068 4.0219C9.89124 4.04283 9.94544 4.05358 10.0002 4.05355Z" fill="#171723"/>
<path d="M5.59096 5.39304C5.62612 5.43493 5.66919 5.46949 5.71771 5.49474C5.76622 5.51999 5.81924 5.53543 5.87372 5.5402C5.92821 5.54496 5.9831 5.53894 6.03526 5.52249C6.08742 5.50604 6.13582 5.47947 6.17772 5.44431C6.21961 5.40915 6.25417 5.36608 6.27942 5.31757C6.30467 5.26905 6.32011 5.21604 6.32487 5.16155C6.32964 5.10707 6.32362 5.05218 6.30717 5.00002C6.29071 4.94786 6.26415 4.89945 6.22899 4.85756L5.31996 3.77398C5.2848 3.73209 5.24174 3.69753 5.19322 3.67228C5.1447 3.64703 5.09169 3.63159 5.03721 3.62683C4.98272 3.62206 4.92783 3.62808 4.87567 3.64453C4.82351 3.66099 4.7751 3.68755 4.73321 3.72271C4.69132 3.75787 4.65676 3.80094 4.63151 3.84945C4.60626 3.89797 4.59081 3.95098 4.58605 4.00547C4.58129 4.05995 4.58731 4.11484 4.60376 4.167C4.62021 4.21916 4.64678 4.26757 4.68194 4.30946L5.59096 5.39304Z" fill="#171723"/>
<path d="M3.73437 9.31156C3.83848 9.31134 3.93873 9.27215 4.01539 9.2017C4.09204 9.13124 4.13954 9.03464 4.14852 8.93092C4.1575 8.8272 4.12733 8.72387 4.06393 8.64129C4.00053 8.55871 3.90851 8.50286 3.80598 8.48474L2.41276 8.23938C2.30398 8.22017 2.19202 8.24496 2.10152 8.3083C2.01102 8.37163 1.94939 8.46833 1.93018 8.57711C1.91097 8.68589 1.93576 8.79784 1.99909 8.88834C2.06243 8.97884 2.15912 9.04048 2.2679 9.05969L3.66113 9.30506C3.68529 9.30944 3.70981 9.31162 3.73437 9.31156Z" fill="#171723"/>
<path d="M4.28053 12.8215L3.05575 13.5287C3.00817 13.5559 2.96643 13.5923 2.93293 13.6357C2.89944 13.6791 2.87484 13.7287 2.86056 13.7816C2.84628 13.8346 2.8426 13.8898 2.84972 13.9442C2.85684 13.9985 2.87463 14.051 2.90206 14.0984C2.92949 14.1459 2.96603 14.1875 3.00957 14.2208C3.05312 14.2541 3.10282 14.2785 3.15581 14.2926C3.2088 14.3066 3.26405 14.3101 3.31838 14.3027C3.37272 14.2954 3.42506 14.2774 3.47242 14.2497L4.69719 13.5426C4.79275 13.4873 4.86245 13.3963 4.89096 13.2896C4.91947 13.183 4.90445 13.0694 4.84921 12.9738C4.79398 12.8782 4.70304 12.8085 4.5964 12.7799C4.48976 12.7514 4.37614 12.7663 4.28053 12.8215V12.8215Z" fill="#171723"/>
<path d="M16.9441 13.5286L15.7193 12.8214C15.6237 12.7662 15.5101 12.7512 15.4034 12.7798C15.2968 12.8084 15.2058 12.8781 15.1506 12.9737C15.0954 13.0693 15.0803 13.1829 15.1088 13.2895C15.1374 13.3962 15.2071 13.4872 15.3026 13.5424L16.5274 14.2496C16.623 14.3043 16.7363 14.3189 16.8427 14.2903C16.949 14.2616 17.0396 14.1919 17.0947 14.0966C17.1498 14.0012 17.1649 13.8879 17.1367 13.7815C17.1084 13.675 17.0392 13.5841 16.9441 13.5286Z" fill="#171723"/>
<path d="M17.5869 8.23938L16.1937 8.48474C16.0912 8.50286 15.9992 8.55871 15.9358 8.64129C15.8724 8.72387 15.8422 8.8272 15.8512 8.93092C15.8601 9.03464 15.9076 9.13124 15.9843 9.2017C16.061 9.27215 16.1612 9.31134 16.2653 9.31156C16.2899 9.31162 16.3144 9.30944 16.3386 9.30506L17.7318 9.05969C17.8406 9.04048 17.9373 8.97884 18.0006 8.88834C18.0639 8.79784 18.0887 8.68589 18.0695 8.57711C18.0503 8.46833 17.9887 8.37163 17.8982 8.3083C17.8077 8.24496 17.6957 8.22017 17.5869 8.23938Z" fill="#171723"/>
<path d="M14.09 5.54196C14.1509 5.5421 14.211 5.52883 14.2662 5.50309C14.3213 5.47735 14.3701 5.43978 14.4091 5.39304L15.3181 4.30946C15.3532 4.26757 15.3798 4.21916 15.3962 4.167C15.4127 4.11484 15.4187 4.05995 15.414 4.00547C15.4092 3.95098 15.3937 3.89797 15.3685 3.84945C15.3433 3.80094 15.3087 3.75787 15.2668 3.72271C15.2249 3.68755 15.1765 3.66099 15.1243 3.64453C15.0722 3.62808 15.0173 3.62206 14.9628 3.62682C14.9083 3.63159 14.8553 3.64703 14.8068 3.67228C14.7583 3.69753 14.7152 3.73209 14.6801 3.77398L13.771 4.85755C13.72 4.91827 13.6873 4.9923 13.6769 5.07095C13.6665 5.14959 13.6788 5.22957 13.7123 5.30147C13.7458 5.37337 13.7992 5.4342 13.8661 5.47681C13.933 5.51941 14.0107 5.54202 14.09 5.54196Z" fill="#171723"/>
<path d="M10.6064 4.91216C10.5161 4.90036 10.4266 4.89182 10.3363 4.88571C9.39145 4.82057 8.44808 5.03162 7.6211 5.49316C6.79412 5.95469 6.11923 6.64679 5.67865 7.48513C5.23807 8.32346 5.05082 9.27184 5.13973 10.2147C5.22863 11.1576 5.58985 12.0543 6.17936 12.7955C6.18794 12.8066 6.19718 12.8172 6.20703 12.8272L6.33398 12.9802C6.44504 13.1065 6.54728 13.2403 6.63997 13.3806C6.989 13.9128 7.23011 14.5084 7.3496 15.1335C7.40122 15.4077 7.54697 15.6552 7.76168 15.8334C7.97638 16.0115 8.24656 16.1091 8.52556 16.1093H11.474C11.7527 16.1088 12.0226 16.0112 12.2372 15.8332C12.4518 15.6553 12.5978 15.4082 12.6499 15.1343C12.7711 14.5042 13.0153 13.9041 13.3685 13.3684C13.463 13.228 13.5662 13.0937 13.6777 12.9664C13.6841 12.96 13.6901 12.9532 13.6956 12.946C13.7306 12.9053 13.764 12.8646 13.7957 12.8248C13.8047 12.8158 13.8128 12.8061 13.821 12.7963C14.3607 12.1178 14.71 11.3079 14.833 10.4498C14.9561 9.59164 14.8484 8.71621 14.5211 7.91344C14.1938 7.11068 13.6587 6.40954 12.9707 5.88208C12.2827 5.35461 11.4667 5.01984 10.6064 4.91217V4.91216Z" fill="#171723"/>
<path d="M11.7889 16.6447H8.20817C8.09766 16.6447 7.99168 16.6886 7.91354 16.7667C7.8354 16.8448 7.7915 16.9508 7.7915 17.0613C7.7915 17.1718 7.8354 17.2778 7.91354 17.3559C7.99168 17.4341 8.09766 17.478 8.20817 17.478H8.9465C9.02962 17.6891 9.17437 17.8704 9.36192 17.9981C9.54947 18.1258 9.77113 18.1941 9.99804 18.1941C10.225 18.1941 10.4466 18.1258 10.6342 17.9981C10.8217 17.8704 10.9665 17.6891 11.0496 17.478H11.7889C11.8994 17.478 12.0054 17.4341 12.0835 17.3559C12.1616 17.2778 12.2055 17.1718 12.2055 17.0613C12.2055 16.9508 12.1616 16.8448 12.0835 16.7667C12.0054 16.6886 11.8994 16.6447 11.7889 16.6447H11.7889Z" fill="#171723"/>
</g>
<defs>
<clipPath id="clip0_10314_145155">
<rect width="20" height="20" fill="white"/>
</clipPath>
</defs>
</svg>
