<svg width="20" height="20" viewBox="0 0 20 20" fill="none" xmlns="http://www.w3.org/2000/svg">
<g clip-path="url(#clip0_10314_145597)">
<path d="M17.9502 3.03235C17.8775 2.99903 17.7967 2.98745 17.7176 2.999C17.6385 3.01056 17.5644 3.04474 17.5042 3.09745L14.2523 5.92786C14.0958 6.0627 13.9281 6.18395 13.751 6.2903V5.96102C13.7424 5.80623 13.766 5.65133 13.8205 5.50618C13.8749 5.36102 13.959 5.22877 14.0672 5.11783C14.1755 5.00688 14.3057 4.91967 14.4495 4.86172C14.5933 4.80377 14.7476 4.77635 14.9025 4.78121C14.9571 4.77868 15.0107 4.7654 15.0602 4.74215C15.1097 4.71889 15.1541 4.6861 15.1909 4.64567C15.2277 4.60523 15.2562 4.55794 15.2747 4.50649C15.2932 4.45504 15.3014 4.40044 15.2988 4.34582C15.2975 4.29082 15.285 4.23665 15.2622 4.1866C15.2393 4.13654 15.2065 4.09164 15.1659 4.0546C15.1252 4.01756 15.0774 3.98915 15.0254 3.97109C14.9734 3.95302 14.9183 3.94568 14.8635 3.9495C14.4663 3.95845 14.0801 4.08156 13.751 4.30412V2.42607C13.751 2.31556 13.7071 2.20958 13.6289 2.13144C13.5508 2.0533 13.4448 2.0094 13.3343 2.0094C13.2238 2.0094 13.1178 2.0533 13.0397 2.13144C12.9615 2.20958 12.9176 2.31556 12.9176 2.42607V4.33748C12.5941 4.10896 12.2135 3.97491 11.8182 3.95032C11.7086 3.94354 11.6007 3.97939 11.517 4.05037C11.4332 4.12135 11.3802 4.22196 11.369 4.33115C11.3644 4.38566 11.3707 4.44053 11.3874 4.49262C11.4041 4.54471 11.4309 4.59299 11.4662 4.63472C11.5016 4.67644 11.5449 4.71078 11.5935 4.73577C11.6422 4.76076 11.6953 4.77592 11.7498 4.78037C11.908 4.7815 12.0643 4.81453 12.2095 4.87748C12.3546 4.94042 12.4856 5.03199 12.5945 5.1467C12.7035 5.26142 12.7882 5.39693 12.8436 5.54513C12.8989 5.69332 12.9239 5.85117 12.9168 6.00922L12.9175 6.01313C12.9177 6.01897 12.9166 6.02631 12.9168 6.03201L12.9177 6.03542V6.65072C12.579 6.75798 12.2263 6.81468 11.8711 6.81897H10.901C10.124 6.81925 9.36042 7.02233 8.68588 7.40813L7.08432 8.32445V8.15747C7.0757 8.00268 7.09937 7.84778 7.15381 7.70263C7.20826 7.55747 7.29229 7.42522 7.40057 7.31428C7.50886 7.20333 7.63903 7.11612 7.78282 7.05817C7.92662 7.00022 8.08089 6.9728 8.23584 6.97766C8.29046 6.97513 8.34405 6.96185 8.39354 6.93859C8.44303 6.91534 8.48745 6.88255 8.52425 6.84212C8.56106 6.80168 8.58954 6.75439 8.60806 6.70294C8.62657 6.65149 8.63477 6.59689 8.63217 6.54227C8.63124 6.48714 8.61904 6.43277 8.59633 6.38252C8.57361 6.33227 8.54086 6.2872 8.50008 6.25008C8.45929 6.21296 8.41135 6.18457 8.35919 6.16666C8.30704 6.14875 8.25177 6.14171 8.19679 6.14595C7.7996 6.1549 7.41338 6.27801 7.08429 6.50057V4.62658C7.08429 4.51608 7.04039 4.41009 6.96225 4.33195C6.88411 4.25381 6.77813 4.20992 6.66762 4.20992C6.55711 4.20992 6.45113 4.25381 6.37299 4.33195C6.29485 4.41009 6.25095 4.51608 6.25095 4.62658V6.53393C5.92746 6.30542 5.5468 6.17137 5.1515 6.14677C5.04205 6.14042 4.93435 6.17643 4.85072 6.24733C4.76709 6.31823 4.71394 6.41858 4.70228 6.5276C4.69775 6.58211 4.70401 6.63698 4.7207 6.68907C4.73739 6.74116 4.76419 6.78944 4.79956 6.83117C4.83493 6.87289 4.87818 6.90723 4.92684 6.93222C4.9755 6.95721 5.0286 6.97237 5.08312 6.97682C5.24132 6.97795 5.39767 7.01098 5.54282 7.07393C5.68796 7.13687 5.81893 7.22844 5.92787 7.34316C6.03682 7.45788 6.12151 7.59339 6.17689 7.74159C6.23227 7.88979 6.25719 8.04763 6.25017 8.20568L6.25088 8.2096C6.25103 8.21543 6.24996 8.22277 6.25017 8.22847L6.251 8.23188V8.72515C5.86399 8.86421 5.45617 8.9365 5.04494 8.93892H2.22184C2.16712 8.93889 2.11292 8.94965 2.06235 8.97058C2.01179 8.99151 1.96584 9.0222 1.92715 9.06089C1.88845 9.09959 1.85776 9.14554 1.83683 9.1961C1.8159 9.24667 1.80515 9.30086 1.80518 9.35559V17.5742C1.80515 17.6289 1.8159 17.6831 1.83683 17.7337C1.85776 17.7843 1.88845 17.8302 1.92715 17.8689C1.96584 17.9076 2.01179 17.9383 2.06235 17.9592C2.11292 17.9802 2.16712 17.9909 2.22184 17.9909H17.7777C17.8324 17.9909 17.8866 17.9802 17.9372 17.9592C17.9877 17.9383 18.0337 17.9076 18.0724 17.8689C18.1111 17.8302 18.1418 17.7843 18.1627 17.7337C18.1836 17.6831 18.1944 17.6289 18.1943 17.5742V3.41157C18.1944 3.33158 18.1714 3.25325 18.1281 3.18599C18.0848 3.11873 18.0231 3.06538 17.9502 3.03235ZM5.04494 9.77226C5.65959 9.77041 6.26723 9.64154 6.82971 9.39373L6.83028 9.39343C6.97727 9.33117 7.12076 9.26094 7.26011 9.18307L9.09928 8.13082C9.64805 7.81739 10.2691 7.65246 10.901 7.6523H11.8711C12.4218 7.65097 12.9675 7.54744 13.4804 7.34697C13.4938 7.34142 13.5069 7.33514 13.5197 7.32815C13.9865 7.14459 14.4191 6.88358 14.7992 6.55611L17.361 4.32629V5.49832L14.2523 8.20406C13.5918 8.77805 12.7462 9.09421 11.8711 9.09436H10.901C10.1239 9.09514 9.36043 9.29849 8.68588 9.68436L6.84671 10.7366C6.29798 11.0501 5.67694 11.2151 5.04495 11.2151H2.63851V9.77226H5.04494ZM2.63851 17.1575V12.0485H5.04494C5.82206 12.0485 6.58569 11.8454 7.26011 11.4593L9.09928 10.4071C9.64811 10.0937 10.269 9.92848 10.901 9.92772H11.8711C12.9473 9.92763 13.9872 9.53861 14.7992 8.83234L17.361 6.60255V17.1575H2.63851Z" fill="#171723"/>
<path d="M5.0047 12.9075C4.90349 12.9284 4.81261 12.9837 4.74736 13.0638C4.68211 13.144 4.64648 13.2442 4.64648 13.3475C4.64648 13.4509 4.68211 13.5511 4.74736 13.6312C4.81261 13.7114 4.90349 13.7666 5.0047 13.7875C5.1059 13.7666 5.19678 13.7114 5.26203 13.6312C5.32728 13.5511 5.36291 13.4509 5.36291 13.3475C5.36291 13.2442 5.32728 13.144 5.26203 13.0638C5.19678 12.9837 5.1059 12.9284 5.0047 12.9075Z" fill="#171723"/>
<path d="M8.3011 13.3477C8.49894 13.3477 8.65932 13.1506 8.65932 12.9076C8.65932 12.6646 8.49894 12.4675 8.3011 12.4675C8.10325 12.4675 7.94287 12.6646 7.94287 12.9076C7.94287 13.1506 8.10325 13.3477 8.3011 13.3477Z" fill="#171723"/>
<path d="M12.2925 11.2109C12.2016 11.1921 12.1072 11.2018 12.0221 11.2388C11.937 11.2759 11.8654 11.3383 11.8173 11.4176C11.7691 11.4969 11.7466 11.5892 11.753 11.6818C11.7594 11.7743 11.7942 11.8627 11.8528 11.9346C11.9114 12.0066 11.9908 12.0586 12.0802 12.0837C12.1695 12.1087 12.2644 12.1054 12.3519 12.0743C12.4393 12.0433 12.515 11.9859 12.5685 11.9101C12.622 11.8342 12.6507 11.7437 12.6507 11.6509C12.6604 11.5453 12.6284 11.4401 12.5614 11.3578C12.4944 11.2755 12.3979 11.2228 12.2925 11.2109Z" fill="#171723"/>
<path d="M14.3608 12.3285C14.27 12.3097 14.1755 12.3195 14.0904 12.3565C14.0053 12.3936 13.9338 12.456 13.8856 12.5353C13.8374 12.6146 13.815 12.7069 13.8214 12.7995C13.8277 12.8921 13.8626 12.9804 13.9212 13.0523C13.9798 13.1243 14.0592 13.1764 14.1486 13.2014C14.2379 13.2264 14.3328 13.2231 14.4203 13.192C14.5077 13.161 14.5834 13.1036 14.6369 13.0277C14.6904 12.9519 14.7191 12.8614 14.7191 12.7686C14.7288 12.663 14.6967 12.5578 14.6298 12.4755C14.5628 12.3932 14.4662 12.3405 14.3608 12.3285Z" fill="#171723"/>
<path d="M15.9164 9.61309C15.8256 9.59428 15.7311 9.60406 15.646 9.64108C15.561 9.6781 15.4894 9.74055 15.4413 9.81986C15.3931 9.89916 15.3707 9.99143 15.377 10.084C15.3834 10.1766 15.4183 10.2649 15.4769 10.3368C15.5354 10.4088 15.6149 10.4609 15.7042 10.4859C15.7936 10.5109 15.8885 10.5076 15.9759 10.4765C16.0633 10.4454 16.139 10.3881 16.1925 10.3122C16.246 10.2364 16.2747 10.1459 16.2747 10.0531C16.2844 9.94751 16.2523 9.84228 16.1854 9.76001C16.1184 9.67775 16.0218 9.625 15.9164 9.61309Z" fill="#171723"/>
<path d="M15.7529 15.2465C15.6621 15.2277 15.5676 15.2375 15.4825 15.2745C15.3974 15.3115 15.3259 15.374 15.2777 15.4533C15.2295 15.5326 15.2071 15.6249 15.2135 15.7174C15.2198 15.81 15.2547 15.8984 15.3133 15.9703C15.3719 16.0423 15.4513 16.0943 15.5407 16.1193C15.63 16.1444 15.7249 16.1411 15.8124 16.11C15.8998 16.0789 15.9755 16.0215 16.029 15.9457C16.0825 15.8699 16.1112 15.7794 16.1112 15.6866C16.1209 15.5809 16.0888 15.4757 16.0218 15.3935C15.9549 15.3112 15.8583 15.2584 15.7529 15.2465Z" fill="#171723"/>
<path d="M10.7675 14.3665C10.6766 14.3477 10.5822 14.3575 10.4971 14.3945C10.412 14.4315 10.3405 14.494 10.2923 14.5733C10.2442 14.6526 10.2217 14.7449 10.2281 14.8374C10.2345 14.93 10.2694 15.0183 10.3279 15.0903C10.3865 15.1622 10.4659 15.2143 10.5553 15.2393C10.6446 15.2643 10.7395 15.261 10.827 15.2299C10.9144 15.1989 10.99 15.1415 11.0435 15.0657C11.0971 14.9899 11.1258 14.8994 11.1258 14.8066C11.1355 14.7009 11.1034 14.5957 11.0364 14.5134C10.9695 14.4312 10.8729 14.3784 10.7675 14.3665Z" fill="#171723"/>
<path d="M3.93 15.8256C4.12784 15.8256 4.28823 15.6285 4.28823 15.3855C4.28823 15.1425 4.12784 14.9454 3.93 14.9454C3.73216 14.9454 3.57178 15.1425 3.57178 15.3855C3.57178 15.6285 3.73216 15.8256 3.93 15.8256Z" fill="#171723"/>
<path d="M6.96028 16.2656C7.15812 16.2656 7.3185 16.0686 7.3185 15.8256C7.3185 15.5825 7.15812 15.3855 6.96028 15.3855C6.76243 15.3855 6.60205 15.5825 6.60205 15.8256C6.60205 16.0686 6.76243 16.2656 6.96028 16.2656Z" fill="#171723"/>
</g>
<defs>
<clipPath id="clip0_10314_145597">
<rect width="20" height="20" fill="white"/>
</clipPath>
</defs>
</svg>
