<svg width="20" height="20" viewBox="0 0 20 20" fill="none" xmlns="http://www.w3.org/2000/svg">
<path d="M18.1839 3.9586C18.1963 3.88706 18.1894 3.81352 18.1641 3.74549L18.1639 3.74309L18.1576 3.73542C18.1385 3.68906 18.1111 3.64657 18.0768 3.61004L16.4402 1.93117C16.3629 1.85252 16.2576 1.80769 16.1474 1.80648C16.0371 1.80528 15.9309 1.8478 15.8519 1.92474C15.7729 2.00168 15.7276 2.10677 15.7259 2.21703C15.7242 2.32728 15.7663 2.43371 15.8429 2.51304L16.7897 3.48431H15.4344C14.2628 3.48605 13.1187 3.83912 12.1499 4.4979C11.1811 5.15669 10.4321 6.09089 9.9998 7.17979C9.56749 6.09089 8.81853 5.15669 7.84972 4.4979C6.88091 3.83912 5.73679 3.48605 4.56522 3.48431H3.2104L4.1567 2.51304C4.2333 2.43371 4.27535 2.32728 4.27366 2.21703C4.27198 2.10677 4.22669 2.00168 4.1477 1.92474C4.06871 1.8478 3.96247 1.80528 3.85221 1.80648C3.74195 1.80769 3.63665 1.85252 3.55937 1.93117L1.92363 3.61003C1.88939 3.64647 1.86209 3.68886 1.84306 3.73509L1.83655 3.74308L1.8363 3.74558C1.81103 3.81356 1.8042 3.88702 1.81651 3.95849C1.81886 3.97546 1.82236 3.99225 1.82699 4.00874C1.84363 4.07703 1.87777 4.13979 1.92605 4.19086L1.93022 4.19844L3.56355 5.80204C3.6428 5.87768 3.74863 5.91909 3.85817 5.91732C3.96771 5.91554 4.07215 5.87073 4.14891 5.79256C4.22567 5.71439 4.26857 5.60915 4.26835 5.4996C4.26813 5.39005 4.22479 5.28498 4.14772 5.20713L3.24118 4.31764H4.56522C5.89559 4.31913 7.17105 4.84828 8.11177 5.789C9.05248 6.72971 9.58163 8.00517 9.58312 9.33554V17.7775C9.58312 17.888 9.62702 17.994 9.70516 18.0722C9.7833 18.1503 9.88928 18.1942 9.99979 18.1942C10.1103 18.1942 10.2163 18.1503 10.2944 18.0722C10.3726 17.994 10.4165 17.888 10.4165 17.7775V9.33554C10.4179 8.00517 10.9471 6.7297 11.8878 5.78899C12.8285 4.84827 14.104 4.31912 15.4344 4.31764H16.7593L15.8527 5.20713C15.7738 5.28461 15.7289 5.39026 15.7279 5.50083C15.7269 5.6114 15.7699 5.71784 15.8474 5.79673C15.9249 5.87561 16.0305 5.92049 16.1411 5.92148C16.2517 5.92248 16.3581 5.8795 16.437 5.80202L18.0703 4.19842L18.0744 4.19086C18.1227 4.13979 18.1569 4.07699 18.1735 4.00867C18.1781 3.99223 18.1816 3.97551 18.1839 3.9586Z" fill="#171723"/>
</svg>
