<svg width="20" height="20" viewBox="0 0 20 20" fill="none" xmlns="http://www.w3.org/2000/svg">
<g clip-path="url(#clip0_5313_35165)">
<path d="M12.7773 1.80606C11.3413 1.80772 9.96447 2.37893 8.94901 3.39439C7.93354 4.40986 7.36233 5.78664 7.36067 7.22272C7.36067 7.27262 7.36677 7.32099 7.36817 7.37058C7.31954 7.36941 7.27097 7.36026 7.22233 7.36026C6.15102 7.36026 5.10376 7.67794 4.21299 8.27313C3.32223 8.86832 2.62796 9.71429 2.21799 10.7041C1.80801 11.6938 1.70074 12.7829 1.90975 13.8337C2.11875 14.8844 2.63464 15.8496 3.39217 16.6071C4.14971 17.3646 5.11486 17.8805 6.16559 18.0895C7.21632 18.2985 8.30544 18.1912 9.2952 17.7813C10.285 17.3713 11.1309 16.677 11.7261 15.7863C12.3213 14.8955 12.639 13.8482 12.639 12.7769C12.639 12.7287 12.6299 12.6802 12.6288 12.6319C12.6786 12.6332 12.7272 12.6394 12.7774 12.6394C14.2139 12.6394 15.5917 12.0687 16.6075 11.0529C17.6233 10.037 18.194 8.65929 18.194 7.2227C18.194 5.78611 17.6233 4.40836 16.6075 3.39254C15.5917 2.37671 14.2139 1.80603 12.7774 1.80603L12.7773 1.80606ZM11.8057 12.7769C11.8057 13.6834 11.5369 14.5695 11.0332 15.3233C10.5296 16.077 9.81379 16.6644 8.9763 17.0113C8.1388 17.3582 7.21725 17.449 6.32817 17.2722C5.43909 17.0953 4.62242 16.6588 3.98143 16.0178C3.34044 15.3768 2.90392 14.5601 2.72707 13.6711C2.55022 12.782 2.64098 11.8604 2.98789 11.0229C3.33479 10.1854 3.92224 9.46961 4.67597 8.96599C5.4297 8.46236 6.31583 8.19356 7.22233 8.19356C7.30015 8.19356 7.37762 8.20522 7.45508 8.20917C7.62882 9.14609 8.04762 10.0203 8.66887 10.7428L7.22112 12.1905L5.70783 10.6773C5.62944 10.6005 5.52389 10.5577 5.41412 10.5583C5.30436 10.5588 5.19924 10.6027 5.12163 10.6803C5.04401 10.7579 5.00016 10.863 4.99961 10.9728C4.99905 11.0825 5.04184 11.1881 5.11867 11.2665L6.6319 12.7798L5.11864 14.293C5.07931 14.3316 5.04801 14.3775 5.02656 14.4283C5.0051 14.479 4.99391 14.5334 4.99363 14.5885C4.99335 14.6436 5.00399 14.6981 5.02494 14.7491C5.04588 14.8 5.07671 14.8463 5.11565 14.8852C5.15459 14.9241 5.20086 14.955 5.25179 14.9759C5.30271 14.9969 5.35729 15.0075 5.41235 15.0072C5.46742 15.0069 5.52188 14.9957 5.5726 14.9743C5.62331 14.9528 5.66927 14.9215 5.70781 14.8822L7.22108 13.3689L8.73433 14.8822C8.81273 14.959 8.91828 15.0018 9.02805 15.0013C9.13781 15.0007 9.24292 14.9569 9.32054 14.8792C9.39816 14.8016 9.44201 14.6965 9.44256 14.5868C9.44312 14.477 9.40033 14.3714 9.3235 14.293L7.81029 12.7798L9.25809 11.332C9.98023 11.9526 10.8538 12.3711 11.79 12.5449C11.7939 12.6222 11.8056 12.6998 11.8056 12.7769L11.8057 12.7769ZM12.7773 11.8061C12.6167 11.8059 12.4561 11.7973 12.2963 11.7804C12.2725 11.7744 12.2481 11.7706 12.2235 11.7692C11.2055 11.6437 10.2589 11.1808 9.53472 10.4544C8.81058 9.72792 8.35071 8.77979 8.22853 7.76136C8.22697 7.74212 8.22405 7.72302 8.21978 7.70419C8.12245 6.78231 8.30695 5.85258 8.74894 5.03774C9.19093 4.22289 9.86963 3.56122 10.6955 3.14009C11.5213 2.71895 12.4554 2.55814 13.3745 2.67888C14.2936 2.79962 15.1545 3.19624 15.8435 3.81638C16.5326 4.43651 17.0173 5.25102 17.2339 6.15238C17.4504 7.05374 17.3885 7.99957 17.0564 8.86503C16.7243 9.73049 16.1375 10.4749 15.3735 11C14.6096 11.525 13.7043 11.8061 12.7773 11.8061Z" fill="#171723"/>
<path d="M14.6742 5.81811L12.5941 8.05118L11.3328 6.92976C11.2919 6.8929 11.2442 6.86449 11.1923 6.84617C11.1404 6.82785 11.0854 6.81998 11.0305 6.82302C10.9755 6.82606 10.9218 6.83994 10.8722 6.86388C10.8227 6.88781 10.7784 6.92131 10.7418 6.96246C10.7053 7.0036 10.6773 7.05157 10.6594 7.1036C10.6415 7.15563 10.6341 7.21069 10.6376 7.2656C10.641 7.32051 10.6554 7.37418 10.6797 7.42353C10.704 7.47287 10.7379 7.51691 10.7794 7.5531L12.3451 8.9447C12.4266 9.01687 12.533 9.05438 12.6417 9.04921C12.7504 9.04404 12.8528 8.99661 12.927 8.91703L15.2846 6.38611C15.322 6.34606 15.3513 6.29902 15.3705 6.24767C15.3898 6.19631 15.3987 6.14167 15.3968 6.08685C15.395 6.03204 15.3823 5.97813 15.3595 5.92823C15.3368 5.87833 15.3044 5.83341 15.2642 5.79604C15.2241 5.75868 15.1769 5.7296 15.1255 5.71048C15.0741 5.69136 15.0195 5.68257 14.9646 5.68462C14.9098 5.68666 14.856 5.6995 14.8061 5.72241C14.7563 5.74531 14.7115 5.77782 14.6742 5.81807V5.81811Z" fill="#171723"/>
</g>
<defs>
<clipPath id="clip0_5313_35165">
<rect width="20" height="20" fill="white"/>
</clipPath>
</defs>
</svg>
