<svg width="20" height="20" viewBox="0 0 20 20" fill="none" xmlns="http://www.w3.org/2000/svg">
<g clip-path="url(#clip0_10310_144613)">
<path d="M11.8894 12.6954C11.8996 12.7743 11.9055 12.8537 11.907 12.9332C11.907 13.8914 11.6229 14.8281 11.0905 15.6248C10.5582 16.4215 9.80158 17.0424 8.91635 17.4091C8.03111 17.7758 7.05702 17.8717 6.11725 17.6848C5.17749 17.4978 4.31426 17.0364 3.63673 16.3589C2.9592 15.6814 2.49779 14.8181 2.31086 13.8784C2.12393 12.9386 2.21987 11.9645 2.58655 11.0793C2.95323 10.194 3.57417 9.43742 4.37087 8.90509C5.16756 8.37275 6.10422 8.08862 7.06239 8.08862C7.14174 8.08862 7.22981 8.10626 7.30906 8.10626C7.48862 9.09839 7.93293 10.0236 8.59501 10.784L7.06239 12.3166L5.45932 10.7135C5.37686 10.633 5.26621 10.588 5.15098 10.588C5.03576 10.588 4.92511 10.633 4.84265 10.7135C4.80085 10.7542 4.76762 10.8028 4.74493 10.8565C4.72224 10.9102 4.71054 10.9679 4.71054 11.0262C4.71054 11.0845 4.72224 11.1422 4.74493 11.1959C4.76762 11.2497 4.80085 11.2983 4.84265 11.3389L6.43703 12.9421L4.84267 14.5364C4.80087 14.577 4.76764 14.6256 4.74495 14.6793C4.72226 14.7331 4.71057 14.7908 4.71057 14.8491C4.71057 14.9074 4.72226 14.9651 4.74495 15.0188C4.76764 15.0725 4.80087 15.1211 4.84267 15.1618C4.88244 15.2035 4.93028 15.2368 4.98328 15.2595C5.03628 15.2822 5.09334 15.2939 5.151 15.2939C5.20866 15.2939 5.26572 15.2822 5.31872 15.2595C5.37172 15.2368 5.41956 15.2035 5.45933 15.1618L7.06241 13.5586L8.65678 15.1618C8.69831 15.2036 8.74771 15.2368 8.80213 15.2595C8.85655 15.2822 8.91491 15.2939 8.97387 15.2939C9.0315 15.2938 9.08853 15.282 9.14151 15.2593C9.19448 15.2366 9.24232 15.2035 9.28214 15.1618C9.32394 15.1211 9.35717 15.0725 9.37986 15.0188C9.40255 14.9651 9.41424 14.9074 9.41424 14.8491C9.41424 14.7908 9.40255 14.7331 9.37986 14.6793C9.35717 14.6256 9.32394 14.577 9.28214 14.5364L7.68775 12.9421L9.21168 11.4094C9.97646 12.0648 10.8997 12.5082 11.8894 12.6954Z" fill="#171723"/>
<path d="M12.9374 2.22218C11.6528 2.22295 10.421 2.73361 9.51258 3.64198C8.6042 4.55035 8.09354 5.78216 8.09277 7.06679C8.09279 7.23741 8.10163 7.40792 8.11923 7.57763C8.11923 7.59526 8.12794 7.62166 8.12794 7.63929C8.25884 8.71457 8.74502 9.71535 9.50937 10.4829C10.2737 11.2504 11.2725 11.7408 12.3472 11.8761C12.3739 11.8747 12.4008 11.8777 12.4265 11.8849C13.0806 11.9543 13.742 11.8897 14.3703 11.6951C14.9986 11.5005 15.5807 11.18 16.0812 10.7532C16.5816 10.3263 16.9899 9.80205 17.2811 9.21229C17.5724 8.62254 17.7405 7.97965 17.7752 7.32282C17.8099 6.66598 17.7105 6.00895 17.4831 5.39178C17.2557 4.7746 16.9049 4.21019 16.4523 3.73296C15.9997 3.25573 15.4546 2.87566 14.8503 2.61592C14.246 2.35618 13.5951 2.22221 12.9374 2.22217L12.9374 2.22218ZM15.5799 6.17718L13.096 8.85491C13.0171 8.93842 12.9093 8.9886 12.7946 8.99515C12.68 9.0017 12.5671 8.96412 12.4793 8.89013L10.8234 7.41914C10.7358 7.34205 10.6824 7.23331 10.6749 7.11685C10.6675 7.00038 10.7066 6.88574 10.7837 6.79813C10.8608 6.71053 10.9696 6.65714 11.086 6.64971C11.2025 6.64228 11.3171 6.68141 11.4047 6.75851L12.7436 7.93886L14.9369 5.57822C15.0177 5.49336 15.1288 5.44389 15.246 5.44059C15.3631 5.43728 15.4768 5.48042 15.5623 5.56058C15.6042 5.59972 15.638 5.64679 15.6616 5.69908C15.6853 5.75137 15.6983 5.80782 15.6999 5.86518C15.7016 5.92253 15.6918 5.97964 15.6712 6.0332C15.6506 6.08675 15.6196 6.13568 15.5799 6.17714L15.5799 6.17718Z" fill="#171723"/>
</g>
<defs>
<clipPath id="clip0_10310_144613">
<rect width="20" height="20" fill="white"/>
</clipPath>
</defs>
</svg>
