<svg width="20" height="20" viewBox="0 0 20 20" fill="none" xmlns="http://www.w3.org/2000/svg">
<path d="M15.5561 4.02942H4.4445C4.38977 4.02939 4.33558 4.04014 4.28501 4.06107C4.23444 4.082 4.1885 4.11269 4.1498 4.15139C4.1111 4.19008 4.08041 4.23603 4.05948 4.2866C4.03856 4.33716 4.0278 4.39136 4.02783 4.44609V6.66775C4.02783 6.77826 4.07173 6.88424 4.14987 6.96238C4.22801 7.04052 4.33399 7.08442 4.4445 7.08442C4.55501 7.08442 4.66099 7.04052 4.73913 6.96238C4.81727 6.88424 4.86117 6.77826 4.86117 6.66775V4.86275H9.58367V15.1378H7.78188C7.67138 15.1378 7.56539 15.1817 7.48725 15.2599C7.40911 15.338 7.36522 15.444 7.36522 15.5545C7.36522 15.665 7.40911 15.771 7.48725 15.8491C7.56539 15.9273 7.67138 15.9712 7.78188 15.9712H12.2228C12.3333 15.9712 12.4393 15.9273 12.5174 15.8491C12.5956 15.771 12.6395 15.665 12.6395 15.5545C12.6395 15.444 12.5956 15.338 12.5174 15.2599C12.4393 15.1817 12.3333 15.1378 12.2228 15.1378H10.417V4.86275H15.1395V6.66775C15.1395 6.77826 15.1834 6.88424 15.2615 6.96238C15.3396 7.04052 15.4456 7.08442 15.5561 7.08442C15.6666 7.08442 15.7726 7.04052 15.8508 6.96238C15.9289 6.88424 15.9728 6.77826 15.9728 6.66775V4.44609C15.9728 4.39136 15.9621 4.33717 15.9411 4.2866C15.9202 4.23603 15.8895 4.19009 15.8508 4.15139C15.8121 4.1127 15.7662 4.08201 15.7156 4.06108C15.6651 4.04015 15.6109 4.02939 15.5561 4.02942Z" fill="#171723"/>
</svg>
