<svg width="20" height="20" viewBox="0 0 20 20" fill="none" xmlns="http://www.w3.org/2000/svg">
<g clip-path="url(#clip0_5313_35220)">
<path d="M17.361 13.4725H14.3052V10.4166C14.305 10.1957 14.2172 9.98378 14.0609 9.82753C13.9047 9.67128 13.6928 9.58344 13.4718 9.58329H10.4168V6.52745C10.4167 6.30649 10.3288 6.09461 10.1726 5.93836C10.0164 5.78212 9.80448 5.69427 9.58351 5.69412H6.52768V2.63912C6.52753 2.41815 6.43968 2.20628 6.28343 2.05003C6.12718 1.89378 5.91531 1.80594 5.69434 1.80579H2.63851C2.41754 1.80594 2.20567 1.89378 2.04942 2.05003C1.89317 2.20628 1.80533 2.41815 1.80518 2.63912V17.3608C1.80533 17.5818 1.89317 17.7936 2.04942 17.9499C2.20567 18.1061 2.41754 18.194 2.63851 18.1941H17.361C17.582 18.194 17.7939 18.1061 17.9501 17.9499C18.1063 17.7936 18.1942 17.5818 18.1943 17.3608V14.3058C18.1942 14.0848 18.1063 13.8729 17.9501 13.7167C17.7939 13.5605 17.582 13.4726 17.361 13.4725ZM9.58351 13.4725H6.52768V10.4166H9.58351V13.4725ZM5.69434 9.58329H2.63851V6.52745H5.69434V9.58329ZM2.63851 10.4166H5.69434V13.4725H2.63851V10.4166ZM9.58351 9.58329H6.52768V6.52745H9.58351V9.58329ZM2.63851 2.63912H5.69434V5.69412H2.63851V2.63912ZM2.63851 17.3616L2.22184 17.3608H2.63851V14.3058H5.69434V17.3608H2.63851V17.3616Z" fill="#171723"/>
</g>
<defs>
<clipPath id="clip0_5313_35220">
<rect width="20" height="20" fill="white"/>
</clipPath>
</defs>
</svg>
