<svg width="20" height="20" viewBox="0 0 20 20" fill="none" xmlns="http://www.w3.org/2000/svg">
<g clip-path="url(#clip0_10317_146824)">
<path d="M15.2696 14.1559L13.7389 14.3402C13.7058 14.3442 13.6744 14.3568 13.6477 14.3768C13.621 14.3968 13.6 14.4235 13.5869 14.4542C13.5738 14.4849 13.569 14.5185 13.573 14.5516C13.577 14.5847 13.5896 14.6162 13.6097 14.6428L13.8019 14.8992C13.4261 15.1052 13.002 15.2068 12.5736 15.1937C12.1452 15.1805 11.7282 15.053 11.3657 14.8244C11.0032 14.5957 10.7085 14.2743 10.5121 13.8933C10.3157 13.5124 10.2248 13.0859 10.2488 12.658C10.2523 12.6189 10.2582 12.58 10.2663 12.5416C10.2764 12.4829 10.2748 12.4227 10.2617 12.3646C10.2485 12.3064 10.224 12.2514 10.1897 12.2028C10.1553 12.1541 10.1116 12.1126 10.0612 12.0808C10.0108 12.049 9.95462 12.0274 9.89588 12.0173C9.83713 12.0072 9.77697 12.0088 9.71883 12.0219C9.66069 12.0351 9.60571 12.0595 9.55702 12.0939C9.50833 12.1283 9.4669 12.172 9.43508 12.2224C9.40326 12.2728 9.38169 12.3289 9.37158 12.3877C9.34894 12.5206 9.33768 12.6552 9.33791 12.79C9.33573 13.3761 9.48967 13.9521 9.78392 14.459C10.0782 14.9659 10.5021 15.3852 11.0121 15.674C11.5222 15.9627 12.0999 16.1104 12.6859 16.1018C13.2719 16.0933 13.8451 15.9288 14.3465 15.6253L14.572 15.926C14.592 15.9526 14.6187 15.9736 14.6494 15.9867C14.68 15.9998 14.7136 16.0046 14.7467 16.0006C14.7799 15.9967 14.8114 15.984 14.838 15.964C14.8647 15.944 14.8857 15.9173 14.8988 15.8866L15.5042 14.4688C15.5198 14.4323 15.5255 14.3924 15.5207 14.3531C15.516 14.3137 15.501 14.2763 15.4772 14.2446C15.4534 14.2129 15.4217 14.188 15.3853 14.1725C15.3488 14.1569 15.3089 14.1512 15.2696 14.1559Z" fill="#171723"/>
<path d="M12.6498 9.46991C12.0482 9.47235 11.4589 9.64037 10.9465 9.95555L10.7171 9.65734C10.6968 9.63091 10.6698 9.61029 10.639 9.59756C10.6082 9.58484 10.5745 9.58045 10.5415 9.58485C10.5084 9.58925 10.4771 9.60227 10.4507 9.62261C10.4242 9.64295 10.4036 9.66989 10.3909 9.70073L9.80272 11.1258C9.7876 11.1625 9.78239 11.2024 9.78762 11.2417C9.79284 11.281 9.80832 11.3182 9.83249 11.3496C9.85666 11.3811 9.88867 11.4056 9.92531 11.4207C9.96195 11.4358 10.0019 11.441 10.0412 11.4358L11.5694 11.2329C11.6025 11.2285 11.6338 11.2155 11.6603 11.1951C11.6867 11.1748 11.7074 11.1479 11.7201 11.117C11.7328 11.0862 11.7372 11.0526 11.7328 11.0195C11.7284 10.9864 11.7154 10.9551 11.6951 10.9287L11.5002 10.6754C11.8519 10.4801 12.2475 10.3775 12.6498 10.3773C13.2894 10.3781 13.9026 10.6326 14.3549 11.0849C14.8072 11.5372 15.0617 12.1503 15.0626 12.79C15.0625 12.8652 15.0571 12.9403 15.0465 13.0148C15.0274 13.1292 15.0501 13.2468 15.1104 13.3459C15.1707 13.445 15.2647 13.5191 15.3752 13.5546C15.4126 13.5656 15.4515 13.5709 15.4905 13.5706C15.5981 13.5704 15.702 13.532 15.7838 13.4622C15.8656 13.3924 15.92 13.2958 15.9371 13.1896C15.959 13.0575 15.97 12.9239 15.9699 12.79C15.9688 11.9098 15.6187 11.0659 14.9963 10.4435C14.3739 9.82105 13.53 9.47093 12.6498 9.46991Z" fill="#171723"/>
<path d="M13.6709 7.55955V4.12347C13.6709 4.11442 13.6663 4.10681 13.6658 4.09794C13.607 1.08294 1.97984 1.08917 1.97984 4.12022V7.44465L1.979 7.44867L1.97984 7.45386V10.778L1.979 10.782L1.97984 10.7872V14.1113L1.979 14.1153C1.979 15.6363 4.92171 16.4322 7.82861 16.4322C8.11156 16.4322 8.38729 16.4167 8.65742 16.3967C9.22453 17.0322 9.93486 17.5234 10.7296 17.8298C11.5243 18.1362 12.3806 18.2489 13.2275 18.1585C14.0745 18.0682 14.8877 17.7774 15.5999 17.3103C16.3121 16.8431 16.9028 16.2131 17.3231 15.4722C17.7434 14.7314 17.9812 13.9011 18.0168 13.0501C18.0524 12.1991 17.8848 11.3519 17.5278 10.5785C17.1709 9.80519 16.6349 9.12799 15.9642 8.603C15.2935 8.078 14.5073 7.72032 13.6709 7.55955ZM7.31958 12.2457C6.6368 12.2282 5.95631 12.1592 5.2839 12.0393C3.47655 11.6889 2.81742 11.0985 2.8132 10.7853V8.69597C3.52562 9.11425 4.31009 9.39533 5.12603 9.52468C6.01739 9.68936 6.92223 9.77 7.82866 9.76557C7.9779 9.76557 8.11624 9.76012 8.2585 9.75667C7.74019 10.4937 7.41716 11.35 7.31958 12.2457ZM9.02612 8.88356C8.66296 8.91468 8.2646 8.93223 7.82862 8.93223C6.97519 8.93581 6.12328 8.86007 5.28386 8.70599C3.47651 8.35555 2.81738 7.76516 2.81316 7.45197V5.36895C4.36394 6.14922 6.08967 6.51655 7.82378 6.43548C9.55911 6.51688 11.2861 6.149 12.8376 5.36742V7.44867C12.8376 7.45564 12.8309 7.4621 12.8304 7.46897C12.7715 7.46703 12.7138 7.46007 12.6545 7.46007C11.3089 7.46062 10.0131 7.96899 9.02612 8.88356ZM7.82378 2.6391C10.8829 2.6391 12.8352 3.51637 12.8352 4.12022C12.8352 4.72406 10.8829 5.60215 7.82378 5.60215C4.76551 5.60215 2.8132 4.72406 2.8132 4.12022C2.8132 3.51637 4.76551 2.6391 7.82378 2.6391ZM7.82866 15.5989C4.76902 15.5989 2.8165 14.7215 2.81305 14.117L2.8132 14.1162V12.0293C3.52587 12.4476 4.31063 12.7287 5.12684 12.858C5.84447 12.9858 6.5707 13.0594 7.29939 13.0782C7.33971 13.9657 7.60151 14.8289 8.06091 15.5892C7.98186 15.5904 7.90811 15.5989 7.82866 15.5989ZM12.6545 17.3608C11.4524 17.3595 10.2999 16.8815 9.44982 16.0315C8.59974 15.1816 8.12149 14.0292 8.11999 12.8271C8.11999 12.7834 8.12533 12.741 8.12655 12.6976L8.12894 12.6863L8.12751 12.6788C8.15705 11.7893 8.44784 10.9283 8.9636 10.203C9.47935 9.47776 10.1972 8.92041 11.0277 8.60052C11.8582 8.28062 12.7644 8.21234 13.6335 8.40418C14.5025 8.59603 15.2958 9.03951 15.9144 9.6793C16.533 10.3191 16.9495 11.1269 17.112 12.0019C17.2745 12.8768 17.1757 13.7803 16.8281 14.5995C16.4804 15.4188 15.8992 16.1175 15.157 16.6085C14.4148 17.0996 13.5444 17.3612 12.6545 17.3608V17.3608Z" fill="#171723"/>
</g>
<defs>
<clipPath id="clip0_10317_146824">
<rect width="20" height="20" fill="white"/>
</clipPath>
</defs>
</svg>
