<svg width="20" height="20" viewBox="0 0 20 20" fill="none" xmlns="http://www.w3.org/2000/svg">
<g clip-path="url(#clip0_5313_35108)">
<path d="M8.04136 9.38417H4.34995C3.97243 9.38378 3.61048 9.23367 3.34349 8.96676C3.0765 8.69985 2.92628 8.33794 2.92578 7.96042V4.26865C2.92619 3.89106 3.07637 3.52906 3.34337 3.26207C3.61036 2.99507 3.97236 2.84489 4.34995 2.84448H8.04136C8.41894 2.84489 8.78095 2.99507 9.04794 3.26206C9.31494 3.52906 9.46511 3.89106 9.46552 4.26865V7.96047C9.46501 8.33798 9.31479 8.69988 9.0478 8.96678C8.78082 9.23367 8.41887 9.38378 8.04136 9.38417ZM4.34995 3.67783C4.19331 3.67802 4.04314 3.74033 3.93238 3.8511C3.82162 3.96186 3.75931 4.11203 3.75911 4.26867V7.96047C3.7594 8.11704 3.82175 8.26711 3.9325 8.37779C4.04326 8.48846 4.19337 8.5507 4.34995 8.55087H8.04136C8.19793 8.5507 8.34805 8.48846 8.4588 8.37779C8.56955 8.26711 8.63191 8.11704 8.63219 7.96047V4.26865C8.632 4.11201 8.56969 3.96184 8.45893 3.85108C8.34817 3.74032 8.198 3.67801 8.04136 3.67782L4.34995 3.67783Z" fill="#171723"/>
<path d="M15.6506 9.38417H11.9583C11.5808 9.38378 11.2189 9.23367 10.9519 8.96676C10.6849 8.69985 10.5347 8.33794 10.5342 7.96042V4.26865C10.5346 3.89106 10.6848 3.52906 10.9518 3.26206C11.2188 2.99507 11.5808 2.84489 11.9583 2.84448H15.6506C16.0282 2.84489 16.3902 2.99507 16.6572 3.26206C16.9241 3.52906 17.0743 3.89106 17.0747 4.26865V7.96047C17.0742 8.33798 16.924 8.69988 16.657 8.96678C16.39 9.23367 16.0281 9.38378 15.6506 9.38417ZM11.9583 3.67783C11.8017 3.67802 11.6515 3.74033 11.5408 3.8511C11.43 3.96186 11.3677 4.11203 11.3675 4.26867V7.96047C11.3678 8.11704 11.4301 8.26711 11.5409 8.37779C11.6517 8.48846 11.8018 8.5507 11.9583 8.55087H15.6506C15.8071 8.5507 15.9573 8.48846 16.068 8.37779C16.1788 8.26711 16.2411 8.11704 16.2414 7.96047V4.26865C16.2412 4.11201 16.1789 3.96184 16.0681 3.85108C15.9574 3.74032 15.8072 3.67801 15.6506 3.67782L11.9583 3.67783Z" fill="#171723"/>
<path d="M8.04136 17.1556H4.34995C3.97236 17.1552 3.61036 17.005 3.34337 16.738C3.07637 16.471 2.92619 16.109 2.92578 15.7314V12.0396C2.92619 11.6621 3.07637 11.3001 3.34337 11.0331C3.61036 10.7661 3.97236 10.6159 4.34995 10.6155H8.04136C8.41894 10.6159 8.78095 10.7661 9.04794 11.0331C9.31494 11.3001 9.46511 11.6621 9.46552 12.0396V15.7315C9.46511 16.109 9.31493 16.471 9.04794 16.738C8.78094 17.005 8.41894 17.1552 8.04136 17.1556ZM4.34995 11.4488C4.19331 11.449 4.04314 11.5113 3.93238 11.6221C3.82162 11.7328 3.75931 11.883 3.75911 12.0397V15.7315C3.75938 15.8881 3.82171 16.0382 3.93245 16.149C4.0432 16.2597 4.19333 16.322 4.34995 16.3223H8.04136C8.19797 16.322 8.3481 16.2597 8.45885 16.149C8.56959 16.0382 8.63193 15.8881 8.63219 15.7315V12.0396C8.632 11.883 8.56969 11.7328 8.45893 11.6221C8.34817 11.5113 8.198 11.449 8.04136 11.4488L4.34995 11.4488Z" fill="#171723"/>
<path d="M15.6506 17.1556H11.9583C11.5808 17.1552 11.2188 17.005 10.9518 16.738C10.6848 16.471 10.5346 16.109 10.5342 15.7314V12.0396C10.5346 11.6621 10.6848 11.3001 10.9518 11.0331C11.2188 10.7661 11.5808 10.6159 11.9583 10.6155H15.6506C16.0282 10.6159 16.3902 10.7661 16.6572 11.0331C16.9241 11.3001 17.0743 11.6621 17.0747 12.0396V15.7315C17.0743 16.109 16.9241 16.471 16.6572 16.738C16.3902 17.005 16.0282 17.1552 15.6506 17.1556ZM11.9583 11.4488C11.8017 11.449 11.6515 11.5113 11.5408 11.6221C11.43 11.7328 11.3677 11.883 11.3675 12.0397V15.7315C11.3678 15.8881 11.4301 16.0382 11.5409 16.149C11.6516 16.2597 11.8017 16.322 11.9583 16.3223H15.6506C15.8072 16.322 15.9573 16.2597 16.0681 16.149C16.1788 16.0382 16.2411 15.8881 16.2414 15.7315V12.0396C16.2412 11.883 16.1789 11.7328 16.0681 11.6221C15.9574 11.5113 15.8072 11.449 15.6506 11.4488L11.9583 11.4488Z" fill="#171723"/>
</g>
<defs>
<clipPath id="clip0_5313_35108">
<rect width="20" height="20" fill="white"/>
</clipPath>
</defs>
</svg>
