<svg width="20" height="20" viewBox="0 0 20 20" fill="none" xmlns="http://www.w3.org/2000/svg">
<g clip-path="url(#clip0_10314_145784)">
<path d="M12.6629 12.7267L12.5172 10.5767C12.5099 10.4713 12.4629 10.3727 12.3858 10.3007C12.3086 10.2286 12.207 10.1885 12.1014 10.1885H7.89809C7.79235 10.1884 7.69055 10.2286 7.61333 10.3008C7.53611 10.3731 7.48925 10.472 7.48226 10.5775L7.33981 12.7357C7.33493 12.7723 7.23971 13.6496 8.50925 14.29C8.97007 14.5273 9.48088 14.6512 9.99922 14.6514C10.5176 14.6515 11.0284 14.5279 11.4894 14.2909C12.6808 13.6903 12.6751 12.8773 12.6629 12.7267ZM11.1118 13.5478C10.7668 13.7221 10.3857 13.8128 9.99923 13.8126C9.61275 13.8125 9.23171 13.7215 8.88686 13.547C8.18781 13.1946 8.16909 12.8154 8.16909 12.8154L8.2879 11.0218H11.7124L11.8312 12.7853C11.832 12.8016 11.8344 13.1832 11.1134 13.547L11.1118 13.5478Z" fill="#171723"/>
<path d="M8.02861 7.17167H11.9715C12.131 7.17005 12.2837 7.10696 12.3979 6.99554C12.512 6.88411 12.5788 6.73294 12.5843 6.57352C12.6022 5.93144 12.6022 5.48385 12.6022 5.4757C12.6022 4.4202 11.4352 3.56165 10.0004 3.56165C8.56572 3.56165 7.39795 4.41695 7.39795 5.46838C7.39795 5.48303 7.39795 5.93144 7.41667 6.5719C7.42121 6.73163 7.48752 6.88338 7.60164 6.99523C7.71577 7.10708 7.86882 7.17033 8.02861 7.17167ZM10.0004 4.395C10.9428 4.395 11.7688 4.90037 11.7688 5.47573C11.7688 5.48305 11.7688 5.82566 11.7566 6.33836H8.24429C8.23127 5.82485 8.23127 5.48143 8.23127 5.4684C8.23125 4.9606 8.95797 4.395 10.0004 4.395Z" fill="#171723"/>
<path d="M15.4092 11.1322C15.4077 11.1056 15.4035 11.0792 15.3967 11.0535L15.3918 11.0456C15.3782 11.0167 15.3612 10.9894 15.3412 10.9645C15.3302 10.9451 15.3178 10.9266 15.3039 10.9092C15.2615 10.8782 15.2182 10.8482 15.1742 10.8192C15.15 10.8111 15.1251 10.8051 15.0998 10.8014C15.0722 10.7928 15.0438 10.7871 15.0151 10.7843L15.006 10.7825C14.9579 10.7933 14.9093 10.802 14.8604 10.8086L13.7429 11.2264L13.7154 10.8086C13.6811 10.2752 13.6966 9.73985 13.7617 9.20939C13.9774 7.43042 13.9864 5.14445 13.9864 5.04679C13.9864 3.25969 12.1984 1.80542 10.0004 1.80542C7.80227 1.80542 6.01351 3.25969 6.01351 5.04762C6.01351 5.14446 6.02246 7.43043 6.23812 9.2094C6.30313 9.73986 6.31893 10.2752 6.28532 10.8086L6.25775 11.2268L5.13948 10.8085C5.11411 10.8018 5.08812 10.7977 5.06192 10.7962C5.03967 10.7896 5.01688 10.785 4.99382 10.7825L4.98573 10.7842C4.95362 10.7868 4.92194 10.7931 4.89132 10.8032C4.86928 10.8066 4.84755 10.8118 4.82632 10.8187C4.80361 10.8312 4.78208 10.8457 4.76203 10.8621C4.73859 10.8755 4.71652 10.8912 4.69612 10.909C4.68186 10.9268 4.66906 10.9457 4.65787 10.9656C4.63823 10.9903 4.62154 11.0171 4.60812 11.0456L4.60319 11.0535C4.59654 11.1024 4.58785 11.151 4.57715 11.1992V11.7859C4.5778 12.0573 4.66119 12.322 4.81619 12.5448C4.97119 12.7676 5.19042 12.9378 5.44465 13.0327L6.12215 13.2846L6.01677 14.8841C6.00782 14.9549 5.80927 16.6403 7.89343 17.6949C8.54687 18.0245 9.26851 18.1962 10.0004 18.1962C10.7322 18.1962 11.4539 18.0245 12.1073 17.6949C14.1898 16.6402 13.9921 14.9548 13.9856 14.9109L13.8786 13.287L14.5577 13.0335C14.8112 12.9378 15.0297 12.7674 15.1842 12.5447C15.3387 12.3221 15.4219 12.0577 15.4227 11.7867V11.1992C15.4202 11.1765 15.4156 11.1541 15.4092 11.1322ZM5.73437 12.2514C5.64216 12.2167 5.56235 12.1553 5.50509 12.0751C5.44784 11.9949 5.41572 11.8995 5.41282 11.801L6.20053 12.0955L6.17932 12.4168L5.73437 12.2514ZM11.7313 16.9511C11.1945 17.2222 10.6016 17.3634 10.0003 17.3634C9.39901 17.3634 8.80611 17.2222 8.26936 16.9511C6.73291 16.1739 6.83871 15.037 6.84603 14.9662L6.97466 13.019C6.97634 13.0047 6.97728 12.9903 6.97746 12.9759L7.11702 10.8631C7.15388 10.2778 7.13645 9.69048 7.06494 9.10849C6.85577 7.37916 6.84684 5.06878 6.84684 5.04683C6.84684 3.7187 8.26123 2.63879 10.0003 2.63879C11.7386 2.63879 13.153 3.7187 13.153 5.04602C13.153 5.0688 13.144 7.37919 12.9349 9.10852C12.8629 9.69075 12.8457 10.2785 12.8836 10.8639L13.1562 14.9891C13.1611 15.037 13.2669 16.1739 11.7313 16.9511ZM14.2663 12.2522L13.8214 12.4184L13.8001 12.0952L14.5872 11.8009C14.5844 11.8995 14.5525 11.995 14.4953 12.0753C14.4382 12.1557 14.3585 12.2173 14.2663 12.2522H14.2663Z" fill="#171723"/>
<path d="M8.08383 14.644C8.02266 14.5521 7.9275 14.4881 7.81924 14.4663C7.71098 14.4444 7.59847 14.4664 7.50641 14.5274C7.41435 14.5884 7.35026 14.6835 7.32821 14.7917C7.30617 14.8999 7.32797 15.0125 7.38883 15.1046L8.08789 16.1577C8.14897 16.2499 8.24416 16.314 8.35252 16.336C8.46088 16.3579 8.57353 16.336 8.6657 16.2749C8.75786 16.2138 8.82198 16.1186 8.84396 16.0103C8.86594 15.9019 8.84397 15.7892 8.78289 15.6971L8.08383 14.644Z" fill="#171723"/>
<path d="M11.9159 14.644L11.2169 15.697C11.1558 15.7892 11.1338 15.9019 11.1558 16.0102C11.1778 16.1186 11.2419 16.2138 11.334 16.2749C11.4262 16.3359 11.5389 16.3579 11.6472 16.3359C11.7556 16.3139 11.8508 16.2498 11.9119 16.1577L12.6109 15.1046C12.6411 15.059 12.6621 15.0078 12.6726 14.9541C12.6831 14.9003 12.6829 14.8451 12.672 14.7914C12.6611 14.7378 12.6397 14.6868 12.6092 14.6414C12.5786 14.596 12.5393 14.557 12.4937 14.5268C12.4481 14.4965 12.3969 14.4756 12.3432 14.4651C12.2895 14.4546 12.2342 14.4548 12.1805 14.4657C12.1269 14.4766 12.0759 14.4979 12.0305 14.5285C11.9851 14.5591 11.9461 14.5983 11.9159 14.644H11.9159Z" fill="#171723"/>
</g>
<defs>
<clipPath id="clip0_10314_145784">
<rect width="20" height="20" fill="white"/>
</clipPath>
</defs>
</svg>
