<svg width="20" height="20" viewBox="0 0 20 20" fill="none" xmlns="http://www.w3.org/2000/svg">
<path d="M8.43787 14.8799H11.6809C11.7426 15.0145 11.8323 15.1345 11.9439 15.2319C12.0555 15.3292 12.1866 15.4018 12.3283 15.4447C12.4701 15.4876 12.6194 15.4999 12.7663 15.4808C12.9132 15.4617 13.0543 15.4115 13.1804 15.3338C13.3064 15.256 13.4145 15.1523 13.4975 15.0296C13.5804 14.9069 13.6364 14.768 13.6616 14.622C13.6868 14.476 13.6808 14.3264 13.6438 14.183C13.6068 14.0395 13.5398 13.9056 13.4472 13.79L15.0389 11.0339C15.0808 11.0408 15.1232 11.0451 15.1656 11.0467C15.4437 11.0467 15.7104 10.9363 15.907 10.7396C16.1036 10.543 16.2141 10.2763 16.2141 9.99823C16.2141 9.72016 16.1036 9.45347 15.907 9.25684C15.7104 9.06021 15.4437 8.94975 15.1656 8.94975C15.1231 8.95139 15.0807 8.95565 15.0386 8.96252L13.4109 6.14256C13.4994 6.02354 13.5616 5.88708 13.5934 5.74221C13.6252 5.59734 13.6258 5.44738 13.5952 5.30224C13.5647 5.15711 13.5036 5.02013 13.4161 4.90038C13.3286 4.78063 13.2167 4.68083 13.0877 4.60761C12.9587 4.5344 12.8157 4.48942 12.668 4.47567C12.5203 4.46193 12.3714 4.47972 12.2311 4.52787C12.0908 4.57602 11.9624 4.65343 11.8543 4.75497C11.7462 4.85651 11.6609 4.97987 11.6041 5.11687H8.41976C8.36479 4.97882 8.28107 4.85406 8.17416 4.75088C8.06725 4.64769 7.9396 4.56844 7.7997 4.51839C7.6598 4.46835 7.51085 4.44865 7.36274 4.46061C7.21464 4.47258 7.07078 4.51592 6.94073 4.58778C6.81067 4.65963 6.6974 4.75834 6.60843 4.87735C6.51947 4.99636 6.45686 5.13294 6.42476 5.27801C6.39265 5.42309 6.39179 5.57333 6.42224 5.71876C6.45268 5.8642 6.51373 6.00148 6.60133 6.1215L4.96111 8.96249C4.91925 8.95563 4.877 8.95137 4.83462 8.94972C4.55654 8.94972 4.28985 9.06019 4.09323 9.25682C3.8966 9.45345 3.78613 9.72013 3.78613 9.99821C3.78613 10.2763 3.8966 10.543 4.09323 10.7396C4.28985 10.9362 4.55654 11.0467 4.83462 11.0467C4.8771 11.045 4.91945 11.0408 4.96142 11.0339L6.61028 13.8905C6.52452 14.0113 6.46538 14.149 6.43676 14.2943C6.40815 14.4397 6.41071 14.5894 6.44429 14.7337C6.47786 14.878 6.54169 15.0135 6.63153 15.1313C6.72138 15.2491 6.83521 15.3465 6.96549 15.417C7.09577 15.4876 7.23954 15.5296 7.38729 15.5405C7.53504 15.5513 7.68341 15.5307 7.82258 15.4799C7.96176 15.4291 8.08857 15.3494 8.19464 15.246C8.30071 15.1425 8.38361 15.0178 8.43787 14.8799V14.8799ZM12.8888 13.4255C12.6519 13.3593 12.3988 13.3836 12.1788 13.4938L10.0818 11.3237C10.1301 11.2331 10.1646 11.1358 10.1841 11.0351L14.2317 10.4659C14.2833 10.5708 14.352 10.6664 14.4351 10.7486L12.8888 13.4255ZM10.0937 10.3755L11.2258 9.2434C11.4228 9.34402 11.647 9.37873 11.8652 9.34242C12.0834 9.3061 12.2842 9.20067 12.438 9.04166L14.039 9.82087L10.0937 10.3755ZM12.5914 6.56612C12.6829 6.56358 12.7737 6.5489 12.8614 6.52249L14.4347 9.24812L14.4177 9.26449L12.7254 8.44102C12.7571 8.25518 12.7345 8.06414 12.6603 7.89082C12.5862 7.71749 12.4636 7.56924 12.3073 7.46385L12.5914 6.56612ZM11.5607 5.78266C11.6213 6.01674 11.7612 6.22257 11.9565 6.36508L11.6729 7.26118C11.4456 7.26538 11.226 7.34404 11.0477 7.48508L8.46799 5.78266H11.5607ZM8.09104 6.33126L10.6805 8.0405C10.6099 8.28505 10.6366 8.54744 10.755 8.77277L9.61977 9.90797C9.48004 9.83722 9.32609 9.79904 9.16948 9.79631L8.06714 6.35089C8.07543 6.34479 8.08291 6.33757 8.09104 6.33126ZM7.14713 6.50755C7.23985 6.53675 7.33621 6.5528 7.43339 6.55526L8.53558 10.0013C8.41778 10.0885 8.31963 10.1996 8.2475 10.3272L5.86942 9.86204C5.84014 9.62884 5.7329 9.41239 5.56511 9.24782L7.14713 6.50755ZM7.46477 13.4463C7.35867 13.4477 7.25342 13.4655 7.15268 13.4988L5.56511 10.7486C5.63466 10.6793 5.69413 10.6006 5.74177 10.5148L8.12027 10.9803C8.15067 11.2181 8.26222 11.4382 8.4361 11.6033L7.57764 13.4576C7.54025 13.4518 7.50258 13.448 7.46477 13.4463ZM9.04192 11.8804C9.2344 11.9124 9.43203 11.8796 9.6039 11.7873L11.7011 13.9576C11.6578 14.0385 11.6255 14.1247 11.6049 14.2141H8.47043C8.42014 14.0312 8.32095 13.8655 8.18352 13.7347L9.04192 11.8804Z" fill="#171723"/>
<path d="M17.508 6.72331C17.7397 6.48636 17.879 6.17435 17.9007 5.84367C17.9224 5.51299 17.8251 5.18546 17.6263 4.92027C17.4276 4.65507 17.1406 4.46971 16.8171 4.39769C16.4937 4.32567 16.1551 4.37173 15.8626 4.52755C15.5701 4.68337 15.3431 4.93867 15.2224 5.24732C15.1018 5.55596 15.0955 5.89758 15.2047 6.21045C15.314 6.52331 15.5316 6.78677 15.8181 6.95322C16.1047 7.11967 16.4413 7.17812 16.7672 7.11801C17.1589 8.02988 17.3601 9.01214 17.3587 10.0046C17.3577 11.0897 17.117 12.1613 16.6536 13.1425C16.1903 14.1238 15.5158 14.9905 14.6784 15.6807C13.841 16.3709 12.8614 16.8675 11.8097 17.135C10.758 17.4025 9.66023 17.4342 8.59485 17.2279C8.48648 17.2076 8.3745 17.2312 8.28343 17.2933C8.19236 17.3554 8.12962 17.4511 8.10895 17.5594C8.08828 17.6677 8.11137 17.7798 8.17316 17.8711C8.23494 17.9624 8.33039 18.0255 8.4386 18.0466C9.62448 18.2758 10.8463 18.2401 12.0168 17.9421C13.1873 17.644 14.2775 17.0911 15.2094 16.3227C16.1412 15.5543 16.8918 14.5895 17.4075 13.4973C17.9231 12.4051 18.191 11.2124 18.192 10.0046C18.1946 8.87517 17.9617 7.75762 17.508 6.72331ZM15.8784 5.80451C15.8782 5.6733 15.917 5.54498 15.9898 5.43581C16.0626 5.32663 16.1661 5.24149 16.2873 5.19117C16.4084 5.14085 16.5418 5.1276 16.6705 5.1531C16.7993 5.1786 16.9175 5.2417 17.0103 5.33443C17.1032 5.42715 17.1664 5.54533 17.1921 5.67401C17.2177 5.80269 17.2047 5.93609 17.1545 6.05733C17.1043 6.17857 17.0193 6.2822 16.9102 6.35512C16.8011 6.42803 16.6729 6.46695 16.5416 6.46695C16.366 6.46665 16.1976 6.39678 16.0733 6.27264C15.949 6.1485 15.8789 5.98018 15.8784 5.80451Z" fill="#171723"/>
<path d="M3.45818 12.8675C3.38248 12.8686 3.30702 12.8763 3.23261 12.8903C2.84136 11.9786 2.64036 10.9966 2.64193 10.0045C2.6429 8.05243 3.41819 6.18043 4.79769 4.79925C6.17719 3.41807 8.04824 2.64052 10.0003 2.63717C10.4749 2.63822 10.9484 2.68318 11.4147 2.77146C11.5232 2.79081 11.6349 2.76688 11.7259 2.70481C11.8168 2.64273 11.8799 2.54745 11.9014 2.43942C11.9117 2.38566 11.9112 2.3304 11.9 2.27681C11.8889 2.22322 11.8673 2.17236 11.8364 2.12715C11.8056 2.08193 11.7661 2.04325 11.7203 2.01333C11.6744 1.9834 11.6232 1.96282 11.5694 1.95276C11.0521 1.85473 10.5268 1.80488 10.0004 1.80383C7.82738 1.8076 5.74461 2.67309 4.20892 4.21046C2.67323 5.74783 1.81001 7.83154 1.80862 10.0045C1.80592 11.1337 2.03864 12.2511 2.49195 13.2853C2.28106 13.5085 2.15367 13.7977 2.13127 14.104C2.10887 14.4102 2.19285 14.7149 2.36902 14.9664C2.54519 15.2179 2.80276 15.401 3.09824 15.4846C3.39373 15.5682 3.70902 15.5473 3.99088 15.4255C4.27275 15.3036 4.50392 15.0882 4.64537 14.8156C4.78681 14.543 4.82986 14.23 4.76726 13.9293C4.70465 13.6287 4.54022 13.3589 4.30172 13.1654C4.06323 12.9719 3.76528 12.8667 3.45819 12.8675L3.45818 12.8675ZM3.45818 14.867C3.32712 14.8669 3.19902 14.828 3.09008 14.7551C2.98114 14.6823 2.89624 14.5787 2.84612 14.4576C2.796 14.3365 2.78291 14.2033 2.8085 14.0747C2.83409 13.9462 2.89721 13.8281 2.98988 13.7355C3.08256 13.6428 3.20063 13.5797 3.32917 13.5541C3.45771 13.5285 3.59096 13.5416 3.71206 13.5917C3.83316 13.6418 3.93669 13.7267 4.00955 13.8356C4.08241 13.9446 4.12135 14.0727 4.12143 14.2037C4.12131 14.3796 4.05139 14.5482 3.92704 14.6726C3.80268 14.797 3.63405 14.8669 3.45818 14.867V14.867Z" fill="#171723"/>
</svg>
