<svg width="20" height="20" viewBox="0 0 20 20" fill="none" xmlns="http://www.w3.org/2000/svg">
<g clip-path="url(#clip0_10317_147043)">
<path d="M8.29906 18.1944C8.18251 18.1957 8.06694 18.1729 7.9597 18.1272C7.77033 18.0445 7.61583 17.8982 7.52295 17.7137C7.43006 17.5291 7.40464 17.3178 7.45108 17.1165L8.86628 11.4252H5.10408C4.96158 11.4253 4.82124 11.3904 4.69548 11.3234C4.56972 11.2564 4.46241 11.1594 4.38304 11.041C4.30124 10.923 4.25052 10.7863 4.23559 10.6435C4.22065 10.5006 4.24198 10.3564 4.29759 10.224L7.33308 2.36388C7.39844 2.20086 7.51061 2.06085 7.65543 1.9615C7.80026 1.86215 7.97126 1.80791 8.14688 1.80561H12.8335C12.9796 1.8038 13.1236 1.83905 13.2523 1.90807C13.381 1.97709 13.4901 2.07762 13.5694 2.20025C13.6486 2.32289 13.6955 2.46363 13.7056 2.60931C13.7156 2.75498 13.6886 2.90084 13.627 3.03323L12.0881 6.54073H14.8965C15.0504 6.54164 15.2014 6.5826 15.3347 6.65958C15.468 6.73656 15.5789 6.84691 15.6566 6.97977C15.7349 7.11833 15.774 7.27563 15.7695 7.43473C15.7651 7.59383 15.7173 7.74871 15.6314 7.88268L15.6273 7.88838L9.02899 17.8C8.95011 17.9217 8.84192 18.0215 8.71438 18.0904C8.58684 18.1593 8.44402 18.1951 8.29906 18.1944ZM8.14688 2.63894L5.06827 10.5418L9.39932 10.5918C9.46257 10.5919 9.52499 10.6063 9.58184 10.6341C9.63869 10.6618 9.68848 10.7021 9.72745 10.7519C9.76642 10.8018 9.79354 10.8598 9.80677 10.9217C9.81999 10.9835 9.81897 11.0476 9.80378 11.109L8.26167 17.3114L14.9316 7.43061C14.9357 7.42539 14.938 7.419 14.9383 7.41235C14.9386 7.40571 14.9368 7.39914 14.9332 7.39358L11.4501 7.37405C11.3808 7.3741 11.3126 7.35686 11.2516 7.3239C11.1907 7.29093 11.1389 7.24329 11.101 7.18527C11.0631 7.12725 11.0403 7.0607 11.0346 6.99163C11.0289 6.92257 11.0405 6.85318 11.0684 6.78974L12.8686 2.68818L8.14688 2.63894Z" fill="#171723"/>
</g>
<defs>
<clipPath id="clip0_10317_147043">
<rect width="20" height="20" fill="white"/>
</clipPath>
</defs>
</svg>
