<svg width="20" height="20" viewBox="0 0 20 20" fill="none" xmlns="http://www.w3.org/2000/svg">
<path d="M6.875 13.7749L6.875 6.22522C6.875 6.05946 6.94085 5.90049 7.05806 5.78328C7.17527 5.66607 7.33424 5.60022 7.5 5.60022C7.66576 5.60022 7.82473 5.66607 7.94194 5.78328C8.05915 5.90049 8.125 6.05946 8.125 6.22522L8.125 13.7749C8.125 13.9406 8.05915 14.0996 7.94194 14.2168C7.82473 14.334 7.66576 14.3999 7.5 14.3999C7.33424 14.3999 7.17527 14.334 7.05806 14.2168C6.94085 14.0996 6.875 13.9406 6.875 13.7749L6.875 13.7749Z" fill="#171723"/>
<path d="M11.0415 13.7749L11.0415 6.22522C11.0415 6.05946 11.1074 5.90049 11.2246 5.78328C11.3418 5.66607 11.5007 5.60022 11.6665 5.60022C11.8323 5.60022 11.9912 5.66607 12.1084 5.78328C12.2257 5.90049 12.2915 6.05946 12.2915 6.22522L12.2915 13.7749C12.2915 13.9406 12.2257 14.0996 12.1084 14.2168C11.9912 14.334 11.8323 14.3999 11.6665 14.3999C11.5007 14.3999 11.3418 14.334 11.2246 14.2168C11.1074 14.0996 11.0415 13.9406 11.0415 13.7749L11.0415 13.7749Z" fill="#171723"/>
</svg>
