<svg width="24" height="24" viewBox="0 0 24 24" fill="none" xmlns="http://www.w3.org/2000/svg">
<path d="M18.8009 4.58032H5.1988C3.80025 4.58032 2.6665 5.71407 2.6665 7.11262V16.8875C2.6665 18.286 3.80025 19.4198 5.1988 19.4198H18.8009C20.1995 19.4198 21.3332 18.286 21.3332 16.8875V7.11262C21.3332 5.71407 20.1995 4.58032 18.8009 4.58032Z" fill="white"/>
<path d="M18.8008 19.4951H5.19922C4.50795 19.4943 3.84524 19.2193 3.35645 18.7305C2.86765 18.2417 2.59266 17.579 2.5918 16.8877V7.1123C2.59266 6.42104 2.86765 5.75833 3.35645 5.26953C3.84524 4.78073 4.50795 4.50575 5.19922 4.50488H18.8008C19.492 4.50575 20.1547 4.78073 20.6435 5.26953C21.1323 5.75833 21.4073 6.42104 21.4082 7.1123V16.8877C21.4073 17.579 21.1323 18.2417 20.6435 18.7305C20.1547 19.2193 19.492 19.4943 18.8008 19.4951ZM5.19922 4.65527C4.54784 4.65613 3.92339 4.91526 3.4628 5.37586C3.00221 5.83645 2.74307 6.4609 2.74222 7.11227V16.8877C2.74307 17.539 3.00221 18.1635 3.4628 18.6241C3.92339 19.0847 4.54784 19.3438 5.19922 19.3447H18.8008C19.4522 19.3438 20.0766 19.0847 20.5372 18.6241C20.9978 18.1635 21.2569 17.539 21.2578 16.8877V7.1123C21.2569 6.46093 20.9978 5.83648 20.5372 5.37589C20.0766 4.91529 19.4522 4.65616 18.8008 4.6553L5.19922 4.65527Z" fill="#E4E4E4"/>
<path d="M10.4674 13.2635H10.536C10.5631 13.2668 10.5906 13.2621 10.615 13.2499C10.6394 13.2377 10.6597 13.2185 10.6732 13.1948L10.8791 12.8975H11.4051L11.2908 13.0805H11.9312L11.8397 13.3778H11.0849C11.0542 13.4355 11.0079 13.4833 10.9512 13.5157C10.8946 13.5481 10.8299 13.5637 10.7647 13.5608H10.3759L10.4674 13.2635ZM10.3759 13.6752H11.7482L11.6567 13.9954H11.1078L11.0163 14.3156H11.5652L11.4738 14.6358H10.9248L10.7875 15.0933C10.7647 15.1619 10.7875 15.2076 10.9019 15.1847H11.3365L11.245 15.4821H10.3987C10.2386 15.4821 10.1928 15.3906 10.2386 15.2076L10.3987 14.6129H10.0557L10.1471 14.2927H10.4902L10.5817 13.9725H10.2615L10.3759 13.6752ZM12.5945 12.8975L12.5716 13.0805C12.7157 12.9643 12.8906 12.8928 13.0748 12.8747H13.944L13.6009 14.1097C13.578 14.247 13.4636 14.3156 13.2349 14.3156H12.2514L12.0227 15.1619C11.9998 15.2076 12.0227 15.2305 12.0684 15.2305H12.2743L12.2056 15.4821H11.7025C11.5195 15.4821 11.428 15.4364 11.4737 15.2991L12.137 12.8746H12.5945L12.5945 12.8975ZM13.3264 13.2406H12.5488L12.4573 13.5608C12.5613 13.4998 12.6798 13.4682 12.8004 13.4693H13.2578L13.3264 13.2406ZM13.0519 13.9954C13.1206 13.9954 13.1434 13.9725 13.1434 13.9267L13.1892 13.7437H12.4115L12.3429 13.9953L13.0519 13.9954ZM12.5259 14.3842H12.9833V14.5901H13.0977C13.1663 14.5901 13.1892 14.5672 13.1892 14.5215L13.2349 14.3842H13.6009L13.5551 14.5672C13.5335 14.641 13.4882 14.7057 13.4262 14.7512C13.3642 14.7967 13.2889 14.8204 13.212 14.8188H12.9605V15.1619C12.9605 15.2076 13.0062 15.2534 13.0977 15.2534H13.3264L13.2578 15.5279H12.7089C12.5488 15.5279 12.4801 15.4593 12.4801 15.2992L12.5259 14.3842Z" fill="#009DA5"/>
<path d="M10.9937 13.4922L11.0852 13.4007H11.84L11.9315 13.1033H11.291L11.4054 12.9203H10.8794L10.6735 13.1948C10.66 13.2185 10.6397 13.2377 10.6153 13.2499C10.5909 13.2621 10.5634 13.2668 10.5363 13.2634H10.4677L10.4448 13.3321C10.6277 13.3778 10.8107 13.4464 10.9937 13.4922Z" fill="#02CCCC"/>
<path d="M12.5716 13.0804L12.5945 12.8974H12.137L11.9312 13.6293C12.0455 13.6293 12.1828 13.6522 12.2972 13.6522C12.8 13.6543 13.3005 13.585 13.7839 13.4463L13.944 12.8974H13.0748C12.8937 12.912 12.7198 12.9752 12.5716 13.0804ZM13.2578 13.4692H12.8003C12.6792 13.4628 12.5591 13.4948 12.4572 13.5607L12.5487 13.2405H13.3264L13.2578 13.4692Z" fill="#02CCCC"/>
<path d="M14.4243 13.2634L14.5386 12.8975H15.0647L15.0418 13.0347C15.1849 12.9621 15.3399 12.9156 15.4993 12.8975H16.1626L16.0482 13.2634H15.9567L15.4535 15.0017H15.5451L15.4535 15.3448H15.3392L15.2934 15.5049H14.7902L14.836 15.3448H13.8296L13.9211 15.0017H14.0126L14.5158 13.2634H14.4243ZM14.9961 13.2634L14.8589 13.7437C14.9989 13.6892 15.1447 13.6508 15.2934 13.6294C15.3392 13.4693 15.3849 13.2634 15.3849 13.2634L14.9961 13.2634ZM14.8131 13.9725L14.6759 14.4757C14.8147 14.4127 14.9606 14.3666 15.1104 14.3384L15.202 13.9725H14.8131ZM14.9046 15.0017L14.9961 14.6358H14.6073L14.5158 15.0017H14.9046ZM16.1855 12.8746H16.6887L16.7115 13.0576C16.7115 13.1033 16.7344 13.1262 16.803 13.1262H16.8945L16.803 13.4464H16.437C16.2998 13.4464 16.2312 13.4007 16.2083 13.2863L16.1855 12.8746ZM16.0482 13.5608H17.6492L17.5579 13.881H17.0547L16.9632 14.2012H17.4664L17.3749 14.5443H16.8031L16.6658 14.7501H16.9403L17.0089 15.1389C17.0089 15.1847 17.0547 15.2076 17.1004 15.2076H17.1918L17.1003 15.5278H16.803C16.6429 15.5278 16.5514 15.482 16.5514 15.3677L16.4828 15.0017L16.2312 15.3905C16.2051 15.4403 16.1656 15.4818 16.117 15.5101C16.0685 15.5384 16.0129 15.5525 15.9567 15.5506H15.4764L15.5679 15.2304H15.7052C15.7378 15.2319 15.7701 15.224 15.7984 15.2078C15.8268 15.1916 15.8499 15.1677 15.8652 15.1389L16.2541 14.5671H15.7509L15.8424 14.224H16.3913L16.4828 13.9038H15.9339L16.0482 13.5608Z" fill="#009DA5"/>
<path d="M15.0648 12.9203H14.5387L14.4473 13.2177C14.6531 13.1262 14.859 13.0347 15.0648 12.9203Z" fill="#02CCCC"/>
<path d="M7.03654 11.2735C6.98447 11.5436 6.83866 11.7866 6.62483 11.9597C6.37641 12.1309 6.08014 12.2189 5.77854 12.2113C5.6493 12.2218 5.51929 12.2048 5.39709 12.1614C5.27488 12.1181 5.16325 12.0493 5.06954 11.9597C5.01365 11.898 4.97068 11.8257 4.94318 11.7471C4.91568 11.6686 4.9042 11.5853 4.90943 11.5022C4.90666 11.4177 4.91434 11.3332 4.9323 11.2506L5.2983 9.48944H5.84723L5.48121 11.2278C5.48121 11.2735 5.45834 11.3192 5.45834 11.365C5.45535 11.4158 5.46354 11.4667 5.48236 11.514C5.50117 11.5613 5.53014 11.6039 5.56722 11.6388C5.6043 11.6737 5.64858 11.7001 5.69696 11.716C5.74533 11.7319 5.7966 11.737 5.84716 11.731C5.99273 11.7347 6.13608 11.6949 6.25887 11.6166C6.31592 11.5725 6.36354 11.5173 6.3989 11.4545C6.43426 11.3916 6.45664 11.3223 6.46473 11.2506L6.83073 9.51229H7.4254L7.03654 11.2735Z" fill="#FF7F29"/>
<path d="M7.03654 11.2735C6.98447 11.5436 6.83866 11.7866 6.62483 11.9597C6.37641 12.1309 6.08014 12.2189 5.77854 12.2113C5.6493 12.2218 5.51929 12.2048 5.39709 12.1614C5.27488 12.1181 5.16325 12.0493 5.06954 11.9597C5.01365 11.898 4.97068 11.8257 4.94318 11.7471C4.91568 11.6686 4.9042 11.5853 4.90943 11.5022C4.90666 11.4177 4.91434 11.3332 4.9323 11.2506L5.73285 9.48944H5.84719L5.48121 11.2278C5.48121 11.2735 5.45834 11.3192 5.45834 11.365C5.45535 11.4158 5.46354 11.4667 5.48236 11.514C5.50117 11.5613 5.53014 11.6039 5.56722 11.6388C5.6043 11.6737 5.64858 11.7001 5.69696 11.716C5.74533 11.7319 5.7966 11.737 5.84716 11.731C5.99273 11.7347 6.13608 11.6949 6.25887 11.6166C6.31592 11.5725 6.36354 11.5173 6.3989 11.4545C6.43426 11.3916 6.45664 11.3223 6.46473 11.2506L7.26525 9.51229H7.42535L7.03654 11.2735Z" fill="#EA2227"/>
<path d="M7.56282 10.5873H7.95166L7.90591 10.8161L7.95166 10.7474C8.00894 10.6826 8.07935 10.6308 8.15822 10.5953C8.23709 10.5598 8.32261 10.5415 8.4091 10.5416C8.47629 10.5377 8.54356 10.5479 8.60658 10.5715C8.6696 10.5951 8.72698 10.6317 8.77505 10.6788C8.84776 10.7945 8.87238 10.934 8.84367 11.0676L8.63782 12.1426H8.22614L8.40914 11.1591C8.42374 11.1219 8.42928 11.0818 8.4253 11.042C8.42133 11.0022 8.40795 10.964 8.38628 10.9304C8.36341 10.8847 8.2948 10.8618 8.20328 10.8618C8.15718 10.8574 8.11069 10.8634 8.06718 10.8792C8.02367 10.895 7.98422 10.9203 7.95169 10.9533C7.87947 11.0289 7.83165 11.1246 7.81446 11.2277L7.63146 12.1426H7.21973L7.56282 10.5873Z" fill="#EA2227"/>
<path d="M12.0458 10.5873H12.4346L12.3889 10.8161L12.4346 10.7474C12.4919 10.6826 12.5623 10.6308 12.6412 10.5953C12.7201 10.5598 12.8056 10.5415 12.8921 10.5416C12.9593 10.5377 13.0266 10.5479 13.0896 10.5715C13.1526 10.5951 13.21 10.6317 13.2581 10.6788C13.3308 10.7945 13.3554 10.934 13.3267 11.0676L13.1208 12.1426H12.7091L12.915 11.1591C12.9296 11.1219 12.9351 11.0818 12.9311 11.042C12.9271 11.0022 12.9138 10.964 12.8921 10.9304C12.8692 10.8847 12.8006 10.8618 12.7091 10.8618C12.663 10.8574 12.6165 10.8634 12.573 10.8792C12.5295 10.895 12.4901 10.9203 12.4575 10.9533C12.3853 11.0289 12.3375 11.1246 12.3203 11.2277L12.1373 12.1426H11.7256L12.0458 10.5873Z" fill="#A5002F"/>
<path d="M9.36947 10.5873H9.80404L9.46095 12.1655H9.02637L9.36947 10.5873ZM9.50667 10.0155H9.94127L9.84976 10.4043H9.41519L9.50667 10.0155Z" fill="#EA2227"/>
<path d="M10.1931 12.0512C10.1374 11.994 10.0944 11.9258 10.0669 11.8509C10.0393 11.776 10.0277 11.6962 10.033 11.6166V11.5022C10.0294 11.4627 10.0374 11.423 10.0559 11.3879C10.0962 11.1539 10.2081 10.9381 10.3761 10.7703C10.4579 10.692 10.5549 10.6313 10.6611 10.5919C10.7673 10.5526 10.8805 10.5354 10.9936 10.5416C11.077 10.5322 11.1614 10.5417 11.2406 10.5695C11.3198 10.5972 11.3917 10.6424 11.4511 10.7017C11.5104 10.761 11.5556 10.833 11.5833 10.9122C11.611 10.9913 11.6206 11.0758 11.6112 11.1591V11.2735C11.6147 11.313 11.6068 11.3528 11.5883 11.3879C11.5531 11.617 11.44 11.827 11.2681 11.9826C11.0971 12.1316 10.8774 12.213 10.6505 12.2113C10.4844 12.211 10.3232 12.1546 10.1931 12.0512ZM11.0165 11.731C11.1009 11.6251 11.1562 11.4989 11.1766 11.365C11.1756 11.333 11.1835 11.3013 11.1995 11.2735V11.2049C11.2049 11.1229 11.1805 11.0417 11.1309 10.9762C11.1044 10.9479 11.0725 10.9253 11.0372 10.9096C11.0018 10.8939 10.9637 10.8854 10.925 10.8847C10.8682 10.8831 10.8118 10.8947 10.7603 10.9185C10.7087 10.9423 10.6633 10.9777 10.6277 11.0219C10.5392 11.1341 10.4837 11.2688 10.4676 11.4108C10.4691 11.4232 10.4678 11.4358 10.4639 11.4477C10.4599 11.4595 10.4534 11.4704 10.4447 11.4794V11.548C10.4393 11.63 10.4636 11.7112 10.5133 11.7767C10.5413 11.8013 10.5739 11.82 10.6093 11.8318C10.6446 11.8436 10.682 11.8482 10.7192 11.8453C10.7744 11.8533 10.8307 11.8469 10.8827 11.8269C10.9348 11.8069 10.9808 11.7739 11.0165 11.731L11.0165 11.731Z" fill="#EA2227"/>
<path d="M13.99 9.60386H15.1336C15.3122 9.59028 15.4899 9.63876 15.6368 9.74109C15.6995 9.79392 15.7487 9.86085 15.7805 9.93638C15.8124 10.0119 15.8258 10.0939 15.8198 10.1757V10.29C15.8198 10.3358 15.7969 10.3815 15.7969 10.4272C15.7576 10.6602 15.6358 10.8712 15.4539 11.0219C15.272 11.1678 15.0465 11.2483 14.8134 11.2507H14.1959L14.0129 12.1655H13.4868L13.99 9.60386ZM14.2645 10.7932H14.7677C14.8819 10.8016 14.9953 10.7692 15.0879 10.7018C15.1593 10.622 15.2137 10.5287 15.248 10.4273V10.3129C15.2524 10.2736 15.2462 10.2337 15.2301 10.1976C15.2141 10.1614 15.1886 10.1302 15.1565 10.1071C15.0665 10.0549 14.9629 10.031 14.8592 10.0384H14.4246L14.2645 10.7932Z" fill="#1398E2"/>
<path d="M14.4245 9.60386H15.1106C15.2892 9.59029 15.4669 9.63876 15.6138 9.74109C15.6765 9.79392 15.7257 9.86085 15.7575 9.93638C15.7894 10.0119 15.8028 10.0939 15.7968 10.1757V10.29C15.7968 10.3358 15.7739 10.3815 15.7739 10.4272C15.7346 10.6602 15.6128 10.8712 15.4309 11.0219C15.249 11.1678 15.0235 11.2483 14.7904 11.2507H14.1729L13.9899 12.1655H13.4639L14.4245 9.60386ZM14.2643 10.7932H14.7675C14.8817 10.8016 14.9952 10.7692 15.0878 10.7018C15.1592 10.622 15.2136 10.5287 15.2479 10.4273V10.3129C15.2523 10.2736 15.2461 10.2338 15.23 10.1976C15.2139 10.1614 15.1885 10.1302 15.1564 10.1071C15.0664 10.0549 14.9628 10.031 14.859 10.0384H14.4245L14.2643 10.7932Z" fill="#0872B9"/>
<path d="M18.1524 12.4629C18.0556 12.7066 17.9162 12.9313 17.7407 13.1262C17.6525 13.232 17.5396 13.3145 17.4119 13.3664C17.2843 13.4182 17.1458 13.4378 17.0088 13.4235L17.0545 13.1491C17.4205 13.0347 17.6264 12.5086 17.7407 12.2799L17.6035 10.5873H18.1524L18.1753 11.6623L18.6327 10.5873H19.0902L18.1524 12.4629Z" fill="#055093"/>
<path d="M16.8719 10.7017L16.6889 10.839C16.5998 10.7437 16.4803 10.6825 16.3509 10.6658C16.2215 10.6491 16.0903 10.6779 15.9799 10.7474C15.5225 10.9533 15.1337 12.6001 16.3917 12.0512L16.4603 12.1427L16.9635 12.1655L17.2837 10.6788L16.8719 10.7017ZM16.5746 11.5251C16.4831 11.7538 16.323 11.914 16.1858 11.8682C16.0485 11.8225 16.0028 11.5937 16.0714 11.365C16.1629 11.1363 16.323 10.9762 16.4602 11.0219C16.6203 11.0677 16.6661 11.2964 16.5746 11.5251Z" fill="#0872B9"/>
<path d="M16.0483 12.1655C16.1398 12.1426 16.2542 12.1197 16.3914 12.074L16.46 12.1655L16.9632 12.1884L17.2834 10.7017H17.1691C16.925 11.2763 16.5394 11.7799 16.0483 12.1655Z" fill="#055093"/>
<path d="M11.4509 10.7017C11.3892 10.6458 11.317 10.6028 11.2384 10.5753C11.1598 10.5478 11.0765 10.5363 10.9935 10.5416H10.8791C10.8277 10.6829 10.7666 10.8205 10.6961 10.9533C10.7632 10.9068 10.8432 10.8828 10.9248 10.8847C10.9641 10.8803 11.004 10.8864 11.0401 10.9025C11.0763 10.9186 11.1076 10.944 11.1307 10.9761C11.1803 11.0416 11.2047 11.1229 11.1993 11.2049V11.2735C11.2003 11.3055 11.1924 11.3372 11.1764 11.365C11.1608 11.5002 11.105 11.6277 11.0163 11.731C10.9792 11.7721 10.933 11.8039 10.8813 11.8238C10.8297 11.8437 10.774 11.851 10.719 11.8453C10.6818 11.8482 10.6444 11.8436 10.6091 11.8318C10.5737 11.82 10.5411 11.8013 10.5131 11.7767C10.4634 11.7112 10.4391 11.63 10.4445 11.548V11.4794C10.4429 11.4669 10.4442 11.4543 10.4482 11.4425C10.4521 11.4306 10.4587 11.4197 10.4674 11.4107C10.4674 11.365 10.4902 11.3421 10.4902 11.3193C10.365 11.5099 10.2193 11.6864 10.0557 11.8453C10.0786 11.9331 10.1262 12.0125 10.1929 12.074C10.2546 12.1299 10.3268 12.1729 10.4054 12.2004C10.484 12.2279 10.5673 12.2394 10.6503 12.2342C10.8777 12.2385 11.0982 12.1568 11.2679 12.0054C11.4398 11.8499 11.5529 11.6399 11.5881 11.4107C11.5881 11.365 11.611 11.3421 11.611 11.2964V11.182C11.6201 11.0951 11.6106 11.0073 11.583 10.9245C11.5554 10.8416 11.5103 10.7657 11.4509 10.7017Z" fill="#A5002F"/>
</svg>
