<svg width="20" height="20" viewBox="0 0 20 20" fill="none" xmlns="http://www.w3.org/2000/svg">
<path d="M16.8667 5.25414C16.832 4.66162 16.5832 4.10189 16.1666 3.67914L15.0083 2.52914C14.7814 2.30006 14.5115 2.11808 14.214 1.99366C13.9165 1.86924 13.5974 1.80483 13.2749 1.80414H5.575C4.9258 1.80604 4.30374 2.06477 3.84469 2.52382C3.38563 2.98288 3.1269 3.60494 3.125 4.25414V15.7458C3.1269 16.395 3.38563 17.0171 3.84469 17.4761C4.30374 17.9352 4.9258 18.1939 5.575 18.1958H14.425C15.0748 18.1958 15.6979 17.9377 16.1574 17.4782C16.6169 17.0188 16.875 16.3956 16.875 15.7458V5.33747C16.8764 5.30943 16.8736 5.28135 16.8667 5.25414ZM9.46667 14.5708C9.3513 14.5708 9.23852 14.5366 9.1426 14.4725C9.04668 14.4084 8.97192 14.3173 8.92778 14.2107C8.88364 14.1041 8.87209 13.9868 8.89461 13.8736C8.91712 13.7605 8.97268 13.6565 9.05427 13.575C9.13585 13.4934 9.23979 13.4378 9.35294 13.4153C9.4661 13.3928 9.58338 13.4044 9.68997 13.4485C9.79656 13.4927 9.88766 13.5675 9.95175 13.6634C10.0158 13.7593 10.0501 13.8721 10.0501 13.9875C10.0505 14.0642 10.0358 14.1403 10.0066 14.2113C9.97746 14.2823 9.9345 14.3468 9.88023 14.401C9.82596 14.4553 9.76146 14.4982 9.69047 14.5274C9.61948 14.5565 9.54341 14.5713 9.46667 14.5708ZM12.0583 9.97914C11.8449 10.2499 11.5727 10.4687 11.2623 10.6188C10.952 10.7689 10.6115 10.8466 10.2668 10.8458C10.2164 10.8457 10.1665 10.8555 10.1199 10.8747C10.0733 10.8939 10.031 10.9221 9.99536 10.9578C9.95973 10.9934 9.93149 11.0357 9.91227 11.0823C9.89305 11.1288 9.88322 11.1788 9.88335 11.2291V12.1291C9.88335 12.2396 9.83945 12.3456 9.76131 12.4238C9.68317 12.5019 9.57719 12.5458 9.46668 12.5458C9.35618 12.5458 9.2502 12.5019 9.17206 12.4238C9.09392 12.3456 9.05002 12.2396 9.05002 12.1291V11.1503C9.05276 10.9935 9.08722 10.839 9.15133 10.6959C9.21544 10.5529 9.30787 10.4243 9.42304 10.318C9.5382 10.2117 9.67372 10.1298 9.82141 10.0772C9.9691 10.0247 10.1259 10.0027 10.2823 10.0124C10.5711 10.0089 10.8524 9.92009 11.0909 9.75714C11.3293 9.59419 11.5143 9.36438 11.6225 9.09661C11.7306 8.82883 11.7572 8.53504 11.6989 8.25219C11.6406 7.96934 11.4999 7.71004 11.2946 7.50692C11.0893 7.30379 10.8285 7.1659 10.5451 7.11058C10.2616 7.05526 9.96814 7.08499 9.70153 7.19602C9.43492 7.30705 9.20709 7.49443 9.04669 7.7346C8.88629 7.97477 8.80048 8.257 8.80005 8.5458C8.80005 8.65632 8.75615 8.76231 8.678 8.84045C8.59986 8.9186 8.49387 8.9625 8.38336 8.9625C8.27285 8.9625 8.16686 8.9186 8.08871 8.84045C8.01057 8.76231 7.96667 8.65632 7.96667 8.5458C7.9659 8.20101 8.04352 7.86055 8.19367 7.55016C8.34381 7.23977 8.56254 6.96757 8.83333 6.75414C9.10633 6.53645 9.42519 6.38359 9.76586 6.30708C10.1065 6.23058 10.4601 6.23242 10.8 6.31247C11.2142 6.40807 11.5932 6.61814 11.8938 6.91872C12.1943 7.21929 12.4044 7.59828 12.5 8.01247C12.5801 8.35233 12.5819 8.70593 12.5054 9.04661C12.4289 9.38729 12.276 9.70614 12.0583 9.97914ZM14.0158 4.9208C13.9831 4.92081 13.9507 4.91437 13.9204 4.90186C13.8902 4.88934 13.8628 4.87099 13.8396 4.84786C13.8165 4.82473 13.7981 4.79727 13.7856 4.76705C13.7731 4.73683 13.7667 4.70443 13.7667 4.67172V2.7208C14.0152 2.79469 14.2415 2.92929 14.425 3.11247L15.5749 4.2708C15.7566 4.45076 15.8887 4.67469 15.9582 4.9208H14.0158Z" fill="#171723"/>
</svg>
