<svg width="20" height="20" viewBox="0 0 20 20" fill="none" xmlns="http://www.w3.org/2000/svg">
<g clip-path="url(#clip0_5313_35040)">
<path d="M7.52267 5.83797L9.51974 3.79695V13.8873C9.51974 13.9978 9.56364 14.1038 9.64178 14.1819C9.71992 14.2601 9.8259 14.304 9.93641 14.304C10.0469 14.304 10.1529 14.2601 10.231 14.1819C10.3092 14.1038 10.3531 13.9978 10.3531 13.8873V3.76588L12.4836 5.84936C12.5615 5.92543 12.6661 5.96807 12.775 5.96818C12.8577 5.96817 12.9387 5.9435 13.0074 5.89731C13.0761 5.85111 13.1295 5.7855 13.1607 5.70883C13.192 5.63216 13.1997 5.54792 13.1829 5.46685C13.1661 5.38578 13.1255 5.31156 13.0663 5.25366L10.2278 2.47778C10.1908 2.44287 10.1477 2.41505 10.1006 2.39569L10.0935 2.38985L10.0913 2.38965C10.0232 2.36436 9.94956 2.35754 9.87795 2.36987C9.86158 2.37216 9.84537 2.3755 9.82943 2.37987C9.7574 2.3964 9.69135 2.43254 9.63859 2.48429L6.92701 5.25529C6.851 5.33453 6.80934 5.44057 6.81109 5.55036C6.81284 5.66014 6.85785 5.76481 6.93635 5.84159C7.01484 5.91837 7.12047 5.96106 7.23027 5.96038C7.34007 5.9597 7.44517 5.91571 7.52271 5.83797H7.52267Z" fill="#171723"/>
<path d="M17.7773 12.359C17.7226 12.359 17.6684 12.3697 17.6178 12.3907C17.5673 12.4116 17.5213 12.4423 17.4826 12.481C17.4439 12.5197 17.4132 12.5656 17.3923 12.6162C17.3714 12.6668 17.3606 12.7209 17.3607 12.7757V14.3073C17.3599 14.9701 17.0963 15.6055 16.6276 16.0742C16.1589 16.5429 15.5235 16.8065 14.8607 16.8073H5.139C4.47618 16.8065 3.84071 16.5429 3.37203 16.0742C2.90335 15.6055 2.63972 14.9701 2.639 14.3073V12.7757C2.639 12.6652 2.5951 12.5592 2.51696 12.481C2.43882 12.4029 2.33284 12.359 2.22233 12.359C2.11182 12.359 2.00584 12.4029 1.9277 12.481C1.84956 12.5592 1.80566 12.6652 1.80566 12.7757V14.3073C1.80655 15.191 2.15802 16.0384 2.78295 16.6633C3.40788 17.2882 4.25521 17.6397 5.139 17.6406H14.8607C15.7444 17.6397 16.5918 17.2882 17.2167 16.6633C17.8416 16.0384 18.1931 15.191 18.194 14.3073V12.7757C18.194 12.7209 18.1833 12.6668 18.1623 12.6162C18.1414 12.5656 18.1107 12.5197 18.072 12.481C18.0333 12.4423 17.9874 12.4116 17.9368 12.3907C17.8863 12.3697 17.8321 12.359 17.7773 12.359Z" fill="#171723"/>
</g>
<defs>
<clipPath id="clip0_5313_35040">
<rect width="20" height="20" fill="white"/>
</clipPath>
</defs>
</svg>
