<svg width="20" height="20" viewBox="0 0 20 20" fill="none" xmlns="http://www.w3.org/2000/svg">
<g clip-path="url(#clip0_10314_144688)">
<path d="M16.1132 1.80383H3.88822C3.33585 1.80434 2.80624 2.024 2.41565 2.41459C2.02506 2.80518 1.8054 3.33479 1.80489 3.88717V6.65822L1.80322 6.6663L1.80489 6.67439V16.1121C1.8054 16.6645 2.02506 17.1941 2.41565 17.5847C2.80624 17.9753 3.33584 18.1949 3.88822 18.1954H16.1132C16.6655 18.1949 17.1951 17.9753 17.5857 17.5847C17.9763 17.1941 18.196 16.6645 18.1965 16.1121V3.88717C18.196 3.33479 17.9763 2.80518 17.5857 2.41459C17.1951 2.024 16.6655 1.80434 16.1132 1.80383ZM5.69649 7.083V9.9541H2.63822V7.08297L5.69649 7.083ZM6.52982 7.083H9.57995V9.9541H6.52982V7.083ZM10.4133 7.083H13.4716V9.9541H10.4133V7.083ZM14.3049 7.083H17.3632V9.9541H14.3049V7.083ZM2.63822 10.7874H5.69649V13.6545H2.63822V10.7874ZM6.52982 10.7874H9.57995V13.6545H6.52982V10.7874ZM9.57995 14.4878V17.3621H6.52982V14.4878L9.57995 14.4878ZM10.4133 14.4878H13.4716V17.3621H10.4133V14.4878ZM10.4133 13.6545V10.7874H13.4716V13.6544L10.4133 13.6545ZM14.3049 10.7874H17.3632V13.6545H14.3049V10.7874ZM2.63822 3.8872C2.63858 3.55579 2.7704 3.23806 3.00474 3.00372C3.23908 2.76937 3.55681 2.63756 3.88822 2.6372H16.1132C16.4446 2.63756 16.7623 2.76937 16.9966 3.00372C17.231 3.23806 17.3628 3.55579 17.3632 3.8872V6.24557H2.63822V3.88717V3.8872ZM2.63822 16.1121V14.4878H5.69649V17.3621H3.88822C3.55681 17.3617 3.23908 17.2299 3.00474 16.9956C2.7704 16.7612 2.63858 16.4435 2.63822 16.1121V16.1121ZM16.1132 17.3621H14.3049V14.4878H17.3632V16.1121C17.3628 16.4435 17.231 16.7612 16.9966 16.9956C16.7623 17.2299 16.4446 17.3617 16.1132 17.3621V17.3621Z" fill="#171723"/>
</g>
<defs>
<clipPath id="clip0_10314_144688">
<rect width="20" height="20" fill="white"/>
</clipPath>
</defs>
</svg>
