<svg width="20" height="20" viewBox="0 0 20 20" fill="none" xmlns="http://www.w3.org/2000/svg">
<g clip-path="url(#clip0_10314_145849)">
<path d="M17.5279 9.67816V9.28103C17.6434 9.077 17.7035 8.8462 17.7019 8.6117C17.7003 8.3772 17.6372 8.14723 17.5189 7.94476C17.4186 7.78532 17.2827 7.65132 17.1218 7.55333L16.9232 7.13015C16.6968 6.64042 16.3476 6.21754 15.9096 5.90256C15.4716 5.58757 14.9595 5.39119 14.4232 5.33246L13.2562 5.20714C12.6034 5.13569 11.9447 5.13842 11.2925 5.21527C10.5632 5.29667 9.84666 5.46693 9.15872 5.72227L8.51012 5.96394C7.51264 6.33359 6.59865 6.89794 5.82132 7.62412L5.09052 8.30445C4.86903 8.51817 4.60886 8.68775 4.32392 8.80413L2.9486 9.38844C2.74224 9.47623 2.56542 9.62143 2.43916 9.80677L2.05097 10.3642C1.85368 10.6598 1.77066 11.017 1.81741 11.3693L1.93378 12.3532C1.97345 12.663 2.12428 12.9479 2.35824 13.155C2.5922 13.362 2.89337 13.477 3.20576 13.4786H3.70848C3.80104 13.8675 4.02201 14.2138 4.3357 14.4616C4.64938 14.7094 5.03746 14.8442 5.4372 14.8442C5.83695 14.8442 6.22502 14.7094 6.53871 14.4616C6.85239 14.2138 7.07337 13.8675 7.16592 13.4786H13.824C13.9217 13.8908 14.1635 14.2544 14.5059 14.5039C14.8483 14.7533 15.2685 14.872 15.6908 14.8387C16.1131 14.8053 16.5095 14.622 16.8084 14.3219C17.1074 14.0218 17.2891 13.6246 17.3208 13.2022L17.3684 13.1718C17.6217 13.0117 17.8303 12.79 17.9747 12.5274C18.1191 12.2649 18.1947 11.97 18.1944 11.6704V11.1617C18.1945 10.8814 18.1351 10.6042 18.0202 10.3485C17.9053 10.0927 17.7375 9.86427 17.5279 9.67816ZM15.9207 8.81228C15.925 8.71738 15.9529 8.62506 16.002 8.54372C16.0753 8.44049 16.1755 8.35942 16.2918 8.30938C16.4081 8.25935 16.5359 8.24229 16.6613 8.26006C16.7206 8.28857 16.7719 8.33121 16.8109 8.38423C16.8423 8.45135 16.8582 8.52466 16.8574 8.59874C16.8567 8.67282 16.8394 8.7458 16.8067 8.81229L15.9207 8.81228ZM3.12763 10.2763C3.1641 10.2223 3.21559 10.1801 3.27574 10.1551L3.54824 10.0394C3.5542 10.1547 3.53423 10.2698 3.4898 10.3764C3.41416 10.5231 3.30299 10.6485 3.16643 10.7411C3.02987 10.8338 2.87228 10.8907 2.70804 10.9068C2.71688 10.8818 2.72738 10.8574 2.73947 10.8338L3.12763 10.2763ZM5.4372 14.0108C5.18633 14.0105 4.94577 13.911 4.76801 13.734C4.59024 13.557 4.4897 13.3168 4.48831 13.066L4.48914 13.062L4.48831 13.0579C4.48902 12.8703 4.54531 12.6871 4.65007 12.5315C4.75483 12.3758 4.90337 12.2547 5.07691 12.1834C5.25046 12.1122 5.44124 12.0939 5.62516 12.131C5.80908 12.168 5.97789 12.2588 6.11027 12.3917C6.24266 12.5247 6.33268 12.6938 6.36897 12.8779C6.40526 13.062 6.3862 13.2527 6.31418 13.4259C6.24216 13.5992 6.12042 13.7472 5.96434 13.8513C5.80825 13.9554 5.62482 14.0109 5.4372 14.0108ZM15.5519 14.0108C15.3008 14.0105 15.0599 13.9107 14.8822 13.7333C14.7044 13.5558 14.6042 13.3152 14.6035 13.064L14.6039 13.062L14.6035 13.0599C14.6038 12.8723 14.6598 12.6889 14.7643 12.5331C14.8689 12.3772 15.0173 12.2558 15.1908 12.1843C15.3643 12.1128 15.5551 12.0943 15.7391 12.1312C15.9231 12.168 16.092 12.2586 16.2245 12.3915C16.3571 12.5244 16.4472 12.6935 16.4836 12.8776C16.52 13.0617 16.501 13.2525 16.4291 13.4258C16.3571 13.5991 16.2353 13.7472 16.0792 13.8513C15.9231 13.9555 15.7396 14.011 15.5519 14.0108ZM17.361 11.6704C17.3582 11.8888 17.2798 12.0996 17.1394 12.2669C16.9777 11.9396 16.719 11.6701 16.3985 11.4953C16.078 11.3205 15.7113 11.2489 15.3486 11.2903C14.9859 11.3317 14.6448 11.4841 14.3719 11.7266C14.099 11.9691 13.9077 12.2899 13.8239 12.6453H7.16597C7.07359 12.2562 6.85268 11.9097 6.53897 11.6618C6.22526 11.4138 5.83708 11.279 5.43722 11.279C5.03736 11.279 4.64919 11.4138 4.33548 11.6618C4.02177 11.9097 3.80086 12.2562 3.70847 12.6453H3.20576C3.13655 12.6451 3.06833 12.6288 3.00657 12.5976C2.94481 12.5664 2.89123 12.5211 2.85012 12.4654C2.80338 12.4036 2.77263 12.3312 2.76061 12.2546L2.70061 11.7355C3.02688 11.7197 3.34293 11.6166 3.61574 11.4369C3.88854 11.2572 4.10809 11.0076 4.25144 10.7141C4.38875 10.3947 4.42177 10.0401 4.34579 9.70079L4.64619 9.57322C5.02404 9.41738 5.36935 9.19213 5.66425 8.90912L6.39097 8.23204C7.08752 7.58136 7.90667 7.07593 8.80064 6.74522L9.44761 6.50434C9.92585 6.33246 10.4189 6.20507 10.9206 6.12378V8.3948C10.9205 8.5055 10.8765 8.61164 10.7982 8.68992C10.7199 8.7682 10.6138 8.81221 10.5031 8.8123H6.95738C6.84688 8.8123 6.7409 8.85619 6.66276 8.93434C6.58461 9.01248 6.54072 9.11846 6.54072 9.22896C6.54072 9.33947 6.58461 9.44545 6.66276 9.52359C6.7409 9.60173 6.84688 9.64563 6.95738 9.64563H10.5031C10.8348 9.6454 11.1528 9.51354 11.3873 9.27901C11.6219 9.04449 11.7537 8.72647 11.754 8.3948V6.02048C12.2247 5.98385 12.6977 5.9889 13.1675 6.03559L14.3345 6.16091C14.7279 6.20407 15.1035 6.34832 15.4247 6.57963C15.7458 6.81094 16.0016 7.12144 16.1672 7.48091L16.1703 7.48742C15.8127 7.57446 15.501 7.79295 15.2973 8.0994C15.1642 8.31371 15.0917 8.56008 15.0875 8.8123H12.8037C12.6932 8.8123 12.5873 8.85619 12.5091 8.93434C12.431 9.01248 12.3871 9.11846 12.3871 9.22896C12.3871 9.33947 12.431 9.44545 12.5091 9.52359C12.5873 9.60173 12.6932 9.64563 12.8037 9.64563H16.6945V9.87919C16.6946 9.94628 16.7109 10.0124 16.7419 10.0719C16.7729 10.1314 16.8178 10.1825 16.8727 10.221C17.0238 10.3269 17.1471 10.4678 17.2321 10.6316C17.3171 10.7953 17.3613 10.9772 17.361 11.1617V11.6704Z" fill="#171723"/>
<path d="M15.5526 12.4297C15.4275 12.4295 15.3051 12.4665 15.2011 12.5359C15.097 12.6052 15.0158 12.7039 14.9678 12.8195C14.9198 12.935 14.9072 13.0622 14.9315 13.1849C14.9558 13.3076 15.0159 13.4203 15.1043 13.5088C15.1927 13.5974 15.3054 13.6577 15.4281 13.6821C15.5508 13.7066 15.678 13.6941 15.7935 13.6463C15.9091 13.5984 16.0079 13.5174 16.0775 13.4134C16.147 13.3094 16.1841 13.1871 16.1841 13.062C16.1838 12.8945 16.1172 12.734 15.9988 12.6155C15.8805 12.497 15.72 12.4302 15.5526 12.4297ZM15.3508 13.062C15.3508 13.0086 15.372 12.9574 15.4097 12.9196C15.4475 12.8818 15.4987 12.8606 15.5522 12.8606C15.6056 12.8606 15.6568 12.8818 15.6946 12.9196C15.7324 12.9574 15.7536 13.0086 15.7536 13.062C15.7536 13.2842 15.3507 13.2826 15.3507 13.062H15.3508Z" fill="#171723"/>
<path d="M5.43701 12.4297C5.31195 12.4297 5.1897 12.4668 5.08571 12.5363C4.98173 12.6057 4.90068 12.7045 4.85282 12.82C4.80496 12.9356 4.79244 13.0627 4.81684 13.1854C4.84124 13.308 4.90146 13.4207 4.98989 13.5091C5.07832 13.5976 5.19099 13.6578 5.31365 13.6822C5.43631 13.7066 5.56345 13.6941 5.67899 13.6462C5.79454 13.5983 5.89329 13.5173 5.96277 13.4133C6.03225 13.3093 6.06934 13.1871 6.06934 13.062C6.06903 12.8944 6.00231 12.7338 5.88379 12.6152C5.76527 12.4967 5.60462 12.43 5.43701 12.4297ZM5.236 13.062C5.23635 13.0089 5.25767 12.9581 5.29533 12.9207C5.333 12.8833 5.38393 12.8623 5.43702 12.8623C5.49011 12.8623 5.54104 12.8833 5.5787 12.9207C5.61636 12.9581 5.63769 13.0089 5.63803 13.062C5.63803 13.2833 5.236 13.2833 5.236 13.062Z" fill="#171723"/>
</g>
<defs>
<clipPath id="clip0_10314_145849">
<rect width="20" height="20" fill="white"/>
</clipPath>
</defs>
</svg>
