<svg width="20" height="20" viewBox="0 0 20 20" fill="none" xmlns="http://www.w3.org/2000/svg">
<g clip-path="url(#clip0_10325_129871)">
<path d="M17.9622 14.2867C17.3219 13.4558 16.4988 12.7837 15.5566 12.3224V4.25419C15.556 3.60465 15.2978 2.98188 14.8385 2.5225C14.3793 2.06313 13.7566 1.80467 13.1071 1.80383H4.257C3.60737 1.80464 2.98458 2.06306 2.52523 2.52242C2.06587 2.98178 1.80745 3.60456 1.80664 4.25419V15.7459C1.80748 16.3954 2.06594 17.0181 2.52531 17.4773C2.98468 17.9365 3.60746 18.1948 4.257 18.1954H13.1071C13.3539 18.1954 13.5994 18.1587 13.8354 18.0864C13.8408 18.0847 13.8443 18.0806 13.8496 18.0788C14.6618 17.9637 15.4433 17.6893 16.1491 17.2712C16.8549 16.8531 17.4711 16.2996 17.9622 15.6425C18.1111 15.4479 18.1917 15.2097 18.1917 14.9646C18.1917 14.7196 18.1111 14.4814 17.9622 14.2867V14.2867ZM2.63997 15.7459V4.25424C2.64034 3.82549 2.81083 3.4144 3.114 3.11122C3.41717 2.80805 3.82825 2.63755 4.257 2.63717H13.1071C13.5357 2.63773 13.9466 2.8083 14.2496 3.11145C14.5526 3.4146 14.723 3.82558 14.7233 4.25419V12.0149C14.2662 11.8791 13.7923 11.8083 13.3154 11.8047C12.404 11.8413 11.5126 12.0835 10.708 12.5134C9.90347 12.9432 9.20655 13.5495 8.66943 14.2867C8.51983 14.4811 8.43871 14.7194 8.43871 14.9647C8.43871 15.2099 8.51983 15.4483 8.66943 15.6426C9.20604 16.3315 9.86609 16.9146 10.6159 17.3621H4.257C3.82839 17.3618 3.41741 17.1914 3.11426 16.8884C2.81111 16.5854 2.64054 16.1745 2.63997 15.7459V15.7459ZM17.3014 15.1347C16.8464 15.7753 16.2503 16.3028 15.5593 16.6767C14.8682 17.0505 14.1006 17.2608 13.3154 17.2913C12.5304 17.2607 11.7629 17.0504 11.072 16.6765C10.3811 16.3026 9.78522 15.7752 9.33024 15.1347C9.29227 15.0862 9.27165 15.0263 9.27165 14.9647C9.27165 14.903 9.29227 14.8431 9.33024 14.7946C9.78499 14.1539 10.3808 13.6263 11.0718 13.2524C11.7627 12.8785 12.5304 12.6683 13.3154 12.638C14.1006 12.6682 14.8684 12.8783 15.5595 13.2522C16.2506 13.6261 16.8466 14.1538 17.3014 14.7946C17.3394 14.8431 17.36 14.903 17.36 14.9647C17.36 15.0263 17.3394 15.0862 17.3014 15.1347V15.1347Z" fill="#171723"/>
<path d="M13.3154 13.0262C12.932 13.0262 12.5572 13.1399 12.2385 13.3529C11.9197 13.5659 11.6712 13.8687 11.5245 14.2229C11.3778 14.5771 11.3394 14.9669 11.4142 15.3429C11.489 15.7189 11.6736 16.0643 11.9447 16.3354C12.2158 16.6065 12.5612 16.7912 12.9373 16.8659C13.3133 16.9407 13.703 16.9024 14.0573 16.7556C14.4115 16.6089 14.7142 16.3605 14.9272 16.0417C15.1402 15.7229 15.2539 15.3481 15.2539 14.9647C15.2534 14.4508 15.049 13.958 14.6856 13.5946C14.3221 13.2312 13.8294 13.0268 13.3154 13.0262V13.0262ZM13.3154 16.0699C13.0968 16.0699 12.8832 16.005 12.7014 15.8836C12.5197 15.7622 12.3781 15.5896 12.2944 15.3876C12.2108 15.1857 12.1889 14.9635 12.2315 14.7491C12.2742 14.5347 12.3794 14.3378 12.534 14.1833C12.6885 14.0287 12.8855 13.9235 13.0998 13.8808C13.3142 13.8382 13.5364 13.8601 13.7384 13.9437C13.9403 14.0273 14.1129 14.169 14.2343 14.3507C14.3558 14.5325 14.4206 14.7461 14.4206 14.9647C14.4203 15.2578 14.3038 15.5387 14.0966 15.7459C13.8894 15.9531 13.6085 16.0696 13.3154 16.0699V16.0699Z" fill="#171723"/>
<path d="M11.5186 9.99967C11.5186 9.94495 11.5078 9.89075 11.4869 9.84019C11.466 9.78962 11.4353 9.74368 11.3966 9.70498C11.3579 9.66628 11.3119 9.63559 11.2614 9.61466C11.2108 9.59373 11.1566 9.58298 11.1019 9.58301H4.43522C4.32471 9.58301 4.21873 9.62691 4.14059 9.70505C4.06245 9.78319 4.01855 9.88917 4.01855 9.99967C4.01855 10.1102 4.06245 10.2162 4.14059 10.2943C4.21873 10.3724 4.32471 10.4163 4.43522 10.4163H11.1019C11.1566 10.4164 11.2108 10.4056 11.2614 10.3847C11.3119 10.3638 11.3579 10.3331 11.3966 10.2944C11.4353 10.2557 11.466 10.2097 11.4869 10.1592C11.5078 10.1086 11.5186 10.0544 11.5186 9.99967V9.99967Z" fill="#171723"/>
<path d="M4.43522 8.19381H13.3407C13.4512 8.19381 13.5572 8.14991 13.6353 8.07177C13.7134 7.99363 13.7573 7.88765 13.7573 7.77714C13.7573 7.66663 13.7134 7.56065 13.6353 7.48251C13.5572 7.40437 13.4512 7.36047 13.3407 7.36047H4.43522C4.32471 7.36047 4.21873 7.40437 4.14059 7.48251C4.06245 7.56065 4.01855 7.66663 4.01855 7.77714C4.01855 7.88765 4.06245 7.99363 4.14059 8.07177C4.21873 8.14991 4.32471 8.19381 4.43522 8.19381V8.19381Z" fill="#171723"/>
<path d="M4.43522 5.97139H13.3407C13.4512 5.97139 13.5572 5.9275 13.6353 5.84936C13.7134 5.77122 13.7573 5.66524 13.7573 5.55473C13.7573 5.44422 13.7134 5.33824 13.6353 5.2601C13.5572 5.18196 13.4512 5.13806 13.3407 5.13806H4.43522C4.32471 5.13806 4.21873 5.18196 4.14059 5.2601C4.06245 5.33824 4.01855 5.44422 4.01855 5.55473C4.01855 5.66524 4.06245 5.77122 4.14059 5.84936C4.21873 5.9275 4.32471 5.97139 4.43522 5.97139V5.97139Z" fill="#171723"/>
</g>
<defs>
<clipPath id="clip0_10325_129871">
<rect width="20" height="20" fill="white"/>
</clipPath>
</defs>
</svg>
