<svg width="24" height="24" viewBox="0 0 24 24" fill="none" xmlns="http://www.w3.org/2000/svg">
<path d="M18.8009 4.58032H5.1988C3.80025 4.58032 2.6665 5.71407 2.6665 7.11262V16.8875C2.6665 18.286 3.80025 19.4198 5.1988 19.4198H18.8009C20.1995 19.4198 21.3332 18.286 21.3332 16.8875V7.11262C21.3332 5.71407 20.1995 4.58032 18.8009 4.58032Z" fill="white"/>
<path d="M18.8013 19.4951H5.19873C4.50746 19.4943 3.84476 19.2193 3.35596 18.7305C2.86716 18.2417 2.59217 17.579 2.59131 16.8877V7.1123C2.59217 6.42104 2.86716 5.75833 3.35596 5.26953C3.84476 4.78073 4.50746 4.50575 5.19873 4.50488H18.8013C19.4925 4.50575 20.1552 4.78073 20.644 5.26953C21.1328 5.75833 21.4078 6.42104 21.4087 7.1123V16.8877C21.4078 17.579 21.1328 18.2417 20.644 18.7305C20.1552 19.2193 19.4925 19.4943 18.8013 19.4951ZM5.19873 4.65527C4.54735 4.65613 3.9229 4.91526 3.46231 5.37586C3.00172 5.83645 2.74258 6.4609 2.74173 7.11227V16.8877C2.74258 17.539 3.00172 18.1635 3.46231 18.6241C3.9229 19.0847 4.54735 19.3438 5.19873 19.3447H18.8013C19.4526 19.3438 20.0771 19.0847 20.5377 18.6241C20.9983 18.1635 21.2574 17.539 21.2583 16.8877V7.1123C21.2574 6.46093 20.9983 5.83648 20.5377 5.37589C20.0771 4.91529 19.4526 4.65616 18.8013 4.6553L5.19873 4.65527Z" fill="#E4E4E4"/>
<path d="M10.3233 10.0779L8.65641 13.9964H7.56841L6.74873 10.8695C6.74075 10.7959 6.71406 10.7256 6.67119 10.6652C6.62832 10.6048 6.5707 10.5564 6.50383 10.5246C6.18021 10.3725 5.83914 10.2607 5.48828 10.1916L5.51348 10.0779H7.2639C7.37759 10.0771 7.48783 10.1169 7.57479 10.1902C7.66175 10.2634 7.71972 10.3653 7.73829 10.4774L8.17171 12.7454L9.24225 10.078H10.3233L10.3233 10.0779ZM14.5848 12.7164C14.5896 11.6828 13.133 11.6265 13.1435 11.1641C13.1463 11.023 13.2821 10.8736 13.5795 10.8359C13.9272 10.8031 14.2775 10.8634 14.5942 11.0107L14.7747 10.1802C14.4666 10.0664 14.1409 10.0076 13.8124 10.0067C12.7955 10.0067 12.0796 10.5395 12.0735 11.302C12.0668 11.8658 12.5843 12.1805 12.9746 12.3683C13.3753 12.5604 13.5093 12.6831 13.5079 12.8554C13.5053 13.1184 13.1882 13.2334 12.8924 13.2385C12.5247 13.2465 12.161 13.1613 11.8351 12.9908L11.6488 13.8499C12.0143 13.9892 12.4023 14.0598 12.7934 14.0583C13.8743 14.0583 14.5814 13.5311 14.5848 12.7164ZM17.2703 13.9964H18.2222L17.3916 10.078H16.5129C16.4196 10.0769 16.3281 10.1037 16.2501 10.1548C16.1721 10.206 16.111 10.2792 16.0748 10.3652L14.5318 13.9964H15.6118L15.8262 13.4112H17.1464L17.2703 13.9964ZM16.1222 12.608L16.664 11.1367L16.9758 12.608H16.1222ZM11.7937 10.0779L10.9424 13.9964H9.9132L10.7647 10.0779H11.7937Z" fill="#1A2ADF"/>
</svg>
