<svg width="20" height="20" viewBox="0 0 20 20" fill="none" xmlns="http://www.w3.org/2000/svg">
<g clip-path="url(#clip0_10314_145595)">
<path d="M9.99674 9.9561C10.3559 9.95546 10.7068 9.8484 11.0052 9.64844C11.3036 9.44847 11.536 9.16458 11.6731 8.83261C11.8102 8.50064 11.8459 8.13549 11.7756 7.78326C11.7053 7.43103 11.5322 7.10754 11.2782 6.85362C11.0241 6.59971 10.7006 6.42676 10.3483 6.35663C9.99606 6.2865 9.63092 6.32233 9.29901 6.4596C8.9671 6.59686 8.68331 6.8294 8.48349 7.12785C8.28366 7.4263 8.17675 7.77727 8.17627 8.13644C8.17771 8.61875 8.37 9.08087 8.71112 9.42183C9.05223 9.7628 9.51444 9.95488 9.99674 9.9561ZM9.99674 7.155C10.1913 7.15564 10.3813 7.21395 10.5427 7.32256C10.7042 7.43117 10.8298 7.5852 10.9037 7.76518C10.9775 7.94516 10.9964 8.14301 10.9579 8.33372C10.9194 8.52443 10.8252 8.69943 10.6872 8.83661C10.5492 8.97378 10.3737 9.06697 10.1827 9.1044C9.99182 9.14182 9.79408 9.1218 9.61453 9.04686C9.43498 8.97193 9.28168 8.84544 9.17401 8.68339C9.06633 8.52134 9.00912 8.331 9.0096 8.13644C9.01137 7.87571 9.11611 7.62623 9.30102 7.44239C9.48593 7.25855 9.736 7.15524 9.99674 7.15498V7.155Z" fill="#171723"/>
<path d="M11.0775 10.3761H8.92172C8.37801 10.3759 7.85641 10.5913 7.47134 10.9751C7.08627 11.359 6.86917 11.8799 6.86768 12.4236V12.7841C6.86834 13.0213 6.96303 13.2486 7.13099 13.4161C7.29895 13.5836 7.52647 13.6776 7.76368 13.6777H12.2355C12.4727 13.6776 12.7002 13.5836 12.8682 13.4161C13.0362 13.2486 13.1309 13.0213 13.1315 12.7841V12.4236C13.13 11.8799 12.9129 11.359 12.5279 10.9751C12.1428 10.5913 11.6212 10.3759 11.0775 10.3761ZM12.2982 12.7841C12.2978 12.8004 12.2911 12.8159 12.2793 12.8272C12.2676 12.8385 12.2518 12.8447 12.2355 12.8444H7.76368C7.74739 12.8447 7.73165 12.8385 7.7199 12.8272C7.70815 12.8159 7.70136 12.8004 7.70102 12.7841V12.4236C7.70223 12.1008 7.83143 11.7917 8.06029 11.5641C8.28914 11.3365 8.59895 11.2089 8.92173 11.2095H11.0775C11.4003 11.2089 11.7101 11.3365 11.9389 11.5641C12.1678 11.7917 12.297 12.1008 12.2982 12.4236V12.7841Z" fill="#171723"/>
<path d="M17.2046 8.05015H16.1087C15.999 7.71034 15.8609 7.38037 15.6959 7.06372L16.4738 6.28582C16.5673 6.19288 16.6412 6.08211 16.6911 5.96007C16.741 5.83803 16.7659 5.70721 16.7643 5.57537C16.7642 5.44747 16.7386 5.32088 16.6888 5.20305C16.6391 5.08523 16.5662 4.97856 16.4746 4.88934L15.1098 3.51645C14.9228 3.33602 14.6727 3.23566 14.4129 3.23672C14.153 3.23779 13.9038 3.34019 13.7182 3.52215L12.9366 4.30382C12.6185 4.13802 12.2871 3.99937 11.9457 3.88934V2.79135C11.9471 2.66189 11.9226 2.53345 11.8736 2.41358C11.8247 2.2937 11.7524 2.18479 11.6608 2.09324C11.5693 2.00168 11.4604 1.92932 11.3405 1.88039C11.2206 1.83145 11.0922 1.80694 10.9627 1.80828H9.03727C8.77554 1.80746 8.52418 1.91051 8.33835 2.09482C8.15251 2.27912 8.04739 2.52963 8.04606 2.79135V3.89228C7.70758 4.00176 7.37887 4.1394 7.06337 4.30375L6.27603 3.51645C6.08892 3.33575 5.83862 3.2353 5.57851 3.23652C5.31839 3.23773 5.06904 3.34052 4.88362 3.52296L3.5319 4.88283C3.43857 4.97246 3.36424 5.07997 3.31335 5.19895C3.26246 5.31792 3.23604 5.44593 3.23567 5.57533C3.23407 5.70717 3.25896 5.83799 3.30886 5.96003C3.35877 6.08207 3.43268 6.19284 3.5262 6.28578L4.30363 7.06322C4.13851 7.38002 4.00032 7.71015 3.89052 8.0501H2.79622C2.5344 8.04926 2.28293 8.15228 2.09696 8.33658C1.911 8.52088 1.80571 8.7714 1.8042 9.03322V10.9587C1.80457 11.2216 1.90923 11.4736 2.09522 11.6594C2.2812 11.8453 2.53331 11.9497 2.79622 11.9499H3.89109C4.00084 12.2896 4.13897 12.6196 4.30404 12.9362L3.52538 13.7142C3.34123 13.8999 3.23791 14.1509 3.23791 14.4125C3.23791 14.674 3.34123 14.925 3.52538 15.1107L4.89013 16.4836C5.07536 16.6631 5.32313 16.7634 5.58105 16.7635C5.84286 16.763 6.09418 16.6606 6.28173 16.4779L7.064 15.6956C7.3793 15.8599 7.7078 15.9974 8.04606 16.1069V17.2087C8.0474 17.4704 8.15252 17.7209 8.33835 17.9052C8.52418 18.0895 8.77554 18.1926 9.03727 18.1917H10.9627C11.0922 18.1931 11.2206 18.1686 11.3405 18.1197C11.4604 18.0707 11.5693 17.9984 11.6609 17.9068C11.7524 17.8153 11.8248 17.7064 11.8737 17.5865C11.9226 17.4666 11.9471 17.3382 11.9458 17.2087V16.1098C12.2869 15.9998 12.6181 15.8613 12.9359 15.6956L13.724 16.4836C13.9089 16.6629 14.1564 16.7631 14.4141 16.7627C14.6764 16.7625 14.9283 16.66 15.1164 16.4771L16.4746 15.1107C16.6588 14.9248 16.7621 14.6736 16.762 14.4119C16.7618 14.1502 16.6582 13.8991 16.4738 13.7134L15.6954 12.9358C15.8604 12.6193 15.9984 12.2895 16.1081 11.95H17.2045C17.4674 11.9498 17.7194 11.8453 17.9052 11.6594C18.0911 11.4736 18.1956 11.2216 18.1957 10.9587V9.03322C18.1944 8.7715 18.0893 8.52101 17.9035 8.3367C17.7177 8.1524 17.4663 8.04934 17.2046 8.05015ZM10 15.5803C9.14954 15.5837 8.30961 15.3919 7.54488 15.0197C6.78016 14.6475 6.11104 14.1048 5.58904 13.4333C5.06704 12.7619 4.70607 11.9796 4.53394 11.1467C4.3618 10.3138 4.38308 9.45249 4.59614 8.62911L4.5963 8.62855C4.8535 7.61647 5.38964 6.6969 6.14371 5.97451C6.89778 5.25212 7.83949 4.75592 8.86168 4.54237C9.88387 4.32882 10.9455 4.4065 11.9257 4.76658C12.9059 5.12665 13.7654 5.75466 14.4062 6.57912C15.0471 7.40359 15.4437 8.39141 15.5508 9.43015C15.6579 10.4689 15.4713 11.5169 15.0122 12.4548C14.5531 13.3927 13.8399 14.1829 12.9538 14.7354C12.0677 15.288 11.0443 15.5807 10 15.5803ZM14.3018 4.11704C14.3314 4.08795 14.3709 4.07112 14.4124 4.06991C14.4539 4.06871 14.4943 4.08321 14.5256 4.11053L15.8903 5.48341C15.9034 5.49638 15.9137 5.51186 15.9207 5.52892C15.9277 5.54597 15.9312 5.56426 15.931 5.5827C15.9312 5.60381 15.9272 5.62476 15.9192 5.64431C15.9113 5.66387 15.8995 5.68165 15.8846 5.69663L15.2521 6.32913C14.821 5.71413 14.2859 5.179 13.671 4.7478L14.3018 4.11704ZM8.87939 2.79135C8.87972 2.77109 8.88409 2.7511 8.89224 2.73255C8.90039 2.714 8.91216 2.69726 8.92687 2.68331C8.94157 2.66937 8.95891 2.6585 8.97786 2.65134C8.99682 2.64417 9.01702 2.64087 9.03727 2.64161H10.9627C10.9826 2.64087 11.0024 2.64424 11.0209 2.65151C11.0394 2.65877 11.0562 2.66977 11.0702 2.68383C11.0843 2.69788 11.0953 2.71468 11.1026 2.73318C11.1098 2.75168 11.1132 2.77148 11.1125 2.79135V3.68885C10.3745 3.55084 9.61724 3.55125 8.87939 3.69006V2.79135ZM4.11539 5.69661C4.1005 5.68164 4.08874 5.66386 4.08077 5.6443C4.07281 5.62474 4.06881 5.6038 4.06901 5.58268C4.06915 5.56274 4.07342 5.54305 4.08154 5.52485C4.08966 5.50664 4.10147 5.49031 4.11621 5.47689L5.46793 4.11704C5.49809 4.08858 5.53769 4.07227 5.57914 4.07122C5.62059 4.07017 5.66097 4.08446 5.69253 4.11135L6.32888 4.74769C5.71391 5.17885 5.17882 5.71392 4.74762 6.32885L4.11539 5.69661ZM2.79622 11.1165C2.77544 11.1166 2.75484 11.1126 2.73561 11.1047C2.71638 11.0968 2.6989 11.0852 2.68416 11.0705C2.66942 11.0558 2.65772 11.0384 2.64972 11.0192C2.64171 11 2.63758 10.9795 2.63753 10.9587V9.03322C2.63975 8.99268 2.65746 8.95454 2.68699 8.92667C2.71652 8.89881 2.75562 8.88335 2.79622 8.88348H3.68932C3.55095 9.62142 3.55104 10.3786 3.68957 11.1166L2.79622 11.1165ZM5.69824 15.883C5.66863 15.9121 5.62912 15.9289 5.58762 15.9301C5.54613 15.9313 5.50571 15.9168 5.47445 15.8895L4.11621 14.5231C4.10138 14.5089 4.08957 14.4918 4.08148 14.4729C4.07339 14.4539 4.06918 14.4336 4.0691 14.413C4.06902 14.3925 4.07308 14.3721 4.08103 14.3531C4.08898 14.3341 4.10066 14.317 4.11537 14.3026L4.74806 13.6705C5.17933 14.2854 5.71447 14.8205 6.32948 15.2517L5.69824 15.883ZM11.1125 17.2087C11.1132 17.2285 11.1098 17.2483 11.1026 17.2668C11.0953 17.2853 11.0843 17.3021 11.0703 17.3162C11.0562 17.3302 11.0394 17.3412 11.0209 17.3485C11.0024 17.3558 10.9826 17.3591 10.9627 17.3584H9.03727C9.01702 17.3591 8.99682 17.3558 8.97787 17.3487C8.95891 17.3415 8.94157 17.3306 8.92687 17.3167C8.91217 17.3028 8.90039 17.286 8.89224 17.2675C8.88409 17.2489 8.87972 17.2289 8.87939 17.2087V16.3091C9.61723 16.448 10.3745 16.4484 11.1125 16.3104L11.1125 17.2087ZM15.8838 14.3018C15.8987 14.3161 15.9105 14.3333 15.9186 14.3523C15.9266 14.3713 15.9308 14.3918 15.9308 14.4124C15.9308 14.4331 15.9266 14.4535 15.9186 14.4726C15.9105 14.4916 15.8987 14.5088 15.8838 14.5231L14.5321 15.883C14.502 15.9116 14.4624 15.9281 14.4209 15.9291C14.3794 15.9302 14.3389 15.9158 14.3075 15.8887L13.6704 15.2516C14.2854 14.8203 14.8205 14.2852 15.2516 13.6701L15.8838 14.3018ZM17.3625 10.9587C17.3624 11.0005 17.3458 11.0407 17.3162 11.0703C17.2866 11.0999 17.2465 11.1165 17.2046 11.1165H16.3097C16.4481 10.3786 16.4482 9.6214 16.3099 8.88346H17.2046C17.2451 8.88349 17.284 8.89903 17.3134 8.92688C17.3427 8.95474 17.3603 8.99279 17.3625 9.0332L17.3625 10.9587Z" fill="#171723"/>
</g>
<defs>
<clipPath id="clip0_10314_145595">
<rect width="20" height="20" fill="white"/>
</clipPath>
</defs>
</svg>
