<svg width="20" height="20" viewBox="0 0 20 20" fill="none" xmlns="http://www.w3.org/2000/svg">
<path d="M9.9987 9.95617C10.358 9.95561 10.709 9.84858 11.0075 9.6486C11.306 9.44863 11.5385 9.16468 11.6757 8.83262C11.8129 8.50056 11.8486 8.13529 11.7783 7.78295C11.7081 7.43061 11.5349 7.107 11.2808 6.85301C11.0267 6.59901 10.703 6.42602 10.3506 6.35589C9.99827 6.28576 9.63302 6.32163 9.30102 6.45897C8.96903 6.59631 8.68518 6.82897 8.48534 7.12755C8.2855 7.42612 8.17863 7.77723 8.17822 8.13651C8.17967 8.61881 8.37196 9.08094 8.71307 9.4219C9.05419 9.76286 9.5164 9.95494 9.9987 9.95617Z" fill="#171723"/>
<path d="M11.0794 10.3752H8.92366C8.37996 10.375 7.85836 10.5904 7.47329 10.9743C7.08822 11.3581 6.87113 11.879 6.86963 12.4227V12.7833C6.87013 13.0206 6.96474 13.248 7.13271 13.4157C7.30068 13.5834 7.5283 13.6776 7.76563 13.6776H12.2375C12.4747 13.6775 12.7022 13.5833 12.87 13.4156C13.0379 13.2479 13.1323 13.0205 13.1326 12.7833V12.4228C13.1312 11.8792 12.9142 11.3584 12.5293 10.9745C12.1444 10.5907 11.623 10.3752 11.0794 10.3752Z" fill="#171723"/>
<path d="M17.2037 8.05022H16.089C15.987 7.71243 15.8522 7.38538 15.6868 7.07371L16.4738 6.28671L16.4746 6.28588C16.568 6.1927 16.6417 6.08174 16.6915 5.95958C16.7412 5.83742 16.766 5.70652 16.7643 5.57462C16.7641 5.44699 16.7384 5.32068 16.6886 5.20315C16.6388 5.08561 16.5661 4.97921 16.4746 4.89021L15.1098 3.51651C14.9227 3.33607 14.6725 3.23571 14.4125 3.23678C14.1525 3.23784 13.9031 3.34024 13.7174 3.52221L12.9298 4.30987C12.6148 4.14405 12.2854 4.00696 11.9458 3.90027V2.79225C11.9456 2.53136 11.8419 2.28121 11.6574 2.09674C11.4729 1.91226 11.2228 1.80854 10.9619 1.80835H9.03727C8.77532 1.80754 8.52375 1.91068 8.33776 2.09514C8.15178 2.27959 8.04657 2.5303 8.04522 2.79225V3.90629C7.70742 4.00868 7.38035 4.14359 7.06861 4.30912L6.27602 3.51653C6.0889 3.33583 5.8386 3.23538 5.57848 3.2366C5.31837 3.23781 5.06901 3.3406 4.8836 3.52304L3.53187 4.88372C3.43867 4.97316 3.36435 5.0804 3.31333 5.19907C3.26231 5.31775 3.23562 5.44546 3.23483 5.57464C3.23326 5.70679 3.25824 5.83791 3.30828 5.96022C3.35833 6.08254 3.43242 6.19356 3.52617 6.28671L4.31327 7.07381C4.14738 7.38543 4.01217 7.71244 3.90957 8.05022H2.79541C2.53368 8.0494 2.28232 8.15245 2.09649 8.33676C1.91065 8.52107 1.80554 8.77157 1.8042 9.0333V10.9588C1.80439 11.2216 1.90888 11.4736 2.09472 11.6594C2.28057 11.8453 2.53258 11.9498 2.79541 11.95H3.91268C4.01858 12.286 4.1533 12.6123 4.31536 12.9251L3.52702 13.7135C3.4346 13.8048 3.3612 13.9135 3.31104 14.0334C3.26089 14.1532 3.23499 14.2818 3.23483 14.4118C3.23468 14.5417 3.26027 14.6704 3.31014 14.7903C3.36001 14.9103 3.43315 15.0192 3.52536 15.1108L4.88929 16.4828C5.07425 16.6634 5.32252 16.7645 5.58102 16.7644C5.84301 16.764 6.09444 16.6612 6.28171 16.478L7.07018 15.6901C7.38351 15.853 7.71061 15.9879 8.04768 16.0932V17.2079C8.04886 17.4698 8.1539 17.7205 8.33975 17.9049C8.52559 18.0894 8.77705 18.1926 9.0389 18.1918H10.9643C11.2251 18.1915 11.4751 18.0877 11.6594 17.9032C11.8437 17.7187 11.9473 17.4687 11.9474 17.2079V16.0989C12.2865 15.9928 12.6154 15.8563 12.9299 15.691L13.7232 16.4837C13.9084 16.6631 14.1562 16.7635 14.4141 16.7636C14.6765 16.763 14.9284 16.6603 15.1164 16.4771L16.4746 15.1108C16.6592 14.9252 16.7628 14.6741 16.7626 14.4124C16.7625 14.1506 16.6586 13.8996 16.4738 13.7143L15.686 12.9265C15.8512 12.6145 15.9864 12.2875 16.0896 11.95H17.2038C17.4667 11.9498 17.7188 11.8454 17.9048 11.6595C18.0908 11.4737 18.1955 11.2217 18.1958 10.9588V9.0333C18.1943 8.77148 18.089 8.52095 17.903 8.33666C17.717 8.15236 17.4656 8.04936 17.2037 8.05022ZM15.3816 11.4373C15.265 11.9182 15.0748 12.3783 14.8177 12.8012C14.3358 13.6434 13.6387 14.3425 12.7978 14.8268C12.3706 15.082 11.9084 15.2736 11.4259 15.3956C11.4059 15.3985 11.3861 15.4028 11.3667 15.4084C10.4469 15.6465 9.48075 15.6396 8.56447 15.3883C8.08427 15.2661 7.62392 15.0762 7.19727 14.8243C6.41007 14.363 5.74887 13.7145 5.27227 12.9365C5.24388 12.8903 5.20924 12.8483 5.18227 12.8012L5.1806 12.7988C4.92753 12.3673 4.73631 11.9024 4.61257 11.4177C4.35484 10.4836 4.35653 9.49695 4.61745 8.56373C4.73269 8.08217 4.92332 7.62185 5.18227 7.1998C5.66433 6.35643 6.36236 5.65672 7.20456 5.17262C7.62957 4.91338 8.09293 4.72304 8.57744 4.60865C9.00022 4.49227 9.43618 4.43056 9.87465 4.42502C9.91386 4.4241 9.95068 4.4176 9.99021 4.41752C10.4724 4.41491 10.9528 4.47701 11.4184 4.60215H11.4185L11.4266 4.60378C11.9114 4.72713 12.3755 4.92069 12.8043 5.17832C13.6468 5.66271 14.3441 6.36415 14.8234 7.20957C15.0829 7.63434 15.273 8.09779 15.3865 8.58245C15.5176 9.04348 15.5822 9.52082 15.5786 10.0001C15.5809 10.486 15.5146 10.9699 15.3816 11.4373Z" fill="#171723"/>
</svg>
