<svg width="20" height="20" viewBox="0 0 20 20" fill="none" xmlns="http://www.w3.org/2000/svg">
<g clip-path="url(#clip0_6394_68550)">
<path d="M14.861 15.9721H5.13851C4.25473 15.9712 3.40739 15.6198 2.78246 14.9948C2.15753 14.3699 1.80606 13.5226 1.80518 12.6388V7.36129C1.80606 6.4775 2.15753 5.63017 2.78246 5.00524C3.40739 4.38031 4.25473 4.02884 5.13851 4.02795H14.861C15.7448 4.02884 16.5921 4.38031 17.2171 5.00524C17.842 5.63017 18.1935 6.4775 18.1943 7.36129V12.6388C18.1935 13.5226 17.842 14.3699 17.2171 14.9948C16.5921 15.6198 15.7448 15.9712 14.861 15.9721ZM5.13851 4.86129C4.47569 4.86201 3.84023 5.12564 3.37154 5.59432C2.90286 6.063 2.63923 6.69847 2.63851 7.36129V12.6388C2.63923 13.3016 2.90286 13.9371 3.37154 14.4058C3.84023 14.8744 4.47569 15.1381 5.13851 15.1388H14.861C15.5238 15.1381 16.1593 14.8744 16.628 14.4058C17.0967 13.9371 17.3603 13.3016 17.361 12.6388V7.36129C17.3603 6.69847 17.0967 6.063 16.628 5.59432C16.1593 5.12564 15.5238 4.86201 14.861 4.86129H5.13851Z" fill="#171723"/>
<path d="M9.02543 12.7202C8.8261 12.7199 8.63069 12.6647 8.46065 12.5607C8.29333 12.4586 8.15531 12.3149 8.06004 12.1436C7.96477 11.9723 7.9155 11.7793 7.91703 11.5833V8.4168C7.91536 8.22098 7.96448 8.02808 8.05962 7.85691C8.15476 7.68575 8.29265 7.54219 8.45984 7.44023C8.62018 7.3419 8.80325 7.28676 8.99122 7.2802C9.17919 7.27364 9.36566 7.31588 9.53246 7.4028L12.4947 9.06133C12.6618 9.1548 12.8009 9.29114 12.8978 9.45629C12.9946 9.62143 13.0457 9.80942 13.0457 10.0009C13.0457 10.1923 12.9946 10.3803 12.8978 10.5454C12.8009 10.7106 12.6618 10.8469 12.4947 10.9404L9.54387 12.5916C9.38388 12.6754 9.20606 12.7195 9.02543 12.7202ZM9.03357 8.11081C8.98399 8.11161 8.93557 8.12596 8.89357 8.15231C8.84852 8.17988 8.81154 8.21885 8.78639 8.2653C8.76124 8.31174 8.74881 8.364 8.75034 8.4168V11.5833C8.74883 11.6362 8.76128 11.6886 8.78642 11.7351C8.81156 11.7817 8.84851 11.8208 8.89357 11.8486C8.9314 11.873 8.97512 11.8867 9.0201 11.8883C9.06508 11.8899 9.10966 11.8792 9.1491 11.8575L12.0877 10.2129C12.1255 10.1918 12.1569 10.1611 12.1788 10.1238C12.2007 10.0865 12.2123 10.0441 12.2123 10.0009C12.2123 9.95764 12.2007 9.9152 12.1788 9.87793C12.1569 9.84066 12.1255 9.80992 12.0877 9.78887L9.13774 8.13685C9.10561 8.11993 9.06988 8.111 9.03357 8.11081Z" fill="#171723"/>
</g>
<defs>
<clipPath id="clip0_6394_68550">
<rect width="20" height="20" fill="white"/>
</clipPath>
</defs>
</svg>
