<svg width="20" height="20" viewBox="0 0 20 20" fill="none" xmlns="http://www.w3.org/2000/svg">
<g clip-path="url(#clip0_5313_35046)">
<path d="M18.0723 17.4836L15.3371 14.7484C15.2858 14.6982 15.2222 14.6623 15.1527 14.6443C15.0832 14.6264 15.0102 14.627 14.941 14.646L14.0358 13.7409C15.317 12.3824 16.0122 10.5743 15.9711 8.70748C15.9301 6.84062 15.1562 5.06486 13.8166 3.76394C12.4771 2.46302 10.6794 1.74142 8.81213 1.75507C6.94487 1.76873 5.15795 2.51654 3.83754 3.83691C2.51714 5.15729 1.76927 6.94418 1.75556 8.81144C1.74185 10.6787 2.46341 12.4764 3.76429 13.816C5.06517 15.1556 6.84091 15.9296 8.70777 15.9706C10.5746 16.0117 12.3827 15.3166 13.7412 14.0355L14.6459 14.9401C14.6265 15.0095 14.6258 15.0827 14.6437 15.1525C14.6616 15.2223 14.6975 15.2861 14.7479 15.3376L17.4831 18.0727C17.5615 18.1496 17.667 18.1924 17.7768 18.1918C17.8866 18.1913 17.9917 18.1474 18.0693 18.0698C18.1469 17.9922 18.1908 17.8871 18.1913 17.7773C18.1919 17.6675 18.1491 17.562 18.0723 17.4836L18.0723 17.4836ZM8.88938 15.139C7.65325 15.139 6.44487 14.7725 5.41707 14.0857C4.38926 13.3989 3.58818 12.4228 3.11513 11.2808C2.64209 10.1388 2.51832 8.88209 2.75947 7.66971C3.00063 6.45733 3.59589 5.34368 4.46996 4.46961C5.34404 3.59553 6.45769 3.00027 7.67007 2.75911C8.88245 2.51796 10.1391 2.64173 11.2812 3.11478C12.4232 3.58782 13.3993 4.3889 14.0861 5.41671C14.7728 6.44452 15.1394 7.65289 15.1394 8.88902C15.1376 10.5461 14.4785 12.1347 13.3068 13.3064C12.1351 14.4782 10.5464 15.1372 8.88938 15.139Z" fill="#171723"/>
<path d="M12.2199 8.46985H5.55729C5.44678 8.46985 5.3408 8.51375 5.26266 8.59189C5.18452 8.67003 5.14062 8.77601 5.14062 8.88652C5.14062 8.99702 5.18452 9.103 5.26266 9.18114C5.3408 9.25928 5.44678 9.30318 5.55729 9.30318H12.2199C12.3304 9.30318 12.4364 9.25928 12.5145 9.18114C12.5926 9.103 12.6365 8.99702 12.6365 8.88652C12.6365 8.77601 12.5926 8.67003 12.5145 8.59189C12.4364 8.51375 12.3304 8.46985 12.2199 8.46985Z" fill="#171723"/>
</g>
<defs>
<clipPath id="clip0_5313_35046">
<rect width="20" height="20" fill="white"/>
</clipPath>
</defs>
</svg>
