<?xml version="1.0" standalone="no"?>
<!DOCTYPE svg PUBLIC "-//W3C//DTD SVG 1.1//EN" "http://www.w3.org/Graphics/SVG/1.1/DTD/svg11.dtd" >
<svg xmlns="http://www.w3.org/2000/svg">
<metadata>Generated by IcoMoon</metadata>
<defs>
<font id="dl-icons" horiz-adv-x="1024">
<font-face units-per-em="1024" ascent="960" descent="-64" />
<missing-glyph horiz-adv-x="1024" />
<glyph unicode="&#x20;" horiz-adv-x="512" d="" />
<glyph unicode="&#xe900;" glyph-name="1" d="M608.794 89.8c-2.806-0.005-5.581 0.548-8.166 1.618-2.591 1.070-4.941 2.642-6.922 4.623s-3.553 4.337-4.623 6.922c-1.075 2.591-1.623 5.366-1.623 8.166v625.418l-157.875-143.771c-2.070-1.897-4.493-3.367-7.131-4.326s-5.441-1.388-8.245-1.262c-2.804 0.126-5.556 0.804-8.098 1.995s-4.824 2.873-6.715 4.947c-1.891 2.075-3.354 4.503-4.305 7.143s-1.372 5.445-1.239 8.248c0.134 2.804 0.819 5.555 2.018 8.093s2.886 4.816 4.966 6.702l193.583 176.292c3.057 2.787 6.856 4.626 10.941 5.292 4.081 0.666 8.269 0.131 12.052-1.54s6.999-4.406 9.257-7.873c2.258-3.466 3.461-7.514 3.456-11.651v-673.705c0.005-2.806-0.548-5.581-1.618-8.166-1.070-2.591-2.642-4.946-4.623-6.927s-4.337-3.548-6.922-4.623c-2.591-1.070-5.366-1.623-8.166-1.618z" />
<glyph unicode="&#xe901;" glyph-name="2" d="M720.394 95.13h-416.752c-4.243 0-8.312 1.69-11.313 4.69s-4.686 7.066-4.687 11.31c-0.563 6.205 0.914 12.421 4.208 17.705 1.541 2.012 3.212 3.917 5 5.709l238.876 242.796c19.584 19.871 38.026 39.25 55.332 58.122 16.128 17.518 30.884 36.255 44.124 56.044 11.971 17.978 21.775 37.306 29.21 57.584 7.091 19.751 10.644 40.598 10.501 61.583 0.609 23.255-3.917 46.359-13.251 67.666-8.069 17.579-19.917 33.159-34.708 45.625-14.664 12.026-31.555 21.045-49.705 26.542-39.603 12.348-82.108 11.794-121.376-1.583-36.759-13.131-67.283-39.523-85.585-74-9.73-18.167-16.322-37.847-19.499-58.208-0.615-5.776-3.341-11.122-7.654-15.013s-9.911-6.052-15.72-6.071h-4.791c-2.278-0.001-4.53 0.485-6.605 1.425s-3.926 2.311-5.429 4.023c-1.503 1.712-2.623 3.724-3.286 5.904s-0.852 4.475-0.557 6.734c3.287 26.906 11.165 53.049 23.291 77.292 11.332 22.533 26.909 42.665 45.876 59.292 18.93 16.365 40.748 29.054 64.333 37.416 48.622 16.596 101.235 17.457 150.377 2.459 23.521-6.964 45.404-18.599 64.333-34.209 19.384-16.223 35.011-36.469 45.788-59.333 12.293-26.951 18.294-56.346 17.546-85.958 0.179-26.031-4.25-51.888-13.087-76.374-8.704-23.419-20.25-45.682-34.376-66.292-14.746-21.432-31.099-41.712-48.916-60.671-17.956-19.292-36.915-38.999-56.663-59.085l-206.585-210.749c4 0.087 8.167 0.087 12.501 0.087h344.459c2.749 0.097 5.494-0.369 8.054-1.372s4.89-2.524 6.84-4.465c1.951-1.946 3.482-4.265 4.495-6.825 1.014-2.555 1.49-5.294 1.403-8.049v-5.75c0-4.244-1.69-8.31-4.69-11.31s-7.071-4.69-11.31-4.69z" />
<glyph unicode="&#xe902;" glyph-name="3" d="M513.413 95.135c-24.767-0.323-49.47 2.55-73.502 8.54-19.554 4.987-38.337 12.611-55.832 22.666-15.273 8.832-28.997 20.106-40.625 33.377-10.264 11.791-19.206 24.673-26.666 38.415-6.844 12.58-12.52 25.759-16.958 39.373-4.042 12.713-7.375 24.504-9.958 35.543-0.809 3.456-0.446 7.086 1.032 10.317 1.478 3.226 3.988 5.873 7.135 7.516 3.99 2.299 8.482 3.589 13.084 3.753 3.999 0.087 7.943-0.942 11.388-2.97 3.445-2.033 6.254-4.987 8.111-8.53 1.968-3.896 3.478-8.008 4.5-12.252 1-4.874 2.666-11.080 5.167-19.456 2.954-9.247 6.748-18.202 11.334-26.752 5.8-10.931 12.593-21.309 20.291-31.002 8.737-10.865 19.145-20.275 30.834-27.873 14.32-9.185 29.88-16.271 46.208-21.043 20.965-5.893 42.685-8.658 64.46-8.207 26.808-0.604 53.443 4.449 78.162 14.833 20.726 8.97 39.537 21.827 55.419 37.878 14.193 14.525 25.462 31.642 33.208 50.417 7.025 16.814 10.757 34.816 10.998 53.038 0.184 19.543-3.395 38.938-10.542 57.124-7.153 17.29-18.391 32.589-32.748 44.585-17.541 14.177-37.724 24.724-59.377 31.043-29.379 8.407-59.817 12.518-90.373 12.206-4.215 0.046-8.243 1.751-11.207 4.746s-4.627 7.041-4.626 11.256v7.5c0.009 4.155 1.629 8.144 4.52 11.129s6.827 4.731 10.98 4.871c25.124 0.517 50.028 4.743 73.918 12.544 20.009 6.444 38.615 16.623 54.83 30 14.387 11.995 25.964 27.001 33.92 43.959 8.187 17.708 12.273 37.035 11.955 56.542 0.584 21.805-3.64 43.47-12.37 63.458-7.521 16.544-18.744 31.141-32.794 42.666-14.147 11.351-30.403 19.778-47.831 24.792-39.199 11.707-81.053 11.009-119.836-2-18.159-6.485-34.967-16.26-49.584-28.835-14.379-12.529-26.401-27.529-35.498-44.292-9.669-17.916-16.22-37.346-19.375-57.459-0.489-5.641-3.043-10.904-7.172-14.779s-9.543-6.090-15.204-6.221h-4.751c-2.273 0.001-4.521 0.485-6.593 1.422s-3.92 2.305-5.422 4.012c-1.502 1.707-2.623 3.714-3.289 5.888s-0.861 4.465-0.572 6.72c3.207 26.671 11.017 52.583 23.083 76.584 11.206 22.295 26.613 42.215 45.375 58.666 18.718 16.179 40.278 28.74 63.584 37.042 47.878 16.237 99.612 17.241 148.083 2.875 22.62-6.56 43.771-17.41 62.295-31.957 18.985-15.231 34.196-34.637 44.457-56.709 11.638-25.694 17.331-53.679 16.666-81.877 0.251-23.438-4.582-46.652-14.167-68.042-8.883-19.954-21.402-38.082-36.915-53.458-15.176-14.914-32.63-27.319-51.707-36.75 5.248-1.792 10.332-3.75 15.247-5.833 21.709-9.070 41.472-22.223 58.209-38.751 15.79-15.954 28.052-35.046 35.999-56.044 8.253-21.929 12.375-45.194 12.17-68.623 0.020-26.209-5.699-52.106-16.753-75.873-11.121-23.859-26.87-45.276-46.331-63.002-20.47-18.406-44.14-32.911-69.837-42.793-28.14-10.803-58.066-16.205-88.207-15.913z" />
<glyph unicode="&#xe903;" glyph-name="3d-rotate" d="M391.8 347.453c-5.926-5.545-12.908-9.994-20.583-13.128-17.545-5.888-36.583-6.651-54.602-2.196-6.064 1.644-11.842 4.096-17.155 7.286-3.938 2.36-7.451 5.289-10.406 8.678-2.971 3.512-5.611 7.26-7.889 11.197-1.646 2.816-2.986 5.775-4.002 8.842-0.972 3.108-1.716 5.412-2.173 7.393-0.724 3.876-2.425 7.532-4.96 10.665-2.535 3.139-5.832 5.663-9.617 7.363-3.785 1.705-7.948 2.534-12.145 2.427s-8.306-1.152-11.985-3.046c-4.077-2.176-7.3-5.519-9.194-9.544-1.894-4.019-2.359-8.504-1.327-12.795 1.257-5.089 2.859-10.552 4.918-16.502 2.329-6.636 5.275-13.071 8.805-19.231 3.922-6.636 8.579-12.867 13.894-18.591 6.339-6.784 13.812-12.554 22.127-17.091 9.033-4.874 18.725-8.586 28.815-11.034 12.199-2.893 24.754-4.265 37.336-4.070 15.552-0.128 30.991 2.488 45.511 7.711 13.295 4.869 25.553 11.924 36.192 20.844 10.253 8.781 18.55 19.379 24.415 31.176 5.935 11.93 8.999 24.934 8.976 38.093 0.107 11.617-2.084 23.153-6.461 34.017-4.326 10.762-11.028 20.547-19.668 28.718-4.422 4.167-9.287 7.901-14.52 11.142 1.602 1.286 3.088 2.625 4.575 3.964 8.293 7.768 15.015 16.88 19.84 26.894 5.197 10.882 7.83 22.686 7.718 34.608 0.309 14.089-2.778 28.062-9.033 40.877-5.676 11.232-13.981 21.12-24.297 28.93-9.845 7.285-21.108 12.707-33.162 15.964-25.078 6.875-51.804 6.37-76.566-1.447-12.304-4.128-23.684-10.36-33.562-18.378-9.902-8.161-18.052-18.016-24.014-29.037-6.185-11.6-10.226-24.099-11.95-36.965-0.208-2.979 0.248-5.966 1.341-8.77s2.798-5.364 5.006-7.516c2.278-2.223 5.012-3.99 8.039-5.196s6.282-1.826 9.571-1.822c5.858 0.614 11.37 2.91 15.781 6.573s7.506 8.515 8.861 13.89c1.157 7.017 3.594 13.794 7.204 20.037 6.561 11.577 17.517 20.427 30.703 24.804 14.702 4.488 30.511 4.694 45.34 0.589 6.099-1.621 11.78-4.392 16.695-8.143 4.665-3.559 8.351-8.116 10.749-13.286 3.043-6.661 4.487-13.866 4.231-21.108 0.15-6.116-1.17-12.185-3.862-17.758s-6.687-10.508-11.69-14.439c-5.998-4.589-12.864-8.078-20.24-10.286-9.465-2.869-19.327-4.422-29.274-4.608-6.005-0.906-11.461-3.809-15.367-8.178s-6.002-9.91-5.902-15.608c-0.008-5.432 2.279-10.644 6.361-14.5s9.627-6.036 15.422-6.072c12.45 0.179 24.858-1.372 36.821-4.608 7.94-2.094 15.349-5.668 21.784-10.501 4.75-3.671 8.462-8.381 10.806-13.711 2.503-6.083 3.745-12.559 3.659-19.077-0.067-5.985-1.389-11.899-3.888-17.408-2.792-6.349-6.868-12.134-12.004-17.029zM754.427 565.443c-14.423 14.244-32.036 25.315-51.574 32.412-20.48 7.383-42.266 11.073-64.205 10.875h-106.916c-5.827-0.002-11.407-2.169-15.524-6.027s-6.432-9.090-6.434-14.545v-280.349c0.002-5.458 2.317-10.685 6.434-14.546 4.116-3.855 9.697-6.026 15.524-6.026h106.916c21.96-0.195 43.761 3.497 64.266 10.875 19.487 7.101 37.059 18.15 51.456 32.358 14.669 14.72 25.938 32.118 33.106 51.108 15.38 43.039 15.401 89.599 0.056 132.65-7.153 19.025-18.427 36.461-33.106 51.214zM741.161 396.954c-4.874-13.158-12.534-25.257-22.523-35.574-9.513-9.431-21.156-16.758-34.079-21.427-14.669-5.166-30.239-7.726-45.911-7.552h-79.759v231.167h79.759c15.672 0.164 31.242-2.416 45.911-7.608 12.877-4.699 24.489-11.997 34.017-21.375 10.030-10.267 17.7-22.357 22.528-35.519 11.264-33.216 11.284-68.883 0.056-102.112v0zM606.019 918.919l1.449 28.722c0.102 2.069-0.379 4.128-1.393 5.969s-2.529 3.399-4.388 4.518c-1.864 1.119-4.004 1.76-6.211 1.858-2.212 0.098-4.408-0.35-6.374-1.299l-99.608-48.176c-1.965-0.951-3.628-2.369-4.823-4.112s-1.878-3.75-1.982-5.82c-0.104-2.070 0.374-4.128 1.388-5.97s2.527-3.4 4.387-4.519l94.32-56.754c1.859-1.12 4.004-1.761 6.211-1.859 2.212-0.098 4.408 0.351 6.374 1.301s3.625 2.368 4.823 4.112c1.193 1.743 1.879 3.751 1.981 5.821l1.362 27.018c103.716-20.043 196.925-72.889 264.003-149.678 67.072-76.788 103.931-172.85 104.397-272.077 0.092-12.283-0.553-24.561-1.93-36.777-0.758-6.426 1.234-12.877 5.54-17.93s10.578-8.3 17.439-9.032c0.978-0.092 1.961-0.143 2.944-0.143 6.395 0.015 12.564 2.227 17.326 6.226s7.788 9.498 8.504 15.447c1.582 14.019 2.33 28.114 2.237 42.209-0.543 111.744-42.542 219.834-118.794 305.753-76.257 85.918-182.021 144.317-299.182 165.192zM441.279 62.659c-1.86 1.121-4.002 1.761-6.212 1.864-2.209 0.097-4.407-0.348-6.373-1.3-1.966-0.947-3.631-2.365-4.826-4.106-1.196-1.746-1.881-3.753-1.987-5.821l-1.372-27.013c-103.697 20.065-196.888 72.909-263.963 149.678s-103.963 172.8-104.484 272.015c-0.066 12.314 0.579 24.622 1.932 36.871 0.741 6.431-1.274 12.874-5.603 17.912s-10.615 8.26-17.478 8.955c-6.825 0.517-13.601-1.438-18.935-5.46s-8.819-9.808-9.738-16.166c-1.556-13.989-2.302-28.047-2.237-42.111 0.59-111.734 42.607-219.796 118.861-305.7s182.002-144.297 299.143-165.192l-1.458-28.718c-0.105-2.068 0.373-4.127 1.386-5.97s2.526-3.4 4.387-4.521c1.86-1.121 4.003-1.761 6.212-1.859 2.209-0.102 4.407 0.348 6.372 1.295l99.632 48.133c1.966 0.952 3.63 2.371 4.823 4.111 1.193 1.746 1.879 3.753 1.987 5.821 0.102 2.068-0.374 4.127-1.388 5.97s-2.524 3.4-4.388 4.521l-94.293 56.791z" />
<glyph unicode="&#xe904;" glyph-name="4" d="M618.168 95.13h-11.5c-4.244 0-8.31 1.684-11.31 4.685s-4.69 7.071-4.69 11.315v191.585h-317.458c-3.347-0.271-6.714 0.169-9.881 1.285-3.166 1.121-6.061 2.898-8.494 5.212-2.37 2.432-4.164 5.366-5.25 8.581-0.25 0.671-1.417 5.171-1.542 5.878-0.553 2.299-0.59 4.69-0.107 6.999 0.483 2.314 1.473 4.49 2.898 6.374l347.877 457.46c1.49 1.968 3.42 3.564 5.632 4.662s4.644 1.671 7.117 1.671h6.707c4.244-0.001 8.315-1.688 11.315-4.688s4.685-7.069 4.685-11.312v-440.502h126.249c4.244 0 8.315-1.684 11.315-4.685s4.685-7.071 4.685-11.315c0.42-3.297 0.108-6.651-0.906-9.82-1.019-3.164-2.714-6.072-4.972-8.515-2.263-2.442-5.028-4.362-8.11-5.622-3.077-1.254-6.395-1.828-9.718-1.664h-118.543v-191.585c0-4.244-1.684-8.315-4.685-11.315s-7.071-4.685-11.315-4.685zM309.295 344.335h281.374v370.085l-281.374-370.085z" />
<glyph unicode="&#xe905;" glyph-name="5" d="M482.040 95.13c-17.545-0.041-35.058 1.48-52.333 4.541-15.795 2.796-31.375 6.692-46.626 11.668-13.812 4.541-27.255 10.143-40.208 16.748-11.217 5.688-21.96 12.262-32.125 19.666-1.704 1.26-3.142 2.842-4.23 4.664-1.087 1.818-1.803 3.83-2.105 5.929s-0.185 4.234 0.345 6.282c0.529 2.053 1.461 3.978 2.74 5.668l2.875 3.789c2.086 2.934 4.86 5.304 8.079 6.912s6.783 2.396 10.379 2.299c8.355-0.947 16.301-4.127 23-9.211 22.712-13.128 47.18-22.948 72.667-29.164 43.943-10.143 89.831-7.982 132.624 6.252 23.035 7.875 44.114 20.598 61.814 37.309 17.705 16.712 31.621 37.023 40.812 59.561 10.89 26.598 16.22 55.142 15.667 83.876 0.195 23.619-3.482 47.109-10.875 69.545-6.605 19.917-17.613 38.088-32.21 53.165-15.77 15.721-34.821 27.759-55.793 35.25-45.978 14.261-94.715 17.22-142.081 8.625-23.343-3.324-46.488-7.914-69.333-13.75-3.5-0.935-7.216-0.61-10.5 0.916l-8.583 3.875c-3.247 1.471-5.911 3.982-7.571 7.136s-2.222 6.772-1.596 10.281l50.417 280.708c0.664 3.694 2.606 7.036 5.485 9.443s6.513 3.725 10.266 3.724h285.497c4.244-0.001 8.315-1.688 11.315-4.688s4.685-7.069 4.685-11.312v-4.792c-0.015-3.020-0.671-6.002-1.92-8.752s-3.067-5.204-5.33-7.205c-4.265-3.734-9.743-5.792-15.416-5.792h-255.998l-41.208-226.625c16.25 3.584 31.709 6.375 46.208 8.333 53.344 9.159 108.109 5.343 159.668-11.125 26.67-9.436 51.011-24.483 71.373-44.125 19.487-19.166 34.376-42.5 43.54-68.249 9.743-27.469 14.566-56.443 14.254-85.586 0.527-34.222-6.083-68.183-19.42-99.707-12.16-28.083-29.957-53.366-52.291-74.291-22.031-20.229-47.867-35.881-75.996-46.044-28.82-10.522-59.279-15.857-89.961-15.749z" />
<glyph unicode="&#xe906;" glyph-name="5-sec-back" d="M478.285 233.544c-10.772-0.056-21.528 0.865-32.134 2.749-9.606 1.736-19.084 4.111-28.371 7.117-8.482 2.821-16.742 6.272-24.711 10.322-7.010 3.533-13.712 7.649-20.033 12.303-2.060 1.526-3.799 3.446-5.117 5.642-1.317 2.202-2.188 4.639-2.561 7.178-0.373 2.534-0.242 5.12 0.386 7.603 0.629 2.488 1.741 4.828 3.275 6.881 9.61 13.983 22.88 14.797 39.252 4.931 5.043-2.918 10.255-5.53 15.609-7.828 7.668-3.277 15.592-5.908 23.693-7.88 23.448-5.422 47.935-4.275 70.775 3.302 12.006 4.076 22.989 10.696 32.195 19.41s16.415 19.318 21.14 31.078c5.77 14.111 8.571 29.251 8.238 44.488 0.118 12.539-1.823 25.006-5.745 36.915-3.328 10.076-8.888 19.272-16.271 26.895-8.084 8.030-17.843 14.175-28.575 18.001-24.97 7.713-51.443 9.232-77.131 4.425-13.167-1.87-26.221-4.467-39.101-7.779-4.247-1.068-8.73-0.655-12.711 1.169l-4.983 2.238c-3.978 1.778-7.246 4.837-9.283 8.689s-2.724 8.275-1.953 12.564l29.187 162.445c0.81 4.507 3.179 8.586 6.692 11.523s7.947 4.545 12.527 4.543h165.247c5.176-0.001 10.143-2.059 13.804-5.72s5.719-8.626 5.719-13.804v-2.797c-0.369-6.25-2.985-12.156-7.373-16.626-4.552-3.698-10.158-5.869-16.015-6.203h-139.569l-19.629-107.842c4.27 0.712 8.492 1.373 12.61 1.932 32.489 5.55 65.84 3.178 97.215-6.915 16.814-5.975 32.154-15.474 44.995-27.863 12.329-12.202 21.78-27.001 27.663-43.319 6.026-17.039 9.016-35.005 8.847-53.079 0.328-21.233-3.794-42.291-12.104-61.829-7.572-17.567-18.724-33.357-32.742-46.372-13.701-12.657-29.793-22.441-47.334-28.774-17.823-6.513-36.654-9.8-55.624-9.718zM499.16 959.55c-132.264 5.568-261.477-40.714-360.128-128.991l-40.485 40.513c-1.576 1.578-3.54 2.714-5.695 3.293s-4.423 0.579-6.578 0.003c-2.155-0.577-4.12-1.711-5.698-3.288s-2.712-3.542-3.29-5.697l-43.31-161.469c-0.485-1.809-0.485-3.714 0-5.522s1.437-3.459 2.76-4.784c1.324-1.325 2.973-2.278 4.782-2.763s3.713-0.487 5.523-0.004l161.496 43.203c2.156 0.575 4.121 1.709 5.7 3.286s2.714 3.54 3.292 5.695c0.578 2.154 0.579 4.423 0.002 6.578s-1.712 4.12-3.289 5.698l-38.407 38.432c52.909 46.586 115.846 80.347 183.921 98.659s139.457 20.683 208.596 6.929c91.612-17.37 175.652-62.532 240.686-129.347 65.039-66.814 107.924-152.039 122.819-244.085 14.203-85.645 4.086-173.56-29.21-253.74s-88.422-149.402-159.119-199.798c-70.697-50.391-154.117-79.928-240.769-85.248-86.654-5.32-173.061 13.788-249.39 55.153-38.119 17.956-71.539 44.529-97.615 77.624-2.148 2.857-4.861 5.238-7.969 6.999s-6.546 2.862-10.099 3.236c-3.553 0.374-7.144 0.015-10.552-1.055-3.408-1.075-6.558-2.836-9.254-5.181s-4.882-5.217-6.421-8.443c-1.539-3.22-2.397-6.728-2.522-10.301-0.124-3.569 0.487-7.127 1.796-10.45s3.29-6.344 5.816-8.868c73.441-73.375 167.451-122.685 269.563-141.399 102.112-18.719 207.503-5.944 302.187 36.613 94.689 42.563 174.203 112.901 227.994 201.687 53.791 88.791 79.319 191.836 73.201 295.468-8.069 126.55-62.577 245.665-153.062 334.499-90.491 88.835-210.591 141.134-337.269 146.866z" />
<glyph unicode="&#xe907;" glyph-name="5-sec-next" d="M511.005 233.498c-10.774-0.041-21.529 0.896-32.134 2.801-9.606 1.731-19.084 4.111-28.371 7.117-8.482 2.821-16.742 6.272-24.711 10.322-7.044 3.548-13.779 7.68-20.134 12.355-4.122 3.103-6.847 7.711-7.581 12.815-0.734 5.11 0.585 10.296 3.666 14.438 8.999 13.22 18.863 17.183 39.252 4.931 5.043-2.918 10.255-5.535 15.609-7.828 7.666-3.292 15.591-5.944 23.694-7.936 23.456-5.361 47.93-4.204 70.776 3.359 11.996 4.076 22.973 10.691 32.174 19.395 9.206 8.704 16.425 19.292 21.161 31.043 5.765 14.111 8.571 29.251 8.238 44.488 0.113 12.554-1.828 25.042-5.745 36.966-3.328 10.076-8.888 19.272-16.271 26.895-8.084 8.030-17.843 14.176-28.575 18.002-24.996 7.667-51.479 9.168-77.182 4.374-13.152-1.832-26.19-4.412-39.049-7.729-4.247-1.070-8.731-0.657-12.711 1.17l-4.983 2.239c-3.978 1.778-7.246 4.837-9.283 8.689s-2.725 8.275-1.954 12.564l29.185 162.448c0.81 4.507 3.179 8.586 6.692 11.523s7.947 4.546 12.527 4.545h165.248c5.176-0.002 10.143-2.059 13.804-5.72s5.719-8.627 5.719-13.805v-2.797c-0.369-6.25-2.99-12.156-7.373-16.626-4.557-3.698-10.158-5.868-16.015-6.203h-139.57l-19.629-107.892c4.27 0.762 8.44 1.423 12.559 1.982 32.504 5.564 65.876 3.192 97.267-6.915 16.799-6.004 32.133-15.5 44.995-27.863 12.329-12.203 21.775-27.001 27.663-43.318 6.021-17.044 9.016-35.005 8.847-53.084 0.328-21.228-3.794-42.286-12.104-61.824-7.444-17.372-18.401-33.014-32.184-45.947s-30.090-22.876-47.898-29.204c-17.812-6.533-36.649-9.841-55.621-9.769zM524.805 959.55c132.265 5.568 261.478-40.714 360.131-128.991l40.484 40.513c1.577 1.578 3.543 2.714 5.693 3.293 2.156 0.579 4.424 0.579 6.579 0.003s4.122-1.711 5.699-3.288c1.577-1.577 2.714-3.542 3.287-5.697l43.31-161.469c0.486-1.809 0.486-3.714 0-5.522-0.481-1.809-1.434-3.459-2.76-4.783-1.321-1.325-2.97-2.278-4.782-2.763-1.807-0.486-3.712-0.487-5.519-0.004l-161.495 43.203c-2.156 0.576-4.122 1.709-5.699 3.286-1.582 1.576-2.714 3.541-3.292 5.695s-0.579 4.423-0.005 6.578c0.579 2.155 1.71 4.12 3.292 5.698l38.405 38.432c-52.91 46.586-115.845 80.347-183.921 98.659s-139.459 20.683-208.598 6.929c-91.611-17.37-175.649-62.532-240.687-129.347s-107.92-152.039-122.815-244.084c-14.206-85.645-4.086-173.561 29.207-253.74s88.425-149.402 159.12-199.793c70.695-50.396 154.115-79.933 240.771-85.253 86.651-5.32 173.056 13.788 249.385 55.153 38.124 17.956 71.542 44.529 97.618 77.624 2.15 2.857 4.859 5.238 7.972 6.999 3.108 1.761 6.543 2.862 10.097 3.236 3.553 0.379 7.142 0.015 10.552-1.055 3.405-1.075 6.559-2.836 9.252-5.181 2.698-2.345 4.884-5.217 6.42-8.443 1.541-3.22 2.401-6.728 2.524-10.296 0.123-3.574-0.486-7.132-1.797-10.455s-3.287-6.344-5.816-8.868c-73.441-73.37-167.45-122.685-269.563-141.399-102.108-18.714-207.497-5.944-302.184 36.613-94.687 42.563-174.199 112.901-227.991 201.687-53.792 88.791-79.321 191.836-73.202 295.466 8.068 126.55 62.574 245.665 153.063 334.5s210.59 141.134 337.265 146.866z" />
<glyph unicode="&#xe908;" glyph-name="List-search" d="M138.669 704c0 17.673 14.327 32 32 32h682.666c17.674 0 32-14.327 32-32s-14.326-32-32-32h-682.666c-17.673 0-32 14.327-32 32zM138.669 448c0 17.673 14.327 32 32 32h170.667c17.673 0 32-14.327 32-32s-14.327-32-32-32h-170.667c-17.673 0-32 14.326-32 32zM138.669 192c0 17.674 14.327 32 32 32h170.667c17.673 0 32-14.326 32-32s-14.327-32-32-32h-170.667c-17.673 0-32 14.326-32 32zM640 522.666c53.755 0 105.303-21.352 143.309-59.36s59.361-89.557 59.361-143.307c0-43.602-14.049-85.75-39.644-120.402 3.236-1.531 6.262-3.63 8.934-6.303l106.67-106.67c12.498-12.493 12.498-32.758 0-45.251-12.498-12.498-32.758-12.498-45.256 0l-106.665 106.665c-2.678 2.673-4.777 5.704-6.308 8.934-34.647-25.59-76.8-39.639-120.402-39.639-53.75 0-105.298 21.35-143.305 59.356-38.008 38.011-59.36 89.559-59.36 143.309s21.352 105.298 59.36 143.307c38.007 38.008 89.555 59.36 143.305 59.36zM640 458.666c-36.777 0-72.044-14.609-98.048-40.613-26.010-26.004-40.616-61.276-40.616-98.053s14.607-72.049 40.616-98.053c26.004-26.004 61.271-40.612 98.048-40.612s72.049 14.607 98.053 40.612c26.004 26.004 40.617 61.276 40.617 98.053s-14.612 72.049-40.617 98.053c-26.004 26.004-61.276 40.613-98.053 40.613z" />
<glyph unicode="&#xe909;" glyph-name="Sub-label" d="M49.063 733.866c0 47.129 38.205 85.334 85.333 85.334h256c47.128 0 85.334-38.205 85.334-85.334s-38.205-85.333-85.334-85.333h-256c-47.129 0-85.333 38.205-85.333 85.333zM488.529 264.535c0 11.1 1.571 21.837 4.503 32 13.866 48.051 58.177 83.2 110.698 83.2h256c63.621 0 115.2-51.579 115.2-115.2 0-63.626-51.579-115.2-115.2-115.2h-256c-52.521 0-96.831 35.144-110.698 83.2-2.932 10.158-4.503 20.895-4.503 32zM603.73 320c-30.633 0-55.465-24.832-55.465-55.465s24.832-55.47 55.465-55.47h256c30.633 0 55.465 24.837 55.465 55.47s-24.832 55.465-55.465 55.465h-256zM294.396 648.534h-64v-255.998c0-42.435 16.857-83.133 46.863-113.137 30.006-30.008 70.703-46.863 113.137-46.863h102.636c-2.932 10.158-4.503 20.895-4.503 32 0 11.1 1.571 21.837 4.503 32h-102.636c-25.461 0-49.879 10.112-67.882 28.114-18.003 18.007-28.118 42.424-28.118 67.886v255.998z" />
<glyph unicode="&#xe90a;" glyph-name="Test" d="M639.995 864h-255.998c-17.673 0-32-14.327-32-32s14.327-32 32-32h10.67v-218.333l-168.75-464.086c-3.272-7.675-5.052-15.918-5.042-24.289 0.012-9.58 2.258-19.016 6.541-27.581 4.284-8.571 10.51-16.036 18.167-21.796 7.654-5.75 16.543-9.636 25.958-11.372 1.91-0.353 3.849-0.543 5.792-0.543h469.331c1.946 0 3.881 0.189 5.796 0.543l6.958 1.705c6.825 2.099 13.261 5.356 19 9.667 7.654 5.76 13.88 13.225 18.166 21.796 4.28 8.566 6.528 18.007 6.538 27.581 0.010 8.371-1.772 16.614-5.038 24.289l-168.75 464.086v218.333h10.66c17.674 0 32 14.327 32 32s-14.326 32-32 32zM737.833 96h-451.666l162.916 448h125.832l162.918-448zM565.335 608h-106.669v192h106.669v-192z" />
<glyph unicode="&#xe90b;" glyph-name="account" d="M898.002 908.8h-771.973c-12.915 0.029-25.708-2.487-37.65-7.404s-22.798-12.139-31.948-21.253c-9.15-9.114-16.415-19.941-21.379-31.863s-7.53-24.706-7.553-37.62v-543.207c0.025-26.132 10.411-51.19 28.88-69.678s43.516-28.897 69.649-28.954h771.973c26.132 0.056 51.18 10.465 69.647 28.954s28.856 43.546 28.882 69.678v543.207c-0.026 12.914-2.591 25.698-7.552 37.62-4.966 11.922-12.232 22.75-21.381 31.863s-20.004 16.335-31.949 21.253c-11.94 4.917-24.735 7.432-37.647 7.404zM511.77 774.838c26.348-0.056 52.086-7.923 73.964-22.607s38.912-35.525 48.942-59.888c10.035-24.363 12.616-51.154 7.424-76.985s-17.925-49.543-36.593-68.136c-18.668-18.594-42.429-31.235-68.285-36.325-25.849-5.089-52.63-2.4-76.953 7.73s-45.096 27.244-59.693 49.179c-14.597 21.935-22.362 47.706-22.313 74.054 0.126 35.321 14.25 69.151 39.275 94.077s58.911 38.916 94.232 38.901zM752.179 307.692c-0.010-5.55-1.116-11.049-3.251-16.174s-5.258-9.784-9.19-13.701c-3.932-3.917-8.602-7.025-13.737-9.139s-10.634-3.2-16.189-3.185h-395.592c-5.553-0.015-11.054 1.070-16.189 3.185s-9.803 5.222-13.737 9.139c-3.935 3.917-7.058 8.576-9.193 13.701s-3.24 10.624-3.25 16.174v31.898c0.027 18.985 3.796 37.775 11.091 55.306 7.295 17.526 17.974 33.444 31.426 46.843s29.412 24.016 46.969 31.242 36.366 10.92 55.352 10.872h190.658c18.985 0.048 37.791-3.646 55.347-10.872 17.562-7.226 33.521-17.842 46.971-31.242 13.45-13.394 24.131-29.317 31.427-46.843 7.296-17.531 11.064-36.321 11.090-55.306v-31.898zM969.032-11.807h-914.062c-14.579 0-28.561 5.791-38.87 16.097-10.309 10.312-16.1 24.289-16.1 38.871 0 14.577 5.791 28.559 16.1 38.871 10.309 10.307 24.291 16.097 38.87 16.097h914.062c14.577 0 28.559-5.791 38.866-16.097 10.312-10.312 16.102-24.294 16.102-38.871 0-14.582-5.791-28.559-16.102-38.871-10.307-10.307-24.289-16.097-38.866-16.097z" />
<glyph unicode="&#xe90c;" glyph-name="add" d="M208.278 960h607.446c55.219-0.059 108.165-22.021 147.21-61.066s61.010-91.984 61.066-147.202v-607.466c-0.056-55.214-22.021-108.155-61.066-147.2-39.050-39.045-91.991-61.010-147.21-61.066h-607.446c-55.221 0.056-108.163 22.021-147.21 61.066s-61.010 91.986-61.068 147.2v607.466c0.059 55.218 22.021 108.158 61.068 147.203s91.989 61.007 147.21 61.065zM926.131 33.869c29.286 29.281 45.757 68.987 45.804 110.397l-0.005 607.466c-0.046 41.413-16.517 81.117-45.804 110.401-29.281 29.283-68.987 45.755-110.403 45.8h-607.446c-41.415-0.045-81.121-16.517-110.406-45.8s-45.757-68.988-45.802-110.401v-607.466c0.046-41.411 16.518-81.116 45.802-110.397 29.285-29.286 68.991-45.757 110.406-45.804h607.446c41.416 0.046 81.121 16.517 110.408 45.804zM533.325 469.336h161.751c5.658 0 11.080-2.248 15.084-6.248 3.999-4.001 6.246-9.427 6.246-15.085 0-5.66-2.248-11.082-6.246-15.086-4.004-3.999-9.426-6.246-15.084-6.246h-161.751v-161.751c0-5.658-2.248-11.085-6.246-15.084-4.004-3.999-9.431-6.246-15.088-6.246-5.658 0-11.084 2.248-15.085 6.246s-6.248 9.426-6.248 15.084v161.751h-161.75c-5.658 0-11.084 2.248-15.085 6.246-4.001 4.004-6.248 9.426-6.248 15.086 0 5.658 2.248 11.084 6.248 15.085s9.427 6.248 15.085 6.248h161.752v161.75c0 5.658 2.248 11.084 6.248 15.085s9.427 6.248 15.085 6.248c5.659 0 11.086-2.247 15.085-6.248s6.246-9.427 6.246-15.085v-161.75z" />
<glyph unicode="&#xe90d;" glyph-name="add-filled" d="M815.754 960h-607.412c-114.862 0-208.268-93.456-208.268-208.268v-607.466c0-114.862 93.405-208.266 208.268-208.266h607.412c114.867 0 208.271 93.404 208.271 208.266v607.466c0 114.812-93.404 208.268-208.271 208.268zM724.741 411.213h-175.928v-175.928c0-20.291-16.476-36.762-36.762-36.762-20.289 0-36.763 16.471-36.763 36.762v175.928h-175.93c-20.313 0-36.762 16.476-36.762 36.762s16.449 36.762 36.762 36.762h175.93v175.93c0 20.338 16.474 36.762 36.763 36.762 20.285 0 36.762-16.423 36.762-36.762v-175.93h175.928c20.311 0 36.762-16.475 36.762-36.762 0-20.285-16.451-36.762-36.762-36.762z" />
<glyph unicode="&#xe90e;" glyph-name="add-folder" d="M929.71 470.707v203.99c-0.031 30.427-12.723 59.598-35.282 81.113-22.554 21.515-53.14 33.616-85.043 33.648h-328.535c-5.825-0.018-11.595 1.071-16.974 3.203s-10.258 5.264-14.354 9.214l-84.524 80.055c-8.938 8.546-19.562 15.32-31.258 19.932s-24.234 6.97-36.89 6.939h-176.523c-31.825 0.045-62.369-11.955-84.928-33.366s-35.29-50.483-35.398-80.836v-547.123c0.029-30.428 12.716-59.602 35.275-81.121 22.559-21.514 53.148-33.613 85.051-33.644h355.151c31.033-54.467 80.237-97.5 139.813-122.286s126.121-29.901 189.092-14.536c62.971 15.36 118.769 50.324 158.546 99.348 39.782 49.024 61.271 109.307 61.071 171.3 0.005 38.41-8.376 76.401-24.612 111.549-16.23 35.154-39.962 66.693-69.678 92.62zM52.077 247.475v547.123c0.099 17.183 7.341 33.627 20.135 45.725s30.098 18.863 48.115 18.809h176.523c5.832 0.018 11.61-1.071 16.997-3.203s10.275-5.264 14.382-9.214l84.524-80.007c8.913-8.568 19.524-15.361 31.214-19.982s24.228-6.98 36.883-6.938h328.535c18.094-0.019 35.441-6.883 48.236-19.086s19.994-28.748 20.014-46.006v-166.96c-50.99 28.351-109.798 41.29-168.658 37.111-58.865-4.18-115.011-25.283-161.039-60.523-46.026-35.24-79.768-82.962-96.773-136.87-17.005-53.903-16.473-111.462 1.526-165.074h-332.364c-18.095 0.020-35.443 6.886-48.238 19.087s-19.992 28.749-20.012 46.008zM731.674 36.869c-45.553 0.154-90.138 12.559-128.635 35.794-38.492 23.235-69.335 56.356-88.98 95.555-22.25 44.908-28.614 95.493-18.131 144.143 10.482 48.655 37.244 92.749 76.258 125.65 39.014 32.899 88.177 52.83 140.088 56.794s103.772-8.253 147.779-34.815c44.006-26.561 77.783-66.031 96.246-112.475 18.468-46.444 20.623-97.347 6.149-145.060-14.479-47.713-44.805-89.651-86.42-119.511-41.615-29.865-92.273-46.034-144.353-46.075zM846.403 291.487h-84.004v83.978c0 5.658-2.248 11.085-6.246 15.089-4.004 3.999-9.426 6.246-15.084 6.246s-11.085-2.248-15.089-6.246c-3.999-4.004-6.246-9.431-6.246-15.089v-83.978h-83.999c-5.658 0-11.085-2.248-15.089-6.246-3.999-3.999-6.246-9.426-6.246-15.084s2.248-11.085 6.246-15.089c4.004-3.999 9.431-6.246 15.089-6.246h83.999v-83.999c0-5.658 2.248-11.085 6.246-15.084 4.004-4.004 9.431-6.252 15.089-6.252s11.080 2.248 15.084 6.252c3.999 3.999 6.246 9.426 6.246 15.084v83.999h84.004c5.658 0 11.080 2.248 15.084 6.246 3.999 4.004 6.246 9.431 6.246 15.089s-2.248 11.085-6.246 15.084c-4.004 3.999-9.426 6.246-15.084 6.246z" />
<glyph unicode="&#xe90f;" glyph-name="add-user" d="M927.831 459.236c-53.622 45.135-123.059 67.804-193.444 63.154s-136.125-36.252-183.142-88.034c-19.2 10.394-39.296 19.101-60.052 26.014 47.002 25.753 83.999 66.132 105.196 114.81s25.395 102.905 11.935 154.184c-13.455 51.28-43.812 96.714-86.303 129.186-42.493 32.471-94.726 50.144-148.514 50.25s-106.091-17.361-148.716-49.665c-42.625-32.304-73.163-77.618-86.829-128.844s-9.688-105.469 11.311-154.23c20.999-48.761 57.832-89.286 104.728-115.224-54.568-17.926-104.147-48.118-144.81-88.187-69.682-69.028-108.915-162.324-109.189-259.651v-94.346c0-6.804 2.743-13.322 7.627-18.13 4.883-4.813 11.506-7.511 18.412-7.511s13.529 2.698 18.412 7.511c4.883 4.808 7.626 11.325 7.626 18.13v94.346c0.229 83.738 33.981 164.009 93.933 223.396 47.983 47.555 110.188 78.705 177.478 88.873 67.29 10.163 136.117-1.183 196.372-32.379-23.557-37.581-37.155-80.384-39.546-124.483s6.502-88.079 25.864-127.918c26.431-55.014 71.098-99.523 126.655-126.198 55.552-26.67 118.676-33.92 178.975-20.541 60.293 13.379 114.166 46.577 152.735 94.131s59.54 106.629 59.459 167.491c0.051 38.83-8.53 77.204-25.144 112.425-16.609 35.22-40.852 66.432-71.025 91.441zM182.069 668.161c-0.010 37.194 11.181 73.555 32.159 104.485s50.799 55.040 85.692 69.281c34.894 14.24 73.293 17.972 110.34 10.722s71.079-25.156 97.792-51.452c26.712-26.296 44.908-59.802 52.281-96.28 7.368-36.478 3.589-74.29-10.86-108.654-14.454-34.363-38.93-63.735-70.336-84.4s-68.329-31.694-106.101-31.694c-50.623 0.048-99.161 19.868-134.962 55.111s-55.943 83.032-56.006 132.88zM752.225 38.482c-41.667 0.133-82.447 11.843-117.652 33.787s-63.401 53.228-81.352 90.255c-14.044 28.995-21.289 60.723-21.207 92.846 0.061 42.813 13.005 84.649 37.202 120.218 24.192 35.574 58.552 63.288 98.734 79.643s84.383 20.615 127.022 12.244c42.644-8.371 81.807-28.999 112.548-59.273 30.74-30.28 51.681-68.849 60.17-110.838s4.152-85.514-12.462-125.076c-16.62-39.562-44.774-73.39-80.906-97.203-36.132-23.818-78.618-36.557-122.097-36.603zM870.738 280.955h-92.611v91.192c0 6.799-2.744 13.322-7.629 18.13s-11.505 7.511-18.412 7.511c-6.907 0-13.527-2.703-18.412-7.511s-7.629-11.331-7.629-18.13v-91.192h-92.611c-6.902 0-13.527-2.698-18.412-7.511-4.879-4.808-7.624-11.331-7.624-18.13s2.744-13.322 7.624-18.13c4.884-4.808 11.51-7.506 18.412-7.506h92.611v-91.192c0-6.804 2.744-13.322 7.629-18.13 4.884-4.813 11.505-7.511 18.412-7.511s13.527 2.698 18.412 7.511c4.884 4.808 7.629 11.325 7.629 18.13v91.192h92.611c6.902 0 13.527 2.698 18.412 7.506 4.879 4.808 7.624 11.331 7.624 18.13s-2.744 13.322-7.624 18.13c-4.884 4.813-11.51 7.511-18.412 7.511z" />
<glyph unicode="&#xe910;" glyph-name="adjustment" d="M511.942 759.525c-82.277-0.096-161.181-32.709-219.516-90.729s-91.375-136.746-91.917-219.021c-0.040-0.619-0.358-1.144-0.358-1.773 0-0.631 0.318-1.153 0.358-1.773 0.353-61.537 18.925-121.59 53.371-172.585 34.446-50.99 83.225-90.639 140.179-113.94s119.534-29.21 179.848-16.983c60.308 12.227 115.645 42.040 159.032 85.683 43.382 43.643 72.868 99.159 84.736 159.544 11.863 60.38 5.581 122.924-18.058 179.74s-63.58 105.356-114.775 139.497c-51.2 34.142-111.36 52.355-172.899 52.341zM285.799 566.916h198.744v-91.514h-226.55c3.37 31.995 12.807 63.054 27.807 91.514zM257.989 420.598h226.55v-91.51h-198.766c-14.988 28.462-24.418 59.52-27.785 91.51zM484.539 701.952v-80.234h-160.42c41.99 45.294 98.994 73.805 160.422 80.236l-0.002-0.002zM324.080 274.278h160.459v-80.287c-61.449 6.431-118.471 34.964-160.457 80.292l-0.003-0.005zM539.341 193.992v107.428l0.056 0.266-0.056 0.261v145.792l0.056 0.262-0.056 0.264v145.788l0.056 0.264-0.056 0.264v107.372c62.894-6.422 121.165-35.951 163.538-82.869 42.368-46.919 65.828-107.89 65.828-171.11 0-63.217-23.46-124.191-65.828-171.11-42.373-46.915-100.644-76.447-163.538-82.867v-0.005zM511.951 829.309c3.597-0.002 7.161 0.705 10.489 2.082 3.323 1.376 6.349 3.395 8.893 5.939s4.562 5.566 5.939 8.891c1.372 3.325 2.084 6.889 2.079 10.488v75.889c0 7.267-2.888 14.237-8.023 19.375-5.14 5.139-12.109 8.025-19.377 8.025s-14.237-2.887-19.375-8.025-8.026-12.108-8.026-19.375v-75.889c-0.002-3.599 0.705-7.163 2.081-10.488s3.395-6.347 5.939-8.891c2.545-2.545 5.566-4.563 8.892-5.939s6.889-2.084 10.488-2.082zM203.596 717.618c5.156-5.052 12.097-7.866 19.315-7.83s14.131 2.92 19.235 8.025c5.105 5.104 7.988 12.017 8.025 19.235s-2.777 14.16-7.83 19.315l-53.625 53.678c-2.534 2.587-5.557 4.645-8.892 6.056s-6.917 2.147-10.537 2.165c-3.621 0.018-7.21-0.681-10.559-2.059s-6.392-3.405-8.952-5.965c-2.561-2.561-4.589-5.604-5.966-8.953s-2.077-6.938-2.059-10.559c0.018-3.621 0.754-7.203 2.165-10.538s3.469-6.357 6.056-8.892l53.624-53.678zM103.235 475.4h-75.834c-7.267 0-14.237-2.887-19.375-8.026s-8.025-12.108-8.025-19.375c0-7.27 2.887-14.239 8.025-19.374 5.139-5.14 12.108-8.028 19.375-8.028h75.834c7.267 0 14.236 2.888 19.375 8.028 5.138 5.135 8.026 12.104 8.026 19.374 0 7.266-2.887 14.236-8.026 19.375s-12.108 8.026-19.375 8.026zM203.596 178.33l-53.624-53.627c-2.587-2.534-4.645-5.555-6.056-8.888-1.411-3.338-2.147-6.917-2.165-10.542-0.018-3.62 0.681-7.209 2.059-10.557s3.405-6.39 5.966-8.95c2.561-2.565 5.603-4.593 8.952-5.97s6.938-2.074 10.559-2.058c3.621 0.020 7.203 0.758 10.537 2.166 3.335 1.413 6.358 3.471 8.892 6.057l53.625 53.622c2.586 2.54 4.644 5.56 6.055 8.893 1.411 3.338 2.147 6.917 2.165 10.537 0.018 3.625-0.681 7.214-2.059 10.563s-3.405 6.39-5.965 8.95c-2.561 2.56-5.603 4.588-8.953 5.965s-6.938 2.079-10.559 2.058c-3.621-0.015-7.203-0.753-10.538-2.161-3.335-1.413-6.357-3.471-8.892-6.057v0zM511.951 66.637c-3.599 0.005-7.163-0.707-10.488-2.079-3.325-1.377-6.347-3.395-8.891-5.939s-4.563-5.571-5.94-8.893c-1.376-3.328-2.083-6.892-2.081-10.491v-75.832c0-7.265 2.887-14.239 8.026-19.374 5.138-5.14 12.108-8.028 19.375-8.028s14.237 2.888 19.377 8.028c5.135 5.135 8.023 12.109 8.023 19.374v75.832c0.005 3.599-0.707 7.163-2.079 10.491-1.377 3.323-3.395 6.349-5.939 8.893-2.55 2.545-5.571 4.562-8.893 5.939-3.328 1.372-6.892 2.084-10.489 2.079zM820.393 178.324c-2.534 2.586-5.56 4.644-8.893 6.052-3.333 1.413-6.917 2.15-10.537 2.166-3.62 0.020-7.209-0.681-10.563-2.058-3.348-1.377-6.39-3.405-8.95-5.965s-4.588-5.601-5.965-8.955c-1.377-3.348-2.079-6.938-2.058-10.557 0.015-3.62 0.753-7.204 2.166-10.537 1.408-3.333 3.466-6.359 6.052-8.893l53.627-53.622c2.534-2.586 5.555-4.644 8.893-6.057 3.333-1.413 6.912-2.145 10.537-2.166 3.62-0.020 7.209 0.681 10.557 2.058s6.39 3.405 8.955 5.965c2.56 2.56 4.588 5.606 5.965 8.955s2.074 6.938 2.058 10.557c-0.020 3.62-0.753 7.204-2.166 10.537-1.413 3.338-3.471 6.359-6.057 8.893l-53.622 53.627zM996.562 475.4h-75.837c-7.265 0-14.234-2.887-19.374-8.026s-8.023-12.108-8.023-19.375c0-7.27 2.883-14.239 8.023-19.374 5.14-5.14 12.109-8.028 19.374-8.028h75.837c7.265 0 14.234 2.888 19.374 8.028 5.135 5.135 8.023 12.104 8.023 19.374 0 7.266-2.888 14.236-8.023 19.375-5.14 5.138-12.109 8.026-19.374 8.026zM835.272 810.042l-53.627-53.679c-2.586-2.534-4.644-5.557-6.052-8.892-1.413-3.335-2.15-6.917-2.166-10.537-0.020-3.621 0.681-7.21 2.058-10.559s3.405-6.392 5.965-8.952c2.56-2.561 5.601-4.589 8.95-5.966 3.354-1.377 6.943-2.077 10.563-2.059s7.204 0.754 10.537 2.165c3.333 1.411 6.359 3.469 8.893 6.056l53.622 53.678c2.586 2.535 4.644 5.557 6.057 8.892s2.145 6.917 2.166 10.538c0.015 3.621-0.681 7.21-2.058 10.559s-3.405 6.392-5.965 8.953c-2.565 2.561-5.606 4.588-8.955 5.965s-6.938 2.077-10.557 2.059c-3.625-0.018-7.204-0.754-10.537-2.165-3.338-1.411-6.359-3.469-8.893-6.056v0.001z" />
<glyph unicode="&#xe911;" glyph-name="agriculture" d="M1019.576 770.999c-0.671 5.19-2.888 10.058-6.359 13.974s-8.038 6.7-13.107 7.989c-233.815 58.464-417.505-43.112-453.955-170.926-7.368-36.803-6.789-74.755 1.7-111.315s24.694-70.883 47.524-100.677c-33.439-59.151-59.218-122.317-76.728-187.971-17.408 98.217-51.146 192.824-99.814 279.891 22.624 27.903 39.175 60.22 48.597 94.885s11.506 70.914 6.119 106.43c-29.488 129.592-207.378 240.728-444.091 195.075-5.138-1.014-9.853-3.548-13.534-7.273s-6.157-8.472-7.108-13.622c-40.316-220.903 63.703-391.574 187.599-428.993 19.771-5.941 40.313-8.921 60.958-8.844 41.247 0.865 81.81 10.711 118.868 28.844 76.554-144.31 114.141-306.097 109.050-469.379-0.104-5.187-0.104-8.591-0.104-9.861 0.040-6.861 2.786-13.43 7.642-18.273s11.427-7.578 18.287-7.603h0.101c6.836-0.010 13.4 2.673 18.274 7.465 4.869 4.797 7.66 11.32 7.757 18.156 0 1.731 0.051 3.507 0.051 5.187 4.582 133.975 38.927 265.247 100.536 384.302 37.622-19.871 79.355-30.694 121.892-31.621 16.65-0.036 33.244 1.94 49.418 5.898 125.778 30.653 238.848 195.48 210.427 418.262zM211.47 498.292c-98.834 29.843-181.297 168.587-154.351 352.070 190.958 30.504 342.156-55.467 365.695-158.623 7.139-49.631-5.034-100.109-34.009-141.032-41.363 65.099-94.977 121.543-157.863 166.198-5.846 3.674-12.911 4.876-19.642 3.341s-12.577-5.681-16.251-11.526c-3.674-5.846-4.876-12.911-3.341-19.642s5.681-12.577 11.526-16.251c58.504-43.311 108.142-97.458 146.217-159.496-42.724-21.321-91.666-26.655-137.981-15.039zM796.795 403.272c-44.831-8.899-91.361-1.894-131.589 19.809 38.615 58.705 89.446 108.379 149.028 145.625 2.929 1.782 5.473 4.125 7.491 6.893s3.471 5.908 4.27 9.239c0.804 3.331 0.937 6.787 0.399 10.17-0.532 3.383-1.736 6.627-3.528 9.546-1.797 2.919-4.147 5.454-6.922 7.461-2.78 2.007-5.924 3.446-9.257 4.234s-6.789 0.911-10.173 0.36c-3.379-0.551-6.62-1.764-9.528-3.57-63.729-39.749-118.482-92.337-160.763-154.415-14.607 21.651-24.786 45.981-29.942 71.585s-5.192 51.975-0.102 77.593c28.979 101.732 184.346 179.060 373.729 138.742 17.034-184.702-72.75-318.768-173.112-343.272z" />
<glyph unicode="&#xe912;" glyph-name="ai" d="M485.903 540.213c-1.678 2.731-4.027 4.986-6.824 6.551s-5.949 2.386-9.154 2.386c-3.205 0-6.357-0.822-9.154-2.386s-5.147-3.82-6.825-6.551l-71.751-172.080c-0.858-2.514-1.086-5.202-0.665-7.823s1.479-5.1 3.081-7.219c2.081-2.186 4.647-3.85 7.49-4.859s5.883-1.336 8.876-0.957c2.993 0.384 5.854 1.459 8.353 3.149 2.499 1.695 4.565 3.948 6.032 6.584l19.875 47.708h69.376l19.414-46.377c1.285-3.461 3.548-6.477 6.518-8.673 2.964-2.196 6.508-3.482 10.194-3.697h2.207c2.637-0.010 5.238 0.64 7.562 1.879 2.324 1.244 4.306 3.041 5.77 5.238 1.459 2.196 2.355 4.721 2.601 7.347s-0.159 5.268-1.183 7.7l-71.793 172.080zM449.57 439.173l20.375 48.873 20.375-48.873h-40.75zM609.024 550.040c-4.244-0.001-8.31-1.687-11.31-4.687s-4.69-7.069-4.69-11.313v-172.082c0-4.244 1.69-8.315 4.69-11.315s7.066-4.685 11.31-4.685h2.918c4.244 0 8.31 1.684 11.31 4.685s4.69 7.071 4.69 11.315v172.082c-0.671 4.511-2.959 8.623-6.441 11.568s-7.916 4.52-12.477 4.432zM954.383 123.126v177.444c-0.036 27.581-11.018 54.021-30.536 73.523-19.523 19.507-45.983 30.479-73.59 30.515h-85.161v86.87h85.161c27.607 0.036 54.067 11.009 73.59 30.512 19.517 19.503 30.5 45.945 30.536 73.527v177.238c22.19 6.24 41.37 20.288 54.001 39.551s17.864 42.44 14.73 65.255c-3.133 22.816-14.418 43.729-31.78 58.881-17.357 15.152-39.613 23.519-62.659 23.559-23.050 0.039-45.338-8.252-62.746-23.345s-28.769-35.967-31.98-58.772c-3.21-22.804 1.94-46 14.51-65.306 12.564-19.305 31.693-33.419 53.862-39.735v-177.327c-0.010-13.794-5.499-27.019-15.263-36.773-9.759-9.754-22.999-15.237-36.803-15.246h-85.161v53.338c-0.036 27.582-11.018 54.024-30.541 73.527-19.517 19.503-45.983 30.476-73.59 30.512h-297.993c-27.605-0.036-54.070-11.009-73.59-30.512s-30.502-45.945-30.538-73.527v-53.338h-85.417c-13.805 0.009-27.042 5.493-36.804 15.246s-15.25 22.979-15.26 36.773v177.238c22.187 6.24 41.366 20.288 53.998 39.551s17.864 42.44 14.731 65.255c-3.133 22.816-14.419 43.729-31.777 58.881s-39.614 23.519-62.663 23.559c-23.049 0.039-45.334-8.252-62.744-23.345s-28.767-35.967-31.978-58.772c-3.211-22.804 1.942-46 14.508-65.306s31.697-33.419 53.862-39.735v-177.327c0.036-27.582 11.018-54.023 30.538-73.526s45.984-30.476 73.589-30.512h85.417v-86.87h-85.417c-27.605-0.036-54.069-11.013-73.589-30.515s-30.502-45.942-30.538-73.523v-177.536c-22.149-6.313-41.264-20.419-53.818-39.716-12.555-19.292-17.701-42.47-14.491-65.26s14.562-43.648 31.96-58.732c17.398-15.078 39.668-23.368 62.701-23.327s45.275 8.402 62.621 23.542c17.346 15.14 28.626 36.040 31.759 58.839s-2.094 45.962-14.714 65.213c-12.621 19.251-31.784 33.29-53.955 39.532v177.444c0.010 13.793 5.498 27.018 15.26 36.772s22.999 15.237 36.804 15.247h85.417v-53.545c0.036-27.581 11.018-54.021 30.538-73.528 19.52-19.502 45.985-30.474 73.59-30.51h297.993c27.607 0.036 54.072 11.008 73.59 30.51 19.523 19.507 30.505 45.947 30.541 73.528v53.545h85.161c13.804-0.010 27.044-5.494 36.803-15.247 9.764-9.754 15.252-22.979 15.263-36.772v-177.536c-22.149-6.313-41.267-20.419-53.821-39.716-12.554-19.292-17.7-42.47-14.49-65.26s14.561-43.648 31.959-58.732c17.398-15.078 39.67-23.368 62.7-23.327 23.035 0.041 45.276 8.402 62.623 23.542s28.626 36.040 31.759 58.839c3.133 22.799-2.094 45.962-14.715 65.213s-31.785 33.29-53.955 39.532v0zM885.084 864.090c-0.005 8.575 2.534 16.96 7.301 24.093 4.762 7.133 11.535 12.695 19.466 15.981 7.926 3.287 16.65 4.15 25.068 2.482 8.422-1.668 16.154-5.793 22.226-11.853s10.214-13.783 11.894-22.193c1.679-8.41 0.824-17.128-2.458-25.053-3.277-7.925-8.837-14.7-15.969-19.468s-15.524-7.316-24.105-7.322c-11.505 0.008-22.538 4.574-30.674 12.697-8.141 8.123-12.723 19.14-12.749 30.634zM52.065 864.090c-0.005 8.575 2.535 16.96 7.299 24.093s11.538 12.695 19.465 15.981c7.928 3.287 16.652 4.15 25.071 2.482s16.154-5.793 22.226-11.853c6.072-6.060 10.21-13.783 11.89-22.193s0.825-17.128-2.455-25.053c-3.28-7.925-8.838-14.7-15.971-19.468s-15.522-7.316-24.104-7.322c-11.505 0.008-22.536 4.574-30.676 12.697s-12.723 19.14-12.745 30.634zM138.855 31.785c0.005-8.576-2.536-16.963-7.303-24.1-4.766-7.132-11.544-12.692-19.474-15.98-7.93-3.282-16.658-4.142-25.078-2.473-8.42 1.674-16.155 5.801-22.225 11.868s-10.204 13.793-11.877 22.205c-1.674 8.412-0.812 17.132 2.476 25.057s8.854 14.694 15.994 19.456c7.14 4.762 15.534 7.301 24.119 7.296 11.496-0.015 22.516-4.588 30.645-12.713 8.129-8.12 12.704-19.133 12.723-30.618h0.001zM660.966 247.025h-297.993c-13.805 0.010-27.042 5.494-36.804 15.247s-15.25 22.979-15.26 36.772v297.79c0.010 13.794 5.498 27.019 15.26 36.773s22.999 15.237 36.804 15.246h297.993c13.804-0.009 27.044-5.493 36.803-15.246 9.764-9.754 15.252-22.979 15.263-36.773v-78.341c-0.015-0.355-0.205-0.651-0.205-1.009s0.189-0.654 0.205-1.010v-136.868c-0.015-0.353-0.205-0.65-0.205-1.009s0.189-0.655 0.205-1.009v-78.546c-0.010-13.793-5.499-27.018-15.263-36.772-9.759-9.754-22.999-15.237-36.803-15.247v0zM928.507-11.546c-8.581 0-16.963 2.54-24.095 7.301s-12.692 11.53-15.974 19.446c-3.282 7.921-4.142 16.63-2.468 25.037s5.806 16.128 11.868 22.185c6.067 6.062 13.793 10.189 22.205 11.863 8.412 1.669 17.132 0.814 25.057-2.468 7.926-3.277 14.7-8.832 19.466-15.959 4.762-7.127 7.306-15.503 7.306-24.074-0.020-11.484-4.598-22.492-12.723-30.618-8.131-8.12-19.149-12.692-30.643-12.713z" />
<glyph unicode="&#xe913;" d="M281.83 508.058l-15.981 50.336h-147.457l-15.988-50.336h-102.404l148.034 414.474h88.229l149.81-414.474h-104.243zM192.447 804.126l-50.927-170.534h100.666l-49.74 170.534z" />
<glyph unicode="&#xe914;" d="M397.488 922.531h97.108v-414.474h-97.108v414.474z" />
<glyph unicode="&#xe915;" d="M520.765 592.741c4.362 20.464 12.063 40.070 22.799 58.028 9.334 15.178 21.028 28.769 34.642 40.266 13.906 11.535 28.652 22.023 44.109 31.373 12.232 7.111 23.583 13.923 34.048 20.431 9.651 5.926 18.857 12.555 27.535 19.834 7.496 6.228 13.814 13.749 18.652 22.206 4.623 8.431 6.973 17.92 6.81 27.534 0 16.578-4.536 28.518-13.614 35.823-9.631 7.481-21.571 11.357-33.756 10.956-13.865 0.419-27.351-4.572-37.601-13.918-10.066-9.278-15.099-24.773-15.099-46.483h-95.334c-0.174 18.035 3.149 35.933 9.774 52.708 6.354 15.959 16.159 30.315 28.713 42.041 13.368 12.286 29.076 21.752 46.188 27.828 20.157 7.040 41.4 10.45 62.746 10.071 18.319 0.085 36.562-2.408 54.185-7.404 16.394-4.55 31.764-12.187 45.297-22.501 13.297-10.397 23.946-23.786 31.084-39.079 8.069-17.736 12.017-37.069 11.546-56.548 0.215-16.478-3.651-32.752-11.249-47.374-7.276-13.908-16.553-26.675-27.535-37.894-10.721-10.938-22.523-20.761-35.226-29.316-12.646-8.492-24.095-15.695-34.35-21.61-14.218-9.476-25.964-17.668-35.231-24.578-7.951-5.749-15.38-12.187-22.2-19.238-5.105-5.236-9.037-11.493-11.551-18.36-2.289-7.073-3.389-14.475-3.256-21.906h177.644v-77.569h-287.759c-0.507 28.436 2.176 56.839 7.992 84.678z" />
<glyph unicode="&#xe916;" d="M818.877 849.75c16.589-0.338 33.172 1.152 49.439 4.443 10.865 2.063 21.105 6.623 29.906 13.321 7.060 5.86 12.216 13.695 14.802 22.501 2.959 10.596 4.352 21.567 4.142 32.566h84.705v-414.518h-97.695v274.164h-85.299v67.523z" />
<glyph unicode="&#xe917;" d="M0 386.693h90.584v-414.474h-90.584v414.474z" />
<glyph unicode="&#xe918;" d="M425.075 257.853v-285.409h-90.594v40.274c-3.717-6.932-8.515-13.225-14.214-18.647-6.091-5.852-12.964-10.834-20.425-14.802-7.997-4.255-16.438-7.619-25.168-10.040-8.858-2.529-18.025-3.825-27.238-3.845-19.457-0.225-38.735 3.712-56.548 11.546-16.687 7.347-31.696 18.022-44.112 31.375-12.547 13.732-22.212 29.839-28.424 47.37-13.42 38.543-13.42 80.481 0 119.020 6.213 17.536 15.878 33.644 28.424 47.375 12.416 13.353 27.425 24.028 44.112 31.375 17.819 7.823 37.103 11.75 56.561 11.52 9.212-0.020 18.38-1.316 27.238-3.845 8.771-2.447 17.221-5.924 25.168-10.368 7.478-4.173 14.35-9.354 20.424-15.391 5.552-5.443 10.333-11.617 14.212-18.355v40.847h90.584zM266.386 42.317c9.603-0.143 19.116 1.879 27.829 5.919 8.072 3.779 15.321 9.108 21.334 15.688 6.064 6.743 10.787 14.582 13.918 23.096 3.368 8.991 5.070 18.519 5.019 28.124 0.138 18.724-6.606 36.844-18.95 50.924-5.947 6.728-13.208 12.17-21.334 15.99-8.759 3.901-18.24 5.919-27.828 5.919s-19.070-2.017-27.828-5.919c-8.125-3.825-15.385-9.262-21.335-15.99-12.338-14.080-19.079-32.205-18.945-50.924-0.056-9.605 1.646-19.133 5.021-28.124 3.129-8.509 7.849-16.353 13.911-23.096 6.014-6.579 13.264-11.909 21.335-15.688 8.72-4.045 18.242-6.067 27.853-5.919z" />
<glyph unicode="&#xe919;" d="M535.163-27.781h-90.6v414.474h90.6v-169.912c3.881 6.733 8.663 12.908 14.213 18.35 6.139 6.093 13.107 11.274 20.705 15.396 7.982 4.372 16.425 7.849 25.17 10.363 8.95 2.575 18.222 3.866 27.535 3.85 19.456 0.22 38.733-3.717 56.545-11.546 16.686-7.347 31.703-18.028 44.109-31.375 12.549-13.737 22.211-29.844 28.436-47.375 13.404-38.538 13.404-80.481 0-119.020-6.226-17.531-15.887-33.638-28.436-47.375-12.406-13.348-27.423-24.028-44.109-31.375-17.812-7.828-37.089-11.766-56.545-11.54-9.313-0.026-18.586 1.27-27.535 3.845-8.704 2.488-17.137 5.852-25.17 10.035-7.572 3.917-14.546 8.904-20.705 14.807-5.699 5.422-10.496 11.715-14.213 18.647v-40.248zM603.853 42.097c9.411-0.102 18.724 1.915 27.238 5.914 8.074 3.784 15.324 9.114 21.335 15.693 6.067 6.743 10.788 14.582 13.921 23.096 3.369 8.991 5.069 18.519 5.018 28.119 0.138 18.729-6.605 36.849-18.949 50.929-5.949 6.728-13.21 12.165-21.335 15.99-8.515 3.999-17.823 6.036-27.228 5.944-9.692 0.123-19.297-1.9-28.119-5.914-8.243-3.763-15.606-9.211-21.612-15.99-12.344-14.080-19.087-32.2-18.949-50.924-0.056-9.605 1.644-19.133 5.018-28.124 3.123-8.515 7.849-16.353 13.916-23.096 6.077-6.63 13.425-11.965 21.612-15.688 8.822-4.035 18.432-6.067 28.134-5.949z" />
<glyph unicode="&#xe91a;" d="M932.168 140.396c12.626-3.553 24.463-7.398 35.523-11.546 10.332-3.763 20.101-8.95 29.020-15.401 8.207-6.042 14.981-13.824 19.83-22.794 5.284-10.655 7.828-22.456 7.409-34.34 0.492-14.95-2.995-29.763-10.076-42.936-6.738-11.668-16.307-21.448-27.822-28.421-12.677-7.629-26.624-12.943-41.149-15.688-16.492-3.236-33.249-4.823-50.048-4.731-40.663 0-72.73 8.878-96.215 26.639-23.496 17.766-30.49 43.228-30.49 76.39h84.081c0-15.012 4.25-25.764 12.733-32.271 9.549-6.845 21.12-10.286 32.865-9.769 9.375-0.404 18.688 1.741 26.931 6.211 3.451 2.125 6.231 5.156 8.064 8.76 1.818 3.604 2.616 7.644 2.309 11.674 0.236 4.838-1.347 9.59-4.449 13.322-3.871 4.009-8.499 7.229-13.624 9.472-7.66 3.548-15.58 6.518-23.68 8.883-9.677 2.964-21.228 6.615-34.627 10.952-11.843 3.558-23.101 7.404-33.761 11.546-9.989 3.784-19.451 8.863-28.129 15.104-8.079 5.898-14.653 13.604-19.231 22.502-5.105 10.711-7.537 22.492-7.122 34.345 0 29.604 11.351 51.512 34.053 65.725 22.697 14.208 53.386 21.32 92.068 21.33 18.345 0.307 36.613-2.186 54.19-7.404 14.075-4.127 27.167-11.075 38.482-20.424 9.861-8.392 17.649-18.929 22.81-30.797 5.135-11.96 7.772-24.868 7.7-37.893h-89.421c0.635 10.020-2.668 19.896-9.17 27.535-3.758 3.492-8.192 6.17-13.041 7.849s-9.989 2.335-15.089 1.92c-8.335 0.205-16.548-1.951-23.68-6.221-3.287-1.987-5.939-4.828-7.721-8.218-1.777-3.389-2.596-7.204-2.36-11.023-0.164-4.705 1.546-9.283 4.741-12.733 3.994-3.927 8.735-7.045 13.911-9.18 7.424-3.241 15.032-6.006 22.81-8.289 9.057-2.78 19.517-6.139 31.375-10.081z" />
<glyph unicode="&#xe91b;" d="M281.83 508.058l-15.981 50.336h-147.457l-15.988-50.336h-102.404l148.034 414.474h88.229l149.81-414.474h-104.243zM192.447 804.126l-50.927-170.534h100.666l-49.74 170.534z" />
<glyph unicode="&#xe91c;" d="M397.488 922.531h97.108v-414.474h-97.108v414.474z" />
<glyph unicode="&#xe91d;" d="M520.765 592.741c4.362 20.464 12.063 40.070 22.799 58.028 9.334 15.178 21.028 28.769 34.642 40.266 13.906 11.535 28.652 22.023 44.109 31.373 12.232 7.111 23.583 13.923 34.048 20.431 9.651 5.926 18.857 12.555 27.535 19.834 7.496 6.228 13.814 13.749 18.652 22.206 4.623 8.431 6.973 17.92 6.81 27.534 0 16.578-4.536 28.518-13.614 35.823-9.631 7.481-21.571 11.357-33.756 10.956-13.865 0.419-27.351-4.572-37.601-13.918-10.066-9.278-15.099-24.773-15.099-46.483h-95.334c-0.174 18.035 3.149 35.933 9.774 52.708 6.354 15.959 16.159 30.315 28.713 42.041 13.368 12.286 29.076 21.752 46.188 27.828 20.157 7.040 41.4 10.45 62.746 10.071 18.319 0.085 36.562-2.408 54.185-7.404 16.394-4.55 31.764-12.187 45.297-22.501 13.297-10.397 23.946-23.786 31.084-39.079 8.069-17.736 12.017-37.069 11.546-56.548 0.215-16.478-3.651-32.752-11.249-47.374-7.276-13.908-16.553-26.675-27.535-37.894-10.721-10.938-22.523-20.761-35.226-29.316-12.646-8.492-24.095-15.695-34.35-21.61-14.218-9.476-25.964-17.668-35.231-24.578-7.951-5.749-15.38-12.187-22.2-19.238-5.105-5.236-9.037-11.493-11.551-18.36-2.289-7.073-3.389-14.475-3.256-21.906h177.644v-77.569h-287.759c-0.507 28.436 2.176 56.839 7.992 84.678z" />
<glyph unicode="&#xe91e;" d="M818.877 849.75c16.589-0.338 33.172 1.152 49.439 4.443 10.865 2.063 21.105 6.623 29.906 13.321 7.060 5.86 12.216 13.695 14.802 22.501 2.959 10.596 4.352 21.567 4.142 32.566h84.705v-414.518h-97.695v274.164h-85.299v67.523z" />
<glyph unicode="&#xe91f;" d="M0 386.693h90.584v-414.474h-90.584v414.474z" />
<glyph unicode="&#xe920;" d="M425.075 257.853v-285.409h-90.594v40.274c-3.717-6.932-8.515-13.225-14.214-18.647-6.091-5.852-12.964-10.834-20.425-14.802-7.997-4.255-16.438-7.619-25.168-10.040-8.858-2.529-18.025-3.825-27.238-3.845-19.457-0.225-38.735 3.712-56.548 11.546-16.687 7.347-31.696 18.022-44.112 31.375-12.547 13.732-22.212 29.839-28.424 47.37-13.42 38.543-13.42 80.481 0 119.020 6.213 17.536 15.878 33.644 28.424 47.375 12.416 13.353 27.425 24.028 44.112 31.375 17.819 7.823 37.103 11.75 56.561 11.52 9.212-0.020 18.38-1.316 27.238-3.845 8.771-2.447 17.221-5.924 25.168-10.368 7.478-4.173 14.35-9.354 20.424-15.391 5.552-5.443 10.333-11.617 14.212-18.355v40.847h90.584zM266.386 42.317c9.603-0.143 19.116 1.879 27.829 5.919 8.072 3.779 15.321 9.108 21.334 15.688 6.064 6.743 10.787 14.582 13.918 23.096 3.368 8.991 5.070 18.519 5.019 28.124 0.138 18.724-6.606 36.844-18.95 50.924-5.947 6.728-13.208 12.17-21.334 15.99-8.759 3.901-18.24 5.919-27.828 5.919s-19.070-2.017-27.828-5.919c-8.125-3.825-15.385-9.262-21.335-15.99-12.338-14.080-19.079-32.205-18.945-50.924-0.056-9.605 1.646-19.133 5.021-28.124 3.129-8.509 7.849-16.353 13.911-23.096 6.014-6.579 13.264-11.909 21.335-15.688 8.72-4.045 18.242-6.067 27.853-5.919z" />
<glyph unicode="&#xe921;" d="M535.163-27.781h-90.6v414.474h90.6v-169.912c3.881 6.733 8.663 12.908 14.213 18.35 6.139 6.093 13.107 11.274 20.705 15.396 7.982 4.372 16.425 7.849 25.17 10.363 8.95 2.575 18.222 3.866 27.535 3.85 19.456 0.22 38.733-3.717 56.545-11.546 16.686-7.347 31.703-18.028 44.109-31.375 12.549-13.737 22.211-29.844 28.436-47.375 13.404-38.538 13.404-80.481 0-119.020-6.226-17.531-15.887-33.638-28.436-47.375-12.406-13.348-27.423-24.028-44.109-31.375-17.812-7.828-37.089-11.766-56.545-11.54-9.313-0.026-18.586 1.27-27.535 3.845-8.704 2.488-17.137 5.852-25.17 10.035-7.572 3.917-14.546 8.904-20.705 14.807-5.699 5.422-10.496 11.715-14.213 18.647v-40.248zM603.853 42.097c9.411-0.102 18.724 1.915 27.238 5.914 8.074 3.784 15.324 9.114 21.335 15.693 6.067 6.743 10.788 14.582 13.921 23.096 3.369 8.991 5.069 18.519 5.018 28.119 0.138 18.729-6.605 36.849-18.949 50.929-5.949 6.728-13.21 12.165-21.335 15.99-8.515 3.999-17.823 6.036-27.228 5.944-9.692 0.123-19.297-1.9-28.119-5.914-8.243-3.763-15.606-9.211-21.612-15.99-12.344-14.080-19.087-32.2-18.949-50.924-0.056-9.605 1.644-19.133 5.018-28.124 3.123-8.515 7.849-16.353 13.916-23.096 6.077-6.63 13.425-11.965 21.612-15.688 8.822-4.035 18.432-6.067 28.134-5.949z" />
<glyph unicode="&#xe922;" d="M932.168 140.396c12.626-3.553 24.463-7.398 35.523-11.546 10.332-3.763 20.101-8.95 29.020-15.401 8.207-6.042 14.981-13.824 19.83-22.794 5.284-10.655 7.828-22.456 7.409-34.34 0.492-14.95-2.995-29.763-10.076-42.936-6.738-11.668-16.307-21.448-27.822-28.421-12.677-7.629-26.624-12.943-41.149-15.688-16.492-3.236-33.249-4.823-50.048-4.731-40.663 0-72.73 8.878-96.215 26.639-23.496 17.766-30.49 43.228-30.49 76.39h84.081c0-15.012 4.25-25.764 12.733-32.271 9.549-6.845 21.12-10.286 32.865-9.769 9.375-0.404 18.688 1.741 26.931 6.211 3.451 2.125 6.231 5.156 8.064 8.76 1.818 3.604 2.616 7.644 2.309 11.674 0.236 4.838-1.347 9.59-4.449 13.322-3.871 4.009-8.499 7.229-13.624 9.472-7.66 3.548-15.58 6.518-23.68 8.883-9.677 2.964-21.228 6.615-34.627 10.952-11.843 3.558-23.101 7.404-33.761 11.546-9.989 3.784-19.451 8.863-28.129 15.104-8.079 5.898-14.653 13.604-19.231 22.502-5.105 10.711-7.537 22.492-7.122 34.345 0 29.604 11.351 51.512 34.053 65.725 22.697 14.208 53.386 21.32 92.068 21.33 18.345 0.307 36.613-2.186 54.19-7.404 14.075-4.127 27.167-11.075 38.482-20.424 9.861-8.392 17.649-18.929 22.81-30.797 5.135-11.96 7.772-24.868 7.7-37.893h-89.421c0.635 10.020-2.668 19.896-9.17 27.535-3.758 3.492-8.192 6.17-13.041 7.849s-9.989 2.335-15.089 1.92c-8.335 0.205-16.548-1.951-23.68-6.221-3.287-1.987-5.939-4.828-7.721-8.218-1.777-3.389-2.596-7.204-2.36-11.023-0.164-4.705 1.546-9.283 4.741-12.733 3.994-3.927 8.735-7.045 13.911-9.18 7.424-3.241 15.032-6.006 22.81-8.289 9.057-2.78 19.517-6.139 31.375-10.081z" />
<glyph unicode="&#xe923;" glyph-name="alert" d="M32.662 66.135l479.338 797.865 479.34-797.865h-958.677zM180.268 149.335h663.467l-331.735 552.531-331.732-552.531zM512.845 197.002c12.047 0 22.436 4.296 31.176 12.887s13.112 18.908 13.112 30.956c0 12.042-4.296 22.436-12.887 31.176s-18.908 13.112-30.956 13.112c-12.045 0-22.437-4.296-31.177-12.887s-13.109-18.908-13.109-30.956c0-12.047 4.295-22.441 12.886-31.181 8.59-8.735 18.908-13.107 30.956-13.107zM471.468 333.133h83.202v209.064h-83.202v-209.064z" />
<glyph unicode="&#xe924;" glyph-name="alert-filled" d="M-12.8 19.2l524.8 904.531 524.8-904.531h-1049.6zM513.065 163.2c15.647 0 28.979 5.509 40.003 16.532s16.532 24.356 16.532 39.997c0 15.647-5.509 28.979-16.532 40.003s-24.356 16.532-40.003 16.532c-15.643 0-28.976-5.509-39.998-16.532s-16.533-24.356-16.533-40.003c0-15.642 5.511-28.974 16.533-39.997s24.356-16.532 39.998-16.532zM456.534 315.73h113.066v217.602h-113.066v-217.602z" />
<glyph unicode="&#xe925;" glyph-name="align-left" d="M993.905 819.274h-963.776c-7.984 0-15.641 3.172-21.286 8.817s-8.817 13.302-8.817 21.286c0 7.984 3.172 15.641 8.817 21.286s13.302 8.817 21.286 8.817h963.776c7.987 0 15.642-3.172 21.289-8.817 5.642-5.645 8.817-13.302 8.817-21.286s-3.174-15.641-8.817-21.286c-5.647-5.645-13.302-8.817-21.289-8.817zM672.589 16.538h-642.46c-7.984 0-15.641 3.169-21.286 8.817s-8.817 13.302-8.817 21.284c0 7.987 3.172 15.642 8.817 21.289s13.302 8.817 21.286 8.817h642.46c7.987 0 15.642-3.169 21.289-8.817 5.642-5.647 8.817-13.302 8.817-21.289 0-7.982-3.174-15.636-8.817-21.284-5.647-5.647-13.302-8.817-21.289-8.817zM993.613 284.119h-963.484c-7.984 0-15.641 3.169-21.286 8.817s-8.817 13.302-8.817 21.284c0 7.987 3.172 15.642 8.817 21.289s13.302 8.817 21.286 8.817h963.484c7.987 0 15.642-3.169 21.289-8.817 5.642-5.647 8.817-13.302 8.817-21.289 0-7.982-3.174-15.636-8.817-21.284-5.647-5.647-13.302-8.817-21.289-8.817zM672.589 551.693h-642.46c-7.984 0-15.641 3.171-21.286 8.817s-8.817 13.302-8.817 21.286c0 7.984 3.172 15.641 8.817 21.286s13.302 8.817 21.286 8.817h642.46c7.987 0 15.642-3.171 21.289-8.817 5.642-5.645 8.817-13.302 8.817-21.286s-3.174-15.641-8.817-21.286c-5.647-5.646-13.302-8.817-21.289-8.817z" />
<glyph unicode="&#xe926;" glyph-name="all-type" d="M914.284 338.284h-256c-29.097 0-57.001-11.556-77.578-32.133-20.577-20.572-32.133-48.481-32.133-77.578v-182.856c0-29.102 11.556-57.006 32.133-77.583 20.577-20.572 48.481-32.133 77.578-32.133h256c29.102 0 57.006 11.561 77.583 32.133 20.572 20.577 32.133 48.481 32.133 77.583v182.856c0 29.097-11.561 57.006-32.133 77.578-20.577 20.577-48.481 32.133-77.583 32.133zM950.856 45.716c0-9.702-3.85-19.005-10.711-25.861-6.856-6.861-16.159-10.711-25.861-10.711h-256c-9.697 0-19 3.85-25.856 10.711-6.861 6.856-10.711 16.159-10.711 25.861v182.856c0 9.697 3.85 19 10.711 25.861 6.856 6.856 16.159 10.711 25.856 10.711h256c9.702 0 19.005-3.855 25.861-10.711 6.861-6.861 10.711-16.164 10.711-25.861v-182.856zM475.428 228.572v-109.716c0-29.097-11.559-57.001-32.134-77.578s-48.482-32.133-77.58-32.133h-208.457l-100.572-66.929c-5.5-3.62-11.877-5.688-18.456-5.99-6.579-0.297-13.117 1.188-18.923 4.296s-10.665 7.726-14.063 13.368c-3.398 5.642-5.21 12.099-5.244 18.683v256c0 29.097 11.559 57.006 32.135 77.578 20.575 20.577 48.482 32.133 77.58 32.133h256c29.098 0 57.004-11.556 77.58-32.133 20.575-20.572 32.134-48.481 32.134-77.578zM548.572 850.286c0 29.098-11.561 57.005-32.133 77.58-20.578 20.575-48.484 32.135-77.582 32.135h-329.143c-29.098 0-57.005-11.559-77.58-32.135s-32.135-48.482-32.135-77.58v-329.143c0-29.098 11.559-57.004 32.135-77.582 20.575-20.572 48.482-32.133 77.58-32.133h329.143c29.098 0 57.004 11.561 77.582 32.133 20.572 20.578 32.133 48.484 32.133 77.582v329.143zM475.428 662.674l-53.028 36.571c-5.971 3.933-12.964 6.028-20.114 6.028s-14.143-2.096-20.114-6.028l-84.846-56.32-88.503 87.040c-6.244 6.237-14.534 10.006-23.338 10.611s-17.531-1.995-24.57-7.319l-87.772-65.829v182.857c0 9.699 3.853 19.001 10.712 25.86s16.161 10.712 25.86 10.712h329.143c9.699 0 19.001-3.853 25.86-10.712s10.712-16.161 10.712-25.86v-187.611zM914.284 960h-182.856c-29.097 0-57.006-11.559-77.578-32.135-20.577-20.575-32.133-48.482-32.133-77.58v-329.143c0-29.098 11.556-57.004 32.133-77.582 20.572-20.572 48.481-32.133 77.578-32.133h182.856c29.102 0 57.006 11.561 77.583 32.133 20.572 20.578 32.133 48.484 32.133 77.582v329.143c0 29.098-11.561 57.005-32.133 77.58-20.577 20.575-48.481 32.135-77.583 32.135zM877.716 521.143h-109.716c-9.697 0-19 3.853-25.861 10.712-6.856 6.859-10.711 16.161-10.711 25.86s3.855 19.001 10.711 25.86c6.861 6.859 16.164 10.712 25.861 10.712h109.716c9.697 0 19-3.853 25.856-10.712 6.861-6.858 10.711-16.16 10.711-25.86s-3.85-19.001-10.711-25.86c-6.856-6.858-16.159-10.712-25.856-10.712zM877.716 649.143h-109.716c-9.697 0-19 3.853-25.861 10.712-6.856 6.859-10.711 16.161-10.711 25.86s3.855 19.001 10.711 25.86c6.861 6.859 16.164 10.712 25.861 10.712h109.716c9.697 0 19-3.853 25.856-10.712 6.861-6.858 10.711-16.16 10.711-25.86s-3.85-19.001-10.711-25.86c-6.856-6.858-16.159-10.712-25.856-10.712zM877.716 777.143h-109.716c-9.697 0-19 3.853-25.861 10.712-6.856 6.859-10.711 16.161-10.711 25.86s3.855 19.001 10.711 25.86c6.861 6.859 16.164 10.712 25.861 10.712h109.716c9.697 0 19-3.853 25.856-10.712 6.861-6.858 10.711-16.16 10.711-25.86s-3.85-19.001-10.711-25.86c-6.856-6.858-16.159-10.712-25.856-10.712zM859.428 137.144c-0.020-6.753-1.91-13.373-5.458-19.118-3.553-5.745-8.622-10.394-14.653-13.43l-73.144-36.572c-5.094-2.611-10.732-3.988-16.456-4.024-6.851-0.020-13.563 1.879-19.384 5.484-5.274 3.297-9.615 7.88-12.621 13.317-3.011 5.437-4.582 11.556-4.567 17.772v73.144c-0.159 6.492 1.418 12.908 4.562 18.591 3.149 5.683 7.752 10.429 13.338 13.742s11.955 5.079 18.447 5.12c6.497 0.036 12.887-1.659 18.509-4.905l73.144-36.572c5.688-3.282 10.388-8.038 13.609-13.768 3.215-5.724 4.833-12.216 4.675-18.78z" />
<glyph unicode="&#xe927;" glyph-name="all-type-outline" d="M730.624 814.575c0 19.8 16.046 35.85 35.84 35.85h112.64c19.794 0 35.84-16.050 35.84-35.85 0-19.775-16.046-35.825-35.84-35.825h-112.64c-19.794 0-35.84 16.050-35.84 35.825zM730.624 686.575c0 19.8 16.046 35.85 35.84 35.85h112.64c19.794 0 35.84-16.050 35.84-35.85 0-19.775-16.046-35.825-35.84-35.825h-112.64c-19.794 0-35.84 16.050-35.84 35.825zM766.464 593.925c-19.794 0-35.84-16.050-35.84-35.85 0-19.775 16.046-35.825 35.84-35.825h112.64c19.794 0 35.84 16.050 35.84 35.825 0 19.8-16.046 35.85-35.84 35.85h-112.64zM914.135 960h-182.856c-29.092 0-56.996-11.55-77.573-32.125-20.582-20.575-32.138-48.5-32.138-77.6v-329.125c0-29.1 11.556-57 32.138-77.574 20.577-20.577 48.481-32.154 77.573-32.154h182.856c29.102 0 57.011 11.576 77.583 32.154 20.577 20.574 32.138 48.474 32.138 77.574v329.125c0 29.1-11.561 57.025-32.138 77.6-20.572 20.575-48.481 32.125-77.583 32.125zM731.279 883.2h182.856c3.354 0 6.651-0.5 9.789-1.475 5.043-1.575 9.687-4.375 13.486-8.175 6.175-6.175 9.646-14.525 9.646-23.275v-329.125c0-1.525-0.108-3.050-0.317-4.55-0.302-2.15-0.819-4.275-1.541-6.325-1.618-4.625-4.26-8.875-7.788-12.4-6.164-6.175-14.541-9.65-23.276-9.65h-182.856c-8.724 0-17.096 3.475-23.276 9.65-6.164 6.175-9.636 14.55-9.636 23.275v329.125c0 1.475 0.102 2.95 0.297 4.4 0.343 2.55 0.978 5.050 1.9 7.425 1.633 4.25 4.152 8.15 7.439 11.45 6.18 6.175 14.551 9.65 23.276 9.65zM859.433 137.149c-0.026-6.748-1.915-13.373-5.463-19.123-3.553-5.75-8.627-10.399-14.659-13.425l-73.144-36.577c-5.094-2.627-10.732-3.999-16.456-4.024-6.84-0.026-13.563 1.874-19.379 5.473-5.268 3.302-9.615 7.9-12.621 13.327-3.011 5.448-4.582 11.551-4.567 17.777v73.149c-0.159 6.472 1.418 12.897 4.562 18.575 3.149 5.699 7.752 10.424 13.338 13.747 5.586 3.328 11.95 5.074 18.447 5.125 6.497 0.026 12.882-1.649 18.509-4.9l73.144-36.572c1.592-0.927 3.113-1.976 4.541-3.128 1.731-1.372 3.338-2.898 4.797-4.572 1.618-1.879 3.046-3.901 4.265-6.077 1.434-2.55 2.545-5.248 3.328-8.049 0.978-3.476 1.444-7.076 1.357-10.726zM914.289 338.273h-256c-29.102 0-57.006-11.551-77.583-32.123-20.572-20.577-32.138-48.476-32.138-77.573v-182.851c0-29.102 11.566-57.027 32.138-77.604 20.577-20.572 48.481-32.123 77.583-32.123h256c29.092 0 57.001 11.551 77.573 32.123 20.582 20.577 32.138 48.502 32.138 77.604v182.851c0 29.097-11.556 56.996-32.138 77.573-20.572 20.572-48.481 32.123-77.573 32.123zM950.856 45.727c0-9.702-3.85-19-10.711-25.876-6.856-6.851-16.159-10.701-25.856-10.701h-256c-9.702 0-19.005 3.85-25.861 10.701-6.861 6.876-10.716 16.174-10.716 25.876v182.851c0 6.472 1.72 12.774 4.895 18.273 1.587 2.749 3.538 5.299 5.821 7.572 6.856 6.876 16.159 10.726 25.861 10.726h256c9.697 0 19-3.85 25.856-10.726 4.726-4.721 8.018-10.598 9.61-16.973 0.727-2.877 1.101-5.852 1.101-8.873v-182.851zM5.244-46.474c3.4-5.652 8.256-10.25 14.062-13.373 5.806-3.103 12.344-4.577 18.925-4.275 1.775 0.072 3.538 0.271 5.275 0.625 3.563 0.671 7.006 1.9 10.219 3.599 1.012 0.548 2 1.126 2.962 1.751l100.569 66.924h208.456c29.1 0 57.007 11.576 77.581 32.148 20.575 20.577 32.138 48.476 32.138 77.578v109.696c0 29.102-11.562 57.027-32.138 77.604-20.575 20.572-48.481 32.123-77.581 32.123h-256c-29.094 0-57-11.551-77.575-32.123-20.581-20.577-32.138-48.502-32.138-77.604v-256c0.031-6.574 1.844-13.025 5.244-18.673zM365.712 85.576h-231.675l-57.238-38.077v180.7c0 8.75 3.469 17.101 9.637 23.276 6.175 6.175 14.55 9.651 23.275 9.651h256c8.731 0 17.1-3.476 23.275-9.651s9.644-14.525 9.644-23.276v-109.696c0-4.101-0.769-8.125-2.219-11.878-1.637-4.224-4.15-8.125-7.425-11.397-2.856-2.852-6.188-5.125-9.806-6.753-4.194-1.9-8.781-2.898-13.469-2.898zM548.567 850.275c0 29.1-11.556 57.025-32.128 77.6-20.577 20.575-48.483 32.125-77.583 32.125h-329.144c-29.094 0-57-11.55-77.575-32.125-20.581-20.575-32.138-48.5-32.138-77.6v-329.125c0-29.1 11.556-57 32.138-77.574 20.575-20.577 48.481-32.154 77.575-32.154h329.144c29.1 0 57.006 11.576 77.583 32.154 20.572 20.574 32.128 48.474 32.128 77.574v329.125zM475.431 662.675l-53.031 36.575c-3.081 2.025-6.431 3.55-9.937 4.575-3.288 0.95-6.713 1.45-10.175 1.45l-2.2-0.075c-1.125-0.050-2.244-0.175-3.35-0.35-3.081-0.475-6.082-1.325-8.937-2.55-1.95-0.85-3.837-1.875-5.631-3.050l-84.844-56.325-88.5 87.050c-3.575 3.575-7.825 6.325-12.45 8.15-3.457 1.35-7.125 2.2-10.888 2.45-8.806 0.6-17.538-2-24.575-7.325l-87.769-65.825v182.85c0 4.9 0.975 9.7 2.825 14.125 1.819 4.35 4.482 8.35 7.888 11.75 6.856 6.85 16.156 10.7 25.856 10.7h329.144c9.7 0 19-3.85 25.863-10.7 3.387-3.4 6.044-7.375 7.862-11.725 1.45-3.475 2.369-7.15 2.706-10.925 0.094-1.075 0.144-2.15 0.144-3.225v-187.6zM177.139 687.793c4.069 3.376 10.040 3.098 13.778-0.64l99.967-99.959c3.513-3.513 9.042-3.997 13.113-1.148l89.592 62.715c3.475 2.433 8.091 2.471 11.605 0.096l65.436-44.212c2.819-1.904 4.507-5.084 4.507-8.485v-101.054c0-5.656-4.584-10.24-10.24-10.24h-381.44c-5.655 0-10.24 4.584-10.24 10.24v101.669c0 3.047 1.357 5.936 3.702 7.881l100.218 83.137z" />
<glyph unicode="&#xe928;" glyph-name="amd" d="M0 137.39v201.124l287.008 287.006v-402.191h402.19l-287.006-287.043h-402.192v201.103zM883.999 83.901l-138.767 138.788v457.598h-457.599l-279.44 279.424h1015.235l0.108-502.592 0.42-505.217c0.154-1.582 0.010-3.174-0.435-4.705-0.543-1.536-36.797 33.987-139.52 136.704z" />
<glyph unicode="&#xe929;" d="M882.082 851.755h-740.197c-76.106 0-137.802-61.696-137.802-137.802v-531.924c0-76.109 61.696-137.805 137.802-137.805h740.197c76.105 0 137.801 61.696 137.801 137.805v531.924c0 76.106-61.696 137.802-137.801 137.802z" />
<glyph unicode="&#xe92a;" d="M882.112 40.158h-740.222c-37.617 0.047-73.68 15.010-100.28 41.613-26.599 26.598-41.564 62.66-41.61 100.279v531.901c0.047 37.617 15.011 73.68 41.61 100.279s62.663 41.564 100.28 41.611h740.222c37.615-0.047 73.677-15.011 100.279-41.611 26.598-26.599 41.562-62.662 41.609-100.279v-531.901c-0.047-37.619-15.010-73.681-41.609-100.279-26.603-26.603-62.665-41.566-100.279-41.613zM141.89 847.657c-35.447-0.047-69.428-14.148-94.492-39.213s-39.166-59.046-39.212-94.492v-531.903c0.047-35.447 14.148-69.427 39.212-94.494 25.065-25.062 59.046-39.164 94.492-39.211h740.222c35.443 0.047 69.427 14.148 94.49 39.211 25.067 25.067 39.168 59.046 39.215 94.494v531.901c-0.047 35.446-14.148 69.428-39.215 94.492-25.062 25.064-59.046 39.166-94.49 39.212l-740.222 0.002z" />
<glyph unicode="&#xe92b;" d="M177.896 520.465h27.497l-13.746 34.996-13.751-34.996z" />
<glyph unicode="&#xe92c;" d="M519.121 550.462c-3.209 1.11-6.613 1.536-9.997 1.252h-24.998v-19.998h24.998c3.383-0.286 6.788 0.141 9.997 1.25 1.323 1.014 2.359 2.352 3.017 3.884s0.909 3.207 0.734 4.865c0.606 1.661 0.555 3.491-0.141 5.116-0.7 1.625-1.988 2.924-3.61 3.631z" />
<glyph unicode="&#xe92d;" d="M786.594 587.963v-14.999l-7.501 14.999h-58.743v-14.999l-7.501 14.999h-79.996c-12.096 0.318-24.090-2.253-34.995-7.5v7.5h-56.247v-7.5c-6.771 5.242-15.189 7.901-23.748 7.5h-201.235l-13.748-31.247-13.748 31.247h-63.745v-14.999l-7.5 14.999h-53.744l-24.999-58.747-28.748-64.994h63.745l7.5 19.998h17.498l7.5-19.998h72.494v14.997l6.249-14.997h36.248l6.25 14.997v-14.997h173.736v32.495h2.5c2.5 0 2.5 0 2.5-3.75v-27.499h89.993v7.501c10.509-5.099 22.067-7.667 33.749-7.501h37.491l7.501 20.002h17.502l7.497-20.002h72.495v18.752l11.247-18.752h58.748v122.495h-56.243zM364.125 482.97h-21.248v68.744l-29.997-68.744h-18.749l-29.999 68.744v-68.744h-42.496l-8.748 18.748h-42.497l-7.5-19.998h-23.748l37.497 88.743h31.247l34.997-83.747v83.747h33.748l27.497-59.994 24.998 59.994h34.997v-87.493zM449.118 551.713h-48.745v-16.248h47.499v-17.5h-47.499v-17.498h48.745v-18.748h-69.993v88.743h69.993v-18.749zM542.861 515.465c2.701-4.975 3.994-10.59 3.75-16.247v-17.498h-21.248v11.247c0.576 6.080-0.734 12.19-3.75 17.502-3.75 3.746-7.497 3.746-14.997 3.746h-22.498v-32.495h-21.248v88.743h47.497c8.521 1.010 17.152-0.285 24.998-3.75 3.358-2.079 6.071-5.050 7.834-8.582 1.766-3.532 2.517-7.485 2.167-11.417 0.179-5.008-1.152-9.955-3.831-14.19-2.675-4.241-6.566-7.569-11.166-9.557 4.847-1.131 9.216-3.755 12.493-7.501zM580.361 482.97h-21.248v88.742h21.248v-88.742zM826.59 482.97h-29.995l-40 66.244v-66.244h-42.496l-7.501 18.748h-43.746l-7.497-19.998h-23.748c-5.798-0.657-11.669 0.047-17.148 2.052-5.478 2.010-10.415 5.265-14.417 9.506-4.002 4.245-6.959 9.365-8.64 14.95s-2.039 11.486-1.045 17.237c-0.708 12.655 3.298 25.124 11.247 34.996 4.186 3.814 9.143 6.682 14.537 8.407 5.389 1.725 11.093 2.269 16.713 1.593h19.998v-18.749h-19.994c-5.858 0.465-11.669-1.324-16.252-5.001-4.471-5.67-6.699-12.79-6.251-19.997-0.503-3.785-0.213-7.629 0.866-11.29 1.075-3.661 2.91-7.053 5.385-9.958 2.027-1.813 4.403-3.191 6.985-4.053 2.577-0.858 5.308-1.182 8.017-0.947h8.747l28.749 68.745h31.249l34.995-83.742v83.742h31.249l36.245-61.244v61.244h21.248v-86.242h2.5z" />
<glyph unicode="&#xe92e;" d="M324.146 402.974v-16.247h46.246v-17.502h-46.246v-18.748h51.247l23.747 26.249-22.499 26.249h-52.496z" />
<glyph unicode="&#xe92f;" d="M505.353 402.97h-26.249v-22.498h27.499c7.497 0 12.497 3.75 12.497 11.251-0.341 3.307-1.98 6.349-4.557 8.457-2.573 2.108-5.879 3.11-9.19 2.79z" />
<glyph unicode="&#xe930;" d="M891.58 381.73v56.243h-52.497c-9.348 0.572-18.611-2.074-26.249-7.497v7.497h-57.493c-8.943 0.393-17.749-2.249-24.998-7.497v7.497h-101.244v-7.497c-8.205 5.205-17.788 7.821-27.499 7.497h-67.494v-7.497c-8.533 5.513-18.607 8.141-28.749 7.497h-74.991l-17.499-18.748-16.25 18.748h-112.492v-122.487h109.991l17.499 18.748 16.25-18.748h67.494v28.745h8.747c9.737-0.606 19.494 0.666 28.749 3.75v-33.749h56.247v32.499h2.5c3.75 0 3.75 0 3.75-3.75v-28.745h169.988c10.129-0.538 20.173 2.082 28.749 7.497v-7.497h53.743c10.385-0.742 20.774 1.425 29.999 6.246 6.327 3.951 11.507 9.493 15.014 16.073 3.511 6.583 5.231 13.973 4.983 21.427 0.017 8.324-2.138 16.512-6.251 23.748zM504.107 361.732h-24.998v-29.999h-39.996l-24.997 28.749-26.248-28.749h-82.494v88.742h83.743l24.998-28.749 26.248 28.749h66.244c16.247 0 34.999-5.001 34.999-28.749-1.25-24.998-18.748-29.995-37.5-29.995zM629.099 366.729c2.85-4.915 4.156-10.577 3.75-16.247v-17.498h-21.248v11.247c0.704 6.084-0.614 12.233-3.75 17.498-2.5 3.75-7.501 3.75-14.997 3.75h-22.498v-32.495h-21.252v88.742h47.497c8.516 0.9 17.122-0.393 24.998-3.75 3.524-1.984 6.438-4.898 8.422-8.422 1.984-3.529 2.961-7.531 2.829-11.575 0.179-5.009-1.152-9.954-3.831-14.191-2.675-4.241-6.566-7.569-11.17-9.557 4.463-1.216 8.414-3.849 11.251-7.501zM715.341 402.978h-48.742v-16.247h47.492v-17.502h-47.492v-17.498h48.742v-18.748h-69.99v88.742h69.99v-18.748zM767.838 332.983h-39.996v18.748h39.996c1.553-0.265 3.145-0.175 4.659 0.26 1.515 0.431 2.914 1.199 4.092 2.244 1.604 1.685 2.5 3.921 2.5 6.246 0 2.33-0.896 4.565-2.5 6.251-2.082 1.771-4.77 2.667-7.501 2.5-19.998 1.25-43.746 0-43.746 27.499 0 12.497 7.501 26.249 29.999 26.249h41.246v-21.252h-38.741c-2.978 0.294-5.978-0.132-8.751-1.246-2.5-1.254-2.5-3.75-2.5-6.251 0-3.75 2.5-5.001 5.001-6.251 2.359-1.020 4.937-1.451 7.501-1.25h11.247c4.258 0.41 8.559-0.043 12.638-1.331s7.859-3.388 11.11-6.17c4.48-5.175 6.729-11.917 6.251-18.748-0.004-18.748-11.255-27.499-32.503-27.499zM875.332 341.734c-7.262-6.255-16.691-9.399-26.249-8.751h-40v18.748h40c1.553-0.265 3.145-0.175 4.659 0.26 1.51 0.431 2.91 1.199 4.087 2.244 1.604 1.685 2.5 3.921 2.5 6.246 0 2.33-0.896 4.565-2.5 6.251-2.082 1.771-4.77 2.667-7.497 2.5-19.998 1.25-43.75 0-43.75 27.499 0 12.497 7.501 26.249 29.999 26.249h41.25v-21.252h-37.495c-2.974 0.294-5.973-0.132-8.751-1.246-2.496-1.254-2.496-3.75-2.496-6.251 0-3.75 1.25-5.001 5.001-6.251 2.359-1.020 4.932-1.451 7.497-1.25h11.251c4.258 0.41 8.555-0.043 12.638-1.331 4.079-1.289 7.859-3.388 11.11-6.17 0.166 0.004 0.329-0.026 0.482-0.085 0.154-0.064 0.294-0.154 0.41-0.273 0.119-0.115 0.209-0.256 0.273-0.41 0.060-0.154 0.090-0.316 0.085-0.482 3.52-5.137 5.278-11.277 5.001-17.498 0.094-3.473-0.521-6.929-1.813-10.15-1.289-3.226-3.23-6.153-5.692-8.597z" />
<glyph unicode="&#xe931;" d="M606.601 400.474c-3.209 1.105-6.613 1.532-9.997 1.246h-24.998v-19.994h24.998c3.383-0.286 6.788 0.141 9.997 1.25 1.323 1.015 2.364 2.351 3.017 3.883 0.657 1.532 0.909 3.209 0.734 4.864 0.606 1.664 0.555 3.494-0.141 5.12s-1.988 2.923-3.61 3.631z" />
<glyph unicode="&#xe932;" d="M519.121 550.462c-3.209 1.11-6.613 1.536-9.997 1.251h-24.998v-19.997h24.998c3.383-0.286 6.788 0.141 10.001 1.25 1.318 1.014 2.359 2.352 3.017 3.884s0.909 3.207 0.73 4.865c0.606 1.661 0.555 3.491-0.141 5.117s-1.988 2.924-3.61 3.631z" />
<glyph unicode="&#xe933;" d="M670.353 520.465h28.749l-13.747 34.996-15.002-34.996z" />
<glyph unicode="&#xe934;" d="M457.873 340.471v71.245l-32.498-34.995 32.498-36.25z" />
<glyph unicode="&#xe935;" d="M505.353 402.97h-26.249v-22.498h27.494c7.501 0 12.501 3.75 12.501 11.251-0.341 3.307-1.98 6.349-4.557 8.457-2.573 2.108-5.879 3.11-9.19 2.79z" />
<glyph unicode="&#xe936;" d="M606.605 400.474c-3.213 1.105-6.618 1.532-10.001 1.25h-24.998v-20.002h24.998c3.383-0.282 6.788 0.145 10.001 1.254 1.318 1.015 2.359 2.351 3.017 3.883s0.909 3.209 0.73 4.864c0.606 1.664 0.555 3.49-0.141 5.116s-1.988 2.927-3.605 3.635z" />
<glyph unicode="&#xe937;" d="M496.61 335.475l-17.498 18.748v-21.248h-41.25l-24.998 28.749-27.497-28.749h-82.493v87.497h83.745l26.246-28.749 12.5 14.997-31.249 31.249h-109.991v-122.492h109.991l18.749 18.748 16.25-18.748h67.494v19.998z" />
<glyph unicode="&#xe938;" d="M366.625 465.468l-16.247 17.498h-7.501v7.501l-18.749 18.748-12.5-26.249h-17.498l-29.997 68.745v-68.745h-42.496l-8.75 18.748h-42.497l-8.748-18.748h-22.499l37.494 87.493h31.249l34.997-83.742v83.742h18.752l-17.5 17.5h-18.747v-14.999l-6.251 14.999h-54.995l-24.998-58.746-28.746-63.744h64.994l7.499 18.748h17.498l8.749-18.748h69.996v14.997l6.249-14.997h36.248l6.249 14.997v-14.997h38.746z" />
<glyph unicode="&#xe939;" d="M309.125 522.97l-20 19.997 14.999-32.498 5.001 12.501z" />
<glyph unicode="&#xe93a;" d="M877.815 321.724c5.628 3.789 10.347 8.785 13.803 14.622 3.46 5.837 5.577 12.369 6.195 19.127l-17.498 17.498c1.553-3.989 2.398-8.222 2.5-12.501 0.094-3.469-0.521-6.925-1.809-10.15-1.293-3.221-3.226-6.148-5.692-8.597-7.258-6.251-16.687-9.395-26.244-8.747h-40v18.748h40c1.549-0.265 3.14-0.175 4.655 0.256 1.515 0.435 2.914 1.199 4.092 2.244 1.604 1.685 2.5 3.921 2.5 6.246 0 2.33-0.896 4.565-2.5 6.251-2.082 1.775-4.77 2.671-7.501 2.505-19.998 1.25-43.746 0-43.746 27.494 0 12.501 7.501 23.748 26.249 26.249l-13.747 13.751c-2.5-1.25-3.75-2.505-5.001-2.505v7.501h-57.493c-8.943 0.393-17.754-2.253-25.003-7.501v7.501h-102.49v-7.501c-8.205 5.21-17.788 7.821-27.499 7.501h-67.494v-7.501c-8.533 5.517-18.611 8.145-28.749 7.501h-74.991l-17.499-18.748-16.248 18.748h-13.751l37.494-37.495 18.747 19.998h66.244c16.252 0 34.999-4.996 34.999-28.749 0-24.998-17.498-29.995-36.245-29.995h-24.998v-18.748l18.748-18.752v18.752h6.251c9.732-0.606 19.494 0.666 28.745 3.746v-33.745h56.252v32.495h2.5c3.746 0 3.746 0 3.746-3.75v-28.745h169.988c10.129-0.538 20.173 2.086 28.749 7.497v-7.497h53.747c10.274-1.519 20.766 0.23 29.995 4.996zM629.086 366.72c2.85-4.919 4.156-10.577 3.75-16.247v-17.498h-21.252v11.251c0.708 6.084-0.61 12.233-3.746 17.498-2.505 3.75-7.501 3.75-15.002 3.75h-22.498v-32.499h-21.248v88.742h47.497c8.516 0.896 17.122-0.393 24.998-3.75 3.529-1.984 6.438-4.898 8.422-8.427 1.984-3.524 2.961-7.526 2.829-11.571 0.183-5.009-1.152-9.954-3.827-14.195-2.679-4.237-6.571-7.565-11.174-9.553 4.463-1.216 8.414-3.849 11.251-7.501zM715.328 402.97h-48.747v-16.252h47.497v-17.498h-47.497v-17.498h48.747v-18.748h-69.995v88.742h69.995v-18.748zM767.825 332.975h-39.996v18.748h39.996c1.553-0.265 3.145-0.175 4.659 0.256 1.515 0.435 2.91 1.199 4.092 2.244 1.604 1.685 2.496 3.921 2.496 6.246 0 2.33-0.892 4.565-2.496 6.251-2.082 1.775-4.77 2.671-7.501 2.505-19.998 1.25-43.746 0-43.746 27.494 0 12.501 7.497 26.249 29.995 26.249h41.25v-21.248h-38.75c-2.974 0.299-5.973-0.132-8.747-1.25-2.5-1.25-2.5-3.75-2.5-6.251 0-3.746 2.5-4.996 5.001-6.251 2.359-1.015 4.937-1.446 7.501-1.246h11.247c4.258 0.41 8.559-0.043 12.638-1.331 4.083-1.289 7.859-3.388 11.11-6.17 4.48-5.175 6.729-11.921 6.251-18.748-0.004-18.752-11.251-27.499-32.499-27.499z" />
<glyph unicode="&#xe93b;" d="M827.853 394.223c0-3.75 1.254-5.001 5.001-6.251 2.364-1.020 4.937-1.446 7.501-1.25h11.247c6.054 0.23 12.070-1.058 17.502-3.75l-18.752 18.752h-11.247c-2.974 0.294-5.978-0.137-8.751-1.254-1.562-1.711-2.453-3.93-2.5-6.246z" />
<glyph unicode="&#xe93c;" d="M784.085 469.21l2.496-3.746h1.254l-3.75 3.746z" />
<glyph unicode="&#xe93d;" d="M715.354 537.956l21.248-51.244v29.995l-21.248 21.25z" />
<glyph unicode="&#xe93e;" d="M501.628 496.713h2.496c2.5 0 2.5 0 2.5-3.746v-27.499h89.993v7.501c10.513-5.099 22.071-7.667 33.749-7.501h37.495l7.501 20.002h17.498l7.497-20.002h72.499v12.501l-17.502 17.498v-13.747h-42.5l-6.246 19.998h-43.746l-7.501-19.998h-23.748c-5.798-0.657-11.669 0.047-17.148 2.052-5.474 2.010-10.411 5.261-14.413 9.506s-6.963 9.365-8.644 14.95c-1.681 5.585-2.039 11.486-1.045 17.237-0.708 12.655 3.298 25.125 11.251 34.997 4.181 3.814 9.139 6.681 14.532 8.407s11.093 2.269 16.713 1.592h19.998v-18.749h-19.989c-5.858 0.464-11.669-1.324-16.252-5-4.471-5.67-6.694-12.79-6.246-19.997-0.508-3.785-0.213-7.629 0.862-11.29 1.079-3.661 2.914-7.053 5.385-9.958 2.027-1.813 4.403-3.191 6.985-4.053s5.308-1.182 8.017-0.947h8.751l28.745 68.742h12.501l-17.498 17.498h-32.499c-12.096 0.319-24.094-2.252-34.999-7.499v7.499h-54.993v-7.499c-6.775 5.242-15.194 7.901-23.748 7.499h-201.238l-13.75-31.247-13.746 31.247h-54.995l17.499-17.498h24.998l21.248-46.248 7.5-7.497 22.498 54.995h34.998v-88.745h-21.248v68.745l-21.248-49.997 36.246-36.245h143.742l1.25 32.495zM559.121 570.46h21.248v-88.745h-21.248v88.745zM449.131 551.711h-48.748v-16.248h47.497v-17.502h-47.497v-17.498h48.748v-18.748h-69.996v88.745h69.996v-18.749zM484.126 482.965h-21.248v88.743h47.501c8.516 1.010 17.148-0.285 24.998-3.75 3.354-2.079 6.067-5.050 7.834-8.581s2.513-7.484 2.163-11.417c0.183-5.008-1.152-9.955-3.827-14.192s-6.571-7.569-11.17-9.557c4.194-1.075 7.787-3.772 9.997-7.497 2.701-4.979 3.994-10.594 3.75-16.252v-17.498h-21.248v11.251c0.576 6.076-0.734 12.186-3.75 17.498-1.25 2.505-5.001 2.505-12.497 2.505h-22.498l-0.004-31.253z" />
<glyph unicode="&#xe93f;" glyph-name="analytics" d="M258.212 404.618h-231.498c-14.753 0-26.713-11.653-26.713-26.035v-416.543c0-14.382 11.96-26.035 26.713-26.035h231.498c14.753 0 26.713 11.653 26.713 26.035v416.543c0 14.382-11.96 26.035-26.713 26.035zM627.763 960h-231.55c-14.753 0-26.713-11.656-26.713-26.034v-971.931c0-14.377 11.96-26.035 26.713-26.035h231.55c14.756 0 26.716 11.658 26.716 26.035v971.931c0 14.378-11.96 26.034-26.716 26.034zM997.263 682.325h-231.501c-14.751 0-26.711-11.656-26.711-26.034v-694.25c0-14.377 11.96-26.035 26.711-26.035h231.501c14.751 0 26.711 11.658 26.711 26.035v694.25c0 14.378-11.96 26.034-26.711 26.034z" />
<glyph unicode="&#xe940;" glyph-name="analytics-outline" d="M258.2-63.995h-231.488c-3.508 0-6.983 0.671-10.225 1.976-3.242 1.311-6.187 3.226-8.668 5.642-2.481 2.422-4.448 5.289-5.79 8.448s-2.031 6.548-2.029 9.969v416.543c-0.002 3.42 0.688 6.81 2.029 9.969s3.309 6.026 5.79 8.448c2.481 2.417 5.426 4.332 8.668 5.642 3.242 1.306 6.716 1.976 10.225 1.976h231.487c3.509 0 6.983-0.671 10.225-1.976 3.241-1.311 6.187-3.226 8.668-5.642 2.481-2.422 4.448-5.289 5.79-8.448s2.032-6.548 2.030-9.969v-416.543c0.002-3.42-0.688-6.81-2.030-9.969s-3.309-6.026-5.79-8.448c-2.481-2.417-5.426-4.332-8.668-5.642-3.241-1.306-6.716-1.976-10.225-1.976zM53.425-11.93h178.063v364.483h-178.064l0.001-364.483zM627.722-64h-231.485c-3.509 0-6.983 0.671-10.225 1.976-3.242 1.311-6.188 3.226-8.668 5.642-2.481 2.422-4.449 5.289-5.79 8.448-1.342 3.164-2.031 6.548-2.029 9.969v971.931c-0.002 3.419 0.687 6.806 2.029 9.965s3.309 6.030 5.79 8.448c2.481 2.418 5.426 4.335 8.668 5.643s6.716 1.98 10.225 1.978h231.485c3.512 0.002 6.984-0.67 10.225-1.978 3.246-1.308 6.19-3.225 8.668-5.643 2.483-2.418 4.449-5.289 5.791-8.448s2.033-6.546 2.033-9.965v-971.931c0-3.42-0.691-6.804-2.033-9.969-1.341-3.159-3.308-6.026-5.791-8.448-2.478-2.417-5.422-4.332-8.668-5.642-3.241-1.306-6.712-1.976-10.225-1.976zM422.949-11.93h178.062v919.861h-178.062v-919.861zM997.279-64h-231.542c-3.507-0.005-6.984 0.671-10.225 1.976-3.241 1.311-6.185 3.226-8.668 5.642-2.483 2.422-4.449 5.289-5.791 8.448s-2.033 6.548-2.028 9.969v694.249c-0.005 3.419 0.686 6.806 2.028 9.965s3.308 6.030 5.791 8.448c2.483 2.418 5.427 4.336 8.668 5.643s6.717 1.98 10.225 1.978h231.542c3.507 0.002 6.984-0.67 10.225-1.978s6.185-3.225 8.668-5.643c2.478-2.418 4.449-5.288 5.791-8.448s2.028-6.546 2.028-9.965v-694.249c0-3.42-0.686-6.81-2.028-9.969s-3.313-6.026-5.791-8.448c-2.483-2.417-5.427-4.332-8.668-5.642-3.241-1.306-6.717-1.981-10.225-1.976zM792.448-11.935h178.12v642.185h-178.12v-642.185z" />
<glyph unicode="&#xe941;" glyph-name="anchor" d="M1016.212 363.228l-52.434 52.644c-3.348 3.2-7.511 5.412-12.027 6.4-0.911 0.236-1.838 0.415-2.77 0.538-4.511 0.788-9.149 0.348-13.435-1.28l-0.067-0.005-0.241-0.2c-3.046-1.275-5.821-3.123-8.177-5.453l-52.434-52.644c-4.787-4.905-7.455-11.51-7.419-18.381 0.036-6.866 2.765-13.44 7.603-18.299 4.838-4.854 11.387-7.598 18.227-7.634 6.84-0.031 13.414 2.642 18.299 7.45l1.935 1.94c-15.493-90.66-60.984-173.435-129.111-234.936-68.132-61.507-154.926-98.15-246.359-104.018v563.992h74.747c6.886 0 13.491 2.746 18.36 7.635s7.603 11.519 7.603 18.433c0 6.914-2.734 13.544-7.603 18.433s-11.474 7.635-18.36 7.635h-74.747v67.847c28.846 5.304 55.429 19.224 76.273 39.94 13.466 13.476 24.151 29.488 31.442 47.117s11.049 36.53 11.054 55.619c0.005 19.089-3.743 37.992-11.028 55.625-7.281 17.633-17.961 33.65-31.416 47.133-27.571 26.469-64.241 41.241-102.387 41.241-38.144 0-74.818-14.772-102.385-41.241-13.445-13.491-24.109-29.511-31.383-47.142s-11.016-36.53-11.011-55.615c0.005-19.084 3.756-37.981 11.039-55.609s17.955-33.642 31.407-47.127c20.892-20.761 47.55-34.69 76.472-39.959v-67.83h-74.903c-6.886 0-13.49-2.746-18.359-7.635s-7.605-11.519-7.605-18.433c0-6.914 2.736-13.544 7.605-18.433s11.473-7.635 18.359-7.635h74.9v-563.99c-91.421 5.862-178.203 42.501-246.328 103.992s-113.616 144.241-129.123 234.89l1.864-1.869c4.885-4.808 11.462-7.485 18.302-7.45 6.84 0.031 13.39 2.775 18.227 7.634 4.836 4.854 7.569 11.433 7.604 18.299s-2.632 13.471-7.419 18.376l-52.433 52.649c-2.352 2.33-5.128 4.178-8.177 5.453l-0.241 0.2-0.067 0.005c-4.263 1.618-8.879 2.068-13.372 1.295-0.971-0.133-1.933-0.317-2.881-0.563-4.498-0.993-8.64-3.205-11.977-6.39l-52.435-52.644c-4.787-4.905-7.454-11.51-7.419-18.381 0.035-6.866 2.767-13.44 7.604-18.299 4.837-4.854 11.387-7.598 18.226-7.634 6.84-0.031 13.417 2.642 18.302 7.45l11.866 11.914c14.33-111.206 68.499-213.371 152.385-287.406 83.886-74.030 191.748-114.867 303.434-114.872s219.555 40.817 303.446 114.836c83.896 74.025 138.076 176.184 152.417 287.391l11.817-11.863c2.401-2.463 5.263-4.419 8.428-5.76 3.159-1.347 6.554-2.043 9.984-2.063 3.43-0.015 6.83 0.65 10.004 1.961s6.057 3.241 8.484 5.673c2.427 2.437 4.347 5.335 5.652 8.52s1.966 6.6 1.951 10.045c-0.015 3.446-0.717 6.851-2.053 10.025s-3.287 6.047-5.74 8.458l0.005 0.005zM418.889 815.962c-0.031 15.348 3.713 30.466 10.897 44.013s17.588 25.104 30.288 33.646c12.7 8.542 27.304 13.805 42.515 15.321s30.561-0.76 44.687-6.628c14.121-5.868 26.588-15.145 36.285-27.010s16.328-25.948 19.302-41.002c2.98-15.054 2.207-30.614-2.243-45.297s-12.442-28.037-23.26-38.877c-17.787-16.732-41.247-26.043-65.622-26.043-24.373 0-47.834 9.311-65.62 26.043-8.645 8.623-15.503 18.881-20.177 30.18s-7.072 23.417-7.054 35.653z" />
<glyph unicode="&#xe942;" glyph-name="annotation-filled" d="M960.486 709.99c16.819 0.069 32.937 6.785 44.831 18.687 11.899 11.902 18.611 28.025 18.678 44.857v123.443c-0.087 16.778-6.825 32.836-18.729 44.651-11.909 11.815-28.012 18.422-44.78 18.372h-123.387c-8.274 0.015-16.476-1.605-24.125-4.767s-14.597-7.804-20.449-13.659c-5.852-5.855-10.491-12.809-13.65-20.462-3.164-7.653-4.782-15.855-4.767-24.136v-35.939h-524.232v35.939c-0.087 16.778-6.823 32.837-18.73 44.652s-28.012 18.422-44.782 18.371h-122.853c-16.77 0.051-32.875-6.556-44.782-18.371s-18.643-27.874-18.73-44.652v-123.443c0.067-16.833 6.779-32.956 18.676-44.859s28.012-18.618 44.836-18.685h35.4v-523.98h-35.4c-16.824-0.067-32.94-6.779-44.837-18.683s-18.609-28.027-18.675-44.861v-123.443c0.087-16.778 6.823-32.835 18.73-44.652s28.012-18.422 44.782-18.371h122.858c16.77-0.051 32.875 6.554 44.782 18.371s18.642 27.873 18.729 44.652v35.942h524.232v-35.942c-0.015-8.279 1.603-16.481 4.762-24.136 3.164-7.649 7.803-14.607 13.655-20.46 5.852-5.857 12.8-10.496 20.449-13.66 7.649-3.159 15.846-4.782 24.125-4.767h123.382c16.773-0.051 32.876 6.559 44.785 18.371 11.904 11.817 18.642 27.873 18.729 44.652v123.443c-0.067 16.835-6.779 32.957-18.678 44.861-11.894 11.899-28.012 18.616-44.836 18.683h-35.405v523.98h35.405zM826.168 896.976c0.108 2.867 1.295 5.588 3.323 7.618s4.746 3.215 7.613 3.32h123.382c1.475 0.045 2.939-0.204 4.316-0.732s2.632-1.323 3.697-2.341c1.065-1.017 1.92-2.237 2.509-3.587 0.594-1.35 0.911-2.804 0.932-4.278v-123.443c-0.026-3.031-1.239-5.929-3.384-8.072-2.14-2.143-5.038-3.359-8.069-3.386h-123.387c-2.944 0.137-5.724 1.403-7.762 3.537s-3.169 4.971-3.169 7.921v123.443zM371.699 310.492c-0.081 0.901 0.1 1.807 0.521 2.606 6.748 40.832 25.194 78.828 53.1 109.379 26.225 29.458 55.547 56.002 87.459 79.171 3.128 2.083 9.364 5.209 8.847 9.375 0 2.605-4.163 5.209-5.724 6.769l-9.894 9.896c-3.039 3.089-5.432 6.752-7.041 10.776s-2.401 8.329-2.33 12.662v129.695c-0.030 2.789 0.749 5.527 2.244 7.881s3.64 4.224 6.176 5.382c2.536 1.158 5.353 1.555 8.111 1.142 2.755-0.413 5.335-1.617 7.419-3.468l42.163-36.981c3.466-2.596 7.649-4.052 11.976-4.167h31.237c4.183 0.031 8.228 1.502 11.453 4.167l42.168 36.981c2.125 1.853 4.736 3.060 7.521 3.477s5.637 0.028 8.207-1.123c2.575-1.15 4.762-3.013 6.313-5.368 1.546-2.356 2.391-5.105 2.427-7.924v-129.693c-0.097-8.707-3.436-17.063-9.364-23.438-9.416-7.298-17.367-16.311-23.434-26.564-1.449-3.825-2.156-7.89-2.084-11.98-3.118-32.293-1.034-65.626-3.118-97.923-1.352-31.145 3.973-62.228 15.616-91.146 3.635-11.459 8.325-22.395 12.493-33.331 0.41-1.746 1.172-3.389 2.248-4.823 1.075-1.439 2.432-2.632 3.994-3.512 2.284-1.065 4.777-1.603 7.296-1.562 7.588-0.722 14.746-3.835 20.454-8.893 5.704-5.053 9.656-11.786 11.295-19.236 0.522-0.517 0.522-0.517 0.522-1.039 0.727-4.756 0.026-9.62-2.012-13.983-2.038-4.357-5.325-8.013-9.441-10.496-6.231-2.678-13.076-3.579-19.784-2.606-34.877 0.522-70.277 0-105.155 0h-207.194c-11.376 0.599-22.448 3.886-32.311 9.59s-18.235 13.66-24.433 23.224c-6.723 12.621-10.964 26.409-12.494 40.627-7.703 67.282-1.139 135.434 19.261 200.008 7.809 26.564 20.303 74.482 56.223 72.92 6.51-0.283 12.769-2.594 17.903-6.609s8.885-9.535 10.73-15.788c4.685-19.792-10.409-43.231-17.184-60.94-7.302-20.369-13.045-41.264-17.179-62.502-3.273-15.99-5.533-32.169-6.768-48.44-0.867-7.081-1.214-14.218-1.041-21.356 0.525-6.774 2.607-14.587 2.607-20.838zM52.059 773.534v123.443c0.024 1.474 0.34 2.928 0.93 4.279s1.443 2.57 2.509 3.588c1.066 1.018 2.323 1.814 3.699 2.341s2.843 0.776 4.315 0.731h122.858c1.473 0.046 2.939-0.203 4.316-0.73s2.633-1.322 3.699-2.34c1.065-1.018 1.918-2.237 2.509-3.588s0.906-2.805 0.929-4.279v-123.443c-0.026-3.031-1.241-5.931-3.383-8.074s-5.041-3.359-8.070-3.384h-122.858c-3.029 0.027-5.926 1.243-8.069 3.386s-3.357 5.042-3.384 8.072zM197.818-0.978c-0.024-1.475-0.339-2.929-0.929-4.275-0.59-1.352-1.443-2.57-2.509-3.589s-2.323-1.818-3.699-2.34c-1.376-0.527-2.843-0.778-4.316-0.732h-122.853c-1.473-0.046-2.939 0.205-4.315 0.732s-2.633 1.321-3.699 2.34c-1.065 1.019-1.918 2.237-2.509 3.589-0.59 1.347-0.907 2.801-0.93 4.275v123.443c0.026 3.031 1.241 5.929 3.383 8.074s5.040 3.359 8.070 3.384h122.858c3.030-0.026 5.928-1.239 8.071-3.384 2.142-2.14 3.357-5.043 3.382-8.074v-123.443h-0.005zM971.935 122.465v-123.443c-0.026-1.475-0.343-2.929-0.932-4.275-0.589-1.352-1.444-2.57-2.509-3.589s-2.324-1.812-3.697-2.34c-1.377-0.527-2.842-0.778-4.316-0.732h-123.382c-2.867 0.108-5.586 1.29-7.613 3.323-2.028 2.028-3.215 4.746-3.318 7.613v123.443c-0.046 1.475 0.205 2.944 0.732 4.316 0.527 1.377 1.321 2.637 2.335 3.702 1.019 1.065 2.237 1.92 3.589 2.509 1.347 0.594 2.801 0.911 4.275 0.932h123.387c1.51 0.031 3.016-0.246 4.419-0.809s2.678-1.408 3.743-2.478c1.070-1.070 1.915-2.345 2.478-3.748 0.563-1.408 0.84-2.908 0.809-4.424z" />
<glyph unicode="&#xe943;" glyph-name="annotation-filled-1" d="M960.476 710.126c34.877 0 63.524 28.622 63.524 63.498v123.386c0 34.875-28.646 62.989-63.524 62.989h-122.849c-34.877 0-63.524-28.114-63.524-62.989v-35.918h-524.229v35.918c0 34.875-28.114 62.989-62.99 62.989h-123.386c-34.876 0-63.523-28.114-63.523-62.989v-123.387c0-34.875 28.648-63.498 63.523-63.498h35.409v-524.254h-35.409c-34.876 0-63.523-28.114-63.523-62.986v-123.361c0-34.371 29.182-63.524 63.523-63.524h123.386c34.875 0 62.99 28.621 62.99 63.524v35.917h524.229v-35.917c0-34.903 28.646-63.524 63.519-63.524h122.854c34.877 0 63.524 28.621 63.524 63.524v123.361c0 34.872-28.646 62.986-63.524 62.986h-35.384v524.255h35.384zM197.815-0.476c0-6.257-5.211-11.464-10.93-11.464h-123.386c-5.72 0-11.464 5.719-11.464 11.464v123.361c0 5.719 5.237 10.931 11.464 10.931h123.386c5.719 0 10.93-5.212 10.93-10.931v-123.361zM197.815 773.624c0-6.227-4.702-11.439-10.93-11.439h-123.386c-6.228 0-11.464 5.211-11.464 11.439v123.387c0 6.253 5.237 10.93 11.464 10.93h123.386c5.719 0 10.93-5.211 10.93-10.93v-123.387zM960.476 133.816c6.252 0 11.464-4.68 11.464-10.931v-123.361c0-6.257-5.212-11.464-11.464-11.464h-122.849c-6.257 0-11.469 5.212-11.469 11.464v123.361c0 6.252 5.212 10.931 11.469 10.931h122.849zM837.627 762.185c-6.257 0-11.469 5.211-11.469 11.439v123.387c0 6.253 5.212 10.93 11.469 10.93h122.849c6.252 0 11.464-4.677 11.464-10.93v-123.387c0-6.227-5.212-11.439-11.464-11.439h-122.849z" />
<glyph unicode="&#xe944;" glyph-name="annotation-outline" d="M960.655 710.085c16.794 0.014 32.896 6.689 44.774 18.561 11.873 11.872 18.555 27.971 18.575 44.764v123.244c-0.020 16.793-6.702 32.892-18.575 44.764-11.878 11.872-27.981 18.547-44.774 18.562h-123.244c-16.794-0.014-32.896-6.689-44.769-18.561-11.878-11.872-18.56-27.971-18.58-44.764v-35.742h-524.143v35.742c-0.017 16.785-6.692 32.878-18.558 44.749s-27.957 18.552-44.742 18.576h-123.244c-16.793-0.014-32.895-6.689-44.772-18.561s-18.559-27.971-18.58-44.764v-123.244c0.021-16.793 6.703-32.891 18.579-44.764s27.978-18.547 44.771-18.561h35.539v-524.167h-35.488c-16.793-0.015-32.894-6.692-44.771-18.56-11.877-11.873-18.559-27.971-18.58-44.764v-123.244c0.021-16.794 6.703-32.891 18.58-44.764s27.978-18.55 44.771-18.56h123.245c16.785 0.020 32.874 6.702 44.741 18.575 11.866 11.868 18.54 27.96 18.558 44.749v35.84h524.091v-35.845c0.020-16.788 6.702-32.891 18.58-44.759 11.873-11.873 27.976-18.55 44.769-18.56h123.244c16.794 0.010 32.896 6.687 44.774 18.56 11.873 11.873 18.555 27.971 18.575 44.764v123.244c-0.020 16.794-6.702 32.891-18.575 44.764-11.878 11.868-27.981 18.545-44.774 18.56h-35.487v524.167h35.487zM837.412 907.915h123.244c2.99-0.005 5.852-1.192 7.967-3.302s3.308-4.972 3.323-7.96v-123.244c-0.015-2.988-1.208-5.85-3.323-7.96s-4.977-3.297-7.967-3.302h-123.244c-2.99 0.005-5.852 1.192-7.967 3.302s-3.308 4.972-3.323 7.96v60.964l0.108 0.506-0.108 0.505v61.269c0.015 2.988 1.208 5.85 3.323 7.96s4.977 3.298 7.967 3.302zM52.088 773.409v123.244c0.011 2.988 1.205 5.85 3.32 7.96s4.979 3.298 7.967 3.302h123.245c2.982-0.007 5.84-1.196 7.947-3.308s3.29-4.972 3.29-7.954v-123.244c0-2.982-1.183-5.843-3.29-7.954s-4.964-3.3-7.947-3.307h-123.244c-2.988 0.004-5.853 1.191-7.968 3.301s-3.309 4.972-3.32 7.96zM186.672-11.914h-123.245c-2.988 0.005-5.852 1.193-7.967 3.302s-3.309 4.972-3.32 7.962v123.244c0.011 2.985 1.205 5.847 3.32 7.956s4.979 3.297 7.967 3.302h123.245c2.982-0.005 5.84-1.193 7.947-3.308 2.106-2.109 3.29-4.972 3.29-7.951v-61.117l-0.052-0.251 0.052-0.251v-61.624c0-2.985-1.183-5.847-3.29-7.956s-4.964-3.302-7.947-3.308v0zM971.945 122.593v-123.244c-0.010-2.99-1.208-5.852-3.323-7.962s-4.977-3.297-7.967-3.302h-123.244c-2.99 0.005-5.852 1.193-7.967 3.302s-3.308 4.972-3.323 7.962v61.368l0.108 0.507-0.108 0.507v60.861c0.015 2.985 1.208 5.847 3.323 7.956s4.977 3.297 7.967 3.302h123.244c2.99-0.005 5.852-1.193 7.967-3.302s3.308-4.972 3.323-7.956v0zM873.103 185.917h-35.692c-16.794-0.015-32.896-6.692-44.769-18.565-11.878-11.868-18.56-27.971-18.58-44.759v-35.338h-524.091v35.333c-0.017 16.788-6.691 32.881-18.557 44.754-11.866 11.868-27.956 18.55-44.741 18.575h-35.693v524.167h35.641c16.785 0.025 32.875 6.705 44.741 18.576s18.541 27.964 18.558 44.749v35.438h524.143v-35.438c0.020-16.793 6.702-32.891 18.58-44.764 11.873-11.872 27.976-18.547 44.769-18.561h35.692v-524.167zM687.677 256.676c-2.534 0.179-5.018 0.814-7.332 1.869-2.898 1.905-5.043 4.751-6.067 8.064-4.275 11.151-8.714 22.277-12.728 33.536-11.464 28.948-16.758 59.965-15.539 91.075 2.391 32.497 0.128 65.371 3.098 98.018 0.195 3.948 0.927 7.85 2.171 11.601 5.949 10.433 13.891 19.596 23.373 26.969 6.124 6.166 9.559 14.503 9.559 23.194v129.69c0 2.825-0.814 5.59-2.345 7.965-1.526 2.375-3.712 4.258-6.282 5.425-2.575 1.167-5.427 1.568-8.223 1.155s-5.412-1.623-7.537-3.483l-42.153-36.913c-3.256-2.861-7.439-4.449-11.776-4.471h-31.089c-4.306 0.023-8.453 1.612-11.674 4.471l-42.209 36.869c-2.125 1.854-4.736 3.058-7.521 3.468-2.789 0.41-5.636 0.008-8.201-1.158s-4.742-3.045-6.267-5.414c-1.526-2.369-2.337-5.127-2.337-7.945v-129.678c0.001-4.352 0.858-8.661 2.523-12.682s4.107-7.674 7.185-10.751c3.305-3.308 6.621-6.603 9.918-9.917 1.592-1.605 5.335-4.255 5.576-6.612 0.425-4.201-5.975-7.42-8.893-9.609-31.966-22.855-61.245-49.254-87.276-78.693-27.956-30.664-46.521-68.71-53.49-109.614-0.191-1.597-0.312-2.959-0.489-4.511-0.184 7.603-0.951 15.181-2.295 22.666-0.266 7.188-0.014 14.382 0.753 21.535 3.248 37.786 11.41 74.982 24.281 110.657 6.495 17.996 21.424 41.050 16.979 60.825-1.727 6.316-5.423 11.917-10.549 15.989s-11.419 6.405-17.961 6.659c-36.028 1.453-48.492-46.277-56.531-72.817-20.41-64.603-26.867-132.806-18.942-200.088 1.489-14.182 5.714-27.935 12.443-40.504 6.185-9.605 14.576-17.587 24.473-23.286s21.013-8.945 32.421-9.477h206.831c35.113 0 70.308 0.671 105.421 0 6.748-0.952 13.629-0.072 19.927 2.54 4.065 2.519 7.286 6.185 9.262 10.542 1.976 4.352 2.616 9.196 1.833 13.911l-0.179 1.111c-1.695 7.46-5.724 14.177-11.505 19.185-5.78 5.002-13.010 8.028-20.634 8.637z" />
<glyph unicode="&#xe945;" glyph-name="annotation-outline-1" d="M960.62 710.089c34.934 0 63.355 28.423 63.355 63.355v123.252c0 34.881-28.421 63.304-63.355 63.304h-123.197c-34.934 0-63.36-28.423-63.36-63.304v-35.745h-524.175v35.745c0 34.881-28.423 63.304-63.355 63.304h-123.252c-34.932 0-63.355-28.423-63.355-63.304v-123.252c0-34.932 28.423-63.355 63.355-63.355h35.592v-524.176h-35.542c-34.931 0-63.354-28.426-63.354-63.355v-123.254c0-34.883 28.423-63.304 63.355-63.304h123.252c34.932 0 63.355 28.421 63.355 63.304v35.845h524.129v-35.845c0-34.883 28.421-63.304 63.355-63.304h123.197c34.934 0 63.36 28.421 63.36 63.304v123.254c0 34.929-28.426 63.355-63.36 63.355h-35.487v524.177h35.487zM63.28 762.156c-6.203 0-11.288 5.085-11.288 11.288v123.252c0 6.203 5.085 11.237 11.288 11.237h123.252c6.203 0 11.288-5.034 11.288-11.237v-61.524c0-0.102-0.051-0.178-0.051-0.254 0-0.101 0.051-0.153 0.051-0.254v-61.219c0-6.203-5.085-11.288-11.288-11.288h-123.252zM197.871 61.691c0-0.174-0.102-0.328-0.102-0.507s0.102-0.328 0.102-0.507v-61.373c0-6.2-5.085-11.238-11.288-11.238h-123.253c-6.203 0-11.288 5.038-11.288 11.238v123.254c0 6.2 5.085 11.29 11.288 11.29h123.253c6.203 0 11.288-5.089 11.288-11.29v-60.867zM774.067 122.557v-35.338h-524.129v35.338c0 34.934-28.423 63.355-63.355 63.355h-35.643v524.177h35.592c34.932 0 63.355 28.423 63.355 63.355v35.44h524.175v-35.44c0-34.932 28.426-63.355 63.36-63.355h35.64v-524.177h-35.64c-34.934 0-63.355-28.421-63.355-63.355zM960.62 133.847c6.205 0 11.29-5.089 11.29-11.29v-123.254c0-6.2-5.084-11.238-11.29-11.238h-123.197c-6.205 0-11.29 5.038-11.29 11.238v61.373c0 0.179 0.102 0.328 0.102 0.507s-0.102 0.333-0.102 0.512v60.861c0 6.205 5.084 11.29 11.29 11.29h123.197zM837.422 762.157c-6.205 0-11.29 5.085-11.29 11.288v60.965c0 0.178 0.102 0.331 0.102 0.508s-0.102 0.331-0.102 0.509v61.27c0 6.203 5.084 11.237 11.29 11.237h123.197c6.205 0 11.29-5.034 11.29-11.237v-123.252c0-6.203-5.084-11.288-11.29-11.288l-123.197-0.001z" />
<glyph unicode="&#xe946;" glyph-name="annotation-studio" d="M745.646 731.997h-467.312c-23.937-0.034-46.882-9.561-63.803-26.491s-26.435-39.882-26.456-63.818v-387.377c0-2.79 0.575-5.422 0.823-8.146-0.020-1.9 0.172-3.799 0.573-5.658 3.261-21.243 14.009-40.627 30.304-54.646s37.063-21.755 58.559-21.806h467.312c23.931 0.020 46.879 9.539 63.8 26.46s26.435 39.864 26.46 63.795v387.378c-0.020 23.937-9.539 46.887-26.46 63.818-16.916 16.93-39.864 26.457-63.8 26.491zM278.334 679.926h467.312c10.132-0.016 19.845-4.051 27.003-11.221s11.182-16.886 11.187-27.018v-307.832l-117.212 117.246c-6.339 6.404-13.891 11.485-22.205 14.951-8.32 3.465-17.244 5.245-26.255 5.236h-0.051c-8.98-0.013-17.869-1.798-26.163-5.254-8.289-3.455-15.816-8.513-22.144-14.883l-99.053-98.747-44.188 43.935c-6.285 6.415-13.784 11.52-22.060 15.012s-17.164 5.304-26.146 5.325h-0.307c-9.020 0.020-17.955-1.756-26.282-5.222s-15.884-8.55-22.228-14.961l-89.395-89.395v334.59c0.003 10.132 4.026 19.849 11.185 27.018s16.871 11.205 27.003 11.22zM745.646 216.125h-467.312c-7.113 0.046-14.069 2.094-20.076 5.908-6.006 3.809-10.822 9.231-13.898 15.642l122.046 122.051c1.518 1.546 3.33 2.775 5.329 3.615s4.147 1.27 6.316 1.265c4.216-0.681 8.198-2.391 11.593-4.982l51.155-50.852c7.935-7.706 18.534-12.058 29.595-12.15 11.060-0.097 21.732 4.076 29.798 11.643l106.43 106.071c1.5 1.546 3.297 2.77 5.279 3.61s4.111 1.27 6.267 1.275c2.171-0.015 4.316-0.461 6.313-1.306 1.997-0.85 3.809-2.079 5.33-3.63l154.025-154.071v-5.903c-0.015-10.122-4.040-19.83-11.203-26.988-7.158-7.158-16.865-11.187-26.988-11.197v0zM386.961 459.843c17.583 0.005 34.769 5.223 49.387 14.994s26.010 23.658 32.736 39.903c6.726 16.246 8.485 34.121 5.053 51.365s-11.899 33.085-24.332 45.518c-12.433 12.433-28.274 20.9-45.518 24.332s-35.12 1.673-51.365-5.053c-16.246-6.726-30.132-18.118-39.903-32.736s-14.99-31.804-14.995-49.388c0.034-23.577 9.415-46.178 26.086-62.85s39.273-26.052 62.851-26.086zM386.961 585.593c7.286-0.005 14.408-2.17 20.464-6.223s10.774-9.809 13.558-16.543c2.784-6.733 3.508-14.141 2.081-21.287s-4.94-13.708-10.096-18.856c-5.156-5.149-11.723-8.653-18.871-10.070s-14.555-0.681-21.284 2.112c-6.73 2.793-12.48 7.519-16.524 13.581s-6.199 13.186-6.194 20.472c0.017 9.768 3.909 19.129 10.82 26.032s16.279 10.78 26.046 10.785v-0.003zM997.96 84.572h-33.024c14.828 20.685 22.82 45.486 22.851 70.938v584.977c-0.031 32.613-13.005 63.88-36.065 86.941s-54.328 36.031-86.943 36.065h-705.595c-32.613-0.034-63.88-13.005-86.941-36.065s-36.031-54.328-36.065-86.941v-584.977c0.033-25.452 8.024-50.253 22.854-70.938h-33.021c-6.905 0-13.527-2.744-18.41-7.624-4.883-4.884-7.626-11.505-7.626-18.412s2.743-13.527 7.626-18.412c4.883-4.879 11.505-7.624 18.41-7.624h971.949c6.902 0 13.527 2.744 18.406 7.624 4.884 4.884 7.624 11.505 7.624 18.412s-2.739 13.527-7.624 18.412c-4.879 4.879-11.505 7.624-18.406 7.624zM159.185 84.572c-18.806 0.026-36.834 7.506-50.131 20.803-13.298 13.302-20.779 31.329-20.804 50.135v584.977c0.025 18.806 7.506 36.834 20.804 50.132s31.326 20.779 50.131 20.804h705.593c18.806-0.025 36.833-7.506 50.13-20.804 13.302-13.298 20.782-31.326 20.808-50.132v-584.977c-0.026-18.806-7.506-36.833-20.808-50.135-13.297-13.297-31.324-20.777-50.13-20.803h-705.593z" />
</font>
</defs>
</svg>
