<svg width="20" height="20" viewBox="0 0 20 20" fill="none" xmlns="http://www.w3.org/2000/svg">
<g clip-path="url(#clip0_10314_145845)">
<path d="M11.8905 16.9961C11.8357 16.9962 11.7815 16.9854 11.731 16.9645C11.6804 16.9436 11.6345 16.9129 11.5958 16.8742C11.5571 16.8355 11.5264 16.7895 11.5055 16.739C11.4845 16.6884 11.4738 16.6342 11.4738 16.5795V4.3643L8.3903 7.17232C8.34988 7.20937 8.30255 7.23808 8.25102 7.25681C8.19948 7.27554 8.14476 7.28391 8.08998 7.28145C8.03521 7.27899 7.98146 7.26575 7.93181 7.24248C7.88216 7.21921 7.83759 7.18637 7.80065 7.14585C7.76371 7.10533 7.73514 7.05791 7.71656 7.00633C7.69797 6.95474 7.68976 6.89999 7.69237 6.84523C7.69498 6.79046 7.70837 6.73674 7.73178 6.68716C7.75519 6.63758 7.78815 6.5931 7.82878 6.55627L11.6097 3.11307C11.6694 3.05863 11.7436 3.02272 11.8234 3.00971C11.9031 2.9967 11.9849 3.00715 12.0588 3.03979C12.1327 3.07243 12.1955 3.12585 12.2396 3.19355C12.2837 3.26125 12.3072 3.34031 12.3071 3.4211V16.5794C12.3072 16.6342 12.2964 16.6884 12.2755 16.7389C12.2546 16.7895 12.2239 16.8355 12.1852 16.8742C12.1465 16.9129 12.1005 16.9435 12.05 16.9645C11.9994 16.9854 11.9452 16.9962 11.8905 16.9961V16.9961Z" fill="#171723"/>
</g>
<defs>
<clipPath id="clip0_10314_145845">
<rect width="20" height="20" fill="white"/>
</clipPath>
</defs>
</svg>
