<svg width="20" height="20" viewBox="0 0 20 20" fill="none" xmlns="http://www.w3.org/2000/svg">
<g clip-path="url(#clip0_10314_145846)">
<path d="M14.0702 16.892H5.93051C5.84764 16.892 5.76817 16.859 5.70956 16.8004C5.65096 16.7418 5.61803 16.6624 5.61801 16.5795C5.60701 16.4583 5.63587 16.3369 5.7002 16.2337C5.7303 16.1944 5.76293 16.1572 5.79786 16.1222L10.4634 11.3801C10.8459 10.992 11.2061 10.6135 11.5441 10.2449C11.8591 9.90275 12.1473 9.5368 12.4059 9.15029C12.6397 8.79915 12.8312 8.42165 12.9764 8.02561C13.1149 7.63984 13.1843 7.23268 13.1815 6.82281C13.1934 6.36861 13.105 5.91737 12.9227 5.5012C12.7651 5.15786 12.5337 4.85357 12.2448 4.61009C11.9584 4.3752 11.6285 4.19905 11.274 4.0917C10.5005 3.85052 9.67033 3.86135 8.90337 4.12262C8.18543 4.37908 7.58924 4.89456 7.23178 5.56793C7.04175 5.92275 6.91299 6.30712 6.85094 6.70481C6.83892 6.81763 6.78568 6.92204 6.70144 6.99803C6.61719 7.07402 6.50786 7.11624 6.3944 7.1166H6.30082C6.25633 7.11661 6.21235 7.10712 6.17182 7.08877C6.13129 7.07042 6.09514 7.04364 6.06579 7.0102C6.03644 6.97677 6.01456 6.93746 6.00162 6.89489C5.98867 6.85232 5.98497 6.80749 5.99074 6.76337C6.05493 6.23786 6.2088 5.72726 6.44564 5.25377C6.66697 4.81367 6.9712 4.42046 7.34165 4.09573C7.71138 3.7761 8.13751 3.52826 8.59815 3.36494C9.5478 3.04079 10.5754 3.02399 11.5352 3.31692C11.9946 3.45294 12.422 3.68018 12.7917 3.98506C13.1703 4.30192 13.4755 4.69734 13.686 5.14391C13.9261 5.6703 14.0433 6.24441 14.0287 6.82278C14.0322 7.33119 13.9457 7.83621 13.7731 8.31445C13.6031 8.77185 13.3776 9.20668 13.1017 9.60921C12.8137 10.0278 12.4943 10.4239 12.1463 10.7942C11.7956 11.171 11.4253 11.5559 11.0396 11.9482L7.00473 16.0644C7.08285 16.0627 7.16424 16.0627 7.24889 16.0627H13.9766C14.0303 16.0608 14.0839 16.0699 14.1339 16.0895C14.1839 16.1091 14.2294 16.1388 14.2675 16.1767C14.3056 16.2147 14.3355 16.26 14.3553 16.31C14.3751 16.3599 14.3844 16.4134 14.3827 16.4672V16.5795C14.3827 16.6624 14.3497 16.7418 14.2911 16.8004C14.2325 16.859 14.153 16.892 14.0702 16.892Z" fill="#171723"/>
</g>
<defs>
<clipPath id="clip0_10314_145846">
<rect width="20" height="20" fill="white"/>
</clipPath>
</defs>
</svg>
