<svg width="20" height="20" viewBox="0 0 20 20" fill="none" xmlns="http://www.w3.org/2000/svg">
<g clip-path="url(#clip0_10314_145847)">
<path d="M10.0276 16.8919C9.54387 16.8982 9.06139 16.8421 8.59202 16.7251C8.21011 16.6277 7.84325 16.4788 7.50156 16.2824C7.20325 16.1099 6.93521 15.8897 6.7081 15.6305C6.50764 15.4002 6.33299 15.1486 6.18727 14.8802C6.0536 14.6345 5.94273 14.3771 5.85605 14.1112C5.77711 13.8629 5.71201 13.6326 5.66155 13.417C5.64574 13.3495 5.65283 13.2786 5.68171 13.2155C5.71058 13.1525 5.75961 13.1008 5.82106 13.0687C5.89899 13.0238 5.98672 12.9986 6.0766 12.9954C6.1547 12.9937 6.23173 13.0138 6.29902 13.0534C6.36631 13.0931 6.42117 13.1508 6.45743 13.22C6.49586 13.2961 6.52536 13.3764 6.54532 13.4593C6.56485 13.5545 6.5974 13.6757 6.64623 13.8393C6.70393 14.0199 6.77803 14.1948 6.86759 14.3618C6.98088 14.5753 7.11355 14.778 7.2639 14.9673C7.43455 15.1795 7.63782 15.3633 7.86612 15.5117C8.1458 15.6911 8.44972 15.8295 8.76862 15.9227C9.1781 16.0378 9.60232 16.0918 10.0276 16.083C10.5512 16.0948 11.0714 15.9961 11.5542 15.7933C11.959 15.6181 12.3264 15.367 12.6366 15.0535C12.9138 14.7698 13.1339 14.4355 13.2852 14.0688C13.4224 13.7404 13.4953 13.3888 13.5 13.0329C13.5036 12.6512 13.4337 12.2724 13.2941 11.9172C13.1544 11.5795 12.9349 11.2807 12.6545 11.0464C12.3119 10.7695 11.9177 10.5635 11.4948 10.4401C10.921 10.2759 10.3265 10.1956 9.7297 10.2017C9.64738 10.2008 9.56871 10.1675 9.51081 10.109C9.4529 10.0505 9.42043 9.97149 9.42045 9.88916V9.74268C9.42062 9.66153 9.45227 9.58361 9.50874 9.52532C9.5652 9.46703 9.64208 9.43292 9.72319 9.43018C10.2139 9.42009 10.7003 9.33754 11.1669 9.18518C11.5577 9.05933 11.9211 8.86051 12.2378 8.59925C12.5188 8.36497 12.7449 8.07189 12.9003 7.74068C13.0602 7.39482 13.14 7.01734 13.1338 6.63635C13.1452 6.21048 13.0627 5.78732 12.8922 5.39693C12.7453 5.0738 12.5261 4.78871 12.2517 4.5636C11.9754 4.34191 11.6579 4.17732 11.3175 4.07939C10.5519 3.85074 9.73443 3.86438 8.97696 4.11845C8.6223 4.24511 8.29401 4.43602 8.00853 4.68164C7.72769 4.92635 7.49288 5.21932 7.3152 5.54671C7.12636 5.89664 6.9984 6.27612 6.93678 6.66895C6.92722 6.77913 6.87735 6.88191 6.79671 6.9576C6.71606 7.03328 6.61033 7.07655 6.49976 7.0791H6.40696C6.36256 7.07909 6.31866 7.06962 6.2782 7.05133C6.23774 7.03303 6.20164 7.00632 6.17231 6.97298C6.14297 6.93964 6.12107 6.90044 6.10807 6.85798C6.09507 6.81552 6.09126 6.77078 6.0969 6.72673C6.15953 6.20581 6.31207 5.69971 6.54774 5.23095C6.76661 4.79551 7.06753 4.40644 7.43397 4.08512C7.79955 3.76913 8.22065 3.5238 8.67585 3.36164C9.61097 3.04451 10.6214 3.0249 11.5681 3.30549C12.0099 3.43361 12.423 3.64552 12.7848 3.92965C13.1556 4.22713 13.4527 4.60616 13.6531 5.03724C13.8804 5.53907 13.9916 6.08566 13.9786 6.6364C13.9835 7.09417 13.8891 7.54757 13.7019 7.96534C13.5284 8.35507 13.2839 8.70912 12.9809 9.00945C12.6845 9.30074 12.3436 9.54303 11.971 9.72722C12.0735 9.76222 12.1728 9.80046 12.2688 9.84115C12.6928 10.0183 13.0788 10.2752 13.4057 10.598C13.7141 10.9096 13.9536 11.2825 14.1088 11.6926C14.27 12.1209 14.3505 12.5753 14.3465 13.0329C14.3469 13.5448 14.2352 14.0506 14.0193 14.5148C13.8021 14.9808 13.4945 15.3991 13.1144 15.7453C12.7146 16.1048 12.2523 16.3881 11.7504 16.5811C11.2008 16.7921 10.6163 16.8976 10.0276 16.8919V16.8919Z" fill="#171723"/>
</g>
<defs>
<clipPath id="clip0_10314_145847">
<rect width="20" height="20" fill="white"/>
</clipPath>
</defs>
</svg>
