<svg width="20" height="20" viewBox="0 0 20 20" fill="none" xmlns="http://www.w3.org/2000/svg">
<g clip-path="url(#clip0_10314_145848)">
<path d="M12.0736 16.892H11.849C11.7661 16.892 11.6867 16.8591 11.6281 16.8005C11.5695 16.7419 11.5365 16.6624 11.5365 16.5795V12.8376H5.33614C5.27076 12.8429 5.205 12.8343 5.14316 12.8125C5.08132 12.7906 5.02479 12.7559 4.97726 12.7107C4.93098 12.6632 4.89594 12.6059 4.87472 12.5431C4.86983 12.53 4.84705 12.4421 4.84461 12.4283C4.8338 12.3834 4.83309 12.3367 4.84252 12.2916C4.85195 12.2464 4.87128 12.2039 4.89913 12.1671L11.6936 3.23234C11.7227 3.19391 11.7604 3.16274 11.8036 3.14128C11.8468 3.11982 11.8943 3.10865 11.9426 3.10864H12.0736C12.1565 3.10866 12.236 3.1416 12.2946 3.2002C12.3532 3.2588 12.3861 3.33827 12.3861 3.42114V12.0247H14.8519C14.9348 12.0247 15.0143 12.0576 15.0729 12.1162C15.1315 12.1748 15.1644 12.2543 15.1644 12.3372C15.1726 12.4016 15.1665 12.4671 15.1467 12.529C15.1268 12.5908 15.0937 12.6476 15.0496 12.6953C15.0054 12.743 14.9514 12.7805 14.8912 12.8051C14.8311 12.8296 14.7663 12.8408 14.7014 12.8376H12.3861V16.5795C12.3861 16.6624 12.3532 16.7419 12.2946 16.8005C12.236 16.8591 12.1565 16.892 12.0736 16.892ZM6.04092 12.0247H11.5365V4.79647L6.04092 12.0247Z" fill="#171723"/>
</g>
<defs>
<clipPath id="clip0_10314_145848">
<rect width="20" height="20" fill="white"/>
</clipPath>
</defs>
</svg>
