<svg width="20" height="20" viewBox="0 0 20 20" fill="none" xmlns="http://www.w3.org/2000/svg">
<g clip-path="url(#clip0_10317_146752)">
<path d="M9.98056 14.1895C9.77014 14.1903 9.56007 14.172 9.35295 14.1348C9.16534 14.101 8.98021 14.0545 8.79882 13.9958C8.63315 13.9407 8.47183 13.8733 8.31619 13.7942C8.17861 13.7249 8.04707 13.6442 7.92294 13.5529C7.84244 13.4923 7.7892 13.4023 7.77487 13.3026C7.76054 13.2028 7.78629 13.1015 7.84648 13.0206C8.02225 12.7624 8.2149 12.685 8.61312 12.9243C8.71162 12.9813 8.81342 13.0324 8.91799 13.0772C9.06772 13.1415 9.2225 13.1933 9.38076 13.2322C9.83888 13.3369 10.3169 13.3143 10.7631 13.1666C10.9974 13.087 11.2118 12.9578 11.3915 12.7878C11.5713 12.6178 11.7123 12.411 11.8048 12.1815C11.9174 11.9059 11.9722 11.6102 11.9657 11.3126C11.9679 11.0674 11.93 10.8235 11.8535 10.5906C11.7885 10.3938 11.6799 10.2142 11.5357 10.0653C11.3778 9.90846 11.1872 9.78843 10.9776 9.7137C10.4894 9.56395 9.97215 9.53464 9.47013 9.62828C9.21325 9.66407 8.95861 9.71446 8.70746 9.77923C8.62452 9.80013 8.53693 9.79207 8.4592 9.75638L8.36187 9.71265C8.28417 9.67793 8.22035 9.61818 8.18057 9.54294C8.14079 9.4677 8.12735 9.38131 8.14241 9.29755L8.71243 6.12473C8.72825 6.0367 8.77452 5.95703 8.84314 5.89967C8.91176 5.8423 8.99836 5.81089 9.0878 5.81091H12.3153C12.4164 5.81094 12.5134 5.85112 12.5849 5.92263C12.6564 5.99414 12.6966 6.09112 12.6966 6.19225V6.24687C12.6894 6.36895 12.6382 6.4843 12.5526 6.5716C12.4636 6.64383 12.3542 6.68621 12.2398 6.69275H9.51383L9.13046 8.80002C9.21385 8.78513 9.29531 8.77222 9.37575 8.7613C10.0106 8.65263 10.6624 8.69896 11.2755 8.89635C11.6036 9.01362 11.9031 9.19909 12.1543 9.44055C12.3951 9.67889 12.5796 9.96792 12.6946 10.2866C12.8122 10.6195 12.8707 10.9703 12.8674 11.3234C12.8738 11.738 12.7933 12.1493 12.631 12.5309C12.4856 12.8702 12.2716 13.1757 12.0024 13.4283C11.7332 13.6809 11.4147 13.8751 11.0669 13.9987C10.719 14.1263 10.3511 14.1909 9.98056 14.1895Z" fill="#171723"/>
<path d="M10.2499 0.00878787C12.8332 -0.0999561 15.3569 0.803984 17.2836 2.52814L18.0744 1.73688C18.1052 1.70605 18.1435 1.68387 18.1856 1.67257C18.2277 1.66127 18.272 1.66126 18.3141 1.67252C18.3562 1.68378 18.3945 1.70593 18.4254 1.73674C18.4562 1.76754 18.4783 1.80592 18.4896 1.848L19.3355 5.00169C19.345 5.03702 19.345 5.07422 19.3355 5.10955C19.326 5.14488 19.3074 5.1771 19.2816 5.20297C19.2557 5.22884 19.2235 5.24746 19.1882 5.25694C19.1529 5.26643 19.1157 5.26646 19.0803 5.25702L15.9261 4.41321C15.884 4.40196 15.8456 4.37983 15.8148 4.34904C15.784 4.31825 15.7618 4.27988 15.7505 4.2378C15.7392 4.19572 15.7392 4.15141 15.7505 4.10932C15.7617 4.06723 15.7839 4.02885 15.8147 3.99804L16.5648 3.24742C15.5315 2.33754 14.3022 1.67815 12.9726 1.32049C11.643 0.962827 10.2489 0.916518 8.89848 1.18516C7.10921 1.52441 5.46784 2.40649 4.19756 3.71147C2.92729 5.01644 2.08975 6.68098 1.79883 8.47874C1.52137 10.1515 1.71902 11.8686 2.36929 13.4346C3.01956 15.0006 4.09633 16.3526 5.4771 17.3368C6.85786 18.3211 8.48716 18.898 10.1796 19.0019C11.8721 19.1058 13.5597 18.7326 15.0505 17.9247C15.795 17.574 16.4477 17.055 16.9571 16.4086C16.999 16.3528 17.052 16.3063 17.1127 16.2719C17.1734 16.2375 17.2406 16.216 17.31 16.2087C17.3793 16.2013 17.4495 16.2084 17.5161 16.2293C17.5826 16.2503 17.6441 16.2847 17.6968 16.3305C17.7495 16.3763 17.7922 16.4324 17.8222 16.4954C17.8523 16.5583 17.869 16.6268 17.8715 16.6965C17.8739 16.7663 17.8619 16.8358 17.8364 16.9007C17.8108 16.9656 17.7721 17.0246 17.7228 17.0739C16.2884 18.5069 14.4523 19.4701 12.4579 19.8356C10.4635 20.2011 8.40517 19.9517 6.55582 19.1205C4.70646 18.2892 3.15349 16.9154 2.10287 15.1813C1.05226 13.4471 0.55364 11.4345 0.673152 9.41047C0.830735 6.9388 1.8953 4.61233 3.66266 2.87727C5.43002 1.14222 7.77574 0.12075 10.2499 0.00878787Z" fill="#171723"/>
</g>
<defs>
<clipPath id="clip0_10317_146752">
<rect width="20" height="20" fill="white"/>
</clipPath>
</defs>
</svg>
