<svg width="20" height="20" viewBox="0 0 20 20" fill="none" xmlns="http://www.w3.org/2000/svg">
<g clip-path="url(#clip0_10317_146749)">
<path d="M9.3415 14.1886C9.1311 14.1897 8.92104 14.1717 8.71388 14.1349C8.52627 14.101 8.34114 14.0546 8.15975 13.9959C7.99408 13.9408 7.83276 13.8734 7.67712 13.7943C7.5402 13.7253 7.40931 13.6449 7.28585 13.554C7.24561 13.5242 7.21165 13.4867 7.18591 13.4438C7.16018 13.4008 7.14318 13.3532 7.13589 13.3036C7.1286 13.2541 7.13116 13.2036 7.14343 13.1551C7.15571 13.1065 7.17744 13.0608 7.2074 13.0207C7.39509 12.7476 7.65428 12.7317 7.97405 12.9244C8.07255 12.9814 8.17435 13.0324 8.27892 13.0773C8.42868 13.1413 8.58346 13.1927 8.74168 13.2312C9.19965 13.3371 9.67791 13.3147 10.124 13.1667C10.3585 13.0871 10.573 12.9578 10.7528 12.7876C10.9326 12.6174 11.0734 12.4103 11.1657 12.1806C11.2784 11.905 11.3331 11.6093 11.3266 11.3117C11.3289 11.0668 11.291 10.8233 11.2144 10.5907C11.1494 10.3939 11.0408 10.2143 10.8966 10.0654C10.7387 9.90857 10.5481 9.78854 10.3385 9.71381C9.85081 9.56316 9.33376 9.53349 8.83203 9.62738C8.57486 9.6639 8.31991 9.71463 8.06834 9.77931C7.9854 9.80017 7.89783 9.79211 7.82008 9.75647L7.72276 9.71275C7.64506 9.67802 7.58123 9.61828 7.54145 9.54304C7.50168 9.46781 7.48824 9.38141 7.5033 9.29765L8.07335 6.1249C8.08917 6.03687 8.13544 5.95721 8.20406 5.89984C8.27268 5.84248 8.35928 5.81107 8.44872 5.8111H11.6762C11.7773 5.81112 11.8743 5.85131 11.9458 5.92282C12.0173 5.99432 12.0575 6.0913 12.0575 6.19243V6.24705C12.0503 6.36913 11.9992 6.48448 11.9135 6.57178C11.8246 6.64401 11.7151 6.6864 11.6007 6.69294H8.87475L8.49138 8.79922C8.57477 8.78531 8.65723 8.7724 8.73766 8.76148C9.37222 8.65308 10.0236 8.69941 10.6364 8.89654C10.9648 9.01323 11.2644 9.19877 11.5152 9.44073C11.756 9.67906 11.9406 9.9681 12.0555 10.2868C12.1732 10.6196 12.2316 10.9705 12.2283 11.3235C12.2347 11.7382 12.1542 12.1495 11.9919 12.5311C11.844 12.8742 11.6262 13.1826 11.3524 13.4368C11.0848 13.684 10.7705 13.8751 10.4279 13.9988C10.0798 14.126 9.712 14.1902 9.3415 14.1886Z" fill="#171723"/>
<path d="M9.74921 0.00878788C7.16593 -0.0999561 4.64223 0.803984 2.71546 2.52814L1.92473 1.73688C1.89395 1.70605 1.85558 1.68387 1.8135 1.67257C1.77142 1.66127 1.72711 1.66126 1.68502 1.67252C1.64293 1.68378 1.60455 1.70593 1.57374 1.73674C1.54293 1.76754 1.52077 1.80592 1.50949 1.848L0.663591 5.00169C0.654128 5.03702 0.654128 5.07422 0.663592 5.10955C0.673055 5.14489 0.691649 5.17711 0.717505 5.20298C0.743361 5.22885 0.775569 5.24747 0.810895 5.25695C0.846222 5.26644 0.883422 5.26646 0.91876 5.25702L4.07298 4.41321C4.11508 4.40197 4.15347 4.37984 4.1843 4.34904C4.21512 4.31825 4.2373 4.27989 4.24859 4.2378C4.25988 4.19572 4.2599 4.15141 4.24863 4.10932C4.23736 4.06723 4.2152 4.02885 4.18439 3.99804L3.43425 3.24742C4.46763 2.33754 5.69687 1.67815 7.02646 1.32049C8.35606 0.962827 9.75022 0.916518 11.1006 1.18516C12.8899 1.52441 14.5313 2.40649 15.8015 3.71147C17.0718 5.01644 17.9094 6.68098 18.2003 8.47875C18.4777 10.1515 18.2801 11.8686 17.6298 13.4346C16.9795 15.0006 15.9028 16.3526 14.522 17.3369C13.1412 18.3211 11.5119 18.898 9.81949 19.0019C8.12703 19.1058 6.43939 18.7326 4.94859 17.9247C4.20408 17.574 3.55135 17.055 3.04204 16.4086C3.00008 16.3528 2.9471 16.3063 2.88639 16.2719C2.82567 16.2375 2.75853 16.216 2.68914 16.2087C2.61975 16.2014 2.5496 16.2084 2.48305 16.2293C2.41649 16.2503 2.35497 16.2847 2.3023 16.3305C2.24963 16.3763 2.20694 16.4324 2.17689 16.4954C2.14684 16.5583 2.13008 16.6268 2.12764 16.6966C2.12521 16.7663 2.13715 16.8358 2.16272 16.9007C2.1883 16.9656 2.22697 17.0246 2.27631 17.0739C3.7107 18.507 5.54684 19.4701 7.54121 19.8356C9.53559 20.2012 11.594 19.9517 13.4433 19.1205C15.2927 18.2892 16.8457 16.9154 17.8963 15.1813C18.9469 13.4471 19.4455 11.4345 19.326 9.41045C19.1684 6.93878 18.1038 4.61231 16.3365 2.87726C14.5691 1.14221 12.2234 0.120742 9.74921 0.00878788Z" fill="#171723"/>
</g>
<defs>
<clipPath id="clip0_10317_146749">
<rect width="20" height="20" fill="white"/>
</clipPath>
</defs>
</svg>
