<svg width="20" height="20" viewBox="0 0 20 20" fill="none" xmlns="http://www.w3.org/2000/svg">
<g clip-path="url(#clip0_10317_146752)">
<path d="M9.98056 14.1895C9.77014 14.1903 9.56007 14.172 9.35295 14.1348C9.16534 14.101 8.98021 14.0545 8.79882 13.9958C8.63315 13.9407 8.47183 13.8733 8.31619 13.7942C8.17861 13.7249 8.04707 13.6442 7.92294 13.5529C7.84244 13.4923 7.7892 13.4023 7.77487 13.3026C7.76054 13.2028 7.78629 13.1015 7.84648 13.0206C8.02225 12.7624 8.2149 12.685 8.61312 12.9243C8.71162 12.9813 8.81342 13.0324 8.91799 13.0772C9.06772 13.1415 9.2225 13.1933 9.38076 13.2322C9.83888 13.3369 10.3169 13.3143 10.7631 13.1666C10.9974 13.087 11.2118 12.9578 11.3915 12.7878C11.5713 12.6178 11.7123 12.411 11.8048 12.1815C11.9174 11.9059 11.9722 11.6102 11.9657 11.3126C11.9679 11.0674 11.93 10.8235 11.8535 10.5906C11.7885 10.3938 11.6799 10.2142 11.5357 10.0653C11.3778 9.90846 11.1872 9.78843 10.9776 9.7137C10.4894 9.56395 9.97215 9.53464 9.47013 9.62828C9.21325 9.66407 8.95861 9.71446 8.70746 9.77923C8.62452 9.80013 8.53693 9.79207 8.4592 9.75638L8.36187 9.71265C8.28417 9.67793 8.22035 9.61818 8.18057 9.54294C8.14079 9.4677 8.12735 9.38131 8.14241 9.29755L8.71243 6.12473C8.72825 6.0367 8.77452 5.95703 8.84314 5.89967C8.91176 5.8423 8.99836 5.81089 9.0878 5.81091H12.3153C12.4164 5.81094 12.5134 5.85112 12.5849 5.92263C12.6564 5.99414 12.6966 6.09112 12.6966 6.19225V6.24687C12.6894 6.36895 12.6382 6.4843 12.5526 6.5716C12.4636 6.64383 12.3542 6.68621 12.2398 6.69275H9.51383L9.13046 8.80002C9.21385 8.78513 9.29531 8.77222 9.37575 8.7613C10.0106 8.65263 10.6624 8.69896 11.2755 8.89635C11.6036 9.01362 11.9031 9.19909 12.1543 9.44055C12.3951 9.67889 12.5796 9.96792 12.6946 10.2866C12.8122 10.6195 12.8707 10.9703 12.8674 11.3234C12.8738 11.738 12.7933 12.1493 12.631 12.5309C12.4856 12.8702 12.2716 13.1757 12.0024 13.4283C11.7332 13.6809 11.4147 13.8751 11.0669 13.9987C10.719 14.1263 10.3511 14.1909 9.98056 14.1895Z" fill="#171723"/>
<path d="M10.2501 0.00878787C12.8334 -0.0999561 15.3571 0.803984 17.2839 2.52814L18.0746 1.73688C18.1054 1.70605 18.1438 1.68387 18.1858 1.67257C18.2279 1.66127 18.2722 1.66126 18.3143 1.67252C18.3564 1.68378 18.3948 1.70593 18.4256 1.73674C18.4564 1.76754 18.4786 1.80592 18.4898 1.848L19.3357 5.00169C19.3452 5.03702 19.3452 5.07422 19.3357 5.10955C19.3263 5.14488 19.3077 5.1771 19.2818 5.20297C19.256 5.22884 19.2238 5.24746 19.1884 5.25694C19.1531 5.26643 19.1159 5.26646 19.0806 5.25702L15.9264 4.41321C15.8843 4.40196 15.8459 4.37983 15.8151 4.34904C15.7842 4.31825 15.7621 4.27988 15.7508 4.2378C15.7395 4.19572 15.7395 4.15141 15.7507 4.10932C15.762 4.06723 15.7841 4.02885 15.815 3.99804L16.5651 3.24742C15.5317 2.33754 14.3025 1.67815 12.9729 1.32049C11.6433 0.962827 10.2491 0.916518 8.89873 1.18516C7.10946 1.52441 5.46809 2.40649 4.19781 3.71147C2.92753 5.01644 2.08999 6.68098 1.79908 8.47874C1.52162 10.1515 1.71927 11.8686 2.36953 13.4346C3.0198 15.0006 4.09658 16.3526 5.47734 17.3368C6.8581 18.3211 8.4874 18.898 10.1799 19.0019C11.8723 19.1058 13.5599 18.7326 15.0507 17.9247C15.7953 17.574 16.448 17.055 16.9573 16.4086C16.9993 16.3528 17.0522 16.3063 17.113 16.2719C17.1737 16.2375 17.2408 16.216 17.3102 16.2087C17.3796 16.2013 17.4497 16.2084 17.5163 16.2293C17.5828 16.2503 17.6444 16.2847 17.697 16.3305C17.7497 16.3763 17.7924 16.4324 17.8224 16.4954C17.8525 16.5583 17.8693 16.6268 17.8717 16.6965C17.8741 16.7663 17.8622 16.8358 17.8366 16.9007C17.811 16.9656 17.7724 17.0246 17.723 17.0739C16.2886 18.5069 14.4525 19.4701 12.4581 19.8356C10.4638 20.2011 8.40542 19.9517 6.55606 19.1205C4.7067 18.2892 3.15373 16.9154 2.10312 15.1813C1.0525 13.4471 0.553884 11.4345 0.673396 9.41047C0.830979 6.9388 1.89554 4.61233 3.6629 2.87727C5.43026 1.14222 7.77598 0.12075 10.2501 0.00878787Z" fill="#171723"/>
</g>
<defs>
<clipPath id="clip0_10317_146752">
<rect width="20" height="20" fill="white"/>
</clipPath>
</defs>
</svg>
