<svg width="20" height="20" viewBox="0 0 20 20" fill="none" xmlns="http://www.w3.org/2000/svg">
<g clip-path="url(#clip0_17662_29593)">
<path d="M15.9327 0H4.06919C1.82579 0 0.00146484 1.82531 0.00146484 4.06773V15.9323C0.00146484 18.1757 1.82579 20 4.06919 20H15.9327C18.1762 20 20.0005 18.1757 20.0005 15.9323V4.06773C20.0005 1.82531 18.1762 0 15.9327 0ZM14.1551 10.7185H10.719V14.1546C10.719 14.5509 10.3972 14.8726 10.001 14.8726C9.60473 14.8726 9.28297 14.5509 9.28297 14.1546V10.7185H5.84684C5.4501 10.7185 5.12884 10.3967 5.12884 10.0005C5.12884 9.60427 5.45011 9.2825 5.84684 9.2825H9.28297V5.84637C9.28297 5.44914 9.60473 5.12837 10.001 5.12837C10.3972 5.12837 10.719 5.44914 10.719 5.84637V9.2825H14.1551C14.5518 9.2825 14.8731 9.60427 14.8731 10.0005C14.8731 10.3967 14.5518 10.7185 14.1551 10.7185Z" fill="#171723"/>
</g>
<defs>
<clipPath id="clip0_17662_29593">
<rect width="19.999" height="20" fill="white" transform="translate(0.00146484)"/>
</clipPath>
</defs>
</svg>
