<svg width="20" height="20" viewBox="0 0 20 20" fill="none" xmlns="http://www.w3.org/2000/svg">
<g clip-path="url(#clip0_5313_35081)">
<path d="M18.1584 9.55651V5.57234C18.1578 4.97807 17.9099 4.40832 17.4693 3.98811C17.0288 3.5679 16.4314 3.33155 15.8083 3.33092H9.3916C9.27783 3.33127 9.16514 3.31 9.06008 3.26836C8.95503 3.22672 8.85972 3.16554 8.77972 3.0884L7.12887 1.52482C6.95429 1.35791 6.7468 1.22561 6.51836 1.13553C6.28992 1.04546 6.04505 0.9994 5.79785 1.00001H2.35013C1.72854 0.999139 1.13198 1.23351 0.691373 1.65169C0.25077 2.06986 0.00212234 2.63768 0 3.23051V13.9165C0.000573631 14.5108 0.248359 15.0806 0.688969 15.5009C1.12958 15.9211 1.72701 16.1574 2.35013 16.158H9.28668C9.8928 17.2218 10.8538 18.0623 12.0174 18.5464C13.181 19.0305 14.4807 19.1304 15.7106 18.8303C16.9405 18.5303 18.0303 17.8474 18.8072 16.8899C19.5842 15.9324 20.0039 14.755 20 13.5442C20.0001 12.794 19.8364 12.052 19.5193 11.3655C19.2023 10.6789 18.7388 10.0629 18.1584 9.55651V9.55651ZM1.01713 13.9165V3.23051C1.01907 2.8949 1.1605 2.57373 1.41039 2.33744C1.66028 2.10115 1.99824 1.96903 2.35013 1.97007H5.79785C5.91176 1.96972 6.02461 1.99098 6.12982 2.03262C6.23504 2.07425 6.33052 2.13543 6.41072 2.21259L8.06157 3.77523C8.23566 3.94258 8.44289 4.07524 8.67122 4.16551C8.89956 4.25577 9.14443 4.30183 9.3916 4.30101H15.8083C16.1617 4.30138 16.5005 4.43545 16.7504 4.67379C17.0003 4.91213 17.1409 5.23528 17.1413 5.57235V8.83328C16.1454 8.27955 14.9968 8.02683 13.8472 8.10846C12.6976 8.1901 11.6009 8.60226 10.7019 9.29055C9.80296 9.97884 9.14394 10.9109 8.81181 11.9638C8.47969 13.0166 8.49008 14.1408 8.84161 15.1879H2.35013C1.99671 15.1875 1.65789 15.0534 1.40799 14.8151C1.15808 14.5768 1.01752 14.2536 1.01713 13.9165V13.9165ZM14.2905 18.0299C13.4008 18.0269 12.53 17.7846 11.7781 17.3308C11.0263 16.877 10.4239 16.2301 10.0402 15.4645C9.60562 14.5874 9.48134 13.5994 9.68608 12.6492C9.89081 11.6989 10.4135 10.8377 11.1755 10.1951C11.9375 9.55254 12.8977 9.16326 13.9116 9.08584C14.9255 9.00842 15.9384 9.24704 16.7979 9.76582C17.6574 10.2846 18.3171 11.0555 18.6777 11.9626C19.0384 12.8697 19.0805 13.8639 18.7978 14.7958C18.515 15.7277 17.9227 16.5468 17.1099 17.13C16.2971 17.7133 15.3077 18.0291 14.2905 18.0299V18.0299Z" fill="#171723"/>
<path d="M16.5313 13.0569H14.8906V11.4167C14.8906 11.3062 14.8467 11.2002 14.7686 11.122C14.6904 11.0439 14.5845 11 14.474 11C14.3635 11 14.2575 11.0439 14.1793 11.122C14.1012 11.2002 14.0573 11.3062 14.0573 11.4167V13.0569H12.4167C12.3062 13.0569 12.2002 13.1008 12.122 13.1789C12.0439 13.257 12 13.363 12 13.4735C12 13.584 12.0439 13.69 12.122 13.7682C12.2002 13.8463 12.3062 13.8902 12.4167 13.8902H14.0573V15.5308C14.0573 15.6413 14.1012 15.7473 14.1793 15.8254C14.2575 15.9036 14.3635 15.9475 14.474 15.9475C14.5845 15.9475 14.6904 15.9036 14.7686 15.8254C14.8467 15.7473 14.8906 15.6413 14.8906 15.5308V13.8902H16.5313C16.6418 13.8902 16.7477 13.8463 16.8259 13.7682C16.904 13.69 16.9479 13.584 16.9479 13.4735C16.9479 13.363 16.904 13.257 16.8259 13.1789C16.7477 13.1008 16.6418 13.0569 16.5313 13.0569Z" fill="#171723"/>
</g>
<defs>
<clipPath id="clip0_5313_35081">
<rect width="20" height="20" fill="white"/>
</clipPath>
</defs>
</svg>
