<svg width="20" height="20" viewBox="0 0 20 20" fill="none" xmlns="http://www.w3.org/2000/svg">
<g clip-path="url(#clip0_5313_35041)">
<path fill-rule="evenodd" clip-rule="evenodd" d="M4.06793 0H15.9321C17.0106 0.0011602 18.0447 0.430097 18.8073 1.19269C19.5699 1.95529 19.9989 2.98926 20 4.06773V15.9323C19.9989 17.0107 19.5699 18.0447 18.8073 18.8073C18.0446 19.5699 17.0106 19.9989 15.9321 20H4.06793C2.9894 19.9989 1.95537 19.5699 1.19274 18.8073C0.4301 18.0447 0.0011468 17.0107 0 15.9323V4.06773C0.0011468 2.98925 0.4301 1.95527 1.19274 1.19268C1.95537 0.430078 2.9894 0.00114675 4.06793 0ZM18.0885 18.0885C18.6605 17.5166 18.9822 16.7411 18.9831 15.9323L18.983 4.06773C18.9821 3.25888 18.6604 2.48341 18.0884 1.91146C17.5165 1.33952 16.741 1.01781 15.9321 1.01693H4.06793C3.25904 1.01781 2.48353 1.33952 1.91156 1.91146C1.33959 2.48341 1.01787 3.25888 1.01698 4.06773V15.9323C1.01787 16.7411 1.33959 17.5166 1.91156 18.0885C2.48353 18.6605 3.25904 18.9822 4.06793 18.9831H15.9321C16.741 18.9822 17.5165 18.6605 18.0885 18.0885ZM10.4165 9.58328H13.5757C13.6862 9.58328 13.7921 9.62718 13.8703 9.70532C13.9484 9.78346 13.9923 9.88944 13.9923 9.99995C13.9923 10.1105 13.9484 10.2164 13.8703 10.2946C13.7921 10.3727 13.6862 10.4166 13.5757 10.4166H10.4165V13.5758C10.4165 13.6863 10.3726 13.7923 10.2945 13.8704C10.2163 13.9485 10.1103 13.9924 9.99982 13.9924C9.88932 13.9924 9.78334 13.9485 9.7052 13.8704C9.62706 13.7923 9.58316 13.6863 9.58316 13.5758V10.4166H6.42399C6.31348 10.4166 6.2075 10.3727 6.12936 10.2946C6.05122 10.2164 6.00732 10.1105 6.00732 9.99995C6.00732 9.88944 6.05122 9.78346 6.12936 9.70532C6.2075 9.62718 6.31348 9.58328 6.42399 9.58328H9.58321V6.42411C9.58321 6.31361 9.62711 6.20763 9.70525 6.12949C9.78339 6.05134 9.88937 6.00745 9.99987 6.00745C10.1104 6.00745 10.2164 6.05134 10.2945 6.12949C10.3726 6.20763 10.4165 6.31361 10.4165 6.42411V9.58328Z" fill="#171723"/>
</g>
<defs>
<clipPath id="clip0_5313_35041">
<rect width="20" height="20" fill="white"/>
</clipPath>
</defs>
</svg>
