<svg width="20" height="20" viewBox="0 0 20 20" fill="none" xmlns="http://www.w3.org/2000/svg">
<g clip-path="url(#clip0_10314_145593)">
<path d="M9.99886 3.91553C8.39189 3.91741 6.8508 4.55437 5.71143 5.68759C4.57205 6.8208 3.92676 8.35842 3.91617 9.96535C3.91539 9.97744 3.90918 9.9877 3.90918 9.99998C3.90918 10.0123 3.91539 10.0225 3.91617 10.0346C3.92307 11.2365 4.28579 12.4094 4.95857 13.4054C5.63135 14.4013 6.58405 15.1757 7.69645 15.6308C8.80886 16.0859 10.0311 16.2013 11.2091 15.9625C12.387 15.7237 13.4678 15.1414 14.3152 14.289C15.1625 13.4366 15.7384 12.3523 15.9702 11.1729C16.2019 9.9936 16.0792 8.77204 15.6175 7.66236C15.1558 6.55269 14.3757 5.60463 13.3758 4.93781C12.3758 4.27098 11.2008 3.91526 9.99886 3.91553V3.91553ZM5.58201 7.67742H9.46372V9.46481H5.03891C5.10473 8.83991 5.28905 8.23329 5.58201 7.67742V7.67742ZM5.03884 10.5352H9.46365V12.3225H5.58151C5.28877 11.7666 5.1046 11.16 5.03884 10.5352V10.5352ZM9.46365 5.04V6.60707H6.33045C7.15056 5.72242 8.26393 5.16556 9.46369 5.03997L9.46365 5.04ZM6.32968 13.393H9.46365V14.9611C8.26347 14.8355 7.14977 14.2782 6.32973 13.3929L6.32968 13.393ZM10.534 14.9611V12.8629L10.5351 12.8577L10.534 12.8526V10.0051L10.5351 9.99998L10.534 9.99482V7.1474L10.5351 7.14224L10.534 7.13708V5.03997C11.7624 5.1654 12.9005 5.74214 13.7281 6.65851C14.5556 7.57489 15.0138 8.76573 15.0138 10.0005C15.0138 11.2352 14.5556 12.4261 13.7281 13.3425C12.9005 14.2588 11.7624 14.8356 10.534 14.961V14.9611Z" fill="#171723"/>
<path d="M9.99904 2.55255C10.0693 2.55259 10.1389 2.53878 10.2039 2.51189C10.2688 2.48501 10.3279 2.44559 10.3776 2.39589C10.4273 2.34619 10.4667 2.28717 10.4936 2.22223C10.5204 2.15728 10.5343 2.08767 10.5342 2.01738V0.535173C10.5342 0.393236 10.4778 0.257113 10.3775 0.156748C10.2771 0.056384 10.141 0 9.99904 0C9.8571 0 9.72098 0.056384 9.62062 0.156748C9.52025 0.257113 9.46387 0.393236 9.46387 0.535173V2.01738C9.46383 2.08767 9.47764 2.15728 9.50452 2.22223C9.5314 2.28717 9.57082 2.34619 9.62052 2.39589C9.67023 2.44559 9.72924 2.48501 9.79419 2.51189C9.85914 2.53878 9.92875 2.55259 9.99904 2.55255V2.55255Z" fill="#171723"/>
<path d="M3.97648 4.73402C4.07718 4.8327 4.21275 4.88766 4.35373 4.88695C4.49472 4.88623 4.62972 4.82991 4.72941 4.73022C4.82911 4.63053 4.88543 4.49552 4.88614 4.35454C4.88685 4.21355 4.8319 4.07798 4.73322 3.97729L3.68586 2.92889C3.63636 2.87837 3.57733 2.83817 3.51219 2.81061C3.44706 2.78305 3.3771 2.76867 3.30638 2.76832C3.23565 2.76796 3.16555 2.78163 3.10014 2.80853C3.03473 2.83543 2.9753 2.87503 2.92529 2.92504C2.87528 2.97506 2.83567 3.03449 2.80877 3.0999C2.78187 3.16531 2.7682 3.23541 2.76856 3.30613C2.76892 3.37686 2.78329 3.44681 2.81085 3.51195C2.83841 3.57709 2.87861 3.63611 2.92913 3.68562L3.97648 4.73402Z" fill="#171723"/>
<path d="M2.01631 9.46484H0.535172C0.393236 9.46484 0.257113 9.52123 0.156748 9.62159C0.0563842 9.72196 0 9.85808 0 10C0 10.142 0.0563842 10.2781 0.156748 10.3784C0.257113 10.4788 0.393236 10.5352 0.535172 10.5352H2.01631C2.15824 10.5352 2.29437 10.4788 2.39473 10.3784C2.49509 10.2781 2.55148 10.142 2.55148 10C2.55148 9.85808 2.49509 9.72196 2.39473 9.62159C2.29437 9.52123 2.15824 9.46484 2.01631 9.46484Z" fill="#171723"/>
<path d="M3.97648 15.267L2.92913 16.3144C2.87861 16.3639 2.83841 16.4229 2.81085 16.488C2.78329 16.5532 2.76892 16.6231 2.76856 16.6939C2.7682 16.7646 2.78187 16.8347 2.80877 16.9001C2.83567 16.9655 2.87528 17.0249 2.92529 17.0749C2.9753 17.125 3.03473 17.1646 3.10014 17.1915C3.16555 17.2184 3.23565 17.232 3.30638 17.2317C3.3771 17.2313 3.44706 17.2169 3.51219 17.1894C3.57733 17.1618 3.63636 17.1216 3.68586 17.0711L4.73322 16.0238C4.78373 15.9742 4.82393 15.9152 4.85149 15.8501C4.87905 15.7849 4.89343 15.715 4.89378 15.6443C4.89414 15.5735 4.88047 15.5034 4.85357 15.438C4.82667 15.3726 4.78707 15.3132 4.73706 15.2632C4.68705 15.2132 4.62762 15.1736 4.5622 15.1467C4.49679 15.1198 4.4267 15.1061 4.35597 15.1065C4.28524 15.1068 4.21529 15.1212 4.15015 15.1487C4.08501 15.1763 4.02599 15.2165 3.97648 15.267V15.267Z" fill="#171723"/>
<path d="M9.99904 17.4485C9.92875 17.4484 9.85914 17.4623 9.79419 17.4891C9.72924 17.516 9.67023 17.5554 9.62053 17.6051C9.57082 17.6548 9.53141 17.7139 9.50452 17.7788C9.47764 17.8438 9.46383 17.9134 9.46387 17.9837V19.4648C9.46387 19.6067 9.52025 19.7429 9.62062 19.8432C9.72098 19.9436 9.8571 20 9.99904 20C10.141 20 10.2771 19.9436 10.3775 19.8432C10.4778 19.7429 10.5342 19.6067 10.5342 19.4648V17.9837C10.5343 17.9134 10.5204 17.8438 10.4936 17.7788C10.4667 17.7139 10.4273 17.6548 10.3776 17.6051C10.3278 17.5554 10.2688 17.516 10.2039 17.4891C10.1389 17.4623 10.0693 17.4484 9.99904 17.4485Z" fill="#171723"/>
<path d="M16.0233 15.2671C15.9738 15.2166 15.9147 15.1764 15.8496 15.1489C15.7845 15.1213 15.7145 15.1069 15.6438 15.1066C15.5731 15.1062 15.503 15.1199 15.4375 15.1468C15.3721 15.1737 15.3127 15.2133 15.2627 15.2633C15.2127 15.3133 15.1731 15.3727 15.1462 15.4382C15.1193 15.5036 15.1056 15.5737 15.106 15.6444C15.1063 15.7151 15.1207 15.7851 15.1483 15.8502C15.1758 15.9153 15.216 15.9744 15.2665 16.0239L16.3139 17.0712C16.3634 17.1217 16.4224 17.1619 16.4876 17.1895C16.5527 17.2171 16.6226 17.2314 16.6934 17.2318C16.7641 17.2322 16.8342 17.2185 16.8996 17.1916C16.965 17.1647 17.0244 17.1251 17.0745 17.0751C17.1245 17.0251 17.1641 16.9656 17.191 16.9002C17.2179 16.8348 17.2315 16.7647 17.2312 16.694C17.2308 16.6233 17.2165 16.5533 17.1889 16.4882C17.1613 16.423 17.1211 16.364 17.0706 16.3145L16.0233 15.2671Z" fill="#171723"/>
<path d="M19.4641 9.46484H17.9829C17.841 9.46484 17.7049 9.52123 17.6045 9.62159C17.5041 9.72196 17.4478 9.85808 17.4478 10C17.4478 10.142 17.5041 10.2781 17.6045 10.3784C17.7049 10.4788 17.841 10.5352 17.9829 10.5352H19.4641C19.606 10.5352 19.7421 10.4788 19.8425 10.3784C19.9428 10.2781 19.9992 10.142 19.9992 10C19.9992 9.85808 19.9428 9.72196 19.8425 9.62159C19.7421 9.52123 19.606 9.46484 19.4641 9.46484Z" fill="#171723"/>
<path d="M16.3139 2.92887L15.2665 3.97728C15.216 4.02678 15.1758 4.08581 15.1483 4.15095C15.1207 4.21608 15.1063 4.28604 15.106 4.35676C15.1056 4.42749 15.1193 4.49759 15.1462 4.563C15.1731 4.62841 15.2127 4.68784 15.2627 4.73785C15.3127 4.78786 15.3721 4.82747 15.4375 4.85437C15.503 4.88127 15.5731 4.89494 15.6438 4.89458C15.7145 4.89422 15.7845 4.87985 15.8496 4.85229C15.9147 4.82473 15.9738 4.78453 16.0233 4.73401L17.0706 3.68562C17.1211 3.63611 17.1613 3.57709 17.1889 3.51195C17.2165 3.44681 17.2308 3.37686 17.2312 3.30613C17.2315 3.23541 17.2179 3.16531 17.191 3.0999C17.1641 3.03449 17.1245 2.97506 17.0745 2.92504C17.0244 2.87503 16.965 2.83543 16.8996 2.80853C16.8342 2.78163 16.7641 2.76796 16.6934 2.76832C16.6226 2.76867 16.5527 2.78305 16.4876 2.81061C16.4224 2.83817 16.3634 2.87837 16.3139 2.92889V2.92887Z" fill="#171723"/>
</g>
<defs>
<clipPath id="clip0_10314_145593">
<rect width="20" height="20" fill="white" transform="translate(20 20) rotate(-180)"/>
</clipPath>
</defs>
</svg>
