<svg width="20" height="20" viewBox="0 0 20 20" fill="none" xmlns="http://www.w3.org/2000/svg">
<g clip-path="url(#clip0_10314_145590)">
<path d="M19.9136 3.69142C19.9005 3.59005 19.8572 3.49497 19.7894 3.41849C19.7216 3.34201 19.6324 3.28764 19.5334 3.26245C14.9667 2.12057 11.379 4.10449 10.6671 6.60084C10.5232 7.31964 10.5345 8.06089 10.7003 8.77496C10.8661 9.48902 11.1826 10.1594 11.6285 10.7413C10.9754 11.8966 10.4719 13.1303 10.1299 14.4126C9.7899 12.4943 9.13096 10.6465 8.1804 8.94598C8.62227 8.40099 8.94554 7.7698 9.12956 7.09275C9.31357 6.41571 9.35428 5.70771 9.24907 5.01404C8.67314 2.48294 5.19871 0.312318 0.575418 1.20399C0.475062 1.22379 0.38297 1.27328 0.311084 1.34605C0.239198 1.41882 0.190834 1.51151 0.172263 1.6121C-0.615163 5.92661 1.41647 9.26003 3.83631 9.99086C4.22247 10.1069 4.62368 10.1651 5.02689 10.1636C5.8325 10.1467 6.62475 9.95441 7.34853 9.60024C8.84372 12.4188 9.57784 15.5787 9.47841 18.7678C9.47638 18.8691 9.47638 18.9356 9.47638 18.9604C9.47716 19.0944 9.5308 19.2227 9.62563 19.3173C9.72046 19.4119 9.84882 19.4653 9.9828 19.4658H9.98478C10.1183 19.466 10.2465 19.4136 10.3417 19.3199C10.4368 19.2263 10.4913 19.0989 10.4932 18.9654C10.4932 18.9316 10.4942 18.8969 10.4942 18.8641C10.5837 16.2474 11.2545 13.6835 12.4578 11.3582C13.1926 11.7463 14.0077 11.9577 14.8385 11.9758C15.1637 11.9765 15.4878 11.9379 15.8037 11.8606C18.2603 11.2619 20.4687 8.04263 19.9136 3.69142ZM4.13027 9.01774C2.19992 8.43487 0.589318 5.72503 1.1156 2.14137C4.84525 1.5456 7.79833 3.22471 8.25808 5.23947C8.39751 6.20882 8.15976 7.19473 7.59384 7.994C6.78597 6.72254 5.73883 5.62011 4.51058 4.74794C4.39641 4.67618 4.25842 4.65271 4.12695 4.68269C3.99548 4.71267 3.8813 4.79365 3.80954 4.90781C3.73778 5.02198 3.7143 5.15997 3.74429 5.29144C3.77427 5.42291 3.85525 5.53709 3.96941 5.60885C5.11206 6.45477 6.08156 7.51232 6.82521 8.72401C5.99075 9.14043 5.03485 9.24462 4.13027 9.01774V9.01774ZM15.5624 10.8736C14.6868 11.0474 13.778 10.9106 12.9923 10.4867C13.7465 9.34012 14.7393 8.36992 15.903 7.64246C15.9602 7.60765 16.0099 7.5619 16.0493 7.50784C16.0887 7.45377 16.1171 7.39245 16.1327 7.3274C16.1484 7.26235 16.151 7.19485 16.1405 7.12877C16.1301 7.06269 16.1066 6.99933 16.0716 6.94233C16.0365 6.88532 15.9906 6.8358 15.9364 6.7966C15.8821 6.7574 15.8207 6.7293 15.7556 6.7139C15.6905 6.6985 15.623 6.69611 15.5569 6.70687C15.4909 6.71763 15.4276 6.74132 15.3708 6.77659C14.1261 7.55293 13.0567 8.58005 12.2309 9.7925C11.9456 9.36962 11.7468 8.89443 11.6461 8.39435C11.5454 7.89428 11.5447 7.37921 11.6441 6.87886C12.2101 4.89191 15.2446 3.38159 18.9435 4.16906C19.2762 7.77653 17.5226 10.395 15.5624 10.8736Z" fill="#171723"/>
</g>
<defs>
<clipPath id="clip0_10314_145590">
<rect width="20" height="20" fill="white"/>
</clipPath>
</defs>
</svg>
