<svg width="20" height="20" viewBox="0 0 20 20" fill="none" xmlns="http://www.w3.org/2000/svg">
<g clip-path="url(#clip0_6915_81251)">
<g clip-path="url(#clip1_6915_81251)">
<path d="M9.4903 8.19896C9.45753 8.14562 9.41164 8.10157 9.35701 8.07102C9.30237 8.04046 9.24082 8.02441 9.17822 8.02441C9.11562 8.02441 9.05406 8.04046 8.99943 8.07102C8.94479 8.10157 8.8989 8.14562 8.86613 8.19896L7.46475 11.5599C7.448 11.609 7.44354 11.6615 7.45177 11.7127C7.46 11.7639 7.48066 11.8123 7.51195 11.8537C7.5526 11.8964 7.60271 11.9289 7.65823 11.9486C7.71375 11.9683 7.77313 11.9747 7.83158 11.9673C7.89003 11.9598 7.94591 11.9388 7.99472 11.9058C8.04352 11.8727 8.08388 11.8287 8.11253 11.7772L8.50072 10.8454H9.85572L10.2349 11.7512C10.26 11.8188 10.3042 11.8777 10.3622 11.9206C10.4201 11.9635 10.4893 11.9886 10.5613 11.9928H10.6044C10.6559 11.993 10.7067 11.9803 10.7521 11.9561C10.7975 11.9318 10.8362 11.8967 10.8648 11.8538C10.8933 11.8109 10.9108 11.7616 10.9156 11.7103C10.9204 11.659 10.9125 11.6074 10.8925 11.5599L9.4903 8.19896ZM8.78067 10.1724L9.17862 9.21785L9.57657 10.1724H8.78067Z" fill="#171723"/>
<path d="M11.895 8.00703C11.8121 8.00705 11.7327 8.03998 11.6741 8.09858C11.6155 8.15718 11.5825 8.23665 11.5825 8.31953V11.6805C11.5825 11.7634 11.6155 11.8429 11.6741 11.9015C11.7327 11.9601 11.8121 11.993 11.895 11.993H11.952C12.0349 11.993 12.1143 11.9601 12.1729 11.9015C12.2315 11.8429 12.2645 11.7634 12.2645 11.6805V8.31953C12.2514 8.23143 12.2067 8.15111 12.1387 8.0936C12.0707 8.03608 11.9841 8.00531 11.895 8.00703Z" fill="#171723"/>
<path d="M18.6403 16.3452V12.8795C18.6396 12.3408 18.4251 11.8244 18.0439 11.4435C17.6626 11.0625 17.1458 10.8482 16.6066 10.8475H14.9433V9.15083H16.6066C17.1458 9.15013 17.6626 8.93582 18.0439 8.5549C18.4251 8.17398 18.6396 7.65754 18.6403 7.11883V3.65715C19.0737 3.53527 19.4483 3.2609 19.695 2.88467C19.9417 2.50845 20.0439 2.05576 19.9827 1.61015C19.9215 1.16453 19.7011 0.756071 19.362 0.460137C19.023 0.164203 18.5883 0.000771864 18.1382 2.72713e-06C17.688 -0.000766409 17.2527 0.161178 16.9127 0.455952C16.5727 0.750726 16.3508 1.15843 16.2881 1.60384C16.2254 2.04924 16.326 2.50227 16.5715 2.87934C16.8169 3.2564 17.1905 3.53205 17.6235 3.65541V7.11883C17.6233 7.38824 17.5161 7.64655 17.3254 7.83705C17.1348 8.02755 16.8762 8.13465 16.6066 8.13483H14.9433V7.09308C14.9426 6.55437 14.7281 6.03793 14.3468 5.65701C13.9656 5.27609 13.4487 5.06178 12.9095 5.06108H7.08932C6.55016 5.06178 6.03327 5.27609 5.65202 5.65701C5.27077 6.03793 5.05628 6.55437 5.05558 7.09308V8.13483H3.38727C3.11764 8.13465 2.8591 8.02754 2.66844 7.83705C2.47778 7.64655 2.37059 7.38824 2.3704 7.11883V3.65715C2.80374 3.53527 3.17832 3.2609 3.42504 2.88467C3.67176 2.50845 3.77395 2.05576 3.71276 1.61015C3.65157 1.16453 3.43113 0.756071 3.09212 0.460137C2.7531 0.164203 2.3184 0.000771864 1.86823 2.72713e-06C1.41805 -0.000766409 0.982791 0.161178 0.642767 0.455952C0.302743 0.750726 0.0809049 1.15843 0.0181909 1.60384C-0.0445231 2.04924 0.0561196 2.50227 0.301547 2.87934C0.546973 3.2564 0.92062 3.53205 1.35353 3.65541V7.11883C1.35424 7.65754 1.56873 8.17397 1.94998 8.55489C2.33123 8.93581 2.84811 9.15013 3.38727 9.15083H5.05558V10.8475H3.38727C2.84811 10.8482 2.33123 11.0626 1.94998 11.4435C1.56873 11.8244 1.35424 12.3408 1.35353 12.8795V16.347C0.920941 16.4703 0.547596 16.7458 0.302389 17.1227C0.057182 17.4995 -0.0433405 17.9522 0.0193699 18.3973C0.0820802 18.8424 0.303791 19.2498 0.643594 19.5444C0.983396 19.8389 1.41836 20.0008 1.86822 20C2.31808 19.9992 2.75249 19.8359 3.09128 19.5402C3.43007 19.2445 3.65039 18.8363 3.71158 18.391C3.77276 17.9457 3.67069 17.4933 3.4242 17.1173C3.1777 16.7413 2.80342 16.4671 2.3704 16.3452V12.8795C2.37059 12.6101 2.47778 12.3518 2.66844 12.1613C2.8591 11.9708 3.11764 11.8637 3.38727 11.8635H5.05558V12.9093C5.05628 13.448 5.27077 13.9644 5.65202 14.3454C6.03327 14.7263 6.55016 14.9406 7.08932 14.9413H12.9095C13.4487 14.9406 13.9656 14.7263 14.3468 14.3454C14.7281 13.9644 14.9426 13.448 14.9433 12.9093V11.8635H16.6066C16.8762 11.8637 17.1348 11.9708 17.3254 12.1613C17.5161 12.3518 17.6233 12.6101 17.6235 12.8795V16.347C17.1909 16.4703 16.8175 16.7458 16.5723 17.1227C16.3271 17.4995 16.2266 17.9522 16.2893 18.3973C16.352 18.8424 16.5737 19.2498 16.9135 19.5444C17.2533 19.8389 17.6883 20.0008 18.1381 20C18.588 19.9992 19.0224 19.8359 19.3612 19.5402C19.7 19.2445 19.9203 18.8363 19.9815 18.391C20.0427 17.9457 19.9406 17.4933 19.6941 17.1173C19.4476 16.7413 19.0733 16.4671 18.6403 16.3452V16.3452ZM17.2868 1.87324C17.2867 1.70575 17.3363 1.54199 17.4294 1.40268C17.5224 1.26336 17.6547 1.15474 17.8096 1.09055C17.9644 1.02636 18.1348 1.00949 18.2992 1.04207C18.4637 1.07465 18.6147 1.15521 18.7333 1.27357C18.8519 1.39193 18.9328 1.54277 18.9656 1.70702C18.9984 1.87127 18.9817 2.04155 18.9176 2.19633C18.8536 2.35111 18.745 2.48343 18.6057 2.57656C18.4664 2.6697 18.3025 2.71946 18.1349 2.71956C17.9102 2.71941 17.6947 2.63022 17.5358 2.47157C17.3768 2.31291 17.2873 2.09774 17.2868 1.87324ZM1.0169 1.87324C1.0168 1.70575 1.06641 1.54199 1.15946 1.40268C1.2525 1.26336 1.38481 1.15474 1.53964 1.09055C1.69448 1.02636 1.86488 1.00949 2.02931 1.04207C2.19374 1.07465 2.34481 1.15521 2.46342 1.27357C2.58202 1.39193 2.66283 1.54277 2.69564 1.70702C2.72844 1.87127 2.71176 2.04155 2.6477 2.19633C2.58364 2.35111 2.47509 2.48343 2.33576 2.57656C2.19644 2.6697 2.0326 2.71946 1.86497 2.71956C1.64027 2.71941 1.42481 2.63022 1.26583 2.47157C1.10685 2.31291 1.01733 2.09774 1.0169 1.87324ZM2.71202 18.1292C2.71212 18.2967 2.66249 18.4605 2.56939 18.5999C2.4763 18.7392 2.34393 18.8478 2.18904 18.912C2.03415 18.9761 1.86369 18.9929 1.69923 18.9603C1.53477 18.9276 1.38371 18.847 1.26514 18.7285C1.14658 18.61 1.06585 18.4591 1.03316 18.2948C1.00047 18.1305 1.0173 17.9602 1.08151 17.8054C1.14573 17.6506 1.25444 17.5184 1.3939 17.4254C1.53336 17.3324 1.69729 17.2828 1.86497 17.2829C2.0895 17.2832 2.30474 17.3725 2.46351 17.5312C2.62228 17.6898 2.71164 17.9049 2.71201 18.1292H2.71202ZM12.9095 13.9253H7.08932C6.81969 13.9251 6.56115 13.818 6.37049 13.6275C6.17983 13.437 6.07263 13.1787 6.07245 12.9093V7.09308C6.07264 6.82367 6.17983 6.56536 6.37049 6.37486C6.56115 6.18436 6.81969 6.07726 7.08932 6.07708H12.9095C13.1791 6.07726 13.4377 6.18436 13.6283 6.37486C13.819 6.56536 13.9262 6.82367 13.9264 7.09308V8.62317C13.9261 8.63011 13.9224 8.63588 13.9224 8.64288C13.9224 8.64988 13.9261 8.65566 13.9264 8.6626V11.3358C13.9261 11.3427 13.9224 11.3485 13.9224 11.3555C13.9224 11.3625 13.9261 11.3683 13.9264 11.3752V12.9093C13.9262 13.1787 13.819 13.437 13.6283 13.6275C13.4377 13.818 13.1791 13.9251 12.9095 13.9253L12.9095 13.9253ZM18.1349 18.9755C17.9673 18.9755 17.8036 18.9259 17.6643 18.8329C17.525 18.7399 17.4164 18.6077 17.3523 18.4531C17.2882 18.2984 17.2714 18.1283 17.3041 17.9641C17.3368 17.7999 17.4175 17.6491 17.5359 17.5308C17.6544 17.4124 17.8053 17.3318 17.9696 17.2991C18.1339 17.2665 18.3042 17.2832 18.459 17.3473C18.6138 17.4113 18.7461 17.5198 18.8392 17.659C18.9322 17.7982 18.9819 17.9618 18.9819 18.1292C18.9815 18.3535 18.8921 18.5685 18.7334 18.7272C18.5746 18.8858 18.3594 18.9751 18.1349 18.9755Z" fill="#171723"/>
</g>
</g>
<defs>
<clipPath id="clip0_6915_81251">
<rect width="20" height="20" fill="white"/>
</clipPath>
<clipPath id="clip1_6915_81251">
<rect width="20" height="20" fill="white"/>
</clipPath>
</defs>
</svg>
