<svg width="20" height="20" viewBox="0 0 20 20" fill="none" xmlns="http://www.w3.org/2000/svg">
<path d="M5.5045 8.827L5.19237 7.84388H2.31235L2.00008 8.827H0L2.89129 0.731812H4.61452L7.5405 8.827H5.5045ZM3.75874 3.04441L2.76408 6.37516H4.73022L3.75874 3.04441Z" fill="#1F2127"/>
<path d="M7.76343 0.731812H9.66007V8.827H7.76343V0.731812Z" fill="#1F2127"/>
<path d="M10.1712 7.17302C10.2564 6.77333 10.4068 6.39041 10.6165 6.03966C10.7988 5.74322 11.0272 5.47777 11.2931 5.25322C11.5647 5.02792 11.8527 4.82309 12.1546 4.64046C12.3935 4.50157 12.6152 4.36853 12.8196 4.24141C13.0081 4.12567 13.1879 3.9962 13.3574 3.85402C13.5038 3.73237 13.6272 3.58548 13.7217 3.4203C13.812 3.25564 13.8579 3.0703 13.8547 2.88253C13.8547 2.55875 13.7661 2.32553 13.5888 2.18287C13.4007 2.03675 13.1675 1.96105 12.9295 1.96889C12.6587 1.9607 12.3953 2.05818 12.1951 2.24072C11.9985 2.42194 11.9002 2.72456 11.9002 3.1486H10.0382C10.0348 2.79635 10.0997 2.44678 10.2291 2.11914C10.3532 1.80745 10.5447 1.52705 10.7899 1.29803C11.051 1.05806 11.3578 0.873195 11.692 0.754506C12.0857 0.617 12.5006 0.550402 12.9175 0.557807C13.2753 0.556155 13.6316 0.604837 13.9758 0.702421C14.296 0.791286 14.5962 0.940447 14.8605 1.1419C15.1202 1.34496 15.3282 1.60648 15.4676 1.90517C15.6252 2.25158 15.7023 2.62917 15.6931 3.00962C15.6973 3.33145 15.6218 3.64931 15.4734 3.9349C15.3313 4.20654 15.1501 4.45589 14.9356 4.67501C14.7262 4.88864 14.4957 5.08049 14.2476 5.24758C14.0006 5.41343 13.777 5.55413 13.5767 5.66966C13.299 5.85473 13.0696 6.01473 12.8886 6.14969C12.7333 6.26198 12.5882 6.38772 12.455 6.52544C12.3553 6.6277 12.2785 6.74992 12.2294 6.88403C12.1847 7.02218 12.1632 7.16675 12.1658 7.31188H15.6354V8.82689H10.0151C10.0052 8.27149 10.0576 7.71676 10.1712 7.17302Z" fill="#1F2127"/>
<path d="M15.9937 2.15332C16.3177 2.15992 16.6416 2.13082 16.9593 2.06655C17.1715 2.02626 17.3715 1.93719 17.5434 1.80637C17.6813 1.69191 17.782 1.53889 17.8325 1.36689C17.8903 1.15994 17.9175 0.945661 17.9134 0.730835H19.5678V8.82689H17.6597V3.47212H15.9937V2.15332Z" fill="#1F2127"/>
<path d="M0 11.1974H1.76921V19.2926H0V11.1974Z" fill="#E91E63"/>
<path d="M8.30225 13.7138V19.2882H6.53283V18.5016C6.46023 18.637 6.36652 18.7599 6.25522 18.8658C6.13626 18.9801 6.00201 19.0774 5.8563 19.1549C5.7001 19.238 5.53524 19.3037 5.36474 19.351C5.19173 19.4004 5.01268 19.4257 4.83275 19.4261C4.45274 19.4305 4.07621 19.3536 3.72829 19.2006C3.40237 19.0571 3.10923 18.8486 2.86673 18.5878C2.62168 18.3196 2.43291 18.005 2.31157 17.6626C2.04946 16.9098 2.04946 16.0907 2.31157 15.338C2.43291 14.9955 2.62168 14.6809 2.86673 14.4127C3.10923 14.1519 3.40237 13.9434 3.72829 13.7999C4.07631 13.6471 4.45295 13.5704 4.833 13.5749C5.01293 13.5753 5.19198 13.6006 5.36499 13.65C5.5363 13.6978 5.70134 13.7657 5.85655 13.8525C6.00261 13.934 6.13682 14.0352 6.25546 14.1531C6.36389 14.2594 6.45728 14.38 6.53304 14.5116V13.7138H8.30225ZM5.20286 17.9235C5.39042 17.9263 5.57621 17.8868 5.74639 17.8079C5.90404 17.7341 6.04563 17.63 6.16307 17.5015C6.2815 17.3698 6.37375 17.2167 6.4349 17.0504C6.50069 16.8748 6.53393 16.6887 6.53293 16.5011C6.53563 16.1354 6.4039 15.7815 6.16282 15.5065C6.04666 15.3751 5.90486 15.2688 5.74614 15.1942C5.57507 15.118 5.38989 15.0786 5.20262 15.0786C5.01534 15.0786 4.83016 15.118 4.6591 15.1942C4.50041 15.2689 4.35861 15.3751 4.24241 15.5065C4.00144 15.7815 3.86978 16.1355 3.8724 16.5011C3.87131 16.6887 3.90454 16.8748 3.97047 17.0504C4.03159 17.2166 4.12377 17.3698 4.24216 17.5015C4.35963 17.63 4.50123 17.7341 4.65885 17.8079C4.82917 17.8869 5.01513 17.9264 5.20286 17.9235Z" fill="#E91E63"/>
<path d="M10.4524 19.2926H8.68286V11.1974H10.4524V14.516C10.5282 14.3845 10.6216 14.2639 10.73 14.1576C10.8499 14.0386 10.986 13.9374 11.1344 13.8569C11.2903 13.7715 11.4552 13.7036 11.626 13.6545C11.8008 13.6042 11.9819 13.579 12.1638 13.5793C12.5438 13.575 12.9203 13.6519 13.2682 13.8048C13.5941 13.9483 13.8874 14.1569 14.1297 14.4176C14.3748 14.6859 14.5635 15.0005 14.6851 15.3429C14.9469 16.0956 14.9469 16.9148 14.6851 17.6675C14.5635 18.0099 14.3748 18.3245 14.1297 18.5928C13.8874 18.8535 13.5941 19.0621 13.2682 19.2056C12.9203 19.3585 12.5438 19.4354 12.1638 19.431C11.9819 19.4315 11.8008 19.4062 11.626 19.3559C11.456 19.3073 11.2913 19.2416 11.1344 19.1599C10.9865 19.0834 10.8503 18.986 10.73 18.8707C10.6187 18.7648 10.525 18.6419 10.4524 18.5065V19.2926ZM11.794 17.9278C11.9778 17.9298 12.1597 17.8904 12.326 17.8123C12.4837 17.7384 12.6253 17.6343 12.7427 17.5058C12.8612 17.3741 12.9534 17.221 13.0146 17.0547C13.0804 16.8791 13.1136 16.693 13.1126 16.5055C13.1153 16.1397 12.9836 15.7858 12.7425 15.5108C12.6263 15.3794 12.4845 15.2732 12.3258 15.1985C12.1595 15.1204 11.9777 15.0806 11.794 15.0824C11.6047 15.08 11.4171 15.1195 11.2448 15.1979C11.0838 15.2714 10.94 15.3778 10.8227 15.5102C10.5816 15.7852 10.4499 16.1391 10.4526 16.5048C10.4515 16.6924 10.4847 16.8785 10.5506 17.0541C10.6116 17.2204 10.7039 17.3735 10.8224 17.5052C10.9411 17.6347 11.0846 17.7389 11.2445 17.8116C11.4168 17.8904 11.6045 17.9301 11.794 17.9278Z" fill="#E91E63"/>
<path d="M18.2064 16.0079C18.453 16.0773 18.6842 16.1524 18.9002 16.2334C19.102 16.3069 19.2928 16.4082 19.467 16.5342C19.6273 16.6522 19.7596 16.8042 19.8543 16.9794C19.9575 17.1875 20.0072 17.418 19.999 17.6501C20.0086 17.9421 19.9405 18.2314 19.8022 18.4887C19.6706 18.7166 19.4837 18.9076 19.2588 19.0438C19.0112 19.1928 18.7388 19.2966 18.4551 19.3502C18.133 19.4134 17.8057 19.4444 17.4776 19.4426C16.6834 19.4426 16.0571 19.2692 15.5984 18.9223C15.1395 18.5753 15.0029 18.078 15.0029 17.4303H16.6451C16.6451 17.7235 16.7281 17.9335 16.8938 18.0606C17.0803 18.1943 17.3063 18.2615 17.5357 18.2514C17.7188 18.2593 17.9007 18.2174 18.0617 18.1301C18.1291 18.0886 18.1834 18.0294 18.2192 17.959C18.2547 17.8886 18.2703 17.8097 18.2643 17.731C18.2689 17.6365 18.238 17.5437 18.1774 17.4708C18.1018 17.3925 18.0114 17.3296 17.9113 17.2858C17.7617 17.2165 17.607 17.1585 17.4488 17.1123C17.2598 17.0544 17.0342 16.9831 16.7725 16.8984C16.5412 16.8289 16.3213 16.7538 16.1131 16.6729C15.918 16.599 15.7332 16.4998 15.5637 16.3779C15.4059 16.2627 15.2775 16.1122 15.1881 15.9384C15.0884 15.7292 15.0409 15.4991 15.049 15.2676C15.049 14.6894 15.2707 14.2615 15.7141 13.9839C16.1574 13.7064 16.7568 13.5675 17.5123 13.5673C17.8706 13.5613 18.2274 13.61 18.5707 13.7119C18.8456 13.7925 19.1013 13.9282 19.3223 14.1108C19.5149 14.2747 19.667 14.4805 19.7678 14.7123C19.8681 14.9459 19.9196 15.198 19.9182 15.4524H18.1717C18.1841 15.2567 18.1196 15.0638 17.9926 14.9146C17.9192 14.8464 17.8326 14.7941 17.7379 14.7613C17.6432 14.7285 17.5428 14.7157 17.4432 14.7238C17.2804 14.7198 17.12 14.7619 16.9807 14.8453C16.9165 14.8841 16.8647 14.9396 16.8299 15.0058C16.7952 15.072 16.7792 15.1465 16.7838 15.2211C16.7806 15.313 16.814 15.4024 16.8764 15.4698C16.9544 15.5465 17.047 15.6074 17.1481 15.6491C17.2931 15.7124 17.4417 15.7664 17.5936 15.811C17.7705 15.8653 17.9748 15.9309 18.2064 16.0079Z" fill="#E91E63"/>
</svg>
