<svg width="20" height="20" viewBox="0 0 20 20" fill="none" xmlns="http://www.w3.org/2000/svg">
<path d="M0.637939 17.4583L10 1.875L19.3621 17.4583H0.637939ZM3.52086 15.8333H16.4792L10 5.04167L3.52086 15.8333ZM10.0165 14.9023C10.2518 14.9023 10.4547 14.8184 10.6254 14.6506C10.7961 14.4828 10.8815 14.2813 10.8815 14.046C10.8815 13.8108 10.7976 13.6078 10.6298 13.4371C10.462 13.2664 10.2605 13.181 10.0252 13.181C9.78995 13.181 9.58697 13.2649 9.41627 13.4327C9.24558 13.6005 9.16023 13.802 9.16023 14.0373C9.16023 14.2726 9.24412 14.4756 9.4119 14.6463C9.57968 14.8169 9.7812 14.9023 10.0165 14.9023ZM9.20836 12.2435H10.8334V8.16021H9.20836V12.2435Z" fill="#171723"/>
</svg>
