<svg width="20" height="20" viewBox="0 0 20 20" fill="none" xmlns="http://www.w3.org/2000/svg">
<path d="M19.6112 14.7421L12.3566 2.37421C12.1144 1.95556 11.7699 1.60866 11.3568 1.36769C10.9438 1.12672 10.4765 1 10.0011 1C9.52562 1 9.05836 1.12672 8.64533 1.36769C8.2323 1.60866 7.88774 1.95556 7.6456 2.37421L0.390923 14.7316C0.140893 15.1593 0.00607801 15.6472 0.000200745 16.1455C-0.00567652 16.6438 0.117594 17.1348 0.357464 17.5685C0.597334 18.0023 0.945238 18.3632 1.36576 18.6147C1.78629 18.8661 2.26442 18.9991 2.75149 19H17.2507C17.7368 18.9996 18.2142 18.8674 18.6343 18.6169C19.0543 18.3664 19.4019 18.0065 19.6418 17.5738C19.8817 17.1411 20.0052 16.6511 19.9998 16.1537C19.9945 15.6563 19.8604 15.1692 19.6112 14.7421V14.7421ZM9.11078 7.44419C9.11078 7.2026 9.20457 6.9709 9.37154 6.80007C9.5385 6.62924 9.76495 6.53326 10.0011 6.53326C10.2372 6.53326 10.4636 6.62924 10.6306 6.80007C10.7976 6.9709 10.8914 7.2026 10.8914 7.44419V11.0879C10.8914 11.3295 10.7976 11.5612 10.6306 11.732C10.4636 11.9029 10.2372 11.9988 10.0011 11.9988C9.76495 11.9988 9.5385 11.9029 9.37154 11.732C9.20457 11.5612 9.11078 11.3295 9.11078 11.0879V7.44419ZM9.99599 16.0017C9.79475 16.0017 9.59803 15.9407 9.4307 15.8263C9.26338 15.7119 9.13296 15.5493 9.05595 15.3591C8.97894 15.1688 8.95879 14.9595 8.99805 14.7576C9.03731 14.5556 9.13422 14.3701 9.27652 14.2245C9.41881 14.0789 9.60011 13.9798 9.79749 13.9396C9.99486 13.8994 10.1994 13.9201 10.3854 13.9989C10.5713 14.0777 10.7302 14.2111 10.842 14.3823C10.9538 14.5535 11.0135 14.7548 11.0135 14.9607C11.0139 15.0975 10.9879 15.2331 10.937 15.3596C10.886 15.4862 10.8111 15.6011 10.7165 15.6979C10.6219 15.7946 10.5096 15.8713 10.3859 15.9235C10.2623 15.9756 10.1297 16.0022 9.99599 16.0017Z" fill="#171723"/>
</svg>
