<svg width="20" height="20" viewBox="0 0 20 20" fill="none" xmlns="http://www.w3.org/2000/svg">
<g clip-path="url(#clip0_20208_3534)">
<path d="M-0.25 18.375L10 0.708374L20.25 18.375H-0.25ZM10.0208 15.5625C10.3264 15.5625 10.5868 15.4549 10.8021 15.2396C11.0174 15.0243 11.125 14.7639 11.125 14.4584C11.125 14.1528 11.0174 13.8924 10.8021 13.6771C10.5868 13.4618 10.3264 13.3542 10.0208 13.3542C9.71528 13.3542 9.45486 13.4618 9.23958 13.6771C9.02431 13.8924 8.91667 14.1528 8.91667 14.4584C8.91667 14.7639 9.02431 15.0243 9.23958 15.2396C9.45486 15.4549 9.71528 15.5625 10.0208 15.5625ZM8.91667 12.5834H11.125V8.33337H8.91667V12.5834Z" fill="#171723"/>
</g>
<defs>
<clipPath id="clip0_20208_3534">
<rect width="20" height="20" fill="white"/>
</clipPath>
</defs>
</svg>
