<svg width="20" height="20" viewBox="0 0 20 20" fill="none" xmlns="http://www.w3.org/2000/svg">
<path d="M17.2493 19H2.75089C2.26404 19.0001 1.78589 18.8679 1.36528 18.6169C0.944678 18.3659 0.59669 18.0051 0.356864 17.5714C0.117038 17.1377 -0.00603116 16.6466 0.000227326 16.1482C0.00648581 15.6499 0.141847 15.1622 0.392486 14.735L7.64167 2.36779C7.88586 1.95067 8.23146 1.60542 8.64479 1.36571C9.05811 1.126 9.52506 1 10.0001 1C10.4752 1 10.9421 1.126 11.3554 1.36571C11.7688 1.60542 12.1144 1.95067 12.3585 2.36779L19.6077 14.736C19.8583 15.1632 19.9936 15.6508 19.9998 16.1491C20.006 16.6473 19.8829 17.1383 19.643 17.5719C19.4032 18.0056 19.0552 18.3662 18.6347 18.6171C18.2141 18.868 17.736 19.0001 17.2493 19V19ZM10.0001 2.04134C9.70052 2.03992 9.40579 2.11866 9.14511 2.26974C8.88443 2.42083 8.66683 2.63901 8.51388 2.90269L1.2647 15.2709C1.10704 15.5402 1.02197 15.8475 1.01816 16.1614C1.01436 16.4753 1.09195 16.7847 1.24303 17.0579C1.3941 17.3311 1.61326 17.5584 1.87816 17.7167C2.14305 17.8749 2.4442 17.9584 2.75089 17.9586H17.2493C17.5559 17.9585 17.857 17.875 18.1218 17.7169C18.3867 17.5587 18.6058 17.3315 18.7569 17.0584C18.908 16.7853 18.9856 16.476 18.9818 16.1622C18.9781 15.8483 18.893 15.5411 18.7355 15.2718L11.4863 2.90269C11.3334 2.639 11.1158 2.42081 10.8551 2.26973C10.5944 2.11864 10.2997 2.03991 10.0001 2.04134V2.04134Z" fill="#171723"/>
<path d="M9.99984 15.8062C10.4601 15.8062 10.8332 15.4331 10.8332 14.9729C10.8332 14.5126 10.4601 14.1395 9.99984 14.1395C9.5396 14.1395 9.1665 14.5126 9.1665 14.9729C9.1665 15.4331 9.5396 15.8062 9.99984 15.8062Z" fill="#171723"/>
<path d="M10.0002 13.2267C9.9044 13.2267 9.80957 13.2008 9.7211 13.1506C9.63262 13.1003 9.55223 13.0266 9.48452 12.9336C9.4168 12.8407 9.3631 12.7304 9.32646 12.6089C9.28982 12.4875 9.27098 12.3574 9.271 12.2259V8.22744C9.271 7.96202 9.34782 7.70748 9.48456 7.5198C9.62131 7.33212 9.80678 7.22668 10.0002 7.22668C10.1935 7.22668 10.379 7.33212 10.5158 7.5198C10.6525 7.70748 10.7293 7.96202 10.7293 8.22744V12.2259C10.7294 12.3573 10.7105 12.4875 10.6739 12.6089C10.6372 12.7303 10.5835 12.8407 10.5158 12.9336C10.4481 13.0266 10.3677 13.1003 10.2792 13.1506C10.1908 13.2008 10.0959 13.2267 10.0002 13.2267Z" fill="#171723"/>
</svg>
