<svg width="20" height="20" viewBox="0 0 20 20" fill="none" xmlns="http://www.w3.org/2000/svg">
<g clip-path="url(#clip0_5313_35090)">
<g clip-path="url(#clip1_5313_35090)">
<path d="M19.4122 2.74855H0.588446C0.43251 2.74855 0.28296 2.6866 0.172697 2.57634C0.0624335 2.46607 0.000488281 2.31653 0.000488281 2.16059C0.000488281 2.00465 0.0624335 1.8551 0.172697 1.74484C0.28296 1.63458 0.43251 1.57263 0.588446 1.57263H19.4122C19.5682 1.57263 19.7177 1.63458 19.828 1.74484C19.9382 1.8551 20.0002 2.00465 20.0002 2.16059C20.0002 2.31653 19.9382 2.46607 19.828 2.57634C19.7177 2.6866 19.5682 2.74855 19.4122 2.74855Z" fill="#171723"/>
<path d="M13.1365 18.427H0.588446C0.43251 18.427 0.28296 18.3651 0.172697 18.2548C0.0624334 18.1445 0.000488281 17.995 0.000488281 17.8391C0.000488281 17.6831 0.0624334 17.5336 0.172697 17.4233C0.28296 17.313 0.43251 17.2511 0.588446 17.2511H13.1365C13.2925 17.2511 13.442 17.313 13.5523 17.4233C13.6625 17.5336 13.7245 17.6831 13.7245 17.8391C13.7245 17.995 13.6625 18.1445 13.5523 18.2548C13.442 18.3651 13.2925 18.427 13.1365 18.427Z" fill="#171723"/>
<path d="M19.4065 13.2008H0.588446C0.43251 13.2008 0.28296 13.1389 0.172697 13.0286C0.0624335 12.9183 0.000488281 12.7688 0.000488281 12.6129C0.000488281 12.4569 0.0624335 12.3074 0.172697 12.1971C0.28296 12.0868 0.43251 12.0249 0.588446 12.0249H19.4065C19.5625 12.0249 19.712 12.0868 19.8223 12.1971C19.9325 12.3074 19.9945 12.4569 19.9945 12.6129C19.9945 12.7688 19.9325 12.9183 19.8223 13.0286C19.712 13.1389 19.5625 13.2008 19.4065 13.2008Z" fill="#171723"/>
<path d="M13.1365 7.97474H0.588446C0.43251 7.97474 0.28296 7.9128 0.172697 7.80253C0.0624334 7.69227 0.000488281 7.54272 0.000488281 7.38679C0.000488281 7.23085 0.0624334 7.0813 0.172697 6.97104C0.28296 6.86077 0.43251 6.79883 0.588446 6.79883H13.1365C13.2925 6.79883 13.442 6.86077 13.5523 6.97104C13.6625 7.0813 13.7245 7.23085 13.7245 7.38679C13.7245 7.54272 13.6625 7.69227 13.5523 7.80253C13.442 7.9128 13.2925 7.97474 13.1365 7.97474Z" fill="#171723"/>
</g>
</g>
<defs>
<clipPath id="clip0_5313_35090">
<rect width="20" height="20" fill="white"/>
</clipPath>
<clipPath id="clip1_5313_35090">
<rect width="20" height="20" fill="white"/>
</clipPath>
</defs>
</svg>
