<svg width="20" height="20" viewBox="0 0 20 20" fill="none" xmlns="http://www.w3.org/2000/svg">
<path d="M14.27 2.84033C14.27 2.45361 14.5834 2.14014 14.97 2.14014H17.17C17.5566 2.14014 17.87 2.45361 17.87 2.84033C17.87 3.22656 17.5566 3.54004 17.17 3.54004H14.97C14.5834 3.54004 14.27 3.22656 14.27 2.84033Z" fill="#171723"/>
<path d="M14.27 5.34033C14.27 4.95361 14.5834 4.64014 14.97 4.64014H17.17C17.5566 4.64014 17.87 4.95361 17.87 5.34033C17.87 5.72656 17.5566 6.04004 17.17 6.04004H14.97C14.5834 6.04004 14.27 5.72656 14.27 5.34033Z" fill="#171723"/>
<path d="M14.97 7.1499C14.5834 7.1499 14.27 7.46338 14.27 7.8501C14.27 8.23633 14.5834 8.5498 14.97 8.5498H17.17C17.5566 8.5498 17.87 8.23633 17.87 7.8501C17.87 7.46338 17.5566 7.1499 17.17 7.1499H14.97Z" fill="#171723"/>
<path fill-rule="evenodd" clip-rule="evenodd" d="M17.8542 0H14.2828C13.7146 0 13.1696 0.225586 12.7677 0.627441C12.3657 1.0293 12.14 1.57471 12.14 2.14307V8.57129C12.14 9.13965 12.3657 9.68457 12.7677 10.0864C13.1696 10.4883 13.7146 10.7144 14.2828 10.7144H17.8542C18.4226 10.7144 18.9677 10.4883 19.3695 10.0864C19.7714 9.68457 19.9972 9.13965 19.9972 8.57129V2.14307C19.9972 1.57471 19.7714 1.0293 19.3695 0.627441C18.9677 0.225586 18.4226 0 17.8542 0ZM14.2828 1.5H17.8542C17.9197 1.5 17.9841 1.50977 18.0454 1.52881C18.1439 1.55957 18.2346 1.61426 18.3088 1.68848C18.4294 1.80908 18.4972 1.97217 18.4972 2.14307V8.57129C18.4972 8.60107 18.4951 8.63086 18.491 8.66016C18.4851 8.70215 18.475 8.74365 18.4609 8.78369C18.4293 8.87402 18.3777 8.95703 18.3088 9.02588C18.1884 9.14648 18.0248 9.21436 17.8542 9.21436H14.2828C14.1124 9.21436 13.9489 9.14648 13.8282 9.02588C13.7078 8.90527 13.64 8.7417 13.64 8.57129V2.14307C13.64 2.11426 13.642 2.08545 13.6458 2.05713C13.6525 2.00732 13.6649 1.9585 13.6829 1.91211C13.7148 1.8291 13.764 1.75293 13.8282 1.68848C13.9489 1.56787 14.1124 1.5 14.2828 1.5Z" fill="#171723"/>
<path d="M16.7858 16.0713C16.7853 16.2031 16.7484 16.3325 16.6791 16.4448C16.6097 16.5571 16.5106 16.6479 16.3928 16.707L14.9642 17.4214C14.8647 17.4727 14.7546 17.4995 14.6428 17.5C14.5092 17.5005 14.3779 17.4634 14.2643 17.3931C14.1614 17.3286 14.0765 17.2388 14.0178 17.1328C13.959 17.0264 13.9283 16.9072 13.9286 16.7856V15.3569C13.9255 15.2305 13.9563 15.105 14.0177 14.9941C14.0792 14.8828 14.1691 14.7905 14.2782 14.7256C14.3873 14.6606 14.5116 14.6265 14.6385 14.6255C14.7654 14.625 14.8901 14.6577 15 14.7212L16.4286 15.4355C16.4597 15.4536 16.4894 15.4741 16.5173 15.4966C16.5511 15.5234 16.5825 15.5532 16.611 15.5859C16.6426 15.6226 16.6705 15.6621 16.6943 15.7046C16.7223 15.7544 16.744 15.8071 16.7593 15.8618C16.7784 15.9297 16.7875 16 16.7858 16.0713Z" fill="#171723"/>
<path fill-rule="evenodd" clip-rule="evenodd" d="M17.8572 12.1431H12.8572C12.2888 12.1431 11.7438 12.3687 11.3419 12.7705C10.9401 13.1724 10.7142 13.7173 10.7142 14.2856V17.8569C10.7142 18.4253 10.9401 18.9707 11.3419 19.3726C11.7438 19.7744 12.2888 20 12.8572 20H17.8572C18.4254 20 18.9705 19.7744 19.3723 19.3726C19.7743 18.9707 20 18.4253 20 17.8569V14.2856C20 13.7173 19.7743 13.1724 19.3723 12.7705C18.9705 12.3687 18.4254 12.1431 17.8572 12.1431ZM18.5714 17.8569C18.5714 18.0464 18.4962 18.228 18.3622 18.3623C18.2283 18.4961 18.0466 18.5713 17.8572 18.5713H12.8572C12.6677 18.5713 12.486 18.4961 12.3521 18.3623C12.2181 18.228 12.1428 18.0464 12.1428 17.8569V14.2856C12.1428 14.1592 12.1764 14.0361 12.2384 13.9287C12.2694 13.875 12.3075 13.8252 12.3521 13.7808C12.486 13.6465 12.6677 13.5713 12.8572 13.5713H17.8572C18.0466 13.5713 18.2283 13.6465 18.3622 13.7808C18.4545 13.873 18.5188 13.9878 18.5499 14.1123C18.5641 14.1685 18.5714 14.2266 18.5714 14.2856V17.8569Z" fill="#171723"/>
<path fill-rule="evenodd" clip-rule="evenodd" d="M0.102417 19.6577C0.0360107 19.5474 0.000610352 19.4214 0 19.293V14.293C0 13.7246 0.225708 13.1792 0.627686 12.7773C1.02954 12.3755 1.57458 12.1499 2.14282 12.1499H7.14282C7.71118 12.1499 8.25623 12.3755 8.65808 12.7773C9.05994 13.1792 9.28577 13.7246 9.28577 14.293V16.4355C9.28577 17.0039 9.05994 17.5488 8.65808 17.9507C8.25623 18.3525 7.71118 18.5786 7.14282 18.5786H3.07141L1.10718 19.8857C1.08838 19.8979 1.06909 19.9092 1.04932 19.9199C0.986572 19.9531 0.919312 19.9771 0.849731 19.9902C0.815796 19.9971 0.781372 20.001 0.746704 20.0024C0.618164 20.0083 0.490479 19.9795 0.377075 19.9189C0.263672 19.8579 0.168823 19.7681 0.102417 19.6577ZM7.14282 17.0786H2.61792L1.5 17.8223V14.293C1.5 14.1221 1.56775 13.959 1.68823 13.8384C1.80884 13.7178 1.97241 13.6499 2.14282 13.6499H7.14282C7.31335 13.6499 7.47681 13.7178 7.59741 13.8384C7.71802 13.959 7.78577 14.1221 7.78577 14.293V16.4355C7.78577 16.5156 7.77075 16.5942 7.74243 16.6675C7.71045 16.75 7.66138 16.8262 7.59741 16.8901C7.54163 16.9458 7.47656 16.9902 7.40588 17.022C7.32397 17.0591 7.23438 17.0786 7.14282 17.0786Z" fill="#171723"/>
<path fill-rule="evenodd" clip-rule="evenodd" d="M10.7142 2.14307C10.7142 1.57471 10.4885 1.0293 10.0867 0.627441C9.68481 0.225586 9.13977 0 8.57141 0H2.14282C1.57458 0 1.02954 0.225586 0.627686 0.627441C0.225708 1.0293 0 1.57471 0 2.14307V8.57129C0 9.13965 0.225708 9.68457 0.627686 10.0864C1.02954 10.4883 1.57458 10.7144 2.14282 10.7144H8.57141C9.13977 10.7144 9.68481 10.4883 10.0867 10.0864C10.4885 9.68457 10.7142 9.13965 10.7142 8.57129V2.14307ZM9.28577 5.80713L8.25 5.09277C8.18982 5.05322 8.12439 5.02344 8.05591 5.00342C7.9917 4.98486 7.9248 4.9751 7.85718 4.9751L7.81421 4.97656C7.79224 4.97754 7.77039 4.97998 7.74878 4.9834C7.6886 4.99268 7.63 5.00928 7.57422 5.0332C7.53613 5.0498 7.49927 5.06982 7.46423 5.09277L5.80713 6.19287L4.07861 4.49268C4.00879 4.42285 3.92578 4.36914 3.83545 4.3335C3.76794 4.30713 3.69629 4.29053 3.6228 4.28564C3.45081 4.27393 3.28027 4.32471 3.14282 4.42871L1.42859 5.71436V2.14307C1.42859 2.04736 1.44763 1.95361 1.48376 1.86719C1.51929 1.78223 1.57129 1.7041 1.63782 1.6377C1.77173 1.50391 1.95337 1.42871 2.14282 1.42871H8.57141C8.76086 1.42871 8.9425 1.50391 9.07654 1.6377C9.1427 1.7041 9.19458 1.78174 9.2301 1.8667C9.25842 1.93457 9.27637 2.00635 9.28296 2.08008C9.28479 2.10107 9.28577 2.12207 9.28577 2.14307V5.80713ZM3.45975 5.31654L1.50236 6.94031C1.45656 6.97831 1.43005 7.03473 1.43005 7.09424V9.07996C1.43005 9.19042 1.5196 9.27996 1.63005 9.27996H9.08005C9.19051 9.27996 9.28005 9.19042 9.28005 9.07996V7.10624C9.28005 7.03981 9.24707 6.97771 9.19202 6.94052L7.91397 6.07701C7.84533 6.03062 7.75519 6.03137 7.68731 6.07888L5.93746 7.30378C5.85796 7.35943 5.74997 7.34998 5.68135 7.28136L3.72886 5.32904C3.65584 5.25603 3.53923 5.25061 3.45975 5.31654Z" fill="#171723"/>
</svg>
