<svg width="20" height="20" viewBox="0 0 20 20" fill="none" xmlns="http://www.w3.org/2000/svg">
<path d="M17.8571 12.1429H12.8571C12.2888 12.1429 11.7438 12.3686 11.3419 12.7705C10.94 13.1723 10.7143 13.7174 10.7143 14.2857V17.8571C10.7143 18.4255 10.94 18.9705 11.3419 19.3724C11.7438 19.7742 12.2888 20 12.8571 20H17.8571C18.4255 20 18.9705 19.7742 19.3724 19.3724C19.7742 18.9705 20 18.4255 20 17.8571V14.2857C20 13.7174 19.7742 13.1723 19.3724 12.7705C18.9705 12.3686 18.4255 12.1429 17.8571 12.1429ZM18.5714 17.8571C18.5714 18.0466 18.4962 18.2283 18.3622 18.3622C18.2283 18.4962 18.0466 18.5714 17.8571 18.5714H12.8571C12.6677 18.5714 12.486 18.4962 12.3521 18.3622C12.2181 18.2283 12.1429 18.0466 12.1429 17.8571V14.2857C12.1429 14.0963 12.2181 13.9146 12.3521 13.7806C12.486 13.6467 12.6677 13.5714 12.8571 13.5714H17.8571C18.0466 13.5714 18.2283 13.6467 18.3622 13.7806C18.4962 13.9146 18.5714 14.0963 18.5714 14.2857V17.8571ZM9.28571 14.2857V16.4286C9.28571 16.9969 9.05995 17.5419 8.65809 17.9438C8.25622 18.3457 7.71118 18.5714 7.14286 18.5714H3.07143L1.10714 19.8786C0.999715 19.9493 0.875176 19.9897 0.746676 19.9956C0.618176 20.0014 0.490485 19.9724 0.377088 19.9117C0.26369 19.851 0.168795 19.7608 0.102422 19.6506C0.0360496 19.5404 0.000663214 19.4143 0 19.2857V14.2857C0 13.7174 0.225765 13.1723 0.627628 12.7705C1.02949 12.3686 1.57454 12.1429 2.14286 12.1429H7.14286C7.71118 12.1429 8.25622 12.3686 8.65809 12.7705C9.05995 13.1723 9.28571 13.7174 9.28571 14.2857ZM10.7143 2.14286C10.7143 1.57454 10.4885 1.02949 10.0867 0.627628C9.68479 0.225765 9.13975 0 8.57143 0H2.14286C1.57454 0 1.02949 0.225765 0.627628 0.627628C0.225765 1.02949 0 1.57454 0 2.14286V8.57143C0 9.13975 0.225765 9.68479 0.627628 10.0867C1.02949 10.4885 1.57454 10.7143 2.14286 10.7143H8.57143C9.13975 10.7143 9.68479 10.4885 10.0867 10.0867C10.4885 9.68479 10.7143 9.13975 10.7143 8.57143V2.14286ZM9.28571 5.80714L8.25 5.09286C8.13337 5.01605 7.99679 4.97512 7.85714 4.97512C7.7175 4.97512 7.58091 5.01605 7.46429 5.09286L5.80714 6.19286L4.07857 4.49286C3.95661 4.37104 3.79471 4.29743 3.62274 4.28562C3.45077 4.2738 3.28033 4.32458 3.14286 4.42857L1.42857 5.71429V2.14286C1.42857 1.95342 1.50383 1.77174 1.63778 1.63778C1.77174 1.50383 1.95342 1.42857 2.14286 1.42857H8.57143C8.76087 1.42857 8.94255 1.50383 9.0765 1.63778C9.21046 1.77174 9.28571 1.95342 9.28571 2.14286V5.80714ZM17.8571 0H14.2857C13.7174 0 13.1723 0.225765 12.7705 0.627628C12.3686 1.02949 12.1429 1.57454 12.1429 2.14286V8.57143C12.1429 9.13975 12.3686 9.68479 12.7705 10.0867C13.1723 10.4885 13.7174 10.7143 14.2857 10.7143H17.8571C18.4255 10.7143 18.9705 10.4885 19.3724 10.0867C19.7742 9.68479 20 9.13975 20 8.57143V2.14286C20 1.57454 19.7742 1.02949 19.3724 0.627628C18.9705 0.225765 18.4255 0 17.8571 0ZM17.1429 8.57143H15C14.8106 8.57143 14.6289 8.49617 14.4949 8.36222C14.361 8.22826 14.2857 8.04658 14.2857 7.85714C14.2857 7.6677 14.361 7.48602 14.4949 7.35207C14.6289 7.21811 14.8106 7.14286 15 7.14286H17.1429C17.3323 7.14286 17.514 7.21811 17.6479 7.35207C17.7819 7.48602 17.8571 7.6677 17.8571 7.85714C17.8571 8.04658 17.7819 8.22826 17.6479 8.36222C17.514 8.49617 17.3323 8.57143 17.1429 8.57143ZM17.1429 6.07143H15C14.8106 6.07143 14.6289 5.99617 14.4949 5.86222C14.361 5.72826 14.2857 5.54658 14.2857 5.35714C14.2857 5.1677 14.361 4.98602 14.4949 4.85207C14.6289 4.71811 14.8106 4.64286 15 4.64286H17.1429C17.3323 4.64286 17.514 4.71811 17.6479 4.85207C17.7819 4.98602 17.8571 5.1677 17.8571 5.35714C17.8571 5.54658 17.7819 5.72826 17.6479 5.86222C17.514 5.99617 17.3323 6.07143 17.1429 6.07143ZM17.1429 3.57143H15C14.8106 3.57143 14.6289 3.49617 14.4949 3.36222C14.361 3.22826 14.2857 3.04658 14.2857 2.85714C14.2857 2.6677 14.361 2.48602 14.4949 2.35207C14.6289 2.21811 14.8106 2.14286 15 2.14286H17.1429C17.3323 2.14286 17.514 2.21811 17.6479 2.35207C17.7819 2.48602 17.8571 2.6677 17.8571 2.85714C17.8571 3.04658 17.7819 3.22826 17.6479 3.36222C17.514 3.49617 17.3323 3.57143 17.1429 3.57143ZM16.7857 16.0714C16.7853 16.2033 16.7484 16.3326 16.6791 16.4448C16.6097 16.557 16.5107 16.6478 16.3929 16.7071L14.9643 17.4214C14.8648 17.4724 14.7547 17.4993 14.6429 17.5C14.5091 17.5004 14.378 17.4633 14.2643 17.3929C14.1613 17.3285 14.0765 17.239 14.0178 17.1328C13.959 17.0266 13.9283 16.9071 13.9286 16.7857V15.3571C13.9255 15.2303 13.9563 15.105 14.0177 14.994C14.0792 14.883 14.1691 14.7903 14.2782 14.7256C14.3873 14.6609 14.5117 14.6264 14.6385 14.6256C14.7654 14.6249 14.8902 14.658 15 14.7214L16.4286 15.4357C16.5397 15.4998 16.6315 15.5927 16.6944 15.7046C16.7572 15.8164 16.7888 15.9432 16.7857 16.0714Z" fill="#171723"/>
</svg>
