<svg width="24" height="24" viewBox="0 0 24 24" fill="none" xmlns="http://www.w3.org/2000/svg">
<g clip-path="url(#clip0_10317_147261)">
<path d="M20.6738 2.53699H3.32544C1.54171 2.53699 0.0957031 3.98299 0.0957031 5.76673V18.2337C0.0957031 20.0175 1.54171 21.4635 3.32544 21.4635H20.6738C22.4575 21.4635 23.9035 20.0175 23.9035 18.2337V5.76673C23.9035 3.98299 22.4575 2.53699 20.6738 2.53699Z" fill="white"/>
<path d="M20.6745 21.5588H3.32555C2.4439 21.5577 1.59867 21.207 0.975246 20.5835C0.351823 19.9601 0.00110025 19.1149 0 18.2332V5.76677C0.00110025 4.88512 0.351823 4.03989 0.975246 3.41647C1.59867 2.79305 2.4439 2.44232 3.32555 2.44122H20.6745C21.5561 2.44232 22.4013 2.79305 23.0248 3.41647C23.6482 4.03989 23.9989 4.88512 24 5.76677V18.2332C23.9989 19.1149 23.6482 19.9601 23.0248 20.5835C22.4013 21.207 21.5561 21.5577 20.6745 21.5588ZM3.32555 2.63303C2.49477 2.63412 1.69834 2.96463 1.11089 3.55208C0.523445 4.13952 0.192938 4.93596 0.191848 5.76673V18.2332C0.192938 19.064 0.523445 19.8604 1.11089 20.4479C1.69834 21.0353 2.49477 21.3658 3.32555 21.3669H20.6745C21.5052 21.3658 22.3017 21.0353 22.8891 20.4479C23.4766 19.8604 23.8071 19.064 23.8082 18.2332V5.76677C23.8071 4.936 23.4766 4.13956 22.8891 3.55211C22.3017 2.96467 21.5052 2.63416 20.6745 2.63307L3.32555 2.63303Z" fill="#E4E4E4"/>
<path d="M4.16943 10.3016H4.8139L4.49172 9.48138L4.16943 10.3016Z" fill="#2FABF7"/>
<path d="M12.1669 9.59854C12.0917 9.57253 12.0119 9.56254 11.9326 9.5692H11.3467V10.0379H11.9326C12.0119 10.0446 12.0917 10.0346 12.1669 10.0086C12.1979 9.98483 12.2222 9.95348 12.2376 9.91757C12.253 9.88166 12.2589 9.8424 12.2548 9.80355C12.269 9.76461 12.2678 9.72173 12.2515 9.68364C12.2351 9.64555 12.2049 9.61512 12.1669 9.59854Z" fill="#228FE0"/>
<path d="M18.4358 8.71962V9.07116L18.26 8.71962H16.8832V9.07116L16.7074 8.71962H14.8325C14.549 8.71217 14.2679 8.77243 14.0123 8.89539V8.71962H12.694V8.89539C12.5353 8.77253 12.338 8.71021 12.1374 8.71962H7.42095L7.09872 9.45197L6.77651 8.71962H5.28249V9.07116L5.10671 8.71962H3.84708L3.26117 10.0965L2.5874 11.6198H4.08143L4.2572 11.1511H4.66731L4.84309 11.6198H6.54216V11.2683L6.68862 11.6198H7.53818L7.68467 11.2683V11.6198H11.7566V10.8582H11.8152C11.8738 10.8582 11.8738 10.8582 11.8738 10.9461V11.5906H13.983V11.4148C14.2293 11.5343 14.5002 11.5945 14.774 11.5906H15.6527L15.8285 11.1218H16.2387L16.4144 11.5906H18.1135V11.1511L18.3771 11.5906H19.754V8.71962H18.4358ZM8.53419 11.1804H8.03619V9.56922L7.33313 11.1804H6.89371L6.19061 9.56922V11.1804H5.1946L4.98956 10.741H3.99354L3.81777 11.2097H3.26117L4.14001 9.12979H4.87236L5.69261 11.0926V9.12979H6.48358L7.12805 10.5359L7.71394 9.12979H8.53419V11.1804ZM10.5262 9.56922H9.38374V9.95004H10.497V10.3602H9.38374V10.7703H10.5262V11.2097H8.88573V9.12979H10.5262V9.56922ZM12.7233 10.4188C12.7866 10.5354 12.8169 10.667 12.8112 10.7996V11.2097H12.3132V10.9461C12.3267 10.8036 12.296 10.6604 12.2253 10.5359C12.1374 10.4481 12.0496 10.4481 11.8738 10.4481H11.3465V11.2097H10.8485V9.12979H11.9617C12.1614 9.10611 12.3637 9.13646 12.5476 9.21768C12.6263 9.26641 12.6899 9.33605 12.7312 9.41883C12.7726 9.5016 12.7902 9.59425 12.782 9.68642C12.7862 9.8038 12.755 9.91974 12.6922 10.019C12.6295 10.1184 12.5383 10.1964 12.4305 10.243C12.5441 10.2695 12.6465 10.331 12.7233 10.4188ZM13.6022 11.1804H13.1042V9.10052H13.6022V11.1804ZM19.3732 11.1804H18.6702L17.7327 9.6278V11.1804H16.7367L16.5609 10.741H15.5356L15.3599 11.2097H14.8033C14.6674 11.2251 14.5298 11.2086 14.4014 11.1616C14.273 11.1145 14.1573 11.0382 14.0635 10.9388C13.9697 10.8393 13.9004 10.7193 13.861 10.5884C13.8216 10.4575 13.8132 10.3192 13.8365 10.1844C13.8199 9.8878 13.9138 9.59556 14.1001 9.36417C14.1982 9.27478 14.3144 9.20757 14.4408 9.16712C14.5671 9.12668 14.7008 9.11394 14.8325 9.12979H15.3012V9.56922H14.8326C14.6953 9.55833 14.5591 9.60026 14.4517 9.68642C14.3469 9.81931 14.2947 9.98618 14.3052 10.1551C14.2934 10.2438 14.3002 10.3339 14.3255 10.4197C14.3507 10.5055 14.3937 10.585 14.4517 10.6531C14.4992 10.6956 14.5549 10.7279 14.6154 10.7481C14.6758 10.7682 14.7398 10.7758 14.8033 10.7703H15.0083L15.6821 9.1591H16.4145L17.2347 11.1218V9.1591H17.9671L18.8166 10.5945V9.1591H19.3146V11.1804H19.3732Z" fill="#0571C1"/>
<path d="M15.7114 10.3016H16.3852L16.063 9.48138L15.7114 10.3016Z" fill="#228FE0"/>
<path d="M10.7314 14.5202V12.8504L9.96973 13.6706L10.7314 14.5202Z" fill="#228FE0"/>
<path d="M7.59717 13.0553V13.4361H8.68107V13.8463H7.59717V14.2857H8.79827L9.35485 13.6705L8.82754 13.0553H7.59717Z" fill="#2FABF7"/>
<path d="M11.8442 13.0554H11.229V13.5827H11.8735C12.0492 13.5827 12.1664 13.4948 12.1664 13.319C12.1584 13.2415 12.12 13.1702 12.0596 13.1208C11.9993 13.0714 11.9218 13.0479 11.8442 13.0554Z" fill="#228FE0"/>
<path d="M20.8964 13.5532V12.235H19.666C19.4469 12.2216 19.2298 12.2836 19.0508 12.4107V12.235H17.7033C17.4937 12.2258 17.2873 12.2877 17.1174 12.4107V12.235H14.7445V12.4107C14.5522 12.2887 14.3276 12.2274 14.1 12.235H12.5181V12.4107C12.3181 12.2815 12.082 12.2199 11.8443 12.235H10.0867L9.67656 12.6744L9.29571 12.235H6.65918V15.1058H9.2371L9.64723 14.6664L10.0281 15.1058H11.61V14.4321H11.815C12.0432 14.4463 12.2719 14.4165 12.4888 14.3442V15.1352H13.8071V14.3735H13.8657C13.9536 14.3735 13.9536 14.3735 13.9536 14.4614V15.1351H17.9377C18.1751 15.1477 18.4105 15.0863 18.6115 14.9594V15.1351H19.8711C20.1145 15.1525 20.358 15.1017 20.5742 14.9887C20.7225 14.8961 20.8439 14.7662 20.9261 14.612C21.0084 14.4577 21.0487 14.2845 21.0429 14.1098C21.0433 13.9147 20.9928 13.7228 20.8964 13.5532ZM11.815 14.0219H11.2291V14.725H10.2917L9.70584 14.0512L9.09065 14.725H7.15719V12.6451H9.11992L9.70581 13.3189L10.321 12.6451H11.8736C12.2544 12.6451 12.6939 12.7623 12.6939 13.3189C12.6646 13.9048 12.2545 14.0219 11.815 14.0219ZM14.7445 13.9048C14.8113 14.02 14.8419 14.1527 14.8324 14.2856V14.6957H14.3344V14.4321C14.3509 14.2895 14.32 14.1454 14.2465 14.022C14.1879 13.9341 14.0707 13.9341 13.895 13.9341H13.3677V14.6957H12.8696V12.6158H13.9828C14.1824 12.5947 14.3841 12.625 14.5687 12.7037C14.6513 12.7502 14.7196 12.8185 14.7661 12.9011C14.8126 12.9838 14.8355 13.0776 14.8324 13.1724C14.8366 13.2898 14.8054 13.4057 14.7426 13.505C14.6799 13.6044 14.5887 13.6824 14.4808 13.729C14.5854 13.7575 14.678 13.8192 14.7445 13.9048ZM16.7658 13.0552H15.6234V13.436H16.7365V13.8462H15.6234V14.2563H16.7658V14.6957H15.1254V12.6158H16.7658V13.0552ZM17.9962 14.6957H17.0588V14.2563H17.9962C18.0326 14.2625 18.0699 14.2604 18.1054 14.2502C18.1409 14.2401 18.1737 14.2221 18.2013 14.1976C18.2389 14.1581 18.2599 14.1057 18.2599 14.0512C18.2599 13.9966 18.2389 13.9442 18.2013 13.9047C18.1525 13.8632 18.0895 13.8422 18.0255 13.8461C17.5568 13.8168 17.0002 13.8461 17.0002 13.2016C17.0002 12.9087 17.176 12.5864 17.7033 12.5864H18.67V13.0845H17.762C17.6922 13.0776 17.6219 13.0876 17.5569 13.1137C17.4983 13.1431 17.4983 13.2016 17.4983 13.2602C17.4983 13.3481 17.5569 13.3774 17.6155 13.4067C17.6708 13.4306 17.7312 13.4407 17.7913 13.436H18.0549C18.1547 13.4264 18.2555 13.437 18.3511 13.4672C18.4467 13.4974 18.5353 13.5466 18.6115 13.6118C18.7165 13.7331 18.7692 13.8911 18.758 14.0512C18.7579 14.4906 18.4942 14.6957 17.9962 14.6957ZM20.5156 14.4906C20.3454 14.6372 20.1244 14.7109 19.9004 14.6957H18.9629V14.2563H19.9004C19.9368 14.2625 19.9741 14.2604 20.0096 14.2502C20.045 14.2401 20.0778 14.2221 20.1054 14.1976C20.143 14.1581 20.164 14.1057 20.164 14.0512C20.164 13.9966 20.143 13.9442 20.1054 13.9047C20.0566 13.8632 19.9936 13.8422 19.9297 13.8461C19.461 13.8168 18.9043 13.8461 18.9043 13.2016C18.9043 12.9087 19.0801 12.5864 19.6074 12.5864H20.5742V13.0845H19.6954C19.6257 13.0776 19.5554 13.0876 19.4903 13.1137C19.4318 13.1431 19.4318 13.2016 19.4318 13.2602C19.4318 13.3481 19.4611 13.3774 19.549 13.4067C19.6043 13.4306 19.6646 13.4407 19.7247 13.436H19.9884C20.0882 13.4264 20.1889 13.437 20.2846 13.4672C20.3802 13.4974 20.4688 13.5466 20.545 13.6118C20.5489 13.6117 20.5527 13.6124 20.5563 13.6138C20.5599 13.6153 20.5632 13.6174 20.5659 13.6202C20.5687 13.6229 20.5708 13.6262 20.5723 13.6298C20.5737 13.6334 20.5744 13.6372 20.5743 13.6411C20.6568 13.7615 20.698 13.9054 20.6915 14.0512C20.6937 14.1326 20.6793 14.2136 20.649 14.2891C20.6188 14.3647 20.5733 14.4333 20.5156 14.4906Z" fill="#0571C1"/>
<path d="M14.2172 13.1139C14.142 13.088 14.0622 13.078 13.9829 13.0847H13.397V13.5533H13.9829C14.0622 13.56 14.142 13.55 14.2172 13.524C14.2482 13.5002 14.2726 13.4689 14.2879 13.433C14.3033 13.3971 14.3092 13.3578 14.3051 13.319C14.3193 13.28 14.3181 13.2371 14.3018 13.199C14.2855 13.1609 14.2552 13.1305 14.2172 13.1139Z" fill="#228FE0"/>
<path d="M12.1669 9.59854C12.0917 9.57253 12.0119 9.56254 11.9326 9.56921H11.3467V10.0379H11.9326C12.0119 10.0446 12.0917 10.0346 12.167 10.0086C12.1979 9.98484 12.2223 9.95348 12.2377 9.91757C12.2531 9.88166 12.259 9.8424 12.2548 9.80355C12.269 9.76461 12.2678 9.72172 12.2515 9.68363C12.2352 9.64554 12.2049 9.61511 12.1669 9.59854Z" fill="#228FE0"/>
<path d="M15.7114 10.3016H16.3852L16.063 9.48138L15.7114 10.3016Z" fill="#228FE0"/>
<path d="M10.7314 14.5202V12.8504L9.96973 13.6706L10.7314 14.5202Z" fill="#228FE0"/>
<path d="M11.8442 13.0554H11.229V13.5827H11.8734C12.0492 13.5827 12.1664 13.4948 12.1664 13.319C12.1584 13.2415 12.12 13.1702 12.0596 13.1208C11.9993 13.0714 11.9218 13.0479 11.8442 13.0554Z" fill="#228FE0"/>
<path d="M14.2173 13.1139C14.142 13.088 14.0622 13.078 13.9829 13.0846H13.397V13.5534H13.9829C14.0622 13.56 14.142 13.55 14.2173 13.524C14.2482 13.5002 14.2726 13.4689 14.288 13.433C14.3034 13.3971 14.3093 13.3578 14.3051 13.319C14.3193 13.28 14.3181 13.2372 14.3018 13.1991C14.2855 13.161 14.2552 13.1305 14.2173 13.1139Z" fill="#228FE0"/>
<path d="M11.6393 14.6373L11.2292 14.1979V14.6959H10.2624L9.67651 14.0221L9.03204 14.6959H7.09861V12.6452H9.06138L9.67653 13.319L9.9695 12.9675L9.2371 12.2351H6.65918V15.106H9.2371L9.67653 14.6666L10.0574 15.106H11.6393V14.6373Z" fill="#2FABF7"/>
<path d="M8.59277 11.5906L8.21199 11.1805H8.03619V11.0047L7.59676 10.5653L7.30379 11.1805H6.89367L6.19061 9.56928V11.1805H5.1946L4.98952 10.7411H3.9935L3.78846 11.1805H3.26114L4.1399 9.12989H4.8723L5.69255 11.0926V9.12989H6.13204L5.72188 8.71973H5.28249V9.07127L5.13598 8.71973H3.84704L3.26114 10.0966L2.5874 11.5906H4.1107L4.28646 11.1512H4.69658L4.90163 11.5906H6.54216V11.2391L6.68862 11.5906H7.53818L7.68465 11.2391V11.5906H8.59277Z" fill="#2FABF7"/>
<path d="M7.24511 10.2429L6.77637 9.77423L7.12791 10.5359L7.24511 10.2429Z" fill="#2FABF7"/>
<path d="M20.5738 14.9596C20.7057 14.8708 20.8163 14.7537 20.8973 14.6169C20.9784 14.4801 21.028 14.327 21.0425 14.1686L20.6324 13.7585C20.6688 13.852 20.6886 13.9512 20.691 14.0515C20.6932 14.1328 20.6788 14.2138 20.6486 14.2894C20.6183 14.3649 20.573 14.4335 20.5152 14.4909C20.3451 14.6374 20.1241 14.7111 19.9001 14.6959H18.9626V14.2565H19.9001C19.9364 14.2627 19.9737 14.2606 20.0092 14.2505C20.0447 14.2403 20.0775 14.2224 20.1051 14.1979C20.1427 14.1584 20.1637 14.106 20.1637 14.0515C20.1637 13.9969 20.1427 13.9445 20.1051 13.905C20.0563 13.8634 19.9933 13.8424 19.9293 13.8463C19.4606 13.817 18.904 13.8463 18.904 13.2019C18.904 12.9089 19.0798 12.6453 19.5192 12.5867L19.197 12.2644C19.1384 12.2937 19.1091 12.3231 19.0798 12.3231V12.1473H17.7323C17.5227 12.1381 17.3162 12.2001 17.1463 12.3231V12.1473H14.7442V12.3231C14.5519 12.201 14.3273 12.1398 14.0997 12.1473H12.5178V12.3231C12.3178 12.1938 12.0816 12.1322 11.844 12.1473H10.0864L9.67626 12.5867L9.29544 12.1473H8.97314L9.85191 13.0261L10.2913 12.5574H11.8439C12.2248 12.5574 12.6642 12.6745 12.6642 13.2312C12.6642 13.8171 12.2541 13.9342 11.8147 13.9342H11.2288V14.3736L11.6682 14.8131V14.3736H11.8147C12.0428 14.3878 12.2716 14.358 12.4884 14.2858V15.0767H13.8068V14.3151H13.8654C13.9532 14.3151 13.9532 14.3151 13.9532 14.403V15.0767H17.9373C18.1747 15.0893 18.4101 15.0278 18.6111 14.901V15.0767H19.8708C20.1116 15.1123 20.3575 15.0713 20.5738 14.9596ZM14.7442 13.905C14.811 14.0203 14.8416 14.1529 14.8321 14.2858V14.6959H14.334V14.4322C14.3506 14.2896 14.3197 14.1455 14.2462 14.0221C14.1875 13.9342 14.0704 13.9342 13.8946 13.9342H13.3673V14.6959H12.8693V12.616H13.9825C14.1821 12.595 14.3838 12.6252 14.5684 12.7039C14.6511 12.7504 14.7193 12.8187 14.7658 12.9014C14.8123 12.984 14.8352 13.0778 14.8321 13.1726C14.8364 13.29 14.8051 13.4059 14.7424 13.5053C14.6796 13.6046 14.5884 13.6826 14.4805 13.7292C14.5851 13.7577 14.6777 13.8194 14.7442 13.905ZM16.7655 13.0554H15.623V13.4363H16.7362V13.8464H15.623V14.2565H16.7655V14.6959H15.125V12.616H16.7655V13.0554ZM17.9959 14.6959H17.0585V14.2565H17.9959C18.0323 14.2627 18.0696 14.2606 18.1051 14.2505C18.1406 14.2403 18.1733 14.2224 18.201 14.1979C18.2386 14.1584 18.2595 14.106 18.2595 14.0515C18.2595 13.9969 18.2386 13.9445 18.201 13.905C18.1522 13.8634 18.0892 13.8424 18.0252 13.8463C17.5565 13.817 16.9999 13.8463 16.9999 13.2019C16.9999 12.9089 17.1756 12.5867 17.7029 12.5867H18.6697V13.0847H17.7615C17.6918 13.0777 17.6215 13.0878 17.5565 13.114C17.4979 13.1433 17.4979 13.2019 17.4979 13.2605C17.4979 13.3483 17.5565 13.3776 17.6151 13.407C17.6704 13.4308 17.7308 13.4409 17.7909 13.4362H18.0545C18.1543 13.4266 18.2551 13.4372 18.3507 13.4674C18.4464 13.4976 18.5349 13.5468 18.6111 13.612C18.7161 13.7333 18.7688 13.8914 18.7576 14.0514C18.7575 14.4909 18.4939 14.6959 17.9959 14.6959Z" fill="#228FE0"/>
<path d="M19.4028 13.2604C19.4028 13.3483 19.4322 13.3776 19.52 13.4069C19.5754 13.4308 19.6357 13.4408 19.6958 13.4362H19.9594C20.1013 13.4308 20.2423 13.461 20.3696 13.5241L19.9301 13.0846H19.6665C19.5968 13.0777 19.5264 13.0878 19.4614 13.114C19.4248 13.1541 19.4039 13.2061 19.4028 13.2604Z" fill="#228FE0"/>
<path d="M18.377 11.5029L18.4355 11.5907H18.4649L18.377 11.5029Z" fill="#228FE0"/>
<path d="M16.7661 9.89166L17.2641 11.0927V10.3897L16.7661 9.89166Z" fill="#228FE0"/>
<path d="M11.7569 10.8583H11.8154C11.874 10.8583 11.874 10.8583 11.874 10.9461V11.5906H13.9832V11.4148C14.2296 11.5343 14.5005 11.5945 14.7742 11.5906H15.653L15.8288 11.1218H16.2389L16.4146 11.5906H18.1138V11.2976L17.7036 10.8875V11.2097H16.7075L16.5611 10.741H15.5358L15.36 11.2097H14.8034C14.6675 11.2251 14.5299 11.2086 14.4015 11.1616C14.2732 11.1145 14.1575 11.0383 14.0637 10.9388C13.9699 10.8393 13.9005 10.7193 13.8611 10.5884C13.8217 10.4575 13.8133 10.3192 13.8366 10.1844C13.82 9.8878 13.9139 9.59554 14.1003 9.36415C14.1983 9.27476 14.3145 9.20756 14.4409 9.16712C14.5673 9.12668 14.7009 9.11395 14.8326 9.1298H15.3013V9.56923H14.8328C14.6955 9.55835 14.5593 9.60026 14.4519 9.68642C14.3471 9.81932 14.295 9.98619 14.3055 10.1551C14.2936 10.2438 14.3005 10.3339 14.3257 10.4197C14.351 10.5055 14.394 10.585 14.4519 10.6531C14.4994 10.6956 14.5551 10.7279 14.6156 10.7481C14.6761 10.7683 14.74 10.7758 14.8035 10.7703H15.0086L15.6823 9.15916H15.9753L15.5652 8.74904H14.8035C14.52 8.74157 14.2388 8.80183 13.9832 8.9248V8.74904H12.6943V8.9248C12.5355 8.80193 12.3382 8.73962 12.1377 8.74904H7.42118L7.09891 9.48139L6.77674 8.74904H5.48779L5.89792 9.15916H6.48382L6.98182 10.2431L7.15759 10.4188L7.68488 9.12985H8.50515V11.2098H8.00715V9.59859L7.50914 10.7704L8.35865 11.6199H11.7276L11.7569 10.8583ZM13.1044 9.12985H13.6024V11.2098H13.1044V9.12985ZM10.5265 9.56928H9.38398V9.9501H10.4972V10.3603H9.38398V10.7704H10.5265V11.2098H8.88596V9.12985H10.5265V9.56928ZM11.3467 11.1805H10.8487V9.10058H11.962C12.1616 9.0769 12.3639 9.10725 12.5479 9.18847C12.6265 9.23719 12.6901 9.30682 12.7315 9.38959C12.7729 9.47236 12.7904 9.565 12.7822 9.65717C12.7865 9.77455 12.7552 9.89049 12.6925 9.9898C12.6298 10.0891 12.5385 10.1672 12.4307 10.2138C12.529 10.239 12.6132 10.3022 12.665 10.3895C12.7283 10.5062 12.7586 10.6378 12.7529 10.7704V11.1805H12.2549V10.9168C12.2684 10.7744 12.2377 10.6312 12.167 10.5067C12.1377 10.448 12.0498 10.448 11.8741 10.448H11.3468L11.3467 11.1805Z" fill="#228FE0"/>
</g>
<defs>
<clipPath id="clip0_10317_147261">
<rect width="24" height="24" fill="white"/>
</clipPath>
</defs>
</svg>
