<svg width="20" height="20" viewBox="0 0 20 20" fill="none" xmlns="http://www.w3.org/2000/svg">
<g clip-path="url(#clip0_10314_146072)">
<path d="M19.8479 11.6557L18.8238 10.6275C18.7584 10.565 18.6771 10.5218 18.5889 10.5025C18.5711 10.4979 18.553 10.4944 18.5348 10.492C18.4467 10.4766 18.3561 10.4852 18.2724 10.517L18.2711 10.5171L18.2664 10.521C18.2069 10.5459 18.1527 10.582 18.1067 10.6275L17.0826 11.6557C16.9891 11.7515 16.937 11.8805 16.9377 12.0147C16.9384 12.1488 16.9917 12.2772 17.0862 12.3721C17.1807 12.4669 17.3086 12.5205 17.4422 12.5212C17.5758 12.5218 17.7042 12.4696 17.7996 12.3757L17.8374 12.3378C17.5348 14.1085 16.6463 15.7252 15.3157 16.9264C13.985 18.1277 12.2898 18.8434 10.504 18.958V7.94254H11.9639C12.0984 7.94254 12.2274 7.8889 12.3225 7.79341C12.4176 7.69793 12.471 7.56842 12.471 7.43339C12.471 7.29835 12.4176 7.16885 12.3225 7.07337C12.2274 6.97788 12.0984 6.92424 11.9639 6.92424H10.504V5.5991C11.0674 5.49551 11.5866 5.22363 11.9937 4.81902C12.2567 4.55581 12.4654 4.24309 12.6078 3.89877C12.7502 3.55445 12.8236 3.1853 12.8237 2.81247C12.8238 2.43963 12.7506 2.07044 12.6083 1.72605C12.4661 1.38166 12.2575 1.06883 11.9947 0.805493C11.4562 0.288524 10.74 0 9.99495 0C9.24995 0 8.53366 0.288524 7.99524 0.805493C7.73265 1.06899 7.52436 1.38187 7.38229 1.72624C7.24021 2.07061 7.16713 2.43972 7.16723 2.81247C7.16732 3.18521 7.24059 3.55428 7.38284 3.89858C7.52509 4.24288 7.73353 4.55565 7.99625 4.81902C8.40429 5.2245 8.92496 5.49656 9.48984 5.59946V6.92427H8.0269C7.89241 6.92427 7.76342 6.97791 7.66832 7.0734C7.57322 7.16888 7.51979 7.29839 7.51979 7.43342C7.51979 7.56845 7.57322 7.69796 7.66832 7.79344C7.76342 7.88893 7.89241 7.94257 8.0269 7.94257H9.48979V18.958C7.70423 18.8435 6.00927 18.1279 4.6787 16.9269C3.34813 15.7259 2.45964 14.1097 2.15676 12.3392L2.19316 12.3757C2.28857 12.4696 2.41703 12.5219 2.55062 12.5212C2.68422 12.5206 2.81214 12.467 2.90661 12.3721C3.00107 12.2773 3.05444 12.1488 3.05512 12.0147C3.05579 11.8806 3.00372 11.7516 2.91021 11.6558L1.88612 10.6275C1.84018 10.582 1.78596 10.5459 1.72641 10.521L1.72171 10.5171L1.72041 10.517C1.63715 10.4854 1.54699 10.4766 1.45924 10.4917C1.44028 10.4943 1.42149 10.4979 1.40297 10.5027C1.31511 10.5221 1.23422 10.5653 1.16904 10.6275L0.144911 11.6557C0.0514052 11.7515 -0.000668246 11.8805 6.47593e-06 12.0147C0.000681198 12.1488 0.0540496 12.2772 0.148514 12.3721C0.242979 12.4669 0.370907 12.5205 0.504498 12.5212C0.63809 12.5218 0.76655 12.4696 0.861964 12.3757L1.09372 12.143C1.37361 14.315 2.43159 16.3104 4.06998 17.7564C5.70837 19.2023 7.81506 19.9999 9.99642 20C12.1778 20.0001 14.2846 19.2028 15.9231 17.7571C17.5617 16.3113 18.6199 14.316 18.9 12.144L19.1308 12.3757C19.1777 12.4238 19.2336 12.462 19.2954 12.4882C19.3571 12.5145 19.4234 12.5281 19.4904 12.5285C19.5574 12.5288 19.6238 12.5158 19.6858 12.4902C19.7478 12.4646 19.8041 12.4269 19.8515 12.3794C19.8989 12.3318 19.9364 12.2752 19.9619 12.213C19.9874 12.1508 20.0003 12.0841 20 12.0168C19.9997 11.9495 19.986 11.883 19.9599 11.821C19.9338 11.759 19.8957 11.7029 19.8478 11.6558L19.8479 11.6557ZM8.18142 2.81325C8.18082 2.51349 8.25393 2.21822 8.39425 1.95362C8.53457 1.68903 8.73777 1.46331 8.98582 1.29647C9.23387 1.12963 9.5191 1.02685 9.8162 0.997231C10.1133 0.967614 10.4131 1.01208 10.689 1.12669C10.9648 1.24129 11.2083 1.4225 11.3977 1.65422C11.5871 1.88594 11.7166 2.16102 11.7747 2.45504C11.8329 2.74907 11.8178 3.05296 11.7309 3.33974C11.644 3.62653 11.4879 3.88734 11.2766 4.09905C10.9292 4.42585 10.471 4.60771 9.99493 4.60771C9.51889 4.60771 9.06068 4.42585 8.71329 4.09905C8.54444 3.93063 8.41049 3.73029 8.3192 3.50959C8.22791 3.2889 8.18108 3.05223 8.18142 2.81325Z" fill="#171723"/>
</g>
<defs>
<clipPath id="clip0_10314_146072">
<rect width="20" height="20" fill="white"/>
</clipPath>
</defs>
</svg>
