<svg width="20" height="20" viewBox="0 0 20 20" fill="none" xmlns="http://www.w3.org/2000/svg">
<g clip-path="url(#clip0_6397_68730)">
<path d="M10.6169 0.799652C10.2885 0.48846 9.85178 0.314819 9.39763 0.314819C8.94349 0.314819 8.50681 0.48846 8.17836 0.799652C7.91142 1.06641 7.74055 1.41302 7.69218 1.78586C7.64381 2.15869 7.72065 2.53695 7.9108 2.86208L1.91005 13.2279C1.56395 13.1754 1.20999 13.2329 0.898817 13.3921C0.587644 13.5514 0.335201 13.8042 0.177608 14.1144C0.0200153 14.4246 -0.0346527 14.7763 0.0214262 15.1192C0.0775051 15.4621 0.241457 15.7786 0.489825 16.0235L4.00709 19.5134C4.24965 19.7561 4.56243 19.9178 4.90192 19.976C5.2414 20.0342 5.59072 19.986 5.9013 19.838C6.21188 19.6901 6.46827 19.4498 6.63482 19.1505C6.80137 18.8513 6.8698 18.508 6.83059 18.1684L7.64037 17.7021C8.01184 18.0472 8.48551 18.2645 8.99117 18.3216C9.49683 18.3787 10.0076 18.2726 10.4477 18.0191C10.8879 17.7656 11.234 17.3781 11.4348 16.9141C11.6356 16.4501 11.6804 15.9343 11.5625 15.443L17.3428 12.1139C17.7114 12.2598 18.1195 12.2751 18.4982 12.1571C18.8768 12.0391 19.2028 11.795 19.4211 11.4661C19.6394 11.1371 19.7365 10.7435 19.6962 10.3518C19.6559 9.95999 19.4805 9.59404 19.1997 9.31572L10.6169 0.799652ZM5.63908 18.7972C5.51835 18.9169 5.35465 18.9842 5.18397 18.9842C5.01328 18.9842 4.84958 18.9169 4.72885 18.7972L1.21162 15.3073C1.09105 15.1875 1.02335 15.0251 1.0234 14.8558C1.02344 14.6865 1.09121 14.5241 1.21183 14.4044C1.33246 14.2846 1.49606 14.2173 1.66669 14.2172C1.83732 14.217 2.00103 14.2841 2.12184 14.4037L5.63911 17.8936C5.75977 18.0135 5.82753 18.176 5.82753 18.3454C5.82753 18.5148 5.75977 18.6773 5.63911 18.7972H5.63908ZM6.36085 17.1774L2.84364 13.6875L2.8284 13.6752L8.62498 3.66241L16.4692 11.4456L6.4115 17.2389C6.39333 17.2191 6.38016 17.1965 6.36091 17.1774H6.36085ZM10.226 16.9177C10.0172 17.1213 9.748 17.2528 9.45809 17.2928C9.16819 17.3328 8.87299 17.2793 8.61611 17.1401L10.6108 15.9912C10.6077 16.3377 10.4699 16.6697 10.2261 16.9177H10.226ZM18.4778 11.0191C18.3461 11.1433 18.1718 11.2134 17.9901 11.2152C17.8084 11.2171 17.6328 11.1506 17.4985 11.0291L8.89118 2.48921L8.89068 2.48884C8.76415 2.35741 8.69434 2.18217 8.69611 2.00043C8.69788 1.81868 8.77109 1.64481 8.90015 1.51583C9.0342 1.38893 9.21236 1.31812 9.39763 1.31812C9.58291 1.31812 9.76107 1.38893 9.89511 1.51583L18.4779 10.0319C18.5433 10.0967 18.5952 10.1736 18.6306 10.2583C18.6661 10.343 18.6843 10.4338 18.6843 10.5255C18.6843 10.6172 18.6661 10.708 18.6306 10.7927C18.5952 10.8774 18.5433 10.9543 18.4779 11.0191H18.4778Z" fill="#171723"/>
<path d="M15.5504 4.93012C15.6174 4.9302 15.6838 4.91713 15.7458 4.89166C15.8077 4.8662 15.8639 4.82884 15.9113 4.78173L17.5493 3.15596C17.5975 3.10911 17.6358 3.05324 17.6621 2.9916C17.6884 2.92996 17.7021 2.86375 17.7024 2.79682C17.7028 2.72989 17.6897 2.66355 17.6641 2.60165C17.6384 2.53974 17.6006 2.4835 17.5529 2.43617C17.5052 2.38884 17.4486 2.35136 17.3862 2.3259C17.3238 2.30044 17.2569 2.28751 17.1895 2.28785C17.122 2.28819 17.0553 2.30179 16.9932 2.32787C16.931 2.35395 16.8747 2.392 16.8275 2.4398L15.1895 4.06558C15.1181 4.13641 15.0695 4.22665 15.0498 4.32489C15.0302 4.42312 15.0403 4.52495 15.0789 4.61749C15.1175 4.71002 15.1829 4.78912 15.2669 4.84477C15.3508 4.90042 15.4495 4.93013 15.5504 4.93015L15.5504 4.93012Z" fill="#171723"/>
<path d="M13.514 3.02384C13.5575 3.03576 13.6024 3.04175 13.6475 3.04165C13.7596 3.04162 13.8686 3.00498 13.9576 2.93741C14.0466 2.86983 14.1107 2.77506 14.14 2.66773L14.6944 0.638877C14.7119 0.574705 14.7166 0.507732 14.708 0.441783C14.6995 0.375834 14.6779 0.312201 14.6446 0.254515C14.6113 0.19683 14.5668 0.146222 14.5138 0.105583C14.4607 0.0649427 14.4002 0.0350661 14.3355 0.0176589C14.2708 0.000251691 14.2033 -0.00434521 14.1368 0.0041303C14.0704 0.0126058 14.0062 0.0339879 13.9481 0.0670558C13.89 0.100124 13.839 0.14423 13.798 0.196856C13.757 0.249482 13.7269 0.309597 13.7094 0.37377L13.1551 2.40263C13.1375 2.4668 13.1328 2.53378 13.1414 2.59974C13.1499 2.66569 13.1714 2.72934 13.2048 2.78703C13.2381 2.84472 13.2826 2.89533 13.3356 2.93597C13.3887 2.9766 13.4493 3.00646 13.514 3.02384Z" fill="#171723"/>
<path d="M19.985 5.62348C19.9677 5.55917 19.9377 5.4989 19.8968 5.44614C19.8559 5.39339 19.8049 5.34918 19.7467 5.31608C19.6885 5.28297 19.6243 5.26163 19.5577 5.25326C19.4912 5.2449 19.4236 5.24969 19.3589 5.26736L17.3142 5.81738C17.1948 5.84953 17.0913 5.92358 17.0228 6.02577C16.9544 6.12796 16.9256 6.25134 16.942 6.37297C16.9583 6.49461 17.0186 6.60622 17.1116 6.68707C17.2046 6.76791 17.3241 6.81249 17.4478 6.81252C17.4929 6.81262 17.5379 6.80663 17.5814 6.79472L19.6261 6.2447C19.6908 6.22731 19.7514 6.19745 19.8045 6.15682C19.8575 6.11618 19.902 6.06557 19.9353 6.00788C19.9686 5.95019 19.9902 5.88655 19.9987 5.82059C20.0073 5.75463 20.0026 5.68765 19.985 5.62348Z" fill="#171723"/>
</g>
<defs>
<clipPath id="clip0_6397_68730">
<rect width="20" height="20" fill="white"/>
</clipPath>
</defs>
</svg>
