<svg width="20" height="20" viewBox="0 0 20 20" fill="none" xmlns="http://www.w3.org/2000/svg">
<g clip-path="url(#clip0_17245_64365)">
<path d="M18.7593 4.88035C19.4405 4.88035 20 4.32132 20 3.64015V1.23026C20 0.549102 19.4405 0 18.7593 0H16.3599C15.6787 0 15.1192 0.549102 15.1192 1.23026V1.93178H4.88036V1.23026C4.88036 0.549102 4.33125 0 3.65009 0H1.2402C0.559036 0 -0.000488281 0.549102 -0.000488281 1.23026V3.64016C-0.000488281 4.32132 0.559036 4.88036 1.2402 4.88036H1.93179V15.1197H1.2402C0.559036 15.1197 -0.000488281 15.6688 -0.000488281 16.3499V18.7593C-0.000488281 19.4306 0.569468 20 1.2402 20H3.65009C4.33125 20 4.88036 19.441 4.88036 18.7593V18.0578H15.1192V18.7593C15.1192 19.441 15.6787 20 16.3598 20H18.7593C19.4405 20 20 19.441 20 18.7593V16.3499C20 15.6688 19.4405 15.1197 18.7593 15.1197H18.0682V4.88035H18.7593ZM3.86357 18.7593C3.86357 18.8815 3.76179 18.9832 3.65009 18.9832H1.2402C1.12849 18.9832 1.01629 18.8715 1.01629 18.7593V16.3499C1.01629 16.2382 1.11857 16.1364 1.2402 16.1364H3.65009C3.76179 16.1364 3.86357 16.2382 3.86357 16.3499V18.7593ZM3.86357 3.64016C3.86357 3.76179 3.77173 3.86357 3.65009 3.86357H1.2402C1.11856 3.86357 1.01629 3.76179 1.01629 3.64016V1.23026C1.01629 1.10813 1.11857 1.01678 1.2402 1.01678H3.65009C3.76179 1.01678 3.86357 1.11856 3.86357 1.23026V3.64016ZM18.7593 16.1364C18.8814 16.1364 18.9832 16.2278 18.9832 16.3499V18.7593C18.9832 18.8815 18.8814 18.9832 18.7593 18.9832H16.3599C16.2377 18.9832 16.1359 18.8814 16.1359 18.7593V16.3499C16.1359 16.2278 16.2377 16.1364 16.3599 16.1364H18.7593ZM16.3599 3.86357C16.2377 3.86357 16.1359 3.76179 16.1359 3.64016V1.23026C16.1359 1.10813 16.2377 1.01678 16.3599 1.01678H18.7593C18.8814 1.01678 18.9832 1.10813 18.9832 1.23026V3.64016C18.9832 3.76179 18.8814 3.86357 18.7593 3.86357H16.3599Z" fill="#171723"/>
</g>
<defs>
<clipPath id="clip0_17245_64365">
<rect width="20.0005" height="20" fill="white"/>
</clipPath>
</defs>
</svg>
