<svg width="20" height="20" viewBox="0 0 20 20" fill="none" xmlns="http://www.w3.org/2000/svg">
<g clip-path="url(#clip0_10314_146705)">
<path d="M18.7628 4.88116C19.0908 4.88089 19.4053 4.75052 19.6373 4.51864C19.8692 4.28677 19.9997 3.97234 20.0001 3.64435V1.23725C19.9997 0.909262 19.8692 0.594832 19.6373 0.362957C19.4053 0.131082 19.0908 0.000701708 18.7628 0.000427246H16.3557C16.0277 0.000701703 15.7132 0.131081 15.4813 0.362956C15.2493 0.594831 15.1188 0.909261 15.1184 1.23725V1.93534H4.88124V1.23725C4.8809 0.909416 4.75054 0.595104 4.51878 0.363246C4.28701 0.131387 3.97275 0.000909003 3.64492 0.000427246H1.23782C0.909828 0.000696325 0.595341 0.131074 0.36337 0.36295C0.131399 0.594826 0.000892162 0.909258 0.000488281 1.23725V3.64435C0.000894844 3.97234 0.1314 4.28676 0.363367 4.51864C0.595333 4.75051 0.909813 4.88089 1.2378 4.88116H1.93193V15.1188H1.23881C0.910828 15.1191 0.596348 15.2495 0.36438 15.4813C0.132412 15.7132 0.00190438 16.0276 0.00149513 16.3556V18.7627C0.00190169 19.0907 0.132408 19.4051 0.364376 19.637C0.596345 19.8689 0.910827 19.9993 1.23881 19.9995H3.64594C3.97377 19.9991 4.28802 19.8686 4.51978 19.6367C4.75154 19.4049 4.88189 19.0906 4.88224 18.7627V18.0627H15.1184V18.7628C15.1188 19.0907 15.2493 19.4052 15.4813 19.637C15.7132 19.8689 16.0277 19.9993 16.3557 19.9995H18.7628C19.0908 19.9993 19.4053 19.8689 19.6373 19.637C19.8692 19.4051 19.9997 19.0907 20.0001 18.7627V16.3556C19.9997 16.0276 19.8692 15.7132 19.6373 15.4813C19.4053 15.2495 19.0908 15.1191 18.7628 15.1188H18.0697V4.88116H18.7628ZM16.3557 1.01729H18.7628C18.8212 1.01738 18.8771 1.04057 18.9184 1.08179C18.9597 1.123 18.983 1.17889 18.9833 1.23725V3.64435C18.983 3.70271 18.9597 3.7586 18.9184 3.79981C18.8771 3.84102 18.8212 3.86421 18.7628 3.8643H16.3557C16.2974 3.86421 16.2414 3.84102 16.2001 3.79981C16.1588 3.7586 16.1355 3.70271 16.1352 3.64435V2.45365L16.1373 2.44377L16.1352 2.43391V1.23725C16.1355 1.17889 16.1588 1.123 16.2001 1.08179C16.2414 1.04057 16.2973 1.01738 16.3557 1.01729V1.01729ZM1.01735 3.64435V1.23725C1.01757 1.17889 1.04089 1.123 1.08219 1.08179C1.1235 1.04057 1.17944 1.01738 1.2378 1.01729H3.64492C3.70317 1.01742 3.75899 1.04065 3.80013 1.08189C3.84128 1.12313 3.86438 1.179 3.86438 1.23725V3.64435C3.86438 3.7026 3.84128 3.75847 3.80013 3.79971C3.75899 3.84094 3.70317 3.86417 3.64492 3.8643H1.23782C1.17946 3.86422 1.12351 3.84103 1.0822 3.79982C1.04089 3.7586 1.01757 3.70271 1.01735 3.64435V3.64435ZM3.64594 18.9827H1.23881C1.18046 18.9826 1.12452 18.9594 1.08321 18.9182C1.0419 18.877 1.01858 18.8211 1.01836 18.7627V16.3556C1.01858 16.2973 1.0419 16.2414 1.08321 16.2002C1.12452 16.159 1.18046 16.1358 1.23881 16.1357H3.64594C3.70419 16.1358 3.76001 16.159 3.80115 16.2003C3.84229 16.2415 3.8654 16.2974 3.8654 16.3556V17.5493L3.86438 17.5542L3.8654 17.5591V18.7627C3.8654 18.821 3.84229 18.8769 3.80115 18.9181C3.76001 18.9593 3.70419 18.9826 3.64594 18.9827V18.9827ZM18.9833 16.3556V18.7627C18.9831 18.8211 18.9597 18.877 18.9184 18.9182C18.8771 18.9594 18.8212 18.9826 18.7628 18.9827H16.3557C16.2973 18.9826 16.2414 18.9594 16.2001 18.9182C16.1588 18.877 16.1355 18.8211 16.1352 18.7627V17.5641L16.1373 17.5542L16.1352 17.5443V16.3556C16.1355 16.2973 16.1588 16.2414 16.2001 16.2002C16.2414 16.159 16.2974 16.1358 16.3557 16.1357H18.7628C18.8212 16.1358 18.8771 16.159 18.9184 16.2002C18.9597 16.2414 18.983 16.2973 18.9833 16.3556V16.3556ZM17.0528 15.1188H16.3557C16.0277 15.1191 15.7132 15.2495 15.4813 15.4814C15.2493 15.7132 15.1188 16.0277 15.1184 16.3556V17.0458H4.88224V16.3557C4.8819 16.0278 4.75155 15.7135 4.51979 15.4816C4.28803 15.2498 3.97377 15.1193 3.64594 15.1188H2.94881V4.88116H3.64492C3.97275 4.88068 4.28701 4.75021 4.51877 4.51835C4.75054 4.28649 4.88089 3.97218 4.88124 3.64435V2.95221H15.1184V3.64435C15.1188 3.97234 15.2493 4.28676 15.4813 4.51864C15.7132 4.75051 16.0277 4.88089 16.3557 4.88116H17.0528L17.0528 15.1188Z" fill="#171723"/>
<path d="M13.4312 13.7368C13.3817 13.7333 13.3332 13.7209 13.288 13.7003C13.2314 13.6631 13.1895 13.6075 13.1695 13.5428C13.086 13.325 12.9993 13.1077 12.9209 12.8878C12.697 12.3224 12.5936 11.7166 12.6174 11.109C12.6641 10.4743 12.6199 9.83223 12.6779 9.19458C12.6817 9.11748 12.696 9.04125 12.7203 8.96799C12.8365 8.76422 12.9916 8.58526 13.1768 8.44125C13.2964 8.32083 13.3635 8.15799 13.3635 7.98825V5.45525C13.3635 5.40007 13.3476 5.34607 13.3177 5.29969C13.2879 5.25331 13.2452 5.21653 13.195 5.19373C13.1447 5.17094 13.089 5.16311 13.0344 5.17117C12.9798 5.17924 12.9287 5.20286 12.8872 5.2392L12.0639 5.96016C12.0003 6.01604 11.9186 6.04705 11.8339 6.04749H11.2267C11.1426 6.04705 11.0616 6.016 10.9987 5.96016L10.1743 5.24006C10.1328 5.20384 10.0818 5.18033 10.0274 5.17233C9.97293 5.16433 9.91733 5.17218 9.86722 5.19494C9.81711 5.2177 9.77461 5.25441 9.74481 5.30068C9.71501 5.34695 9.69917 5.40082 9.69917 5.45586V7.98864C9.69918 8.07364 9.71592 8.1578 9.74845 8.23633C9.78099 8.31486 9.82867 8.38621 9.88878 8.44631C9.95333 8.51091 10.0181 8.57527 10.0825 8.64001C10.1136 8.67135 10.1867 8.72311 10.1914 8.76915C10.1997 8.8512 10.0747 8.91407 10.0177 8.95683C9.39337 9.40321 8.82151 9.91882 8.31309 10.4938C7.76708 11.0927 7.40448 11.8358 7.26836 12.6347C7.26463 12.6659 7.26226 12.6925 7.2588 12.7228C7.25521 12.5743 7.24022 12.4263 7.21398 12.2801C7.20879 12.1397 7.21371 11.9992 7.22869 11.8595C7.29213 11.1215 7.45155 10.395 7.70292 9.69824C7.82978 9.34676 8.12136 8.89648 8.03454 8.51026C8.00081 8.3869 7.92863 8.27751 7.8285 8.19797C7.72836 8.11842 7.60548 8.07287 7.47769 8.06792C6.77402 8.03955 6.53059 8.97176 6.37356 9.49013C5.97492 10.7519 5.84882 12.084 6.0036 13.3981C6.03268 13.6751 6.11521 13.9437 6.24663 14.1892C6.36743 14.3768 6.53131 14.5327 6.72461 14.644C6.91791 14.7553 7.13502 14.8187 7.35784 14.8291H11.3975C12.0833 14.8291 12.7707 14.816 13.4565 14.8291C13.5883 14.8477 13.7227 14.8305 13.8457 14.7795C13.9251 14.7303 13.988 14.6587 14.0266 14.5736C14.0652 14.4886 14.0777 14.394 14.0624 14.3019L14.0589 14.2802C14.0258 14.1345 13.9471 14.0033 13.8342 13.9055C13.7213 13.8078 13.5801 13.7487 13.4312 13.7368V13.7368Z" fill="#171723"/>
</g>
<defs>
<clipPath id="clip0_10314_146705">
<rect width="20" height="20" fill="white"/>
</clipPath>
</defs>
</svg>
