<svg width="20" height="20" viewBox="0 0 20 20" fill="none" xmlns="http://www.w3.org/2000/svg">
<g clip-path="url(#clip0_17245_64329)">
<path d="M18.7621 4.88107C19.4444 4.88107 19.9995 4.32593 19.9995 3.64367V1.23641C19.9995 0.555143 19.4444 0 18.7621 0H16.3559C15.6736 0 15.1184 0.555143 15.1184 1.23641V1.93455H4.8806V1.23641C4.8806 0.555143 4.32546 0 3.6432 0H1.23594C0.553679 0 -0.00146484 0.555143 -0.00146484 1.23641V3.64368C-0.00146484 4.32594 0.553679 4.88108 1.23594 4.88108H1.9311V15.1189H1.23692C0.554675 15.1189 -0.00046825 15.6741 -0.00046825 16.3563V18.7636C-0.00046825 19.4449 0.554675 20 1.23694 20H3.64421C4.32647 20 4.88161 19.4449 4.88161 18.7636V18.0635H15.1185V18.7636C15.1185 19.4449 15.6736 20 16.3559 20H18.7621C19.4444 20 19.9996 19.4449 19.9996 18.7636V16.3563C19.9996 15.6741 19.4444 15.1189 18.7621 15.1189H18.069V4.88107H18.7621ZM1.23594 3.86414C1.11478 3.86414 1.01547 3.76483 1.01547 3.64367V1.23641C1.01547 1.11525 1.11478 1.01693 1.23594 1.01693H3.64321C3.76437 1.01693 3.86368 1.11525 3.86368 1.23641V2.43805C3.86368 2.44004 3.86268 2.44153 3.86268 2.44302C3.86268 2.445 3.86368 2.446 3.86368 2.44798V3.64367C3.86368 3.76483 3.76437 3.86414 3.64321 3.86414H1.23594ZM3.86467 17.5451C3.86467 17.5485 3.86268 17.5515 3.86268 17.555C3.86268 17.5585 3.86467 17.5614 3.86467 17.5649V18.7636C3.86467 18.8847 3.76535 18.9831 3.6442 18.9831H1.23692C1.11577 18.9831 1.01645 18.8847 1.01645 18.7636V16.3563C1.01645 16.2352 1.11577 16.1358 1.23692 16.1358H3.6442C3.76535 16.1358 3.86467 16.2352 3.86467 16.3563V17.5451ZM15.1185 16.3563V17.0465H4.8816V16.3563C4.8816 15.674 4.32646 15.1189 3.6442 15.1189H2.94804V4.88107H3.6432C4.32546 4.88107 4.8806 4.32593 4.8806 3.64367V2.95148H15.1184V3.64367C15.1184 4.32593 15.6736 4.88107 16.3559 4.88107H17.052V15.1189H16.3559C15.6736 15.1189 15.1185 15.674 15.1185 16.3563ZM18.7621 16.1358C18.8833 16.1358 18.9826 16.2352 18.9826 16.3563V18.7636C18.9826 18.8847 18.8833 18.9831 18.7621 18.9831H16.3559C16.2347 18.9831 16.1354 18.8847 16.1354 18.7636V17.5649C16.1354 17.5614 16.1374 17.5585 16.1374 17.555C16.1374 17.5515 16.1354 17.5485 16.1354 17.545V16.3563C16.1354 16.2351 16.2347 16.1358 16.3559 16.1358L18.7621 16.1358ZM16.3559 3.86413C16.2347 3.86413 16.1354 3.76482 16.1354 3.64366V2.45293C16.1354 2.44945 16.1374 2.44647 16.1374 2.443C16.1374 2.43952 16.1354 2.43654 16.1354 2.43306V1.23638C16.1354 1.11522 16.2347 1.0169 16.3559 1.0169H18.7621C18.8833 1.0169 18.9826 1.11522 18.9826 1.23638V3.64365C18.9826 3.76481 18.8833 3.86412 18.7621 3.86412L16.3559 3.86413Z" fill="#171723"/>
</g>
<defs>
<clipPath id="clip0_17245_64329">
<rect width="20.001" height="20" fill="white"/>
</clipPath>
</defs>
</svg>
