<svg width="20" height="20" viewBox="0 0 20 20" fill="none" xmlns="http://www.w3.org/2000/svg">
<g clip-path="url(#clip0_10314_146728)">
<path d="M15.3105 13.6612L12.3002 10.661C12.2708 10.6296 12.2354 10.6047 12.196 10.5876C12.1567 10.5706 12.1142 10.5618 12.0713 10.5618C12.0284 10.5618 11.986 10.5706 11.9466 10.5876C11.9073 10.6047 11.8718 10.6296 11.8425 10.661L9.76779 12.7255C9.61156 12.8757 9.40273 12.9587 9.18602 12.9568C8.96931 12.9549 8.76197 12.8682 8.60839 12.7153L7.61172 11.7288C7.58421 11.6964 7.5499 11.6705 7.51122 11.6529C7.47254 11.6354 7.43046 11.6265 7.38798 11.6271C7.3442 11.6278 7.30098 11.6371 7.26083 11.6545C7.22068 11.672 7.18439 11.6972 7.15406 11.7288L4.77424 14.1086L4.39795 14.4849L4.04199 14.8409C4.20136 15.0606 4.41101 15.2389 4.65341 15.361C4.89581 15.4831 5.16391 15.5454 5.4353 15.5426H14.5681C14.9051 15.5441 15.2352 15.4479 15.5186 15.2656C15.802 15.0832 16.0265 14.8227 16.1648 14.5154L15.7682 14.1188L15.3105 13.6612Z" fill="#171723"/>
<path d="M14.5685 4.45729H5.43572C5.20445 4.4565 4.9753 4.50148 4.76149 4.58962C4.54767 4.67777 4.3534 4.80734 4.18987 4.97087C4.02633 5.13441 3.89676 5.32868 3.80862 5.54249C3.72047 5.75631 3.6755 5.98545 3.67628 6.21672V13.763L4.6933 12.746L6.43239 11.0069C6.55253 10.8742 6.70057 10.7698 6.86588 10.7013C7.03118 10.6327 7.20963 10.6016 7.38839 10.6102C7.56443 10.6106 7.73866 10.6458 7.90101 10.7139C8.06336 10.7819 8.2106 10.8815 8.33421 11.0069L9.19868 11.8713L11.131 9.939C11.3827 9.68981 11.7226 9.55002 12.0768 9.55002C12.431 9.55002 12.7709 9.68981 13.0227 9.939L16.328 13.2443V6.21672C16.3278 5.75014 16.1424 5.30272 15.8124 4.97279C15.4825 4.64287 15.0351 4.45745 14.5685 4.45729V4.45729ZM7.56128 9.76611C7.21833 9.76711 6.88278 9.6664 6.59706 9.4767C6.31135 9.287 6.08831 9.01684 5.95614 8.70037C5.82396 8.38391 5.7886 8.03536 5.85452 7.6988C5.92045 7.36224 6.08469 7.05279 6.32648 6.80957C6.56827 6.56636 6.87676 6.4003 7.21293 6.33241C7.54909 6.26452 7.89784 6.29783 8.21508 6.42814C8.53231 6.55846 8.80378 6.77991 8.99515 7.06451C9.18652 7.34911 9.2892 7.68406 9.29021 8.02701C9.29041 8.48654 9.10864 8.92744 8.78466 9.25332C8.46068 9.5792 8.02084 9.76354 7.56132 9.76603L7.56128 9.76611Z" fill="#171723"/>
<path d="M7.56093 7.31502C7.41869 7.31402 7.27937 7.35534 7.16069 7.43374C7.042 7.51213 6.94932 7.62406 6.89442 7.75528C6.83952 7.8865 6.8249 8.03108 6.8524 8.17064C6.8799 8.31019 6.94829 8.43841 7.04887 8.53899C7.14945 8.63957 7.27767 8.70796 7.41723 8.73546C7.55678 8.76297 7.70137 8.74834 7.83259 8.69344C7.96381 8.63855 8.07573 8.54586 8.15413 8.42718C8.23252 8.30849 8.27385 8.16917 8.27284 8.02693C8.27342 7.93328 8.25541 7.84044 8.21984 7.75381C8.18427 7.66717 8.13185 7.58846 8.06563 7.52224C7.9994 7.45601 7.92069 7.4036 7.83406 7.36803C7.74742 7.33246 7.65458 7.31444 7.56093 7.31502V7.31502Z" fill="#171723"/>
<path d="M19.4916 17.0983H18.8466C19.1363 16.6943 19.2924 16.2099 19.293 15.7128V4.28727C19.2924 3.65029 19.039 3.0396 18.5886 2.58918C18.1382 2.13877 17.5275 1.88543 16.8905 1.88477H3.10916C2.47218 1.88543 1.86148 2.13876 1.41107 2.58918C0.960652 3.03959 0.707318 3.65029 0.706653 4.28727V15.7128C0.707303 16.2099 0.863379 16.6943 1.15303 17.0983H0.50802C0.373155 17.0983 0.243814 17.1519 0.14845 17.2472C0.0530864 17.3426 -0.000488281 17.4719 -0.000488281 17.6068C-0.000488281 17.7417 0.0530864 17.871 0.14845 17.9664C0.243814 18.0617 0.373155 18.1153 0.50802 18.1153H19.4916C19.6265 18.1153 19.7558 18.0617 19.8512 17.9664C19.9466 17.871 20.0001 17.7417 20.0001 17.6068C20.0001 17.4719 19.9466 17.3426 19.8512 17.2472C19.7558 17.1519 19.6265 17.0983 19.4916 17.0983V17.0983ZM3.10914 17.0983C2.74183 17.0978 2.38971 16.9517 2.12998 16.692C1.87026 16.4322 1.72413 16.0801 1.72365 15.7128V4.28727C1.72413 3.91996 1.87026 3.56784 2.12999 3.30811C2.38972 3.04839 2.74185 2.90226 3.10916 2.90178H16.8905C17.2578 2.90227 17.6099 3.0484 17.8697 3.30812C18.1294 3.56785 18.2755 3.91997 18.276 4.28727V15.7128C18.2755 16.0801 18.1294 16.4322 17.8697 16.692C17.6099 16.9517 17.2578 17.0978 16.8905 17.0983H3.10914Z" fill="#171723"/>
</g>
<defs>
<clipPath id="clip0_10314_146728">
<rect width="20" height="20" fill="white" transform="translate(20) rotate(90)"/>
</clipPath>
</defs>
</svg>
