<svg width="20" height="20" viewBox="0 0 20 20" fill="none" xmlns="http://www.w3.org/2000/svg">
<g clip-path="url(#clip0_10314_146706)">
<path d="M18.7595 4.88301C19.088 4.88167 19.4028 4.75049 19.6351 4.51803C19.8675 4.28556 19.9986 3.97066 19.9999 3.64192V1.23093C19.9982 0.903236 19.8666 0.589603 19.6341 0.35884C19.4015 0.128077 19.087 -0.000971308 18.7595 5.75275e-06H16.3496C16.188 -0.000285073 16.0278 0.0313552 15.8784 0.0931119C15.729 0.154869 15.5933 0.245527 15.479 0.359887C15.3647 0.474247 15.2741 0.610058 15.2124 0.759532C15.1506 0.909006 15.119 1.0692 15.1193 1.23093V1.93286H4.8804V1.23093C4.8787 0.903229 4.74714 0.589584 4.51458 0.358817C4.28203 0.128049 3.96747 -0.000992833 3.63994 5.75275e-06H1.24046C0.912924 -0.000992833 0.598368 0.128049 0.365813 0.358817C0.133258 0.589584 0.00169769 0.903229 0 1.23093V3.64192C0.00130121 3.97068 0.13241 4.2856 0.36476 4.51807C0.59711 4.75054 0.91187 4.88171 1.24046 4.88301H1.93186V15.117H1.24046C0.911866 15.1183 0.597098 15.2494 0.364745 15.4819C0.132392 15.7144 0.00128792 16.0293 0 16.3581V18.7691C0.00169769 19.0968 0.133258 19.4104 0.365813 19.6412C0.598368 19.872 0.912924 20.001 1.24046 20H3.64004C3.96757 20.001 4.28213 19.872 4.51469 19.6412C4.74724 19.4104 4.8788 19.0968 4.8805 18.7691V18.0671H15.1194V18.7691C15.1191 18.9308 15.1507 19.091 15.2124 19.2405C15.2742 19.3899 15.3648 19.5258 15.4791 19.6401C15.5934 19.7545 15.7291 19.8451 15.8785 19.9069C16.0279 19.9686 16.188 20.0003 16.3497 20H18.7595C19.0871 20.001 19.4016 19.8719 19.6342 19.6412C19.8667 19.4104 19.9983 19.0968 20 18.7691V16.3581C19.9987 16.0293 19.8676 15.7144 19.6352 15.4819C19.4029 15.2495 19.0881 15.1183 18.7595 15.117H18.068V4.88301H18.7595ZM16.1361 1.23093C16.1382 1.17493 16.1614 1.12178 16.201 1.08215C16.2406 1.04253 16.2937 1.01936 16.3497 1.0173H18.7595C18.7883 1.01643 18.8169 1.02129 18.8438 1.0316C18.8707 1.0419 18.8952 1.05744 18.916 1.07732C18.9368 1.09719 18.9535 1.12101 18.965 1.14738C18.9766 1.17375 18.9828 1.20215 18.9832 1.23093V3.64192C18.9827 3.70111 18.959 3.75773 18.9171 3.79958C18.8753 3.84144 18.8187 3.86519 18.7595 3.86572H16.3496C16.2921 3.86305 16.2378 3.83831 16.198 3.79663C16.1582 3.75495 16.1361 3.69954 16.1361 3.64192V1.23093H16.1361ZM7.25974 12.6857C7.25816 12.6681 7.26169 12.6504 7.26991 12.6348C7.40171 11.8373 7.76198 11.0952 8.30702 10.4985C8.81923 9.92314 9.39193 9.40472 10.0152 8.95219C10.0763 8.9115 10.1981 8.85046 10.188 8.76908C10.188 8.71821 10.1067 8.66735 10.0762 8.63688L9.88295 8.44359C9.8236 8.38326 9.77685 8.31171 9.74543 8.23312C9.71401 8.15452 9.69854 8.07045 9.69993 7.98581V5.4527C9.69934 5.39823 9.71456 5.34476 9.74375 5.29877C9.77294 5.25279 9.81485 5.21627 9.86438 5.19365C9.91391 5.17103 9.96894 5.16328 10.0228 5.17134C10.0766 5.17941 10.127 5.20293 10.1677 5.23907L10.9912 5.96135C11.0589 6.01206 11.1406 6.0405 11.2251 6.04273H11.8352C11.9169 6.04213 11.9959 6.01339 12.0589 5.96135L12.8825 5.23907C12.924 5.20287 12.975 5.17931 13.0294 5.17116C13.0838 5.16302 13.1395 5.17062 13.1897 5.19309C13.24 5.21555 13.2827 5.25193 13.313 5.29793C13.3432 5.34394 13.3597 5.39764 13.3604 5.4527V7.98576C13.3585 8.15581 13.2933 8.31903 13.1775 8.44354C12.9936 8.58608 12.8383 8.76211 12.7198 8.96236C12.6915 9.03707 12.6777 9.11647 12.6791 9.19634C12.6182 9.82706 12.6589 10.4781 12.6182 11.1089C12.5918 11.7172 12.6958 12.3243 12.9232 12.8891C12.9942 13.1129 13.0858 13.3265 13.1672 13.5401C13.1752 13.5742 13.1901 13.6063 13.2111 13.6343C13.2321 13.6624 13.2586 13.6857 13.2891 13.7029C13.3337 13.7237 13.3824 13.7342 13.4316 13.7334C13.5798 13.7475 13.7196 13.8083 13.8311 13.9071C13.9425 14.0058 14.0197 14.1373 14.0517 14.2828C14.0619 14.2929 14.0619 14.2929 14.0619 14.3031C14.0761 14.396 14.0624 14.491 14.0226 14.5762C13.9828 14.6613 13.9186 14.7327 13.8382 14.7812C13.7165 14.8335 13.5828 14.8511 13.4518 14.8321C12.7706 14.8219 12.0792 14.8321 11.398 14.8321H7.35125C7.12907 14.8204 6.91281 14.7562 6.72018 14.6448C6.52755 14.5334 6.36402 14.378 6.24297 14.1912C6.11167 13.9447 6.02883 13.6754 5.99895 13.3977C5.84851 12.0836 5.9767 10.7525 6.37515 9.4913C6.52767 8.97248 6.77169 8.03657 7.47326 8.06709C7.60041 8.07262 7.72266 8.11775 7.82292 8.19617C7.92318 8.2746 7.99645 8.38241 8.03249 8.50453C8.124 8.8911 7.82918 9.34888 7.69687 9.69476C7.55426 10.0926 7.44209 10.5007 7.36134 10.9155C7.29742 11.2278 7.25327 11.5438 7.22916 11.8616C7.21223 11.9999 7.20544 12.1393 7.20882 12.2787C7.21907 12.411 7.25974 12.5636 7.25974 12.6857ZM1.01677 3.64192V1.23093C1.01723 1.20215 1.02341 1.17374 1.03494 1.14736C1.04647 1.12099 1.06313 1.09717 1.08394 1.07729C1.10476 1.05741 1.12931 1.04187 1.15618 1.03157C1.18305 1.02128 1.2117 1.01642 1.24046 1.0173H3.64004C3.6688 1.01641 3.69745 1.02126 3.72433 1.03156C3.7512 1.04185 3.77576 1.05739 3.79658 1.07727C3.81739 1.09715 3.83405 1.12097 3.84558 1.14735C3.85711 1.17373 3.86328 1.20214 3.86373 1.23093V3.64192C3.86323 3.70112 3.8395 3.75776 3.79766 3.79962C3.75582 3.84149 3.69921 3.86522 3.64004 3.86572H1.24046C1.1813 3.86519 1.12471 3.84144 1.08287 3.79958C1.04104 3.75773 1.0173 3.70111 1.01677 3.64192ZM3.86363 18.7691C3.86317 18.7979 3.857 18.8263 3.84548 18.8526C3.83395 18.879 3.81729 18.9028 3.79647 18.9227C3.77566 18.9426 3.7511 18.9582 3.72423 18.9684C3.69735 18.9787 3.6687 18.9836 3.63994 18.9827H1.24046C1.2117 18.9836 1.18305 18.9787 1.15618 18.9684C1.12931 18.9581 1.10476 18.9426 1.08394 18.9227C1.06313 18.9028 1.04647 18.879 1.03494 18.8526C1.02341 18.8263 1.01723 18.7979 1.01677 18.7691V16.3581C1.01728 16.2989 1.041 16.2423 1.08285 16.2004C1.12469 16.1585 1.18129 16.1348 1.24046 16.1343H3.64004C3.69922 16.1348 3.75583 16.1585 3.79768 16.2004C3.83952 16.2422 3.86325 16.2989 3.86373 16.3581V18.7691H3.86363ZM18.9831 16.3581V18.7691C18.9826 18.7979 18.9764 18.8263 18.9649 18.8526C18.9534 18.879 18.9367 18.9028 18.9159 18.9227C18.8951 18.9426 18.8705 18.9581 18.8437 18.9684C18.8168 18.9787 18.7882 18.9836 18.7594 18.9827H16.3496C16.2936 18.9806 16.2405 18.9575 16.2009 18.9178C16.1613 18.8782 16.1381 18.8251 16.1361 18.7691V16.3581C16.1352 16.3293 16.1401 16.3006 16.1504 16.2738C16.1607 16.2469 16.1762 16.2223 16.196 16.2015C16.2159 16.1807 16.2397 16.164 16.2661 16.1525C16.2924 16.1409 16.3208 16.1347 16.3496 16.1343H18.7595C18.789 16.1337 18.8184 16.1391 18.8458 16.1501C18.8732 16.1611 18.8981 16.1776 18.9189 16.1985C18.9398 16.2194 18.9563 16.2443 18.9673 16.2717C18.9783 16.2992 18.9837 16.3285 18.9831 16.3581Z" fill="#171723"/>
</g>
<defs>
<clipPath id="clip0_10314_146706">
<rect width="20" height="20" fill="white"/>
</clipPath>
</defs>
</svg>
