<svg width="20" height="20" viewBox="0 0 20 20" fill="none" xmlns="http://www.w3.org/2000/svg">
<g clip-path="url(#clip0_17245_64329)">
<path d="M18.7636 4.88107C19.4459 4.88107 20.001 4.32593 20.001 3.64367V1.23641C20.001 0.555143 19.4459 0 18.7636 0H16.3573C15.6751 0 15.1199 0.555143 15.1199 1.23641V1.93455H4.88207V1.23641C4.88207 0.555143 4.32693 0 3.64467 0H1.2374C0.555143 0 0 0.555143 0 1.23641V3.64368C0 4.32594 0.555143 4.88108 1.2374 4.88108H1.93257V15.1189H1.23839C0.55614 15.1189 0.000996594 15.6741 0.000996594 16.3563V18.7636C0.000996594 19.4449 0.55614 20 1.2384 20H3.64567C4.32793 20 4.88308 19.4449 4.88308 18.7636V18.0635H15.1199V18.7636C15.1199 19.4449 15.6751 20 16.3573 20H18.7636C19.4459 20 20.001 19.4449 20.001 18.7636V16.3563C20.001 15.6741 19.4459 15.1189 18.7636 15.1189H18.0704V4.88107H18.7636ZM1.2374 3.86414C1.11625 3.86414 1.01693 3.76483 1.01693 3.64367V1.23641C1.01693 1.11525 1.11625 1.01693 1.2374 1.01693H3.64468C3.76583 1.01693 3.86515 1.11525 3.86515 1.23641V2.43805C3.86515 2.44004 3.86415 2.44153 3.86415 2.44302C3.86415 2.445 3.86515 2.446 3.86515 2.44798V3.64367C3.86515 3.76483 3.76583 3.86414 3.64468 3.86414H1.2374ZM3.86613 17.5451C3.86613 17.5485 3.86415 17.5515 3.86415 17.555C3.86415 17.5585 3.86613 17.5614 3.86613 17.5649V18.7636C3.86613 18.8847 3.76682 18.9831 3.64566 18.9831H1.23839C1.11723 18.9831 1.01792 18.8847 1.01792 18.7636V16.3563C1.01792 16.2352 1.11723 16.1358 1.23839 16.1358H3.64566C3.76682 16.1358 3.86613 16.2352 3.86613 16.3563V17.5451ZM15.1199 16.3563V17.0465H4.88307V16.3563C4.88307 15.674 4.32792 15.1189 3.64566 15.1189H2.9495V4.88107H3.64467C4.32693 4.88107 4.88207 4.32593 4.88207 3.64367V2.95148H15.1199V3.64367C15.1199 4.32593 15.6751 4.88107 16.3573 4.88107H17.0535V15.1189H16.3573C15.6751 15.1189 15.1199 15.674 15.1199 16.3563ZM18.7636 16.1358C18.8848 16.1358 18.9841 16.2352 18.9841 16.3563V18.7636C18.9841 18.8847 18.8848 18.9831 18.7636 18.9831H16.3573C16.2362 18.9831 16.1369 18.8847 16.1369 18.7636V17.5649C16.1369 17.5614 16.1388 17.5585 16.1388 17.555C16.1388 17.5515 16.1369 17.5485 16.1369 17.545V16.3563C16.1369 16.2351 16.2362 16.1358 16.3573 16.1358L18.7636 16.1358ZM16.3573 3.86413C16.2362 3.86413 16.1369 3.76482 16.1369 3.64366V2.45293C16.1369 2.44945 16.1388 2.44647 16.1388 2.443C16.1388 2.43952 16.1369 2.43654 16.1369 2.43306V1.23638C16.1369 1.11522 16.2362 1.0169 16.3573 1.0169H18.7636C18.8848 1.0169 18.9841 1.11522 18.9841 1.23638V3.64365C18.9841 3.76481 18.8848 3.86412 18.7636 3.86412L16.3573 3.86413Z" fill="#171723"/>
<path d="M15.1304 9.44982C15.1304 9.44982 15.2282 8.98158 15.2912 8.68067C15.3543 8.37926 15.0117 8.34152 15.0117 8.34152H13.9481L13.6452 7.59918C13.3656 6.91295 12.5359 6.44123 11.5909 6.43179L8.65337 6.4015C7.70843 6.39156 6.86231 6.84541 6.55792 7.52569L6.19445 8.33804H4.98883C4.98883 8.33804 4.6467 8.37578 4.70927 8.67719C4.77233 8.9781 4.87015 9.44635 4.87015 9.44635C4.87015 9.44635 4.89299 9.67178 5.14921 9.67178H5.3091C4.98237 10.0293 4.78177 10.502 4.78177 11.0224C4.78177 11.7836 5.20782 12.4455 5.83644 12.7891V13.4838C5.83644 13.7167 6.02762 13.9058 6.26347 13.9058H7.21983C7.45568 13.9058 7.64686 13.7167 7.64686 13.4838V13.0399H12.3958V13.4838C12.3958 13.7167 12.587 13.9058 12.8229 13.9058H13.7792C14.0151 13.9058 14.2063 13.7167 14.2063 13.4838V12.7275C14.7778 12.3705 15.1591 11.7409 15.1591 11.0224C15.1591 10.504 14.9595 10.0323 14.6348 9.67525H14.8513C15.108 9.67525 15.1304 9.44982 15.1304 9.44982ZM6.70342 11.7399C6.3032 11.7399 5.97846 11.4186 5.97846 11.0224C5.97846 10.6261 6.3032 10.3049 6.70342 10.3049C7.10363 10.3049 7.42838 10.6261 7.42838 11.0224C7.42838 11.4186 7.10363 11.7399 6.70342 11.7399ZM6.82011 9.00492L7.4244 7.79681C7.62203 7.40206 8.1722 7.13889 8.78594 7.14435L11.4236 7.16868C12.0374 7.17414 12.5766 7.44774 12.7583 7.84598L13.2921 9.01337C13.2355 9.0089 13.1784 9.00493 13.1203 9.00493L6.82011 9.00492ZM13.2628 11.7399C12.8621 11.7399 12.5379 11.4186 12.5379 11.0224C12.5379 10.6261 12.8621 10.3049 13.2628 10.3049C13.663 10.3049 13.9878 10.6261 13.9878 11.0224C13.9878 11.4186 13.663 11.7399 13.2628 11.7399Z" fill="#171723"/>
</g>
<defs>
<clipPath id="clip0_17245_64329">
<rect width="20.001" height="20" fill="white"/>
</clipPath>
</defs>
</svg>
