<svg width="20" height="20" viewBox="0 0 20 20" fill="none" xmlns="http://www.w3.org/2000/svg">
<g clip-path="url(#clip0_10317_146734)">
<path d="M14.5634 4.45319H5.43621C4.9687 4.45385 4.52054 4.63993 4.19005 4.9706C3.85957 5.30128 3.67374 5.74954 3.67334 6.21705V13.783C3.67334 13.8375 3.68458 13.8889 3.68942 13.9421C3.68903 13.9792 3.69278 14.0163 3.70061 14.0526C3.76431 14.4675 3.97423 14.8461 4.29249 15.1199C4.61074 15.3937 5.01638 15.5448 5.43622 15.5458H14.5634C15.0308 15.5454 15.479 15.3595 15.8095 15.029C16.14 14.6985 16.3258 14.2504 16.3263 13.783V6.21703C16.3259 5.74952 16.14 5.30126 15.8095 4.97059C15.4791 4.63992 15.0309 4.45385 14.5634 4.45319V4.45319ZM5.43621 5.47019H14.5634C14.7613 5.4705 14.951 5.54932 15.0908 5.68935C15.2306 5.82937 15.3092 6.01916 15.3093 6.21705V12.2294L13.02 9.93943C12.8962 9.81436 12.7487 9.71511 12.5863 9.64742C12.4238 9.57974 12.2495 9.54498 12.0735 9.54515H12.0725C11.8971 9.5454 11.7235 9.58027 11.5615 9.64776C11.3996 9.71525 11.2526 9.81403 11.129 9.93844L9.19438 11.8671L8.33133 11.009C8.20857 10.8837 8.06211 10.784 7.90047 10.7158C7.73883 10.6476 7.56524 10.6122 7.38981 10.6118H7.38381C7.20763 10.6114 7.03313 10.6461 6.87048 10.7138C6.70782 10.7815 6.56024 10.8808 6.43633 11.006L4.69034 12.752V6.21703C4.6904 6.01914 4.76897 5.82936 4.9088 5.68934C5.04864 5.54932 5.23832 5.4705 5.43621 5.47019V5.47019ZM14.5634 14.5288H5.43621C5.29728 14.5279 5.16142 14.4879 5.0441 14.4134C4.92679 14.339 4.83273 14.2331 4.77265 14.1079L7.15637 11.7241C7.18602 11.6939 7.22141 11.6699 7.26046 11.6535C7.29952 11.6371 7.34146 11.6287 7.38381 11.6288C7.46615 11.6421 7.54393 11.6755 7.61024 11.7261L8.60937 12.7193C8.76436 12.8698 8.97137 12.9548 9.18739 12.9566C9.40341 12.9585 9.61184 12.877 9.76938 12.7292L11.8481 10.6575C11.8774 10.6273 11.9125 10.6034 11.9512 10.587C11.9899 10.5706 12.0315 10.5622 12.0736 10.5621C12.116 10.5624 12.1579 10.5711 12.1969 10.5876C12.2359 10.6042 12.2713 10.6282 12.301 10.6585L15.3093 13.6677V13.783C15.309 13.9807 15.2304 14.1703 15.0905 14.3101C14.9507 14.4499 14.7611 14.5286 14.5634 14.5288V14.5288Z" fill="#171723"/>
<path d="M7.55784 9.76869C7.90125 9.7686 8.23693 9.66668 8.52243 9.47583C8.80793 9.28498 9.03043 9.01376 9.16181 8.69647C9.29318 8.37917 9.32753 8.03005 9.26051 7.69324C9.19349 7.35643 9.02811 7.04705 8.78528 6.80422C8.54244 6.56139 8.23306 6.39601 7.89625 6.32899C7.55944 6.26196 7.21032 6.29631 6.89303 6.42769C6.57573 6.55906 6.30452 6.78156 6.11367 7.06706C5.92281 7.35256 5.8209 7.68824 5.8208 8.03166C5.82146 8.49214 6.00468 8.93358 6.33029 9.2592C6.65591 9.58481 7.09735 9.76803 7.55784 9.76869V9.76869ZM7.55784 7.31264C7.70015 7.31273 7.83924 7.35503 7.95752 7.43418C8.0758 7.51332 8.16795 7.62577 8.22232 7.75729C8.27669 7.8888 8.29084 8.03349 8.26297 8.17305C8.23511 8.31262 8.16649 8.44078 8.06579 8.54134C7.96508 8.6419 7.83682 8.71034 7.69722 8.73801C7.55762 8.76567 7.41295 8.75132 7.28151 8.69676C7.15007 8.6422 7.03776 8.5499 6.95878 8.43151C6.8798 8.31312 6.8377 8.17397 6.8378 8.03166C6.83814 7.84088 6.91414 7.65804 7.04913 7.52323C7.18412 7.38843 7.36707 7.31268 7.55784 7.31259V7.31264Z" fill="#171723"/>
<path d="M19.4913 17.0982H18.8464C19.136 16.6942 19.2921 16.2098 19.2927 15.7127V4.28736C19.2921 3.65039 19.0387 3.0397 18.5883 2.58929C18.1379 2.13888 17.5272 1.88555 16.8902 1.88489H3.10905C2.47208 1.88556 1.86139 2.13889 1.41099 2.58929C0.960586 3.0397 0.707257 3.65039 0.706592 4.28736V15.7127C0.707239 16.2098 0.863309 16.6942 1.15295 17.0982H0.508012C0.373149 17.0982 0.24381 17.1518 0.148448 17.2471C0.0530856 17.3425 -0.000488281 17.4718 -0.000488281 17.6067C-0.000488281 17.7416 0.0530856 17.8709 0.148448 17.9663C0.24381 18.0616 0.373149 18.1152 0.508012 18.1152H19.4913C19.6262 18.1152 19.7556 18.0616 19.8509 17.9663C19.9463 17.8709 19.9998 17.7416 19.9998 17.6067C19.9998 17.4718 19.9463 17.3425 19.8509 17.2471C19.7556 17.1518 19.6262 17.0982 19.4913 17.0982V17.0982ZM3.10909 17.0982C2.74179 17.0977 2.38968 16.9516 2.12996 16.6919C1.87024 16.4321 1.72412 16.08 1.72363 15.7127V4.28736C1.72412 3.92006 1.87024 3.56794 2.12996 3.30822C2.38968 3.0485 2.74179 2.90238 3.10909 2.90189H16.8902C17.2575 2.90237 17.6096 3.0485 17.8693 3.30822C18.1291 3.56794 18.2752 3.92006 18.2757 4.28736V15.7127C18.2752 16.08 18.1291 16.4321 17.8693 16.6919C17.6096 16.9516 17.2575 17.0977 16.8902 17.0982H3.10909Z" fill="#171723"/>
</g>
<defs>
<clipPath id="clip0_10317_146734">
<rect width="20" height="20" fill="white"/>
</clipPath>
</defs>
</svg>
