<svg width="20" height="20" viewBox="0 0 20 20" fill="none" xmlns="http://www.w3.org/2000/svg">
<g clip-path="url(#clip0_17245_64365)">
<path d="M6.75901 11.756C7.15934 11.756 7.48386 11.4315 7.48386 11.0312C7.48386 10.6309 7.15934 10.3063 6.75901 10.3063C6.35868 10.3063 6.03416 10.6309 6.03416 11.0312C6.03416 11.4315 6.35868 11.756 6.75901 11.756Z" fill="#171723"/>
<path d="M13.317 10.3063C12.9168 10.3063 12.5921 10.631 12.5921 11.0312C12.5921 11.4313 12.9168 11.756 13.317 11.756C13.7176 11.756 14.0423 11.4313 14.0423 11.0312C14.0423 10.631 13.7176 10.3063 13.317 10.3063Z" fill="#171723"/>
<path d="M13.3462 9.00159L12.813 7.82196C12.6313 7.41982 12.0922 7.14328 11.4785 7.13782L8.84124 7.11349C8.22759 7.10753 7.6775 7.37364 7.4799 7.77231L6.8747 8.99314H13.175C13.2331 8.99314 13.2896 8.99713 13.3462 9.00159Z" fill="#171723"/>
<path d="M18.7598 4.88035C19.441 4.88035 20.0005 4.32132 20.0005 3.64015V1.23026C20.0005 0.549102 19.441 0 18.7598 0H16.3604C15.6792 0 15.1197 0.549102 15.1197 1.23026V1.93178H4.88084V1.23026C4.88084 0.549102 4.33174 0 3.65058 0H1.24069C0.559524 0 0 0.549102 0 1.23026V3.64016C0 4.32132 0.559524 4.88036 1.24069 4.88036H1.93228V15.1197H1.24069C0.559524 15.1197 0 15.6688 0 16.3499V18.7593C0 19.4306 0.569957 20 1.24069 20H3.65058C4.33174 20 4.88084 19.441 4.88084 18.7593V18.0578H15.1196V18.7593C15.1196 19.441 15.6792 20 16.3603 20H18.7598C19.441 20 20.0005 19.441 20.0005 18.7593V16.3499C20.0005 15.6688 19.441 15.1197 18.7598 15.1197H18.0687V4.88035H18.7598ZM3.86406 18.7593C3.86406 18.8815 3.76228 18.9832 3.65058 18.9832H1.24069C1.12898 18.9832 1.01678 18.8715 1.01678 18.7593V16.3499C1.01678 16.2382 1.11906 16.1364 1.24069 16.1364H3.65058C3.76228 16.1364 3.86406 16.2382 3.86406 16.3499V18.7593ZM3.86406 3.64016C3.86406 3.76179 3.77222 3.86357 3.65058 3.86357H1.24069C1.11905 3.86357 1.01678 3.76179 1.01678 3.64016V1.23026C1.01678 1.10813 1.11906 1.01678 1.24069 1.01678H3.65058C3.76228 1.01678 3.86406 1.11856 3.86406 1.23026V3.64016ZM15.213 11.0312C15.213 11.7575 14.8322 12.393 14.2603 12.754V13.518C14.2603 13.7534 14.0696 13.9445 13.8338 13.9445H12.8776C12.6417 13.9445 12.4506 13.7533 12.4506 13.518V13.0692H7.70232V13.518C7.70232 13.7534 7.51117 13.9445 7.27585 13.9445H6.31914C6.08381 13.9445 5.89267 13.7533 5.89267 13.518V12.816C5.26364 12.469 4.83766 11.8002 4.83766 11.0312C4.83766 10.5054 5.03824 10.0283 5.36491 9.66686H5.20554C4.94887 9.66686 4.92653 9.43948 4.92653 9.43948C4.92653 9.43948 4.82872 8.96584 4.76567 8.662C4.70262 8.35717 5.04519 8.31943 5.04519 8.31943H6.25063L6.61355 7.49876C6.91789 6.81114 7.76389 6.3524 8.70868 6.36282L11.6458 6.39311C12.5906 6.40305 13.4197 6.87916 13.6997 7.57274L14.0026 8.32291H15.066C15.066 8.32291 15.4086 8.36114 15.3456 8.66499C15.2825 8.96933 15.1847 9.44247 15.1847 9.44247C15.1847 9.44247 15.1619 9.67035 14.9057 9.67035H14.6892C15.0139 10.0313 15.213 10.5074 15.213 11.0312ZM18.7598 16.1364C18.8819 16.1364 18.9837 16.2278 18.9837 16.3499V18.7593C18.9837 18.8815 18.8819 18.9832 18.7598 18.9832H16.3603C16.2382 18.9832 16.1364 18.8814 16.1364 18.7593V16.3499C16.1364 16.2278 16.2382 16.1364 16.3603 16.1364H18.7598ZM16.3603 3.86357C16.2382 3.86357 16.1364 3.76179 16.1364 3.64016V1.23026C16.1364 1.10813 16.2382 1.01678 16.3603 1.01678H18.7598C18.8819 1.01678 18.9837 1.10813 18.9837 1.23026V3.64016C18.9837 3.76179 18.8819 3.86357 18.7598 3.86357H16.3603Z" fill="#171723"/>
</g>
<defs>
<clipPath id="clip0_17245_64365">
<rect width="20.0005" height="20" fill="white"/>
</clipPath>
</defs>
</svg>
