<svg width="20" height="20" viewBox="0 0 20 20" fill="none" xmlns="http://www.w3.org/2000/svg">
<g clip-path="url(#clip0_10317_147156)">
<g clip-path="url(#clip1_10317_147156)">
<path d="M5.96818 9.87292L7.01546 12.3844H4.9209L5.96818 9.87292Z" fill="#171723"/>
<path d="M12.9233 9.5374C12.5541 9.28393 12.1088 9.16543 11.6624 9.20186H10.727V11.8353H11.6624C11.9003 11.8402 12.1373 11.8058 12.3641 11.7336C12.5488 11.6645 12.7207 11.5648 12.8724 11.4388C13.0025 11.3206 13.1094 11.1793 13.1876 11.0219C13.2572 10.8652 13.2919 10.6952 13.2893 10.5237C13.3045 10.3425 13.2795 10.1602 13.2163 9.98973C13.153 9.81927 13.053 9.66483 12.9233 9.5374ZM12.9233 9.5374C12.5541 9.28393 12.1088 9.16543 11.6624 9.20186H10.727V11.8353H11.6624C11.9003 11.8402 12.1373 11.8058 12.3641 11.7336C12.5488 11.6645 12.7207 11.5648 12.8724 11.4388C13.0025 11.3206 13.1094 11.1793 13.1876 11.0219C13.2572 10.8652 13.2919 10.6952 13.2893 10.5237C13.3045 10.3425 13.2795 10.1602 13.2163 9.98973C13.153 9.81927 13.053 9.66483 12.9233 9.5374ZM12.9233 9.5374C12.5541 9.28393 12.1088 9.16543 11.6624 9.20186H10.727V11.8353H11.6624C11.9003 11.8402 12.1373 11.8058 12.3641 11.7336C12.5488 11.6645 12.7207 11.5648 12.8724 11.4388C13.0025 11.3206 13.1094 11.1793 13.1876 11.0219C13.2572 10.8652 13.2919 10.6952 13.2893 10.5237C13.3045 10.3425 13.2795 10.1602 13.2163 9.98973C13.153 9.81927 13.053 9.66483 12.9233 9.5374ZM15.933 1.62398e-07H4.06712C3.53298 -0.000150797 3.00404 0.104945 2.51052 0.309284C2.01701 0.513622 1.56859 0.813198 1.1909 1.1909C0.813198 1.56859 0.513622 2.01701 0.309284 2.51052C0.104945 3.00404 -0.000150797 3.53298 1.62398e-07 4.06712H20.0001C19.9986 2.9889 19.5697 1.95525 18.8072 1.19283C18.0448 0.430408 17.0112 0.00144477 15.9329 1.62398e-07H15.933ZM12.9233 9.5374C12.5541 9.28393 12.1088 9.16543 11.6624 9.20186H10.727V11.8353H11.6624C11.9003 11.8402 12.1373 11.8058 12.3641 11.7336C12.5488 11.6645 12.7207 11.5648 12.8724 11.4388C13.0025 11.3206 13.1094 11.1793 13.1876 11.0219C13.2572 10.8652 13.2919 10.6952 13.2893 10.5237C13.3045 10.3425 13.2795 10.1602 13.2163 9.98973C13.153 9.81927 13.053 9.66483 12.9233 9.5374V9.5374ZM1.62398e-07 5.0839V15.9329C0.0014233 17.0112 0.430379 18.0448 1.1928 18.8073C1.95523 19.5697 2.98889 19.9986 4.06712 20.0001H15.9329C17.0106 19.9969 18.0433 19.5674 18.8053 18.8053C19.5674 18.0433 19.9969 17.0106 20.0001 15.9329V5.0839H1.62398e-07ZM8.94758 15.211C8.91217 15.2624 8.86523 15.3048 8.81051 15.3348C8.75579 15.3648 8.69482 15.3816 8.63245 15.3839H8.55111C8.45941 15.3746 8.37202 15.3403 8.29849 15.2847C8.22497 15.2291 8.16815 15.1544 8.13423 15.0687L7.37165 13.2385H4.57551L3.79259 15.0992C3.75312 15.1782 3.6941 15.2459 3.62114 15.2957C3.54818 15.3455 3.4637 15.3759 3.37571 15.3839C3.30899 15.3819 3.2435 15.3654 3.1838 15.3356C3.12409 15.3057 3.07161 15.2632 3.03001 15.211C2.99007 15.162 2.96272 15.1039 2.95031 15.0419C2.93791 14.9799 2.94083 14.9158 2.95883 14.8552L5.57196 8.58162C5.60211 8.51226 5.65183 8.45319 5.71504 8.41166C5.77825 8.37012 5.85219 8.34792 5.92783 8.34776C6.01447 8.347 6.09992 8.36801 6.17632 8.40887C6.25273 8.44973 6.31764 8.50914 6.3651 8.58162L8.97817 14.8552C9.00332 14.9123 9.0137 14.9748 9.00835 15.037C9.003 15.0992 8.9821 15.159 8.94756 15.211H8.94758ZM13.9705 11.3981C13.8482 11.6709 13.6637 11.9111 13.4317 12.0997C13.1977 12.2947 12.9285 12.4431 12.6387 12.5369C12.3238 12.6409 11.994 12.6924 11.6625 12.6894H10.727V14.9975C10.7282 15.0477 10.7194 15.0976 10.701 15.1444C10.6826 15.1911 10.6552 15.2337 10.6201 15.2697C10.5851 15.3056 10.5433 15.3343 10.497 15.3539C10.4508 15.3735 10.4012 15.3837 10.351 15.3839H10.239C10.1381 15.3818 10.0421 15.3401 9.97177 15.2678C9.9014 15.1955 9.8623 15.0984 9.86292 14.9975V8.72397C9.86439 8.62468 9.90449 8.52986 9.97469 8.45963C10.0449 8.3894 10.1397 8.34927 10.239 8.34776H11.6625C12.3088 8.30952 12.9483 8.49636 13.4724 8.87649C13.7075 9.0786 13.8924 9.33265 14.0124 9.61853C14.1324 9.90441 14.1842 10.2143 14.1638 10.5237C14.1687 10.8263 14.1025 11.1258 13.9706 11.3981H13.9705ZM16.1871 14.9975C16.1871 15.0483 16.1772 15.0985 16.1577 15.1454C16.1383 15.1923 16.1099 15.2349 16.074 15.2708C16.0381 15.3067 15.9954 15.3351 15.9485 15.3545C15.9017 15.3739 15.8514 15.3839 15.8006 15.3839H15.6991C15.6483 15.3839 15.5981 15.3739 15.5512 15.3545C15.5043 15.3351 15.4616 15.3067 15.4258 15.2708C15.3899 15.2349 15.3614 15.1923 15.342 15.1454C15.3225 15.0985 15.3126 15.0483 15.3126 14.9975V8.72397C15.3147 8.62307 15.3564 8.52705 15.4287 8.45665C15.501 8.38626 15.5982 8.34714 15.6991 8.34776H15.8006C15.9015 8.34715 15.9987 8.38626 16.071 8.45666C16.1433 8.52705 16.185 8.62307 16.1871 8.72397L16.1871 14.9975ZM11.6624 9.20186H10.7269V11.8353H11.6624C11.9003 11.8402 12.1373 11.8058 12.364 11.7336C12.5488 11.6645 12.7207 11.5648 12.8724 11.4388C13.0025 11.3206 13.1094 11.1793 13.1876 11.0219C13.2572 10.8652 13.2919 10.6952 13.2892 10.5237C13.3044 10.3425 13.2795 10.1602 13.2163 9.98973C13.153 9.81927 13.053 9.66483 12.9233 9.5374C12.5541 9.28394 12.1088 9.16545 11.6625 9.20186H11.6624ZM12.9233 9.5374C12.5541 9.28393 12.1088 9.16543 11.6624 9.20186H10.7269V11.8353H11.6624C11.9003 11.8402 12.1373 11.8058 12.364 11.7336C12.5488 11.6645 12.7207 11.5648 12.8724 11.4388C13.0025 11.3206 13.1094 11.1793 13.1876 11.0219C13.2572 10.8652 13.2919 10.6952 13.2892 10.5237C13.3044 10.3425 13.2795 10.1602 13.2163 9.98973C13.153 9.81927 13.053 9.66483 12.9233 9.5374H12.9233ZM12.9233 9.5374C12.5541 9.28393 12.1088 9.16543 11.6624 9.20186H10.7269V11.8353H11.6624C11.9003 11.8402 12.1373 11.8058 12.364 11.7336C12.5488 11.6645 12.7207 11.5648 12.8724 11.4388C13.0025 11.3206 13.1094 11.1793 13.1876 11.0219C13.2572 10.8652 13.2919 10.6952 13.2892 10.5237C13.3044 10.3425 13.2795 10.1602 13.2163 9.98973C13.153 9.81927 13.053 9.66483 12.9233 9.5374H12.9233Z" fill="#171723"/>
</g>
</g>
<defs>
<clipPath id="clip0_10317_147156">
<rect width="20" height="20" fill="white"/>
</clipPath>
<clipPath id="clip1_10317_147156">
<rect width="20" height="20" fill="white"/>
</clipPath>
</defs>
</svg>
