<svg width="20" height="20" viewBox="0 0 20 20" fill="none" xmlns="http://www.w3.org/2000/svg">
<g clip-path="url(#clip0_5313_36625)">
<path d="M10 0C8.02219 0 6.08879 0.58649 4.4443 1.6853C2.79981 2.78412 1.51809 4.3459 0.761209 6.17316C0.00433305 8.00042 -0.193701 10.0111 0.192152 11.9509C0.578004 13.8907 1.53041 15.6725 2.92894 17.0711C4.32746 18.4696 6.10929 19.422 8.0491 19.8078C9.98891 20.1937 11.9996 19.9957 13.8268 19.2388C15.6541 18.4819 17.2159 17.2002 18.3147 15.5557C19.4135 13.9112 20 11.9778 20 10C19.9982 7.34838 18.9441 4.80587 17.0691 2.93089C15.1941 1.05592 12.6516 0.00177636 10 0ZM14.5765 8.28235L10.1412 13.0471C10.0359 13.1585 9.89189 13.2255 9.73877 13.2343C9.58565 13.243 9.43498 13.1929 9.31765 13.0941L6.36471 10.4706C6.2477 10.3661 6.17701 10.2193 6.16818 10.0627C6.15936 9.90604 6.21312 9.7523 6.31765 9.63529C6.42218 9.51828 6.5689 9.44759 6.72555 9.43877C6.8822 9.42994 7.03594 9.48371 7.15294 9.58823L9.67059 11.8353L13.7176 7.48235C13.7699 7.42631 13.8328 7.38121 13.9026 7.34966C13.9725 7.31811 14.0479 7.30073 14.1245 7.29854C14.2011 7.29635 14.2774 7.30939 14.3489 7.33691C14.4204 7.36442 14.4858 7.40586 14.5412 7.45882C14.5992 7.50956 14.6463 7.57155 14.6796 7.64103C14.713 7.71051 14.7319 7.78603 14.7352 7.86303C14.7385 7.94002 14.7261 8.01689 14.6988 8.08897C14.6716 8.16104 14.6299 8.22683 14.5765 8.28235Z" fill="#171723"/>
</g>
<defs>
<clipPath id="clip0_5313_36625">
<rect width="20" height="20" fill="white"/>
</clipPath>
</defs>
</svg>
