<svg width="20" height="20" viewBox="0 0 20 20" fill="none" xmlns="http://www.w3.org/2000/svg">
<g clip-path="url(#clip0_15181_218787)">
<path d="M7.2311 0.000488281H2.01311C0.903023 0.000488281 0 0.893242 0 1.9907V7.14992C0 8.24681 0.903023 9.13958 2.01311 9.13958H7.2311C8.34119 9.13958 9.24421 8.24683 9.24421 7.14992V1.9907C9.24422 0.893242 8.34119 0.000488281 7.2311 0.000488281ZM8.06625 7.14992C8.06625 7.60483 7.69124 7.97502 7.2311 7.97502H2.01311C1.55297 7.97502 1.17796 7.60484 1.17796 7.14992V1.9907C1.17796 1.53523 1.55297 1.16505 2.01311 1.16505H7.2311C7.69124 1.16505 8.06625 1.53523 8.06625 1.9907V7.14992Z" fill="#171723"/>
<path d="M7.2311 10.8604H2.01311C0.903023 10.8604 0 11.7531 0 12.8506V18.0098C0 19.1072 0.903023 20 2.01311 20H7.2311C8.34119 20 9.24421 19.1072 9.24421 18.0098V12.8506C9.24421 11.7531 8.34119 10.8604 7.2311 10.8604ZM8.06625 18.0098C8.06625 18.4647 7.69124 18.8354 7.2311 18.8354H2.01311C1.55297 18.8354 1.17796 18.4647 1.17796 18.0098V12.8506C1.17796 12.3951 1.55297 12.0249 2.01311 12.0249H7.2311C7.69124 12.0249 8.06625 12.3951 8.06625 12.8506V18.0098Z" fill="#171723"/>
<path d="M17.9869 10.8604H12.7677C11.6577 10.8604 10.7546 11.7531 10.7546 12.8506V18.0098C10.7546 19.1072 11.6577 20 12.7677 20H17.9869C19.097 20 20 19.1072 20 18.0098V12.8506C20 11.7531 19.097 10.8604 17.9869 10.8604ZM18.822 18.0098C18.822 18.4647 18.447 18.8354 17.9869 18.8354H12.7677C12.3076 18.8354 11.9326 18.4647 11.9326 18.0098V12.8506C11.9326 12.3951 12.3076 12.0249 12.7677 12.0249H17.9869C18.447 12.0249 18.822 12.3951 18.822 12.8506V18.0098Z" fill="#171723"/>
<path d="M19.6526 3.98783H15.9663V0.343453C15.9663 0.153524 15.8104 0 15.6189 0H15.1357C14.9442 0 14.7883 0.153536 14.7883 0.343453V3.98782H11.102C10.9099 3.98782 10.7546 4.14192 10.7546 4.33128V4.80893C10.7546 4.99829 10.9099 5.15239 11.102 5.15239H14.7883V8.79676C14.7883 8.98668 14.9442 9.14021 15.1357 9.14021H15.6189C15.8104 9.14021 15.9663 8.98667 15.9663 8.79676V5.15239H19.6526C19.8441 5.15239 20 4.99829 20 4.80893V4.33128C20 4.14192 19.8441 3.98783 19.6526 3.98783Z" fill="#171723"/>
</g>
<defs>
<clipPath id="clip0_15181_218787">
<rect width="20" height="20" fill="white"/>
</clipPath>
</defs>
</svg>
