<svg width="20" height="20" viewBox="0 0 20 20" fill="none" xmlns="http://www.w3.org/2000/svg">
<g clip-path="url(#clip0_18470_1656)">
<mask id="mask0_18470_1656" style="mask-type:luminance" maskUnits="userSpaceOnUse" x="0" y="0" width="20" height="20">
<path d="M20 0H0V20H20V0Z" fill="white"/>
</mask>
<g mask="url(#mask0_18470_1656)">
<path d="M19.6667 4H16V0.333333C16 0.166667 15.8333 0 15.6667 0H15.1667C15 0 14.8333 0.166667 14.8333 0.333333V4H11.1667C11 4 10.8333 4.16667 10.8333 4.33333V4.83333C10.8333 5 11 5.16667 11.1667 5.16667H14.8333V8.83333C14.8333 9 15 9.16667 15.1667 9.16667H15.6667C15.8333 9.16667 16 9 16 8.83333V5.16667H19.6667C19.8333 5.16667 20 5 20 4.83333V4.33333C20 4.16667 19.8333 4 19.6667 4Z" fill="#171723"/>
</g>
<path d="M7.25 10.8333H2C0.916667 10.8333 0 11.75 0 12.8333V18C0 19.0833 0.916667 20 2 20H7.25C8.33333 20 9.25 19.0833 9.25 18V12.8333C9.25 11.75 8.33333 10.8333 7.25 10.8333Z" fill="#171723"/>
<path d="M7.25 0H2C0.916667 0 0 0.916667 0 2V7.16667C0 8.25 0.916667 9.16667 2 9.16667H7.25C8.33333 9.16667 9.25 8.25 9.25 7.16667V2C9.25 0.916667 8.33333 0 7.25 0Z" fill="#171723"/>
<path d="M18 10.8333H12.75C11.6667 10.8333 10.75 11.75 10.75 12.8333V18C10.75 19.0833 11.6667 20 12.75 20H18C19.0833 20 20 19.0833 20 18V12.8333C20 11.75 19.0833 10.8333 18 10.8333Z" fill="#171723"/>
</g>
<defs>
<clipPath id="clip0_18470_1656">
<rect width="20" height="20" fill="white"/>
</clipPath>
</defs>
</svg>
