<svg width="20" height="20" viewBox="0 0 20 20" fill="none" xmlns="http://www.w3.org/2000/svg">
<g clip-path="url(#clip0_10317_146836)">
<g clip-path="url(#clip1_10317_146836)">
<path d="M18.8064 2.23541H11.1502C10.8326 2.23885 10.5291 2.36736 10.3057 2.59308C10.0822 2.81879 9.95679 3.1235 9.95654 3.44111V16.559C9.95666 16.8464 10.0593 17.1242 10.2459 17.3427C10.27 17.3668 10.2821 17.391 10.3062 17.415C10.5301 17.6388 10.8336 17.7646 11.1502 17.7647H18.8064C19.124 17.7613 19.4274 17.6327 19.6509 17.407C19.8743 17.1813 19.9998 16.8766 20.0001 16.559V3.44111C19.9998 3.1235 19.8743 2.81881 19.6509 2.5931C19.4274 2.3674 19.124 2.23888 18.8064 2.23541V2.23541ZM12.4885 6.28652C12.6087 6.18002 12.7661 6.12533 12.9265 6.13436C13.0868 6.14339 13.2371 6.2154 13.3446 6.33473L14.2851 7.38368L16.6241 4.91202C16.6784 4.85377 16.7437 4.8069 16.8163 4.77413C16.8889 4.74135 16.9673 4.72332 17.0469 4.72109C17.1265 4.71885 17.2058 4.73246 17.2801 4.76111C17.3544 4.78977 17.4223 4.8329 17.4798 4.88801C17.5373 4.94312 17.5832 5.0091 17.615 5.08212C17.6468 5.15515 17.6638 5.23376 17.6649 5.3134C17.6661 5.39303 17.6514 5.4721 17.6217 5.54602C17.5921 5.61993 17.548 5.68721 17.4921 5.74395L14.7672 8.6135L14.719 8.67377L14.6707 8.72205C14.6231 8.76113 14.5704 8.79356 14.5141 8.81845C14.49 8.83051 14.4658 8.83051 14.4538 8.84259C14.3944 8.85653 14.3339 8.86461 14.273 8.86672C14.1211 8.85897 13.9763 8.79939 13.863 8.69791C13.8509 8.69791 13.8388 8.68583 13.8268 8.67377L12.4524 7.1426C12.3442 7.02404 12.2873 6.8675 12.294 6.70713C12.3008 6.54676 12.3707 6.39556 12.4885 6.28652V6.28652ZM18.505 14.7505H11.4516C11.3722 14.7513 11.2935 14.7362 11.22 14.7062C11.1465 14.6762 11.0797 14.6318 11.0236 14.5757C10.9674 14.5195 10.9231 14.4528 10.8931 14.3793C10.863 14.3058 10.848 14.227 10.8488 14.1477C10.8492 13.9879 10.9129 13.8348 11.0258 13.7219C11.1388 13.6089 11.2919 13.5453 11.4516 13.5448H18.505C18.6648 13.5453 18.8178 13.609 18.9308 13.7219C19.0437 13.8349 19.1074 13.9879 19.1079 14.1477C19.1087 14.227 19.0936 14.3058 19.0636 14.3793C19.0335 14.4528 18.9892 14.5195 18.933 14.5757C18.8769 14.6318 18.8101 14.6762 18.7366 14.7062C18.6631 14.7362 18.5844 14.7513 18.505 14.7505H18.505ZM18.505 11.266H11.4516C11.2919 11.2656 11.1388 11.2019 11.0259 11.089C10.9129 10.976 10.8492 10.8229 10.8488 10.6632C10.848 10.5838 10.863 10.5051 10.8931 10.4316C10.9231 10.3581 10.9674 10.2913 11.0236 10.2352C11.0797 10.179 11.1465 10.1346 11.22 10.1046C11.2935 10.0746 11.3722 10.0596 11.4516 10.0603H18.505C18.5844 10.0596 18.6632 10.0746 18.7367 10.1047C18.8101 10.1347 18.8769 10.1791 18.933 10.2352C18.9892 10.2913 19.0336 10.3581 19.0636 10.4316C19.0936 10.5051 19.1087 10.5838 19.1079 10.6632C19.1074 10.8229 19.0437 10.976 18.9308 11.0889C18.8178 11.2019 18.6647 11.2655 18.505 11.266L18.505 11.266ZM18.8064 2.23541H11.1502C10.8326 2.23885 10.5291 2.36736 10.3057 2.59308C10.0822 2.81879 9.95679 3.1235 9.95654 3.44111V16.559C9.95666 16.8464 10.0593 17.1242 10.2459 17.3427C10.27 17.3668 10.2821 17.391 10.3062 17.415C10.5301 17.6388 10.8336 17.7646 11.1502 17.7647H18.8064C19.124 17.7613 19.4274 17.6327 19.6509 17.407C19.8743 17.1813 19.9998 16.8766 20.0001 16.559V3.44111C19.9998 3.1235 19.8743 2.81881 19.6509 2.5931C19.4274 2.3674 19.124 2.23888 18.8064 2.23541V2.23541ZM12.4885 6.28652C12.6087 6.18002 12.7661 6.12533 12.9265 6.13436C13.0868 6.14339 13.2371 6.2154 13.3446 6.33473L14.2851 7.38368L16.6241 4.91202C16.6784 4.85377 16.7437 4.8069 16.8163 4.77413C16.8889 4.74135 16.9673 4.72332 17.0469 4.72109C17.1265 4.71885 17.2058 4.73246 17.2801 4.76111C17.3544 4.78977 17.4223 4.8329 17.4798 4.88801C17.5373 4.94312 17.5832 5.0091 17.615 5.08212C17.6468 5.15515 17.6638 5.23376 17.6649 5.3134C17.6661 5.39303 17.6514 5.4721 17.6217 5.54602C17.5921 5.61993 17.548 5.68721 17.4921 5.74395L14.7672 8.6135L14.719 8.67377L14.6707 8.72205C14.6231 8.76113 14.5704 8.79356 14.5141 8.81845C14.49 8.83051 14.4658 8.83051 14.4538 8.84259C14.3944 8.85653 14.3339 8.86461 14.273 8.86672C14.1211 8.85897 13.9763 8.79939 13.863 8.69791C13.8509 8.69791 13.8388 8.68583 13.8268 8.67377L12.4524 7.1426C12.3442 7.02404 12.2873 6.8675 12.294 6.70713C12.3008 6.54676 12.3707 6.39556 12.4885 6.28652V6.28652ZM18.505 14.7505H11.4516C11.3722 14.7513 11.2935 14.7362 11.22 14.7062C11.1465 14.6762 11.0797 14.6318 11.0236 14.5757C10.9674 14.5195 10.9231 14.4528 10.8931 14.3793C10.863 14.3058 10.848 14.227 10.8488 14.1477C10.8492 13.9879 10.9129 13.8348 11.0258 13.7219C11.1388 13.6089 11.2919 13.5453 11.4516 13.5448H18.505C18.6648 13.5453 18.8178 13.609 18.9308 13.7219C19.0437 13.8349 19.1074 13.9879 19.1079 14.1477C19.1087 14.227 19.0936 14.3058 19.0636 14.3793C19.0335 14.4528 18.9892 14.5195 18.933 14.5757C18.8769 14.6318 18.8101 14.6762 18.7366 14.7062C18.6631 14.7362 18.5844 14.7513 18.505 14.7505H18.505ZM18.505 11.266H11.4516C11.2919 11.2656 11.1388 11.2019 11.0259 11.089C10.9129 10.976 10.8492 10.8229 10.8488 10.6632C10.848 10.5838 10.863 10.5051 10.8931 10.4316C10.9231 10.3581 10.9674 10.2913 11.0236 10.2352C11.0797 10.179 11.1465 10.1346 11.22 10.1046C11.2935 10.0746 11.3722 10.0596 11.4516 10.0603H18.505C18.5844 10.0596 18.6632 10.0746 18.7367 10.1047C18.8101 10.1347 18.8769 10.1791 18.933 10.2352C18.9892 10.2913 19.0336 10.3581 19.0636 10.4316C19.0936 10.5051 19.1087 10.5838 19.1079 10.6632C19.1074 10.8229 19.0437 10.976 18.9308 11.0889C18.8178 11.2019 18.6647 11.2655 18.505 11.266L18.505 11.266ZM18.8064 2.23541H11.1502C10.8326 2.23885 10.5291 2.36736 10.3057 2.59308C10.0822 2.81879 9.95679 3.1235 9.95654 3.44111V16.559C9.95666 16.8464 10.0593 17.1242 10.2459 17.3427C10.27 17.3668 10.2821 17.391 10.3062 17.415C10.5301 17.6388 10.8336 17.7646 11.1502 17.7647H18.8064C19.124 17.7613 19.4274 17.6327 19.6509 17.407C19.8743 17.1813 19.9998 16.8766 20.0001 16.559V3.44111C19.9998 3.1235 19.8743 2.81881 19.6509 2.5931C19.4274 2.3674 19.124 2.23888 18.8064 2.23541V2.23541ZM12.4885 6.28652C12.6087 6.18002 12.7661 6.12533 12.9265 6.13436C13.0868 6.14339 13.2371 6.2154 13.3446 6.33473L14.2851 7.38368L16.6241 4.91202C16.6784 4.85377 16.7437 4.8069 16.8163 4.77413C16.8889 4.74135 16.9673 4.72332 17.0469 4.72109C17.1265 4.71885 17.2058 4.73246 17.2801 4.76111C17.3544 4.78977 17.4223 4.8329 17.4798 4.88801C17.5373 4.94312 17.5832 5.0091 17.615 5.08212C17.6468 5.15515 17.6638 5.23376 17.6649 5.3134C17.6661 5.39303 17.6514 5.4721 17.6217 5.54602C17.5921 5.61993 17.548 5.68721 17.4921 5.74395L14.7672 8.6135L14.719 8.67377L14.6707 8.72205C14.6231 8.76113 14.5704 8.79356 14.5141 8.81845C14.49 8.83051 14.4658 8.83051 14.4538 8.84259C14.3944 8.85653 14.3339 8.86461 14.273 8.86672C14.1211 8.85897 13.9763 8.79939 13.863 8.69791C13.8509 8.69791 13.8388 8.68583 13.8268 8.67377L12.4524 7.1426C12.3442 7.02404 12.2873 6.8675 12.294 6.70713C12.3008 6.54676 12.3707 6.39556 12.4885 6.28652V6.28652ZM18.505 14.7505H11.4516C11.3722 14.7513 11.2935 14.7362 11.22 14.7062C11.1465 14.6762 11.0797 14.6318 11.0236 14.5757C10.9674 14.5195 10.9231 14.4528 10.8931 14.3793C10.863 14.3058 10.848 14.227 10.8488 14.1477C10.8492 13.9879 10.9129 13.8348 11.0258 13.7219C11.1388 13.6089 11.2919 13.5453 11.4516 13.5448H18.505C18.6648 13.5453 18.8178 13.609 18.9308 13.7219C19.0437 13.8349 19.1074 13.9879 19.1079 14.1477C19.1087 14.227 19.0936 14.3058 19.0636 14.3793C19.0335 14.4528 18.9892 14.5195 18.933 14.5757C18.8769 14.6318 18.8101 14.6762 18.7366 14.7062C18.6631 14.7362 18.5844 14.7513 18.505 14.7505H18.505ZM18.505 11.266H11.4516C11.2919 11.2656 11.1388 11.2019 11.0259 11.089C10.9129 10.976 10.8492 10.8229 10.8488 10.6632C10.848 10.5838 10.863 10.5051 10.8931 10.4316C10.9231 10.3581 10.9674 10.2913 11.0236 10.2352C11.0797 10.179 11.1465 10.1346 11.22 10.1046C11.2935 10.0746 11.3722 10.0596 11.4516 10.0603H18.505C18.5844 10.0596 18.6632 10.0746 18.7367 10.1047C18.8101 10.1347 18.8769 10.1791 18.933 10.2352C18.9892 10.2913 19.0336 10.3581 19.0636 10.4316C19.0936 10.5051 19.1087 10.5838 19.1079 10.6632C19.1074 10.8229 19.0437 10.976 18.9308 11.0889C18.8178 11.2019 18.6647 11.2655 18.505 11.266L18.505 11.266ZM18.8064 2.23541H11.1502C10.8326 2.23885 10.5291 2.36736 10.3057 2.59308C10.0822 2.81879 9.95679 3.1235 9.95654 3.44111V16.559C9.95666 16.8464 10.0593 17.1242 10.2459 17.3427C10.27 17.3668 10.2821 17.391 10.3062 17.415C10.5301 17.6388 10.8336 17.7646 11.1502 17.7647H18.8064C19.124 17.7613 19.4274 17.6327 19.6509 17.407C19.8743 17.1813 19.9998 16.8766 20.0001 16.559V3.44111C19.9998 3.1235 19.8743 2.81881 19.6509 2.5931C19.4274 2.3674 19.124 2.23888 18.8064 2.23541V2.23541ZM12.4885 6.28652C12.6087 6.18002 12.7661 6.12533 12.9265 6.13436C13.0868 6.14339 13.2371 6.2154 13.3446 6.33473L14.2851 7.38368L16.6241 4.91202C16.6784 4.85377 16.7437 4.8069 16.8163 4.77413C16.8889 4.74135 16.9673 4.72332 17.0469 4.72109C17.1265 4.71885 17.2058 4.73246 17.2801 4.76111C17.3544 4.78977 17.4223 4.8329 17.4798 4.88801C17.5373 4.94312 17.5832 5.0091 17.615 5.08212C17.6468 5.15515 17.6638 5.23376 17.6649 5.3134C17.6661 5.39303 17.6514 5.4721 17.6217 5.54602C17.5921 5.61993 17.548 5.68721 17.4921 5.74395L14.7672 8.6135L14.719 8.67377L14.6707 8.72205C14.6231 8.76113 14.5704 8.79356 14.5141 8.81845C14.49 8.83051 14.4658 8.83051 14.4538 8.84259C14.3944 8.85653 14.3339 8.86461 14.273 8.86672C14.1211 8.85897 13.9763 8.79939 13.863 8.69791C13.8509 8.69791 13.8388 8.68583 13.8268 8.67377L12.4524 7.1426C12.3442 7.02404 12.2873 6.8675 12.294 6.70713C12.3008 6.54676 12.3707 6.39556 12.4885 6.28652V6.28652ZM18.505 14.7505H11.4516C11.3722 14.7513 11.2935 14.7362 11.22 14.7062C11.1465 14.6762 11.0797 14.6318 11.0236 14.5757C10.9674 14.5195 10.9231 14.4528 10.8931 14.3793C10.863 14.3058 10.848 14.227 10.8488 14.1477C10.8492 13.9879 10.9129 13.8348 11.0258 13.7219C11.1388 13.6089 11.2919 13.5453 11.4516 13.5448H18.505C18.6648 13.5453 18.8178 13.609 18.9308 13.7219C19.0437 13.8349 19.1074 13.9879 19.1079 14.1477C19.1087 14.227 19.0936 14.3058 19.0636 14.3793C19.0335 14.4528 18.9892 14.5195 18.933 14.5757C18.8769 14.6318 18.8101 14.6762 18.7366 14.7062C18.6631 14.7362 18.5844 14.7513 18.505 14.7505H18.505ZM18.505 11.266H11.4516C11.2919 11.2656 11.1388 11.2019 11.0259 11.089C10.9129 10.976 10.8492 10.8229 10.8488 10.6632C10.848 10.5838 10.863 10.5051 10.8931 10.4316C10.9231 10.3581 10.9674 10.2913 11.0236 10.2352C11.0797 10.179 11.1465 10.1346 11.22 10.1046C11.2935 10.0746 11.3722 10.0596 11.4516 10.0603H18.505C18.5844 10.0596 18.6632 10.0746 18.7367 10.1047C18.8101 10.1347 18.8769 10.1791 18.933 10.2352C18.9892 10.2913 19.0336 10.3581 19.0636 10.4316C19.0936 10.5051 19.1087 10.5838 19.1079 10.6632C19.1074 10.8229 19.0437 10.976 18.9308 11.0889C18.8178 11.2019 18.6647 11.2655 18.505 11.266L18.505 11.266ZM18.8064 2.23541H11.1502C10.8326 2.23885 10.5291 2.36736 10.3057 2.59308C10.0822 2.81879 9.95679 3.1235 9.95654 3.44111V16.559C9.95666 16.8464 10.0593 17.1242 10.2459 17.3427C10.27 17.3668 10.2821 17.391 10.3062 17.415C10.5301 17.6388 10.8336 17.7646 11.1502 17.7647H18.8064C19.124 17.7613 19.4274 17.6327 19.6509 17.407C19.8743 17.1813 19.9998 16.8766 20.0001 16.559V3.44111C19.9998 3.1235 19.8743 2.81881 19.6509 2.5931C19.4274 2.3674 19.124 2.23888 18.8064 2.23541V2.23541ZM12.4885 6.28652C12.6087 6.18002 12.7661 6.12533 12.9265 6.13436C13.0868 6.14339 13.2371 6.2154 13.3446 6.33473L14.2851 7.38368L16.6241 4.91202C16.6784 4.85377 16.7437 4.8069 16.8163 4.77413C16.8889 4.74135 16.9673 4.72332 17.0469 4.72109C17.1265 4.71885 17.2058 4.73246 17.2801 4.76111C17.3544 4.78977 17.4223 4.8329 17.4798 4.88801C17.5373 4.94312 17.5832 5.0091 17.615 5.08212C17.6468 5.15515 17.6638 5.23376 17.6649 5.3134C17.6661 5.39303 17.6514 5.4721 17.6217 5.54602C17.5921 5.61993 17.548 5.68721 17.4921 5.74395L14.7672 8.6135L14.719 8.67377L14.6707 8.72205C14.6231 8.76113 14.5704 8.79356 14.5141 8.81845C14.49 8.83051 14.4658 8.83051 14.4538 8.84259C14.3944 8.85653 14.3339 8.86461 14.273 8.86672C14.1211 8.85897 13.9763 8.79939 13.863 8.69791C13.8509 8.69791 13.8388 8.68583 13.8268 8.67377L12.4524 7.1426C12.3442 7.02404 12.2873 6.8675 12.294 6.70713C12.3008 6.54676 12.3707 6.39556 12.4885 6.28652V6.28652ZM18.505 14.7505H11.4516C11.3722 14.7513 11.2935 14.7362 11.22 14.7062C11.1465 14.6762 11.0797 14.6318 11.0236 14.5757C10.9674 14.5195 10.9231 14.4528 10.8931 14.3793C10.863 14.3058 10.848 14.227 10.8488 14.1477C10.8492 13.9879 10.9129 13.8348 11.0258 13.7219C11.1388 13.6089 11.2919 13.5453 11.4516 13.5448H18.505C18.6648 13.5453 18.8178 13.609 18.9308 13.7219C19.0437 13.8349 19.1074 13.9879 19.1079 14.1477C19.1087 14.227 19.0936 14.3058 19.0636 14.3793C19.0335 14.4528 18.9892 14.5195 18.933 14.5757C18.8769 14.6318 18.8101 14.6762 18.7366 14.7062C18.6631 14.7362 18.5844 14.7513 18.505 14.7505H18.505ZM18.505 11.266H11.4516C11.2919 11.2656 11.1388 11.2019 11.0259 11.089C10.9129 10.976 10.8492 10.8229 10.8488 10.6632C10.848 10.5838 10.863 10.5051 10.8931 10.4316C10.9231 10.3581 10.9674 10.2913 11.0236 10.2352C11.0797 10.179 11.1465 10.1346 11.22 10.1046C11.2935 10.0746 11.3722 10.0596 11.4516 10.0603H18.505C18.5844 10.0596 18.6632 10.0746 18.7367 10.1047C18.8101 10.1347 18.8769 10.1791 18.933 10.2352C18.9892 10.2913 19.0336 10.3581 19.0636 10.4316C19.0936 10.5051 19.1087 10.5838 19.1079 10.6632C19.1074 10.8229 19.0437 10.976 18.9308 11.0889C18.8178 11.2019 18.6647 11.2655 18.505 11.266L18.505 11.266Z" fill="#171723"/>
<path d="M8.75338 5.301C8.75339 5.90733 8.5736 6.50005 8.23675 7.00421C7.8999 7.50836 7.42111 7.9013 6.86094 8.13334C6.30077 8.36538 5.68436 8.4261 5.08968 8.30782C4.495 8.18954 3.94874 7.89757 3.52 7.46883C3.09125 7.04009 2.79927 6.49384 2.68098 5.89916C2.56269 5.30448 2.6234 4.68808 2.85543 4.1279C3.08746 3.56772 3.48039 3.08893 3.98454 2.75207C4.48869 2.41521 5.0814 2.23541 5.68774 2.23541C6.50031 2.23696 7.27916 2.56044 7.85374 3.13501C8.42832 3.70958 8.75181 4.48843 8.75338 5.301Z" fill="#171723"/>
<path d="M9.26764 17.7646H1.76382C1.29478 17.7629 0.845606 17.575 0.514912 17.2424C0.184218 16.9098 -0.000969983 16.4595 3.82118e-06 15.9905V15.1034C0.00355656 13.5959 0.60396 12.1513 1.66988 11.0854C2.73581 10.0195 4.18048 9.41908 5.68791 9.41555H5.72956C5.91103 9.40976 6.09265 9.42024 6.27225 9.44686C7.22708 9.5421 8.13889 9.89168 8.91265 10.4592V16.554C8.91153 16.9834 9.03482 17.4039 9.26764 17.7646V17.7646Z" fill="#171723"/>
</g>
</g>
<defs>
<clipPath id="clip0_10317_146836">
<rect width="20" height="20" fill="white"/>
</clipPath>
<clipPath id="clip1_10317_146836">
<rect width="20" height="20" fill="white"/>
</clipPath>
</defs>
</svg>
