<svg width="20" height="20" viewBox="0 0 20 20" fill="none" xmlns="http://www.w3.org/2000/svg">
<g clip-path="url(#clip0_10317_146829)">
<path d="M17.9696 2.43146H11.5201C10.9819 2.43208 10.4658 2.6462 10.0852 3.02682C9.70458 3.40745 9.49048 3.9235 9.48986 4.46178V11.1577C8.60902 10.1992 7.4091 9.59462 6.11468 9.45702C5.9483 9.43721 5.78075 9.429 5.61323 9.43243C5.60417 9.43193 5.59641 9.42721 5.58729 9.42721C5.58027 9.42721 5.5745 9.43089 5.56754 9.43119H5.54652C4.81826 9.43073 4.09705 9.57378 3.4241 9.85217C2.75115 10.1306 2.13966 10.5388 1.62456 11.0536C1.10947 11.5685 0.700868 12.1797 0.422118 12.8525C0.143369 13.5253 -6.86633e-05 14.2465 3.64658e-06 14.9747V15.8389C-0.000935236 16.2959 0.17946 16.7347 0.501612 17.0589C0.823763 17.3831 1.26136 17.5662 1.7184 17.5682H9.37763C9.74482 17.5648 10.1011 17.4427 10.393 17.2199C10.7262 17.4439 11.1186 17.5635 11.5201 17.5632H17.9696C18.5078 17.5626 19.0239 17.3485 19.4045 16.9679C19.7851 16.5873 19.9992 16.0712 19.9998 15.5329V4.46178C19.9992 3.9235 19.7851 3.40745 19.4045 3.02682C19.0239 2.6462 18.5078 2.43209 17.9696 2.43146V2.43146ZM1.7184 16.551C1.53107 16.5492 1.35208 16.4733 1.22063 16.3398C1.08919 16.2063 1.01601 16.0262 1.01713 15.8388V14.9747C1.01703 14.378 1.13494 13.7871 1.36405 13.2362C1.59317 12.6852 1.92898 12.185 2.35216 11.7643C2.77534 11.3436 3.27753 11.0108 3.82984 10.7849C4.38215 10.5591 4.97367 10.4446 5.57036 10.4483H5.60413C5.73356 10.4442 5.8631 10.4505 5.99151 10.4671C6.72913 10.5495 7.4348 10.8135 8.04533 11.2355C8.65587 11.6576 9.15219 12.2244 9.48986 12.8854V15.5329C9.49207 15.854 9.5714 16.1699 9.72118 16.454C9.61722 16.516 9.4987 16.5495 9.37763 16.5511L1.7184 16.551ZM18.9827 15.5329C18.9823 15.8014 18.8754 16.0589 18.6855 16.2488C18.4956 16.4387 18.2381 16.5456 17.9696 16.546H11.5201C11.2516 16.5456 10.9941 16.4387 10.8042 16.2488C10.6143 16.0589 10.5074 15.8014 10.507 15.5329V4.46178C10.5074 4.19321 10.6143 3.93578 10.8042 3.74587C10.9941 3.55597 11.2516 3.44908 11.5201 3.44863H17.9696C18.2381 3.44908 18.4956 3.55597 18.6855 3.74587C18.8754 3.93578 18.9823 4.19322 18.9827 4.46178V15.5329Z" fill="#171723"/>
<path d="M5.54558 8.83418C6.17879 8.83438 6.79784 8.64679 7.32443 8.29514C7.85102 7.94349 8.26151 7.44357 8.50396 6.85862C8.74642 6.27366 8.80996 5.62995 8.68654 5.00888C8.56313 4.38781 8.25831 3.81729 7.81063 3.36947C7.36295 2.92165 6.79253 2.61665 6.1715 2.49305C5.55047 2.36944 4.90673 2.43278 4.3217 2.67505C3.73667 2.91733 3.23663 3.32765 2.88481 3.85414C2.533 4.38062 2.34521 4.99961 2.34521 5.63282C2.34623 6.48139 2.68371 7.29493 3.28364 7.89505C3.88358 8.49517 4.69701 8.8329 5.54558 8.83418ZM5.54558 3.44858C5.97762 3.44839 6.40002 3.57632 6.75935 3.81621C7.11867 4.0561 7.39879 4.39716 7.56426 4.79626C7.72973 5.19536 7.77313 5.63457 7.68896 6.05833C7.6048 6.4821 7.39685 6.87138 7.09142 7.17695C6.78598 7.48253 6.39679 7.69065 5.97307 7.77501C5.54934 7.85937 5.11011 7.81618 4.71094 7.65089C4.31176 7.4856 3.97057 7.20564 3.73052 6.84642C3.49047 6.4872 3.36234 6.06486 3.36234 5.63282C3.36284 5.05385 3.59299 4.49872 4.00229 4.08923C4.41159 3.67975 4.96661 3.44935 5.54558 3.44858V3.44858Z" fill="#171723"/>
<path d="M17.7246 10.044H11.7659C11.631 10.044 11.5017 10.0976 11.4063 10.193C11.3109 10.2883 11.2573 10.4177 11.2573 10.5526C11.2573 10.6874 11.3109 10.8168 11.4063 10.9122C11.5017 11.0076 11.631 11.0611 11.7659 11.0611H17.7246C17.8595 11.0611 17.9888 11.0076 18.0842 10.9122C18.1796 10.8168 18.2332 10.6874 18.2332 10.5526C18.2332 10.4177 18.1796 10.2883 18.0842 10.193C17.9888 10.0976 17.8595 10.044 17.7246 10.044Z" fill="#171723"/>
<path d="M17.7246 12.9911H11.7659C11.631 12.9911 11.5017 13.0447 11.4063 13.14C11.3109 13.2354 11.2573 13.3648 11.2573 13.4997C11.2573 13.6345 11.3109 13.7639 11.4063 13.8593C11.5017 13.9546 11.631 14.0082 11.7659 14.0082H17.7246C17.8595 14.0082 17.9888 13.9546 18.0842 13.8593C18.1796 13.7639 18.2332 13.6345 18.2332 13.4997C18.2332 13.3648 18.1796 13.2354 18.0842 13.14C17.9888 13.0447 17.8595 12.9911 17.7246 12.9911Z" fill="#171723"/>
<path d="M13.7752 8.87493C13.78 8.88027 13.7869 8.88181 13.7919 8.88691C13.7965 8.89169 13.7981 8.8981 13.8031 8.90274C13.832 8.92632 13.8636 8.9465 13.8972 8.96289C13.9169 8.9776 13.9378 8.99088 13.9594 9.00263C14.0194 9.02867 14.084 9.04233 14.1494 9.04278C14.2147 9.04322 14.2795 9.03045 14.3398 9.00523C14.3597 8.99485 14.3789 8.98318 14.3972 8.97028C14.4314 8.95449 14.4636 8.93482 14.4934 8.91168C14.4989 8.90665 14.501 8.89947 14.5063 8.89423C14.5108 8.88982 14.5169 8.88845 14.5212 8.88387L16.8703 6.40858C16.9627 6.31078 17.0125 6.18034 17.0088 6.04587C17.0051 5.9114 16.9482 5.78388 16.8506 5.69129C16.753 5.5987 16.6227 5.5486 16.4882 5.55198C16.3537 5.55536 16.2261 5.61194 16.1333 5.70931L14.1624 7.78597L13.366 6.90325C13.2756 6.80332 13.1492 6.74336 13.0146 6.73654C12.8801 6.72973 12.7483 6.77662 12.6482 6.86692C12.5482 6.95721 12.4881 7.08352 12.4811 7.21809C12.4742 7.35267 12.5209 7.48451 12.6111 7.58464L13.7752 8.87493Z" fill="#171723"/>
</g>
<defs>
<clipPath id="clip0_10317_146829">
<rect width="20" height="20" fill="white"/>
</clipPath>
</defs>
</svg>
