<svg width="20" height="20" viewBox="0 0 20 20" fill="none" xmlns="http://www.w3.org/2000/svg">
<g clip-path="url(#clip0_6280_68608)">
<path d="M6.33882 20C5.27698 20.0012 4.23895 19.685 3.3577 19.0918C2.47645 18.4986 1.79211 17.6555 1.39235 16.6704C0.992588 15.6854 0.895608 14.6032 1.11383 13.5626C1.33206 12.522 1.85555 11.5703 2.61725 10.8295L12.2483 1.18509C12.6121 0.812859 13.046 0.516506 13.5248 0.31316C14.0036 0.109814 14.518 0.00350661 15.0381 0.000380561C15.5597 -0.00703145 16.0773 0.0938993 16.558 0.296806C17.1617 0.544795 17.6944 0.939208 18.1081 1.44455C18.5217 1.94989 18.8035 2.5503 18.9278 3.19175C19.0522 3.83319 19.0154 4.49555 18.8206 5.11919C18.6259 5.74284 18.2793 6.30821 17.8122 6.76443L8.074 16.5063C7.71935 16.8526 7.27089 17.0869 6.78436 17.1801C6.29783 17.2732 5.79469 17.2212 5.33748 17.0303C4.88026 16.8395 4.48914 16.5183 4.21273 16.1067C3.93633 15.695 3.78682 15.2111 3.7828 14.7151C3.77599 14.0505 4.03184 13.4102 4.49458 12.9337L9.64854 7.77259C9.74234 7.68054 9.86864 7.62928 9.99997 7.62994C10.1313 7.6306 10.2571 7.68314 10.3499 7.77614C10.4428 7.86914 10.4953 7.99508 10.4959 8.1266C10.4966 8.25811 10.4454 8.38458 10.3535 8.47851L5.2054 13.6338C4.99872 13.8499 4.85973 14.1218 4.80557 14.4161C4.75141 14.7104 4.78445 15.0141 4.90062 15.2897C5.01679 15.5654 5.211 15.801 5.4593 15.9675C5.7076 16.1339 5.99913 16.224 6.29792 16.2265H6.31156C6.70877 16.2273 7.09048 16.0722 7.37486 15.7945L17.1111 6.05458C17.4613 5.71436 17.7213 5.29218 17.8678 4.82614C18.0143 4.36011 18.0425 3.86488 17.9501 3.38516C17.8576 2.90545 17.6473 2.45634 17.3381 2.07837C17.029 1.7004 16.6307 1.40546 16.1793 1.22019C15.8157 1.0839 15.432 1.0091 15.0439 0.99885C14.6546 1.00084 14.2696 1.0804 13.9114 1.23291C13.5531 1.38542 13.2288 1.60781 12.9572 1.88714L3.31733 11.5403C2.79953 12.0419 2.41473 12.6647 2.19772 13.3526C1.98071 14.0405 1.93833 14.7717 2.07442 15.4801C2.21051 16.1885 2.52078 16.8517 2.97716 17.4099C3.43355 17.9681 4.02166 18.4035 4.68833 18.6769C5.22071 18.8937 5.79035 19.004 6.36508 19.0016C6.9396 18.9971 7.50752 18.8785 8.03589 18.6525C8.56426 18.4266 9.04255 18.0978 9.44301 17.6852L15.7956 11.3229C15.8894 11.2308 16.0157 11.1796 16.147 11.1802C16.2783 11.1809 16.4041 11.2334 16.497 11.3264C16.5899 11.4194 16.6423 11.5454 16.643 11.6769C16.6436 11.8084 16.5925 11.9349 16.5005 12.0288L10.1528 18.3863C9.66051 18.8923 9.07283 19.2955 8.42381 19.5725C7.7748 19.8495 7.07735 19.9948 6.37186 20H6.33882Z" fill="#171723"/>
</g>
<defs>
<clipPath id="clip0_6280_68608">
<rect width="20" height="20" fill="white"/>
</clipPath>
</defs>
</svg>
