<svg width="20" height="20" viewBox="0 0 20 20" fill="none" xmlns="http://www.w3.org/2000/svg">
<g clip-path="url(#clip0_10314_146623)">
<path d="M12.9357 11.405H18.4707C18.8763 11.405 19.2653 11.5662 19.5522 11.853C19.839 12.1398 20.0001 12.5288 20.0001 12.9344V18.4699C20.0001 18.8758 19.8389 19.2651 19.5519 19.5521C19.2649 19.8391 18.8756 20.0003 18.4697 20.0003H12.9351C12.5295 20.0003 12.1405 19.8392 11.8537 19.5524C11.5669 19.2655 11.4058 18.8765 11.4058 18.4709V12.9349C11.4058 12.734 11.4453 12.535 11.5222 12.3494C11.5991 12.1638 11.7118 11.9952 11.8539 11.8531C11.9959 11.711 12.1646 11.5983 12.3502 11.5215C12.5358 11.4446 12.7348 11.405 12.9357 11.405Z" fill="#171723"/>
<path d="M7.51032 11.6593C7.46585 11.5819 7.40175 11.5177 7.3245 11.4731C7.24725 11.4284 7.1596 11.4049 7.07038 11.405H2.69578C2.60656 11.4049 2.5189 11.4284 2.44165 11.4731C2.36441 11.5177 2.30031 11.5819 2.25583 11.6593L0.0680404 15.4479C0.0231557 15.5251 -0.000488281 15.6129 -0.000488281 15.7022C-0.000488281 15.7915 0.0231557 15.8792 0.0680404 15.9564L2.25583 19.7461C2.30039 19.8233 2.36451 19.8875 2.44174 19.9321C2.51896 19.9768 2.60658 20.0003 2.69578 20.0003H7.07038C7.15957 20.0003 7.24719 19.9768 7.32442 19.9321C7.40165 19.8875 7.46576 19.8233 7.51032 19.7461L9.69811 15.9564C9.743 15.8792 9.76664 15.7915 9.76664 15.7022C9.76664 15.6129 9.743 15.5251 9.69811 15.4479L7.51032 11.6593ZM6.77642 18.9834H2.98973L1.0949 15.7022L2.98973 12.422H6.77642L8.67126 15.7022L6.77642 18.9834Z" fill="#171723"/>
<path d="M11.9143 7.57964H19.4917C19.5809 7.57956 19.6685 7.55602 19.7457 7.51136C19.823 7.46671 19.8871 7.40251 19.9317 7.32523C19.9763 7.24794 19.9997 7.16029 19.9997 7.07107C19.9997 6.98185 19.9762 6.8942 19.9316 6.81694L16.1429 0.254544C16.0948 0.181943 16.0294 0.122388 15.9526 0.0811906C15.8759 0.0399928 15.7901 0.0184326 15.703 0.0184326C15.6159 0.0184326 15.5301 0.0399928 15.4533 0.0811906C15.3766 0.122388 15.3112 0.181943 15.263 0.254544L11.4744 6.81694C11.4298 6.8942 11.4063 6.98185 11.4063 7.07107C11.4062 7.16029 11.4297 7.24794 11.4743 7.32523C11.5188 7.40251 11.583 7.46671 11.6602 7.51136C11.7375 7.55602 11.8251 7.57956 11.9143 7.57964ZM15.703 1.52571L18.6108 6.5627H12.7952L15.703 1.52571Z" fill="#171723"/>
<path d="M4.29665 8.59453C5.14655 8.59453 5.97736 8.34251 6.68402 7.87033C7.39068 7.39816 7.94145 6.72704 8.2667 5.94184C8.59194 5.15664 8.67704 4.29263 8.51123 3.45906C8.34542 2.6255 7.93616 1.85982 7.3352 1.25885C6.73423 0.657887 5.96855 0.248623 5.13499 0.0828157C4.30143 -0.0829917 3.43742 0.00210472 2.65222 0.327344C1.86702 0.652583 1.19589 1.20336 0.723716 1.91002C0.251538 2.61668 -0.00048627 3.44748 -0.000488281 4.29738C0.000991625 5.4366 0.4542 6.52874 1.25975 7.33429C2.0653 8.13984 3.15743 8.59305 4.29665 8.59453ZM1.59176 2.44724H7.00248C7.07139 2.55539 7.13394 2.66747 7.1898 2.7829H1.40447C1.4603 2.66746 1.52284 2.55538 1.59176 2.44724ZM2.43379 1.60311H6.16027C6.30462 1.70396 6.44068 1.81621 6.56713 1.93878H2.02705C2.15348 1.81624 2.28949 1.704 2.43379 1.60312V1.60311ZM1.01644 4.29738C1.01644 4.24176 1.03016 4.18994 1.0329 4.13501H7.56141C7.56413 4.18992 7.57785 4.24178 7.57785 4.29738C7.57785 4.35331 7.56413 4.4055 7.56135 4.46075H1.03296C1.03016 4.4055 1.01644 4.3533 1.01644 4.29738ZM7.50747 4.96922C7.47881 5.08292 7.44396 5.19497 7.40307 5.30488H1.19124C1.15034 5.19498 1.11549 5.08292 1.08684 4.96922H7.50747ZM7.40348 3.29137C7.44433 3.4011 7.47914 3.51299 7.50775 3.62654H1.08652C1.11511 3.51299 1.14992 3.4011 1.1908 3.29137H7.40348ZM7.18897 5.81336C7.13307 5.92863 7.0705 6.04054 7.00159 6.14853H1.59263C1.52368 6.04057 1.46111 5.92865 1.40525 5.81336H7.18897ZM6.56586 6.657C6.43945 6.77957 6.30342 6.89182 6.15909 6.99267H2.43497C2.29063 6.89182 2.15461 6.77957 2.02819 6.657H6.56586ZM3.60513 7.50114H4.98847C4.533 7.6031 4.06062 7.6031 3.60515 7.50114H3.60513ZM4.99164 1.09465H3.60198C4.05944 0.99137 4.53417 0.99137 4.99164 1.09465Z" fill="#171723"/>
</g>
<defs>
<clipPath id="clip0_10314_146623">
<rect width="20" height="20" fill="white"/>
</clipPath>
</defs>
</svg>
