<svg width="20" height="20" viewBox="0 0 20 20" fill="none" xmlns="http://www.w3.org/2000/svg">
<g clip-path="url(#clip0_10314_145146)">
<path d="M19.8473 19.1255L18.6164 17.885C18.5237 17.7948 18.3999 17.7438 18.2705 17.7426C18.2224 17.7436 18.1745 17.7505 18.128 17.7629L17.477 17.1122C17.5584 17.0207 17.6296 16.9292 17.7008 16.8377C17.8436 16.6599 17.9696 16.4693 18.0772 16.2683C18.4529 15.5937 18.649 14.8339 18.6469 14.0618C18.645 13.1285 18.3575 12.2181 17.8228 11.4529C17.2882 10.6877 16.5321 10.1044 15.656 9.78127C15.3302 9.65027 14.9879 9.56473 14.6387 9.52707C14.4503 9.49798 14.2598 9.48437 14.0691 9.48639C13.1218 9.48541 12.1977 9.77845 11.4242 10.325C10.6508 10.8716 10.0662 11.6447 9.75134 12.5377C9.43643 13.4306 9.40671 14.3992 9.66627 15.3097C9.92584 16.2202 10.4619 17.0277 11.2004 17.6206C11.8223 18.1302 12.5714 18.4607 13.3672 18.5764C13.5988 18.6178 13.8338 18.6382 14.0691 18.6375C14.8384 18.6396 15.5952 18.4435 16.2665 18.0681C16.4676 17.9606 16.6583 17.8346 16.8362 17.6919C16.9277 17.6207 17.0193 17.5495 17.1108 17.4682L17.772 18.1291C17.7571 18.1719 17.7468 18.2162 17.7415 18.2613V18.2715C17.7468 18.3989 17.8015 18.5193 17.8942 18.607L19.1352 19.8475C19.1812 19.8957 19.2364 19.934 19.2976 19.9603C19.3588 19.9865 19.4247 20 19.4913 20C19.5579 20 19.6238 19.9865 19.685 19.9603C19.7462 19.934 19.8014 19.8957 19.8473 19.8475C19.8957 19.7995 19.9341 19.7425 19.9603 19.6797C19.9865 19.6169 20 19.5495 20 19.4814C19.9979 19.3473 19.943 19.2195 19.8473 19.1255V19.1255ZM15.7069 17.2241C15.228 17.4719 14.6989 17.6077 14.1598 17.6213C13.6206 17.6348 13.0855 17.5259 12.5946 17.3026C12.1037 17.0792 11.67 16.7474 11.3262 16.3321C10.9824 15.9168 10.7374 15.4289 10.6098 14.9052C10.4822 14.3814 10.4752 13.8356 10.5894 13.3088C10.7037 12.7819 10.9361 12.2879 11.2693 11.864C11.6024 11.4401 12.0275 11.0974 12.5125 10.8616C12.9976 10.6259 13.5298 10.5033 14.0691 10.5032C14.3643 10.5034 14.6583 10.541 14.944 10.6151C14.9847 10.6252 15.0152 10.6354 15.0559 10.6455C15.5616 10.7915 16.0287 11.0477 16.4235 11.3957C16.8183 11.7437 17.131 12.1748 17.3392 12.658C17.5474 13.1413 17.6458 13.6646 17.6274 14.1904C17.609 14.7162 17.4743 15.2314 17.2329 15.6989C16.8883 16.3484 16.3567 16.8797 15.7069 17.2241V17.2241ZM12.8382 1.05233e-06H2.80776C2.06358 0.00147935 1.35029 0.297601 0.824062 0.82354C0.297829 1.34948 0.00151951 2.06239 0 2.80619V15.8311C0.00149527 16.5749 0.297789 17.2878 0.824018 17.8138C1.35025 18.3397 2.06353 18.6359 2.80773 18.6374H10.8647C10.7629 18.5662 10.6612 18.4849 10.5595 18.4035C10.2656 18.1741 9.99929 17.9114 9.766 17.6206C8.92658 16.6251 8.46864 15.3638 8.47403 14.0619C8.47665 12.5795 9.06698 11.1587 10.1157 10.1105C11.1644 9.06229 12.586 8.47226 14.0691 8.46964C14.2594 8.46938 14.4496 8.47957 14.6388 8.50016C14.6969 8.50193 14.7548 8.50874 14.8117 8.5205C15.0986 8.55328 15.3814 8.61462 15.6561 8.70359V2.80619C15.654 2.0608 15.3561 1.34669 14.8278 0.820581C14.2995 0.294474 13.5839 -0.000643114 12.8382 1.05233e-06V1.05233e-06ZM8.13831 9.82191H3.01116C2.94418 9.82257 2.87774 9.80987 2.81573 9.78456C2.75372 9.75924 2.69738 9.72182 2.65002 9.67448C2.60265 9.62714 2.56521 9.57083 2.53989 9.50886C2.51456 9.44688 2.50185 9.38047 2.50251 9.31353C2.50291 9.17881 2.55662 9.04973 2.65193 8.95447C2.74723 8.85922 2.87638 8.80553 3.01116 8.80514H8.13831C8.27255 8.80725 8.4007 8.86149 8.49564 8.95638C8.59057 9.05126 8.64484 9.17935 8.64695 9.31353C8.64657 9.44824 8.59286 9.57733 8.49755 9.67259C8.40225 9.76785 8.27309 9.82153 8.13831 9.82191V9.82191ZM13.1027 7.31049H3.01121C2.87643 7.31009 2.74729 7.2564 2.65199 7.16114C2.55669 7.06589 2.50297 6.93681 2.50256 6.8021C2.5019 6.73516 2.51461 6.66875 2.53994 6.60677C2.56526 6.54479 2.60271 6.48849 2.65007 6.44115C2.69743 6.39381 2.75377 6.35638 2.81578 6.33107C2.87779 6.30575 2.94423 6.29305 3.01121 6.29371H13.1027C13.1697 6.29305 13.2361 6.30575 13.2981 6.33106C13.3601 6.35637 13.4165 6.3938 13.4638 6.44114C13.5112 6.48848 13.5486 6.54479 13.574 6.60677C13.5993 6.66875 13.612 6.73516 13.6113 6.8021C13.611 6.93683 13.5572 7.06593 13.4619 7.1612C13.3666 7.25647 13.2375 7.31017 13.1027 7.31056V7.31049ZM13.1027 4.78884H3.01121C2.87631 4.78884 2.74693 4.73528 2.65154 4.63994C2.55615 4.5446 2.50256 4.41529 2.50256 4.28046C2.50256 4.14562 2.55615 4.01631 2.65154 3.92097C2.74693 3.82563 2.87631 3.77207 3.01121 3.77207H13.1027C13.2376 3.77207 13.367 3.82563 13.4623 3.92097C13.5577 4.01631 13.6113 4.14562 13.6113 4.28046C13.6113 4.41529 13.5577 4.5446 13.4623 4.63994C13.367 4.73528 13.2376 4.78884 13.1027 4.78884V4.78884Z" fill="#171723"/>
</g>
<defs>
<clipPath id="clip0_10314_145146">
<rect width="20" height="20" fill="white"/>
</clipPath>
</defs>
</svg>
