<svg width="20" height="20" viewBox="0 0 20 20" fill="none" xmlns="http://www.w3.org/2000/svg">
<path d="M14.1015 13.9774C13.9895 13.9774 13.8763 13.9428 13.78 13.8706C13.5433 13.6925 13.4951 13.3563 13.6721 13.1196C14.7142 11.7298 14.7142 8.89675 13.6721 7.50693C13.4951 7.27023 13.5433 6.93403 13.78 6.75598C14.0157 6.57898 14.3518 6.62715 14.5309 6.86386C15.86 8.637 15.86 11.9895 14.5309 13.7627C14.4252 13.903 14.2639 13.9774 14.1015 13.9774Z" fill="#171723"/>
<path d="M16.7825 17.1057C16.64 17.1057 16.4976 17.0492 16.3929 16.9371C16.1897 16.7224 16.1991 16.3831 16.4149 16.1799C18.0278 14.6581 18.9201 12.5907 18.9274 10.3577C18.9348 8.10072 18.0414 6.00081 16.4117 4.44447C16.1981 4.24023 16.1897 3.90089 16.395 3.68619C16.5981 3.47359 16.9375 3.46521 17.1532 3.66944C18.9704 5.40488 20.0072 7.84413 19.9999 10.3609C19.9915 12.8913 18.9798 15.2342 17.1501 16.9591C17.0464 17.0576 16.9144 17.1057 16.7825 17.1057Z" fill="#171723"/>
<path d="M10.7122 18.6202H10.3498C9.8963 18.6202 9.47003 18.4432 9.14745 18.1227L5.16442 14.1386C5.04503 14.0203 4.88688 13.9543 4.71825 13.9543H2.28529C1.02535 13.9543 0 12.929 0 11.669V8.95118C0 7.69123 1.02534 6.66588 2.28529 6.66588H4.71825C4.88688 6.66588 5.04503 6.59991 5.16442 6.48051L9.1464 2.49853C9.46793 2.177 9.89525 2 10.3498 2H10.7122C11.4034 2 11.9658 2.56242 11.9658 3.25471V17.3655C11.9658 18.0578 11.4034 18.6202 10.7122 18.6202Z" fill="#171723"/>
</svg>
