<svg width="20" height="20" viewBox="0 0 20 20" fill="none" xmlns="http://www.w3.org/2000/svg">
<path d="M14.1015 13.6674C14.0019 13.6675 13.9043 13.6398 13.8195 13.5875C13.7348 13.5352 13.6662 13.4603 13.6217 13.3712C13.5771 13.2822 13.5582 13.1825 13.5671 13.0833C13.576 12.9841 13.6124 12.8893 13.6721 12.8096C14.1834 11.9628 14.4537 10.9925 14.4537 10.0033C14.4537 9.01409 14.1834 8.0437 13.6721 7.19692C13.5876 7.08299 13.5516 6.94021 13.5721 6.79983C13.5926 6.65945 13.6678 6.53289 13.7814 6.44786C13.8949 6.36283 14.0375 6.32624 14.178 6.34611C14.3185 6.36597 14.4454 6.44067 14.5309 6.55385C15.1821 7.58651 15.5277 8.78242 15.5277 10.0033C15.5277 11.2241 15.1821 12.42 14.5309 13.4527C14.4809 13.5193 14.416 13.5734 14.3415 13.6106C14.267 13.6479 14.1848 13.6673 14.1015 13.6674Z" fill="#171723"/>
<path d="M16.7826 16.7957C16.6753 16.7956 16.5706 16.7632 16.4819 16.7029C16.3932 16.6426 16.3246 16.5571 16.2851 16.4574C16.2455 16.3577 16.2367 16.2484 16.2599 16.1437C16.283 16.039 16.3371 15.9436 16.415 15.8699C17.2103 15.1233 17.8436 14.2212 18.2759 13.2197C18.7081 12.2182 18.9299 11.1385 18.9276 10.0477C18.9359 8.94226 18.7169 7.8469 18.2841 6.82966C17.8514 5.81242 17.2141 4.89501 16.4118 4.13442C16.3607 4.08579 16.3197 4.02755 16.2911 3.96303C16.2625 3.89852 16.2469 3.82899 16.2453 3.75845C16.2436 3.6879 16.2559 3.61772 16.2814 3.55192C16.3069 3.48613 16.3451 3.42601 16.3939 3.37502C16.4427 3.32404 16.5011 3.28318 16.5657 3.25479C16.6303 3.2264 16.6998 3.21104 16.7704 3.20959C16.8409 3.20813 16.9111 3.22062 16.9768 3.24633C17.0425 3.27204 17.1025 3.31046 17.1534 3.3594C18.0552 4.2247 18.7723 5.26372 19.2616 6.41377C19.7508 7.56382 20.002 8.80106 20 10.0508C20.0026 11.2873 19.7509 12.511 19.2607 13.6461C18.7704 14.7811 18.0521 15.8033 17.1502 16.6491C17.0511 16.7435 16.9195 16.796 16.7826 16.7957Z" fill="#171723"/>
<path d="M10.7122 18.3102H10.3498C10.1265 18.3105 9.90535 18.2668 9.69901 18.1814C9.49267 18.096 9.30524 17.9707 9.14748 17.8127L5.16444 13.8286C5.10584 13.7701 5.03627 13.7237 4.95971 13.692C4.88316 13.6604 4.80112 13.6442 4.71829 13.6443H2.2853C1.67943 13.6435 1.09858 13.4025 0.670166 12.9741C0.241751 12.5457 0.000740746 11.9649 0 11.359V8.64115C0.000737908 8.03528 0.241746 7.45443 0.670163 7.02601C1.09858 6.59759 1.67942 6.35658 2.2853 6.35584H4.71826C4.8012 6.356 4.88334 6.33969 4.95992 6.30787C5.03651 6.27605 5.10601 6.22935 5.16441 6.17047L9.1464 2.18848C9.30406 2.02993 9.49159 1.90423 9.69816 1.81866C9.90472 1.73309 10.1262 1.68934 10.3498 1.68995H10.7122C11.0447 1.69039 11.3635 1.82276 11.5985 2.058C11.8336 2.29324 11.9657 2.61212 11.9658 2.94466V17.0555C11.9657 17.388 11.8336 17.7069 11.5985 17.9421C11.3635 18.1774 11.0447 18.3097 10.7122 18.3102ZM2.2853 7.42832C1.96369 7.42851 1.65532 7.55635 1.42791 7.78376C1.20051 8.01117 1.07267 8.31955 1.07248 8.64115V11.359C1.07268 11.6806 1.20053 11.989 1.42793 12.2164C1.65534 12.4438 1.9637 12.5716 2.2853 12.5718H4.71826C4.94172 12.5714 5.16305 12.6152 5.36956 12.7005C5.57607 12.7859 5.76369 12.9112 5.92166 13.0693L9.9047 17.0533C10.023 17.171 10.1829 17.2372 10.3498 17.2377H10.7122C10.7603 17.2374 10.8064 17.2181 10.8404 17.184C10.8743 17.1498 10.8934 17.1036 10.8933 17.0554V2.94466C10.8934 2.8965 10.8743 2.8503 10.8404 2.81614C10.8064 2.78199 10.7603 2.76268 10.7122 2.76242H10.3498C10.2671 2.76232 10.1852 2.77855 10.1088 2.81019C10.0325 2.84182 9.96309 2.88823 9.9047 2.94675L5.92271 6.92874C5.76499 7.08756 5.57731 7.2135 5.37056 7.29925C5.16381 7.38501 4.94209 7.42888 4.71826 7.42832H2.2853Z" fill="#171723"/>
</svg>
