<svg width="20" height="20" viewBox="0 0 20 20" fill="none" xmlns="http://www.w3.org/2000/svg">
<g clip-path="url(#clip0_10314_145149)">
<path d="M19.8544 19.1356L18.6143 17.896C18.5516 17.8347 18.4738 17.7909 18.3888 17.769C18.3038 17.7471 18.2146 17.7479 18.13 17.7713L17.4666 17.1083C17.968 16.5572 18.3258 15.8912 18.5085 15.169C18.6913 14.4469 18.6932 13.6908 18.5143 12.9677C18.3353 12.2446 17.981 11.5767 17.4825 11.023C16.984 10.4693 16.3567 10.0468 15.6561 9.79296V2.80689C15.654 2.06139 15.3562 1.34717 14.8279 0.820939C14.2996 0.294712 13.584 -0.000530158 12.8382 7.14682e-07H2.80516C2.06066 0.000848672 1.3469 0.296847 0.820466 0.823059C0.294031 1.34927 -0.00208945 2.06272 -0.00292969 2.80689V15.8356C-0.00210582 16.5798 0.293994 17.2933 0.820419 17.8196C1.34684 18.3459 2.06061 18.642 2.80516 18.6429H12.8382C13.0227 18.6402 13.2065 18.6186 13.3866 18.5786C14.0504 18.6999 14.7335 18.6626 15.3801 18.4695C16.0267 18.2765 16.6184 17.9332 17.1069 17.4678L17.7702 18.1307C17.7467 18.2153 17.7459 18.3046 17.7678 18.3896C17.7897 18.4746 17.8335 18.5524 17.8949 18.6151L19.135 19.8547C19.2307 19.9485 19.3596 20.0007 19.4936 20C19.6277 19.9993 19.756 19.9458 19.8508 19.8511C19.9456 19.7563 19.9991 19.6281 19.9998 19.4941C20.0004 19.3601 19.9482 19.2313 19.8544 19.1356L19.8544 19.1356ZM2.80516 17.6259C2.33034 17.6254 1.87513 17.4366 1.53943 17.1009C1.20373 16.7653 1.01497 16.3102 1.01458 15.8356V2.80694C1.01506 2.3324 1.20385 1.87742 1.53955 1.54186C1.87524 1.2063 2.3304 1.01756 2.80516 1.01707H12.8382C13.3142 1.01634 13.7711 1.20436 14.1086 1.53988C14.4462 1.87541 14.6368 2.33105 14.6387 2.80687V9.55003C14.4497 9.51866 14.2588 9.49938 14.0673 9.4923C13.1185 9.48818 12.192 9.78001 11.417 10.3271C10.6419 10.8742 10.0569 11.6494 9.74346 12.5446C9.43001 13.4397 9.40373 14.4104 9.66827 15.3212C9.93282 16.232 10.475 17.0376 11.2193 17.6259L2.80516 17.6259ZM14.0673 17.6303C13.3628 17.6303 12.6742 17.4214 12.0884 17.0302C11.5027 16.6389 11.0462 16.0828 10.7766 15.4322C10.507 14.7816 10.4365 14.0657 10.574 13.375C10.7115 12.6844 11.0508 12.05 11.549 11.5521C12.0472 11.0541 12.6819 10.7151 13.3729 10.5778C14.0639 10.4404 14.7801 10.511 15.4309 10.7805C16.0818 11.05 16.6381 11.5064 17.0294 12.092C17.4208 12.6775 17.6297 13.3659 17.6296 14.0701C17.6285 15.0141 17.2528 15.9191 16.585 16.5865C15.9172 17.254 15.0117 17.6294 14.0673 17.6303Z" fill="#171723"/>
<path d="M11.0763 9.32223C11.0763 9.25541 11.0632 9.18924 11.0376 9.12749C11.0121 9.06575 10.9746 9.00965 10.9273 8.9624C10.8801 8.91515 10.824 8.87768 10.7622 8.85212C10.7005 8.82657 10.6343 8.81344 10.5675 8.81348H3.00876C2.87383 8.81348 2.74442 8.86708 2.64901 8.96249C2.5536 9.0579 2.5 9.1873 2.5 9.32223C2.5 9.45716 2.5536 9.58657 2.64901 9.68198C2.74442 9.77739 2.87383 9.83099 3.00876 9.83099H10.5675C10.6344 9.83102 10.7005 9.81788 10.7623 9.79232C10.824 9.76677 10.8801 9.72929 10.9273 9.68204C10.9746 9.63479 11.0121 9.5787 11.0376 9.51696C11.0632 9.45522 11.0763 9.38905 11.0763 9.32223Z" fill="#171723"/>
<path d="M3.00876 7.31268H13.1053C13.2402 7.31268 13.3696 7.25908 13.4651 7.16367C13.5605 7.06826 13.6141 6.93885 13.6141 6.80392C13.6141 6.66899 13.5605 6.53959 13.4651 6.44418C13.3696 6.34877 13.2402 6.29517 13.1053 6.29517H3.00876C2.87383 6.29517 2.74442 6.34877 2.64901 6.44418C2.5536 6.53959 2.5 6.66899 2.5 6.80392C2.5 6.93885 2.5536 7.06826 2.64901 7.16367C2.74442 7.25908 2.87383 7.31268 3.00876 7.31268Z" fill="#171723"/>
<path d="M3.00876 4.79437H13.1053C13.2402 4.79437 13.3696 4.74077 13.4651 4.64536C13.5605 4.54995 13.6141 4.42054 13.6141 4.28561C13.6141 4.15068 13.5605 4.02128 13.4651 3.92587C13.3696 3.83046 13.2402 3.77686 13.1053 3.77686H3.00876C2.87383 3.77686 2.74442 3.83046 2.64901 3.92587C2.5536 4.02128 2.5 4.15068 2.5 4.28561C2.5 4.42054 2.5536 4.54995 2.64901 4.64536C2.74442 4.74077 2.87383 4.79437 3.00876 4.79437Z" fill="#171723"/>
</g>
<defs>
<clipPath id="clip0_10314_145149">
<rect width="20" height="20" fill="white"/>
</clipPath>
</defs>
</svg>
