<svg width="20" height="20" viewBox="0 0 20 20" fill="none" xmlns="http://www.w3.org/2000/svg">
<g clip-path="url(#clip0_10314_145358)">
<path d="M9.99436 1C8.06258 0.998223 6.17179 1.58478 4.55115 2.68859C2.93051 3.79239 1.64962 5.36605 0.863714 7.21882C0.0778128 9.07159 -0.17935 11.1239 0.123395 13.1271C0.42614 15.1302 1.27579 16.9981 2.56937 18.5045C2.63729 18.5876 2.69388 18.6589 2.76179 18.7302C3.58582 17.5048 4.67784 16.5047 5.94618 15.8141C7.21453 15.1235 8.62217 14.7624 10.0509 14.7611C10.3346 14.7548 10.6184 14.7707 10.8998 14.8087C12.1624 14.9433 13.381 15.3688 14.4689 16.0549C15.5567 16.741 16.4868 17.6707 17.193 18.7778C17.2609 18.7184 17.3175 18.647 17.3854 18.5758C18.6931 17.072 19.556 15.2014 19.8689 13.1918C20.1819 11.1822 19.9315 9.12046 19.1482 7.25768C18.3648 5.3949 17.0824 3.81153 15.4571 2.70045C13.8318 1.58938 11.9338 0.99857 9.99436 1V1ZM9.99436 13.5609C9.27177 13.5586 8.56606 13.3314 7.96634 12.9083C7.36662 12.4851 6.8998 11.8848 6.62483 11.1832C6.34986 10.4816 6.27907 9.71022 6.42141 8.96643C6.56375 8.22264 6.91283 7.53982 7.42456 7.0042C7.9363 6.46858 8.58773 6.10419 9.2966 5.95705C10.0055 5.8099 10.74 5.88661 11.4073 6.17747C12.0747 6.46833 12.645 6.96031 13.0462 7.59127C13.4474 8.22223 13.6616 8.96387 13.6616 9.72252C13.6631 10.228 13.5691 10.7288 13.3852 11.196C13.2013 11.6632 12.9311 12.0875 12.5901 12.4444C12.2491 12.8013 11.8442 13.0837 11.3986 13.2753C10.9531 13.467 10.4758 13.564 9.99436 13.5609V13.5609Z" fill="#171723"/>
</g>
<defs>
<clipPath id="clip0_10314_145358">
<rect width="20" height="20" fill="white"/>
</clipPath>
</defs>
</svg>
