<svg width="20" height="20" viewBox="0 0 20 20" fill="none" xmlns="http://www.w3.org/2000/svg">
<path d="M5.63639 9.35818C5.63639 9.60512 5.663 9.80534 5.70956 9.95217C5.76278 10.099 5.82929 10.2592 5.92242 10.4327C5.95568 10.4861 5.96898 10.5395 5.96898 10.5862C5.96898 10.6529 5.92907 10.7197 5.8426 10.7864L5.42354 11.0667C5.36367 11.1068 5.3038 11.1268 5.25059 11.1268C5.18407 11.1268 5.11755 11.0934 5.05103 11.0334C4.95791 10.9333 4.87809 10.8265 4.81157 10.7197C4.74505 10.6062 4.67853 10.4794 4.60537 10.3259C4.08653 10.9399 3.43465 11.2469 2.64974 11.2469C2.09099 11.2469 1.64532 11.0868 1.31938 10.7664C0.993443 10.4461 0.827148 10.0189 0.827148 9.48498C0.827148 8.91769 1.0267 8.45717 1.43246 8.11012C1.83822 7.76307 2.37702 7.58954 3.06215 7.58954C3.28831 7.58954 3.52112 7.60957 3.76724 7.64294C4.01336 7.67631 4.26612 7.7297 4.5322 7.78977V7.30256C4.5322 6.79533 4.42577 6.4416 4.21956 6.23471C4.0067 6.02781 3.64751 5.9277 3.13532 5.9277C2.90251 5.9277 2.66304 5.95439 2.41693 6.01446C2.17081 6.07453 1.93135 6.14794 1.69853 6.24138C1.5921 6.2881 1.51228 6.31479 1.46572 6.32814C1.41916 6.34149 1.3859 6.34816 1.35929 6.34816C1.26617 6.34816 1.2196 6.28142 1.2196 6.14127V5.81424C1.2196 5.70745 1.23291 5.62736 1.26617 5.58065C1.29943 5.53393 1.35929 5.48721 1.45242 5.44049C1.68523 5.32036 1.9646 5.22024 2.29054 5.14016C2.61648 5.05339 2.96237 5.01335 3.32822 5.01335C4.11978 5.01335 4.69849 5.19355 5.07099 5.55395C5.43684 5.91435 5.62309 6.46162 5.62309 7.19577V9.35818H5.63639ZM2.93577 10.3726C3.15527 10.3726 3.38144 10.3326 3.6209 10.2525C3.86036 10.1724 4.07322 10.0256 4.25282 9.82536C4.35925 9.69855 4.43907 9.5584 4.47898 9.39822C4.51889 9.23804 4.5455 9.04449 4.5455 8.81758V8.53726C4.3526 8.49055 4.14639 8.4505 3.93353 8.4238C3.72068 8.39711 3.51447 8.38376 3.30827 8.38376C2.8626 8.38376 2.53666 8.47052 2.31715 8.65072C2.09764 8.83092 1.99121 9.08454 1.99121 9.41824C1.99121 9.73192 2.07103 9.96552 2.23733 10.1257C2.39697 10.2925 2.62978 10.3726 2.93577 10.3726ZM8.27715 11.0934C8.15742 11.0934 8.0776 11.0734 8.02439 11.0267C7.97117 10.9867 7.92461 10.8932 7.8847 10.7664L6.32153 5.60734C6.28162 5.47386 6.26166 5.3871 6.26166 5.34038C6.26166 5.23359 6.31487 5.17353 6.4213 5.17353H7.07318C7.19956 5.17353 7.28604 5.19355 7.3326 5.24027C7.38581 5.28031 7.42572 5.37375 7.46563 5.50056L8.58314 9.9188L9.62081 5.50056C9.65407 5.36707 9.69398 5.28031 9.7472 5.24027C9.80041 5.20022 9.89354 5.17353 10.0133 5.17353H10.5454C10.6718 5.17353 10.7583 5.19355 10.8115 5.24027C10.8647 5.28031 10.9113 5.37375 10.9379 5.50056L11.9889 9.97219L13.1396 5.50056C13.1795 5.36707 13.2261 5.28031 13.2726 5.24027C13.3259 5.20022 13.4123 5.17353 13.5321 5.17353H14.1507C14.2571 5.17353 14.317 5.22692 14.317 5.34038C14.317 5.37375 14.3103 5.40712 14.3037 5.44716C14.297 5.48721 14.2837 5.5406 14.2571 5.61402L12.654 10.7731C12.6141 10.9066 12.5676 10.9933 12.5143 11.0334C12.4611 11.0734 12.3747 11.1001 12.2616 11.1001H11.6895C11.5631 11.1001 11.4767 11.0801 11.4234 11.0334C11.3702 10.9867 11.3237 10.8999 11.2971 10.7664L10.266 6.46162L9.24166 10.7597C9.2084 10.8932 9.16849 10.98 9.11528 11.0267C9.06206 11.0734 8.96894 11.0934 8.84921 11.0934H8.27715ZM16.8247 11.2736C16.4788 11.2736 16.1329 11.2336 15.8003 11.1535C15.4677 11.0734 15.2083 10.9867 15.0354 10.8865C14.9289 10.8265 14.8558 10.7597 14.8292 10.6997C14.8026 10.6396 14.7893 10.5729 14.7893 10.5128V10.1724C14.7893 10.0323 14.8425 9.96552 14.9422 9.96552C14.9822 9.96552 15.0221 9.97219 15.062 9.98554C15.1019 9.99889 15.1618 10.0256 15.2283 10.0523C15.4544 10.1524 15.7006 10.2325 15.96 10.2859C16.226 10.3393 16.4855 10.366 16.7515 10.366C17.1706 10.366 17.4965 10.2925 17.7227 10.1457C17.9489 9.99889 18.0686 9.78532 18.0686 9.51168C18.0686 9.32481 18.0087 9.1713 17.889 9.04449C17.7693 8.91769 17.5431 8.80423 17.2172 8.69744L16.2526 8.39711C15.7671 8.2436 15.4079 8.01669 15.1884 7.71635C14.9689 7.42269 14.8558 7.09566 14.8558 6.74861C14.8558 6.4683 14.9156 6.22136 15.0354 6.00779C15.1551 5.79422 15.3147 5.60734 15.5143 5.46051C15.7139 5.30701 15.94 5.19355 16.2061 5.11346C16.4722 5.03337 16.7515 5 17.0442 5C17.1906 5 17.3435 5.00667 17.4899 5.0267C17.6429 5.04672 17.7826 5.07341 17.9222 5.10011C18.0553 5.13348 18.1817 5.16685 18.3014 5.2069C18.4211 5.24694 18.5143 5.28699 18.5808 5.32703C18.6739 5.38042 18.7404 5.43382 18.7803 5.49388C18.8202 5.54727 18.8402 5.62069 18.8402 5.71413V6.02781C18.8402 6.16796 18.787 6.24138 18.6872 6.24138C18.634 6.24138 18.5475 6.21468 18.4344 6.16129C18.0553 5.98776 17.6296 5.901 17.1573 5.901C16.7781 5.901 16.4788 5.96107 16.2726 6.08788C16.0664 6.21468 15.96 6.40823 15.96 6.68187C15.96 6.86874 16.0265 7.02892 16.1595 7.15573C16.2926 7.28254 16.5387 7.40934 16.8912 7.5228L17.8358 7.82314C18.3147 7.97664 18.6606 8.19021 18.8668 8.46385C19.073 8.73749 19.1728 9.05117 19.1728 9.39822C19.1728 9.68521 19.1129 9.9455 18.9998 10.1724C18.8801 10.3993 18.7205 10.5996 18.5143 10.7597C18.3081 10.9266 18.0619 11.0467 17.7759 11.1335C17.4766 11.2269 17.1639 11.2736 16.8247 11.2736Z" fill="#252F3E"/>
<path fill-rule="evenodd" clip-rule="evenodd" d="M18.0817 14.5171C15.8933 16.1389 12.7137 16.9999 9.97981 16.9999C6.14838 16.9999 2.6961 15.5783 0.088603 13.2157C-0.117602 13.0288 0.0686476 12.7752 0.314764 12.922C3.13512 14.5639 6.61401 15.5583 10.2126 15.5583C12.6405 15.5583 15.3079 15.0511 17.7624 14.0099C18.1283 13.843 18.4409 14.2502 18.0817 14.5171Z" fill="#FF9900"/>
<path fill-rule="evenodd" clip-rule="evenodd" d="M18.9929 13.476C18.7135 13.1156 17.1437 13.3025 16.432 13.3893C16.2191 13.416 16.1858 13.2291 16.3787 13.0889C17.6293 12.208 19.6847 12.4616 19.9241 12.7552C20.1636 13.0556 19.8576 15.1179 18.6869 16.1056C18.5073 16.2591 18.3344 16.179 18.4142 15.9788C18.6803 15.3181 19.2723 13.8298 18.9929 13.476Z" fill="#FF9900"/>
</svg>
