<svg width="20" height="20" viewBox="0 0 20 20" fill="none" xmlns="http://www.w3.org/2000/svg">
<path fill-rule="evenodd" clip-rule="evenodd" d="M13.4009 0.013495C13.9946 0.013495 14.5209 0.458832 14.7099 1.10659C14.8988 1.75436 16.0054 5.76238 16.0054 5.76238V13.7245H11.9974L12.0783 0H13.4009V0.013495Z" fill="url(#paint0_linear_19042_1907)"/>
<path d="M19.2846 6.23504C19.2846 5.95164 19.0552 5.73572 18.7853 5.73572H16.4237C14.7638 5.73572 13.4143 7.08523 13.4143 8.74512V13.7383H16.2752C17.9351 13.7383 19.2846 12.3888 19.2846 10.7289V6.23504Z" fill="url(#paint1_linear_19042_1907)"/>
<path fill-rule="evenodd" clip-rule="evenodd" d="M13.4009 0.013495C12.942 0.013495 12.5776 0.378204 12.5776 0.837036L12.4966 15.992C12.4966 18.2052 10.7018 20 8.4886 20H1.21477C0.863902 20 0.634487 19.6626 0.742447 19.3387L6.57231 2.69935C7.1391 1.09344 8.65054 0.0138378 10.3509 0.0138378H13.4143L13.4009 0.013495Z" fill="url(#paint2_linear_19042_1907)"/>
<defs>
<linearGradient id="paint0_linear_19042_1907" x1="14.9706" y1="20.4326" x2="13.3378" y2="-0.352314" gradientUnits="userSpaceOnUse">
<stop stop-color="#712575"/>
<stop offset="0.09" stop-color="#9A2884"/>
<stop offset="0.18" stop-color="#BF2C92"/>
<stop offset="0.27" stop-color="#DA2E9C"/>
<stop offset="0.34" stop-color="#EB30A2"/>
<stop offset="0.4" stop-color="#F131A5"/>
<stop offset="0.5" stop-color="#EC30A3"/>
<stop offset="0.61" stop-color="#DF2F9E"/>
<stop offset="0.72" stop-color="#C92D96"/>
<stop offset="0.83" stop-color="#AA2A8A"/>
<stop offset="0.95" stop-color="#83267C"/>
<stop offset="1" stop-color="#712575"/>
</linearGradient>
<linearGradient id="paint1_linear_19042_1907" x1="10.0214" y1="-13.5919" x2="10.0214" y2="34.0304" gradientUnits="userSpaceOnUse">
<stop stop-color="#DA7ED0"/>
<stop offset="0.08" stop-color="#B17BD5"/>
<stop offset="0.19" stop-color="#8778DB"/>
<stop offset="0.3" stop-color="#6276E1"/>
<stop offset="0.41" stop-color="#4574E5"/>
<stop offset="0.54" stop-color="#2E72E8"/>
<stop offset="0.67" stop-color="#1D71EB"/>
<stop offset="0.81" stop-color="#1471EC"/>
<stop offset="1" stop-color="#1171ED"/>
</linearGradient>
<linearGradient id="paint2_linear_19042_1907" x1="15.2091" y1="0.72891" x2="2.57777" y2="20.985" gradientUnits="userSpaceOnUse">
<stop stop-color="#DA7ED0"/>
<stop offset="0.05" stop-color="#B77BD4"/>
<stop offset="0.11" stop-color="#9079DA"/>
<stop offset="0.18" stop-color="#6E77DF"/>
<stop offset="0.25" stop-color="#5175E3"/>
<stop offset="0.33" stop-color="#3973E7"/>
<stop offset="0.42" stop-color="#2772E9"/>
<stop offset="0.54" stop-color="#1A71EB"/>
<stop offset="0.68" stop-color="#1371EC"/>
<stop offset="1" stop-color="#1171ED"/>
</linearGradient>
</defs>
</svg>
