<svg width="20" height="20" viewBox="0 0 20 20" fill="none" xmlns="http://www.w3.org/2000/svg">
<path d="M6.94541 1.36333H12.37L6.73874 18.0481C6.68087 18.2196 6.57068 18.3686 6.42369 18.4741C6.27671 18.5796 6.10032 18.6364 5.91937 18.6365H1.6977C1.5606 18.6365 1.42546 18.6038 1.30347 18.5413C1.18148 18.4787 1.07615 18.388 0.996177 18.2766C0.916207 18.1652 0.863902 18.0364 0.84359 17.9009C0.823278 17.7653 0.835543 17.6268 0.87937 17.4969L6.12583 1.95167C6.18368 1.78015 6.29388 1.6311 6.44092 1.52551C6.58795 1.41993 6.7644 1.36334 6.94541 1.36333Z" fill="url(#paint0_linear_18950_1795)"/>
<path d="M14.8281 12.5544H6.22603C6.14606 12.5543 6.06792 12.5783 6.00178 12.6232C5.93564 12.6682 5.88457 12.732 5.85523 12.8064C5.82589 12.8808 5.81964 12.9623 5.83728 13.0403C5.85493 13.1183 5.89565 13.1892 5.95416 13.2437L11.4817 18.4029C11.6426 18.553 11.8545 18.6365 12.0746 18.6365H16.9454L14.8281 12.5544Z" fill="#0078D4"/>
<path d="M6.94542 1.36333C6.76243 1.36263 6.58401 1.42046 6.43622 1.52837C6.28843 1.63628 6.17902 1.78861 6.12396 1.96313L0.885839 17.4827C0.839064 17.6131 0.824379 17.7528 0.843026 17.8901C0.861674 18.0273 0.913105 18.1581 0.992969 18.2712C1.07283 18.3844 1.17878 18.4767 1.30185 18.5403C1.42492 18.6038 1.56149 18.6368 1.70001 18.6365H6.03063C6.19192 18.6076 6.34267 18.5365 6.46749 18.4304C6.5923 18.3242 6.6867 18.1869 6.74105 18.0323L7.78563 14.9537L11.5169 18.434C11.6732 18.5633 11.8694 18.6348 12.0723 18.6365H16.925L14.7967 12.5544L8.5923 12.5558L12.3896 1.36333H6.94542Z" fill="url(#paint1_linear_18950_1795)"/>
<path d="M13.874 1.95083C13.8162 1.77959 13.7061 1.63079 13.5593 1.52539C13.4125 1.41999 13.2363 1.36331 13.0556 1.36333H7.00999C7.19071 1.36334 7.36688 1.42004 7.51368 1.52543C7.66048 1.63082 7.77053 1.77961 7.82833 1.95083L13.075 17.4967C13.1189 17.6266 13.1311 17.7651 13.1109 17.9007C13.0906 18.0364 13.0383 18.1652 12.9583 18.2766C12.8783 18.388 12.773 18.4788 12.651 18.5414C12.529 18.604 12.3938 18.6367 12.2567 18.6367H18.3025C18.4396 18.6366 18.5747 18.6039 18.6967 18.5413C18.8187 18.4787 18.924 18.3879 19.004 18.2765C19.0839 18.1651 19.1362 18.0363 19.1565 17.9007C19.1768 17.7651 19.1645 17.6266 19.1206 17.4967L13.874 1.95083Z" fill="url(#paint2_linear_18950_1795)"/>
<defs>
<linearGradient id="paint0_linear_18950_1795" x1="8.92249" y1="2.64333" x2="3.28895" y2="19.2863" gradientUnits="userSpaceOnUse">
<stop stop-color="#114A8B"/>
<stop offset="1" stop-color="#0669BC"/>
</linearGradient>
<linearGradient id="paint1_linear_18950_1795" x1="10.6823" y1="10.3994" x2="9.37917" y2="10.84" gradientUnits="userSpaceOnUse">
<stop stop-opacity="0.3"/>
<stop offset="0.071" stop-opacity="0.2"/>
<stop offset="0.321" stop-opacity="0.1"/>
<stop offset="0.623" stop-opacity="0.05"/>
<stop offset="1" stop-opacity="0"/>
</linearGradient>
<linearGradient id="paint2_linear_18950_1795" x1="9.96562" y1="2.15792" x2="16.1496" y2="18.6331" gradientUnits="userSpaceOnUse">
<stop stop-color="#3CCBF4"/>
<stop offset="1" stop-color="#2892DF"/>
</linearGradient>
</defs>
</svg>
