<svg width="20" height="20" viewBox="0 0 20 20" fill="none" xmlns="http://www.w3.org/2000/svg">
<g clip-path="url(#clip0_5313_35234)">
<g clip-path="url(#clip1_5313_35234)">
<path d="M6.22698 7.57217L15.7905 2.21798C16.2236 1.99187 16.708 1.88204 17.1963 1.89921C17.6846 1.91638 18.1601 2.05997 18.5763 2.31594C19.0152 2.58338 19.3772 2.9602 19.6267 3.40952C19.8762 3.85883 20.0048 4.36525 19.9998 4.87918V15.122C20.0046 15.6359 19.8761 16.1423 19.6269 16.5918C19.3776 17.0412 19.0161 17.4184 18.5776 17.6865C18.1337 17.9579 17.6236 18.1018 17.1033 18.1025C16.6398 18.1013 16.1835 17.9888 15.7727 17.7742L6.22826 12.434C5.79594 12.1923 5.4359 11.8396 5.18524 11.4124C4.93459 10.9851 4.80238 10.4988 4.80225 10.0035C4.80211 9.50812 4.93406 9.02171 5.18449 8.59434C5.43491 8.16698 5.79476 7.81412 6.22696 7.57212L6.22698 7.57217Z" fill="#171723"/>
<path d="M0 3.20007V16.7998C0 17.1453 0.137239 17.4766 0.381526 17.7209C0.625813 17.9652 0.957137 18.1025 1.30261 18.1025C1.64808 18.1025 1.97941 17.9652 2.2237 17.7209C2.46798 17.4766 2.60522 17.1453 2.60522 16.7998V3.20007C2.60522 2.8546 2.46798 2.52327 2.2237 2.27899C1.97941 2.0347 1.64808 1.89746 1.30261 1.89746C0.957137 1.89746 0.625813 2.0347 0.381526 2.27899C0.137239 2.52327 0 2.8546 0 3.20007Z" fill="#171723"/>
</g>
</g>
<defs>
<clipPath id="clip0_5313_35234">
<rect width="20" height="20" fill="white"/>
</clipPath>
<clipPath id="clip1_5313_35234">
<rect width="20" height="20" fill="white"/>
</clipPath>
</defs>
</svg>
