<svg width="20" height="20" viewBox="0 0 20 20" fill="none" xmlns="http://www.w3.org/2000/svg">
<path d="M10.6278 8.92988L17.3779 5.15059C17.6477 5.00994 17.9493 4.94156 18.2534 4.95211C18.5574 4.96266 18.8536 5.05179 19.113 5.21081C19.3864 5.3777 19.6119 5.61266 19.7673 5.89274C19.9228 6.17283 20.0029 6.48845 19.9999 6.80877V13.1919C20.0029 13.5122 19.9228 13.8278 19.7673 14.1079C19.6119 14.388 19.3864 14.623 19.113 14.7898C18.8369 14.9589 18.5196 15.0486 18.1959 15.049C17.9068 15.0481 17.6222 14.9777 17.366 14.8437L10.6286 11.0747C10.438 10.968 10.2793 10.8124 10.1688 10.6239C10.0584 10.4355 10.0001 10.221 10 10.0025C9.99992 9.78409 10.058 9.56957 10.1684 9.38104C10.2787 9.19251 10.4373 9.03678 10.6278 8.92986V8.92988Z" fill="#171723"/>
<path d="M0.627772 8.92988L7.37788 5.15059C7.64767 5.00994 7.94928 4.94156 8.25335 4.95211C8.55742 4.96266 8.85357 5.05179 9.11296 5.21081C9.38639 5.3777 9.61186 5.61266 9.76733 5.89275C9.92279 6.17284 10.0029 6.48847 9.99992 6.80879V13.1919C10.0029 13.5122 9.92278 13.8279 9.76732 14.1079C9.61186 14.388 9.38639 14.623 9.11296 14.7899C8.83691 14.9589 8.51958 15.0486 8.19587 15.0491C7.90679 15.0481 7.62218 14.9777 7.36599 14.8438L0.628565 11.0748C0.437993 10.968 0.279307 10.8124 0.168831 10.6239C0.0583563 10.4355 8.08314e-05 10.221 8.40277e-08 10.0026C-8.06633e-05 9.78411 0.0580363 9.56959 0.168372 9.38106C0.278708 9.19253 0.437279 9.0368 0.627772 8.92988Z" fill="#171723"/>
</svg>
