<svg width="20" height="20" viewBox="0 0 20 20" fill="none" xmlns="http://www.w3.org/2000/svg">
<path d="M16.2467 3.44671L6.24667 9.28004C6.12077 9.35341 6.01632 9.4585 5.94372 9.58483C5.87112 9.71117 5.83291 9.85433 5.83291 10C5.83291 10.1458 5.87112 10.2889 5.94372 10.4153C6.01632 10.5416 6.12077 10.6467 6.24667 10.72L16.2467 16.5534C16.3733 16.6273 16.5172 16.6665 16.6638 16.667C16.8105 16.6674 16.9546 16.6293 17.0818 16.5562C17.2089 16.4832 17.3145 16.3779 17.388 16.251C17.4614 16.124 17.5 15.98 17.5 15.8334V4.16671C17.5 4.02008 17.4614 3.87604 17.388 3.74912C17.3145 3.62221 17.2089 3.51691 17.0818 3.44388C16.9546 3.37084 16.8105 3.33264 16.6638 3.33313C16.5172 3.33363 16.3733 3.37281 16.2467 3.44671Z" fill="#171723"/>
<path d="M3.33333 3.33338C3.53744 3.3334 3.73445 3.40834 3.88698 3.54397C4.03951 3.67961 4.13695 3.8665 4.16083 4.06921L4.16667 4.16671V15.8334C4.16643 16.0458 4.0851 16.2501 3.93929 16.4045C3.79349 16.559 3.59421 16.6519 3.38217 16.6644C3.17014 16.6768 2.96135 16.6078 2.79847 16.4715C2.6356 16.3352 2.53092 16.1418 2.50583 15.9309L2.5 15.8334V4.16671C2.5 3.9457 2.5878 3.73373 2.74408 3.57745C2.90036 3.42117 3.11232 3.33338 3.33333 3.33338Z" fill="#171723"/>
</svg>
