<svg width="20" height="20" viewBox="0 0 20 20" fill="none" xmlns="http://www.w3.org/2000/svg">
<path d="M16.9508 3.53919L10.2842 9.37252C10.1947 9.45074 10.1229 9.5472 10.0738 9.65543C10.0246 9.76366 9.99919 9.88115 9.99919 10C9.99919 10.1189 10.0246 10.2364 10.0738 10.3446C10.1229 10.4528 10.1947 10.5493 10.2842 10.6275L16.9508 16.4609C17.49 16.9317 18.3333 16.5492 18.3333 15.8334V4.16669C18.3333 3.45002 17.49 3.06836 16.9508 3.53919Z" fill="#171723"/>
<path d="M7.78417 3.53919L1.1175 9.37252C1.02799 9.45074 0.956256 9.5472 0.907103 9.65543C0.85795 9.76366 0.83252 9.88115 0.83252 10C0.83252 10.1189 0.85795 10.2364 0.907103 10.3446C0.956256 10.4528 1.02799 10.5493 1.1175 10.6275L7.78417 16.4609C8.32334 16.9317 9.16667 16.5492 9.16667 15.8334V4.16669C9.16667 3.45002 8.32334 3.06836 7.78417 3.53919Z" fill="#171723"/>
</svg>
