<svg width="20" height="20" viewBox="0 0 20 20" fill="none" xmlns="http://www.w3.org/2000/svg">
<path d="M0.186194 10.1095C1.55829 11.8007 2.96549 12.2655 3.98439 12.349C3.22392 13.0397 2.4041 14.2327 2.18333 16.2993C2.10496 17.0329 2.85948 17.7639 5.38691 16.8091C5.11494 19.6118 5.97386 20.2028 6.63363 19.9455C8.9421 19.0456 9.78015 17.5314 10.1113 16.5143L10.1114 16.5141L10.1255 16.4942C10.4879 17.5059 11.3519 18.9236 13.5543 19.7822C14.2141 20.0395 15.073 19.4485 14.801 16.6458C17.3284 17.6006 18.083 16.8695 18.0046 16.136C17.824 14.4451 17.2423 13.3391 16.6203 12.6144C17.5409 12.4355 18.6565 11.9226 19.7879 10.6675C20.2715 10.1311 20.0884 9.07112 17.522 8.23854C19.3476 6.17181 19.0007 5.15779 18.3262 4.94682C16.0323 4.2293 14.5148 4.85197 13.6526 5.44139L13.6542 5.37075L13.6535 5.32846L13.6542 5.32838C13.9903 4.3131 14.219 2.57873 12.9281 0.378962C12.5592 -0.2497 11.5355 -0.338603 10.1044 2.0456C8.67328 -0.338603 7.64953 -0.2497 7.28063 0.378962C6.05181 2.47301 6.19997 4.1453 6.50703 5.17704C5.66386 4.55518 4.19692 3.90168 1.93137 4.47681C1.24724 4.65048 0.850265 5.64405 2.57025 7.80815C-0.0342066 8.49873 -0.26994 9.54727 0.186194 10.1095Z" fill="url(#paint0_linear_19080_2062)"/>
<path d="M11.6027 7.26277C11.6907 7.06515 11.628 6.81968 11.4628 6.71449C11.2975 6.60929 11.0922 6.68422 11.0043 6.88183L8.3975 12.7376C8.30953 12.9353 8.37219 13.1807 8.53745 13.2859C8.70271 13.3911 8.90799 13.3162 8.99596 13.1186L11.6027 7.26277Z" fill="#21233D"/>
<path d="M7.30508 8.18648C7.19276 8.00739 6.98028 7.97109 6.83051 8.10541L5.13559 9.62548C5.05024 9.70203 5 9.82217 5 9.94976C5 10.0773 5.05024 10.1975 5.13559 10.274L6.83051 11.7941C6.98028 11.9284 7.19276 11.8921 7.30508 11.713C7.41741 11.5339 7.38706 11.2799 7.23729 11.1455L5.90395 9.94976L7.23729 8.75397C7.38706 8.61965 7.41741 8.36558 7.30508 8.18648Z" fill="#21233D"/>
<path d="M12.6949 8.18648C12.8072 8.00739 13.0197 7.97109 13.1695 8.10541L14.8644 9.62548C14.9498 9.70203 15 9.82217 15 9.94976C15 10.0773 14.9498 10.1975 14.8644 10.274L13.1695 11.7941C13.0197 11.9284 12.8072 11.8921 12.6949 11.713C12.5826 11.5339 12.6129 11.2799 12.7627 11.1455L14.096 9.94976L12.7627 8.75397C12.6129 8.61965 12.5826 8.36558 12.6949 8.18648Z" fill="#21233D"/>
<defs>
<linearGradient id="paint0_linear_19080_2062" x1="10" y1="0" x2="10" y2="20" gradientUnits="userSpaceOnUse">
<stop stop-color="#FAD5DD"/>
<stop offset="1" stop-color="#ED7AB0"/>
</linearGradient>
</defs>
</svg>
