<svg width="20" height="20" viewBox="0 0 20 20" fill="none" xmlns="http://www.w3.org/2000/svg">
<path d="M16.4676 1.36015e-06H3.53259C3.33125 -0.000266462 3.13184 0.0390203 2.94577 0.115611C2.75971 0.192202 2.59065 0.304592 2.44829 0.446342C2.30592 0.588092 2.19304 0.756417 2.11611 0.941674C2.03919 1.12693 1.99973 1.32548 2 1.52594V19.4507C2 19.4812 2.01022 19.5015 2.01022 19.5321C2.01693 19.5702 2.02719 19.6077 2.04087 19.644C2.07791 19.7357 2.14127 19.8145 2.22304 19.8706C2.30481 19.9267 2.40137 19.9576 2.50065 19.9593H2.51086C2.55245 19.9575 2.59366 19.9507 2.63359 19.939C2.65626 19.9299 2.6808 19.9264 2.70511 19.9288L4.93247 19.0235L7.28231 19.9695C7.40851 20.0101 7.54437 20.0101 7.67056 19.9695L10.0103 19.0234L12.3603 19.9695C12.4864 20.0102 12.6223 20.0102 12.7484 19.9695L15.0881 19.0234L17.295 19.9186C17.3256 19.9288 17.3461 19.9186 17.3666 19.9288C17.4065 19.9405 17.4476 19.9473 17.4892 19.9491H17.5096C17.6072 19.9457 17.7018 19.9141 17.7816 19.8581C17.8615 19.8021 17.9232 19.7241 17.9592 19.6337C17.975 19.5986 17.982 19.5602 17.9797 19.5218C17.9911 19.4961 17.998 19.4686 18 19.4405V1.52594C18.0003 1.32549 17.9608 1.12696 17.8839 0.941716C17.807 0.756472 17.6941 0.588155 17.5518 0.446407C17.4094 0.304659 17.2404 0.192265 17.0544 0.115664C16.8683 0.0390621 16.6689 -0.000242356 16.4676 1.36015e-06ZM10.2555 15.5443C10.2549 15.4773 10.2676 15.4108 10.2931 15.3488C10.3185 15.2868 10.3561 15.2305 10.4037 15.1831C10.4512 15.1358 10.5078 15.0983 10.5701 15.073C10.6324 15.0477 10.6991 15.035 10.7664 15.0356H15.0781C15.2135 15.0356 15.3435 15.0892 15.4393 15.1846C15.5351 15.28 15.5889 15.4094 15.5889 15.5443C15.5889 15.6792 15.5351 15.8085 15.4393 15.9039C15.3435 15.9993 15.2135 16.0529 15.0781 16.0529H10.7664C10.6991 16.0536 10.6324 16.0409 10.5701 16.0155C10.5078 15.9902 10.4513 15.9528 10.4037 15.9054C10.3561 15.858 10.3185 15.8017 10.2931 15.7397C10.2677 15.6777 10.2549 15.6112 10.2556 15.5443H10.2555ZM6.29124 12.0956C6.36991 12.1755 6.46367 12.2391 6.56713 12.2828C6.67059 12.3264 6.78169 12.3492 6.89405 12.35H7.34361C7.83716 12.3497 8.31085 12.5435 8.66163 12.8891C9.00858 13.2385 9.20317 13.7101 9.20317 14.2014C9.20317 14.6928 9.00858 15.1643 8.66163 15.5137C8.32175 15.8385 7.87542 16.03 7.40492 16.0529V16.4395C7.40453 16.5743 7.35059 16.7034 7.25487 16.7987C7.15914 16.894 7.02943 16.9478 6.89405 16.9481C6.82678 16.9488 6.76005 16.9361 6.69777 16.9108C6.63549 16.8854 6.5789 16.848 6.53133 16.8006C6.48376 16.7533 6.44616 16.6969 6.42072 16.6349C6.39528 16.5729 6.38252 16.5065 6.38319 16.4395V16.0529H5.5351C5.39961 16.0529 5.26967 15.9993 5.17387 15.9039C5.07806 15.8085 5.02424 15.6792 5.02424 15.5443C5.02424 15.4094 5.07806 15.28 5.17387 15.1846C5.26967 15.0892 5.39961 15.0356 5.5351 15.0356H7.34361C7.45366 15.0357 7.56264 15.0142 7.66433 14.9723C7.76601 14.9304 7.85841 14.869 7.93622 14.7915C8.01404 14.714 8.07575 14.622 8.11782 14.5208C8.15989 14.4195 8.18151 14.311 8.18143 14.2014C8.18091 13.9803 8.09279 13.7683 7.93621 13.6114C7.85904 13.5331 7.76677 13.4711 7.66493 13.4291C7.5631 13.3872 7.45381 13.3661 7.34361 13.3673H6.89405C6.5242 13.3684 6.16236 13.26 5.85458 13.0558C5.5468 12.8516 5.30699 12.5608 5.16567 12.2205C5.02435 11.8802 4.98791 11.5057 5.06099 11.1447C5.13406 10.7837 5.31335 10.4525 5.57603 10.1933C5.911 9.86124 6.36029 9.66848 6.83275 9.65413V9.26756C6.8321 9.20058 6.84487 9.13414 6.87031 9.07214C6.89575 9.01013 6.93336 8.9538 6.98092 8.90644C7.02849 8.85908 7.08507 8.82164 7.14735 8.7963C7.20962 8.77097 7.27634 8.75826 7.34361 8.75891C7.47898 8.7593 7.60869 8.81302 7.70441 8.90832C7.80013 9.00363 7.85408 9.13277 7.85447 9.26756V9.65413H8.69229C8.82778 9.65413 8.95771 9.70772 9.05352 9.80311C9.14932 9.8985 9.20315 10.0279 9.20315 10.1628C9.20315 10.2977 9.14932 10.4271 9.05352 10.5224C8.95771 10.6178 8.82778 10.6714 8.69229 10.6714H6.89405C6.78233 10.6702 6.67148 10.6912 6.56799 10.7331C6.46449 10.7751 6.37041 10.8371 6.29124 10.9156C6.13625 11.0735 6.04837 11.2848 6.0459 11.5056C6.04644 11.7268 6.13463 11.9388 6.2913 12.0956H6.29124ZM15.5889 3.21465C15.5885 3.34944 15.5346 3.47859 15.4389 3.5739C15.3431 3.66921 15.2134 3.72292 15.0781 3.7233H8.26328C8.196 3.72396 8.12927 3.71126 8.06699 3.68594C8.00471 3.66061 7.94812 3.62317 7.90055 3.5758C7.85298 3.52844 7.81538 3.4721 7.78994 3.41009C7.7645 3.34808 7.75175 3.28163 7.75241 3.21465C7.75281 3.07987 7.80676 2.95072 7.90248 2.85542C7.9982 2.76011 8.12791 2.7064 8.26328 2.70601H15.0781C15.2129 2.70813 15.3416 2.7624 15.4369 2.85733C15.5323 2.95226 15.5868 3.08041 15.5889 3.21465ZM6.1482 3.22483C6.1482 3.38671 6.08361 3.54196 5.96864 3.65643C5.85368 3.7709 5.69775 3.8352 5.53516 3.8352C5.37258 3.8352 5.21665 3.7709 5.10168 3.65643C4.98672 3.54196 4.92213 3.38671 4.92213 3.22483C4.92213 3.06294 4.98672 2.90769 5.10168 2.79322C5.21665 2.67876 5.37258 2.61445 5.53516 2.61445C5.69775 2.61445 5.85368 2.67876 5.96864 2.79322C6.08361 2.90769 6.1482 3.06294 6.1482 3.22483ZM5.53506 5.26959C5.65631 5.26956 5.77485 5.30533 5.87569 5.37238C5.97652 5.43943 6.05512 5.53475 6.10154 5.64628C6.14796 5.75781 6.16012 5.88054 6.13649 5.99895C6.11285 6.11736 6.05448 6.22614 5.96875 6.31151C5.88302 6.39689 5.77379 6.45504 5.65487 6.4786C5.53595 6.50217 5.41268 6.49009 5.30065 6.44389C5.18863 6.3977 5.09287 6.31947 5.02551 6.21909C4.95814 6.11871 4.92218 6.00069 4.92218 5.87996C4.92266 5.71825 4.98739 5.5633 5.10223 5.44894C5.21707 5.33458 5.37268 5.2701 5.5351 5.26959H5.53506ZM8.26323 6.38861C8.12775 6.38861 7.99781 6.33502 7.902 6.23963C7.8062 6.14424 7.75237 6.01487 7.75237 5.87996C7.75237 5.74506 7.8062 5.61569 7.902 5.5203C7.99781 5.42491 8.12775 5.37132 8.26323 5.37132H15.0781C15.2135 5.37132 15.3435 5.42491 15.4393 5.5203C15.5351 5.61569 15.5889 5.74506 15.5889 5.87996C15.5889 6.01487 15.5351 6.14424 15.4393 6.23963C15.3435 6.33502 15.2135 6.38861 15.0781 6.38861H8.26323ZM15.0781 10.6714H10.7664C10.6309 10.6714 10.501 10.6178 10.4051 10.5224C10.3093 10.4271 10.2555 10.2977 10.2555 10.1628C10.2555 10.0279 10.3093 9.8985 10.4051 9.80311C10.501 9.70772 10.6309 9.65413 10.7664 9.65413H15.0781C15.2135 9.65413 15.3435 9.70772 15.4393 9.80311C15.5351 9.8985 15.5889 10.0279 15.5889 10.1628C15.5889 10.2977 15.5351 10.4271 15.4393 10.5224C15.3435 10.6178 15.2135 10.6714 15.0781 10.6714ZM15.5889 12.8586C15.5868 12.9928 15.5323 13.121 15.4369 13.2159C15.3416 13.3109 15.2129 13.3651 15.0781 13.3673H10.7664C10.631 13.3669 10.5013 13.3131 10.4056 13.2178C10.3099 13.1225 10.2559 12.9934 10.2555 12.8586C10.2549 12.7916 10.2676 12.7252 10.293 12.6632C10.3185 12.6012 10.3561 12.5448 10.4037 12.4975C10.4512 12.4501 10.5078 12.4127 10.5701 12.3873C10.6324 12.362 10.6991 12.3493 10.7664 12.35H15.0781C15.2134 12.3503 15.3431 12.4041 15.4389 12.4994C15.5346 12.5947 15.5885 12.7238 15.5889 12.8586Z" fill="#171723"/>
</svg>
