<svg width="20" height="20" viewBox="0 0 20 20" fill="none" xmlns="http://www.w3.org/2000/svg">
<path d="M17.0588 0V1.17647H18.8235V2.94118H20V0H17.0588Z" fill="black"/>
<path d="M1.17647 1.17647H2.94118V0H0V2.94118H1.17647V1.17647Z" fill="black"/>
<path d="M18.8235 18.8235H17.0588V20H20V17.0588H18.8235V18.8235Z" fill="black"/>
<path d="M1.17647 17.0588H0V20H2.94118V18.8235H1.17647V17.0588Z" fill="black"/>
<path d="M10.4825 2.5H11.886V3.90351H10.4825V2.5Z" fill="black"/>
<path d="M13.2895 5.30702H14.6926V6.71057H13.2895V5.30702Z" fill="black"/>
<path d="M10.4825 5.30706H11.8855V6.71057H10.4825V5.30706Z" fill="black"/>
<path d="M13.2894 8.11408H14.6929V9.51759H13.2894V8.11408Z" fill="black"/>
<path d="M7.67539 2.5H9.0789V3.90351H7.67539V2.5Z" fill="black"/>
<path d="M16.7982 2.5H16.0965V3.90355H17.5V3.20175C17.5 2.8142 17.1858 2.5 16.7982 2.5Z" fill="black"/>
<path d="M13.2895 2.5H14.693V3.90351H13.2895V2.5Z" fill="black"/>
<path d="M14.6929 13.2375V11.09H12.5877C12.2001 11.09 11.8859 10.7695 11.8859 10.3742V8.22668H9.7807C9.39314 8.22668 9.07895 7.90618 9.07895 7.51085V5.36332H6.97363C6.58608 5.36332 6.27188 5.04282 6.27188 4.64749V2.5H3.20175C2.8142 2.5 2.5 2.8205 2.5 3.21583V16.7842C2.5 17.1795 2.8142 17.5 3.20175 17.5H16.7982C17.1858 17.5 17.5 17.1795 17.5 16.7842V13.9533H15.3947C15.0071 13.9533 14.6929 13.6328 14.6929 13.2375Z" fill="black"/>
<path d="M16.0964 10.9212H17.5V12.3246H16.0964V10.9212Z" fill="black"/>
<path d="M16.0964 5.30706H17.5V6.71057H16.0964V5.30706Z" fill="black"/>
<path d="M16.0965 8.11417H17.5V9.51754H16.0965V8.11417Z" fill="black"/>
</svg>
