<svg width="20" height="20" viewBox="0 0 20 20" fill="none" xmlns="http://www.w3.org/2000/svg">
<path fill-rule="evenodd" clip-rule="evenodd" d="M0.00391643 3.85272C0.000845199 3.88317 -0.000432322 3.91387 0.000128461 3.94464V17.2978C-0.00116715 17.3689 0.0073254 17.4407 0.0261602 17.5111C0.0505137 17.6025 0.0911752 17.6873 0.144826 17.762C0.210062 17.8533 0.292376 17.9265 0.384751 17.9799C0.476961 18.0335 0.58127 18.0683 0.692554 18.0794C0.783892 18.0887 0.877382 18.0816 0.968487 18.0571C1.03843 18.0383 1.10445 18.0099 1.16504 17.9734C2.44864 17.2322 3.90365 16.8421 5.38467 16.8421C6.8657 16.8421 8.32071 17.2322 9.60431 17.9734C9.7131 18.039 9.83939 18.0784 9.97449 18.0828C9.98299 18.0831 9.9915 18.0832 10 18.0832C10.0083 18.0832 10.0166 18.0831 10.0249 18.0828C10.1602 18.0785 10.2867 18.0391 10.3957 17.9734C11.6793 17.2322 13.1343 16.8421 14.6153 16.8421C16.0964 16.8421 17.5514 17.2322 18.835 17.9734C18.8955 18.0099 18.9616 18.0383 19.0315 18.0571C19.1226 18.0816 19.2161 18.0887 19.3074 18.0794C19.4187 18.0683 19.523 18.0335 19.6152 17.98C19.708 17.9263 19.7907 17.8526 19.8561 17.7607C19.909 17.6867 19.9492 17.6028 19.9735 17.5124C19.9926 17.4416 20.0012 17.3693 19.9999 17.2977V3.94472C20.0004 3.91371 19.9991 3.88276 19.996 3.85206C19.9849 3.7406 19.9502 3.63613 19.8969 3.54377C19.8438 3.45116 19.7709 3.36863 19.68 3.3032C19.6551 3.28513 19.629 3.26853 19.6019 3.25352C18.085 2.37768 16.3655 1.91667 14.6153 1.91667C13.0064 1.91667 11.4235 2.30625 10 3.04953C8.57651 2.30625 6.99358 1.91667 5.38467 1.91667C3.63446 1.91667 1.915 2.37769 0.398079 3.25353C0.371059 3.2685 0.345031 3.28506 0.320121 3.30307C0.229237 3.36852 0.156261 3.45109 0.103071 3.54376C0.0497133 3.63631 0.0149524 3.74101 0.00391643 3.85272ZM18.4614 4.38865C17.2723 3.77963 15.9545 3.46067 14.6153 3.46067C13.2762 3.46067 11.9583 3.77963 10.7692 4.38865V16.0701C11.984 15.5621 13.2909 15.2981 14.6153 15.2981C15.9398 15.2981 17.2466 15.5621 18.4614 16.0701V4.38865ZM9.23078 4.38865V16.0701C8.01598 15.5621 6.70913 15.2981 5.38467 15.2981C4.06022 15.2981 2.75336 15.5621 1.53857 16.0701V4.38865C2.72768 3.77963 4.04554 3.46067 5.38467 3.46067C6.72381 3.46067 8.04167 3.77963 9.23078 4.38865Z" fill="#171723"/>
</svg>
