<svg width="20" height="20" viewBox="0 0 20 20" fill="none" xmlns="http://www.w3.org/2000/svg">
<path d="M4.82064 17.2627C4.24189 17.2627 3.74994 17.0602 3.3448 16.6552C2.9398 16.2501 2.7373 15.7581 2.7373 15.1794C2.7373 14.7126 2.88522 14.2959 3.18105 13.9294C3.47703 13.563 3.843 13.304 4.27897 13.1523V6.80605C3.843 6.65439 3.47703 6.39883 3.18105 6.03939C2.88522 5.6798 2.7373 5.27355 2.7373 4.82064C2.7373 4.228 2.9398 3.73258 3.3448 3.33439C3.74994 2.93633 4.24189 2.7373 4.82064 2.7373C5.28744 2.7373 5.70064 2.88175 6.06022 3.17064C6.41967 3.45967 6.67522 3.82911 6.82689 4.27897H13.194C13.3372 3.81522 13.5926 3.4423 13.9602 3.16022C14.3279 2.87828 14.7342 2.7373 15.1794 2.7373C15.772 2.7373 16.2674 2.93633 16.6656 3.33439C17.0637 3.73258 17.2627 4.228 17.2627 4.82064C17.2627 5.26578 17.1217 5.67217 16.8398 6.0398C16.5577 6.40744 16.1848 6.66286 15.7211 6.80605V13.1731C16.1709 13.3248 16.5404 13.5804 16.8294 13.9398C17.1183 14.2994 17.2627 14.7126 17.2627 15.1794C17.2627 15.7581 17.0637 16.2501 16.6656 16.6552C16.2674 17.0602 15.772 17.2627 15.1794 17.2627C14.7265 17.2627 14.3167 17.1148 13.9502 16.819C13.5838 16.523 13.3248 16.157 13.1731 15.7211H6.82689C6.67522 16.157 6.41967 16.523 6.06022 16.819C5.70064 17.1148 5.28744 17.2627 4.82064 17.2627ZM4.82064 5.82064C5.10397 5.82064 5.34147 5.72481 5.53314 5.53314C5.7248 5.34147 5.82064 5.10397 5.82064 4.82064C5.82064 4.5373 5.7248 4.2998 5.53314 4.10814C5.34147 3.91647 5.10397 3.82064 4.82064 3.82064C4.5373 3.82064 4.2998 3.91647 4.10814 4.10814C3.91647 4.2998 3.82064 4.5373 3.82064 4.82064C3.82064 5.10397 3.91647 5.34147 4.10814 5.53314C4.2998 5.72481 4.5373 5.82064 4.82064 5.82064ZM15.1794 5.82064C15.4627 5.82064 15.7002 5.72481 15.8919 5.53314C16.0836 5.34147 16.1794 5.10397 16.1794 4.82064C16.1794 4.5373 16.0836 4.2998 15.8919 4.10814C15.7002 3.91647 15.4627 3.82064 15.1794 3.82064C14.8961 3.82064 14.6586 3.91647 14.4669 4.10814C14.2752 4.2998 14.1794 4.5373 14.1794 4.82064C14.1794 5.10397 14.2752 5.34147 14.4669 5.53314C14.6586 5.72481 14.8961 5.82064 15.1794 5.82064ZM6.82689 14.6377H13.194C13.3055 14.2805 13.4883 13.973 13.7423 13.7152C13.9963 13.4574 14.2948 13.2698 14.6377 13.1523V6.80605C14.2948 6.69397 13.9922 6.51182 13.73 6.2596C13.4677 6.00737 13.282 5.70828 13.1731 5.3623H6.82689C6.71536 5.70828 6.53258 6.00599 6.27855 6.25543C6.02453 6.50501 5.71911 6.68855 5.36231 6.80605V13.1731C5.71606 13.2854 6.02057 13.469 6.27585 13.7242C6.53099 13.9795 6.71467 14.284 6.82689 14.6377ZM15.1794 16.1794C15.4627 16.1794 15.7002 16.0836 15.8919 15.8919C16.0836 15.7002 16.1794 15.4627 16.1794 15.1794C16.1794 14.8961 16.0836 14.6586 15.8919 14.4669C15.7002 14.2752 15.4627 14.1794 15.1794 14.1794C14.8961 14.1794 14.6586 14.2752 14.4669 14.4669C14.2752 14.6586 14.1794 14.8961 14.1794 15.1794C14.1794 15.4627 14.2752 15.7002 14.4669 15.8919C14.6586 16.0836 14.8961 16.1794 15.1794 16.1794ZM4.82064 16.1794C5.10397 16.1794 5.34147 16.0836 5.53314 15.8919C5.7248 15.7002 5.82064 15.4627 5.82064 15.1794C5.82064 14.8961 5.7248 14.6586 5.53314 14.4669C5.34147 14.2752 5.10397 14.1794 4.82064 14.1794C4.5373 14.1794 4.2998 14.2752 4.10814 14.4669C3.91647 14.6586 3.82064 14.8961 3.82064 15.1794C3.82064 15.4627 3.91647 15.7002 4.10814 15.8919C4.2998 16.0836 4.5373 16.1794 4.82064 16.1794Z" fill="#171723"/>
</svg>
