<svg width="20" height="20" viewBox="0 0 20 20" fill="none" xmlns="http://www.w3.org/2000/svg">
<path d="M20 11.7682V12.9346H16.1918V7.06539H17.5326V11.7682H20ZM2.39292 12.9346C3.76662 12.9346 4.92117 12.0015 5.25014 10.7388L8.58969 13.3327L11.9274 10.74V12.9346H15.7356V11.7682H13.2682V7.06539H11.9274V9.26002L8.72624 11.7466L8.01055 11.1905L11.211 8.70396L10.2589 7.96336L7.0571 10.4505L6.34141 9.89447L9.54252 7.40791L8.58969 6.66731L5.25014 9.26126C4.92117 7.99854 3.76662 7.06539 2.39292 7.06539H0V12.9346H2.39292ZM1.34078 11.7682V8.23183H2.39292C3.28243 8.23183 4.00372 9.02365 4.00372 10C4.00372 10.9763 3.28243 11.7682 2.39292 11.7682H1.34078Z" fill="#171723"/>
</svg>
