<svg width="20" height="20" viewBox="0 0 20 20" fill="none" xmlns="http://www.w3.org/2000/svg">
<g clip-path="url(#clip0_18703_1696)">
<path d="M10 0C4.48569 0 0 4.48562 0 10C0 15.5143 4.48569 20 10 20C15.5143 20 20 15.5143 20 10C20 4.48562 15.5143 0 10 0ZM1.25001 10C1.25001 7.81228 2.06285 5.81453 3.39495 4.2787L15.7213 16.605C14.1855 17.9371 12.1878 18.75 10 18.75C5.1754 18.75 1.24998 14.8246 1.25001 10ZM16.6051 15.7213L4.27877 3.39495C5.81456 2.06285 7.81231 1.25001 10.0001 1.25001C14.8247 1.25001 18.7501 5.1754 18.7501 10C18.7501 12.1877 17.9372 14.1855 16.6051 15.7213Z" fill="#171723"/>
</g>
<defs>
<clipPath id="clip0_18703_1696">
<rect width="20" height="20" fill="white"/>
</clipPath>
</defs>
</svg>
