<svg width="20" height="20" viewBox="0 0 20 20" fill="none" xmlns="http://www.w3.org/2000/svg">
<g clip-path="url(#clip0_5313_35212)">
<g clip-path="url(#clip1_5313_35212)">
<path d="M19.187 4.30385C19.5613 3.96508 19.8229 3.51982 19.9365 3.02796C20.0502 2.53611 20.0105 2.02124 19.8228 1.55261C19.6351 1.08398 19.3084 0.684066 18.8865 0.406648C18.4647 0.129229 17.9681 -0.0123853 17.4634 0.000849917C17.1289 0.00813959 16.7995 0.0838193 16.4954 0.223228C16.1913 0.362636 15.9189 0.562821 15.6951 0.811452L10.4142 6.61264C10.3838 6.64748 10.3465 6.67562 10.3047 6.69526C10.2628 6.71491 10.2173 6.72563 10.1711 6.72674C10.122 6.72689 10.0733 6.71723 10.028 6.69831C9.98269 6.6794 9.9416 6.65162 9.90716 6.6166L8.77595 5.4855C8.35152 5.07092 7.78155 4.83907 7.1882 4.83962C6.59485 4.84018 6.02532 5.0731 5.60167 5.48848L3.54961 7.54026C3.54304 7.54684 3.541 7.55564 3.53485 7.56246L0.829889 10.2772C0.313221 10.788 0.0157843 11.4799 0.000610313 12.2063C-0.0145636 12.9327 0.253718 13.6364 0.748601 14.1684L3.27868 11.6386C3.32556 11.5904 3.38163 11.552 3.44359 11.5258C3.50555 11.4997 3.57213 11.4862 3.63939 11.4862C3.70666 11.4862 3.77324 11.4997 3.8352 11.5258C3.89716 11.552 3.95323 11.5904 4.00011 11.6386C4.09294 11.7337 4.14491 11.8613 4.14491 11.9942C4.14491 12.127 4.09294 12.2546 4.00011 12.3497L1.45987 14.8896L5.73763 19.1669C5.99782 19.4308 6.30788 19.6403 6.64977 19.7833C6.99166 19.9263 7.35857 20 7.72918 20C8.09979 20 8.4667 19.9263 8.80859 19.7833C9.15048 19.6403 9.46053 19.4308 9.72073 19.1669L12.4255 16.4625C12.4322 16.4565 12.4411 16.4542 12.4474 16.4479L14.5004 14.3951C14.9213 13.9735 15.1576 13.4022 15.1576 12.8066C15.1576 12.211 14.9213 11.6397 14.5004 11.2181L13.3782 10.097C13.3423 10.0609 13.3141 10.0177 13.2955 9.97029C13.2769 9.92286 13.2682 9.87211 13.27 9.82119C13.2712 9.7729 13.282 9.72534 13.302 9.68134C13.3219 9.63735 13.3505 9.59784 13.3861 9.56516L19.187 4.30385ZM12.6538 10.8094L13.782 11.9365C14.0127 12.1674 14.1422 12.4803 14.1422 12.8066C14.1422 13.1329 14.0127 13.4459 13.782 13.6768L12.0882 15.3704L4.62723 7.89943L6.31708 6.20978C6.54979 5.98183 6.86242 5.85391 7.18819 5.85335C7.51396 5.85279 7.82703 5.97965 8.06052 6.2068L9.18378 7.32993C9.45518 7.59613 9.82071 7.74446 10.2009 7.74266C10.3857 7.73767 10.5675 7.69466 10.735 7.6163C10.9025 7.53795 11.052 7.42595 11.1743 7.28727L16.4482 1.49405C16.5798 1.3474 16.74 1.22935 16.9191 1.14725C17.0982 1.06516 17.2922 1.02076 17.4891 1.01682C17.6872 1.00666 17.8851 1.03935 18.0693 1.11264C18.2536 1.18593 18.4199 1.2981 18.5568 1.4415C18.6976 1.58048 18.8084 1.74681 18.8824 1.93024C18.9563 2.11367 18.992 2.31031 18.987 2.50803C18.9821 2.70576 18.9367 2.90038 18.8537 3.07989C18.7707 3.25941 18.6517 3.42002 18.5042 3.55182L12.7023 8.81423L12.7003 8.81524C12.564 8.93933 12.4541 9.0897 12.3774 9.25731C12.3007 9.42491 12.2586 9.6063 12.2538 9.79058C12.2481 9.97861 12.2807 10.1658 12.3494 10.341C12.4182 10.5161 12.5217 10.6754 12.6538 10.8094Z" fill="#171723"/>
</g>
</g>
<defs>
<clipPath id="clip0_5313_35212">
<rect width="20" height="20" fill="white"/>
</clipPath>
<clipPath id="clip1_5313_35212">
<rect width="20" height="20" fill="white"/>
</clipPath>
</defs>
</svg>
