<svg width="20" height="20" viewBox="0 0 20 20" fill="none" xmlns="http://www.w3.org/2000/svg">
<g clip-path="url(#clip0_5313_35151)">
<g clip-path="url(#clip1_5313_35151)">
<path d="M19.1885 4.30723C19.4366 4.08205 19.6364 3.80882 19.7758 3.50411C19.9152 3.19939 19.9912 2.86955 19.9993 2.53457C20.0074 2.1996 19.9473 1.86647 19.8228 1.5554C19.6983 1.24432 19.5119 0.96178 19.2749 0.724904C19.0367 0.489007 18.7536 0.303335 18.4424 0.178899C18.1311 0.0544639 17.798 -0.00620168 17.4629 0.00050053C17.1282 0.0074118 16.7985 0.08293 16.4941 0.222383C16.1898 0.361836 15.9173 0.562257 15.6935 0.811246L10.4273 6.61143C10.3945 6.64749 10.3547 6.67653 10.3103 6.69683C10.266 6.71712 10.218 6.72824 10.1693 6.72952C10.1205 6.73201 10.0717 6.7239 10.0263 6.70574C9.98088 6.68758 9.93995 6.65981 9.90631 6.62433L8.77705 5.49505C8.35605 5.07494 7.78559 4.839 7.19083 4.839C6.59608 4.839 6.02561 5.07494 5.60461 5.49505L0.826604 10.2731C0.564539 10.5352 0.356657 10.8463 0.214828 11.1887C0.0729987 11.5311 0 11.8981 0 12.2687C0 12.6393 0.0729987 13.0063 0.214828 13.3487C0.356657 13.6911 0.564539 14.0022 0.826604 14.2643L1.09651 14.5342L1.09849 14.5372L1.10147 14.5392L5.7356 19.1734C5.99766 19.4355 6.30877 19.6433 6.65116 19.7852C6.99356 19.927 7.36054 20 7.73115 20C8.10176 20 8.46874 19.927 8.81114 19.7852C9.15354 19.6433 9.46465 19.4355 9.7267 19.1734L14.5047 14.3953C14.9246 13.9742 15.1604 13.4037 15.1604 12.809C15.1604 12.2144 14.9246 11.6439 14.5047 11.2228L13.3755 10.0935C13.341 10.0592 13.3138 10.0181 13.2957 9.97289C13.2776 9.92768 13.269 9.87924 13.2703 9.83055C13.2716 9.78181 13.2827 9.73383 13.303 9.68949C13.3233 9.64516 13.3523 9.60538 13.3884 9.57255L19.1885 4.30723ZM9.00826 18.4549C8.66419 18.7834 8.20681 18.9666 7.73115 18.9666C7.25549 18.9666 6.79812 18.7834 6.45404 18.4549L2.17671 14.1775L3.99706 12.358C4.09074 12.2624 4.14291 12.1337 4.14223 11.9999C4.14156 11.866 4.08809 11.7379 3.99345 11.6432C3.8988 11.5486 3.77063 11.4951 3.63679 11.4944C3.50295 11.4938 3.37424 11.5459 3.27865 11.6396L1.46677 13.4507C1.16338 13.1083 1.00246 12.6628 1.01701 12.2056C1.03155 11.7483 1.22047 11.314 1.54501 10.9916L3.91072 8.62587L11.374 16.0892L9.00826 18.4549ZM12.657 10.812L13.7863 11.9413C14.016 12.1716 14.145 12.4837 14.145 12.809C14.145 13.1344 14.016 13.4465 13.7863 13.6768L12.0924 15.3708L4.62916 7.90742L6.32306 6.2135C6.55328 5.98348 6.8654 5.85428 7.19084 5.85428C7.51627 5.85428 7.82839 5.98348 8.05862 6.2135L9.18788 7.34278C9.44648 7.60028 9.79639 7.7451 10.1613 7.74567C10.1713 7.74567 10.1822 7.74567 10.1931 7.74465C10.3794 7.74001 10.5628 7.6977 10.7323 7.62027C10.9019 7.54284 11.054 7.4319 11.1795 7.29413L16.4457 1.49395C16.5777 1.34731 16.7383 1.22929 16.9177 1.14719C17.0971 1.0651 17.2914 1.02066 17.4886 1.01664C17.6862 1.01206 17.8826 1.04751 18.0661 1.12084C18.2496 1.19417 18.4164 1.30387 18.5564 1.44334C18.6959 1.58302 18.8057 1.74958 18.8791 1.93293C18.9524 2.11627 18.9878 2.3126 18.9831 2.51002C18.9783 2.70744 18.9336 2.90184 18.8516 3.08146C18.7695 3.26109 18.6519 3.42219 18.5057 3.55502L12.7056 8.82035C12.5678 8.94559 12.4568 9.0975 12.3794 9.26688C12.3019 9.43626 12.2597 9.61958 12.2551 9.80577C12.2506 9.99195 12.2839 10.1771 12.3529 10.3501C12.422 10.523 12.5255 10.6802 12.657 10.812L12.657 10.812Z" fill="#171723"/>
</g>
</g>
<defs>
<clipPath id="clip0_5313_35151">
<rect width="20" height="20" fill="white"/>
</clipPath>
<clipPath id="clip1_5313_35151">
<rect width="20" height="20" fill="white"/>
</clipPath>
</defs>
</svg>
