<svg width="20" height="20" viewBox="0 0 20 20" fill="none" xmlns="http://www.w3.org/2000/svg">
<g clip-path="url(#clip0_5313_35213)">
<g clip-path="url(#clip1_5313_35213)">
<path d="M18.6138 9.80532C18.634 9.77474 18.6666 9.75528 18.6804 9.72017C18.6869 9.70368 18.6801 9.68616 18.6849 9.66932C18.7032 9.5702 18.7023 9.46839 18.682 9.36965C18.6766 9.35149 18.6838 9.33248 18.6763 9.3147C18.6599 9.27617 18.6266 9.2558 18.6045 9.22328C18.588 9.19998 18.5857 9.16994 18.5652 9.14913L10.1982 0.655152C10.1498 0.605964 10.0923 0.566945 10.029 0.540324C9.96568 0.513702 9.89784 0.5 9.82933 0.5C9.76082 0.5 9.69298 0.513702 9.62969 0.540324C9.5664 0.566945 9.5089 0.605964 9.46047 0.655152L6.27917 3.88469L3.02237 1.9265C2.96335 1.89085 2.89798 1.86736 2.83001 1.85738C2.76203 1.84741 2.69278 1.85115 2.62623 1.86838C2.55968 1.88562 2.49714 1.91601 2.44217 1.95783C2.38721 1.99964 2.34091 2.05204 2.30593 2.11205C2.27095 2.17205 2.24797 2.23847 2.23831 2.3075C2.22866 2.37653 2.23251 2.44682 2.24965 2.51434C2.26679 2.58185 2.29688 2.64528 2.3382 2.70097C2.37952 2.75667 2.43126 2.80354 2.49045 2.8389L5.51689 4.65853L0.673566 9.57535C0.460042 9.79176 0.290645 10.0488 0.175068 10.3317C0.0594904 10.6147 0 10.918 0 11.2243C0 11.5306 0.0594904 11.8339 0.175068 12.1168C0.290645 12.3998 0.460042 12.6568 0.673566 12.8732L6.52979 18.8183C6.96097 19.2548 7.5451 19.5 8.15408 19.5C8.76305 19.5 9.34718 19.2548 9.77837 18.8183L18.5652 9.89809C18.5908 9.87217 18.5945 9.83513 18.6138 9.80532ZM10.5274 6.43885L7.20588 4.44181L9.8293 1.77858L16.9664 9.02397L11.0455 9.17132L2.33384 9.38778L6.44354 5.21572L9.99541 7.35125C10.1146 7.42245 10.2567 7.44277 10.3906 7.40774C10.5245 7.37271 10.6392 7.2852 10.7097 7.1644C10.7801 7.0436 10.8004 6.89937 10.7663 6.76336C10.7321 6.62734 10.6462 6.51064 10.5273 6.43886L10.5274 6.43885Z" fill="#171723"/>
<path d="M18.1965 11.8804C18.1965 11.8804 16.3926 13.8674 16.3926 15.0851C16.3926 15.3256 16.4392 15.5638 16.5299 15.7859C16.6205 16.0081 16.7534 16.21 16.9209 16.38C17.0884 16.5501 17.2873 16.685 17.5062 16.777C17.725 16.869 17.9596 16.9164 18.1965 16.9164C18.4334 16.9164 18.6679 16.869 18.8868 16.777C19.1056 16.685 19.3045 16.5501 19.472 16.38C19.6395 16.21 19.7724 16.0081 19.863 15.7859C19.9537 15.5638 20.0004 15.3256 20.0004 15.0851C20.0004 13.8674 18.1965 11.8804 18.1965 11.8804Z" fill="#171723"/>
</g>
</g>
<defs>
<clipPath id="clip0_5313_35213">
<rect width="20" height="20" fill="white"/>
</clipPath>
<clipPath id="clip1_5313_35213">
<rect width="20" height="20" fill="white"/>
</clipPath>
</defs>
</svg>
