<svg width="20" height="20" viewBox="0 0 20 20" fill="none" xmlns="http://www.w3.org/2000/svg">
<path d="M10 16.487C9.23182 16.487 8.52883 16.2752 7.89105 15.8516C7.25328 15.428 6.75703 14.8701 6.4023 14.1779L4.67626 15.1475L4.13459 14.2083L5.9873 13.1666C5.93494 13.0045 5.89348 12.8366 5.86293 12.6627C5.83251 12.4886 5.80341 12.3153 5.77564 12.1427H3.56897V11.0593H5.77543C5.79084 10.8541 5.81557 10.6521 5.84959 10.4535C5.88362 10.2548 5.92953 10.0576 5.9873 9.86204L4.12668 8.81246L4.66834 7.88142L6.41043 8.851C6.51071 8.65114 6.62147 8.46788 6.74272 8.30121C6.86411 8.13454 6.99848 7.97218 7.14584 7.81413C7.12348 7.73468 7.11091 7.65524 7.10814 7.57579C7.1055 7.49635 7.10418 7.41691 7.10418 7.33746C7.10418 7.01774 7.15466 6.71357 7.25564 6.42496C7.35661 6.13635 7.50112 5.87204 7.68918 5.63204L6.58168 4.5385L7.34772 3.77246L8.50959 4.89267C8.74571 4.76545 8.988 4.66531 9.23647 4.59225C9.4848 4.51906 9.73932 4.48246 10 4.48246C10.2607 4.48246 10.5185 4.52065 10.7733 4.59704C11.0282 4.67357 11.2672 4.77906 11.4904 4.9135L12.6523 3.77246L13.4183 4.5385L12.3029 5.62392C12.491 5.86072 12.6299 6.12975 12.7196 6.431C12.8093 6.73239 12.8542 7.03357 12.8542 7.33454V7.56059C12.8542 7.63725 12.8429 7.71725 12.8204 7.80059C12.9679 7.95378 13.1045 8.11586 13.23 8.28684C13.3556 8.45781 13.468 8.64316 13.5673 8.84288L15.2948 7.89413L15.8365 8.82538L13.9919 9.85413C14.0497 10.0344 14.0986 10.2195 14.1386 10.4093C14.1787 10.5991 14.203 10.789 14.2115 10.9791H16.4311V12.0625H14.2115C14.203 12.2526 14.1808 12.4412 14.145 12.6283C14.1092 12.8154 14.0651 12.9991 14.0127 13.1795L15.8525 14.2291L15.3108 15.1602L13.585 14.1698C13.2303 14.8482 12.7361 15.4041 12.1025 15.8373C11.469 16.2704 10.7682 16.487 10 16.487ZM8.21793 7.0385C8.49459 6.88253 8.78022 6.76288 9.0748 6.67954C9.36925 6.59621 9.67772 6.55454 10.0002 6.55454C10.3174 6.55454 10.6231 6.59406 10.9171 6.67309C11.2113 6.75211 11.4883 6.86697 11.7483 7.01767C11.6693 6.5967 11.4671 6.24947 11.1417 5.976C10.8163 5.70239 10.4357 5.56559 10 5.56559C9.54807 5.56559 9.15786 5.70239 8.82939 5.976C8.50078 6.24947 8.29696 6.60364 8.21793 7.0385ZM9.99501 15.4037C10.9567 15.4037 11.7236 15.0084 12.2956 14.2179C12.8677 13.4273 13.1538 12.5283 13.1538 11.5208C13.1538 10.5069 12.8677 9.60628 12.2956 8.81892C11.7236 8.03156 10.9553 7.63788 9.99084 7.63788C9.03334 7.63788 8.2664 8.03156 7.69001 8.81892C7.11362 9.60628 6.82543 10.5069 6.82543 11.5208C6.82543 12.5283 7.11328 13.4273 7.68897 14.2179C8.26466 15.0084 9.03335 15.4037 9.99501 15.4037ZM9.45834 13.2916V9.90871H10.5417V13.2916H9.45834Z" fill="#171723"/>
</svg>
