<svg width="20" height="20" viewBox="0 0 20 20" fill="none" xmlns="http://www.w3.org/2000/svg">
<path fill-rule="evenodd" clip-rule="evenodd" d="M10 3.54126C10.8287 3.54126 11.6234 3.87088 12.2095 4.45679C12.7954 5.04273 13.1249 5.83762 13.125 6.66626V6.875H13.3337L13.4119 6.87988C13.5148 6.89291 13.6104 6.93403 13.6938 6.99341L16.3293 5.30762C16.62 5.12158 17.0063 5.2062 17.1924 5.49683C17.3783 5.78749 17.2937 6.17379 17.0032 6.35986L14.3433 8.06152C14.601 8.66323 14.7549 9.30705 14.7913 9.96582C14.7919 9.97719 14.7925 9.98861 14.7925 10V10.2087H17.5C17.845 10.209 18.125 10.4887 18.125 10.8337C18.1248 11.1786 17.8448 11.4585 17.5 11.4587H14.7925V12.5C14.7925 12.9668 14.7231 13.4264 14.5923 13.866L16.9861 15.2966C17.2824 15.4735 17.3801 15.8572 17.2034 16.1536C17.0264 16.4499 16.6416 16.5466 16.3452 16.3696L14.0771 15.0146C13.8833 15.329 13.654 15.6233 13.3887 15.8887C12.4902 16.7871 11.2706 17.2912 10 17.2913C8.7296 17.2912 7.51101 16.7868 6.61255 15.8887C6.34695 15.6231 6.1156 15.3293 5.92163 15.0146L3.65356 16.3696C3.35725 16.5462 2.97349 16.4498 2.79663 16.1536C2.61983 15.8572 2.7176 15.4735 3.01392 15.2966L5.40649 13.866C5.27579 13.4266 5.20874 12.9667 5.20874 12.5V11.4587H2.5C2.15497 11.4587 1.87525 11.1787 1.875 10.8337C1.875 10.4886 2.15482 10.2087 2.5 10.2087H5.20874V10L5.20996 9.96582C5.24626 9.30744 5.39934 8.66408 5.65674 8.06274L2.99683 6.35986C2.70626 6.17379 2.62171 5.7875 2.80762 5.49683C2.99372 5.2062 3.37997 5.12158 3.67065 5.30762L6.30371 6.99219C6.4085 6.91754 6.53529 6.875 6.66748 6.875H6.875V6.66626C6.87512 5.83762 7.20458 5.04273 7.79053 4.45679C8.37656 3.87088 9.17131 3.54126 10 3.54126ZM7.0166 8.125C6.68944 8.70463 6.49781 9.35236 6.45874 10.0195V12.5C6.45874 13.4393 6.83215 14.3407 7.49634 15.0049C8.01109 15.5194 8.66832 15.856 9.375 15.9827V11.6663C9.37525 11.3213 9.65497 11.0413 10 11.0413C10.345 11.0413 10.6248 11.3213 10.625 11.6663V15.9827C11.3319 15.856 11.9901 15.5195 12.5049 15.0049C13.169 14.3407 13.5425 13.4392 13.5425 12.5V10.8447C13.5424 10.8411 13.5413 10.8374 13.5413 10.8337C13.5413 10.8298 13.5424 10.8254 13.5425 10.8215V10.0342C13.5054 9.36177 13.313 8.70892 12.9834 8.125H7.0166ZM10 4.79126C9.50283 4.79126 9.02593 4.98909 8.67432 5.34058C8.32279 5.6921 8.12512 6.16914 8.125 6.66626V6.875H11.875V6.66626C11.8749 6.16914 11.6772 5.6921 11.3257 5.34058C10.9741 4.98909 10.4972 4.79126 10 4.79126Z" fill="#171723"/>
</svg>
