<svg width="20" height="20" viewBox="0 0 20 20" fill="none" xmlns="http://www.w3.org/2000/svg">
<g clip-path="url(#clip0_10314_146456)">
<g clip-path="url(#clip1_10314_146456)">
<path d="M13.9772 12.7448L16.8203 7.1164C17.1542 6.96432 17.4519 6.74266 17.6933 6.46626C17.8464 6.54871 18.0173 6.59275 18.1912 6.59461C18.2861 6.59462 18.3805 6.58227 18.4722 6.55787C18.61 6.52151 18.7392 6.45809 18.8522 6.37131C18.9652 6.28453 19.0599 6.17612 19.1306 6.0524L19.5179 5.38109C19.7538 4.97333 19.9071 4.52308 19.969 4.05605C20.0308 3.58903 20 3.11439 19.8783 2.65928C19.7567 2.20416 19.5465 1.77749 19.2598 1.40364C18.9732 1.0298 18.6156 0.716116 18.2077 0.480524C17.7997 0.244932 17.3493 0.0920498 16.8823 0.0306159C16.4152 -0.030818 15.9406 0.000400857 15.4856 0.122488C15.0306 0.244576 14.6041 0.455138 14.2305 0.742139C13.8569 1.02914 13.5436 1.38695 13.3083 1.79513L12.9191 2.46743C12.7832 2.70646 12.7437 2.98839 12.8088 3.25554C12.8739 3.5227 13.0386 3.75488 13.2692 3.90461C13.1478 4.25761 13.1042 4.63268 13.1413 5.00412L9.9995 8.41989L6.85877 5.00415C6.89583 4.63276 6.8522 4.25774 6.73085 3.90477C6.96431 3.75744 7.13129 3.52505 7.19644 3.25679C7.26159 2.98852 7.21981 2.70543 7.07994 2.46743L6.69165 1.79513C6.45643 1.38695 6.14307 1.02914 5.76949 0.742139C5.3959 0.455138 4.96942 0.244576 4.51442 0.122488C4.05942 0.000400857 3.58482 -0.030818 3.11775 0.0306159C2.65068 0.0920498 2.20029 0.244932 1.79233 0.480524C1.38438 0.716116 1.02685 1.0298 0.740183 1.40364C0.453519 1.77749 0.24334 2.20416 0.12166 2.65928C-1.99183e-05 3.11439 -0.0308158 3.58903 0.0310333 4.05605C0.0928823 4.52308 0.246164 4.97333 0.482115 5.38109L0.869406 6.0524C1.00745 6.29539 1.23512 6.4747 1.50369 6.55197C1.77226 6.62923 2.0604 6.59831 2.30646 6.46582C2.54791 6.74239 2.84564 6.9642 3.17973 7.1164L6.02252 12.7452L0.134545 19.147C0.0676299 19.2197 0.0233423 19.3103 0.0070934 19.4077C-0.00915546 19.5052 0.00333825 19.6053 0.0430478 19.6958C0.0827574 19.7863 0.147963 19.8632 0.230697 19.9172C0.313431 19.9713 0.41011 20 0.50892 20H19.4911C19.5899 20 19.6866 19.9713 19.7693 19.9172C19.852 19.8632 19.9172 19.7863 19.957 19.6958C19.9967 19.6053 20.0092 19.5052 19.9929 19.4077C19.9767 19.3103 19.9324 19.2197 19.8655 19.147L13.9772 12.7448ZM14.179 4.44413L16.79 5.95163C16.5388 6.17285 16.2249 6.3101 15.8919 6.34419C15.559 6.37829 15.2237 6.30752 14.933 6.14179C14.752 6.03736 14.5936 5.89811 14.4668 5.73209C14.34 5.56607 14.2473 5.37657 14.1941 5.17453C14.1328 4.93549 14.1277 4.68551 14.179 4.44413ZM14.1882 2.30356C14.5288 1.71346 15.09 1.28286 15.7481 1.10649C16.4063 0.930124 17.1075 1.02243 17.6976 1.36311C18.2877 1.70379 18.7183 2.26493 18.8947 2.92309C19.071 3.58125 18.9787 4.28252 18.638 4.87262L18.1604 5.56876L17.8327 5.37961C17.8277 5.37645 17.825 5.37117 17.8198 5.36819C17.8146 5.36514 17.8087 5.36547 17.8035 5.36267L14.1828 3.2721L14.1713 3.26193L14.1566 3.25697L13.8247 3.06531L13.7999 2.97593L14.1882 2.30356ZM13.5086 6.10786C13.7186 6.47116 14.017 6.77559 14.3759 6.99294C14.7349 7.2103 15.1429 7.33356 15.5622 7.35131L13.2417 11.9452L10.6907 9.1716L13.5086 6.10786ZM12.7518 12.9148L9.99953 18.3636L7.24754 12.9148L9.99947 9.92235L12.7518 12.9148ZM3.20965 5.95135L5.82101 4.44407C5.87242 4.68546 5.86724 4.93547 5.80587 5.17452C5.75271 5.37656 5.66004 5.56607 5.53323 5.73209C5.40641 5.89811 5.24796 6.03736 5.06702 6.14179C4.7762 6.30758 4.44083 6.37835 4.10782 6.34421C3.7748 6.31006 3.46078 6.17271 3.20965 5.95135ZM1.74924 5.54395L1.36195 4.87264C1.02128 4.28267 0.928918 3.58154 1.10519 2.92347C1.28146 2.26541 1.71192 1.70432 2.30187 1.36364C2.89183 1.02296 3.59296 0.930599 4.25101 1.10687C4.90906 1.28314 5.47014 1.71361 5.81082 2.30358L6.20506 3.02557C6.20299 3.03372 6.19928 3.04135 6.19416 3.04801C6.18904 3.05467 6.18261 3.06022 6.17527 3.06431V3.06532L1.74924 5.54395ZM4.43774 7.35133C4.85702 7.33359 5.26504 7.21034 5.62402 6.99298C5.983 6.77562 6.28132 6.47119 6.49137 6.10788L9.30933 9.17162L6.7581 11.9455L4.43774 7.35133ZM6.5121 13.7145L9.17304 18.9831H1.66683L6.5121 13.7145ZM10.826 18.9831L13.4873 13.7145L18.3332 18.9831H10.826Z" fill="#171723"/>
</g>
</g>
<defs>
<clipPath id="clip0_10314_146456">
<rect width="20" height="20" fill="white"/>
</clipPath>
<clipPath id="clip1_10314_146456">
<rect width="20" height="20" fill="white"/>
</clipPath>
</defs>
</svg>
