<svg width="20" height="20" viewBox="0 0 20 20" fill="none" xmlns="http://www.w3.org/2000/svg">
<g clip-path="url(#clip0_10314_146183)">
<path d="M20 9.9995L19.997 9.98472V4.06773C19.996 2.98923 19.5671 1.95521 18.8046 1.1926C18.0421 0.429986 17.0083 0.00107688 15.9299 0H4.06713C2.98879 0.00107688 1.95492 0.429986 1.19242 1.1926C0.429922 1.95521 0.00107672 2.98923 0 4.06773V15.9323C0.00107672 17.0108 0.429922 18.0448 1.19242 18.8074C1.95492 19.57 2.98879 19.9989 4.06713 20H15.9299C17.0083 19.9989 18.0421 19.57 18.8046 18.8074C19.5671 18.0448 19.996 17.0108 19.997 15.9323V10.0143L20 9.9995ZM18.9803 4.06773V9.49103H13.666V1.01693H15.9299C16.7386 1.01782 17.514 1.33952 18.0859 1.91147C18.6577 2.48341 18.9794 3.25888 18.9803 4.06773ZM7.34089 9.49103V1.01693H12.6492V9.49103H7.34089ZM12.6492 10.508V18.9831H7.34088V10.508H12.6492ZM4.06713 1.01693H6.3241V9.49103H1.01678V4.06773C1.01767 3.25888 1.33933 2.48341 1.91118 1.91147C2.48304 1.33952 3.2584 1.01782 4.06713 1.01693ZM1.01678 15.9323V10.508H6.3241V18.9831H4.06713C3.2584 18.9822 2.48304 18.6605 1.91118 18.0885C1.33933 17.5166 1.01767 16.7411 1.01678 15.9323ZM15.9299 18.9831H13.666V10.508H18.9803V15.9323C18.9794 16.7411 18.6577 17.5166 18.0859 18.0885C17.514 18.6605 16.7386 18.9822 15.9299 18.9831Z" fill="#171723"/>
</g>
<defs>
<clipPath id="clip0_10314_146183">
<rect width="20" height="20" fill="white"/>
</clipPath>
</defs>
</svg>
