<svg width="20" height="20" viewBox="0 0 20 20" fill="none" xmlns="http://www.w3.org/2000/svg">
<path d="M7.66675 14.9985C7.66675 15.7085 8.48841 16.0793 9.01925 15.651L9.08925 15.5876L14.0892 10.5876C14.2327 10.4441 14.3189 10.2532 14.3317 10.0507C14.3444 9.84817 14.2828 9.64796 14.1584 9.48762L14.0892 9.40929L9.08925 4.40929L9.01091 4.34012L8.94675 4.29512L8.86675 4.25012L8.83675 4.23596L8.78091 4.21346L8.69091 4.18679L8.64675 4.17846L8.59675 4.17012L8.54925 4.16679H8.45091L8.40258 4.17096L8.35258 4.17846L8.30925 4.18679L8.21925 4.21346L8.16341 4.23596L8.05341 4.29429L7.97841 4.34846L7.91091 4.40929L7.84175 4.48762L7.79675 4.55179L7.75175 4.63179L7.73758 4.66179L7.71508 4.71762L7.68841 4.80762L7.68008 4.85179L7.67175 4.90179L7.66841 4.94929L7.66675 14.9985Z" fill="#171723"/>
</svg>
