<svg width="20" height="20" viewBox="0 0 20 20" fill="none" xmlns="http://www.w3.org/2000/svg">
<path d="M14.9984 7.66673C15.7084 7.66673 16.0793 8.48839 15.6509 9.01923L15.5876 9.08922L10.5876 14.0892C10.4441 14.2327 10.2532 14.3189 10.0507 14.3316C9.84816 14.3444 9.64795 14.2828 9.48761 14.1584L9.40928 14.0892L4.40928 9.08922L4.34011 9.01089L4.29511 8.94673L4.25011 8.86672L4.23595 8.83673L4.21345 8.78089L4.18678 8.69089L4.17845 8.64672L4.17011 8.59673L4.16678 8.54923V8.45089L4.17095 8.40256L4.17845 8.35256L4.18678 8.30923L4.21345 8.21923L4.23595 8.16339L4.29428 8.05339L4.34845 7.97839L4.40928 7.91089L4.48761 7.84173L4.55178 7.79673L4.63178 7.75173L4.66178 7.73756L4.71761 7.71506L4.80761 7.68839L4.85178 7.68006L4.90178 7.67172L4.94928 7.66839L14.9984 7.66673Z" fill="#171723"/>
</svg>
