<svg width="20" height="20" viewBox="0 0 20 20" fill="none" xmlns="http://www.w3.org/2000/svg">
<path d="M14.9984 12.3333C15.7084 12.3333 16.0793 11.5116 15.6509 10.9808L15.5876 10.9108L10.5876 5.91077C10.4441 5.76729 10.2532 5.6811 10.0507 5.66837C9.84816 5.65563 9.64795 5.71723 9.48761 5.84161L9.40928 5.91077L4.40928 10.9108L4.34011 10.9891L4.29511 11.0533L4.25011 11.1333L4.23595 11.1633L4.21345 11.2191L4.18678 11.3091L4.17845 11.3533L4.17011 11.4033L4.16678 11.4508V11.5491L4.17095 11.5974L4.17845 11.6474L4.18678 11.6908L4.21345 11.7808L4.23595 11.8366L4.29428 11.9466L4.34845 12.0216L4.40928 12.0891L4.48761 12.1583L4.55178 12.2033L4.63178 12.2483L4.66178 12.2624L4.71761 12.2849L4.80761 12.3116L4.85178 12.3199L4.90178 12.3283L4.94928 12.3316L14.9984 12.3333Z" fill="#171723"/>
</svg>
