<svg width="20" height="20" viewBox="0 0 20 20" fill="none" xmlns="http://www.w3.org/2000/svg">
<path d="M12.3333 5.00154C12.3333 4.29154 11.5116 3.92071 10.9808 4.34904L10.9108 4.41238L5.91075 9.41238C5.76727 9.55587 5.68108 9.74679 5.66834 9.94931C5.65561 10.1518 5.71721 10.352 5.84158 10.5124L5.91075 10.5907L10.9108 15.5907L10.9891 15.6599L11.0533 15.7049L11.1333 15.7499L11.1633 15.764L11.2191 15.7865L11.3091 15.8132L11.3533 15.8215L11.4033 15.8299L11.4508 15.8332H11.5491L11.5974 15.829L11.6474 15.8215L11.6908 15.8132L11.7808 15.7865L11.8366 15.764L11.9466 15.7057L12.0216 15.6515L12.0891 15.5907L12.1583 15.5124L12.2033 15.4482L12.2483 15.3682L12.2624 15.3382L12.2849 15.2824L12.3116 15.1924L12.3199 15.1482L12.3283 15.0982L12.3316 15.0507L12.3333 5.00154Z" fill="#171723"/>
</svg>
