<svg width="20" height="20" viewBox="0 0 20 20" fill="none" xmlns="http://www.w3.org/2000/svg">
<g clip-path="url(#clip0_10314_144687)">
<g clip-path="url(#clip1_10314_144687)">
<path d="M17.4615 13.5416C17.5626 13.5391 17.6606 13.5049 17.7421 13.4437C17.7566 13.4348 17.7707 13.4251 17.7842 13.4147C17.8588 13.3505 17.9133 13.2652 17.9408 13.1694C17.9435 13.1603 17.9529 13.1562 17.9551 13.1469L19.9891 4.81365C19.9931 4.7836 19.9944 4.75323 19.993 4.72292C19.9939 4.71059 20 4.7001 20 4.68751C20 4.6795 19.9959 4.67292 19.9955 4.66493C19.9931 4.61514 19.9834 4.56599 19.9669 4.5191C19.9616 4.50131 19.9554 4.48382 19.9483 4.46672C19.9287 4.42616 19.904 4.38848 19.8746 4.3547C19.8612 4.33729 19.8467 4.32078 19.8312 4.30529C19.7783 4.26161 19.7192 4.22631 19.6561 4.20058C19.6427 4.19594 19.6326 4.186 19.6186 4.1824C19.5757 4.18355 19.5329 4.17824 19.4915 4.16664H4.63674L3.71739 0.394685C3.68985 0.281952 3.62631 0.181881 3.53688 0.11037C3.44745 0.0388596 3.33725 1.20947e-05 3.2238 0H0.508492C0.373631 0 0.244294 0.0548728 0.148934 0.152547C0.0535732 0.250222 0 0.382697 0 0.520829C0 0.658962 0.0535732 0.791437 0.148934 0.889111C0.244294 0.986786 0.373631 1.04166 0.508492 1.04166H2.82648L6.31914 15.3707C5.85259 15.5082 5.44054 15.7936 5.14208 16.1858C4.84361 16.5779 4.67406 17.0569 4.65772 17.5538C4.64139 18.0508 4.77912 18.5403 5.05116 18.9522C5.3232 19.3641 5.71558 19.6771 6.17204 19.8465C6.6285 20.0158 7.1256 20.0328 7.59205 19.8949C8.0585 19.757 8.47034 19.4714 8.76854 19.079C9.06673 18.6866 9.23595 18.2076 9.25194 17.7106C9.26792 17.2136 9.12985 16.7242 8.85753 16.3125H14.8681C14.5801 16.7487 14.4426 17.271 14.4774 17.7963C14.5122 18.3217 14.7173 18.8202 15.0601 19.2126C15.403 19.605 15.8639 19.8689 16.3699 19.9624C16.8758 20.0559 17.3977 19.9737 17.8529 19.7288C18.308 19.484 18.6703 19.0904 18.8822 18.6106C19.0941 18.1308 19.1435 17.5923 19.0226 17.0805C18.9016 16.5687 18.6173 16.1129 18.2147 15.7854C17.8121 15.4579 17.3142 15.2776 16.8001 15.2729L16.7901 15.2708H7.34344L6.92191 13.5415L17.4615 13.5416ZM18.844 5.20835L17.0642 12.5H6.66804L4.89068 5.20835H18.844ZM8.23616 17.6345C8.23616 17.896 8.16046 18.1516 8.01863 18.3689C7.8768 18.5863 7.67522 18.7558 7.43938 18.8558C7.20353 18.9558 6.94402 18.982 6.69367 18.9309C6.44331 18.8799 6.21336 18.754 6.03289 18.569C5.85242 18.3841 5.72955 18.1486 5.6798 17.8921C5.63005 17.6357 5.65567 17.3699 5.75342 17.1283C5.85117 16.8868 6.01665 16.6804 6.22894 16.5352C6.44123 16.39 6.69079 16.3125 6.94605 16.3126C7.28813 16.3132 7.61605 16.4526 7.8579 16.7004C8.09974 16.9482 8.23577 17.2841 8.23616 17.6345ZM18.0703 17.6345C18.0703 17.896 17.9946 18.1516 17.8528 18.3689C17.7109 18.5863 17.5094 18.7558 17.2735 18.8558C17.0377 18.9558 16.7782 18.982 16.5278 18.9309C16.2775 18.8799 16.0475 18.754 15.867 18.569C15.6866 18.3841 15.5637 18.1485 15.5139 17.8921C15.4642 17.6357 15.4898 17.3699 15.5876 17.1283C15.6853 16.8868 15.8508 16.6804 16.0631 16.5352C16.2754 16.39 16.5249 16.3125 16.7802 16.3126C17.1223 16.3132 17.4502 16.4526 17.692 16.7004C17.9339 16.9482 18.0699 17.2841 18.0703 17.6345Z" fill="#171723"/>
</g>
</g>
<defs>
<clipPath id="clip0_10314_144687">
<rect width="20" height="20" fill="white"/>
</clipPath>
<clipPath id="clip1_10314_144687">
<rect width="20" height="20" fill="white"/>
</clipPath>
</defs>
</svg>
