<svg width="20" height="20" viewBox="0 0 20 20" fill="none" xmlns="http://www.w3.org/2000/svg">
<g clip-path="url(#clip0_10314_146039)">
<path d="M9.10152 17.3727C9.09866 17.352 9.09439 17.3315 9.08873 17.3113C9.06825 17.2264 9.02571 17.1484 8.96541 17.0852L8.96293 17.0806L8.961 17.0788L8.96094 17.0786L8.96082 17.0786L6.97093 15.1234C6.92354 15.0756 6.86714 15.0377 6.80499 15.0119C6.74285 14.9861 6.6762 14.9729 6.60891 14.9731C6.54162 14.9732 6.47504 14.9867 6.413 15.0128C6.35098 15.0389 6.29474 15.077 6.24755 15.125C6.20037 15.1729 6.16318 15.2298 6.13813 15.2923C6.11309 15.3547 6.10069 15.4215 6.10166 15.4888C6.10263 15.5561 6.11694 15.6225 6.14377 15.6842C6.1706 15.7459 6.20941 15.8017 6.25796 15.8483L7.36317 16.9346H4.13691C3.33067 16.9319 2.5584 16.6096 1.98951 16.0383C1.42062 15.467 1.10155 14.6933 1.10229 13.8871V11.3459C1.10229 11.2111 1.04872 11.0818 0.953376 10.9864C0.858029 10.8911 0.72871 10.8375 0.593869 10.8375C0.459028 10.8375 0.32971 10.8911 0.234362 10.9864C0.139015 11.0818 0.0854498 11.2111 0.0854498 11.3459V13.887C0.0848885 14.9629 0.511146 15.9951 1.27069 16.757C2.03024 17.519 3.06104 17.9485 4.13691 17.9514H7.40124L6.24606 19.137C6.15259 19.2338 6.10129 19.3637 6.10338 19.4982C6.10547 19.6327 6.1608 19.7609 6.25723 19.8547C6.35366 19.9485 6.48335 20.0003 6.61787 19.9986C6.75239 19.997 6.88079 19.9422 6.97493 19.846L8.97087 17.7975C9.0125 17.7532 9.04573 17.7018 9.06894 17.6456L9.07712 17.6356L9.07744 17.6325C9.10827 17.5496 9.11658 17.4599 9.10152 17.3727Z" fill="#171723"/>
<path d="M15.9464 2.05044H12.5113L13.6664 0.864806C13.7134 0.817031 13.7505 0.760448 13.7755 0.698308C13.8005 0.636168 13.813 0.569697 13.8122 0.502714C13.8115 0.435731 13.7975 0.369556 13.7711 0.307994C13.7447 0.246431 13.7064 0.190694 13.6584 0.143985C13.6103 0.0972757 13.5536 0.0605161 13.4913 0.0358182C13.429 0.0111202 13.3625 -0.00102924 13.2955 6.82433e-05C13.2285 0.00116573 13.1624 0.0154883 13.101 0.0422131C13.0396 0.0689378 12.984 0.107538 12.9376 0.155795L10.9417 2.20436C10.9002 2.24853 10.867 2.29986 10.8439 2.35587L10.8354 2.36617L10.8351 2.36939C10.8043 2.45229 10.7959 2.5419 10.811 2.62906C10.8139 2.64987 10.8182 2.67046 10.8239 2.69069C10.8443 2.77556 10.8869 2.85352 10.9471 2.91666L10.9496 2.92126L10.9515 2.92312L10.9516 2.92324L10.9517 2.9233L12.9416 4.87748C13.0381 4.97011 13.1672 5.02097 13.301 5.01905C13.4347 5.01713 13.5623 4.96257 13.6561 4.8672C13.7499 4.77183 13.8024 4.64334 13.8021 4.50957C13.8018 4.3758 13.7488 4.24754 13.6546 4.15258L12.5494 3.06728H15.9464C16.7526 3.06974 17.5248 3.39188 18.0937 3.96303C18.6626 4.53417 18.9818 5.30767 18.9811 6.11382V8.63707C18.9811 8.77192 19.0346 8.90123 19.13 8.99658C19.2253 9.09193 19.3546 9.14549 19.4895 9.14549C19.6243 9.14549 19.7536 9.09193 19.849 8.99658C19.9443 8.90123 19.9979 8.77192 19.9979 8.63707V6.11382C19.9983 5.0381 19.5719 4.00616 18.8124 3.2444C18.0528 2.48263 17.0221 2.05325 15.9464 2.05044Z" fill="#171723"/>
<path d="M19.4042 10.8375H11.3063C11.2395 10.8375 11.1734 10.8506 11.1117 10.8761C11.05 10.9017 10.9939 10.9391 10.9467 10.9864C10.8995 11.0336 10.862 11.0896 10.8365 11.1513C10.8109 11.213 10.7978 11.2792 10.7979 11.3459V19.4916C10.7978 19.5584 10.8109 19.6245 10.8365 19.6862C10.862 19.7479 10.8995 19.8039 10.9467 19.8512C10.9939 19.8984 11.05 19.9358 11.1117 19.9614C11.1734 19.9869 11.2395 20 11.3063 20H19.4042C19.471 20 19.5372 19.9869 19.5989 19.9614C19.6606 19.9358 19.7166 19.8984 19.7638 19.8512C19.8111 19.804 19.8485 19.7479 19.874 19.6862C19.8996 19.6245 19.9127 19.5584 19.9127 19.4916V11.3459C19.9127 11.2792 19.8996 11.213 19.874 11.1513C19.8485 11.0896 19.8111 11.0336 19.7638 10.9864C19.7166 10.9391 19.6606 10.9017 19.5989 10.8761C19.5372 10.8506 19.471 10.8375 19.4042 10.8375ZM18.8958 18.9832H11.8147V11.8544H18.8958V18.9832Z" fill="#171723"/>
<path d="M8.60639 0.00170898H0.50842C0.373578 0.00170898 0.24426 0.0552745 0.148913 0.150622C0.0535656 0.245969 0 0.375287 0 0.510128C0 0.64497 0.0535656 0.774288 0.148913 0.869635C0.24426 0.964982 0.373578 1.01855 0.50842 1.01855H8.60639C8.74124 1.01855 8.87055 0.964982 8.9659 0.869635C9.06125 0.774288 9.11481 0.64497 9.11481 0.510128C9.11481 0.375287 9.06125 0.245969 8.9659 0.150622C8.87055 0.0552745 8.74124 0.00170898 8.60639 0.00170898Z" fill="#171723"/>
<path d="M8.60639 2.71069H0.50842C0.373578 2.71069 0.24426 2.76426 0.148913 2.85961C0.0535656 2.95495 0 3.08427 0 3.21911C0 3.35395 0.0535656 3.48327 0.148913 3.57862C0.24426 3.67397 0.373578 3.72753 0.50842 3.72753H8.60639C8.74124 3.72753 8.87055 3.67397 8.9659 3.57862C9.06125 3.48327 9.11481 3.35395 9.11481 3.21911C9.11481 3.08427 9.06125 2.95495 8.9659 2.85961C8.87055 2.76426 8.74124 2.71069 8.60639 2.71069Z" fill="#171723"/>
<path d="M8.60639 5.41968H0.50842C0.373578 5.41968 0.24426 5.47324 0.148913 5.56859C0.0535656 5.66394 0 5.79326 0 5.9281C0 6.06294 0.0535656 6.19226 0.148913 6.2876C0.24426 6.38295 0.373578 6.43652 0.50842 6.43652H8.60639C8.74124 6.43652 8.87055 6.38295 8.9659 6.2876C9.06125 6.19226 9.11481 6.06294 9.11481 5.9281C9.11481 5.79326 9.06125 5.66394 8.9659 5.56859C8.87055 5.47324 8.74124 5.41968 8.60639 5.41968Z" fill="#171723"/>
<path d="M8.60639 8.12866H0.50842C0.373578 8.12866 0.24426 8.18223 0.148913 8.27757C0.0535656 8.37292 0 8.50224 0 8.63708C0 8.77192 0.0535656 8.90124 0.148913 8.99659C0.24426 9.09193 0.373578 9.1455 0.50842 9.1455H8.60639C8.74124 9.1455 8.87055 9.09193 8.9659 8.99659C9.06125 8.90124 9.11481 8.77192 9.11481 8.63708C9.11481 8.50224 9.06125 8.37292 8.9659 8.27757C8.87055 8.18223 8.74124 8.12866 8.60639 8.12866Z" fill="#171723"/>
</g>
<defs>
<clipPath id="clip0_10314_146039">
<rect width="20" height="20" fill="white"/>
</clipPath>
</defs>
</svg>
