<svg width="20" height="20" viewBox="0 0 20 20" fill="none" xmlns="http://www.w3.org/2000/svg">
<path d="M13.8014 8.30636C13.8037 8.47234 13.7105 8.6247 13.5604 8.69519L11.4071 9.74342C10.1997 10.3323 9.26288 11.3647 8.79219 12.6221L7.55978 15.8691C7.50066 16.0396 7.33695 16.1511 7.15731 16.1465C6.97996 16.1442 6.81851 16.0351 6.75486 15.8691L5.53381 12.6221C5.06313 11.3647 4.12631 10.3323 2.91891 9.74342L0.765595 8.69519C0.554131 8.60423 0.456359 8.35638 0.547317 8.14264C0.59052 8.04486 0.667823 7.96756 0.765595 7.92436L2.91891 6.87839C4.12631 6.2872 5.06313 5.25717 5.53381 3.99973L6.75486 0.752707C6.86399 0.529877 7.1323 0.436656 7.35515 0.545795C7.44382 0.591274 7.51658 0.661762 7.55978 0.752707L8.79219 3.99973C9.26288 5.25717 10.1997 6.2872 11.4071 6.87839L13.5604 7.92436C13.7082 7.99485 13.8014 8.14264 13.8014 8.30636Z" fill="#171723"/>
<path d="M19.2723 15.3574L18.0769 15.9357C17.4348 16.249 16.9377 16.7945 16.6863 17.4618L16.0093 19.2644C15.9725 19.3611 15.8971 19.4385 15.7985 19.4753C15.6089 19.5488 15.3981 19.454 15.3246 19.2644L14.6496 17.4618C14.3962 16.7945 13.8991 16.2471 13.2569 15.9338L12.0636 15.3574C11.9901 15.3206 11.932 15.2626 11.8953 15.1891C11.8044 15.0054 11.8798 14.7829 12.0636 14.6901L13.2569 14.1118C13.8991 13.7984 14.3962 13.253 14.6496 12.5838L15.3246 10.783C15.3613 10.7057 15.4232 10.6457 15.4987 10.609C15.6882 10.5142 15.9164 10.5935 16.0093 10.783L16.6863 12.5838C16.9377 13.253 17.4348 13.7984 18.0769 14.1118L19.2723 14.6901V14.692C19.3535 14.7288 19.4173 14.7926 19.4541 14.8738C19.5372 15.0576 19.456 15.2742 19.2723 15.3574Z" fill="#171723"/>
</svg>
