<svg width="20" height="20" viewBox="0 0 20 20" fill="none" xmlns="http://www.w3.org/2000/svg">
<path d="M8.83329 13.2114L14.4358 7.60893L13.5577 6.73081L8.83329 11.4552L6.45829 9.08018L5.58017 9.95831L8.83329 13.2114ZM4.42308 17.0833C4.00211 17.0833 3.64579 16.9375 3.35413 16.6458C3.06246 16.3541 2.91663 15.9978 2.91663 15.5768V4.4231C2.91663 4.00213 3.06246 3.64581 3.35413 3.35414C3.64579 3.06247 4.00211 2.91664 4.42308 2.91664H15.5768C15.9978 2.91664 16.3541 3.06247 16.6458 3.35414C16.9375 3.64581 17.0833 4.00213 17.0833 4.4231V15.5768C17.0833 15.9978 16.9375 16.3541 16.6458 16.6458C16.3541 16.9375 15.9978 17.0833 15.5768 17.0833H4.42308ZM4.42308 15.8333H15.5768C15.641 15.8333 15.6998 15.8066 15.7531 15.7531C15.8066 15.6998 15.8333 15.641 15.8333 15.5768V4.4231C15.8333 4.35893 15.8066 4.30018 15.7531 4.24685C15.6998 4.19338 15.641 4.16664 15.5768 4.16664H4.42308C4.35892 4.16664 4.30017 4.19338 4.24683 4.24685C4.19336 4.30018 4.16663 4.35893 4.16663 4.4231V15.5768C4.16663 15.641 4.19336 15.6998 4.24683 15.7531C4.30017 15.8066 4.35892 15.8333 4.42308 15.8333Z" fill="#171723"/>
</svg>
