<svg width="20" height="20" viewBox="0 0 20 20" fill="none" xmlns="http://www.w3.org/2000/svg">
<path d="M8.83341 13.2114L14.4359 7.60892L13.5578 6.73079L8.83341 11.4552L6.45841 9.08017L5.58029 9.95829L8.83341 13.2114ZM4.42321 17.0833C4.00223 17.0833 3.64591 16.9375 3.35425 16.6458C3.06258 16.3541 2.91675 15.9978 2.91675 15.5768V4.42308C2.91675 4.00211 3.06258 3.64579 3.35425 3.35413C3.64591 3.06246 4.00223 2.91663 4.42321 2.91663H15.577C15.9979 2.91663 16.3542 3.06246 16.6459 3.35413C16.9376 3.64579 17.0834 4.00211 17.0834 4.42308V15.5768C17.0834 15.9978 16.9376 16.3541 16.6459 16.6458C16.3542 16.9375 15.9979 17.0833 15.577 17.0833H4.42321Z" fill="#171723"/>
</svg>
