<svg width="20" height="20" viewBox="0 0 20 20" fill="none" xmlns="http://www.w3.org/2000/svg">
<path fill-rule="evenodd" clip-rule="evenodd" d="M15 0C15.3112 0 15.5811 0.215357 15.6501 0.518847L16.0189 2.14098C16.1895 2.89127 16.7754 3.47713 17.5257 3.64773L19.1478 4.0166C19.4513 4.0856 19.6667 4.35543 19.6667 4.66667C19.6667 4.9779 19.4513 5.24773 19.1478 5.31673L17.5257 5.6856C16.7754 5.8562 16.1895 6.44207 16.0189 7.19237L15.6501 8.8145C15.5811 9.11797 15.3112 9.33333 15 9.33333C14.6888 9.33333 14.4189 9.11797 14.3499 8.8145L13.9811 7.19237C13.8105 6.44207 13.2246 5.8562 12.4743 5.6856L10.8522 5.31673C10.5487 5.24773 10.3333 4.9779 10.3333 4.66667C10.3333 4.35543 10.5487 4.0856 10.8522 4.0166L12.4743 3.64773C13.2246 3.47713 13.8105 2.89127 13.9811 2.14098L14.3499 0.518847C14.4189 0.215357 14.6888 0 15 0Z" fill="black"/>
<path fill-rule="evenodd" clip-rule="evenodd" d="M11.0627 7C10.059 7 9.22934 7.81193 9.22934 8.83333C9.22934 9.85473 10.059 10.6667 11.0627 10.6667C12.0664 10.6667 12.896 9.85473 12.896 8.83333C12.896 7.81193 12.0664 7 11.0627 7Z" fill="black"/>
<path fill-rule="evenodd" clip-rule="evenodd" d="M3.00001 4H9.47234C9.38261 4.2054 9.33334 4.4313 9.33334 4.66667C9.33334 4.90203 9.38261 5.12793 9.47234 5.33333H3.00001C2.26363 5.33333 1.66668 5.9303 1.66668 6.66667V12.3406C4.60084 11.5983 7.56074 12.3888 9.70541 14.22C11.1223 13.3134 12.7927 13.0882 14.3333 13.4685V10.1943C14.5387 10.2841 14.7646 10.3333 15 10.3333C15.2354 10.3333 15.4613 10.2841 15.6667 10.1943V14.3767C15.6669 14.3867 15.6669 14.3968 15.6667 14.4068V17.3333C15.6667 18.8061 14.4728 20 13 20H3.00001C1.52725 20 0.333344 18.8061 0.333344 17.3333V6.66667C0.333344 5.1939 1.52725 4 3.00001 4Z" fill="black"/>
</svg>
