<svg width="20" height="20" viewBox="0 0 20 20" fill="none" xmlns="http://www.w3.org/2000/svg">
<g clip-path="url(#clip0_5313_35036)">
<g clip-path="url(#clip1_5313_35036)">
<path d="M16.4922 20H6.50781C5.57777 19.9991 4.68608 19.6292 4.02844 18.9716C3.3708 18.3139 3.00093 17.4222 3 16.4922V6.50782C3.00093 5.57778 3.3708 4.68609 4.02844 4.02845C4.68608 3.3708 5.57777 3.00093 6.50781 3H16.4922C17.4222 3.00093 18.3139 3.3708 18.9716 4.02845C19.6292 4.68609 19.9991 5.57777 20 6.50782V16.4922C19.9991 17.4222 19.6292 18.3139 18.9716 18.9716C18.3139 19.6292 17.4222 19.9991 16.4922 20V20ZM6.50781 4C5.84293 4.00075 5.20549 4.26521 4.73535 4.73535C4.2652 5.2055 4.00075 5.84294 4 6.50782V16.4922C4.00075 17.1571 4.26521 17.7945 4.73535 18.2646C5.20549 18.7348 5.84293 18.9992 6.50781 19H16.4922C17.1571 18.9993 17.7945 18.7348 18.2646 18.2647C18.7348 17.7945 18.9992 17.1571 19 16.4922V6.50782C18.9992 5.84294 18.7348 5.2055 18.2646 4.73535C17.7945 4.26521 17.1571 4.00075 16.4922 4H6.50781Z" fill="#171723"/>
<path d="M0.523233 15C0.45451 15 0.386454 14.9865 0.322955 14.9602C0.259456 14.934 0.20176 14.8954 0.153165 14.8468C0.104571 14.7982 0.0660317 14.7405 0.0397504 14.677C0.0134692 14.6135 -3.8435e-05 14.5455 8.21421e-08 14.4767V5.85304C0.00194176 4.30114 0.619317 2.81338 1.71669 1.71611C2.81407 0.618847 4.30184 0.001681 5.85364 0H14.4768C14.6155 0 14.7486 0.0551299 14.8467 0.153262C14.9449 0.251393 15 0.384488 15 0.523268C15 0.662047 14.9449 0.795142 14.8467 0.893274C14.7486 0.991406 14.6155 1.04654 14.4768 1.04654H5.85364C4.57927 1.04786 3.35747 1.55465 2.45626 2.45573C1.55506 3.35681 1.04805 4.57859 1.04647 5.85304V14.4767C1.04651 14.5455 1.033 14.6135 1.00672 14.677C0.980438 14.7405 0.941898 14.7982 0.893304 14.8468C0.844709 14.8954 0.787012 14.934 0.723513 14.9602C0.660013 14.9865 0.591956 15 0.523233 15Z" fill="#171723"/>
</g>
</g>
<defs>
<clipPath id="clip0_5313_35036">
<rect width="20" height="20" fill="white"/>
</clipPath>
<clipPath id="clip1_5313_35036">
<rect width="20" height="20" fill="white"/>
</clipPath>
</defs>
</svg>
