<svg width="20" height="20" viewBox="0 0 20 20" fill="none" xmlns="http://www.w3.org/2000/svg">
<path fill-rule="evenodd" clip-rule="evenodd" d="M8.05583 6.45833C7.63215 6.45833 7.22582 6.62664 6.92623 6.92623C6.62664 7.22582 6.45833 7.63215 6.45833 8.05583V15.2775C6.45833 15.4873 6.49965 15.695 6.57994 15.8888C6.66022 16.0827 6.77789 16.2588 6.92623 16.4071C7.07457 16.5554 7.25068 16.6731 7.4445 16.7534C7.63831 16.8337 7.84605 16.875 8.05583 16.875H15.2775C15.4873 16.875 15.695 16.8337 15.8888 16.7534C16.0827 16.6731 16.2588 16.5554 16.4071 16.4071C16.5554 16.2588 16.6731 16.0827 16.7534 15.8888C16.8337 15.695 16.875 15.4873 16.875 15.2775V8.05583C16.875 7.84605 16.8337 7.63831 16.7534 7.4445C16.6731 7.25068 16.5554 7.07457 16.4071 6.92623C16.2588 6.77789 16.0827 6.66022 15.8888 6.57994C15.695 6.49965 15.4873 6.45833 15.2775 6.45833H8.05583ZM6.04235 6.04235C6.57636 5.50834 7.30063 5.20833 8.05583 5.20833H15.2775C15.6514 5.20833 16.0217 5.28199 16.3672 5.42509C16.7127 5.56819 17.0266 5.77793 17.291 6.04235C17.5554 6.30676 17.7651 6.62067 17.9082 6.96614C18.0513 7.31162 18.125 7.68189 18.125 8.05583V15.2775C18.125 15.6514 18.0513 16.0217 17.9082 16.3672C17.7651 16.7127 17.5554 17.0266 17.291 17.291C17.0266 17.5554 16.7127 17.7651 16.3672 17.9082C16.0217 18.0513 15.6514 18.125 15.2775 18.125H8.05583C7.68189 18.125 7.31162 18.0513 6.96614 17.9082C6.62067 17.7651 6.30676 17.5554 6.04235 17.291C5.77793 17.0266 5.56819 16.7127 5.42509 16.3672C5.28199 16.0217 5.20833 15.6514 5.20833 15.2775V8.05583C5.20833 7.30063 5.50834 6.57636 6.04235 6.04235Z" fill="#171723"/>
<path fill-rule="evenodd" clip-rule="evenodd" d="M4.16667 3.125C3.59518 3.125 3.125 3.59518 3.125 4.16667V12.4992C3.12556 12.6831 3.1746 12.8636 3.26718 13.0225C3.35987 13.1815 3.49291 13.3133 3.65287 13.4045C3.95274 13.5755 4.05725 13.9572 3.8863 14.257C3.71535 14.5569 3.33367 14.6614 3.0338 14.4905C2.68266 14.2903 2.39059 14.001 2.18712 13.6517C1.98364 13.3025 1.87598 12.9057 1.875 12.5015L1.875 12.5V4.16667C1.875 2.90482 2.90482 1.875 4.16667 1.875H12.5C12.9296 1.875 13.3028 1.98869 13.6196 2.21869C13.923 2.43886 14.1328 2.73566 14.2962 3.02958C14.464 3.33125 14.3554 3.7118 14.0538 3.87956C13.7521 4.04731 13.3715 3.93876 13.2038 3.63709C13.0822 3.4185 12.9795 3.29864 12.8853 3.23027C12.8047 3.17173 12.6954 3.125 12.5 3.125H4.16667Z" fill="#171723"/>
</svg>
