<svg width="20" height="20" viewBox="0 0 20 20" fill="none" xmlns="http://www.w3.org/2000/svg">
<g clip-path="url(#clip0_5313_35032)">
<g clip-path="url(#clip1_5313_35032)">
<path d="M19.7908 18.8048L10.9859 9.99952L19.7895 1.19525C19.8553 1.13074 19.9077 1.05383 19.9436 0.968957C19.9795 0.884084 19.9982 0.792934 19.9987 0.700778C19.9991 0.608621 19.9813 0.517287 19.9463 0.432055C19.9112 0.346824 19.8596 0.269387 19.7945 0.204221C19.7293 0.139056 19.6519 0.0874554 19.5666 0.0524033C19.4814 0.0173512 19.3901 -0.000456555 19.2979 8.89393e-06C19.2058 0.000474343 19.1146 0.0192041 19.0298 0.0551153C18.9449 0.0910265 18.868 0.143407 18.8035 0.209227L9.99987 9.01349L1.1952 0.208515C1.064 0.0799357 0.887365 0.00833021 0.70367 0.00925802C0.519975 0.0101858 0.344068 0.0835721 0.214174 0.21347C0.0842806 0.343369 0.010897 0.519282 0.00996924 0.702984C0.00904146 0.886685 0.0806451 1.06333 0.20922 1.19453L9.01385 9.99948L0.20922 18.8048C0.143402 18.8693 0.0910239 18.9462 0.055114 19.031C0.019204 19.1159 0.000474325 19.2071 8.89329e-06 19.2992C-0.000456539 19.3914 0.0173513 19.4827 0.0524021 19.5679C0.087453 19.6532 0.139052 19.7306 0.204215 19.7958C0.269378 19.8609 0.346812 19.9125 0.43204 19.9476C0.517269 19.9827 0.6086 20.0005 0.700753 20C0.792906 19.9995 0.884054 19.9808 0.968924 19.9449C1.05379 19.909 1.1307 19.8566 1.1952 19.7908L9.99983 10.9855L18.8048 19.7908C18.8693 19.8566 18.9462 19.909 19.0311 19.9449C19.1159 19.9808 19.2071 19.9995 19.2992 20C19.3914 20.0005 19.4827 19.9827 19.568 19.9476C19.6532 19.9125 19.7306 19.8609 19.7958 19.7958C19.8609 19.7306 19.9125 19.6532 19.9476 19.5679C19.9826 19.4827 20.0005 19.3914 20 19.2992C19.9995 19.2071 19.9808 19.1159 19.9449 19.031C19.909 18.9462 19.8566 18.8693 19.7908 18.8048L19.7908 18.8048Z" fill="#171723"/>
</g>
</g>
<defs>
<clipPath id="clip0_5313_35032">
<rect width="20" height="20" fill="white"/>
</clipPath>
<clipPath id="clip1_5313_35032">
<rect width="20" height="20" fill="white"/>
</clipPath>
</defs>
</svg>
