<svg width="20" height="20" viewBox="0 0 20 20" fill="none" xmlns="http://www.w3.org/2000/svg">
<path d="M14.5581 4.55808C14.8022 4.314 15.1978 4.314 15.4419 4.55808C15.6859 4.80216 15.6859 5.19779 15.4419 5.44187L10.8838 9.99998L15.4419 14.5581L15.485 14.6053C15.6853 14.8508 15.6707 15.213 15.4419 15.4419C15.213 15.6707 14.8508 15.6853 14.6053 15.485L14.5581 15.4419L9.99998 10.8838L5.44187 15.4419C5.19779 15.6859 4.80216 15.6859 4.55808 15.4419C4.314 15.1978 4.314 14.8022 4.55808 14.5581L9.11619 9.99998L4.55808 5.44187L4.51495 5.39467C4.31469 5.14919 4.32924 4.78692 4.55808 4.55808C4.78692 4.32924 5.14919 4.31469 5.39467 4.51495L5.44187 4.55808L9.99998 9.11619L14.5581 4.55808Z" fill="#171723"/>
</svg>
