<svg width="20" height="20" viewBox="0 0 20 20" fill="none" xmlns="http://www.w3.org/2000/svg">
<path d="M18.0273 14.6068C17.4809 14.0905 16.7786 13.7699 16.0143 13.6826C15.7667 11.6826 14.0192 10.098 11.8721 10.0033L11.7245 10C9.88323 10 8.2602 11.0225 7.59151 12.5426C6.31967 12.0583 4.65708 12.6383 4.04734 13.749C3.84446 14.137 3.74009 14.5511 3.73826 14.9567C3.51305 14.9743 3.29662 14.9792 3.08019 15.0273C2.05517 15.2461 1.25501 16.0166 1.04847 16.9893C0.898323 17.7523 1.09974 18.4928 1.61463 19.0807C2.14343 19.6667 2.90588 20 3.71153 20H15.5093C17.407 20 18.9729 18.6019 18.9996 16.8828C19.0132 16.0251 18.6682 15.2168 18.0273 14.6068Z" fill="#171723"/>
<path d="M2.79425 10.0977L6.98736 5.25965C7.38612 5.39351 7.82395 5.44397 8.28211 5.37155C9.12928 5.2389 9.86943 4.65784 10.2531 3.89003C10.6462 3.10227 10.5725 1.89541 10.3581 1.76316C10.212 1.66713 10.0822 1.83721 10.0822 1.83721L9.01575 2.9037C8.98401 2.93544 8.93763 2.94969 8.89287 2.94073C8.89287 2.94073 8.04448 2.92039 7.85812 2.73361C7.67135 2.54725 7.65141 1.69927 7.65141 1.69927C7.64246 1.65451 7.65263 1.6122 7.68478 1.58005C7.88375 1.38148 8.64099 0.623017 8.75452 0.509901C8.88513 0.378876 8.8359 0.228326 8.82206 0.208793C8.64791 -0.0377897 7.65629 -0.0674896 7.01339 0.127818C6.14913 0.389859 5.45659 1.11618 5.23279 1.99101C5.08305 2.57614 5.14205 3.13278 5.32475 3.62919L0.524154 7.76412C-0.136653 8.37202 -0.178153 9.40189 0.430971 10.0635C1.06411 10.7508 2.14402 10.7662 2.79425 10.0977ZM1.57436 8.6715C1.82501 8.6715 2.02805 8.87454 2.02805 9.12519C2.02805 9.37584 1.82501 9.57888 1.57436 9.57888C1.32371 9.57888 1.12067 9.37584 1.12067 9.12519C1.12067 8.87454 1.32371 8.6715 1.57436 8.6715Z" fill="#171723"/>
<path d="M12.988 4.9744C12.8146 5.1392 12.7776 5.39921 12.8972 5.60673L13.4714 6.59957C13.5914 6.80749 13.8355 6.90474 14.0654 6.83679L14.6766 6.65613C14.7588 6.63212 14.8483 6.6427 14.9252 6.68664C14.9989 6.72937 15.0534 6.80179 15.0733 6.88521L15.2247 7.51061C15.2809 7.74296 15.4876 7.90571 15.7264 7.90571H16.8759C17.1152 7.90571 17.3219 7.74296 17.378 7.51102L17.5294 6.88765C17.5493 6.80505 17.6026 6.73303 17.6759 6.6903C17.7507 6.64676 17.8403 6.63659 17.9233 6.6606L18.5373 6.84127C18.7664 6.90881 19.0113 6.81157 19.1305 6.60445L19.7051 5.6108C19.8251 5.4041 19.7881 5.14368 19.6152 4.97848L19.1537 4.53781C19.0919 4.47921 19.0565 4.39621 19.0565 4.30343C19.0565 4.21798 19.0919 4.13538 19.1537 4.07638L19.6152 3.63571C19.7881 3.47092 19.8255 3.2109 19.7063 3.0042L19.135 2.01136C19.015 1.80303 18.7712 1.70619 18.5409 1.77373L17.931 1.95399C17.8492 1.9784 17.7589 1.96782 17.6767 1.9198C17.603 1.87708 17.5493 1.80505 17.5294 1.72245L17.378 1.09949C17.3219 0.867148 17.1152 0.704799 16.8759 0.704799H15.7305C15.4916 0.704799 15.2849 0.867148 15.228 1.09949L15.0778 1.72123C15.0575 1.80424 15.0033 1.87666 14.926 1.92142C14.8524 1.96374 14.7625 1.97472 14.6811 1.95031L14.065 1.76924C13.8355 1.70088 13.5914 1.79894 13.4718 2.00605L12.8968 3.00011C12.7776 3.20723 12.815 3.46723 12.9876 3.63202L13.449 4.07188C13.5108 4.13129 13.5462 4.2143 13.5462 4.30707C13.5462 4.39211 13.5108 4.47512 13.449 4.53371L12.988 4.9744ZM16.3014 2.93218C17.0598 2.93218 17.6747 3.547 17.6747 4.30506C17.6747 5.06352 17.0598 5.67834 16.3014 5.67834C15.5433 5.67834 14.9285 5.06352 14.9285 4.30506C14.9285 3.547 15.5433 2.93218 16.3014 2.93218Z" fill="#171723"/>
</svg>
