<svg width="20" height="20" viewBox="0 0 20 20" fill="none" xmlns="http://www.w3.org/2000/svg">
<g clip-path="url(#clip0_16660_246052)">
<path d="M15.9502 0H4.05029C1.81348 0 0 1.81299 0 4.0498V15.9497C0 18.1865 1.81348 20 4.05029 20H15.9502C18.187 20 20 18.1865 20 15.9497V4.0498C20 1.81298 18.187 0 15.9502 0ZM4.19043 14.7344C4.10889 14.8184 4.00098 14.8599 3.89258 14.8599C3.7876 14.8599 3.68262 14.8198 3.60108 14.7412C3.43653 14.5801 3.4336 14.3164 3.59473 14.1519L7.74805 9.90479L3.60938 5.85449C3.44483 5.69336 3.44141 5.42969 3.60254 5.26513C3.76318 5.10009 4.02686 5.09814 4.1919 5.25878L8.62891 9.60009C8.79297 9.76122 8.79639 10.0249 8.63526 10.1895L4.19043 14.7344ZM16.083 14.8599H9.08203C8.90088 14.8599 8.75391 14.6733 8.75391 14.4434C8.75391 14.2129 8.90088 14.0264 9.08203 14.0264H16.083C16.2642 14.0264 16.4111 14.2129 16.4111 14.4434C16.4111 14.6733 16.2642 14.8599 16.083 14.8599Z" fill="#171723"/>
</g>
<defs>
<clipPath id="clip0_16660_246052">
<rect width="20" height="20" fill="white"/>
</clipPath>
</defs>
</svg>
