<svg width="20" height="20" viewBox="0 0 20 20" fill="none" xmlns="http://www.w3.org/2000/svg">
<g clip-path="url(#clip0_11426_133850)">
<path d="M4.19189 5.25879C4.02669 5.09847 3.76302 5.1001 3.6027 5.2653C3.44157 5.42969 3.44482 5.69336 3.60921 5.85449L7.74821 9.90478L3.59456 14.152C3.43342 14.3164 3.43668 14.5801 3.60107 14.7412C3.68245 14.8201 3.78742 14.86 3.89241 14.86C4.00064 14.86 4.10888 14.8185 4.19026 14.7347L8.63524 10.1896C8.79637 10.0252 8.79312 9.76156 8.62873 9.60042L4.19189 5.25879Z" fill="#171723"/>
<path d="M15.9322 0H4.06779C1.82413 0 0 1.82454 0 4.06779V15.9322C0 18.1754 1.82413 20 4.06779 20H15.9322C18.1754 20 20 18.1755 20 15.9322V4.06779C20 1.82455 18.1755 0 15.9322 0ZM18.9831 15.9322C18.9831 17.6143 17.6147 18.9827 15.9322 18.9827H4.06779C2.38526 18.9827 1.01685 17.6143 1.01685 15.9322V4.06779C1.01685 2.38526 2.38526 1.01685 4.06779 1.01685H15.9322C17.6147 1.01685 18.9831 2.38526 18.9831 4.06779V15.9322Z" fill="#171723"/>
<path d="M16.0828 14.0267H9.08203C8.90096 14.0267 8.75407 14.213 8.75407 14.4434C8.75407 14.6737 8.90097 14.86 9.08203 14.86H16.0828C16.2642 14.86 16.4111 14.6737 16.4111 14.4434C16.4111 14.213 16.2642 14.0267 16.0828 14.0267Z" fill="#171723"/>
</g>
<defs>
<clipPath id="clip0_11426_133850">
<rect width="20" height="20" fill="white"/>
</clipPath>
</defs>
</svg>
