<svg width="20" height="20" viewBox="0 0 20 20" fill="none" xmlns="http://www.w3.org/2000/svg">
<g clip-path="url(#clip0_11426_133845)">
<path d="M4.19176 5.25879C4.02656 5.09847 3.76289 5.1001 3.60257 5.2653C3.44144 5.42969 3.44469 5.69335 3.60908 5.85449L7.74808 9.90478L3.59443 14.152C3.43329 14.3164 3.43655 14.5801 3.60094 14.7412C3.68232 14.8201 3.78729 14.86 3.89228 14.86C4.00051 14.86 4.10875 14.8185 4.19013 14.7347L8.63511 10.1896C8.79625 10.0252 8.79299 9.76155 8.6286 9.60042L4.19176 5.25879Z" fill="#171723"/>
<path d="M15.9322 0H4.06779C1.82413 0 0 1.82454 0 4.06779V15.9322C0 18.1754 1.82413 20 4.06779 20H15.9322C18.1754 20 20 18.1755 20 15.9322V4.06779C20 1.82455 18.1755 0 15.9322 0ZM18.9831 15.9322C18.9831 17.6143 17.6147 18.9827 15.9322 18.9827H4.06779C2.38526 18.9827 1.01685 17.6143 1.01685 15.9322V4.06779C1.01685 2.38526 2.38526 1.01685 4.06779 1.01685H15.9322C17.6147 1.01685 18.9831 2.38526 18.9831 4.06779V15.9322Z" fill="#171723"/>
<path d="M16.0826 14.0267H9.08186C8.90079 14.0267 8.75391 14.213 8.75391 14.4433C8.75391 14.6736 8.9008 14.86 9.08186 14.86H16.0826C16.2641 14.86 16.411 14.6736 16.411 14.4433C16.411 14.213 16.2641 14.0267 16.0826 14.0267Z" fill="#171723"/>
</g>
<defs>
<clipPath id="clip0_11426_133845">
<rect width="20" height="20" fill="white"/>
</clipPath>
</defs>
</svg>
