<svg width="20" height="20" viewBox="0 0 20 20" fill="none" xmlns="http://www.w3.org/2000/svg">
<path fill-rule="evenodd" clip-rule="evenodd" d="M10.4934 10.4496C10.7053 10.7221 10.6562 11.1148 10.3837 11.3267L2.88374 17.16C2.61127 17.3719 2.2186 17.3228 2.00668 17.0504C1.79476 16.7779 1.84385 16.3852 2.11632 16.1733L9.61632 10.34C9.88878 10.1281 10.2815 10.1772 10.4934 10.4496Z" fill="#171723"/>
<path fill-rule="evenodd" clip-rule="evenodd" d="M10 1.875C10.3452 1.875 10.625 2.15482 10.625 2.5V10.5277L17.8837 16.1733C18.1562 16.3852 18.2053 16.7779 17.9934 17.0504C17.7815 17.3228 17.3888 17.3719 17.1163 17.16L9.61632 11.3267C9.46407 11.2083 9.37503 11.0262 9.37503 10.8333V2.5C9.37503 2.15482 9.65485 1.875 10 1.875Z" fill="#171723"/>
<path fill-rule="evenodd" clip-rule="evenodd" d="M14.1667 9.375C14.5119 9.375 14.7917 9.65482 14.7917 10V10.0125C14.7917 10.3577 14.5119 10.6375 14.1667 10.6375C13.8215 10.6375 13.5417 10.3577 13.5417 10.0125V10C13.5417 9.65482 13.8215 9.375 14.1667 9.375Z" fill="#171723"/>
<path fill-rule="evenodd" clip-rule="evenodd" d="M14.1667 2.72083C14.5119 2.72083 14.7917 3.00066 14.7917 3.34583V3.35833C14.7917 3.70351 14.5119 3.98333 14.1667 3.98333C13.8215 3.98333 13.5417 3.70351 13.5417 3.35833V3.34583C13.5417 3.00066 13.8215 2.72083 14.1667 2.72083Z" fill="#171723"/>
<path fill-rule="evenodd" clip-rule="evenodd" d="M17.5 6.05417C17.8452 6.05417 18.125 6.33399 18.125 6.67917V6.69167C18.125 7.03684 17.8452 7.31667 17.5 7.31667C17.1549 7.31667 16.875 7.03684 16.875 6.69167V6.67917C16.875 6.33399 17.1549 6.05417 17.5 6.05417Z" fill="#171723"/>
<path fill-rule="evenodd" clip-rule="evenodd" d="M10 15.2208C10.3452 15.2208 10.625 15.5007 10.625 15.8458V15.8583C10.625 16.2035 10.3452 16.4833 10 16.4833C9.65485 16.4833 9.37503 16.2035 9.37503 15.8583V15.8458C9.37503 15.5007 9.65485 15.2208 10 15.2208Z" fill="#171723"/>
<path fill-rule="evenodd" clip-rule="evenodd" d="M2.50003 9.3875C2.84521 9.3875 3.12503 9.66732 3.12503 10.0125V10.025C3.12503 10.3702 2.84521 10.65 2.50003 10.65C2.15485 10.65 1.87503 10.3702 1.87503 10.025V10.0125C1.87503 9.66732 2.15485 9.3875 2.50003 9.3875Z" fill="#171723"/>
<path fill-rule="evenodd" clip-rule="evenodd" d="M5.83336 6.05417C6.17854 6.05417 6.45836 6.33399 6.45836 6.67917V6.69167C6.45836 7.03684 6.17854 7.31667 5.83336 7.31667C5.48818 7.31667 5.20836 7.03684 5.20836 6.69167V6.67917C5.20836 6.33399 5.48818 6.05417 5.83336 6.05417Z" fill="#171723"/>
<path fill-rule="evenodd" clip-rule="evenodd" d="M2.50003 2.72083C2.84521 2.72083 3.12503 3.00066 3.12503 3.34583V3.35833C3.12503 3.70351 2.84521 3.98333 2.50003 3.98333C2.15485 3.98333 1.87503 3.70351 1.87503 3.35833V3.34583C1.87503 3.00066 2.15485 2.72083 2.50003 2.72083Z" fill="#171723"/>
</svg>
