<svg width="20" height="20" viewBox="0 0 20 20" fill="none" xmlns="http://www.w3.org/2000/svg">
<g clip-path="url(#clip0_5313_35091)">
<path d="M19.8232 9.92054L15.9113 6.09257C15.8562 6.03775 15.7909 5.99437 15.719 5.96495C15.6471 5.93553 15.5701 5.92065 15.4924 5.92116C15.4147 5.92166 15.3379 5.93756 15.2663 5.96792C15.1948 5.99828 15.13 6.04251 15.0757 6.09805C15.0214 6.15359 14.9786 6.21934 14.9498 6.29151C14.9211 6.36367 14.9069 6.44082 14.9081 6.51851C14.9093 6.59619 14.9259 6.67286 14.9569 6.7441C14.9879 6.81533 15.0327 6.87972 15.0887 6.93354L18.5802 10.3502L15.0726 13.937C15.0177 13.992 14.9743 14.0574 14.9448 14.1293C14.9153 14.2012 14.9004 14.2783 14.9009 14.356C14.9014 14.4337 14.9172 14.5106 14.9476 14.5822C14.978 14.6537 15.0222 14.7185 15.0778 14.7729C15.1333 14.8272 15.1991 14.87 15.2713 14.8988C15.3435 14.9276 15.4207 14.9418 15.4985 14.9405C15.5762 14.9393 15.6529 14.9227 15.7241 14.8916C15.7954 14.8605 15.8598 14.8157 15.9136 14.7596L19.8323 10.7524C19.8864 10.6971 19.929 10.6318 19.9578 10.5601C19.9866 10.4884 20.0009 10.4118 20.0001 10.3345C19.9992 10.2573 19.9832 10.181 19.9528 10.1099C19.9225 10.0389 19.8784 9.97455 19.8232 9.92054Z" fill="#171723"/>
<path d="M1.41972 10.3502L4.91024 6.93355C5.02065 6.82423 5.08331 6.67566 5.08456 6.52029C5.0858 6.36491 5.02551 6.21536 4.91687 6.10428C4.80823 5.99321 4.66004 5.92963 4.50468 5.92743C4.34932 5.92523 4.1994 5.98459 4.08766 6.09255L0.176935 9.92052C0.121706 9.97452 0.0776566 10.0389 0.0473038 10.1099C0.016951 10.1809 0.000889104 10.2572 3.58789e-05 10.3345C-0.000817346 10.4117 0.0135548 10.4884 0.0423311 10.5601C0.0711074 10.6317 0.113724 10.697 0.167747 10.7523L4.08536 14.7595C4.13998 14.8157 4.20535 14.8603 4.2776 14.8907C4.34984 14.9211 4.42747 14.9367 4.50584 14.9364C4.62162 14.9364 4.73482 14.9022 4.83127 14.8382C4.92771 14.7741 5.0031 14.683 5.048 14.5763C5.09289 14.4696 5.10529 14.352 5.08365 14.2382C5.06201 14.1245 5.00728 14.0197 4.92632 13.9369L1.41972 10.3502Z" fill="#171723"/>
<path d="M13.5923 2.04745C13.4487 1.98609 13.2867 1.98417 13.1418 2.0421C12.9968 2.10004 12.8808 2.2131 12.8191 2.35649L6.09709 18.0419C6.03623 18.1853 6.03467 18.3469 6.09276 18.4915C6.15085 18.636 6.26384 18.7516 6.407 18.813C6.55016 18.8744 6.71182 18.8766 6.85657 18.819C7.00133 18.7615 7.11738 18.6489 7.17931 18.506L13.9013 2.82064C13.9626 2.6771 13.9645 2.51511 13.9066 2.37018C13.8486 2.22524 13.7356 2.10919 13.5923 2.04745Z" fill="#171723"/>
</g>
<defs>
<clipPath id="clip0_5313_35091">
<rect width="20" height="20" fill="white"/>
</clipPath>
</defs>
</svg>
