<svg width="20" height="20" viewBox="0 0 20 20" fill="none" xmlns="http://www.w3.org/2000/svg">
<g clip-path="url(#clip0_18905_2084)">
<path fill-rule="evenodd" clip-rule="evenodd" d="M6.48 11.92C7.01333 11.92 8.08 11.8933 9.57333 11.28C11.3067 10.56 14.72 9.28 17.2 7.94667C18.9333 7.01333 19.68 5.78667 19.68 4.13333C19.68 1.86667 17.84 0 15.5467 0H5.94667C2.66667 0 0 2.66667 0 5.94667C0 9.22667 2.50667 11.92 6.48 11.92Z" fill="#39594D"/>
<path fill-rule="evenodd" clip-rule="evenodd" d="M8.10669 16C8.10669 14.4 9.06669 12.9333 10.56 12.32L13.5734 11.0666C16.64 9.8133 20 12.0533 20 15.36C20 17.92 17.92 20 15.36 20H12.08C9.89336 20 8.10669 18.2133 8.10669 16Z" fill="#D18EE2"/>
<path d="M3.44 12.6934C1.54667 12.6934 0 14.24 0 16.1334V16.5867C0 18.4534 1.54667 20 3.44 20C5.33333 20 6.88 18.4534 6.88 16.56V16.1067C6.85333 14.24 5.33333 12.6934 3.44 12.6934Z" fill="#FF7759"/>
</g>
<defs>
<clipPath id="clip0_18905_2084">
<rect width="20" height="20" fill="white"/>
</clipPath>
</defs>
</svg>
