<svg width="20" height="20" viewBox="0 0 20 20" fill="none" xmlns="http://www.w3.org/2000/svg">
<path d="M20 8.3748L19.9959 8.35792C19.9212 7.81573 19.6725 7.30079 19.2763 6.86819C18.8801 6.43558 18.3514 6.10159 17.7467 5.90192V3.58806C17.7467 1.57605 14.0701 0 9.37573 0C4.68134 0 1.00355 1.57605 1.00355 3.58806V6.75518L1 6.76996C1.07552 7.31404 1.32529 7.83073 1.7227 8.26501C2.12011 8.69928 2.6503 9.03488 3.25678 9.23607V11.2768C2.86994 11.4935 2.54897 11.7833 2.31963 12.123C2.0903 12.4628 1.95901 12.8429 1.93629 13.233C1.93629 13.243 1.93969 13.2527 1.93984 13.2626V16.3992L1.93629 16.4139C1.93629 18.4236 5.61274 19.9973 10.3059 19.998L10.3179 20L10.3326 19.9975C15.0151 19.9921 18.6794 18.4214 18.6816 16.4157L18.683 16.41V13.5053C19.0623 13.287 19.3777 12.9992 19.6052 12.6636C19.8327 12.328 19.9665 11.9533 19.9964 11.5679L20 11.5527L20 8.3748ZM18.7871 8.37283C18.7871 9.02815 17.9795 9.69439 16.5842 10.1965L16.5576 10.205C16.226 10.3209 15.887 10.4211 15.542 10.505C15.5169 10.5082 15.492 10.5129 15.4675 10.5189C15.0206 10.6315 14.5642 10.7155 14.1021 10.7702C13.2926 10.8891 12.4721 10.9476 11.6503 10.9448L11.6337 10.942L11.6198 10.9444C10.7885 10.9462 9.95861 10.8876 9.13936 10.7692C8.30346 10.66 7.48516 10.471 6.70038 10.2057C6.68818 10.2011 6.67525 10.1988 6.66262 10.1949L6.66032 10.1942C6.63357 10.1781 6.60513 10.1641 6.57535 10.1524C7.4981 10.2873 8.43304 10.3547 9.36966 10.354L9.38171 10.356L9.39641 10.3536C13.8438 10.3484 17.3664 8.93039 17.7113 7.0695C18.0004 7.19996 18.2486 7.38608 18.4356 7.61261C18.6226 7.83915 18.743 8.09966 18.7871 8.37283ZM5.7417 16.2393C6.19403 16.3629 6.65471 16.4637 7.12129 16.5412V18.6959C6.65297 18.6093 6.19208 18.4965 5.7417 18.3583V16.2393ZM8.33184 16.7104C8.77827 16.7575 9.23853 16.7881 9.71263 16.8023V18.9692C9.2323 18.9543 8.77203 18.9216 8.33184 18.8739V16.7104ZM10.9232 16.8021C11.3968 16.7877 11.8527 16.7571 12.291 16.7103V18.8734C11.8547 18.9208 11.3989 18.9537 10.9232 18.9688V16.8021ZM13.5015 16.5394C13.9681 16.4618 14.4288 16.361 14.8811 16.2375V18.3568C14.4307 18.4952 13.9699 18.6082 13.5015 18.695V16.5394ZM15.2405 15.0554C14.4528 15.332 13.6272 15.5255 12.7828 15.6314C11.9789 15.7492 11.1642 15.8074 10.3482 15.8054C10.3376 15.8049 10.3287 15.8002 10.3179 15.8002C10.3075 15.8002 10.2988 15.8047 10.2885 15.8052C9.46123 15.8066 8.63532 15.7481 7.81998 15.6304C6.97701 15.5236 6.15303 15.3294 5.3669 15.0524C3.97319 14.5608 3.16915 13.9072 3.15032 13.2564V13.232L3.14869 13.2253C3.16547 12.9427 3.29721 12.6735 3.52189 12.4628C4.43838 14.0193 7.66506 15.1408 11.6253 15.1408L11.6275 15.1407L11.6336 15.1417L11.6414 15.1404C13.2742 15.1544 14.8982 14.9387 16.4461 14.5021C16.0707 14.7245 15.6662 14.9102 15.2405 15.0554V15.0554ZM6.18619 6.9147V9.05214C5.71746 8.96554 5.25617 8.85266 4.80541 8.71424V6.60882C5.25835 6.73281 5.71936 6.83494 6.18619 6.9147V6.9147ZM8.77634 7.16459V9.32519C8.29646 9.31037 7.83667 9.27765 7.39674 9.23005V7.07624C7.84301 7.12106 8.30288 7.15051 8.77634 7.16459ZM11.3547 7.07624V9.2294C10.9184 9.27682 10.4626 9.30966 9.9869 9.3248V7.16434C10.4559 7.15043 10.9118 7.12106 11.3547 7.07624ZM13.9449 6.60908V8.71277C13.4945 8.85124 13.0336 8.96423 12.5653 9.05098V6.91464C13.0317 6.83491 13.4923 6.73289 13.9449 6.60908ZM16.5362 6.18043V6.76506L16.535 6.76996C16.535 7.26874 16.0324 7.78943 15.1554 8.23154V6.20209C15.6505 6.00604 16.1144 5.75855 16.5362 5.46541L16.5362 6.18043ZM8.43827 11.6806V13.8388C7.96995 13.7523 7.50906 13.6395 7.05868 13.5012V11.3821C7.51138 11.5036 7.97199 11.6033 8.43824 11.6806H8.43827ZM13.6068 11.8499V14.0162C13.1705 14.0636 12.7147 14.0965 12.239 14.1116V11.9411C12.7148 11.9268 13.1698 11.8965 13.6067 11.8499H13.6068ZM11.0284 14.1119C10.5485 14.0971 10.0887 14.0643 9.64882 14.0167V11.849C10.0949 11.8961 10.5547 11.9267 11.0284 11.941V14.1119ZM4.4673 10.2614C4.88921 10.5491 5.35325 10.7902 5.84809 10.9788V13.0213C4.96729 12.5786 4.46257 12.0566 4.46257 11.5567L4.46116 11.5508C4.46175 11.5418 4.4673 11.534 4.4673 11.5249V10.2614ZM14.8173 13.8378V11.6791C15.1313 11.6276 15.4449 11.5844 15.7618 11.507L15.8068 11.4981C15.8342 11.492 15.8572 11.4818 15.8844 11.4754L15.8878 11.4745C15.9963 11.449 16.0935 11.4128 16.1981 11.384V13.4992C15.7474 13.6379 15.2861 13.751 14.8173 13.8378V13.8378ZM9.37571 1.01693C13.5949 1.01693 16.5361 2.37149 16.5361 3.58806C16.5361 4.53518 14.7487 5.56347 11.9683 5.97392L11.9599 5.9725C11.9223 5.97569 11.8851 5.98199 11.8489 5.9913C11.0401 6.10329 10.2217 6.15961 9.40197 6.1597C9.3948 6.15951 9.38881 6.15622 9.38157 6.15622C9.37388 6.15622 9.36761 6.15963 9.36 6.15988C8.53799 6.16019 7.71732 6.10402 6.90621 5.99192C6.86885 5.98219 6.8304 5.97568 6.79146 5.9725L6.78282 5.97398C4.00167 5.56359 2.21406 4.53518 2.21406 3.58806C2.21406 2.37152 5.15533 1.01693 9.37571 1.01693ZM2.21148 6.7766L2.21406 6.76598V5.46521C2.63586 5.7583 3.09974 6.00579 3.59485 6.20191V8.23404C2.71878 7.79341 2.21591 7.27426 2.21148 6.7766ZM3.14776 16.4206L3.15035 16.41V15.1312C3.57361 15.4163 4.03744 15.6561 4.53114 15.8451V17.878C3.65507 17.4374 3.1522 16.9182 3.14776 16.4206ZM16.0917 17.8755V15.843C16.5872 15.6527 17.0513 15.4093 17.4725 15.119V16.409L17.4712 16.4139C17.4713 16.9127 16.9687 17.4334 16.0917 17.8755V17.8755ZM17.8642 12.7598C17.7685 12.7912 17.6842 12.843 17.6194 12.91C17.5536 12.9468 17.4795 12.9819 17.4086 13.0177V10.9907C17.9024 10.7981 18.3662 10.5552 18.7894 10.2675V11.5468L18.787 11.5567C18.7512 11.8027 18.6495 12.0387 18.4897 12.2471C18.3299 12.4554 18.1161 12.6307 17.8642 12.7598V12.7598Z" fill="#171723"/>
</svg>
