<svg width="20" height="20" viewBox="0 0 20 20" fill="none" xmlns="http://www.w3.org/2000/svg">
<path fill-rule="evenodd" clip-rule="evenodd" d="M5.52941 17.24L9.54303 13.934C9.66699 13.8312 9.84505 13.7724 10.0302 13.7724C10.2153 13.7724 10.3929 13.8312 10.5173 13.9342L14.5175 17.2395C14.7233 17.4099 14.93 17.5 15.1381 17.5C15.4902 17.5 15.8333 17.2366 15.8333 16.6479V3.77331C15.8333 3.0831 15.2404 2.5 14.5098 2.5H5.53881C4.80819 2.5 4.16667 3.0831 4.16667 3.77331V16.6479C4.16667 16.8789 4.23295 17.0715 4.33977 17.2202C4.46752 17.3981 4.67322 17.5 4.89379 17.4999C5.10233 17.4999 5.32437 17.4099 5.52941 17.24ZM5.5 15.5368L8.69232 12.9073C8.69299 12.9067 8.69367 12.9062 8.69434 12.9056C9.0936 12.5757 9.58608 12.4391 10.0302 12.4391C10.4759 12.4391 10.9681 12.5766 11.3671 12.9068C11.3674 12.907 11.3676 12.9073 11.3679 12.9075L14.5 15.4954V3.83333H5.53881C5.53393 3.83333 5.5252 3.83431 5.51331 3.83909C5.5086 3.84098 5.50413 3.84318 5.5 3.84554V15.5368ZM4.67197 16.2185C4.67197 16.2185 4.67261 16.218 4.67388 16.2171C4.67261 16.2181 4.67197 16.2185 4.67197 16.2185Z" fill="#171723"/>
</svg>
