<svg width="20" height="20" viewBox="0 0 20 20" fill="none" xmlns="http://www.w3.org/2000/svg">
<g clip-path="url(#clip0_5886_36181)">
<path d="M17.2746 9.58864C17.2718 9.56807 17.2676 9.54771 17.262 9.5277C17.2415 9.44032 17.1976 9.36016 17.1351 9.29575L11.8756 4.14846C11.828 4.10101 11.7715 4.06346 11.7093 4.03798C11.6471 4.0125 11.5805 3.9996 11.5133 4.00001C11.4462 4.00042 11.3797 4.01415 11.3179 4.0404C11.256 4.06664 11.2 4.10489 11.153 4.15292C11.106 4.20095 11.069 4.25782 11.0441 4.32024C11.0193 4.38266 11.007 4.44938 11.0081 4.51657C11.0091 4.58375 11.0235 4.65005 11.0504 4.71165C11.0772 4.77324 11.116 4.8289 11.1645 4.87541L15.5332 9.15073H0.50847C0.373616 9.15073 0.244284 9.2043 0.148928 9.29966C0.0535709 9.39502 0 9.52435 0 9.6592C0 9.79406 0.0535709 9.92339 0.148928 10.0187C0.244284 10.1141 0.373616 10.1677 0.50847 10.1677H15.5713L11.1476 14.6923C11.1002 14.7399 11.0627 14.7964 11.0373 14.8585C11.0118 14.9207 10.999 14.9872 10.9994 15.0544C10.9999 15.1216 11.0136 15.188 11.0398 15.2498C11.0661 15.3116 11.1043 15.3676 11.1523 15.4146C11.2003 15.4615 11.2572 15.4985 11.3196 15.5234C11.3819 15.5483 11.4486 15.5605 11.5158 15.5595C11.5829 15.5584 11.6492 15.5441 11.7108 15.5173C11.7724 15.4905 11.828 15.4518 11.8746 15.4033L17.143 10.0147C17.1871 9.96889 17.222 9.91509 17.246 9.85622L17.2503 9.85088L17.2504 9.84932C17.2814 9.7661 17.2898 9.67614 17.2746 9.58864Z" fill="#171723"/>
<path d="M19.4914 4.00348C19.4246 4.00344 19.3585 4.01657 19.2968 4.04211C19.235 4.06764 19.179 4.1051 19.1318 4.15232C19.0845 4.19954 19.0471 4.25561 19.0215 4.31732C18.996 4.37903 18.9829 4.44517 18.9829 4.51195V15.0478C18.9829 15.1827 19.0365 15.312 19.1318 15.4074C19.2272 15.5027 19.3565 15.5563 19.4914 15.5563C19.6262 15.5563 19.7556 15.5027 19.8509 15.4074C19.9463 15.312 19.9999 15.1827 19.9999 15.0478V4.51195C19.9999 4.44517 19.9868 4.37903 19.9612 4.31732C19.9357 4.25561 19.8982 4.19954 19.851 4.15232C19.8038 4.1051 19.7477 4.06764 19.686 4.04211C19.6243 4.01657 19.5582 4.00344 19.4914 4.00348Z" fill="#171723"/>
</g>
<defs>
<clipPath id="clip0_5886_36181">
<rect width="20" height="20" fill="white" transform="translate(0 20) rotate(-90)"/>
</clipPath>
</defs>
</svg>
