<svg width="20" height="20" viewBox="0 0 20 20" fill="none" xmlns="http://www.w3.org/2000/svg">
<path d="M14.5098 2.5H5.53883C4.80821 2.5 4.16669 3.0831 4.16669 3.77331V16.6479C4.16669 16.8789 4.23297 17.0715 4.33979 17.2202C4.46754 17.3981 4.67324 17.5 4.89381 17.4999C5.10235 17.4999 5.32438 17.4099 5.52943 17.24L9.54305 13.934C9.66701 13.8312 9.84507 13.7724 10.0302 13.7724C10.2153 13.7724 10.393 13.8312 10.5173 13.9342L14.5175 17.2395C14.7233 17.4099 14.93 17.5 15.1382 17.5C15.4902 17.5 15.8334 17.2366 15.8334 16.6479V3.77331C15.8334 3.0831 15.2405 2.5 14.5098 2.5Z" fill="#171723"/>
</svg>
