<svg width="20" height="20" viewBox="0 0 20 20" fill="none" xmlns="http://www.w3.org/2000/svg">
<path fill-rule="evenodd" clip-rule="evenodd" d="M9.38148 8.11791C9.72319 8.45961 10.2772 8.45961 10.6189 8.11791L13.9523 4.78457C14.294 4.44286 14.294 3.88884 13.9523 3.54714C13.6105 3.20543 13.0565 3.20543 12.7148 3.54714L10.0002 6.26175L7.28559 3.54714C6.94388 3.20543 6.38986 3.20543 6.04815 3.54714C5.70644 3.88884 5.70644 4.44286 6.04815 4.78457L9.38148 8.11791Z" fill="#171723"/>
<path fill-rule="evenodd" clip-rule="evenodd" d="M6.04815 16.4525C6.38986 16.7942 6.94388 16.7942 7.28559 16.4525L10.0002 13.7378L12.7148 16.4525C13.0565 16.7942 13.6105 16.7942 13.9523 16.4525C14.294 16.1107 14.294 15.5567 13.9523 15.215L10.6189 11.8817C10.2772 11.54 9.72319 11.54 9.38148 11.8817L6.04815 15.215C5.70644 15.5567 5.70644 16.1107 6.04815 16.4525Z" fill="#171723"/>
</svg>
