<svg width="20" height="20" viewBox="0 0 20 20" fill="none" xmlns="http://www.w3.org/2000/svg">
<path d="M3.59215 11.0812L10.1441 5.1791L16.3934 11.0604C16.4522 11.1168 16.5225 11.162 16.6004 11.1933C16.6783 11.2245 16.7621 11.2413 16.847 11.2425C16.9319 11.2438 17.0163 11.2295 17.0952 11.2005C17.1741 11.1716 17.246 11.1285 17.3067 11.0738C17.3674 11.0191 17.4158 10.9538 17.4489 10.8818C17.4821 10.8098 17.4995 10.7324 17.5 10.6542C17.5005 10.576 17.4842 10.4984 17.452 10.426C17.4198 10.3536 17.3723 10.2878 17.3123 10.2324L10.6136 3.92809C10.5545 3.8725 10.4842 3.82816 10.4066 3.79761C10.329 3.76706 10.2456 3.75089 10.1612 3.75003C10.0768 3.74918 9.99304 3.76364 9.91471 3.79261C9.83638 3.82157 9.76502 3.86447 9.70469 3.91884L2.69333 10.2348C2.6319 10.2897 2.58312 10.3555 2.5499 10.4283C2.51669 10.501 2.49972 10.5791 2.5 10.658C2.50001 10.7745 2.53735 10.8885 2.60735 10.9855C2.67736 11.0826 2.7769 11.1585 2.89352 11.2037C3.01013 11.2489 3.13864 11.2613 3.26292 11.2396C3.3872 11.2178 3.50171 11.1627 3.59215 11.0812Z" fill="#171723"/>
<path d="M3.59215 16.0812L10.1441 10.1791L16.3934 16.0604C16.4522 16.1168 16.5225 16.162 16.6004 16.1933C16.6783 16.2245 16.7621 16.2413 16.847 16.2425C16.9319 16.2438 17.0163 16.2295 17.0952 16.2005C17.1741 16.1716 17.246 16.1285 17.3067 16.0738C17.3674 16.0191 17.4158 15.9538 17.4489 15.8818C17.4821 15.8098 17.4995 15.7324 17.5 15.6542C17.5005 15.576 17.4842 15.4984 17.452 15.426C17.4198 15.3536 17.3723 15.2878 17.3123 15.2324L10.6136 8.92809C10.5545 8.8725 10.4842 8.82816 10.4066 8.79761C10.329 8.76706 10.2456 8.75089 10.1612 8.75003C10.0768 8.74918 9.99304 8.76364 9.91471 8.79261C9.83638 8.82157 9.76502 8.86447 9.70469 8.91884L2.69333 15.2348C2.6319 15.2897 2.58312 15.3555 2.5499 15.4283C2.51669 15.501 2.49972 15.5791 2.5 15.658C2.50001 15.7745 2.53735 15.8885 2.60735 15.9855C2.67736 16.0826 2.7769 16.1585 2.89352 16.2037C3.01013 16.2489 3.13864 16.2613 3.26292 16.2396C3.3872 16.2178 3.50171 16.1627 3.59215 16.0812Z" fill="#171723"/>
</svg>
