<svg width="20" height="20" viewBox="0 0 20 20" fill="none" xmlns="http://www.w3.org/2000/svg">
<g clip-path="url(#clip0_20078_1958)">
<path d="M18.0721 1.92773C18.0334 1.88903 17.9875 1.85833 17.937 1.83739C17.8864 1.81644 17.8322 1.80566 17.7775 1.80566C17.7228 1.80566 17.6686 1.81644 17.6181 1.83739C17.5675 1.85833 17.5216 1.88903 17.4829 1.92773L12.6522 6.75845V5.53287C12.6522 5.42236 12.6083 5.31638 12.5301 5.23824C12.452 5.1601 12.346 5.1162 12.2355 5.1162C12.125 5.1162 12.019 5.1601 11.9409 5.23824C11.8627 5.31638 11.8188 5.42236 11.8188 5.53287V7.76431L11.8191 7.76498L11.8188 7.76594C11.8207 7.83988 11.8427 7.91191 11.8826 7.97423C11.89 7.98679 11.8982 7.99891 11.907 8.01054C11.9444 8.06307 11.9936 8.10604 12.0507 8.13594C12.1077 8.16585 12.1711 8.18184 12.2355 8.18261H14.4718C14.5824 8.18261 14.6883 8.13871 14.7665 8.06057C14.8446 7.98243 14.8885 7.87645 14.8885 7.76594C14.8885 7.65544 14.8446 7.54946 14.7665 7.47132C14.6883 7.39318 14.5824 7.34928 14.4718 7.34928H13.2397L18.0721 2.51692C18.1108 2.47824 18.1415 2.43231 18.1624 2.38177C18.1834 2.33122 18.1942 2.27704 18.1942 2.22232C18.1942 2.16761 18.1834 2.11343 18.1624 2.06288C18.1415 2.01233 18.1108 1.96641 18.0721 1.92773V1.92773Z" fill="#171723"/>
<path d="M8.12016 12.035C8.10988 12.0166 8.0981 11.9991 8.08491 11.9827C8.04737 11.9317 7.99851 11.8902 7.94217 11.8613C7.88583 11.8324 7.82356 11.817 7.76026 11.8163H5.53859C5.42808 11.8163 5.3221 11.8602 5.24396 11.9383C5.16582 12.0165 5.12192 12.1224 5.12192 12.233C5.12192 12.3435 5.16582 12.4494 5.24396 12.5276C5.3221 12.6057 5.42808 12.6496 5.53859 12.6496H6.75989L1.92773 17.4746C1.84932 17.5562 1.80556 17.665 1.80566 17.7782C1.8064 17.8632 1.8332 17.9459 1.88243 18.0152C1.93167 18.0845 2.00098 18.137 2.081 18.1656C2.16103 18.1943 2.24792 18.1977 2.32995 18.1754C2.41197 18.1531 2.48519 18.1062 2.53971 18.041L7.34766 13.2404V14.4522C7.34766 14.5627 7.39156 14.6686 7.4697 14.7468C7.54784 14.8249 7.65382 14.8688 7.76432 14.8688C7.87483 14.8688 7.98081 14.8249 8.05895 14.7468C8.13709 14.6686 8.18099 14.5627 8.18099 14.4522V12.2354C8.18099 12.2226 8.17148 12.2129 8.17036 12.2003C8.16566 12.1423 8.14854 12.0859 8.12016 12.035V12.035Z" fill="#171723"/>
</g>
<defs>
<clipPath id="clip0_20078_1958">
<rect width="20" height="20" fill="white"/>
</clipPath>
</defs>
</svg>
