<svg width="20" height="20" viewBox="0 0 20 20" fill="none" xmlns="http://www.w3.org/2000/svg">
<path fill-rule="evenodd" clip-rule="evenodd" d="M6.23192 4.87098C6.04158 4.79214 5.83214 4.77151 5.63007 4.8117C5.42801 4.8519 5.2424 4.95111 5.09672 5.09679C4.95104 5.24246 4.85184 5.42807 4.81164 5.63014C4.77145 5.8322 4.79208 6.04164 4.87092 6.23198C4.94976 6.42232 5.08327 6.58501 5.25458 6.69947C5.42588 6.81393 5.62727 6.87502 5.83329 6.87502H6.87496V5.83335C6.87496 5.62733 6.81387 5.42594 6.69941 5.25464C6.58495 5.08333 6.42226 4.94982 6.23192 4.87098ZM8.12496 6.87502V5.83335C8.12496 5.38011 7.99056 4.93704 7.73874 4.56017C7.48693 4.18331 7.12902 3.88958 6.71028 3.71613C6.29153 3.54268 5.83075 3.4973 5.38621 3.58572C4.94167 3.67415 4.53334 3.89241 4.21284 4.2129C3.89235 4.5334 3.67409 4.94173 3.58566 5.38627C3.49724 5.83081 3.54262 6.29159 3.71607 6.71034C3.88952 7.12909 4.18325 7.48699 4.56011 7.73881C4.93697 7.99062 5.38004 8.12502 5.83329 8.12502H6.87496V11.875H5.83329C5.38004 11.875 4.93697 12.0094 4.56011 12.2612C4.18325 12.513 3.88952 12.871 3.71607 13.2897C3.54262 13.7085 3.49724 14.1692 3.58566 14.6138C3.67409 15.0583 3.89235 15.4666 4.21284 15.7871C4.53334 16.1076 4.94167 16.3259 5.38621 16.4143C5.83075 16.5027 6.29153 16.4574 6.71028 16.2839C7.12902 16.1105 7.48693 15.8167 7.73874 15.4399C7.99056 15.063 8.12496 14.6199 8.12496 14.1667V13.125H11.875V14.1667C11.875 14.6199 12.0094 15.063 12.2612 15.4399C12.513 15.8167 12.8709 16.1105 13.2896 16.2839C13.7084 16.4574 14.1692 16.5027 14.6137 16.4143C15.0582 16.3259 15.4666 16.1076 15.7871 15.7871C16.1076 15.4666 16.3258 15.0583 16.4143 14.6138C16.5027 14.1692 16.4573 13.7085 16.2839 13.2897C16.1104 12.871 15.8167 12.513 15.4398 12.2612C15.0629 12.0094 14.6199 11.875 14.1666 11.875H13.125V8.12502H14.1666C14.6199 8.12502 15.0629 7.99062 15.4398 7.73881C15.8167 7.48699 16.1104 7.12908 16.2839 6.71034C16.4573 6.29159 16.5027 5.83081 16.4143 5.38627C16.3258 4.94173 16.1076 4.5334 15.7871 4.2129C15.4666 3.89241 15.0582 3.67415 14.6137 3.58572C14.1692 3.4973 13.7084 3.54268 13.2896 3.71613C12.8709 3.88958 12.513 4.18331 12.2612 4.56017C12.0094 4.93704 11.875 5.38011 11.875 5.83335V6.87502H8.12496ZM8.12496 8.12502V11.875H11.875V8.12502H8.12496ZM13.125 6.87502H14.1666C14.3726 6.87502 14.574 6.81393 14.7453 6.69947C14.9166 6.58501 15.0502 6.42232 15.129 6.23198C15.2078 6.04164 15.2285 5.8322 15.1883 5.63014C15.1481 5.42807 15.0489 5.24247 14.9032 5.09679C14.7575 4.95111 14.5719 4.8519 14.3698 4.8117C14.1678 4.77151 13.9583 4.79214 13.768 4.87098C13.5777 4.94982 13.415 5.08333 13.3005 5.25464C13.1861 5.42594 13.125 5.62733 13.125 5.83335V6.87502ZM13.125 13.125V14.1667C13.125 14.3727 13.1861 14.5741 13.3005 14.7454C13.415 14.9167 13.5777 15.0502 13.768 15.1291C13.9583 15.2079 14.1678 15.2285 14.3698 15.1883C14.5719 15.1481 14.7575 15.0489 14.9032 14.9033C15.0489 14.7576 15.1481 14.572 15.1883 14.3699C15.2285 14.1678 15.2078 13.9584 15.129 13.7681C15.0502 13.5777 14.9166 13.415 14.7453 13.3006C14.574 13.1861 14.3726 13.125 14.1666 13.125H13.125ZM6.87496 13.125H5.83329C5.62727 13.125 5.42588 13.1861 5.25458 13.3006C5.08327 13.415 4.94976 13.5777 4.87092 13.7681C4.79208 13.9584 4.77145 14.1678 4.81164 14.3699C4.85184 14.572 4.95104 14.7576 5.09672 14.9033C5.2424 15.0489 5.42801 15.1481 5.63007 15.1883C5.83214 15.2285 6.04158 15.2079 6.23192 15.1291C6.42226 15.0502 6.58495 14.9167 6.69941 14.7454C6.81387 14.5741 6.87496 14.3727 6.87496 14.1667V13.125Z" fill="#171723"/>
</svg>
