<svg width="20" height="20" viewBox="0 0 20 20" fill="none" xmlns="http://www.w3.org/2000/svg">
<path d="M1.60889 17.391L3.13618 12.2179C2.91396 11.7233 2.73847 11.2077 2.60972 10.6712C2.48097 10.1348 2.41659 9.57774 2.41659 8.99996C2.41659 7.94649 2.61396 6.96246 3.00868 6.04788C3.4034 5.13329 3.94653 4.33017 4.63805 3.6385C5.32958 2.94683 6.13576 2.40364 7.0566 2.00892C7.97729 1.61406 8.96111 1.41663 10.0081 1.41663C11.055 1.41663 12.0359 1.61399 12.9508 2.00871C13.8656 2.40343 14.669 2.94656 15.3608 3.63808C16.0526 4.32961 16.596 5.13413 16.991 6.05163C17.3858 6.96926 17.5833 7.94968 17.5833 8.99288C17.5833 10.0361 17.3858 11.0186 16.991 11.9404C16.5962 12.8622 16.0531 13.669 15.3614 14.3608C14.6697 15.0526 13.8666 15.596 12.952 15.991C12.0374 16.3859 11.0534 16.5833 9.99993 16.5833C9.42215 16.5833 8.86507 16.5189 8.32868 16.3902C7.79215 16.2614 7.2766 16.0859 6.78201 15.8637L1.60889 17.391ZM3.2291 15.7708L6.85409 14.7083C6.86479 14.7083 6.86479 14.7057 6.85409 14.7004C6.8434 14.695 6.8434 14.6976 6.85409 14.7083C7.00687 14.7777 7.36104 14.927 7.9166 15.1562C8.47215 15.3854 9.1666 15.5 9.99993 15.5C11.8055 15.5 13.3402 14.868 14.6041 13.6041C15.868 12.3402 16.4999 10.8055 16.4999 8.99996C16.4999 7.1944 15.868 5.65968 14.6041 4.39579C13.3402 3.1319 11.8055 2.49996 9.99993 2.49996C8.19437 2.49996 6.65965 3.1319 5.39576 4.39579C4.13187 5.65968 3.49993 7.1944 3.49993 8.99996C3.49993 9.83329 3.61104 10.5243 3.83326 11.0729C4.05548 11.6215 4.20826 11.9791 4.29159 12.1458L3.2291 15.7708Z" fill="#171723"/>
</svg>
