<svg width="24" height="24" viewBox="0 0 24 24" fill="none" xmlns="http://www.w3.org/2000/svg">
<g clip-path="url(#clip0_10317_147256)">
<g clip-path="url(#clip1_10317_147256)">
<path d="M12.3342 12.0223H10.8682C10.7425 12.0223 10.6218 11.9723 10.5329 11.8833C10.444 11.7944 10.394 11.6738 10.394 11.548V10.082C10.394 10.0197 10.4063 9.95807 10.4301 9.90053C10.454 9.843 10.4889 9.79072 10.5329 9.74669C10.577 9.70265 10.6292 9.66772 10.6868 9.64389C10.7443 9.62005 10.806 9.60779 10.8682 9.60779H12.3342C12.3965 9.60778 12.4582 9.62005 12.5157 9.64387C12.5733 9.6677 12.6256 9.70263 12.6696 9.74667C12.7136 9.7907 12.7486 9.84298 12.7724 9.90052C12.7963 9.95806 12.8085 10.0197 12.8085 10.082V11.548C12.8085 11.6103 12.7963 11.672 12.7725 11.7295C12.7486 11.7871 12.7137 11.8394 12.6696 11.8834C12.6256 11.9274 12.5733 11.9624 12.5158 11.9862C12.4582 12.01 12.3965 12.0223 12.3342 12.0223V12.0223Z" fill="#29CEF6"/>
<path d="M17.4891 17.3629L6.63659 6.51037C6.60702 6.48079 6.57047 6.45914 6.53031 6.44744C6.49016 6.43573 6.4477 6.43434 6.40687 6.4434C6.36604 6.45245 6.32815 6.47166 6.29671 6.49925C6.26527 6.52683 6.24129 6.5619 6.227 6.6012L0.0144658 23.6775C-0.00115156 23.7204 -0.00419703 23.7669 0.00568723 23.8115C0.0155715 23.8561 0.0379747 23.8969 0.070264 23.9292C0.102553 23.9615 0.143387 23.9839 0.187965 23.9937C0.232544 24.0036 0.279015 24.0006 0.321917 23.9849L17.3982 17.7725C17.4375 17.7582 17.4726 17.7342 17.5002 17.7028C17.5278 17.6713 17.547 17.6334 17.556 17.5926C17.5651 17.5518 17.5637 17.5093 17.552 17.4692C17.5403 17.429 17.5187 17.3924 17.4891 17.3629V17.3629Z" fill="#F78E36"/>
<path d="M0.0144199 23.6775L0.386143 22.6558C0.398124 22.6228 0.417173 22.5929 0.441953 22.5681C0.466733 22.5433 0.496641 22.5243 0.529577 22.5123L16.7408 16.6145L17.489 17.3628C17.5186 17.3924 17.5402 17.4289 17.5519 17.4691C17.5636 17.5092 17.565 17.5517 17.5559 17.5925C17.5469 17.6333 17.5277 17.6712 17.5001 17.7027C17.4725 17.7341 17.4374 17.7581 17.3981 17.7724L0.321845 23.9849C0.278941 24.0005 0.232481 24.0035 0.18792 23.9936C0.143359 23.9837 0.102545 23.9613 0.0702693 23.929C0.0379936 23.8968 0.0155949 23.856 0.00570234 23.8114C-0.00419019 23.7668 -0.00116583 23.7204 0.0144199 23.6775V23.6775Z" fill="#F86F1B"/>
<path d="M6.16217 21.86L1.71568 18.9999L1.07275 20.7683L3.99492 22.6484L6.16217 21.86Z" fill="#F3F3F3"/>
<path d="M2.6084 21.7562L4.77542 20.9678L6.16262 21.8601L3.99538 22.6486L2.6084 21.7562Z" fill="#E4E4E4"/>
<path d="M11.5627 19.8953L3.31957 14.5928L2.67627 16.3609L9.39615 20.6837L11.5627 19.8953Z" fill="#F3F3F3"/>
<path d="M8.00928 19.7911L10.176 19.0029L11.5631 19.8952L9.39658 20.6836L8.00928 19.7911Z" fill="#E4E4E4"/>
<path d="M16.9637 17.9305L4.9232 10.1855L4.28027 11.9532L14.7972 18.7189L16.9637 17.9305Z" fill="#F3F3F3"/>
<path d="M15.5763 17.0383L16.9635 17.9305L14.7969 18.7189L13.4097 17.8264L15.5763 17.0383Z" fill="#E4E4E4"/>
<path d="M8.8946 4.22853L7.68753 3.39668C7.58398 3.32531 7.51302 3.21572 7.49025 3.09203C7.46749 2.96834 7.4948 2.84068 7.56616 2.73712L8.3981 1.53005C8.46947 1.4265 8.57906 1.35554 8.70275 1.33278C8.82644 1.31002 8.95411 1.33733 9.05767 1.4087L10.2648 2.24061C10.3683 2.312 10.4393 2.42159 10.462 2.54528C10.4848 2.66897 10.4574 2.79663 10.3861 2.90018L9.55422 4.10725C9.48283 4.2108 9.37323 4.28175 9.24953 4.3045C9.12583 4.32724 8.99816 4.29992 8.8946 4.22853V4.22853Z" fill="#F75632"/>
<path d="M20.9165 9.8384L20.1837 8.56879C20.1525 8.51486 20.1323 8.45532 20.1242 8.39358C20.116 8.33184 20.1202 8.2691 20.1363 8.20894C20.1524 8.14878 20.1802 8.09239 20.2181 8.04298C20.256 7.99357 20.3033 7.95211 20.3572 7.92097L21.6268 7.188C21.7357 7.1251 21.8652 7.10806 21.9867 7.14061C22.1082 7.17316 22.2118 7.25264 22.2747 7.36157L23.0075 8.63118C23.0387 8.68511 23.0589 8.74464 23.067 8.80638C23.0752 8.86813 23.0711 8.93087 23.055 8.99102C23.0389 9.05118 23.0111 9.10757 22.9731 9.15698C22.9352 9.20639 22.888 9.24785 22.834 9.27898L21.5644 10.0119C21.5105 10.0431 21.451 10.0633 21.3892 10.0714C21.3275 10.0796 21.2647 10.0755 21.2045 10.0594C21.1444 10.0432 21.088 10.0154 21.0386 9.97753C20.9891 9.93961 20.9477 9.89234 20.9165 9.8384V9.8384Z" fill="#FFD54F"/>
<path d="M20.9072 15.7304V14.2644C20.9072 14.2021 20.9195 14.1404 20.9433 14.0829C20.9671 14.0254 21.002 13.9731 21.0461 13.929C21.0901 13.885 21.1424 13.85 21.1999 13.8262C21.2575 13.8024 21.3191 13.7901 21.3814 13.7901H22.8474C22.9732 13.7901 23.0938 13.8401 23.1827 13.929C23.2717 14.018 23.3216 14.1386 23.3216 14.2644V15.7304C23.3216 15.7927 23.3094 15.8543 23.2855 15.9119C23.2617 15.9694 23.2268 16.0217 23.1827 16.0657C23.1387 16.1097 23.0864 16.1447 23.0289 16.1685C22.9713 16.1923 22.9097 16.2046 22.8474 16.2046H21.3814C21.3191 16.2046 21.2575 16.1923 21.1999 16.1685C21.1424 16.1447 21.0901 16.1097 21.0461 16.0657C21.0021 16.0217 20.9671 15.9694 20.9433 15.9119C20.9195 15.8543 20.9072 15.7927 20.9072 15.7304V15.7304Z" fill="#F75632"/>
<path d="M18.1938 2.15533V0.689382C18.1939 0.563601 18.2438 0.442976 18.3328 0.354041C18.4217 0.265106 18.5424 0.215146 18.6681 0.215149H20.1341C20.2599 0.215156 20.3805 0.265122 20.4694 0.354057C20.5584 0.442993 20.6083 0.563612 20.6083 0.689382V2.15533C20.6083 2.21761 20.5961 2.27927 20.5723 2.33681C20.5484 2.39435 20.5135 2.44663 20.4695 2.49066C20.4254 2.5347 20.3731 2.56963 20.3156 2.59347C20.2581 2.6173 20.1964 2.62957 20.1341 2.62957H18.6681C18.5424 2.62957 18.4217 2.57961 18.3328 2.49067C18.2438 2.40174 18.1939 2.28111 18.1938 2.15533V2.15533Z" fill="#FFD54F"/>
<path d="M4.09747 1.53281L3.18031 1.0312C3.15945 1.01981 3.1423 1.00266 3.1309 0.981806L2.62929 0.0646593C2.6186 0.0450883 2.60283 0.0287575 2.58364 0.0173806C2.56446 0.00600369 2.54257 0 2.52026 0C2.49796 0 2.47607 0.00600369 2.45688 0.0173806C2.4377 0.0287575 2.42193 0.0450883 2.41124 0.0646593L1.90959 0.981806C1.89819 1.00266 1.88104 1.01981 1.86018 1.0312L0.943075 1.53281C0.923504 1.54351 0.907174 1.55928 0.895798 1.57846C0.884421 1.59765 0.878418 1.61954 0.878418 1.64184C0.878418 1.66415 0.884421 1.68604 0.895798 1.70522C0.907174 1.72441 0.923504 1.74018 0.943075 1.75088L1.86023 2.25248C1.88109 2.26388 1.89824 2.28103 1.90963 2.30189L2.41124 3.21904C2.42193 3.23861 2.4377 3.25494 2.45688 3.26632C2.47607 3.27769 2.49796 3.2837 2.52026 3.2837C2.54257 3.2837 2.56446 3.27769 2.58364 3.26632C2.60283 3.25494 2.6186 3.23861 2.62929 3.21904L3.1309 2.30187C3.14229 2.281 3.15944 2.26385 3.18031 2.25246L4.09747 1.75085C4.11703 1.74015 4.13335 1.72438 4.14472 1.7052C4.15609 1.68601 4.16209 1.66413 4.16209 1.64183C4.16209 1.61953 4.15609 1.59764 4.14472 1.57846C4.13335 1.55928 4.11703 1.54351 4.09747 1.53281V1.53281Z" fill="#FFC328"/>
<path d="M2.62905 3.21904L3.13065 2.30188C3.14205 2.28102 3.1592 2.26387 3.18006 2.25247L4.09722 1.75087C4.11679 1.74017 4.13312 1.7244 4.14449 1.70521C4.15587 1.68603 4.16187 1.66414 4.16187 1.64184C4.16187 1.61954 4.15587 1.59764 4.14449 1.57846C4.13312 1.55928 4.11679 1.54351 4.09722 1.53281L3.18006 1.03119C3.1592 1.0198 3.14204 1.00266 3.13065 0.981794L2.62905 0.0646473C2.61845 0.0449941 2.6027 0.028595 2.5835 0.0172071C2.56429 0.00581915 2.54235 -0.00012815 2.52002 2.09417e-06V3.2837C2.54235 3.28384 2.5643 3.27789 2.58351 3.2665C2.60271 3.25511 2.61846 3.2387 2.62905 3.21904V3.21904Z" fill="#FFA000"/>
<path d="M23.9349 22.249L23.0177 21.7475C22.9968 21.736 22.9797 21.7189 22.9683 21.698L22.4667 20.7809C22.4559 20.7614 22.4402 20.7451 22.421 20.7337C22.4018 20.7223 22.3799 20.7163 22.3576 20.7163C22.3353 20.7163 22.3134 20.7223 22.2942 20.7337C22.275 20.7451 22.2593 20.7614 22.2486 20.7809L21.747 21.698C21.7356 21.7189 21.7184 21.7361 21.6976 21.7475L20.7805 22.249C20.7609 22.2598 20.7446 22.2755 20.7332 22.2947C20.7218 22.3139 20.7158 22.3358 20.7158 22.3581C20.7158 22.3804 20.7218 22.4023 20.7332 22.4215C20.7446 22.4407 20.7609 22.4564 20.7805 22.4671L21.6976 22.9687C21.7184 22.9801 21.7356 22.9973 21.747 23.0181L22.2486 23.9353C22.2593 23.9549 22.275 23.9712 22.2942 23.9826C22.3134 23.994 22.3353 24 22.3576 24C22.3799 24 22.4018 23.994 22.421 23.9826C22.4402 23.9712 22.4559 23.9549 22.4667 23.9353L22.9683 23.0181C22.9797 22.9973 22.9968 22.9802 23.0177 22.9687L23.9349 22.4671C23.9544 22.4564 23.9707 22.4407 23.9821 22.4215C23.9935 22.4023 23.9995 22.3804 23.9995 22.3581C23.9995 22.3358 23.9935 22.3139 23.9821 22.2947C23.9707 22.2755 23.9544 22.2598 23.9349 22.249V22.249Z" fill="#FFC328"/>
<path d="M22.4664 23.9353L22.968 23.0181C22.9794 22.9972 22.9965 22.98 23.0174 22.9687L23.9346 22.4671C23.9542 22.4564 23.9705 22.4406 23.9819 22.4214C23.9932 22.4022 23.9993 22.3803 23.9993 22.358C23.9993 22.3357 23.9932 22.3138 23.9819 22.2946C23.9705 22.2755 23.9542 22.2597 23.9346 22.249L23.0174 21.7474C22.9965 21.736 22.9794 21.7189 22.968 21.698L22.4664 20.7808C22.4558 20.7612 22.4401 20.7448 22.4209 20.7334C22.4017 20.722 22.3797 20.7161 22.3574 20.7162V23.9999C22.3797 24 22.4017 23.994 22.4209 23.9827C22.4401 23.9713 22.4558 23.9549 22.4664 23.9353Z" fill="#FFA000"/>
<path d="M14.5412 4.47692C14.4843 4.16014 14.4504 3.83968 14.4396 3.51802C14.4445 3.11875 14.5354 2.72522 14.7062 2.3643C14.8771 2.00338 15.1237 1.68356 15.4294 1.42665C15.4676 1.39587 15.4926 1.35175 15.4995 1.3032C15.5064 1.25466 15.4946 1.20531 15.4665 1.16513L14.8505 0.296446C14.8355 0.275171 14.8163 0.257172 14.7941 0.243543C14.7719 0.229915 14.7472 0.220943 14.7214 0.217172C14.6957 0.213402 14.6694 0.214912 14.6443 0.221611C14.6191 0.22831 14.5956 0.240057 14.5751 0.256139C13.9322 0.778684 13.4525 1.47443 13.1927 2.26106C12.9328 3.04769 12.9037 3.89229 13.1088 4.69494C13.2434 5.20426 13.2415 5.74004 13.1034 6.24842C13.0047 6.45375 12.8471 6.62505 12.6507 6.74054C12.4543 6.85602 12.228 6.91046 12.0005 6.89693C11.9562 6.89269 11.9118 6.90425 11.8752 6.92956C11.8386 6.95486 11.812 6.9923 11.8003 7.03525L11.5281 8.07835C11.5214 8.10427 11.5202 8.13129 11.5245 8.15771C11.5288 8.18413 11.5386 8.20936 11.5531 8.2318C11.5677 8.25424 11.5868 8.2734 11.6092 8.28806C11.6316 8.30272 11.6568 8.31256 11.6832 8.31696C12.2444 8.40482 12.819 8.30466 13.3174 8.03208C13.8157 7.7595 14.21 7.32978 14.4388 6.80984C14.6929 6.05753 14.7284 5.24859 14.5412 4.47692V4.47692Z" fill="#29CEF6"/>
<path d="M17.5309 7.63241C18.0721 7.30003 18.6434 7.01964 19.2374 6.79498C20.0566 6.4952 20.8306 6.08386 21.5374 5.57259C22.6091 4.71643 23.3046 3.47613 23.4763 2.11525C23.4793 2.0895 23.4772 2.06341 23.4699 2.03852C23.4626 2.01363 23.4504 1.99047 23.434 1.97042C23.4175 1.95037 23.3972 1.93385 23.3742 1.92184C23.3513 1.90983 23.3261 1.90258 23.3003 1.90054L22.2384 1.816C22.1892 1.8122 22.1404 1.82747 22.1021 1.85865C22.0639 1.88983 22.039 1.93452 22.0328 1.98349C21.9008 2.94866 21.4027 3.82612 20.6417 4.43419C20.0365 4.86167 19.3767 5.20603 18.68 5.45803C17.498 5.79334 16.4374 6.46128 15.6242 7.38231C14.8111 8.30334 14.2799 9.43866 14.0937 10.6531C14.0901 10.6788 14.0916 10.705 14.0984 10.7301C14.1051 10.7552 14.1169 10.7786 14.1329 10.7991C14.1489 10.8195 14.1689 10.8365 14.1917 10.849C14.2145 10.8615 14.2395 10.8693 14.2654 10.8719L15.3235 10.976C15.3729 10.9807 15.4222 10.9662 15.4611 10.9355C15.5 10.9048 15.5256 10.8602 15.5324 10.8111C15.6287 10.1722 15.8559 9.56007 16.1998 9.01309C16.5437 8.46611 16.9969 7.99606 17.5309 7.63241V7.63241Z" fill="#F75632"/>
<path d="M21.047 11.2991C20.3609 11.3402 19.6697 11.2065 18.9516 11.306C18.3485 11.3885 17.7732 11.6113 17.2719 11.9566C16.7707 12.302 16.3574 12.7601 16.0655 13.2942C16.0533 13.3171 16.0458 13.3423 16.0436 13.3682C16.0415 13.394 16.0446 13.4201 16.0528 13.4447C16.061 13.4694 16.0741 13.4921 16.0914 13.5115C16.1086 13.5309 16.1296 13.5466 16.1532 13.5577L17.1169 14.015C17.16 14.0357 17.2094 14.0395 17.2552 14.0256C17.301 14.0117 17.3399 13.981 17.3642 13.9398C17.551 13.6194 17.8078 13.3453 18.1153 13.1379C18.4229 12.9306 18.7732 12.7953 19.1403 12.7423C19.4717 12.7109 19.8051 12.7089 20.1368 12.7361C20.7375 12.8668 21.3635 12.8172 21.9361 12.5935C22.5087 12.3698 23.0026 11.9819 23.3557 11.4787C23.368 11.4546 23.3752 11.4282 23.3767 11.4012C23.3781 11.3742 23.3739 11.3472 23.3642 11.322C23.3545 11.2968 23.3396 11.2738 23.3204 11.2548C23.3012 11.2357 23.2782 11.2209 23.2529 11.2114L22.2455 10.8273C22.206 10.8127 22.1628 10.8113 22.1224 10.8233C22.0821 10.8353 22.0467 10.8601 22.0217 10.894C21.7615 11.1501 21.4121 11.2953 21.047 11.2991V11.2991Z" fill="#FFD54F"/>
</g>
</g>
<defs>
<clipPath id="clip0_10317_147256">
<rect width="24" height="24" fill="white"/>
</clipPath>
<clipPath id="clip1_10317_147256">
<rect width="24" height="24" fill="white"/>
</clipPath>
</defs>
</svg>
