<svg width="20" height="20" viewBox="0 0 20 20" fill="none" xmlns="http://www.w3.org/2000/svg">
<path fill-rule="evenodd" clip-rule="evenodd" d="M12.7148 0.839939H3.13161C1.86496 0.839939 0.839966 1.86493 0.839966 3.13158V16.0481C0.839966 17.3148 1.86496 18.3398 3.13161 18.3398H9.91487C9.18155 17.3398 8.75655 16.1231 8.75655 14.7981C8.75655 11.4648 11.4649 8.75652 14.7982 8.75652C14.8648 8.75652 14.9398 8.75652 15.0065 8.76486V3.13158C15.0065 1.86493 13.9815 0.839939 12.7148 0.839939ZM4.17326 4.17324H7.50656C7.96489 4.17324 8.33989 4.54823 8.33989 5.00656C8.33989 5.46489 7.96489 5.83989 7.50656 5.83989H4.17326C3.71494 5.83989 3.33994 5.46489 3.33994 5.00656C3.33994 4.54823 3.71494 4.17324 4.17326 4.17324ZM8.33989 12.5065H4.17326C3.71494 12.5065 3.33994 12.1315 3.33994 11.6732C3.33994 11.2148 3.71494 10.8398 4.17326 10.8398H8.33989C8.79822 10.8398 9.17321 11.2148 9.17321 11.6732C9.17321 12.1315 8.79822 12.5065 8.33989 12.5065ZM11.6732 9.17319H4.17326C3.71494 9.17319 3.33994 8.79819 3.33994 8.33986C3.33994 7.88153 3.71494 7.50654 4.17326 7.50654H11.6732C12.1315 7.50654 12.5065 7.88153 12.5065 8.33986C12.5065 8.79819 12.1315 9.17319 11.6732 9.17319Z" fill="black"/>
<path fill-rule="evenodd" clip-rule="evenodd" d="M14.7851 19.1601C12.3727 19.1601 10.4102 17.1976 10.4102 14.7851C10.4102 12.3726 12.3727 10.4102 14.7851 10.4102C17.1976 10.4102 19.1601 12.3726 19.1601 14.7851C19.1601 17.1976 17.1976 19.1601 14.7851 19.1601ZM14.8101 16.1857L16.477 14.5189V14.5195C16.7214 14.2757 16.7214 13.8801 16.477 13.6357C16.2326 13.3914 15.8376 13.3914 15.5932 13.6357L14.3683 14.8601L13.977 14.4689C13.7326 14.2245 13.3376 14.2245 13.0933 14.4689C12.8489 14.7132 12.8489 15.1082 13.0933 15.3526L13.9264 16.1857C14.0483 16.3076 14.2083 16.3688 14.3683 16.3688C14.5283 16.3688 14.6883 16.3076 14.8101 16.1857Z" fill="black"/>
</svg>
