<svg width="20" height="20" viewBox="0 0 20 20" fill="none" xmlns="http://www.w3.org/2000/svg">
<path d="M9.60834 18.3331H3.12521C1.86109 18.3331 0.833618 17.3056 0.833618 16.0415V3.12521C0.833618 1.86109 1.86109 0.833618 3.12521 0.833618H12.7082C13.9724 0.833618 14.9998 1.86109 14.9998 3.12521V8.9917C14.9998 9.33669 14.7199 9.61668 14.3749 9.61668C14.0299 9.61668 13.7499 9.33669 13.7499 8.9917V3.12521C13.7499 2.55106 13.2824 2.08358 12.7082 2.08358H3.12521C2.55106 2.08358 2.08358 2.55106 2.08358 3.12521V16.0415C2.08358 16.6156 2.55106 17.0831 3.12521 17.0831H9.60834C9.95333 17.0831 10.2333 17.3631 10.2333 17.7081C10.2333 18.0531 9.95333 18.3331 9.60834 18.3331Z" fill="black"/>
<path d="M14.1543 16.3789C14.2762 16.5008 14.4362 16.562 14.5962 16.562C14.7562 16.562 14.9161 16.5014 15.038 16.3795L16.7048 14.7127C16.9492 14.469 16.9492 14.0734 16.7048 13.829C16.4605 13.5846 16.0655 13.5846 15.8211 13.829L14.5962 15.0533L14.2049 14.6621C13.9606 14.4177 13.5656 14.4177 13.3212 14.6621C13.0768 14.9065 13.0768 15.3014 13.3212 15.5458L14.1543 16.3789Z" fill="black"/>
<path fill-rule="evenodd" clip-rule="evenodd" d="M10.8333 14.9998C10.8333 17.2973 12.7024 19.1664 14.9998 19.1664C17.2973 19.1664 19.1664 17.2973 19.1664 14.9998C19.1664 12.7024 17.2973 10.8333 14.9998 10.8333C12.7024 10.8333 10.8333 12.7024 10.8333 14.9998ZM12.0833 14.9998C12.0833 13.3916 13.3916 12.0833 14.9998 12.0833C16.6081 12.0833 17.9164 13.3916 17.9164 14.9998C17.9164 16.6081 16.6081 17.9164 14.9998 17.9164C13.3916 17.9164 12.0833 16.6081 12.0833 14.9998Z" fill="black"/>
<path d="M3.95852 8.75004H11.8749C12.2199 8.75004 12.4999 8.47005 12.4999 8.12506C12.4999 7.78007 12.2199 7.50008 11.8749 7.50008H3.95852C3.61353 7.50008 3.33354 7.78007 3.33354 8.12506C3.33354 8.47005 3.61353 8.75004 3.95852 8.75004Z" fill="black"/>
<path d="M8.54171 12.0833H3.95852C3.61353 12.0833 3.33354 11.8033 3.33354 11.4583C3.33354 11.1133 3.61353 10.8333 3.95852 10.8333H8.54171C8.8867 10.8333 9.16669 11.1133 9.16669 11.4583C9.16669 11.8033 8.8867 12.0833 8.54171 12.0833Z" fill="black"/>
<path d="M3.95852 5.41681H7.7084C8.05339 5.41681 8.33338 5.13682 8.33338 4.79183C8.33338 4.44684 8.05339 4.16685 7.7084 4.16685H3.95852C3.61353 4.16685 3.33354 4.44684 3.33354 4.79183C3.33354 5.13682 3.61353 5.41681 3.95852 5.41681Z" fill="black"/>
</svg>
