<svg width="20" height="20" viewBox="0 0 20 20" fill="none" xmlns="http://www.w3.org/2000/svg">
<g clip-path="url(#clip0_10314_145783)">
<g clip-path="url(#clip1_10314_145783)">
<path d="M18.4772 6.67554H8.19574C7.79235 6.67591 7.40558 6.83632 7.12034 7.12156C6.8351 7.4068 6.67469 7.79357 6.67432 8.19696V18.4785C6.67469 18.8819 6.83509 19.2687 7.12034 19.5539C7.40558 19.8392 7.79235 19.9996 8.19574 19.9999H18.4772C18.8806 19.9996 19.2674 19.8392 19.5527 19.5539C19.8379 19.2687 19.9983 18.8819 19.9987 18.4785V8.19696C19.9983 7.79357 19.8379 7.4068 19.5527 7.12156C19.2674 6.83632 18.8806 6.67591 18.4772 6.67554ZM18.9817 18.4785C18.9816 18.6123 18.9283 18.7405 18.8338 18.835C18.7392 18.9296 18.611 18.9828 18.4772 18.983H8.19574C8.062 18.9828 7.93379 18.9296 7.83922 18.835C7.74465 18.7405 7.69144 18.6122 7.69125 18.4785V8.19696C7.69144 8.06322 7.74465 7.93501 7.83922 7.84044C7.93379 7.74587 8.062 7.69266 8.19574 7.69247H18.4772C18.611 7.69266 18.7392 7.74587 18.8338 7.84044C18.9283 7.93501 18.9816 8.06322 18.9817 8.19696V18.4785Z" fill="#171723"/>
<path d="M2.59497 6.67554C2.08168 6.67564 1.57994 6.82793 1.15319 7.11316C0.726446 7.39839 0.393856 7.80375 0.197473 8.27799C0.00109041 8.75223 -0.050266 9.27406 0.0498974 9.77748C0.150061 10.2809 0.397246 10.7433 0.7602 11.1063C1.12315 11.4692 1.58558 11.7164 2.089 11.8166C2.59243 11.9167 3.11425 11.8654 3.58849 11.669C4.06273 11.4726 4.46809 11.14 4.75332 10.7133C5.03855 10.2865 5.19084 9.78479 5.19094 9.27149C5.19026 8.58321 4.91654 7.92331 4.42984 7.43662C3.94315 6.94993 3.28325 6.67621 2.59497 6.67554ZM2.59497 10.8495C2.28277 10.8494 1.9776 10.7568 1.71807 10.5832C1.45853 10.4097 1.25629 10.1631 1.1369 9.87461C1.01752 9.58614 0.986358 9.26874 1.04736 8.96255C1.10837 8.65636 1.2588 8.37514 1.47963 8.15445C1.70046 7.93376 1.98178 7.78351 2.288 7.72269C2.59423 7.66188 2.91161 7.69324 3.20001 7.81281C3.48841 7.93238 3.73488 8.13478 3.90825 8.39442C4.08162 8.65407 4.1741 8.95929 4.174 9.27149C4.17347 9.69002 4.0069 10.0912 3.71087 10.3871C3.41483 10.6829 3.0135 10.8493 2.59497 10.8495Z" fill="#171723"/>
<path d="M4.68247 13.0503H0.508466C0.373613 13.0503 0.244282 13.1039 0.148926 13.1992C0.0535705 13.2946 0 13.4239 0 13.5588C0 13.6936 0.0535705 13.8229 0.148926 13.9183C0.244282 14.0137 0.373613 14.0672 0.508466 14.0672H4.68247C4.81732 14.0672 4.94665 14.0137 5.04201 13.9183C5.13736 13.8229 5.19093 13.6936 5.19093 13.5588C5.19093 13.4239 5.13736 13.2946 5.04201 13.1992C4.94665 13.1039 4.81732 13.0503 4.68247 13.0503Z" fill="#171723"/>
<path d="M4.68247 18.983H0.508466C0.373613 18.983 0.244282 19.0366 0.148926 19.132C0.0535705 19.2273 0 19.3566 0 19.4915C0 19.6264 0.0535705 19.7557 0.148926 19.851C0.244282 19.9464 0.373613 20 0.508466 20H4.68247C4.81732 20 4.94665 19.9464 5.04201 19.851C5.13736 19.7557 5.19093 19.6264 5.19093 19.4915C5.19093 19.3566 5.13736 19.2273 5.04201 19.132C4.94665 19.0366 4.81732 18.983 4.68247 18.983Z" fill="#171723"/>
<path d="M4.68247 16.0167H0.508466C0.373613 16.0167 0.244282 16.0703 0.148926 16.1656C0.0535705 16.261 0 16.3903 0 16.5252C0 16.66 0.0535705 16.7894 0.148926 16.8847C0.244282 16.9801 0.373613 17.0337 0.508466 17.0337H4.68247C4.81732 17.0337 4.94665 16.9801 5.04201 16.8847C5.13736 16.7894 5.19093 16.66 5.19093 16.5252C5.19093 16.3903 5.13736 16.261 5.04201 16.1656C4.94665 16.0703 4.81732 16.0167 4.68247 16.0167Z" fill="#171723"/>
<path d="M0.508467 5.46005H12.7663C12.8331 5.46009 12.8992 5.44697 12.9609 5.42143C13.0226 5.39589 13.0787 5.35843 13.1259 5.31121C13.1731 5.26399 13.2106 5.20792 13.2361 5.14621C13.2617 5.08451 13.2748 5.01837 13.2747 4.95159V0.508466C13.2748 0.441683 13.2617 0.375546 13.2361 0.313839C13.2106 0.252131 13.1731 0.196063 13.1259 0.14884C13.0787 0.101617 13.0226 0.0641648 12.9609 0.0386257C12.8992 0.0130866 12.8331 -3.86826e-05 12.7663 8.56321e-08H0.508467C0.441683 -3.73445e-05 0.375548 0.013089 0.313841 0.0386286C0.252134 0.0641682 0.196066 0.10162 0.148843 0.148843C0.10162 0.196066 0.0641682 0.252134 0.0386286 0.313841C0.013089 0.375547 -3.73503e-05 0.441683 7.98239e-08 0.508466V4.95159C-3.73503e-05 5.01837 0.013089 5.08451 0.0386286 5.14621C0.0641682 5.20792 0.10162 5.26399 0.148843 5.31121C0.196066 5.35843 0.252134 5.39589 0.313841 5.42143C0.375548 5.44697 0.441683 5.46009 0.508467 5.46005ZM1.01693 1.01693H12.2578V4.44312H1.01693V1.01693Z" fill="#171723"/>
<path d="M16.8538 5.00827C17.3408 5.00802 17.817 4.86478 18.2234 4.59632L19.0952 5.46807C19.1908 5.56183 19.3197 5.61404 19.4536 5.61337C19.5875 5.61269 19.7158 5.55918 19.8105 5.46446C19.9053 5.36974 19.9588 5.24147 19.9594 5.10752C19.9601 4.97357 19.9079 4.84477 19.8141 4.7491L18.9437 3.87861C19.2491 3.41294 19.3903 2.85869 19.3452 2.30365C19.3 1.74861 19.0709 1.22452 18.6942 0.814392C18.3175 0.404265 17.8147 0.131553 17.2655 0.0394566C16.7163 -0.0526397 16.152 0.0411449 15.6622 0.305954C15.1723 0.570764 14.7847 0.991458 14.561 1.50139C14.3372 2.01133 14.29 2.58136 14.4267 3.12117C14.5635 3.66098 14.8765 4.13972 15.3161 4.48155C15.7558 4.82338 16.2969 5.00876 16.8537 5.00832L16.8538 5.00827ZM16.8538 1.01701C17.1479 1.01691 17.4354 1.10404 17.6801 1.26737C17.9247 1.4307 18.1154 1.6629 18.228 1.93461C18.3407 2.20631 18.3702 2.50532 18.3129 2.79382C18.2556 3.08232 18.1141 3.34735 17.9062 3.55541C17.6983 3.76346 17.4333 3.90518 17.1449 3.96266C16.8564 4.02014 16.5574 3.99079 16.2856 3.87832C16.0138 3.76585 15.7815 3.57532 15.618 3.33081C15.4545 3.0863 15.3672 2.7988 15.3671 2.50467C15.3675 2.11042 15.5243 1.73244 15.803 1.45358C16.0816 1.17471 16.4595 1.01772 16.8538 1.01701Z" fill="#171723"/>
<path d="M15.0119 12.5856L12.3137 11.0274C12.1816 10.9513 12.0319 10.9113 11.8795 10.9114C11.7271 10.9115 11.5774 10.9517 11.4454 11.028C11.3135 11.1043 11.2039 11.2139 11.1278 11.346C11.0517 11.478 11.0116 11.6278 11.0117 11.7802V14.8955C11.0112 15.0482 11.0511 15.1982 11.1273 15.3305C11.2034 15.4628 11.3132 15.5726 11.4454 15.6488C11.5777 15.725 11.7278 15.7649 11.8804 15.7645C12.033 15.764 12.1829 15.7233 12.3147 15.6463L15.0119 14.0901C15.1439 14.0138 15.2535 13.9041 15.3296 13.7721C15.4058 13.64 15.4459 13.4903 15.4459 13.3378C15.4459 13.1854 15.4058 13.0356 15.3296 12.9036C15.2535 12.7716 15.1439 12.6619 15.0119 12.5856ZM12.0287 14.6373V12.0374L14.28 13.3373L12.0287 14.6373Z" fill="#171723"/>
</g>
</g>
<defs>
<clipPath id="clip0_10314_145783">
<rect width="20" height="20" fill="white"/>
</clipPath>
<clipPath id="clip1_10314_145783">
<rect width="20" height="20" fill="white"/>
</clipPath>
</defs>
</svg>
