<svg width="20" height="20" viewBox="0 0 20 20" fill="none" xmlns="http://www.w3.org/2000/svg">
<g clip-path="url(#clip0_10314_146586)">
<g clip-path="url(#clip1_10314_146586)">
<path d="M15.9318 -0.000488281H4.06751C2.98894 0.000588675 1.95486 0.429526 1.19219 1.19219C0.429526 1.95486 0.000588675 2.98894 -0.000488281 4.06751V15.9329C0.000588675 17.0114 0.429526 18.0455 1.19219 18.8082C1.95486 19.5708 2.98894 19.9998 4.06751 20.0009H15.9318C17.0104 19.9998 18.0445 19.5708 18.8072 18.8082C19.5698 18.0455 19.9988 17.0114 19.9998 15.9329V4.06751C19.9988 2.98894 19.5698 1.95486 18.8072 1.19219C18.0445 0.429526 17.0104 0.000588675 15.9318 -0.000488281ZM18.9828 15.9329C18.982 16.7418 18.6602 17.5173 18.0883 18.0893C17.5163 18.6613 16.7407 18.983 15.9318 18.9839H4.06751C3.25861 18.983 2.48309 18.6613 1.91111 18.0893C1.33912 17.5173 1.0174 16.7418 1.01651 15.9329V4.06751C1.0174 3.25861 1.33912 2.48309 1.91111 1.91111C2.48309 1.33912 3.25861 1.0174 4.06751 1.01651H15.9318C16.7407 1.0174 17.5163 1.33912 18.0883 1.91111C18.6602 2.48309 18.982 3.25861 18.9828 4.06751V15.9329Z" fill="#171723"/>
<path d="M10.0003 9.28162C10.6499 9.28151 11.285 9.08878 11.8251 8.72779C12.3652 8.3668 12.7862 7.85376 13.0347 7.25353C13.2833 6.65331 13.3483 5.99287 13.2215 5.3557C13.0947 4.71854 12.7819 4.13327 12.3225 3.6739C11.8631 3.21453 11.2779 2.90169 10.6407 2.77493C10.0035 2.64817 9.3431 2.71319 8.74288 2.96176C8.14266 3.21033 7.62963 3.63129 7.26864 4.17142C6.90766 4.71155 6.71494 5.34658 6.71484 5.99624C6.71584 6.86728 7.06231 7.70235 7.67823 8.31827C8.29415 8.93418 9.12923 9.28063 10.0003 9.28162ZM10.0003 3.72879C10.4488 3.72889 10.8873 3.86199 11.2602 4.11127C11.6331 4.36055 11.9237 4.71481 12.0953 5.12925C12.2668 5.5437 12.3116 5.99971 12.224 6.43963C12.1364 6.87954 11.9204 7.2836 11.6031 7.60071C11.2859 7.91781 10.8817 8.13372 10.4418 8.22114C10.0018 8.30855 9.54582 8.26354 9.13145 8.09179C8.71708 7.92005 8.36295 7.62928 8.11383 7.25627C7.86471 6.88326 7.73179 6.44475 7.73189 5.9962C7.73276 5.39494 7.97205 4.81858 8.3973 4.39352C8.82255 3.96847 9.39902 3.72943 10.0003 3.72883V3.72879Z" fill="#171723"/>
<path d="M10.4874 9.98188C10.3824 9.97182 10.281 9.98759 10.1767 9.98391C10.1334 9.96887 10.0882 9.95982 10.0425 9.95703C9.99389 9.95954 9.94595 9.96921 9.90019 9.98571C8.69839 9.99597 7.54215 10.447 6.6508 11.2531C6.13761 11.7203 5.72751 12.2893 5.44671 12.9239C5.16591 13.5586 5.02059 14.2448 5.02002 14.9387V15.7055C5.02047 16.1252 5.18741 16.5276 5.4842 16.8244C5.78099 17.1212 6.1834 17.2881 6.60312 17.2886H13.3964C13.8161 17.2881 14.2185 17.1212 14.5153 16.8244C14.8121 16.5276 14.979 16.1252 14.9795 15.7055V15.1304C14.9952 13.8699 14.5457 12.6479 13.717 11.698C12.8882 10.7481 11.7384 10.1371 10.4874 9.98188ZM13.9625 15.7055C13.9622 15.8555 13.9025 15.9994 13.7964 16.1055C13.6903 16.2116 13.5464 16.2713 13.3964 16.2716H6.60311C6.45306 16.2713 6.30922 16.2116 6.20312 16.1055C6.09701 15.9994 6.03728 15.8555 6.03701 15.7055V14.9388C6.03746 14.3865 6.15314 13.8404 6.37666 13.3354C6.60017 12.8304 6.9266 12.3776 7.33508 12.006C8.06101 11.3404 9.01095 10.9727 9.99577 10.976C10.1259 10.976 10.258 10.982 10.39 10.9949C11.39 11.1241 12.3071 11.6173 12.9662 12.3803C13.6253 13.1432 13.98 14.1224 13.9625 15.1304L13.9625 15.7055Z" fill="#171723"/>
</g>
</g>
<defs>
<clipPath id="clip0_10314_146586">
<rect width="20" height="20" fill="white"/>
</clipPath>
<clipPath id="clip1_10314_146586">
<rect width="20" height="20" fill="white"/>
</clipPath>
</defs>
</svg>
