<svg width="20" height="20" viewBox="0 0 20 20" fill="none" xmlns="http://www.w3.org/2000/svg">
<g clip-path="url(#clip0_10314_146585)">
<path d="M15.9329 1.51177e-07H4.06711C2.98888 0.00143475 1.95523 0.430611 1.19281 1.19342C0.430392 1.95623 0.00143387 2.9904 0 4.06918V15.9308C0.00143387 17.0096 0.430392 18.0438 1.19281 18.8066C1.95523 19.5694 2.98888 19.9986 4.06711 20H15.9329C16.467 20.0001 16.996 19.895 17.4895 19.6905C17.983 19.4861 18.4314 19.1864 18.8091 18.8085C19.1868 18.4306 19.4864 17.982 19.6907 17.4882C19.895 16.9944 20.0001 16.4652 20 15.9308V4.06918C20.0001 3.53476 19.895 3.00556 19.6907 2.5118C19.4864 2.01804 19.1868 1.5694 18.8091 1.19151C18.4314 0.813622 17.983 0.513895 17.4895 0.309451C16.996 0.105007 16.467 -0.000145536 15.9329 1.51177e-07ZM10.0051 3.41811C10.5722 3.4181 11.1266 3.58634 11.5981 3.90155C12.0696 4.21677 12.4371 4.66481 12.6542 5.189C12.8712 5.7132 12.928 6.29002 12.8174 6.84651C12.7067 7.403 12.4337 7.91417 12.0327 8.31538C11.6317 8.71659 11.1208 8.98982 10.5646 9.10052C10.0083 9.21122 9.43182 9.15441 8.90789 8.93728C8.38395 8.72015 7.93613 8.35245 7.62107 7.88069C7.306 7.40892 7.13783 6.85427 7.13783 6.28688C7.14041 5.52684 7.44332 4.79866 7.98047 4.26122C8.51763 3.72378 9.24543 3.4207 10.0051 3.41811ZM14.3366 14.9746C14.3367 15.3398 14.1925 15.6903 13.9353 15.9495C13.6782 16.2087 13.3289 16.3556 12.9639 16.3581H7.04626C6.67963 16.3577 6.32812 16.2118 6.06888 15.9525C5.80963 15.6931 5.66382 15.3414 5.66345 14.9746V14.3133C5.65928 13.7417 5.76873 13.175 5.98545 12.6461C6.20216 12.1172 6.5218 11.6367 6.92579 11.2325C7.32978 10.8283 7.81006 10.5085 8.33869 10.2916C8.86733 10.0748 9.43377 9.96531 10.0051 9.96948H10.1271C10.2289 9.96948 10.3304 9.96948 10.4322 9.97965C11.5211 10.1191 12.5207 10.6544 13.2407 11.4836C13.9607 12.3127 14.3507 13.3778 14.3366 14.4761L14.3366 14.9746Z" fill="#171723"/>
</g>
<defs>
<clipPath id="clip0_10314_146585">
<rect width="20" height="20" fill="white"/>
</clipPath>
</defs>
</svg>
