<svg width="20" height="20" viewBox="0 0 20 20" fill="none" xmlns="http://www.w3.org/2000/svg">
<g clip-path="url(#clip0_5313_35034)">
<path d="M14.7647 1.35336H14.7451C14.701 0.981792 14.5164 0.638702 14.2263 0.389221C13.9362 0.13974 13.5607 0.00123573 13.1713 0H6.82664C6.4372 0.00123573 6.06178 0.13974 5.77166 0.389221C5.48154 0.638702 5.29691 0.981792 5.25282 1.35336H5.23529C4.11239 1.35451 3.03582 1.78336 2.24181 2.54583C1.44779 3.30829 1.00119 4.34209 1 5.42038V15.933C1.00112 17.0113 1.4477 18.0451 2.24173 18.8076C3.03576 19.5701 4.11237 19.9989 5.23529 20H14.7647C15.8876 19.9989 16.9642 19.5701 17.7583 18.8076C18.5523 18.0451 18.9989 17.0113 19 15.933V5.42038C18.9988 4.34209 18.5522 3.30829 17.7582 2.54583C16.9642 1.78337 15.8876 1.35451 14.7647 1.35336ZM6.82664 1.01675H13.1713C13.3128 1.01683 13.4485 1.07083 13.5485 1.1669C13.6485 1.26297 13.7048 1.39324 13.7049 1.52911V2.19933C13.7048 2.33519 13.6485 2.46546 13.5485 2.56153C13.4484 2.65759 13.3128 2.7116 13.1713 2.71167H6.82664C6.68516 2.7116 6.5495 2.65759 6.44946 2.56153C6.34941 2.46546 6.29317 2.33519 6.29309 2.19933V1.86664L6.29412 1.86174L6.29306 1.85683V1.52911C6.29314 1.39324 6.34938 1.26296 6.44943 1.16689C6.54948 1.07082 6.68515 1.01682 6.82664 1.01675ZM17.9412 15.933C17.9403 16.7417 17.6053 17.517 17.0098 18.0889C16.4143 18.6607 15.6069 18.9824 14.7647 18.9832H5.23529C4.39312 18.9824 3.58571 18.6607 2.99021 18.0889C2.3947 17.517 2.05974 16.7417 2.05882 15.933V5.42038C2.05974 4.61167 2.3947 3.83633 2.99021 3.26449C3.58571 2.69265 4.39312 2.371 5.23529 2.37011H5.25229C5.29517 2.74268 5.47936 3.08705 5.76972 3.33757C6.06008 3.58808 6.4363 3.72721 6.82664 3.72843H13.1713C13.5616 3.72721 13.9379 3.58808 14.2282 3.33757C14.5186 3.08705 14.7028 2.74268 14.7456 2.37011H14.7647C15.6069 2.371 16.4143 2.69265 17.0098 3.26449C17.6053 3.83633 17.9403 4.61167 17.9412 5.42038V15.933Z" fill="#171723"/>
</g>
<defs>
<clipPath id="clip0_5313_35034">
<rect width="20" height="20" fill="white"/>
</clipPath>
</defs>
</svg>
