<svg width="20" height="20" viewBox="0 0 20 20" fill="none" xmlns="http://www.w3.org/2000/svg">
<path fill-rule="evenodd" clip-rule="evenodd" d="M9.41342 5.3806C8.80679 5.12933 8.15661 5 7.5 5V0C8.81322 0 10.1136 0.258658 11.3268 0.761206C11.731 0.928602 12.1228 1.12197 12.5 1.33975C13.2552 1.77577 13.9518 2.30966 14.5711 2.92894C15.4997 3.85752 16.2363 4.95992 16.7388 6.17318C17.2413 7.38643 17.5 8.68679 17.5 10C17.5 11.3132 17.2413 12.6136 16.7388 13.8268C16.2362 15.0401 15.4996 16.1425 14.5711 17.0711C13.9518 17.6904 13.2552 18.2242 12.5 18.6603C12.1228 18.878 11.7309 19.0714 11.3268 19.2388C10.1136 19.7413 8.81319 20 7.49997 20L7.49999 15C8.1566 15 8.80678 14.8707 9.41341 14.6194C10.02 14.3681 10.5712 13.9998 11.0355 13.5355C11.4998 13.0712 11.8681 12.5201 12.1194 11.9134C12.3707 11.3068 12.5 10.6566 12.5 10C12.5 9.3434 12.3707 8.69322 12.1194 8.08659C11.8681 7.47996 11.4998 6.92876 11.0355 6.46447C10.5712 6.00017 10.02 5.63188 9.41342 5.3806Z" fill="#014141"/>
<path d="M7.5 5C6.17392 5 4.90215 5.52678 3.96447 6.46447C3.02678 7.40215 2.5 8.67392 2.5 10C2.5 11.3261 3.02678 12.5979 3.96447 13.5355C4.90215 14.4732 6.1739 15 7.49999 15L7.5 5Z" fill="#00D3AA"/>
</svg>
