<svg width="20" height="20" viewBox="0 0 20 20" fill="none" xmlns="http://www.w3.org/2000/svg">
<path d="M15.4544 6.78399L12.3221 8.78794C12.0168 8.98331 11.6189 8.98331 11.3135 8.78794L8.18139 6.78405L5.04939 8.78794C4.744 8.98337 4.34618 8.98331 4.04079 8.78794L0 6.20242V10.3077L4.54521 13.2159L7.67721 11.2121C7.98261 11.0167 8.38043 11.0167 8.68576 11.2121L11.8179 13.2159L14.9502 11.2121C15.2556 11.0167 15.6533 11.0167 15.9587 11.2121L20 13.7976V9.69214L15.4544 6.78399Z" fill="black"/>
<path d="M15.4544 0.581572L12.3221 2.58552C12.0168 2.78089 11.6189 2.78089 11.3135 2.58552L8.18139 0.58163L5.04939 2.58552C4.744 2.78095 4.34618 2.78089 4.04079 2.58552L0 0V4.10532L4.54521 7.01353L7.67721 5.00964C7.98261 4.81427 8.38043 4.81427 8.68576 5.00964L11.8179 7.01353L14.9502 5.00964C15.2556 4.81433 15.6533 4.81433 15.9587 5.00964L20 7.59516V3.48972L15.4544 0.581572Z" fill="black"/>
<path d="M15.4544 12.9865L12.3221 14.9904C12.0168 15.1858 11.6189 15.1857 11.3135 14.9904L8.18139 12.9865L5.04939 14.9904C4.744 15.1858 4.34618 15.1858 4.04079 14.9904L0 12.4048V16.5102L4.54521 19.4184L7.67721 17.4145C7.98261 17.2192 8.38043 17.2192 8.68576 17.4145L11.8179 19.4184L14.9502 17.4145C15.2556 17.2192 15.6533 17.2192 15.9587 17.4145L20 20V15.8946L15.4544 12.9865Z" fill="black"/>
</svg>
