<svg width="20" height="20" viewBox="0 0 20 20" fill="none" xmlns="http://www.w3.org/2000/svg">
<path fill-rule="evenodd" clip-rule="evenodd" d="M16.7528 11.766C16.7528 12.362 16.4023 12.9053 15.7186 13.0105C14.5442 13.2209 12.0903 13.3436 10.0219 13.3436C7.95353 13.3436 5.49954 13.2209 4.32513 13.0105C3.64152 12.8878 3.30848 12.3444 3.30848 11.766V7.85714C3.30848 7.26117 3.76422 6.70026 4.32513 6.61262C4.6757 6.54251 5.48201 6.48992 6.11304 6.48992C6.35844 6.48992 6.53372 6.68273 6.55125 6.96319V9.6801C7.76072 9.6801 8.81242 9.60999 10.0394 9.60999C11.2664 9.60999 12.3006 9.6801 13.5276 9.6801V6.96319C13.5276 6.68273 13.7204 6.48992 13.9483 6.48992C14.5793 6.48992 15.3856 6.54251 15.7362 6.61262C16.2971 6.71779 16.7704 7.2787 16.7704 7.85714L16.7528 11.766ZM9.99998 0C4.53109 0 0.0788574 4.48729 0.0788574 10.0088C0.0788574 15.5302 4.53109 20 9.99998 20C15.4689 20 19.9211 15.5127 19.9211 10.0088C19.9211 4.50482 15.5083 0 9.99998 0Z" fill="#EC1218"/>
</svg>
