<svg width="20" height="20" viewBox="0 0 20 20" fill="none" xmlns="http://www.w3.org/2000/svg">
<path d="M4.61061 17.6649H15.498C16.0466 17.6649 16.492 18.1152 16.492 18.6699V20.0001H3.6167V18.6699C3.6167 18.1152 4.06206 17.6649 4.61061 17.6649Z" fill="#171723"/>
<path d="M17.2131 3.13188L16.7593 2.67302C16.6067 2.51867 16.3592 2.51867 16.2065 2.67302L15.0073 3.88556C14.8547 4.0399 14.8547 4.29014 15.0073 4.44448L15.4612 4.90335C15.6138 5.05769 15.8613 5.05769 16.0139 4.90335L17.2131 3.69081C17.3657 3.53647 17.3657 3.28623 17.2131 3.13188Z" fill="#171723"/>
<path d="M3.22336 2.60213L2.76955 3.06099C2.61691 3.21533 2.61691 3.46557 2.76955 3.61992L3.96872 4.83246C4.12137 4.9868 4.36885 4.9868 4.52149 4.83246L4.9753 4.37359C5.12794 4.21925 5.12794 3.96901 4.9753 3.81466L3.77612 2.60213C3.62348 2.44778 3.376 2.44778 3.22336 2.60213Z" fill="#171723"/>
<path d="M10.3754 0H9.73364C9.51777 0 9.34277 0.176946 9.34277 0.395221V2.11001C9.34277 2.32828 9.51777 2.50523 9.73364 2.50523H10.3754C10.5913 2.50523 10.7663 2.32828 10.7663 2.11001V0.395221C10.7663 0.176946 10.5913 0 10.3754 0Z" fill="#171723"/>
<path d="M0 9.68644L0 10.3354C0 10.5536 0.174996 10.7306 0.390865 10.7306H2.08676C2.30263 10.7306 2.47762 10.5536 2.47762 10.3354V9.68644C2.47762 9.46816 2.30263 9.29122 2.08676 9.29122H0.390865C0.174996 9.29122 0 9.46816 0 9.68644Z" fill="#171723"/>
<path d="M17.5225 9.68644V10.3354C17.5225 10.5536 17.6975 10.7306 17.9133 10.7306H19.6092C19.8251 10.7306 20.0001 10.5536 20.0001 10.3354V9.68644C20.0001 9.46816 19.8251 9.29122 19.6092 9.29122H17.9133C17.6975 9.29122 17.5225 9.46816 17.5225 9.68644Z" fill="#171723"/>
<path d="M9.98409 4.74329C7.1067 4.74329 4.77441 7.10156 4.77441 10.011V16.4883H15.1938V10.011C15.1938 7.10156 12.8615 4.74329 9.98409 4.74329ZM8.91924 7.52165C8.91924 6.98512 9.34916 6.5498 9.87977 6.5498H10.1192C10.6498 6.5498 11.0803 6.98512 11.0803 7.52165V10.7628C11.0803 11.2993 10.6498 11.734 10.1192 11.734H9.87977C9.34916 11.734 8.91924 11.2993 8.91924 10.7628V7.52165ZM9.99977 15.1989C9.30334 15.1989 8.73836 14.6276 8.73836 13.9228C8.73836 13.2186 9.30334 12.6473 9.99977 12.6473C10.6968 12.6473 11.2612 13.2186 11.2612 13.9228C11.2612 14.6276 10.6968 15.1989 9.99977 15.1989Z" fill="#171723"/>
</svg>
