<svg width="20" height="20" viewBox="0 0 20 20" fill="none" xmlns="http://www.w3.org/2000/svg">
<g clip-path="url(#clip0_10317_147029)">
<g clip-path="url(#clip1_10317_147029)">
<path d="M16.092 17.8735C16.0252 17.8734 15.9591 17.8866 15.8973 17.9121C15.8356 17.9376 15.7796 17.9751 15.7323 18.0223C15.6851 18.0695 15.6477 18.1256 15.6221 18.1873C15.5966 18.249 15.5835 18.3152 15.5835 18.382V19.4913C15.5835 19.6261 15.6371 19.7555 15.7324 19.8508C15.8278 19.9462 15.9571 19.9997 16.092 19.9997C16.2268 19.9997 16.3562 19.9462 16.4515 19.8508C16.5469 19.7555 16.6005 19.6261 16.6005 19.4913V18.382C16.6005 18.3152 16.5874 18.249 16.5618 18.1873C16.5363 18.1256 16.4988 18.0695 16.4516 18.0223C16.4044 17.9751 16.3483 17.9376 16.2866 17.9121C16.2249 17.8866 16.1588 17.8734 16.092 17.8735Z" fill="#171723"/>
<path d="M19.4915 15.5913H16.6006V7.34938C16.5979 6.30062 16.1793 5.29577 15.4366 4.5553C14.6939 3.81483 13.6877 3.39925 12.639 3.39973H6.17969C6.04483 3.39973 5.9155 3.4533 5.82014 3.54866C5.72478 3.64402 5.67121 3.77335 5.67121 3.90821C5.67121 4.04307 5.72478 4.1724 5.82014 4.26776C5.9155 4.36312 6.04483 4.41669 6.17969 4.41669H12.639C13.4181 4.41594 14.1657 4.7243 14.7177 5.27411C15.2698 5.82391 15.5812 6.57026 15.5836 7.34938V15.5913H7.33967C6.56165 15.5903 5.81579 15.2808 5.26565 14.7307C4.71551 14.1805 4.40599 13.4347 4.40498 12.6566V0.508236C4.40498 0.373379 4.35141 0.244045 4.25605 0.148686C4.16069 0.0533276 4.03136 -0.000244141 3.8965 -0.000244141C3.76165 -0.000244141 3.63231 0.0533276 3.53695 0.148686C3.44159 0.244045 3.38802 0.373379 3.38802 0.508236V3.39973H0.507992C0.373134 3.39973 0.2438 3.4533 0.148442 3.54866C0.0530834 3.64402 -0.000488281 3.77335 -0.000488281 3.90821C-0.000488281 4.04307 0.0530834 4.1724 0.148442 4.26776C0.2438 4.36312 0.373134 4.41669 0.507992 4.41669H3.38802V12.6566C3.38922 13.7043 3.80593 14.7087 4.54675 15.4496C5.28757 16.1904 6.29199 16.6071 7.33967 16.6083H19.4915C19.6264 16.6083 19.7557 16.5547 19.8511 16.4594C19.9465 16.364 20 16.2347 20 16.0998C20 15.965 19.9465 15.8356 19.8511 15.7403C19.7557 15.6449 19.6264 15.5913 19.4915 15.5913Z" fill="#171723"/>
</g>
</g>
<defs>
<clipPath id="clip0_10317_147029">
<rect width="20" height="20" fill="white"/>
</clipPath>
<clipPath id="clip1_10317_147029">
<rect width="20" height="20" fill="white"/>
</clipPath>
</defs>
</svg>
