<svg width="20" height="20" viewBox="0 0 20 20" fill="none" xmlns="http://www.w3.org/2000/svg">
<path d="M18.4251 5.19772C17.5576 5.19772 16.8509 5.90443 16.8509 6.77264C16.8509 6.89818 16.8946 7.00962 16.9228 7.12741L13.2398 9.04017C12.8166 8.42586 12.4019 7.83906 11.9872 7.25225C11.5731 6.66686 11.157 6.0737 10.7345 5.46081C11.2424 5.19915 11.6014 4.68428 11.6014 4.07492C11.6014 3.20671 10.8946 2.5 10.0264 2.5C9.15823 2.5 8.45152 3.20671 8.45152 4.07492C8.45152 4.68076 8.80699 5.1921 9.30987 5.45518C8.88317 6.05256 8.45082 6.6295 8.01565 7.19937C7.57414 7.77771 7.13191 8.35605 6.69887 8.9626L3.09552 7.03856C3.11174 6.94899 3.14983 6.86647 3.14983 6.77267C3.14983 5.90446 2.44313 5.19775 1.57492 5.19775C0.706707 5.19775 0 5.90446 0 6.77267C0 7.58798 0.630527 8.23827 1.4261 8.31656C1.64968 9.29268 1.90851 10.357 2.17371 11.4382C2.4523 12.5758 2.73301 13.7769 2.96434 14.7911H17.1048C17.3333 13.7572 17.5766 12.7444 17.8531 11.5842C18.1232 10.4494 18.3884 9.32796 18.6141 8.3088C19.3899 8.21148 20 7.57389 20 6.77267C20 5.90446 19.294 5.19772 18.4251 5.19772Z" fill="#171723"/>
<path d="M2.97302 16.9065C2.97302 17.353 3.33555 17.7155 3.782 17.7155H16.1952C16.6677 17.7155 17.0507 17.3325 17.0507 16.8593V15.7971H2.97302V16.9065Z" fill="#171723"/>
</svg>
