<svg width="20" height="20" viewBox="0 0 20 20" fill="none" xmlns="http://www.w3.org/2000/svg">
<path d="M18.4251 5.19703C17.5568 5.19703 16.8508 5.90374 16.8508 6.77195C16.8508 6.84248 16.8819 6.90242 16.8903 6.97014L13.2334 8.71785C12.8032 8.14375 12.3821 7.59643 11.961 7.04843C11.5597 6.5258 11.1563 5.99896 10.7465 5.45235C11.2473 5.18857 11.6006 4.67865 11.6006 4.07421C11.6006 3.206 10.8946 2.5 10.0264 2.5C9.15822 2.5 8.45151 3.206 8.45151 4.07421C8.45151 4.67653 8.80345 5.18433 9.30139 5.44883C8.88315 5.98626 8.45786 6.50324 8.03116 7.01669C7.58753 7.55131 7.14319 8.08662 6.70733 8.64663L3.12656 6.88763C3.12938 6.84743 3.14983 6.81287 3.14983 6.77196C3.14983 5.90375 2.44313 5.19705 1.57492 5.19705C0.706707 5.19705 0 5.90375 0 6.77196C0 7.58023 0.620662 8.22416 1.40564 8.31233L2.86843 14.4004L2.86914 16.1517C2.86914 17.0826 3.50179 17.8394 4.27972 17.8394H15.752C16.5575 17.8394 17.2127 17.0551 17.2127 16.0917V14.3489C17.2162 14.3377 17.2275 14.3327 17.2303 14.3214C17.4983 13.255 17.7445 12.2077 17.9906 11.1603C18.2142 10.2103 18.4385 9.25953 18.6783 8.2954C19.4217 8.16986 20 7.55062 20 6.77196C20 5.90375 19.294 5.19703 18.4251 5.19703ZM10.0264 3.58332C10.2973 3.58332 10.5173 3.80336 10.5173 4.07419C10.5173 4.34503 10.2973 4.56578 10.0264 4.56578C9.75559 4.56578 9.53484 4.34503 9.53484 4.07419C9.53484 3.80336 9.75559 3.58332 10.0264 3.58332ZM1.57489 7.26353C1.30406 7.26353 1.0833 7.04278 1.0833 6.77195C1.0833 6.50111 1.30406 6.28036 1.57489 6.28036C1.84572 6.28036 2.06647 6.50111 2.06647 6.77195C2.06647 7.04278 1.84572 7.26353 1.57489 7.26353ZM16.1293 16.0917C16.1293 16.3407 15.96 16.5431 15.752 16.5431H4.27969C4.09913 16.5431 3.95244 16.3675 3.95244 16.1516V15.0281H16.1293L16.1293 16.0917ZM16.9362 10.9127C16.7161 11.8479 16.4968 12.7832 16.2612 13.7325L3.82124 13.7283L2.45509 8.04219C2.53338 7.98717 2.62365 7.94839 2.69066 7.88067L6.54932 9.77579C6.82721 9.91262 7.16575 9.83221 7.35336 9.58466C7.84847 8.93227 8.35629 8.32078 8.86481 7.70929C9.25202 7.24239 9.63992 6.77618 10.0208 6.29235C10.3854 6.77547 10.7444 7.24237 11.1027 7.70858C11.5886 8.34123 12.0746 8.97388 12.5753 9.64813C12.7608 9.8978 13.0987 9.98174 13.3794 9.84843L17.2472 8.00056L17.5688 8.26645C17.3495 9.15582 17.1428 10.0339 16.9362 10.9127ZM18.425 7.26353C18.1542 7.26353 17.9342 7.04278 17.9342 6.77195C17.9342 6.50111 18.1542 6.28036 18.425 6.28036C18.6959 6.28036 18.9166 6.50111 18.9166 6.77195C18.9166 7.04278 18.6959 7.26353 18.425 7.26353Z" fill="#171723"/>
</svg>
