<svg width="20" height="20" viewBox="0 0 20 20" fill="none" xmlns="http://www.w3.org/2000/svg">
<path fill-rule="evenodd" clip-rule="evenodd" d="M11.6667 1.875C12.0119 1.875 12.2917 2.15482 12.2917 2.5V5.83333C12.2917 5.88859 12.3137 5.94158 12.3528 5.98065C12.3918 6.01972 12.4448 6.04167 12.5001 6.04167H15.8334C16.1786 6.04167 16.4584 6.32149 16.4584 6.66667C16.4584 7.01184 16.1786 7.29167 15.8334 7.29167H12.5001C12.1133 7.29167 11.7424 7.13802 11.4689 6.86453C11.1954 6.59104 11.0417 6.22011 11.0417 5.83333V2.5C11.0417 2.15482 11.3216 1.875 11.6667 1.875Z" fill="#171723"/>
<path fill-rule="evenodd" clip-rule="evenodd" d="M5.83341 3.125C5.55715 3.125 5.2922 3.23475 5.09685 3.4301C4.90149 3.62545 4.79175 3.8904 4.79175 4.16667V10C4.79175 10.3452 4.51193 10.625 4.16675 10.625C3.82157 10.625 3.54175 10.3452 3.54175 10V4.16667C3.54175 3.55888 3.78319 2.97598 4.21296 2.54621C4.64273 2.11644 5.22563 1.875 5.83341 1.875H11.6667C11.8325 1.875 11.9915 1.94085 12.1087 2.05806L16.2754 6.22472C16.3926 6.34193 16.4584 6.50091 16.4584 6.66667V10C16.4584 10.3452 16.1786 10.625 15.8334 10.625C15.4882 10.625 15.2084 10.3452 15.2084 10V6.92555L11.4079 3.125H5.83341Z" fill="#171723"/>
<path fill-rule="evenodd" clip-rule="evenodd" d="M4.09092 12.4242C4.44255 12.0725 4.91947 11.875 5.41675 11.875C5.91403 11.875 6.39094 12.0725 6.74257 12.4242C7.0942 12.7758 7.29175 13.2527 7.29175 13.75C7.29175 14.0952 7.01193 14.375 6.66675 14.375C6.32157 14.375 6.04175 14.0952 6.04175 13.75C6.04175 13.5842 5.9759 13.4253 5.85869 13.3081C5.74148 13.1908 5.58251 13.125 5.41675 13.125C5.25099 13.125 5.09202 13.1908 4.97481 13.3081C4.8576 13.4253 4.79175 13.5842 4.79175 13.75V16.25C4.79175 16.4158 4.8576 16.5747 4.97481 16.6919C5.09202 16.8092 5.25099 16.875 5.41675 16.875C5.58251 16.875 5.74148 16.8092 5.85869 16.6919C5.9759 16.5747 6.04175 16.4158 6.04175 16.25C6.04175 15.9048 6.32157 15.625 6.66675 15.625C7.01193 15.625 7.29175 15.9048 7.29175 16.25C7.29175 16.7473 7.0942 17.2242 6.74257 17.5758C6.39094 17.9275 5.91403 18.125 5.41675 18.125C4.91947 18.125 4.44255 17.9275 4.09092 17.5758C3.73929 17.2242 3.54175 16.7473 3.54175 16.25V13.75C3.54175 13.2527 3.73929 12.7758 4.09092 12.4242Z" fill="#171723"/>
<path fill-rule="evenodd" clip-rule="evenodd" d="M10.0001 13.125C9.94483 13.125 9.89184 13.1469 9.85277 13.186C9.8137 13.2251 9.79175 13.2781 9.79175 13.3333V14.1667C9.79175 14.2219 9.8137 14.2749 9.85277 14.314C9.89184 14.353 9.94483 14.375 10.0001 14.375H10.8334C11.2202 14.375 11.5911 14.5286 11.8646 14.8021C12.1381 15.0756 12.2917 15.4466 12.2917 15.8333V16.6667C12.2917 17.0534 12.1381 17.4244 11.8646 17.6979C11.5911 17.9714 11.2202 18.125 10.8334 18.125H9.79175C9.10157 18.125 8.54175 17.5652 8.54175 16.875C8.54175 16.5298 8.82157 16.25 9.16675 16.25C9.51193 16.25 9.79175 16.5298 9.79175 16.875H10.8334C10.8887 16.875 10.9417 16.853 10.9807 16.814C11.0198 16.7749 11.0417 16.7219 11.0417 16.6667V15.8333C11.0417 15.7781 11.0198 15.7251 10.9807 15.686C10.9417 15.6469 10.8887 15.625 10.8334 15.625H10.0001C9.61331 15.625 9.24238 15.4714 8.96888 15.1979C8.69539 14.9244 8.54175 14.5534 8.54175 14.1667V13.3333C8.54175 12.9466 8.69539 12.5756 8.96888 12.3021C9.24237 12.0286 9.61331 11.875 10.0001 11.875H11.0417C11.3733 11.875 11.6912 12.0067 11.9256 12.2411C12.1601 12.4755 12.2917 12.7935 12.2917 13.125C12.2917 13.4702 12.0119 13.75 11.6667 13.75C11.3216 13.75 11.0417 13.4702 11.0417 13.125H10.0001Z" fill="#171723"/>
<path fill-rule="evenodd" clip-rule="evenodd" d="M15.0001 13.125C14.9448 13.125 14.8918 13.1469 14.8528 13.186C14.8137 13.2251 14.7917 13.2781 14.7917 13.3333V14.1667C14.7917 14.2219 14.8137 14.2749 14.8528 14.314C14.8918 14.353 14.9448 14.375 15.0001 14.375H15.8334C16.2202 14.375 16.5911 14.5286 16.8646 14.8021C17.1381 15.0756 17.2917 15.4466 17.2917 15.8333V16.6667C17.2917 17.0534 17.1381 17.4244 16.8646 17.6979C16.5911 17.9714 16.2202 18.125 15.8334 18.125H14.7917C14.1016 18.125 13.5417 17.5652 13.5417 16.875C13.5417 16.5298 13.8216 16.25 14.1667 16.25C14.5119 16.25 14.7917 16.5298 14.7917 16.875H15.8334C15.8887 16.875 15.9417 16.853 15.9807 16.814C16.0198 16.7749 16.0417 16.7219 16.0417 16.6667V15.8333C16.0417 15.7781 16.0198 15.7251 15.9807 15.686C15.9417 15.647 15.8887 15.625 15.8334 15.625H15.0001C14.6133 15.625 14.2424 15.4714 13.9689 15.1979C13.6954 14.9244 13.5417 14.5534 13.5417 14.1667V13.3333C13.5417 12.9466 13.6954 12.5756 13.9689 12.3021C14.2424 12.0286 14.6133 11.875 15.0001 11.875H16.0417C16.3733 11.875 16.6912 12.0067 16.9256 12.2411C17.1601 12.4755 17.2917 12.7935 17.2917 13.125C17.2917 13.4702 17.0119 13.75 16.6667 13.75C16.3216 13.75 16.0417 13.4702 16.0417 13.125H15.0001Z" fill="#171723"/>
</svg>
