<svg width="20" height="20" viewBox="0 0 20 20" fill="none" xmlns="http://www.w3.org/2000/svg">
<path fill-rule="evenodd" clip-rule="evenodd" d="M4.0908 12.4242C4.44243 12.0725 4.91935 11.875 5.41663 11.875C5.91391 11.875 6.39082 12.0725 6.74245 12.4242C7.09408 12.7758 7.29163 13.2527 7.29163 13.75C7.29163 14.0952 7.0118 14.375 6.66663 14.375C6.32145 14.375 6.04163 14.0952 6.04163 13.75C6.04163 13.5842 5.97578 13.4253 5.85857 13.3081C5.74136 13.1908 5.58239 13.125 5.41663 13.125C5.25087 13.125 5.09189 13.1908 4.97468 13.3081C4.85747 13.4253 4.79163 13.5842 4.79163 13.75V16.25C4.79163 16.4158 4.85747 16.5747 4.97468 16.6919C5.09189 16.8092 5.25087 16.875 5.41663 16.875C5.58239 16.875 5.74136 16.8092 5.85857 16.6919C5.97578 16.5747 6.04163 16.4158 6.04163 16.25C6.04163 15.9048 6.32145 15.625 6.66663 15.625C7.0118 15.625 7.29163 15.9048 7.29163 16.25C7.29163 16.7473 7.09408 17.2242 6.74245 17.5758C6.39082 17.9275 5.91391 18.125 5.41663 18.125C4.91934 18.125 4.44243 17.9275 4.0908 17.5758C3.73917 17.2242 3.54163 16.7473 3.54163 16.25V13.75C3.54163 13.2527 3.73917 12.7758 4.0908 12.4242Z" fill="#171723"/>
<path fill-rule="evenodd" clip-rule="evenodd" d="M9.99996 13.125C9.94471 13.125 9.89172 13.1469 9.85265 13.186C9.81358 13.2251 9.79163 13.2781 9.79163 13.3333V14.1667C9.79163 14.2219 9.81358 14.2749 9.85265 14.314C9.89171 14.353 9.9447 14.375 9.99996 14.375H10.8333C11.2201 14.375 11.591 14.5286 11.8645 14.8021C12.138 15.0756 12.2916 15.4466 12.2916 15.8333V16.6667C12.2916 17.0534 12.138 17.4244 11.8645 17.6979C11.591 17.9714 11.2201 18.125 10.8333 18.125H9.79163C9.10145 18.125 8.54163 17.5652 8.54163 16.875C8.54163 16.5298 8.82145 16.25 9.16663 16.25C9.5118 16.25 9.79163 16.5298 9.79163 16.875H10.8333C10.8885 16.875 10.9415 16.853 10.9806 16.814C11.0197 16.7749 11.0416 16.7219 11.0416 16.6667V15.8333C11.0416 15.7781 11.0197 15.7251 10.9806 15.686C10.9415 15.6469 10.8885 15.625 10.8333 15.625H9.99996C9.61319 15.625 9.24225 15.4714 8.96876 15.1979C8.69527 14.9244 8.54163 14.5534 8.54163 14.1667V13.3333C8.54163 12.9466 8.69527 12.5756 8.96876 12.3021C9.24225 12.0286 9.61318 11.875 9.99996 11.875H11.0416C11.3731 11.875 11.6911 12.0067 11.9255 12.2411C12.1599 12.4755 12.2916 12.7935 12.2916 13.125C12.2916 13.4702 12.0118 13.75 11.6666 13.75C11.3214 13.75 11.0416 13.4702 11.0416 13.125H9.99996Z" fill="#171723"/>
<path fill-rule="evenodd" clip-rule="evenodd" d="M15 13.125C14.9447 13.125 14.8917 13.1469 14.8526 13.186C14.8136 13.2251 14.7916 13.2781 14.7916 13.3333V14.1667C14.7916 14.2219 14.8136 14.2749 14.8526 14.314C14.8917 14.353 14.9447 14.375 15 14.375H15.8333C16.2201 14.375 16.591 14.5286 16.8645 14.8021C17.138 15.0756 17.2916 15.4466 17.2916 15.8333V16.6667C17.2916 17.0534 17.138 17.4244 16.8645 17.6979C16.591 17.9714 16.2201 18.125 15.8333 18.125H14.7916C14.1014 18.125 13.5416 17.5652 13.5416 16.875C13.5416 16.5298 13.8214 16.25 14.1666 16.25C14.5118 16.25 14.7916 16.5298 14.7916 16.875H15.8333C15.8885 16.875 15.9415 16.853 15.9806 16.814C16.0197 16.7749 16.0416 16.7219 16.0416 16.6667V15.8333C16.0416 15.7781 16.0197 15.7251 15.9806 15.686C15.9415 15.647 15.8885 15.625 15.8333 15.625H15C14.6132 15.625 14.2423 15.4714 13.9688 15.1979C13.6953 14.9244 13.5416 14.5534 13.5416 14.1667V13.3333C13.5416 12.9466 13.6953 12.5756 13.9688 12.3021C14.2423 12.0286 14.6132 11.875 15 11.875H16.0416C16.3731 11.875 16.6911 12.0067 16.9255 12.2411C17.1599 12.4755 17.2916 12.7935 17.2916 13.125C17.2916 13.4702 17.0118 13.75 16.6666 13.75C16.3214 13.75 16.0416 13.4702 16.0416 13.125H15Z" fill="#171723"/>
<path fill-rule="evenodd" clip-rule="evenodd" d="M12.2908 2.46784C12.2741 2.13761 12.001 1.875 11.6666 1.875C11.8324 1.875 11.9914 1.94085 12.1086 2.05806C12.2144 2.16406 12.2827 2.30817 12.2908 2.46784ZM16.2752 6.22472C16.1698 6.11955 16.0266 6.05137 15.8681 6.04262C16.1971 6.06066 16.4583 6.33316 16.4583 6.66667C16.4583 6.50091 16.3924 6.34193 16.2752 6.22472Z" fill="#171723"/>
<path fill-rule="evenodd" clip-rule="evenodd" d="M11.4688 6.86453C11.7423 7.13802 12.1132 7.29167 12.5 7.29167H15.2083V10C15.2083 10.3452 15.4881 10.625 15.8333 10.625C16.1785 10.625 16.4583 10.3452 16.4583 10V6.66667C16.4583 6.50091 16.3924 6.34193 16.2752 6.22472L12.1086 2.05806C11.9914 1.94085 11.8324 1.875 11.6666 1.875H5.83329C5.2255 1.875 4.64261 2.11644 4.21284 2.54621C3.78307 2.97598 3.54163 3.55888 3.54163 4.16667V10C3.54163 10.3452 3.82145 10.625 4.16663 10.625C4.5118 10.625 4.79163 10.3452 4.79163 10V4.16667C4.79163 3.8904 4.90137 3.62545 5.09672 3.4301C5.29207 3.23475 5.55703 3.125 5.83329 3.125H11.0416V5.83333C11.0416 6.22011 11.1953 6.59104 11.4688 6.86453ZM12.2916 5.83333C12.2916 5.88859 12.3136 5.94158 12.3526 5.98065C12.3917 6.01972 12.4447 6.04167 12.5 6.04167H14.3244L12.2916 4.00888V5.83333Z" fill="#171723"/>
</svg>
