<svg width="20" height="20" viewBox="0 0 20 20" fill="none" xmlns="http://www.w3.org/2000/svg">
<path fill-rule="evenodd" clip-rule="evenodd" d="M2.33241 6.90901C2.75863 6.48705 3.33671 6.25 3.93948 6.25C4.54224 6.25 5.12032 6.48705 5.54654 6.90901C5.97276 7.33097 6.2122 7.90326 6.2122 8.5C6.2122 8.91421 5.87302 9.25 5.45463 9.25C5.03623 9.25 4.69705 8.91421 4.69705 8.5C4.69705 8.30109 4.61724 8.11032 4.47516 7.96967C4.33309 7.82902 4.1404 7.75 3.93948 7.75C3.73855 7.75 3.54586 7.82902 3.40379 7.96967C3.26172 8.11032 3.1819 8.30109 3.1819 8.5V11.5C3.1819 11.6989 3.26171 11.8897 3.40379 12.0303C3.54586 12.171 3.73855 12.25 3.93948 12.25C4.1404 12.25 4.33309 12.171 4.47516 12.0303C4.61724 11.8897 4.69705 11.6989 4.69705 11.5C4.69705 11.0858 5.03623 10.75 5.45463 10.75C5.87302 10.75 6.2122 11.0858 6.2122 11.5C6.2122 12.0967 5.97275 12.669 5.54654 13.091C5.12032 13.5129 4.54224 13.75 3.93948 13.75C3.33671 13.75 2.75863 13.5129 2.33241 13.091C1.9062 12.669 1.66675 12.0967 1.66675 11.5V8.5C1.66675 7.90326 1.90619 7.33097 2.33241 6.90901Z" fill="#171723"/>
<path fill-rule="evenodd" clip-rule="evenodd" d="M9.49503 7.75C9.42806 7.75 9.36383 7.77634 9.31647 7.82322C9.26911 7.87011 9.24251 7.9337 9.24251 8V9C9.24251 9.0663 9.26911 9.12989 9.31647 9.17678C9.36383 9.22366 9.42806 9.25 9.49503 9.25H10.5051C10.9739 9.25 11.4236 9.43437 11.7551 9.76256C12.0866 10.0908 12.2728 10.5359 12.2728 11V12C12.2728 12.4641 12.0866 12.9092 11.7551 13.2374C11.4236 13.5656 10.9739 13.75 10.5051 13.75H9.24251C8.40593 13.75 7.72735 13.0782 7.72735 12.25C7.72735 11.8358 8.06653 11.5 8.48493 11.5C8.90333 11.5 9.24251 11.8358 9.24251 12.25H10.5051C10.5721 12.25 10.6363 12.2237 10.6837 12.1768C10.7311 12.1299 10.7577 12.0663 10.7577 12V11C10.7577 10.9337 10.7311 10.8701 10.6837 10.8232C10.6363 10.7763 10.5721 10.75 10.5051 10.75H9.49503C9.02621 10.75 8.5766 10.5656 8.24509 10.2374C7.91359 9.90925 7.72735 9.46413 7.72735 9V8C7.72735 7.53587 7.91359 7.09075 8.24509 6.76256C8.5766 6.43438 9.02621 6.25 9.49503 6.25H10.7577C11.1595 6.25 11.5449 6.40804 11.829 6.68934C12.1132 6.97064 12.2728 7.35217 12.2728 7.75C12.2728 8.16421 11.9336 8.5 11.5152 8.5C11.0968 8.5 10.7577 8.16421 10.7577 7.75H9.49503Z" fill="#171723"/>
<path fill-rule="evenodd" clip-rule="evenodd" d="M15.5556 7.75C15.4887 7.75 15.4244 7.77634 15.3771 7.82322C15.3297 7.87011 15.3031 7.93369 15.3031 8V9C15.3031 9.06631 15.3297 9.12989 15.3771 9.17678C15.4244 9.22366 15.4887 9.25 15.5556 9.25H16.5657C17.0346 9.25 17.4842 9.43437 17.8157 9.76256C18.1472 10.0908 18.3334 10.5359 18.3334 11V12C18.3334 12.4641 18.1472 12.9092 17.8157 13.2374C17.4842 13.5656 17.0346 13.75 16.5657 13.75H15.3031C14.4665 13.75 13.788 13.0782 13.788 12.25C13.788 11.8358 14.1271 11.5 14.5455 11.5C14.9639 11.5 15.3031 11.8358 15.3031 12.25H16.5657C16.6327 12.25 16.6969 12.2237 16.7443 12.1768C16.7917 12.1299 16.8183 12.0663 16.8183 12V11C16.8183 10.9337 16.7917 10.8701 16.7443 10.8232C16.6969 10.7763 16.6327 10.75 16.5657 10.75H15.5556C15.0868 10.75 14.6372 10.5656 14.3057 10.2374C13.9742 9.90925 13.788 9.46413 13.788 9V8C13.788 7.53587 13.9742 7.09075 14.3057 6.76256C14.6372 6.43437 15.0868 6.25 15.5556 6.25H16.8183C17.2201 6.25 17.6055 6.40804 17.8896 6.68934C18.1738 6.97065 18.3334 7.35218 18.3334 7.75C18.3334 8.16421 17.9942 8.5 17.5758 8.5C17.1574 8.5 16.8183 8.16421 16.8183 7.75L15.5556 7.75Z" fill="#171723"/>
</svg>
