<svg width="20" height="20" viewBox="0 0 20 20" fill="none" xmlns="http://www.w3.org/2000/svg">
<path d="M6.89401 2.4972C7.21291 2.3652 7.57902 2.51687 7.71107 2.83574C7.84309 3.15467 7.69145 3.52078 7.37253 3.6528C6.53844 3.99806 5.7804 4.50392 5.1419 5.14206C4.89782 5.386 4.50213 5.386 4.25811 5.14206C4.01416 4.89798 4.01416 4.5023 4.25811 4.25827C5.01268 3.50412 5.9083 2.90524 6.89401 2.4972Z" fill="#171723"/>
<path d="M2.52523 6.83548C2.67575 6.55685 3.01589 6.43229 3.31462 6.55635C3.63332 6.68889 3.78487 7.0547 3.65234 7.37341L3.53027 7.68835C3.2639 8.42957 3.12641 9.21187 3.125 10.0012L3.12175 10.0646C3.08936 10.3798 2.82278 10.6258 2.49919 10.6254C2.15401 10.6247 1.87439 10.3439 1.875 9.99873L1.88558 9.59997C1.93294 8.67033 2.13936 7.75457 2.49756 6.89326L2.52523 6.83548Z" fill="#171723"/>
<path d="M2.83574 12.2889C3.1347 12.1651 3.47499 12.2908 3.62513 12.5696L3.6528 12.6274L3.78952 12.9367C4.12642 13.6492 4.58369 14.2993 5.14206 14.858C5.38599 15.1021 5.38597 15.4978 5.14206 15.7418C4.91322 15.9705 4.5509 15.9851 4.30547 15.785L4.25827 15.7418L3.98239 15.4521C3.4465 14.8604 3.00039 14.193 2.65915 13.4713L2.4972 13.1059L2.47604 13.0457C2.38493 12.7422 2.53671 12.4127 2.83574 12.2889Z" fill="#171723"/>
<path d="M6.55635 16.6849C6.68064 16.3862 7.00993 16.2346 7.31318 16.326L7.37341 16.348L7.68835 16.4701C8.32367 16.6984 8.98922 16.832 9.66344 16.8664L10.0012 16.8754L10.0646 16.8786C10.3799 16.911 10.6259 17.1775 10.6254 17.5012C10.6248 17.8247 10.3781 18.0906 10.063 18.1221L9.99873 18.1254L9.59997 18.1148C8.80317 18.0742 8.01681 17.9158 7.26598 17.646L6.89326 17.502L6.83548 17.4743C6.5569 17.3237 6.43211 16.9837 6.55635 16.6849Z" fill="#171723"/>
<path d="M14.858 14.8581C15.1021 14.6141 15.4978 14.6141 15.7418 14.8581C15.9858 15.1022 15.9859 15.4979 15.7418 15.7419C14.9873 16.496 14.0916 17.0941 13.1059 17.5022L13.0457 17.5241C12.7423 17.6152 12.4127 17.4633 12.2889 17.1644C12.1569 16.8455 12.3086 16.4794 12.6274 16.3474L12.9367 16.2106C13.6492 15.8738 14.2993 15.4165 14.858 14.8581Z" fill="#171723"/>
<path d="M17.5012 9.375C17.8462 9.37565 18.1258 9.65579 18.1254 10.0008C18.1235 11.0667 17.9113 12.1221 17.502 13.1063C17.3694 13.425 17.0036 13.5765 16.6849 13.444C16.3663 13.3115 16.2156 12.9456 16.348 12.627L16.4701 12.312C16.7365 11.5708 16.8739 10.7885 16.8754 9.99919C16.876 9.65401 17.156 9.37439 17.5012 9.375Z" fill="#171723"/>
<path d="M14.8581 4.25811C15.087 4.02937 15.4493 4.01476 15.6947 4.21497L15.7419 4.25811L16.0178 4.54782C16.6429 5.23813 17.1452 6.0317 17.5022 6.89401C17.6341 7.21287 17.4832 7.57897 17.1644 7.71107C16.8655 7.83482 16.5252 7.70917 16.375 7.43031L16.3474 7.37253L16.2106 7.06328C15.9219 6.45245 15.5444 5.88765 15.0909 5.38685L14.8581 5.1419L14.815 5.09469C14.6147 4.8492 14.6293 4.48693 14.8581 4.25811Z" fill="#171723"/>
<path d="M10.4004 1.88558C11.1971 1.9262 11.9836 2.08373 12.7344 2.35352L13.1063 2.49756L13.1641 2.52523C13.4429 2.67563 13.568 3.01579 13.444 3.31462C13.3198 3.61334 12.9904 3.76484 12.6872 3.6735L12.627 3.65234L12.312 3.53027C11.6767 3.30192 11.0112 3.16835 10.3369 3.13395L9.99919 3.125L9.9349 3.12175C9.61993 3.08915 9.37458 2.82263 9.375 2.49919C9.37562 2.15411 9.65577 1.87455 10.0008 1.875L10.4004 1.88558Z" fill="#171723"/>
<path d="M12.0581 7.89144C12.3022 7.64736 12.6978 7.64736 12.9419 7.89144C13.186 8.13552 13.186 8.53115 12.9419 8.77523L9.60856 12.1086C9.36448 12.3526 8.96885 12.3526 8.72477 12.1086L7.05811 10.4419C6.81403 10.1978 6.81403 9.80218 7.05811 9.55811C7.28694 9.32927 7.64921 9.31472 7.89469 9.51497L7.9419 9.55811L9.16667 10.7829L12.0581 7.89144Z" fill="#171723"/>
</svg>
