<svg width="20" height="20" viewBox="0 0 20 20" fill="none" xmlns="http://www.w3.org/2000/svg">
<g clip-path="url(#clip0_10314_146040)">
<path d="M10.2455 7.14575H2.61536C1.922 7.14666 1.2573 7.4225 0.767025 7.91278C0.276748 8.40305 0.000909994 9.06775 0 9.76111V17.3847C0.000909994 18.0781 0.276748 18.7428 0.767025 19.2331C1.2573 19.7233 1.922 19.9992 2.61536 20.0001H10.2455C10.589 20.0002 10.9291 19.9326 11.2465 19.8012C11.5638 19.6698 11.8522 19.4772 12.095 19.2343C12.3379 18.9914 12.5306 18.7031 12.662 18.3857C12.7934 18.0683 12.8609 17.7282 12.8608 17.3847V9.76111C12.8609 9.41763 12.7934 9.07749 12.662 8.76014C12.5306 8.44278 12.3379 8.15443 12.095 7.91155C11.8522 7.66867 11.5638 7.47603 11.2465 7.34463C10.9291 7.21323 10.589 7.14565 10.2455 7.14575ZM6.43369 8.88495C6.85138 8.88494 7.2597 9.0088 7.607 9.24085C7.95429 9.47291 8.22498 9.80274 8.38483 10.1886C8.54468 10.5745 8.5865 10.9992 8.50502 11.4088C8.42353 11.8185 8.2224 12.1948 7.92705 12.4901C7.6317 12.7855 7.2554 12.9866 6.84574 13.0681C6.43607 13.1496 6.01144 13.1078 5.62554 12.948C5.23965 12.7881 4.90981 12.5174 4.67775 12.1701C4.4457 11.8228 4.32183 11.4145 4.32183 10.9968C4.32268 10.437 4.54546 9.90033 4.94132 9.50446C5.33719 9.10859 5.87385 8.88581 6.43369 8.88495V8.88495ZM9.63092 17.2409C9.63095 17.5103 9.52439 17.7688 9.33451 17.9599C9.14463 18.151 8.88685 18.2592 8.61746 18.2609H4.24993C3.97951 18.2606 3.72026 18.153 3.52905 17.9618C3.33783 17.7706 3.23026 17.5113 3.22993 17.2409V16.7505C3.22873 16.3295 3.31079 15.9123 3.47137 15.5231C3.63195 15.1338 3.86789 14.7802 4.16563 14.4825C4.46336 14.1847 4.81702 13.9488 5.20626 13.7882C5.5955 13.6276 6.01264 13.5456 6.4337 13.5468H6.4598C6.48182 13.5457 6.50388 13.5479 6.52524 13.5533C6.59716 13.5533 6.67561 13.5533 6.74752 13.5598C7.5506 13.6609 8.28839 14.0539 8.82019 14.6641C9.35199 15.2743 9.64058 16.0589 9.63093 16.8682L9.63092 17.2409Z" fill="#171723"/>
<path d="M18.2719 0H1.72806C0.773681 0 0 0.773681 0 1.72806V3.98622C0 4.9406 0.773681 5.71428 1.72806 5.71428H18.2719C19.2263 5.71428 20 4.9406 20 3.98622V1.72806C20 0.773681 19.2263 0 18.2719 0Z" fill="#171723"/>
<path d="M16.8718 19.9999C18.4498 19.9999 19.7289 18.7207 19.7289 17.1428C19.7289 15.5648 18.4498 14.2856 16.8718 14.2856C15.2938 14.2856 14.0146 15.5648 14.0146 17.1428C14.0146 18.7207 15.2938 19.9999 16.8718 19.9999Z" fill="#171723"/>
<path d="M19.4643 9.10695H14.2799C14.1378 9.10695 14.0015 9.05051 13.901 8.95004C13.8006 8.84958 13.7441 8.71332 13.7441 8.57124C13.7441 8.42916 13.8006 8.29289 13.901 8.19243C14.0015 8.09196 14.1378 8.03552 14.2799 8.03552H19.4643C19.6064 8.03552 19.7427 8.09196 19.8432 8.19243C19.9436 8.29289 20.0001 8.42916 20.0001 8.57124C20.0001 8.71332 19.9436 8.84958 19.8432 8.95004C19.7427 9.05051 19.6064 9.10695 19.4643 9.10695Z" fill="#171723"/>
<path d="M19.4643 11.2727H14.2799C14.1378 11.2727 14.0015 11.2163 13.901 11.1158C13.8006 11.0153 13.7441 10.8791 13.7441 10.737C13.7441 10.5949 13.8006 10.4587 13.901 10.3582C14.0015 10.2577 14.1378 10.2013 14.2799 10.2013H19.4643C19.6064 10.2013 19.7427 10.2577 19.8432 10.3582C19.9436 10.4587 20.0001 10.5949 20.0001 10.737C20.0001 10.8791 19.9436 11.0153 19.8432 11.1158C19.7427 11.2163 19.6064 11.2727 19.4643 11.2727Z" fill="#171723"/>
<path d="M19.4643 13.4375H14.2799C14.1378 13.4375 14.0015 13.3811 13.901 13.2806C13.8006 13.1801 13.7441 13.0439 13.7441 12.9018C13.7441 12.7597 13.8006 12.6235 13.901 12.523C14.0015 12.4225 14.1378 12.3661 14.2799 12.3661H19.4643C19.6064 12.3661 19.7427 12.4225 19.8432 12.523C19.9436 12.6235 20.0001 12.7597 20.0001 12.9018C20.0001 13.0439 19.9436 13.1801 19.8432 13.2806C19.7427 13.3811 19.6064 13.4375 19.4643 13.4375Z" fill="#171723"/>
</g>
<defs>
<clipPath id="clip0_10314_146040">
<rect width="20" height="20" fill="white"/>
</clipPath>
</defs>
</svg>
