<svg width="20" height="20" viewBox="0 0 20 20" fill="none" xmlns="http://www.w3.org/2000/svg">
<g clip-path="url(#clip0_14521_205387)">
<path d="M11.8523 10.4774L11.8477 10.4538C11.8305 10.359 11.7859 10.2713 11.7195 10.2014C11.7125 10.1944 11.7031 10.1923 11.6959 10.1857L10.6715 9.16136C10.5758 9.06758 10.447 9.01535 10.313 9.01603C10.179 9.0167 10.0507 9.07023 9.95599 9.16497C9.86125 9.25972 9.80772 9.38802 9.80704 9.52201C9.80637 9.65599 9.85859 9.78483 9.95238 9.88053L10.1272 10.0554H8.64306C8.50817 10.0554 8.37881 10.1089 8.28343 10.2043C8.18805 10.2997 8.13446 10.4291 8.13446 10.564C8.13446 10.6988 8.18805 10.8282 8.28343 10.9236C8.37881 11.019 8.50817 11.0726 8.64306 11.0726H10.1292L9.95239 11.2494C9.90438 11.2964 9.86617 11.3525 9.83998 11.4144C9.81379 11.4763 9.80013 11.5428 9.79979 11.61C9.79945 11.6772 9.81244 11.7439 9.838 11.806C9.86357 11.8682 9.90121 11.9247 9.94873 11.9722C9.99626 12.0197 10.0527 12.0574 10.1149 12.0829C10.1771 12.1085 10.2437 12.1215 10.3109 12.1211C10.3781 12.1208 10.4446 12.1071 10.5065 12.081C10.5684 12.0548 10.6245 12.0166 10.6716 11.9686L11.7196 10.9206C11.7758 10.8629 11.8172 10.7924 11.8403 10.7153C11.8634 10.6381 11.8675 10.5565 11.8523 10.4774V10.4774Z" fill="#171723"/>
<path d="M19.8764 6.71326C18.6829 7.20274 17.3951 7.41893 16.1073 7.34597C14.824 7.41785 13.5408 7.20167 12.3519 6.71326C13.5403 6.22311 14.8239 6.00683 16.1073 6.08047C17.3951 6.00747 18.683 6.22369 19.8764 6.71326Z" fill="#171723"/>
<path d="M19.9999 7.84872V9.56819C19.9856 9.59009 19.9669 9.6088 19.945 9.62318C19.862 9.68816 19.7691 9.73925 19.6698 9.77447C19.5853 9.81334 19.498 9.84555 19.4085 9.87078C19.3168 9.91526 19.2197 9.94763 19.1196 9.96708C19.0154 10.014 18.9035 10.042 18.7894 10.0496C17.908 10.2374 17.0082 10.3251 16.1071 10.311C14.7755 10.4026 13.4412 10.1763 12.2142 9.65072V7.84872C13.4765 8.22986 14.7886 8.41995 16.1071 8.41266C17.4257 8.42075 18.7379 8.23064 19.9999 7.84872V7.84872Z" fill="#171723"/>
<path d="M20 10.8276V12.5883C19.0915 13.0754 18.0733 13.3217 17.0426 13.3036C16.4605 13.333 15.8771 13.3284 15.2955 13.2898C15.1808 13.2911 15.066 13.2865 14.9517 13.276C14.8004 13.2623 14.6353 13.2486 14.484 13.2211L14.25 13.1935C13.7693 13.1378 13.2949 13.0364 12.8332 12.8909C12.6682 12.8222 12.5168 12.7671 12.4068 12.7121C12.2967 12.657 12.2554 12.6158 12.2142 12.602V10.8138C13.4747 11.2044 14.7876 11.3992 16.1071 11.3916C17.1006 11.4047 18.0924 11.3078 19.0646 11.1027C19.2274 11.0771 19.3883 11.0403 19.5461 10.9927C19.6698 10.9514 19.7799 10.9101 19.8762 10.8688L20 10.8276Z" fill="#171723"/>
<path d="M20 13.8393V15.6276C19.0915 16.1147 18.0733 16.361 17.0426 16.3428C16.4605 16.3723 15.8771 16.3677 15.2955 16.3291C15.1808 16.3306 15.066 16.326 14.9517 16.3154C14.8004 16.3016 14.6353 16.2878 14.484 16.2603L14.25 16.2465C13.769 16.1853 13.2947 16.0794 12.8332 15.9302C12.6682 15.8614 12.5168 15.8063 12.4068 15.7514C12.3382 15.7229 12.2735 15.6859 12.2142 15.6413V13.8256C12.2692 13.853 12.3105 13.8668 12.3655 13.8943C12.9275 14.0854 13.5087 14.2145 14.0988 14.2794L14.3188 14.307C14.4976 14.3207 14.6765 14.3482 14.8141 14.3482C14.959 14.3761 15.107 14.3853 15.2543 14.3757C15.5431 14.4033 15.832 14.4033 16.1209 14.4033C16.4648 14.4033 16.7812 14.4033 17.1113 14.3757C18.0946 14.3337 19.0671 14.1531 20 13.8393V13.8393Z" fill="#171723"/>
<path d="M7.66375 4.27234C6.47043 4.75476 5.18626 4.97115 3.90074 4.90643C2.61067 4.97224 1.32177 4.75585 0.123932 4.27234C1.31976 3.78174 2.61025 3.56508 3.90074 3.63824C5.18668 3.56617 6.47244 3.78284 7.66375 4.27234V4.27234Z" fill="#171723"/>
<path d="M7.78798 13.8463V15.5969C6.58224 16.1893 5.24083 16.4509 3.90086 16.355C2.56362 16.4268 1.22803 16.1861 -3.05176e-05 15.652V13.8326C0.0550717 13.8601 0.0964618 13.8739 0.151534 13.9015C0.710367 14.0916 1.28803 14.2209 1.87454 14.2874L2.10885 14.315C2.28805 14.3288 2.46724 14.3563 2.60513 14.3563C2.75031 14.3849 2.89863 14.3942 3.04624 14.3839C3.3219 14.4115 3.61135 14.4115 3.90083 14.4115C4.24543 14.4115 4.57626 14.4115 4.90705 14.3839C5.88778 14.3404 6.85756 14.1595 7.78798 13.8463V13.8463Z" fill="#171723"/>
<path d="M7.78798 10.9776V12.7419C6.87755 13.2301 5.85725 13.4769 4.82437 13.4587C4.24567 13.4882 3.66573 13.4836 3.08757 13.445C2.97254 13.4467 2.8575 13.4421 2.74298 13.4311C2.57757 13.4174 2.42596 13.4037 2.26056 13.376L2.03997 13.3484C1.5537 13.2924 1.07376 13.1909 0.60646 13.0452C0.441062 12.9763 0.289457 12.9211 0.179161 12.866C0.0826684 12.8109 0.0275969 12.7695 -3.05176e-05 12.7557V10.9638C0.0550717 10.9914 0.0964618 11.0051 0.151534 11.0327C0.710789 11.2213 1.28829 11.3507 1.87454 11.4187L2.10885 11.4462C2.28805 11.46 2.46724 11.4876 2.60513 11.4876C2.75112 11.5093 2.89868 11.5185 3.04624 11.5152C3.3219 11.5426 3.61135 11.5426 3.90083 11.5426C4.24543 11.5426 4.57626 11.5426 4.90705 11.5152C5.88777 11.4716 6.85753 11.2907 7.78798 10.9776V10.9776Z" fill="#171723"/>
<path d="M7.78798 8.11077V9.87517C6.87783 10.3627 5.8565 10.6049 4.82437 10.5782C4.24618 10.6196 3.66576 10.6196 3.08757 10.5782C2.97254 10.5799 2.8575 10.5753 2.74298 10.5644C2.57757 10.5506 2.42596 10.5368 2.26056 10.5092L2.02618 10.4817C1.54379 10.4295 1.06805 10.3279 0.60646 10.1784C0.441062 10.1095 0.289457 10.0544 0.179161 9.99922C0.11464 9.96527 0.0544705 9.92363 -3.05176e-05 9.87521V8.09695C1.25851 8.48729 2.56941 8.68255 3.88707 8.67594C4.88263 8.69057 5.87668 8.59346 6.85059 8.38645C7.01968 8.36142 7.1859 8.31986 7.34687 8.26235C7.46035 8.23606 7.5711 8.19916 7.67768 8.15215C7.71526 8.14064 7.7521 8.12682 7.78798 8.11077V8.11077Z" fill="#171723"/>
<path d="M7.78792 5.26111V7.01172C7.78495 7.02149 7.77962 7.03038 7.7724 7.0376C7.76518 7.04481 7.75629 7.05014 7.74652 7.05312C7.66148 7.1152 7.56884 7.16613 7.47086 7.20468C7.38681 7.24505 7.29911 7.27736 7.20896 7.30117L6.91955 7.39767C6.80628 7.43151 6.69124 7.45912 6.57495 7.48037C5.69169 7.66853 4.79002 7.75639 3.88705 7.74227C2.55741 7.82945 1.22589 7.6028 -3.05176e-05 7.08061V5.26111C1.26281 5.65331 2.57855 5.8486 3.90086 5.8401C5.21863 5.84834 6.52977 5.65305 7.78792 5.26111V5.26111Z" fill="#171723"/>
</g>
<defs>
<clipPath id="clip0_14521_205387">
<rect width="20" height="20" fill="white"/>
</clipPath>
</defs>
</svg>
