<svg width="20" height="20" viewBox="0 0 20 20" fill="none" xmlns="http://www.w3.org/2000/svg">
<rect width="20" height="20" fill="#0076CE"/>
<path d="M17.5 11.3262V12.201H14.6438V7.79907H15.6494V11.3262H17.5ZM4.29469 12.201C5.32497 12.201 6.19088 11.5011 6.4376 10.5541L8.94227 12.4996L11.4455 10.555V12.201H14.3017V11.3262H12.4511V7.79907H11.4455V9.44505L9.04468 11.31L8.50791 10.8929L10.9083 9.028L10.1941 8.47255L7.79283 10.3379L7.25606 9.92089L9.65689 8.05597L8.94227 7.50052L6.4376 9.44598C6.19088 8.49894 5.32497 7.79907 4.29469 7.79907H2.5V12.201H4.29469ZM3.50559 11.3262V8.6739H4.29469C4.96183 8.6739 5.50279 9.26777 5.50279 10C5.50279 10.7323 4.96183 11.3262 4.29469 11.3262H3.50559Z" fill="white"/>
</svg>
