<svg width="20" height="20" viewBox="0 0 20 20" fill="none" xmlns="http://www.w3.org/2000/svg">
<g clip-path="url(#clip0_10314_146625)">
<g clip-path="url(#clip1_10314_146625)">
<path d="M16.205 11.4195V8.40373C16.8546 7.60398 17.4186 6.84416 17.9062 6.12551C18.0332 6.15919 18.1638 6.17701 18.2951 6.17855C18.609 6.17952 18.9163 6.08822 19.1787 5.91599C19.4411 5.74375 19.6472 5.49819 19.7712 5.2098C19.8952 4.92142 19.9318 4.60295 19.8763 4.29396C19.8209 3.98497 19.6758 3.69909 19.4593 3.47186C20.128 1.98433 20.1777 0.97035 19.6015 0.394086C18.2924 -0.930749 14.742 1.37975 12.6364 2.96665C10.8881 2.67685 9.10407 2.67701 7.35585 2.96713C6.95133 2.65919 6.56191 2.37839 6.18613 2.11939C6.22018 1.9918 6.2382 1.86047 6.23978 1.72842C6.24052 1.41379 6.14865 1.1059 5.97562 0.843133C5.8026 0.580362 5.55607 0.374333 5.26677 0.250725C4.97747 0.127118 4.65819 0.0913982 4.34873 0.14802C4.03927 0.204641 3.75332 0.3511 3.52652 0.569139C2.0286 -0.118337 0.970471 -0.184101 0.393409 0.392112C-1.13463 1.91939 2.16999 6.40652 3.79096 8.412V8.63164L3.79198 8.63654V11.5769C3.24977 12.2491 2.79109 12.8564 2.3862 13.4273C2.22274 13.3697 2.05094 13.3392 1.87762 13.3371C1.55836 13.3365 1.24621 13.4313 0.981127 13.6092C0.716047 13.7872 0.510113 14.0402 0.389701 14.3359C0.269289 14.6316 0.239879 14.9566 0.30524 15.2691C0.370601 15.5816 0.527756 15.8675 0.756578 16.0902C-0.101254 17.7939 -0.231028 18.9797 0.39348 19.6034C0.53723 19.7381 0.70674 19.8423 0.891808 19.9098C1.07688 19.9772 1.27368 20.0065 1.47036 19.9959C3.16026 19.995 5.8069 18.2054 7.53325 16.8843C8.34674 17.0174 9.16974 17.0838 9.99405 17.0828C10.8198 17.0838 11.6442 17.0174 12.4591 16.8843C12.9372 17.252 13.3909 17.5798 13.8217 17.8733C13.7877 18.0008 13.7697 18.1321 13.7681 18.2641C13.7673 18.5784 13.8589 18.8859 14.0315 19.1485C14.2042 19.4111 14.4502 19.6171 14.7389 19.741C15.0277 19.8648 15.3465 19.901 15.6557 19.845C15.9649 19.7891 16.2508 19.6434 16.4779 19.4262C17.1119 19.7554 17.807 19.95 18.5197 19.9979C18.7168 20.0085 18.9141 19.9791 19.0995 19.9113C19.285 19.8435 19.4547 19.7388 19.5985 19.6034C21.1226 18.0792 17.8236 13.5858 16.205 11.5764V11.4195ZM4.80924 14.4966V12.8993C6.23876 13.6293 7.8227 14.0053 9.42779 13.9956C8.65979 14.6838 7.95191 15.2766 7.28059 15.7923C5.74346 15.4663 4.80924 14.9134 4.80924 14.4966ZM5.88742 7.27723C5.90923 7.28635 5.93167 7.2939 5.95456 7.29983C7.26332 7.70409 8.62728 7.90102 9.99692 7.88348C11.3693 7.90119 12.7359 7.70328 14.0469 7.29697C14.0627 7.29151 14.0788 7.28809 14.0939 7.28114C14.4751 7.1538 14.8409 6.98447 15.1847 6.77629V8.04624C14.8859 8.4182 14.5733 8.7914 14.2382 9.16988C14.0545 9.25672 13.866 9.3331 13.6736 9.39865C11.2661 10.0597 8.72496 10.06 6.31723 9.39967C6.12611 9.33451 5.93888 9.25849 5.75643 9.17196C5.42183 8.79398 5.10927 8.42084 4.8082 8.04608V6.77623C5.14841 6.98243 5.51034 7.15045 5.88742 7.27723V7.27723ZM9.99398 12.9884C6.87757 12.9884 4.80924 12.0445 4.80924 11.4195V9.81588C4.90479 9.87624 5.0032 9.93573 5.11161 9.99223C5.21487 10.104 5.3171 10.2151 5.42417 10.3405C5.93679 10.9019 6.47522 11.4762 7.0385 12.0524C7.08573 12.101 7.14226 12.1397 7.20473 12.1659C7.2672 12.1922 7.33432 12.2057 7.4021 12.2054C7.50222 12.2054 7.6001 12.1759 7.6835 12.1205C7.7669 12.0651 7.83209 11.9863 7.87091 11.894C7.90974 11.8017 7.92046 11.7 7.90175 11.6016C7.88303 11.5033 7.83571 11.4126 7.7657 11.341C7.53572 11.1057 7.33257 10.8811 7.11202 10.6482C8.06103 10.8368 9.02641 10.9308 9.99397 10.9287C10.9683 10.931 11.9404 10.8358 12.8957 10.6445C12.5372 11.0226 12.168 11.4025 11.7881 11.7841C11.3829 12.1894 10.9698 12.5822 10.56 12.9672C10.3714 12.9744 10.1913 12.9884 9.99398 12.9884V12.9884ZM12.5074 12.5035C13.2355 11.7752 13.923 11.048 14.5826 10.3257C14.6785 10.2118 14.7836 10.098 14.8891 9.98418C14.9945 9.92948 15.0978 9.87489 15.1876 9.81882V11.4012C15.1361 11.4745 15.1054 11.5605 15.0989 11.6499C14.279 12.3476 13.2537 12.7585 12.1789 12.8201C12.2886 12.7126 12.3986 12.6123 12.5074 12.5035ZM18.2951 5.16117C18.1787 5.16107 18.065 5.12648 17.9683 5.06176C17.8716 4.99703 17.7962 4.90509 17.7517 4.79754C17.7072 4.68999 17.6956 4.57167 17.7183 4.45752C17.741 4.34337 17.7971 4.23852 17.8794 4.15622C17.9617 4.07392 18.0665 4.01786 18.1807 3.99513C18.2948 3.9724 18.4131 3.98402 18.5206 4.02852C18.6282 4.07301 18.7201 4.14839 18.7848 4.24512C18.8495 4.34186 18.8841 4.45561 18.8842 4.572C18.884 4.7282 18.8219 4.87795 18.7115 4.9884C18.6011 5.09884 18.4513 5.16097 18.2951 5.16115L18.2951 5.16117ZM18.8793 1.11145C19.0521 1.28339 19.0522 1.87904 18.5622 2.99336C18.2412 2.9364 17.9105 2.97917 17.6146 3.1159C17.3187 3.25263 17.0718 3.47677 16.9071 3.75812C16.7425 4.03947 16.668 4.36453 16.6937 4.68952C16.7194 5.0145 16.844 5.32381 17.0508 5.57579C16.7913 5.95719 16.512 6.34927 16.202 6.75842V5.30385L16.203 5.29527C16.2032 4.37035 15.2803 3.69939 13.9417 3.27806C16.9308 1.14552 18.5564 0.78209 18.8793 1.11143L18.8793 1.11145ZM15.1848 5.29323L15.1847 5.29425V5.29785C15.1792 5.9229 13.1123 6.86613 9.99696 6.86613C6.88168 6.86613 4.81367 5.9229 4.80824 5.29789V5.29425L4.80806 5.29323C4.81228 4.66816 6.88079 3.72447 9.99696 3.72447C13.1131 3.72447 15.1807 4.66816 15.1848 5.29323ZM4.6334 1.13925C4.74992 1.13925 4.86382 1.1738 4.9607 1.23854C5.05758 1.30328 5.13308 1.3953 5.17767 1.50296C5.22226 1.61062 5.23393 1.72909 5.2112 1.84338C5.18846 1.95767 5.13235 2.06265 5.04996 2.14505C4.96757 2.22745 4.8626 2.28356 4.74832 2.3063C4.63405 2.32903 4.51559 2.31736 4.40795 2.27277C4.3003 2.22817 4.20829 2.15265 4.14356 2.05576C4.07883 1.95887 4.04428 1.84495 4.04428 1.72842C4.04446 1.57221 4.10658 1.42245 4.21702 1.312C4.32747 1.20154 4.47721 1.13942 4.6334 1.13925V1.13925ZM1.11266 1.11143C1.25322 0.969912 1.8229 0.912225 3.05321 1.46867C2.99798 1.78906 3.04195 2.11867 3.17923 2.41337C3.31651 2.70807 3.54054 2.95379 3.82133 3.11762C4.10211 3.28145 4.42624 3.35556 4.75031 3.33005C5.07439 3.30453 5.38293 3.18059 5.63462 2.97484C5.77792 3.07382 5.91737 3.16703 6.06564 3.27395C4.71951 3.69498 3.79022 4.36755 3.78996 5.29526L3.79098 5.30384V6.7517C1.33853 3.50216 0.709193 1.51407 1.11266 1.11143ZM1.8776 14.3545C1.99402 14.3546 2.10779 14.3892 2.20454 14.454C2.30128 14.5187 2.37665 14.6107 2.42111 14.7183C2.46557 14.826 2.47713 14.9443 2.45432 15.0585C2.43152 15.1727 2.37537 15.2775 2.29298 15.3598C2.21059 15.442 2.10566 15.498 1.99146 15.5206C1.87726 15.5433 1.75892 15.5315 1.6514 15.4869C1.54388 15.4422 1.45201 15.3667 1.38742 15.2698C1.32282 15.173 1.28839 15.0591 1.28849 14.9427C1.28887 14.7866 1.35109 14.6371 1.46151 14.5268C1.57194 14.4166 1.72156 14.3546 1.8776 14.3545ZM1.11266 18.8841C0.94923 18.7197 0.910797 18.0346 1.67407 16.5287C1.7414 16.5399 1.80938 16.5468 1.8776 16.5492C2.1702 16.5497 2.45736 16.4701 2.70798 16.3191C2.9586 16.1681 3.16312 15.9513 3.29941 15.6924C3.43569 15.4334 3.49854 15.1421 3.48115 14.85C3.46376 14.5579 3.36678 14.2761 3.20073 14.0351C3.38763 13.7714 3.57588 13.5066 3.79196 13.222V14.4966C3.79196 15.4579 4.79296 16.1591 6.22004 16.5871C3.13262 18.8278 1.44881 19.2194 1.11266 18.8841ZM8.65445 15.9981C9.17061 15.5761 9.70253 15.1251 10.2771 14.6059C10.2984 14.5921 10.3186 14.5768 10.3377 14.5602C10.5512 14.3712 10.7643 14.173 10.9758 13.9735C12.4436 13.9431 13.8848 13.5753 15.1877 12.8984V14.4966C15.1877 14.9134 14.2519 15.4664 12.7118 15.7923C12.3599 15.5193 12.0036 15.2365 11.6371 14.9308C11.5859 14.888 11.5267 14.8557 11.4629 14.8358C11.3992 14.8159 11.3321 14.8087 11.2656 14.8147C11.1991 14.8207 11.1344 14.8398 11.0753 14.8708C11.0161 14.9018 10.9636 14.9441 10.9209 14.9954C10.8781 15.0467 10.8458 15.1059 10.8259 15.1696C10.806 15.2334 10.7988 15.3004 10.8048 15.3669C10.8108 15.4334 10.8298 15.4981 10.8608 15.5573C10.8918 15.6165 10.9342 15.6689 10.9854 15.7117C11.1068 15.8135 11.2214 15.8993 11.3416 15.9976C10.9162 16.0374 10.4725 16.0654 9.99398 16.0654C9.51859 16.0654 9.07748 16.0376 8.65445 15.9981ZM15.3744 18.8533C15.2579 18.8533 15.144 18.8187 15.0471 18.754C14.9503 18.6893 14.8747 18.5972 14.8302 18.4896C14.7856 18.3819 14.7739 18.2635 14.7966 18.1492C14.8194 18.0349 14.8755 17.9299 14.9579 17.8475C15.0402 17.7651 15.1452 17.709 15.2595 17.6862C15.3738 17.6635 15.4922 17.6752 15.5999 17.7198C15.7075 17.7644 15.7995 17.8399 15.8643 17.9368C15.929 18.0337 15.9635 18.1476 15.9635 18.2641C15.9634 18.4203 15.9013 18.5701 15.7908 18.6805C15.6804 18.791 15.5306 18.8531 15.3744 18.8533V18.8533ZM18.8793 18.8841C18.738 19.0244 18.1718 19.0824 16.954 18.5295C17.0104 18.2087 16.9673 17.8783 16.8305 17.5827C16.6937 17.2871 16.4697 17.0405 16.1886 16.876C15.9075 16.7115 15.5828 16.6369 15.2581 16.6624C14.9334 16.6879 14.6243 16.8121 14.3722 17.0184C14.1723 16.8817 13.9728 16.7453 13.7605 16.5907C15.1964 16.1631 16.205 15.4607 16.205 14.4966V13.2385C18.6522 16.493 19.2812 18.4821 18.8793 18.8841Z" fill="#171723"/>
</g>
</g>
<defs>
<clipPath id="clip0_10314_146625">
<rect width="20" height="20" fill="white"/>
</clipPath>
<clipPath id="clip1_10314_146625">
<rect width="20" height="20" fill="white"/>
</clipPath>
</defs>
</svg>
