<svg width="20" height="20" viewBox="0 0 20 20" fill="none" xmlns="http://www.w3.org/2000/svg">
<g clip-path="url(#clip0_10314_145166)">
<path d="M11.8521 10.4774L11.8475 10.4538C11.8303 10.359 11.7857 10.2712 11.7193 10.2014C11.7123 10.1944 11.703 10.1922 11.6957 10.1857L10.6714 9.16133C10.5757 9.06755 10.4468 9.01532 10.3128 9.016C10.1789 9.01667 10.0505 9.0702 9.95581 9.16494C9.86106 9.25969 9.80754 9.38799 9.80686 9.52198C9.80618 9.65596 9.85841 9.7848 9.95219 9.8805L10.127 10.0553H8.64288C8.50799 10.0553 8.37863 10.1089 8.28324 10.2043C8.18786 10.2997 8.13428 10.429 8.13428 10.5639C8.13428 10.6988 8.18786 10.8282 8.28324 10.9236C8.37863 11.0189 8.50799 11.0725 8.64288 11.0725H10.129L9.9522 11.2494C9.9042 11.2964 9.86599 11.3525 9.8398 11.4144C9.81361 11.4763 9.79995 11.5428 9.79961 11.61C9.79927 11.6772 9.81226 11.7438 9.83782 11.806C9.86339 11.8682 9.90102 11.9246 9.94855 11.9722C9.99608 12.0197 10.0526 12.0573 10.1147 12.0829C10.1769 12.1085 10.2435 12.1215 10.3107 12.1211C10.3779 12.1208 10.4444 12.1071 10.5063 12.0809C10.5682 12.0547 10.6243 12.0165 10.6714 11.9685L11.7194 10.9205C11.7756 10.8628 11.817 10.7924 11.8401 10.7153C11.8632 10.6381 11.8673 10.5565 11.8521 10.4774Z" fill="#171723"/>
<path d="M19.8765 6.71326C18.6831 7.20274 17.3953 7.41893 16.1074 7.34597C14.8241 7.41785 13.541 7.20167 12.3521 6.71326C13.5405 6.22311 14.824 6.00683 16.1074 6.08047C17.3953 6.00747 18.6831 6.22369 19.8765 6.71326Z" fill="#171723"/>
<path d="M20.0001 7.84875V9.56822C19.9857 9.59012 19.967 9.60883 19.9451 9.62321C19.8622 9.68819 19.7692 9.73928 19.67 9.7745C19.5855 9.81337 19.4981 9.84558 19.4086 9.87081C19.3169 9.91529 19.2198 9.94766 19.1198 9.96711C19.0155 10.0141 18.9037 10.042 18.7896 10.0496C17.9082 10.2374 17.0084 10.3251 16.1073 10.311C14.7756 10.4026 13.4413 10.1763 12.2144 9.65075V7.84875C13.4766 8.22989 14.7888 8.41998 16.1073 8.41269C17.4258 8.42078 18.7381 8.23067 20.0001 7.84875Z" fill="#171723"/>
<path d="M20.0001 10.8275V12.5882C19.0916 13.0754 18.0734 13.3217 17.0427 13.3035C16.4606 13.333 15.8773 13.3284 15.2957 13.2898C15.1809 13.291 15.0661 13.2864 14.9518 13.276C14.8005 13.2622 14.6354 13.2485 14.4841 13.221L14.2502 13.1935C13.7694 13.1377 13.295 13.0364 12.8334 12.8909C12.6683 12.8221 12.5169 12.767 12.407 12.712C12.2969 12.657 12.2556 12.6157 12.2144 12.602V10.8137C13.4748 11.2043 14.7877 11.3992 16.1073 11.3915C17.1007 11.4046 18.0926 11.3078 19.0647 11.1027C19.2275 11.077 19.3884 11.0403 19.5462 10.9926C19.67 10.9513 19.78 10.91 19.8763 10.8688L20.0001 10.8275Z" fill="#171723"/>
<path d="M20.0001 13.8393V15.6276C19.0916 16.1147 18.0734 16.361 17.0427 16.3428C16.4606 16.3723 15.8773 16.3677 15.2957 16.3291C15.1809 16.3306 15.0661 16.326 14.9518 16.3154C14.8005 16.3016 14.6354 16.2878 14.4841 16.2603L14.2502 16.2465C13.7691 16.1853 13.2948 16.0794 12.8334 15.9302C12.6683 15.8614 12.5169 15.8063 12.407 15.7514C12.3384 15.7229 12.2737 15.6859 12.2144 15.6413V13.8256C12.2693 13.853 12.3107 13.8668 12.3656 13.8943C12.9277 14.0854 13.5089 14.2145 14.0989 14.2794L14.3189 14.307C14.4978 14.3207 14.6766 14.3482 14.8142 14.3482C14.9592 14.3761 15.1071 14.3853 15.2544 14.3757C15.5432 14.4033 15.8321 14.4033 16.1211 14.4033C16.465 14.4033 16.7813 14.4033 17.1114 14.3757C18.0948 14.3337 19.0673 14.1531 20.0001 13.8393Z" fill="#171723"/>
<path d="M7.66384 4.27237C6.47052 4.7548 5.18635 4.97118 3.90083 4.90646C2.61076 4.97227 1.32187 4.75588 0.124023 4.27237C1.31985 3.78177 2.61035 3.56511 3.90083 3.63827C5.18677 3.5662 6.47253 3.78287 7.66384 4.27237Z" fill="#171723"/>
<path d="M7.78801 13.8464V15.597C6.58227 16.1893 5.24086 16.451 3.90089 16.3551C2.56365 16.4268 1.22806 16.1861 0 15.6521V13.8326C0.0551022 13.8601 0.0964924 13.874 0.151564 13.9015C0.710397 14.0916 1.28806 14.221 1.87457 14.2874L2.10888 14.315C2.28808 14.3288 2.46727 14.3564 2.60516 14.3564C2.75034 14.3849 2.89866 14.3942 3.04627 14.3839C3.32193 14.4115 3.61138 14.4115 3.90086 14.4115C4.24546 14.4115 4.57629 14.4115 4.90708 14.3839C5.88781 14.3405 6.85759 14.1595 7.78801 13.8464Z" fill="#171723"/>
<path d="M7.78801 10.9777V12.742C6.87758 13.2301 5.85728 13.4769 4.8244 13.4588C4.2457 13.4883 3.66576 13.4837 3.08761 13.445C2.97257 13.4467 2.85753 13.4421 2.74301 13.4312C2.5776 13.4174 2.42599 13.4037 2.26059 13.3761L2.04 13.3485C1.55373 13.2925 1.0738 13.1909 0.60649 13.0453C0.441092 12.9764 0.289487 12.9212 0.179191 12.8661C0.0826989 12.8109 0.0276274 12.7696 0 12.7558V10.9639C0.0551022 10.9915 0.0964924 11.0052 0.151564 11.0328C0.710819 11.2213 1.28832 11.3507 1.87457 11.4188L2.10888 11.4462C2.28808 11.46 2.46727 11.4876 2.60516 11.4876C2.75115 11.5093 2.89872 11.5186 3.04627 11.5152C3.32193 11.5427 3.61138 11.5427 3.90086 11.5427C4.24546 11.5427 4.57629 11.5427 4.90708 11.5152C5.8878 11.4717 6.85756 11.2907 7.78801 10.9777Z" fill="#171723"/>
<path d="M7.78801 8.11074V9.87514C6.87786 10.3626 5.85653 10.6049 4.8244 10.5781C4.24621 10.6196 3.6658 10.6196 3.08761 10.5781C2.97257 10.5799 2.85753 10.5753 2.74301 10.5643C2.5776 10.5505 2.42599 10.5367 2.26059 10.5091L2.02621 10.4817C1.54382 10.4295 1.06808 10.3279 0.60649 10.1784C0.441092 10.1095 0.289487 10.0544 0.179191 9.99919C0.11467 9.96524 0.054501 9.9236 0 9.87518V8.09692C1.25854 8.48726 2.56944 8.68252 3.8871 8.67591C4.88266 8.69054 5.87671 8.59343 6.85062 8.38642C7.01971 8.36139 7.18593 8.31983 7.3469 8.26232C7.46038 8.23603 7.57114 8.19913 7.67771 8.15212C7.71529 8.14061 7.75213 8.12679 7.78801 8.11074Z" fill="#171723"/>
<path d="M7.78796 5.26111V7.01172C7.78498 7.02149 7.77965 7.03038 7.77243 7.0376C7.76521 7.04481 7.75632 7.05014 7.74656 7.05312C7.66152 7.1152 7.56887 7.16613 7.47089 7.20468C7.38684 7.24505 7.29915 7.27736 7.20899 7.30117L6.91958 7.39767C6.80631 7.43151 6.69127 7.45912 6.57498 7.48037C5.69172 7.66853 4.79005 7.75639 3.88708 7.74227C2.55744 7.82945 1.22592 7.6028 0 7.08061V5.26111C1.26284 5.65331 2.57858 5.8486 3.90089 5.8401C5.21866 5.84834 6.5298 5.65305 7.78796 5.26111Z" fill="#171723"/>
</g>
<defs>
<clipPath id="clip0_10314_145166">
<rect width="20" height="20" fill="white"/>
</clipPath>
</defs>
</svg>
