<svg width="20" height="20" viewBox="0 0 20 20" fill="none" xmlns="http://www.w3.org/2000/svg">
<path d="M19.999 7.47875L20 7.47497C20 7.46854 19.9954 7.46355 19.9953 7.45712C19.9926 7.3889 19.9749 7.32201 19.9435 7.26087C19.6805 6.33456 17.7954 5.95227 15.9974 5.90123V3.35116C15.9976 3.34396 16.0014 3.33788 16.0014 3.33062C16.0014 1.55144 10.6156 1.5 10.002 1.5C9.38838 1.5 4.00262 1.55144 4.00262 3.33062C4.00262 3.33788 4.00642 3.34396 4.0066 3.35116V5.9011C2.0697 5.95557 0 6.38517 0 7.47497C0 7.48909 0.00527704 7.51097 0.00711741 7.52851L0.00593804 7.5341V15.6137C0.00593804 15.6264 0.0123945 15.637 0.0133808 15.6495C0.0131978 15.6554 0.00991371 15.6602 0.00991371 15.6661C0.00991371 16.2401 0.607667 16.5559 0.837031 16.6756C0.961076 16.7315 1.0892 16.7784 1.22036 16.816C1.31723 16.8546 1.41718 16.8854 1.51923 16.9083C1.99245 17.0333 2.47476 17.1234 2.96203 17.178C3.12686 17.1991 3.2907 17.2102 3.43666 17.2193C3.66069 17.2408 3.89664 17.2433 4.13091 17.2485C4.13551 17.2537 4.13681 17.2604 4.14165 17.2655L4.15009 17.2719C4.16295 17.2827 4.17638 17.2928 4.19031 17.3023C5.04722 18.1231 7.78508 18.5 10.007 18.5C11.7654 18.5 14.8444 18.2224 15.7392 17.2568C15.9578 17.2538 16.1729 17.2488 16.3996 17.24L16.7819 17.2102C17.8151 17.19 18.8209 16.8839 19.6803 16.3281C19.8139 16.2044 19.9116 16.0487 19.9633 15.8769C19.9858 15.8223 19.9979 15.7643 19.999 15.7056L19.999 7.47875ZM18.862 12.9645C18.8285 12.9756 18.7963 12.9899 18.7657 13.0072C18.2516 13.2439 17.6976 13.3889 17.1303 13.4351C16.7515 13.4811 16.374 13.4917 15.9974 13.5042V13.325L15.9954 13.3155V11.7681C16.7059 11.7567 17.4137 11.68 18.1093 11.539V11.5362C18.1402 11.5296 18.1707 11.5214 18.2007 11.5116C18.4112 11.4607 18.5998 11.4093 18.7587 11.3578C18.8193 11.3381 18.8739 11.3179 18.9206 11.2978C18.9421 11.2916 18.9612 11.2787 18.9821 11.2709V12.862C18.9442 12.8984 18.9041 12.9326 18.862 12.9645ZM6.12521 13.7611C5.98769 13.7274 5.86009 13.6914 5.73901 13.6539C5.7001 13.642 5.66181 13.63 5.62526 13.6179C5.40126 13.551 5.19489 13.4379 5.02037 13.2864V11.102C5.06205 11.1185 5.10273 11.135 5.14628 11.1508C5.18234 11.1647 5.21949 11.179 5.24676 11.1891C5.25272 11.191 5.34903 11.2275 5.354 11.229C6.09824 11.4595 6.86591 11.612 7.64378 11.6837C7.75598 11.6905 7.86918 11.7034 8.04891 11.7236C8.1032 11.7302 8.15143 11.7301 8.20579 11.7359C8.24886 11.7396 8.29137 11.7425 8.3345 11.7459C8.39725 11.7506 8.46737 11.762 8.52254 11.7607C8.55848 11.7633 8.59745 11.7622 8.6335 11.7646C9.09926 11.795 9.56385 11.8145 10.007 11.8145C10.2809 11.8145 10.5883 11.8072 10.9134 11.7923C10.987 11.7895 11.0658 11.7907 11.138 11.7871C12.4483 11.7577 13.7451 11.5242 14.9787 11.0954V13.2707C14.7303 13.585 12.9434 14.1368 10.2405 14.1689C8.89577 14.1846 7.55335 14.0568 6.23756 13.7877C6.20005 13.7788 6.16126 13.7702 6.12521 13.7611V13.7611ZM18.9822 10.1523C18.9812 10.1592 18.977 10.1648 18.9762 10.1719C18.9752 10.1622 18.9752 10.1579 18.9673 10.1608C18.9313 10.1932 18.8904 10.2203 18.8462 10.2411C18.8005 10.2666 18.7548 10.2935 18.6516 10.3488C18.5778 10.3684 18.5057 10.3936 18.4361 10.4242C18.2931 10.4704 18.1233 10.5156 17.9337 10.5617C17.9127 10.5671 17.8922 10.5736 17.8721 10.5814C17.2544 10.7048 16.6261 10.7723 15.9954 10.7828V10.0007L15.9975 9.98918V9.04876C17.0147 9.04847 18.0243 8.87888 18.9823 8.54741L18.9822 10.1523ZM9.88141 10.827C9.835 10.8267 9.79199 10.8243 9.74601 10.8238C9.38836 10.819 9.026 10.8052 8.66103 10.7815C8.4985 10.7707 8.33354 10.7611 8.17926 10.747L8.10447 10.7386C8.05148 10.7327 8.01033 10.7301 7.96044 10.7249C7.15612 10.6544 6.36216 10.4991 5.5927 10.2617C5.38087 10.202 5.18606 10.0959 5.02337 9.95167V7.79358C6.63121 8.30127 8.31622 8.54171 10.007 8.50469C11.6973 8.54311 13.3812 8.29097 14.9806 7.75998V9.92579C14.7531 10.2137 13.2378 10.7017 10.9079 10.807C10.5718 10.8204 10.2308 10.8296 9.88139 10.827L9.88141 10.827ZM14.9806 6.61549C14.9583 6.6381 14.9339 6.65862 14.9076 6.67678C14.7615 6.77335 14.6027 6.85053 14.4355 6.90627C14.323 6.95191 14.208 6.99155 14.091 7.02501C13.8795 7.08991 13.6392 7.14611 13.3006 7.21778C12.2132 7.4102 11.1093 7.50179 10.004 7.49132C7.06784 7.49132 5.25564 6.93067 5.02337 6.60395V4.4393C6.63039 4.94441 8.31266 5.18851 10.002 5.16171C11.6913 5.18851 13.3736 4.94441 14.9806 4.4393V6.61549ZM4.00656 9.97007L4.00358 9.98438V10.8103C2.97575 10.8284 1.9569 10.6221 1.02276 10.2066V8.5509C1.98409 8.86799 2.99107 9.03623 4.00656 9.04942V9.97007ZM1.02277 11.2887C1.98298 11.6071 2.98879 11.7778 4.00359 11.7946V13.5175C3.65109 13.5059 3.30903 13.4853 2.99377 13.4456C2.97192 13.4427 2.86269 13.435 2.84085 13.435C2.36946 13.3832 1.90552 13.2805 1.45768 13.1288L1.25015 13.0337C1.10021 12.9577 1.03468 12.8981 1.02674 12.9082L1.02277 12.8923V11.2887ZM15.9974 8.06356V6.88487C17.0117 6.84835 18.0199 7.05085 18.9355 7.47497C18.0194 7.89748 17.0114 8.09941 15.9974 8.06356ZM10.002 2.48453C12.827 2.48453 14.6172 3.00228 14.9539 3.33062C14.6172 3.65945 12.828 4.17718 10.002 4.17718C7.17612 4.17718 5.38676 3.65895 5.05016 3.33062C5.38676 3.00228 7.17705 2.48453 10.002 2.48453ZM4.00657 6.88487V8.06488C2.98864 8.10145 1.97645 7.90166 1.05454 7.48218C1.97257 7.05026 2.98673 6.84505 4.00657 6.88487ZM3.09008 16.2011C2.64778 16.1519 2.20996 16.0702 1.78039 15.957C1.70957 15.9417 1.64016 15.9208 1.57286 15.8945C1.46165 15.8613 1.35143 15.8205 1.29086 15.7955C1.11113 15.7003 1.04958 15.6267 1.02574 15.6426C1.02544 15.6356 1.02146 15.6299 1.02084 15.623L1.02277 15.6137V14.018L1.04362 14.0273C1.58121 14.2193 2.14056 14.3484 2.70978 14.4119C2.73162 14.4143 2.84085 14.4215 2.86269 14.4215C3.2206 14.4669 3.60799 14.49 4.00657 14.502V16.2587C3.84509 16.2529 3.68293 16.2538 3.52003 16.2382C3.38002 16.2295 3.23803 16.2204 3.09008 16.2011ZM5.02335 16.6929V14.4497C5.0967 14.4785 5.17769 14.5044 5.25656 14.5314C5.2791 14.54 5.29411 14.5501 5.31726 14.5585C5.36182 14.5731 5.42059 14.5835 5.46695 14.5976C5.68322 14.6638 5.91259 14.7238 6.1576 14.7778C6.23009 14.7939 6.29829 14.8107 6.37326 14.8257C6.70074 14.8914 7.04076 14.9496 7.3963 14.9953C7.45333 15.0027 7.51396 15.007 7.57174 15.0139C7.87999 15.0505 8.1912 15.0798 8.50536 15.1018C8.62432 15.1103 8.74168 15.1177 8.86233 15.1241C9.24972 15.1451 9.63453 15.1595 10.004 15.1595C10.2655 15.1595 10.5567 15.1533 10.8655 15.1398C10.9551 15.1366 11.0503 15.1377 11.1379 15.1335C12.449 15.1043 13.7466 14.8703 14.9806 14.4406V16.6114C14.7248 16.9351 12.8455 17.5155 10.0069 17.5155C8.3027 17.6127 6.59806 17.3313 5.02335 16.6929ZM16.6955 16.229L16.3321 16.2574C16.2256 16.2615 16.1141 16.2654 15.9974 16.2689V14.4886C16.4163 14.4757 16.8363 14.4626 17.2595 14.4114C17.8504 14.3456 18.4297 14.2043 18.9822 13.9912V15.5295C18.9702 15.5629 18.9625 15.5976 18.9594 15.6329C18.2757 16.0294 17.4924 16.2357 16.6955 16.229Z" fill="#171723"/>
</svg>
