<svg width="20" height="20" viewBox="0 0 20 20" fill="none" xmlns="http://www.w3.org/2000/svg">
<g clip-path="url(#clip0_14521_205388)">
<path d="M3.89553 3.63809C3.4963 3.63809 -0.000488281 3.67979 -0.000488281 5.12529L0.00249133 5.14461V9.97875L0.000457318 9.98863V12.6249L0.00249133 12.6347V15.067C0.00537268 15.0896 0.00987573 15.1119 0.0159659 15.1339C0.0374178 15.2224 0.0709825 15.3074 0.115709 15.3867C0.12173 15.3942 0.132224 15.4002 0.13855 15.4076C0.152114 15.4216 0.166499 15.4347 0.181628 15.447C0.780789 16.0759 2.45554 16.362 3.89851 16.362C5.24419 16.362 7.78856 16.0521 7.78856 14.8793V12.4302L7.78653 12.4204V10.0065L7.78856 9.99209V5.13815L7.7906 5.1253C7.79056 3.67981 4.29377 3.63809 3.89553 3.63809ZM3.64446 12.8956C3.5943 12.8944 3.54452 12.8931 3.49562 12.8913C3.19991 12.8798 2.89486 12.8551 2.58046 12.8171C2.4755 12.8031 2.37338 12.7883 2.27774 12.7717C2.2364 12.7648 2.19444 12.7583 2.1544 12.7501C2.03654 12.7277 1.92598 12.7039 1.824 12.679C1.6936 12.6442 1.57188 12.6111 1.45742 12.5762L1.45844 12.5752L1.28067 12.5106C1.16361 12.4614 1.10098 12.4285 1.06203 12.4129C1.04825 12.4055 1.02949 12.3975 1.01746 12.3903V11.0493C1.05576 11.0633 1.08934 11.0795 1.12913 11.0928L1.13068 11.0935L1.13093 11.0935C1.22397 11.1245 1.3254 11.1505 1.42545 11.1776C1.63193 11.2353 1.84134 11.282 2.0528 11.3173C2.12418 11.3299 2.19426 11.3428 2.26706 11.3538C2.3156 11.3607 2.35576 11.3712 2.40584 11.3775L2.58262 11.3973C2.6103 11.4005 2.63228 11.4017 2.65972 11.4048C2.74054 11.4138 2.82078 11.4211 2.90216 11.4283L2.94214 11.4321C3.00564 11.4409 3.06162 11.442 3.12164 11.4448C3.38327 11.4627 3.64458 11.4748 3.89851 11.4748C4.05139 11.4748 4.22121 11.4702 4.39961 11.4614C4.47874 11.4585 4.55968 11.4591 4.63938 11.4549C5.36434 11.4202 6.08111 11.2861 6.76963 11.0565V12.3458C6.06757 12.709 5.28711 12.8944 4.49673 12.8856C4.22314 12.9 3.93805 12.903 3.64446 12.8956ZM6.43892 8.72985C6.5049 8.7093 6.56324 8.68907 6.62153 8.66896L6.64878 8.65989L6.6862 8.64742C6.71693 8.63649 6.74331 8.62588 6.77163 8.61508V9.90129C6.06719 10.2654 5.28415 10.451 4.49124 10.4417L4.48513 10.4419C4.31705 10.4514 4.13835 10.4559 3.95375 10.4568C3.75091 10.4572 3.53813 10.4522 3.29668 10.4385C3.21653 10.4377 3.1365 10.4321 3.05702 10.4217L3.01308 10.4178C2.9063 10.4101 2.80142 10.3987 2.69782 10.3869L2.6258 10.379C2.5168 10.3649 2.41452 10.349 2.3152 10.3324C2.26015 10.3237 2.20639 10.3145 2.15345 10.3047C2.03111 10.2813 1.91516 10.2567 1.8099 10.2307C1.70909 10.205 1.60904 10.1791 1.52152 10.1493C1.50432 10.1439 1.48297 10.1388 1.46646 10.1335C1.36016 10.0985 1.25602 10.0572 1.15456 10.01C1.10666 9.9856 1.0614 9.95635 1.01949 9.92271V8.63083C1.9499 8.92716 2.92221 9.0706 3.89855 9.05557C4.73337 9.05824 5.5651 8.95425 6.37356 8.74612C6.39373 8.74002 6.41999 8.73616 6.43892 8.72985ZM6.77161 7.46716C6.75659 7.47976 6.73958 7.49198 6.73505 7.50663L6.73375 7.50747C6.67069 7.55071 6.60273 7.58631 6.53128 7.61355C6.47239 7.64168 6.41186 7.66627 6.35003 7.68717L6.32396 7.69653C6.27648 7.71361 6.22235 7.73105 6.16329 7.74973C6.13231 7.7591 6.09637 7.7681 6.06329 7.77735C6.00106 7.79631 5.93781 7.81175 5.87385 7.82359C5.22245 7.96018 4.5581 8.02529 3.89257 8.01775C3.11758 8.02905 2.34442 7.93908 1.59273 7.75011C1.5481 7.73702 1.4972 7.72423 1.4568 7.71094L1.43668 7.70436C1.2928 7.65927 1.15383 7.5998 1.02187 7.52684L1.01945 7.5253V6.18818C1.95095 6.47516 2.92084 6.61809 3.89553 6.612C4.87025 6.61807 5.84015 6.47502 6.77161 6.18781V7.46716ZM3.89553 4.65505C4.84554 4.60347 5.7951 4.76411 6.67528 5.12529C5.79494 5.48585 4.84547 5.6463 3.89553 5.59504C2.94559 5.64643 1.9961 5.48597 1.11578 5.12529C1.99596 4.76411 2.94553 4.60347 3.89553 4.65505V4.65505ZM1.01945 14.8319V13.4959C1.15799 13.5463 1.30504 13.592 1.46058 13.6328C1.50496 13.6449 1.5401 13.656 1.58851 13.6686L1.60254 13.6719C1.63568 13.6798 1.66876 13.6875 1.70247 13.695L1.82884 13.7242C1.99072 13.763 2.17048 13.7898 2.39294 13.8226C2.42955 13.8272 2.46456 13.8253 2.50112 13.8296C2.96394 13.8885 3.42997 13.9187 3.89653 13.9199H3.89851L3.90055 13.9198C4.06572 13.9198 4.24888 13.915 4.4431 13.9046C4.49648 13.9022 4.55293 13.9031 4.6056 13.9C5.34308 13.8674 6.07227 13.731 6.7716 13.4946V14.7879C5.8799 15.224 4.88859 15.4162 3.8985 15.345C2.91225 15.3957 1.92747 15.2202 1.01945 14.8319V14.8319Z" fill="#171723"/>
<path d="M20 7.56688C20 6.1214 16.5032 6.07968 16.105 6.07968C15.7057 6.07968 12.209 6.12138 12.209 7.56688L12.211 7.57973V12.4253L12.21 12.4302V15.0669C12.2128 15.0895 12.2173 15.1119 12.2234 15.1338C12.2278 15.2043 12.252 15.272 12.2932 15.3292C12.3019 15.3491 12.3119 15.3683 12.3232 15.3867C12.3292 15.3942 12.3397 15.4002 12.346 15.4076C12.3596 15.4216 12.374 15.4347 12.3891 15.447C12.5826 15.6334 12.812 15.7785 13.0633 15.8735C13.0719 15.8772 13.0763 15.8816 13.0849 15.8853C13.1073 15.8951 13.1417 15.9053 13.1697 15.9149C13.3432 15.9809 13.5203 16.037 13.7002 16.0831C13.7348 16.0925 13.761 16.1011 13.798 16.1107L13.8145 16.1145C13.8464 16.1221 13.8781 16.1296 13.9107 16.1368L14.0383 16.1663C14.1098 16.1833 14.195 16.1932 14.2727 16.2068C14.3342 16.2175 14.3943 16.2291 14.4569 16.2387C14.5068 16.2461 14.5505 16.2565 14.6014 16.2636C14.634 16.2679 14.6657 16.2661 14.6982 16.27C15.1651 16.33 15.6353 16.3607 16.106 16.362H16.1081L16.1101 16.3619C16.2753 16.3618 16.4584 16.3571 16.6526 16.3467C16.706 16.3443 16.7625 16.3452 16.8151 16.3421C17.8507 16.3552 18.8658 16.0528 19.7253 15.4749C19.7414 15.4589 19.7568 15.4425 19.7717 15.4258C19.8125 15.3816 19.8492 15.3337 19.8812 15.2828C19.9319 15.1958 19.9652 15.0998 19.9793 15.0002C19.9818 14.9838 19.9935 14.9714 19.9951 14.9547C19.9965 14.9406 19.9911 14.9272 19.9913 14.9132C19.9918 14.9012 19.9961 14.8904 19.9961 14.8782V12.4414L19.9971 12.4342V7.58618L20 7.56688ZM15.8366 15.3372C15.7946 15.3362 15.7526 15.335 15.7115 15.3335C15.4105 15.3218 15.1053 15.2976 14.8021 15.2608C14.7029 15.2476 14.6077 15.2333 14.5167 15.2179C14.4653 15.2097 14.4134 15.2018 14.3639 15.1918C14.2433 15.1687 14.1297 15.1445 14.0257 15.1189C13.8946 15.0839 13.7729 15.0495 13.6589 15.0153L13.6582 15.0152C13.593 14.9937 13.542 14.9727 13.488 14.9515L13.4881 14.9507C13.3775 14.9052 13.3148 14.8733 13.2747 14.8561C13.2598 14.8481 13.2398 14.8395 13.2269 14.8318V13.4917C13.3962 13.5533 13.5685 13.606 13.7433 13.6496C13.8955 13.6894 14.0598 13.7235 14.2325 13.7538C14.3193 13.7694 14.4052 13.785 14.4941 13.7983C14.5359 13.8041 14.5705 13.8132 14.6133 13.8186L14.7831 13.8375C14.802 13.8398 14.8165 13.8404 14.8353 13.8426C14.9389 13.8544 15.0421 13.8642 15.1467 13.8731L15.1486 13.8733C15.243 13.8858 15.338 13.8929 15.4331 13.8947C15.6602 13.9082 15.8864 13.917 16.107 13.917C16.2767 13.917 16.4655 13.912 16.6659 13.901C16.7262 13.8985 16.7882 13.8995 16.8488 13.8961C17.5741 13.8622 18.2911 13.7271 18.9791 13.4948V14.788C18.2773 15.1512 17.4971 15.3366 16.707 15.3278C16.4276 15.3427 16.1349 15.3454 15.8366 15.3372ZM18.6484 11.1709C18.718 11.1495 18.7781 11.1286 18.8366 11.1082L18.8546 11.1021L18.8927 11.0895C18.9242 11.0783 18.9511 11.0676 18.9801 11.0567V12.3429C18.1023 12.7727 17.1271 12.9643 16.152 12.8987C15.9525 12.8987 15.744 12.8938 15.5061 12.8801C15.4294 12.8793 15.3528 12.8739 15.2767 12.8641L15.1996 12.8573C15.0988 12.8494 14.9992 12.8394 14.9003 12.8274L14.8287 12.8196C14.7211 12.8057 14.6197 12.7901 14.5216 12.7734C14.4689 12.7652 14.4174 12.7564 14.3666 12.7471C14.2422 12.7234 14.1247 12.6983 14.0178 12.6719C13.8991 12.6415 13.7782 12.6118 13.6768 12.5752C13.5707 12.5402 13.4666 12.4994 13.365 12.453C13.3163 12.4281 13.2703 12.3981 13.2279 12.3635V11.0725C14.1584 11.3685 15.1306 11.5118 16.1069 11.4966C16.9406 11.4993 17.7711 11.3957 18.5786 11.1883C18.6004 11.1818 18.6277 11.1779 18.6484 11.1709V11.1709ZM18.9801 9.78713L18.9784 9.91906L18.9445 9.94753L18.9318 9.95611C18.872 9.99613 18.8079 10.0294 18.7407 10.0552C18.6801 10.0841 18.6177 10.1093 18.5539 10.1304L18.5343 10.1374C18.4884 10.1543 18.4356 10.1713 18.3797 10.1891C18.3434 10.2002 18.3011 10.2107 18.2618 10.2216C18.2031 10.2393 18.1436 10.2539 18.0833 10.2652C17.4318 10.4009 16.7675 10.4659 16.102 10.4593C15.3283 10.4705 14.5563 10.3809 13.8056 10.1929C13.758 10.1789 13.7038 10.1653 13.6608 10.1512L13.6485 10.1472C13.5026 10.1017 13.3616 10.0414 13.2279 9.96717V8.6294C15.1036 9.19484 17.1043 9.19499 18.9801 8.62983L18.9801 9.78713ZM16.105 7.09662C17.055 7.04504 18.0045 7.20568 18.8847 7.56686C18.0044 7.92754 17.0549 8.08799 16.105 8.03661C15.1547 8.08808 14.2048 7.92763 13.3242 7.56688C14.2047 7.20561 15.1546 7.04496 16.105 7.09662V7.09662Z" fill="#171723"/>
<path d="M11.8449 10.4485C11.8272 10.3552 11.783 10.269 11.7176 10.2001C11.7115 10.194 11.7033 10.1921 11.697 10.1864L10.6709 9.1598C10.5752 9.06604 10.4464 9.01383 10.3124 9.0145C10.1785 9.01518 10.0502 9.06869 9.95549 9.16341C9.86077 9.25813 9.80725 9.3864 9.80658 9.52036C9.8059 9.65431 9.85811 9.78311 9.95187 9.87879L10.1267 10.0541H8.6419C8.57497 10.0538 8.50863 10.0667 8.44671 10.0921C8.38479 10.1175 8.32849 10.1549 8.28106 10.2021C8.23362 10.2493 8.19598 10.3055 8.1703 10.3673C8.14461 10.4291 8.13139 10.4954 8.13139 10.5623C8.13139 10.6292 8.14461 10.6955 8.1703 10.7573C8.19598 10.8191 8.23362 10.8753 8.28106 10.9225C8.32849 10.9697 8.38479 11.0071 8.44671 11.0325C8.50863 11.0579 8.57497 11.0708 8.6419 11.0705H10.1277L9.95084 11.2473C9.90284 11.2943 9.86465 11.3504 9.83846 11.4123C9.81227 11.4742 9.79862 11.5407 9.79828 11.6079C9.79794 11.6751 9.81092 11.7417 9.83648 11.8038C9.86204 11.866 9.89967 11.9224 9.94719 11.9699C9.9947 12.0175 10.0512 12.0551 10.1133 12.0806C10.1755 12.1062 10.2421 12.1192 10.3093 12.1189C10.3765 12.1185 10.4429 12.1049 10.5048 12.0787C10.5667 12.0525 10.6228 12.0143 10.6698 11.9663L11.7177 10.9192C11.7734 10.8621 11.8145 10.7925 11.8378 10.7162C11.861 10.6399 11.8656 10.5592 11.8513 10.4808L11.8449 10.4485Z" fill="#171723"/>
</g>
<defs>
<clipPath id="clip0_14521_205388">
<rect width="20" height="20" fill="white"/>
</clipPath>
</defs>
</svg>
