<svg width="20" height="20" viewBox="0 0 20 20" fill="none" xmlns="http://www.w3.org/2000/svg">
<path fill-rule="evenodd" clip-rule="evenodd" d="M9.73695 2.0265C9.90054 1.93561 10.0995 1.93561 10.2631 2.0265L14.7781 4.53483C15.0396 4.68011 15.1338 5.00988 14.9885 5.27139C14.8432 5.5329 14.5135 5.62712 14.2519 5.48183L10 3.11964L3.61536 6.66667L10 10.2137L17.2369 6.19316C17.4047 6.09996 17.6093 6.10249 17.7747 6.19982C17.9401 6.29715 18.0417 6.47474 18.0417 6.66667V9.16667C18.0417 9.36338 17.935 9.54463 17.7631 9.64017L10.2631 13.8068C10.0995 13.8977 9.90054 13.8977 9.73695 13.8068L3.04167 10.0872V11.3479L10 15.2137L17.2369 11.1932C17.4047 11.1 17.6093 11.1025 17.7747 11.1998C17.9401 11.2971 18.0417 11.4747 18.0417 11.6667V14.1667C18.0417 14.3634 17.935 14.5446 17.7631 14.6402L10.2631 18.8068C10.0995 18.8977 9.90054 18.8977 9.73695 18.8068L2.23695 14.6402C1.97544 14.4949 1.88122 14.1651 2.0265 13.9036C2.17178 13.6421 2.50155 13.5479 2.76306 13.6932L10 17.7137L16.9583 13.8479V12.5872L10.2631 16.3068C10.0995 16.3977 9.90054 16.3977 9.73695 16.3068L2.23695 12.1402C2.06499 12.0446 1.95834 11.8634 1.95834 11.6667V9.16667C1.95834 8.97474 2.05989 8.79715 2.22531 8.69982C2.39072 8.60249 2.59529 8.59996 2.76306 8.69316L10 12.7137L16.9583 8.84795V7.58724L10.2631 11.3068C10.0995 11.3977 9.90054 11.3977 9.73695 11.3068L2.23695 7.14017C2.06499 7.04463 1.95834 6.86338 1.95834 6.66667C1.95834 6.46995 2.06499 6.2887 2.23695 6.19316L9.73695 2.0265Z" fill="#171723"/>
</svg>
