<svg width="20" height="20" viewBox="0 0 20 20" fill="none" xmlns="http://www.w3.org/2000/svg">
<path d="M0.0819323 2L0.0814023 2.0911H0L0.0808724 2.18301L0.00397749 14.1995L0.00371253 14.2235L3.77712 18.8243L3.79674 18.8484H9.01418V16.7506H4.80168L2.17082 13.5994L2.20317 4.18913H9.01418V2.0911H0.174471L0.0819323 2Z" fill="#3452FF"/>
<path d="M4.9458 12.3487V12.3743L6.42324 14.0443H9.01406V11.9466H7.35685L7.10813 11.6658L7.11317 9.20201H9.01406V7.10425H4.96224L4.9458 12.3487Z" fill="#3452FF"/>
<path d="M12.0712 2.09131H10.7541V4.18934H12.0712C15.2952 4.18934 17.9181 7.00871 17.9181 10.4746C17.9181 13.9405 15.2952 16.7602 12.0712 16.7602H10.748V18.8579H12.0712C16.443 18.8579 19.9998 15.0973 19.9998 10.4746C19.9998 5.85216 16.443 2.09131 12.0712 2.09131Z" fill="#3452FF"/>
<path d="M15.1408 10.5744C15.1408 8.66101 13.5581 7.10425 11.6127 7.10425H10.7507V9.20201H11.6127C12.41 9.20201 13.0586 9.81756 13.0586 10.5744C13.0586 11.331 12.41 11.9466 11.6127 11.9466H10.7485V14.0443H11.6127C13.5581 14.0443 15.1408 12.4878 15.1408 10.5744Z" fill="#3452FF"/>
</svg>
