<svg width="20" height="20" viewBox="0 0 20 20" fill="none" xmlns="http://www.w3.org/2000/svg">
<g clip-path="url(#clip0_5313_35074)">
<path d="M3.69521 5H1.30479C0.958806 4.99978 0.627057 4.86224 0.382409 4.61759C0.137762 4.37294 0.000221794 4.04119 0 3.69521V1.30479C0.000221794 0.958806 0.137762 0.627057 0.382409 0.382409C0.627057 0.137762 0.958806 0.000221794 1.30479 0H3.69521C4.04119 0.000221794 4.37294 0.137762 4.61759 0.382409C4.86224 0.627057 4.99978 0.958806 5 1.30479V3.69521C4.99978 4.04119 4.86224 4.37294 4.61759 4.61759C4.37294 4.86224 4.04119 4.99978 3.69521 5ZM1.30479 1.16284C1.26715 1.16286 1.23105 1.17782 1.20443 1.20443C1.17782 1.23105 1.16286 1.26715 1.16284 1.30479V3.69521C1.16286 3.73285 1.17782 3.76895 1.20443 3.79557C1.23105 3.82218 1.26715 3.83714 1.30479 3.83716H3.69521C3.73285 3.83714 3.76895 3.82218 3.79557 3.79557C3.82218 3.76895 3.83714 3.73285 3.83716 3.69521V1.30479C3.83714 1.26715 3.82218 1.23105 3.79557 1.20443C3.76895 1.17782 3.73285 1.16286 3.69521 1.16284H1.30479Z" fill="#171723"/>
<path d="M18.6952 5H16.3048C15.9588 4.99978 15.6271 4.86224 15.3824 4.61759C15.1378 4.37294 15.0002 4.04119 15 3.69521V1.30479C15.0002 0.958806 15.1378 0.627057 15.3824 0.382409C15.6271 0.137762 15.9588 0.000221794 16.3048 0H18.6952C19.0412 0.000224871 19.3729 0.137766 19.6176 0.382413C19.8622 0.627059 19.9998 0.958807 20 1.30479V3.69521C19.9998 4.04119 19.8622 4.37294 19.6176 4.61759C19.3729 4.86223 19.0412 4.99977 18.6952 5ZM16.3048 1.16284C16.2672 1.16286 16.2311 1.17782 16.2044 1.20443C16.1778 1.23105 16.1629 1.26715 16.1628 1.30479V3.69521C16.1629 3.73285 16.1778 3.76895 16.2044 3.79557C16.2311 3.82218 16.2672 3.83714 16.3048 3.83716H18.6952C18.7328 3.83715 18.7689 3.82219 18.7956 3.79557C18.8222 3.76895 18.8371 3.73285 18.8372 3.69521V1.30479C18.8371 1.26715 18.8222 1.23105 18.7956 1.20443C18.7689 1.17781 18.7328 1.16285 18.6952 1.16284H16.3048Z" fill="#171723"/>
<path d="M11.1955 5H8.8045C8.45859 4.99978 8.12692 4.86224 7.88232 4.61759C7.63773 4.37294 7.50022 4.04119 7.5 3.69521V1.30479C7.50022 0.958806 7.63773 0.627057 7.88232 0.382409C8.12692 0.137762 8.45859 0.000221794 8.8045 0H11.1955C11.5414 0.000221794 11.8731 0.137762 12.1177 0.382409C12.3623 0.627057 12.4998 0.958806 12.5 1.30479V3.69521C12.4998 4.04119 12.3623 4.37294 12.1177 4.61759C11.8731 4.86224 11.5414 4.99978 11.1955 5ZM8.8045 1.16284C8.76686 1.16285 8.73077 1.17781 8.70416 1.20443C8.67755 1.23105 8.66259 1.26715 8.66258 1.30479V3.69521C8.66259 3.73285 8.67755 3.76895 8.70416 3.79557C8.73077 3.82219 8.76686 3.83715 8.8045 3.83716H11.1955C11.2331 3.83714 11.2692 3.82218 11.2958 3.79557C11.3224 3.76895 11.3374 3.73285 11.3374 3.69521V1.30479C11.3374 1.26715 11.3224 1.23105 11.2958 1.20443C11.2692 1.17782 11.2331 1.16286 11.1955 1.16284H8.8045Z" fill="#171723"/>
<path d="M3.69521 12.5H1.30479C0.958806 12.4998 0.627057 12.3622 0.382409 12.1176C0.137762 11.8729 0.000221794 11.5412 0 11.1952V8.80479C0.000221794 8.45881 0.137762 8.12706 0.382409 7.88241C0.627057 7.63776 0.958806 7.50022 1.30479 7.5H3.69521C4.04119 7.50022 4.37294 7.63776 4.61759 7.88241C4.86224 8.12706 4.99978 8.45881 5 8.80479V11.1952C4.99978 11.5412 4.86224 11.8729 4.61759 12.1176C4.37294 12.3622 4.04119 12.4998 3.69521 12.5ZM1.30479 8.66284C1.26715 8.66286 1.23105 8.67782 1.20443 8.70443C1.17781 8.73105 1.16285 8.76715 1.16284 8.80479V11.1952C1.16286 11.2328 1.17782 11.2689 1.20443 11.2956C1.23105 11.3222 1.26715 11.3371 1.30479 11.3372H3.69521C3.73285 11.3371 3.76895 11.3222 3.79557 11.2956C3.82218 11.2689 3.83714 11.2328 3.83716 11.1952V8.80479C3.83715 8.76715 3.82219 8.73105 3.79557 8.70443C3.76895 8.67782 3.73285 8.66286 3.69521 8.66284H1.30479Z" fill="#171723"/>
<path d="M18.6952 12.5H16.3048C15.9588 12.4998 15.6271 12.3622 15.3824 12.1176C15.1378 11.8729 15.0002 11.5412 15 11.1952V8.80479C15.0002 8.45881 15.1378 8.12706 15.3824 7.88241C15.6271 7.63776 15.9588 7.50022 16.3048 7.5H18.6952C19.0412 7.50022 19.3729 7.63777 19.6176 7.88241C19.8622 8.12706 19.9998 8.45881 20 8.80479V11.1952C19.9998 11.5412 19.8622 11.8729 19.6176 12.1176C19.3729 12.3622 19.0412 12.4998 18.6952 12.5ZM16.3048 8.66284C16.2672 8.66286 16.2311 8.67782 16.2044 8.70443C16.1778 8.73105 16.1629 8.76715 16.1628 8.80479V11.1952C16.1629 11.2328 16.1778 11.2689 16.2044 11.2956C16.2311 11.3222 16.2672 11.3371 16.3048 11.3372H18.6952C18.7328 11.3371 18.7689 11.3222 18.7956 11.2956C18.8222 11.2689 18.8371 11.2328 18.8372 11.1952V8.80479C18.8371 8.76715 18.8222 8.73105 18.7956 8.70443C18.7689 8.67782 18.7328 8.66286 18.6952 8.66284H16.3048Z" fill="#171723"/>
<path d="M11.1955 12.5H8.8045C8.45859 12.4998 8.12692 12.3622 7.88232 12.1176C7.63773 11.8729 7.50022 11.5412 7.5 11.1952V8.80479C7.50022 8.45881 7.63773 8.12706 7.88232 7.88241C8.12692 7.63776 8.45859 7.50022 8.8045 7.5H11.1955C11.5414 7.50022 11.8731 7.63776 12.1177 7.88241C12.3623 8.12706 12.4998 8.45881 12.5 8.80479V11.1952C12.4998 11.5412 12.3623 11.8729 12.1177 12.1176C11.8731 12.3622 11.5414 12.4998 11.1955 12.5ZM8.8045 8.66284C8.76686 8.66286 8.73077 8.67782 8.70416 8.70443C8.67755 8.73105 8.66259 8.76715 8.66258 8.80479V11.1952C8.66259 11.2328 8.67755 11.2689 8.70416 11.2956C8.73077 11.3222 8.76686 11.3371 8.8045 11.3372H11.1955C11.2331 11.3371 11.2692 11.3222 11.2958 11.2956C11.3224 11.2689 11.3374 11.2328 11.3374 11.1952V8.80479C11.3374 8.76715 11.3225 8.73105 11.2958 8.70443C11.2692 8.67782 11.2331 8.66286 11.1955 8.66284H8.8045Z" fill="#171723"/>
<path d="M3.69521 20H1.30479C0.958806 19.9998 0.627057 19.8622 0.382409 19.6176C0.137762 19.3729 0.000221794 19.0412 0 18.6952V16.3048C0.000221794 15.9588 0.137762 15.6271 0.382409 15.3824C0.627057 15.1378 0.958806 15.0002 1.30479 15H3.69521C4.04119 15.0002 4.37294 15.1378 4.61759 15.3824C4.86224 15.6271 4.99978 15.9588 5 16.3048V18.6952C4.99978 19.0412 4.86224 19.3729 4.61759 19.6176C4.37294 19.8622 4.04119 19.9998 3.69521 20ZM1.30479 16.1628C1.26715 16.1629 1.23105 16.1778 1.20443 16.2044C1.17782 16.2311 1.16286 16.2671 1.16284 16.3048V18.6952C1.16286 18.7329 1.17782 18.7689 1.20443 18.7956C1.23105 18.8222 1.26715 18.8371 1.30479 18.8372H3.69521C3.73285 18.8371 3.76895 18.8222 3.79557 18.7956C3.82218 18.7689 3.83714 18.7329 3.83716 18.6952V16.3048C3.83714 16.2671 3.82218 16.2311 3.79557 16.2044C3.76895 16.1778 3.73285 16.1629 3.69521 16.1628H1.30479Z" fill="#171723"/>
<path d="M18.6952 20H16.3048C15.9588 19.9998 15.6271 19.8622 15.3824 19.6176C15.1378 19.3729 15.0002 19.0412 15 18.6952V16.3048C15.0002 15.9588 15.1378 15.6271 15.3824 15.3824C15.6271 15.1378 15.9588 15.0002 16.3048 15H18.6952C19.0412 15.0002 19.3729 15.1378 19.6176 15.3824C19.8622 15.6271 19.9998 15.9588 20 16.3048V18.6952C19.9998 19.0412 19.8622 19.3729 19.6176 19.6176C19.3729 19.8622 19.0412 19.9998 18.6952 20ZM16.3048 16.1628C16.2672 16.1629 16.2311 16.1778 16.2044 16.2044C16.1778 16.2311 16.1629 16.2671 16.1628 16.3048V18.6952C16.1629 18.7329 16.1778 18.7689 16.2044 18.7956C16.2311 18.8222 16.2672 18.8371 16.3048 18.8372H18.6952C18.7328 18.8371 18.7689 18.8222 18.7956 18.7956C18.8222 18.769 18.8371 18.7329 18.8372 18.6952V16.3048C18.8371 16.2671 18.8222 16.231 18.7956 16.2044C18.7689 16.1778 18.7328 16.1629 18.6952 16.1628H16.3048Z" fill="#171723"/>
<path d="M11.1955 20H8.8045C8.45859 19.9998 8.12692 19.8622 7.88232 19.6176C7.63773 19.3729 7.50022 19.0412 7.5 18.6952V16.3048C7.50022 15.9588 7.63773 15.6271 7.88232 15.3824C8.12692 15.1378 8.45859 15.0002 8.8045 15H11.1955C11.5414 15.0002 11.8731 15.1378 12.1177 15.3824C12.3623 15.6271 12.4998 15.9588 12.5 16.3048V18.6952C12.4998 19.0412 12.3623 19.3729 12.1177 19.6176C11.8731 19.8622 11.5414 19.9998 11.1955 20ZM8.8045 16.1628C8.76686 16.1629 8.73077 16.1778 8.70416 16.2044C8.67755 16.231 8.66259 16.2671 8.66258 16.3048V18.6952C8.66259 18.7329 8.67755 18.769 8.70416 18.7956C8.73077 18.8222 8.76686 18.8371 8.8045 18.8372H11.1955C11.2331 18.8371 11.2692 18.8222 11.2958 18.7956C11.3224 18.7689 11.3374 18.7329 11.3374 18.6952V16.3048C11.3374 16.2671 11.3224 16.2311 11.2958 16.2044C11.2692 16.1778 11.2331 16.1629 11.1955 16.1628H8.8045Z" fill="#171723"/>
</g>
<defs>
<clipPath id="clip0_5313_35074">
<rect width="20" height="20" fill="white"/>
</clipPath>
</defs>
</svg>
