<svg width="20" height="20" viewBox="0 0 20 20" fill="none" xmlns="http://www.w3.org/2000/svg">
<mask id="mask0_20335_118723" style="mask-type:luminance" maskUnits="userSpaceOnUse" x="0" y="0" width="9" height="13">
<path d="M8.18182 0L0.718018 7.33535V12.7899L8.18182 5.45455V0Z" fill="white"/>
</mask>
<g mask="url(#mask0_20335_118723)">
<path d="M8.289 -0.193848H0.68335V12.9375H8.289V-0.193848Z" fill="url(#paint0_linear_20335_118723)"/>
</g>
<mask id="mask1_20335_118723" style="mask-type:luminance" maskUnits="userSpaceOnUse" x="0" y="5" width="14" height="8">
<path d="M13.7321 5.45435H8.18208L0.718262 12.7897H6.26833L13.7321 5.45435Z" fill="white"/>
</mask>
<g mask="url(#mask1_20335_118723)">
<path d="M13.8393 5.261H0.683594V12.9378H13.8393V5.261Z" fill="url(#paint1_linear_20335_118723)"/>
</g>
<path d="M13.7317 0H8.18164V5.45455H13.7317V0ZM13.115 4.84848H8.79834V0.60606H13.115V4.84848Z" fill="#EF6284"/>
<path d="M19.2821 5.45485H13.732L4.48193 14.5457V20.0003H10.032L19.2821 10.9094V5.45485Z" fill="#EF6284"/>
<path d="M13.1155 0.605957H8.79883V4.84838H13.1155V0.605957Z" fill="#FFD7E2"/>
<path d="M18.6654 6.06055H14.3486V10.303H18.6654V6.06055Z" fill="#FFD7E2"/>
<path d="M13.1155 11.5152H8.79883V15.7576H13.1155V11.5152Z" fill="#FFD7E2"/>
<defs>
<linearGradient id="paint0_linear_20335_118723" x1="0.718018" y1="7.76684e-09" x2="8.21628" y2="-0.114088" gradientUnits="userSpaceOnUse">
<stop stop-color="#EF6284" stop-opacity="0"/>
<stop offset="0.4" stop-color="#EF6284" stop-opacity="0.08"/>
<stop offset="1" stop-color="#EF6284" stop-opacity="0.64"/>
</linearGradient>
<linearGradient id="paint1_linear_20335_118723" x1="7.26144" y1="12.9378" x2="7.21826" y2="5.50002" gradientUnits="userSpaceOnUse">
<stop stop-color="#EF6284" stop-opacity="0"/>
<stop offset="1" stop-color="#EF6284"/>
</linearGradient>
</defs>
</svg>
