<svg width="20" height="20" viewBox="0 0 20 20" fill="none" xmlns="http://www.w3.org/2000/svg">
<path d="M8.44604 14.0392H5.91715C5.78166 14.0392 5.64807 14.0075 5.52709 13.9465C5.40611 13.8855 5.30112 13.797 5.22056 13.6881L4.34333 12.5038C4.23256 12.3546 4.17278 12.1736 4.17285 11.9878V6.87012C4.17291 6.64018 4.26428 6.41967 4.42688 6.25708C4.58947 6.09448 4.80998 6.00311 5.03992 6.00305H8.44604C8.676 6.00305 8.89654 6.0944 9.05915 6.25701C9.22176 6.41962 9.31311 6.64016 9.31311 6.87012C9.31311 7.10008 9.22176 7.32062 9.05915 7.48323C8.89654 7.64583 8.676 7.73718 8.44604 7.73718H5.90698V11.7022L6.35407 12.3051H8.44604C8.676 12.3051 8.89654 12.3964 9.05915 12.5591C9.22176 12.7217 9.31311 12.9422 9.31311 13.1722C9.31311 13.4021 9.22176 13.6227 9.05915 13.7853C8.89654 13.9479 8.676 14.0392 8.44604 14.0392Z" fill="#171723"/>
<path d="M8.44662 18.1691H3.83586C3.70038 18.1691 3.56679 18.1373 3.44581 18.0764C3.32483 18.0154 3.21984 17.9269 3.13927 17.8179L0.212957 13.8665C0.102181 13.7173 0.0424049 13.5364 0.0424805 13.3505V2.73914C0.0425418 2.50919 0.133913 2.28869 0.296506 2.1261C0.459099 1.9635 0.679605 1.87213 0.909547 1.87207H8.44662C8.67658 1.87207 8.89712 1.96342 9.05973 2.12603C9.22233 2.28863 9.31368 2.50918 9.31368 2.73914C9.31368 2.9691 9.22233 3.18964 9.05973 3.35224C8.89712 3.51485 8.67658 3.6062 8.44662 3.6062H1.77658V13.0649L4.27278 16.4349H8.44662C8.67658 16.4349 8.89712 16.5263 9.05973 16.6889C9.22233 16.8515 9.31368 17.072 9.31368 17.302C9.31368 17.532 9.22233 17.7525 9.05973 17.9151C8.89712 18.0777 8.67658 18.1691 8.44662 18.1691Z" fill="#171723"/>
<path d="M11.8513 14.0392H11.3783C11.1483 14.0392 10.9278 13.9479 10.7652 13.7853C10.6026 13.6227 10.5112 13.4021 10.5112 13.1722C10.5112 12.9422 10.6026 12.7217 10.7652 12.5591C10.9278 12.3964 11.1483 12.3051 11.3783 12.3051H11.8513C12.4571 12.3051 13.038 12.0645 13.4663 11.6361C13.8947 11.2078 14.1353 10.6269 14.1353 10.0211C14.1353 9.4154 13.8947 8.83446 13.4663 8.40614C13.038 7.97781 12.4571 7.73718 11.8513 7.73718H11.3783C11.1483 7.73718 10.9278 7.64583 10.7652 7.48323C10.6026 7.32062 10.5112 7.10008 10.5112 6.87012C10.5112 6.64016 10.6026 6.41962 10.7652 6.25701C10.9278 6.0944 11.1483 6.00305 11.3783 6.00305H11.8513C12.917 6.00305 13.939 6.42638 14.6926 7.17992C15.4461 7.93346 15.8694 8.95548 15.8694 10.0211C15.8694 11.0868 15.4461 12.1088 14.6926 12.8624C13.939 13.6159 12.917 14.0392 11.8513 14.0392Z" fill="#171723"/>
<path d="M11.8513 18.1691H11.3783C11.1483 18.1691 10.9278 18.0777 10.7652 17.9151C10.6026 17.7525 10.5112 17.532 10.5112 17.302C10.5112 17.072 10.6026 16.8515 10.7652 16.6889C10.9278 16.5263 11.1483 16.4349 11.3783 16.4349H11.8513C13.5525 16.4349 15.1841 15.7591 16.387 14.5562C17.5899 13.3533 18.2657 11.7218 18.2657 10.0206C18.2657 8.31938 17.5899 6.68786 16.387 5.48493C15.1841 4.282 13.5525 3.6062 11.8513 3.6062H11.3783C11.1483 3.6062 10.9278 3.51485 10.7652 3.35224C10.6026 3.18964 10.5112 2.9691 10.5112 2.73914C10.5112 2.50918 10.6026 2.28864 10.7652 2.12603C10.9278 1.96342 11.1483 1.87207 11.3783 1.87207H11.8513C12.9214 1.87207 13.981 2.08284 14.9696 2.49234C15.9583 2.90184 16.8565 3.50205 17.6132 4.25871C18.3699 5.01537 18.9701 5.91365 19.3796 6.90228C19.7891 7.8909 19.9998 8.9505 19.9998 10.0206C19.9998 11.0907 19.7891 12.1502 19.3796 13.1389C18.9701 14.1275 18.3699 15.0258 17.6132 15.7824C16.8565 16.5391 15.9583 17.1393 14.9696 17.5488C13.981 17.9583 12.9214 18.1691 11.8513 18.1691Z" fill="#171723"/>
</svg>
