<svg width="20" height="20" viewBox="0 0 20 20" fill="none" xmlns="http://www.w3.org/2000/svg">
<g clip-path="url(#clip0_10314_144860)">
<path d="M3.89553 3.63806C3.4963 3.63806 -0.000488281 3.67976 -0.000488281 5.12526L0.00249133 5.14458V9.97872L0.000457318 9.9886V12.6248L0.00249133 12.6347V15.0669C0.00537268 15.0895 0.00987573 15.1119 0.0159659 15.1338C0.0374178 15.2223 0.0709825 15.3074 0.115709 15.3867C0.12173 15.3942 0.132224 15.4002 0.13855 15.4076C0.152114 15.4215 0.166499 15.4347 0.181628 15.447C0.780789 16.0759 2.45554 16.362 3.89851 16.362C5.24419 16.362 7.78856 16.0521 7.78856 14.8792V12.4302L7.78653 12.4203V10.0065L7.78856 9.99206V5.13812L7.7906 5.12527C7.79056 3.67978 4.29377 3.63806 3.89553 3.63806ZM3.64446 12.8956C3.5943 12.8944 3.54452 12.8931 3.49562 12.8913C3.19991 12.8798 2.89486 12.8551 2.58046 12.8171C2.4755 12.8031 2.37338 12.7882 2.27774 12.7717C2.2364 12.7648 2.19444 12.7583 2.1544 12.7501C2.03654 12.7277 1.92598 12.7038 1.824 12.6789C1.6936 12.6442 1.57188 12.611 1.45742 12.5762L1.45844 12.5751L1.28067 12.5106C1.16361 12.4614 1.10098 12.4285 1.06203 12.4129C1.04825 12.4055 1.02949 12.3974 1.01746 12.3903V11.0493C1.05576 11.0633 1.08934 11.0795 1.12913 11.0928L1.13068 11.0934L1.13093 11.0935C1.22397 11.1245 1.3254 11.1504 1.42545 11.1775C1.63193 11.2353 1.84134 11.2819 2.0528 11.3173C2.12418 11.3299 2.19426 11.3428 2.26706 11.3538C2.3156 11.3607 2.35576 11.3712 2.40584 11.3775L2.58262 11.3973C2.6103 11.4005 2.63228 11.4017 2.65972 11.4048C2.74054 11.4138 2.82078 11.421 2.90216 11.4282L2.94214 11.4321C3.00564 11.4409 3.06162 11.442 3.12164 11.4448C3.38327 11.4627 3.64458 11.4748 3.89851 11.4748C4.05139 11.4748 4.22121 11.4702 4.39961 11.4614C4.47874 11.4585 4.55968 11.4591 4.63938 11.4549C5.36434 11.4202 6.08111 11.2861 6.76963 11.0564V12.3458C6.06757 12.709 5.28711 12.8943 4.49673 12.8856C4.22314 12.9 3.93805 12.903 3.64446 12.8956ZM6.43892 8.72982C6.5049 8.70927 6.56324 8.68904 6.62153 8.66892L6.64878 8.65986L6.6862 8.64739C6.71693 8.63646 6.74331 8.62585 6.77163 8.61505V9.90126C6.06719 10.2653 5.28415 10.4509 4.49124 10.4417L4.48513 10.4419C4.31705 10.4514 4.13835 10.4559 3.95375 10.4568C3.75091 10.4572 3.53813 10.4522 3.29668 10.4385C3.21653 10.4377 3.1365 10.4321 3.05702 10.4217L3.01308 10.4178C2.9063 10.4101 2.80142 10.3986 2.69782 10.3868L2.6258 10.3789C2.5168 10.3649 2.41452 10.349 2.3152 10.3323C2.26015 10.3236 2.20639 10.3144 2.15345 10.3047C2.03111 10.2813 1.91516 10.2567 1.8099 10.2307C1.70909 10.205 1.60904 10.1791 1.52152 10.1493C1.50432 10.1439 1.48297 10.1388 1.46646 10.1335C1.36016 10.0984 1.25602 10.0572 1.15456 10.01C1.10666 9.98557 1.0614 9.95632 1.01949 9.92268V8.6308C1.9499 8.92713 2.92221 9.07057 3.89855 9.05554C4.73337 9.05821 5.5651 8.95422 6.37356 8.74609C6.39373 8.73999 6.41999 8.73613 6.43892 8.72982ZM6.77161 7.46713C6.75659 7.47973 6.73958 7.49195 6.73505 7.5066L6.73375 7.50744C6.67069 7.55067 6.60273 7.58628 6.53128 7.61352C6.47239 7.64165 6.41186 7.66624 6.35003 7.68713L6.32396 7.6965C6.27648 7.71358 6.22235 7.73102 6.16329 7.7497C6.13231 7.75907 6.09637 7.76807 6.06329 7.77732C6.00106 7.79628 5.93781 7.81172 5.87385 7.82356C5.22245 7.96015 4.55809 8.02525 3.89257 8.01772C3.11758 8.02902 2.34442 7.93905 1.59273 7.75008C1.5481 7.73699 1.4972 7.7242 1.4568 7.71091L1.43668 7.70433C1.2928 7.65924 1.15383 7.59977 1.02187 7.52681L1.01945 7.52527V6.18815C1.95095 6.47513 2.92084 6.61806 3.89553 6.61197C4.87025 6.61804 5.84015 6.47499 6.77161 6.18777V7.46713ZM3.89553 4.65502C4.84554 4.60344 5.7951 4.76408 6.67528 5.12526C5.79494 5.48582 4.84547 5.64627 3.89553 5.59501C2.94559 5.6464 1.9961 5.48594 1.11578 5.12526C1.99596 4.76408 2.94553 4.60344 3.89553 4.65502ZM1.01945 14.8318V13.4959C1.15799 13.5463 1.30504 13.5919 1.46058 13.6328C1.50496 13.6448 1.5401 13.656 1.58851 13.6686L1.60254 13.6718C1.63568 13.6798 1.66876 13.6875 1.70247 13.695L1.82884 13.7242C1.99072 13.7629 2.17048 13.7897 2.39294 13.8225C2.42955 13.8272 2.46456 13.8252 2.50112 13.8295C2.96394 13.8885 3.42997 13.9187 3.89653 13.9198H3.89851L3.90055 13.9198C4.06572 13.9197 4.24888 13.915 4.4431 13.9045C4.49648 13.9022 4.55293 13.9031 4.6056 13.8999C5.34308 13.8674 6.07227 13.7309 6.7716 13.4946V14.7878C5.8799 15.224 4.88859 15.4162 3.8985 15.3449C2.91225 15.3956 1.92747 15.2201 1.01945 14.8318Z" fill="#171723"/>
<path d="M20 7.56691C20 6.12143 16.5032 6.07971 16.105 6.07971C15.7058 6.07971 12.209 6.12141 12.209 7.56691L12.211 7.57976V12.4253L12.21 12.4302V15.067C12.2129 15.0896 12.2174 15.1119 12.2235 15.1339C12.2278 15.2043 12.252 15.272 12.2932 15.3293C12.3019 15.3491 12.3119 15.3683 12.3232 15.3868C12.3292 15.3942 12.3397 15.4002 12.3461 15.4076C12.3596 15.4216 12.374 15.4348 12.3891 15.447C12.5826 15.6334 12.812 15.7786 13.0634 15.8736C13.0719 15.8772 13.0763 15.8816 13.085 15.8853C13.1074 15.8952 13.1418 15.9053 13.1697 15.9149C13.3432 15.9809 13.5204 16.0371 13.7002 16.0831C13.7349 16.0925 13.761 16.1011 13.798 16.1107L13.8145 16.1145C13.8465 16.1221 13.8782 16.1296 13.9107 16.1368L14.0384 16.1664C14.1099 16.1833 14.195 16.1932 14.2727 16.2068C14.3342 16.2176 14.3944 16.2291 14.457 16.2387C14.5069 16.2462 14.5505 16.2565 14.6015 16.2637C14.634 16.2679 14.6657 16.2661 14.6982 16.27C15.1651 16.33 15.6353 16.3608 16.1061 16.362H16.1081L16.1101 16.3619C16.2753 16.3619 16.4585 16.3572 16.6527 16.3467C16.7061 16.3443 16.7625 16.3453 16.8152 16.3421C17.8508 16.3553 18.8658 16.0528 19.7253 15.475C19.7415 15.4589 19.7569 15.4425 19.7718 15.4259C19.8125 15.3816 19.8492 15.3337 19.8812 15.2828C19.9319 15.1958 19.9652 15.0999 19.9793 15.0002C19.9819 14.9839 19.9936 14.9715 19.9951 14.9547C19.9965 14.9407 19.9911 14.9272 19.9913 14.9132C19.9919 14.9012 19.9961 14.8905 19.9961 14.8782V12.4414L19.9972 12.4342V7.58621L20 7.56691ZM15.8367 15.3372C15.7946 15.3362 15.7526 15.335 15.7115 15.3336C15.4106 15.3218 15.1053 15.2976 14.8022 15.2608C14.7029 15.2477 14.6078 15.2334 14.5168 15.2179C14.4654 15.2097 14.4135 15.2018 14.3639 15.1918C14.2433 15.1688 14.1298 15.1445 14.0257 15.1189C13.8946 15.0839 13.773 15.0495 13.6589 15.0153L13.6582 15.0152C13.593 14.9937 13.5421 14.9727 13.488 14.9515L13.4881 14.9508C13.3775 14.9052 13.3148 14.8733 13.2747 14.8561C13.2598 14.8482 13.2399 14.8395 13.2269 14.8318V13.4917C13.3962 13.5533 13.5686 13.606 13.7433 13.6497C13.8955 13.6894 14.0598 13.7235 14.2325 13.7538C14.3194 13.7695 14.4052 13.785 14.4942 13.7983C14.5359 13.8041 14.5705 13.8133 14.6133 13.8187L14.7832 13.8375C14.802 13.8398 14.8165 13.8404 14.8353 13.8426C14.939 13.8545 15.0421 13.8642 15.1467 13.8731L15.1486 13.8733C15.243 13.8858 15.338 13.893 15.4332 13.8948C15.6603 13.9083 15.8865 13.917 16.107 13.917C16.2767 13.917 16.4656 13.912 16.6659 13.9011C16.7263 13.8986 16.7883 13.8996 16.8489 13.8961C17.5742 13.8622 18.2912 13.7271 18.9791 13.4949V14.788C18.2774 15.1513 17.4972 15.3366 16.707 15.3278C16.4276 15.3427 16.1349 15.3455 15.8367 15.3372ZM18.6484 11.171C18.718 11.1495 18.7782 11.1287 18.8366 11.1082L18.8546 11.1022L18.8927 11.0895C18.9242 11.0783 18.9512 11.0677 18.9801 11.0567V12.3429C18.1024 12.7727 17.1271 12.9644 16.1521 12.8987C15.9526 12.8987 15.744 12.8938 15.5062 12.8801C15.4294 12.8793 15.3528 12.874 15.2767 12.8642L15.1996 12.8573C15.0988 12.8494 14.9992 12.8394 14.9003 12.8275L14.8287 12.8196C14.7212 12.8057 14.6197 12.7901 14.5216 12.7735C14.4689 12.7652 14.4174 12.7564 14.3667 12.7471C14.2422 12.7234 14.1247 12.6984 14.0179 12.6719C13.8991 12.6415 13.7782 12.6118 13.6768 12.5752C13.5708 12.5402 13.4667 12.4994 13.365 12.4531C13.3163 12.4281 13.2704 12.3981 13.228 12.3636V11.0726C14.1584 11.3686 15.1307 11.5118 16.107 11.4966C16.9406 11.4993 17.7712 11.3957 18.5786 11.1883C18.6005 11.1818 18.6277 11.178 18.6484 11.171ZM18.9801 9.78716L18.9785 9.91909L18.9445 9.94756L18.9318 9.95614C18.872 9.99616 18.8079 10.0294 18.7407 10.0552C18.6801 10.0842 18.6177 10.1093 18.5539 10.1305L18.5343 10.1375C18.4884 10.1543 18.4357 10.1714 18.3797 10.1891C18.3435 10.2002 18.3011 10.2108 18.2619 10.2217C18.2032 10.2394 18.1436 10.2539 18.0833 10.2652C17.4318 10.4009 16.7675 10.466 16.1021 10.4594C15.3283 10.4705 14.5563 10.381 13.8057 10.1929C13.758 10.1789 13.7038 10.1653 13.6609 10.1512L13.6486 10.1473C13.5026 10.1017 13.3617 10.0414 13.228 9.9672V8.62943C15.1037 9.19487 17.1044 9.19502 18.9801 8.62986L18.9801 9.78716ZM16.105 7.09665C17.055 7.04507 18.0046 7.20571 18.8848 7.56689C18.0044 7.92757 17.055 8.08802 16.105 8.03664C15.1547 8.08811 14.2049 7.92766 13.3242 7.56691C14.2047 7.20564 15.1547 7.045 16.105 7.09665Z" fill="#171723"/>
<path d="M11.8449 10.4485C11.8272 10.3552 11.783 10.269 11.7176 10.2001C11.7115 10.194 11.7033 10.1921 11.6969 10.1864L10.6708 9.15983C10.5751 9.06607 10.4463 9.01386 10.3124 9.01453C10.1784 9.01521 10.0502 9.06872 9.95544 9.16344C9.86072 9.25816 9.80721 9.38643 9.80653 9.52039C9.80586 9.65434 9.85807 9.78314 9.95183 9.87882L10.1266 10.0541H8.64185C8.57492 10.0538 8.50859 10.0667 8.44666 10.0921C8.38474 10.1175 8.32845 10.1549 8.28101 10.2021C8.23358 10.2494 8.19594 10.3055 8.17025 10.3673C8.14457 10.4291 8.13135 10.4954 8.13135 10.5623C8.13135 10.6293 8.14457 10.6955 8.17025 10.7573C8.19594 10.8192 8.23358 10.8753 8.28101 10.9225C8.32845 10.9697 8.38474 11.0071 8.44666 11.0325C8.50859 11.0579 8.57492 11.0709 8.64185 11.0706H10.1276L9.95079 11.2473C9.90279 11.2944 9.8646 11.3505 9.83841 11.4123C9.81223 11.4742 9.79857 11.5407 9.79823 11.6079C9.79789 11.6751 9.81088 11.7417 9.83644 11.8038C9.862 11.866 9.89962 11.9225 9.94714 11.97C9.99466 12.0175 10.0511 12.0551 10.1133 12.0807C10.1754 12.1062 10.242 12.1192 10.3092 12.1189C10.3764 12.1185 10.4429 12.1049 10.5048 12.0787C10.5667 12.0525 10.6227 12.0143 10.6698 11.9663L11.7176 10.9192C11.7733 10.8621 11.8145 10.7925 11.8377 10.7162C11.861 10.64 11.8656 10.5592 11.8512 10.4808L11.8449 10.4485Z" fill="#171723"/>
</g>
<defs>
<clipPath id="clip0_10314_144860">
<rect width="20" height="20" fill="white"/>
</clipPath>
</defs>
</svg>
