<svg width="24" height="24" viewBox="0 0 24 24" fill="none" xmlns="http://www.w3.org/2000/svg">
<g clip-path="url(#clip0_10317_147262)">
<path d="M20.6748 2.5365H3.32642C1.54268 2.5365 0.0966797 3.9825 0.0966797 5.76624V18.2332C0.0966797 20.017 1.54268 21.463 3.32642 21.463H20.6748C22.4585 21.463 23.9045 20.017 23.9045 18.2332V5.76624C23.9045 3.9825 22.4585 2.5365 20.6748 2.5365Z" fill="white"/>
<path d="M20.6745 21.5588H3.32555C2.4439 21.5577 1.59867 21.207 0.975246 20.5835C0.351823 19.9601 0.00110025 19.1149 0 18.2332V5.76677C0.00110025 4.88512 0.351823 4.03989 0.975246 3.41647C1.59867 2.79305 2.4439 2.44232 3.32555 2.44122H20.6745C21.5561 2.44232 22.4013 2.79305 23.0248 3.41647C23.6482 4.03989 23.9989 4.88512 24 5.76677V18.2332C23.9989 19.1149 23.6482 19.9601 23.0248 20.5835C22.4013 21.207 21.5561 21.5577 20.6745 21.5588ZM3.32555 2.63303C2.49477 2.63412 1.69834 2.96463 1.11089 3.55208C0.523445 4.13952 0.192938 4.93596 0.191848 5.76673V18.2332C0.192938 19.064 0.523445 19.8604 1.11089 20.4479C1.69834 21.0353 2.49477 21.3658 3.32555 21.3669H20.6745C21.5052 21.3658 22.3017 21.0353 22.8891 20.4479C23.4766 19.8604 23.8071 19.064 23.8082 18.2332V5.76677C23.8071 4.936 23.4766 4.13956 22.8891 3.55211C22.3017 2.96467 21.5052 2.63416 20.6745 2.63307L3.32555 2.63303Z" fill="#E4E4E4"/>
<path d="M3.32617 10.749C3.58142 10.7112 3.83908 10.6921 4.09711 10.6917C4.50417 10.6589 4.90848 10.7819 5.22841 11.0357C5.36206 11.1628 5.46659 11.3174 5.5348 11.4888C5.60273 11.6596 5.63256 11.8432 5.6222 12.0268C5.63124 12.2236 5.60027 12.4201 5.53116 12.6046C5.46205 12.7891 5.35624 12.9576 5.22013 13.1C4.87502 13.3865 4.43266 13.5288 3.98523 13.4972C3.76512 13.4983 3.5451 13.4874 3.32618 13.4645L3.32617 10.749ZM3.69094 13.19C3.81175 13.2065 3.93367 13.2134 4.05556 13.2106C4.21555 13.2289 4.37761 13.2112 4.52991 13.1588C4.6822 13.1065 4.82088 13.0208 4.93581 12.908C5.04985 12.7961 5.13695 12.6597 5.19053 12.5092C5.24411 12.3587 5.26277 12.198 5.2451 12.0392C5.25782 11.8903 5.23671 11.7404 5.18333 11.6008C5.12995 11.4612 5.0457 11.3355 4.93687 11.2331C4.82804 11.1307 4.69746 11.0542 4.55489 11.0094C4.41232 10.9646 4.26147 10.9526 4.11361 10.9743C3.97192 10.9742 3.83049 10.9866 3.69094 11.0112V13.19Z" fill="#1D1D1B"/>
<path d="M6.29481 12.547C6.28643 12.6387 6.2984 12.7312 6.32987 12.8178C6.36149 12.9046 6.41174 12.9835 6.47711 13.0488C6.54298 13.1145 6.62226 13.1651 6.70952 13.1972C6.79679 13.2294 6.88997 13.2423 6.98268 13.235C7.17301 13.2414 7.36245 13.2065 7.53799 13.1326L7.60025 13.3908C7.38935 13.48 7.16186 13.5233 6.93293 13.5177C6.79943 13.5258 6.66574 13.5053 6.5408 13.4576C6.41586 13.4098 6.30254 13.336 6.20843 13.241C6.11506 13.1467 6.04328 13.0332 5.99807 12.9084C5.95285 12.7837 5.93527 12.6506 5.94655 12.5183C5.93206 12.3848 5.94561 12.2497 5.98632 12.1218C6.02703 11.9938 6.094 11.8757 6.18296 11.7751C6.27191 11.6745 6.38089 11.5935 6.50292 11.5374C6.62495 11.4813 6.75734 11.4513 6.89163 11.4493C7.00928 11.4515 7.12521 11.4779 7.23217 11.527C7.33878 11.5758 7.43405 11.6464 7.51192 11.7341C7.58941 11.8212 7.64766 11.9237 7.68289 12.0348C7.71811 12.1459 7.72951 12.2633 7.71634 12.3791C7.71683 12.4355 7.71122 12.4918 7.69962 12.547L6.29481 12.547ZM7.36402 12.2889C7.374 12.217 7.36843 12.1437 7.34769 12.0742C7.32695 12.0046 7.29152 11.9402 7.2438 11.8855C7.19569 11.8304 7.13649 11.786 7.07006 11.7554C7.00364 11.7247 6.93149 11.7083 6.85833 11.7074C6.70874 11.7174 6.56822 11.7827 6.46412 11.8906C6.36074 11.9977 6.3017 12.14 6.29883 12.2889H7.36402Z" fill="#1D1D1B"/>
<path d="M8.16895 10.5648H8.5295V11.8099H8.53776C8.60757 11.6932 8.70815 11.598 8.82848 11.5347C8.94934 11.4711 9.08526 11.4416 9.22163 11.4494C9.34531 11.4549 9.46651 11.486 9.57758 11.5407C9.68866 11.5954 9.7872 11.6725 9.86701 11.7671C9.94682 11.8618 10.0062 11.9719 10.0413 12.0906C10.0764 12.2094 10.0866 12.3341 10.0712 12.4569C10.0864 12.5868 10.0746 12.7184 10.0367 12.8435C9.99875 12.9686 9.93542 13.0846 9.85064 13.1842C9.76586 13.2837 9.66147 13.3647 9.54399 13.4221C9.4265 13.4795 9.29844 13.512 9.1678 13.5177C9.03172 13.525 8.8963 13.4943 8.77662 13.4291C8.6575 13.3642 8.55896 13.2673 8.4922 13.1492H8.48395L8.46737 13.4727H8.15234C8.16061 13.3375 8.16892 13.1369 8.16892 12.9648L8.16895 10.5648ZM8.5295 12.6782C8.52871 12.7224 8.53429 12.7666 8.54608 12.8092C8.57651 12.9302 8.64688 13.0375 8.74581 13.1136C8.84533 13.1902 8.96751 13.2315 9.0931 13.2311C9.47864 13.2311 9.70236 12.9239 9.70236 12.4692C9.70236 12.072 9.49518 11.732 9.10155 11.732C8.9733 11.735 8.84958 11.78 8.74946 11.8602C8.64996 11.9398 8.57988 12.0504 8.55033 12.1744C8.53849 12.2227 8.53153 12.2721 8.52954 12.3218L8.5295 12.6782Z" fill="#1D1D1B"/>
<path d="M10.9434 10.9333C10.944 10.9632 10.9383 10.993 10.9267 11.0206C10.9151 11.0482 10.8979 11.0732 10.8761 11.0939C10.8543 11.1147 10.8284 11.1309 10.8 11.1413C10.7716 11.1517 10.7414 11.1562 10.7112 11.1546C10.6818 11.1557 10.6524 11.1507 10.625 11.1399C10.5976 11.1291 10.5727 11.1127 10.5519 11.0919C10.5313 11.0711 10.5153 11.0463 10.5048 11.0189C10.4944 10.9916 10.4899 10.9625 10.4915 10.9333C10.4903 10.9037 10.4952 10.8742 10.506 10.8466C10.5168 10.8189 10.5331 10.7937 10.5541 10.7727C10.5751 10.7515 10.6003 10.7349 10.628 10.7238C10.6558 10.7127 10.6855 10.7073 10.7154 10.708C10.7455 10.7076 10.7753 10.7131 10.8032 10.7243C10.831 10.7354 10.8563 10.752 10.8776 10.773C10.8988 10.794 10.9156 10.819 10.9269 10.8466C10.9382 10.8741 10.9438 10.9036 10.9434 10.9333ZM10.533 13.4727V11.4944H10.8936V13.4727H10.533Z" fill="#1D1D1B"/>
<path d="M11.9422 10.9211V11.4944H12.4644V11.7647H11.9422V12.8337C11.9422 13.0794 12.0126 13.2187 12.2157 13.2187C12.2869 13.2194 12.3579 13.2111 12.427 13.1942L12.4437 13.4645C12.3393 13.5044 12.2278 13.5225 12.1162 13.5177C12.0437 13.5207 11.9714 13.5088 11.9037 13.4827C11.8359 13.4566 11.7743 13.417 11.7226 13.3661C11.6182 13.2138 11.5698 13.03 11.5857 12.846V11.7647H11.2749V11.4944H11.5857V11.0151L11.9422 10.9211Z" fill="#1D1D1B"/>
<path d="M15.1889 13.3989C15.008 13.4806 14.8113 13.5211 14.6128 13.5177C14.478 13.5246 14.3432 13.503 14.2173 13.4542C14.0914 13.4055 13.9772 13.3307 13.8822 13.2348C13.7879 13.1396 13.7152 13.0253 13.6689 12.8995C13.6226 12.7738 13.6039 12.6396 13.614 12.506C13.6074 12.3644 13.6308 12.2231 13.6827 12.0912C13.7346 11.9594 13.8138 11.84 13.9152 11.741C14.0173 11.6412 14.1391 11.5637 14.2727 11.5135C14.4064 11.4633 14.5491 11.4414 14.6916 11.4493C14.8654 11.4478 15.0376 11.4827 15.1971 11.5517L15.1143 11.8302C14.9838 11.7631 14.8383 11.7307 14.6916 11.7361C14.5938 11.734 14.4965 11.7523 14.4061 11.7899C14.316 11.8273 14.2347 11.8833 14.1676 11.9541C14.1008 12.0247 14.0498 12.1086 14.0178 12.2003C13.9657 12.3359 13.9519 12.4833 13.9779 12.6263C14.0039 12.7692 14.0688 12.9023 14.1654 13.0109C14.2316 13.081 14.3119 13.1364 14.401 13.1735C14.4903 13.2107 14.5864 13.2289 14.6832 13.2268C14.8365 13.2271 14.988 13.1936 15.1268 13.1286L15.1889 13.3989Z" fill="#1D1D1B"/>
<path d="M17.0254 12.9976C17.0236 13.1564 17.0333 13.3152 17.0545 13.4726H16.7271L16.6939 13.2228H16.6856C16.6135 13.3161 16.5207 13.3912 16.4144 13.4422C16.3077 13.4934 16.1906 13.5193 16.0723 13.5177C15.9937 13.5228 15.9149 13.5118 15.8407 13.4855C15.7665 13.4592 15.6984 13.418 15.6407 13.3645C15.5833 13.3114 15.5375 13.2471 15.5063 13.1755C15.475 13.1038 15.4589 13.0265 15.459 12.9484C15.459 12.4692 15.8899 12.207 16.6649 12.2152V12.1702C16.6725 12.1087 16.666 12.0464 16.6459 11.9878C16.6258 11.9292 16.5927 11.876 16.549 11.8322C16.5049 11.788 16.4515 11.7542 16.3927 11.7333C16.3339 11.7124 16.2712 11.705 16.2091 11.7115C16.0248 11.7114 15.844 11.7624 15.6869 11.8588L15.6039 11.6214C15.8038 11.5049 16.0317 11.4454 16.263 11.4493C16.8763 11.4493 17.0255 11.863 17.0255 12.2604L17.0254 12.9976ZM16.6731 12.4651C16.2752 12.4528 15.8236 12.5225 15.8236 12.9074C15.8198 12.9533 15.8261 12.9994 15.842 13.0426C15.8579 13.0858 15.883 13.125 15.9156 13.1575C15.9484 13.1903 15.9878 13.2156 16.0312 13.2317C16.0748 13.248 16.1213 13.2547 16.1677 13.2515C16.274 13.2544 16.3786 13.2238 16.4667 13.1641C16.5543 13.1048 16.6208 13.0192 16.6566 12.9197C16.6659 12.8821 16.6714 12.8437 16.6732 12.805L16.6731 12.4651Z" fill="#1D1D1B"/>
<path d="M17.6152 12.1089C17.6152 11.8755 17.607 11.6789 17.5986 11.4945H17.9177L17.9302 11.8836H17.9425C17.9789 11.7625 18.0523 11.6558 18.1523 11.5784C18.2528 11.5005 18.3749 11.4555 18.502 11.4494C18.5354 11.4475 18.5689 11.4503 18.6016 11.4576V11.7976C18.5622 11.7886 18.5218 11.7844 18.4814 11.7852C18.3569 11.7895 18.2382 11.839 18.1476 11.9246C18.0576 12.0095 18.0023 12.1248 17.9923 12.2482C17.9805 12.3019 17.9749 12.3569 17.9757 12.4119V13.4727H17.6151L17.6152 12.1089Z" fill="#1D1D1B"/>
<path d="M20.6577 10.5648V12.9648C20.6577 13.1368 20.666 13.3334 20.6743 13.4727H20.351L20.3344 13.1287H20.322C20.2588 13.2511 20.1616 13.3527 20.0422 13.4214C19.9221 13.4904 19.7848 13.5239 19.6464 13.5177C19.5219 13.5116 19.3999 13.4802 19.2878 13.4256C19.1761 13.3712 19.0767 13.2945 18.9957 13.2003C18.9151 13.1067 18.8547 12.9974 18.8183 12.8793C18.782 12.7613 18.7704 12.6369 18.7845 12.5142C18.7685 12.3843 18.7795 12.2525 18.8169 12.1271C18.8542 12.0016 18.9171 11.8853 19.0015 11.7853C19.086 11.6853 19.1901 11.6039 19.3075 11.5461C19.4249 11.4882 19.553 11.4553 19.6837 11.4493C19.8023 11.4414 19.9209 11.465 20.0274 11.5176C20.1336 11.5699 20.2238 11.6495 20.289 11.7483H20.2973V10.5647L20.6577 10.5648ZM20.2971 12.2973C20.2971 12.2465 20.2929 12.1958 20.2847 12.1457C20.2567 12.0271 20.189 11.9217 20.0928 11.8469C19.9961 11.7716 19.8768 11.7311 19.7542 11.732C19.377 11.732 19.1491 12.0555 19.1491 12.4939C19.1491 12.8953 19.3521 13.2311 19.7459 13.2311C19.8713 13.2292 19.9925 13.1852 20.0899 13.1063C20.1868 13.0278 20.254 12.9187 20.2804 12.7968C20.2926 12.7459 20.2982 12.6936 20.2971 12.6412V12.2973Z" fill="#1D1D1B"/>
</g>
<defs>
<clipPath id="clip0_10317_147262">
<rect width="24" height="24" fill="white"/>
</clipPath>
</defs>
</svg>
