<svg width="20" height="20" viewBox="0 0 20 20" fill="none" xmlns="http://www.w3.org/2000/svg">
<g clip-path="url(#clip0_10317_146883)">
<path d="M8.6628 7.9378V8.08225H11.3469V7.9378C11.35 7.64139 11.2515 7.35286 11.0677 7.12023C11.2878 6.83039 11.4087 6.47744 11.4126 6.11357C11.4126 6.00306 11.3687 5.89708 11.2906 5.81894C11.2124 5.7408 11.1064 5.6969 10.9959 5.6969C10.8854 5.6969 10.7794 5.7408 10.7013 5.81894C10.6232 5.89708 10.5793 6.00306 10.5793 6.11357C10.5694 6.31022 10.4947 6.49806 10.3667 6.64767C10.128 6.58052 9.87547 6.58076 9.63698 6.64839C9.50663 6.49966 9.43056 6.31112 9.42122 6.11357C9.42122 6.00306 9.37732 5.89708 9.29918 5.81894C9.22104 5.7408 9.11506 5.6969 9.00456 5.6969C8.89405 5.6969 8.78807 5.7408 8.70993 5.81894C8.63179 5.89708 8.58789 6.00306 8.58789 6.11357C8.59117 6.4789 8.71361 6.83318 8.93661 7.12258C8.75675 7.35606 8.66034 7.64309 8.6628 7.9378Z" fill="#171723"/>
<path d="M19.4915 16.9975H18.845C19.1349 16.599 19.2912 16.1212 19.2919 15.6308V4.36922C19.29 3.78796 19.0696 3.22801 18.6735 2.79748C18.6667 2.78837 18.6648 2.77729 18.6573 2.76854C18.6506 2.76071 18.6411 2.75759 18.634 2.75031C18.4109 2.51408 18.1409 2.32558 17.8409 2.19651C17.5408 2.06744 17.217 2.00055 16.8896 2H3.11039C2.47336 2.00088 1.86268 2.25081 1.41233 2.69496C0.961972 3.13911 0.708704 3.74123 0.70808 4.36922V15.6308C0.708797 16.1212 0.865057 16.599 1.15498 16.9975H0.508466C0.373612 16.9975 0.244282 17.0503 0.148926 17.1443C0.0535702 17.2383 0 17.3658 0 17.4987C0 17.6317 0.0535702 17.7592 0.148926 17.8532C0.244282 17.9472 0.373612 18 0.508466 18H19.4915C19.6264 18 19.7557 17.9472 19.8511 17.8532C19.9464 17.7592 20 17.6317 20 17.4987C20 17.3658 19.9464 17.2383 19.8511 17.1443C19.7557 17.0503 19.6264 16.9975 19.4915 16.9975ZM1.72501 4.36922C1.72529 4.007 1.8713 3.65968 2.13102 3.40346C2.39074 3.14724 2.74295 3.00304 3.11039 3.00251H16.8896C17.0822 3.00288 17.2725 3.04319 17.4483 3.1208L11.4101 8.16441C11.3413 8.1455 11.2709 8.13272 11.1998 8.12623C11.1619 8.1239 11.1257 8.12322 11.0914 8.12378H8.91759C8.88345 8.12323 8.8472 8.1239 8.80909 8.12623C8.70232 8.13303 8.59674 8.15221 8.49452 8.18337C8.13795 8.27603 7.82363 8.48481 7.6026 8.77579C7.30879 8.64405 7.05484 8.43916 6.86573 8.18128C6.67663 7.92341 6.5589 7.62144 6.52413 7.30509C6.52413 7.17215 6.47056 7.04466 6.3752 6.95065C6.27984 6.85665 6.15051 6.80384 6.01566 6.80384C5.88081 6.80384 5.75148 6.85665 5.65612 6.95065C5.56076 7.04466 5.50719 7.17215 5.50719 7.30509C5.54088 7.82744 5.72012 8.33049 6.02518 8.75887C6.33023 9.18725 6.74928 9.52434 7.23618 9.73303C7.25219 9.74166 7.26994 9.73885 7.28658 9.74551V10.4761H5.93221C5.79736 10.4761 5.66803 10.5289 5.57267 10.6229C5.47732 10.7169 5.42375 10.8444 5.42375 10.9774C5.42375 11.1103 5.47732 11.2378 5.57267 11.3318C5.66803 11.4258 5.79736 11.4786 5.93221 11.4786H7.28655V11.6087L1.83438 16.1629C1.762 15.9946 1.72481 15.8136 1.72501 15.6308V4.36922ZM13.3282 7.87699C13.1083 8.25229 12.7928 8.56451 12.413 8.78283C12.3906 8.75351 12.3576 8.73559 12.3335 8.70793L13.3282 7.87699ZM3.11039 16.9975C2.9176 16.9971 2.72705 16.9567 2.55115 16.8789L5.70143 14.2475C5.69751 14.3041 5.67804 14.3586 5.67804 14.4156C5.67804 14.5486 5.73161 14.6761 5.82697 14.7701C5.92232 14.8641 6.05165 14.9169 6.1865 14.9169C6.32136 14.9169 6.45069 14.8641 6.54605 14.7701C6.6414 14.6761 6.69497 14.5486 6.69497 14.4156C6.70854 14.1345 6.7859 13.8599 6.92138 13.6121C7.05686 13.3643 7.24699 13.1496 7.47777 12.9838C7.67715 13.4838 8.02498 13.9127 8.47574 14.2146C8.92649 14.5164 9.45918 14.6771 10.0041 14.6756V14.6757H10.005V14.6756C10.5488 14.6771 11.0806 14.5171 11.5309 14.2164C11.9812 13.9157 12.3291 13.4882 12.5294 12.9897C12.7585 13.1553 12.9471 13.3693 13.0815 13.616C13.2159 13.8627 13.2926 14.1359 13.306 14.4156C13.306 14.5486 13.3596 14.6761 13.455 14.7701C13.5503 14.8641 13.6796 14.9169 13.8145 14.9169C13.9493 14.9169 14.0787 14.8641 14.174 14.7701C14.2694 14.6761 14.323 14.5486 14.323 14.4156C14.3053 13.928 14.1662 13.4521 13.918 13.03C13.6699 12.6078 13.3202 12.2522 12.8998 11.9946C12.8461 11.9591 12.7859 11.9341 12.7226 11.921V11.4786H14.0677C14.2026 11.4786 14.3319 11.4258 14.4273 11.3318C14.5226 11.2378 14.5762 11.1103 14.5762 10.9774C14.5762 10.8445 14.5226 10.717 14.4273 10.623C14.3319 10.529 14.2026 10.4761 14.0677 10.4761H12.7225V9.74732C12.7446 9.74315 12.7664 9.7374 12.7876 9.73013C13.2686 9.51426 13.6814 9.17416 13.9822 8.74586C14.2831 8.31757 14.4609 7.81702 14.4967 7.29724C14.4946 7.18694 14.4548 7.08056 14.3838 6.99528L18.1654 3.83659C18.2379 4.00506 18.2752 4.18622 18.275 4.36923V15.6308C18.2747 15.993 18.1287 16.3403 17.869 16.5965C17.6093 16.8528 17.257 16.997 16.8896 16.9975H3.11039Z" fill="#171723"/>
</g>
<defs>
<clipPath id="clip0_10317_146883">
<rect width="20" height="20" fill="white"/>
</clipPath>
</defs>
</svg>
