<svg width="20" height="20" viewBox="0 0 20 20" fill="none" xmlns="http://www.w3.org/2000/svg">
<path d="M6.7517 5.34144V5.68577H13.1494V5.34144C13.1494 4.4782 12.8351 3.8429 12.484 3.39284C13.0175 2.66151 13.3065 1.84677 13.3065 0.993226C13.3065 0.444248 12.8623 1.2095e-05 12.3133 1.2095e-05C11.7643 1.2095e-05 11.3201 0.444236 11.3201 0.993226C11.3201 1.4394 11.1222 1.86229 10.8128 2.26577C10.2415 2.10962 9.64017 2.10283 9.07373 2.26771C8.75947 1.86809 8.55967 1.4452 8.55967 0.993214C8.55967 0.444236 8.11545 0 7.56646 0C7.01747 0 6.57324 0.444224 6.57324 0.993214C6.57324 1.85549 6.86519 2.67216 7.40447 3.39865C6.98255 3.94181 6.7517 4.61399 6.7517 5.34144Z" fill="#171723"/>
<path d="M17.8846 13.1872C18.4336 13.1872 18.8778 12.743 18.8778 12.194C18.8778 11.645 18.4336 11.2008 17.8846 11.2008H15.2599V9.7478C15.2861 9.74198 15.3123 9.74198 15.3375 9.7284C17.483 8.57999 18.7148 6.82636 18.7148 4.91753C18.7148 4.36855 18.2706 3.92432 17.7216 3.92432C17.1726 3.92432 16.7284 4.36854 16.7284 4.91753C16.7284 5.90493 16.0611 6.84769 14.9476 7.60036C14.5499 6.87291 13.806 6.36175 12.9204 6.36175H6.97767C6.08727 6.36175 5.33945 6.87776 4.94372 7.61006C3.82151 6.85546 3.14935 5.90978 3.14935 4.91753C3.14935 4.36855 2.70512 3.92432 2.15613 3.92432C1.60714 3.92432 1.16292 4.36854 1.16292 4.91753C1.16292 6.82636 2.39473 8.57999 4.54022 9.7284C4.57126 9.74488 4.60617 9.74003 4.63819 9.75265V10.6566C4.63237 10.6566 4.62655 10.6586 4.62074 10.6586V11.2008H1.99321C1.44424 11.2008 1 11.645 1 12.194C1 12.743 1.44422 13.1872 1.99321 13.1872H4.62076V14.063C4.50049 14.0902 4.38313 14.1358 4.27449 14.2095C2.50727 15.4219 1.49467 17.1697 1.49467 19.0068C1.49467 19.5557 1.9389 20 2.48789 20C3.03688 20 3.4811 19.5558 3.4811 19.0068C3.4811 17.9806 4.01941 17.0165 4.95539 16.2231C5.67993 18.2948 7.63047 19.7895 9.9486 19.7895C12.2619 19.7895 14.2095 18.3016 14.9379 16.2386C15.8632 17.0291 16.3967 17.9864 16.3967 19.0068C16.3967 19.5557 16.8409 20 17.3899 20C17.9389 20 18.3831 19.5558 18.3831 19.0068C18.3831 17.1697 17.3705 15.4219 15.6033 14.2095C15.4957 14.1358 15.3793 14.0911 15.26 14.064V13.1872L17.8846 13.1872Z" fill="#171723"/>
</svg>
