<svg width="20" height="20" viewBox="0 0 20 20" fill="none" xmlns="http://www.w3.org/2000/svg">
<g clip-path="url(#clip0_19743_1987)">
<path d="M18.1583 4.77915C17.9819 4.69304 17.9055 4.85762 17.8028 4.94165C17.7673 4.96873 17.7375 5.00415 17.7076 5.03609C17.4493 5.31179 17.1479 5.49234 16.7542 5.47082C16.1785 5.43887 15.6868 5.61943 15.2521 6.05971C15.1597 5.51665 14.8528 5.19304 14.3861 4.98471C14.1417 4.87637 13.8944 4.76873 13.7229 4.53332C13.6035 4.36596 13.5708 4.17915 13.5111 3.99582C13.4729 3.88471 13.4347 3.77151 13.3076 3.75276C13.1687 3.73123 13.1146 3.84721 13.0604 3.94443C12.843 4.34165 12.759 4.77915 12.7673 5.22221C12.7861 6.21943 13.2069 7.01387 14.0437 7.57846C14.1389 7.64304 14.1632 7.70832 14.1333 7.80276C14.0764 7.99721 14.0083 8.18609 13.9486 8.38123C13.9104 8.50554 13.8535 8.53193 13.7201 8.47846C13.2696 8.28484 12.8604 8.00667 12.5146 7.65901C11.9194 7.08401 11.3819 6.44929 10.7111 5.95207C10.5557 5.83722 10.3961 5.72812 10.2326 5.62498C9.5486 4.9604 10.3229 4.41457 10.5021 4.34998C10.6896 4.28193 10.5667 4.04998 9.9611 4.05276C9.35554 4.05554 8.80137 4.25762 8.09512 4.52776C7.99017 4.56798 7.8822 4.59979 7.77221 4.6229C7.11223 4.49855 6.43724 4.47467 5.77012 4.55207C4.4611 4.6979 3.41596 5.31734 2.64721 6.37359C1.7236 7.64304 1.50624 9.08609 1.77221 10.5903C2.05207 12.1764 2.86179 13.4896 4.10554 14.516C5.39582 15.5805 6.88123 16.1021 8.57637 16.0021C9.60554 15.943 10.7521 15.8048 12.0444 14.7104C12.3708 14.8729 12.7125 14.9375 13.2805 14.9861C13.718 15.0271 14.1389 14.9653 14.4646 14.8972C14.975 14.7889 14.9396 14.316 14.7555 14.2298C13.259 13.5326 13.5875 13.8167 13.2882 13.5868C14.0493 12.6868 15.1951 11.7521 15.6437 8.72359C15.6785 8.48262 15.6486 8.33123 15.6437 8.13679C15.641 8.01873 15.668 7.97221 15.8035 7.95901C16.1792 7.92003 16.5437 7.80798 16.8764 7.62915C17.8458 7.09929 18.2375 6.22984 18.3298 5.18679C18.3437 5.02707 18.3271 4.86318 18.1583 4.77915ZM9.70901 14.1666C8.25832 13.0264 7.55485 12.6507 7.26457 12.6666C6.99235 12.6833 7.04165 12.9937 7.10137 13.1965C7.16387 13.3965 7.24512 13.534 7.35901 13.7097C7.43818 13.8257 7.49235 13.9986 7.28054 14.1285C6.81318 14.4173 6.00137 14.0312 5.96318 14.0125C5.01804 13.4555 4.22707 12.7208 3.67082 11.716C3.13332 10.7486 2.82082 9.71109 2.76943 8.60346C2.75554 8.3354 2.83401 8.24096 3.10068 8.19234C3.45076 8.12535 3.80945 8.1162 4.16249 8.16526C5.64304 8.38193 6.90276 9.04373 7.95971 10.0917C8.56248 10.6889 9.01874 11.4021 9.48887 12.0993C9.98887 12.8396 10.5264 13.5451 11.2111 14.1229C11.4528 14.3257 11.6451 14.4798 11.8298 14.593C11.2729 14.6555 10.3437 14.6694 9.70901 14.1666ZM10.4035 9.69443C10.4033 9.65993 10.4116 9.62592 10.4276 9.59534C10.4435 9.56476 10.4667 9.53853 10.4951 9.51891C10.5235 9.49928 10.5562 9.48687 10.5904 9.48272C10.6247 9.47858 10.6594 9.48283 10.6917 9.49512C10.7327 9.50986 10.7682 9.53705 10.7931 9.5729C10.818 9.60875 10.8311 9.65148 10.8305 9.69512C10.8306 9.72332 10.8251 9.75126 10.8143 9.7773C10.8035 9.80335 10.7876 9.82698 10.7676 9.84682C10.7475 9.86667 10.7237 9.88232 10.6976 9.89288C10.6714 9.90344 10.6435 9.90869 10.6153 9.90832C10.5873 9.90841 10.5596 9.90293 10.5337 9.89218C10.5079 9.88143 10.4844 9.86563 10.4648 9.84571C10.4451 9.8258 10.4296 9.80216 10.4192 9.77618C10.4088 9.7502 10.403 9.72241 10.4035 9.69443ZM12.5632 10.8028C12.4243 10.859 12.2861 10.9076 12.1535 10.9139C11.9539 10.9208 11.7581 10.8585 11.5993 10.7375C11.409 10.5778 11.2729 10.4889 11.216 10.2111C11.1963 10.0753 11.2001 9.93724 11.2271 9.80276C11.2757 9.57568 11.2215 9.42984 11.0611 9.2979C10.9312 9.18957 10.7653 9.15971 10.5833 9.15971C10.521 9.15609 10.4605 9.13751 10.4069 9.10554C10.3305 9.06804 10.268 8.97359 10.3278 8.85693C10.3472 8.81943 10.4389 8.72776 10.4611 8.71109C10.7083 8.57082 10.9937 8.61665 11.2569 8.72221C11.5014 8.82221 11.6861 9.00554 11.9521 9.26526C12.2236 9.57846 12.2729 9.66526 12.4278 9.89998C12.55 10.084 12.6611 10.2729 12.7368 10.4889C12.7833 10.6243 12.7236 10.7347 12.5632 10.8028Z" fill="#4D6BFE"/>
</g>
<defs>
<clipPath id="clip0_19743_1987">
<rect width="16.6667" height="16.6667" fill="white" transform="translate(1.66663 1.66669)"/>
</clipPath>
</defs>
</svg>
