<svg width="20" height="20" viewBox="0 0 20 20" fill="none" xmlns="http://www.w3.org/2000/svg">
<path d="M18.0164 3.03996C17.8141 2.83081 17.5399 2.71281 17.2534 2.71281H13.9258V1.11735C13.9254 0.821125 13.8118 0.537108 13.6092 0.327558C13.407 0.118 13.1327 0.000408333 12.8463 0H7.15373C6.86727 0.000408333 6.59302 0.118 6.39038 0.327558C6.18815 0.537108 6.07422 0.821133 6.07381 1.11735V2.71281H2.74618C2.46013 2.71281 2.18588 2.83081 1.98324 3.03996C1.78101 3.24951 1.66708 3.53313 1.66667 3.82935V5.32431C1.66708 5.62094 1.78142 5.90537 1.98446 6.11492C2.18751 6.32447 2.46257 6.44207 2.74944 6.44166L2.97283 6.44044V15.8399C2.97405 16.943 3.39804 18.0001 4.15162 18.7801C4.90561 19.5602 5.92734 19.9988 6.99342 20H13.0095C14.0751 19.9984 15.0969 19.5598 15.8504 18.7801C16.604 18.0001 17.0276 16.9426 17.0288 15.8399V6.35417L17.2534 6.35295C17.3906 6.36353 17.5285 6.34481 17.6583 6.29802C17.7885 6.25123 17.9077 6.17717 18.009 6.08073C18.11 5.9843 18.1909 5.86752 18.2467 5.73731C18.3028 5.60751 18.3321 5.46672 18.3333 5.3243V3.82934C18.3329 3.53312 18.219 3.24952 18.0164 3.03996ZM9.16666 14.4959C9.16666 14.5622 9.15568 14.6277 9.13492 14.6887C9.11417 14.7502 9.08325 14.8055 9.04459 14.8523C9.00593 14.8995 8.95996 14.9365 8.9095 14.9618C8.85863 14.987 8.80451 15 8.74999 15C8.69506 15 8.64094 14.987 8.59048 14.9618C8.53961 14.9365 8.49405 14.8995 8.45539 14.8523C8.41632 14.8055 8.38581 14.7502 8.36506 14.6887C8.3439 14.6277 8.33331 14.5622 8.33331 14.4959V9.67082C8.33331 9.53695 8.37726 9.40878 8.45538 9.31438C8.53351 9.21957 8.6393 9.16667 8.74998 9.16667C8.86025 9.16667 8.96646 9.21957 9.04458 9.31438C9.12271 9.40878 9.16665 9.53695 9.16665 9.67082L9.16666 14.4959ZM11.6667 14.4959C11.6667 14.5622 11.6557 14.6277 11.6349 14.6887C11.6142 14.7502 11.5832 14.8055 11.5446 14.8523C11.5059 14.8995 11.46 14.9365 11.4095 14.9618C11.3586 14.987 11.3045 15 11.25 15C11.1951 15 11.1409 14.987 11.0905 14.9618C11.0396 14.9365 10.994 14.8995 10.9554 14.8523C10.9163 14.8055 10.8858 14.7502 10.8651 14.6887C10.8439 14.6277 10.8333 14.5622 10.8333 14.4959V9.67082C10.8333 9.53695 10.8773 9.40878 10.9554 9.31438C11.0335 9.21957 11.1393 9.16667 11.25 9.16667C11.3602 9.16667 11.4665 9.21957 11.5446 9.31438C11.6227 9.40878 11.6666 9.53695 11.6666 9.67082L11.6667 14.4959Z" fill="#171723"/>
</svg>
