<svg width="20" height="20" viewBox="0 0 20 20" fill="none" xmlns="http://www.w3.org/2000/svg">
<g clip-path="url(#clip0_5313_35033)">
<path d="M11.5 15C11.5657 15.0001 11.6307 14.9866 11.6914 14.9606C11.7521 14.9346 11.8072 14.8964 11.8536 14.8483C11.9001 14.8001 11.9369 14.743 11.962 14.68C11.9871 14.6171 12 14.5497 12 14.4816V9.51839C12 9.38092 11.9473 9.24904 11.8535 9.15189C11.7598 9.05464 11.6326 9 11.5 9C11.3674 9 11.2402 9.05464 11.1464 9.15189C11.0527 9.24904 11 9.38092 11 9.51839V14.4816C11 14.5497 11.0129 14.6171 11.038 14.68C11.0631 14.743 11.0999 14.8001 11.1464 14.8483C11.1928 14.8964 11.2479 14.9346 11.3086 14.9606C11.3693 14.9866 11.4343 15.0001 11.5 15Z" fill="#171723"/>
<path d="M8.5 15C8.5657 15.0001 8.6307 14.9866 8.6914 14.9606C8.7521 14.9346 8.8072 14.8964 8.8536 14.8483C8.9001 14.8001 8.9369 14.743 8.962 14.68C8.9871 14.6171 9 14.5497 9 14.4816V9.51839C9 9.38092 8.9473 9.24904 8.8536 9.15189C8.7598 9.05464 8.6326 9 8.5 9C8.3674 9 8.2402 9.05464 8.1465 9.15189C8.0527 9.24904 8 9.38092 8 9.51839V14.4816C8 14.5497 8.0129 14.6171 8.038 14.68C8.0631 14.743 8.0999 14.8001 8.1464 14.8483C8.1928 14.8964 8.2479 14.9346 8.3086 14.9606C8.3693 14.9866 8.4343 15.0001 8.5 15Z" fill="#171723"/>
<path d="M17.8339 2.71267H14.2401V1.11724C14.2397 0.82105 14.1167 0.537092 13.8981 0.327645C13.6795 0.118198 13.3831 0.000376265 13.0739 0H6.92605C6.61689 0.000376265 6.3205 0.118198 6.10188 0.327645C5.88328 0.537092 5.7603 0.82105 5.75992 1.11724V2.71267H2.16614C1.85705 2.713 1.56072 2.83075 1.34213 3.04009C1.12352 3.24942 1.00049 3.53328 1 3.82939V5.32449C1.00054 5.62116 1.124 5.90549 1.34325 6.11498C1.56249 6.32448 1.85959 6.44202 2.16925 6.44176L2.41077 6.44038V15.8399C2.41201 16.9429 2.86989 18.0003 3.68394 18.7802C4.49798 19.5602 5.60172 19.9988 6.75295 20H13.2501C14.4012 19.9986 15.5048 19.5599 16.3186 18.78C17.1324 18.0001 17.5901 16.9427 17.5912 15.8399V6.35422L17.8339 6.35285C17.982 6.36341 18.1309 6.34473 18.2712 6.29795C18.4115 6.25117 18.5403 6.17729 18.6496 6.0809C18.7589 5.98449 18.8464 5.86763 18.9067 5.73752C18.967 5.60741 18.9987 5.46683 19 5.32449V3.82939C18.9995 3.53328 18.8764 3.24942 18.6579 3.04009C18.4392 2.83075 18.143 2.713 17.8339 2.71267ZM6.82136 1.11724C6.82137 1.09065 6.8324 1.06514 6.85204 1.04633C6.87166 1.02752 6.89829 1.01695 6.92605 1.01693H13.0739C13.1018 1.01695 13.1283 1.02752 13.1479 1.04633C13.1676 1.06514 13.1786 1.09065 13.1786 1.11724V2.71267H6.82136V1.11724ZM16.5299 15.8399C16.5291 16.6731 16.1832 17.472 15.5685 18.0612C14.9536 18.6505 14.1198 18.9821 13.2501 18.9831H6.75295C5.88316 18.9821 5.04931 18.6506 4.43428 18.0613C3.81924 17.4721 3.47326 16.6732 3.47221 15.8399V6.43431L16.5299 6.36021V15.8399ZM17.8307 5.33591L17.095 5.34007C17.083 5.33927 17.0728 5.33343 17.0606 5.33343C17.0476 5.33343 17.0369 5.33964 17.024 5.34055L2.16614 5.42482C2.13837 5.42481 2.11174 5.41424 2.09211 5.39542C2.07247 5.37661 2.06145 5.3511 2.06145 5.32449V3.82939C2.06146 3.81625 2.06418 3.80324 2.06946 3.79111C2.07474 3.77897 2.08245 3.76796 2.09218 3.75869C2.1019 3.74942 2.11344 3.74208 2.12613 3.73708C2.13883 3.7321 2.15241 3.72956 2.16614 3.7296H17.8339C17.8476 3.72956 17.8612 3.7321 17.8739 3.73709C17.8865 3.74209 17.8981 3.74943 17.9078 3.75869C17.9175 3.76797 17.9253 3.77899 17.9305 3.79112C17.9358 3.80325 17.9386 3.81627 17.9386 3.82941L17.952 5.31311C17.9145 5.331 17.8725 5.33888 17.8307 5.33591Z" fill="#171723"/>
</g>
<defs>
<clipPath id="clip0_5313_35033">
<rect width="20" height="20" fill="white"/>
</clipPath>
</defs>
</svg>
