<svg width="20" height="20" viewBox="0 0 20 20" fill="none" xmlns="http://www.w3.org/2000/svg">
<path d="M2.04142 8.81256L5.54142 5.31256C5.73587 5.11811 5.96503 4.97922 6.22892 4.89589C6.49281 4.81256 6.76364 4.79867 7.04142 4.85422L8.12476 5.08339C7.37476 5.97228 6.78448 6.77783 6.35392 7.50006C5.92337 8.22228 5.5067 9.09728 5.10392 10.1251L2.04142 8.81256ZM6.31226 10.7084C6.6317 9.70839 7.06573 8.76395 7.61434 7.87506C8.16295 6.98617 8.82614 6.15283 9.60392 5.37506C10.8261 4.15283 12.222 3.23964 13.7914 2.63547C15.3609 2.03131 16.8261 1.84728 18.1873 2.08339C18.4234 3.4445 18.2428 4.90978 17.6456 6.47922C17.0484 8.04867 16.1386 9.4445 14.9164 10.6667C14.1525 11.4306 13.3192 12.0938 12.4164 12.6563C11.5136 13.2188 10.5623 13.6598 9.56226 13.9792L6.31226 10.7084ZM12.0623 8.20839C12.3817 8.52783 12.7741 8.68756 13.2393 8.68756C13.7046 8.68756 14.097 8.52783 14.4164 8.20839C14.7359 7.88895 14.8956 7.49658 14.8956 7.03131C14.8956 6.56603 14.7359 6.17367 14.4164 5.85422C14.097 5.53478 13.7046 5.37506 13.2393 5.37506C12.7741 5.37506 12.3817 5.53478 12.0623 5.85422C11.7428 6.17367 11.5831 6.56603 11.5831 7.03131C11.5831 7.49658 11.7428 7.88895 12.0623 8.20839ZM11.4789 18.2292L10.1456 15.1667C11.1734 14.7639 12.0518 14.3473 12.781 13.9167C13.5102 13.4862 14.3192 12.8959 15.2081 12.1459L15.4164 13.2292C15.472 13.507 15.4581 13.7813 15.3748 14.0521C15.2914 14.323 15.1525 14.5556 14.9581 14.7501L11.4789 18.2292ZM3.37476 13.3751C3.86087 12.8889 4.45114 12.6424 5.14559 12.6355C5.84003 12.6285 6.43031 12.8681 6.91642 13.3542C7.40253 13.8403 7.64559 14.4306 7.64559 15.1251C7.64559 15.8195 7.40253 16.4098 6.91642 16.8959C6.5692 17.2431 5.98934 17.5417 5.17684 17.7917C4.36434 18.0417 3.24281 18.2639 1.81226 18.4584C2.0067 17.0278 2.22892 15.9098 2.47892 15.1042C2.72892 14.2987 3.02753 13.7223 3.37476 13.3751Z" fill="#171723"/>
</svg>
