<svg width="20" height="20" viewBox="0 0 20 20" fill="none" xmlns="http://www.w3.org/2000/svg">
<path d="M5.20833 11.8958H11.7917V10.8125H5.20833V11.8958ZM5.20833 9.14583H14.7917V8.0625H5.20833V9.14583ZM5.20833 6.39583H14.7917V5.3125H5.20833V6.39583ZM10 17.5833L8.16021 14.7917H3.75646C3.38799 14.7917 3.07257 14.6605 2.81021 14.3981C2.54785 14.1358 2.41667 13.8203 2.41667 13.4519V3.75646C2.41667 3.38799 2.54785 3.07257 2.81021 2.81021C3.07257 2.54785 3.38799 2.41667 3.75646 2.41667H16.2435C16.612 2.41667 16.9274 2.54785 17.1898 2.81021C17.4522 3.07257 17.5833 3.38799 17.5833 3.75646V13.4519C17.5833 13.8203 17.4522 14.1358 17.1898 14.3981C16.9274 14.6605 16.612 14.7917 16.2435 14.7917H11.8398L10 17.5833ZM10 15.6202L11.2725 13.7083H16.2435C16.3184 13.7083 16.3799 13.6843 16.4279 13.6363C16.476 13.5882 16.5 13.5267 16.5 13.4519V3.75646C16.5 3.6816 16.476 3.62014 16.4279 3.57209C16.3799 3.52403 16.3184 3.5 16.2435 3.5H3.75646C3.6816 3.5 3.62014 3.52403 3.57208 3.57209C3.52403 3.62014 3.5 3.6816 3.5 3.75646V13.4519C3.5 13.5267 3.52403 13.5882 3.57208 13.6363C3.62014 13.6843 3.6816 13.7083 3.75646 13.7083H8.7275L10 15.6202Z" fill="#171723"/>
</svg>
