<svg width="20" height="20" viewBox="0 0 20 20" fill="none" xmlns="http://www.w3.org/2000/svg">
<g clip-path="url(#clip0_17248_64406)">
<path d="M19.9991 2.96095V2.63289C19.9991 1.18098 18.7588 0 17.2334 0H9.16581C7.64044 0 6.40018 1.18098 6.40018 2.63289V2.95782C6.40018 2.96005 6.39878 2.96184 6.39878 2.96407C6.39878 2.96631 6.40018 2.96809 6.40018 2.97033V5.82326C6.19339 5.78755 5.98332 5.76212 5.76527 5.76212C5.47643 5.76212 5.19742 5.79916 4.92686 5.85808C4.92686 5.85808 4.18739 6.05223 3.93792 6.23032C2.82614 6.8217 2.06228 7.92146 2.00366 9.20421C2.00366 9.20421 1.93943 9.85227 2.16965 10.4048C2.42662 11.2002 2.94945 11.8858 3.65892 12.3415C3.01697 12.582 2.41724 12.9284 1.88737 13.3868C0.973928 14.1772 0.360124 15.2243 0.117698 16.3593L0.00562753 17.3528C0.00422545 17.385 0 17.4158 0 17.4479V18.3039C0 19.239 0.799023 20 1.78139 20H9.7482C10.7306 20 11.5296 19.239 11.5296 18.3039V17.6621C11.5296 17.5568 11.5057 17.4568 11.4996 17.3528L11.357 16.3593C11.0114 14.9275 10.1121 13.7036 8.89758 12.9141C8.98762 12.923 9.07296 12.944 9.1658 12.944H17.2334C18.7588 12.944 19.9991 11.763 19.9991 10.3115V2.96719C19.9991 2.9663 20 2.96496 20 2.96407C20 2.96317 19.9991 2.96184 19.9991 2.96095ZM3.03057 9.35818C3.03057 8.28207 3.72034 7.35684 4.70084 6.96094C4.71537 6.95514 4.73225 6.9538 4.74586 6.9471C5.06143 6.8257 5.40421 6.75518 5.76527 6.75518C6.12258 6.75518 6.46113 6.82526 6.77436 6.94398C6.79312 6.95379 6.81469 6.95647 6.83532 6.96406C7.81207 7.36129 8.49855 8.2843 8.49855 9.35817C8.49855 10.7931 7.27234 11.9607 5.76527 11.9607C4.25772 11.9607 3.03057 10.7931 3.03057 9.35818ZM10.4858 17.6621V18.3039C10.4858 18.6914 10.1547 19.0069 9.74819 19.0069H1.78139C1.37485 19.0069 1.04333 18.6914 1.04333 18.3039V17.4479C1.04333 16.1843 1.60696 14.9721 2.58933 14.1218C3.46994 13.36 4.58079 12.9534 5.76011 12.9534C5.76198 12.9534 5.76339 12.9538 5.76527 12.9538H5.76714C5.92047 12.9538 6.07568 12.9609 6.22995 12.9748C8.61671 13.1917 10.4858 15.2506 10.4858 17.6621ZM19.3079 10.3115C19.3079 11.4001 18.3771 12.2857 17.2334 12.2857H9.16579C8.82677 12.2857 8.51588 12.1968 8.23735 12.0558C8.75643 11.6202 9.14938 11.0551 9.35851 10.408C9.5367 9.96118 9.52358 9.18501 9.52358 9.18501C9.4584 7.90852 8.69594 6.81545 7.58697 6.22809C7.50116 6.17096 7.2939 6.09107 7.09134 6.01965V3.29303H19.3079V10.3115ZM19.3079 2.63512H7.09135V2.63289C7.09135 1.54385 8.02214 0.658331 9.16581 0.658331H17.2334C18.3771 0.658331 19.3079 1.54385 19.3079 2.63289L19.3079 2.63512Z" fill="#171723"/>
<path d="M15.6756 9.38044C15.7262 9.42731 15.7919 9.45096 15.8575 9.45096C15.9251 9.45096 15.9931 9.42641 16.0437 9.37643L17.7787 7.68796C17.879 7.59022 17.8771 7.43356 17.7745 7.3376L16.0428 5.72456C15.9396 5.62994 15.775 5.63083 15.6747 5.72858C15.5739 5.82632 15.5757 5.98298 15.6784 6.07894L17.2244 7.5188L15.6714 9.03007C15.5706 9.12782 15.5729 9.28448 15.6756 9.38044Z" fill="#171723"/>
<path d="M10.8087 9.37643C10.8594 9.42642 10.9269 9.45096 10.9944 9.45096C11.0601 9.45096 11.1257 9.42731 11.1768 9.38044C11.2795 9.28448 11.2814 9.12782 11.1806 9.03007L9.62847 7.5188L11.1735 6.07894C11.2762 5.98298 11.2786 5.82632 11.1778 5.72858C11.0779 5.63083 10.9123 5.62994 10.8097 5.72456L9.07845 7.3376C8.97576 7.43356 8.9734 7.59022 9.07423 7.68796L10.8087 9.37643Z" fill="#171723"/>
<path d="M11.9381 11.105C12.0389 11.105 12.135 11.0488 12.1777 10.9551L15.1534 4.34582C15.2097 4.21995 15.1487 4.07445 15.0165 4.02C14.8847 3.96644 14.7319 4.02401 14.6742 4.15033L11.6989 10.7596C11.6422 10.8854 11.7032 11.0309 11.8354 11.0854C11.8692 11.0988 11.9039 11.105 11.9381 11.105Z" fill="#171723"/>
</g>
<defs>
<clipPath id="clip0_17248_64406">
<rect width="20" height="20" fill="white"/>
</clipPath>
</defs>
</svg>
