<svg width="20" height="20" viewBox="0 0 20 20" fill="none" xmlns="http://www.w3.org/2000/svg">
<path d="M16.2248 2.89155C16.4689 2.64748 16.8645 2.64748 17.1086 2.89155C17.3526 3.13564 17.3526 3.53129 17.1086 3.77534L13.1755 7.70845H15C15.3452 7.70845 15.625 7.98827 15.625 8.33345C15.625 8.6786 15.3452 8.95845 15 8.95845H11.6667C11.6289 8.95845 11.592 8.9543 11.556 8.94787C11.5514 8.94704 11.5468 8.94636 11.5422 8.94543C11.531 8.94317 11.5205 8.9385 11.5096 8.93566C11.4819 8.92847 11.4541 8.92149 11.4274 8.91043C11.4031 8.90036 11.3809 8.88675 11.3582 8.87381C11.311 8.84682 11.2651 8.81566 11.2248 8.77534C11.1981 8.74868 11.1748 8.71978 11.154 8.68989C11.1284 8.65314 11.1062 8.61382 11.0889 8.57189C11.0716 8.52999 11.0592 8.48657 11.0514 8.4425C11.0452 8.40707 11.0417 8.37066 11.0417 8.33345V5.00012C11.0417 4.65494 11.3215 4.37512 11.6667 4.37512C12.0119 4.37512 12.2917 4.65494 12.2917 5.00012V6.82466L16.2248 2.89155Z" fill="#171723"/>
<path d="M8.33339 11.0417C8.3706 11.0417 8.40701 11.0453 8.44244 11.0515C8.44731 11.0524 8.45223 11.053 8.45709 11.0539C8.46823 11.0562 8.47871 11.0609 8.48964 11.0637C8.51733 11.0709 8.54514 11.0779 8.57183 11.0889C8.61376 11.1063 8.65308 11.1284 8.68983 11.154C8.71972 11.1749 8.74862 11.1982 8.77528 11.2248C8.8156 11.2652 8.84676 11.3111 8.87375 11.3583C8.88669 11.3809 8.90029 11.4032 8.91037 11.4275C8.92763 11.4691 8.93996 11.5122 8.94781 11.5561C8.95424 11.592 8.95839 11.6289 8.95839 11.6667V15.0001C8.95839 15.3452 8.67854 15.625 8.33339 15.6251C7.98821 15.6251 7.70839 15.3452 7.70839 15.0001V13.1755L3.77528 17.1086C3.53123 17.3527 3.13558 17.3526 2.89149 17.1086C2.64742 16.8646 2.64742 16.4689 2.89149 16.2248L6.8246 12.2917H5.00005C4.65488 12.2917 4.37505 12.0119 4.37505 11.6667C4.37505 11.3216 4.65488 11.0417 5.00005 11.0417H8.33339Z" fill="#171723"/>
</svg>
