<svg width="20" height="20" viewBox="0 0 20 20" fill="none" xmlns="http://www.w3.org/2000/svg">
<path d="M16.6668 2.70837C16.704 2.70838 16.7404 2.7119 16.7758 2.71814C16.7807 2.719 16.7856 2.7196 16.7905 2.72058C16.8016 2.72282 16.8121 2.72752 16.823 2.73035C16.8507 2.7375 16.8785 2.74457 16.9052 2.75557C16.9471 2.7729 16.9864 2.79508 17.0232 2.82068C17.0531 2.84152 17.082 2.86482 17.1086 2.89148C17.149 2.93181 17.1801 2.97771 17.2071 3.02494C17.2201 3.04756 17.2337 3.06984 17.2437 3.09412C17.261 3.13578 17.2733 3.17887 17.2812 3.2227C17.2876 3.25866 17.2918 3.29556 17.2918 3.33337V6.66671C17.2918 7.01187 17.0119 7.29168 16.6668 7.29171C16.3216 7.29171 16.0418 7.01189 16.0418 6.66671V4.84216L12.1086 8.77527C11.8646 9.01932 11.4689 9.01928 11.2249 8.77527C10.9808 8.53119 10.9808 8.13556 11.2249 7.89148L15.158 3.95837H13.3334C12.9882 3.95837 12.7084 3.67855 12.7084 3.33337C12.7084 2.9882 12.9882 2.70837 13.3334 2.70837H16.6668Z" fill="#171723"/>
<path d="M7.89148 11.2249C8.13556 10.9808 8.53119 10.9808 8.77527 11.2249C9.01928 11.4689 9.01932 11.8646 8.77527 12.1086L4.84216 16.0418H6.66671C7.01189 16.0418 7.29171 16.3216 7.29171 16.6668C7.29168 17.0119 7.01187 17.2918 6.66671 17.2918H3.33337C3.29556 17.2918 3.25866 17.2876 3.2227 17.2812C3.21809 17.2803 3.21346 17.2797 3.20886 17.2787C3.19771 17.2765 3.18724 17.2718 3.17631 17.269C3.14861 17.2618 3.12081 17.2548 3.09412 17.2437C3.06984 17.2337 3.04756 17.2201 3.02494 17.2071C2.97771 17.1801 2.93181 17.149 2.89148 17.1086C2.86482 17.082 2.84152 17.0531 2.82068 17.0232C2.79508 16.9864 2.7729 16.9471 2.75557 16.9052C2.73829 16.8633 2.72592 16.8199 2.71814 16.7758C2.7119 16.7404 2.70838 16.704 2.70837 16.6668V13.3334C2.70837 12.9882 2.9882 12.7084 3.33337 12.7084C3.67855 12.7084 3.95837 12.9882 3.95837 13.3334V15.158L7.89148 11.2249Z" fill="#171723"/>
</svg>
