<svg width="20" height="20" viewBox="0 0 20 20" fill="none" xmlns="http://www.w3.org/2000/svg">
<path fill-rule="evenodd" clip-rule="evenodd" d="M15.0004 2.70836C15.608 2.70844 16.1908 2.95054 16.6205 3.38023C17.05 3.80997 17.2914 4.39272 17.2914 5.00035V11.6664C17.2914 12.2742 17.0502 12.8577 16.6205 13.2875C16.1908 13.7171 15.6079 13.9583 15.0004 13.9584H13.9584V15.0004C13.9583 15.6079 13.7171 16.1908 13.2875 16.6205C12.8577 17.0502 12.2742 17.2914 11.6664 17.2914H5.00035C4.39272 17.2914 3.80997 17.05 3.38023 16.6205C2.95054 16.1908 2.70844 15.608 2.70836 15.0004V8.33336C2.70836 7.72557 2.95046 7.14301 3.38023 6.71324C3.80999 6.28357 4.39264 6.04137 5.00035 6.04137H6.04137V5.00035C6.04137 4.39264 6.28357 3.80999 6.71324 3.38023C7.14301 2.95046 7.72557 2.70836 8.33336 2.70836H15.0004ZM6.66637 11.0414C6.32139 11.0415 6.04151 11.3214 6.04137 11.6664V13.3334C6.0414 13.6784 6.32133 13.9582 6.66637 13.9584H8.33336C8.67848 13.9583 8.95832 13.6785 8.95836 13.3334C8.95836 12.9882 8.67851 12.7084 8.33336 12.7084H7.29137V11.6664C7.29123 11.3213 7.01146 11.0414 6.66637 11.0414ZM13.3334 11.0414C12.9883 11.0414 12.7085 11.3213 12.7084 11.6664V12.7084H11.6664C11.3213 12.7085 11.0414 12.9883 11.0414 13.3334C11.0414 13.6784 11.3213 13.9582 11.6664 13.9584H13.3334C13.6567 13.9583 13.9232 13.7127 13.9554 13.3978L13.9584 13.3334V11.6664C13.9582 11.3213 13.6784 11.0414 13.3334 11.0414ZM6.66637 6.04137C6.32139 6.04151 6.04151 6.32139 6.04137 6.66637V8.33336C6.0414 8.67842 6.32133 8.95822 6.66637 8.95836C7.01152 8.95836 7.29133 8.67851 7.29137 8.33336V7.29137H8.33336C8.67851 7.29133 8.95836 7.01152 8.95836 6.66637C8.95822 6.32133 8.67842 6.0414 8.33336 6.04137H6.66637ZM11.6664 6.04137C11.3214 6.04151 11.0415 6.32139 11.0414 6.66637C11.0414 7.01146 11.3213 7.29123 11.6664 7.29137H12.7084V8.33336C12.7084 8.67851 12.9882 8.95836 13.3334 8.95836C13.6785 8.95832 13.9583 8.67848 13.9584 8.33336V6.66637C13.9582 6.3431 13.7126 6.07757 13.3978 6.04527L13.3334 6.04137H11.6664Z" fill="#171723"/>
</svg>
