<svg width="20" height="20" viewBox="0 0 20 20" fill="none" xmlns="http://www.w3.org/2000/svg">
<path d="M6.04169 11.6667C6.04169 11.3215 6.32151 11.0417 6.66669 11.0417C7.01187 11.0417 7.29169 11.3215 7.29169 11.6667V12.7084H8.33336C8.67854 12.7084 8.95836 12.9882 8.95836 13.3334C8.95836 13.6785 8.67854 13.9584 8.33336 13.9584H6.66669C6.32151 13.9584 6.04169 13.6785 6.04169 13.3334V11.6667Z" fill="#171723"/>
<path d="M12.7084 8.33336V7.29169H11.6667C11.3215 7.29169 11.0417 7.01187 11.0417 6.66669C11.0417 6.32151 11.3215 6.04169 11.6667 6.04169H13.3334L13.3976 6.04495C13.7126 6.07713 13.9584 6.34322 13.9584 6.66669V8.33336C13.9584 8.67854 13.6785 8.95836 13.3334 8.95836C12.9882 8.95836 12.7084 8.67854 12.7084 8.33336Z" fill="#171723"/>
<path fill-rule="evenodd" clip-rule="evenodd" d="M17.2917 11.6667C17.2917 12.2745 17.0501 12.8572 16.6203 13.287C16.1905 13.7167 15.6078 13.9584 15 13.9584H13.9584V15C13.9584 15.6078 13.7167 16.1905 13.287 16.6203C12.8572 17.0501 12.2745 17.2917 11.6667 17.2917H5.00003C4.39224 17.2917 3.80952 17.0501 3.37975 16.6203C2.94997 16.1905 2.70836 15.6078 2.70836 15V8.33336C2.70836 7.72557 2.94997 7.14285 3.37975 6.71308C3.80952 6.28331 4.39224 6.04169 5.00003 6.04169H6.04169V5.00003C6.04169 4.39224 6.28331 3.80952 6.71308 3.37975C7.14285 2.94997 7.72557 2.70836 8.33336 2.70836H15C15.6078 2.70836 16.1905 2.94997 16.6203 3.37975C17.0501 3.80952 17.2917 4.39224 17.2917 5.00003V11.6667ZM15.7365 4.26353C15.9319 4.45889 16.0417 4.72376 16.0417 5.00003V11.6667C16.0417 11.943 15.9319 12.2078 15.7365 12.4032C15.5412 12.5985 15.2763 12.7084 15 12.7084H13.9584V11.6667C13.9584 11.3215 13.6785 11.0417 13.3334 11.0417C12.9882 11.0417 12.7084 11.3215 12.7084 11.6667V12.7084H11.6667C11.3215 12.7084 11.0417 12.9882 11.0417 13.3334C11.0417 13.6785 11.3215 13.9584 11.6667 13.9584H12.7084V15C12.7084 15.2763 12.5985 15.5412 12.4032 15.7365C12.2078 15.9319 11.943 16.0417 11.6667 16.0417H5.00003C4.72376 16.0417 4.45889 15.9319 4.26353 15.7365C4.09269 15.5657 3.98699 15.3417 3.96324 15.1034L3.95836 15V8.33336C3.95836 8.05709 4.06818 7.79222 4.26353 7.59687C4.45889 7.40152 4.72376 7.29169 5.00003 7.29169H6.04169V8.33336C6.04169 8.67854 6.32151 8.95836 6.66669 8.95836C7.01187 8.95836 7.29169 8.67854 7.29169 8.33336V7.29169H8.33336C8.67854 7.29169 8.95836 7.01187 8.95836 6.66669C8.95836 6.32151 8.67854 6.04169 8.33336 6.04169H7.29169V5.00003C7.29169 4.72376 7.40152 4.45889 7.59687 4.26353C7.79222 4.06818 8.05709 3.95836 8.33336 3.95836H15L15.1034 3.96324C15.3417 3.98699 15.5657 4.09269 15.7365 4.26353Z" fill="#171723"/>
</svg>
