<svg width="24" height="24" viewBox="0 0 24 24" fill="none" xmlns="http://www.w3.org/2000/svg">
<g clip-path="url(#clip0_10317_147264)">
<path d="M20.6738 2.5365H3.32544C1.54171 2.5365 0.0957031 3.9825 0.0957031 5.76624V18.2332C0.0957031 20.017 1.54171 21.463 3.32544 21.463H20.6738C22.4575 21.463 23.9035 20.017 23.9035 18.2332V5.76624C23.9035 3.9825 22.4575 2.5365 20.6738 2.5365Z" fill="white"/>
<path d="M20.6745 21.5588H3.32555C2.4439 21.5577 1.59867 21.207 0.975246 20.5835C0.351823 19.9601 0.00110025 19.1149 0 18.2332V5.76677C0.00110025 4.88512 0.351823 4.03989 0.975246 3.41647C1.59867 2.79305 2.4439 2.44232 3.32555 2.44122H20.6745C21.5561 2.44232 22.4013 2.79305 23.0248 3.41647C23.6482 4.03989 23.9989 4.88512 24 5.76677V18.2332C23.9989 19.1149 23.6482 19.9601 23.0248 20.5835C22.4013 21.207 21.5561 21.5577 20.6745 21.5588ZM3.32555 2.63303C2.49477 2.63412 1.69834 2.96463 1.11089 3.55208C0.523445 4.13952 0.192938 4.93596 0.191848 5.76673V18.2332C0.192938 19.064 0.523445 19.8604 1.11089 20.4479C1.69834 21.0353 2.49477 21.3658 3.32555 21.3669H20.6745C21.5052 21.3658 22.3017 21.0353 22.8891 20.4479C23.4766 19.8604 23.8071 19.064 23.8082 18.2332V5.76677C23.8071 4.936 23.4766 4.13956 22.8891 3.55211C22.3017 2.96467 21.5052 2.63416 20.6745 2.63307L3.32555 2.63303Z" fill="#E4E4E4"/>
<path d="M19.9354 16.2795C19.9354 16.3999 19.9117 16.519 19.8657 16.6302C19.8196 16.7414 19.7521 16.8424 19.667 16.9275C19.5819 17.0127 19.4809 17.0802 19.3697 17.1262C19.2585 17.1723 19.1394 17.196 19.019 17.196H5.34902C5.10596 17.196 4.87287 17.0994 4.70102 16.9275C4.52916 16.7557 4.43261 16.5226 4.43262 16.2795V7.42102C4.43261 7.30067 4.45631 7.1815 4.50236 7.07031C4.54841 6.95912 4.61591 6.85809 4.70101 6.77299C4.7861 6.68789 4.88713 6.62039 4.99832 6.57433C5.1095 6.52828 5.22867 6.50458 5.34902 6.50458H19.0189C19.1393 6.50458 19.2585 6.52828 19.3696 6.57434C19.4808 6.62039 19.5818 6.6879 19.6669 6.773C19.752 6.8581 19.8195 6.95913 19.8656 7.07031C19.9116 7.1815 19.9353 7.30067 19.9353 7.42102L19.9354 16.2795Z" fill="#34495E"/>
<path d="M13.8013 11.8442C13.8028 11.6949 13.7745 11.5469 13.718 11.4087C13.6615 11.2705 13.578 11.145 13.4723 11.0395C13.3667 10.934 13.241 10.8507 13.1027 10.7944C12.9644 10.7382 12.8163 10.7101 12.667 10.7119L12.6628 10.7118C12.4376 10.7118 12.2175 10.7786 12.0303 10.9037C11.8431 11.0288 11.6972 11.2066 11.6111 11.4147C11.5249 11.6227 11.5024 11.8516 11.5463 12.0724C11.5902 12.2933 11.6987 12.4961 11.8579 12.6553C12.0171 12.8146 12.22 12.923 12.4408 12.9669C12.6616 13.0108 12.8906 12.9883 13.0986 12.9021C13.3066 12.816 13.4844 12.6701 13.6095 12.4828C13.7346 12.2956 13.8014 12.0755 13.8014 11.8504L13.8013 11.8442Z" fill="#F26E21"/>
<path d="M11.3116 12.332C11.2495 12.4037 11.1735 12.4619 11.0881 12.5033C11.0028 12.5446 10.9099 12.5682 10.8152 12.5725C10.7185 12.5738 10.6225 12.5551 10.5333 12.5178C10.4441 12.4804 10.3635 12.4252 10.2964 12.3555C10.2294 12.2857 10.1774 12.203 10.1436 12.1123C10.1099 12.0217 10.095 11.9251 10.1001 11.8285C10.1009 11.6244 10.1772 11.4278 10.3144 11.2766C10.4382 11.1544 10.6048 11.0853 10.7788 11.084C10.8786 11.0838 10.9773 11.1052 11.068 11.1468C11.1587 11.1883 11.2393 11.2491 11.3042 11.3248V10.8213C11.1428 10.7344 10.9622 10.6892 10.7788 10.6899C10.5045 10.7097 10.2441 10.8181 10.0368 10.9988C9.91646 11.1065 9.81925 11.2375 9.75106 11.3839C9.68288 11.5303 9.64514 11.689 9.64015 11.8504C9.63957 11.9991 9.66879 12.1463 9.72609 12.2835C9.78339 12.4207 9.86759 12.545 9.97374 12.6491C10.0799 12.7532 10.2058 12.8349 10.3441 12.8895C10.4824 12.9441 10.6302 12.9704 10.7788 12.967L10.7879 12.9666L10.8007 12.967C10.9834 12.9625 11.1629 12.9177 11.3262 12.8357L11.3116 12.332C11.3042 12.3393 11.3189 12.3462 11.3116 12.3532L11.3116 12.332Z" fill="#E7E8E3"/>
<path d="M15.2383 11.0034L14.7424 12.2225L14.1731 10.7773H13.7134L14.611 12.9887H14.8518L15.7933 10.7773H15.3336L15.2383 11.0034Z" fill="#E7E8E3"/>
<path d="M15.9688 11.7408V12.9232H17.1729V12.5727H16.4066V11.9817H17.1511V11.6094H16.4066V11.1496H17.1729V10.7773H15.9688V11.7408Z" fill="#E7E8E3"/>
<path d="M6.0717 10.7773H5.4585V12.9231H6.07167C6.34731 12.9343 6.61824 12.8491 6.83791 12.6822C6.96069 12.581 7.05966 12.454 7.12778 12.3102C7.1959 12.1665 7.23149 12.0094 7.23201 11.8503C7.23457 11.7012 7.20561 11.5531 7.14701 11.416C7.08841 11.2788 7.0015 11.1555 6.89197 11.0542C6.78244 10.9529 6.65275 10.8759 6.5114 10.8282C6.37005 10.7805 6.22021 10.7631 6.0717 10.7773V10.7773ZM6.57521 12.3977C6.41312 12.5234 6.21068 12.5857 6.00593 12.5727H5.87456V11.1496H5.98401C6.08584 11.1379 6.18899 11.1475 6.28696 11.1776C6.38494 11.2077 6.47562 11.2578 6.55333 11.3246C6.62862 11.39 6.68907 11.4707 6.73062 11.5614C6.77216 11.652 6.79385 11.7505 6.79422 11.8502C6.80307 11.9523 6.78787 12.0549 6.74984 12.15C6.7118 12.2451 6.65199 12.3299 6.57521 12.3977V12.3977Z" fill="#E7E8E3"/>
<path d="M7.84568 10.7772H7.42969V12.923H7.84568V10.7772Z" fill="#E7E8E3"/>
<path d="M8.8963 11.6093C8.63356 11.5218 8.56787 11.456 8.56787 11.3466C8.57695 11.2742 8.61424 11.2083 8.67164 11.1632C8.72903 11.1181 8.8019 11.0975 8.87441 11.1058C8.94259 11.1046 9.01005 11.12 9.07104 11.1505C9.13203 11.181 9.18476 11.2257 9.22474 11.281L9.44373 10.9963C9.2688 10.8409 9.04281 10.7552 8.80878 10.7555C8.72383 10.7506 8.63875 10.7626 8.55849 10.7909C8.47822 10.8191 8.40437 10.863 8.34121 10.9201C8.27806 10.9771 8.22686 11.0461 8.19059 11.1231C8.15433 11.2001 8.13371 11.2835 8.12995 11.3685C8.12995 11.6751 8.26142 11.8064 8.65542 11.9597C8.75764 11.9855 8.85419 12.0301 8.94016 12.0911C8.98034 12.1116 9.01396 12.143 9.03719 12.1817C9.06042 12.2204 9.07232 12.2648 9.07155 12.3099C9.07187 12.3521 9.06341 12.394 9.04672 12.4327C9.03004 12.4715 9.00548 12.5065 8.97461 12.5353C8.94373 12.5641 8.90722 12.5862 8.86736 12.6002C8.82751 12.6141 8.78519 12.6197 8.74308 12.6165C8.64747 12.6169 8.55367 12.5904 8.47237 12.54C8.39107 12.4897 8.32554 12.4176 8.28324 12.3318L8.02051 12.5945C8.09764 12.7227 8.20691 12.8285 8.3375 12.9015C8.46809 12.9744 8.61547 13.012 8.76505 13.0105C8.86101 13.018 8.95748 13.0054 9.04827 12.9734C9.13907 12.9415 9.22218 12.8909 9.29226 12.8249C9.36234 12.7589 9.41786 12.679 9.45523 12.5903C9.49261 12.5016 9.51102 12.4061 9.50929 12.3098C9.50929 11.9378 9.37804 11.7845 8.8963 11.6093Z" fill="#E7E8E3"/>
<path d="M18.3548 12.0253C18.5011 12.0067 18.6348 11.9329 18.7284 11.8189C18.822 11.705 18.8685 11.5595 18.8583 11.4124C18.8583 11.0183 18.5737 10.7773 18.092 10.7773H17.457V12.9231H17.873V12.0691H17.9388L18.5298 12.9231H19.0335L18.3548 12.0253ZM18.0044 11.7626H17.8731V11.1057H18.0043C18.267 11.1057 18.4204 11.2152 18.4204 11.4343C18.4204 11.6532 18.2672 11.7626 18.0043 11.7626H18.0044Z" fill="#E7E8E3"/>
</g>
<defs>
<clipPath id="clip0_10317_147264">
<rect width="24" height="24" fill="white"/>
</clipPath>
</defs>
</svg>
