<svg width="20" height="20" viewBox="0 0 20 20" fill="none" xmlns="http://www.w3.org/2000/svg">
<path d="M10 11.4286C10.789 11.4286 11.4286 10.789 11.4286 10C11.4286 9.21102 10.789 8.57143 10 8.57143C9.21103 8.57143 8.57144 9.21102 8.57144 10C8.57144 10.789 9.21103 11.4286 10 11.4286Z" fill="black"/>
<path d="M10 0C4.47768 0 0 4.47768 0 10C0 15.5223 4.47768 20 10 20C15.5223 20 20 15.5223 20 10C20 4.47768 15.5223 0 10 0ZM14.2277 6.70982L12.0848 11.7098C12.0134 11.8795 11.8795 12.0134 11.7098 12.0848L6.70982 14.2277C6.34821 14.3839 5.92857 14.2143 5.77232 13.8527C5.69643 13.6741 5.69643 13.4688 5.77232 13.2902L7.91518 8.29018C7.98661 8.12054 8.12054 7.98661 8.29018 7.91518L13.2902 5.77232C13.6518 5.61607 14.0714 5.78571 14.2277 6.14732C14.3036 6.32589 14.3036 6.53125 14.2277 6.70982Z" fill="black"/>
</svg>
