<svg width="20" height="20" viewBox="0 0 20 20" fill="none" xmlns="http://www.w3.org/2000/svg">
<mask id="mask0_18564_1691" style="mask-type:luminance" maskUnits="userSpaceOnUse" x="0" y="0" width="20" height="20">
<path d="M0.000465393 0.02425H19.9615V19.9853H0.000465393V0.02425Z" fill="white"/>
</mask>
<g mask="url(#mask0_18564_1691)">
<path d="M17.4663 18.1139C17.3844 18.1141 17.3032 18.098 17.2276 18.0666C17.1519 18.0352 17.0832 17.9892 17.0254 17.9311L2.05462 2.96031C1.94258 2.84238 1.88104 2.68534 1.88312 2.52268C1.8852 2.36003 1.95075 2.20462 2.06577 2.08959C2.1808 1.97456 2.33621 1.90902 2.49887 1.90694C2.66152 1.90486 2.81856 1.9664 2.9365 2.07844L17.9073 17.0492C17.9944 17.1365 18.0538 17.2476 18.0779 17.3685C18.1019 17.4895 18.0896 17.6149 18.0423 17.7288C17.9952 17.8428 17.9152 17.9402 17.8127 18.0087C17.7102 18.0772 17.5897 18.1139 17.4663 18.1139Z" fill="#171723"/>
<path d="M1.51001 7.69598C0.522484 8.59657 0.000457764 9.8262 0.000457764 11.2523C0.000457764 12.6558 0.561081 13.9377 1.57901 14.8621C2.55952 15.7525 3.88194 16.2426 5.30261 16.2426H12.8192C12.8809 16.2426 12.9412 16.2244 12.9926 16.1901C13.0439 16.1558 13.0839 16.1071 13.1076 16.0501C13.1312 15.9931 13.1374 15.9303 13.1253 15.8698C13.1133 15.8092 13.0835 15.7536 13.0398 15.71L3.93341 6.60359C3.89339 6.56351 3.84323 6.53505 3.78828 6.52132C3.73333 6.5076 3.67568 6.50908 3.62151 6.52561C2.80747 6.77474 2.08233 7.17357 1.51001 7.69598Z" fill="#171723"/>
<path d="M18.581 15.2769C19.4843 14.5576 19.9615 13.4897 19.9615 12.188C19.9615 9.94355 18.3241 8.65661 16.5478 8.26011C16.431 8.23349 16.3243 8.1738 16.2405 8.08811C16.1567 8.00245 16.0993 7.89446 16.0753 7.77707C15.7759 6.34705 15.1221 5.12015 14.158 4.19033C13.0358 3.11153 11.5376 2.51218 9.98098 2.51938C8.76772 2.51938 7.63712 2.87025 6.68195 3.53692C6.6441 3.5628 6.61244 3.5967 6.5892 3.6362C6.56597 3.6757 6.5517 3.71984 6.54749 3.76547C6.54324 3.81111 6.54909 3.85712 6.56464 3.90023C6.5802 3.94335 6.60507 3.98249 6.63751 4.01489L17.9997 15.3771C18.0512 15.4287 18.1193 15.4606 18.1919 15.4672C18.2646 15.4738 18.3373 15.4548 18.3974 15.4133C18.4605 15.3697 18.5217 15.3242 18.581 15.2769Z" fill="#171723"/>
</g>
</svg>
