<svg width="20" height="20" viewBox="0 0 20 20" fill="none" xmlns="http://www.w3.org/2000/svg">
<g clip-path="url(#clip0_5313_35241)">
<path d="M19.9615 15.4583C19.9938 15.373 20.0028 15.2806 19.9876 15.1906C19.985 15.1702 19.9811 15.15 19.9758 15.1301C19.9558 15.0403 19.9117 14.9577 19.8483 14.891L17.1633 12.2061C17.0652 12.1099 16.933 12.0563 16.7956 12.057C16.6581 12.0577 16.5265 12.1126 16.4293 12.2098C16.3322 12.307 16.2773 12.4386 16.2766 12.576C16.2759 12.7135 16.3294 12.8456 16.4256 12.9438L18.22 14.7382H9.40717C9.28832 13.6779 8.81209 12.6896 8.05682 11.936C7.30156 11.1824 6.31227 10.7084 5.25173 10.5919V0.521707C5.25173 0.383341 5.19676 0.250643 5.09892 0.152804C5.00108 0.0549652 4.86838 0 4.73002 0C4.59165 0 4.45896 0.0549652 4.36112 0.152804C4.26328 0.250643 4.20831 0.383341 4.20831 0.521707V10.5921C3.32343 10.6882 2.48379 11.0327 1.78638 11.5857C1.08897 12.1388 0.562241 12.8778 0.267034 13.7175C-0.0281734 14.5572 -0.0798134 15.4633 0.118079 16.3311C0.315971 17.1989 0.755321 17.9931 1.38538 18.6218C2.01544 19.2505 2.8105 19.6881 3.67873 19.8842C4.54696 20.0802 5.45294 20.0266 6.29201 19.7296C7.13108 19.4326 7.86901 18.9043 8.42056 18.2057C8.97212 17.5071 9.3148 16.6667 9.40902 15.7816H18.2197L16.4256 17.575C16.3764 17.6232 16.3372 17.6808 16.3103 17.7443C16.2835 17.8078 16.2694 17.8759 16.2691 17.9449C16.2687 18.0138 16.2821 18.0822 16.3083 18.1459C16.3345 18.2097 16.3731 18.2676 16.4219 18.3164C16.4706 18.3652 16.5286 18.4038 16.5923 18.43C16.6561 18.4562 16.7244 18.4695 16.7934 18.4692C16.8623 18.4688 16.9305 18.4548 16.994 18.4279C17.0575 18.4011 17.1151 18.3619 17.1633 18.3127L19.8483 15.6287C19.8949 15.5814 19.9319 15.5257 19.9574 15.4644L19.9614 15.4596L19.9615 15.4583ZM6.7645 17.292C6.64665 17.3881 6.50223 17.4459 6.35061 17.4576C6.21123 17.4484 6.07853 17.3945 5.97225 17.3038L4.73047 16.062L3.51243 17.292C3.39889 17.3876 3.25836 17.4455 3.11039 17.4576C2.96693 17.4507 2.82974 17.3967 2.72016 17.3038C2.66054 17.2526 2.61275 17.1891 2.58007 17.1176C2.5474 17.0462 2.53062 16.9684 2.53089 16.8899C2.53044 16.8152 2.54485 16.7412 2.57328 16.6722C2.60171 16.6032 2.64358 16.5405 2.69647 16.4878L3.93827 15.2697L2.6965 14.0399C2.59044 13.9329 2.53092 13.7884 2.53092 13.6378C2.53092 13.4872 2.59044 13.3427 2.6965 13.2357C2.80877 13.1305 2.95653 13.0714 3.11039 13.0701C3.26027 13.0737 3.4035 13.1327 3.51243 13.2357L4.73047 14.4656L5.94857 13.2357C6.0575 13.1327 6.20073 13.0737 6.35061 13.0701C6.50447 13.0714 6.65223 13.1305 6.7645 13.2357C6.87064 13.3426 6.9302 13.4872 6.9302 13.6378C6.9302 13.7884 6.87064 13.933 6.7645 14.0399L5.5229 15.2697L6.7645 16.4878C6.87064 16.5947 6.9302 16.7393 6.9302 16.8899C6.9302 17.0405 6.87064 17.1851 6.7645 17.292Z" fill="#171723"/>
</g>
<defs>
<clipPath id="clip0_5313_35241">
<rect width="20" height="20" fill="white"/>
</clipPath>
</defs>
</svg>
