<svg width="20" height="20" viewBox="0 0 20 20" fill="none" xmlns="http://www.w3.org/2000/svg">
<g clip-path="url(#clip0_5313_35114)">
<path d="M17.9661 2H2.03386C1.49466 2.0007 0.977749 2.21609 0.596478 2.59894C0.215206 2.98178 0.000699596 3.50083 0 4.04225V13.2324C0.000699596 13.7738 0.215206 14.2928 0.596478 14.6757C0.977749 15.0585 1.49466 15.2739 2.03386 15.2746H9.49204V16.9768H5.93176C5.79691 16.9768 5.66758 17.0306 5.57222 17.1264C5.47687 17.2221 5.4233 17.352 5.4233 17.4874C5.4233 17.6228 5.47687 17.7527 5.57222 17.8484C5.66758 17.9442 5.79691 17.998 5.93176 17.998H9.99062L10.0005 18L10.0104 17.998H14.0672C14.2021 17.998 14.3314 17.9442 14.4268 17.8484C14.5221 17.7527 14.5757 17.6228 14.5757 17.4874C14.5757 17.352 14.5221 17.2221 14.4268 17.1264C14.3314 17.0306 14.2021 16.9768 14.0672 16.9768H10.509V15.2746H17.9661C18.5053 15.2739 19.0222 15.0585 19.4035 14.6757C19.7848 14.2928 19.9993 13.7738 20 13.2324V4.04225C19.9993 3.50082 19.7848 2.98178 19.4035 2.59893C19.0222 2.21609 18.5053 2.0007 17.9661 2ZM18.9831 13.2324C18.9829 13.5031 18.8757 13.7628 18.685 13.9542C18.4943 14.1457 18.2358 14.2533 17.9661 14.2535H10.0054L10.0005 14.2525L9.99559 14.2535H2.03386C1.76421 14.2533 1.50566 14.1457 1.31498 13.9542C1.12431 13.7628 1.01711 13.5031 1.01693 13.2324V4.04225C1.01712 3.77149 1.12431 3.51187 1.31499 3.32041C1.50566 3.12895 1.76421 3.02131 2.03386 3.02112H17.9661C18.2358 3.02131 18.4943 3.12895 18.685 3.32041C18.8757 3.51187 18.9829 3.77149 18.9831 4.04225L18.9831 13.2324Z" fill="#171723"/>
</g>
<defs>
<clipPath id="clip0_5313_35114">
<rect width="20" height="20" fill="white"/>
</clipPath>
</defs>
</svg>
