<svg width="20" height="20" viewBox="0 0 20 20" fill="none" xmlns="http://www.w3.org/2000/svg">
<g clip-path="url(#clip0_10317_147443)">
<g clip-path="url(#clip1_10317_147443)">
<path d="M17.3978 5.20769C17.9128 5.20769 18.4162 5.05497 18.8444 4.76886C19.2726 4.48275 19.6063 4.07608 19.8034 3.60029C20.0005 3.1245 20.0521 2.60096 19.9516 2.09586C19.8511 1.59076 19.6031 1.1268 19.239 0.762649C18.8748 0.398495 18.4109 0.150503 17.9058 0.0500333C17.4007 -0.0504366 16.8771 0.00112819 16.4013 0.198207C15.9255 0.395286 15.5189 0.729026 15.2328 1.15723C14.9467 1.58543 14.7939 2.08885 14.7939 2.60384C14.7947 3.29421 15.0692 3.9561 15.5574 4.44426C16.0455 4.93242 16.7074 5.20698 17.3978 5.20769ZM17.3978 1.01692C17.7117 1.01692 18.0185 1.10999 18.2794 1.28437C18.5404 1.45874 18.7438 1.70659 18.8639 1.99656C18.984 2.28654 19.0155 2.60562 18.9542 2.91345C18.893 3.22129 18.7419 3.50405 18.5199 3.72599C18.298 3.94793 18.0152 4.09907 17.7074 4.1603C17.3995 4.22153 17.0805 4.1901 16.7905 4.06999C16.5005 3.94987 16.2527 3.74647 16.0783 3.4855C15.9039 3.22453 15.8109 2.91771 15.8109 2.60384C15.8114 2.18312 15.9787 1.77979 16.2762 1.48229C16.5737 1.1848 16.9771 1.01744 17.3978 1.01692V1.01692Z" fill="#171723"/>
<path d="M17.3978 14.7918C16.8828 14.7918 16.3794 14.9445 15.9512 15.2306C15.523 15.5168 15.1892 15.9234 14.9922 16.3992C14.7951 16.875 14.7435 17.3985 14.844 17.9036C14.9445 18.4087 15.1924 18.8727 15.5566 19.2368C15.9208 19.601 16.3847 19.849 16.8898 19.9495C17.3949 20.0499 17.9185 19.9984 18.3942 19.8013C18.87 19.6042 19.2767 19.2705 19.5628 18.8423C19.8489 18.4141 20.0016 17.9106 20.0016 17.3956C20.0009 16.7053 19.7264 16.0434 19.2382 15.5552C18.75 15.0671 18.0882 14.7925 17.3978 14.7918ZM17.3978 18.9826C17.0839 18.9826 16.7771 18.8895 16.5161 18.7151C16.2552 18.5408 16.0518 18.2929 15.9317 18.0029C15.8115 17.713 15.7801 17.3939 15.8413 17.086C15.9026 16.7782 16.0537 16.4954 16.2757 16.2735C16.4976 16.0516 16.7804 15.9004 17.0882 15.8392C17.396 15.778 17.7151 15.8094 18.0051 15.9295C18.2951 16.0496 18.5429 16.253 18.7173 16.514C18.8917 16.775 18.9847 17.0818 18.9847 17.3956C18.9842 17.8164 18.8168 18.2197 18.5193 18.5172C18.2218 18.8147 17.8185 18.9821 17.3978 18.9826Z" fill="#171723"/>
<path d="M17.3978 7.39648C16.8828 7.39648 16.3794 7.5492 15.9512 7.83531C15.523 8.12143 15.1892 8.52809 14.9922 9.00388C14.7951 9.47967 14.7435 10.0032 14.844 10.5083C14.9444 11.0134 15.1924 11.4774 15.5566 11.8415C15.9207 12.2057 16.3847 12.4537 16.8898 12.5541C17.3949 12.6546 17.9184 12.603 18.3942 12.406C18.87 12.2089 19.2767 11.8751 19.5628 11.4469C19.8489 11.0187 20.0016 10.5153 20.0016 10.0003C20.0009 9.30996 19.7264 8.64807 19.2382 8.15991C18.75 7.67175 18.0882 7.39719 17.3978 7.39648V7.39648ZM17.3978 11.5873C17.0839 11.5873 16.7771 11.4942 16.5161 11.3198C16.2552 11.1454 16.0518 10.8976 15.9317 10.6076C15.8115 10.3176 15.7801 9.99857 15.8413 9.69073C15.9026 9.3829 16.0537 9.10013 16.2757 8.87819C16.4976 8.65626 16.7804 8.50512 17.0882 8.44388C17.396 8.38265 17.7151 8.41408 18.0051 8.53419C18.2951 8.6543 18.5429 8.8577 18.7173 9.11867C18.8917 9.37964 18.9847 9.68646 18.9847 10.0003C18.9842 10.421 18.8168 10.8244 18.5193 11.1219C18.2218 11.4194 17.8185 11.5867 17.3978 11.5873V11.5873Z" fill="#171723"/>
<path d="M14.0444 9.93814C14.0418 9.91752 14.0379 9.89709 14.0325 9.877C14.0132 9.79238 13.9718 9.71435 13.9127 9.65077L13.9101 9.64581L12.7105 8.43525C12.6638 8.38672 12.6079 8.34795 12.5461 8.3212C12.4843 8.29444 12.4178 8.28024 12.3504 8.2794C12.2831 8.27857 12.2162 8.29113 12.1538 8.31635C12.0913 8.34157 12.0345 8.37894 11.9866 8.42631C11.9387 8.47367 11.9007 8.53007 11.8748 8.59225C11.8489 8.65442 11.8356 8.72112 11.8357 8.78848C11.8358 8.85584 11.8492 8.9225 11.8753 8.98461C11.9014 9.04671 11.9395 9.10302 11.9875 9.15026L12.3292 9.49486H7.49642C7.44145 9.08347 7.31801 8.68418 7.13121 8.31354L12.3908 5.68178L12.2427 6.12636C12.2004 6.25437 12.2105 6.39395 12.2708 6.51456C12.3311 6.63516 12.4367 6.72696 12.5645 6.76987C12.6164 6.78714 12.6707 6.79586 12.7254 6.79569C12.8321 6.79546 12.936 6.7618 13.0225 6.69946C13.1091 6.63712 13.1739 6.54922 13.208 6.44811L13.7442 4.83835C13.7635 4.77804 13.7713 4.71464 13.7671 4.65146L13.7691 4.64272L13.7684 4.64086C13.7595 4.55314 13.7276 4.46933 13.676 4.39782C13.6643 4.38027 13.6515 4.36354 13.6375 4.34773C13.5816 4.27943 13.5084 4.22728 13.4256 4.19666L13.4245 4.19585L13.4239 4.19566L13.4225 4.19483L13.4211 4.19464L11.8098 3.65059C11.7464 3.62851 11.6792 3.61921 11.6122 3.62323C11.5451 3.62724 11.4796 3.6445 11.4192 3.67401C11.3589 3.70351 11.305 3.74467 11.2607 3.79511C11.2163 3.84556 11.1824 3.90428 11.1609 3.9679C11.1394 4.03152 11.1307 4.09877 11.1353 4.16576C11.14 4.23276 11.1578 4.29818 11.1879 4.35824C11.2179 4.4183 11.2595 4.47181 11.3104 4.51569C11.3612 4.55957 11.4203 4.59294 11.4841 4.61388L11.9429 4.76879L6.55095 7.46663C6.03924 6.90208 5.36859 6.50571 4.62726 6.32968C3.88593 6.15364 3.10867 6.2062 2.39779 6.48043C1.68691 6.75466 1.07572 7.23772 0.644668 7.86601C0.213618 8.4943 -0.0170898 9.23839 -0.0170898 10.0003C-0.0170898 10.7623 0.213618 11.5064 0.644668 12.1347C1.07572 12.763 1.68691 13.246 2.39779 13.5202C3.10867 13.7945 3.88593 13.847 4.62726 13.671C5.36859 13.495 6.03924 13.0986 6.55095 12.534L11.9428 15.2319L11.484 15.3868C11.3699 15.4254 11.2731 15.5034 11.2111 15.6067C11.149 15.71 11.1257 15.8321 11.1453 15.951C11.1648 16.0699 11.226 16.178 11.3179 16.256C11.4098 16.3341 11.5264 16.3769 11.6469 16.3769C11.7023 16.3767 11.7573 16.3677 11.8098 16.3501L13.4207 15.8052L13.4225 15.8049L13.4239 15.8041L13.4245 15.8039L13.4256 15.8031C13.5085 15.7724 13.5817 15.7202 13.6376 15.6518C13.6517 15.6359 13.6647 15.619 13.6764 15.6013C13.7278 15.5299 13.7595 15.4463 13.7684 15.3589L13.7691 15.357L13.7671 15.3483C13.7713 15.2851 13.7635 15.2217 13.7442 15.1614L13.208 13.5516C13.1868 13.4882 13.1534 13.4297 13.1097 13.3792C13.0659 13.3287 13.0126 13.2874 12.9528 13.2575C12.8931 13.2276 12.828 13.2098 12.7614 13.205C12.6948 13.2003 12.6278 13.2087 12.5645 13.2299C12.5011 13.251 12.4425 13.2844 12.392 13.3282C12.3415 13.372 12.3002 13.4252 12.2703 13.485C12.2404 13.5448 12.2226 13.6098 12.2179 13.6764C12.2131 13.7431 12.2216 13.81 12.2427 13.8734L12.3909 14.3182L7.13128 11.6871C7.31725 11.3183 7.44044 10.9211 7.49579 10.5118H12.3212L11.9895 10.8434C11.9416 10.8905 11.9034 10.9466 11.8772 11.0084C11.851 11.0703 11.8373 11.1368 11.837 11.204C11.8367 11.2712 11.8496 11.3378 11.8752 11.3999C11.9008 11.4621 11.9384 11.5185 11.9859 11.566C12.0334 11.6136 12.0899 11.6512 12.152 11.6767C12.2142 11.7023 12.2808 11.7153 12.348 11.7149C12.4152 11.7146 12.4816 11.701 12.5435 11.6748C12.6054 11.6486 12.6615 11.6104 12.7085 11.5624L13.9081 10.3628C13.9518 10.3179 13.9868 10.2653 14.0112 10.2076L14.0184 10.1989L14.0186 10.1964C14.0497 10.1141 14.0586 10.025 14.0444 9.93814V9.93814ZM3.77482 12.7561C3.22977 12.7561 2.69696 12.5945 2.24377 12.2917C1.79057 11.9889 1.43735 11.5585 1.22877 11.0549C1.02019 10.5513 0.965616 9.99724 1.07195 9.46266C1.17828 8.92808 1.44075 8.43704 1.82616 8.05164C2.21157 7.66623 2.70261 7.40376 3.23718 7.29743C3.77176 7.19109 4.32586 7.24567 4.82942 7.45425C5.33298 7.66283 5.76338 8.01605 6.0662 8.46924C6.36901 8.92244 6.53064 9.45524 6.53064 10.0003C6.52977 10.7309 6.23915 11.4314 5.72252 11.948C5.20589 12.4646 4.50544 12.7552 3.77482 12.7561V12.7561Z" fill="#171723"/>
</g>
</g>
<defs>
<clipPath id="clip0_10317_147443">
<rect width="20" height="20" fill="white"/>
</clipPath>
<clipPath id="clip1_10317_147443">
<rect width="20" height="20" fill="white"/>
</clipPath>
</defs>
</svg>
