<svg width="20" height="20" viewBox="0 0 20 20" fill="none" xmlns="http://www.w3.org/2000/svg">
<g clip-path="url(#clip0_19783_32704)">
<path d="M19.8025 8.23829C19.7483 8.19413 19.2417 7.81163 18.1742 7.81163C17.9075 7.81163 17.625 7.83663 17.3325 7.88413C17.1258 6.46496 15.9567 5.77329 15.9025 5.74246L15.615 5.57579L15.4258 5.84913C15.1894 6.21531 15.0172 6.61917 14.9167 7.04329C14.725 7.85329 14.8417 8.61329 15.2525 9.26496C14.7558 9.54079 13.9642 9.61329 13.7992 9.61496H0.62665C0.461236 9.61562 0.302772 9.68156 0.185728 9.79845C0.0686834 9.91534 0.00252733 10.0737 0.00164993 10.2391C-0.0041834 11.4525 0.195817 12.6258 0.578317 13.6308C1.03248 14.8225 1.70748 15.7 2.58582 16.2391C3.56998 16.8433 5.17248 17.1891 6.98248 17.1891C7.82915 17.1891 8.67415 17.1125 9.42415 16.9675C10.605 16.74 11.6783 16.3491 12.6125 15.8083C13.4289 15.3351 14.1634 14.7328 14.7875 14.025C15.8308 12.8416 16.4525 11.5208 16.915 10.3516C16.9775 10.3541 17.0383 10.3558 17.0991 10.3558C18.2416 10.3558 18.945 9.89746 19.3325 9.51413C19.7533 9.09746 19.9033 8.68246 19.9192 8.63663L20 8.39663L19.8025 8.23829Z" fill="#1D63ED"/>
<path d="M1.84667 9.22915H3.61251C3.65347 9.22893 3.69268 9.2125 3.72157 9.18345C3.75046 9.15441 3.76667 9.11511 3.76667 9.07415V7.49998C3.76667 7.45901 3.75046 7.41972 3.72157 7.39067C3.69268 7.36163 3.65347 7.3452 3.61251 7.34498H1.84667C1.80571 7.3452 1.7665 7.36163 1.73761 7.39067C1.70872 7.41972 1.6925 7.45901 1.6925 7.49998V9.07498C1.6925 9.16081 1.76167 9.22915 1.84667 9.22915ZM4.28001 9.22915H6.04501C6.06532 9.22915 6.08544 9.22513 6.1042 9.21733C6.12295 9.20953 6.13999 9.1981 6.15431 9.1837C6.16864 9.16929 6.17998 9.1522 6.18768 9.1334C6.19538 9.1146 6.19928 9.09446 6.19917 9.07415V7.49998C6.19928 7.47966 6.19538 7.45953 6.18768 7.44073C6.17998 7.42193 6.16864 7.40483 6.15431 7.39043C6.13999 7.37602 6.12295 7.36459 6.1042 7.35679C6.08544 7.34899 6.06532 7.34498 6.04501 7.34498H4.28001C4.25962 7.34487 4.23941 7.3488 4.22056 7.35655C4.2017 7.3643 4.18457 7.37572 4.17016 7.39013C4.15574 7.40455 4.14433 7.42168 4.13658 7.44053C4.12883 7.45939 4.12489 7.47959 4.125 7.49998V9.07498C4.125 9.16081 4.19417 9.22915 4.28001 9.22915ZM6.75001 9.22915H8.51501C8.55597 9.22893 8.59518 9.2125 8.62407 9.18345C8.65296 9.15441 8.66917 9.11511 8.66917 9.07415V7.49998C8.66917 7.45901 8.65296 7.41972 8.62407 7.39067C8.59518 7.36163 8.55597 7.3452 8.51501 7.34498H6.75001C6.72962 7.34487 6.70941 7.3488 6.69056 7.35655C6.6717 7.3643 6.65457 7.37572 6.64016 7.39013C6.62574 7.40455 6.61433 7.42168 6.60658 7.44053C6.59883 7.45939 6.5949 7.47959 6.59501 7.49998V9.07498C6.59501 9.16081 6.66417 9.22915 6.75001 9.22915ZM9.19001 9.22915H10.9558C10.9762 9.22915 10.9963 9.22513 11.015 9.21733C11.0338 9.20953 11.0508 9.1981 11.0651 9.1837C11.0795 9.16929 11.0908 9.1522 11.0985 9.1334C11.1062 9.1146 11.1101 9.09446 11.11 9.07415V7.49998C11.1101 7.47966 11.1062 7.45953 11.0985 7.44073C11.0908 7.42193 11.0795 7.40483 11.0651 7.39043C11.0508 7.37602 11.0338 7.36459 11.015 7.35679C10.9963 7.34899 10.9762 7.34498 10.9558 7.34498H9.19001C9.14904 7.3452 9.10983 7.36163 9.08094 7.39067C9.05205 7.41972 9.03584 7.45901 9.03584 7.49998V9.07498C9.03584 9.16081 9.10501 9.22915 9.19001 9.22915ZM4.28001 6.96248H6.04501C6.06532 6.96248 6.08544 6.95846 6.1042 6.95066C6.12295 6.94286 6.13999 6.93143 6.15431 6.91703C6.16864 6.90263 6.17998 6.88553 6.18768 6.86673C6.19538 6.84793 6.19928 6.82779 6.19917 6.80748V5.23331C6.19917 5.19235 6.18296 5.15305 6.15407 5.124C6.12518 5.09496 6.08597 5.07853 6.04501 5.07831H4.28001C4.2389 5.07831 4.19947 5.09464 4.1704 5.12371C4.14134 5.15278 4.125 5.1922 4.125 5.23331V6.80831C4.125 6.89415 4.19417 6.96248 4.28001 6.96248ZM6.75001 6.96248H8.51501C8.55597 6.96226 8.59518 6.94583 8.62407 6.91679C8.65296 6.88774 8.66917 6.84844 8.66917 6.80748V5.23331C8.66917 5.19235 8.65296 5.15305 8.62407 5.124C8.59518 5.09496 8.55597 5.07853 8.51501 5.07831H6.75001C6.7089 5.07831 6.66947 5.09464 6.6404 5.12371C6.61134 5.15278 6.59501 5.1922 6.59501 5.23331V6.80831C6.59501 6.89415 6.66417 6.96248 6.75001 6.96248ZM9.19001 6.96248H10.9558C10.9762 6.96248 10.9963 6.95846 11.015 6.95066C11.0338 6.94286 11.0508 6.93143 11.0651 6.91703C11.0795 6.90263 11.0908 6.88553 11.0985 6.86673C11.1062 6.84793 11.1101 6.82779 11.11 6.80748V5.23331C11.11 5.19235 11.0938 5.15305 11.0649 5.124C11.036 5.09496 10.9968 5.07853 10.9558 5.07831H9.19001C9.14904 5.07853 9.10983 5.09496 9.08094 5.124C9.05205 5.15305 9.03584 5.19235 9.03584 5.23331V6.80831C9.03584 6.89415 9.10501 6.96248 9.19001 6.96248ZM9.19001 4.69581H10.9558C10.9968 4.69559 11.036 4.67916 11.0649 4.65012C11.0938 4.62108 11.11 4.58178 11.11 4.54081V2.96665C11.1101 2.94633 11.1062 2.92619 11.0985 2.90739C11.0908 2.88859 11.0795 2.8715 11.0651 2.85709C11.0508 2.84269 11.0338 2.83126 11.015 2.82346C10.9963 2.81566 10.9762 2.81165 10.9558 2.81165H9.19001C9.14904 2.81187 9.10983 2.82829 9.08094 2.85734C9.05205 2.88638 9.03584 2.92568 9.03584 2.96665V4.54165C9.03584 4.62748 9.10501 4.69581 9.19001 4.69581ZM11.6525 9.22915H13.4175C13.4379 9.22926 13.4581 9.22532 13.477 9.21757C13.4958 9.20982 13.5129 9.19841 13.5274 9.18399C13.5418 9.16958 13.5532 9.15245 13.5609 9.13359C13.5687 9.11474 13.5726 9.09453 13.5725 9.07415V7.49998C13.5726 7.47959 13.5687 7.45939 13.5609 7.44053C13.5532 7.42168 13.5418 7.40455 13.5274 7.39013C13.5129 7.37572 13.4958 7.3643 13.477 7.35655C13.4581 7.3488 13.4379 7.34487 13.4175 7.34498H11.6525C11.6322 7.34498 11.6121 7.34899 11.5933 7.35679C11.5746 7.36459 11.5575 7.37602 11.5432 7.39043C11.5289 7.40483 11.5175 7.42193 11.5098 7.44073C11.5021 7.45953 11.4982 7.47966 11.4983 7.49998V9.07498C11.4983 9.16081 11.5675 9.22915 11.6525 9.22915Z" fill="#1D63ED"/>
</g>
<defs>
<clipPath id="clip0_19783_32704">
<rect width="20" height="15" fill="white" transform="translate(0 2.5)"/>
</clipPath>
</defs>
</svg>
