<svg width="20" height="20" viewBox="0 0 20 20" fill="none" xmlns="http://www.w3.org/2000/svg">
<path fill-rule="evenodd" clip-rule="evenodd" d="M6.56561 6.1179C6.49403 6.1812 6.38807 6.18399 6.31603 6.12116C5.19226 5.14657 4.12425 4.10729 3.09295 3.03403C3.01858 2.95631 3.02045 2.82925 3.09806 2.75524C4.74516 1.18119 6.9244 0.160062 9.34299 0.000423591C9.45407 -0.00702073 9.55074 0.0846655 9.55074 0.195901V4.65043C9.55074 4.74583 9.47916 4.82263 9.38482 4.8338C8.30612 4.96505 7.33803 5.43373 6.56561 6.1179ZM15.1873 9.67836C15.0428 7.16834 13.1233 5.15588 10.6666 4.84079C10.5732 4.82869 10.5026 4.75236 10.5026 4.65788V0.199625C10.5026 0.0879223 10.5997 -0.00376395 10.7112 0.00414744C15.7971 0.361122 19.8353 4.50987 19.9998 9.65416C20.0036 9.76353 19.9129 9.85615 19.8042 9.85615H15.3709C15.2714 9.85615 15.1933 9.77796 15.1873 9.67836ZM6.70086 13.9961C5.54408 13.041 4.80372 11.5991 4.80372 9.98041C4.80372 8.89598 5.1495 7.90418 5.71883 7.07619C5.77228 6.998 5.76067 6.89608 5.68909 6.83417C4.56391 5.86144 3.49544 4.82496 2.46368 3.7531C2.38375 3.66979 2.24664 3.67444 2.17461 3.76474C0.817043 5.47096 0 7.62679 0 9.98041C0 12.9354 1.28319 15.585 3.31511 17.4187C3.39133 17.4876 3.5103 17.483 3.5828 17.4104L6.71666 14.272C6.79567 14.1929 6.78683 14.0668 6.70086 13.9961ZM15.2886 10.8093H19.754C19.8683 10.8093 19.9604 10.9108 19.9487 11.0248C19.4263 16.0662 15.178 20 10.0053 20C7.92455 20 5.99721 19.3572 4.39706 18.2681C4.29714 18.2002 4.28552 18.0545 4.37057 17.9693L7.60109 14.7342C7.65685 14.6784 7.73958 14.6649 7.81115 14.6984C8.47808 15.0111 9.22029 15.1894 10.0053 15.1894C12.5419 15.1894 14.6487 13.3687 15.1078 10.962C15.125 10.874 15.1989 10.8093 15.2886 10.8093Z" fill="#171723"/>
</svg>
