<svg width="20" height="20" viewBox="0 0 20 20" fill="none" xmlns="http://www.w3.org/2000/svg">
<path d="M9.875 3.75C10.9105 3.75 11.75 2.91053 11.75 1.875C11.75 0.839466 10.9105 0 9.875 0C8.83947 0 8 0.839466 8 1.875C8 2.91053 8.83947 3.75 9.875 3.75Z" fill="#171723"/>
<path d="M9.875 11.875C10.9105 11.875 11.75 11.0355 11.75 10C11.75 8.96447 10.9105 8.125 9.875 8.125C8.83947 8.125 8 8.96447 8 10C8 11.0355 8.83947 11.875 9.875 11.875Z" fill="#171723"/>
<path d="M9.875 20C10.9105 20 11.75 19.1605 11.75 18.125C11.75 17.0895 10.9105 16.25 9.875 16.25C8.83947 16.25 8 17.0895 8 18.125C8 19.1605 8.83947 20 9.875 20Z" fill="#171723"/>
</svg>
