<svg width="20" height="20" viewBox="0 0 20 20" fill="none" xmlns="http://www.w3.org/2000/svg">
<path d="M14.7352 7.48795C14.6961 7.44969 14.6498 7.4195 14.599 7.39911C14.5482 7.37873 14.4939 7.36855 14.4392 7.36915C14.3845 7.36976 14.3305 7.38113 14.2802 7.40264C14.2298 7.42414 14.1843 7.45534 14.146 7.49446L10.0949 11.6328L5.84763 7.47981C5.80865 7.44093 5.76235 7.41016 5.7114 7.38928C5.66045 7.3684 5.60587 7.35782 5.55082 7.35816C5.49576 7.3585 5.44131 7.36975 5.39063 7.39126C5.33994 7.41277 5.29402 7.4441 5.25552 7.48347C5.21702 7.52283 5.1867 7.56943 5.16632 7.62057C5.14594 7.67172 5.13589 7.7264 5.13677 7.78146C5.13765 7.83651 5.14943 7.89084 5.17143 7.94131C5.19343 7.99179 5.22522 8.0374 5.26495 8.07551L9.81003 12.5197C9.84914 12.5579 9.89541 12.5881 9.94618 12.6085C9.99696 12.6289 10.0513 12.6391 10.106 12.6385C10.1607 12.6379 10.2147 12.6265 10.265 12.605C10.3154 12.5835 10.3609 12.5523 10.3992 12.5132L14.7416 8.07714C14.7799 8.03803 14.8101 7.99177 14.8305 7.94099C14.8509 7.89022 14.8611 7.83592 14.8605 7.78121C14.8599 7.72649 14.8485 7.67243 14.827 7.62211C14.8055 7.5718 14.7743 7.52621 14.7352 7.48795Z" fill="#171723"/>
</svg>
