<svg width="20" height="20" viewBox="0 0 20 20" fill="none" xmlns="http://www.w3.org/2000/svg">
<g clip-path="url(#clip0_5313_35042)">
<g clip-path="url(#clip1_5313_35042)">
<path d="M9.71787 13.8607C9.7654 13.9034 9.82109 13.9372 9.88201 13.9606L9.88619 13.9638L9.88765 13.9641C9.98348 14.0006 10.0888 14.0095 10.1901 13.9898C10.2914 13.97 10.3841 13.9224 10.4563 13.8531L13.8547 10.6054C13.9499 10.5125 14.0021 10.3882 13.9999 10.2596C13.9977 10.1309 13.9413 10.0082 13.843 9.91823C13.7446 9.82824 13.6122 9.7782 13.4746 9.779C13.337 9.77979 13.2053 9.83135 13.1081 9.92247L10.6052 12.3146V0.48835C10.6052 0.358831 10.5502 0.234618 10.4523 0.143034C10.3543 0.0514509 10.2215 0 10.083 0C9.94454 0 9.81171 0.0514509 9.71378 0.143034C9.61585 0.234618 9.56084 0.358831 9.56084 0.48835V12.351L6.89068 9.90912C6.84181 9.8636 6.78378 9.82759 6.71995 9.80317C6.65612 9.77874 6.58774 9.76638 6.51877 9.7668C6.4498 9.76723 6.3816 9.78042 6.31812 9.80563C6.25463 9.83084 6.19712 9.86756 6.14889 9.91367C6.10066 9.95978 6.06268 10.0144 6.03713 10.0743C6.01159 10.1342 5.99899 10.1982 6.00006 10.2627C6.00114 10.3272 6.01586 10.3909 6.04338 10.45C6.07091 10.5092 6.11068 10.5626 6.16042 10.6073L9.71787 13.8607Z" fill="#171723"/>
<path d="M19.4915 14C19.4247 14 19.3586 14.0122 19.2969 14.036C19.2352 14.0597 19.1791 14.0946 19.1319 14.1386C19.0846 14.1825 19.0472 14.2347 19.0216 14.2922C18.9961 14.3496 18.983 14.4112 18.983 14.4733V16.2133C18.9821 16.9662 18.6604 17.6881 18.0884 18.2206C17.5165 18.753 16.741 19.0525 15.9321 19.0533H4.06793C3.25904 19.0525 2.48353 18.753 1.91156 18.2206C1.33959 17.6881 1.01787 16.9662 1.01698 16.2133V14.4733C1.01698 14.3478 0.96341 14.2274 0.86805 14.1386C0.772689 14.0499 0.643352 14 0.508492 14C0.373631 14 0.244294 14.0499 0.148934 14.1386C0.0535729 14.2274 0 14.3478 0 14.4733V16.2133C0.00107694 17.2173 0.430007 18.1798 1.19266 18.8898C1.95531 19.5997 2.98938 19.999 4.06793 20H15.9321C17.0106 19.999 18.0447 19.5997 18.8073 18.8898C19.57 18.1798 19.9989 17.2173 20 16.2133V14.4733C20 14.4112 19.9869 14.3496 19.9614 14.2922C19.9358 14.2347 19.8984 14.1825 19.8512 14.1386C19.8039 14.0946 19.7479 14.0597 19.6861 14.036C19.6244 14.0122 19.5583 14 19.4915 14Z" fill="#171723"/>
</g>
</g>
<defs>
<clipPath id="clip0_5313_35042">
<rect width="20" height="20" fill="white"/>
</clipPath>
<clipPath id="clip1_5313_35042">
<rect width="20" height="20" fill="white"/>
</clipPath>
</defs>
</svg>
