<svg width="20" height="20" viewBox="0 0 20 20" fill="none" xmlns="http://www.w3.org/2000/svg">
<path d="M15.1263 7.13505L9.8847 11.8567L4.88529 7.15169C4.83826 7.10653 4.78196 7.07039 4.71968 7.04539C4.65739 7.02038 4.59034 7.00699 4.5224 7.00599C4.45446 7.00499 4.38697 7.01641 4.32385 7.03958C4.26073 7.06275 4.20322 7.09721 4.15465 7.14098C4.10607 7.18474 4.06739 7.23694 4.04085 7.29455C4.01431 7.35217 4.00043 7.41406 4.00001 7.47664C3.99959 7.53923 4.01264 7.60127 4.03841 7.65919C4.06418 7.7171 4.10215 7.76973 4.15014 7.81404L9.50916 12.8575C9.55636 12.902 9.61262 12.9375 9.67471 12.9619C9.7368 12.9864 9.80352 12.9993 9.87104 13C9.93856 13.0007 10.0056 12.9891 10.0682 12.9659C10.1309 12.9427 10.188 12.9084 10.2362 12.8649L15.8453 7.81218C15.8945 7.7682 15.9335 7.71556 15.9601 7.65739C15.9866 7.59922 16.0002 7.53671 16 7.4736C16 7.38038 15.9701 7.28923 15.9141 7.21157C15.8581 7.13392 15.7785 7.07321 15.6852 7.03706C15.5919 7.00091 15.4891 6.99092 15.3897 7.00835C15.2902 7.02578 15.1986 7.06986 15.1263 7.13505Z" fill="#171723"/>
</svg>
