<svg width="20" height="20" viewBox="0 0 20 20" fill="none" xmlns="http://www.w3.org/2000/svg">
<g clip-path="url(#clip0_10314_144692)">
<path d="M18.6643 7.31028H17.1504C16.6958 6.43006 16.0679 5.64989 15.3039 5.01622C14.54 4.38256 13.6557 3.90837 12.7037 3.62191V2.33005C12.7032 1.97744 12.5623 1.63941 12.3117 1.39007C12.0611 1.14074 11.7214 1.00046 11.367 1H8.633C8.27862 1.00046 7.9389 1.14074 7.68832 1.39007C7.43774 1.63941 7.29676 1.97744 7.29629 2.33005V3.62185C6.34466 3.90959 5.46065 4.38425 4.69655 5.01778C3.93245 5.6513 3.30376 6.43083 2.84765 7.31028H1.33672C0.982341 7.31074 0.642612 7.45101 0.39203 7.70034C0.141447 7.94967 0.000465493 8.2877 0 8.64031V11.3607C0.00050358 11.7132 0.141529 12.0511 0.392132 12.3003C0.642734 12.5494 0.982443 12.6895 1.33672 12.6897H2.84752C3.3048 13.5686 3.93386 14.3478 4.6978 14.9816C5.46174 15.6154 6.34517 16.091 7.29629 16.3806V17.6709C7.29679 18.0234 7.43782 18.3614 7.68842 18.6105C7.93902 18.8597 8.27873 18.9998 8.633 19H11.367C11.7213 18.9998 12.061 18.8597 12.3116 18.6105C12.5622 18.3614 12.7032 18.0234 12.7037 17.6709V16.381C13.6557 16.0937 14.54 15.6188 15.3039 14.9847C16.0678 14.3506 16.6959 13.5701 17.1507 12.6897H18.6643C19.0184 12.6894 19.358 12.5493 19.6085 12.3001C19.8589 12.051 19.9997 11.7131 20 11.3607V8.64031C19.9998 8.28781 19.859 7.94979 19.6086 7.70044C19.3582 7.45109 19.0186 7.31077 18.6643 7.31028ZM8.31323 2.33005C8.3132 2.28825 8.32145 2.24687 8.33751 2.20825C8.35357 2.16963 8.37712 2.13455 8.40682 2.10499C8.43652 2.07544 8.47178 2.05201 8.51059 2.03602C8.5494 2.02004 8.591 2.01183 8.633 2.01186H11.367C11.409 2.01183 11.4506 2.02004 11.4894 2.03602C11.5282 2.05201 11.5635 2.07544 11.5932 2.10499C11.6229 2.13455 11.6464 2.16963 11.6625 2.20825C11.6786 2.24687 11.6868 2.28825 11.6868 2.33005V5.05039C11.6868 5.09219 11.6786 5.13357 11.6625 5.17219C11.6464 5.21081 11.6229 5.24589 11.5932 5.27545C11.5635 5.305 11.5282 5.32843 11.4894 5.34442C11.4506 5.3604 11.409 5.36861 11.367 5.36858H8.633C8.591 5.36861 8.5494 5.3604 8.51059 5.34442C8.47178 5.32843 8.43652 5.305 8.40682 5.27545C8.37712 5.24589 8.35357 5.21081 8.33751 5.17219C8.32145 5.13357 8.3132 5.09219 8.31323 5.05039V2.33005ZM1.01693 11.3607V8.64031C1.01691 8.59852 1.02516 8.55713 1.04122 8.51852C1.05728 8.4799 1.08084 8.44482 1.11054 8.41527C1.14024 8.38571 1.1755 8.36228 1.21431 8.3463C1.25312 8.33032 1.29471 8.32211 1.33672 8.32213H3.13497C3.14341 8.32257 3.15167 8.32707 3.16004 8.32707C3.166 8.32707 3.17084 8.32232 3.17674 8.32213H4.07071C4.11271 8.32211 4.1543 8.33032 4.19311 8.3463C4.23192 8.36228 4.26718 8.38571 4.29689 8.41527C4.32658 8.44482 4.35014 8.4799 4.3662 8.51852C4.38226 8.55713 4.39052 8.59852 4.39049 8.64031V11.3607C4.39035 11.4449 4.35658 11.5257 4.29661 11.5852C4.23664 11.6446 4.15539 11.678 4.07071 11.6779H3.17009C3.16377 11.6777 3.15781 11.6777 3.15141 11.6779H1.33672C1.25204 11.678 1.17078 11.6446 1.11081 11.5852C1.05084 11.5257 1.01707 11.4449 1.01693 11.3607ZM11.367 17.9881H8.633C8.54832 17.9883 8.46707 17.9549 8.4071 17.8954C8.34713 17.8359 8.31337 17.7552 8.31323 17.6709V14.9496C8.31337 14.8654 8.34713 14.7846 8.4071 14.7251C8.46707 14.6656 8.54832 14.6323 8.633 14.6324H11.367C11.4517 14.6323 11.5329 14.6656 11.5929 14.7251C11.6529 14.7846 11.6866 14.8654 11.6868 14.9496V17.6709C11.6866 17.7552 11.6529 17.8359 11.5929 17.8954C11.5329 17.9549 11.4517 17.9883 11.367 17.9881ZM12.7037 15.3193V14.9496C12.7032 14.5971 12.5622 14.2592 12.3116 14.01C12.061 13.7609 11.7213 13.6208 11.367 13.6206H8.633C8.27873 13.6208 7.93902 13.7609 7.68842 14.01C7.43782 14.2592 7.29679 14.5971 7.29629 14.9496V15.3167C5.93426 14.8296 4.77382 13.9054 3.99784 12.6897H4.07071C4.42498 12.6895 4.76469 12.5494 5.01529 12.3003C5.26589 12.0511 5.40692 11.7132 5.40742 11.3607V8.64031C5.40696 8.2877 5.26598 7.94967 5.01539 7.70034C4.76481 7.45101 4.42508 7.31074 4.07071 7.31028H3.99766C4.77231 6.09386 5.93337 5.17 7.29629 4.68552V5.05038C7.29676 5.40299 7.43774 5.74102 7.68832 5.99036C7.9389 6.23969 8.27862 6.37997 8.633 6.38043H11.367C11.7214 6.37997 12.0611 6.23969 12.3117 5.99036C12.5623 5.74102 12.7032 5.40299 12.7037 5.05038V4.68386C14.0675 5.16694 15.2287 6.09189 16.0009 7.31028H15.9293C15.575 7.31078 15.2354 7.45111 14.985 7.70045C14.7346 7.9498 14.5938 8.28781 14.5936 8.64031V11.3607C14.5939 11.7131 14.7347 12.051 14.9851 12.3001C15.2356 12.5493 15.5752 12.6894 15.9293 12.6897H16.0018C15.2292 13.9089 14.0679 14.8348 12.7037 15.3193ZM18.9831 11.3607C18.983 11.4448 18.9494 11.5254 18.8896 11.5849C18.8298 11.6443 18.7488 11.6778 18.6643 11.6779H16.8471C16.8393 11.6777 16.832 11.6777 16.8242 11.6779H15.9293C15.8448 11.6778 15.7638 11.6443 15.704 11.5849C15.6442 11.5254 15.6106 11.4448 15.6105 11.3607V8.64031C15.6104 8.55606 15.6439 8.47521 15.7037 8.41554C15.7635 8.35587 15.8446 8.32227 15.9293 8.32213H16.8213C16.8272 8.32232 16.832 8.32707 16.838 8.32707C16.8464 8.32707 16.8546 8.32257 16.8631 8.32213H18.6643C18.749 8.32227 18.8301 8.35587 18.8899 8.41554C18.9497 8.47521 18.9832 8.55606 18.9831 8.64031V11.3607Z" fill="#171723"/>
</g>
<defs>
<clipPath id="clip0_10314_144692">
<rect width="20" height="20" fill="white"/>
</clipPath>
</defs>
</svg>
