<svg width="20" height="20" viewBox="0 0 20 20" fill="none" xmlns="http://www.w3.org/2000/svg">
<path d="M0.833298 16.6667V3.33341H3.74996V4.35425H1.9369V15.6459H3.74996V16.6667H0.833298Z" fill="#171723"/>
<path d="M19.1666 3.33341V16.6667H16.25V15.6459H18.063V4.35425H16.25V3.33341H19.1666Z" fill="#171723"/>
<path d="M7.49996 10.0001C7.49996 10.6904 6.94032 11.2501 6.24996 11.2501C5.55961 11.2501 4.99996 10.6904 4.99996 10.0001C4.99996 9.30972 5.55961 8.75008 6.24996 8.75008C6.94032 8.75008 7.49996 9.30972 7.49996 10.0001Z" fill="#171723"/>
<path d="M11.6666 10.0001C11.6666 10.6904 11.107 11.2501 10.4166 11.2501C9.72628 11.2501 9.16663 10.6904 9.16663 10.0001C9.16663 9.30972 9.72628 8.75008 10.4166 8.75008C11.107 8.75008 11.6666 9.30972 11.6666 10.0001Z" fill="#171723"/>
<path d="M15.8333 10.0001C15.8333 10.6904 15.2737 11.2501 14.5833 11.2501C13.8929 11.2501 13.3333 10.6904 13.3333 10.0001C13.3333 9.30972 13.8929 8.75008 14.5833 8.75008C15.2737 8.75008 15.8333 9.30972 15.8333 10.0001Z" fill="#171723"/>
</svg>
