<svg width="20" height="20" viewBox="0 0 20 20" fill="none" xmlns="http://www.w3.org/2000/svg">
<g clip-path="url(#clip0_10314_145598)">
<path d="M19.4649 1.14305H11.4045C11.3342 1.14301 11.2646 1.15614 11.1996 1.18168C11.1347 1.20722 11.0756 1.24467 11.0259 1.29189C10.9762 1.33912 10.9368 1.39518 10.9099 1.45689C10.883 1.5186 10.8692 1.58473 10.8693 1.65152V2.70913H10.4135V1.64948C10.4135 1.5827 10.3997 1.51656 10.3728 1.45486C10.346 1.39315 10.3065 1.33708 10.2568 1.28986C10.2071 1.24264 10.1481 1.20518 10.0832 1.17964C10.0182 1.15411 9.94859 1.14098 9.87829 1.14102H8.26432V0.508466C8.26432 0.373613 8.20793 0.244282 8.10756 0.148926C8.00719 0.0535705 7.87106 0 7.72911 0C7.58716 0 7.45103 0.0535705 7.35066 0.148926C7.25029 0.244282 7.19391 0.373613 7.19391 0.508466V1.14107H5.57993C5.50963 1.14103 5.44002 1.15416 5.37507 1.1797C5.31012 1.20523 5.2511 1.24269 5.20139 1.28991C5.15169 1.33713 5.11226 1.3932 5.08538 1.45491C5.0585 1.51662 5.04468 1.58275 5.04473 1.64954V2.70918H4.26492C4.19463 2.70914 4.12501 2.72227 4.06006 2.74781C3.99511 2.77335 3.93609 2.8108 3.88639 2.85802C3.83668 2.90524 3.79726 2.96131 3.77038 3.02302C3.74349 3.08473 3.72968 3.15086 3.72972 3.21765V5.73914H0.535205C0.46491 5.7391 0.395295 5.75223 0.330343 5.77776C0.26539 5.8033 0.206374 5.84076 0.156667 5.88798C0.106961 5.9352 0.0675393 5.99127 0.0406572 6.05298C0.013775 6.11469 -4.07168e-05 6.18082 9.01335e-08 6.24761V19.4915C-3.93083e-05 19.5583 0.0137774 19.6245 0.04066 19.6862C0.0675426 19.7479 0.106964 19.8039 0.15667 19.8512C0.206376 19.8984 0.265393 19.9358 0.330344 19.9614C0.395296 19.9869 0.46491 20 0.535205 20H7.70298L7.71852 19.997H7.73761L7.75315 20H14.9199L14.9354 19.997H19.4649C19.5352 19.9971 19.6049 19.9839 19.6698 19.9584C19.7348 19.9329 19.7938 19.8954 19.8435 19.8482C19.8932 19.801 19.9326 19.7449 19.9595 19.6832C19.9864 19.6215 20.0002 19.5553 20.0002 19.4886V1.65156C20.0002 1.58477 19.9864 1.51863 19.9595 1.45692C19.9326 1.39521 19.8932 1.33913 19.8435 1.29191C19.7938 1.24468 19.7348 1.20722 19.6698 1.18168C19.6049 1.15614 19.5352 1.14301 19.4649 1.14305ZM14.3847 18.98H8.28836V10.9499H14.3847V18.98ZM6.11514 2.158H9.34309V2.70918H6.11514V2.158ZM4.80013 3.7261H5.5644L5.57995 3.72908H9.87831L9.89387 3.7261H10.8693V9.93297H8.23822V9.29942H9.60655C9.74849 9.29942 9.88462 9.24585 9.98499 9.15049C10.0854 9.05514 10.1418 8.92581 10.1418 8.79095C10.1418 8.6561 10.0854 8.52677 9.98499 8.43141C9.88462 8.33606 9.74849 8.28249 9.60655 8.28249H8.23819V7.28536H9.60651C9.74846 7.28536 9.88459 7.23179 9.98496 7.13644C10.0853 7.04108 10.1417 6.91175 10.1417 6.7769C10.1417 6.64204 10.0853 6.51271 9.98496 6.41736C9.88459 6.322 9.74846 6.26843 9.60651 6.26843H8.23819V6.24761C8.23823 6.18082 8.22441 6.11469 8.19753 6.05298C8.17064 5.99127 8.13122 5.9352 8.08152 5.88798C8.03181 5.84076 7.9728 5.80331 7.90784 5.77777C7.84289 5.75223 7.77328 5.7391 7.70298 5.73914H4.80013V3.7261ZM1.07041 6.75607H4.25975L4.26491 6.75709L4.27008 6.75607H7.16778V6.76705L7.16564 6.77693L7.16778 6.78679V8.78106L7.16564 8.79093L7.16778 8.8008V18.9801H6.21444V16.7794C6.21448 16.7126 6.20066 16.6465 6.17378 16.5848C6.1469 16.523 6.10748 16.467 6.05777 16.4198C6.00806 16.3725 5.94905 16.3351 5.88409 16.3095C5.81914 16.284 5.74953 16.2709 5.67923 16.2709H2.55792C2.48762 16.2709 2.41801 16.284 2.35305 16.3095C2.2881 16.3351 2.22908 16.3725 2.17938 16.4198C2.12967 16.467 2.09025 16.523 2.06337 16.5848C2.03649 16.6465 2.02267 16.7126 2.02271 16.7794V18.9831H1.07041V6.75607ZM3.09311 17.2878H5.14402V18.9801H4.26492L4.24938 18.9831H3.09311V17.2878ZM18.9297 18.9801H15.4551V10.4414C15.4551 10.3747 15.4413 10.3085 15.4144 10.2468C15.3876 10.1851 15.3481 10.129 15.2984 10.0818C15.2487 10.0346 15.1897 9.99714 15.1248 9.9716C15.0598 9.94606 14.9902 9.93293 14.9199 9.93297H14.3348C14.4218 9.8913 14.4951 9.82762 14.5465 9.74895C14.5979 9.67029 14.6254 9.57967 14.6261 9.48707V8.97861C14.6261 8.84375 14.5698 8.71442 14.4694 8.61907C14.369 8.52371 14.2329 8.47014 14.0909 8.47014C13.949 8.47014 13.8129 8.52371 13.7125 8.61907C13.6121 8.71442 13.5557 8.84375 13.5557 8.97861V9.48707C13.5564 9.57967 13.584 9.67029 13.6354 9.74895C13.6868 9.82762 13.7601 9.8913 13.8471 9.93297H11.9397V2.15998H18.9297L18.9297 18.9801Z" fill="#171723"/>
<path d="M14.0904 4.51856C14.1607 4.5186 14.2303 4.50548 14.2952 4.47994C14.3602 4.4544 14.4192 4.41695 14.4689 4.36972C14.5186 4.3225 14.558 4.26643 14.5849 4.20472C14.6118 4.14302 14.6256 4.07688 14.6256 4.0101V3.50163C14.6256 3.36678 14.5692 3.23745 14.4688 3.14209C14.3685 3.04673 14.2323 2.99316 14.0904 2.99316C13.9484 2.99316 13.8123 3.04673 13.7119 3.14209C13.6116 3.23745 13.5552 3.36678 13.5552 3.50163V4.0101C13.5551 4.07688 13.569 4.14302 13.5958 4.20472C13.6227 4.26643 13.6621 4.3225 13.7118 4.36972C13.7615 4.41695 13.8206 4.4544 13.8855 4.47994C13.9505 4.50548 14.0201 4.5186 14.0904 4.51856Z" fill="#171723"/>
<path d="M16.7779 4.51856C16.8482 4.5186 16.9178 4.50548 16.9827 4.47994C17.0477 4.4544 17.1067 4.41695 17.1564 4.36972C17.2061 4.3225 17.2455 4.26643 17.2724 4.20472C17.2993 4.14302 17.3131 4.07688 17.3131 4.0101V3.50163C17.3131 3.36678 17.2567 3.23745 17.1563 3.14209C17.056 3.04673 16.9198 2.99316 16.7779 2.99316C16.6359 2.99316 16.4998 3.04673 16.3994 3.14209C16.2991 3.23745 16.2427 3.36678 16.2427 3.50163V4.0101C16.2426 4.07688 16.2565 4.14302 16.2833 4.20472C16.3102 4.26643 16.3496 4.3225 16.3993 4.36972C16.4491 4.41694 16.5081 4.45439 16.573 4.47993C16.638 4.50547 16.7076 4.5186 16.7779 4.51856Z" fill="#171723"/>
<path d="M14.0904 7.2268C14.1607 7.22684 14.2303 7.21372 14.2952 7.18818C14.3602 7.16264 14.4192 7.12519 14.4689 7.07796C14.5186 7.03074 14.558 6.97467 14.5849 6.91296C14.6118 6.85126 14.6256 6.78512 14.6256 6.71834V6.23967C14.6256 6.10481 14.5692 5.97548 14.4688 5.88013C14.3685 5.78477 14.2323 5.7312 14.0904 5.7312C13.9484 5.7312 13.8123 5.78477 13.7119 5.88013C13.6116 5.97548 13.5552 6.10481 13.5552 6.23967V6.71834C13.5551 6.78512 13.569 6.85126 13.5958 6.91296C13.6227 6.97467 13.6621 7.03074 13.7118 7.07796C13.7615 7.12519 13.8206 7.16264 13.8855 7.18818C13.9505 7.21372 14.0201 7.22684 14.0904 7.2268Z" fill="#171723"/>
<path d="M16.7779 7.2268C16.8482 7.22684 16.9178 7.21372 16.9827 7.18818C17.0477 7.16264 17.1067 7.12519 17.1564 7.07796C17.2061 7.03074 17.2455 6.97467 17.2724 6.91296C17.2993 6.85126 17.3131 6.78512 17.3131 6.71834V6.23967C17.3131 6.10481 17.2567 5.97548 17.1563 5.88013C17.056 5.78477 16.9198 5.7312 16.7779 5.7312C16.6359 5.7312 16.4998 5.78477 16.3994 5.88013C16.2991 5.97548 16.2427 6.10481 16.2427 6.23967V6.71834C16.2426 6.78512 16.2565 6.85126 16.2833 6.91296C16.3102 6.97467 16.3496 7.03074 16.3993 7.07796C16.4491 7.12518 16.5081 7.16264 16.573 7.18818C16.638 7.21371 16.7076 7.22684 16.7779 7.2268Z" fill="#171723"/>
<path d="M2.77446 9.46325C2.84476 9.46329 2.91437 9.45017 2.97933 9.42463C3.04428 9.39909 3.10329 9.36164 3.153 9.31441C3.20271 9.26719 3.24213 9.21112 3.26901 9.14941C3.29589 9.08771 3.30971 9.02157 3.30967 8.95479V8.47612C3.30967 8.34126 3.25328 8.21193 3.15291 8.11658C3.05254 8.02122 2.91641 7.96765 2.77446 7.96765C2.63252 7.96765 2.49639 8.02122 2.39602 8.11658C2.29565 8.21193 2.23926 8.34126 2.23926 8.47612V8.95479C2.23922 9.02157 2.25303 9.08771 2.27991 9.14941C2.3068 9.21112 2.34622 9.26719 2.39592 9.31441C2.44563 9.36164 2.50465 9.39909 2.5696 9.42463C2.63455 9.45017 2.70417 9.46329 2.77446 9.46325Z" fill="#171723"/>
<path d="M5.46245 9.46325C5.53275 9.46329 5.60236 9.45017 5.66731 9.42463C5.73227 9.39909 5.79128 9.36164 5.84099 9.31441C5.8907 9.26719 5.93012 9.21112 5.957 9.14941C5.98388 9.08771 5.9977 9.02157 5.99766 8.95479V8.47612C5.99766 8.34126 5.94127 8.21193 5.8409 8.11658C5.74053 8.02122 5.6044 7.96765 5.46245 7.96765C5.32051 7.96765 5.18437 8.02122 5.084 8.11658C4.98363 8.21193 4.92725 8.34126 4.92725 8.47612V8.95479C4.92721 9.02157 4.94102 9.08771 4.96791 9.14941C4.99479 9.21112 5.03421 9.26719 5.08392 9.31441C5.13362 9.36163 5.19264 9.39909 5.25759 9.42463C5.32254 9.45016 5.39216 9.46329 5.46245 9.46325Z" fill="#171723"/>
<path d="M2.77446 12.3412C2.84476 12.3412 2.91437 12.3281 2.97932 12.3026C3.04428 12.277 3.10329 12.2396 3.153 12.1924C3.2027 12.1451 3.24213 12.0891 3.26901 12.0274C3.29589 11.9656 3.30971 11.8995 3.30967 11.8327V11.354C3.30967 11.2192 3.25328 11.0899 3.15291 10.9945C3.05254 10.8992 2.91641 10.8456 2.77446 10.8456C2.63252 10.8456 2.49639 10.8992 2.39602 10.9945C2.29565 11.0899 2.23926 11.2192 2.23926 11.354V11.8327C2.23922 11.8995 2.25304 11.9656 2.27992 12.0274C2.3068 12.0891 2.34622 12.1451 2.39593 12.1924C2.44563 12.2396 2.50465 12.277 2.5696 12.3026C2.63455 12.3281 2.70417 12.3412 2.77446 12.3412Z" fill="#171723"/>
<path d="M5.46245 12.3412C5.53275 12.3412 5.60236 12.3281 5.66731 12.3026C5.73226 12.277 5.79128 12.2396 5.84099 12.1924C5.89069 12.1451 5.93011 12.0891 5.957 12.0274C5.98388 11.9656 5.9977 11.8995 5.99766 11.8327V11.354C5.99766 11.2192 5.94127 11.0899 5.8409 10.9945C5.74053 10.8992 5.6044 10.8456 5.46245 10.8456C5.32051 10.8456 5.18437 10.8992 5.084 10.9945C4.98363 11.0899 4.92725 11.2192 4.92725 11.354V11.8327C4.92721 11.8995 4.94102 11.9656 4.96791 12.0274C4.99479 12.0891 5.03421 12.1451 5.08392 12.1924C5.13362 12.2396 5.19264 12.277 5.25759 12.3026C5.32254 12.3281 5.39216 12.3412 5.46245 12.3412Z" fill="#171723"/>
<path d="M2.77446 15.2192C2.84476 15.2193 2.91437 15.2062 2.97932 15.1806C3.04428 15.1551 3.10329 15.1176 3.153 15.0704C3.2027 15.0232 3.24213 14.9671 3.26901 14.9054C3.29589 14.8437 3.30971 14.7776 3.30967 14.7108V14.2321C3.30967 14.0972 3.25328 13.9679 3.15291 13.8726C3.05254 13.7772 2.91641 13.7236 2.77446 13.7236C2.63252 13.7236 2.49639 13.7772 2.39602 13.8726C2.29565 13.9679 2.23926 14.0972 2.23926 14.2321V14.7108C2.23922 14.7776 2.25304 14.8437 2.27992 14.9054C2.3068 14.9671 2.34622 15.0232 2.39593 15.0704C2.44563 15.1176 2.50465 15.1551 2.5696 15.1806C2.63455 15.2062 2.70417 15.2193 2.77446 15.2192Z" fill="#171723"/>
<path d="M5.46245 15.2192C5.53275 15.2193 5.60236 15.2062 5.66731 15.1806C5.73226 15.1551 5.79128 15.1176 5.84099 15.0704C5.89069 15.0232 5.93011 14.9671 5.957 14.9054C5.98388 14.8437 5.9977 14.7776 5.99766 14.7108V14.2321C5.99766 14.0972 5.94127 13.9679 5.8409 13.8726C5.74053 13.7772 5.6044 13.7236 5.46245 13.7236C5.32051 13.7236 5.18437 13.7772 5.084 13.8726C4.98363 13.9679 4.92725 14.0972 4.92725 14.2321V14.7108C4.92721 14.7776 4.94102 14.8437 4.96791 14.9054C4.99479 14.9671 5.03421 15.0232 5.08392 15.0704C5.13362 15.1176 5.19264 15.1551 5.25759 15.1806C5.32254 15.2062 5.39216 15.2193 5.46245 15.2192Z" fill="#171723"/>
<path d="M16.7779 9.99549C16.8482 9.99553 16.9178 9.9824 16.9827 9.95686C17.0477 9.93132 17.1067 9.89387 17.1564 9.84665C17.2061 9.79943 17.2455 9.74336 17.2724 9.68165C17.2993 9.61994 17.3131 9.55381 17.3131 9.48703V8.97856C17.3131 8.84371 17.2567 8.71438 17.1563 8.61902C17.056 8.52366 16.9198 8.47009 16.7779 8.47009C16.6359 8.47009 16.4998 8.52366 16.3994 8.61902C16.2991 8.71438 16.2427 8.84371 16.2427 8.97856V9.48703C16.2426 9.55381 16.2565 9.61994 16.2833 9.68165C16.3102 9.74336 16.3496 9.79943 16.3993 9.84665C16.4491 9.89387 16.5081 9.93132 16.573 9.95686C16.638 9.9824 16.7076 9.99553 16.7779 9.99549Z" fill="#171723"/>
<path d="M16.7779 12.7345C16.8482 12.7345 16.9178 12.7214 16.9827 12.6959C17.0477 12.6703 17.1067 12.6329 17.1564 12.5857C17.2061 12.5384 17.2455 12.4824 17.2724 12.4207C17.2993 12.359 17.3131 12.2928 17.3131 12.226V11.7176C17.3131 11.5827 17.2567 11.4534 17.1563 11.358C17.056 11.2627 16.9198 11.2091 16.7779 11.2091C16.6359 11.2091 16.4998 11.2627 16.3994 11.358C16.2991 11.4534 16.2427 11.5827 16.2427 11.7176V12.226C16.2426 12.2928 16.2565 12.359 16.2833 12.4207C16.3102 12.4824 16.3496 12.5384 16.3993 12.5857C16.4491 12.6329 16.5081 12.6703 16.573 12.6959C16.638 12.7214 16.7076 12.7345 16.7779 12.7345Z" fill="#171723"/>
<path d="M16.7779 15.4735C16.8482 15.4736 16.9178 15.4604 16.9827 15.4349C17.0477 15.4094 17.1067 15.3719 17.1564 15.3247C17.2061 15.2775 17.2455 15.2214 17.2724 15.1597C17.2993 15.098 17.3131 15.0318 17.3131 14.9651V14.4566C17.3131 14.3217 17.2567 14.1924 17.1563 14.097C17.056 14.0017 16.9198 13.9481 16.7779 13.9481C16.6359 13.9481 16.4998 14.0017 16.3994 14.097C16.2991 14.1924 16.2427 14.3217 16.2427 14.4566V14.9651C16.2426 15.0318 16.2565 15.098 16.2833 15.1597C16.3102 15.2214 16.3496 15.2775 16.3993 15.3247C16.4491 15.3719 16.5081 15.4094 16.573 15.4349C16.638 15.4604 16.7076 15.4736 16.7779 15.4735Z" fill="#171723"/>
<path d="M16.7779 18.2114C16.8482 18.2115 16.9178 18.1983 16.9827 18.1728C17.0477 18.1473 17.1067 18.1098 17.1564 18.0626C17.2061 18.0154 17.2455 17.9593 17.2724 17.8976C17.2993 17.8359 17.3131 17.7698 17.3131 17.703V17.1945C17.3131 17.0596 17.2567 16.9303 17.1563 16.835C17.056 16.7396 16.9198 16.686 16.7779 16.686C16.6359 16.686 16.4998 16.7396 16.3994 16.835C16.2991 16.9303 16.2427 17.0596 16.2427 17.1945V17.703C16.2426 17.7698 16.2565 17.8359 16.2833 17.8976C16.3102 17.9593 16.3496 18.0154 16.3993 18.0626C16.4491 18.1098 16.5081 18.1473 16.573 18.1728C16.638 18.1983 16.7076 18.2115 16.7779 18.2114Z" fill="#171723"/>
<path d="M9.80815 18.4309C9.87845 18.4309 9.94806 18.4178 10.013 18.3922C10.078 18.3667 10.137 18.3292 10.1867 18.282C10.2364 18.2348 10.2758 18.1787 10.3027 18.117C10.3296 18.0553 10.3434 17.9892 10.3434 17.9224V12.0065C10.3434 11.8717 10.287 11.7423 10.1866 11.647C10.0862 11.5516 9.9501 11.498 9.80815 11.498C9.66621 11.498 9.53008 11.5516 9.42971 11.647C9.32934 11.7423 9.27295 11.8717 9.27295 12.0065V17.9224C9.27291 17.9892 9.28673 18.0553 9.31361 18.117C9.34049 18.1787 9.37991 18.2348 9.42962 18.282C9.47933 18.3292 9.53834 18.3667 9.60329 18.3922C9.66825 18.4178 9.73786 18.4309 9.80815 18.4309Z" fill="#171723"/>
<path d="M12.8614 18.4309C12.9317 18.4309 13.0013 18.4178 13.0662 18.3922C13.1312 18.3667 13.1902 18.3292 13.2399 18.282C13.2896 18.2348 13.329 18.1787 13.3559 18.117C13.3828 18.0553 13.3966 17.9892 13.3966 17.9224V12.0065C13.3966 11.8717 13.3402 11.7423 13.2398 11.647C13.1395 11.5516 13.0033 11.498 12.8614 11.498C12.7194 11.498 12.5833 11.5516 12.4829 11.647C12.3826 11.7423 12.3262 11.8717 12.3262 12.0065V17.9224C12.3261 17.9892 12.3399 18.0553 12.3668 18.117C12.3937 18.1787 12.4331 18.2348 12.4828 18.282C12.5325 18.3292 12.5916 18.3667 12.6565 18.3922C12.7215 18.4178 12.7911 18.4309 12.8614 18.4309Z" fill="#171723"/>
</g>
<defs>
<clipPath id="clip0_10314_145598">
<rect width="20" height="20" fill="white"/>
</clipPath>
</defs>
</svg>
