<svg width="20" height="20" viewBox="0 0 20 20" fill="none" xmlns="http://www.w3.org/2000/svg">
<g clip-path="url(#clip0_17685_40575)">
<path d="M0.0107606 15.4902C-0.00914647 15.6408 -0.0041981 15.7933 0.0491794 15.9362C0.0497797 15.9379 0.0489847 15.9399 0.0496824 15.9416C0.0524567 15.9487 0.0598874 15.9517 0.062759 15.9587C0.100788 16.052 0.149201 16.1422 0.219225 16.2194L3.40544 19.7357C3.72074 20.0817 4.23407 20.0885 4.55254 19.7528C4.87417 19.4153 4.88051 18.863 4.56839 18.5187L2.72435 16.4836H13.5357C17.1006 16.4836 20 13.3542 20 9.50718V0.872689C20 0.390319 19.6372 0 19.1888 0C18.7404 0 18.3776 0.390319 18.3776 0.872689V9.5072C18.3776 12.3912 16.2054 14.7382 13.5357 14.7382H2.78433L4.54934 12.8735C4.86781 12.536 4.87256 11.9838 4.55885 11.6395C4.24673 11.2969 3.73338 11.2884 3.41175 11.6293L0.235238 14.9853L0.23188 14.9888C0.229803 14.9909 0.229998 14.9944 0.227921 14.9967C0.125027 15.1082 0.0668151 15.2433 0.0311544 15.3847C0.0218417 15.421 0.0156116 15.4529 0.0107606 15.4902Z" fill="#171723"/>
</g>
<defs>
<clipPath id="clip0_17685_40575">
<rect width="20" height="20" fill="white"/>
</clipPath>
</defs>
</svg>
