<svg width="20" height="20" viewBox="0 0 20 20" fill="none" xmlns="http://www.w3.org/2000/svg">
<path d="M11.1653 3.52934H8.83485C8.14365 3.52934 7.58331 4.08969 7.58331 4.78088V10.6666H12.4169V4.78088C12.4169 4.08969 11.8565 3.52934 11.1653 3.52934Z" fill="#171723"/>
<path d="M5.33007 10.6667H1.2796C1.5897 8.15046 3.1652 6.06346 5.32193 5.01189C5.32193 5.01189 5.3251 10.6056 5.33007 10.6667Z" fill="#171723"/>
<path d="M14.67 10.6667C14.6749 10.6056 14.6781 5.01189 14.6781 5.01189C16.8348 6.06346 18.4103 8.15046 18.7204 10.6667H14.67Z" fill="#171723"/>
<path d="M1.13064 16.4707H18.8694C19.4938 16.4707 20 15.9644 20 15.34V14.0585C20 13.4341 19.4938 12.9278 18.8694 12.9278H1.13064C0.506224 12.9278 0 13.4341 0 14.0585V15.34C0 15.9644 0.506224 16.4707 1.13064 16.4707Z" fill="#171723"/>
</svg>
