<svg width="20" height="20" viewBox="0 0 20 20" fill="none" xmlns="http://www.w3.org/2000/svg">
<g clip-path="url(#clip0_5313_35214)">
<path d="M19.2053 6.73686L13.9948 1.7585C13.4845 1.27274 12.7935 1 12.0731 1C11.3527 1 10.6617 1.27274 10.1513 1.7585L3.69314 7.93945L0.789396 10.7129C0.283635 11.2019 0 11.8616 0 12.5491C0 13.2365 0.283635 13.8963 0.789396 14.3852L4.98456 18.3935C5.18493 18.5862 5.42331 18.739 5.68591 18.8431C5.94851 18.9473 6.23011 19.0006 6.51442 19H9.31882C9.89151 18.996 10.44 18.7787 10.8477 18.3945L12.7461 16.5911L12.7465 16.5905L12.7471 16.5901L19.2053 10.4092C19.7142 9.9218 20 9.26146 20 8.57301C20 7.88456 19.7142 7.22422 19.2053 6.73686H19.2053ZM18.4861 9.72198L12.3875 15.5593L4.77199 8.28304L10.8706 2.44569C11.1896 2.1412 11.6221 1.97016 12.0731 1.97016C12.524 1.97016 12.9565 2.1412 13.2756 2.44569L18.4861 7.42405C18.8042 7.72919 18.9828 8.14233 18.9828 8.57301C18.9828 9.0037 18.8042 9.41684 18.4861 9.72198H18.4861Z" fill="#171723"/>
</g>
<defs>
<clipPath id="clip0_5313_35214">
<rect width="20" height="20" fill="white"/>
</clipPath>
</defs>
</svg>
