<svg width="20" height="20" viewBox="0 0 20 20" fill="none" xmlns="http://www.w3.org/2000/svg">
<g clip-path="url(#clip0_5313_35172)">
<g clip-path="url(#clip1_5313_35172)">
<path d="M18.8514 8.65971C18.3471 8.36478 17.7506 8.28229 17.1881 8.42968C17.123 8.0187 16.9177 7.64474 16.6087 7.37445C16.2996 7.10417 15.907 6.95511 15.5007 6.95385H14.1354C14.0394 6.57942 13.8254 6.24796 13.5267 6.01101C13.2279 5.77405 12.8612 5.64487 12.4834 5.64353H11.1449L11.1414 2.12896C11.14 1.5637 10.9199 1.0221 10.5293 0.62297C10.1387 0.223845 9.60953 -0.000197596 9.05794 1.30765e-07C8.50635 0.000197857 7.97736 0.22462 7.58704 0.624025C7.19672 1.02343 6.97695 1.5652 6.97595 2.13045V9.02584L5.47897 9.36684C5.02154 9.47284 4.61862 9.74868 4.34795 10.1411C4.07727 10.5336 3.95801 11.0149 4.01318 11.4922L4.36109 14.6771C4.45362 15.4905 4.73173 16.27 5.1729 16.9528L6.00522 18.2471C6.35979 18.7871 6.83851 19.2294 7.3992 19.535C7.95989 19.8407 8.58533 20.0004 9.22042 19.9999H14.7181C15.5504 20.0052 16.3611 19.7293 17.025 19.2149C17.473 18.8814 17.842 18.449 18.1048 17.9495L18.8806 16.4973C19.2887 15.7307 19.5472 14.8899 19.6418 14.022L19.978 11.1046C20.041 10.6291 19.9681 10.1451 19.7681 9.71114C19.5682 9.2772 19.2497 8.91198 18.8514 8.65971V8.65971ZM18.6506 13.9066C18.5703 14.6428 18.3512 15.3559 18.0054 16.0065L17.2277 17.4616C17.0341 17.83 16.7615 18.1485 16.4305 18.3935C15.9381 18.7761 15.3361 18.9813 14.7181 18.9772H9.22043C8.74979 18.9778 8.28623 18.8598 7.87054 18.6337C7.45485 18.4075 7.09977 18.0802 6.83655 17.6803L6.00522 16.388C5.6508 15.8398 5.42712 15.2139 5.35224 14.5608L5.00529 11.3758C4.98086 11.1497 5.03778 10.9223 5.16535 10.7361C5.29293 10.5499 5.4824 10.4178 5.69823 10.3646L6.97592 10.0737V11.4063C6.97592 11.5419 7.0285 11.672 7.12208 11.7679C7.21565 11.8638 7.34258 11.9177 7.47492 11.9177C7.60726 11.9177 7.73418 11.8638 7.82776 11.7679C7.92134 11.672 7.97391 11.5419 7.97391 11.4063V2.13042C7.97464 1.83618 8.08918 1.55425 8.29242 1.3464C8.49565 1.13856 8.77102 1.02177 9.05814 1.02164C9.34527 1.0215 9.62073 1.13803 9.82416 1.34568C10.0276 1.55333 10.1424 1.83516 10.1434 2.1294L10.1512 10.014C10.1512 10.1496 10.2039 10.2796 10.2975 10.3755C10.3911 10.4713 10.5181 10.5252 10.6504 10.5251C10.7827 10.525 10.9096 10.4711 11.0032 10.3751C11.0967 10.2792 11.1492 10.1491 11.1491 10.0135V6.66624H12.4834C12.6733 6.66669 12.8554 6.74414 12.9898 6.88168C13.1242 7.01922 13.2 7.20567 13.2007 7.40032C13.2007 7.89969 13.2017 8.28421 13.2075 8.58033C13.2075 8.62577 13.2065 8.67122 13.2065 8.71666L13.2045 9.04175L13.2123 9.04225C13.2123 9.28345 13.2133 9.60155 13.2133 10.014C13.2133 10.0812 13.2262 10.1476 13.2513 10.2097C13.2763 10.2717 13.3131 10.328 13.3594 10.3755C13.4058 10.4229 13.4608 10.4605 13.5214 10.4862C13.5819 10.5118 13.6468 10.525 13.7123 10.5249H13.7133C13.7404 10.5217 13.7671 10.5161 13.7933 10.5082C13.909 10.4901 14.0146 10.4304 14.0912 10.3398C14.1678 10.2491 14.2104 10.1334 14.2113 10.0135V7.97656H15.5007C15.6907 7.97704 15.8728 8.05456 16.0072 8.19221C16.1416 8.32985 16.2174 8.51642 16.218 8.71114L16.2183 9.15552V9.15845L16.22 11.3598C16.22 11.4269 16.2329 11.4934 16.258 11.5554C16.2831 11.6174 16.3198 11.6737 16.3662 11.7212C16.4125 11.7686 16.4675 11.8062 16.5281 11.8319C16.5886 11.8575 16.6535 11.8707 16.719 11.8707H16.72C16.8522 11.8702 16.9788 11.8161 17.0722 11.7202C17.1655 11.6242 17.2179 11.4943 17.218 11.3588L17.2166 9.48672C17.3979 9.40961 17.5937 9.37472 17.7898 9.38455C17.9859 9.39439 18.1774 9.44871 18.3505 9.54359C18.581 9.69611 18.7636 9.91354 18.8765 10.1698C18.9894 10.426 19.0277 10.7102 18.9869 10.9883L18.6506 13.9066Z" fill="#171723"/>
<path d="M5 0.5C5.00004 0.434328 4.98722 0.369293 4.96228 0.308613C4.93733 0.247933 4.90075 0.192799 4.85463 0.146362C4.80851 0.0999248 4.75375 0.0630964 4.69348 0.0379825C4.63321 0.0128687 4.56862 -3.80385e-05 4.50339 8.42062e-08H0.496605C0.364897 8.42062e-08 0.238584 0.0526784 0.145452 0.146447C0.0523209 0.240215 0 0.367392 0 0.5C0 0.632608 0.0523209 0.759785 0.145452 0.853553C0.238584 0.947321 0.364897 1 0.496605 1H4.50339C4.56862 1.00004 4.63321 0.987129 4.69348 0.962015C4.75375 0.9369 4.80851 0.900072 4.85463 0.853635C4.90075 0.807199 4.93733 0.752065 4.96227 0.691385C4.98722 0.630706 5.00004 0.565671 5 0.5Z" fill="#171723"/>
</g>
</g>
<defs>
<clipPath id="clip0_5313_35172">
<rect width="20" height="20" fill="white"/>
</clipPath>
<clipPath id="clip1_5313_35172">
<rect width="20" height="20" fill="white"/>
</clipPath>
</defs>
</svg>
