<svg width="20" height="20" viewBox="0 0 20 20" fill="none" xmlns="http://www.w3.org/2000/svg">
<g clip-path="url(#clip0_5313_35075)">
<path d="M19.2058 6.73747L13.9947 1.75846C13.4844 1.27273 12.7934 1 12.0731 1C11.3527 1 10.6618 1.27273 10.1514 1.75846L3.69366 7.93906L0.790095 10.7133C0.283922 11.202 0 11.8618 0 12.5494C0 13.2369 0.283922 13.8967 0.790095 14.3854L4.98499 18.3935C5.18535 18.5862 5.42372 18.7391 5.6863 18.8432C5.94889 18.9473 6.23047 19.0006 6.51476 19H9.31898C9.89174 18.9965 10.4404 18.7792 10.8477 18.3945L12.746 16.5912L12.747 16.5902L19.2058 10.4096C19.7144 9.92211 20 9.26186 20 8.57354C20 7.88522 19.7144 7.22497 19.2058 6.73747ZM10.1355 17.7007C9.91728 17.9057 9.62502 18.0229 9.31899 18.0282H6.51478C6.21083 18.0269 5.91963 17.9113 5.7042 17.7065L1.51126 13.7002C1.1943 13.3942 1.01634 12.9812 1.01597 12.5507C1.01561 12.1202 1.19287 11.7069 1.50932 11.4005L4.05332 8.96977L7.85506 12.6027L11.6674 16.2457L10.1355 17.7007ZM18.4867 9.72243L12.3875 15.5595L8.57995 11.9211L4.77247 8.28264L10.8706 2.44558C11.1897 2.1411 11.6222 1.97007 12.0731 1.97007C12.524 1.97007 12.9565 2.1411 13.2756 2.44558L18.4866 7.42459C18.8049 7.72964 18.9836 8.1428 18.9836 8.57351C18.9836 9.00423 18.8049 9.41738 18.4867 9.72243Z" fill="#171723"/>
</g>
<defs>
<clipPath id="clip0_5313_35075">
<rect width="20" height="20" fill="white"/>
</clipPath>
</defs>
</svg>
