<svg width="20" height="20" viewBox="0 0 20 20" fill="none" xmlns="http://www.w3.org/2000/svg">
<path d="M9.98731 14.8333C10.3986 14.8333 10.7431 14.6986 11.0209 14.4293C11.2986 14.1602 11.4375 13.8199 11.4375 13.4085C11.4375 12.9973 11.3029 12.6493 11.0336 12.3645C10.7644 12.0798 10.4241 11.9375 10.0127 11.9375C9.60148 11.9375 9.25697 12.0771 8.97919 12.3564C8.70141 12.6359 8.56252 12.9812 8.56252 13.3925C8.56252 13.8038 8.69717 14.1468 8.96648 14.4214C9.23565 14.696 9.57592 14.8333 9.98731 14.8333ZM8.66669 11.0208H11.3334V5.49996H8.66669V11.0208ZM10.0059 18.9583C8.77085 18.9583 7.60592 18.7284 6.51106 18.2687C5.41634 17.8088 4.46099 17.1709 3.64502 16.355C2.82905 15.539 2.19113 14.5839 1.73127 13.4898C1.27155 12.3954 1.04169 11.229 1.04169 9.99038C1.04169 8.74815 1.27196 7.58503 1.73252 6.501C2.19321 5.41697 2.83335 4.466 3.65294 3.64808C4.47252 2.83017 5.42759 2.19128 6.51815 1.73142C7.6087 1.27156 8.77252 1.04163 10.0096 1.04163C11.2517 1.04163 12.415 1.27142 13.4996 1.731C14.5842 2.19072 15.5353 2.8294 16.3529 3.64704C17.1706 4.46468 17.8093 5.41753 18.269 6.50558C18.7286 7.59378 18.9584 8.75725 18.9584 9.996C18.9584 11.2348 18.7284 12.3981 18.2686 13.486C17.8087 14.5738 17.1698 15.5275 16.3519 16.347C15.534 17.1666 14.5814 17.8068 13.4942 18.2675C12.4071 18.728 11.2443 18.9583 10.0059 18.9583Z" fill="#171723"/>
</svg>
