<svg width="20" height="20" viewBox="0 0 20 20" fill="none" xmlns="http://www.w3.org/2000/svg">
<path d="M9.99627 14.2756C10.245 14.2756 10.4547 14.1915 10.6254 14.0233C10.7961 13.855 10.8815 13.6465 10.8815 13.3979C10.8815 13.1491 10.7973 12.9394 10.629 12.7687C10.4608 12.5982 10.2524 12.5129 10.0038 12.5129C9.75502 12.5129 9.5453 12.597 9.3746 12.7652C9.20391 12.9334 9.11856 13.1418 9.11856 13.3906C9.11856 13.6392 9.20273 13.8488 9.37106 14.0195C9.53926 14.1902 9.74766 14.2756 9.99627 14.2756ZM9.12502 10.8558H10.9167V5.73079H9.12502V10.8558ZM10.0015 18.5833C8.81426 18.5833 7.69835 18.358 6.65377 17.9075C5.60919 17.4569 4.70058 16.8454 3.92794 16.0731C3.1553 15.3007 2.54356 14.3925 2.09273 13.3483C1.64203 12.3041 1.41669 11.1885 1.41669 10.0014C1.41669 8.81058 1.64238 7.69135 2.09377 6.64371C2.54516 5.59607 3.15773 4.68475 3.93148 3.90975C4.70523 3.13475 5.61349 2.52545 6.65627 2.08183C7.69891 1.63836 8.81301 1.41663 9.99856 1.41663C11.1893 1.41663 12.3084 1.63829 13.3559 2.08163C14.4035 2.52496 15.3149 3.13406 16.09 3.90892C16.8652 4.68378 17.4745 5.59496 17.9181 6.64246C18.3616 7.68996 18.5834 8.80926 18.5834 10.0004C18.5834 11.1913 18.3617 12.3068 17.9184 13.3466C17.475 14.3865 16.866 15.2934 16.0913 16.0675C15.3165 16.8415 14.4056 17.4543 13.3584 17.906C12.3111 18.3575 11.1922 18.5833 10.0015 18.5833ZM10 16.7916C11.896 16.7916 13.502 16.1337 14.8179 14.8179C16.1338 13.5019 16.7917 11.8959 16.7917 9.99996C16.7917 8.10399 16.1338 6.49801 14.8179 5.18204C13.502 3.86621 11.896 3.20829 10 3.20829C8.10405 3.20829 6.49808 3.86621 5.1821 5.18204C3.86627 6.49801 3.20835 8.10399 3.20835 9.99996C3.20835 11.8959 3.86627 13.5019 5.1821 14.8179C6.49808 16.1337 8.10405 16.7916 10 16.7916Z" fill="#171723"/>
</svg>
