<svg width="20" height="20" viewBox="0 0 20 20" fill="none" xmlns="http://www.w3.org/2000/svg">
<path fill-rule="evenodd" clip-rule="evenodd" d="M15.8333 1.66666C17.214 1.66666 18.3333 2.78595 18.3333 4.16666V15.8333C18.3333 17.214 17.214 18.3333 15.8333 18.3333H4.16666C2.78594 18.3333 1.66666 17.214 1.66666 15.8333V4.16666C1.66666 2.78595 2.78594 1.66666 4.16666 1.66666H15.8333ZM13.4782 4.4344C13.166 4.23945 12.7545 4.33466 12.5594 4.64681L9.99999 8.74186L7.44058 4.64681C7.24549 4.33466 6.834 4.23945 6.5218 4.4344C6.20965 4.6295 6.11444 5.04099 6.3094 5.35319L9.21386 10L6.3094 14.6468C6.11444 14.959 6.20965 15.3705 6.5218 15.5656C6.834 15.7605 7.24549 15.6653 7.44058 15.3532L9.99999 11.2581L12.5594 15.3532C12.7545 15.6653 13.166 15.7605 13.4782 15.5656C13.7903 15.3705 13.8855 14.959 13.6906 14.6468L10.7861 10L13.6906 5.35319C13.8855 5.04099 13.7903 4.6295 13.4782 4.4344Z" fill="#171723"/>
</svg>
