<svg width="20" height="20" viewBox="0 0 20 20" fill="none" xmlns="http://www.w3.org/2000/svg">
<path fill-rule="evenodd" clip-rule="evenodd" d="M15.8333 18.3333H4.16666L4.03808 18.3301C2.75971 18.2653 1.73468 17.2403 1.66991 15.9619L1.66666 15.8333V4.16666C1.66666 2.78595 2.78594 1.66666 4.16666 1.66666H15.8333C17.214 1.66666 18.3333 2.78595 18.3333 4.16666V15.8333C18.3333 17.1709 17.2829 18.2632 15.9619 18.3301L15.8333 18.3333ZM15.8333 17.0833H4.16666C3.4763 17.0833 2.91666 16.5237 2.91666 15.8333V4.16666C2.91666 3.47631 3.4763 2.91666 4.16666 2.91666H15.8333C16.5237 2.91666 17.0833 3.47631 17.0833 4.16666V15.8333C17.0833 16.5237 16.5237 17.0833 15.8333 17.0833Z" fill="#171723"/>
<path d="M6.54377 4.47021C6.83646 4.28728 7.22181 4.37613 7.40477 4.66878L9.99999 8.82112L12.5952 4.66878C12.7782 4.37613 13.1635 4.28728 13.4562 4.47021C13.7489 4.65317 13.8377 5.03853 13.6548 5.33121L10.7368 10L13.6548 14.6688C13.8377 14.9615 13.7489 15.3468 13.4562 15.5298C13.1635 15.7127 12.7782 15.6239 12.5952 15.3312L9.99999 11.1789L7.40477 15.3312C7.22181 15.6239 6.83646 15.7127 6.54377 15.5298C6.25112 15.3468 6.16228 14.9615 6.3452 14.6688L9.26319 10L6.3452 5.33121C6.16228 5.03853 6.25112 4.65317 6.54377 4.47021Z" fill="#171723"/>
</svg>
