<svg width="20" height="20" viewBox="0 0 20 20" fill="none" xmlns="http://www.w3.org/2000/svg">
<g clip-path="url(#clip0_10317_147178)">
<path d="M11.245 20H8.05217C7.38679 20 6.81378 19.5481 6.65786 18.9016L6.23778 17.1647C6.18216 16.9343 6.0322 16.7337 5.82564 16.6135C5.61213 16.4924 5.36385 16.4636 5.13644 16.5301L3.43824 17.0316C2.7967 17.2203 2.1214 16.9492 1.78871 16.3732L0.193783 13.6144C-0.137909 13.0384 -0.0346298 12.3164 0.445037 11.8586L1.72712 10.6361C1.89794 10.4712 1.99625 10.2408 1.99625 10.0045C1.99625 9.74726 1.89794 9.51687 1.72614 9.35301L0.445047 8.12951C-0.0356163 7.67168 -0.138896 6.9497 0.193793 6.3747L1.7897 3.61488C2.12238 3.03888 2.80166 2.77174 3.43725 2.95645L5.14836 3.45996C5.37479 3.52848 5.62405 3.4977 5.82863 3.37952C6.04413 3.25538 6.1941 3.05477 6.2507 2.82338L6.66781 1.09737C6.82569 0.450867 7.3997 0 8.0631 0H11.245C11.9084 0 12.4824 0.450867 12.6393 1.09637L13.0594 2.82635C13.115 3.05674 13.264 3.25636 13.4685 3.37454C13.6969 3.50861 13.9482 3.53641 14.1746 3.46987L15.8689 2.96935C16.5074 2.77868 17.1857 3.05079 17.5184 3.62877L19.1054 6.38759C19.4361 6.96061 19.3328 7.6816 18.8531 8.14041L17.57 9.3639C17.3992 9.52776 17.3009 9.75816 17.3009 9.99551C17.3009 10.2537 17.3992 10.4831 17.57 10.646C17.57 10.646 17.57 10.647 17.571 10.647L18.8521 11.8705C19.3328 12.3293 19.4361 13.0523 19.1024 13.6263L17.5075 16.3851C17.1748 16.9611 16.5015 17.2312 15.8589 17.0435L14.1528 16.541C13.9254 16.4725 13.6731 16.5043 13.4676 16.6244C13.263 16.7436 13.115 16.9432 13.0594 17.1726L12.6403 18.9026C12.4824 19.5491 11.9084 20 11.245 20ZM5.38272 15.4774C5.71143 15.4774 6.03816 15.5628 6.32616 15.7287C6.781 15.9919 7.10673 16.4268 7.22689 16.9264L7.64698 18.6633C7.69167 18.852 7.85851 18.9831 8.05217 18.9831H11.245C11.4386 18.9831 11.6055 18.851 11.6521 18.6633L12.0702 16.9333C12.1914 16.4358 12.5132 16.0038 12.9551 15.7466C13.402 15.4854 13.9442 15.4178 14.4408 15.5658L16.1469 16.0683C16.3267 16.1229 16.5302 16.0445 16.6276 15.8757L18.2225 13.1168C18.3198 12.949 18.289 12.7395 18.149 12.6054L16.8679 11.3819C16.4965 11.0284 16.2839 10.5308 16.2839 10.0164C16.2839 9.48212 16.4965 8.98359 16.8679 8.62904L18.151 7.40555C18.29 7.27148 18.3208 7.06194 18.2245 6.8951L16.6375 4.13628C16.5402 3.96844 16.3425 3.889 16.1578 3.94461L14.4626 4.44513C13.9671 4.5931 13.4268 4.52657 12.9799 4.26737C12.5151 3.99725 12.1914 3.56425 12.0702 3.06572L11.6511 1.33674C11.6055 1.14904 11.4386 1.01696 11.245 1.01696H8.06309C7.86943 1.01696 7.70259 1.14904 7.65592 1.33674L7.23881 3.06274C7.11666 3.56425 6.79093 3.99824 6.34502 4.25545C5.89217 4.51664 5.35391 4.5792 4.86134 4.43521L3.14924 3.9317C2.96651 3.8751 2.7669 3.95454 2.66957 4.12436L1.07366 6.88318C0.977329 7.05102 1.00713 7.26056 1.14716 7.39363L2.42924 8.61812C2.80066 8.97266 3.01319 9.4712 3.01319 9.98462C3.01319 10.5169 2.80067 11.0145 2.43024 11.37L1.14716 12.5935C1.00812 12.7276 0.977339 12.9381 1.07466 13.1059L2.66957 15.8647C2.7669 16.0326 2.96453 16.111 3.15024 16.0564L4.84843 15.5549C5.02322 15.5033 5.20297 15.4774 5.38272 15.4774Z" fill="#171723"/>
<path d="M8.7819 13.8589C8.62005 13.8589 8.45685 13.8014 8.3271 13.6864L4.8947 10.6366C4.61246 10.3851 4.5857 9.95169 4.83718 9.66945C5.08866 9.38587 5.5234 9.36179 5.80429 9.61193L8.73641 12.2177L13.4463 7.1587C13.7058 6.88181 14.1378 6.86709 14.4147 7.12392C14.6916 7.38209 14.7063 7.81548 14.4495 8.09237L9.28351 13.6409C9.14841 13.7854 8.96515 13.8589 8.7819 13.8589Z" fill="#171723"/>
</g>
<defs>
<clipPath id="clip0_10317_147178">
<rect width="20" height="20" fill="white"/>
</clipPath>
</defs>
</svg>
