<svg width="20" height="20" viewBox="0 0 20 20" fill="none" xmlns="http://www.w3.org/2000/svg">
<path d="M16.4078 8.91881L9.85588 14.8209L3.60662 8.93962C3.54782 8.88316 3.47746 8.83799 3.3996 8.80673C3.32174 8.77547 3.23792 8.75873 3.153 8.75749C3.06807 8.75624 2.98372 8.77051 2.90482 8.79947C2.82591 8.82843 2.75403 8.87151 2.69331 8.92622C2.63259 8.98092 2.58424 9.04617 2.55107 9.11819C2.51789 9.19021 2.50054 9.26757 2.50001 9.3458C2.49949 9.42404 2.5158 9.50159 2.54801 9.57398C2.58023 9.64637 2.62769 9.71216 2.68767 9.76755L9.38645 16.0719C9.44545 16.1275 9.51577 16.1718 9.59339 16.2024C9.67101 16.2329 9.7544 16.2491 9.8388 16.25C9.9232 16.2508 10.007 16.2364 10.0853 16.2074C10.1636 16.1784 10.235 16.1355 10.2953 16.0812L17.3067 9.76522C17.3681 9.71025 17.4169 9.64445 17.4501 9.57174C17.4833 9.49903 17.5003 9.42089 17.5 9.34201C17.5 9.22547 17.4626 9.11153 17.3926 9.01447C17.3226 8.9174 17.2231 8.84151 17.1065 8.79632C16.9899 8.75114 16.8614 8.73865 16.7371 8.76044C16.6128 8.78222 16.4983 8.83733 16.4078 8.91881Z" fill="#171723"/>
<path d="M16.4078 3.91881L9.85588 9.82089L3.60662 3.93962C3.54782 3.88316 3.47746 3.83799 3.3996 3.80673C3.32174 3.77547 3.23792 3.75873 3.153 3.75749C3.06807 3.75624 2.98372 3.77051 2.90482 3.79947C2.82591 3.82843 2.75403 3.87151 2.69331 3.92622C2.63259 3.98092 2.58424 4.04617 2.55107 4.11819C2.51789 4.19021 2.50054 4.26757 2.50001 4.3458C2.49949 4.42404 2.5158 4.50159 2.54801 4.57398C2.58023 4.64637 2.62769 4.71216 2.68767 4.76755L9.38645 11.0719C9.44545 11.1275 9.51577 11.1718 9.59339 11.2024C9.67101 11.2329 9.7544 11.2491 9.8388 11.25C9.9232 11.2508 10.007 11.2364 10.0853 11.2074C10.1636 11.1784 10.235 11.1355 10.2953 11.0812L17.3067 4.76522C17.3681 4.71025 17.4169 4.64445 17.4501 4.57174C17.4833 4.49903 17.5003 4.42089 17.5 4.34201C17.5 4.22547 17.4626 4.11153 17.3926 4.01447C17.3226 3.9174 17.2231 3.84151 17.1065 3.79632C16.9899 3.75114 16.8614 3.73865 16.7371 3.76044C16.6128 3.78222 16.4983 3.83733 16.4078 3.91881Z" fill="#171723"/>
</svg>
