<svg width="20" height="20" viewBox="0 0 20 20" fill="none" xmlns="http://www.w3.org/2000/svg">
<g clip-path="url(#clip0_17678_1587)">
<path d="M15.9313 0H4.06773C1.82433 0 0 1.82481 0 4.06773V15.9323C0 18.1752 1.82433 20 4.06773 20H15.9313C18.1747 20 19.999 18.1752 19.999 15.9323V4.06773C19.999 1.82481 18.1747 0 15.9313 0ZM18.9821 15.9323C18.9821 17.6146 17.6136 18.9831 15.9313 18.9831H4.06773C2.38542 18.9831 1.01693 17.6146 1.01693 15.9323V4.06773C1.01693 2.38542 2.38542 1.01693 4.06773 1.01693H15.9313C17.6136 1.01693 18.9821 2.38542 18.9821 4.06773V15.9323Z" fill="#171723"/>
<path d="M16.5177 4.08113C16.5172 4.07915 16.5182 4.07667 16.5172 4.07468C16.5167 4.07368 16.5162 4.07368 16.5162 4.07319C16.481 3.99027 16.4199 3.92522 16.3489 3.87209C16.3315 3.85869 16.3161 3.84826 16.2967 3.83783C16.2208 3.79413 16.1373 3.76235 16.043 3.76335L13.242 3.79365C12.9619 3.79861 12.7355 4.02752 12.739 4.30757C12.7419 4.58862 12.9723 4.81306 13.2534 4.81058L14.8081 4.7937L10.934 8.66727C10.9231 8.67671 10.9097 8.68019 10.8993 8.69061L5.17901 14.4109L5.19589 12.8562C5.19837 12.5751 4.97394 12.3452 4.69289 12.3422C4.41283 12.3388 4.18392 12.5647 4.17896 12.8447L4.14867 15.6463C4.14767 15.7401 4.17945 15.824 4.22315 15.9C4.23357 15.9189 4.244 15.9343 4.25691 15.9521C4.31053 16.0227 4.37558 16.0837 4.45851 16.119C4.459 16.1195 4.4595 16.12 4.45999 16.12C4.46197 16.121 4.46445 16.12 4.46645 16.121C4.52405 16.1443 4.58562 16.1597 4.65166 16.1602L7.51923 16.1925C7.66174 16.1945 7.79134 16.1369 7.88469 16.0435C7.97507 15.9531 8.03117 15.828 8.03365 15.6895C8.03613 15.4089 7.8117 15.1785 7.53065 15.1755L5.87118 15.1567L9.77157 11.2563C9.78249 11.2469 9.79639 11.2434 9.80683 11.233L15.5539 5.48589L15.5728 7.14536C15.5752 7.42641 15.8056 7.65085 16.0867 7.64787C16.2252 7.64589 16.3499 7.58977 16.4407 7.4994C16.5341 7.40604 16.5917 7.27645 16.5897 7.13393L16.5574 4.26637C16.5564 4.20033 16.541 4.13873 16.5177 4.08113Z" fill="#171723"/>
</g>
<defs>
<clipPath id="clip0_17678_1587">
<rect width="19.999" height="20" fill="white"/>
</clipPath>
</defs>
</svg>
