<svg width="20" height="20" viewBox="0 0 20 20" fill="none" xmlns="http://www.w3.org/2000/svg">
<g clip-path="url(#clip0_18857_1659)">
<path d="M7.76465 11.8203C7.70437 11.8205 7.64486 11.8338 7.59021 11.8593C7.53556 11.8847 7.48707 11.9217 7.44808 11.9676L2.63851 16.7699V15.5581C2.63851 15.4476 2.59461 15.3416 2.51647 15.2635C2.43833 15.1854 2.33235 15.1415 2.22184 15.1415C2.11134 15.1415 2.00535 15.1854 1.92721 15.2635C1.84907 15.3416 1.80518 15.4476 1.80518 15.5581V17.7749C1.80518 17.7871 1.81428 17.7964 1.81535 17.8084C1.81982 17.8676 1.83728 17.9251 1.86647 17.9768C1.87633 17.9943 1.88756 18.0109 1.90004 18.0266C1.93752 18.0781 1.98649 18.1201 2.04305 18.1493C2.09962 18.1785 2.16222 18.1941 2.22588 18.1948H4.44838C4.55888 18.1948 4.66486 18.1509 4.743 18.0728C4.82114 17.9947 4.86504 17.8887 4.86504 17.7782C4.86504 17.6677 4.82114 17.5617 4.743 17.4836C4.66486 17.4054 4.55888 17.3615 4.44838 17.3615H3.22562L8.05925 12.5357C8.13765 12.4544 8.18141 12.3459 8.18132 12.2329C8.18127 12.1784 8.17043 12.1245 8.14943 12.0742C8.12842 12.0239 8.09767 11.9782 8.05893 11.9398C8.0202 11.9015 7.97425 11.8712 7.92374 11.8507C7.87323 11.8302 7.81916 11.8198 7.76465 11.8203V11.8203Z" fill="#171723"/>
<path d="M18.1945 2.22233C18.1927 2.14839 18.1706 2.07637 18.1308 2.01405C18.1233 2.00148 18.1152 1.98936 18.1063 1.97773C18.069 1.9252 18.0198 1.88223 17.9627 1.85233C17.9056 1.82243 17.8423 1.80644 17.7779 1.80566H15.5415C15.431 1.80566 15.325 1.84956 15.2469 1.9277C15.1688 2.00584 15.1249 2.11182 15.1249 2.22233C15.1249 2.33284 15.1688 2.43882 15.2469 2.51696C15.325 2.5951 15.431 2.639 15.5415 2.639H16.7735L11.9404 7.47136C11.9011 7.5099 11.8698 7.55586 11.8484 7.60657C11.8269 7.65728 11.8157 7.71175 11.8154 7.76681C11.8152 7.82188 11.8258 7.87645 11.8467 7.92738C11.8677 7.97831 11.8985 8.02458 11.9375 8.06351C11.9764 8.10245 12.0227 8.13328 12.0736 8.15423C12.1245 8.17517 12.1791 8.18581 12.2342 8.18553C12.2892 8.18526 12.3437 8.17407 12.3944 8.15261C12.4451 8.13115 12.4911 8.09985 12.5296 8.06052L17.3612 3.2298V4.45622C17.3612 4.56673 17.4051 4.67271 17.4832 4.75085C17.5613 4.82899 17.6673 4.87289 17.7778 4.87289C17.8883 4.87289 17.9943 4.82899 18.0725 4.75085C18.1506 4.67271 18.1945 4.56673 18.1945 4.45622V2.22396L18.1943 2.22331L18.1945 2.22233Z" fill="#171723"/>
</g>
<defs>
<clipPath id="clip0_18857_1659">
<rect width="20" height="20" fill="white"/>
</clipPath>
</defs>
</svg>
