<svg width="20" height="20" viewBox="0 0 20 20" fill="none" xmlns="http://www.w3.org/2000/svg">
<g clip-path="url(#clip0_5886_36182)">
<path d="M2.72541 9.58864C2.72824 9.56807 2.73243 9.54771 2.73797 9.5277C2.75851 9.44032 2.80239 9.36016 2.86491 9.29575L8.12444 4.14846C8.17201 4.10101 8.22852 4.06346 8.29069 4.03798C8.35286 4.0125 8.41947 3.9996 8.48666 4.00001C8.55384 4.00042 8.62029 4.01415 8.68214 4.0404C8.74399 4.06664 8.80003 4.10489 8.84701 4.15292C8.89399 4.20095 8.93099 4.25782 8.95587 4.32024C8.98074 4.38266 8.993 4.44938 8.99193 4.51657C8.99086 4.58375 8.97648 4.65005 8.94963 4.71165C8.92278 4.77324 8.884 4.8289 8.83551 4.87541L4.46683 9.15073H19.4915C19.6264 9.15073 19.7557 9.2043 19.8511 9.29966C19.9464 9.39502 20 9.52435 20 9.6592C20 9.79406 19.9464 9.92339 19.8511 10.0187C19.7557 10.1141 19.6264 10.1677 19.4915 10.1677H4.42871L8.85241 14.6923C8.8998 14.7399 8.93729 14.7964 8.96272 14.8585C8.98816 14.9207 9.00102 14.9872 9.00058 15.0544C9.00014 15.1216 8.9864 15.188 8.96016 15.2498C8.93391 15.3116 8.89568 15.3676 8.84767 15.4146C8.79966 15.4615 8.74282 15.4985 8.68044 15.5234C8.61806 15.5483 8.55137 15.5605 8.48422 15.5595C8.41707 15.5584 8.35079 15.5441 8.28921 15.5173C8.22763 15.4905 8.17197 15.4518 8.12545 15.4033L2.85695 10.0147C2.81292 9.96889 2.778 9.91509 2.75404 9.85622L2.74969 9.85088L2.74957 9.84932C2.71857 9.7661 2.71024 9.67614 2.72541 9.58864Z" fill="#171723"/>
<path d="M0.50862 4.00348C0.575404 4.00344 0.641541 4.01657 0.703249 4.04211C0.764957 4.06764 0.821026 4.1051 0.86825 4.15232C0.915473 4.19954 0.952926 4.25561 0.978465 4.31732C1.004 4.37903 1.01713 4.44517 1.01709 4.51195V15.0478C1.01709 15.1827 0.963519 15.312 0.868163 15.4074C0.772806 15.5027 0.643474 15.5563 0.50862 15.5563C0.373765 15.5563 0.244435 15.5027 0.149078 15.4074C0.0537217 15.312 0.00014925 15.1827 0.00014925 15.0478V4.51195C0.000110507 4.44517 0.0132364 4.37903 0.0387757 4.31732C0.064315 4.25561 0.101768 4.19954 0.148991 4.15232C0.196215 4.1051 0.252284 4.06764 0.313992 4.04211C0.3757 4.01657 0.441835 4.00344 0.50862 4.00348Z" fill="#171723"/>
</g>
<defs>
<clipPath id="clip0_5886_36182">
<rect width="20" height="20" fill="white" transform="translate(20) rotate(90)"/>
</clipPath>
</defs>
</svg>
