<svg width="20" height="20" viewBox="0 0 20 20" fill="none" xmlns="http://www.w3.org/2000/svg">
<path fill-rule="evenodd" clip-rule="evenodd" d="M9.38148 3.54714C9.72319 3.20543 10.2772 3.20543 10.6189 3.54714L13.9523 6.88047C14.294 7.22218 14.294 7.7762 13.9523 8.11791C13.6105 8.45962 13.0565 8.45962 12.7148 8.11791L10.0002 5.40329L7.28559 8.11791C6.94388 8.45962 6.38986 8.45962 6.04815 8.11791C5.70644 7.7762 5.70644 7.22218 6.04815 6.88047L9.38148 3.54714Z" fill="#171723"/>
<path fill-rule="evenodd" clip-rule="evenodd" d="M6.04815 11.8817C6.38986 11.54 6.94388 11.54 7.28559 11.8817L10.0002 14.5963L12.7148 11.8817C13.0565 11.54 13.6105 11.54 13.9523 11.8817C14.294 12.2234 14.294 12.7774 13.9523 13.1191L10.6189 16.4525C10.2772 16.7942 9.72319 16.7942 9.38148 16.4525L6.04815 13.1191C5.70644 12.7774 5.70644 12.2234 6.04815 11.8817Z" fill="#171723"/>
</svg>
