<svg width="20" height="20" viewBox="0 0 20 20" fill="none" xmlns="http://www.w3.org/2000/svg">
<path fill-rule="evenodd" clip-rule="evenodd" d="M11.022 0.23807L18.7143 4.02843C19.1003 4.21856 19.4252 4.5126 19.6524 4.87729C19.8796 5.24199 20 5.66281 20 6.09218V13.9078C20 14.3372 19.8796 14.758 19.6524 15.1227C19.4252 15.4874 19.1003 15.7814 18.7143 15.9716L11.022 19.7619C10.7042 19.9185 10.3545 20 10 20C9.64552 20 9.29581 19.9185 8.97799 19.7619L1.28568 15.9716C0.899747 15.7814 0.574822 15.4874 0.347626 15.1227C0.12043 14.758 1.89506e-05 14.3372 0 13.9078V6.0922C2.42995e-05 5.66283 0.120437 5.24203 0.347633 4.87733C0.574828 4.51264 0.89975 4.2186 1.28568 4.02843L8.97799 0.23807C9.29581 0.0814637 9.64552 0 10 0C10.3545 0 10.7042 0.0814637 11.022 0.23807ZM15.1593 8.68684L10.5439 4.07146C10.2435 3.77105 9.75648 3.77105 9.45607 4.07146L4.84069 8.68684C4.54028 8.98724 4.54028 9.47429 4.84069 9.7747C5.14109 10.0751 5.62814 10.0751 5.92854 9.7747L9.23077 6.47247V15.3846C9.23077 15.8095 9.57517 16.1538 10 16.1538C10.4248 16.1538 10.7692 15.8095 10.7692 15.3846V6.47247L14.0715 9.7747C14.3719 10.0751 14.8589 10.0751 15.1593 9.7747C15.4597 9.47429 15.4597 8.98724 15.1593 8.68684Z" fill="#171723"/>
</svg>
