<svg width="20" height="20" viewBox="0 0 20 20" fill="none" xmlns="http://www.w3.org/2000/svg">
<g clip-path="url(#clip0_10317_147166)">
<g clip-path="url(#clip1_10317_147166)">
<path d="M17.4578 6.78619H2.54291C1.86881 6.78682 1.2225 7.05474 0.745837 7.53116C0.269175 8.00757 0.00111298 8.65355 0.000488281 9.3273V17.4589C0.00111298 18.1326 0.269175 18.7786 0.745837 19.255C1.2225 19.7314 1.86881 19.9993 2.54291 20H17.4578C18.1319 19.9993 18.7782 19.7314 19.2549 19.255C19.7315 18.7786 19.9996 18.1326 20.0002 17.4589V9.3273C19.9996 8.65355 19.7315 8.00757 19.2549 7.53116C18.7782 7.05474 18.1319 6.78682 17.4578 6.78619ZM18.9832 17.4589C18.9828 17.8631 18.8219 18.2506 18.536 18.5365C18.25 18.8223 17.8622 18.9831 17.4578 18.9835H2.54291C2.13847 18.9831 1.75072 18.8223 1.46474 18.5365C1.17876 18.2506 1.0179 17.8631 1.01746 17.4589V9.3273C1.0179 8.92307 1.17876 8.53552 1.46474 8.24969C1.75072 7.96386 2.13847 7.80308 2.54291 7.80264H17.4578C17.8622 7.80308 18.25 7.96386 18.536 8.24969C18.8219 8.53552 18.9828 8.92307 18.9832 9.3273V17.4589Z" fill="#171723"/>
<path d="M9.49193 3.36367V3.5929C9.49193 3.72769 9.54551 3.85696 9.64087 3.95227C9.73623 4.04758 9.86556 4.10112 10.0004 4.10112C10.1353 4.10112 10.2646 4.04758 10.36 3.95227C10.4553 3.85696 10.5089 3.72769 10.5089 3.5929V3.36367C10.9024 3.24204 11.2393 2.98338 11.4582 2.63467C11.6772 2.28595 11.7638 1.87031 11.7022 1.46324C11.6407 1.05616 11.4351 0.684635 11.1229 0.416144C10.8106 0.147653 10.4123 0 10.0004 0C9.58851 0 9.19025 0.147653 8.87799 0.416144C8.56572 0.684635 8.36015 1.05616 8.29862 1.46324C8.23708 1.87031 8.32365 2.28595 8.54262 2.63467C8.76158 2.98338 9.09841 3.24204 9.49193 3.36367ZM10.0004 1.02598C10.1396 1.02608 10.2756 1.06742 10.3913 1.14478C10.5069 1.22214 10.597 1.33204 10.6502 1.46058C10.7034 1.58913 10.7172 1.73054 10.69 1.86695C10.6627 2.00335 10.5956 2.12862 10.4971 2.2269C10.3987 2.32519 10.2732 2.39208 10.1367 2.41912C10.0002 2.44616 9.85874 2.43214 9.7302 2.37881C9.60167 2.3255 9.49183 2.23528 9.4146 2.11957C9.33736 2.00386 9.29619 1.86786 9.29629 1.72876C9.29669 1.54233 9.37103 1.36365 9.50302 1.23191C9.63502 1.10018 9.81389 1.02612 10.0004 1.02598Z" fill="#171723"/>
<path d="M8.64472 6.62781H11.356C11.4908 6.62781 11.6201 6.57424 11.7155 6.47888C11.8109 6.38352 11.8644 6.25418 11.8644 6.11932C11.8644 5.98447 11.8109 5.85513 11.7155 5.75977C11.6201 5.66441 11.4908 5.61084 11.356 5.61084H8.64472C8.50986 5.61084 8.38052 5.66441 8.28516 5.75977C8.1898 5.85513 8.13623 5.98447 8.13623 6.11932C8.13623 6.25418 8.1898 6.38352 8.28516 6.47888C8.38052 6.57424 8.50986 6.62781 8.64472 6.62781Z" fill="#171723"/>
<path d="M8.64472 5.3642H11.356C11.4908 5.3642 11.6201 5.31063 11.7155 5.21527C11.8109 5.11991 11.8644 4.99057 11.8644 4.85571C11.8644 4.72086 11.8109 4.59152 11.7155 4.49616C11.6201 4.4008 11.4908 4.34723 11.356 4.34723H8.64472C8.50986 4.34723 8.38052 4.4008 8.28516 4.49616C8.1898 4.59152 8.13623 4.72086 8.13623 4.85571C8.13623 4.99057 8.1898 5.11991 8.28516 5.21527C8.38052 5.31063 8.50986 5.3642 8.64472 5.3642Z" fill="#171723"/>
<path d="M7.01328 11.7257C7.01329 11.557 6.96328 11.3921 6.86957 11.2519C6.77586 11.1116 6.64267 11.0023 6.48683 10.9377C6.33099 10.8732 6.15952 10.8563 5.99408 10.8892C5.82864 10.9221 5.67668 11.0033 5.55741 11.1226C5.43813 11.2419 5.35691 11.3938 5.324 11.5593C5.2911 11.7247 5.30799 11.8962 5.37254 12.052C5.4371 12.2079 5.54641 12.341 5.68667 12.4348C5.82692 12.5285 5.99181 12.5785 6.16049 12.5785C6.38666 12.5785 6.60356 12.4886 6.76349 12.3287C6.92341 12.1687 7.01327 11.9518 7.01328 11.7257Z" fill="#171723"/>
<path d="M13.8396 10.8728C13.6709 10.8728 13.5061 10.9228 13.3658 11.0165C13.2256 11.1103 13.1163 11.2434 13.0517 11.3993C12.9872 11.5551 12.9703 11.7266 13.0032 11.892C13.0361 12.0574 13.1173 12.2094 13.2366 12.3287C13.3559 12.4479 13.5078 12.5292 13.6733 12.5621C13.8387 12.595 14.0102 12.5781 14.166 12.5136C14.3218 12.449 14.455 12.3397 14.5487 12.1995C14.6425 12.0592 14.6925 11.8943 14.6925 11.7257C14.6925 11.6137 14.6704 11.5028 14.6276 11.3993C14.5847 11.2958 14.5219 11.2018 14.4427 11.1226C14.3635 11.0434 14.2695 10.9806 14.166 10.9377C14.0625 10.8949 13.9516 10.8728 13.8396 10.8728Z" fill="#171723"/>
<path d="M12.7821 14.3122C12.0205 15.003 11.0288 15.3857 10.0003 15.3857C8.97181 15.3857 7.98015 15.003 7.21854 14.3122C7.17015 14.2662 7.11317 14.2301 7.05085 14.2061C6.98853 14.1821 6.92209 14.1706 6.85532 14.1723C6.78855 14.1739 6.72276 14.1887 6.66171 14.2158C6.60066 14.2429 6.54555 14.2817 6.49951 14.33C6.45347 14.3784 6.41741 14.4354 6.3934 14.4977C6.36938 14.5599 6.35787 14.6263 6.35953 14.6931C6.36119 14.7598 6.37599 14.8256 6.40307 14.8866C6.43016 14.9476 6.469 15.0027 6.51739 15.0487C7.45728 15.9409 8.70405 16.4384 10.0003 16.4384C11.2966 16.4384 12.5433 15.9409 13.4832 15.0487C13.5809 14.9558 13.6377 14.8279 13.6411 14.6931C13.6444 14.5583 13.5941 14.4277 13.5011 14.33C13.4081 14.2324 13.2801 14.1756 13.1453 14.1723C13.0104 14.1689 12.8798 14.2192 12.7821 14.3122Z" fill="#171723"/>
</g>
</g>
<defs>
<clipPath id="clip0_10317_147166">
<rect width="20" height="20" fill="white"/>
</clipPath>
<clipPath id="clip1_10317_147166">
<rect width="20" height="20" fill="white"/>
</clipPath>
</defs>
</svg>
