<svg width="20" height="20" viewBox="0 0 20 20" fill="none" xmlns="http://www.w3.org/2000/svg">
<g clip-path="url(#clip0_10317_147160)">
<path d="M17.4532 6.77509H2.53706C1.86297 6.77533 1.21656 7.04335 0.739903 7.52025C0.263249 7.99715 -0.00464027 8.64389 -0.00488281 9.31833V17.4567C-0.00463758 18.1311 0.263252 18.7779 0.739906 19.2548C1.21656 19.7317 1.86297 19.9997 2.53706 19.9999H17.4532C18.1267 19.9979 18.7721 19.7294 19.2484 19.2528C19.7247 18.7763 19.9931 18.1306 19.9951 17.4567V9.31833C19.9931 8.64443 19.7247 7.9987 19.2484 7.52218C18.7721 7.04566 18.1267 6.77708 17.4532 6.77509V6.77509ZM5.30269 11.7191C5.30269 11.5501 5.35278 11.3849 5.44663 11.2444C5.54048 11.1039 5.67387 10.9943 5.82994 10.9297C5.986 10.865 6.15773 10.8481 6.32341 10.881C6.48909 10.914 6.64127 10.9954 6.76072 11.1149C6.88017 11.2344 6.96151 11.3867 6.99447 11.5524C7.02742 11.7182 7.01051 11.89 6.94586 12.0462C6.88122 12.2023 6.77175 12.3358 6.63129 12.4297C6.49084 12.5236 6.32571 12.5737 6.15679 12.5737C6.04457 12.5739 5.93342 12.5519 5.82972 12.509C5.72601 12.4661 5.63178 12.4032 5.55243 12.3238C5.47309 12.2444 5.41018 12.1501 5.36732 12.0464C5.32447 11.9426 5.30251 11.8314 5.30269 11.7191V11.7191ZM13.4776 15.0457C12.5387 15.9404 11.2917 16.4394 9.99512 16.4394C8.69851 16.4394 7.45158 15.9404 6.51266 15.0457C6.46424 15.0005 6.42527 14.9461 6.39801 14.8857C6.37075 14.8253 6.35574 14.7601 6.35385 14.6939C6.35196 14.6277 6.36322 14.5617 6.38699 14.4999C6.41076 14.438 6.44656 14.3815 6.49232 14.3336C6.58563 14.2356 6.71386 14.1785 6.84909 14.1747C6.98431 14.1708 7.11556 14.2207 7.21423 14.3133C7.97517 15.0055 8.96668 15.389 9.99512 15.389C11.0236 15.389 12.0151 15.0055 12.776 14.3133C12.8241 14.2672 12.8807 14.231 12.9428 14.2068C13.0048 14.1826 13.071 14.1709 13.1376 14.1723C13.2042 14.1737 13.2698 14.1883 13.3307 14.215C13.3917 14.2418 13.4468 14.2804 13.4929 14.3285C13.5389 14.3766 13.5751 14.4333 13.5993 14.4953C13.6234 14.5574 13.6351 14.6236 13.6337 14.6902C13.6323 14.7568 13.6178 14.8225 13.591 14.8835C13.5642 14.9445 13.5257 14.9996 13.4777 15.0457H13.4776ZM13.8335 12.5737C13.6645 12.5737 13.4994 12.5235 13.359 12.4296C13.2185 12.3357 13.1091 12.2022 13.0444 12.0461C12.9798 11.89 12.9629 11.7181 12.9959 11.5524C13.0288 11.3866 13.1102 11.2344 13.2296 11.1149C13.3491 10.9954 13.5013 10.914 13.667 10.881C13.8326 10.8481 14.0044 10.865 14.1604 10.9297C14.3165 10.9944 14.4499 11.1039 14.5437 11.2444C14.6375 11.3849 14.6876 11.5501 14.6876 11.7191C14.6878 11.8314 14.6659 11.9426 14.623 12.0464C14.5801 12.1502 14.5172 12.2445 14.4379 12.3238C14.3585 12.4032 14.2643 12.4662 14.1605 12.509C14.0568 12.5519 13.9457 12.5739 13.8335 12.5737V12.5737Z" fill="#171723"/>
<path d="M9.9898 2.11191e-06C9.57885 -0.00059378 9.18133 0.146399 8.86955 0.414247C8.55776 0.682095 8.35241 1.05301 8.29085 1.45953C8.22929 1.86605 8.3156 2.28117 8.53409 2.62941C8.75258 2.97764 9.08873 3.23585 9.48141 3.35708V3.58089C9.4818 3.71567 9.53549 3.84482 9.63074 3.94012C9.726 4.03543 9.85508 4.08914 9.9898 4.08953C10.0567 4.09019 10.1231 4.07749 10.1851 4.05216C10.2471 4.02683 10.3034 3.98939 10.3508 3.94203C10.3981 3.89466 10.4355 3.83833 10.4608 3.77632C10.4861 3.71431 10.4988 3.64787 10.4982 3.58089V3.35708C10.8909 3.23589 11.2271 2.97769 11.4456 2.62945C11.6642 2.2812 11.7505 1.86605 11.6889 1.4595C11.6273 1.05295 11.422 0.682021 11.1102 0.414173C10.7983 0.146325 10.4008 -0.000642562 9.9898 2.11191e-06ZM9.9898 2.42117C9.85104 2.42115 9.71541 2.37997 9.60004 2.30284C9.48468 2.2257 9.39477 2.11607 9.34168 1.9878C9.28859 1.85954 9.2747 1.71841 9.30178 1.58225C9.32886 1.44609 9.39568 1.32103 9.4938 1.22287C9.59192 1.1247 9.71693 1.05786 9.85302 1.03078C9.98911 1.0037 10.1302 1.01761 10.2584 1.07074C10.3866 1.12387 10.4961 1.21384 10.5732 1.32927C10.6503 1.4447 10.6914 1.58041 10.6914 1.71923C10.6911 1.90529 10.617 2.08362 10.4855 2.21518C10.354 2.34674 10.1758 2.42081 9.9898 2.42117V2.42117Z" fill="#171723"/>
<path d="M11.3481 6.61898H8.63632C8.50149 6.61898 8.37218 6.56539 8.27683 6.47C8.18149 6.37461 8.12793 6.24524 8.12793 6.11033C8.12793 5.97543 8.18149 5.84605 8.27683 5.75066C8.37218 5.65527 8.50149 5.60168 8.63632 5.60168H11.3481C11.4829 5.60168 11.6122 5.65527 11.7075 5.75066C11.8029 5.84605 11.8565 5.97543 11.8565 6.11033C11.8565 6.24524 11.8029 6.37461 11.7075 6.47C11.6122 6.56539 11.4829 6.61898 11.3481 6.61898Z" fill="#171723"/>
<path d="M11.3481 5.35531H8.63632C8.50149 5.35531 8.37218 5.30172 8.27683 5.20633C8.18149 5.11094 8.12793 4.98156 8.12793 4.84666C8.12793 4.71176 8.18149 4.58238 8.27683 4.48699C8.37218 4.3916 8.50149 4.33801 8.63632 4.33801H11.3481C11.4829 4.33801 11.6122 4.3916 11.7075 4.48699C11.8029 4.58238 11.8565 4.71176 11.8565 4.84666C11.8565 4.98156 11.8029 5.11094 11.7075 5.20633C11.6122 5.30172 11.4829 5.35531 11.3481 5.35531Z" fill="#171723"/>
</g>
<defs>
<clipPath id="clip0_10317_147160">
<rect width="20" height="20" fill="white"/>
</clipPath>
</defs>
</svg>
