<svg width="20" height="20" viewBox="0 0 20 20" fill="none" xmlns="http://www.w3.org/2000/svg">
<path d="M20 2.82051V6.92308C20 7.3478 19.6555 7.69231 19.2308 7.69231C18.8061 7.69231 18.4615 7.3478 18.4615 6.92308V2.82051C18.4615 2.11333 17.8867 1.53846 17.1795 1.53846H13.0769C12.6522 1.53846 12.3077 1.19395 12.3077 0.769231C12.3077 0.344513 12.6522 0 13.0769 0H17.1795C18.735 0 20 1.26503 20 2.82051ZM19.2308 12.3077C18.8061 12.3077 18.4615 12.6522 18.4615 13.0769V17.1795C18.4615 17.8867 17.8867 18.4615 17.1795 18.4615H13.0769C12.6522 18.4615 12.3077 18.8061 12.3077 19.2308C12.3077 19.6555 12.6522 20 13.0769 20H17.1795C18.735 20 20 18.735 20 17.1795V13.0769C20 12.6522 19.6555 12.3077 19.2308 12.3077ZM6.92308 18.4615H2.82051C2.11333 18.4615 1.53846 17.8867 1.53846 17.1795V13.0769C1.53846 12.6522 1.19395 12.3077 0.769231 12.3077C0.344513 12.3077 0 12.6522 0 13.0769V17.1795C0 18.735 1.26503 20 2.82051 20H6.92308C7.3478 20 7.69231 19.6555 7.69231 19.2308C7.69231 18.8061 7.3478 18.4615 6.92308 18.4615ZM7.69231 0.769231C7.69231 0.344513 7.3478 0 6.92308 0H2.82051C1.26503 0 0 1.26503 0 2.82051V6.92308C0 7.3478 0.344513 7.69231 0.769231 7.69231C1.19395 7.69231 1.53846 7.3478 1.53846 6.92308V2.82051C1.53846 2.11333 2.11333 1.53846 2.82051 1.53846H6.92308C7.3478 1.53846 7.69231 1.19395 7.69231 0.769231ZM5.12821 5.89744V6.92308C5.12821 7.3478 5.47272 7.69231 5.89744 7.69231C6.32215 7.69231 6.66667 7.3478 6.66667 6.92308V5.89744C6.66667 5.47272 6.32215 5.12821 5.89744 5.12821C5.47272 5.12821 5.12821 5.47272 5.12821 5.89744ZM14.1026 7.69231C14.5273 7.69231 14.8718 7.3478 14.8718 6.92308V5.89744C14.8718 5.47272 14.5273 5.12821 14.1026 5.12821C13.6778 5.12821 13.3333 5.47272 13.3333 5.89744V6.92308C13.3333 7.3478 13.6778 7.69231 14.1026 7.69231ZM10.4617 11.5895C10.612 11.7398 10.8088 11.8149 11.0056 11.8149C11.2025 11.8149 11.3998 11.7398 11.5501 11.5895C12.4094 10.7291 12.6217 9.42103 12.0784 8.33436L11.2009 6.57959C11.0116 6.19795 10.5493 6.04677 10.1688 6.23508C9.78872 6.42533 9.63497 6.88708 9.82482 7.26677L10.7023 9.02154C10.9491 9.51631 10.8525 10.1103 10.4613 10.5019C10.1613 10.8025 10.1612 11.2891 10.4617 11.5895ZM14.7907 13.4205C14.979 13.0439 14.8272 12.5892 14.4521 12.3969C14.0781 12.2046 13.6153 12.3538 13.4185 12.7254C13.3829 12.7925 12.5266 14.3591 10 14.3591C7.47344 14.3591 6.61713 12.7926 6.58554 12.7334C6.39528 12.3518 5.93446 12.2006 5.55344 12.3889C5.17333 12.5792 5.01959 13.0409 5.20944 13.4206C5.26 13.5217 6.488 15.8975 10.0001 15.8975C13.5122 15.8975 14.7401 13.5216 14.7907 13.4205Z" fill="#171723"/>
</svg>
