<svg width="20" height="20" viewBox="0 0 20 20" fill="none" xmlns="http://www.w3.org/2000/svg">
<mask id="mask0_17168_1802" style="mask-type:luminance" maskUnits="userSpaceOnUse" x="0" y="0" width="20" height="20">
<path d="M20 0H0V20H20V0Z" fill="white"/>
</mask>
<g mask="url(#mask0_17168_1802)">
<path d="M18 4.3039C17.9971 4.27363 17.9912 4.24384 17.9829 4.21454C17.9458 3.48895 17.6558 2.80292 17.168 2.28729L15.8281 0.879091C15.2925 0.317571 14.5669 0.00166073 13.8101 0.000190735H4.85059C4.09473 0.00117073 3.37012 0.316601 2.83594 0.877141C2.30176 1.43768 2.00098 2.19745 2 2.99042V17.01C2.00098 17.8024 2.30176 18.5627 2.83594 19.1232C3.37012 19.6838 4.09473 19.9992 4.85059 20.0002H15.1494C15.9053 19.9992 16.6299 19.6838 17.1641 19.1232C17.6983 18.5627 17.999 17.8024 18 17.01V4.39961C18 4.37764 17.9946 4.35664 17.9942 4.33516C17.9946 4.32442 18 4.31513 18 4.3039ZM5.26123 7.48359C5.33935 7.40547 5.44531 7.36152 5.55566 7.36152H12.2226C12.333 7.36152 12.439 7.40547 12.5171 7.48359C12.5952 7.56171 12.6391 7.66767 12.6391 7.77802C12.6391 7.88837 12.5952 7.99433 12.5171 8.07245C12.439 8.15057 12.333 8.19452 12.2226 8.19452H5.55566C5.44531 8.19452 5.33935 8.15057 5.26123 8.07245C5.18311 7.99433 5.13916 7.88837 5.13916 7.77802C5.13916 7.66767 5.18311 7.56171 5.26123 7.48359ZM14.7554 14.7395C14.6768 14.8176 14.5708 14.8615 14.4605 14.8615H5.55566C5.44531 14.8615 5.33935 14.8176 5.26123 14.7395C5.18311 14.6613 5.13916 14.5549 5.13916 14.4445C5.13916 14.3342 5.18311 14.2282 5.26123 14.1501C5.33935 14.072 5.44531 14.028 5.55566 14.028H14.4605C14.5708 14.028 14.6768 14.072 14.7554 14.1501C14.833 14.2282 14.877 14.3342 14.877 14.4445C14.877 14.5549 14.833 14.6613 14.7554 14.7395ZM14.7554 11.406C14.6768 11.4841 14.5708 11.528 14.4605 11.528H5.55566C5.44531 11.528 5.33935 11.4841 5.26123 11.406C5.18311 11.3278 5.13916 11.2219 5.13916 11.1115C5.13916 11.0012 5.18311 10.8947 5.26123 10.8166C5.33935 10.7385 5.44531 10.6945 5.55566 10.6945H14.4605C14.5708 10.6945 14.6768 10.7385 14.7554 10.8166C14.833 10.8947 14.877 11.0012 14.877 11.1115C14.877 11.2219 14.833 11.3278 14.7554 11.406ZM14.3818 3.7956V1.1208C14.6675 1.21406 14.9282 1.37715 15.1421 1.59687L16.4814 3.00507C16.6894 3.22724 16.8442 3.49823 16.9321 3.7956H14.3818Z" fill="#171723"/>
</g>
</svg>
