<svg width="20" height="20" viewBox="0 0 20 20" fill="none" xmlns="http://www.w3.org/2000/svg">
<g clip-path="url(#clip0_5313_35086)">
<path d="M18 4.30408C17.997 4.27375 17.9912 4.24379 17.9828 4.21459C17.9456 3.48902 17.6555 2.80308 17.1679 2.28706L15.8283 0.878893C15.2927 0.317668 14.567 0.00168427 13.81 0H4.85048C4.09478 0.000990278 3.3703 0.316347 2.83593 0.876904C2.30157 1.43746 2.00095 2.19746 2 2.99021V17.0098C2.00094 17.8025 2.30157 18.5625 2.83593 19.1231C3.37029 19.6837 4.09478 19.999 4.85048 20H15.1495C15.9052 19.999 16.6297 19.6837 17.1641 19.1231C17.6984 18.5625 17.999 17.8025 18 17.0098V4.39943C18 4.37764 17.9944 4.35691 17.994 4.33519C17.9947 4.32432 18 4.31514 18 4.30408ZM16.4815 3.00511C16.6895 3.22733 16.844 3.49831 16.9323 3.79562H14.3818V1.1209C14.6677 1.21388 14.9283 1.37706 15.142 1.59691L16.4815 3.00511ZM15.1495 18.9831H4.85048C4.35173 18.9826 3.87353 18.7745 3.52086 18.4046C3.16819 18.0346 2.96986 17.533 2.96941 17.0098V2.99021C2.96986 2.467 3.16819 1.96537 3.52086 1.59541C3.87353 1.22545 4.35173 1.0174 4.85048 1.01693H13.4123V4.30408C13.4123 4.37087 13.4248 4.437 13.4491 4.49871C13.4735 4.56042 13.5092 4.61648 13.5542 4.66371C13.5992 4.71093 13.6527 4.74838 13.7115 4.77392C13.7703 4.79946 13.8334 4.81259 13.897 4.81255H17.0306V17.0098C17.0301 17.533 16.8318 18.0346 16.4791 18.4046C16.1265 18.7745 15.6483 18.9826 15.1495 18.9831L15.1495 18.9831Z" fill="#171723"/>
<path d="M5.55583 8.19466H12.2225C12.333 8.19466 12.439 8.15076 12.5171 8.07262C12.5953 7.99448 12.6392 7.8885 12.6392 7.77799C12.6392 7.66749 12.5953 7.56151 12.5171 7.48337C12.439 7.40523 12.333 7.36133 12.2225 7.36133H5.55583C5.44532 7.36133 5.33934 7.40523 5.2612 7.48337C5.18306 7.56151 5.13916 7.66749 5.13916 7.77799C5.13916 7.8885 5.18306 7.99448 5.2612 8.07262C5.33934 8.15076 5.44532 8.19466 5.55583 8.19466Z" fill="#171723"/>
<path d="M14.4605 10.6947H5.55583C5.44532 10.6947 5.33934 10.7386 5.2612 10.8167C5.18306 10.8949 5.13916 11.0009 5.13916 11.1114C5.13916 11.2219 5.18306 11.3279 5.2612 11.406C5.33934 11.4841 5.44532 11.528 5.55583 11.528H14.4605C14.571 11.528 14.6769 11.4841 14.7551 11.406C14.8332 11.3279 14.8771 11.2219 14.8771 11.1114C14.8771 11.0009 14.8332 10.8949 14.7551 10.8167C14.6769 10.7386 14.571 10.6947 14.4605 10.6947Z" fill="#171723"/>
<path d="M14.4605 14.028H5.55583C5.44532 14.028 5.33934 14.0719 5.2612 14.15C5.18306 14.2281 5.13916 14.3341 5.13916 14.4446C5.13916 14.5551 5.18306 14.6611 5.2612 14.7392C5.33934 14.8174 5.44532 14.8613 5.55583 14.8613H14.4605C14.571 14.8613 14.6769 14.8174 14.7551 14.7392C14.8332 14.6611 14.8771 14.5551 14.8771 14.4446C14.8771 14.3341 14.8332 14.2281 14.7551 14.15C14.6769 14.0719 14.571 14.028 14.4605 14.028Z" fill="#171723"/>
</g>
<defs>
<clipPath id="clip0_5313_35086">
<rect width="20" height="20" fill="white"/>
</clipPath>
</defs>
</svg>
