<svg width="20" height="20" viewBox="0 0 20 20" fill="none" xmlns="http://www.w3.org/2000/svg">
<path d="M19.0458 0H0.951537C0.161771 0 -0.283134 0.908489 0.201216 1.5326L7.57834 9.45108C7.57834 9.45108 7.89311 9.79039 7.90612 10.2863C7.91913 10.7815 7.90612 11.4654 7.90612 11.4654L7.94029 11.5093V19.4229C7.94029 19.7398 8.19812 19.973 8.5141 19.997C8.92078 20.0275 9.00089 19.818 9.00089 19.818C9.00089 19.818 11.5597 16.911 11.8078 16.6112C11.9237 16.4712 11.99 16.339 12.0311 16.2344C12.0575 16.1889 12.0738 16.1392 12.0807 16.0851C12.0884 16.053 12.0912 16.0339 12.0912 16.0339V11.4654V10.2863C12.1043 9.79039 12.419 9.45108 12.419 9.45108L19.7962 1.5326C20.2805 0.908497 19.8356 0 19.0458 0Z" fill="#171723"/>
</svg>
