<svg width="20" height="20" viewBox="0 0 20 20" fill="none" xmlns="http://www.w3.org/2000/svg">
<g clip-path="url(#clip0_10317_147141)">
<g clip-path="url(#clip1_10317_147141)">
<path d="M19.8987 8.7663C18.6408 8.14863 17.4776 7.35852 16.4436 6.4194C16.4009 6.38144 16.3698 6.33236 16.354 6.27777C16.3382 6.22319 16.3383 6.16532 16.3542 6.11078C16.8683 4.19306 17.2493 2.24295 17.4945 0.274023C17.5357 -0.051562 17.2748 -0.0446743 17.1682 0.0773155C13.6513 4.22853 7.69581 -0.23807 3.84226 2.72606C3.84226 2.72606 3.85027 2.80054 3.84913 2.83798C3.84951 3.18061 3.76776 3.51846 3.61057 3.82391C3.56677 3.90535 3.5558 4.00016 3.57989 4.08926L3.66366 4.38111C4.3975 6.9853 5.13447 9.5905 5.87456 12.1967C5.88566 12.2354 5.90653 12.2707 5.93523 12.2992C5.96392 12.3277 5.99948 12.3486 6.03858 12.3598C6.07768 12.3711 6.11903 12.3723 6.15875 12.3634C6.19847 12.3546 6.23525 12.3359 6.26564 12.3091C10.1088 8.96801 16.2344 13.7068 19.823 9.46495C20.0391 9.12438 20.0498 8.83078 19.8987 8.7663Z" fill="#171723"/>
<path d="M1.5438 4.7483C1.84913 4.7483 2.14761 4.65889 2.40149 4.49139C2.65537 4.32388 2.85324 4.08579 2.97008 3.80723C3.08693 3.52868 3.1175 3.22216 3.05794 2.92645C2.99837 2.63073 2.85134 2.3591 2.63543 2.1459C2.41953 1.93271 2.14445 1.78752 1.84498 1.72869C1.54551 1.66987 1.23511 1.70006 0.953013 1.81544C0.670921 1.93083 0.429812 2.12622 0.260177 2.37691C0.0905422 2.62761 0 2.92234 0 3.22385C0 3.42405 0.0399314 3.62228 0.117515 3.80723C0.195098 3.99219 0.308813 4.16024 0.452169 4.3018C0.741687 4.58769 1.13436 4.7483 1.5438 4.7483Z" fill="#171723"/>
<path d="M6.23925 20C6.1228 19.9998 6.00956 19.9622 5.91668 19.8929C5.82379 19.8235 5.75631 19.7262 5.72445 19.6156L1.79127 6.00494C1.77186 5.93813 1.76598 5.86819 1.77397 5.79914C1.78196 5.73008 1.80367 5.66326 1.83785 5.6025C1.87203 5.54174 1.91801 5.48823 1.97316 5.44504C2.02831 5.40185 2.09155 5.36983 2.15925 5.35081C2.22695 5.33178 2.29779 5.32613 2.3677 5.33418C2.43762 5.34223 2.50524 5.36381 2.56669 5.3977C2.62815 5.43159 2.68223 5.47711 2.72585 5.53167C2.76946 5.58622 2.80175 5.64874 2.82086 5.71563L6.75405 19.3263C6.77337 19.393 6.77916 19.4629 6.77109 19.5319C6.76303 19.6008 6.74127 19.6676 6.70706 19.7282C6.67285 19.7889 6.62686 19.8423 6.57172 19.8854C6.51658 19.9284 6.45338 19.9604 6.38574 19.9793C6.3382 19.9932 6.28884 20.0002 6.23925 20Z" fill="#171723"/>
</g>
</g>
<defs>
<clipPath id="clip0_10317_147141">
<rect width="20" height="20" fill="white"/>
</clipPath>
<clipPath id="clip1_10317_147141">
<rect width="20" height="20" fill="white"/>
</clipPath>
</defs>
</svg>
