<svg width="20" height="20" viewBox="0 0 20 20" fill="none" xmlns="http://www.w3.org/2000/svg">
<g clip-path="url(#clip0_10314_144996)">
<path d="M14.044 14.152L9.89104 9.90556L14.0301 5.8545C14.1079 5.77696 14.1519 5.67186 14.1525 5.56206C14.1532 5.45226 14.1105 5.34663 14.0337 5.26813C13.957 5.18964 13.8523 5.14462 13.7425 5.14288C13.6327 5.14113 13.5267 5.18279 13.4474 5.2588L9.01059 9.60125C8.97146 9.6395 8.94026 9.68508 8.91876 9.7354C8.89726 9.78571 8.88588 9.83977 8.88528 9.89448C8.88467 9.94919 8.89486 10.0035 8.91524 10.0543C8.93562 10.105 8.96581 10.1513 9.00408 10.1904L13.4482 14.7347C13.4869 14.7745 13.5332 14.8061 13.5844 14.8277C13.6356 14.8492 13.6906 14.8602 13.7461 14.86C13.8281 14.86 13.9083 14.8358 13.9766 14.7904C14.0449 14.745 14.0983 14.6805 14.1301 14.6049C14.1619 14.5293 14.1707 14.446 14.1554 14.3655C14.1401 14.2849 14.1013 14.2106 14.0439 14.152L14.044 14.152Z" fill="#171723"/>
<path d="M6.25358 5.14001C6.19885 5.13998 6.14466 5.15074 6.09409 5.17167C6.04353 5.1926 5.99758 5.22329 5.95888 5.26198C5.92019 5.30068 5.8895 5.34663 5.86857 5.39719C5.84764 5.44776 5.83688 5.50196 5.83691 5.55668V14.4433C5.83691 14.5539 5.88081 14.6598 5.95895 14.738C6.03709 14.8161 6.14307 14.86 6.25358 14.86C6.36409 14.86 6.47007 14.8161 6.54821 14.738C6.62635 14.6598 6.67025 14.5539 6.67025 14.4433V5.55668C6.67028 5.50196 6.65952 5.44776 6.63859 5.39719C6.61766 5.34663 6.58697 5.30068 6.54828 5.26198C6.50958 5.22329 6.46363 5.1926 6.41307 5.17167C6.3625 5.15074 6.30831 5.13998 6.25358 5.14001Z" fill="#171723"/>
</g>
<defs>
<clipPath id="clip0_10314_144996">
<rect width="20" height="20" fill="white" transform="translate(20 20) rotate(-180)"/>
</clipPath>
</defs>
</svg>
