<svg width="20" height="20" viewBox="0 0 20 20" fill="none" xmlns="http://www.w3.org/2000/svg">
<path fill-rule="evenodd" clip-rule="evenodd" d="M6.45205 6.04795C6.79376 6.38966 6.79376 6.94368 6.45205 7.28539L4.61244 9.125H15.3876L13.5479 7.28539C13.2062 6.94368 13.2062 6.38966 13.5479 6.04795C13.8897 5.70624 14.4437 5.70624 14.7854 6.04795L18.1187 9.38128C18.2828 9.54538 18.375 9.76794 18.375 10C18.375 10.2321 18.2828 10.4546 18.1187 10.6187L14.7854 13.9521C14.4437 14.2938 13.8897 14.2938 13.5479 13.9521C13.2062 13.6103 13.2062 13.0563 13.5479 12.7146L15.3876 10.875H4.61244L6.45205 12.7146C6.79376 13.0563 6.79376 13.6103 6.45205 13.9521C6.11034 14.2938 5.55632 14.2938 5.21461 13.9521L1.88128 10.6187C1.53957 10.277 1.53957 9.72299 1.88128 9.38128L5.21461 6.04795C5.55632 5.70624 6.11034 5.70624 6.45205 6.04795Z" fill="#171723"/>
</svg>
