<svg width="20" height="20" viewBox="0 0 20 20" fill="none" xmlns="http://www.w3.org/2000/svg">
<path fill-rule="evenodd" clip-rule="evenodd" d="M6.04795 13.5479C6.38966 13.2062 6.94368 13.2062 7.28539 13.5479L9.12501 15.3876V4.61244L7.28539 6.45205C6.94368 6.79376 6.38966 6.79376 6.04795 6.45205C5.70624 6.11034 5.70624 5.55632 6.04795 5.21461L9.38129 1.88128C9.54538 1.71719 9.76794 1.625 10 1.625C10.2321 1.625 10.4546 1.71719 10.6187 1.88128L13.9521 5.21461C14.2938 5.55632 14.2938 6.11034 13.9521 6.45205C13.6103 6.79376 13.0563 6.79376 12.7146 6.45205L10.875 4.61244V15.3876L12.7146 13.5479C13.0563 13.2062 13.6103 13.2062 13.9521 13.5479C14.2938 13.8897 14.2938 14.4437 13.9521 14.7854L10.6187 18.1187C10.277 18.4604 9.723 18.4604 9.38129 18.1187L6.04795 14.7854C5.70624 14.4437 5.70624 13.8897 6.04795 13.5479Z" fill="#171723"/>
</svg>
