<svg width="20" height="20" viewBox="0 0 20 20" fill="none" xmlns="http://www.w3.org/2000/svg">
<g clip-path="url(#clip0_10327_130452)">
<g clip-path="url(#clip1_10327_130452)">
<path d="M15.9318 -0.000488281H4.06751C2.98894 0.000588675 1.95486 0.429526 1.19219 1.19219C0.429526 1.95486 0.000588675 2.98894 -0.000488281 4.06751V15.9329C0.000588675 17.0114 0.429526 18.0455 1.19219 18.8082C1.95486 19.5709 2.98894 19.9998 4.06751 20.0009H15.9318C17.0104 19.9998 18.0445 19.5709 18.8072 18.8082C19.5698 18.0455 19.9988 17.0114 19.9998 15.9329V4.06751C19.9988 2.98894 19.5698 1.95486 18.8072 1.19219C18.0445 0.429526 17.0104 0.000588675 15.9318 -0.000488281V-0.000488281ZM18.9828 15.9329C18.982 16.7418 18.6602 17.5173 18.0883 18.0893C17.5163 18.6613 16.7408 18.983 15.9318 18.9839H4.06751C3.25861 18.983 2.48309 18.6613 1.91111 18.0893C1.33912 17.5173 1.0174 16.7418 1.01651 15.9329V4.06751C1.0174 3.25861 1.33912 2.48309 1.91111 1.91111C2.48309 1.33912 3.25861 1.0174 4.06751 1.01651H15.9318C16.7408 1.0174 17.5163 1.33912 18.0883 1.91111C18.6602 2.48309 18.982 3.25861 18.9828 4.06751V15.9329Z" fill="#171723"/>
<path d="M3.22022 16.2152C3.26926 16.215 3.31768 16.2042 3.36214 16.1835C3.4066 16.1628 3.44605 16.1328 3.47777 16.0954L7.39085 12.1882L7.39085 13.1741C7.39085 13.264 7.42656 13.3503 7.49014 13.4138C7.55371 13.4774 7.63994 13.5131 7.72985 13.5131C7.81976 13.5131 7.90598 13.4774 7.96956 13.4138C8.03313 13.3503 8.06885 13.264 8.06885 13.1741L8.06885 11.3705C8.06885 11.3606 8.06144 11.353 8.06057 11.3433C8.05693 11.2951 8.04273 11.2484 8.01898 11.2063C8.01095 11.1921 8.00182 11.1785 7.99166 11.1657C7.96117 11.1239 7.92133 11.0897 7.87531 11.0659C7.82929 11.0422 7.77836 11.0295 7.72657 11.0289L5.91834 11.0289C5.82843 11.0289 5.7422 11.0646 5.67863 11.1282C5.61506 11.1917 5.57934 11.278 5.57934 11.3679C5.57934 11.4578 5.61505 11.544 5.67863 11.6076C5.7422 11.6712 5.82843 11.7069 5.91834 11.7069L6.91318 11.7069L2.98053 15.6332C2.91675 15.6993 2.88114 15.7876 2.88122 15.8795C2.88125 15.9238 2.89007 15.9678 2.90716 16.0087C2.92425 16.0496 2.94927 16.0867 2.98079 16.118C3.0123 16.1492 3.04969 16.1738 3.09078 16.1905C3.13187 16.2072 3.17586 16.2156 3.22022 16.2152V16.2152Z" fill="#171723"/>
<path d="M11.0253 7.73265C11.0268 7.79281 11.0447 7.85141 11.0772 7.90211C11.0832 7.91234 11.0899 7.9222 11.0971 7.93166C11.1274 7.9744 11.1675 8.00936 11.2139 8.03369C11.2603 8.05802 11.3119 8.07103 11.3643 8.07165L13.1838 8.07166C13.2737 8.07166 13.3599 8.03594 13.4235 7.97236C13.4871 7.90879 13.5228 7.82256 13.5228 7.73265C13.5228 7.64275 13.4871 7.55652 13.4235 7.49295C13.3599 7.42937 13.2737 7.39365 13.1838 7.39365L12.1814 7.39365L16.1136 3.46205C16.1456 3.43069 16.1711 3.3933 16.1885 3.35204C16.206 3.31078 16.2151 3.26646 16.2153 3.22166C16.2156 3.17686 16.2069 3.13246 16.1899 3.09102C16.1728 3.04959 16.1477 3.01194 16.1161 2.98027C16.0844 2.94859 16.0467 2.9235 16.0053 2.90646C15.9639 2.88942 15.9195 2.88076 15.8747 2.88099C15.8299 2.88122 15.7855 2.89032 15.7443 2.90778C15.703 2.92524 15.6656 2.9507 15.6343 2.9827L11.7033 6.91298L11.7033 5.91516C11.7033 5.82525 11.6676 5.73902 11.604 5.67545C11.5405 5.61187 11.4542 5.57616 11.3643 5.57616C11.2744 5.57616 11.1882 5.61187 11.1246 5.67545C11.061 5.73902 11.0253 5.82525 11.0253 5.91516L11.0253 7.73133L11.0253 7.73265Z" fill="#171723"/>
</g>
</g>
<defs>
<clipPath id="clip0_10327_130452">
<rect width="20" height="20" fill="white"/>
</clipPath>
<clipPath id="clip1_10327_130452">
<rect width="20" height="20" fill="white"/>
</clipPath>
</defs>
</svg>
