<svg width="20" height="20" viewBox="0 0 20 20" fill="none" xmlns="http://www.w3.org/2000/svg">
<path d="M10 7.5C9.5401 7.5 9.16672 7.87338 9.16672 8.33344V18.3334C9.16672 18.7933 9.5401 19.1667 10 19.1667C10.4601 19.1667 10.8334 18.7933 10.8334 18.3334V8.33344C10.8334 7.87338 10.4601 7.5 10 7.5Z" fill="black"/>
<path d="M1.85837 7.06925C1.84753 7.05673 1.78665 6.98502 1.77414 6.97342C1.57501 6.77597 1.315 6.66672 1.04172 6.66672C0.467529 6.66672 0 7.13425 0 7.70844V18.9584C0 19.5326 0.467529 20 1.04172 20C1.33759 20 1.61926 19.8767 1.80832 19.6667L7.23343 13.8242C7.40509 13.6308 7.5 13.3833 7.5 13.125C7.5 12.8517 7.3909 12.5917 7.13333 12.3418L1.85837 7.06925Z" fill="black"/>
<path d="M18.175 7.03339L12.9008 12.3093C12.8883 12.3201 12.8183 12.3808 12.8075 12.3926C12.6093 12.5917 12.5 12.8517 12.5 13.125C12.5 13.3833 12.5951 13.6308 12.775 13.8335L18.185 19.6593C18.3768 19.8726 18.6659 20 18.9584 20C19.5325 20 20 19.5326 20 18.9584V7.70844C20 6.85928 18.9442 6.2384 18.175 7.03339Z" fill="black"/>
<path d="M15.8 4.07166C16.0884 4.43009 16.6125 4.48761 16.9717 4.19922C17.33 3.91083 17.3875 3.38593 17.0992 3.0275C15.5542 1.10336 13.27 0 10.8334 0C9.04755 0 7.32666 0.624237 5.92758 1.71005L4.40002 0.183411C4.22089 0.00427246 3.9534 -0.0491333 3.71918 0.0476074C3.48587 0.144196 3.33344 0.37262 3.33344 0.625V5.20844C3.33344 5.55344 3.61343 5.83344 3.95844 5.83344H8.54172C8.79425 5.83344 9.02252 5.68085 9.11926 5.44754C9.21585 5.21423 9.1626 4.94507 8.98331 4.76669L7.11502 2.89749C8.19336 2.11426 9.49082 1.66672 10.8334 1.66672C12.7626 1.66672 14.5726 2.54334 15.8 4.07166Z" fill="black"/>
</svg>
