<svg width="20" height="20" viewBox="0 0 20 20" fill="none" xmlns="http://www.w3.org/2000/svg">
<g clip-path="url(#clip0_10317_147033)">
<path d="M4.81253 13.3868C4.81328 13.5486 4.75619 13.7054 4.65155 13.8289C4.54691 13.9524 4.40161 14.0344 4.24184 14.0602H0.772116C0.620892 14.0598 0.475984 13.9995 0.369051 13.8926C0.262119 13.7856 0.201854 13.6407 0.201423 13.4895C0.196775 13.3266 0.25247 13.1678 0.357807 13.0435C0.463145 12.9192 0.610696 12.8382 0.772116 12.8161H1.89068V7.95384L1.06888 8.69574C0.931295 8.79842 0.761781 8.84903 0.590425 8.83858C0.41907 8.82813 0.256959 8.75731 0.132872 8.63867C0.0405324 8.51974 -0.00669227 8.37194 -0.000423978 8.22151C0.00584431 8.07107 0.0652003 7.92771 0.167113 7.81687L2.1303 6.04767C2.22068 5.98343 2.32586 5.94313 2.43603 5.93052C2.5462 5.91792 2.65776 5.93343 2.76032 5.97559C2.86287 6.01776 2.95308 6.08521 3.02252 6.17166C3.09196 6.25811 3.13837 6.36074 3.15743 6.46998V12.8161H4.24183C4.39305 12.8165 4.53796 12.8768 4.64489 12.9837C4.75182 13.0907 4.81209 13.2356 4.81253 13.3868Z" fill="#171723"/>
<path d="M7.32381 13.2498C7.32492 13.3695 7.30114 13.4881 7.25398 13.5982C7.20683 13.7082 7.13732 13.8072 7.04988 13.889C6.88275 14.0449 6.66211 14.1307 6.43353 14.1287C6.31708 14.1304 6.20145 14.109 6.09337 14.0656C5.9853 14.0222 5.88695 13.9578 5.80407 13.8759C5.72119 13.7941 5.65544 13.6966 5.61066 13.5891C5.56588 13.4816 5.54296 13.3663 5.54325 13.2498C5.53879 13.072 5.58804 12.897 5.68456 12.7476C5.78107 12.5982 5.92038 12.4814 6.08429 12.4124C6.24821 12.3434 6.42912 12.3254 6.60342 12.3607C6.77772 12.3961 6.93731 12.4832 7.06137 12.6106C7.14602 12.6939 7.21292 12.7935 7.25802 12.9033C7.30313 13.0132 7.32551 13.131 7.32381 13.2498Z" fill="#171723"/>
<path d="M13.0579 14.0547H8.69743C8.62247 14.0547 8.54824 14.04 8.47898 14.0113C8.40972 13.9827 8.34679 13.9406 8.29379 13.8876C8.24079 13.8346 8.19876 13.7717 8.17009 13.7024C8.14142 13.6332 8.12669 13.559 8.12673 13.484C8.12217 13.3871 8.13829 13.2904 8.17404 13.2003C8.20979 13.1101 8.26434 13.0287 8.33406 12.9613L10.8386 10.4154C11.0404 10.2114 11.2299 10.0123 11.4071 9.81799C11.5617 9.65059 11.703 9.47132 11.8296 9.28184C11.9377 9.11968 12.0264 8.94534 12.0937 8.76242C12.1511 8.6003 12.1797 8.42944 12.1784 8.25749C12.1849 8.07441 12.151 7.89214 12.0792 7.72359C12.0203 7.59281 11.9331 7.47671 11.824 7.38363C11.7104 7.29174 11.5802 7.22249 11.4405 7.17964C11.1099 7.07755 10.7556 7.08145 10.4273 7.19079C10.1364 7.29622 9.89465 7.50541 9.74853 7.7782C9.669 7.92873 9.61513 8.09147 9.58914 8.25972C9.55327 8.4081 9.47206 8.54162 9.3568 8.6417C9.24153 8.74179 9.09794 8.80346 8.946 8.81815C8.8612 8.81814 8.77729 8.80095 8.69932 8.76761C8.62135 8.73428 8.55094 8.6855 8.49234 8.62421C8.43511 8.56456 8.39105 8.49355 8.36301 8.41578C8.33498 8.33802 8.3236 8.25523 8.3296 8.17278C8.37057 7.84597 8.46707 7.52857 8.61495 7.23426C8.75637 6.95227 8.95134 6.7005 9.18899 6.49302C9.42443 6.28925 9.69585 6.13124 9.98929 6.02711C10.5801 5.8244 11.2197 5.81309 11.8173 5.99479C12.1137 6.0828 12.3896 6.22909 12.6288 6.42509C12.8769 6.6326 13.077 6.89159 13.215 7.18411C13.3705 7.52019 13.4471 7.88732 13.4391 8.2575C13.4412 8.5779 13.386 8.8961 13.2764 9.19714C13.1736 9.47264 13.0377 9.73464 12.8717 9.97739C12.7065 10.2187 12.5228 10.4467 12.3222 10.6595C12.1328 10.8646 11.9321 11.072 11.7237 11.2848L10.2345 12.8041H13.0077C13.1693 12.8131 13.3218 12.8813 13.4364 12.9956C13.5509 13.1099 13.6193 13.2623 13.6286 13.4239C13.6307 13.5817 13.573 13.7344 13.4672 13.8514C13.3613 13.9684 13.2151 14.041 13.0579 14.0547Z" fill="#171723"/>
<path d="M17.2588 14.1337C16.9621 14.1373 16.6661 14.1028 16.3782 14.0312C16.1354 13.9686 15.9021 13.8734 15.6849 13.7481C15.4857 13.6324 15.3068 13.4848 15.1554 13.3112C15.029 13.1646 14.9184 13.0051 14.8255 12.8352C14.742 12.6808 14.6723 12.5193 14.6171 12.3526C14.5703 12.2021 14.5335 12.0695 14.5034 11.9435C14.4735 11.8184 14.4868 11.6868 14.5413 11.5702C14.5957 11.4536 14.6881 11.3589 14.8032 11.3015C14.9021 11.2556 15.0087 11.2284 15.1175 11.2212C15.2316 11.2202 15.3437 11.2501 15.4421 11.3078C15.5405 11.3655 15.6213 11.4489 15.676 11.5489C15.7091 11.6217 15.7374 11.6965 15.7607 11.773C15.7741 11.8343 15.7897 11.89 15.812 11.9669C15.8354 12.0382 15.8652 12.1072 15.9011 12.1731C15.9514 12.2689 16.0107 12.3596 16.0784 12.444C16.1439 12.5244 16.2218 12.594 16.3091 12.6502C16.4277 12.7262 16.5569 12.7845 16.6925 12.823C17.0974 12.9301 17.5252 12.9123 17.9197 12.7717C18.0925 12.6977 18.2495 12.5914 18.3823 12.4585C18.4977 12.3429 18.5887 12.2053 18.6498 12.0539C18.7056 11.9238 18.7355 11.7841 18.7379 11.6426C18.7401 11.4867 18.7121 11.3319 18.6554 11.1867C18.6037 11.0647 18.5234 10.9569 18.4213 10.8723C18.2768 10.757 18.1109 10.6714 17.9331 10.6204C17.6604 10.5442 17.3781 10.5074 17.0949 10.5112C16.9443 10.51 16.8003 10.4493 16.6943 10.3424C16.5882 10.2355 16.5287 10.0911 16.5287 9.94051C16.5262 9.7836 16.5808 9.63113 16.6823 9.51142C16.7838 9.39171 16.9252 9.31288 17.0804 9.28956C17.3069 9.28533 17.5315 9.24777 17.747 9.1781C17.9104 9.12631 18.0625 9.04384 18.1951 8.93511C18.3044 8.84477 18.3923 8.73134 18.4526 8.60296C18.5127 8.4696 18.5424 8.32453 18.5395 8.17828C18.5455 8.00671 18.514 7.83589 18.447 7.67781C18.3943 7.55737 18.3136 7.45117 18.2118 7.36794C18.1022 7.28041 17.9765 7.21526 17.8418 7.17619C17.5094 7.07674 17.1544 7.08219 16.8252 7.19179C16.6801 7.24284 16.5459 7.32073 16.4295 7.4214C16.3119 7.52324 16.2137 7.64561 16.1397 7.78255C16.0597 7.93215 16.0054 8.09419 15.9792 8.26184C15.9452 8.40894 15.8659 8.54169 15.7526 8.64145C15.6392 8.7412 15.4975 8.80296 15.3472 8.81804C15.2623 8.81792 15.1782 8.80068 15.1001 8.76736C15.022 8.73404 14.9514 8.68531 14.8925 8.62409C14.8356 8.56423 14.7919 8.49316 14.764 8.41543C14.7362 8.3377 14.7249 8.25501 14.7308 8.17266C14.7721 7.84655 14.8677 7.52967 15.0139 7.23525C15.2991 6.66954 15.7925 6.23644 16.3904 6.027C16.9767 5.82643 17.6107 5.81281 18.2051 5.98804C18.4943 6.07191 18.7649 6.21038 19.002 6.39599C19.2494 6.59556 19.4483 6.84861 19.5839 7.13611C19.7335 7.46278 19.8075 7.81904 19.8001 8.17829C19.8028 8.48364 19.7393 8.78595 19.614 9.06443C19.4994 9.32031 19.3384 9.55274 19.1392 9.74993C19.1224 9.76665 19.1057 9.78336 19.0879 9.79901C19.1896 9.87148 19.2851 9.95239 19.3732 10.0409C19.5799 10.2497 19.7405 10.4996 19.8447 10.7743C19.949 11.0518 20.0015 11.3461 19.9997 11.6426C19.9995 11.9779 19.9265 12.3092 19.7857 12.6135C19.6456 12.9151 19.4462 13.1854 19.1994 13.4082C18.9477 13.6363 18.6559 13.8159 18.3389 13.9376C17.9945 14.0708 17.628 14.1373 17.2588 14.1337Z" fill="#171723"/>
</g>
<defs>
<clipPath id="clip0_10317_147033">
<rect width="20" height="20" fill="white"/>
</clipPath>
</defs>
</svg>
