<svg width="20" height="20" viewBox="0 0 20 20" fill="none" xmlns="http://www.w3.org/2000/svg">
<g clip-path="url(#clip0_10314_146184)">
<g clip-path="url(#clip1_10314_146184)">
<path d="M9.99366 11.8612C11.0181 11.8612 11.8486 11.0307 11.8486 10.0062C11.8486 8.98175 11.0181 8.15125 9.99366 8.15125C8.96918 8.15125 8.13867 8.98175 8.13867 10.0062C8.13867 11.0307 8.96918 11.8612 9.99366 11.8612Z" fill="#171723"/>
<path d="M19.4912 9.4977H18.906C18.7793 7.31022 17.8533 5.24554 16.304 3.69612C14.7546 2.14669 12.69 1.22054 10.5025 1.0937V0.509001C10.5025 0.37407 10.4489 0.244666 10.3535 0.149256C10.2581 0.0538452 10.1287 0.000244141 9.99378 0.000244141C9.85885 0.000244141 9.72944 0.0538452 9.63403 0.149256C9.53862 0.244666 9.48502 0.37407 9.48502 0.509001V1.0937C7.29755 1.22054 5.23293 2.1467 3.6836 3.69612C2.13427 5.24554 1.20825 7.31021 1.08153 9.49769H0.509245C0.374314 9.49769 0.24491 9.55129 0.1495 9.6467C0.0540894 9.74211 0.000488281 9.87152 0.000488281 10.0064C0.000488281 10.1414 0.0540894 10.2708 0.1495 10.3662C0.24491 10.4616 0.374314 10.5152 0.509245 10.5152H1.08153C1.20838 12.7025 2.13448 14.767 3.6838 16.3163C5.23313 17.8655 7.29768 18.7915 9.48502 18.9182V19.4905C9.48502 19.6254 9.53862 19.7548 9.63403 19.8502C9.72944 19.9456 9.85885 19.9992 9.99378 19.9992C10.1287 19.9992 10.2581 19.9456 10.3535 19.8502C10.4489 19.7548 10.5025 19.6254 10.5025 19.4905V18.9182C12.6899 18.7915 14.7544 17.8655 16.3038 16.3163C17.8531 14.767 18.7792 12.7025 18.906 10.5152H19.4912C19.6262 10.5152 19.7556 10.4616 19.851 10.3662C19.9464 10.2708 20 10.1414 20 10.0064C20 9.87152 19.9464 9.74211 19.851 9.6467C19.7556 9.55129 19.6262 9.49769 19.4912 9.49769V9.4977ZM10.5025 17.9007V17.3799C10.5025 17.245 10.4489 17.1156 10.3535 17.0202C10.2581 16.9248 10.1287 16.8712 9.99377 16.8712C9.85884 16.8712 9.72943 16.9248 9.63402 17.0202C9.53861 17.1156 9.48501 17.245 9.48501 17.3799V17.9007C7.56742 17.7753 5.76085 16.9569 4.40196 15.5981C3.04308 14.2393 2.22459 12.4328 2.09904 10.5152H2.61978C2.75471 10.5152 2.88412 10.4616 2.97953 10.3662C3.07494 10.2708 3.12854 10.1414 3.12854 10.0065C3.12854 9.87153 3.07494 9.74212 2.97953 9.64671C2.88412 9.5513 2.75471 9.4977 2.61978 9.4977H2.09905C2.22441 7.57995 3.0428 5.77321 4.4017 4.41422C5.7606 3.05523 7.56728 2.23671 9.48502 2.11122V2.61954C9.48502 2.75447 9.53862 2.88387 9.63403 2.97928C9.72944 3.07469 9.85885 3.12829 9.99378 3.12829C10.1287 3.12829 10.2581 3.07469 10.3535 2.97928C10.4489 2.88387 10.5025 2.75447 10.5025 2.61954V2.11122C12.4203 2.23671 14.227 3.05523 15.5859 4.41422C16.9448 5.77321 17.7631 7.57995 17.8885 9.49769H17.3807C17.2458 9.49769 17.1164 9.55129 17.0209 9.6467C16.9255 9.74211 16.8719 9.87152 16.8719 10.0064C16.8719 10.1414 16.9255 10.2708 17.0209 10.3662C17.1164 10.4616 17.2458 10.5152 17.3807 10.5152H17.8885C17.763 12.4328 16.9445 14.2393 15.5856 15.5981C14.2267 16.9569 12.4201 17.7753 10.5025 17.9007H10.5025Z" fill="#171723"/>
</g>
</g>
<defs>
<clipPath id="clip0_10314_146184">
<rect width="20" height="20" fill="white"/>
</clipPath>
<clipPath id="clip1_10314_146184">
<rect width="20" height="20" fill="white"/>
</clipPath>
</defs>
</svg>
