<svg width="20" height="20" viewBox="0 0 20 20" fill="none" xmlns="http://www.w3.org/2000/svg">
<path d="M3.4165 16.5829V13.2079H4.49984V15.4996H6.7915V16.5829H3.4165ZM13.2082 16.5829V15.4996H15.4998V13.2079H16.5832V16.5829H13.2082ZM9.99984 14.5829C8.72317 14.5829 7.64012 14.1382 6.75067 13.2488C5.86123 12.3593 5.4165 11.2763 5.4165 9.99959C5.4165 8.72293 5.86123 7.63987 6.75067 6.75043C7.64012 5.86098 8.72317 5.41626 9.99984 5.41626C11.2765 5.41626 12.3596 5.86098 13.249 6.75043C14.1384 7.63987 14.5832 8.72293 14.5832 9.99959C14.5832 11.2763 14.1384 12.3593 13.249 13.2488C12.3596 14.1382 11.2765 14.5829 9.99984 14.5829ZM10.004 13.4996C10.9734 13.4996 11.7984 13.1579 12.479 12.4746C13.1596 11.7913 13.4998 10.9649 13.4998 9.99543C13.4998 9.02598 13.1582 8.20098 12.4748 7.52043C11.7915 6.83987 10.9651 6.49959 9.99567 6.49959C9.02623 6.49959 8.20123 6.84126 7.52067 7.52459C6.84012 8.20793 6.49984 9.03432 6.49984 10.0038C6.49984 10.9732 6.8415 11.7982 7.52484 12.4788C8.20817 13.1593 9.03456 13.4996 10.004 13.4996ZM3.4165 6.79126V3.41626H6.7915V4.49959H4.49984V6.79126H3.4165ZM15.4998 6.79126V4.49959H13.2082V3.41626H16.5832V6.79126H15.4998Z" fill="#171723"/>
</svg>
