<svg width="20" height="20" viewBox="0 0 20 20" fill="none" xmlns="http://www.w3.org/2000/svg">
<path d="M17.4559 3.7911H10.3441C10.2109 3.79133 10.079 3.76449 9.95593 3.71214C9.83285 3.65979 9.72105 3.58295 9.62693 3.48604L7.80602 1.61223C7.61724 1.41756 7.39287 1.26324 7.14584 1.15817C6.89881 1.05309 6.634 0.99934 6.36667 1.00001H2.54407C1.86962 1.00094 1.22305 1.2769 0.746142 1.76739C0.269233 2.25787 0.000906549 2.92284 0 3.61649V16.3835C0.000903843 17.0772 0.269229 17.7421 0.746138 18.2326C1.22305 18.7231 1.86962 18.9991 2.54407 19H17.4559C18.1304 18.9991 18.777 18.7231 19.2539 18.2326C19.7308 17.7421 19.9991 17.0772 20 16.3835V6.40761C19.9991 5.71396 19.7308 5.04898 19.2539 4.55849C18.777 4.068 18.1304 3.79203 17.4559 3.7911Z" fill="#171723"/>
</svg>
