<svg width="20" height="20" viewBox="0 0 20 20" fill="none" xmlns="http://www.w3.org/2000/svg">
<g clip-path="url(#clip0_5313_35079)">
<path d="M17.4559 19H2.54407C1.86962 18.9991 1.22305 18.7231 0.746139 18.2326C0.269229 17.7422 0.000903844 17.0772 0 16.3836V3.61692C0.000800964 2.92321 0.269078 2.25815 0.745996 1.76757C1.22291 1.277 1.86954 1.00097 2.54407 1.00001H6.36666C6.63422 0.999386 6.89925 1.05326 7.14646 1.15851C7.39367 1.26377 7.61817 1.41833 7.807 1.61327L9.62691 3.48594C9.72093 3.58303 9.83271 3.66001 9.9558 3.71246C10.0789 3.76492 10.2109 3.79179 10.3441 3.79155H17.4559C18.1304 3.79239 18.777 4.06831 19.2539 4.5588C19.7309 5.04929 19.9992 5.71429 20 6.40795V16.3836C19.9991 17.0772 19.7308 17.7422 19.2539 18.2326C18.7769 18.7231 18.1304 18.9991 17.4559 19ZM2.54407 2.05191C2.14068 2.05242 1.75396 2.21748 1.46876 2.51088C1.18356 2.80429 1.02319 3.20206 1.02283 3.61692V16.3836C1.02321 16.7984 1.1836 17.1961 1.46881 17.4894C1.75402 17.7827 2.14073 17.9477 2.54407 17.9481H17.4559C17.8593 17.9477 18.246 17.7827 18.5312 17.4894C18.8164 17.1961 18.9768 16.7984 18.9772 16.3836V6.40796C18.9768 5.99315 18.8164 5.59544 18.5312 5.30213C18.246 5.00881 17.8593 4.84386 17.4559 4.84346H10.3441C10.0766 4.84408 9.81155 4.79021 9.56434 4.68495C9.31712 4.5797 9.09262 4.42514 8.90379 4.2302L7.08383 2.35752C6.98981 2.26043 6.87803 2.18345 6.75495 2.13099C6.63186 2.07854 6.49989 2.05166 6.36666 2.05191H2.54407Z" fill="#171723"/>
</g>
<defs>
<clipPath id="clip0_5313_35079">
<rect width="20" height="20" fill="white"/>
</clipPath>
</defs>
</svg>
