<svg width="20" height="20" viewBox="0 0 20 20" fill="none" xmlns="http://www.w3.org/2000/svg">
<path d="M13.0454 10H6.95475C6.78057 9.99984 6.60968 10.0598 6.46061 10.1735C6.31153 10.2872 6.18997 10.4502 6.10909 10.6449C6.02821 10.8396 5.99111 11.0585 6.0018 11.2778C6.0125 11.4972 6.07058 11.7087 6.16976 11.8894L7.04328 13.4812C7.13113 13.641 7.24832 13.7717 7.38484 13.862C7.52137 13.9524 7.67318 13.9997 7.82734 14H12.1728C12.3271 13.9996 12.4791 13.9521 12.6158 13.8616C12.7525 13.771 12.8698 13.6401 12.9577 13.48L13.8304 11.8906C13.9295 11.7098 13.9875 11.4983 13.9982 11.2788C14.0089 11.0594 13.9718 10.8405 13.8909 10.6458C13.8101 10.4511 13.6886 10.2879 13.5395 10.1741C13.3905 10.0603 13.2196 10.0001 13.0454 10ZM13.0454 11.2035V11.2047L12.1728 12.7953H7.82738L6.95475 11.2047L13.0473 11.2012L13.4379 11.5471L13.0454 11.2035Z" fill="#171723"/>
<path d="M19.9543 10.9522L19.9235 10.6743L19.9226 10.6712L19.9195 10.6442C19.8401 10.1408 19.6509 9.66153 19.3657 9.24098C19.0806 8.82044 18.7065 8.46914 18.2705 8.21246L16.1935 3.73879C16.0194 3.3699 15.7588 3.04957 15.4343 2.80565C15.1098 2.56173 14.7312 2.40163 14.3314 2.33926C11.4332 1.88258 8.48206 1.88698 5.58518 2.35229C5.20004 2.42034 4.83702 2.5819 4.52737 2.82308C4.21772 3.06425 3.97071 3.37781 3.80759 3.73678L1.72786 8.21594C1.2893 8.47624 0.913578 8.83188 0.627956 9.25708C0.342334 9.68227 0.15397 10.1664 0.0765243 10.6742L0.0447452 10.9601C0.0119694 11.3354 0 11.7236 0 12.1119C0 12.463 0.0109322 12.8041 0.0327759 13.1492C0.0655516 13.6027 0.111232 14.0492 0.176773 14.4866C0.204981 14.6574 0.276263 14.8181 0.383755 14.9531C0.491247 15.0881 0.631328 15.1928 0.790512 15.2573V16.4218C0.791088 16.8402 0.955849 17.2413 1.24867 17.5371C1.5415 17.8329 1.93849 17.9994 2.35262 18H4.36467C4.7788 17.9994 5.17579 17.8329 5.46862 17.5371C5.76146 17.2413 5.92622 16.8402 5.92681 16.4219V16.0672C6.02549 16.0865 6.12536 16.0991 6.22573 16.1049H13.7743C13.8746 16.0991 13.9745 16.0865 14.0732 16.0672V16.4219C14.0738 16.8402 14.2385 17.2413 14.5314 17.5371C14.8242 17.8329 15.2212 17.9994 15.6353 18H17.6473C18.0615 17.9994 18.4585 17.8329 18.7513 17.5371C19.0441 17.2413 19.2089 16.8402 19.2095 16.4219V15.2601C19.3695 15.1959 19.5103 15.0908 19.6179 14.955C19.7255 14.8192 19.7963 14.6574 19.8232 14.4856C19.8888 14.0492 19.9344 13.6027 19.9672 13.1453C19.9891 12.8042 20 12.4631 20 12.1119C20 11.7237 19.9881 11.3354 19.9543 10.9522ZM18.9497 11.2421C18.969 11.529 18.9831 11.8184 18.9831 12.1119C18.9831 12.2781 18.9728 12.4366 18.9675 12.5985H16.2481L17.0257 11.4628C17.0725 11.3947 17.1351 11.339 17.2079 11.3006C17.2807 11.2621 17.3616 11.2421 17.4438 11.2421H18.9497ZM4.72913 4.17224C4.82221 3.96414 4.96393 3.782 5.14212 3.64149C5.3203 3.50098 5.5296 3.40629 5.75202 3.36558C7.15637 3.13614 8.57691 3.02273 9.9995 3.02648C11.3956 3.02262 12.7897 3.13165 14.1685 3.35253C14.4048 3.38839 14.6288 3.48199 14.821 3.62518C15.0133 3.76838 15.1681 3.95684 15.2719 4.1742L16.8897 7.65849C16.7314 7.6124 16.5549 7.57992 16.3914 7.53741C16.1284 7.46837 15.8645 7.40283 15.5899 7.34259C15.3515 7.29148 15.1088 7.24659 14.8626 7.20257C11.646 6.60618 8.34875 6.60656 5.13226 7.2037C4.88922 7.24722 4.64962 7.29161 4.414 7.34209C4.13705 7.4027 3.87052 7.46875 3.60519 7.53841C3.44293 7.58061 3.26757 7.61271 3.11044 7.65849L4.72913 4.17224ZM1.03245 12.5985C1.02717 12.4367 1.01693 12.2774 1.01693 12.1119C1.01693 11.8162 1.03059 11.5266 1.04971 11.2421H2.55624C2.63839 11.2421 2.71933 11.2621 2.79214 11.3006C2.86494 11.339 2.92746 11.3947 2.97433 11.4628L3.75192 12.5985H1.03245ZM4.36467 16.9727H2.35262C2.20804 16.9726 2.06941 16.9145 1.96717 16.8113C1.86494 16.708 1.80748 16.5679 1.80741 16.4219V15.3394H3.79065C4.09646 15.3396 4.39743 15.4164 4.66657 15.5631L4.90988 15.6962V16.4219C4.90981 16.5679 4.85235 16.708 4.75012 16.8113C4.64788 16.9145 4.50925 16.9726 4.36467 16.9727ZM6.22573 15.0775C6.02193 15.0775 5.82131 15.0265 5.6418 14.929L5.15021 14.6602C4.73263 14.432 4.26541 14.3124 3.79065 14.312L1.38532 14.3296C1.35712 14.3211 1.32822 14.3152 1.29898 14.312C1.26753 14.3153 1.23647 14.3216 1.20624 14.3309L1.18184 14.3311C1.14714 14.1 1.12997 13.8617 1.1063 13.6258H3.75192C3.93749 13.6258 4.11951 13.5744 4.27827 13.4774C4.43703 13.3803 4.56647 13.2412 4.6526 13.0752C4.73872 12.9091 4.77824 12.7224 4.76687 12.5353C4.7555 12.3482 4.69368 12.1678 4.5881 12.0136L3.8105 10.8789C3.67022 10.674 3.4828 10.5065 3.26434 10.3908C3.04587 10.2751 2.80289 10.2147 2.55623 10.2148H1.2626C1.48192 9.69245 1.87627 9.26481 2.37649 9.00685C2.46245 8.95921 2.55173 8.91796 2.64363 8.88344C5.02182 8.12273 7.50514 7.75118 9.9995 7.78288C12.4918 7.75091 14.9731 8.12178 17.3494 8.88144C17.451 8.9192 17.5496 8.96481 17.6443 9.01788C18.1374 9.27513 18.5258 9.69853 18.7423 10.2147H17.4437C17.197 10.2147 16.9541 10.2751 16.7356 10.3907C16.5171 10.5064 16.3297 10.6739 16.1894 10.8789L15.4118 12.0135C15.3062 12.1677 15.2444 12.3481 15.2331 12.5352C15.2217 12.7224 15.2612 12.909 15.3473 13.0751C15.4335 13.2412 15.5629 13.3802 15.7217 13.4773C15.8804 13.5744 16.0624 13.6257 16.248 13.6258H18.8965C18.874 13.8566 18.8563 14.0949 18.8271 14.312H16.2093C15.7349 14.3122 15.268 14.4319 14.8508 14.6602L14.3572 14.929C14.1781 15.0266 13.9778 15.0776 13.7743 15.0775L6.22573 15.0775ZM17.6473 16.9727H15.6353C15.4908 16.9726 15.3521 16.9145 15.2499 16.8113C15.1477 16.708 15.0902 16.5679 15.0901 16.4219V15.6962L15.3344 15.5631C15.6032 15.4163 15.9038 15.3394 16.2093 15.3394H18.1926V16.4219C18.1925 16.5679 18.135 16.708 18.0328 16.8113C17.9306 16.9145 17.7919 16.9726 17.6473 16.9727Z" fill="#171723"/>
</svg>
