<svg width="20" height="20" viewBox="0 0 20 20" fill="none" xmlns="http://www.w3.org/2000/svg">
<g clip-path="url(#clip0_10327_130445)">
<g clip-path="url(#clip1_10327_130445)">
<path d="M15.9318 -0.000488281H4.06751C2.98894 0.000588675 1.95486 0.429526 1.19219 1.19219C0.429526 1.95486 0.000588675 2.98894 -0.000488281 4.06751V15.9329C0.000588675 17.0114 0.429526 18.0455 1.19219 18.8082C1.95486 19.5709 2.98894 19.9998 4.06751 20.0009H15.9318C17.0104 19.9998 18.0445 19.5709 18.8072 18.8082C19.5698 18.0455 19.9988 17.0114 19.9998 15.9329V4.06751C19.9988 2.98894 19.5698 1.95486 18.8072 1.19219C18.0445 0.429526 17.0104 0.000588675 15.9318 -0.000488281ZM18.9828 15.9329C18.982 16.7418 18.6602 17.5173 18.0883 18.0893C17.5163 18.6613 16.7408 18.983 15.9318 18.9839H4.06751C3.25861 18.983 2.48309 18.6613 1.91111 18.0893C1.33912 17.5173 1.0174 16.7418 1.01651 15.9329V4.06751C1.0174 3.25861 1.33912 2.48309 1.91111 1.91111C2.48309 1.33912 3.25861 1.0174 4.06751 1.01651H15.9318C16.7408 1.0174 17.5163 1.33912 18.0883 1.91111C18.6602 2.48309 18.982 3.25861 18.9828 4.06751V15.9329Z" fill="#171723"/>
<path d="M7.72949 11.0289C7.68045 11.0291 7.63203 11.0399 7.58757 11.0606C7.5431 11.0812 7.50365 11.1113 7.47193 11.1487L3.55886 15.0558V14.07C3.55886 13.98 3.52314 13.8938 3.45957 13.8302C3.39599 13.7667 3.30977 13.731 3.21986 13.731C3.12995 13.731 3.04373 13.7667 2.98015 13.8302C2.91658 13.8938 2.88086 13.98 2.88086 14.07V15.8735C2.88086 15.8834 2.88827 15.891 2.88914 15.9008C2.89278 15.9489 2.90698 15.9957 2.93073 16.0378C2.93875 16.052 2.94789 16.0656 2.95804 16.0783C2.98853 16.1202 3.02837 16.1544 3.0744 16.1781C3.12042 16.2019 3.17135 16.2146 3.22314 16.2152H5.03137C5.12128 16.2152 5.2075 16.1795 5.27108 16.1159C5.33465 16.0523 5.37037 15.9661 5.37037 15.8762C5.37037 15.7863 5.33465 15.7001 5.27108 15.6365C5.2075 15.5729 5.12128 15.5372 5.03137 15.5372H4.03653L7.96918 11.6109C8.03296 11.5448 8.06857 11.4565 8.06849 11.3646C8.06846 11.3202 8.05964 11.2763 8.04255 11.2354C8.02546 11.1945 8.00043 11.1573 7.96892 11.1261C7.9374 11.0949 7.90002 11.0703 7.85893 11.0536C7.81783 11.0369 7.77384 11.0285 7.72949 11.0289Z" fill="#171723"/>
<path d="M16.2149 3.21998C16.2134 3.15982 16.1955 3.10123 16.1631 3.05052C16.157 3.0403 16.1504 3.03044 16.1432 3.02098C16.1128 2.97823 16.0728 2.94328 16.0263 2.91895C15.9799 2.89462 15.9284 2.88161 15.8759 2.88098H14.0565C13.9665 2.88098 13.8803 2.9167 13.8167 2.98027C13.7532 3.04385 13.7175 3.13007 13.7175 3.21998C13.7175 3.30989 13.7532 3.39612 13.8167 3.45969C13.8803 3.52327 13.9665 3.55898 14.0565 3.55898H15.0588L11.1266 7.49059C11.0946 7.52195 11.0692 7.55934 11.0517 7.6006C11.0342 7.64186 11.0251 7.68617 11.0249 7.73097C11.0247 7.77578 11.0333 7.82018 11.0504 7.86161C11.0674 7.90305 11.0925 7.94069 11.1242 7.97237C11.1559 8.00405 11.1935 8.02914 11.2349 8.04618C11.2764 8.06322 11.3208 8.07187 11.3656 8.07165C11.4104 8.07142 11.4547 8.06232 11.496 8.04486C11.5372 8.0274 11.5746 8.00194 11.606 7.96994L15.5369 4.03966V5.03748C15.5369 5.12739 15.5726 5.21361 15.6362 5.27719C15.6998 5.34076 15.786 5.37648 15.8759 5.37648C15.9658 5.37648 16.052 5.34076 16.1156 5.27719C16.1792 5.21361 16.2149 5.12739 16.2149 5.03748V3.22131L16.2149 3.21998Z" fill="#171723"/>
</g>
</g>
<defs>
<clipPath id="clip0_10327_130445">
<rect width="20" height="20" fill="white"/>
</clipPath>
<clipPath id="clip1_10327_130445">
<rect width="20" height="20" fill="white"/>
</clipPath>
</defs>
</svg>
