<svg width="20" height="20" viewBox="0 0 20 20" fill="none" xmlns="http://www.w3.org/2000/svg">
<g clip-path="url(#clip0_10314_145340)">
<g clip-path="url(#clip1_10314_145340)">
<path d="M1.34128 20C1.07599 19.9999 0.816666 19.9212 0.596098 19.7738C0.37553 19.6264 0.20362 19.4169 0.102104 19.1718C0.000586764 18.9267 -0.0259789 18.657 0.0257655 18.3968C0.0775099 18.1366 0.205241 17.8976 0.392809 17.71L12.4316 5.67228C12.6834 5.42175 13.0242 5.2813 13.3794 5.28174C13.7346 5.28218 14.0751 5.42346 14.3262 5.6746C14.5774 5.92574 14.7186 6.26624 14.7191 6.62141C14.7195 6.97658 14.5791 7.31743 14.3286 7.56919L2.28976 19.6069C2.16538 19.7317 2.01755 19.8307 1.85477 19.8982C1.69199 19.9656 1.51748 20.0002 1.34128 20V20Z" fill="#171723"/>
<path d="M15.9648 4.5718C15.8586 4.57179 15.7549 4.54031 15.6667 4.48134C15.5784 4.42238 15.5097 4.33858 15.4691 4.24053C15.4285 4.14249 15.4178 4.03461 15.4385 3.93052C15.4592 3.82644 15.5103 3.73084 15.5854 3.65579L17.1417 2.10051C17.1915 2.05069 17.2507 2.01116 17.3158 1.9842C17.3809 1.95724 17.4506 1.94336 17.5211 1.94336C17.5915 1.94336 17.6613 1.95724 17.7264 1.9842C17.7915 2.01116 17.8507 2.05069 17.9005 2.10051C17.9503 2.15033 17.9898 2.20948 18.0168 2.27457C18.0437 2.33967 18.0576 2.40944 18.0576 2.4799C18.0576 2.55035 18.0437 2.62012 18.0168 2.68522C17.9898 2.75031 17.9503 2.80946 17.9005 2.85928L16.3441 4.41457C16.2944 4.46448 16.2353 4.50407 16.1701 4.53105C16.105 4.55803 16.0352 4.57188 15.9648 4.5718Z" fill="#171723"/>
<path d="M12.8354 3.27542C12.765 3.27546 12.6952 3.2616 12.63 3.23465C12.5649 3.2077 12.5057 3.16818 12.4559 3.11834C12.4061 3.0685 12.3666 3.00933 12.3396 2.94421C12.3126 2.87909 12.2988 2.8093 12.2988 2.73882V0.538996C12.2985 0.468328 12.3122 0.398294 12.339 0.332914C12.3658 0.267534 12.4053 0.208097 12.4551 0.158015C12.505 0.107933 12.5643 0.0681926 12.6295 0.0410758C12.6948 0.0139591 12.7648 0 12.8354 0C12.9061 0 12.9761 0.0139591 13.0413 0.0410758C13.1066 0.0681926 13.1658 0.107933 13.2157 0.158015C13.2656 0.208097 13.305 0.267534 13.3319 0.332914C13.3587 0.398294 13.3723 0.468328 13.372 0.538996V2.73882C13.3721 2.8093 13.3582 2.87909 13.3313 2.94421C13.3043 3.00933 13.2648 3.0685 13.2149 3.11834C13.1651 3.16817 13.1059 3.2077 13.0408 3.23465C12.9757 3.2616 12.9059 3.27546 12.8354 3.27542V3.27542Z" fill="#171723"/>
<path d="M9.70615 4.5719C9.63568 4.57199 9.56588 4.55814 9.50077 4.53116C9.43566 4.50418 9.37653 4.4646 9.32676 4.41469L7.77043 2.85941C7.72061 2.80958 7.68109 2.75044 7.65412 2.68534C7.62716 2.62025 7.61328 2.55048 7.61328 2.48002C7.61328 2.40956 7.62716 2.33979 7.65412 2.27469C7.68109 2.2096 7.72061 2.15045 7.77043 2.10063C7.87105 2.00001 8.00752 1.94348 8.14982 1.94348C8.22028 1.94348 8.29004 1.95736 8.35514 1.98432C8.42024 2.01129 8.47938 2.05081 8.52921 2.10063L10.0856 3.65591C10.1606 3.73096 10.2117 3.82657 10.2324 3.93065C10.2531 4.03473 10.2425 4.14262 10.2019 4.24066C10.1612 4.3387 10.0925 4.42251 10.0042 4.48147C9.91601 4.54043 9.81227 4.57191 9.70615 4.57192V4.5719Z" fill="#171723"/>
<path d="M17.5211 12.3871C17.4506 12.3872 17.3808 12.3734 17.3157 12.3464C17.2506 12.3194 17.1915 12.2798 17.1417 12.2299L15.5854 10.6746C15.4848 10.574 15.4282 10.4375 15.4282 10.2952C15.4282 10.1529 15.4847 10.0164 15.5854 9.91582C15.686 9.8152 15.8225 9.75867 15.9648 9.75867C16.1071 9.75867 16.2435 9.81519 16.3441 9.91581L17.9005 11.4711C17.9755 11.5462 18.0266 11.6418 18.0473 11.7459C18.068 11.8499 18.0574 11.9578 18.0168 12.0559C17.9762 12.1539 17.9074 12.2377 17.8192 12.2967C17.731 12.3557 17.6272 12.3871 17.5211 12.3871V12.3871Z" fill="#171723"/>
<path d="M19.4625 7.70234H17.2617C17.191 7.70266 17.1209 7.68901 17.0556 7.66219C16.9902 7.63536 16.9308 7.59589 16.8807 7.54603C16.8306 7.49617 16.7908 7.43691 16.7637 7.37165C16.7366 7.30639 16.7227 7.23642 16.7227 7.16575C16.7227 7.09508 16.7366 7.02511 16.7637 6.95985C16.7908 6.89459 16.8306 6.83533 16.8807 6.78547C16.9308 6.73561 16.9902 6.69614 17.0556 6.66931C17.1209 6.64249 17.191 6.62884 17.2617 6.62916H19.4625C19.5332 6.62884 19.6032 6.64249 19.6686 6.66931C19.734 6.69614 19.7934 6.73561 19.8435 6.78547C19.8936 6.83533 19.9333 6.89459 19.9604 6.95985C19.9876 7.02511 20.0015 7.09508 20.0015 7.16575C20.0015 7.23642 19.9876 7.30639 19.9604 7.37165C19.9333 7.43691 19.8936 7.49617 19.8435 7.54603C19.7934 7.59589 19.734 7.63536 19.6686 7.66219C19.6032 7.68901 19.5332 7.70266 19.4625 7.70234V7.70234Z" fill="#171723"/>
</g>
</g>
<defs>
<clipPath id="clip0_10314_145340">
<rect width="20" height="20" fill="white"/>
</clipPath>
<clipPath id="clip1_10314_145340">
<rect width="20" height="20" fill="white"/>
</clipPath>
</defs>
</svg>
