<svg width="20" height="20" viewBox="0 0 20 20" fill="none" xmlns="http://www.w3.org/2000/svg">
<path d="M12.6909 6.38444H13.3009L15.0394 4.64593L15.1248 3.90783C14.1289 3.02879 12.9253 2.41815 11.6277 2.1336C10.3302 1.84905 8.98154 1.89997 7.70915 2.28157C6.43677 2.66316 5.28267 3.36282 4.35587 4.31447C3.42906 5.26611 2.76017 6.43831 2.41235 7.72034C2.60603 7.64096 2.82058 7.62809 3.02236 7.68374L6.49937 7.11034C6.49937 7.11034 6.67627 6.81754 6.76777 6.83584C7.51278 6.01762 8.54237 5.51513 9.64576 5.43121C10.7492 5.34729 11.8429 5.6883 12.7031 6.38444H12.6909Z" fill="#EA4335"/>
<path d="M17.516 7.72028C17.1164 6.24873 16.296 4.92583 15.1553 3.91387L12.7153 6.35388C13.2238 6.76939 13.6314 7.29495 13.9072 7.89092C14.1829 8.48689 14.3198 9.13771 14.3074 9.79429V10.2274C14.5926 10.2274 14.875 10.2836 15.1384 10.3927C15.4019 10.5018 15.6413 10.6618 15.843 10.8634C16.0446 11.0651 16.2046 11.3045 16.3137 11.568C16.4228 11.8314 16.479 12.1138 16.479 12.399C16.479 12.6842 16.4228 12.9666 16.3137 13.23C16.2046 13.4935 16.0446 13.7329 15.843 13.9346C15.6413 14.1362 15.4019 14.2962 15.1384 14.4053C14.875 14.5144 14.5926 14.5706 14.3074 14.5706H9.9642L9.5311 15.0098V17.6145L9.9642 18.0476H14.3074C15.5202 18.0571 16.7039 17.6759 17.6833 16.9604C18.6627 16.245 19.3858 15.2334 19.7457 14.0751C20.1055 12.9169 20.083 11.6735 19.6815 10.5291C19.2799 9.38461 18.5207 8.39979 17.516 7.72028Z" fill="#4285F4"/>
<path d="M5.61487 18.0234H9.95808V14.5464H5.61487C5.30543 14.5463 4.99963 14.4798 4.71816 14.3512L4.10816 14.5403L2.35746 16.2788L2.20496 16.8888C3.18671 17.6302 4.38466 18.0288 5.61487 18.0234Z" fill="#34A853"/>
<path d="M5.61487 6.7444C4.43807 6.75143 3.29285 7.12583 2.33916 7.81532C1.38547 8.5048 0.670945 9.47494 0.295376 10.5902C-0.080193 11.7055 -0.0980472 12.9103 0.244307 14.0362C0.586661 15.1621 1.27213 16.153 2.20496 16.8704L4.72427 14.3511C4.40412 14.2065 4.12384 13.9863 3.90748 13.7095C3.69112 13.4328 3.54514 13.1076 3.48206 12.762C3.41899 12.4164 3.4407 12.0607 3.54533 11.7253C3.64997 11.3899 3.83441 11.085 4.08282 10.8366C4.33123 10.5881 4.63621 10.4037 4.97157 10.2991C5.30694 10.1944 5.66268 10.1727 6.00828 10.2358C6.35388 10.2989 6.67902 10.4449 6.9558 10.6612C7.23258 10.8776 7.45274 11.1579 7.59738 11.478L10.1167 8.9587C9.58791 8.26742 8.90639 7.70784 8.12541 7.3237C7.34444 6.93956 6.4852 6.7413 5.61487 6.7444Z" fill="#FBBC05"/>
</svg>
