<svg width="20" height="20" viewBox="0 0 20 20" fill="none" xmlns="http://www.w3.org/2000/svg">
<path fill-rule="evenodd" clip-rule="evenodd" d="M19.9975 9.97985C18.8186 9.90722 17.6701 9.63984 16.5955 9.19719C15.3058 8.66597 14.1224 7.88234 13.12 6.87996C12.1178 5.87767 11.3342 4.6944 10.803 3.40488C10.3602 2.33013 10.0928 1.18157 10.0202 0.00245982C10.0201 0.00163989 10.0201 0.000819955 10.02 0H9.98C9.97995 0.000821349 9.9799 0.00164268 9.97985 0.002464C9.90734 1.18158 9.64 2.33016 9.19733 3.40493C8.66618 4.69455 7.8826 5.87791 6.88025 6.88025C5.878 7.8825 4.69477 8.66604 3.40529 9.19719C2.33041 9.63994 1.18171 9.90733 0.0024598 9.97985C0.00163988 9.9799 0.00081995 9.97995 0 9.98V10.02C0.00081995 10.0201 0.00163988 10.0201 0.0024598 10.0202C1.18171 10.0927 2.33041 10.3601 3.40529 10.8028C4.69477 11.334 5.878 12.1175 6.88025 13.1197C7.8826 14.1221 8.66618 15.3054 9.19733 16.5951C9.64 17.6698 9.90734 18.8184 9.97985 19.9975C9.9799 19.9984 9.97995 19.9992 9.98 20H10.02C10.0201 19.9992 10.0201 19.9984 10.0202 19.9975C10.0928 18.8184 10.3602 17.6699 10.803 16.5951C11.3342 15.3056 12.1178 14.1223 13.12 13.12C14.1224 12.1177 15.3058 11.334 16.5955 10.8028C17.6701 10.3602 18.8186 10.0928 19.9975 10.0202C19.9984 10.0201 19.9992 10.0201 20 10.02V9.98C19.9992 9.97995 19.9984 9.9799 19.9975 9.97985ZM14.8038 10C13.8039 9.45104 12.8786 8.75987 12.0594 7.94062C11.2402 7.12146 10.5491 6.19635 10.0002 5.19661C9.45128 6.19646 8.76014 7.12169 7.94091 7.94091C7.12179 8.76004 6.19669 9.45111 5.19698 10C6.19669 10.5489 7.12179 11.24 7.94091 12.0591C8.76014 12.8783 9.45128 13.8035 10.0002 14.8034C10.5491 13.8036 11.2402 12.8785 12.0594 12.0594C12.8786 11.2401 13.8039 10.549 14.8038 10Z" fill="url(#paint0_linear_18955_1853)"/>
<defs>
<linearGradient id="paint0_linear_18955_1853" x1="10" y1="20" x2="10" y2="0" gradientUnits="userSpaceOnUse">
<stop stop-color="#368CF3"/>
<stop offset="1" stop-color="#A3C3EA"/>
</linearGradient>
</defs>
</svg>
