<svg width="20" height="20" viewBox="0 0 20 20" fill="none" xmlns="http://www.w3.org/2000/svg">
<g clip-path="url(#clip0_18997_1942)">
<path d="M5.77969 10.1235L6.72045 8.4039C7.10905 7.69304 7.69336 7.10873 8.40382 6.72013L10.1238 5.77977C10.5616 5.5401 10.5616 4.91144 10.1238 4.67218L8.40382 3.73141C7.69336 3.34281 7.10905 2.7585 6.72045 2.04804L5.77969 0.328066C5.54042 -0.109355 4.91176 -0.109355 4.67209 0.328066L3.73173 2.04805C3.34314 2.75851 2.75882 3.34282 2.04836 3.73142L0.328372 4.67218C-0.109457 4.91144 -0.109457 5.54011 0.328372 5.77978L2.04836 6.72014C2.75881 7.10873 3.34313 7.69305 3.73172 8.40391L4.67208 10.1235C4.91175 10.5613 5.54042 10.5613 5.77969 10.1235Z" fill="#171723"/>
<path d="M19.728 10.2801L18.3022 9.50004C17.7134 9.17818 17.2288 8.69356 16.9069 8.10476L16.1269 6.67896C15.9287 6.316 15.4075 6.316 15.2089 6.67896L14.4293 8.10476C14.107 8.69355 13.6228 9.17818 13.0336 9.50004L11.6078 10.2801C11.2448 10.4782 11.2448 10.9995 11.6078 11.1981L13.0336 11.9777C13.6228 12.3 14.107 12.7842 14.4293 13.3734L15.2089 14.7992C15.4075 15.1617 15.9287 15.1617 16.1269 14.7992L16.9069 13.3734C17.2288 12.7842 17.7134 12.2999 18.3022 11.9777L19.728 11.1981C20.091 10.9995 20.091 10.4782 19.728 10.2801Z" fill="#171723"/>
<path d="M10.6495 16.3733L9.57039 15.7833C9.12442 15.5396 8.7582 15.173 8.51406 14.727L7.92405 13.6479C7.77389 13.3732 7.3792 13.3732 7.22906 13.6479L6.63904 14.727C6.3949 15.173 6.02869 15.5396 5.58271 15.7833L4.5036 16.3733C4.22894 16.5239 4.22894 16.9182 4.5036 17.0683L5.58271 17.6583C6.02869 17.9025 6.3949 18.2691 6.63904 18.7147L7.22906 19.7938C7.37921 20.0684 7.7739 20.0684 7.92405 19.7938L8.51406 18.7147C8.7582 18.2691 9.12442 17.9025 9.57039 17.6583L10.6495 17.0683C10.9242 16.9182 10.9242 16.5239 10.6495 16.3733Z" fill="#171723"/>
</g>
<defs>
<clipPath id="clip0_18997_1942">
<rect width="20.0002" height="20" fill="white"/>
</clipPath>
</defs>
</svg>
