<svg width="20" height="20" viewBox="0 0 20 20" fill="none" xmlns="http://www.w3.org/2000/svg">
<path d="M11.0392 6.6798C11.0392 7.57208 10.3334 8.27471 9.463 8.27471C8.48182 8.27471 7.79765 7.57183 7.79765 6.6798C7.79765 5.79221 8.48182 5.08342 9.46275 5.08342C10.3334 5.08342 11.0392 5.79221 11.0392 6.6798ZM5.35677 13.7323C5.28771 13.9589 5.25806 14.1956 5.26909 14.4322C5.34249 15.9498 6.9603 16.6667 9.54944 16.6667C12.6201 16.6667 14.0083 15.1853 14.0083 13.814C14.0083 9.96321 7.67771 12.077 7.67771 10.5208C7.67771 9.96173 8.47344 9.92577 9.47162 9.92577C11.8857 9.92577 13.1047 8.63207 13.1047 6.81206C13.1047 6.06878 12.8841 5.51244 12.5885 5.10361C12.9383 4.87974 13.5338 4.87974 14.0687 4.87974V3.33655C12.9757 3.29912 12.2529 3.59317 11.8096 4.184C11.2185 3.6678 10.2548 3.33655 9.43985 3.33655C6.93715 3.33655 5.64221 4.99894 5.64221 6.68695C5.64221 7.85579 6.2717 8.59463 7.06916 9.24136C6.64063 9.36894 5.56759 10.0733 5.56759 10.9983C5.56759 12.2519 7.25707 12.7366 9.37138 12.8673C11.0882 12.975 11.9273 13.4079 11.9273 14.0734C11.9273 14.5068 11.3953 15.1078 9.91935 15.1491C7.52403 15.2154 7.26446 14.5054 7.41641 13.7709L5.35677 13.7323Z" fill="black"/>
</svg>
