<svg width="24" height="24" viewBox="0 0 24 24" fill="none" xmlns="http://www.w3.org/2000/svg">
<path fill-rule="evenodd" clip-rule="evenodd" d="M12 22.5C12.7826 22.5 13.8949 21.8266 14.901 19.8145C15.4249 18.7667 15.8527 17.47 16.1335 16H7.8665C8.14734 17.47 8.57514 18.7667 9.099 19.8145C10.1051 21.8266 11.2174 22.5 12 22.5ZM7.63935 14.5C7.54866 13.7015 7.5 12.8649 7.5 12C7.5 11.1351 7.54866 10.2985 7.63935 9.5H16.3607C16.4513 10.2985 16.5 11.1351 16.5 12C16.5 12.8649 16.4513 13.7015 16.3607 14.5H7.63935ZM17.6586 16C17.2264 18.4454 16.4092 20.527 15.3526 21.9534C18.2356 20.9827 20.559 18.7944 21.7112 16H17.6586ZM22.2006 14.5H17.8696C17.955 13.6936 18 12.8573 18 12C18 11.1427 17.955 10.3064 17.8696 9.5H22.2006C22.3962 10.3012 22.5 11.1385 22.5 12C22.5 12.8615 22.3962 13.6988 22.2006 14.5ZM6.13039 14.5H1.79945C1.60375 13.6988 1.5 12.8615 1.5 12C1.5 11.1385 1.60375 10.3012 1.79945 9.5H6.13039C6.04495 10.3064 6 11.1427 6 12C6 12.8573 6.04495 13.6936 6.13039 14.5ZM2.28878 16H6.34141C6.77358 18.4454 7.59082 20.527 8.64743 21.9534C5.76437 20.9827 3.44104 18.7944 2.28878 16ZM7.8665 8H16.1335C15.8527 6.52998 15.4249 5.23325 14.901 4.18554C13.8949 2.17342 12.7826 1.5 12 1.5C11.2174 1.5 10.1051 2.17342 9.099 4.18554C8.57514 5.23325 8.14734 6.52998 7.8665 8ZM17.6586 8H21.7112C20.559 5.20556 18.2356 3.01732 15.3526 2.0466C16.4092 3.47297 17.2264 5.55458 17.6586 8ZM8.64743 2.0466C7.59082 3.47297 6.77358 5.55458 6.34141 8H2.28878C3.44104 5.20556 5.76437 3.01732 8.64743 2.0466ZM12 0C18.6274 0 24 5.37258 24 12C24 18.6274 18.6274 24 12 24C5.37258 24 0 18.6274 0 12C0 5.37258 5.37258 0 12 0Z" fill="#171723"/>
</svg>
