<svg width="20" height="20" viewBox="0 0 20 20" fill="none" xmlns="http://www.w3.org/2000/svg">
<path fill-rule="evenodd" clip-rule="evenodd" d="M10 0C15.5228 0 20 4.47715 20 10C20 15.5228 15.5228 20 10 20C4.47715 20 0 15.5228 0 10C0 4.47715 4.47715 0 10 0ZM10 18.75C10.6522 18.75 11.5791 18.1888 12.4175 16.5121C12.854 15.639 13.2105 14.5584 13.4446 13.3333H6.55542C6.78945 14.5584 7.14595 15.639 7.5825 16.5121C8.42088 18.1888 9.34782 18.75 10 18.75ZM6.36612 12.0833C6.29055 11.4179 6.25 10.7207 6.25 10C6.25 9.27926 6.29055 8.58208 6.36612 7.91667H13.6339C13.7095 8.58208 13.75 9.27926 13.75 10C13.75 10.7207 13.7095 11.4179 13.6339 12.0833H6.36612ZM14.7155 13.3333C14.3554 15.3712 13.6743 17.1059 12.7938 18.2945C15.1964 17.4856 17.1325 15.662 18.0927 13.3333H14.7155ZM18.5005 12.0833H14.8913C14.9625 11.4113 15 10.7144 15 10C15 9.28558 14.9625 8.58866 14.8913 7.91667H18.5005C18.6635 8.58435 18.75 9.28208 18.75 10C18.75 10.7179 18.6635 11.4156 18.5005 12.0833ZM5.10866 12.0833H1.49954C1.33646 11.4156 1.25 10.7179 1.25 10C1.25 9.28208 1.33646 8.58435 1.49954 7.91667H5.10866C5.03746 8.58866 5 9.28558 5 10C5 10.7144 5.03746 11.4113 5.10866 12.0833ZM1.90731 13.3333H5.28451C5.64465 15.3712 6.32569 17.1059 7.20619 18.2945C4.80364 17.4856 2.86754 15.662 1.90731 13.3333ZM6.55542 6.66667H13.4446C13.2105 5.44165 12.854 4.36104 12.4175 3.48795C11.5791 1.81119 10.6522 1.25 10 1.25C9.34782 1.25 8.42088 1.81119 7.5825 3.48795C7.14595 4.36104 6.78945 5.44165 6.55542 6.66667ZM14.7155 6.66667H18.0927C17.1325 4.33797 15.1964 2.51443 12.7938 1.7055C13.6743 2.89414 14.3554 4.62882 14.7155 6.66667ZM7.20619 1.7055C6.32569 2.89414 5.64465 4.62882 5.28451 6.66667H1.90731C2.86754 4.33797 4.80364 2.51443 7.20619 1.7055Z" fill="#171723"/>
</svg>
