<svg width="20" height="20" viewBox="0 0 20 20" fill="none" xmlns="http://www.w3.org/2000/svg">
<g clip-path="url(#clip0_18359_1814)">
<path fill-rule="evenodd" clip-rule="evenodd" d="M9.99997 0.383301C4.6833 0.383301 0.383301 4.6833 0.383301 9.99997C0.383301 15.3166 4.6833 19.6166 9.99997 19.6166C15.3166 19.6166 19.6166 15.3166 19.6166 9.99997C19.6166 4.6833 15.3166 0.383301 9.99997 0.383301ZM17.7833 6.79163H14.5333C14.1916 4.8333 13.5333 3.16663 12.6916 2.01663C15 2.79997 16.8583 4.54997 17.7833 6.79163ZM13.6083 9.99997C13.6083 10.6916 13.5666 11.3666 13.4916 12H6.5083C6.4333 11.3666 6.39163 10.6916 6.39163 9.99997C6.39163 9.3083 6.4333 8.6333 6.5083 7.99997H13.4916C13.5666 8.6333 13.6083 9.3083 13.6083 9.99997ZM9.99997 1.5833C10.625 1.5833 11.5166 2.12497 12.325 3.7333C12.7416 4.57497 13.0916 5.61663 13.3166 6.79163H6.6833C6.9083 5.61663 7.2583 4.57497 7.67497 3.7333C8.4833 2.12497 9.37497 1.5833 9.99997 1.5833ZM7.3083 2.01663C6.46663 3.16663 5.8083 4.8333 5.46663 6.79163H2.21663C3.14163 4.54997 4.99997 2.79997 7.3083 2.01663ZM1.5833 9.99997C1.5833 9.3083 1.66663 8.64163 1.82497 7.99997H5.29163C5.22497 8.64163 5.19163 9.31663 5.19163 9.99997C5.19163 10.6833 5.22497 11.3583 5.29163 12H1.82497C1.66663 11.3583 1.5833 10.6916 1.5833 9.99997ZM2.21663 13.2083H5.46663C5.8083 15.1666 6.46663 16.8333 7.3083 17.9833C4.99997 17.2 3.14163 15.45 2.21663 13.2083ZM9.99997 18.4166C9.37497 18.4166 8.4833 17.875 7.67497 16.2666C7.2583 15.425 6.9083 14.3833 6.6833 13.2083H13.3166C13.0916 14.3833 12.7416 15.425 12.325 16.2666C11.5166 17.875 10.625 18.4166 9.99997 18.4166ZM12.6916 17.9833C13.5333 16.8333 14.1916 15.1666 14.5333 13.2083H17.7833C16.8583 15.45 15 17.2 12.6916 17.9833ZM14.7083 12C14.775 11.3583 14.8083 10.6833 14.8083 9.99997C14.8083 9.31663 14.775 8.64163 14.7083 7.99997H18.175C18.3333 8.64163 18.4166 9.3083 18.4166 9.99997C18.4166 10.6916 18.3333 11.3583 18.175 12H14.7083Z" fill="#171723"/>
</g>
<defs>
<clipPath id="clip0_18359_1814">
<rect width="20" height="20" fill="white"/>
</clipPath>
</defs>
</svg>
