<svg width="21" height="21" viewBox="0 0 21 21" fill="none" xmlns="http://www.w3.org/2000/svg">
<path d="M20.754 10.6671C20.754 9.98733 20.6981 9.30388 20.5788 8.63513H11.0137V12.486H16.4912C16.2638 13.7279 15.5336 14.8266 14.4641 15.5247V18.0233H17.732C19.651 16.2816 20.754 13.7095 20.754 10.6671Z" fill="#4285F4"/>
<path d="M11.0138 20.4374C13.7488 20.4374 16.0554 19.5519 17.7358 18.0232L14.468 15.5246C13.5588 16.1346 12.385 16.4801 11.0175 16.4801C8.3719 16.4801 6.12873 14.7199 5.32387 12.3536H1.95166V14.9294C3.67317 18.3063 7.17952 20.4374 11.0138 20.4374Z" fill="#34A853"/>
<path d="M5.32026 12.3537C4.89547 11.1117 4.89547 9.76685 5.32026 8.52489V5.9491H1.95178C0.513469 8.77475 0.513469 12.1038 1.95178 14.9294L5.32026 12.3537Z" fill="#FBBC04"/>
<path d="M11.0138 4.39482C12.4595 4.37277 13.8569 4.90923 14.9039 5.894L17.7992 3.03894C15.9659 1.34136 13.5327 0.408046 11.0138 0.437441C7.17951 0.437441 3.67317 2.56862 1.95166 5.94911L5.32014 8.5249C6.12127 6.15487 8.36817 4.39482 11.0138 4.39482Z" fill="#EA4335"/>
</svg>
