<svg width="20" height="20" viewBox="0 0 20 20" fill="none" xmlns="http://www.w3.org/2000/svg">
<path d="M18.2662 4.53411C15.3189 3.5266 11.7958 1.91234 10.6322 0.373919L10.5803 0.303459C10.5773 0.29906 10.5742 0.294159 10.5707 0.28976L10.4633 0.144923L10.2959 0.0700543C10.178 0.00937564 10.0731 -0.00285028 10.0207 0.000566961C9.91429 -0.00383237 9.81447 0.0172022 9.71213 0.0695632L9.61936 0.0852164L9.43182 0.285842C9.42577 0.294159 9.42022 0.302477 9.41417 0.310795L9.36779 0.373919C8.19966 1.91479 4.67963 3.52709 1.73384 4.53411C1.26044 4.69656 0.959961 5.15212 1.00433 5.64242C1.05475 6.19975 1.22162 7.45191 1.72931 10.2533C2.54201 14.7467 6.98262 18.2081 8.90346 19.52C9.12378 19.6697 9.31636 19.7955 9.54172 19.9242C9.67381 19.975 9.81346 20 9.95261 20C10.1654 20 10.3771 19.9418 10.5601 19.8273C11.6849 19.1285 17.3431 15.3823 18.2717 10.2533C18.7779 7.45681 18.9448 6.2022 18.9957 5.64193C19.04 5.15212 18.7396 4.69656 18.2662 4.53411ZM17.9672 5.55434C17.9183 6.09455 17.7545 7.31833 17.2543 10.08C16.3826 14.8959 10.6539 18.5795 10.0101 19.0365C9.88205 18.9568 9.70155 18.8388 9.44897 18.6676C8.0706 17.7257 3.51403 14.3234 2.74569 10.08C2.24507 7.31393 2.08171 6.0921 2.07718 5.47947C3.93248 4.84483 8.25815 3.20708 10.0005 1.21213C11.7565 3.21246 16.0706 4.84629 17.9228 5.47947" fill="#171723"/>
<path d="M10.1701 4.40247C9.76478 4.40247 6.21451 4.44357 6.21451 5.86797C6.21451 5.87237 6.21652 5.87629 6.21652 5.8807V10.6555C6.21652 10.6574 6.21551 10.6589 6.21551 10.6604V13.2586C6.21551 13.2821 6.2256 13.3022 6.22912 13.3247C6.23365 13.3585 6.23769 13.3908 6.24979 13.4235C6.26189 13.4578 6.28055 13.4867 6.2997 13.517C6.3113 13.5356 6.31583 13.5566 6.33046 13.5738C6.33651 13.5811 6.34709 13.587 6.35365 13.5943C6.36726 13.6085 6.38188 13.6202 6.39701 13.633C6.55783 13.7969 6.79226 13.9363 7.08165 14.0533C7.09073 14.0572 7.09477 14.0616 7.10383 14.065C7.12652 14.0748 7.1613 14.0846 7.18954 14.0944C7.35692 14.156 7.53539 14.2118 7.72848 14.2598C7.76327 14.2691 7.78999 14.2779 7.8278 14.2872L7.84443 14.2911C7.8767 14.2984 7.90897 14.3058 7.94224 14.3131L8.07181 14.342C8.14441 14.3586 8.23063 14.3684 8.30978 14.3816C8.3723 14.3924 8.4333 14.4036 8.49682 14.4134C8.54724 14.4208 8.5916 14.431 8.64353 14.4379C8.6763 14.4423 8.70857 14.4403 8.74183 14.4443C9.21473 14.503 9.70427 14.5348 10.1711 14.5348H10.1752C10.3425 14.5348 10.5286 14.5299 10.7257 14.5196C10.7801 14.5177 10.8376 14.5181 10.8911 14.5152C11.6503 14.4721 13.2208 14.2989 13.8454 13.6609C13.8621 13.6447 13.8777 13.6286 13.8928 13.6124C13.9326 13.5664 13.9745 13.5219 14.0037 13.4715C14.0572 13.3859 14.0869 13.2914 14.1036 13.1931C14.1061 13.1769 14.1177 13.1647 14.1197 13.1481C14.1207 13.1344 14.1156 13.1211 14.1156 13.1074C14.1161 13.0952 14.1207 13.0849 14.1207 13.0727V10.6716C14.1207 10.6687 14.1217 10.6667 14.1217 10.6643V5.88705C14.1217 5.8802 14.1247 5.87482 14.1247 5.86797C14.1247 4.44356 10.5745 4.40247 10.1701 4.40247ZM10.1701 5.40459C11.6644 5.40459 12.6435 5.67176 12.9924 5.86797C12.6435 6.0637 11.6644 6.33086 10.1701 6.33086C8.67479 6.33086 7.69572 6.0637 7.34683 5.86797C7.69571 5.67176 8.67478 5.40459 10.1701 5.40459ZM13.0882 12.9836C12.8941 13.1441 12.092 13.4417 10.7812 13.5155C10.4973 13.5302 10.2004 13.5332 9.89736 13.5248C9.85501 13.5239 9.81216 13.5229 9.77031 13.5214C9.46479 13.5097 9.15474 13.4862 8.8472 13.4495C8.74637 13.4368 8.64957 13.4226 8.55731 13.4074C8.50539 13.3991 8.45245 13.3913 8.40254 13.3815C8.28003 13.359 8.16458 13.335 8.0587 13.31C7.9256 13.2753 7.80208 13.2415 7.68664 13.2078C7.6206 13.1867 7.56765 13.1657 7.5132 13.1446C7.40077 13.0996 7.33725 13.0678 7.29642 13.0507C7.28129 13.0429 7.26113 13.0345 7.24801 13.0272V11.7065C7.41136 11.7643 7.58529 11.8166 7.77233 11.8621C7.9266 11.9013 8.09349 11.935 8.26893 11.9644C8.35716 11.98 8.44438 11.9952 8.53462 12.0084C8.57697 12.0143 8.61226 12.0231 8.65562 12.0285L8.82804 12.0471C8.84719 12.0495 8.86181 12.05 8.88097 12.052C8.98634 12.0637 9.0907 12.0735 9.19708 12.0823H9.19909C9.30143 12.096 9.40932 12.1024 9.48798 12.1034C9.71837 12.1166 9.94827 12.1254 10.1721 12.1254C10.3445 12.1254 10.5361 12.1205 10.7393 12.1097C10.8008 12.1073 10.8638 12.1083 10.9253 12.1048C11.433 12.0745 12.3622 11.9805 13.0882 11.7095V12.9836ZM13.0892 10.5742C12.8689 10.7563 11.8601 11.1149 10.2175 11.1218C10.0153 11.1218 9.8036 11.1174 9.5621 11.1037C9.49253 11.1037 9.42094 11.0983 9.32918 11.088C9.30246 11.0861 9.27675 11.0836 9.25053 11.0812C9.14819 11.0733 9.04735 11.0636 8.94702 11.0518L8.87443 11.044C8.76502 11.0303 8.66217 11.0151 8.56235 10.9985C8.50891 10.9907 8.45648 10.9818 8.40506 10.9725C8.27851 10.9491 8.15954 10.9246 8.05064 10.8987C7.93014 10.8683 7.80764 10.8395 7.70479 10.8032C7.57976 10.7612 7.46682 10.7201 7.38818 10.6829C7.31205 10.6427 7.27223 10.6139 7.24903 10.5948V9.32257C8.05013 9.60588 9.16482 9.74044 10.1721 9.74044C10.8618 9.74044 11.8605 9.66216 12.6813 9.43658C12.7035 9.43022 12.7312 9.42631 12.7524 9.41945C12.823 9.39841 12.884 9.37786 12.9435 9.3578C12.9495 9.35536 12.9556 9.35388 12.9616 9.35144C12.9732 9.34752 12.9894 9.34312 13.0005 9.3392C13.0322 9.32795 13.0599 9.31768 13.0892 9.3069V10.5742ZM13.0892 8.05572C13.0887 8.09927 13.0882 8.14234 13.0872 8.18588C13.0761 8.19518 13.0645 8.20447 13.0529 8.21377C13.0489 8.2167 13.0443 8.21964 13.0398 8.22208C12.9863 8.25683 12.9389 8.28373 12.8462 8.31995C12.7897 8.34735 12.7277 8.36986 12.6566 8.39433C12.6496 8.39628 12.643 8.39873 12.6365 8.40118C12.5901 8.41782 12.5361 8.43445 12.4797 8.45207C12.4429 8.46283 12.3995 8.47312 12.3597 8.48388C12.3052 8.49905 12.2548 8.51373 12.1787 8.52694C11.6231 8.65025 10.9082 8.71827 10.1671 8.71827C9.11745 8.71827 8.33046 8.58664 7.83538 8.45599C7.78697 8.4418 7.73202 8.42859 7.68867 8.41488C7.68414 8.41342 7.68061 8.41195 7.67606 8.41096C7.48397 8.34882 7.34231 8.28668 7.24905 8.23334V6.91511C8.33097 7.31342 9.90747 7.33299 10.1701 7.33299C10.4318 7.33299 12.0073 7.31342 13.0892 6.9156L13.0892 8.05572Z" fill="#171723"/>
</svg>
