<svg width="20" height="20" viewBox="0 0 20 20" fill="none" xmlns="http://www.w3.org/2000/svg">
<path fill-rule="evenodd" clip-rule="evenodd" d="M10.6322 0.373919C11.7958 1.91234 15.3188 3.5266 18.2661 4.53411C18.7395 4.69656 19.04 5.15212 18.9957 5.64193C18.9448 6.2022 18.7779 7.45681 18.2717 10.2533C17.3431 15.3823 11.6849 19.1285 10.5601 19.8273C10.3771 19.9418 10.1654 20 9.95261 20C9.81346 20 9.67381 19.975 9.54172 19.9242C9.31636 19.7955 9.12378 19.6697 8.90346 19.52C6.98262 18.2081 2.54201 14.7467 1.72931 10.2533C1.22162 7.45191 1.05475 6.19975 1.00433 5.64242C0.959961 5.15212 1.26043 4.69656 1.73384 4.53411C4.67962 3.52708 8.19965 1.91479 9.36778 0.373919L9.41416 0.310795C9.41719 0.306636 9.42009 0.302477 9.42299 0.298318C9.42589 0.294159 9.42878 0.290001 9.43181 0.285842L9.61936 0.0852164L9.71212 0.0695632C9.81446 0.0172022 9.91428 -0.00383237 10.0207 0.000566961C10.0741 -0.00285028 10.178 0.00937564 10.2959 0.0700543L10.4633 0.144923L10.5707 0.28976C10.5732 0.292905 10.5755 0.296305 10.5777 0.299596C10.5785 0.300909 10.5794 0.302204 10.5803 0.303459L10.6322 0.373919ZM14.1437 10.6643V5.88708C14.1437 5.88366 14.1444 5.8806 14.1452 5.87754C14.1459 5.87449 14.1467 5.87143 14.1467 5.868C14.1467 4.4436 10.5964 4.40249 10.1921 4.40249C9.78674 4.40249 6.23646 4.44359 6.23646 5.868C6.23646 5.8702 6.23696 5.87229 6.23747 5.87437C6.23797 5.87645 6.23847 5.87853 6.23847 5.88072V10.6555C6.23847 10.6565 6.23818 10.6575 6.23791 10.6583C6.23768 10.659 6.23746 10.6597 6.23746 10.6604V13.2587C6.23746 13.2729 6.24114 13.2858 6.24483 13.2988C6.24725 13.3073 6.24967 13.3158 6.25107 13.3247L6.25159 13.3286C6.25593 13.361 6.2601 13.392 6.27174 13.4236C6.28334 13.4564 6.30097 13.4843 6.31929 13.5133L6.32165 13.517C6.32639 13.5246 6.32995 13.5326 6.3335 13.5406C6.33864 13.5521 6.34376 13.5637 6.35241 13.5738C6.35556 13.5776 6.35995 13.581 6.36435 13.5845C6.36839 13.5876 6.37246 13.5908 6.3756 13.5943C6.38616 13.6058 6.39804 13.6156 6.41018 13.6257C6.41309 13.6281 6.41602 13.6305 6.41895 13.633C6.57979 13.7969 6.81422 13.9364 7.1036 14.0533C7.10738 14.055 7.11037 14.0569 7.11331 14.0586C7.11704 14.0609 7.1207 14.0631 7.12578 14.0651C7.14048 14.0714 7.16027 14.0777 7.18006 14.0841C7.19081 14.0875 7.20155 14.091 7.21149 14.0944C7.37837 14.1561 7.55734 14.2119 7.75043 14.2598C7.76453 14.2636 7.77731 14.2673 7.79003 14.2709C7.8087 14.2763 7.82726 14.2817 7.84975 14.2872L7.86638 14.2911L7.96369 14.3131L8.09376 14.342C8.14204 14.3531 8.19635 14.3611 8.25059 14.3691C8.27791 14.3732 8.30521 14.3772 8.33173 14.3816C8.34732 14.3844 8.36284 14.3871 8.37836 14.3898C8.4246 14.398 8.47083 14.4061 8.51877 14.4135C8.54182 14.4168 8.56361 14.4208 8.58543 14.4248C8.61134 14.4295 8.63729 14.4342 8.66547 14.4379C8.68252 14.4402 8.69942 14.4408 8.71634 14.4413C8.73194 14.4419 8.74756 14.4424 8.76329 14.4443C9.23669 14.503 9.72623 14.5348 10.1931 14.5348H10.1971C10.3645 14.5348 10.5505 14.5299 10.7477 14.5196C10.7703 14.5188 10.7936 14.5184 10.8168 14.518C10.8493 14.5175 10.8818 14.5169 10.913 14.5152C11.6723 14.4722 13.2427 14.299 13.8674 13.6609C13.884 13.6447 13.8997 13.6286 13.9148 13.6124C13.921 13.6052 13.9273 13.5981 13.9336 13.5909C13.9674 13.5524 14.001 13.514 14.0257 13.4715C14.0791 13.3859 14.1089 13.2914 14.1255 13.1931C14.1267 13.1853 14.1301 13.1784 14.1334 13.1715C14.137 13.1641 14.1406 13.1567 14.1416 13.1481C14.1422 13.141 14.1409 13.134 14.1397 13.127C14.1385 13.1205 14.1374 13.114 14.1376 13.1075C14.1378 13.1017 14.139 13.0963 14.1401 13.091C14.1414 13.0851 14.1426 13.0792 14.1426 13.0727V10.6716C14.1426 10.6701 14.1429 10.6688 14.1432 10.6676C14.1434 10.6665 14.1437 10.6655 14.1437 10.6643ZM13.0147 5.86805C12.6658 5.67183 11.6868 5.40466 10.1924 5.40466C8.6971 5.40466 7.71803 5.67183 7.36914 5.86805C7.71802 6.06377 8.69709 6.33094 10.1924 6.33094C11.6868 6.33094 12.6658 6.06377 13.0147 5.86805ZM12.9836 9.35154C12.9806 9.35276 12.9776 9.35374 12.9745 9.35472C12.9715 9.3557 12.9685 9.35668 12.9655 9.3579C12.906 9.37797 12.845 9.39852 12.7744 9.41956C12.7628 9.42329 12.7494 9.42615 12.7359 9.429C12.7247 9.43139 12.7134 9.43378 12.7033 9.43668C11.8825 9.66226 10.8833 9.74055 10.1941 9.74055C9.18678 9.74055 8.07209 9.60598 7.271 9.32267V10.5949C7.29368 10.614 7.33351 10.6428 7.41015 10.683C7.48879 10.7202 7.60173 10.7613 7.72676 10.8033C7.81538 10.8345 7.91859 10.8603 8.02253 10.8862L8.07261 10.8988C8.18151 10.9247 8.30048 10.9492 8.42703 10.9726C8.47845 10.9819 8.53089 10.9908 8.58432 10.9986C8.68364 11.0152 8.787 11.0304 8.89589 11.0441L8.969 11.0519C9.06933 11.0637 9.17015 11.0734 9.2725 11.0813C9.29872 11.0837 9.32443 11.0862 9.35115 11.0881C9.44291 11.0984 9.51449 11.1038 9.58407 11.1038C9.82557 11.1175 10.0373 11.1219 10.2395 11.1219C11.882 11.115 12.8903 10.7564 13.1112 10.5743V9.30701L13.077 9.31948L13.077 9.3195L13.0768 9.31955C13.0593 9.326 13.0417 9.33247 13.0224 9.33931L13.015 9.34179L13.0074 9.34416L13.0016 9.34591C12.9953 9.34783 12.9889 9.34974 12.9836 9.35154ZM10.1941 12.1254C10.3661 12.1254 10.5581 12.1205 10.7613 12.1097C10.7882 12.1087 10.8154 12.1083 10.8427 12.1078H10.8427H10.8428C10.8778 12.1073 10.9128 12.1068 10.9473 12.1049C11.455 12.0745 12.3842 11.9806 13.1102 11.7095V12.9837C12.9161 13.1442 12.114 13.4417 10.8032 13.5156C10.5193 13.5302 10.2224 13.5332 9.91936 13.5249C9.8765 13.5239 9.83416 13.5229 9.79231 13.5214C9.48679 13.5097 9.17674 13.4862 8.86921 13.4495C8.76838 13.4368 8.67158 13.4226 8.57932 13.4074L8.5456 13.4021C8.50466 13.3956 8.46358 13.3892 8.42404 13.3815C8.30153 13.359 8.18658 13.335 8.08071 13.31C7.94762 13.2753 7.82308 13.2415 7.70763 13.2078C7.65683 13.1916 7.61468 13.1751 7.57292 13.1588L7.53521 13.1442C7.459 13.1136 7.40526 13.0894 7.36583 13.0717C7.34709 13.0632 7.33158 13.0562 7.31842 13.0507C7.31165 13.0472 7.30387 13.0436 7.29616 13.04L7.2961 13.04L7.29609 13.04C7.28661 13.0356 7.27724 13.0313 7.27002 13.0272V11.7065C7.43336 11.7643 7.6073 11.8166 7.79434 11.8621C7.94862 11.9013 8.11549 11.935 8.29094 11.9644C8.37916 11.9801 8.46588 11.9952 8.55662 12.0085C8.57607 12.0112 8.59393 12.0145 8.6118 12.0178C8.63284 12.0217 8.6539 12.0256 8.67762 12.0285L8.85004 12.0471C8.86136 12.0485 8.8711 12.0493 8.88111 12.0501C8.88806 12.0506 8.89514 12.0512 8.90298 12.052C9.00784 12.0637 9.1127 12.0735 9.21908 12.0823H9.2211C9.32345 12.096 9.43134 12.1024 9.50998 12.1034C9.74039 12.1166 9.97028 12.1254 10.1941 12.1254ZM7.27102 6.91516V8.23339C7.36429 8.28672 7.50596 8.34886 7.69804 8.41101C7.70068 8.41166 7.7031 8.41251 7.70573 8.41343L7.71014 8.41493C7.73465 8.42259 7.76262 8.43009 7.79098 8.4377C7.81337 8.44371 7.83599 8.44978 7.85735 8.45604C8.35243 8.58669 9.13942 8.71831 10.1891 8.71831C10.9302 8.71831 11.6451 8.6503 12.2007 8.52699C12.2716 8.51468 12.3202 8.5011 12.3705 8.48703L12.3817 8.48393C12.3967 8.47987 12.4122 8.47588 12.4276 8.47191C12.4532 8.46534 12.4785 8.45882 12.5011 8.45212L12.5043 8.45115C12.5601 8.43389 12.6129 8.41756 12.6584 8.40123L12.6585 8.40121C12.665 8.39877 12.6716 8.39634 12.6781 8.39438C12.7497 8.36992 12.8117 8.3474 12.8682 8.32C12.9604 8.28379 13.0078 8.25688 13.0617 8.22213C13.0663 8.21969 13.0708 8.21675 13.0749 8.21381L13.0756 8.21319C13.087 8.2041 13.0983 8.19502 13.1091 8.18593C13.1096 8.14237 13.1102 8.09931 13.1112 8.05577V6.91565C12.0292 7.31347 10.4537 7.33304 10.1921 7.33304C9.92942 7.33304 8.35294 7.31347 7.27102 6.91516Z" fill="#171723"/>
</svg>
