<svg width="20" height="20" viewBox="0 0 20 20" fill="none" xmlns="http://www.w3.org/2000/svg">
<g clip-path="url(#clip0_10314_146455)">
<g clip-path="url(#clip1_10314_146455)">
<path d="M3.73306 5.59937H18.4458C18.8577 5.59898 19.2526 5.43524 19.544 5.14406C19.8354 4.85287 19.9993 4.45802 20 4.04609V1.55428C19.9995 1.14219 19.8357 0.747119 19.5443 0.455733C19.2529 0.164347 18.8579 0.000449542 18.4458 0H1.5542C1.14214 0.000452233 0.747084 0.164351 0.455713 0.455737C0.164343 0.747122 0.00045221 1.1422 0 1.55428V4.04609C0.000656803 4.45802 0.164645 4.85287 0.456 5.14405C0.747354 5.43524 1.14229 5.59898 1.5542 5.59937H2.71612V15.1366C2.71691 15.818 2.98795 16.4713 3.46977 16.9532C3.9516 17.435 4.60487 17.706 5.28627 17.7068H8.96867V18.4467C8.96932 18.8586 9.13331 19.2535 9.42466 19.5447C9.71602 19.8359 10.111 19.9996 10.5229 20H18.4458C18.8577 19.9996 19.2526 19.8359 19.544 19.5447C19.8353 19.2535 19.9993 18.8586 20 18.4467V15.9549C19.9995 15.5429 19.8356 15.1478 19.5443 14.8564C19.2529 14.565 18.8578 14.4011 18.4458 14.4007H10.5229C10.1108 14.4011 9.71575 14.565 9.42438 14.8564C9.13301 15.1478 8.96912 15.5429 8.96867 15.9549V16.6898H5.28627C4.87451 16.6892 4.4798 16.5254 4.18864 16.2342C3.89749 15.9431 3.73365 15.5483 3.73306 15.1365V10.5066H8.96867V11.2465C8.96932 11.6584 9.13331 12.0532 9.42466 12.3444C9.71602 12.6356 10.111 12.7994 10.5229 12.7998H18.4458C18.8577 12.7994 19.2526 12.6356 19.544 12.3444C19.8353 12.0532 19.9993 11.6584 20 11.2465V8.75461C19.9995 8.34253 19.8356 7.94746 19.5443 7.65608C19.2529 7.3647 18.8578 7.2008 18.4458 7.20035H10.5229C10.1108 7.2008 9.71576 7.3647 9.42439 7.65609C9.13302 7.94747 8.96913 8.34255 8.96868 8.75463V9.48958H3.73306V5.59937ZM1.01693 4.04609V1.55428C1.0172 1.41186 1.07389 1.27535 1.17459 1.17465C1.27529 1.07394 1.41179 1.01725 1.5542 1.01698H18.4458C18.5882 1.01725 18.7247 1.07394 18.8254 1.17464C18.9261 1.27535 18.9828 1.41186 18.9831 1.55428V4.04609C18.9828 4.18841 18.926 4.32479 18.8253 4.42533C18.7246 4.52587 18.5881 4.58235 18.4458 4.58239H1.5542C1.41189 4.58235 1.27541 4.52586 1.17469 4.42532C1.07397 4.32479 1.01724 4.18841 1.01693 4.04609ZM10.5229 15.4176H18.4458C18.5882 15.4179 18.7247 15.4746 18.8254 15.5753C18.9261 15.676 18.9828 15.8125 18.9831 15.9549V18.4467C18.9828 18.5891 18.926 18.7254 18.8253 18.826C18.7246 18.9265 18.5881 18.983 18.4458 18.983H10.5229C10.3806 18.983 10.2441 18.9265 10.1434 18.826C10.0426 18.7254 9.9859 18.5891 9.9856 18.4467V17.2033L9.98662 17.1984L9.9856 17.1934V15.9549C9.98586 15.8125 10.0426 15.676 10.1433 15.5753C10.244 15.4746 10.3805 15.4179 10.5229 15.4176V15.4176ZM10.5229 8.21731H18.4458C18.5882 8.21758 18.7247 8.27427 18.8254 8.37497C18.9261 8.47568 18.9828 8.61219 18.9831 8.75461V11.2464C18.9828 11.3887 18.926 11.5251 18.8253 11.6257C18.7246 11.7262 18.5881 11.7827 18.4458 11.7827H10.5229C10.3806 11.7827 10.2441 11.7262 10.1434 11.6257C10.0426 11.5251 9.9859 11.3887 9.9856 11.2464V10.0029L9.98662 9.99802L9.9856 9.99312V8.75461C9.98587 8.61219 10.0426 8.47569 10.1433 8.37499C10.244 8.27429 10.3805 8.2176 10.5229 8.21733V8.21731Z" fill="#171723"/>
</g>
</g>
<defs>
<clipPath id="clip0_10314_146455">
<rect width="20" height="20" fill="white"/>
</clipPath>
<clipPath id="clip1_10314_146455">
<rect width="20" height="20" fill="white"/>
</clipPath>
</defs>
</svg>
