<svg width="20" height="20" viewBox="0 0 20 20" fill="none" xmlns="http://www.w3.org/2000/svg">
<path d="M6.91835 16.0834C6.22738 16.0834 5.63773 15.8388 5.1494 15.3497C4.66092 14.8605 4.41669 14.2699 4.41669 13.578C4.41669 12.8861 4.66092 12.2967 5.1494 11.8101C5.63773 11.3236 6.22738 11.0803 6.91835 11.0803H15.0817C15.7727 11.0803 16.3623 11.3248 16.8506 11.8138C17.3391 12.303 17.5834 12.8936 17.5834 13.5855C17.5834 14.2774 17.3391 14.8667 16.8506 15.3534C16.3623 15.8401 15.7727 16.0834 15.0817 16.0834H6.91835ZM6.91835 15.0001H15.0817C15.4757 15.0001 15.8106 14.862 16.0863 14.5859C16.3621 14.3099 16.5 13.9747 16.5 13.5803C16.5 13.186 16.3621 12.8513 16.0863 12.5761C15.8106 12.301 15.4757 12.1634 15.0817 12.1634H6.91835C6.52433 12.1634 6.18946 12.3015 5.91377 12.5776C5.63794 12.8537 5.50002 13.1889 5.50002 13.5832C5.50002 13.9775 5.63794 14.3122 5.91377 14.5874C6.18946 14.8625 6.52433 15.0001 6.91835 15.0001ZM4.91835 8.91987C4.22738 8.91987 3.63773 8.67536 3.1494 8.18633C2.66092 7.69716 2.41669 7.10661 2.41669 6.41467C2.41669 5.72272 2.66092 5.13341 3.1494 4.64675C3.63773 4.16008 4.22738 3.91675 4.91835 3.91675H13.0817C13.7727 3.91675 14.3623 4.16133 14.8506 4.6505C15.3391 5.13966 15.5834 5.73022 15.5834 6.42216C15.5834 7.11411 15.3391 7.70341 14.8506 8.19008C14.3623 8.67661 13.7727 8.91987 13.0817 8.91987H4.91835ZM4.91023 7.83675H13.0817C13.4757 7.83675 13.8106 7.69869 14.0863 7.42258C14.3621 7.14647 14.5 6.81126 14.5 6.41696C14.5 6.02265 14.3621 5.68793 14.0863 5.41279C13.8106 5.13765 13.4757 5.00008 13.0817 5.00008H4.91023C4.51856 5.00008 4.18558 5.13814 3.91127 5.41425C3.6371 5.69022 3.50002 6.02543 3.50002 6.41987C3.50002 6.81418 3.6371 7.1489 3.91127 7.42404C4.18558 7.69918 4.51856 7.83675 4.91023 7.83675Z" fill="#171723"/>
</svg>
