<svg width="20" height="20" viewBox="0 0 20 20" fill="none" xmlns="http://www.w3.org/2000/svg">
<g clip-path="url(#clip0_10314_146387)">
<path fill-rule="evenodd" clip-rule="evenodd" d="M11.236 1.43735C11.236 1.72162 11.1487 1.99949 10.9851 2.23584C10.8214 2.4722 10.5889 2.65641 10.3168 2.76518C10.0448 2.87396 9.74539 2.90242 9.45657 2.84696C9.16775 2.7915 8.90245 2.65461 8.69422 2.45361C8.48599 2.2526 8.34418 1.99651 8.28673 1.71771C8.22928 1.43891 8.25876 1.14992 8.37144 0.887291C8.48413 0.624664 8.67496 0.400189 8.91981 0.242253C9.16465 0.0843168 9.45252 1.23828e-05 9.747 0C10.1418 0.000491461 10.5202 0.152084 10.7993 0.421533C11.0785 0.690983 11.2355 1.05629 11.236 1.43735ZM12.3259 6.0549V6.41708C12.3264 6.46773 12.3164 6.51795 12.2965 6.56482C12.2766 6.61169 12.2473 6.65427 12.2102 6.69008C12.1731 6.7259 12.129 6.75422 12.0804 6.77341C12.0318 6.7926 11.9798 6.80226 11.9274 6.80184H7.56594C7.51346 6.80228 7.46142 6.79262 7.41285 6.77344C7.36428 6.75426 7.32015 6.72594 7.28304 6.69013C7.24593 6.65432 7.21657 6.61173 7.19668 6.56485C7.1768 6.51797 7.16678 6.46774 7.16721 6.41708V5.94169C7.16658 5.61455 7.23286 5.29051 7.36226 4.98816C7.49165 4.6858 7.68162 4.41108 7.92125 4.17976C8.16089 3.94844 8.44548 3.76507 8.7587 3.64016C9.07192 3.51525 9.40761 3.45127 9.7465 3.45188C9.83268 3.45025 9.91887 3.45402 10.0045 3.46314C10.6545 3.54264 11.2511 3.85127 11.6796 4.32969C12.1082 4.80812 12.3383 5.42257 12.3259 6.0549ZM3.81252 14.224C3.97754 13.9891 4.06682 13.7123 4.06911 13.4285C4.06967 13.0461 3.91334 12.679 3.63429 12.4075C3.35525 12.136 2.97621 11.9823 2.58005 11.9798C2.28602 11.9798 1.99858 12.0638 1.75394 12.2213C1.50931 12.3788 1.31844 12.6026 1.20539 12.8646C1.09234 13.1266 1.06217 13.4151 1.11869 13.6936C1.17521 13.9721 1.31588 14.2283 1.52297 14.4297C1.73007 14.6312 1.99432 14.769 2.28241 14.8257C2.5705 14.8825 2.86955 14.8556 3.14184 14.7485C3.41414 14.6414 3.64751 14.4589 3.81252 14.224ZM5.15882 18.0462V18.397C5.15927 18.4477 5.14926 18.4979 5.12939 18.5448C5.10952 18.5917 5.08017 18.6343 5.04307 18.6701C5.00596 18.7059 4.96184 18.7342 4.91328 18.7534C4.86471 18.7726 4.81268 18.7823 4.76021 18.7818H0.398473C0.346013 18.7822 0.293992 18.7726 0.245444 18.7534C0.196895 18.7342 0.15279 18.7059 0.1157 18.67C0.0786112 18.6342 0.0492802 18.5917 0.0294183 18.5448C0.00955639 18.4979 -0.000439034 18.4477 1.47885e-05 18.397V17.9217C0.0020058 17.5924 0.0712496 17.2667 0.203783 16.9633C0.336317 16.6598 0.529539 16.3846 0.772392 16.1533C1.01524 15.922 1.30296 15.7393 1.61907 15.6155C1.93518 15.4916 2.27349 15.4292 2.61462 15.4317H2.63809C2.70472 15.4299 2.77139 15.4337 2.83733 15.4431C3.48909 15.5234 4.08695 15.8339 4.51563 16.3145C4.94431 16.7952 5.17343 17.4121 5.15882 18.0462ZM17.9642 14.4434C18.2438 14.1756 18.4042 13.8131 18.4114 13.433C18.4125 13.1482 18.3262 12.8695 18.1632 12.6321C18.0003 12.3948 17.7681 12.2094 17.496 12.0994C17.224 11.9894 16.9242 11.9597 16.6347 12.0142C16.3451 12.0686 16.0788 12.2047 15.8694 12.4053C15.66 12.6059 15.5169 12.8619 15.4582 13.1409C15.3996 13.42 15.4279 13.7096 15.5397 13.9731C15.6515 14.2366 15.8418 14.4621 16.0864 14.6213C16.331 14.7804 16.619 14.8659 16.914 14.8671C17.3078 14.8632 17.6846 14.7112 17.9642 14.4434ZM19.4994 18.0401V18.3902C19.4999 18.4407 19.4899 18.4908 19.47 18.5376C19.4502 18.5844 19.4209 18.6269 19.3839 18.6626C19.3468 18.6983 19.3028 18.7266 19.2544 18.7457C19.2059 18.7649 19.154 18.7745 19.1016 18.7741H14.7383C14.686 18.7745 14.6341 18.7648 14.5856 18.7457C14.5372 18.7265 14.4932 18.6983 14.4561 18.6626C14.4191 18.6268 14.3898 18.5843 14.37 18.5376C14.3502 18.4908 14.3402 18.4407 14.3406 18.3902V17.9159C14.343 17.5865 14.4127 17.2608 14.5458 16.9574C14.6789 16.6541 14.8728 16.3791 15.1162 16.1483C15.3597 15.9175 15.648 15.7354 15.9646 15.6124C16.2812 15.4894 16.6198 15.428 16.9611 15.4317H16.9844C17.047 15.4301 17.1096 15.4339 17.1716 15.443C17.8231 15.5226 18.4211 15.8318 18.8508 16.3112C19.2805 16.7905 19.5115 17.4063 19.4994 18.0401ZM6.4993 19.4088C7.53327 19.8058 8.63687 20.0065 9.74961 19.9999C10.8585 20.0058 11.9581 19.8051 12.9882 19.4088C13.055 19.3839 13.116 19.3465 13.1677 19.2986C13.2193 19.2508 13.2607 19.1935 13.2892 19.1301C13.3177 19.0667 13.3329 18.9985 13.3339 18.9293C13.3349 18.8602 13.3217 18.7916 13.295 18.7275C13.2683 18.6634 13.2286 18.605 13.1783 18.5558C13.1281 18.5066 13.0682 18.4675 13.0021 18.4408C12.9361 18.4141 12.8652 18.4004 12.7936 18.4004C12.722 18.4004 12.6511 18.4141 12.585 18.4408C10.7574 19.1261 8.73015 19.1261 6.9025 18.4408C6.83644 18.4141 6.76555 18.4004 6.69395 18.4004C6.62235 18.4004 6.55146 18.4141 6.48541 18.4408C6.41935 18.4675 6.35945 18.5066 6.30918 18.5558C6.2589 18.605 6.21926 18.6634 6.19255 18.7275C6.16584 18.7916 6.15259 18.8602 6.15359 18.9293C6.15458 18.9985 6.16978 19.0667 6.19832 19.1301C6.22686 19.1935 6.26817 19.2508 6.31983 19.2986C6.3715 19.3465 6.4325 19.3839 6.4993 19.4088ZM18.0833 11.1609C17.9482 11.1606 17.8181 11.1115 17.7187 11.0233C17.6192 10.935 17.5576 10.814 17.546 10.6841C17.4335 9.44197 17.0008 8.24679 16.2875 7.20737C15.5741 6.16795 14.6027 5.31733 13.4617 4.73296C13.399 4.70069 13.3435 4.65678 13.2984 4.60377C13.2532 4.55075 13.2194 4.48966 13.1988 4.42399C13.1782 4.35833 13.1712 4.28938 13.1782 4.2211C13.1852 4.15283 13.2062 4.08656 13.2398 4.0261C13.2734 3.96564 13.319 3.91217 13.3741 3.86877C13.4291 3.82536 13.4925 3.79287 13.5606 3.77314C13.6286 3.75342 13.7001 3.74686 13.7708 3.75384C13.8415 3.76082 13.9101 3.7812 13.9726 3.81381C15.2721 4.4799 16.3783 5.44922 17.1905 6.6335C18.0027 7.81778 18.4951 9.17938 18.6227 10.5943C18.6289 10.6626 18.6211 10.7313 18.5997 10.7966C18.5783 10.862 18.5438 10.9226 18.4981 10.975C18.4524 11.0275 18.3964 11.0707 18.3334 11.1022C18.2704 11.1338 18.2015 11.153 18.1308 11.1588C18.115 11.1599 18.0991 11.1609 18.0833 11.1609ZM1.35334 11.1588C1.37023 11.1599 1.3871 11.1609 1.40505 11.1609C1.53948 11.1607 1.669 11.1121 1.76834 11.0247C1.86768 10.9373 1.92973 10.8173 1.94237 10.6881C2.06351 9.4486 2.49877 8.25694 3.20976 7.21822C3.92074 6.1795 4.88561 5.32563 6.01924 4.73194C6.08162 4.69915 6.13671 4.65482 6.18134 4.60149C6.22598 4.54815 6.2593 4.48685 6.27939 4.42109C6.29949 4.35533 6.30596 4.28639 6.29846 4.2182C6.29095 4.15002 6.26961 4.08394 6.23564 4.02372C6.20168 3.9635 6.15576 3.91033 6.10051 3.86724C6.04526 3.82416 5.98175 3.79199 5.91363 3.7726C5.8455 3.7532 5.77408 3.74695 5.70345 3.75419C5.63282 3.76144 5.56436 3.78204 5.50197 3.81483C4.2128 4.49051 3.11559 5.46194 2.30706 6.64349C1.49853 7.82504 1.0035 9.18044 0.865608 10.5902C0.85239 10.728 0.896303 10.8652 0.987723 10.9718C1.07914 11.0784 1.21061 11.1457 1.35331 11.1588L1.35334 11.1588Z" fill="#171723"/>
</g>
<defs>
<clipPath id="clip0_10314_146387">
<rect width="20" height="20" fill="white"/>
</clipPath>
</defs>
</svg>
