<svg width="20" height="20" viewBox="0 0 20 20" fill="none" xmlns="http://www.w3.org/2000/svg">
<g clip-path="url(#clip0_10314_146385)">
<path fill-rule="evenodd" clip-rule="evenodd" d="M11.6408 7.64229H7.85118C7.55746 7.64184 7.27591 7.52496 7.06822 7.31728C6.86053 7.10959 6.74365 6.82804 6.74319 6.53433V6.10733C6.74369 5.68878 6.83144 5.27493 7.00084 4.89219C7.17025 4.50946 7.41759 4.16624 7.72707 3.88445C7.89372 3.73454 8.07683 3.60399 8.27288 3.49533C7.98972 3.20489 7.79868 2.83725 7.72376 2.43859C7.64883 2.03993 7.69337 1.62802 7.85178 1.25459C8.01018 0.881159 8.27539 0.562854 8.61409 0.339648C8.9528 0.116442 9.3499 -0.00171344 9.75554 1.87768e-05C10.1612 0.001751 10.5573 0.123294 10.894 0.349384C11.2308 0.575475 11.4933 0.896033 11.6485 1.2708C11.8037 1.64557 11.8447 2.05785 11.7664 2.45585C11.6881 2.85386 11.4939 3.21985 11.2083 3.50787C11.6777 3.78673 12.0666 4.18289 12.3366 4.65743C12.6067 5.13197 12.7487 5.66859 12.7488 6.21461V6.53433C12.7483 6.82804 12.6314 7.10959 12.4237 7.31728C12.2161 7.52496 11.9345 7.64184 11.6408 7.64229ZM10.3235 1.19849C10.1524 1.08416 9.95127 1.02314 9.74548 1.02314C9.46968 1.02363 9.20532 1.13341 9.0103 1.32843C8.81528 1.52345 8.70549 1.78781 8.705 2.06361C8.705 2.2694 8.76602 2.47057 8.88035 2.64167C8.99468 2.81278 9.15718 2.94614 9.3473 3.0249C9.53742 3.10365 9.74663 3.12426 9.94846 3.08411C10.1503 3.04397 10.3357 2.94487 10.4812 2.79936C10.6267 2.65384 10.7258 2.46845 10.766 2.26661C10.8061 2.06478 10.7855 1.85557 10.7068 1.66545C10.628 1.47532 10.4947 1.31282 10.3235 1.19849ZM7.93033 5.30342C7.81818 5.55661 7.76012 5.83042 7.75984 6.10733V6.53433C7.75964 6.54638 7.76187 6.55834 7.76639 6.56951C7.77091 6.58068 7.77763 6.59083 7.78615 6.59935C7.79467 6.60788 7.80482 6.6146 7.81599 6.61912C7.82716 6.62364 7.83913 6.62586 7.85118 6.62566H11.6408C11.6528 6.62586 11.6648 6.62364 11.676 6.61912C11.6871 6.6146 11.6973 6.60788 11.7058 6.59935C11.7143 6.59083 11.7211 6.58068 11.7256 6.56951C11.7301 6.55834 11.7323 6.54638 11.7321 6.53433V6.21466C11.7424 5.70809 11.5656 5.21551 11.2355 4.83107C10.9055 4.44663 10.4453 4.1973 9.94306 4.13073C9.87709 4.12398 9.81081 4.12066 9.7445 4.1208C9.25093 4.11899 8.77483 4.3033 8.41113 4.63696C8.20624 4.82324 8.04248 5.05023 7.93033 5.30342ZM5.02404 14.135C4.94556 14.5332 4.75117 14.8992 4.4653 15.1873C4.93459 15.4661 5.32334 15.8621 5.59337 16.3365C5.86341 16.8109 6.00546 17.3473 6.00558 17.8932V18.2139C6.00513 18.5076 5.88825 18.7892 5.68056 18.9968C5.47287 19.2045 5.19131 19.3214 4.8976 19.3219H1.108C0.81428 19.3214 0.532722 19.2045 0.325031 18.9968C0.117339 18.7892 0.000457095 18.5076 0 18.2139V17.786C0.000434965 17.3676 0.0880651 16.954 0.257299 16.5714C0.426534 16.1889 0.673656 15.8458 0.982899 15.564C1.15007 15.4139 1.33379 15.2833 1.53051 15.1748C1.24709 14.8844 1.05582 14.5166 0.980725 14.1178C0.905633 13.719 0.950067 13.3069 1.10845 12.9333C1.26683 12.5597 1.53209 12.2412 1.8709 12.0179C2.20972 11.7945 2.60699 11.6763 3.01279 11.678C3.4186 11.6797 3.81484 11.8013 4.15175 12.0276C4.48866 12.2538 4.7512 12.5745 4.9064 12.9495C5.06159 13.3244 5.10252 13.7369 5.02404 14.135ZM3.58155 12.8774C3.41042 12.763 3.20919 12.7018 3.0033 12.7017C2.72726 12.7017 2.46251 12.8113 2.26722 13.0064C2.07193 13.2015 1.96209 13.4662 1.96182 13.7422C1.96172 13.9481 2.02268 14.1494 2.13698 14.3206C2.25128 14.4919 2.4138 14.6254 2.60398 14.7043C2.79415 14.7831 3.00345 14.8038 3.2054 14.7638C3.40735 14.7237 3.59288 14.6247 3.73853 14.4791C3.88419 14.3336 3.98342 14.1482 4.02368 13.9463C4.06395 13.7444 4.04343 13.535 3.96473 13.3448C3.88603 13.1545 3.75269 12.9919 3.58155 12.8774ZM4.9824 18.2491C4.98692 18.2379 4.98914 18.2259 4.98894 18.2139V17.8932C4.99937 17.3868 4.82275 16.8944 4.49285 16.5101C4.16296 16.1258 3.70296 15.8766 3.20087 15.8103C3.13456 15.8035 3.06795 15.8002 3.00131 15.8003C2.50747 15.7987 2.03111 15.983 1.66695 16.3166C1.46247 16.5029 1.29904 16.7298 1.18707 16.9828C1.07511 17.2358 1.01707 17.5093 1.01665 17.786V18.2139C1.01662 18.2259 1.01896 18.2378 1.02354 18.2489C1.02812 18.26 1.03485 18.2701 1.04334 18.2785C1.05183 18.287 1.06191 18.2938 1.07301 18.2983C1.0841 18.3029 1.09599 18.3053 1.108 18.3052H4.89761C4.90966 18.3054 4.92162 18.3032 4.93279 18.2987C4.94397 18.2942 4.95411 18.2874 4.96264 18.2789C4.97116 18.2704 4.97788 18.2602 4.9824 18.2491ZM17.9509 15.1871C18.2365 14.8991 18.4307 14.5331 18.509 14.1351C18.5873 13.7372 18.5463 13.3249 18.3911 12.9502C18.2359 12.5754 17.9734 12.2549 17.6366 12.0289C17.2998 11.8028 16.9037 11.6813 16.4981 11.6797C16.0925 11.678 15.6955 11.7962 15.3568 12.0195C15.0182 12.2427 14.7531 12.5611 14.5948 12.9345C14.4365 13.308 14.392 13.7199 14.4671 14.1185C14.5421 14.5171 14.7333 14.8846 15.0165 15.175C14.8199 15.2835 14.6364 15.4141 14.4693 15.5641C14.16 15.8458 13.9129 16.1889 13.7437 16.5715C13.5744 16.9541 13.4868 17.3677 13.4864 17.786V18.2139C13.4868 18.5077 13.6037 18.7892 13.8114 18.9969C14.0191 19.2046 14.3006 19.3215 14.5944 19.3219H18.384C18.6777 19.3215 18.9592 19.2046 19.1669 18.9969C19.3746 18.7892 19.4915 18.5077 19.492 18.2139V17.8933C19.4918 17.3473 19.3497 16.8107 19.0795 16.3362C18.8093 15.8618 18.4204 15.4658 17.9509 15.1871ZM16.4887 12.7018C16.6946 12.7017 16.8959 12.7627 17.0672 12.877C17.2385 12.9913 17.372 13.1539 17.4508 13.3442C17.5297 13.5344 17.5503 13.7437 17.5102 13.9457C17.47 14.1477 17.3709 14.3332 17.2253 14.4788C17.0797 14.6245 16.8941 14.7236 16.6921 14.7638C16.4902 14.8039 16.2808 14.7833 16.0906 14.7044C15.9004 14.6256 15.7378 14.4921 15.6234 14.3208C15.5091 14.1495 15.4481 13.9482 15.4482 13.7423C15.4485 13.4664 15.5582 13.2019 15.7532 13.0068C15.9483 12.8117 16.2128 12.702 16.4887 12.7017V12.7018ZM18.4753 18.2139C18.4753 18.2259 18.473 18.2378 18.4684 18.2489C18.4639 18.26 18.4571 18.2701 18.4486 18.2786C18.4401 18.2871 18.4301 18.2938 18.419 18.2984C18.4079 18.303 18.396 18.3053 18.384 18.3053H14.5944C14.5823 18.3055 14.5704 18.3032 14.5592 18.2987C14.548 18.2942 14.5379 18.2875 14.5293 18.279C14.5208 18.2704 14.5141 18.2603 14.5096 18.2491C14.5051 18.238 14.5028 18.226 14.503 18.2139V17.786C14.5034 17.5094 14.5613 17.2358 14.6733 16.9828C14.7853 16.7298 14.9488 16.5029 15.1533 16.3167C15.517 15.983 15.9931 15.7986 16.4867 15.8004C16.5533 15.8002 16.6199 15.8035 16.6862 15.8103C17.1885 15.8767 17.6486 16.1258 17.9786 16.5101C18.3087 16.8943 18.4855 17.3868 18.4753 17.8933V18.2139ZM7.06998 18.481C8.78931 19.1481 10.696 19.1481 12.4153 18.481H12.4154C12.5401 18.4327 12.6788 18.4355 12.8014 18.4887C12.924 18.542 13.0207 18.6414 13.0705 18.7654C13.1204 18.8894 13.1194 19.0281 13.0678 19.1514C13.0161 19.2747 12.918 19.3727 12.7947 19.4241C10.8325 20.1919 8.65297 20.1919 6.69077 19.4241C6.56741 19.3727 6.46929 19.2747 6.41765 19.1514C6.36601 19.0281 6.36502 18.8894 6.41488 18.7654C6.46475 18.6414 6.56145 18.542 6.68406 18.4887C6.80668 18.4355 6.94532 18.4327 7.06998 18.481ZM17.0808 10.9246C17.092 11.051 17.15 11.1687 17.2435 11.2545C17.337 11.3403 17.4593 11.388 17.5862 11.3882C17.5996 11.3882 17.613 11.3874 17.6271 11.3865L17.6272 11.3865L17.6318 11.3862C17.7661 11.3743 17.8902 11.3096 17.9767 11.2063C18.0633 11.1029 18.1053 10.9695 18.0935 10.8352C17.973 9.45665 17.5097 8.1301 16.7457 6.97631C15.9817 5.82251 14.9413 4.87809 13.7191 4.22901C13.6004 4.16573 13.4614 4.15211 13.3327 4.19113C13.204 4.23016 13.0959 4.31864 13.0323 4.43718C12.9687 4.55572 12.9547 4.69464 12.9934 4.82349C13.0321 4.95234 13.1202 5.0606 13.2386 5.12453C14.3118 5.69435 15.2255 6.52346 15.8965 7.53644C16.5676 8.54943 16.9747 9.71412 17.0808 10.9246ZM6.13973 4.18922C6.26905 4.22737 6.378 4.3152 6.44271 4.43348C6.50693 4.55202 6.52158 4.69118 6.48344 4.8205C6.44531 4.94982 6.35749 5.05876 6.23921 5.12347C5.17304 5.70229 4.26558 6.53442 3.59677 7.54656C2.92795 8.5587 2.51831 9.71979 2.40394 10.9275C2.39205 11.0534 2.3337 11.1703 2.24026 11.2555C2.14683 11.3407 2.02502 11.388 1.89859 11.3882C1.88171 11.3882 1.86583 11.3872 1.84994 11.3862C1.71573 11.3734 1.59209 11.3079 1.5061 11.204C1.42012 11.1002 1.37883 10.9665 1.39126 10.8322C1.52132 9.45853 1.98713 8.13788 2.74768 6.98656C3.50824 5.83525 4.5402 4.88859 5.75269 4.22995C5.87124 4.16572 6.01041 4.15107 6.13973 4.18922Z" fill="#171723"/>
</g>
<defs>
<clipPath id="clip0_10314_146385">
<rect width="20" height="20" fill="white"/>
</clipPath>
</defs>
</svg>
