<svg width="20" height="20" viewBox="0 0 20 20" fill="none" xmlns="http://www.w3.org/2000/svg">
<path d="M19.412 5.17249H0.587965C0.432027 5.17249 0.282476 5.11981 0.172211 5.02604C0.0619463 4.93227 0 4.80509 0 4.67249C0 4.53988 0.0619463 4.4127 0.172211 4.31893C0.282476 4.22516 0.432027 4.17249 0.587965 4.17249H19.412C19.568 4.17249 19.7175 4.22516 19.8278 4.31893C19.9381 4.4127 20 4.53988 20 4.67249C20 4.80509 19.9381 4.93227 19.8278 5.02604C19.7175 5.11981 19.568 5.17249 19.412 5.17249Z" fill="#171723"/>
<path d="M19.4006 15.8278H0.587965C0.432027 15.8278 0.282476 15.7751 0.172211 15.6813C0.0619463 15.5875 0 15.4604 0 15.3278C0 15.1952 0.0619463 15.068 0.172211 14.9742C0.282476 14.8804 0.432027 14.8278 0.587965 14.8278H19.4006C19.5565 14.8278 19.706 14.8804 19.8163 14.9742C19.9266 15.068 19.9885 15.1952 19.9885 15.3278C19.9885 15.4604 19.9266 15.5875 19.8163 15.6813C19.706 15.7751 19.5565 15.8278 19.4006 15.8278Z" fill="#171723"/>
<path d="M19.4063 10.5074H0.587965C0.432027 10.5074 0.282476 10.4548 0.172211 10.361C0.0619463 10.2672 0 10.1401 0 10.0074C0 9.87484 0.0619463 9.74766 0.172211 9.65389C0.282476 9.56012 0.432027 9.50745 0.587965 9.50745H19.4063C19.5622 9.50745 19.7118 9.56012 19.822 9.65389C19.9323 9.74766 19.9942 9.87484 19.9942 10.0074C19.9942 10.1401 19.9323 10.2672 19.822 10.361C19.7118 10.4548 19.5622 10.5074 19.4063 10.5074Z" fill="#171723"/>
</svg>
