<svg width="20" height="20" viewBox="0 0 20 20" fill="none" xmlns="http://www.w3.org/2000/svg">
<path d="M10.0325 14.6793C10.2565 14.6793 10.447 14.6007 10.6041 14.4435C10.7612 14.2861 10.8398 14.0954 10.8398 13.8712C10.8398 13.6472 10.7611 13.4566 10.6037 13.2995C10.4463 13.1426 10.2557 13.0641 10.0316 13.0641C9.8076 13.0641 9.61704 13.1428 9.45996 13.3002C9.30288 13.4575 9.22433 13.6482 9.22433 13.8723C9.22433 14.0963 9.30302 14.2868 9.46038 14.4439C9.61774 14.6009 9.80843 14.6793 10.0325 14.6793ZM9.44225 11.7162H10.5945C10.6052 11.2505 10.6584 10.9193 10.7539 10.7227C10.8496 10.5261 11.039 10.2879 11.322 10.0081C11.8136 9.53045 12.1463 9.13295 12.3204 8.81559C12.4945 8.49836 12.5816 8.15621 12.5816 7.78913C12.5816 7.08565 12.3482 6.501 11.8814 6.03517C11.4145 5.56947 10.8151 5.33663 10.0833 5.33663C9.47107 5.33663 8.92329 5.50142 8.43996 5.831C7.95649 6.16058 7.61058 6.60475 7.40225 7.1635L8.45183 7.61371C8.60892 7.19815 8.8242 6.89739 9.09767 6.71142C9.37114 6.52558 9.68045 6.43267 10.0256 6.43267C10.4625 6.43267 10.8127 6.55711 11.076 6.806C11.3395 7.05503 11.4712 7.37607 11.4712 7.76913C11.4712 8.09399 11.3662 8.37739 11.1562 8.61933C10.9463 8.86128 10.7095 9.10565 10.4456 9.35246C10.0235 9.74885 9.75079 10.0975 9.62746 10.3983C9.50399 10.699 9.44225 11.1383 9.44225 11.7162ZM10.0014 17.5833C8.96197 17.5833 7.98135 17.3859 7.05954 16.9912C6.13774 16.5965 5.33093 16.0534 4.63913 15.3618C3.94732 14.6703 3.40392 13.8638 3.00892 12.9425C2.61406 12.0211 2.41663 11.0407 2.41663 10.0014C2.41663 8.94808 2.61399 7.96399 3.00871 7.04913C3.40343 6.13426 3.94656 5.33093 4.63808 4.63913C5.32961 3.94732 6.13607 3.40392 7.05746 3.00892C7.97885 2.61406 8.9592 2.41663 9.9985 2.41663C11.0518 2.41663 12.0359 2.61399 12.9508 3.00871C13.8657 3.40343 14.669 3.94656 15.3608 4.63808C16.0526 5.32961 16.596 6.1326 16.991 7.04704C17.3859 7.96149 17.5833 8.94531 17.5833 9.9985C17.5833 11.0379 17.3859 12.0186 16.9912 12.9404C16.5965 13.8622 16.0534 14.669 15.3618 15.3608C14.6703 16.0526 13.8673 16.596 12.9529 16.991C12.0384 17.3859 11.0546 17.5833 10.0014 17.5833ZM9.99996 16.5C11.8055 16.5 13.3402 15.868 14.6041 14.6041C15.868 13.3402 16.5 11.8055 16.5 9.99996C16.5 8.1944 15.868 6.65968 14.6041 5.39579C13.3402 4.1319 11.8055 3.49996 9.99996 3.49996C8.1944 3.49996 6.65968 4.1319 5.39579 5.39579C4.1319 6.65968 3.49996 8.1944 3.49996 9.99996C3.49996 11.8055 4.1319 13.3402 5.39579 14.6041C6.65968 15.868 8.1944 16.5 9.99996 16.5Z" fill="#171723"/>
</svg>
