<svg width="20" height="20" viewBox="0 0 20 20" fill="none" xmlns="http://www.w3.org/2000/svg">
<path d="M9.99974 12.7089C10.5684 12.7089 11.0964 12.5344 11.534 12.2377L7.74484 8.47747C7.44584 8.91171 7.27002 9.43565 7.27002 10C7.27002 11.4935 8.49482 12.7089 9.99974 12.7089Z" fill="#171723"/>
<path d="M12.7298 9.99994C12.7298 8.50649 11.505 7.29103 10.0001 7.29103C9.43039 7.29103 8.90193 7.466 8.46387 7.76321L12.2535 11.5244C12.5535 11.0897 12.7298 10.5653 12.7298 9.99994Z" fill="#171723"/>
<path d="M19.5884 8.79638C18.1153 6.89383 14.9117 3.70189 9.99962 3.70189C8.24686 3.70189 6.71512 4.11246 5.39844 4.72167L7.74472 7.05007C8.374 6.57493 9.14981 6.28166 9.99962 6.28166C12.0658 6.28166 13.7465 7.94959 13.7465 10C13.7465 10.8438 13.451 11.6137 12.9722 12.2382L15.545 14.7914C17.4214 13.7075 18.7718 12.2584 19.5884 11.2036C20.1367 10.4949 20.1367 9.50516 19.5884 8.79638Z" fill="#171723"/>
<path d="M13.8129 14.4992L12.2534 12.9515C11.6246 13.4257 10.8493 13.7184 10 13.7184C7.93384 13.7184 6.2531 12.0505 6.2531 10.0001C6.2531 9.15725 6.54763 8.38835 7.02593 7.76386L7.02295 7.7609L5.21357 5.96531L4.46508 5.22253L4.45267 5.2102C2.57723 6.29357 1.22727 7.74217 0.411243 8.79645C-0.137081 9.50523 -0.137081 10.4949 0.411243 11.2037C1.88437 13.1063 5.08792 16.2982 10 16.2982C11.7523 16.2982 13.2825 15.8881 14.5992 15.2794L14.5833 15.2637L13.8129 14.4992Z" fill="#171723"/>
<path d="M16.184 16.8521C16.2833 16.9506 16.4135 16.9999 16.5436 16.9999C16.6737 16.9999 16.8038 16.9506 16.9032 16.8521C17.1019 16.6549 17.1019 16.3355 16.9032 16.1384L15.5453 14.7913C15.2443 14.9653 14.9274 15.127 14.5991 15.2793L16.184 16.8521Z" fill="#171723"/>
<path d="M3.81305 3.14786C3.61439 2.95071 3.29254 2.95071 3.09387 3.14786C2.89521 3.34502 2.89521 3.66441 3.09387 3.86157L4.45277 5.21011C4.75376 5.03563 5.07063 4.87396 5.39894 4.72165L3.81305 3.14786Z" fill="#171723"/>
<path d="M7.02588 7.76378L7.74208 8.47452L7.74506 8.47748C7.93777 8.19703 8.18164 7.95502 8.46374 7.76329L8.06938 7.37193C8.06838 7.37094 8.0679 7.36996 8.0674 7.36897C8.0664 7.36798 8.06492 7.36798 8.06442 7.367L7.74506 7.05008C7.47338 7.25512 7.232 7.49417 7.02588 7.76378Z" fill="#171723"/>
<path d="M12.6552 11.9223C12.6542 11.9213 12.6527 11.9213 12.6517 11.9203L12.2529 11.5245C12.0602 11.8045 11.8158 12.0465 11.5337 12.2377L11.5347 12.2387L12.2529 12.9514C12.5246 12.7469 12.7654 12.5078 12.9721 12.2382L12.6567 11.9252L12.6552 11.9223Z" fill="#171723"/>
<path d="M12.2534 11.5245L8.4638 7.76323C8.18169 7.95497 7.93782 8.19698 7.74512 8.47743L11.5342 12.2377C11.8163 12.0464 12.0607 11.8044 12.2534 11.5245Z" fill="#171723"/>
<path d="M5.21354 5.9652L7.02292 7.76079L7.0259 7.76375C7.23202 7.49414 7.4734 7.25509 7.74508 7.05005L5.3988 4.72165C5.07051 4.87395 4.75362 5.03562 4.45264 5.2101L4.46506 5.22243L5.21354 5.9652Z" fill="#171723"/>
<path d="M12.2534 12.9515L13.813 14.4992L14.5833 15.2636L14.5992 15.2794C14.9275 15.1271 15.2444 14.9654 15.5454 14.7914L12.9726 12.2383C12.766 12.5079 12.5251 12.747 12.2534 12.9515Z" fill="#171723"/>
</svg>
