<svg width="20" height="20" viewBox="0 0 20 20" fill="none" xmlns="http://www.w3.org/2000/svg">
<path d="M15 8.35614H12.7777V11.6438H15V8.35614Z" fill="black"/>
<path d="M17.7778 0H2.22224C0.994427 0 0 0.980855 0 2.19179V17.8082C0 19.0191 0.994427 20 2.22224 20H17.7778C19.0056 20 20 19.0191 20 17.8082V2.19179C20 0.980855 19.0056 0 17.7778 0ZM8.88891 13.2877H7.22224V11.0959H5V13.2877H3.33333V6.71233H5V9.45204H7.22224V6.71233H8.88891V13.2877ZM16.6667 12.1918C16.6667 12.7945 16.1722 13.2877 15.5556 13.2877H14.7222V14.9315H13.0556V13.2877H12.2222C11.6056 13.2877 11.1111 12.7945 11.1111 12.1918V7.80826C11.1111 7.20554 11.6056 6.71239 12.2222 6.71239H15.5556C16.1722 6.71239 16.6667 7.20554 16.6667 7.80826V12.1918Z" fill="black"/>
</svg>
