<svg width="20" height="20" viewBox="0 0 20 20" fill="none" xmlns="http://www.w3.org/2000/svg">
<g clip-path="url(#clip0_5313_35057)">
<path d="M19.3326 9.41072C19.1745 6.93898 18.1063 4.61245 16.333 2.87735C14.5597 1.14225 12.206 0.120749 9.72349 0.0087848C7.13148 -0.0999413 4.59927 0.804037 2.666 2.52825L1.8726 1.73691C1.84171 1.70608 1.80322 1.6839 1.761 1.67261C1.71878 1.66131 1.67432 1.66129 1.63209 1.67255C1.58986 1.68381 1.55136 1.70596 1.52044 1.73676C1.48952 1.76756 1.46729 1.80594 1.45597 1.84802L0.607219 5.00184C0.597725 5.03717 0.597724 5.07437 0.607217 5.1097C0.61671 5.14503 0.635363 5.17725 0.661303 5.20312C0.687242 5.229 0.719556 5.24761 0.754998 5.2571C0.79044 5.26659 0.827763 5.26662 0.86322 5.25719L4.02809 4.41338C4.07032 4.40211 4.10883 4.37997 4.13976 4.34917C4.17068 4.31838 4.19293 4.28001 4.20426 4.23792C4.21558 4.19584 4.2156 4.15153 4.2043 4.10944C4.193 4.06735 4.17078 4.02897 4.13988 3.99815L3.3872 3.24756C4.42406 2.33765 5.65743 1.67823 6.99151 1.32055C8.32559 0.96286 9.72445 0.916531 11.0794 1.18516C12.8747 1.52442 14.5217 2.40653 15.7962 3.71154C17.0708 5.01656 17.9112 6.68114 18.2031 8.47896C18.4815 10.1518 18.2832 11.8689 17.6307 13.435C16.9783 15.001 15.8978 16.3531 14.5124 17.3373C13.127 18.3216 11.4922 18.8985 9.79398 19.0024C8.0958 19.1063 6.40246 18.7331 4.90662 17.9251C4.15962 17.5745 3.50471 17.0554 2.99367 16.409C2.95158 16.3533 2.89842 16.3067 2.8375 16.2723C2.77658 16.2379 2.70921 16.2164 2.63958 16.209C2.56994 16.2017 2.49953 16.2087 2.43274 16.2297C2.36595 16.2506 2.30421 16.2851 2.25135 16.3308C2.19849 16.3766 2.15565 16.4327 2.1255 16.4957C2.09535 16.5587 2.07853 16.6272 2.07609 16.697C2.07365 16.7667 2.08565 16.8362 2.11133 16.9011C2.13701 16.9661 2.17583 17.025 2.22536 17.0744C3.66459 18.5075 5.50694 19.4706 7.50805 19.8362C9.50916 20.2017 11.5745 19.9523 13.4301 19.121C15.2857 18.2897 16.8439 16.9159 17.8981 15.1817C18.9523 13.4475 19.4525 11.4348 19.3326 9.41072Z" fill="#171723"/>
<path d="M8.6735 5.59021C8.61878 5.59018 8.56458 5.60094 8.51401 5.62186C8.46345 5.64279 8.4175 5.67348 8.37881 5.71218C8.34011 5.75088 8.30942 5.79682 8.28849 5.84739C8.26756 5.89796 8.25681 5.95215 8.25684 6.00688V10.3062C8.25683 10.3609 8.2676 10.4151 8.28855 10.4656C8.30949 10.5162 8.3402 10.5621 8.3789 10.6008L11.7122 13.9341C11.7508 13.9735 11.7967 14.0048 11.8474 14.0262C11.8982 14.0477 11.9526 14.0589 12.0077 14.0591C12.0628 14.0594 12.1173 14.0488 12.1683 14.0278C12.2192 14.0069 12.2655 13.9761 12.3044 13.9371C12.3433 13.8982 12.3742 13.8519 12.3951 13.801C12.4161 13.7501 12.4267 13.6955 12.4264 13.6404C12.4261 13.5854 12.4149 13.5309 12.3935 13.4802C12.372 13.4295 12.3407 13.3835 12.3014 13.345L9.09014 10.1337V6.00688C9.09017 5.95215 9.07941 5.89796 9.05848 5.8474C9.03756 5.79683 9.00687 5.75089 8.96818 5.71219C8.92948 5.6735 8.88354 5.6428 8.83298 5.62187C8.78242 5.60094 8.72823 5.59018 8.6735 5.59021Z" fill="#171723"/>
</g>
<defs>
<clipPath id="clip0_5313_35057">
<rect width="20" height="20" fill="white"/>
</clipPath>
</defs>
</svg>
