<svg width="20" height="20" viewBox="0 0 20 20" fill="none" xmlns="http://www.w3.org/2000/svg">
<path fill-rule="evenodd" clip-rule="evenodd" d="M3.84617 3.33333C3.84617 1.91722 4.17679 0.769231 4.58463 0.769231H15.4154C15.8232 0.769231 16.1539 1.91722 16.1539 3.33333C16.1539 4.74945 15.8232 5.89744 15.4154 5.89744H4.58463C4.17679 5.89744 3.84617 4.74945 3.84617 3.33333Z" fill="black"/>
<path fill-rule="evenodd" clip-rule="evenodd" d="M10 10.7692C8.57192 10.7692 7.20233 11.3365 6.19251 12.3463C5.1827 13.3562 4.6154 14.7258 4.6154 16.1538V18.2051C4.6154 18.2731 4.64241 18.3384 4.6905 18.3864C4.73858 18.4345 4.8038 18.4615 4.87181 18.4615H15.1282C15.1962 18.4615 15.2614 18.4345 15.3095 18.3864C15.3576 18.3384 15.3846 18.2731 15.3846 18.2051V16.1538C15.3846 14.7258 14.8173 13.3562 13.8075 12.3463C12.7977 11.3365 11.4281 10.7692 10 10.7692ZM5.10466 11.2585C6.40299 9.96016 8.1639 9.23077 10 9.23077C11.8361 9.23077 13.597 9.96016 14.8954 11.2585C16.1937 12.5568 16.9231 14.3177 16.9231 16.1538V18.2051C16.9231 18.6812 16.734 19.1377 16.3974 19.4743C16.0608 19.8109 15.6042 20 15.1282 20H4.87181C4.39578 20 3.93925 19.8109 3.60264 19.4743C3.26604 19.1377 3.07693 18.6812 3.07693 18.2051V16.1538C3.07693 14.3177 3.80633 12.5568 5.10466 11.2585Z" fill="black"/>
<path fill-rule="evenodd" clip-rule="evenodd" d="M3.60264 0.525706C3.93924 0.189102 4.39578 0 4.87181 0H15.1282C15.6042 0 16.0608 0.189102 16.3974 0.525706C16.734 0.862311 16.9231 1.31884 16.9231 1.79487V3.84615C16.9231 5.68227 16.1937 7.44318 14.8954 8.74151C13.597 10.0398 11.8361 10.7692 10 10.7692C8.1639 10.7692 6.40299 10.0398 5.10466 8.74151C3.80633 7.44318 3.07693 5.68227 3.07693 3.84615V1.79487C3.07693 1.31884 3.26604 0.862309 3.60264 0.525706ZM4.87181 1.53846C4.8038 1.53846 4.73858 1.56548 4.6905 1.61356C4.64241 1.66165 4.6154 1.72687 4.6154 1.79487V3.84615C4.6154 5.27424 5.1827 6.64384 6.19251 7.65365C7.20233 8.66346 8.57192 9.23077 10 9.23077C11.4281 9.23077 12.7977 8.66346 13.8075 7.65365C14.8173 6.64384 15.3846 5.27424 15.3846 3.84615V1.79487C15.3846 1.72687 15.3576 1.66165 15.3095 1.61356C15.2614 1.56548 15.1962 1.53846 15.1282 1.53846H4.87181Z" fill="black"/>
</svg>
