<svg width="20" height="20" viewBox="0 0 20 20" fill="none" xmlns="http://www.w3.org/2000/svg">
<path fill-rule="evenodd" clip-rule="evenodd" d="M16.6666 11.875C17.0118 11.875 17.2916 12.1548 17.2916 12.5V16.875H18.3333C18.6785 16.875 18.9583 17.1548 18.9583 17.5C18.9583 17.8452 18.6785 18.125 18.3333 18.125H16.6666C16.3214 18.125 16.0416 17.8452 16.0416 17.5V12.5C16.0416 12.1548 16.3214 11.875 16.6666 11.875Z" fill="#171723"/>
<path fill-rule="evenodd" clip-rule="evenodd" d="M10.6522 11.9018C10.9158 11.822 11.2005 11.9242 11.3533 12.1533L12.5 13.8733L13.6466 12.1533C13.7994 11.9242 14.0841 11.822 14.3477 11.9018C14.6113 11.9816 14.7916 12.2246 14.7916 12.5V17.5C14.7916 17.8452 14.5118 18.125 14.1666 18.125C13.8214 18.125 13.5416 17.8452 13.5416 17.5V14.5642L13.02 15.3467C12.9041 15.5206 12.7089 15.625 12.5 15.625C12.291 15.625 12.0958 15.5206 11.9799 15.3467L11.4583 14.5642V17.5C11.4583 17.8452 11.1785 18.125 10.8333 18.125C10.4881 18.125 10.2083 17.8452 10.2083 17.5V12.5C10.2083 12.2246 10.3886 11.9816 10.6522 11.9018Z" fill="#171723"/>
<path fill-rule="evenodd" clip-rule="evenodd" d="M16.4583 6.66667C16.4583 6.50405 16.3949 6.34797 16.2819 6.23144C16.3911 6.34398 16.4583 6.49747 16.4583 6.66667Z" fill="#171723"/>
<path fill-rule="evenodd" clip-rule="evenodd" d="M11.4688 6.86453C11.7423 7.13802 12.1132 7.29167 12.5 7.29167H15.2083V10C15.2083 10.3452 15.4881 10.625 15.8333 10.625C16.1785 10.625 16.4583 10.3452 16.4583 10V6.66667C16.4583 6.50405 16.3949 6.34797 16.2819 6.23144L16.2752 6.22472L16.2745 6.22401L12.1086 2.05806C11.9914 1.94085 11.8324 1.875 11.6666 1.875H5.83329C5.2255 1.875 4.64261 2.11644 4.21284 2.54621C3.78307 2.97598 3.54163 3.55888 3.54163 4.16667V10C3.54163 10.3452 3.82145 10.625 4.16663 10.625C4.5118 10.625 4.79163 10.3452 4.79163 10V4.16667C4.79163 3.8904 4.90137 3.62545 5.09672 3.4301C5.29207 3.23475 5.55703 3.125 5.83329 3.125H11.0416V5.83333C11.0416 6.22011 11.1953 6.59104 11.4688 6.86453ZM12.2916 5.83333C12.2916 5.88859 12.3136 5.94158 12.3526 5.98065C12.3917 6.01972 12.4447 6.04167 12.5 6.04167H14.3244L12.2916 4.00888V5.83333Z" fill="#171723"/>
<path d="M6.24996 11.875C5.90478 11.875 5.62496 12.1548 5.62496 12.5C5.62496 12.8452 5.90478 13.125 6.24996 13.125H6.87496V17.5C6.87496 17.8452 7.15478 18.125 7.49996 18.125C7.84514 18.125 8.12496 17.8452 8.12496 17.5V13.125H8.74996C9.09514 13.125 9.37496 12.8452 9.37496 12.5C9.37496 12.1548 9.09514 11.875 8.74996 11.875H7.49996H6.24996Z" fill="#171723"/>
<path d="M2.29163 12.5C2.29163 12.1548 2.0118 11.875 1.66663 11.875C1.32145 11.875 1.04163 12.1548 1.04163 12.5V15V17.5C1.04163 17.8452 1.32145 18.125 1.66663 18.125C2.0118 18.125 2.29163 17.8452 2.29163 17.5V15.625H3.54163V17.5C3.54163 17.8452 3.82145 18.125 4.16663 18.125C4.5118 18.125 4.79163 17.8452 4.79163 17.5V15V12.5C4.79163 12.1548 4.5118 11.875 4.16663 11.875C3.82145 11.875 3.54163 12.1548 3.54163 12.5V14.375H2.29163V12.5Z" fill="#171723"/>
</svg>
