<svg width="20" height="20" viewBox="0 0 20 20" fill="none" xmlns="http://www.w3.org/2000/svg">
<path fill-rule="evenodd" clip-rule="evenodd" d="M11.6665 1.875C12.0117 1.875 12.2915 2.15482 12.2915 2.5V5.83333C12.2915 5.88859 12.3135 5.94158 12.3525 5.98065C12.3916 6.01972 12.4446 6.04167 12.4998 6.04167H15.8332C16.1783 6.04167 16.4582 6.32149 16.4582 6.66667C16.4582 7.01184 16.1783 7.29167 15.8332 7.29167H12.4998C12.1131 7.29167 11.7421 7.13802 11.4686 6.86453C11.1951 6.59104 11.0415 6.22011 11.0415 5.83333V2.5C11.0415 2.15482 11.3213 1.875 11.6665 1.875Z" fill="#171723"/>
<path fill-rule="evenodd" clip-rule="evenodd" d="M5.83317 3.125C5.5569 3.125 5.29195 3.23475 5.0966 3.4301C4.90125 3.62545 4.7915 3.8904 4.7915 4.16667V10C4.7915 10.3452 4.51168 10.625 4.1665 10.625C3.82133 10.625 3.5415 10.3452 3.5415 10V4.16667C3.5415 3.55888 3.78295 2.97598 4.21272 2.54621C4.64249 2.11644 5.22538 1.875 5.83317 1.875H11.6665C11.8323 1.875 11.9912 1.94085 12.1084 2.05806L16.2751 6.22472C16.3923 6.34193 16.4582 6.50091 16.4582 6.66667V10C16.4582 10.3452 16.1783 10.625 15.8332 10.625C15.488 10.625 15.2082 10.3452 15.2082 10V6.92555L11.4076 3.125H5.83317Z" fill="#171723"/>
<path fill-rule="evenodd" clip-rule="evenodd" d="M1.6665 11.875C2.01168 11.875 2.2915 12.1548 2.2915 12.5V17.5C2.2915 17.8452 2.01168 18.125 1.6665 18.125C1.32133 18.125 1.0415 17.8452 1.0415 17.5V12.5C1.0415 12.1548 1.32133 11.875 1.6665 11.875Z" fill="#171723"/>
<path fill-rule="evenodd" clip-rule="evenodd" d="M4.1665 11.875C4.51168 11.875 4.7915 12.1548 4.7915 12.5V17.5C4.7915 17.8452 4.51168 18.125 4.1665 18.125C3.82133 18.125 3.5415 17.8452 3.5415 17.5V12.5C3.5415 12.1548 3.82133 11.875 4.1665 11.875Z" fill="#171723"/>
<path fill-rule="evenodd" clip-rule="evenodd" d="M1.0415 15C1.0415 14.6548 1.32133 14.375 1.6665 14.375H4.1665C4.51168 14.375 4.7915 14.6548 4.7915 15C4.7915 15.3452 4.51168 15.625 4.1665 15.625H1.6665C1.32133 15.625 1.0415 15.3452 1.0415 15Z" fill="#171723"/>
<path fill-rule="evenodd" clip-rule="evenodd" d="M16.6665 11.875C17.0117 11.875 17.2915 12.1548 17.2915 12.5V16.875H18.3332C18.6783 16.875 18.9582 17.1548 18.9582 17.5C18.9582 17.8452 18.6783 18.125 18.3332 18.125H16.6665C16.3213 18.125 16.0415 17.8452 16.0415 17.5V12.5C16.0415 12.1548 16.3213 11.875 16.6665 11.875Z" fill="#171723"/>
<path fill-rule="evenodd" clip-rule="evenodd" d="M10.6521 11.9018C10.9157 11.822 11.2004 11.9242 11.3532 12.1533L12.4998 13.8733L13.6465 12.1533C13.7992 11.9242 14.084 11.822 14.3476 11.9018C14.6112 11.9816 14.7915 12.2246 14.7915 12.5V17.5C14.7915 17.8452 14.5117 18.125 14.1665 18.125C13.8213 18.125 13.5415 17.8452 13.5415 17.5V14.5642L13.0199 15.3467C12.904 15.5206 12.7088 15.625 12.4998 15.625C12.2909 15.625 12.0957 15.5206 11.9798 15.3467L11.4582 14.5642V17.5C11.4582 17.8452 11.1783 18.125 10.8332 18.125C10.488 18.125 10.2082 17.8452 10.2082 17.5V12.5C10.2082 12.2246 10.3885 11.9816 10.6521 11.9018Z" fill="#171723"/>
<path fill-rule="evenodd" clip-rule="evenodd" d="M5.62484 12.5C5.62484 12.1548 5.90466 11.875 6.24984 11.875H8.74984C9.09502 11.875 9.37484 12.1548 9.37484 12.5C9.37484 12.8452 9.09502 13.125 8.74984 13.125H6.24984C5.90466 13.125 5.62484 12.8452 5.62484 12.5Z" fill="#171723"/>
<path fill-rule="evenodd" clip-rule="evenodd" d="M7.49984 11.875C7.84502 11.875 8.12484 12.1548 8.12484 12.5V17.5C8.12484 17.8452 7.84502 18.125 7.49984 18.125C7.15466 18.125 6.87484 17.8452 6.87484 17.5V12.5C6.87484 12.1548 7.15466 11.875 7.49984 11.875Z" fill="#171723"/>
</svg>
