<svg width="20" height="20" viewBox="0 0 20 20" fill="none" xmlns="http://www.w3.org/2000/svg">
<g clip-path="url(#clip0_10317_146887)">
<g clip-path="url(#clip1_10317_146887)">
<path d="M3.90372 16.0256C2.89345 16.0256 1.93679 15.6421 1.20541 14.9428C0.46371 14.2338 0.0359065 13.2785 0.000818865 12.253C-0.00972554 11.7295 0.081611 11.2257 0.272111 10.7472C0.462454 10.2688 0.742225 9.84008 1.10345 9.47299C1.46491 9.10586 1.88909 8.81935 2.36444 8.62137C2.66272 8.4972 2.97138 8.41183 3.28721 8.36596C3.41555 7.30948 3.87785 6.32287 4.61897 5.54277C5.48982 4.62606 6.66449 4.07956 7.92658 4.00389L8.09989 4.00017C9.204 3.99103 10.2811 4.35256 11.1513 5.01412C11.8246 5.52604 12.3577 6.2078 12.6964 6.97892C13.0343 6.85304 13.3941 6.78957 13.7612 6.79005C14.2205 6.77604 14.7081 6.8745 15.1461 7.07469C15.5841 7.27491 15.9763 7.57795 16.2804 7.95109C16.5845 8.32393 16.8022 8.76916 16.9102 9.23854C16.957 9.44282 16.9833 9.65215 16.9887 9.86203C17.3643 9.87025 17.7332 9.94699 18.0844 10.0905C18.4618 10.2449 18.7999 10.4687 19.0893 10.7561C19.3787 11.0434 19.6051 11.3798 19.7621 11.7561C19.9192 12.132 19.9993 12.5296 20 12.9376C20.0007 13.3454 19.9222 13.7432 19.7666 14.12C19.611 14.4967 19.3859 14.8339 19.0977 15.1225C18.8089 15.411 18.4717 15.6362 18.0951 15.7918C17.7182 15.9476 17.32 16.0316 16.9127 16.0254H3.94301C3.9299 16.0255 3.91677 16.0256 3.90372 16.0256ZM3.84239 9.53393C3.49237 9.53393 3.15148 9.60205 2.82881 9.7364C2.50296 9.87212 2.21206 10.0685 1.96429 10.3203C1.71659 10.5719 1.52484 10.8658 1.39436 11.1939C1.26373 11.522 1.20114 11.8673 1.20815 12.2203C1.23218 12.9201 1.52773 13.58 2.04008 14.0698C2.55236 14.5596 3.22558 14.8243 3.93367 14.8176C3.9358 14.8176 3.93801 14.8176 3.94015 14.8176H16.9138C17.1454 14.82 17.4046 14.7703 17.6339 14.6755C17.8628 14.5809 18.0679 14.4439 18.2435 14.2684C18.4187 14.0931 18.5556 13.888 18.6502 13.6589C18.7448 13.4298 18.7926 13.1878 18.7921 12.9398C18.7917 12.6918 18.743 12.4501 18.6475 12.2215C18.552 11.9925 18.4143 11.7879 18.2384 11.6132C18.0623 11.4385 17.8568 11.3023 17.6273 11.2085C17.3977 11.1147 17.1553 11.0669 16.9078 11.0691C16.7537 11.0693 16.6022 11.0868 16.4548 11.1211C16.2511 11.1684 16.0377 11.1074 15.8901 10.9593C15.7425 10.8112 15.682 10.5974 15.7301 10.394C15.7985 10.1047 15.7995 9.79864 15.733 9.50902C15.6663 9.2193 15.5319 8.9444 15.3442 8.71421C15.1565 8.48384 14.9143 8.29677 14.6439 8.17317C14.3736 8.04957 14.0742 7.98847 13.7766 7.9976C13.3744 7.99431 13.0158 8.11062 12.7067 8.32794C12.5456 8.44129 12.3393 8.46886 12.1539 8.40181C11.9686 8.33477 11.8277 8.18154 11.7763 7.99131C11.5607 7.1924 11.0791 6.47653 10.4203 5.97557C9.76147 5.47472 8.94627 5.20265 8.11536 5.20788L7.97389 5.21054C7.04331 5.26686 6.15396 5.68062 5.4946 6.37467C4.83539 7.06863 4.46775 7.97801 4.45957 8.93523C4.45662 9.26767 4.13188 9.52264 3.85322 9.53395C3.84961 9.53395 3.846 9.53393 3.84239 9.53393Z" fill="#171723"/>
</g>
</g>
<defs>
<clipPath id="clip0_10317_146887">
<rect width="20" height="20" fill="white"/>
</clipPath>
<clipPath id="clip1_10317_146887">
<rect width="20" height="12.0257" fill="white" transform="translate(0 4)"/>
</clipPath>
</defs>
</svg>
