<svg width="20" height="20" viewBox="0 0 20 20" fill="none" xmlns="http://www.w3.org/2000/svg">
<path d="M19.9327 13.8993C19.8805 13.7025 19.796 13.5157 19.6827 13.3465C19.707 13.2574 19.7254 13.1669 19.7379 13.0755C19.8183 12.4952 19.6172 11.9636 19.2379 11.5528C19.0325 11.3283 18.8124 11.1801 18.5792 11.0891C18.7323 10.4342 18.8098 9.76446 18.8102 9.09148C18.8102 8.78441 18.7928 8.48356 18.7636 8.18717C18.7484 8.03917 18.73 7.89146 18.7086 7.74424C18.6418 7.30986 18.5427 6.88101 18.4122 6.46139C18.3266 6.18569 18.2277 5.91426 18.1157 5.64817C17.9478 5.25409 17.7517 4.87263 17.529 4.5071C17.3829 4.26374 17.2238 4.02834 17.0524 3.80197C16.9684 3.68767 16.8809 3.57609 16.7898 3.46732C16.5201 3.13938 16.227 2.83153 15.9126 2.54602C15.8083 2.45006 15.701 2.35743 15.5908 2.26818C15.4823 2.1777 15.3714 2.09008 15.2583 2.0055C15.0305 1.83604 14.7951 1.67697 14.5529 1.52897C13.2147 0.716138 11.6454 0.25 9.96731 0.25C5.08354 0.25 1.12525 4.20829 1.12525 9.09206C1.12513 9.77301 1.20402 10.4516 1.36036 11.1139C1.1506 11.205 0.949481 11.3469 0.763123 11.5523C0.383997 11.9632 0.182781 12.4926 0.263287 13.0731C0.275426 13.1653 0.293877 13.2566 0.318349 13.3463C0.205116 13.5156 0.120629 13.7025 0.0683826 13.8993C-0.0481519 14.3422 -0.00979265 14.7417 0.138303 15.0918C-0.0226115 15.5493 0.017593 16.0365 0.227258 16.4602C0.379724 16.7695 0.597935 17.0086 0.866839 17.2226C1.18663 17.4767 1.58692 17.6928 2.07006 17.8999C2.64613 18.1456 3.34902 18.3765 3.66852 18.4611C4.49456 18.6751 5.28641 18.8107 6.08953 18.8172C7.23351 18.8278 8.21823 18.5588 8.92326 17.8706C9.26966 17.913 9.61829 17.9343 9.96722 17.9342C10.336 17.9334 10.7043 17.9101 11.0704 17.8647C11.7739 18.5573 12.7621 18.8287 13.91 18.8177C14.7126 18.8114 15.5045 18.6759 16.3281 18.4616C16.65 18.377 17.3526 18.1461 17.9294 17.9005C18.4124 17.6929 18.8126 17.4769 19.1346 17.2231C19.4015 17.0092 19.6195 16.7699 19.772 16.4606C19.9838 16.0371 20.022 15.55 19.8631 15.0923C20.0099 14.7424 20.0479 14.3421 19.9315 13.8998L19.9327 13.8993ZM19.1131 15.0617C19.2754 15.3697 19.2858 15.7176 19.1426 16.0416C18.9254 16.5328 18.3861 16.9196 17.3382 17.3351C16.6869 17.5935 16.0903 17.7586 16.0855 17.7602C15.2239 17.9836 14.4443 18.0971 13.7703 18.0971C12.6535 18.0971 11.8223 17.7889 11.2949 17.1802C10.4035 17.332 9.4935 17.3372 8.60007 17.1955C8.07236 17.7941 7.24633 18.0971 6.13828 18.0971C5.46364 18.0971 4.68451 17.9836 3.82313 17.7602C3.81778 17.7586 3.22161 17.5935 2.57038 17.3351C1.52254 16.9198 0.983567 16.5332 0.766036 16.0416C0.622796 15.7175 0.633187 15.3696 0.795461 15.0617C0.810514 15.0332 0.826537 15.0052 0.843726 14.9783C0.74642 14.8323 0.681257 14.6672 0.652318 14.4941C0.623398 14.3211 0.631448 14.1437 0.675936 13.974C0.740418 13.7291 0.873656 13.5253 1.05448 13.379C0.967408 13.2358 0.910267 13.0766 0.886475 12.9107C0.834423 12.55 0.954065 12.1898 1.22345 11.8959C1.43312 11.6674 1.7296 11.5416 2.05794 11.5416H2.06668C1.81914 10.7483 1.69367 9.92179 1.69445 9.09051C1.69445 4.55828 5.36917 0.88356 9.90139 0.88356C14.4346 0.88356 18.1083 4.55828 18.1083 9.09051C18.1089 9.92373 17.9826 10.7521 17.7336 11.5474C17.7732 11.5436 17.8121 11.5415 17.8501 11.5415C18.1784 11.5415 18.4749 11.6672 18.6846 11.8957C18.9538 12.1891 19.0737 12.5495 19.0216 12.9105C18.9978 13.0764 18.9407 13.2357 18.8536 13.3789C19.0344 13.5251 19.1676 13.7289 19.2321 13.9739C19.2765 14.1436 19.2846 14.3209 19.2556 14.494C19.2267 14.6671 19.1615 14.8321 19.0643 14.9782C19.0815 15.0048 19.0977 15.0328 19.1126 15.0613L19.1131 15.0617Z" fill="white"/>
<path d="M19.0588 14.9772C19.156 14.8311 19.2212 14.6661 19.2501 14.493C19.2791 14.3199 19.271 14.1426 19.2266 13.9729C19.1621 13.728 19.0289 13.5242 18.8481 13.3779C18.9351 13.2347 18.9923 13.0755 19.0161 12.9096C19.0681 12.5489 18.9485 12.1888 18.6791 11.8948C18.4694 11.6663 18.1729 11.5405 17.8446 11.5405C17.8065 11.5405 17.7677 11.5425 17.7281 11.5465C17.9768 10.7513 18.1029 9.92274 18.1022 9.08951C18.1022 4.55729 14.4274 0.882568 9.89522 0.882568C5.363 0.882568 1.68827 4.55632 1.68827 9.08951C1.68749 9.9205 1.81297 10.7472 2.0605 11.5406H2.05176C1.72353 11.5406 1.42704 11.6664 1.21738 11.8949C0.948182 12.1883 0.828346 12.5486 0.880398 12.9097C0.904161 13.0756 0.961312 13.2348 1.0484 13.378C0.867579 13.5243 0.734341 13.7281 0.669956 13.9731C0.625498 14.1428 0.617476 14.3202 0.646435 14.4933C0.675394 14.6664 0.740663 14.8315 0.83794 14.9775C0.820557 15.0044 0.804631 15.0324 0.789676 15.0609C0.627498 15.3689 0.61701 15.7168 0.760251 16.0408C0.977296 16.5319 1.51675 16.9189 2.56459 17.3343C3.21593 17.5928 3.81249 17.7578 3.81734 17.7594C4.67892 17.9828 5.45854 18.0964 6.13249 18.0964C7.24054 18.0964 8.06697 17.7934 8.59429 17.1947C9.48733 17.3364 10.3977 17.3312 11.2891 17.1794C11.8162 17.7881 12.6477 18.0964 13.7645 18.0964C14.4391 18.0964 15.2183 17.9828 16.0797 17.7594C16.0849 17.7578 16.6812 17.5928 17.3324 17.3343C18.3803 16.9191 18.9192 16.5321 19.1368 16.0408C19.28 15.7167 19.2696 15.3688 19.1074 15.0609C19.0925 15.0321 19.0762 15.0042 19.059 14.9775L19.0588 14.9772ZM8.2211 16.2572C8.17566 16.3367 8.127 16.4143 8.07514 16.4898C7.9387 16.6895 7.75924 16.8421 7.55103 16.9556C7.15277 17.1726 6.64886 17.2486 6.13708 17.2486C5.32833 17.2486 4.4988 17.0593 4.0346 16.9387C4.01178 16.9328 1.1863 16.1346 1.54367 15.4548C1.60388 15.3406 1.70303 15.295 1.82773 15.295C2.33145 15.295 3.24848 16.0451 3.64275 16.0451C3.73074 16.0451 3.79289 16.0075 3.81823 15.9161C3.98624 15.3135 1.26516 15.0603 1.49434 14.1875C1.53484 14.0331 1.64448 13.9705 1.79879 13.9705C2.46469 13.9704 3.95953 15.1416 4.27223 15.1416C4.29622 15.1416 4.31341 15.1346 4.32273 15.1199L4.32681 15.1132C4.47345 14.8709 4.38935 14.6947 3.38405 14.0789L3.28752 14.0202C2.18141 13.3506 1.40451 12.9481 1.84637 12.4674C1.89716 12.4118 1.96912 12.3872 2.05662 12.3872C2.16043 12.3872 2.286 12.422 2.42429 12.4802C3.00851 12.7266 3.81785 13.3985 4.15677 13.6912C4.2565 13.778 4.31525 13.831 4.31525 13.831C4.31525 13.831 4.74352 14.2764 5.00252 14.2764C5.06214 14.2764 5.11264 14.253 5.14692 14.1948C5.33066 13.8852 3.44163 12.4536 3.33481 11.8631C3.26266 11.4628 3.3855 11.2602 3.61284 11.2602C3.72083 11.2602 3.85271 11.3061 3.99828 11.3985C4.44985 11.6851 5.32192 13.1834 5.64142 13.766C5.74843 13.9614 5.9311 14.044 6.09571 14.044C6.4223 14.044 6.6776 13.7193 6.12562 13.3068C5.29599 12.686 5.58713 11.6714 5.98306 11.6093C5.99996 11.6067 6.01705 11.6053 6.03404 11.6052C6.39413 11.6052 6.55301 12.2258 6.55301 12.2258C6.55301 12.2258 7.01847 13.395 7.81838 14.1942C8.5441 14.9195 8.64539 15.5149 8.22266 16.2569L8.2211 16.2572ZM10.8072 16.3941L10.7657 16.399L10.6949 16.4072C10.6577 16.411 10.6206 16.4147 10.5832 16.4182L10.5466 16.4215L10.5134 16.4243L10.4661 16.4281C10.4488 16.4293 10.4314 16.4307 10.414 16.4318L10.3619 16.4353L10.3505 16.4359L10.3095 16.4384L10.2921 16.4393L10.2436 16.4417L10.1871 16.444L10.1359 16.4458L10.1017 16.4467H10.0844C10.0737 16.4467 10.0631 16.4473 10.0524 16.4474H10.0354C10.0248 16.4474 10.0142 16.4474 10.0035 16.448L9.96009 16.4485H9.8993C9.85162 16.4485 9.80413 16.448 9.75664 16.4471L9.71818 16.4462C9.70731 16.4462 9.69633 16.4457 9.68546 16.4454L9.64477 16.4441L9.59407 16.4422L9.54853 16.4402L9.53668 16.4397L9.49327 16.4374C9.48123 16.4367 9.46919 16.4361 9.45724 16.4354L9.42918 16.4337C9.39393 16.4315 9.35868 16.429 9.32342 16.4262L9.28652 16.4233L9.23991 16.4193L9.18543 16.4143C9.15503 16.4115 9.12464 16.4084 9.09424 16.405H9.09278C9.53659 15.4144 9.31216 14.4899 8.41533 13.5945C7.82722 13.0072 7.43547 12.1398 7.35486 11.9495C7.19055 11.3857 6.75558 10.7589 6.03317 10.7589C5.97208 10.759 5.9112 10.7638 5.85089 10.7733C5.5344 10.8231 5.25782 11.0052 5.06049 11.2793C4.84733 11.0141 4.64 10.8033 4.45257 10.6841C4.16997 10.505 3.88806 10.4141 3.61323 10.4141C3.27042 10.4141 2.96384 10.5549 2.75019 10.8103L2.74485 10.8168L2.73281 10.7663L2.73233 10.7641C2.69169 10.5903 2.65756 10.4149 2.62997 10.2385C2.62997 10.2373 2.62997 10.2361 2.62939 10.235L2.62337 10.195C2.62011 10.1735 2.61694 10.1518 2.61385 10.1303C2.61132 10.1123 2.6088 10.0943 2.60647 10.0765C2.60414 10.0586 2.60161 10.0406 2.59948 10.0227C2.59715 10.0046 2.59501 9.98664 2.59287 9.96867C2.59082 9.95158 2.58885 9.93449 2.58695 9.9174L2.58638 9.91303C2.57762 9.83417 2.57011 9.75522 2.56384 9.67617L2.56044 9.63043C2.55947 9.6179 2.55859 9.60528 2.55782 9.59256C2.55782 9.58964 2.55743 9.58663 2.55723 9.58391L2.55404 9.53322C2.55287 9.51487 2.55199 9.49651 2.55102 9.47816C2.55005 9.4599 2.54908 9.44155 2.5483 9.42309L2.54636 9.37502L2.54577 9.36046L2.54432 9.31598L2.54326 9.2783C2.54326 9.26325 2.54257 9.2481 2.54228 9.23305L2.5415 9.18556C2.54131 9.16973 2.5415 9.154 2.54111 9.13817C2.54063 9.12224 2.54111 9.10641 2.54111 9.09049C2.54111 5.02634 5.83613 1.73133 9.90124 1.73133C13.9664 1.73133 17.2614 5.02634 17.2614 9.09049V9.18556C17.2614 9.20139 17.261 9.21731 17.2606 9.23305C17.2606 9.24625 17.2601 9.25917 17.2597 9.27238C17.2597 9.28413 17.2592 9.29578 17.2587 9.30714C17.2587 9.322 17.2579 9.33676 17.2574 9.35162V9.35288C17.2561 9.38512 17.2548 9.41737 17.2534 9.44961L17.2528 9.46029L17.2503 9.50846L17.248 9.54662C17.2425 9.63703 17.2354 9.72744 17.2268 9.81766V9.81892C17.2252 9.83582 17.2235 9.85282 17.2217 9.86971C17.2174 9.90904 17.213 9.94837 17.2086 9.9877L17.2037 10.0272L17.1976 10.0736C17.1954 10.0906 17.1931 10.1075 17.1907 10.1244C17.188 10.1434 17.1852 10.1622 17.1825 10.1811L17.1757 10.2255L17.1678 10.276C17.165 10.2928 17.1623 10.3095 17.1591 10.3263C17.1558 10.343 17.1533 10.3597 17.1504 10.3765C17.1445 10.4099 17.1385 10.4433 17.132 10.4766C17.1191 10.5429 17.1056 10.609 17.0913 10.6751C17.0877 10.6915 17.084 10.708 17.0803 10.7244C16.8731 10.5231 16.5989 10.4134 16.2963 10.4134C16.0217 10.4134 15.7395 10.5042 15.457 10.6834C15.2695 10.8025 15.0624 11.0134 14.849 11.2786C14.6514 11.0045 14.3748 10.8224 14.0587 10.7726C13.9984 10.7631 13.9374 10.7583 13.8763 10.7582C13.1539 10.7582 12.7188 11.3849 12.5546 11.9488C12.4732 12.1392 12.0818 13.0063 11.4932 13.5948C10.597 14.4881 10.3706 15.4089 10.8078 16.3946L10.8072 16.3941ZM18.4053 14.412L18.4023 14.4207C18.4003 14.4262 18.3983 14.4317 18.396 14.4372C18.3925 14.4454 18.3888 14.4535 18.385 14.4616C18.3755 14.4808 18.3649 14.4994 18.3531 14.5173C18.3369 14.5415 18.3191 14.5646 18.2998 14.5864C18.2953 14.5914 18.291 14.5964 18.286 14.6013C18.2792 14.6088 18.2719 14.6161 18.2647 14.6234C18.1339 14.753 17.9346 14.8665 17.7093 14.9708C17.6838 14.9824 17.658 14.9939 17.6318 15.0055L17.6057 15.017C17.5883 15.0247 17.5711 15.0324 17.5528 15.0399C17.535 15.0474 17.5172 15.0549 17.4993 15.0623L17.4451 15.0847C17.3184 15.1369 17.1885 15.1865 17.0618 15.2356L17.0077 15.2566L16.9541 15.2776C16.9186 15.2915 16.8834 15.3054 16.8487 15.3193L16.7972 15.34L16.7466 15.3608L16.7216 15.3712C16.7051 15.3782 16.6888 15.385 16.6727 15.392C16.3 15.5518 16.0319 15.7145 16.0883 15.9164C16.0898 15.9221 16.0916 15.9276 16.0935 15.9328C16.0985 15.9478 16.1054 15.9619 16.114 15.9752C16.119 15.9831 16.1249 15.9906 16.1314 15.9974C16.1976 16.0661 16.3181 16.0553 16.4701 16.0007C16.4824 15.9962 16.4951 15.9915 16.5078 15.9864C16.5165 15.9831 16.5252 15.9796 16.5339 15.9761L16.547 15.9706C16.5818 15.9558 16.6186 15.9394 16.6563 15.9214C16.6657 15.9171 16.6752 15.9128 16.6847 15.9078C16.8705 15.817 17.0811 15.6945 17.2901 15.5831C17.3222 15.5657 17.3543 15.5491 17.3863 15.5326C17.4385 15.5055 17.4912 15.4794 17.5445 15.4544C17.7424 15.3614 17.9283 15.2954 18.078 15.2954C18.1481 15.2954 18.2102 15.3097 18.2617 15.3428L18.2704 15.3485C18.2965 15.3669 18.3192 15.3896 18.3378 15.4156C18.342 15.4217 18.3465 15.428 18.3503 15.4345C18.3544 15.4412 18.3583 15.4481 18.3619 15.4551C18.4358 15.5953 18.374 15.7407 18.2293 15.8832C18.0903 16.0199 17.8741 16.154 17.6284 16.2782C17.6102 16.2875 17.5918 16.2967 17.5734 16.3056C16.842 16.6647 15.8846 16.9352 15.871 16.9386C15.6158 17.0047 15.2509 17.0917 14.8397 17.1566L14.7788 17.166L14.7689 17.1675C14.6757 17.1815 14.5821 17.1938 14.4884 17.2045L14.4798 17.2054C14.3094 17.2248 14.1346 17.2389 13.9595 17.2448H13.9568C13.8939 17.2471 13.8311 17.2482 13.7681 17.2482H13.6957C13.5998 17.2468 13.5039 17.2426 13.4083 17.2352C13.406 17.2352 13.4037 17.2352 13.4014 17.2347C13.3672 17.2321 13.3329 17.2289 13.2988 17.2251C13.2402 17.2188 13.1816 17.211 13.1232 17.2019C13.1005 17.1981 13.0762 17.1941 13.0528 17.19C13.0421 17.1881 13.0316 17.1861 13.021 17.184L13.0184 17.1835C12.9847 17.1771 12.9512 17.17 12.9178 17.1623C12.8985 17.158 12.8791 17.1536 12.86 17.1485L12.8485 17.1455C12.839 17.1431 12.8297 17.1406 12.8203 17.1381L12.8152 17.1367L12.7852 17.1281C12.7743 17.125 12.7635 17.1218 12.7526 17.1186L12.7488 17.1174L12.7205 17.1087C12.7098 17.1054 12.6992 17.1019 12.6887 17.0985C12.6799 17.0956 12.6713 17.0926 12.6625 17.0898L12.6434 17.0831C12.6249 17.0767 12.6067 17.0699 12.5884 17.0629L12.5711 17.0562L12.5569 17.0505C12.5294 17.0394 12.502 17.0278 12.4749 17.0157L12.4568 17.0071L12.4538 17.0057C12.4474 17.0027 12.4411 16.9997 12.4347 16.997C12.4222 16.9909 12.4097 16.9847 12.3974 16.9784L12.3937 16.9766L12.3759 16.9672C12.3441 16.9506 12.3129 16.933 12.2824 16.9141L12.2657 16.9039C12.2571 16.8987 12.2492 16.8933 12.241 16.888L12.2192 16.8735C12.2113 16.8683 12.2035 16.863 12.1958 16.8574L12.1818 16.8475C12.1671 16.8369 12.1526 16.8261 12.1383 16.815C12.1307 16.8092 12.1233 16.8031 12.1158 16.7976C12.0992 16.7843 12.083 16.7706 12.0669 16.7565L12.0663 16.7559C12.0506 16.7424 12.0354 16.7285 12.0205 16.7142L12.0197 16.7132C12.012 16.7058 12.0044 16.6984 11.9968 16.6908C11.9893 16.6831 11.9818 16.6755 11.9745 16.6679C11.9671 16.6601 11.9597 16.6522 11.9525 16.6442C11.9455 16.6366 11.9388 16.6289 11.932 16.6211L11.9296 16.6185C11.8946 16.5778 11.8617 16.5352 11.8313 16.4908L11.8193 16.473C11.8113 16.4613 11.8035 16.4494 11.7957 16.4376L11.7728 16.4023C11.7615 16.3852 11.7505 16.3678 11.7399 16.3503C11.7322 16.3379 11.7246 16.3254 11.7171 16.3129C11.7108 16.3022 11.7045 16.2916 11.6985 16.2812C11.6951 16.2754 11.6919 16.2696 11.6887 16.2638C11.6855 16.2577 11.6817 16.2516 11.6783 16.2455L11.6729 16.2359C11.671 16.2327 11.6704 16.2317 11.6695 16.2296C11.6629 16.218 11.6564 16.2063 11.6502 16.1943C11.6474 16.1892 11.6446 16.1839 11.6416 16.1788L11.6328 16.1621L11.6242 16.1455L11.6075 16.1118C11.6048 16.1063 11.6022 16.1007 11.5995 16.0952C11.5938 16.0832 11.5884 16.0715 11.5829 16.0597C11.5808 16.055 11.5786 16.0502 11.5766 16.0455C11.5691 16.0292 11.5621 16.0128 11.5554 15.9962C11.5508 15.9853 11.5466 15.9744 11.5421 15.9635C11.5296 15.9315 11.5179 15.8991 11.5071 15.8664C11.5039 15.8567 11.5007 15.8471 11.4979 15.8374C11.4909 15.8153 11.4846 15.7931 11.4789 15.7706C11.472 15.7445 11.4659 15.7181 11.4608 15.6916C11.4575 15.676 11.4546 15.6602 11.4521 15.6444C11.4495 15.6288 11.4473 15.6131 11.4454 15.5976C11.4414 15.5666 11.4386 15.5355 11.437 15.5044C11.437 15.4992 11.4365 15.494 11.4364 15.4888C11.4359 15.4785 11.4356 15.4682 11.4355 15.4579C11.4301 15.0431 11.6401 14.644 12.0891 14.1955C12.8887 13.3965 13.3545 12.227 13.3545 12.227C13.3545 12.227 13.367 12.178 13.3931 12.1075C13.4018 12.0841 13.411 12.0608 13.4206 12.0377C13.4316 12.0117 13.4433 11.986 13.4559 11.9607L13.4596 11.9534C13.4758 11.9211 13.4934 11.8897 13.5125 11.8592C13.5169 11.8521 13.5212 11.845 13.5262 11.838C13.5404 11.8168 13.5555 11.7963 13.5713 11.7764C13.5835 11.7612 13.5966 11.7464 13.6102 11.7324C13.6567 11.6846 13.7096 11.6456 13.7695 11.6247L13.7771 11.6223C13.7821 11.6206 13.7871 11.6191 13.7922 11.6176C13.7983 11.6161 13.8043 11.6146 13.8103 11.6134L13.813 11.6129C13.8257 11.6104 13.8385 11.6086 13.8514 11.6077H13.8525C13.8592 11.6077 13.8659 11.607 13.8728 11.607C13.89 11.6071 13.9071 11.6085 13.9241 11.6111C13.9962 11.6225 14.0648 11.6654 14.1239 11.7316L14.1318 11.741C14.1511 11.7635 14.1685 11.7876 14.1841 11.8128C14.1957 11.8316 14.2067 11.8513 14.2171 11.872C14.2213 11.8807 14.2253 11.8887 14.2292 11.8972C14.2312 11.9016 14.2331 11.9059 14.235 11.9103C14.2389 11.919 14.2424 11.9277 14.246 11.9368C14.2663 11.9889 14.2821 12.0426 14.2931 12.0974C14.3049 12.1565 14.3117 12.2165 14.3136 12.2768C14.3143 12.3033 14.3143 12.3301 14.3136 12.3573C14.3131 12.3676 14.3127 12.378 14.3119 12.3884C14.3039 12.5039 14.2788 12.6175 14.2372 12.7256C14.233 12.7363 14.2285 12.7471 14.2242 12.758C14.2033 12.8079 14.179 12.8563 14.1516 12.9029C14.136 12.9295 14.1191 12.9559 14.101 12.9822L14.09 12.9979C14.0472 13.0577 13.9994 13.1138 13.9471 13.1657C13.8957 13.2173 13.8405 13.2649 13.7821 13.3086C13.7236 13.3518 13.6687 13.3997 13.618 13.4519C13.4721 13.6051 13.4381 13.7402 13.4709 13.8427C13.4748 13.8542 13.4793 13.8656 13.4846 13.8766C13.4967 13.9004 13.5125 13.9222 13.5313 13.9412L13.5364 13.9464C13.5418 13.9515 13.5474 13.9565 13.5531 13.9612L13.559 13.966C13.5731 13.9769 13.5881 13.9866 13.6037 13.995C13.6082 13.9975 13.6124 13.9999 13.6175 14.0022C13.639 14.0129 13.6614 14.0215 13.6845 14.028L13.6909 14.0296L13.6996 14.0319L13.7072 14.0338L13.7152 14.0355L13.7233 14.0372L13.731 14.0384C13.7367 14.0395 13.7425 14.0404 13.7482 14.0412L13.7539 14.0419L13.7639 14.043L13.7701 14.0436L13.7804 14.0444H13.7863L13.797 14.0449H13.8307L13.8403 14.0444L13.8514 14.0437L13.8649 14.0424L13.8775 14.0409C13.8803 14.0409 13.8832 14.0401 13.8861 14.0396C13.9306 14.0331 13.9739 14.0206 14.0149 14.0023C14.0237 13.9986 14.0323 13.9946 14.0403 13.9903C14.0573 13.9817 14.074 13.9721 14.0899 13.9615C14.1121 13.947 14.1331 13.9306 14.1528 13.9127L14.1665 13.8997C14.1686 13.8975 14.1709 13.8955 14.1729 13.8933C14.1863 13.8799 14.1989 13.8657 14.2107 13.8508C14.2315 13.8246 14.2499 13.7967 14.2659 13.7674C14.456 13.4219 14.6552 13.0814 14.8633 12.7468L14.8918 12.701L14.9207 12.6552C14.9351 12.6321 14.9496 12.6091 14.9641 12.5865L14.9787 12.5637L15.008 12.5182C15.0472 12.4575 15.0865 12.3974 15.1262 12.338L15.1558 12.2937C15.2152 12.2057 15.2746 12.1201 15.3332 12.0386L15.3625 11.9984C15.4263 11.9102 15.4929 11.8241 15.5619 11.74L15.5894 11.7072C15.5939 11.7016 15.598 11.6963 15.603 11.691L15.6299 11.6598C15.6344 11.6546 15.6386 11.6496 15.6433 11.6446L15.6693 11.6152L15.6824 11.601C15.695 11.5873 15.7079 11.5738 15.7209 11.5604C15.7296 11.5518 15.7377 11.5431 15.7461 11.535C15.7954 11.4846 15.8497 11.4394 15.9082 11.4003L15.9217 11.3917L15.9354 11.3829C15.9441 11.3775 15.953 11.3722 15.962 11.3673C16.1916 11.2371 16.3817 11.2274 16.4911 11.3368C16.5574 11.4031 16.594 11.5129 16.5921 11.6657C16.5921 11.6725 16.5921 11.6792 16.5915 11.6862V11.6938C16.5915 11.7007 16.5909 11.7078 16.5904 11.7148C16.5904 11.7235 16.5894 11.7322 16.5885 11.7409C16.5876 11.7496 16.5872 11.7562 16.5863 11.7639C16.5863 11.7661 16.5859 11.7684 16.5856 11.7706C16.5849 11.7774 16.584 11.7843 16.5831 11.7911C16.5831 11.7932 16.5831 11.7953 16.5823 11.7974C16.5813 11.8066 16.5799 11.8158 16.5783 11.825C16.5772 11.8334 16.5759 11.8419 16.5742 11.8503C16.5735 11.8552 16.5726 11.8599 16.5718 11.8648C16.5693 11.8786 16.5659 11.8923 16.562 11.9057C16.5545 11.9307 16.5454 11.9553 16.5346 11.9792C16.5299 11.9896 16.525 12 16.5199 12.0102C16.5094 12.0312 16.4976 12.0528 16.4846 12.0751C16.4781 12.0861 16.4714 12.0975 16.4642 12.1088L16.4533 12.1261C16.4422 12.1435 16.4307 12.1611 16.4186 12.1788C16.4066 12.1966 16.3937 12.2148 16.3798 12.2331C16.3618 12.2576 16.3429 12.2826 16.3229 12.3078L16.3077 12.3269C16.2649 12.3803 16.221 12.4327 16.1761 12.4843L16.1405 12.5246L16.1223 12.545C16.0976 12.5726 16.0727 12.6001 16.0477 12.6274L16.0284 12.6482C16.0157 12.662 16.0024 12.676 15.9897 12.6898C15.9767 12.7039 15.9635 12.7179 15.9503 12.7319L15.9102 12.774L15.8698 12.8163C15.8563 12.8304 15.8427 12.8446 15.829 12.8587L15.7465 12.9437C15.3527 13.3476 14.9378 13.7501 14.7973 14.0013C14.788 14.0177 14.7796 14.0345 14.7719 14.0517C14.752 14.0973 14.7436 14.1363 14.7493 14.1679C14.7511 14.1783 14.7548 14.1883 14.7601 14.1973C14.7681 14.211 14.7777 14.2236 14.7888 14.2349C14.7939 14.24 14.7993 14.2447 14.8051 14.249C14.834 14.2696 14.8689 14.2802 14.9044 14.2791H14.9154L14.9268 14.2783L14.9383 14.277L14.9477 14.2756C14.9489 14.2755 14.9502 14.2752 14.9515 14.2749L14.9601 14.2733L14.9624 14.2727L14.972 14.2706L14.9855 14.2671L14.9977 14.2636C15.0056 14.2611 15.0136 14.2584 15.0218 14.2554C15.0393 14.2492 15.0565 14.242 15.0733 14.2339C15.0776 14.2319 15.082 14.23 15.0862 14.2277L15.0991 14.2213C15.116 14.2128 15.1328 14.2035 15.1497 14.1935C15.1632 14.1856 15.1766 14.1774 15.19 14.1688L15.203 14.1601C15.2073 14.1574 15.2116 14.1546 15.2159 14.1514L15.2288 14.1427L15.2356 14.138L15.2543 14.125C15.2716 14.1129 15.2879 14.1006 15.3044 14.0881L15.3058 14.087L15.3318 14.0668C15.3675 14.0386 15.4014 14.0103 15.432 13.9836L15.4524 13.9656L15.4543 13.9639L15.4649 13.9544C15.4899 13.932 15.5123 13.911 15.5309 13.8937L15.5385 13.8863L15.5569 13.8689L15.5678 13.8582L15.5716 13.8543L15.5727 13.8533C15.582 13.8439 15.582 13.8439 15.5913 13.8345L15.5921 13.8337L15.5956 13.8306C15.5967 13.8295 15.5981 13.8283 15.5998 13.8268L15.6011 13.8256L15.6048 13.8223L15.6245 13.8049L15.6356 13.7949C15.6411 13.7902 15.647 13.7849 15.653 13.7792L15.6663 13.7675C15.6686 13.7656 15.671 13.7633 15.6734 13.7612L15.6873 13.7491L15.7078 13.7312L15.7185 13.7218C15.7608 13.685 15.8123 13.6406 15.8712 13.5906L15.8954 13.5702L15.9354 13.5367L15.9762 13.5025C16.0296 13.4582 16.0871 13.4111 16.1479 13.3622L16.1878 13.3301C16.2218 13.3031 16.2567 13.2754 16.2921 13.2477C16.3063 13.2365 16.3207 13.2253 16.3355 13.2143C16.3717 13.1863 16.4081 13.1584 16.4447 13.1309C16.528 13.068 16.6139 13.005 16.7008 12.9435L16.7382 12.9176C16.7643 12.8995 16.7903 12.8815 16.8164 12.864L16.84 12.8479C16.8867 12.8165 16.9338 12.7857 16.9813 12.7556L17.0049 12.7407L17.0283 12.7262C17.0517 12.7117 17.0751 12.6973 17.0982 12.6834L17.1214 12.6697L17.1679 12.6426C17.1832 12.6337 17.1983 12.6251 17.2135 12.6165L17.2226 12.6114L17.2587 12.5917C17.2737 12.5835 17.2888 12.5756 17.3036 12.568L17.3259 12.5565L17.3475 12.5455C17.3968 12.5208 17.447 12.4979 17.4981 12.4769C17.5051 12.474 17.512 12.4712 17.5189 12.4681C17.5326 12.4624 17.5462 12.4572 17.5597 12.4525C17.5732 12.4479 17.5865 12.4432 17.5996 12.4385C17.6116 12.4345 17.6231 12.4309 17.6344 12.4274L17.6382 12.4262C17.6442 12.4243 17.6502 12.4226 17.6562 12.421L17.658 12.4206C17.6702 12.4171 17.6824 12.4139 17.6948 12.4109H17.6958C17.7139 12.4066 17.7316 12.4029 17.7489 12.4C17.7548 12.399 17.7606 12.398 17.7663 12.3973C17.7831 12.3947 17.8 12.393 17.8169 12.3918C17.8275 12.391 17.8383 12.3907 17.849 12.3907H17.8572C17.868 12.3907 17.8785 12.3914 17.8889 12.3925C17.8937 12.3925 17.8984 12.3934 17.9031 12.394H17.905C17.9097 12.3945 17.9144 12.3953 17.919 12.3963C17.9236 12.3973 17.9282 12.3979 17.9327 12.399H17.9343C17.9387 12.4 17.9429 12.4012 17.9476 12.4025C17.9847 12.4125 18.0187 12.4313 18.047 12.4574L18.0495 12.4599L18.0545 12.4647L18.0593 12.4699C18.0983 12.5109 18.1305 12.5578 18.1548 12.6089L18.1586 12.6175C18.1668 12.6369 18.1733 12.657 18.1779 12.6776C18.1905 12.735 18.1871 12.7948 18.168 12.8504C18.1598 12.8746 18.1497 12.8981 18.1377 12.9206L18.1297 12.935C18.0994 12.9857 18.0637 13.033 18.023 13.076L18.0143 13.0852C17.9951 13.1055 17.9752 13.1252 17.9548 13.1441C17.9482 13.1503 17.9415 13.1564 17.9347 13.1625L17.9245 13.1718C17.9031 13.1908 17.8812 13.2092 17.8591 13.2273C17.8552 13.2304 17.8512 13.2335 17.8474 13.2368C17.832 13.2492 17.8161 13.2618 17.7996 13.2745C17.7427 13.318 17.6847 13.3599 17.6256 13.4004C17.5909 13.4242 17.5549 13.4482 17.5178 13.4726C17.4487 13.5179 17.3791 13.5623 17.3088 13.6058C17.2885 13.6183 17.2681 13.6311 17.2473 13.6437C17.0563 13.7612 16.8445 13.8869 16.6186 14.0235L16.5601 14.059C16.4961 14.0981 16.4357 14.1354 16.3789 14.1708L16.3503 14.1889L16.2961 14.2236C16.2746 14.2372 16.2537 14.2506 16.2334 14.2638C16.2181 14.2737 16.2031 14.2834 16.1885 14.293L16.1595 14.312C16.1455 14.3212 16.1315 14.3305 16.1175 14.3399L16.1039 14.3485C16.0895 14.3581 16.0755 14.3676 16.0619 14.3769L16.0397 14.392L16.0136 14.4102L15.9895 14.427C15.9514 14.4537 15.9138 14.481 15.8765 14.5088L15.8635 14.5187C15.8489 14.5297 15.8347 14.5408 15.821 14.5516L15.8031 14.5659C15.773 14.59 15.7457 14.6133 15.7211 14.6354L15.709 14.6465C15.7021 14.6528 15.6953 14.6591 15.6889 14.6653C15.6844 14.6696 15.6802 14.6739 15.6756 14.6782L15.6693 14.6844C15.6554 14.6983 15.6419 14.7126 15.6288 14.7273L15.6224 14.7346C15.6081 14.7512 15.5957 14.767 15.5847 14.7824L15.5799 14.7894C15.5672 14.8079 15.5561 14.8274 15.5466 14.8477L15.5433 14.8548L15.5412 14.8597L15.5396 14.864L15.5373 14.8699C15.5367 14.872 15.5353 14.8756 15.5345 14.8787C15.5305 14.8902 15.5276 14.9022 15.5257 14.9143L15.5247 14.9208L15.5239 14.9267L15.5235 14.9325V14.963C15.5235 14.9655 15.5235 14.9681 15.524 14.9707C15.5241 14.9723 15.5243 14.9738 15.5245 14.9754C15.5245 14.9779 15.5252 14.9804 15.5255 14.9831L15.5273 14.9937V14.9942C15.528 14.9976 15.5287 15.001 15.5296 15.0044C15.5304 15.0078 15.5313 15.0116 15.5324 15.0152C15.5355 15.0262 15.5393 15.037 15.5436 15.0476C15.5436 15.0484 15.5443 15.0493 15.5446 15.0501C15.5458 15.0527 15.5469 15.0554 15.5481 15.058C15.5529 15.0691 15.5582 15.0799 15.564 15.0905L15.5702 15.1014L15.5766 15.1125L15.5833 15.1236C15.5844 15.1254 15.5857 15.1271 15.5872 15.1287L15.5894 15.1311L15.5917 15.1332L15.5943 15.1352C15.5961 15.1365 15.5979 15.1376 15.5999 15.1386C15.6018 15.1395 15.604 15.1405 15.6061 15.1413C15.6084 15.142 15.6108 15.1427 15.6131 15.1433C15.6691 15.1559 15.7843 15.1095 15.9372 15.0287L15.9647 15.0141L16.0112 14.9888L16.0341 14.9762C16.0502 14.9674 16.0668 14.9577 16.0836 14.9481L16.1144 14.9307C16.3167 14.8143 16.5584 14.6646 16.8081 14.5186C16.8315 14.5049 16.855 14.4913 16.8785 14.4777L16.9257 14.4476C16.9493 14.434 16.9728 14.4206 16.9964 14.4074C17.0968 14.3503 17.1985 14.2954 17.3014 14.2429L17.3475 14.2195C17.3782 14.2043 17.4086 14.1896 17.4386 14.1752C17.4968 14.1476 17.5555 14.1215 17.6149 14.0967L17.6474 14.0835L17.6514 14.082C17.8236 14.0137 17.9799 13.9714 18.1063 13.9714C18.1337 13.9712 18.161 13.9735 18.188 13.9781H18.1888C18.1975 13.9797 18.2054 13.9814 18.2134 13.9835H18.2148C18.2265 13.9863 18.2379 13.9899 18.249 13.9944C18.2578 13.9976 18.2664 14.0013 18.2746 14.0058C18.3109 14.0242 18.3418 14.0513 18.365 14.0847C18.3669 14.0875 18.3687 14.0904 18.3705 14.0934C18.379 14.1064 18.3864 14.1201 18.3924 14.1345C18.396 14.1427 18.3993 14.1513 18.4024 14.1605C18.4055 14.1698 18.4083 14.1788 18.4111 14.1884C18.4317 14.262 18.4296 14.3399 18.4053 14.4123V14.412Z" fill="#FF9D00"/>
<path d="M17.2523 9.13501V9.08743C17.2523 5.02329 13.9582 1.72827 9.89311 1.72827C5.82897 1.72827 2.53298 5.02329 2.53298 9.08743L2.53277 9.10336C2.53277 9.11394 2.53277 9.12443 2.53277 9.13501C2.53335 9.15084 2.53351 9.16667 2.53337 9.1825L2.53395 9.21746L2.53415 9.23009L2.53463 9.24737C2.53483 9.2567 2.53512 9.26592 2.53512 9.27524L2.53609 9.31302L2.53764 9.3574L2.53813 9.37197L2.54007 9.4179V9.42004L2.54279 9.47374V9.4751C2.54376 9.49345 2.54473 9.51181 2.5459 9.53007C2.54687 9.54706 2.54794 9.56396 2.5491 9.58086L2.54939 9.58387C2.55025 9.59834 2.55122 9.6129 2.55231 9.62737L2.5526 9.63116C2.55357 9.64514 2.55464 9.65922 2.5558 9.67311L2.556 9.67583L2.55794 9.70011C2.56376 9.77013 2.57055 9.84014 2.57833 9.90997L2.57882 9.91434L2.58464 9.96561L2.59134 10.0196C2.59584 10.0555 2.60064 10.0914 2.60572 10.1272C2.60875 10.1489 2.61189 10.1704 2.61514 10.192L2.61562 10.1946C2.62288 10.2434 2.6307 10.2921 2.63912 10.3407C2.66328 10.4816 2.69164 10.6218 2.72419 10.7611L2.72468 10.7633L2.72779 10.7764C2.7307 10.7888 2.73361 10.8013 2.73672 10.8138L2.74206 10.8073C2.95571 10.5519 3.2622 10.4111 3.6051 10.4111C3.87993 10.4111 4.16194 10.5019 4.44444 10.681C4.63187 10.8001 4.8391 11.011 5.05236 11.2762C5.24969 11.0021 5.52627 10.82 5.84266 10.7703C5.90306 10.7608 5.96405 10.7559 6.02504 10.7558C6.74726 10.7558 7.18261 11.3826 7.34673 11.9464C7.42782 12.1369 7.81918 13.004 8.40914 13.5915C9.30597 14.4875 9.53078 15.4123 9.08659 16.4019H9.08805C9.11835 16.4052 9.14875 16.4083 9.17924 16.4111C9.1974 16.4129 9.21556 16.4146 9.23372 16.4162L9.24013 16.4168C9.25343 16.418 9.26683 16.4192 9.28023 16.4202L9.31714 16.4232C9.35229 16.4259 9.38754 16.4283 9.42299 16.4307L9.45096 16.4323L9.4732 16.4336L9.48708 16.4344L9.5304 16.4367L9.54224 16.4372L9.58789 16.4391L9.63848 16.4411L9.67927 16.4422L9.68607 16.4425C9.69461 16.4428 9.70335 16.4432 9.712 16.4432L9.72122 16.4434C9.77852 16.4447 9.83572 16.4454 9.89301 16.4454H9.9538L9.99731 16.4449C10.008 16.4444 10.0186 16.4444 10.0293 16.4444H10.0462L10.0608 16.4441C10.0666 16.4439 10.0724 16.4437 10.0781 16.4437H10.0955L10.1296 16.4427L10.1809 16.441L10.2374 16.4385C10.2536 16.4378 10.2697 16.4371 10.2859 16.4362L10.3033 16.4352L10.329 16.4338L10.3443 16.4329L10.3557 16.4322L10.4078 16.4287C10.4252 16.4276 10.4426 16.4263 10.46 16.4249L10.5071 16.4212L10.5405 16.4184L10.5769 16.4151C10.6143 16.4116 10.6516 16.4079 10.6887 16.4041C10.7123 16.4014 10.7358 16.3988 10.7594 16.396L10.8009 16.391C10.364 15.4053 10.5902 14.4847 11.4834 13.5923C12.0721 13.0041 12.4633 12.1366 12.5449 11.9462C12.7093 11.3825 13.1438 10.7556 13.8665 10.7556C13.9276 10.7557 13.9886 10.7605 14.0489 10.7701C14.365 10.8198 14.6417 11.002 14.8393 11.276C15.0527 11.0108 15.2598 10.7999 15.4472 10.6808C15.7297 10.5017 16.012 10.4109 16.2865 10.4109C16.5891 10.4109 16.8634 10.5206 17.0706 10.7218C17.0819 10.6711 17.0929 10.6204 17.1034 10.5696C17.1098 10.5378 17.1161 10.5059 17.1223 10.474C17.1299 10.4348 17.1371 10.3953 17.1437 10.3559C17.1454 10.3452 17.1473 10.3345 17.1493 10.3238C17.1525 10.307 17.1553 10.2904 17.158 10.2735L17.159 10.267L17.1659 10.2231L17.1727 10.1785L17.1728 10.178C17.1755 10.1594 17.1784 10.1406 17.1809 10.1219C17.1829 10.1077 17.1849 10.0935 17.1867 10.0792L17.1879 10.0711L17.1939 10.0247L17.1989 9.98513C17.2019 9.95911 17.2048 9.93308 17.2076 9.90696C17.2089 9.89657 17.2099 9.88608 17.211 9.87559L17.212 9.86714C17.2138 9.84976 17.2155 9.83247 17.217 9.81509L17.2209 9.77469C17.229 9.68515 17.2355 9.59562 17.2405 9.50588V9.5053L17.2431 9.45772L17.2436 9.44703L17.2456 9.40188C17.2463 9.38488 17.247 9.36769 17.2476 9.35031V9.34905L17.2481 9.33652C17.2486 9.32584 17.249 9.31516 17.249 9.30457L17.2492 9.3002C17.2495 9.2903 17.2499 9.28 17.2499 9.26981L17.2502 9.26107C17.2505 9.25087 17.2508 9.24077 17.2508 9.23057L17.251 9.22193C17.2513 9.20892 17.2516 9.196 17.2516 9.18299L17.2523 9.13501ZM8.06837 16.4874C8.65114 15.6326 8.60987 14.9909 7.81015 14.1916C7.01043 13.3924 6.54478 12.2232 6.54478 12.2232C6.54478 12.2232 6.37105 11.5442 5.97483 11.6066C5.57861 11.669 5.28795 12.6836 6.11749 13.3041C6.94702 13.9252 5.95249 14.3461 5.63319 13.7635C5.31379 13.1806 4.44259 11.6824 3.99005 11.3959C3.53809 11.1093 3.22024 11.2699 3.32677 11.8606C3.3797 12.1537 3.87187 12.6541 4.33189 13.1211C4.79841 13.5955 5.23163 14.0359 5.13908 14.1913C4.95525 14.5008 4.3078 13.8276 4.3078 13.8276C4.3078 13.8276 2.2801 11.9824 1.83921 12.4631C1.43241 12.9063 2.05975 13.283 3.02689 13.8635C3.10915 13.9129 3.19383 13.9638 3.28055 14.0163C4.38666 14.6859 4.47309 14.8626 4.31577 15.1156C4.25779 15.2092 3.8875 14.9869 3.43204 14.7134C2.65563 14.2473 1.63159 13.6326 1.48689 14.1828C1.36171 14.6589 2.11491 14.9507 2.7979 15.2151C3.36698 15.4356 3.8875 15.6372 3.81078 15.9108C3.73144 16.1945 3.30133 15.9579 2.83092 15.6992C2.30312 15.4087 1.72481 15.0905 1.53544 15.4496C1.17768 16.1284 4.00306 16.9277 4.02637 16.9335C4.93922 17.1703 7.25729 17.6719 8.06818 16.4846L8.06837 16.4874ZM11.8227 16.4874C11.2399 15.6326 11.2812 14.9909 12.0809 14.1916C12.8807 13.3924 13.3463 12.2232 13.3463 12.2232C13.3463 12.2232 13.52 11.5442 13.9162 11.6066C14.3124 11.669 14.6031 12.6836 13.7735 13.3041C12.9439 13.9247 13.9385 14.3461 14.2579 13.7635C14.5772 13.1806 15.4485 11.6824 15.9001 11.3959C16.3516 11.1094 16.67 11.2699 16.5635 11.8606C16.5105 12.1537 16.0184 12.6542 15.5583 13.122C15.0919 13.5963 14.6587 14.0367 14.7512 14.1922C14.935 14.5018 15.583 13.8282 15.583 13.8282C15.583 13.8282 17.6107 11.983 18.0516 12.4637C18.4584 12.9068 17.831 13.2836 16.8639 13.8641C16.7817 13.9134 16.6971 13.9642 16.6104 14.0167C15.5042 14.6863 15.4178 14.8631 15.5751 15.1161C15.6331 15.2097 16.0034 14.9874 16.4588 14.714C17.2353 14.2479 18.2592 13.6332 18.4039 14.1833C18.5291 14.6594 17.7759 14.9513 17.0929 15.2156C16.5238 15.436 16.0033 15.6375 16.08 15.9113C16.1594 16.195 16.5893 15.9583 17.0589 15.6996C17.5867 15.4091 18.165 15.0908 18.3544 15.45C18.7122 16.1293 15.8868 16.9281 15.8635 16.9339C14.9506 17.1713 12.6325 17.673 11.8226 16.4856L11.8227 16.4874Z" fill="#FFD21E"/>
<path d="M12.29 7.08397C12.4047 7.12457 12.4901 7.24819 12.5712 7.3657C12.681 7.52467 12.7831 7.67247 12.9399 7.58915C13.1249 7.49087 13.2765 7.33996 13.3756 7.15545C13.4748 6.97093 13.5169 6.76127 13.4968 6.55277C13.4819 6.3969 13.4325 6.24628 13.3523 6.11178C13.2721 5.97728 13.163 5.86221 13.0331 5.7749C12.9031 5.68762 12.7553 5.6303 12.6005 5.60699C12.4456 5.5837 12.2875 5.59505 12.1375 5.64022C11.937 5.70061 11.7589 5.8191 11.6257 5.98069C11.4925 6.14229 11.4102 6.33972 11.3891 6.54802C11.3681 6.75642 11.4094 6.96638 11.5077 7.15128C11.5803 7.28792 11.7415 7.22353 11.9117 7.15546C12.0451 7.10214 12.184 7.04658 12.29 7.08397ZM7.30038 7.08407C7.18569 7.12466 7.10023 7.24829 7.01905 7.36579C6.90931 7.52467 6.80715 7.67257 6.65041 7.58925C6.51222 7.51573 6.39209 7.41241 6.29857 7.28684C6.20506 7.16127 6.14057 7.01658 6.10969 6.86304C6.07881 6.70961 6.08231 6.55112 6.11998 6.39924C6.15776 6.24725 6.22865 6.10557 6.32761 5.98428C6.42676 5.86308 6.55145 5.76538 6.69285 5.69809C6.83424 5.63079 6.98885 5.59583 7.14539 5.59544C7.30194 5.5951 7.45664 5.62947 7.59832 5.69605C7.74001 5.76266 7.86519 5.85987 7.96482 5.98058C8.09806 6.14218 8.18041 6.33961 8.20149 6.54801C8.22246 6.75641 8.18119 6.96637 8.08282 7.15127C8.00998 7.28791 7.84877 7.22343 7.67863 7.15535C7.5453 7.10204 7.40643 7.04649 7.30038 7.08397V7.08407ZM11.518 11.6241C12.3087 11.001 12.5988 9.98384 12.5988 9.35747C12.5988 8.86219 12.2655 9.01806 11.7321 9.28211L11.7021 9.29706C11.2124 9.53955 10.56 9.86235 9.8453 9.86235C9.12968 9.86235 8.47796 9.53945 7.98852 9.29696C7.4378 9.02418 7.09237 8.85306 7.09237 9.35756C7.09237 10.0038 7.40138 11.0648 8.24994 11.6815C8.36182 11.4542 8.51933 11.2525 8.71278 11.089C8.90613 10.9254 9.13124 10.8037 9.37392 10.7311C9.4586 10.7059 9.54581 10.8516 9.63515 11.0008C9.72129 11.1448 9.80927 11.292 9.89891 11.292C9.99427 11.292 10.0881 11.147 10.1797 11.0053C10.2753 10.8573 10.3685 10.713 10.4588 10.7418C10.9129 10.8876 11.2927 11.2037 11.5183 11.6238L11.518 11.6241Z" fill="#32343D"/>
<path d="M11.5129 11.6268C11.1011 11.9514 10.5537 12.169 9.84067 12.169C9.17089 12.169 8.64716 11.9769 8.24512 11.6845C8.35709 11.4574 8.5147 11.2557 8.70805 11.0922C8.9014 10.9287 9.12651 10.8068 9.36909 10.7342C9.53545 10.6846 9.71161 11.2951 9.89398 11.2951C10.0893 11.2951 10.2774 10.6885 10.4539 10.7449C10.9078 10.8907 11.2875 11.2068 11.5134 11.6268H11.5129Z" fill="#FF323D"/>
<path d="M5.40759 7.96581C5.33244 8.0164 5.24803 8.05165 5.15927 8.06952C5.07047 8.08739 4.97903 8.08759 4.89017 8.07011C4.80131 8.05253 4.71673 8.01767 4.64137 7.96746C4.56601 7.91715 4.50134 7.85257 4.45103 7.77722C4.4007 7.70195 4.36573 7.61737 4.34809 7.52861C4.33049 7.43975 4.33058 7.34827 4.34838 7.25941C4.36619 7.17065 4.40135 7.08626 4.45181 7.011C4.50231 6.93582 4.56718 6.87135 4.64263 6.82124C4.79442 6.72054 4.98 6.68402 5.15859 6.71986C5.33718 6.75569 5.49441 6.86087 5.5956 7.01226C5.69679 7.16376 5.73388 7.34915 5.69863 7.52783C5.66338 7.70662 5.55869 7.86413 5.40759 7.96581ZM15.2548 7.96581C15.1796 8.0164 15.0952 8.05165 15.0064 8.06952C14.9177 8.08739 14.8262 8.08759 14.7373 8.07011C14.6485 8.05253 14.5639 8.01767 14.4885 7.96746C14.4132 7.91715 14.3485 7.85257 14.2982 7.77722C14.2478 7.70195 14.2128 7.61737 14.1953 7.52861C14.1777 7.43975 14.1778 7.34827 14.1956 7.25941C14.2133 7.17065 14.2485 7.08626 14.299 7.011C14.3495 6.93582 14.4143 6.87135 14.4898 6.82124C14.6416 6.72054 14.8272 6.68402 15.0058 6.71986C15.1844 6.75569 15.3415 6.86087 15.4428 7.01226C15.544 7.16376 15.5811 7.34915 15.5458 7.52783C15.5106 7.70662 15.4059 7.86413 15.2548 7.96581Z" fill="#FFAD03"/>
</svg>
