<svg width="20" height="20" viewBox="0 0 20 20" fill="none" xmlns="http://www.w3.org/2000/svg">
<g clip-path="url(#clip0_18905_2088)">
<path d="M0 7.41671V5.83337H3.91667V7.41671H2.83333V12.1667H3.91667V13.75H0V12.1667H1.08333V7.41671H0Z" fill="#EEEEEE"/>
<path d="M9.75008 9.91671C10.0834 9.58337 11.0001 8.75004 10.6667 7.50004C10.3334 6.33337 9.25008 5.83337 8.75008 5.83337H4.41675V7.50004H5.50008V12.25H4.41675V13.8334C4.41675 13.8334 8.41675 13.8334 8.83342 13.8334C9.33342 13.8334 10.3334 13.3334 10.5834 12.25C10.8334 11.1667 10.0834 10.25 9.66675 9.91671H9.75008ZM8.91675 12.25H7.25008V10.6667H8.91675V12.25ZM8.91675 9.00004H7.25008V7.41671H8.91675V9.00004Z" fill="#EEEEEE"/>
<path d="M11.0833 5.83337H14.2499L15.4999 9.50004L16.7499 5.83337H19.9166V7.41671H18.8333V12.1667H19.9166V13.75H17.1666V9.08337L15.4999 13.8334L13.8333 9.08337V13.8334H11.0833V12.25H12.1666V7.50004H11.0833V5.83337Z" fill="#EEEEEE"/>
</g>
<defs>
<clipPath id="clip0_18905_2088">
<rect width="20" height="8.33333" fill="white" transform="translate(0 5.83337)"/>
</clipPath>
</defs>
</svg>
