<svg width="20" height="20" viewBox="0 0 20 20" fill="none" xmlns="http://www.w3.org/2000/svg">
<path d="M0 7.58102V5.97021H3.88194V7.58102H2.7914V12.3634H3.87194V13.9842H0V12.3634H1.09055V7.58102H0Z" fill="#171723"/>
<path fill-rule="evenodd" clip-rule="evenodd" d="M4.43213 7.61141V5.98059H8.73428C9.25121 6.04729 10.3642 6.46552 10.6552 7.61141C10.9544 8.78947 10.1702 9.55688 9.77223 9.94629L9.7722 9.94633C9.75081 9.96725 9.73055 9.98709 9.71162 10.0058C9.70268 10.0147 9.70411 10.0289 9.71442 10.0361C10.1766 10.3595 10.9235 11.2948 10.6552 12.3838C10.3831 13.4883 9.36793 13.9246 8.89436 14.0046C8.42079 14.0846 4.44213 14.0046 4.44213 14.0046V12.3838H5.53268V7.61141H4.43213ZM7.21352 7.58139H8.89436V9.16218H7.21352V7.58139ZM8.89436 10.783H7.21352V12.3638H8.89436V10.783Z" fill="#171723"/>
<path d="M11.1055 5.96021H14.2871L15.5577 9.60203L16.8183 5.96021H19.9999V7.58102H18.8894V12.3534H19.9999V13.9742H17.2285V9.19182L15.5377 13.9742L13.8769 9.19182V13.9742H11.1055V12.3534H12.226V7.59102H11.1055V5.96021Z" fill="#171723"/>
</svg>
