<svg width="20" height="20" viewBox="0 0 20 20" fill="none" xmlns="http://www.w3.org/2000/svg">
<path d="M0.041748 7.58333V6H3.95841V7.58333H2.87508V12.3333H3.95841V13.9167H0.041748V12.3333H1.12508V7.58333H0.041748Z" fill="#171723"/>
<path d="M9.79175 10.0833C10.1251 9.75 11.0417 8.91667 10.7084 7.66667C10.3751 6.5 9.29175 6 8.79175 6H4.45841V7.66667H5.54175V12.4167H4.45841V14C4.45841 14 8.45841 14 8.87508 14C9.37508 14 10.3751 13.5 10.6251 12.4167C10.8751 11.3333 10.1251 10.4167 9.70841 10.0833H9.79175ZM8.95841 12.4167H7.29175V10.8333H8.95841V12.4167ZM8.95841 9.16667H7.29175V7.58333H8.95841V9.16667Z" fill="#171723"/>
<path d="M11.1251 6H14.2917L15.5417 9.66667L16.7917 6H19.9584V7.58333H18.8751V12.3333H19.9584V13.9167H17.2084V9.25L15.5417 14L13.8751 9.25V14H11.1251V12.4167H12.2084V7.66667H11.1251V6Z" fill="#171723"/>
</svg>
