<svg width="20" height="20" viewBox="0 0 20 20" fill="none" xmlns="http://www.w3.org/2000/svg">
<path d="M0 7.58102V5.97021H3.88194V7.58102H2.7914V12.3634H3.87194V13.9842H0V12.3634H1.09055V7.58102H0Z" fill="#171723"/>
<path fill-rule="evenodd" clip-rule="evenodd" d="M4.43213 7.61092V5.9801H8.73428C9.25121 6.0468 10.3642 6.46503 10.6552 7.61092C10.9544 8.78898 10.1702 9.55639 9.77224 9.94581C9.75085 9.96673 9.73055 9.9866 9.71162 10.0053C9.70268 10.0142 9.70411 10.0284 9.71442 10.0356C10.1766 10.359 10.9235 11.2943 10.6552 12.3833C10.3831 13.4879 9.36793 13.9241 8.89436 14.0041C8.42079 14.0842 4.44213 14.0041 4.44213 14.0041V12.3833H5.53268V7.61092H4.43213ZM7.21352 7.5809H8.89436V9.16169H7.21352V7.5809ZM8.89436 10.7825H7.21352V12.3633H8.89436V10.7825Z" fill="#171723"/>
<path d="M11.1055 5.96021H14.2871L15.5577 9.60203L16.8183 5.96021H19.9999V7.58102H18.8894V12.3534H19.9999V13.9742H17.2285V9.19182L15.5377 13.9742L13.8769 9.19182V13.9742H11.1055V12.3534H12.226V7.59102H11.1055V5.96021Z" fill="#171723"/>
</svg>
