<svg width="20" height="20" viewBox="0 0 20 20" fill="none" xmlns="http://www.w3.org/2000/svg">
<g clip-path="url(#clip0_18808_1756)">
<path d="M10 6.25C9.00544 6.25 8.05161 6.64509 7.34835 7.34835C6.64509 8.05161 6.25 9.00544 6.25 10V15C6.25 15.9946 6.64509 16.9484 7.34835 17.6517C8.05161 18.3549 9.00544 18.75 10 18.75C10.9946 18.75 11.9484 18.3549 12.6517 17.6517C13.3549 16.9484 13.75 15.9946 13.75 15V10C13.75 9.00544 13.3549 8.05161 12.6517 7.34835C11.9484 6.64509 10.9946 6.25 10 6.25ZM7.34375 11.1688H12.6562V13.825H7.34375V11.1688ZM10 17.6562C9.29653 17.653 8.62281 17.3721 8.12538 16.8746C7.62795 16.3772 7.34704 15.7035 7.34375 15V14.9188H12.6562V15C12.653 15.7035 12.3721 16.3772 11.8746 16.8746C11.3772 17.3721 10.7035 17.653 10 17.6562ZM12.6562 10.075H7.34375V10C7.34375 9.29552 7.6236 8.61989 8.12175 8.12175C8.61989 7.6236 9.29552 7.34375 10 7.34375C10.7045 7.34375 11.3801 7.6236 11.8783 8.12175C12.3764 8.61989 12.6562 9.29552 12.6562 10V10.075Z" fill="black"/>
<path d="M19.1625 12.0063L15 8.125V13.8125C15 14.4755 15.2634 15.1114 15.7322 15.5803C16.2011 16.0491 16.837 16.3125 17.5 16.3125C18.163 16.3125 18.7989 16.0491 19.2678 15.5803C19.7366 15.1114 20 14.4755 20 13.8125C19.9982 13.469 19.9225 13.1298 19.7779 12.8182C19.6334 12.5065 19.4235 12.2296 19.1625 12.0063ZM17.5 15.2188C17.127 15.2188 16.7694 15.0706 16.5056 14.8069C16.2419 14.5431 16.0938 14.1855 16.0938 13.8125V10.625L18.4187 12.7938C18.5586 12.9114 18.6717 13.0576 18.7503 13.2225C18.829 13.3874 18.8715 13.5673 18.875 13.75C18.8834 13.9373 18.8542 14.1243 18.7893 14.3001C18.7243 14.476 18.6249 14.637 18.4967 14.7739C18.3686 14.9107 18.2145 15.0206 18.0433 15.097C17.8721 15.1734 17.6874 15.2148 17.5 15.2188Z" fill="black"/>
<path d="M0 13.8125C0 14.4755 0.263392 15.1114 0.732233 15.5803C1.20107 16.0491 1.83696 16.3125 2.5 16.3125C3.16304 16.3125 3.79893 16.0491 4.26777 15.5803C4.73661 15.1114 5 14.4755 5 13.8125V8.125L0.8375 12.0063C0.578031 12.2309 0.369207 12.5081 0.224834 12.8195C0.0804603 13.1308 0.00382683 13.4693 0 13.8125ZM1.55 12.8375L3.90625 10.625V13.8125C3.90625 14.1855 3.75809 14.5431 3.49437 14.8069C3.23065 15.0706 2.87296 15.2188 2.5 15.2188C2.12704 15.2188 1.76935 15.0706 1.50563 14.8069C1.24191 14.5431 1.09375 14.1855 1.09375 13.8125C1.09452 13.6266 1.13573 13.4431 1.21451 13.2748C1.2933 13.1064 1.40778 12.9572 1.55 12.8375Z" fill="black"/>
<path d="M9.375 3.4375C9.375 3.00485 9.24671 2.58192 9.00634 2.22219C8.76597 1.86246 8.42433 1.58208 8.02462 1.41651C7.62491 1.25095 7.18507 1.20763 6.76074 1.29203C6.33641 1.37644 5.94663 1.58478 5.6407 1.8907C5.33478 2.19663 5.12644 2.58641 5.04203 3.01074C4.95763 3.43507 5.00095 3.87491 5.16651 4.27462C5.33208 4.67433 5.61246 5.01598 5.97219 5.25634C6.33192 5.49671 6.75485 5.625 7.1875 5.625C7.76766 5.625 8.32406 5.39453 8.7343 4.9843C9.14453 4.57406 9.375 4.01766 9.375 3.4375ZM6.09375 3.4375C6.09375 3.22118 6.1579 3.00971 6.27808 2.82985C6.39826 2.64998 6.56908 2.50979 6.76894 2.42701C6.9688 2.34422 7.18871 2.32256 7.40088 2.36477C7.61305 2.40697 7.80793 2.51114 7.9609 2.6641C8.11386 2.81707 8.21803 3.01195 8.26023 3.22412C8.30244 3.43629 8.28078 3.6562 8.19799 3.85606C8.11521 4.05592 7.97502 4.22674 7.79516 4.34692C7.61529 4.4671 7.40382 4.53125 7.1875 4.53125C6.89843 4.528 6.62211 4.41173 6.41769 4.20731C6.21328 4.00289 6.097 3.72657 6.09375 3.4375Z" fill="black"/>
<path d="M12.8125 1.25C12.3799 1.25 11.9569 1.3783 11.5972 1.61866C11.2375 1.85903 10.9571 2.20067 10.7915 2.60038C10.6259 3.00009 10.5826 3.43993 10.667 3.86426C10.7514 4.28859 10.9598 4.67837 11.2657 4.9843C11.5716 5.29022 11.9614 5.49856 12.3857 5.58297C12.8101 5.66737 13.2499 5.62405 13.6496 5.45849C14.0493 5.29292 14.391 5.01254 14.6313 4.65281C14.8717 4.29308 15 3.87015 15 3.4375C15 2.85734 14.7695 2.30094 14.3593 1.8907C13.9491 1.48047 13.3927 1.25 12.8125 1.25ZM12.8125 4.53125C12.5962 4.53125 12.3847 4.4671 12.2048 4.34692C12.025 4.22674 11.8848 4.05592 11.802 3.85606C11.7192 3.6562 11.6976 3.43629 11.7398 3.22412C11.782 3.01195 11.8861 2.81707 12.0391 2.6641C12.1921 2.51114 12.387 2.40697 12.5991 2.36477C12.8113 2.32256 13.0312 2.34422 13.2311 2.42701C13.4309 2.50979 13.6017 2.64998 13.7219 2.82985C13.8421 3.00971 13.9062 3.22118 13.9062 3.4375C13.903 3.72657 13.7867 4.00289 13.5823 4.20731C13.3779 4.41173 13.1016 4.528 12.8125 4.53125Z" fill="black"/>
</g>
<defs>
<clipPath id="clip0_18808_1756">
<rect width="20" height="20" fill="white"/>
</clipPath>
</defs>
</svg>
