<svg width="20" height="20" viewBox="0 0 20 20" fill="none" xmlns="http://www.w3.org/2000/svg">
<path d="M0 7.58102V5.97021H3.88194V7.58102H2.7914V12.3634H3.87194V13.9842H0V12.3634H1.09055V7.58102H0Z" fill="#171723"/>
<path fill-rule="evenodd" clip-rule="evenodd" d="M4.43213 7.61165V5.98083H8.73428C9.25121 6.04753 10.3642 6.46576 10.6552 7.61165C10.9544 8.78972 10.1702 9.55713 9.77223 9.94654C9.75085 9.96746 9.73055 9.98733 9.71162 10.0061C9.70268 10.0149 9.70411 10.0291 9.71442 10.0364C10.1766 10.3597 10.9235 11.2951 10.6552 12.384C10.3831 13.4886 9.36793 13.9248 8.89436 14.0048C8.42079 14.0849 4.44213 14.0048 4.44213 14.0048V12.384H5.53268V7.61165H4.43213ZM7.21352 7.58164H8.89436V9.16243H7.21352V7.58164ZM8.89436 10.7832H7.21352V12.364H8.89436V10.7832Z" fill="#171723"/>
<path d="M11.1055 5.96021H14.2871L15.5577 9.60203L16.8183 5.96021H19.9999V7.58102H18.8894V12.3534H19.9999V13.9742H17.2285V9.19182L15.5377 13.9742L13.8769 9.19182V13.9742H11.1055V12.3534H12.226V7.59102H11.1055V5.96021Z" fill="#171723"/>
</svg>
