<svg width="20" height="20" viewBox="0 0 20 20" fill="none" xmlns="http://www.w3.org/2000/svg">
<g clip-path="url(#clip0_10314_144689)">
<path d="M15.4211 7.79669H4.55527C4.42043 7.79669 4.29112 7.74313 4.19578 7.64778C4.10044 7.55244 4.04688 7.42313 4.04688 7.2883C4.04688 7.15346 4.10044 7.02415 4.19578 6.92881C4.29112 6.83347 4.42043 6.77991 4.55527 6.77991H15.4211C15.556 6.77991 15.6853 6.83347 15.7806 6.92881C15.876 7.02415 15.9295 7.15346 15.9295 7.2883C15.9295 7.42313 15.876 7.55244 15.7806 7.64778C15.6853 7.74313 15.556 7.79669 15.4211 7.79669Z" fill="#171723"/>
<path d="M15.4211 5.0849H4.55527C4.42043 5.0849 4.29112 5.03133 4.19578 4.93599C4.10044 4.84065 4.04688 4.71134 4.04688 4.57651C4.04688 4.44167 4.10044 4.31236 4.19578 4.21702C4.29112 4.12168 4.42043 4.06812 4.55527 4.06812H15.4211C15.556 4.06812 15.6853 4.12168 15.7806 4.21702C15.876 4.31236 15.9295 4.44167 15.9295 4.57651C15.9295 4.71134 15.876 4.84065 15.7806 4.93599C15.6853 5.03133 15.556 5.0849 15.4211 5.0849Z" fill="#171723"/>
<path d="M15.4211 10.5074H4.55527C4.42043 10.5074 4.29112 10.4538 4.19578 10.3585C4.10044 10.2631 4.04688 10.1338 4.04688 9.99899C4.04688 9.86416 4.10044 9.73485 4.19578 9.6395C4.29112 9.54416 4.42043 9.4906 4.55527 9.4906H15.4211C15.556 9.4906 15.6853 9.54416 15.7806 9.6395C15.876 9.73485 15.9295 9.86416 15.9295 9.99899C15.9295 10.1338 15.876 10.2631 15.7806 10.3585C15.6853 10.4538 15.556 10.5074 15.4211 10.5074Z" fill="#171723"/>
<path d="M15.4211 13.1883H4.55527C4.42043 13.1883 4.29112 13.1347 4.19578 13.0394C4.10044 12.944 4.04688 12.8147 4.04688 12.6799C4.04688 12.5451 4.10044 12.4158 4.19578 12.3204C4.29112 12.2251 4.42043 12.1715 4.55527 12.1715H15.4211C15.556 12.1715 15.6853 12.2251 15.7806 12.3204C15.876 12.4158 15.9295 12.5451 15.9295 12.6799C15.9295 12.8147 15.876 12.944 15.7806 13.0394C15.6853 13.1347 15.556 13.1883 15.4211 13.1883Z" fill="#171723"/>
<path d="M15.3872 20H4.58888C3.79646 19.9992 3.03671 19.6841 2.47638 19.1237C1.91605 18.5634 1.6009 17.8037 1.6001 17.0112V2.98981C1.60085 2.19727 1.91595 1.43739 2.47626 0.876888C3.03657 0.316381 3.79635 0.00102288 4.58888 0H15.3872C16.1798 0.000984768 16.9397 0.316294 17.5002 0.876772C18.0607 1.43725 18.376 2.19714 18.377 2.98977V17.0112C18.376 17.8037 18.0606 18.5635 17.5001 19.1238C16.9396 19.6841 16.1797 19.9992 15.3872 20ZM4.58888 1.01678C4.06592 1.01746 3.56458 1.22558 3.19487 1.59547C2.82517 1.96536 2.6173 2.4668 2.61688 2.98977V17.0112C2.6175 17.534 2.82546 18.0352 3.19515 18.4049C3.56484 18.7746 4.06607 18.9826 4.58888 18.9832H15.3872C15.9102 18.9828 16.4116 18.7749 16.7815 18.4052C17.1514 18.0355 17.3595 17.5342 17.3602 17.0112V2.98977C17.3597 2.46665 17.1517 1.96508 16.7818 1.59517C16.4119 1.22527 15.9103 1.01725 15.3872 1.01678H4.58888Z" fill="#171723"/>
</g>
<defs>
<clipPath id="clip0_10314_144689">
<rect width="20" height="20" fill="white"/>
</clipPath>
</defs>
</svg>
