<svg width="20" height="20" viewBox="0 0 20 20" fill="none" xmlns="http://www.w3.org/2000/svg">
<g clip-path="url(#clip0_18494_1827)">
<path d="M18.6 5H16.4C15.6 5 15 4.4 15 3.6V1.4C15 0.6 15.6 0 16.4 0H18.6C19.4 0 20 0.6 20 1.4V3.6C20 4.4 19.4 5 18.6 5ZM16.4 1C16.2 1 16 1.2 16 1.4V3.6C16 3.8 16.2 4 16.4 4H18.6C18.8 4 19 3.8 19 3.6V1.4C19 1.2 18.8 1 18.6 1H16.4Z" fill="black"/>
<path d="M18.6 20H16.4C15.6 20 15 19.4 15 18.6V16.4C15 15.6 15.6 15 16.4 15H18.6C19.4 15 20 15.6 20 16.4V18.6C20 19.4 19.4 20 18.6 20ZM16.4 16C16.2 16 16 16.2 16 16.4V18.6C16 18.8 16.2 19 16.4 19H18.6C18.8 19 19 18.8 19 18.6V16.4C19 16.2 18.8 16 18.6 16H16.4Z" fill="black"/>
<path d="M3.6 5H1.4C0.6 5 0 4.4 0 3.6V1.4C0 0.6 0.6 0 1.4 0H3.6C4.4 0 5 0.6 5 1.4V3.6C5 4.4 4.4 5 3.6 5ZM1.4 1C1.2 1 1 1.2 1 1.4V3.6C1 3.8 1.2 4 1.4 4H3.6C3.8 4 4 3.8 4 3.6V1.4C4 1.2 3.8 1 3.6 1H1.4Z" fill="black"/>
<path d="M3.6 20H1.4C0.6 20 0 19.4 0 18.6V16.4C0 15.6 0.6 15 1.4 15H3.6C4.4 15 5 15.6 5 16.4V18.6C5 19.4 4.4 20 3.6 20ZM1.4 16C1.2 16 1 16.2 1 16.4V18.6C1 18.8 1.2 19 1.4 19H3.6C3.8 19 4 18.8 4 18.6V16.4C4 16.2 3.8 16 3.6 16H1.4Z" fill="black"/>
<path d="M2 15V5H3V15H2Z" fill="black"/>
<path d="M5 18H15V17H5V18Z" fill="black"/>
<path d="M15 3H5V2H15V3Z" fill="black"/>
<path d="M18 15V5H17V15H18Z" fill="black"/>
<path fill-rule="evenodd" clip-rule="evenodd" d="M11.9 12.2C9.5 10.1 6.2 9.19996 3 10.1V11.1C3.4 11.1 3.7 11 4 10.9C4 10.9 4 10.9 4.1 10.9C4.3 10.9 4.4 10.9 4.5 10.9C7 10.7 9.3 11.5 11.1 13.1L11.7 13.6L12.3 13.2C13.3 12.5 14.4 12.3 15.5 12.3C16 12.3 16.4 12.3 16.8 12.3V11.5C15.1 11.1 13.3 11.3 11.7 12.3L11.9 12.2Z" fill="black"/>
<path d="M13.5 5C14.3 5 15 5.7 15 6.5C15 7.3 14.3 8 13.5 8C12.7 8 12 7.3 12 6.5C12 5.7 12.7 5 13.5 5Z" fill="black"/>
</g>
<defs>
<clipPath id="clip0_18494_1827">
<rect width="20" height="20" fill="white"/>
</clipPath>
</defs>
</svg>
