<svg width="20" height="20" viewBox="0 0 20 20" fill="none" xmlns="http://www.w3.org/2000/svg">
<g clip-path="url(#clip0_18494_1825)">
<path fill-rule="evenodd" clip-rule="evenodd" d="M15.0001 0C15.3334 0 15.5834 0.25 15.6667 0.5L16.0001 2.08333C16.1667 2.83333 16.7501 3.41667 17.5001 3.58333L19.0834 3.91667C19.4167 3.91667 19.5834 4.25 19.5834 4.58333C19.5834 4.91667 19.3334 5.16667 19.0834 5.25L17.5001 5.58333C16.7501 5.75 16.1667 6.33333 16.0001 7.08333L15.6667 8.66667C15.6667 9 15.3334 9.16667 15.0001 9.16667C14.6667 9.16667 14.4167 8.91667 14.3334 8.66667L14.0001 7.08333C13.8334 6.33333 13.2501 5.75 12.5001 5.58333L10.9167 5.25C10.5834 5.25 10.4167 4.91667 10.4167 4.58333C10.4167 4.25 10.6667 4 10.9167 3.91667L12.5001 3.58333C13.2501 3.41667 13.8334 2.83333 14.0001 2.08333L14.3334 0.5C14.3334 0.166667 14.6667 0 15.0001 0ZM15.0001 3.25C14.6667 3.91667 14.1667 4.41667 13.5834 4.66667C14.2501 5 14.7501 5.5 15.0001 6.08333C15.3334 5.41667 15.8334 4.91667 16.4167 4.66667C15.7501 4.33333 15.2501 3.83333 15.0001 3.25Z" fill="black"/>
<path fill-rule="evenodd" clip-rule="evenodd" d="M2.99992 4H9.49992C9.41659 4.16667 9.33325 4.41667 9.33325 4.66667C9.33325 4.91667 9.33325 5.16667 9.49992 5.33333H2.99992C2.24992 5.33333 1.66659 5.91667 1.66659 6.66667V12.3333C4.58325 11.5833 7.58325 12.3333 9.66659 14.25C11.0833 13.3333 12.7499 13.0833 14.3333 13.5V10.25C14.4999 10.3333 14.7499 10.4167 14.9999 10.4167C15.2499 10.4167 15.4999 10.4167 15.6666 10.25V14.4167V17.3333C15.6666 18.8333 14.4999 20 12.9999 20H2.99992C1.49992 20 0.333252 18.8333 0.333252 17.3333V6.66667C0.333252 5.16667 1.49992 4 2.99992 4ZM1.66659 13.6667V17.3333C1.66659 18.0833 2.24992 18.6667 2.99992 18.6667H11.1666C9.91659 14.8333 5.83325 12.5833 1.83325 13.6667C1.83325 13.6667 1.74992 13.6667 1.66659 13.6667ZM12.5833 18.6667H12.9999C13.7499 18.6667 14.3333 18.0833 14.3333 17.3333V14.8333C13.1666 14.4167 11.8333 14.5833 10.6666 15.1667C11.4999 16.1667 12.1666 17.3333 12.4999 18.6667H12.5833Z" fill="black"/>
<path fill-rule="evenodd" clip-rule="evenodd" d="M11.0833 7C10.0833 7 9.25 7.83333 9.25 8.83333C9.25 9.83333 10.0833 10.6667 11.0833 10.6667C12.0833 10.6667 12.9167 9.83333 12.9167 8.83333C12.9167 7.83333 12.0833 7 11.0833 7Z" fill="black"/>
</g>
<defs>
<clipPath id="clip0_18494_1825">
<rect width="20" height="20" fill="white"/>
</clipPath>
</defs>
</svg>
