<svg width="20" height="20" viewBox="0 0 20 20" fill="none" xmlns="http://www.w3.org/2000/svg">
<g clip-path="url(#clip0_10277_158601)">
<g clip-path="url(#clip1_10277_158601)">
<path d="M15.9132 0H8.08681C7.00325 0.00107672 5.96438 0.429922 5.19819 1.19242C4.432 1.95492 4.00108 2.98879 4 4.06712V6.9447C4 7.07953 4.05382 7.20884 4.14962 7.30418C4.24543 7.39952 4.37536 7.45309 4.51085 7.45309C4.64634 7.45309 4.77627 7.39952 4.87208 7.30418C4.96788 7.20884 5.0217 7.07953 5.0217 6.9447V4.06712C5.02259 3.25839 5.3458 2.48304 5.92043 1.91118C6.49506 1.33932 7.27416 1.01766 8.08681 1.01678H15.9132C16.7258 1.01766 17.5049 1.33932 18.0796 1.91118C18.6542 2.48304 18.9774 3.25839 18.9783 4.06712V15.9329C18.9774 16.7416 18.6542 17.517 18.0796 18.0888C17.5049 18.6607 16.7258 18.9823 15.9132 18.9832H8.08681C7.27416 18.9823 6.49506 18.6607 5.92043 18.0888C5.3458 17.517 5.02259 16.7416 5.0217 15.9329V13.0454C5.0217 12.9105 4.96788 12.7812 4.87208 12.6859C4.77627 12.5906 4.64634 12.537 4.51085 12.537C4.37536 12.537 4.24543 12.5906 4.14962 12.6859C4.05382 12.7812 4 12.9105 4 13.0454V15.9329C4.00108 17.0112 4.432 18.0451 5.19819 18.8076C5.96438 19.5701 7.00325 19.9989 8.08681 20H15.9132C16.9968 19.9989 18.0356 19.5701 18.8018 18.8076C19.568 18.0451 19.9989 17.0112 20 15.9329V4.06712C19.9989 2.98879 19.568 1.95492 18.8018 1.19242C18.0356 0.429922 16.9968 0.00107672 15.9132 0Z" fill="#171723"/>
<path d="M7.22532 11.9646C7.17946 12.0213 7.14317 12.0888 7.11854 12.163C7.09392 12.2372 7.08144 12.3167 7.08184 12.3969C7.08224 12.4771 7.09551 12.5564 7.12087 12.6302C7.14624 12.704 7.1832 12.7709 7.22962 12.827C7.27605 12.883 7.33101 12.9272 7.39133 12.9569C7.45165 12.9866 7.51614 13.0012 7.58107 12.9999C7.646 12.9986 7.71008 12.9815 7.76961 12.9494C7.82913 12.9174 7.88293 12.8711 7.92788 12.8132L9.8657 10.3656C9.90826 10.3109 9.94201 10.2467 9.96517 10.1764L9.96936 10.1701L9.96948 10.1682C9.99947 10.0689 10.0075 9.9615 9.99288 9.85706C9.99014 9.83251 9.98607 9.8082 9.9807 9.78432C9.96085 9.68003 9.91845 9.58435 9.85803 9.50748L7.92305 7.16891C7.8296 7.05821 7.70454 6.99753 7.57505 7.00008C7.44557 7.00262 7.32213 7.06819 7.23158 7.18251C7.14102 7.29684 7.09067 7.45069 7.09147 7.61061C7.09227 7.77053 7.14415 7.9236 7.23584 8.03654L8.30986 9.33443H0.491414C0.361083 9.33443 0.23609 9.39837 0.143932 9.51218C0.0517739 9.62598 0 9.78034 0 9.94129C0 10.1022 0.0517739 10.2566 0.143932 10.3704C0.23609 10.4842 0.361083 10.5482 0.491414 10.5482H8.34671L7.22532 11.9646Z" fill="#171723"/>
</g>
</g>
<defs>
<clipPath id="clip0_10277_158601">
<rect width="20" height="20" fill="white"/>
</clipPath>
<clipPath id="clip1_10277_158601">
<rect width="20" height="20" fill="white"/>
</clipPath>
</defs>
</svg>
