<svg width="20" height="20" viewBox="0 0 20 20" fill="none" xmlns="http://www.w3.org/2000/svg">
<path fill-rule="evenodd" clip-rule="evenodd" d="M11.022 0.23807L18.7143 4.02843C19.1003 4.21856 19.4252 4.5126 19.6524 4.87729C19.8796 5.24199 20 5.66281 20 6.09218V13.9078C20 14.3372 19.8796 14.758 19.6524 15.1227C19.4252 15.4874 19.1003 15.7814 18.7143 15.9716L11.022 19.7619C10.7042 19.9185 10.3545 20 10 20C9.64552 20 9.29581 19.9185 8.97799 19.7619L1.28568 15.9716C0.899747 15.7814 0.574822 15.4874 0.347626 15.1227C0.12043 14.758 1.89506e-05 14.3372 0 13.9078V6.0922C2.42995e-05 5.66283 0.120437 5.24203 0.347633 4.87733C0.574828 4.51264 0.89975 4.2186 1.28568 4.02843L8.97799 0.23807C9.29581 0.0814637 9.64552 0 10 0C10.3545 0 10.7042 0.0814637 11.022 0.23807ZM15.1593 11.3132L10.5439 15.9285C10.2435 16.2289 9.75648 16.2289 9.45607 15.9285L4.84069 11.3132C4.54028 11.0128 4.54028 10.5257 4.84069 10.2253C5.14109 9.9249 5.62814 9.9249 5.92854 10.2253L9.23077 13.5275V4.61539C9.23077 4.19055 9.57517 3.84615 10 3.84615C10.4248 3.84615 10.7692 4.19055 10.7692 4.61539V13.5275L14.0715 10.2253C14.3719 9.9249 14.8589 9.9249 15.1593 10.2253C15.4597 10.5257 15.4597 11.0128 15.1593 11.3132Z" fill="#171723"/>
</svg>
