<svg width="20" height="20" viewBox="0 0 20 20" fill="none" xmlns="http://www.w3.org/2000/svg">
<path d="M0 8.00001C0 7.4477 0.447711 6.99999 1.00001 6.99999C1.55231 6.99999 2.00003 7.4477 2.00003 8.00001V12C2.00003 12.5523 1.55231 13 1.00001 13C0.447711 13 0 12.5523 0 12V8.00001ZM4.49996 5.50001C4.49996 4.9477 4.94767 4.49999 5.49997 4.49999C6.05228 4.49999 6.49999 4.9477 6.49999 5.50001V14.5C6.49999 15.0523 6.05228 15.5 5.49997 15.5C4.94767 15.5 4.49996 15.0523 4.49996 14.5V5.50001ZM8.99999 8.00001C8.99999 7.4477 9.4477 6.99999 10 6.99999C10.5523 6.99999 11 7.4477 11 8.00001V12C11 12.5523 10.5523 13 10 13C9.4477 13 8.99999 12.5523 8.99999 12V8.00001ZM18 8.00001C18 7.4477 18.4477 6.99999 19 6.99999C19.5523 6.99999 20 7.4477 20 8.00001V12C20 12.5523 19.5523 13 19 13C18.4477 13 18 12.5523 18 12V8.00001ZM13.5 5.50001C13.5 4.9477 13.9477 4.49999 14.5 4.49999C15.0523 4.49999 15.5 4.9477 15.5 5.50001V14.5C15.5 15.0523 15.0523 15.5 14.5 15.5C13.9477 15.5 13.5 15.0523 13.5 14.5V5.50001Z" fill="black"/>
</svg>
