<svg width="20" height="20" viewBox="0 0 20 20" fill="none" xmlns="http://www.w3.org/2000/svg">
<g clip-path="url(#clip0_10825_131869)">
<path d="M10 0C4.48568 0 0 4.48568 0 10C0 15.5143 4.48568 20 10 20C15.5143 20 20 15.5143 20 10C20 4.48568 15.5143 0 10 0ZM10 18.8889C5.09874 18.8889 1.11111 14.9013 1.11111 10C1.11111 5.09874 5.09874 1.11111 10 1.11111C14.9013 1.11111 18.8889 5.09874 18.8889 10C18.8889 14.9013 14.9013 18.8889 10 18.8889Z" fill="#171723"/>
<path d="M10.8262 14.3691C10.2471 13.8604 11.2264 11.4521 11.4643 10.5014C11.5777 10.0482 11.6099 9.24608 11.0948 8.66971C10.7232 8.25392 10.2972 7.82973 7.77483 8.82698L7.62354 9.45008C7.62354 9.45008 9.68748 8.69087 9.14935 10.6365C8.61115 12.5821 7.80372 14.1918 8.81101 15.0855C9.81829 15.9794 11.6264 15.1803 12.1476 14.9365L12.3003 14.3142C12.3003 14.3142 11.4053 14.8778 10.8262 14.3691V14.3691Z" fill="#171723"/>
<path d="M11.0818 7.09001C11.7966 7.09001 12.376 6.51057 12.376 5.7958C12.376 5.08102 11.7966 4.50159 11.0818 4.50159C10.367 4.50159 9.7876 5.08102 9.7876 5.7958C9.7876 6.51057 10.367 7.09001 11.0818 7.09001Z" fill="#171723"/>
</g>
<defs>
<clipPath id="clip0_10825_131869">
<rect width="20" height="20" fill="white"/>
</clipPath>
</defs>
</svg>
