<svg width="20" height="20" viewBox="0 0 20 20" fill="none" xmlns="http://www.w3.org/2000/svg">
<g clip-path="url(#clip0_17731_32988)">
<path d="M9.50028 14.7587C5.5482 15.1232 1.42902 14.549 0.852068 11.4604C0.569825 9.93788 1.26437 8.32335 2.18449 7.31984V6.78397C0.526986 8.23764 -0.371291 10.077 0.146108 12.2498C0.807018 15.0367 4.34138 16.6148 9.73758 16.0908C11.8735 15.8838 14.6669 15.197 16.6102 14.1296V12.6144C14.8465 13.6652 11.93 14.5333 9.50028 14.7587ZM19.9114 6.74777C18.9739 2.17102 10.0876 1.88087 4.35929 5.3678V5.75293C10.081 2.81131 18.197 2.82919 18.936 7.04521C19.1839 8.43986 18.3983 9.89283 16.9948 10.7294V11.8234C18.6831 11.2041 20.4149 9.20116 19.9114 6.74777Z" fill="#0E7DC2"/>
<path d="M16.2904 6.0813H15.2542V10.6964C15.2542 11.2372 15.5157 11.7076 16.2904 11.7827V6.0813ZM3.95224 7.76633H2.91414L2.91357 10.7815C2.91357 11.3243 3.17587 11.7941 3.95224 11.8679V7.76633ZM2.91414 6.22168H3.94901V7.20392H2.91414V6.22168ZM10.1579 11.8201C9.31915 11.8201 8.96422 11.2371 8.96422 10.6629V6.65948H9.9914V7.76633H10.765V8.596H9.9914V10.5995C9.9914 10.8336 10.1026 10.9641 10.3467 10.9641H10.765V11.8201L10.1579 11.8201ZM12.048 10.1145C12.048 10.6402 12.3767 11.0265 12.9583 11.0265C13.4141 11.0265 13.6387 10.9 13.9018 10.6402L14.5365 11.2448C14.1295 11.6468 13.7032 11.8912 12.9507 11.8912C11.9677 11.8912 11.0259 11.3547 11.0259 9.79064C11.0259 8.45347 11.8489 7.69762 12.928 7.69762C14.0249 7.69762 14.6553 8.58248 14.6553 9.744V10.1146H12.048M12.8829 8.54716C12.5313 8.54716 12.2612 8.72824 12.1467 8.97249C12.08 9.1193 12.0556 9.2337 12.048 9.41411H13.631C13.611 8.97249 13.4108 8.54716 12.8829 8.54716ZM6.74209 8.596C7.04329 8.596 7.16851 8.74492 7.16851 8.9866V11.8261H8.19593V8.98063C8.19593 8.40407 7.88872 7.76742 6.98651 7.76742L4.86421 7.76633V11.8261H5.89202V8.596H6.74209ZM17.4053 6.90594C17.1769 6.90594 16.9946 6.72174 16.9946 6.4936C16.9946 6.26656 17.1769 6.0813 17.4053 6.0813C17.6326 6.0813 17.8193 6.26656 17.8193 6.4936C17.8193 6.72174 17.6326 6.90594 17.4053 6.90594ZM17.4053 6.15005C17.2171 6.15005 17.0657 6.30564 17.0657 6.4936C17.0657 6.68266 17.2171 6.83551 17.4053 6.83551C17.5935 6.83551 17.7498 6.68266 17.7498 6.4936C17.7498 6.30564 17.5936 6.15005 17.4053 6.15005ZM17.5881 6.74073H17.5111C17.5078 6.74069 17.5045 6.7397 17.5018 6.73788C17.499 6.73606 17.4968 6.73348 17.4954 6.73045L17.3912 6.5533C17.3879 6.5495 17.3793 6.54519 17.3766 6.54519H17.3289V6.72177C17.3289 6.73048 17.3229 6.74077 17.3115 6.74077H17.2421C17.2317 6.74077 17.2247 6.73048 17.2247 6.72177V6.27636C17.2247 6.2503 17.2334 6.23959 17.2562 6.23633C17.2811 6.23362 17.3462 6.23036 17.3826 6.23036C17.5112 6.23036 17.5867 6.26821 17.5867 6.38742V6.39613C17.5867 6.46976 17.5503 6.5099 17.4939 6.5278L17.6024 6.71254C17.6042 6.71666 17.6051 6.72111 17.6051 6.7256C17.605 6.73259 17.6012 6.74073 17.5881 6.74073ZM17.4883 6.38742C17.4883 6.33766 17.4574 6.32193 17.3912 6.32193H17.3256V6.46323C17.3359 6.46323 17.3825 6.46541 17.3912 6.46541C17.4574 6.46541 17.4883 6.44332 17.4883 6.39613V6.38742Z" fill="#0E7DC2"/>
</g>
<defs>
<clipPath id="clip0_17731_32988">
<rect width="20" height="13.192" fill="white" transform="translate(0 3)"/>
</clipPath>
</defs>
</svg>
