<svg width="20" height="20" viewBox="0 0 20 20" fill="none" xmlns="http://www.w3.org/2000/svg">
<path d="M1.57423 5.89719H0V7.47142H1.57423V5.89719Z" fill="#0469AB"/>
<path d="M1.53501 14.0993V8.42426H0.0392151V14.0937H1.53501V14.0993ZM11.4398 14.1553V12.766C11.2213 12.766 11.0364 12.7548 10.902 12.7324C10.7451 12.71 10.6274 12.6539 10.549 12.5755C10.4706 12.4971 10.4202 12.385 10.3922 12.2338C10.3697 12.0937 10.3585 11.9088 10.3585 11.6848V9.70717H11.4398V8.42426H10.3585V6.21697H8.86274V11.7016C8.86274 12.1666 8.90196 12.5587 8.98039 12.8724C9.05882 13.1806 9.19328 13.4327 9.37815 13.6231C9.56302 13.8136 9.80952 13.9481 10.1064 14.0321C10.409 14.1161 10.7899 14.1553 11.2437 14.1553H11.4398ZM20 14.0993V5.78H18.5042V14.0993H20ZM7.42297 8.98448C7.0084 8.5363 6.42577 8.31221 5.68627 8.31221C5.32773 8.31221 4.9972 8.38504 4.70588 8.5307C4.40896 8.67636 4.16246 8.87804 3.96078 9.13574L3.88235 9.24218V9.14694V8.42426H2.40896V14.0937H3.89356V11.0741V11.2814C3.89356 11.2478 3.89356 11.2142 3.89356 11.1806C3.91036 10.6483 4.03921 10.2562 4.28571 10.0041C4.54902 9.73518 4.86835 9.60073 5.23249 9.60073C5.66386 9.60073 5.9944 9.73518 6.21288 9.99288C6.42577 10.2506 6.53781 10.6147 6.53781 11.0797V11.0965V14.0937H8.04482V10.878C8.05042 10.0713 7.83753 9.43266 7.42297 8.98448ZM17.7311 11.2534C17.7311 10.8444 17.6583 10.4635 17.5182 10.1049C17.3725 9.75199 17.1709 9.43826 16.9188 9.16935C16.6611 8.90045 16.3529 8.69316 15.9944 8.5419C15.6359 8.39064 15.2381 8.31781 14.8067 8.31781C14.3978 8.31781 14.0112 8.39624 13.6527 8.54751C13.2941 8.70437 12.9804 8.91165 12.7171 9.17496C12.4538 9.43826 12.2409 9.75199 12.0896 10.1105C11.9328 10.4691 11.8599 10.8556 11.8599 11.2646C11.8599 11.6736 11.9328 12.0601 12.0784 12.4187C12.2241 12.7772 12.4314 13.0909 12.6891 13.3542C12.9468 13.6175 13.2661 13.8304 13.6359 13.9817C14.0056 14.1385 14.4146 14.217 14.8515 14.217C16.1176 14.217 16.902 13.6399 17.3725 13.1021L16.2969 12.2842C16.0728 12.5531 15.535 12.9173 14.8627 12.9173C14.4426 12.9173 14.0952 12.822 13.8319 12.6259C13.5686 12.4355 13.3894 12.1666 13.2941 11.836L13.2773 11.7856H17.7311V11.2534ZM13.2885 10.7324C13.2885 10.3178 13.7647 9.59512 14.7899 9.58952C15.8151 9.58952 16.2969 10.3122 16.2969 10.7268L13.2885 10.7324Z" fill="#020202"/>
</svg>
