<svg width="20" height="20" viewBox="0 0 20 20" fill="none" xmlns="http://www.w3.org/2000/svg">
<g clip-path="url(#clip0_10842_132781)">
<path d="M18.5651 9.5297H20V5.70394C20 4.6582 19.1523 3.8105 18.1066 3.8105H14.2808V2.37556C14.2808 1.06357 13.2172 0 11.9053 0C10.5933 0 9.5297 1.06357 9.5297 2.37556V3.8105H5.70394C4.65826 3.8105 3.8105 4.65819 3.8105 5.70394V9.5297H2.37556C1.06357 9.5297 0 10.5933 0 11.9053C0 13.2172 1.06357 14.2807 2.37556 14.2807H3.8105V18.1066C3.8105 19.1522 4.65825 20 5.70394 20H9.5297V18.5651C9.5297 17.2531 10.5933 16.1895 11.9053 16.1895C13.2172 16.1895 14.2808 17.2531 14.2808 18.5651V20H18.1066C19.1523 20 20 19.1523 20 18.1066V14.2807H18.5651C17.2531 14.2807 16.1895 13.2172 16.1895 11.9053C16.1895 10.5933 17.2531 9.5297 18.5651 9.5297Z" fill="#171723"/>
</g>
<defs>
<clipPath id="clip0_10842_132781">
<rect width="20" height="20" fill="white"/>
</clipPath>
</defs>
</svg>
