<svg width="20" height="20" viewBox="0 0 20 20" fill="none" xmlns="http://www.w3.org/2000/svg">
<path d="M5.47335 13.8571C5.47657 14.0421 5.4124 14.2219 5.29281 14.363C5.17322 14.5041 5.00637 14.5969 4.8234 14.6241H0.884665C0.712436 14.6236 0.5474 14.555 0.425615 14.4332C0.30383 14.3114 0.235196 14.1464 0.234709 13.9741C0.229412 13.7886 0.292841 13.6077 0.412809 13.4662C0.532778 13.3246 0.700824 13.2324 0.884665 13.2072H2.15858V7.66962L1.20964 8.51456C1.05538 8.63144 0.864339 8.68915 0.67117 8.67723C0.478001 8.6653 0.295505 8.58453 0.156792 8.44957C0.0486515 8.31539 -0.00702854 8.14647 0.00012436 7.97428C0.00727726 7.8021 0.0767755 7.63838 0.195673 7.51363L2.4316 5.49871C2.53358 5.42562 2.65253 5.37977 2.77718 5.3655C2.90184 5.35123 3.02807 5.36902 3.14393 5.41719C3.25979 5.46535 3.36143 5.5423 3.43923 5.64073C3.51703 5.73917 3.56842 5.85583 3.58852 5.97968V13.2072H4.82337C4.90896 13.2063 4.99386 13.2226 5.0731 13.2549C5.15234 13.2873 5.22433 13.3351 5.28485 13.3957C5.34538 13.4562 5.39323 13.5282 5.42559 13.6074C5.45796 13.6867 5.4742 13.7715 5.47335 13.8571Z" fill="#171723"/>
<path d="M12.0944 14.6178H7.12836C7.04299 14.6178 6.95846 14.601 6.87958 14.5684C6.8007 14.5357 6.72903 14.4879 6.66866 14.4275C6.6083 14.3671 6.56043 14.2955 6.52778 14.2166C6.49513 14.1377 6.47836 14.0532 6.47841 13.9678C6.47319 13.8575 6.49155 13.7473 6.53227 13.6447C6.57298 13.542 6.63512 13.4492 6.71452 13.3724L9.56697 10.473C9.79673 10.2407 10.0125 10.0139 10.2143 9.79262C10.3904 9.60197 10.5513 9.39781 10.6955 9.18201C10.8186 8.99733 10.9196 8.79877 10.9963 8.59045C11.0616 8.40581 11.0942 8.21122 11.0928 8.01539C11.1001 7.80688 11.0615 7.5993 10.9798 7.40733C10.9127 7.25839 10.8134 7.12617 10.6891 7.02015C10.5597 6.91551 10.4115 6.83664 10.2524 6.78783C9.87586 6.67159 9.47238 6.67603 9.09848 6.80053C8.76713 6.92061 8.49182 7.15886 8.3254 7.46953C8.23482 7.64097 8.17347 7.82631 8.14387 8.01793C8.10302 8.18692 8.01053 8.33898 7.87925 8.45296C7.74798 8.56695 7.58444 8.63719 7.41139 8.65392C7.31482 8.6539 7.21925 8.63432 7.13046 8.59635C7.04166 8.55839 6.96147 8.50284 6.89473 8.43304C6.82955 8.3651 6.77938 8.28423 6.74745 8.19566C6.71552 8.1071 6.70255 8.01281 6.70939 7.91891C6.75605 7.54671 6.86596 7.18523 7.03437 6.85005C7.19543 6.52888 7.41748 6.24215 7.68813 6.00586C7.95627 5.77378 8.2654 5.59382 8.5996 5.47523C9.27243 5.24436 10.0009 5.23147 10.6815 5.43842C11.0191 5.53866 11.3333 5.70527 11.6057 5.92849C11.8883 6.16482 12.1161 6.45978 12.2734 6.79293C12.4504 7.17569 12.5376 7.5938 12.5285 8.0154C12.5309 8.3803 12.4681 8.74269 12.3432 9.08554C12.2261 9.39931 12.0714 9.6977 11.8824 9.97416C11.6942 10.2489 11.485 10.5087 11.2565 10.7511C11.0408 10.9846 10.8122 11.2208 10.5749 11.4632L8.87888 13.1935H12.0373C12.2212 13.2037 12.395 13.2814 12.5254 13.4116C12.6558 13.5417 12.7337 13.7154 12.7443 13.8993C12.7467 14.079 12.6811 14.2529 12.5605 14.3862C12.44 14.5195 12.2735 14.6022 12.0944 14.6178Z" fill="#171723"/>
<path d="M16.878 14.7079C16.5401 14.712 16.2031 14.6727 15.8751 14.5911C15.5986 14.5198 15.3329 14.4114 15.0855 14.2687C14.8587 14.137 14.6549 13.9689 14.4825 13.7711C14.3385 13.6042 14.2126 13.4225 14.1068 13.229C14.0117 13.0531 13.9322 12.8692 13.8694 12.6794C13.8161 12.508 13.7742 12.3569 13.7399 12.2135C13.7059 12.0709 13.7211 11.9211 13.7831 11.7883C13.8451 11.6555 13.9503 11.5477 14.0814 11.4823C14.1941 11.43 14.3154 11.399 14.4394 11.3909C14.5693 11.3897 14.697 11.4237 14.809 11.4895C14.921 11.5552 15.0131 11.6501 15.0754 11.7641C15.1131 11.8469 15.1454 11.9322 15.1719 12.0193C15.1871 12.0891 15.2049 12.1525 15.2303 12.2401C15.2569 12.3216 15.2913 12.4002 15.3331 12.475C15.3894 12.5843 15.4566 12.6877 15.5337 12.7835C15.6083 12.8751 15.697 12.9544 15.7964 13.0183C15.9316 13.1049 16.0787 13.1712 16.2331 13.2151C16.6942 13.3372 17.1815 13.3168 17.6308 13.1567C17.8275 13.0724 18.0063 12.9514 18.1576 12.8C18.289 12.6683 18.3926 12.5116 18.4623 12.3392C18.5258 12.191 18.5598 12.0319 18.5625 11.8707C18.5651 11.6932 18.5332 11.5169 18.4686 11.3515C18.4097 11.2126 18.3183 11.0898 18.202 10.9935C18.0374 10.8622 17.8485 10.7647 17.646 10.7066C17.3354 10.6198 17.0139 10.5779 16.6914 10.5822C16.5199 10.5808 16.3559 10.5118 16.2351 10.39C16.1143 10.2683 16.0466 10.1038 16.0465 9.93229C16.0437 9.75358 16.1059 9.57994 16.2215 9.4436C16.337 9.30726 16.4981 9.21748 16.6749 9.19093C16.9328 9.1861 17.1886 9.14333 17.434 9.06398C17.6202 9.005 17.7934 8.91108 17.9444 8.78724C18.0688 8.68437 18.169 8.55518 18.2376 8.40897C18.306 8.25708 18.3399 8.09187 18.3366 7.9253C18.3435 7.7299 18.3075 7.53536 18.2312 7.35533C18.1711 7.21816 18.0793 7.09721 17.9634 7.00241C17.8386 6.90273 17.6954 6.82853 17.5419 6.78403C17.1634 6.67075 16.7591 6.67696 16.3842 6.8018C16.2189 6.85994 16.066 6.94865 15.9335 7.0633C15.7995 7.17928 15.6877 7.31865 15.6035 7.47461C15.5123 7.64498 15.4505 7.82953 15.4207 8.02047C15.3819 8.188 15.2916 8.33919 15.1625 8.4528C15.0335 8.56641 14.872 8.63674 14.7009 8.65391C14.6043 8.65389 14.5088 8.63431 14.42 8.59635C14.3312 8.55838 14.251 8.50283 14.1843 8.43303C14.1191 8.36509 14.0689 8.28422 14.037 8.19565C14.005 8.10709 13.9921 8.0128 13.9989 7.9189C14.0458 7.5475 14.1548 7.18661 14.3213 6.8513C14.6461 6.20701 15.208 5.71375 15.889 5.47522C16.5567 5.24679 17.2788 5.23128 17.9558 5.43083C18.2852 5.52635 18.5933 5.68406 18.8634 5.89545C19.1451 6.12274 19.3717 6.41093 19.5261 6.73836C19.6965 7.1104 19.7807 7.51615 19.7723 7.92529C19.7754 8.27305 19.703 8.61735 19.5603 8.9345C19.4299 9.22592 19.2465 9.49063 19.0196 9.71521C19.0005 9.73426 18.9815 9.75329 18.9612 9.77111C19.077 9.85364 19.1857 9.94579 19.2861 10.0466C19.5215 10.2844 19.7044 10.569 19.8231 10.8819C19.9419 11.1979 20.0017 11.5331 19.9996 11.8708C19.9994 12.2526 19.9162 12.6299 19.7558 12.9765C19.5963 13.32 19.3692 13.6278 19.0881 13.8816C18.8015 14.1414 18.4692 14.3458 18.1081 14.4846C17.7159 14.6362 17.2985 14.712 16.878 14.7079Z" fill="#171723"/>
</svg>
