<svg width="20" height="20" viewBox="0 0 20 20" fill="none" xmlns="http://www.w3.org/2000/svg">
<path d="M1.57423 5.89719H0V7.47142H1.57423V5.89719Z" fill="#00C7FD"/>
<path d="M1.53498 14.0993V8.42426H0.0391846V14.0937H1.53498V14.0993ZM11.4397 14.1554V12.766C11.2213 12.766 11.0364 12.7548 10.9019 12.7324C10.7451 12.71 10.6274 12.6539 10.549 12.5755C10.4706 12.4971 10.4201 12.385 10.3921 12.2338C10.3697 12.0937 10.3585 11.9089 10.3585 11.6848V9.70717H11.4397V8.42426H10.3585V6.21697H8.86272V11.7016C8.86272 12.1666 8.90193 12.5587 8.98036 12.8724C9.0588 13.1806 9.19325 13.4327 9.37812 13.6231C9.563 13.8136 9.8095 13.9481 10.1064 14.0321C10.4089 14.1161 10.7899 14.1554 11.2437 14.1554H11.4397ZM20 14.0993V5.78H18.5042V14.0993H20ZM7.42294 8.98448C7.00837 8.5363 6.42574 8.31221 5.68624 8.31221C5.3277 8.31221 4.99717 8.38504 4.70585 8.5307C4.40893 8.67636 4.16244 8.87804 3.96075 9.13574L3.88232 9.24218V9.14695V8.42426H2.40893V14.0937H3.89353V11.0741V11.2814C3.89353 11.2478 3.89353 11.2142 3.89353 11.1806C3.91033 10.6483 4.03919 10.2562 4.28568 10.0041C4.54899 9.73518 4.86832 9.60073 5.23246 9.60073C5.66384 9.60073 5.99437 9.73518 6.21286 9.99289C6.42574 10.2506 6.53779 10.6147 6.53779 11.0797V11.0965V14.0937H8.04479V10.878C8.05039 10.0713 7.83751 9.43266 7.42294 8.98448ZM17.7311 11.2534C17.7311 10.8444 17.6582 10.4635 17.5182 10.1049C17.3725 9.75199 17.1708 9.43826 16.9187 9.16936C16.661 8.90045 16.3529 8.69316 15.9944 8.5419C15.6358 8.39064 15.2381 8.31781 14.8067 8.31781C14.3977 8.31781 14.0112 8.39625 13.6526 8.54751C13.2941 8.70437 12.9804 8.91165 12.7171 9.17496C12.4538 9.43826 12.2409 9.75199 12.0896 10.1105C11.9327 10.4691 11.8599 10.8556 11.8599 11.2646C11.8599 11.6736 11.9327 12.0601 12.0784 12.4187C12.2241 12.7772 12.4313 13.0909 12.689 13.3542C12.9468 13.6175 13.2661 13.8304 13.6358 13.9817C14.0056 14.1385 14.4145 14.217 14.8515 14.217C16.1176 14.217 16.9019 13.6399 17.3725 13.1021L16.2969 12.2842C16.0728 12.5531 15.535 12.9173 14.8627 12.9173C14.4426 12.9173 14.0952 12.822 13.8319 12.6259C13.5686 12.4355 13.3893 12.1666 13.2941 11.836L13.2773 11.7856H17.7311V11.2534ZM13.2885 10.7324C13.2885 10.3178 13.7647 9.59513 14.7899 9.58952C15.8151 9.58952 16.2969 10.3122 16.2969 10.7268L13.2885 10.7324Z" fill="white"/>
</svg>
