<svg width="20" height="20" viewBox="0 0 20 20" fill="none" xmlns="http://www.w3.org/2000/svg">
<g clip-path="url(#clip0_16653_245650)">
<path d="M20 10.0903V6.00114C20 4.72512 18.9542 3.68665 17.6691 3.68665H14.6755V2.70918C14.6755 1.21548 13.4519 0 11.9471 0H11.6236C10.1194 0 8.89529 1.21548 8.89529 2.70918V3.68665H5.90165C4.6166 3.68665 3.57124 4.72512 3.57124 6.00114V9.14337H2.98387C1.33858 9.14337 0 10.3394 0 11.8096V12.2172C0 13.6873 1.33858 14.8834 2.98387 14.8834H3.5759V17.6859C3.5759 18.962 4.62125 20 5.90677 20H9.8499V19.0535H9.8485V17.8699C9.8485 16.8841 10.656 16.0827 11.6483 16.0827H11.9229C12.9152 16.0827 13.7223 16.8841 13.7223 17.8699V19.0701H13.7241V20H17.6691C18.9542 20 20 18.962 20 17.6859V13.9346H19.0468V13.9369H18.0056C17.0133 13.9369 16.2058 13.135 16.2058 12.1497V11.877C16.2058 10.8917 17.0133 10.0899 18.0056 10.0899H19.0468L20 10.0903ZM18.0056 9.14337C16.4878 9.14337 15.2526 10.3699 15.2526 11.877V12.1497C15.2526 13.6573 16.4878 14.8834 18.0056 14.8834H19.0468V17.6859C19.0468 18.4402 18.4287 19.0535 17.6691 19.0535H14.6755V17.8699C14.6755 16.3623 13.4407 15.1362 11.9229 15.1362H11.6483C10.1301 15.1362 8.89528 16.3623 8.89528 17.8699V19.0535H5.90676C5.14717 19.0535 4.52909 18.4402 4.52909 17.6859V13.9374H3.57682L2.98386 13.9369C1.86404 13.9369 0.953192 13.1656 0.953192 12.2172V11.8096C0.953192 10.8612 1.86404 10.0899 2.98386 10.0899H3.57123L4.52444 10.0903V6.00115C4.52444 5.2469 5.14206 4.63316 5.90164 4.63316H9.84895V3.68666L9.84848 2.70919C9.84848 1.73726 10.6448 0.946514 11.6236 0.946514H11.9471C12.9259 0.946514 13.7223 1.73727 13.7223 2.70919V4.15991L13.7227 4.63316H17.6691C18.4287 4.63316 19.0468 5.24691 19.0468 6.00115V9.14338L18.0056 9.14337Z" fill="#171723"/>
</g>
<defs>
<clipPath id="clip0_16653_245650">
<rect width="20" height="20" fill="white"/>
</clipPath>
</defs>
</svg>
