<svg width="20" height="20" viewBox="0 0 20 20" fill="none" xmlns="http://www.w3.org/2000/svg">
<path d="M1.65908 6.09636H0.237732V7.5177H1.65908V6.09636Z" fill="#0469AB"/>
<path d="M1.62366 13.5015V8.37759H0.273132V13.4965H1.62366V13.5015ZM10.5665 13.5521V12.2977C10.3692 12.2977 10.2023 12.2876 10.0809 12.2673C9.93929 12.2471 9.83307 12.1965 9.76226 12.1257C9.69144 12.0549 9.64592 11.9537 9.62063 11.8171C9.6004 11.6907 9.59028 11.5238 9.59028 11.3214V9.53591H10.5665V8.37759H9.59028V6.38467H8.23975V11.3366C8.23975 11.7564 8.27516 12.1105 8.34597 12.3938C8.41679 12.672 8.53818 12.8996 8.7051 13.0716C8.87202 13.2436 9.09458 13.3649 9.36266 13.4408C9.6358 13.5167 9.97976 13.5521 10.3895 13.5521H10.5665ZM18.2954 13.5015V5.99014H16.9449V13.5015H18.2954ZM6.9398 8.88341C6.5655 8.47875 6.03945 8.27643 5.37177 8.27643C5.04804 8.27643 4.74961 8.34218 4.48659 8.4737C4.2185 8.60521 3.99594 8.7873 3.81385 9.01998L3.74304 9.11608V9.0301V8.37759H2.41274V13.4965H3.75315V10.7701V10.9573C3.75315 10.9269 3.75315 10.8966 3.75315 10.8662C3.76833 10.3857 3.88467 10.0316 4.10722 9.80399C4.34496 9.5612 4.63327 9.43981 4.96206 9.43981C5.35153 9.43981 5.64997 9.5612 5.84723 9.79388C6.03945 10.0266 6.14061 10.3553 6.14061 10.7752V10.7903V13.4965H7.50126V10.5931C7.50631 9.86469 7.3141 9.28806 6.9398 8.88341ZM16.2468 10.932C16.2468 10.5627 16.1811 10.2188 16.0546 9.89504C15.9231 9.57638 15.741 9.29312 15.5134 9.05033C15.2807 8.80754 15.0025 8.62038 14.6788 8.48381C14.3551 8.34724 13.9959 8.28149 13.6065 8.28149C13.2372 8.28149 12.8882 8.3523 12.5645 8.48887C12.2408 8.6305 11.9575 8.81765 11.7198 9.05539C11.482 9.29312 11.2898 9.57638 11.1533 9.9001C11.0116 10.2238 10.9459 10.5728 10.9459 10.9421C10.9459 11.3113 11.0116 11.6603 11.1431 11.9841C11.2747 12.3078 11.4618 12.591 11.6945 12.8288C11.9272 13.0665 12.2155 13.2587 12.5493 13.3953C12.8831 13.5369 13.2524 13.6077 13.6469 13.6077C14.7901 13.6077 15.4982 13.0867 15.9231 12.6012L14.9519 11.8627C14.7496 12.1055 14.264 12.4342 13.657 12.4342C13.2777 12.4342 12.9641 12.3483 12.7263 12.1712C12.4886 11.9992 12.3268 11.7564 12.2408 11.458L12.2256 11.4125H16.2468V10.932ZM12.2357 10.4616C12.2357 10.0873 12.6656 9.43475 13.5913 9.42969C14.5169 9.42969 14.9519 10.0822 14.9519 10.4565L12.2357 10.4616ZM19.8331 12.8541C19.8078 12.7934 19.7724 12.7428 19.7269 12.6973C19.6813 12.6517 19.6307 12.6163 19.57 12.591C19.5094 12.5658 19.4436 12.5506 19.3778 12.5506C19.307 12.5506 19.2463 12.5658 19.1856 12.591C19.1249 12.6163 19.0743 12.6517 19.0288 12.6973C18.9833 12.7428 18.9479 12.7934 18.9226 12.8541C18.8973 12.9148 18.8821 12.9805 18.8821 13.0463C18.8821 13.1171 18.8973 13.1778 18.9226 13.2385C18.9479 13.2992 18.9833 13.3498 19.0288 13.3953C19.0743 13.4408 19.1249 13.4762 19.1856 13.5015C19.2463 13.5268 19.3121 13.542 19.3778 13.542C19.4487 13.542 19.5094 13.5268 19.57 13.5015C19.6307 13.4762 19.6813 13.4408 19.7269 13.3953C19.7724 13.3498 19.8078 13.2992 19.8331 13.2385C19.8584 13.1778 19.8735 13.112 19.8735 13.0463C19.8735 12.9805 19.8584 12.9148 19.8331 12.8541ZM19.7521 13.2081C19.7319 13.2587 19.7016 13.3042 19.6662 13.3397C19.6307 13.3751 19.5852 13.4054 19.5346 13.4256C19.4841 13.4459 19.4335 13.456 19.3728 13.456C19.3171 13.456 19.2615 13.4459 19.2109 13.4256C19.1603 13.4054 19.1148 13.3751 19.0794 13.3397C19.044 13.3042 19.0137 13.2587 18.9934 13.2081C18.9732 13.1576 18.9631 13.107 18.9631 13.0463C18.9631 12.9906 18.9732 12.935 18.9934 12.8844C19.0137 12.8338 19.044 12.7883 19.0794 12.7529C19.1148 12.7175 19.1603 12.6872 19.2109 12.6669C19.2615 12.6467 19.3121 12.6366 19.3728 12.6366C19.4284 12.6366 19.4841 12.6467 19.5346 12.6669C19.5852 12.6872 19.6307 12.7175 19.6662 12.7529C19.7016 12.7883 19.7319 12.8338 19.7521 12.8844C19.7724 12.935 19.7825 12.9856 19.7825 13.0463C19.7825 13.107 19.7724 13.1576 19.7521 13.2081ZM19.4689 13.0918C19.5094 13.0867 19.5397 13.0716 19.565 13.0463C19.5903 13.021 19.6055 12.9856 19.6055 12.935C19.6055 12.8794 19.5903 12.8389 19.5549 12.8085C19.5245 12.7782 19.4689 12.763 19.4031 12.763H19.1806V13.3346H19.2868V13.1019H19.3627L19.5043 13.3346H19.6156L19.4689 13.0918ZM19.4132 13.0058C19.3981 13.0058 19.3829 13.0058 19.3627 13.0058H19.2868V12.844H19.3627C19.3778 12.844 19.393 12.844 19.4132 12.844C19.4284 12.844 19.4436 12.849 19.4588 12.8541C19.4739 12.8591 19.4841 12.8692 19.4891 12.8794C19.4992 12.8895 19.4992 12.9047 19.4992 12.9249C19.4992 12.9451 19.4942 12.9603 19.4891 12.9704C19.479 12.9805 19.4689 12.9906 19.4588 12.9957C19.4436 13.0008 19.4284 13.0058 19.4132 13.0058Z" fill="#020202"/>
</svg>
