<svg width="20" height="20" viewBox="0 0 20 20" fill="none" xmlns="http://www.w3.org/2000/svg">
<g clip-path="url(#clip0_17731_32992)">
<path d="M6.29194 9.36239V12.2622H5.36855V8.61727L7.27475 8.61907C8.0844 8.61907 8.36021 9.18992 8.36021 9.70846V12.2622H7.43857V9.71323C7.43857 9.49605 7.3261 9.36239 7.05487 9.36239H6.29194ZM12.5702 9.31882C12.2546 9.31882 12.0104 9.48104 11.9084 9.70123C11.8479 9.83344 11.8272 9.93474 11.8201 10.0966H13.2405C13.2223 9.70123 13.0429 9.31882 12.5702 9.31882ZM11.8201 10.7249C11.8201 11.197 12.1136 11.5445 12.6378 11.5445C13.0456 11.5445 13.2483 11.4316 13.4841 11.197L14.0543 11.7414C13.6892 12.1018 13.306 12.3207 12.631 12.3207C11.7471 12.3207 10.9013 11.8389 10.9013 10.4345C10.9013 9.23476 11.6398 8.55544 12.6102 8.55544C13.5939 8.55544 14.1622 9.3507 14.1622 10.3924V10.7249H11.8201ZM10.1219 12.2577C9.36972 12.2577 9.05058 11.7342 9.05058 11.2171V7.62411H9.97245V8.61721H10.6674V9.36239H9.97245V11.1594C9.97245 11.3711 10.0725 11.4887 10.2924 11.4887H10.6674V12.2577H10.1219ZM4.54709 8.11355H3.61744V7.23061H4.54709V8.11355ZM4.54944 12.3006C3.85328 12.2337 3.61641 11.8115 3.61641 11.3244L3.6175 8.61727H4.54944V12.3006ZM15.6294 12.2227C14.9347 12.1557 14.699 11.7342 14.699 11.2476V7.10503H15.6294V12.2227ZM18.882 7.70371C18.0388 3.59358 10.0589 3.33337 4.91536 6.46397V6.80963C10.0536 4.16949 17.3411 4.1851 18.0051 7.97067C18.2272 9.2224 17.5217 10.5275 16.2617 11.2776V12.259C17.7782 11.7043 19.3336 9.90558 18.882 7.70371ZM9.53222 14.8947C5.98231 15.2228 2.28317 14.7076 1.76554 11.9343C1.51216 10.5671 2.13514 9.11785 2.96154 8.21762V7.73626C1.47376 9.04054 0.666403 10.6917 1.13123 12.6429C1.7245 15.1448 4.89932 16.5626 9.74522 16.0917C11.6625 15.9047 14.1719 15.2883 15.9165 14.3309V12.9709C14.3335 13.9134 11.7139 14.6927 9.53222 14.8947Z" fill="#0071C5"/>
<path d="M16.7049 7.38005C16.7049 7.33498 16.6786 7.32064 16.6184 7.32064H16.5602V7.44827C16.5686 7.44827 16.6109 7.44984 16.6184 7.44984C16.6786 7.44984 16.7049 7.42971 16.7049 7.38753V7.38005ZM16.7956 7.6966H16.7267C16.7237 7.69654 16.7207 7.69565 16.7182 7.69403C16.7157 7.69242 16.7136 7.69014 16.7123 7.68744L16.6183 7.52818C16.6167 7.52492 16.6085 7.52106 16.6053 7.52106H16.5631V7.67901C16.5631 7.68744 16.5573 7.6966 16.5462 7.6966H16.4839C16.476 7.6966 16.4683 7.68744 16.4683 7.67901V7.27942C16.4683 7.25628 16.4773 7.24664 16.4968 7.24362C16.5188 7.24073 16.5786 7.2388 16.6109 7.2388C16.7253 7.2388 16.7946 7.27255 16.7946 7.38005V7.38753C16.7946 7.45405 16.7614 7.48919 16.7101 7.50636L16.8075 7.67111C16.8082 7.67449 16.8104 7.67901 16.8104 7.68292C16.8104 7.68937 16.8066 7.6966 16.7956 7.6966ZM16.632 7.16667C16.4624 7.16667 16.3253 7.3066 16.3253 7.47521C16.3253 7.64394 16.4624 7.78169 16.632 7.78169C16.8007 7.78169 16.9391 7.64394 16.9391 7.47515C16.9391 7.3066 16.8007 7.16667 16.632 7.16667ZM16.632 7.84521C16.5833 7.8453 16.5352 7.8358 16.4902 7.81724C16.4452 7.79868 16.4044 7.77144 16.37 7.73707C16.3356 7.70269 16.3083 7.66187 16.2897 7.61693C16.2711 7.572 16.2615 7.52384 16.2616 7.47521C16.2615 7.42657 16.2711 7.3784 16.2897 7.33345C16.3083 7.28851 16.3356 7.24767 16.37 7.21328C16.4044 7.17889 16.4452 7.15162 16.4902 7.13303C16.5351 7.11445 16.5833 7.10491 16.632 7.10497C16.8358 7.10497 17.0033 7.27165 17.0033 7.47515C17.0033 7.67901 16.8358 7.84521 16.632 7.84521Z" fill="#0071C5"/>
</g>
<defs>
<clipPath id="clip0_17731_32992">
<rect width="20" height="13.2293" fill="white" transform="translate(0 3.33337)"/>
</clipPath>
</defs>
</svg>
