<svg width="20" height="20" viewBox="0 0 20 20" fill="none" xmlns="http://www.w3.org/2000/svg">
<g clip-path="url(#clip0_10314_146626)">
<path d="M7.50914 6.78792C7.51015 7.08274 7.42358 7.37122 7.26042 7.61678C7.09726 7.86234 6.86484 8.05391 6.59265 8.1672C6.32047 8.28049 6.02076 8.3104 5.73155 8.25313C5.44235 8.19586 5.17666 8.054 4.96819 7.84553C4.75971 7.63705 4.61785 7.37137 4.56058 7.08216C4.50331 6.79295 4.53322 6.49325 4.64651 6.22106C4.7598 5.94887 4.95137 5.71646 5.19693 5.55329C5.44249 5.39013 5.73097 5.30356 6.02579 5.30457C6.41894 5.30543 6.79573 5.46199 7.07373 5.73999C7.35172 6.01798 7.50828 6.39478 7.50914 6.78792V6.78792Z" fill="#171723"/>
<path d="M17.4425 1.27393H2.5579C1.8797 1.2742 1.22935 1.54373 0.749782 2.0233C0.270218 2.50286 0.000682135 3.15321 0.000411015 3.83142V16.1688C-0.00126337 16.2032 0.00218423 16.2376 0.010641 16.2711L1.02341 15.2582L4.41976 11.8619C4.59311 11.689 4.79896 11.5521 5.02544 11.459C5.25192 11.366 5.49457 11.3187 5.73942 11.3198H5.74965C5.99382 11.3192 6.23559 11.3679 6.46056 11.4628C6.68553 11.5577 6.88908 11.6969 7.05909 11.8722L8.69588 13.4987L12.0718 10.1228C12.2444 9.95014 12.4493 9.81314 12.6749 9.71966C12.9004 9.62619 13.1422 9.57808 13.3864 9.57808C13.6305 9.57808 13.8723 9.62619 14.0979 9.71966C14.3234 9.81314 14.5283 9.95014 14.7009 10.1228L20 15.422V3.83142C19.9997 3.1532 19.7302 2.50284 19.2506 2.02327C18.7711 1.5437 18.1207 1.27417 17.4425 1.27393V1.27393ZM6.02597 9.30445C5.52926 9.30546 5.04339 9.15915 4.62983 8.88403C4.21626 8.60891 3.89356 8.21733 3.70254 7.75881C3.51152 7.30029 3.46076 6.79542 3.55667 6.30805C3.65258 5.82068 3.89087 5.3727 4.24138 5.02075C4.5919 4.6688 5.03891 4.4287 5.52589 4.3308C6.01286 4.2329 6.51793 4.28161 6.97723 4.47076C7.43652 4.65991 7.82941 4.98101 8.10621 5.39345C8.38302 5.8059 8.5313 6.29116 8.53231 6.78788C8.5328 7.45369 8.26922 8.09253 7.79938 8.56429C7.32954 9.03605 6.69178 9.30222 6.02597 9.30445Z" fill="#171723"/>
<path d="M19.9176 16.7926C19.7788 17.3444 19.46 17.8341 19.0116 18.1842C18.5632 18.5344 18.0109 18.7251 17.4419 18.7261H2.55728C2.09998 18.7271 1.65099 18.6039 1.25822 18.3697C0.865448 18.1355 0.543645 17.799 0.327148 17.3962L5.13523 12.5881C5.21452 12.5092 5.30874 12.4468 5.41237 12.4047C5.51601 12.3625 5.627 12.3414 5.73888 12.3426C5.84922 12.3415 5.95864 12.3626 6.0606 12.4048C6.16255 12.447 6.25494 12.5094 6.33222 12.5881L7.96901 14.2147C8.1592 14.4029 8.41544 14.5094 8.68303 14.5113C8.95062 14.5132 9.20835 14.4104 9.40121 14.2249L12.7872 10.849C12.8656 10.77 12.9588 10.7073 13.0615 10.6645C13.1643 10.6218 13.2744 10.5997 13.3857 10.5997C13.497 10.5997 13.6071 10.6218 13.7098 10.6645C13.8126 10.7073 13.9058 10.77 13.9841 10.849L18.9764 15.8515L19.9176 16.7926Z" fill="#171723"/>
</g>
<defs>
<clipPath id="clip0_10314_146626">
<rect width="20" height="20" fill="white" transform="matrix(-1 0 0 1 20 0)"/>
</clipPath>
</defs>
</svg>
