<svg width="24" height="24" viewBox="0 0 24 24" fill="none" xmlns="http://www.w3.org/2000/svg">
<g clip-path="url(#clip0_10317_147259)">
<path d="M20.6744 2.53601H3.32512C1.54129 2.53601 0.0952148 3.98209 0.0952148 5.76592V18.2336C0.0952148 20.0174 1.54129 21.4635 3.32512 21.4635H20.6744C22.4582 21.4635 23.9043 20.0174 23.9043 18.2336V5.76592C23.9043 3.98209 22.4582 2.53601 20.6744 2.53601Z" fill="white"/>
<path d="M20.6743 21.5593H3.32572C2.44402 21.5582 1.59875 21.2074 0.975297 20.584C0.351841 19.9605 0.00110031 19.1153 0 18.2336V5.76646C0.00110031 4.88476 0.351841 4.03949 0.975297 3.41603C1.59875 2.79258 2.44402 2.44184 3.32572 2.44073H20.6743C21.556 2.44184 22.4013 2.79258 23.0247 3.41603C23.6482 4.03949 23.9989 4.88476 24 5.76646V18.2336C23.9989 19.1153 23.6482 19.9605 23.0247 20.584C22.4013 21.2074 21.556 21.5582 20.6743 21.5593ZM3.32572 2.63255C2.4949 2.63364 1.69843 2.96417 1.11095 3.55165C0.523472 4.13912 0.192948 4.9356 0.191858 5.76642V18.2335C0.192948 19.0643 0.523472 19.8608 1.11095 20.4483C1.69843 21.0358 2.4949 21.3663 3.32572 21.3674H20.6743C21.5051 21.3663 22.3016 21.0358 22.8891 20.4483C23.4765 19.8608 23.8071 19.0643 23.8082 18.2335V5.76646C23.8071 4.93564 23.4765 4.13916 22.8891 3.55168C22.3016 2.96421 21.5051 2.63368 20.6743 2.63259L3.32572 2.63255Z" fill="#E4E4E4"/>
<path d="M6.18927 6.50425C5.90565 6.487 5.6216 6.53016 5.3559 6.63088C5.0902 6.73159 4.84892 6.88757 4.648 7.08849C4.44708 7.28941 4.2911 7.53069 4.19039 7.79639C4.08967 8.06209 4.04651 8.34614 4.06376 8.62976V12.4806C4.13599 12.7268 4.28844 12.9417 4.49686 13.0912C4.70528 13.2407 4.95772 13.3163 5.21402 13.3059C5.35083 13.313 5.48769 13.2926 5.61646 13.2459C5.74523 13.1991 5.86328 13.1269 5.96359 13.0336C6.0639 12.9403 6.14442 12.8277 6.20037 12.7027C6.25631 12.5776 6.28654 12.4426 6.28925 12.3056V10.3552H7.98968V12.2806C7.98968 13.3559 6.61437 13.906 5.61412 13.906C5.06814 13.9134 4.53393 13.7471 4.08876 13.4309V17.6819H6.78941C7.32438 17.6545 7.83019 17.4297 8.20895 17.0509C8.58772 16.6721 8.81253 16.1663 8.83986 15.6313V6.50425H6.18927Z" fill="#1174CE"/>
<path d="M4.06396 8.62984V12.4807C4.13619 12.7268 4.28864 12.9418 4.49706 13.0913C4.70549 13.2408 4.95792 13.3164 5.21422 13.3059C5.35103 13.3131 5.48789 13.2927 5.61666 13.2459C5.74543 13.1992 5.86348 13.127 5.96379 13.0337C6.0641 12.9404 6.14462 12.8278 6.20057 12.7028C6.25652 12.5777 6.28674 12.4427 6.28945 12.3057V10.3552H7.98988V12.2807C7.98988 13.3559 6.61457 13.9061 5.61433 13.9061C5.06834 13.9135 4.53414 13.7471 4.08896 13.4309V17.6819H6.78961C7.32458 17.6546 7.83039 17.4298 8.20916 17.051C8.58793 16.6722 8.81273 16.1664 8.84006 15.6314V6.50433" fill="#0F549D"/>
<path d="M7.96485 10.3552V12.2807C7.96485 13.3559 6.58954 13.906 5.58934 13.906C5.04335 13.9135 4.50914 13.7471 4.06396 13.4309V17.6819H6.76462C7.29959 17.6546 7.8054 17.4298 8.18418 17.051C8.56295 16.6722 8.78777 16.1664 8.81512 15.6314" fill="#02375E"/>
<path d="M15.6416 13.2558H16.8169C16.9694 13.2558 17.1157 13.1953 17.2236 13.0874C17.3314 12.9795 17.392 12.8333 17.392 12.6807C17.392 12.5282 17.3314 12.3819 17.2236 12.274C17.1157 12.1662 16.9694 12.1056 16.8169 12.1056H15.6416V13.2558Z" fill="#146643"/>
<path d="M16.9669 6.50415C16.6848 6.4841 16.4016 6.52448 16.1363 6.6226C15.8711 6.72072 15.6298 6.87431 15.4286 7.07312C15.2274 7.27193 15.071 7.51138 14.9697 7.77547C14.8685 8.03957 14.8247 8.32223 14.8414 8.60457V10.355H17.9922C18.2093 10.3576 18.4167 10.4457 18.5694 10.6001C18.7221 10.7546 18.8077 10.963 18.8077 11.1802C18.8077 11.3974 18.7221 11.6058 18.5694 11.7603C18.4167 11.9148 18.2093 12.0028 17.9922 12.0054C18.1039 11.9983 18.216 12.0134 18.3219 12.0498C18.4278 12.0863 18.5255 12.1433 18.6092 12.2178C18.6929 12.2922 18.761 12.3824 18.8096 12.4833C18.8582 12.5842 18.8863 12.6938 18.8924 12.8056C18.8884 12.9181 18.8616 13.0287 18.8137 13.1305C18.7657 13.2324 18.6976 13.3235 18.6135 13.3983C18.5293 13.4731 18.4309 13.5301 18.3241 13.5657C18.2173 13.6014 18.1044 13.615 17.9922 13.6058H14.8164V17.6817H17.5171C18.052 17.6544 18.5578 17.4296 18.9366 17.0508C19.3154 16.672 19.5402 16.1662 19.5675 15.6313V6.50415H16.9669Z" fill="#1BCC38"/>
<path d="M14.8164 8.62984V10.3552H17.9671C18.0763 10.3539 18.1846 10.3743 18.2859 10.4152C18.3871 10.4561 18.4793 10.5167 18.5569 10.5935C18.6346 10.6702 18.6962 10.7616 18.7383 10.8624C18.7804 10.9631 18.8021 11.0712 18.8021 11.1804C18.8021 11.2896 18.7804 11.3977 18.7383 11.4985C18.6962 11.5992 18.6346 11.6906 18.5569 11.7674C18.4793 11.8441 18.3871 11.9047 18.2859 11.9456C18.1846 11.9865 18.0763 12.0069 17.9671 12.0056C18.0789 11.9985 18.191 12.0136 18.2969 12.05C18.4028 12.0864 18.5004 12.1435 18.5841 12.2179C18.6678 12.2923 18.7359 12.3826 18.7846 12.4835C18.8332 12.5844 18.8613 12.694 18.8673 12.8058C18.8633 12.9183 18.8365 13.0289 18.7886 13.1307C18.7407 13.2326 18.6726 13.3237 18.5884 13.3985C18.5043 13.4733 18.4058 13.5303 18.299 13.5659C18.1922 13.6016 18.0793 13.6152 17.9671 13.606H14.8164V17.6819H17.5171C18.052 17.6546 18.5578 17.4297 18.9366 17.051C19.3154 16.6722 19.5402 16.1664 19.5675 15.6314V6.50433" fill="#329947"/>
<path d="M18.7923 11.1802C18.7904 11.3985 18.7029 11.6073 18.5485 11.7617C18.3942 11.916 18.1854 12.0036 17.9671 12.0055C18.0789 11.9983 18.191 12.0134 18.2969 12.0499C18.4028 12.0863 18.5004 12.1434 18.5841 12.2178C18.6678 12.2922 18.7359 12.3825 18.7846 12.4834C18.8332 12.5843 18.8613 12.6938 18.8673 12.8056C18.8633 12.9182 18.8365 13.0287 18.7886 13.1306C18.7407 13.2325 18.6726 13.3236 18.5884 13.3984C18.5043 13.4732 18.4058 13.5301 18.299 13.5658C18.1922 13.6015 18.0793 13.6151 17.9671 13.6058H14.8164V17.6818H17.5171C18.052 17.6544 18.5578 17.4296 18.9366 17.0509C19.3154 16.6721 19.5402 16.1663 19.5675 15.6313" fill="#146643"/>
<path d="M17.367 11.2803C17.3611 11.1297 17.2985 10.9868 17.1919 10.8802C17.0853 10.7736 16.9425 10.7111 16.7918 10.7052H15.6416V11.8305H16.8169C16.9624 11.8292 17.1016 11.7708 17.2045 11.6679C17.3074 11.565 17.3657 11.4258 17.367 11.2803Z" fill="#146643"/>
<path d="M11.5401 6.50415C11.258 6.4841 10.9748 6.52448 10.7095 6.6226C10.4443 6.72071 10.203 6.8743 10.0018 7.07311C9.8006 7.27192 9.64416 7.51137 9.5429 7.77547C9.44164 8.03956 9.3979 8.32223 9.4146 8.60458V10.755C9.71257 10.4925 10.0929 10.3421 10.4898 10.3299H13.3405V10.9301C12.7987 10.8036 12.2461 10.7283 11.6901 10.705C11.3526 10.7061 11.0293 10.8409 10.791 11.08C10.5527 11.319 10.4189 11.6428 10.4189 11.9803C10.4189 12.3179 10.5527 12.6416 10.791 12.8807C11.0293 13.1197 11.3526 13.2546 11.6901 13.2556C12.2455 13.2436 12.7984 13.1766 13.3405 13.0556V13.6057H10.4898C10.0897 13.6098 9.7038 13.4572 9.4146 13.1806V17.6816H12.1152C12.6502 17.6543 13.156 17.4295 13.5348 17.0507C13.9135 16.6719 14.1384 16.1661 14.1657 15.6312V6.50415H11.5401Z" fill="#E20E37"/>
<path d="M9.41455 8.62984V10.7803C9.71251 10.5177 10.0928 10.3674 10.4898 10.3552H13.3405V10.9553C12.7986 10.8289 12.2461 10.7535 11.6901 10.7303C11.3526 10.7314 11.0292 10.8662 10.7909 11.1052C10.5526 11.3443 10.4188 11.6681 10.4188 12.0056C10.4188 12.3431 10.5526 12.6669 10.7909 12.9059C11.0292 13.145 11.3526 13.2798 11.6901 13.2809C12.2455 13.2689 12.7983 13.2019 13.3405 13.0808V13.6059H10.4898C10.0896 13.61 9.70375 13.4574 9.41455 13.1808V17.6819H12.1152C12.6502 17.6545 13.156 17.4297 13.5347 17.0509C13.9135 16.6722 14.1383 16.1664 14.1657 15.6314V6.50433" fill="#B41F36"/>
<path d="M13.3405 10.3552V10.9554C12.7986 10.8289 12.2461 10.7536 11.6901 10.7304C11.3526 10.7314 11.0292 10.8663 10.7909 11.1053C10.5526 11.3444 10.4188 11.6681 10.4188 12.0057C10.4188 12.3432 10.5526 12.667 10.7909 12.906C11.0292 13.1451 11.3526 13.2799 11.6901 13.281C12.2455 13.2689 12.7983 13.2019 13.3405 13.0809V13.606H10.4898C10.0896 13.6101 9.70375 13.4575 9.41455 13.1809V17.682H12.1152C12.6502 17.6546 13.156 17.4298 13.5348 17.051C13.9135 16.6723 14.1383 16.1665 14.1657 15.6315" fill="#720A1E"/>
</g>
<defs>
<clipPath id="clip0_10317_147259">
<rect width="24" height="24" fill="white"/>
</clipPath>
</defs>
</svg>
