<svg width="20" height="20" viewBox="0 0 20 20" fill="none" xmlns="http://www.w3.org/2000/svg">
<path fill-rule="evenodd" clip-rule="evenodd" d="M1.875 12.5C1.875 12.1548 2.15482 11.875 2.5 11.875H5C5.34518 11.875 5.625 12.1548 5.625 12.5V16.25C5.625 16.7473 5.42746 17.2242 5.07583 17.5758C4.7242 17.9275 4.24728 18.125 3.75 18.125C3.25272 18.125 2.77581 17.9275 2.42417 17.5758C2.07254 17.2242 1.875 16.7473 1.875 16.25C1.875 15.9048 2.15482 15.625 2.5 15.625C2.84518 15.625 3.125 15.9048 3.125 16.25C3.125 16.4158 3.19085 16.5747 3.30806 16.6919C3.42527 16.8092 3.58424 16.875 3.75 16.875C3.91576 16.875 4.07473 16.8092 4.19194 16.6919C4.30915 16.5747 4.375 16.4158 4.375 16.25V13.125H2.5C2.15482 13.125 1.875 12.8452 1.875 12.5Z" fill="#171723"/>
<path fill-rule="evenodd" clip-rule="evenodd" d="M8.33333 13.125C8.27808 13.125 8.22509 13.1469 8.18602 13.186C8.14695 13.2251 8.125 13.2781 8.125 13.3333V14.1667C8.125 14.2219 8.14695 14.2749 8.18602 14.314C8.22509 14.353 8.27808 14.375 8.33333 14.375H9.16667C9.55344 14.375 9.92437 14.5286 10.1979 14.8021C10.4714 15.0756 10.625 15.4466 10.625 15.8333V16.6667C10.625 17.0534 10.4714 17.4244 10.1979 17.6979C9.92437 17.9714 9.55344 18.125 9.16667 18.125H8.125C7.43482 18.125 6.875 17.5652 6.875 16.875C6.875 16.5298 7.15482 16.25 7.5 16.25C7.84518 16.25 8.125 16.5298 8.125 16.875H9.16667C9.22192 16.875 9.27491 16.853 9.31398 16.814C9.35305 16.7749 9.375 16.7219 9.375 16.6667V15.8333C9.375 15.7781 9.35305 15.7251 9.31398 15.686C9.27491 15.6469 9.22192 15.625 9.16667 15.625H8.33333C7.94656 15.625 7.57563 15.4714 7.30214 15.1979C7.02865 14.9244 6.875 14.5534 6.875 14.1667V13.3333C6.875 12.9466 7.02865 12.5756 7.30214 12.3021C7.57563 12.0286 7.94656 11.875 8.33333 11.875H9.375C9.70652 11.875 10.0245 12.0067 10.2589 12.2411C10.4933 12.4755 10.625 12.7935 10.625 13.125C10.625 13.4702 10.3452 13.75 10 13.75C9.65482 13.75 9.375 13.4702 9.375 13.125H8.33333Z" fill="#171723"/>
<path fill-rule="evenodd" clip-rule="evenodd" d="M12.2909 2.46784C12.2741 2.13761 12.0011 1.875 11.6667 1.875C11.8324 1.875 11.9914 1.94085 12.1086 2.05806C12.2145 2.16406 12.2827 2.30817 12.2909 2.46784Z" fill="#171723"/>
<path fill-rule="evenodd" clip-rule="evenodd" d="M11.4688 6.86453C11.7423 7.13802 12.1132 7.29167 12.5 7.29167H15.2083V15.8333C15.2083 16.1096 15.0986 16.3746 14.9032 16.5699C14.7079 16.7653 14.4429 16.875 14.1667 16.875H13.3333C12.9882 16.875 12.7083 17.1548 12.7083 17.5C12.7083 17.8452 12.9882 18.125 13.3333 18.125H14.1667C14.7745 18.125 15.3573 17.8836 15.7871 17.4538C16.2169 17.024 16.4583 16.4411 16.4583 15.8333V6.66667C16.4583 6.50091 16.3925 6.34193 16.2753 6.22472L12.1086 2.05806C11.9914 1.94085 11.8324 1.875 11.6667 1.875H5.83333C5.22555 1.875 4.64265 2.11644 4.21288 2.54621C3.78311 2.97598 3.54167 3.55888 3.54167 4.16667V10C3.54167 10.3452 3.82149 10.625 4.16667 10.625C4.51184 10.625 4.79167 10.3452 4.79167 10V4.16667C4.79167 3.8904 4.90141 3.62545 5.09676 3.4301C5.29211 3.23475 5.55707 3.125 5.83333 3.125H11.0417V5.83333C11.0417 6.22011 11.1953 6.59104 11.4688 6.86453ZM12.2917 5.83333C12.2917 5.88859 12.3136 5.94158 12.3527 5.98065C12.3918 6.01972 12.4447 6.04167 12.5 6.04167H14.3245L12.2917 4.00888V5.83333Z" fill="#171723"/>
</svg>
