<svg width="20" height="20" viewBox="0 0 20 20" fill="none" xmlns="http://www.w3.org/2000/svg">
<path d="M6.57681 2.14697C5.84963 2.14697 5.26121 2.71999 5.26121 3.42813V12.3274C5.26121 12.8942 5.19697 13.3834 5.06847 13.7825C4.95287 14.1353 4.79869 14.4243 4.59827 14.6483C4.42869 14.8397 4.22569 14.9811 3.96874 15.0812C3.57046 15.2376 2.95378 15.2751 2.60176 15.2301C2.48613 15.2113 2.38592 15.1913 2.32682 15.1763L2.03646 15.0937C1.82832 15.0361 1.63818 15.0073 1.45057 15.0073C0.89302 15.0073 0.26092 15.499 0.0759179 16.0095C-0.0422814 16.3335 -0.0217227 16.6914 0.132441 17.0004C0.286605 17.3094 0.56412 17.5446 0.898159 17.6535C1.60478 17.8837 2.30369 18 2.97176 18C3.7015 18 4.38756 17.8787 5.01196 17.6397C5.6749 17.3845 6.25047 16.9954 6.72583 16.4812C7.18321 15.982 7.53781 15.3689 7.77677 14.662C8.00545 13.9877 8.12365 13.202 8.12365 12.3274V3.42813C8.12365 2.71999 7.30399 2.14697 6.57681 2.14697Z" fill="#171723"/>
<path d="M18.3762 9.62743C17.9497 9.31464 17.4589 9.05567 16.9219 8.85673C16.4825 8.69534 16.0328 8.53894 15.5806 8.39381C15.1592 8.25745 14.7429 8.11606 14.3318 7.96718C14.0234 7.85582 13.7511 7.7182 13.5198 7.55306C13.3399 7.42669 13.1986 7.2753 13.0881 7.09014C13.0085 6.95627 12.9648 6.74107 12.9648 6.46958C12.9648 6.23937 13.0059 6.02543 13.0933 5.81774C13.1781 5.61505 13.2963 5.4449 13.4581 5.29226C13.6175 5.13712 13.8333 5.00825 14.098 4.90566C14.6967 4.67045 15.7091 4.76804 15.9789 4.86313C16.2975 4.97698 16.4825 5.07707 16.5673 5.13212C16.7831 5.276 16.8474 5.34606 16.8551 5.35358C16.9964 5.50496 17.4229 5.96788 18.0961 5.96788C18.497 5.96788 18.9801 5.73517 19.2293 5.43114C19.2447 5.41237 19.3012 5.33605 19.3141 5.31603C19.6815 4.81433 19.6302 4.12996 19.1908 3.68581C18.6229 3.11154 17.9985 2.68115 17.3279 2.4059C16.0611 1.89044 14.3189 1.85915 13.0367 2.35086C12.4201 2.58983 11.8907 2.92013 11.4642 3.32674C11.0248 3.74463 10.6856 4.23507 10.4621 4.77681C10.236 5.31104 10.1203 5.88156 10.1203 6.46959C10.1203 7.06263 10.218 7.60061 10.4133 8.0723C10.6085 8.54022 10.8809 8.9531 11.2227 9.29965C11.5387 9.61745 11.9087 9.89144 12.3224 10.1141C12.6719 10.3006 13.0496 10.4682 13.4504 10.6171C13.8179 10.751 14.1905 10.8736 14.5836 10.9912C14.9099 11.0838 15.2285 11.1889 15.5394 11.3002C15.8247 11.4028 16.0919 11.5167 16.3437 11.6468C16.5261 11.7381 16.6829 11.8482 16.8191 11.9808C16.9193 12.0759 16.9989 12.1935 17.0657 12.3462C17.1248 12.4788 17.1557 12.674 17.1557 12.9092C17.1557 13.242 17.0966 13.5535 16.9835 13.8375C16.8705 14.1165 16.7137 14.3492 16.5056 14.5519C16.2897 14.7608 16.0277 14.926 15.7039 15.0561C15.1515 15.2788 14.2573 15.3013 13.7177 15.17C13.4787 15.1124 13.2706 15.0436 13.1035 14.9635C12.9314 14.8809 12.7901 14.7984 12.6796 14.7133C12.5434 14.6107 12.4252 14.5131 12.3275 14.4205L12.0732 14.1665C11.5233 13.5885 10.6753 13.4947 10.1126 13.8825C10.0561 13.9213 9.91734 14.0427 9.86594 14.0902C9.37002 14.5569 9.3289 15.3176 9.77086 15.833C10.0509 16.1583 10.3439 16.4473 10.6496 16.7038C10.9811 16.9791 11.3434 17.2143 11.734 17.4082C12.1245 17.5997 12.5562 17.7485 13.0316 17.8536C13.4761 17.9512 13.9849 18 14.5399 18C15.3647 18 16.1202 17.8686 16.778 17.6097C17.4615 17.3457 18.0499 16.9716 18.5304 16.4987C19.0083 16.0295 19.3783 15.4727 19.6301 14.8447C19.8742 14.2329 20.0002 13.5698 20.0002 12.8716C20.0002 12.1197 19.8408 11.4629 19.5299 10.9161C19.237 10.4081 18.849 9.97399 18.3762 9.62743Z" fill="#171723"/>
</svg>
