<svg width="20" height="20" viewBox="0 0 20 20" fill="none" xmlns="http://www.w3.org/2000/svg">
<path fill-rule="evenodd" clip-rule="evenodd" d="M15.9301 11.885C16.2274 11.8311 16.5207 11.9976 16.6268 12.2805L17.2916 14.0533V12.5C17.2916 12.1548 17.5714 11.875 17.9166 11.875C18.2618 11.875 18.5416 12.1548 18.5416 12.5V17.5C18.5416 17.8022 18.3255 18.0611 18.0281 18.115C17.7308 18.1689 17.4375 18.0024 17.3314 17.7195L16.6666 15.9467V17.5C16.6666 17.8452 16.3868 18.125 16.0416 18.125C15.6964 18.125 15.4166 17.8452 15.4166 17.5V12.5C15.4166 12.1978 15.6328 11.9389 15.9301 11.885Z" fill="#171723"/>
<path fill-rule="evenodd" clip-rule="evenodd" d="M12.2916 13.125C12.1259 13.125 11.9669 13.1908 11.8497 13.3081C11.7325 13.4253 11.6666 13.5842 11.6666 13.75V16.25C11.6666 16.4158 11.7325 16.5747 11.8497 16.6919C11.9669 16.8092 12.1259 16.875 12.2916 16.875C12.4574 16.875 12.6164 16.8092 12.7336 16.6919C12.8508 16.5747 12.9166 16.4158 12.9166 16.25V13.75C12.9166 13.5842 12.8508 13.4253 12.7336 13.3081C12.6164 13.1908 12.4574 13.125 12.2916 13.125ZM10.9658 12.4242C11.3174 12.0725 11.7943 11.875 12.2916 11.875C12.7889 11.875 13.2658 12.0725 13.6175 12.4242C13.9691 12.7758 14.1666 13.2527 14.1666 13.75V16.25C14.1666 16.7473 13.9691 17.2242 13.6175 17.5758C13.2658 17.9275 12.7889 18.125 12.2916 18.125C11.7943 18.125 11.3174 17.9275 10.9658 17.5758C10.6142 17.2242 10.4166 16.7473 10.4166 16.25V13.75C10.4166 13.2527 10.6142 12.7758 10.9658 12.4242Z" fill="#171723"/>
<path fill-rule="evenodd" clip-rule="evenodd" d="M1.66663 12.5C1.66663 12.1548 1.94645 11.875 2.29163 11.875H4.16663C4.5118 11.875 4.79163 12.1548 4.79163 12.5V16.5625C4.79163 16.9769 4.62701 17.3743 4.33398 17.6674C4.04095 17.9604 3.64353 18.125 3.22913 18.125C2.81473 18.125 2.4173 17.9604 2.12427 17.6674C1.83125 17.3743 1.66663 16.9769 1.66663 16.5625V16.25C1.66663 15.9048 1.94645 15.625 2.29163 15.625C2.6368 15.625 2.91663 15.9048 2.91663 16.25V16.5625C2.91663 16.6454 2.94955 16.7249 3.00816 16.7835C3.06676 16.8421 3.14625 16.875 3.22913 16.875C3.31201 16.875 3.39149 16.8421 3.4501 16.7835C3.5087 16.7249 3.54163 16.6454 3.54163 16.5625V13.125H2.29163C1.94645 13.125 1.66663 12.8452 1.66663 12.5Z" fill="#171723"/>
<path fill-rule="evenodd" clip-rule="evenodd" d="M6.40774 12.2411C6.64216 12.0067 6.9601 11.875 7.29163 11.875H7.91663C8.24815 11.875 8.56609 12.0067 8.80051 12.2411C9.03493 12.4755 9.16663 12.7935 9.16663 13.125C9.16663 13.4702 8.8868 13.75 8.54163 13.75C8.19645 13.75 7.91663 13.4702 7.91663 13.125H7.29163V14.375H7.91663C8.24815 14.375 8.56609 14.5067 8.80051 14.7411C9.03493 14.9755 9.16663 15.2935 9.16663 15.625V16.875C9.16663 17.2065 9.03493 17.5245 8.80051 17.7589C8.56609 17.9933 8.24815 18.125 7.91663 18.125H7.29163C6.9601 18.125 6.64216 17.9933 6.40774 17.7589C6.17332 17.5245 6.04163 17.2065 6.04163 16.875C6.04163 16.5298 6.32145 16.25 6.66663 16.25C7.0118 16.25 7.29163 16.5298 7.29163 16.875H7.91663V15.625H7.29163C6.9601 15.625 6.64216 15.4933 6.40774 15.2589C6.17332 15.0245 6.04163 14.7065 6.04163 14.375V13.125C6.04163 12.7935 6.17332 12.4755 6.40774 12.2411Z" fill="#171723"/>
<path fill-rule="evenodd" clip-rule="evenodd" d="M16.4583 6.66667C16.4583 6.50405 16.3949 6.34797 16.2819 6.23144C16.3911 6.34398 16.4583 6.49747 16.4583 6.66667ZM12.1086 2.05806C12.2144 2.16406 12.2827 2.30817 12.2908 2.46784C12.2741 2.13761 12.001 1.875 11.6666 1.875C11.8324 1.875 11.9914 1.94085 12.1086 2.05806Z" fill="#171723"/>
<path fill-rule="evenodd" clip-rule="evenodd" d="M11.4688 6.86453C11.7423 7.13802 12.1132 7.29167 12.5 7.29167H15.2083V10C15.2083 10.3452 15.4881 10.625 15.8333 10.625C16.1785 10.625 16.4583 10.3452 16.4583 10V6.66667C16.4583 6.50405 16.3949 6.34797 16.2819 6.23144L16.2752 6.22473L16.2745 6.22401L12.1086 2.05806C11.9914 1.94085 11.8324 1.875 11.6666 1.875H5.83329C5.2255 1.875 4.64261 2.11644 4.21284 2.54621C3.78307 2.97598 3.54163 3.55888 3.54163 4.16667V10C3.54163 10.3452 3.82145 10.625 4.16663 10.625C4.5118 10.625 4.79163 10.3452 4.79163 10V4.16667C4.79163 3.8904 4.90137 3.62545 5.09672 3.4301C5.29207 3.23475 5.55703 3.125 5.83329 3.125H11.0416V5.83333C11.0416 6.22011 11.1953 6.59104 11.4688 6.86453ZM12.2916 5.83333C12.2916 5.88859 12.3136 5.94158 12.3526 5.98065C12.3917 6.01972 12.4447 6.04167 12.5 6.04167H14.3244L12.2916 4.00888V5.83333Z" fill="#171723"/>
</svg>
