<svg width="20" height="20" viewBox="0 0 20 20" fill="none" xmlns="http://www.w3.org/2000/svg">
<path fill-rule="evenodd" clip-rule="evenodd" d="M11.6667 1.875C12.0119 1.875 12.2917 2.15482 12.2917 2.5V5.83333C12.2917 5.88859 12.3137 5.94158 12.3528 5.98065C12.3918 6.01972 12.4448 6.04167 12.5001 6.04167H15.8334C16.1786 6.04167 16.4584 6.32149 16.4584 6.66667C16.4584 7.01184 16.1786 7.29167 15.8334 7.29167H12.5001C12.1133 7.29167 11.7424 7.13802 11.4689 6.86453C11.1954 6.59104 11.0417 6.22011 11.0417 5.83333V2.5C11.0417 2.15482 11.3216 1.875 11.6667 1.875Z" fill="#171723"/>
<path fill-rule="evenodd" clip-rule="evenodd" d="M5.83341 3.125C5.55715 3.125 5.2922 3.23475 5.09685 3.4301C4.90149 3.62545 4.79175 3.8904 4.79175 4.16667V10C4.79175 10.3452 4.51193 10.625 4.16675 10.625C3.82157 10.625 3.54175 10.3452 3.54175 10V4.16667C3.54175 3.55888 3.78319 2.97598 4.21296 2.54621C4.64273 2.11644 5.22563 1.875 5.83341 1.875H11.6667C11.8325 1.875 11.9915 1.94085 12.1087 2.05806L16.2754 6.22473C16.3926 6.34194 16.4584 6.50091 16.4584 6.66667V10C16.4584 10.3452 16.1786 10.625 15.8334 10.625C15.4882 10.625 15.2084 10.3452 15.2084 10V6.92555L11.4079 3.125H5.83341Z" fill="#171723"/>
<path fill-rule="evenodd" clip-rule="evenodd" d="M15.9302 11.885C16.2275 11.8311 16.5209 11.9976 16.627 12.2805L17.2917 14.0533V12.5C17.2917 12.1548 17.5716 11.875 17.9167 11.875C18.2619 11.875 18.5417 12.1548 18.5417 12.5V17.5C18.5417 17.8022 18.3256 18.0611 18.0283 18.115C17.7309 18.1689 17.4376 18.0024 17.3315 17.7195L16.6667 15.9467V17.5C16.6667 17.8452 16.3869 18.125 16.0417 18.125C15.6966 18.125 15.4167 17.8452 15.4167 17.5V12.5C15.4167 12.1978 15.6329 11.9389 15.9302 11.885Z" fill="#171723"/>
<path fill-rule="evenodd" clip-rule="evenodd" d="M12.2917 13.125C12.126 13.125 11.967 13.1908 11.8498 13.3081C11.7326 13.4253 11.6667 13.5842 11.6667 13.75V16.25C11.6667 16.4158 11.7326 16.5747 11.8498 16.6919C11.967 16.8092 12.126 16.875 12.2917 16.875C12.4575 16.875 12.6165 16.8092 12.7337 16.6919C12.8509 16.5747 12.9167 16.4158 12.9167 16.25V13.75C12.9167 13.5842 12.8509 13.4253 12.7337 13.3081C12.6165 13.1908 12.4575 13.125 12.2917 13.125ZM10.9659 12.4242C11.3176 12.0725 11.7945 11.875 12.2917 11.875C12.789 11.875 13.2659 12.0725 13.6176 12.4242C13.9692 12.7758 14.1667 13.2527 14.1667 13.75V16.25C14.1667 16.7473 13.9692 17.2242 13.6176 17.5758C13.2659 17.9275 12.789 18.125 12.2917 18.125C11.7945 18.125 11.3176 17.9275 10.9659 17.5758C10.6143 17.2242 10.4167 16.7473 10.4167 16.25V13.75C10.4167 13.2527 10.6143 12.7758 10.9659 12.4242Z" fill="#171723"/>
<path fill-rule="evenodd" clip-rule="evenodd" d="M1.66675 12.5C1.66675 12.1548 1.94657 11.875 2.29175 11.875H4.16675C4.51193 11.875 4.79175 12.1548 4.79175 12.5V16.5625C4.79175 16.9769 4.62713 17.3743 4.3341 17.6674C4.04108 17.9604 3.64365 18.125 3.22925 18.125C2.81485 18.125 2.41742 17.9604 2.12439 17.6674C1.83137 17.3743 1.66675 16.9769 1.66675 16.5625V16.25C1.66675 15.9048 1.94657 15.625 2.29175 15.625C2.63693 15.625 2.91675 15.9048 2.91675 16.25V16.5625C2.91675 16.6454 2.94967 16.7249 3.00828 16.7835C3.06688 16.8421 3.14637 16.875 3.22925 16.875C3.31213 16.875 3.39161 16.8421 3.45022 16.7835C3.50882 16.7249 3.54175 16.6454 3.54175 16.5625V13.125H2.29175C1.94657 13.125 1.66675 12.8452 1.66675 12.5Z" fill="#171723"/>
<path fill-rule="evenodd" clip-rule="evenodd" d="M6.40786 12.2411C6.64228 12.0067 6.96023 11.875 7.29175 11.875H7.91675C8.24827 11.875 8.56621 12.0067 8.80063 12.2411C9.03505 12.4755 9.16675 12.7935 9.16675 13.125C9.16675 13.4702 8.88693 13.75 8.54175 13.75C8.19657 13.75 7.91675 13.4702 7.91675 13.125H7.29175V14.375H7.91675C8.24827 14.375 8.56621 14.5067 8.80063 14.7411C9.03505 14.9755 9.16675 15.2935 9.16675 15.625V16.875C9.16675 17.2065 9.03505 17.5245 8.80063 17.7589C8.56621 17.9933 8.24827 18.125 7.91675 18.125H7.29175C6.96023 18.125 6.64228 17.9933 6.40786 17.7589C6.17344 17.5245 6.04175 17.2065 6.04175 16.875C6.04175 16.5298 6.32157 16.25 6.66675 16.25C7.01193 16.25 7.29175 16.5298 7.29175 16.875H7.91675V15.625H7.29175C6.96023 15.625 6.64228 15.4933 6.40786 15.2589C6.17344 15.0245 6.04175 14.7065 6.04175 14.375V13.125C6.04175 12.7935 6.17344 12.4755 6.40786 12.2411Z" fill="#171723"/>
</svg>
