<svg width="20" height="20" viewBox="0 0 20 20" fill="none" xmlns="http://www.w3.org/2000/svg">
<g clip-path="url(#clip0_10317_147132)">
<path d="M2.64462 6.75781C2.57514 6.75777 2.50634 6.77142 2.44214 6.79799C2.37795 6.82456 2.31962 6.86353 2.27049 6.91265C2.22136 6.96178 2.1824 7.02011 2.15583 7.08431C2.12926 7.14851 2.1156 7.21731 2.11564 7.28679V10.9612C2.11993 11.1642 2.09382 11.3667 2.03816 11.562C2.00019 11.6928 1.93585 11.8145 1.84909 11.9195C1.78073 11.999 1.69378 12.0604 1.59597 12.0982C1.41943 12.1586 1.23183 12.1795 1.04633 12.1597C0.999777 12.1519 0.959575 12.1437 0.935781 12.1375L0.819025 12.1034C0.742563 12.0805 0.663271 12.0685 0.583472 12.0677C0.462226 12.0793 0.346506 12.124 0.249004 12.197C0.151502 12.27 0.0759839 12.3684 0.0307321 12.4815C0.0070976 12.5477 -0.00307665 12.618 0.000805841 12.6882C0.00468833 12.7585 0.0225495 12.8272 0.0533421 12.8904C0.0841347 12.9536 0.127239 13.0101 0.180128 13.0564C0.233017 13.1028 0.294626 13.1381 0.361343 13.1603C0.62974 13.2526 0.911286 13.3009 1.1951 13.3034C1.47545 13.3057 1.75375 13.2553 2.01542 13.1546C2.2793 13.0511 2.51529 12.8873 2.70454 12.6763C2.89561 12.4576 3.03947 12.2019 3.1271 11.9251C3.22434 11.6132 3.27142 11.2879 3.26658 10.9612V7.28679C3.24535 7.13789 3.17039 7.00191 3.05582 6.90447C2.94125 6.80703 2.79499 6.75486 2.64462 6.75781Z" fill="#171723"/>
<path d="M7.38879 9.84646C7.20979 9.71345 7.01293 9.60632 6.80403 9.52825C6.62735 9.4616 6.44655 9.39706 6.26471 9.33712C6.09529 9.28082 5.92792 9.2221 5.76261 9.16097C5.64639 9.11935 5.53652 9.0618 5.43612 8.98997C5.36525 8.93943 5.30605 8.87425 5.26255 8.79884C5.22512 8.71884 5.20808 8.63081 5.21296 8.54262C5.21221 8.45037 5.22977 8.3589 5.26462 8.27348C5.29754 8.19155 5.34755 8.11759 5.41132 8.05652C5.48541 7.98647 5.57293 7.93217 5.66859 7.89689C5.91454 7.82333 6.17575 7.81726 6.42486 7.87933C6.5076 7.90745 6.58696 7.94471 6.66145 7.99042C6.70315 8.01672 6.74194 8.04737 6.77717 8.08186C6.83772 8.15697 6.9135 8.2184 6.99951 8.26212C7.08552 8.30583 7.17981 8.33084 7.27618 8.33549C7.36322 8.33155 7.44853 8.30985 7.52688 8.27174C7.60523 8.23364 7.67496 8.17992 7.7318 8.11388C7.738 8.10613 7.76074 8.07462 7.7659 8.06636C7.83755 7.96603 7.87181 7.84379 7.86275 7.72084C7.8537 7.59789 7.80188 7.48199 7.7163 7.39325C7.5052 7.16794 7.25032 6.98811 6.96727 6.86479C6.41367 6.64953 5.80096 6.64146 5.24189 6.84206C5.00647 6.93307 4.79152 7.07004 4.6096 7.24499C4.43504 7.41431 4.2978 7.61825 4.20666 7.84371C4.11543 8.06541 4.06874 8.3029 4.06926 8.54264C4.06571 8.76873 4.1057 8.99339 4.18704 9.20438C4.26228 9.39247 4.37274 9.56446 4.51248 9.71114C4.64242 9.84452 4.79145 9.95786 4.9547 10.0474C5.10099 10.1269 5.25252 10.1963 5.40826 10.2551C5.556 10.3104 5.70581 10.361 5.86389 10.4096C5.99507 10.4478 6.12321 10.4912 6.24822 10.5372C6.35909 10.5776 6.46713 10.6254 6.57159 10.6802C6.64215 10.7159 6.70665 10.7625 6.76273 10.8182C6.80563 10.8613 6.83936 10.9126 6.86192 10.969C6.8889 11.0434 6.90118 11.1224 6.89808 11.2015C6.89899 11.3324 6.87552 11.4624 6.82886 11.5848C6.78613 11.6955 6.72067 11.7959 6.63669 11.8797C6.54413 11.9699 6.43455 12.0406 6.31434 12.0879C6.05737 12.176 5.78124 12.1923 5.51571 12.1349C5.43064 12.1153 5.34788 12.0867 5.26879 12.0497C5.20853 12.0213 5.1514 11.9866 5.09832 11.9464C5.04892 11.9088 5.00166 11.8684 4.95677 11.8255L4.85443 11.7206C4.75907 11.6096 4.62691 11.5366 4.48213 11.515C4.33736 11.4935 4.18967 11.5248 4.06612 11.6033C4.0434 11.6194 3.9876 11.6695 3.96694 11.689C3.87085 11.782 3.8135 11.9078 3.80641 12.0413C3.79932 12.1748 3.84301 12.306 3.92872 12.4086C4.03657 12.5378 4.15475 12.6581 4.28207 12.7682C4.41549 12.8819 4.56183 12.9795 4.71807 13.059C4.88386 13.1413 5.05907 13.203 5.23981 13.2429C5.43914 13.2852 5.64252 13.3055 5.84628 13.3033C6.1538 13.3078 6.45931 13.2531 6.74616 13.1422C7.01035 13.0399 7.25033 12.8837 7.45076 12.6834C7.64359 12.4887 7.79414 12.2562 7.89298 12.0005C7.99279 11.7406 8.04324 11.4643 8.04175 11.1859C8.04857 10.9051 7.98349 10.6271 7.85267 10.3785C7.73678 10.1708 7.57878 9.98958 7.38879 9.84646Z" fill="#171723"/>
<path d="M13.419 7.61173C13.1462 7.31544 12.812 7.08236 12.4396 6.92881C11.6547 6.61944 10.7815 6.62036 9.99722 6.93139C9.62757 7.08705 9.29567 7.32029 9.02398 7.61535C8.74748 7.92088 8.53526 8.27891 8.39996 8.66813C8.11343 9.53372 8.11343 10.4686 8.39996 11.3342C8.53592 11.7226 8.74848 12.0797 9.02502 12.3844C9.29754 12.6783 9.63019 12.91 10.0003 13.0637C10.7839 13.3736 11.6561 13.3736 12.4396 13.0637C12.8108 12.9109 13.1443 12.6791 13.417 12.3844C13.694 12.08 13.9066 11.7228 14.042 11.3342C14.3299 10.4679 14.3299 9.53178 14.042 8.66553C13.9072 8.276 13.6953 7.91761 13.419 7.61173ZM12.9521 10.953C12.8695 11.1978 12.7389 11.4237 12.5677 11.6173C12.4079 11.7915 12.2113 11.9281 11.9923 12.0171C11.4964 12.2078 10.9475 12.2076 10.4518 12.0166C10.2323 11.9274 10.0353 11.7905 9.87531 11.6157C9.7017 11.4223 9.56887 11.1958 9.48477 10.9499C9.2864 10.3312 9.2864 9.66598 9.48477 9.0473C9.56945 8.79977 9.70295 8.57176 9.87737 8.37678C10.0366 8.20176 10.2328 8.06446 10.4518 7.97488C10.695 7.87693 10.9553 7.82829 11.2174 7.8318C11.483 7.82784 11.7467 7.87665 11.9933 7.9754C12.212 8.06444 12.408 8.20143 12.5667 8.37627C12.7385 8.57091 12.8696 8.79803 12.9521 9.0442C13.1477 9.66542 13.1477 10.3317 12.9521 10.953H12.9521Z" fill="#171723"/>
<path d="M19.3937 6.75778C19.3242 6.75774 19.2554 6.77139 19.1912 6.79796C19.127 6.82453 19.0687 6.8635 19.0196 6.91262C18.9704 6.96175 18.9315 7.02008 18.9049 7.08428C18.8783 7.14848 18.8647 7.21728 18.8647 7.28676V10.9266L15.9843 7.00522H15.9832C15.9187 6.93226 15.8404 6.87282 15.7528 6.83034C15.6652 6.78786 15.57 6.7632 15.4728 6.75778C15.4033 6.75774 15.3345 6.77139 15.2703 6.79796C15.2062 6.82453 15.1478 6.8635 15.0987 6.91262C15.0496 6.96175 15.0106 7.02008 14.984 7.08428C14.9575 7.14848 14.9438 7.21728 14.9438 7.28676V12.7129C14.9613 12.8604 15.0328 12.9962 15.1447 13.094C15.2566 13.1917 15.4007 13.2444 15.5493 13.2419C15.6188 13.2419 15.6876 13.2283 15.7518 13.2017C15.8159 13.1751 15.8743 13.1362 15.9234 13.087C15.9725 13.0379 16.0115 12.9796 16.0381 12.9154C16.0646 12.8512 16.0783 12.7824 16.0783 12.7129V9.05239L18.9659 12.9789C19.0261 13.0567 19.1024 13.1205 19.1897 13.1659C19.2769 13.2113 19.3729 13.2372 19.4711 13.2418C19.5406 13.2419 19.6094 13.2282 19.6736 13.2017C19.7378 13.1751 19.7961 13.1361 19.8453 13.087C19.8944 13.0379 19.9334 12.9795 19.9599 12.9153C19.9865 12.8512 20.0002 12.7823 20.0001 12.7129V7.28676C19.9825 7.13915 19.9107 7.00334 19.7987 6.90562C19.6866 6.8079 19.5423 6.75522 19.3937 6.75778Z" fill="#171723"/>
</g>
<defs>
<clipPath id="clip0_10317_147132">
<rect width="20" height="20" fill="white"/>
</clipPath>
</defs>
</svg>
