<svg width="20" height="20" viewBox="0 0 20 20" fill="none" xmlns="http://www.w3.org/2000/svg">
<g clip-path="url(#clip0_10317_147137)">
<g clip-path="url(#clip1_10317_147137)">
<path d="M12.7299 11.9014C12.6654 11.7062 12.5616 11.5262 12.4248 11.3727C12.299 11.231 12.1425 11.1197 11.9673 11.0473C11.7692 10.9723 11.5589 10.9344 11.3471 10.9355C11.1374 10.9327 10.9294 10.9743 10.7369 11.0575C10.5604 11.1226 10.4031 11.2309 10.2794 11.3727C10.1408 11.5305 10.0338 11.7135 9.96417 11.9116C9.80166 12.4 9.80166 12.928 9.96417 13.4164C10.0338 13.6115 10.1409 13.7911 10.2794 13.9451C10.4053 14.0869 10.5617 14.1981 10.7369 14.2705C11.1329 14.423 11.5714 14.423 11.9673 14.2705C12.1425 14.1982 12.299 14.0869 12.4248 13.9451C12.5637 13.7931 12.6678 13.6127 12.7299 13.4164C12.8156 13.175 12.8569 12.9201 12.8519 12.664C12.856 12.4046 12.8147 12.1466 12.7299 11.9014V11.9014Z" fill="#171723"/>
<path d="M18.8103 2.66907L17.3359 1.19475C16.5723 0.432622 15.5374 0.00475231 14.4585 0.0051272H4.06709C3.53295 0.00497624 3.00402 0.110072 2.51051 0.314409C2.017 0.518746 1.56858 0.81832 1.19089 1.19601C0.813193 1.57371 0.513619 2.02212 0.309282 2.51563C0.104945 3.00914 -0.000150796 3.53808 1.62397e-07 4.07222V15.9278C-0.000150796 16.4619 0.104945 16.9909 0.309282 17.4844C0.513619 17.9779 0.813193 18.4263 1.19089 18.804C1.56858 19.1817 2.017 19.4813 2.51051 19.6856C3.00402 19.8899 3.53295 19.995 4.06709 19.9949H15.9328C16.467 19.995 16.9959 19.8899 17.4894 19.6856C17.9829 19.4812 18.4313 19.1817 18.809 18.804C19.1867 18.4263 19.4863 17.9779 19.6906 17.4844C19.895 16.9909 20.0001 16.4619 19.9999 15.9278V5.54654C20.0003 4.46765 19.5725 3.43271 18.8103 2.66907V2.66907ZM4.04676 13.4164C4.04913 13.6682 4.01138 13.9187 3.93491 14.1586C3.86772 14.3723 3.75689 14.5696 3.60944 14.7382C3.46879 14.898 3.29059 15.0203 3.09089 15.094C2.89105 15.1764 2.67674 15.2179 2.46061 15.2161C2.24242 15.2136 2.02606 15.1758 1.81992 15.1042C1.77013 15.0891 1.72398 15.0639 1.68435 15.0302C1.64472 14.9964 1.61246 14.9549 1.58956 14.9082C1.56667 14.8614 1.55365 14.8105 1.5513 14.7585C1.54895 14.7065 1.55732 14.6546 1.5759 14.606C1.62607 14.5009 1.71166 14.4168 1.81765 14.3684C1.92363 14.3201 2.04325 14.3106 2.15553 14.3416C2.1657 14.3416 2.32831 14.3823 2.33848 14.3823C2.48955 14.3997 2.6426 14.3823 2.78593 14.3315C2.86478 14.3022 2.93482 14.2532 2.98936 14.1891C3.06373 14.1049 3.11609 14.0036 3.14177 13.8943C3.19404 13.7405 3.21818 13.5787 3.21301 13.4164V10.5491C3.21185 10.4989 3.2207 10.449 3.23906 10.4022C3.25742 10.3555 3.28491 10.3129 3.31993 10.2769C3.35495 10.2409 3.39679 10.2123 3.44301 10.1927C3.48923 10.1731 3.53889 10.1629 3.5891 10.1627C3.6993 10.1605 3.80654 10.1985 3.89077 10.2696C3.97499 10.3407 4.03043 10.4401 4.04672 10.5491L4.04676 13.4164ZM8.04273 14.2196C7.96259 14.4135 7.8451 14.5896 7.69693 14.7381C7.54629 14.8933 7.36188 15.0116 7.15804 15.0838C6.93954 15.1763 6.7039 15.2213 6.4667 15.216C6.30942 15.2158 6.15262 15.1988 5.99898 15.1652C5.86132 15.1346 5.72809 15.0868 5.60244 15.0228C5.48093 14.9639 5.36804 14.8886 5.26691 14.7991C5.17036 14.7128 5.07871 14.6211 4.99238 14.5246C4.92937 14.4503 4.89829 14.3541 4.90591 14.2569C4.91353 14.1598 4.95923 14.0696 5.03305 14.006C5.12227 13.9375 5.22702 13.8921 5.33801 13.8739C5.39968 13.8762 5.46026 13.8909 5.51614 13.9171C5.57203 13.9433 5.62207 13.9805 5.66332 14.0264L5.75492 14.1179C5.78834 14.1528 5.8259 14.1836 5.86676 14.2094C5.90535 14.2445 5.95018 14.2721 5.99894 14.2907C6.06381 14.3221 6.13204 14.3459 6.2023 14.3619C6.4154 14.4088 6.63741 14.3947 6.84287 14.3212C6.94225 14.2879 7.03267 14.2322 7.10723 14.1585C7.17619 14.088 7.23137 14.0053 7.26991 13.9145C7.30327 13.8127 7.32045 13.7064 7.3208 13.5993C7.32087 13.5337 7.31058 13.4685 7.2903 13.4061C7.26925 13.3586 7.24186 13.3141 7.20887 13.2739C7.15803 13.2332 7.1072 13.2027 7.04628 13.1621C6.97504 13.1214 6.8836 13.0909 6.79209 13.0502C6.69031 13.0197 6.58866 12.9791 6.48706 12.9486C6.36504 12.918 6.2532 12.8774 6.13109 12.8367C6.01311 12.7886 5.89776 12.7343 5.78554 12.674C5.65884 12.6066 5.54518 12.517 5.44993 12.4097C5.34353 12.3024 5.26045 12.1743 5.2059 12.0335C5.14339 11.8713 5.11231 11.6988 5.11431 11.5251C5.11164 11.3437 5.14628 11.1638 5.21608 10.9963C5.28117 10.8224 5.38554 10.6659 5.52108 10.5389C5.66157 10.4029 5.82739 10.2958 6.00913 10.2237C6.43806 10.0726 6.90686 10.0799 7.33094 10.244C7.54734 10.343 7.74372 10.4808 7.91032 10.6507C7.9661 10.7142 8.00013 10.7938 8.00744 10.8779C8.01476 10.9621 7.99498 11.0464 7.951 11.1185C7.94083 11.1388 7.91032 11.1693 7.90024 11.1896C7.81797 11.2766 7.70477 11.3278 7.5851 11.332C7.5148 11.3281 7.44604 11.3099 7.38306 11.2784C7.32008 11.2469 7.26423 11.2029 7.21895 11.149C7.20878 11.1388 7.18845 11.1185 7.12744 11.0676C7.06334 11.0295 6.99508 10.9988 6.924 10.9761C6.72305 10.9285 6.51335 10.932 6.31409 10.9863C6.23553 11.0216 6.16335 11.0697 6.10049 11.1286C6.04868 11.1775 6.00719 11.2363 5.97848 11.3015C5.95423 11.3737 5.94053 11.449 5.9378 11.5252C5.93382 11.5998 5.95149 11.6739 5.98869 11.7387C6.01887 11.8059 6.0684 11.8625 6.13094 11.9014C6.21137 11.9594 6.30064 12.004 6.3953 12.0336C6.51743 12.0844 6.6495 12.1352 6.7818 12.1759C6.92403 12.2267 7.06649 12.2776 7.19858 12.3284C7.36311 12.3849 7.51757 12.4673 7.65613 12.5725C7.80062 12.6831 7.92162 12.8213 8.01209 12.9792C8.1102 13.1673 8.15917 13.3772 8.15444 13.5893C8.15368 13.8042 8.11588 14.0175 8.04268 14.2196H8.04273ZM13.523 13.6909C13.4194 13.9911 13.2569 14.2676 13.0451 14.5043C12.8326 14.7296 12.5767 14.9094 12.2927 15.033C11.991 15.1488 11.6704 15.2074 11.3472 15.2059C11.0273 15.2074 10.71 15.1488 10.4118 15.033C10.1264 14.9119 9.87 14.7317 9.65936 14.5043C9.44772 14.2714 9.28516 13.9982 9.18138 13.7011C9.06487 13.3678 9.00643 13.017 9.0086 12.664C9.00731 12.3151 9.06224 11.9684 9.17129 11.637C9.28242 11.3381 9.44788 11.0623 9.65934 10.8236C9.86805 10.594 10.125 10.4134 10.4118 10.2949C11.016 10.0559 11.6885 10.0559 12.2928 10.2949C12.5787 10.4149 12.8354 10.5952 13.0452 10.8236C13.257 11.0603 13.4194 11.3368 13.5231 11.637C13.7536 12.3022 13.7536 13.0257 13.5231 13.6909H13.523ZM5.63286 7.74277C5.4987 7.74063 5.37063 7.68638 5.27575 7.5915C5.18087 7.49662 5.12662 7.36855 5.12448 7.23439V2.37421C5.12489 2.2395 5.17858 2.11043 5.27384 2.01518C5.36909 1.91993 5.49816 1.86624 5.63286 1.86582H14.3568C14.4238 1.86516 14.4902 1.87786 14.5522 1.90318C14.6142 1.92849 14.6705 1.96591 14.7178 2.01325C14.7651 2.06059 14.8026 2.1169 14.8279 2.17888C14.8532 2.24086 14.8659 2.30726 14.8652 2.37421V7.23439C14.8648 7.3691 14.8111 7.49818 14.7159 7.59344C14.6206 7.68869 14.4916 7.74238 14.3568 7.74277H5.63286ZM18.4443 14.789C18.4422 14.8899 18.4005 14.9859 18.3282 15.0563C18.2559 15.1267 18.1588 15.1658 18.0579 15.1652C17.9841 15.1611 17.9121 15.1407 17.8471 15.1056C17.7821 15.0704 17.7256 15.0213 17.6817 14.9619L15.3736 11.82V14.789C15.3721 14.8883 15.332 14.9831 15.2618 15.0534C15.1915 15.1236 15.0967 15.1637 14.9974 15.1652C14.8899 15.1675 14.7852 15.1306 14.7028 15.0614C14.6205 14.9921 14.5662 14.8953 14.55 14.789V10.5491C14.5499 10.4983 14.5599 10.4481 14.5794 10.4012C14.5988 10.3543 14.6273 10.3117 14.6631 10.2758C14.699 10.2399 14.7417 10.2115 14.7886 10.192C14.8354 10.1726 14.8857 10.1627 14.9365 10.1627C15.0065 10.1675 15.0749 10.1862 15.1377 10.2176C15.2005 10.249 15.2565 10.2926 15.3024 10.3458L17.6206 13.4876V10.5491C17.6195 10.4989 17.6283 10.4489 17.6467 10.4022C17.6651 10.3555 17.6926 10.3128 17.7276 10.2769C17.7627 10.2409 17.8046 10.2123 17.8508 10.1927C17.897 10.1731 17.9467 10.1629 17.9969 10.1627C18.106 10.1607 18.2119 10.1991 18.2944 10.2704C18.377 10.3417 18.4303 10.4409 18.4443 10.5491L18.4443 14.789Z" fill="#171723"/>
</g>
</g>
<defs>
<clipPath id="clip0_10317_147137">
<rect width="20" height="20" fill="white"/>
</clipPath>
<clipPath id="clip1_10317_147137">
<rect width="20" height="20" fill="white"/>
</clipPath>
</defs>
</svg>
