<svg width="20" height="20" viewBox="0 0 20 20" fill="none" xmlns="http://www.w3.org/2000/svg">
<path d="M0.817692 11.0545C0.817692 11.7846 0.759286 12.0224 0.609096 12.1976C0.441942 12.3481 0.224938 12.4313 0 12.4312L0.0584068 12.8484C0.407136 12.8531 0.745514 12.7299 1.0096 12.5021C1.15169 12.3289 1.25743 12.1287 1.32051 11.9137C1.38358 11.6987 1.4027 11.4731 1.37673 11.2506V8.48877H0.817692V11.0378V11.0545Z" fill="#4E4E4E"/>
<path d="M4.98681 10.7256C4.98681 11.0385 4.98681 11.318 5.01184 11.56H4.51538L4.48201 11.0635C4.37817 11.2392 4.22966 11.3842 4.0516 11.4839C3.87353 11.5835 3.67226 11.6343 3.46823 11.6309C2.98429 11.6309 2.40857 11.3681 2.40857 10.2959V8.51449H2.96761V10.1832C2.96761 10.7631 3.147 11.1511 3.6518 11.1511C3.75565 11.1523 3.85868 11.1326 3.95485 11.0934C4.05102 11.0542 4.13839 10.9961 4.21183 10.9227C4.28527 10.8492 4.34331 10.7619 4.38254 10.6657C4.42177 10.5695 4.4414 10.4665 4.44029 10.3626V8.49363H4.99932V10.7089L4.98681 10.7256Z" fill="#4E4E4E"/>
<path d="M6.04639 9.50619C6.04639 9.1182 6.04639 8.80114 6.02136 8.51328H6.52199L6.54702 9.03476C6.65856 8.84636 6.81913 8.69175 7.01162 8.58742C7.20412 8.48309 7.42131 8.43295 7.64006 8.44235C8.38266 8.44235 8.94169 9.06397 8.94169 9.99013C8.94169 11.0832 8.27002 11.6255 7.5441 11.6255C7.35831 11.6338 7.17352 11.594 7.00761 11.51C6.84171 11.4259 6.7003 11.3005 6.59708 11.1457V12.8145H6.04639V9.51871V9.50619ZM6.59708 10.3197C6.5986 10.3954 6.60698 10.4708 6.62212 10.545C6.66945 10.7302 6.7772 10.8944 6.92832 11.0115C7.07944 11.1286 7.2653 11.192 7.4565 11.1916C8.04473 11.1916 8.391 10.7119 8.391 10.0152C8.391 9.40606 8.0656 8.88458 7.47736 8.88458C7.24457 8.90364 7.02673 9.00696 6.86467 9.17515C6.70262 9.34335 6.60748 9.56489 6.59708 9.79822V10.3197Z" fill="#4E4E4E"/>
<path d="M9.93782 8.51113L10.6095 10.3092C10.6804 10.5095 10.7555 10.7514 10.8056 10.9308C10.864 10.7473 10.9266 10.5136 11.0017 10.2967L11.6107 8.51113H12.199L11.3646 10.6805C10.9474 11.7235 10.6929 12.2617 10.3091 12.5871C10.1158 12.7637 9.8801 12.8872 9.62492 12.9459L9.48725 12.4786C9.66568 12.42 9.83132 12.328 9.97536 12.2074C10.1789 12.0416 10.3404 11.83 10.4468 11.59C10.4696 11.5484 10.4851 11.5033 10.4927 11.4565C10.4879 11.4061 10.4753 11.3569 10.4551 11.3105L9.32037 8.50278H9.92947L9.93782 8.51113Z" fill="#4E4E4E"/>
<path d="M13.6831 7.63606V8.51216H14.4841V8.92935H13.6831V10.5731C13.6831 10.9486 13.7916 11.1655 14.1003 11.1655C14.2099 11.1673 14.3193 11.1547 14.4257 11.1279L14.4507 11.5451C14.2912 11.6004 14.1229 11.6258 13.9543 11.6202C13.8425 11.6272 13.7306 11.61 13.6262 11.5696C13.5218 11.5293 13.4274 11.4669 13.3493 11.3866C13.1794 11.1593 13.1019 10.8761 13.1324 10.5939V8.92518H12.6568V8.50799H13.1407V7.76539L13.6831 7.63606Z" fill="#4E4E4E"/>
<path d="M15.5138 10.1324C15.5025 10.2739 15.522 10.4162 15.5711 10.5494C15.6201 10.6826 15.6975 10.8035 15.7979 10.9039C15.8982 11.0043 16.0192 11.0816 16.1524 11.1307C16.2856 11.1797 16.4278 11.1992 16.5693 11.1879C16.8555 11.1943 17.1398 11.1403 17.4037 11.0294L17.4997 11.4466C17.1758 11.58 16.8276 11.6439 16.4775 11.6343C16.2735 11.6483 16.0688 11.6179 15.8775 11.5454C15.6862 11.4728 15.5129 11.3597 15.3695 11.2139C15.226 11.0681 15.1158 10.8929 15.0464 10.7005C14.977 10.5081 14.95 10.3029 14.9673 10.0991C14.9673 9.18123 15.5138 8.45532 16.4066 8.45532C17.4079 8.45532 17.6582 9.33142 17.6582 9.89046C17.6635 9.97659 17.6635 10.063 17.6582 10.1491H15.5013L15.5138 10.1324ZM17.1492 9.71524C17.1653 9.6037 17.1573 9.49001 17.1258 9.38182C17.0942 9.27364 17.0398 9.17347 16.9663 9.08807C16.8928 9.00268 16.8018 8.93404 16.6995 8.88678C16.5972 8.83952 16.4859 8.81474 16.3732 8.81411C16.144 8.8307 15.9293 8.9323 15.7711 9.099C15.6129 9.26569 15.5226 9.48546 15.518 9.71524H17.1492Z" fill="#4E4E4E"/>
<path d="M18.5064 9.45973C18.5064 9.10095 18.5064 8.79223 18.4814 8.50854H18.982V9.10512H19.007C19.0596 8.92099 19.1682 8.75779 19.3177 8.63817C19.4672 8.51855 19.6503 8.44846 19.8414 8.43761C19.894 8.43071 19.9473 8.43071 20 8.43761V8.9591C19.9362 8.95172 19.8718 8.95172 19.808 8.9591C19.6187 8.96644 19.4384 9.04246 19.301 9.17298C19.1636 9.30349 19.0784 9.47957 19.0613 9.66833C19.0457 9.75369 19.0373 9.84022 19.0362 9.92698V11.5499H18.4856V9.4639L18.5064 9.45973Z" fill="#4E4E4E"/>
<path d="M10.0121 16.4698C6.2574 16.4698 2.9574 15.1223 1.2511 13.1323C1.91315 14.9226 3.10775 16.467 4.6741 17.5578C6.24044 18.6486 8.10339 19.2333 10.0121 19.2333C11.9208 19.2333 13.7837 18.6486 15.3501 17.5578C16.9164 16.467 18.111 14.9226 18.7731 13.1323C17.071 15.1223 13.7835 16.4698 10.0121 16.4698Z" fill="#F37726"/>
<path d="M10.0121 3.5298C13.7668 3.5298 17.0668 4.87732 18.7731 6.86731C18.111 5.07709 16.9164 3.53265 15.3501 2.44187C13.7837 1.3511 11.9208 0.766365 10.0121 0.766365C8.10339 0.766365 6.24044 1.3511 4.6741 2.44187C3.10775 3.53265 1.91315 5.07709 1.2511 6.86731C2.9574 4.87315 6.24072 3.5298 10.0121 3.5298Z" fill="#F37726"/>
</svg>
