<svg width="20" height="20" viewBox="0 0 20 20" fill="none" xmlns="http://www.w3.org/2000/svg">
<g clip-path="url(#clip0_18489_1629)">
<mask id="mask0_18489_1629" style="mask-type:luminance" maskUnits="userSpaceOnUse" x="-9" y="-9" width="96" height="44">
<path d="M-8.76929 -8.77173H86.425V34.0637H-8.76929V-8.77173Z" fill="white"/>
</mask>
<g mask="url(#mask0_18489_1629)">
<path d="M15.688 19.882C15.6683 19.9604 15.5899 19.9996 15.4532 19.9996H12.8388C12.6817 19.9996 12.5456 19.9311 12.4277 19.7938L8.11071 14.3021L6.90678 15.4474V19.7065C6.90678 19.9025 6.80862 20.0003 6.61296 20.0003H4.58654C4.39055 20.0003 4.29272 19.9025 4.29272 19.7065V0.293769C4.29272 0.0984395 4.39055 0.000610352 4.58654 0.000610352H6.61329C6.80895 0.000610352 6.90711 0.0987689 6.90711 0.293769V12.2467L12.0759 7.01929C12.213 6.88259 12.35 6.81375 12.487 6.81375H15.1893C15.3066 6.81375 15.3847 6.86316 15.4242 6.96033C15.4637 7.07792 15.4538 7.16587 15.3945 7.22483L9.93159 12.5103L15.6291 19.5882C15.7071 19.6666 15.7266 19.7645 15.688 19.882Z" fill="#171723"/>
</g>
</g>
<defs>
<clipPath id="clip0_18489_1629">
<rect width="20" height="20" fill="white"/>
</clipPath>
</defs>
</svg>
