<svg width="20" height="20" viewBox="0 0 20 20" fill="none" xmlns="http://www.w3.org/2000/svg">
<g clip-path="url(#clip0_10314_145409)">
<path d="M18.4789 16.1123H1.5221C1.11881 16.1118 0.732172 15.9514 0.447005 15.6663C0.161838 15.3811 0.00143135 14.9945 0.000976562 14.5912V5.40882C0.00143135 5.00553 0.161838 4.61889 0.447005 4.33372C0.732172 4.04856 1.11881 3.88815 1.5221 3.8877H18.4789C18.8822 3.88815 19.2688 4.04855 19.554 4.33372C19.8391 4.61889 19.9995 5.00553 20 5.40882V14.5912C19.9995 14.9945 19.8391 15.3811 19.554 15.6663C19.2688 15.9514 18.8822 16.1118 18.4789 16.1123ZM1.5221 4.90443C1.38838 4.90461 1.2602 4.95782 1.16565 5.05237C1.0711 5.14692 1.0179 5.2751 1.01771 5.40882V14.5912C1.0179 14.7249 1.0711 14.8531 1.16565 14.9476C1.2602 15.0422 1.38838 15.0954 1.5221 15.0956H18.4789C18.6126 15.0954 18.7408 15.0422 18.8353 14.9476C18.9299 14.8531 18.9831 14.7249 18.9833 14.5912V5.40882C18.9831 5.2751 18.9299 5.14692 18.8353 5.05237C18.7408 4.95782 18.6126 4.90461 18.4789 4.90443H1.5221Z" fill="#171723"/>
<path d="M4.06756 8.39647C4.49239 8.39647 4.83678 8.05208 4.83678 7.62725C4.83678 7.20242 4.49239 6.85803 4.06756 6.85803C3.64273 6.85803 3.29834 7.20242 3.29834 7.62725C3.29834 8.05208 3.64273 8.39647 4.06756 8.39647Z" fill="#171723"/>
<path d="M6.44061 8.39647C6.86543 8.39647 7.20982 8.05208 7.20982 7.62725C7.20982 7.20242 6.86543 6.85803 6.44061 6.85803C6.01578 6.85803 5.67139 7.20242 5.67139 7.62725C5.67139 8.05208 6.01578 8.39647 6.44061 8.39647Z" fill="#171723"/>
<path d="M8.81267 8.39647C9.2375 8.39647 9.58189 8.05208 9.58189 7.62725C9.58189 7.20242 9.2375 6.85803 8.81267 6.85803C8.38785 6.85803 8.04346 7.20242 8.04346 7.62725C8.04346 8.05208 8.38785 8.39647 8.81267 8.39647Z" fill="#171723"/>
<path d="M11.1862 8.39647C11.611 8.39647 11.9554 8.05208 11.9554 7.62725C11.9554 7.20242 11.611 6.85803 11.1862 6.85803C10.7614 6.85803 10.417 7.20242 10.417 7.62725C10.417 8.05208 10.7614 8.39647 11.1862 8.39647Z" fill="#171723"/>
<path d="M13.5583 8.39647C13.9831 8.39647 14.3275 8.05208 14.3275 7.62725C14.3275 7.20242 13.9831 6.85803 13.5583 6.85803C13.1335 6.85803 12.7891 7.20242 12.7891 7.62725C12.7891 8.05208 13.1335 8.39647 13.5583 8.39647Z" fill="#171723"/>
<path d="M15.9318 8.39647C16.3566 8.39647 16.701 8.05208 16.701 7.62725C16.701 7.20242 16.3566 6.85803 15.9318 6.85803C15.507 6.85803 15.1626 7.20242 15.1626 7.62725C15.1626 8.05208 15.507 8.39647 15.9318 8.39647Z" fill="#171723"/>
<path d="M5.25213 10.7693C5.67696 10.7693 6.02135 10.4249 6.02135 10.0001C6.02135 9.57523 5.67696 9.23083 5.25213 9.23083C4.8273 9.23083 4.48291 9.57523 4.48291 10.0001C4.48291 10.4249 4.8273 10.7693 5.25213 10.7693Z" fill="#171723"/>
<path d="M7.62517 10.7693C8.05 10.7693 8.39439 10.4249 8.39439 10.0001C8.39439 9.57523 8.05 9.23083 7.62517 9.23083C7.20035 9.23083 6.85596 9.57523 6.85596 10.0001C6.85596 10.4249 7.20035 10.7693 7.62517 10.7693Z" fill="#171723"/>
<path d="M9.99871 10.7693C10.4235 10.7693 10.7679 10.4249 10.7679 10.0001C10.7679 9.57523 10.4235 9.23083 9.99871 9.23083C9.57388 9.23083 9.22949 9.57523 9.22949 10.0001C9.22949 10.4249 9.57388 10.7693 9.99871 10.7693Z" fill="#171723"/>
<path d="M12.3718 10.7693C12.7966 10.7693 13.141 10.4249 13.141 10.0001C13.141 9.57523 12.7966 9.23083 12.3718 9.23083C11.9469 9.23083 11.6025 9.57523 11.6025 10.0001C11.6025 10.4249 11.9469 10.7693 12.3718 10.7693Z" fill="#171723"/>
<path d="M14.7453 10.7693C15.1701 10.7693 15.5145 10.4249 15.5145 10.0001C15.5145 9.57523 15.1701 9.23083 14.7453 9.23083C14.3205 9.23083 13.9761 9.57523 13.9761 10.0001C13.9761 10.4249 14.3205 10.7693 14.7453 10.7693Z" fill="#171723"/>
<path d="M14.0226 13.4746H5.97809C5.84326 13.4746 5.71396 13.4211 5.61862 13.3257C5.52329 13.2304 5.46973 13.1011 5.46973 12.9663C5.46973 12.8314 5.52329 12.7021 5.61862 12.6068C5.71396 12.5114 5.84326 12.4579 5.97809 12.4579H14.0226C14.1574 12.4579 14.2867 12.5114 14.3821 12.6068C14.4774 12.7021 14.5309 12.8314 14.5309 12.9663C14.5309 13.1011 14.4774 13.2304 14.3821 13.3257C14.2867 13.4211 14.1574 13.4746 14.0226 13.4746Z" fill="#171723"/>
</g>
<defs>
<clipPath id="clip0_10314_145409">
<rect width="20" height="20" fill="white"/>
</clipPath>
</defs>
</svg>
