<svg width="20" height="20" viewBox="0 0 20 20" fill="none" xmlns="http://www.w3.org/2000/svg">
<g clip-path="url(#clip0_10314_145061)">
<g clip-path="url(#clip1_10314_145061)">
<path d="M18.7144 3.05703C18.3353 2.82558 17.9026 2.69668 17.4586 2.68298C17.0147 2.66928 16.5748 2.77126 16.1822 2.9789L7.56213 7.80652C7.17188 8.0251 6.84694 8.34375 6.62078 8.72965C6.39461 9.11555 6.27539 9.55475 6.27539 10.002C6.27539 10.4493 6.39461 10.8885 6.62078 11.2744C6.84694 11.6603 7.17188 11.979 7.56213 12.1976L16.1995 17.0286C16.5905 17.2327 17.0277 17.3319 17.4684 17.3166C17.9092 17.3013 18.3385 17.172 18.7144 16.9413C19.1107 16.6994 19.4375 16.3589 19.6628 15.9529C19.8882 15.5469 20.0043 15.0895 20 14.6252V5.37318C20.0043 4.90889 19.8882 4.45141 19.6628 4.04544C19.4375 3.63948 19.1107 3.29891 18.7144 3.05703Z" fill="#171723"/>
<path d="M2.15714 7.84204C1.73052 7.84192 1.31344 7.96832 0.958654 8.20524C0.603866 8.44216 0.327301 8.77897 0.163933 9.17307C0.000563959 9.56718 -0.0422708 10.0009 0.040845 10.4193C0.123961 10.8378 0.329294 11.2222 0.630879 11.5239C0.932464 11.8257 1.31676 12.0312 1.73516 12.1146C2.15356 12.1979 2.58728 12.1553 2.98147 11.9922C3.37566 11.829 3.71262 11.5526 3.94974 11.198C4.18685 10.8433 4.31348 10.4263 4.31359 9.99967C4.31313 9.42777 4.08583 8.87942 3.68155 8.47492C3.27727 8.07042 2.72903 7.84281 2.15714 7.84204Z" fill="#171723"/>
</g>
</g>
<defs>
<clipPath id="clip0_10314_145061">
<rect width="20" height="20" fill="white"/>
</clipPath>
<clipPath id="clip1_10314_145061">
<rect width="20" height="20" fill="white"/>
</clipPath>
</defs>
</svg>
