<svg width="20" height="20" viewBox="0 0 20 20" fill="none" xmlns="http://www.w3.org/2000/svg">
<g clip-path="url(#clip0_10995_130753)">
<g clip-path="url(#clip1_10995_130753)">
<path d="M18.7145 3.05696C18.3354 2.82552 17.9027 2.69662 17.4588 2.68292C17.0148 2.66922 16.575 2.7712 16.1824 2.97884L7.56225 7.80646C7.172 8.02504 6.84706 8.34369 6.6209 8.72959C6.39473 9.11549 6.27551 9.55469 6.27551 10.002C6.27551 10.4493 6.39473 10.8885 6.6209 11.2744C6.84706 11.6603 7.172 11.9789 7.56225 12.1975L16.1996 17.0286C16.5906 17.2326 17.0278 17.3319 17.4686 17.3166C17.9093 17.3013 18.3386 17.172 18.7145 16.9413C19.1108 16.6994 19.4376 16.3588 19.663 15.9528C19.8883 15.5469 20.0045 15.0894 20.0001 14.6251V5.37312C20.0045 4.90883 19.8883 4.45135 19.663 4.04538C19.4376 3.63942 19.1108 3.29885 18.7145 3.05696V3.05696Z" fill="#171723"/>
<path d="M2.15725 7.84209C1.73063 7.84198 1.31355 7.96837 0.958761 8.20529C0.603973 8.44222 0.327408 8.77902 0.164039 9.17313C0.000670771 9.56723 -0.042164 10.0009 0.0409518 10.4194C0.124068 10.8378 0.329401 11.2222 0.630986 11.524C0.932571 11.8257 1.31686 12.0313 1.73527 12.1146C2.15367 12.198 2.58739 12.1554 2.98158 11.9922C3.37577 11.8291 3.71273 11.5527 3.94985 11.198C4.18696 10.8434 4.31358 10.4263 4.3137 9.99972C4.31324 9.42783 4.08594 8.87947 3.68166 8.47497C3.27737 8.07047 2.72914 7.84286 2.15725 7.84209V7.84209Z" fill="#171723"/>
</g>
</g>
<defs>
<clipPath id="clip0_10995_130753">
<rect width="20" height="20" fill="white"/>
</clipPath>
<clipPath id="clip1_10995_130753">
<rect width="20" height="20" fill="white"/>
</clipPath>
</defs>
</svg>
