<svg width="20" height="20" viewBox="0 0 20 20" fill="none" xmlns="http://www.w3.org/2000/svg">
<g clip-path="url(#clip0_10314_145062)">
<g clip-path="url(#clip1_10314_145062)">
<path d="M12.4378 7.80762L3.80026 2.97069C3.4092 2.76685 2.97201 2.66775 2.53128 2.68306C2.09054 2.69836 1.66128 2.82754 1.2853 3.05801C0.888952 3.2999 0.562139 3.64047 0.336792 4.04645C0.111445 4.45242 -0.00472595 4.90992 -0.000370152 5.37422V14.6264C-0.00472479 15.0907 0.111447 15.5482 0.336794 15.9542C0.562141 16.3602 0.888953 16.7008 1.2853 16.9426C1.68543 17.1877 2.14538 17.3177 2.61459 17.3183C3.03361 17.3169 3.44615 17.2149 3.8175 17.0208L12.4378 12.1988C12.8281 11.9802 13.153 11.6616 13.3792 11.2757C13.6053 10.8897 13.7246 10.4505 13.7246 10.0032C13.7246 9.55592 13.6053 9.1167 13.3792 8.73079C13.153 8.34488 12.8281 8.02623 12.4378 7.80765V7.80762Z" fill="#171723"/>
<path d="M17.8425 7.84326C17.416 7.84338 16.999 7.96997 16.6443 8.20704C16.2897 8.44411 16.0133 8.78101 15.8501 9.17514C15.6869 9.56928 15.6443 10.0029 15.7275 10.4213C15.8108 10.8397 16.0162 11.224 16.3178 11.5256C16.6195 11.8273 17.0038 12.0327 17.4222 12.116C17.8405 12.1992 18.2742 12.1566 18.6683 11.9934C19.0625 11.8302 19.3994 11.5538 19.6364 11.1991C19.8735 10.8445 20.0001 10.4275 20.0002 10.0009C19.9998 9.42881 19.7724 8.88023 19.3678 8.47567C18.9633 8.07111 18.4147 7.84366 17.8425 7.84326Z" fill="#171723"/>
</g>
</g>
<defs>
<clipPath id="clip0_10314_145062">
<rect width="20" height="20" fill="white"/>
</clipPath>
<clipPath id="clip1_10314_145062">
<rect width="20" height="20" fill="white"/>
</clipPath>
</defs>
</svg>
