<svg width="20" height="20" viewBox="0 0 20 20" fill="none" xmlns="http://www.w3.org/2000/svg">
<g clip-path="url(#clip0_20378_12677)">
<path d="M9.93754 0.297477C9.75869 0.307985 9.58377 0.354318 9.42316 0.433727L2.45754 3.75623C2.09379 3.92935 1.82941 4.25873 1.73879 4.65123L0.0337891 12.1081C-0.0474609 12.4581 0.0181641 12.825 0.221289 13.125C0.245039 13.1612 0.270039 13.1962 0.296289 13.23L5.10879 19.2137C5.36316 19.5262 5.74504 19.7056 6.14754 19.7037H13.8663C14.27 19.7044 14.6525 19.5162 14.9063 19.2081L19.7163 13.2231C19.9688 12.9106 20.0632 12.4981 19.9663 12.1069L18.25 4.64373C18.1594 4.25123 17.8938 3.92185 17.5313 3.74873L10.5769 0.434352C10.3765 0.335514 10.1546 0.288456 9.93129 0.297477H9.93754Z" fill="#326CE5"/>
<path d="M10.0013 2.83887C9.76126 2.85574 9.57939 3.06137 9.59189 3.30137V3.41887C9.60314 3.55199 9.62314 3.68387 9.64939 3.81449C9.68772 4.06463 9.70153 4.31792 9.69064 4.57074C9.66689 4.65387 9.61939 4.72887 9.55439 4.78637L9.54501 4.96262C9.29189 4.98387 9.04064 5.02262 8.79314 5.07887C7.75189 5.31387 6.80376 5.85387 6.07189 6.63199L5.92189 6.52574C5.83939 6.55074 5.75064 6.54137 5.67501 6.50074C5.47215 6.35059 5.28439 6.18104 5.11439 5.99449C5.02899 5.89246 4.9378 5.79542 4.84126 5.70387L4.74876 5.63012C4.66626 5.56387 4.56501 5.52574 4.45939 5.52074C4.39635 5.5174 4.33343 5.52902 4.27574 5.55466C4.21806 5.58029 4.16727 5.61921 4.12751 5.66824C3.98626 5.86637 4.03251 6.14074 4.23001 6.28262L4.31626 6.35137C4.42729 6.42523 4.54248 6.49264 4.66126 6.55324C4.88251 6.67637 5.09126 6.82074 5.28501 6.99074C5.33457 7.06142 5.36337 7.14455 5.36814 7.23074L5.50439 7.35574C4.76876 8.45949 4.46689 9.79637 4.65564 11.1095L4.48064 11.1595C4.43501 11.232 4.37439 11.2939 4.30189 11.3395C4.05773 11.4047 3.8078 11.4459 3.55564 11.4626C3.42181 11.4653 3.28826 11.4758 3.15564 11.4939L3.04501 11.5189H3.03251C2.95574 11.5295 2.88344 11.5613 2.82364 11.6106C2.76385 11.6599 2.71891 11.7248 2.69384 11.7982C2.66877 11.8715 2.66454 11.9504 2.68163 12.026C2.69872 12.1016 2.73646 12.1709 2.79064 12.2264C2.84532 12.2815 2.91427 12.3204 2.98976 12.3386C3.06525 12.3568 3.14433 12.3536 3.21814 12.3295H3.22626L3.33876 12.317C3.46564 12.2795 3.59064 12.2332 3.71251 12.1807C3.94689 12.087 4.19001 12.0151 4.43876 11.9682C4.52501 11.9732 4.60751 12.0026 4.67751 12.0526L4.86501 12.0214C5.27126 13.282 6.12501 14.3501 7.26501 15.0232L7.18876 15.1826C7.22376 15.2557 7.23689 15.337 7.22626 15.4176C7.12314 15.6564 6.99689 15.8851 6.84939 16.1001C6.76847 16.2068 6.69376 16.318 6.62564 16.4332L6.57251 16.5457C6.53397 16.6126 6.51465 16.6888 6.51669 16.766C6.51874 16.8431 6.54206 16.9182 6.58409 16.9829C6.62613 17.0477 6.68523 17.0995 6.75487 17.1328C6.82452 17.166 6.902 17.1794 6.97876 17.1714C7.0557 17.1627 7.12874 17.1329 7.18975 17.0852C7.25076 17.0376 7.29737 16.9739 7.32439 16.9014L7.37626 16.7951C7.42376 16.6701 7.46376 16.5426 7.49626 16.4139C7.60689 16.1407 7.66689 15.8476 7.81814 15.6664C7.86757 15.6199 7.92986 15.5894 7.99689 15.5789L8.09064 15.4082C9.32641 15.8832 10.6938 15.8866 11.9319 15.4176L12.015 15.577C12.1 15.5895 12.1763 15.6364 12.2275 15.7051C12.345 15.9289 12.44 16.1632 12.5125 16.4051C12.5456 16.5346 12.586 16.6621 12.6338 16.787L12.6856 16.8932C12.7129 16.9655 12.7597 17.0288 12.8207 17.0762C12.8817 17.1236 12.9547 17.1531 13.0315 17.1616C13.1083 17.1701 13.1859 17.1571 13.2558 17.1242C13.3257 17.0913 13.3851 17.0397 13.4275 16.9751C13.4695 16.9101 13.4926 16.8348 13.4944 16.7575C13.4962 16.6801 13.4765 16.6038 13.4375 16.537L13.3831 16.4245C13.315 16.3097 13.2403 16.1988 13.1594 16.0926C13.0156 15.8851 12.8919 15.6639 12.7844 15.432C12.7744 15.3896 12.7729 15.3456 12.7802 15.3027C12.7875 15.2597 12.8034 15.2187 12.8269 15.182C12.8002 15.1275 12.7771 15.0713 12.7575 15.0139C13.895 14.3357 14.745 13.2639 15.1469 12.0014L15.3244 12.0326C15.3881 11.9745 15.4719 11.9439 15.5575 11.9464C15.8056 11.9939 16.0488 12.0714 16.2838 12.1589C16.4056 12.2151 16.5306 12.2626 16.6575 12.3026C16.6875 12.3107 16.7313 12.3176 16.765 12.3257H16.7731C16.8469 12.3496 16.9258 12.3524 17.0011 12.3341C17.0765 12.3157 17.1452 12.2767 17.1997 12.2216C17.2542 12.1665 17.2923 12.0973 17.3098 12.0218C17.3273 11.9462 17.3235 11.8673 17.2988 11.7939C17.2735 11.7205 17.2283 11.6555 17.1683 11.6063C17.1082 11.5571 17.0357 11.5255 16.9588 11.5151L16.8375 11.4864C16.7049 11.4683 16.5713 11.4578 16.4375 11.4551C16.185 11.4389 15.935 11.3976 15.6913 11.332C15.6163 11.2901 15.5538 11.2276 15.5113 11.152L15.3425 11.102C15.5224 9.78949 15.2142 8.4566 14.4763 7.35637L14.6238 7.22012C14.6175 7.13449 14.6456 7.04949 14.7013 6.98387C14.8931 6.81887 15.1013 6.67324 15.32 6.54887C15.4388 6.48824 15.554 6.42084 15.665 6.34699L15.7563 6.27324C15.8234 6.23154 15.8775 6.17167 15.912 6.10056C15.9466 6.02944 15.9603 5.94999 15.9516 5.8714C15.9429 5.79281 15.9122 5.71828 15.8629 5.65645C15.8136 5.59461 15.7478 5.548 15.6731 5.52199C15.5985 5.49602 15.5181 5.49169 15.4411 5.50949C15.3641 5.5273 15.2938 5.56652 15.2381 5.62262L15.1456 5.69637C15.0491 5.78794 14.9579 5.88498 14.8725 5.98699C14.7075 6.17574 14.525 6.34762 14.3269 6.50137C14.2469 6.53392 14.1595 6.54344 14.0744 6.52887L13.9163 6.64137C13.0038 5.68512 11.7744 5.09137 10.4569 4.97262C10.4569 4.91012 10.4488 4.81637 10.4475 4.78699C10.3769 4.73824 10.3275 4.66387 10.3113 4.57949C10.3026 4.32709 10.3185 4.07444 10.3588 3.82512C10.3856 3.69387 10.4044 3.56262 10.4163 3.42949V3.30449C10.4288 3.06449 10.2475 2.85887 10.0069 2.84199L10.0013 2.83887ZM9.48001 6.06762L9.35501 8.25074H9.34564C9.33939 8.38574 9.26001 8.50074 9.13814 8.56574C9.01626 8.63074 8.87189 8.61137 8.76314 8.53199L6.97251 7.26324C7.54245 6.70345 8.25745 6.31402 9.03689 6.13887C9.18314 6.10762 9.33064 6.08387 9.47876 6.06762H9.48001ZM10.5225 6.06762C11.4631 6.18449 12.3388 6.60699 13.0163 7.27012L11.2425 8.53074C11.1331 8.61824 10.9831 8.63574 10.8563 8.57574C10.7294 8.51574 10.6481 8.38824 10.6463 8.24824L10.5225 6.06762ZM6.32251 8.08449L7.96001 9.54574V9.55512C8.06189 9.64387 8.10626 9.78199 8.07626 9.91387C8.04626 10.0457 7.94501 10.1501 7.81564 10.1857V10.192L5.71439 10.7964C5.61041 9.84968 5.82459 8.89533 6.32314 8.08387L6.32251 8.08449ZM13.6681 8.08449C14.1656 8.89387 14.3856 9.84324 14.2944 10.7889L12.19 10.1826V10.1745C12.0588 10.1389 11.9588 10.0345 11.9294 9.90262C11.9 9.77074 11.9438 9.63387 12.0456 9.54387L13.6706 8.08949L13.6681 8.08449ZM9.66564 9.65949H10.3356L10.745 10.1795L10.5963 10.8295L9.99439 11.1189L9.39126 10.8295L9.24939 10.1795L9.66564 9.65949ZM11.8119 11.4332C11.84 11.4301 11.8744 11.4301 11.8963 11.4332L14.0631 11.7989C13.7506 12.6989 13.1338 13.4676 12.3288 13.982L11.4913 11.9545C11.4682 11.9001 11.4586 11.841 11.4632 11.7821C11.4678 11.7232 11.4865 11.6663 11.5176 11.6161C11.5488 11.5659 11.5916 11.524 11.6424 11.4938C11.6931 11.4636 11.7504 11.4461 11.8094 11.4426L11.8119 11.4332ZM8.17251 11.4426C8.29501 11.4445 8.40814 11.5076 8.47501 11.6101C8.54189 11.7126 8.55251 11.8414 8.50439 11.9539V11.962L7.67189 13.9732C6.87501 13.4626 6.27001 12.7032 5.94814 11.8126L8.09626 11.4482C8.12001 11.4457 8.14439 11.4457 8.16876 11.4482L8.17251 11.4426ZM9.98751 12.3176C10.0558 12.3155 10.1233 12.3323 10.1826 12.3663C10.2419 12.4003 10.2905 12.4501 10.3231 12.5101H10.3313L11.39 14.4207L10.9669 14.5457C10.1881 14.7239 9.37501 14.682 8.61814 14.4245L9.68064 12.5139C9.74501 12.4014 9.86376 12.3326 9.99314 12.3295L9.98751 12.3176Z" fill="white"/>
</g>
<defs>
<clipPath id="clip0_20378_12677">
<rect width="20" height="20" fill="white"/>
</clipPath>
</defs>
</svg>
