<svg width="20" height="20" viewBox="0 0 20 20" fill="none" xmlns="http://www.w3.org/2000/svg">
<g clip-path="url(#clip0_20365_12272)">
<path d="M9.93754 0.297477C9.75869 0.307985 9.58377 0.354318 9.42316 0.433727L2.45754 3.75623C2.09379 3.92935 1.82941 4.25873 1.73879 4.65123L0.0337891 12.1081C-0.0474609 12.4581 0.0181641 12.825 0.221289 13.125C0.245039 13.1612 0.270039 13.1962 0.296289 13.23L5.10879 19.2137C5.36316 19.5262 5.74504 19.7056 6.14754 19.7037H13.8663C14.27 19.7044 14.6525 19.5162 14.9063 19.2081L19.7163 13.2231C19.9688 12.9106 20.0632 12.4981 19.9663 12.1069L18.25 4.64373C18.1594 4.25123 17.8938 3.92185 17.5313 3.74873L10.5769 0.434352C10.3765 0.335514 10.1546 0.288456 9.93129 0.297477H9.93754Z" fill="#326CE5"/>
<path d="M10.0013 2.83875C9.76126 2.85562 9.57939 3.06125 9.59189 3.30125V3.41875C9.60314 3.55187 9.62314 3.68375 9.64939 3.81437C9.68772 4.06451 9.70153 4.3178 9.69064 4.57062C9.66689 4.65375 9.61939 4.72875 9.55439 4.78625L9.54501 4.9625C9.29189 4.98375 9.04064 5.0225 8.79314 5.07875C7.75189 5.31375 6.80376 5.85375 6.07189 6.63187L5.92189 6.52562C5.83939 6.55062 5.75064 6.54125 5.67501 6.50062C5.47215 6.35047 5.28439 6.18092 5.11439 5.99437C5.02899 5.89234 4.9378 5.7953 4.84126 5.70375L4.74876 5.63C4.66626 5.56375 4.56501 5.52562 4.45939 5.52062C4.39635 5.51728 4.33343 5.5289 4.27574 5.55453C4.21806 5.58017 4.16727 5.61909 4.12751 5.66812C3.98626 5.86625 4.03251 6.14062 4.23001 6.2825L4.31626 6.35125C4.42729 6.42511 4.54248 6.49252 4.66126 6.55312C4.88251 6.67625 5.09126 6.82062 5.28501 6.99062C5.33457 7.0613 5.36337 7.14443 5.36814 7.23062L5.50439 7.35562C4.76876 8.45937 4.46689 9.79624 4.65564 11.1094L4.48064 11.1594C4.43501 11.2319 4.37439 11.2937 4.30189 11.3394C4.05773 11.4046 3.8078 11.4458 3.55564 11.4625C3.42181 11.4652 3.28826 11.4756 3.15564 11.4937L3.04501 11.5187H3.03251C2.95574 11.5294 2.88344 11.5612 2.82364 11.6105C2.76385 11.6598 2.71891 11.7247 2.69384 11.7981C2.66877 11.8714 2.66454 11.9503 2.68163 12.0259C2.69872 12.1015 2.73646 12.1708 2.79064 12.2262C2.84532 12.2814 2.91427 12.3202 2.98976 12.3384C3.06525 12.3567 3.14433 12.3535 3.21814 12.3294H3.22626L3.33876 12.3169C3.46564 12.2794 3.59064 12.2331 3.71251 12.1806C3.94689 12.0869 4.19001 12.015 4.43876 11.9681C4.52501 11.9731 4.60751 12.0025 4.67751 12.0525L4.86501 12.0212C5.27126 13.2819 6.12501 14.35 7.26501 15.0231L7.18876 15.1825C7.22376 15.2556 7.23689 15.3369 7.22626 15.4175C7.12314 15.6562 6.99689 15.885 6.84939 16.1C6.76847 16.2067 6.69376 16.3179 6.62564 16.4331L6.57251 16.5456C6.53397 16.6125 6.51465 16.6887 6.51669 16.7658C6.51874 16.843 6.54206 16.9181 6.58409 16.9828C6.62613 17.0475 6.68523 17.0994 6.75487 17.1326C6.82452 17.1659 6.902 17.1793 6.97876 17.1712C7.0557 17.1626 7.12874 17.1328 7.18975 17.0851C7.25076 17.0374 7.29737 16.9738 7.32439 16.9012L7.37626 16.795C7.42376 16.67 7.46376 16.5425 7.49626 16.4137C7.60689 16.1406 7.66689 15.8475 7.81814 15.6662C7.86757 15.6198 7.92986 15.5893 7.99689 15.5787L8.09064 15.4081C9.32641 15.8831 10.6938 15.8864 11.9319 15.4175L12.015 15.5769C12.1 15.5894 12.1763 15.6362 12.2275 15.705C12.345 15.9287 12.44 16.1631 12.5125 16.405C12.5456 16.5345 12.586 16.662 12.6338 16.7869L12.6856 16.8931C12.7129 16.9654 12.7597 17.0287 12.8207 17.0761C12.8817 17.1234 12.9547 17.153 13.0315 17.1615C13.1083 17.17 13.1859 17.157 13.2558 17.1241C13.3257 17.0912 13.3851 17.0396 13.4275 16.975C13.4695 16.91 13.4926 16.8347 13.4944 16.7573C13.4962 16.68 13.4765 16.6037 13.4375 16.5369L13.3831 16.4244C13.315 16.3095 13.2403 16.1987 13.1594 16.0925C13.0156 15.885 12.8919 15.6637 12.7844 15.4319C12.7744 15.3895 12.7729 15.3455 12.7802 15.3026C12.7875 15.2596 12.8034 15.2186 12.8269 15.1819C12.8002 15.1274 12.7771 15.0712 12.7575 15.0137C13.895 14.3356 14.745 13.2637 15.1469 12.0012L15.3244 12.0325C15.3881 11.9744 15.4719 11.9437 15.5575 11.9462C15.8056 11.9937 16.0488 12.0712 16.2838 12.1587C16.4056 12.215 16.5306 12.2625 16.6575 12.3025C16.6875 12.3106 16.7313 12.3175 16.765 12.3256H16.7731C16.8469 12.3494 16.9258 12.3523 17.0011 12.3339C17.0765 12.3155 17.1452 12.2766 17.1997 12.2215C17.2542 12.1663 17.2923 12.0972 17.3098 12.0216C17.3273 11.9461 17.3235 11.8672 17.2988 11.7937C17.2735 11.7203 17.2283 11.6554 17.1683 11.6062C17.1082 11.5569 17.0357 11.5254 16.9588 11.515L16.8375 11.4862C16.7049 11.4681 16.5713 11.4577 16.4375 11.455C16.185 11.4387 15.935 11.3975 15.6913 11.3319C15.6163 11.29 15.5538 11.2275 15.5113 11.1519L15.3425 11.1019C15.5224 9.78936 15.2142 8.45648 14.4763 7.35625L14.6238 7.22C14.6175 7.13437 14.6456 7.04937 14.7013 6.98375C14.8931 6.81875 15.1013 6.67312 15.32 6.54875C15.4388 6.48812 15.554 6.42071 15.665 6.34687L15.7563 6.27312C15.8234 6.23142 15.8775 6.17155 15.912 6.10044C15.9466 6.02932 15.9603 5.94987 15.9516 5.87128C15.9429 5.79268 15.9122 5.71816 15.8629 5.65632C15.8136 5.59449 15.7478 5.54787 15.6731 5.52187C15.5985 5.4959 15.5181 5.49156 15.4411 5.50937C15.3641 5.52718 15.2938 5.56639 15.2381 5.6225L15.1456 5.69625C15.0491 5.78782 14.9579 5.88486 14.8725 5.98687C14.7075 6.17562 14.525 6.3475 14.3269 6.50125C14.2469 6.5338 14.1595 6.54332 14.0744 6.52875L13.9163 6.64125C13.0038 5.685 11.7744 5.09125 10.4569 4.9725C10.4569 4.91 10.4488 4.81625 10.4475 4.78687C10.3769 4.73812 10.3275 4.66375 10.3113 4.57937C10.3026 4.32697 10.3185 4.07432 10.3588 3.825C10.3856 3.69375 10.4044 3.5625 10.4163 3.42937V3.30437C10.4288 3.06437 10.2475 2.85875 10.0069 2.84187L10.0013 2.83875ZM9.48001 6.0675L9.35501 8.25062H9.34564C9.33939 8.38562 9.26001 8.50062 9.13814 8.56562C9.01626 8.63062 8.87189 8.61125 8.76314 8.53187L6.97251 7.26312C7.54245 6.70332 8.25745 6.31389 9.03689 6.13874C9.18314 6.10749 9.33064 6.08375 9.47876 6.0675H9.48001ZM10.5225 6.0675C11.4631 6.18437 12.3388 6.60687 13.0163 7.27L11.2425 8.53062C11.1331 8.61812 10.9831 8.63562 10.8563 8.57562C10.7294 8.51562 10.6481 8.38812 10.6463 8.24812L10.5225 6.0675ZM6.32251 8.08437L7.96001 9.54562V9.555C8.06189 9.64375 8.10626 9.78187 8.07626 9.91375C8.04626 10.0456 7.94501 10.15 7.81564 10.1856V10.1919L5.71439 10.7962C5.61041 9.84956 5.82459 8.89521 6.32314 8.08375L6.32251 8.08437ZM13.6681 8.08437C14.1656 8.89375 14.3856 9.84312 14.2944 10.7887L12.19 10.1825V10.1744C12.0588 10.1387 11.9588 10.0344 11.9294 9.9025C11.9 9.77062 11.9438 9.63375 12.0456 9.54375L13.6706 8.08937L13.6681 8.08437ZM9.66564 9.65937H10.3356L10.745 10.1794L10.5963 10.8294L9.99439 11.1187L9.39126 10.8294L9.24939 10.1794L9.66564 9.65937ZM11.8119 11.4331C11.84 11.43 11.8744 11.43 11.8963 11.4331L14.0631 11.7987C13.7506 12.6987 13.1338 13.4675 12.3288 13.9819L11.4913 11.9544C11.4682 11.9 11.4586 11.8408 11.4632 11.782C11.4678 11.7231 11.4865 11.6661 11.5176 11.616C11.5488 11.5658 11.5916 11.5239 11.6424 11.4937C11.6931 11.4635 11.7504 11.4459 11.8094 11.4425L11.8119 11.4331ZM8.17251 11.4425C8.29501 11.4444 8.40814 11.5075 8.47501 11.61C8.54189 11.7125 8.55251 11.8412 8.50439 11.9537V11.9619L7.67189 13.9731C6.87501 13.4625 6.27001 12.7031 5.94814 11.8125L8.09626 11.4481C8.12001 11.4456 8.14439 11.4456 8.16876 11.4481L8.17251 11.4425ZM9.98751 12.3175C10.0558 12.3153 10.1233 12.3322 10.1826 12.3662C10.2419 12.4002 10.2905 12.45 10.3231 12.51H10.3313L11.39 14.4206L10.9669 14.5456C10.1881 14.7237 9.37501 14.6819 8.61814 14.4244L9.68064 12.5137C9.74501 12.4012 9.86376 12.3325 9.99314 12.3294L9.98751 12.3175Z" fill="white" stroke="white" stroke-width="0.034375"/>
</g>
<defs>
<clipPath id="clip0_20365_12272">
<rect width="20" height="20" fill="white"/>
</clipPath>
</defs>
</svg>
