<svg width="20" height="20" viewBox="0 0 20 20" fill="none" xmlns="http://www.w3.org/2000/svg">
<g clip-path="url(#clip0_20377_12664)">
<path d="M9.93748 0.297477C9.75862 0.307985 9.5837 0.354318 9.4231 0.433727L2.45748 3.75623C2.09373 3.92935 1.82935 4.25873 1.73873 4.65123L0.0337281 12.1081C-0.0475219 12.4581 0.0181031 12.825 0.221228 13.125C0.244978 13.1612 0.269978 13.1962 0.296228 13.23L5.10873 19.2137C5.3631 19.5262 5.74498 19.7056 6.14748 19.7037H13.8662C14.27 19.7044 14.6525 19.5162 14.9062 19.2081L19.7162 13.2231C19.9687 12.9106 20.0631 12.4981 19.9662 12.1069L18.25 4.64373C18.1594 4.25123 17.8937 3.92185 17.5312 3.74873L10.5769 0.434352C10.3765 0.335514 10.1545 0.288456 9.93123 0.297477H9.93748Z" fill="#326CE5"/>
<path d="M10.0012 2.83873C9.76122 2.8556 9.57935 3.06123 9.59185 3.30123V3.41873C9.6031 3.55185 9.6231 3.68373 9.64935 3.81436C9.68768 4.0645 9.7015 4.31778 9.6906 4.5706C9.66685 4.65373 9.61935 4.72873 9.55435 4.78623L9.54497 4.96248C9.29185 4.98373 9.0406 5.02248 8.7931 5.07873C7.75185 5.31373 6.80372 5.85373 6.07185 6.63186L5.92185 6.5256C5.83935 6.5506 5.7506 6.54123 5.67497 6.50061C5.47211 6.35045 5.28435 6.1809 5.11435 5.99435C5.02896 5.89232 4.93776 5.79529 4.84122 5.70373L4.74872 5.62998C4.66622 5.56373 4.56497 5.52561 4.45935 5.52061C4.39632 5.51726 4.33339 5.52888 4.27571 5.55452C4.21803 5.58015 4.16723 5.61908 4.12747 5.66811C3.98622 5.86623 4.03247 6.1406 4.22997 6.28248L4.31622 6.35123C4.42725 6.4251 4.54244 6.4925 4.66122 6.5531C4.88247 6.67623 5.09122 6.82061 5.28497 6.99061C5.33454 7.06128 5.36333 7.14442 5.3681 7.23061L5.50435 7.35561C4.76872 8.45935 4.46685 9.79623 4.6556 11.1094L4.4806 11.1594C4.43497 11.2319 4.37435 11.2937 4.30185 11.3394C4.05769 11.4046 3.80776 11.4458 3.5556 11.4625C3.42178 11.4652 3.28822 11.4756 3.1556 11.4937L3.04497 11.5187H3.03247C2.9557 11.5294 2.8834 11.5611 2.8236 11.6104C2.76381 11.6598 2.71888 11.7247 2.6938 11.798C2.66873 11.8714 2.6645 11.9502 2.68159 12.0258C2.69868 12.1014 2.73642 12.1708 2.7906 12.2262C2.84529 12.2814 2.91423 12.3202 2.98972 12.3384C3.06522 12.3566 3.14429 12.3535 3.2181 12.3294H3.22622L3.33872 12.3169C3.4656 12.2794 3.5906 12.2331 3.71247 12.1806C3.94685 12.0869 4.18997 12.015 4.43872 11.9681C4.52497 11.9731 4.60747 12.0025 4.67747 12.0525L4.86497 12.0212C5.27122 13.2819 6.12497 14.35 7.26497 15.0231L7.18872 15.1825C7.22372 15.2556 7.23685 15.3369 7.22622 15.4175C7.1231 15.6562 6.99685 15.885 6.84935 16.1C6.76843 16.2066 6.69373 16.3179 6.6256 16.4331L6.57247 16.5456C6.53393 16.6125 6.51461 16.6887 6.51666 16.7658C6.5187 16.843 6.54203 16.9181 6.58406 16.9828C6.62609 17.0475 6.68519 17.0994 6.75484 17.1326C6.82448 17.1659 6.90196 17.1792 6.97872 17.1712C7.05566 17.1626 7.1287 17.1328 7.18971 17.0851C7.25073 17.0374 7.29733 16.9738 7.32435 16.9012L7.37622 16.795C7.42372 16.67 7.46372 16.5425 7.49622 16.4137C7.60685 16.1406 7.66685 15.8475 7.8181 15.6662C7.86753 15.6198 7.92983 15.5893 7.99685 15.5787L8.0906 15.4081C9.32637 15.8831 10.6938 15.8864 11.9318 15.4175L12.015 15.5769C12.1 15.5894 12.1762 15.6362 12.2275 15.705C12.345 15.9287 12.44 16.1631 12.5125 16.405C12.5455 16.5345 12.586 16.662 12.6337 16.7869L12.6856 16.8931C12.7129 16.9654 12.7596 17.0287 12.8207 17.0761C12.8817 17.1234 12.9546 17.153 13.0314 17.1615C13.1082 17.1699 13.1859 17.157 13.2558 17.1241C13.3257 17.0912 13.3851 17.0396 13.4275 16.975C13.4694 16.91 13.4926 16.8347 13.4944 16.7573C13.4961 16.68 13.4764 16.6037 13.4375 16.5369L13.3831 16.4244C13.315 16.3095 13.2403 16.1987 13.1593 16.0925C13.0156 15.885 12.8918 15.6637 12.7843 15.4319C12.7743 15.3895 12.7729 15.3455 12.7802 15.3025C12.7875 15.2596 12.8034 15.2186 12.8268 15.1819C12.8002 15.1273 12.777 15.0712 12.7575 15.0137C13.895 14.3356 14.745 13.2637 15.1468 12.0012L15.3243 12.0325C15.3881 11.9744 15.4718 11.9437 15.5575 11.9462C15.8056 11.9937 16.0487 12.0712 16.2837 12.1587C16.4056 12.215 16.5306 12.2625 16.6575 12.3025C16.6875 12.3106 16.7312 12.3175 16.765 12.3256H16.7731C16.8469 12.3494 16.9258 12.3523 17.0011 12.3339C17.0764 12.3155 17.1451 12.2766 17.1996 12.2215C17.2541 12.1663 17.2922 12.0971 17.3097 12.0216C17.3272 11.9461 17.3234 11.8672 17.2987 11.7937C17.2735 11.7203 17.2283 11.6554 17.1683 11.6061C17.1082 11.5569 17.0357 11.5254 16.9587 11.515L16.8375 11.4862C16.7049 11.4681 16.5713 11.4577 16.4375 11.455C16.185 11.4387 15.935 11.3975 15.6912 11.3319C15.6162 11.29 15.5537 11.2275 15.5112 11.1519L15.3425 11.1019C15.5224 9.78935 15.2141 8.45646 14.4762 7.35623L14.6237 7.21998C14.6175 7.13436 14.6456 7.04936 14.7012 6.98373C14.8931 6.81873 15.1012 6.6731 15.32 6.54873C15.4387 6.4881 15.5539 6.4207 15.665 6.34685L15.7562 6.2731C15.8234 6.2314 15.8774 6.17153 15.912 6.10042C15.9466 6.02931 15.9603 5.94986 15.9516 5.87126C15.9429 5.79267 15.9121 5.71814 15.8628 5.65631C15.8136 5.59447 15.7478 5.54786 15.6731 5.52185C15.5985 5.49588 15.518 5.49155 15.4411 5.50936C15.3641 5.52716 15.2937 5.56638 15.2381 5.62248L15.1456 5.69623C15.0491 5.78781 14.9579 5.88484 14.8725 5.98686C14.7075 6.17561 14.525 6.34748 14.3268 6.50123C14.2469 6.53378 14.1594 6.54331 14.0743 6.52873L13.9162 6.64123C13.0037 5.68498 11.7744 5.09123 10.4569 4.97248C10.4569 4.90998 10.4487 4.81623 10.4475 4.78685C10.3768 4.7381 10.3275 4.66373 10.3112 4.57935C10.3026 4.32695 10.3185 4.0743 10.3587 3.82498C10.3856 3.69373 10.4043 3.56248 10.4162 3.42935V3.30436C10.4287 3.06436 10.2475 2.85873 10.0068 2.84185L10.0012 2.83873ZM9.47997 6.06748L9.35497 8.25061H9.3456C9.33935 8.38561 9.25997 8.50061 9.1381 8.56561C9.01622 8.6306 8.87185 8.61123 8.7631 8.53185L6.97247 7.26311C7.54241 6.70331 8.25741 6.31388 9.03685 6.13873C9.1831 6.10748 9.3306 6.08373 9.47872 6.06748H9.47997ZM10.5225 6.06748C11.4631 6.18436 12.3387 6.60685 13.0162 7.26998L11.2425 8.53061C11.1331 8.6181 10.9831 8.6356 10.8562 8.5756C10.7294 8.5156 10.6481 8.3881 10.6462 8.2481L10.5225 6.06748ZM6.32247 8.08436L7.95997 9.5456V9.55498C8.06185 9.64373 8.10622 9.78185 8.07622 9.91373C8.04622 10.0456 7.94497 10.15 7.8156 10.1856V10.1919L5.71435 10.7962C5.61037 9.84955 5.82393 8.89582 6.32247 8.08436ZM13.6681 8.08436C14.1656 8.89373 14.3856 9.8431 14.2943 10.7887L12.19 10.1825V10.1744C12.0587 10.1387 11.9587 10.0344 11.9293 9.90248C11.9 9.77061 11.9437 9.63373 12.0456 9.54373L13.6706 8.08935L13.6681 8.08436ZM9.6656 9.65936H10.3356L10.745 10.1794L10.5962 10.8294L9.99435 11.1187L9.39122 10.8294L9.24935 10.1794L9.6656 9.65936ZM11.8118 11.4331C11.84 11.43 11.8743 11.43 11.8962 11.4331L14.0631 11.7987C13.7506 12.6987 13.1337 13.4675 12.3287 13.9819L11.4912 11.9544C11.4682 11.9 11.4586 11.8408 11.4632 11.7819C11.4678 11.7231 11.4864 11.6661 11.5176 11.616C11.5488 11.5658 11.5916 11.5238 11.6423 11.4937C11.6931 11.4635 11.7504 11.4459 11.8093 11.4425L11.8118 11.4331ZM8.17247 11.4425C8.29497 11.4444 8.4081 11.5075 8.47497 11.61C8.54185 11.7125 8.55247 11.8412 8.50435 11.9537V11.9619L7.67185 13.9731C6.87497 13.4625 6.26997 12.7031 5.9481 11.8125L8.09622 11.4481C8.11997 11.4456 8.14435 11.4456 8.16872 11.4481L8.17247 11.4425ZM9.98747 12.3175C10.0558 12.3153 10.1233 12.3322 10.1826 12.3662C10.2418 12.4002 10.2905 12.45 10.3231 12.51H10.3312L11.39 14.4206L10.9669 14.5456C10.1881 14.7237 9.37497 14.6819 8.6181 14.4244L9.6806 12.5137C9.74497 12.4012 9.86372 12.3325 9.9931 12.3294L9.98747 12.3175Z" fill="white"/>
<path d="M9.93748 0.297477C9.75862 0.307985 9.5837 0.354318 9.4231 0.433727L2.45748 3.75623C2.09373 3.92935 1.82935 4.25873 1.73873 4.65123L0.0337281 12.1081C-0.0475219 12.4581 0.0181031 12.825 0.221228 13.125C0.244978 13.1612 0.269978 13.1962 0.296228 13.23L5.10873 19.2137C5.3631 19.5262 5.74498 19.7056 6.14748 19.7037H13.8662C14.27 19.7044 14.6525 19.5162 14.9062 19.2081L19.7162 13.2231C19.9687 12.9106 20.0631 12.4981 19.9662 12.1069L18.25 4.64373C18.1594 4.25123 17.8937 3.92185 17.5312 3.74873L10.5769 0.434352C10.3765 0.335514 10.1545 0.288456 9.93123 0.297477H9.93748Z" stroke="white" stroke-width="0.034375"/>
<path d="M10.0012 2.83873C9.76122 2.8556 9.57935 3.06123 9.59185 3.30123V3.41873C9.6031 3.55185 9.6231 3.68373 9.64935 3.81436C9.68768 4.0645 9.7015 4.31778 9.6906 4.5706C9.66685 4.65373 9.61935 4.72873 9.55435 4.78623L9.54497 4.96248C9.29185 4.98373 9.0406 5.02248 8.7931 5.07873C7.75185 5.31373 6.80372 5.85373 6.07185 6.63186L5.92185 6.5256C5.83935 6.5506 5.7506 6.54123 5.67497 6.50061C5.47211 6.35045 5.28435 6.1809 5.11435 5.99435C5.02896 5.89232 4.93776 5.79529 4.84122 5.70373L4.74872 5.62998C4.66622 5.56373 4.56497 5.52561 4.45935 5.52061C4.39632 5.51726 4.33339 5.52888 4.27571 5.55452C4.21803 5.58015 4.16723 5.61908 4.12747 5.66811C3.98622 5.86623 4.03247 6.1406 4.22997 6.28248L4.31622 6.35123C4.42725 6.4251 4.54244 6.4925 4.66122 6.5531C4.88247 6.67623 5.09122 6.82061 5.28497 6.99061C5.33454 7.06128 5.36333 7.14442 5.3681 7.23061L5.50435 7.35561C4.76872 8.45935 4.46685 9.79623 4.6556 11.1094L4.4806 11.1594C4.43497 11.2319 4.37435 11.2937 4.30185 11.3394C4.05769 11.4046 3.80776 11.4458 3.5556 11.4625C3.42178 11.4652 3.28822 11.4756 3.1556 11.4937L3.04497 11.5187H3.03247C2.9557 11.5294 2.8834 11.5611 2.8236 11.6104C2.76381 11.6598 2.71888 11.7247 2.6938 11.798C2.66873 11.8714 2.6645 11.9502 2.68159 12.0258C2.69868 12.1014 2.73642 12.1708 2.7906 12.2262C2.84529 12.2814 2.91423 12.3202 2.98972 12.3384C3.06522 12.3566 3.14429 12.3535 3.2181 12.3294H3.22622L3.33872 12.3169C3.4656 12.2794 3.5906 12.2331 3.71247 12.1806C3.94685 12.0869 4.18997 12.015 4.43872 11.9681C4.52497 11.9731 4.60747 12.0025 4.67747 12.0525L4.86497 12.0212C5.27122 13.2819 6.12497 14.35 7.26497 15.0231L7.18872 15.1825C7.22372 15.2556 7.23685 15.3369 7.22622 15.4175C7.1231 15.6562 6.99685 15.885 6.84935 16.1C6.76843 16.2066 6.69373 16.3179 6.6256 16.4331L6.57247 16.5456C6.53393 16.6125 6.51461 16.6887 6.51666 16.7658C6.5187 16.843 6.54203 16.9181 6.58406 16.9828C6.62609 17.0475 6.68519 17.0994 6.75484 17.1326C6.82448 17.1659 6.90196 17.1792 6.97872 17.1712C7.05566 17.1626 7.1287 17.1328 7.18971 17.0851C7.25073 17.0374 7.29733 16.9738 7.32435 16.9012L7.37622 16.795C7.42372 16.67 7.46372 16.5425 7.49622 16.4137C7.60685 16.1406 7.66685 15.8475 7.8181 15.6662C7.86753 15.6198 7.92983 15.5893 7.99685 15.5787L8.0906 15.4081C9.32637 15.8831 10.6938 15.8864 11.9318 15.4175L12.015 15.5769C12.1 15.5894 12.1762 15.6362 12.2275 15.705C12.345 15.9287 12.44 16.1631 12.5125 16.405C12.5455 16.5345 12.586 16.662 12.6337 16.7869L12.6856 16.8931C12.7129 16.9654 12.7596 17.0287 12.8207 17.0761C12.8817 17.1234 12.9546 17.153 13.0314 17.1615C13.1082 17.1699 13.1859 17.157 13.2558 17.1241C13.3257 17.0912 13.3851 17.0396 13.4275 16.975C13.4694 16.91 13.4926 16.8347 13.4944 16.7573C13.4961 16.68 13.4764 16.6037 13.4375 16.5369L13.3831 16.4244C13.315 16.3095 13.2403 16.1987 13.1593 16.0925C13.0156 15.885 12.8918 15.6637 12.7843 15.4319C12.7743 15.3895 12.7729 15.3455 12.7802 15.3025C12.7875 15.2596 12.8034 15.2186 12.8268 15.1819C12.8002 15.1273 12.777 15.0712 12.7575 15.0137C13.895 14.3356 14.745 13.2637 15.1468 12.0012L15.3243 12.0325C15.3881 11.9744 15.4718 11.9437 15.5575 11.9462C15.8056 11.9937 16.0487 12.0712 16.2837 12.1587C16.4056 12.215 16.5306 12.2625 16.6575 12.3025C16.6875 12.3106 16.7312 12.3175 16.765 12.3256H16.7731C16.8469 12.3494 16.9258 12.3523 17.0011 12.3339C17.0764 12.3155 17.1451 12.2766 17.1996 12.2215C17.2541 12.1663 17.2922 12.0971 17.3097 12.0216C17.3272 11.9461 17.3234 11.8672 17.2987 11.7937C17.2735 11.7203 17.2283 11.6554 17.1683 11.6061C17.1082 11.5569 17.0357 11.5254 16.9587 11.515L16.8375 11.4862C16.7049 11.4681 16.5713 11.4577 16.4375 11.455C16.185 11.4387 15.935 11.3975 15.6912 11.3319C15.6162 11.29 15.5537 11.2275 15.5112 11.1519L15.3425 11.1019C15.5224 9.78935 15.2141 8.45646 14.4762 7.35623L14.6237 7.21998C14.6175 7.13436 14.6456 7.04936 14.7012 6.98373C14.8931 6.81873 15.1012 6.6731 15.32 6.54873C15.4387 6.4881 15.5539 6.4207 15.665 6.34685L15.7562 6.2731C15.8234 6.2314 15.8774 6.17153 15.912 6.10042C15.9466 6.02931 15.9603 5.94986 15.9516 5.87126C15.9429 5.79267 15.9121 5.71814 15.8628 5.65631C15.8136 5.59447 15.7478 5.54786 15.6731 5.52185C15.5985 5.49588 15.518 5.49155 15.4411 5.50936C15.3641 5.52716 15.2937 5.56638 15.2381 5.62248L15.1456 5.69623C15.0491 5.78781 14.9579 5.88484 14.8725 5.98686C14.7075 6.17561 14.525 6.34748 14.3268 6.50123C14.2469 6.53378 14.1594 6.54331 14.0743 6.52873L13.9162 6.64123C13.0037 5.68498 11.7744 5.09123 10.4569 4.97248C10.4569 4.90998 10.4487 4.81623 10.4475 4.78685C10.3768 4.7381 10.3275 4.66373 10.3112 4.57935C10.3026 4.32695 10.3185 4.0743 10.3587 3.82498C10.3856 3.69373 10.4043 3.56248 10.4162 3.42935V3.30436C10.4287 3.06436 10.2475 2.85873 10.0068 2.84185L10.0012 2.83873ZM9.47997 6.06748L9.35497 8.25061H9.3456C9.33935 8.38561 9.25997 8.50061 9.1381 8.56561C9.01622 8.6306 8.87185 8.61123 8.7631 8.53185L6.97247 7.26311C7.54241 6.70331 8.25741 6.31388 9.03685 6.13873C9.1831 6.10748 9.3306 6.08373 9.47872 6.06748H9.47997ZM10.5225 6.06748C11.4631 6.18436 12.3387 6.60685 13.0162 7.26998L11.2425 8.53061C11.1331 8.6181 10.9831 8.6356 10.8562 8.5756C10.7294 8.5156 10.6481 8.3881 10.6462 8.2481L10.5225 6.06748ZM6.32247 8.08436L7.95997 9.5456V9.55498C8.06185 9.64373 8.10622 9.78185 8.07622 9.91373C8.04622 10.0456 7.94497 10.15 7.8156 10.1856V10.1919L5.71435 10.7962C5.61037 9.84955 5.82393 8.89582 6.32247 8.08436ZM13.6681 8.08436C14.1656 8.89373 14.3856 9.8431 14.2943 10.7887L12.19 10.1825V10.1744C12.0587 10.1387 11.9587 10.0344 11.9293 9.90248C11.9 9.77061 11.9437 9.63373 12.0456 9.54373L13.6706 8.08935L13.6681 8.08436ZM9.6656 9.65936H10.3356L10.745 10.1794L10.5962 10.8294L9.99435 11.1187L9.39122 10.8294L9.24935 10.1794L9.6656 9.65936ZM11.8118 11.4331C11.84 11.43 11.8743 11.43 11.8962 11.4331L14.0631 11.7987C13.7506 12.6987 13.1337 13.4675 12.3287 13.9819L11.4912 11.9544C11.4682 11.9 11.4586 11.8408 11.4632 11.7819C11.4678 11.7231 11.4864 11.6661 11.5176 11.616C11.5488 11.5658 11.5916 11.5238 11.6423 11.4937C11.6931 11.4635 11.7504 11.4459 11.8093 11.4425L11.8118 11.4331ZM8.17247 11.4425C8.29497 11.4444 8.4081 11.5075 8.47497 11.61C8.54185 11.7125 8.55247 11.8412 8.50435 11.9537V11.9619L7.67185 13.9731C6.87497 13.4625 6.26997 12.7031 5.9481 11.8125L8.09622 11.4481C8.11997 11.4456 8.14435 11.4456 8.16872 11.4481L8.17247 11.4425ZM9.98747 12.3175C10.0558 12.3153 10.1233 12.3322 10.1826 12.3662C10.2418 12.4002 10.2905 12.45 10.3231 12.51H10.3312L11.39 14.4206L10.9669 14.5456C10.1881 14.7237 9.37497 14.6819 8.6181 14.4244L9.6806 12.5137C9.74497 12.4012 9.86372 12.3325 9.9931 12.3294L9.98747 12.3175Z" stroke="white" stroke-width="0.034375"/>
</g>
<defs>
<clipPath id="clip0_20377_12664">
<rect width="20" height="20" fill="white"/>
</clipPath>
</defs>
</svg>
