<svg width="20" height="20" viewBox="0 0 20 20" fill="none" xmlns="http://www.w3.org/2000/svg">
<path d="M9.86875 18.5934H3.38562C2.12149 18.5934 1.09402 17.5659 1.09402 16.3018V3.38555C1.09402 2.12142 2.12149 1.09395 3.38562 1.09395H12.9687C14.2328 1.09395 15.2602 2.12142 15.2602 3.38555V9.25203C15.2602 9.59702 14.9803 9.87701 14.6353 9.87701C14.2903 9.87701 14.0103 9.59702 14.0103 9.25203V3.38555C14.0103 2.8114 13.5428 2.34391 12.9687 2.34391H3.38562C2.81147 2.34391 2.34399 2.8114 2.34399 3.38555V16.3018C2.34399 16.876 2.81147 17.3434 3.38562 17.3434H9.86875C10.2137 17.3434 10.4937 17.6234 10.4937 17.9684C10.4937 18.3134 10.2137 18.5934 9.86875 18.5934Z" fill="black"/>
<path d="M17.2785 13.2096C17.2785 13.4792 17.0599 13.6978 16.7902 13.6978C16.5205 13.6978 16.3019 13.4792 16.3019 13.2096C16.3019 12.9399 16.5205 12.7213 16.7902 12.7213C17.0599 12.7213 17.2785 12.9399 17.2785 13.2096Z" fill="black"/>
<path fill-rule="evenodd" clip-rule="evenodd" d="M13.6093 18.6111C13.7995 18.8012 14.0525 18.906 14.3213 18.906V18.9057C14.5902 18.9057 14.8431 18.8011 15.0334 18.6108L18.611 15.0332C18.8439 14.8003 18.9482 14.4678 18.8903 14.1436L18.553 12.2602C18.4791 11.8474 18.1522 11.5205 17.7394 11.4466L15.856 11.1093C15.5305 11.0514 15.1991 11.1559 14.9663 11.3886L11.3886 14.9664C11.1985 15.1566 11.0937 15.4095 11.0937 15.6784C11.0937 15.9473 11.1984 16.2002 11.3886 16.3905L13.6093 18.6111ZM15.4266 11.8491C15.494 11.7817 15.585 11.7447 15.6786 11.7447V11.7449C15.6994 11.7449 15.7204 11.7467 15.7412 11.7504L17.6247 12.0877C17.7706 12.1139 17.8862 12.2294 17.9122 12.3753L18.2495 14.2587C18.27 14.3733 18.2332 14.4909 18.1508 14.5733L14.5733 18.1509C14.4343 18.2898 14.2087 18.2898 14.0697 18.1509L11.8491 15.9302C11.7102 15.7914 11.7102 15.5655 11.8491 15.4266L15.4266 11.8491Z" fill="black"/>
<path d="M4.21893 9.01037H12.1353C12.4803 9.01037 12.7603 8.73038 12.7603 8.38539C12.7603 8.0404 12.4803 7.76041 12.1353 7.76041H4.21893C3.87394 7.76041 3.59395 8.0404 3.59395 8.38539C3.59395 8.73038 3.87394 9.01037 4.21893 9.01037Z" fill="black"/>
<path d="M8.80212 12.3436H4.21893C3.87394 12.3436 3.59395 12.0636 3.59395 11.7186C3.59395 11.3736 3.87394 11.0936 4.21893 11.0936H8.80212C9.14711 11.0936 9.4271 11.3736 9.4271 11.7186C9.4271 12.0636 9.14711 12.3436 8.80212 12.3436Z" fill="black"/>
<path d="M4.21893 5.67714H7.96881C8.3138 5.67714 8.59379 5.39715 8.59379 5.05216C8.59379 4.70717 8.3138 4.42718 7.96881 4.42718H4.21893C3.87394 4.42718 3.59395 4.70717 3.59395 5.05216C3.59395 5.39715 3.87394 5.67714 4.21893 5.67714Z" fill="black"/>
</svg>
