<svg width="20" height="20" viewBox="0 0 20 20" fill="none" xmlns="http://www.w3.org/2000/svg">
<path fill-rule="evenodd" clip-rule="evenodd" d="M3.38548 1.09385H12.9687C14.2354 1.09385 15.2604 2.11884 15.2604 3.38549V9.01877C15.1937 9.01043 15.1187 9.01043 15.052 9.01043C11.7187 9.01043 9.01043 11.7187 9.01043 15.052C9.01043 16.377 9.43542 17.5937 10.1687 18.5937H3.38548C2.11883 18.5937 1.09384 17.5687 1.09384 16.302V3.38549C1.09384 2.11884 2.11883 1.09385 3.38548 1.09385ZM7.76044 4.42715H4.42714C3.96881 4.42715 3.59382 4.80214 3.59382 5.26047C3.59382 5.7188 3.96881 6.0938 4.42714 6.0938H7.76044C8.21877 6.0938 8.59376 5.7188 8.59376 5.26047C8.59376 4.80214 8.21877 4.42715 7.76044 4.42715ZM4.42714 12.7604H8.59376C9.05209 12.7604 9.42709 12.3854 9.42709 11.9271C9.42709 11.4687 9.05209 11.0937 8.59376 11.0937H4.42714C3.96881 11.0937 3.59382 11.4687 3.59382 11.9271C3.59382 12.3854 3.96881 12.7604 4.42714 12.7604ZM4.42714 9.4271H11.9271C12.3854 9.4271 12.7604 9.0521 12.7604 8.59377C12.7604 8.13544 12.3854 7.76045 11.9271 7.76045H4.42714C3.96881 7.76045 3.59382 8.13544 3.59382 8.59377C3.59382 9.0521 3.96881 9.4271 4.42714 9.4271Z" fill="black"/>
<path fill-rule="evenodd" clip-rule="evenodd" d="M18.5532 12.2603L18.8904 14.1438C18.9484 14.468 18.8441 14.8007 18.6111 15.0336L15.0335 18.6112C14.8432 18.8013 14.5903 18.9061 14.3214 18.9061C14.0526 18.9061 13.7996 18.8015 13.6094 18.6112L11.3887 16.3905C11.1986 16.2003 11.0937 15.9473 11.0937 15.6785C11.0937 15.4096 11.1984 15.1566 11.3887 14.9664L14.9665 11.3887C15.1992 11.156 15.5306 11.0515 15.8561 11.1094L17.7396 11.4467C18.1523 11.5206 18.4793 11.8476 18.5532 12.2603ZM16.3021 13.2095C16.3021 13.4792 16.5207 13.6978 16.7903 13.6978C17.06 13.6978 17.2786 13.4792 17.2786 13.2095C17.2786 12.9398 17.06 12.7213 16.7903 12.7213C16.5207 12.7213 16.3021 12.9398 16.3021 13.2095Z" fill="black"/>
</svg>
