<svg width="20" height="20" viewBox="0 0 20 20" fill="none" xmlns="http://www.w3.org/2000/svg">
<path d="M13.7667 5C14.0165 5.00003 14.2631 5.05622 14.4882 5.1644C14.7134 5.27258 14.9114 5.43 15.0675 5.625L18.1508 9.47917C18.2692 9.62697 18.3336 9.81066 18.3336 10C18.3336 10.1893 18.2692 10.373 18.1508 10.5208L15.0675 14.3742C14.9115 14.5693 14.7135 14.7269 14.4884 14.8352C14.2632 14.9436 14.0165 14.9999 13.7667 15H5C4.33696 15 3.70107 14.7366 3.23223 14.2678C2.76339 13.7989 2.5 13.163 2.5 12.5V7.5C2.5 6.83696 2.76339 6.20107 3.23223 5.73223C3.70107 5.26339 4.33696 5 5 5H13.7667Z" fill="#171723"/>
</svg>
