<svg width="20" height="20" viewBox="0 0 20 20" fill="none" xmlns="http://www.w3.org/2000/svg">
<path d="M13.7671 5.20837L13.9299 5.21733C14.092 5.23563 14.2501 5.28143 14.3978 5.35242C14.5456 5.42347 14.6802 5.51876 14.7958 5.63399L14.9048 5.75525L17.9883 9.60942C18.1709 9.83768 18.1709 10.1624 17.9883 10.3907L14.9048 14.2448C14.7683 14.4154 14.5947 14.553 14.3978 14.6477C14.201 14.7423 13.9855 14.7916 13.7671 14.7917H5.00004C4.39225 14.7917 3.80953 14.5501 3.37976 14.1203C3.00365 13.7442 2.77181 13.251 2.71977 12.7263L2.70837 12.5V7.50004C2.70837 6.89225 2.94999 6.30953 3.37976 5.87976C3.80953 5.44999 4.39225 5.20837 5.00004 5.20837H13.7671ZM3.95837 12.5L3.96326 12.6034C3.98701 12.8417 4.09271 13.0657 4.26355 13.2365C4.4589 13.4319 4.72377 13.5417 5.00004 13.5417H13.7663L13.8127 13.5368C13.8278 13.5334 13.8426 13.5281 13.8566 13.5214C13.8846 13.5079 13.9088 13.4878 13.9283 13.4636L16.6984 10L13.9283 6.5365V6.53569C13.9089 6.51169 13.8845 6.4921 13.8566 6.47872C13.8426 6.47197 13.8278 6.46671 13.8127 6.46326L13.7663 6.45837H5.00004C4.72377 6.45837 4.4589 6.5682 4.26355 6.76355C4.0682 6.9589 3.95837 7.22377 3.95837 7.50004V12.5Z" fill="#171723"/>
</svg>
