<svg width="20" height="20" viewBox="0 0 20 20" fill="none" xmlns="http://www.w3.org/2000/svg">
<path fill-rule="evenodd" clip-rule="evenodd" d="M6.26872 5.38499L6.28169 5.39796C6.27743 5.39357 6.27311 5.38925 6.26872 5.38499Z" fill="#171723"/>
<path d="M16.1328 12.7092C15.9171 12.9784 15.5241 13.0216 15.2547 12.806C14.9852 12.5904 14.9414 12.1974 15.157 11.9279L16.6992 10L13.9282 6.53649C13.9088 6.5125 13.8844 6.49209 13.8566 6.47871C13.8425 6.47197 13.8277 6.4667 13.8126 6.46325L13.7663 6.45837H9.16664C8.82146 6.45837 8.54164 6.17855 8.54164 5.83337C8.54164 5.48819 8.82146 5.20837 9.16664 5.20837H13.7671L13.9298 5.21732C14.0919 5.23563 14.2501 5.28143 14.3978 5.35241C14.5455 5.42346 14.6801 5.51876 14.7957 5.63399L14.9048 5.75524L17.9883 9.60941C18.1709 9.83768 18.1709 10.1624 17.9883 10.3907L16.1328 12.7092Z" fill="#171723"/>
<path fill-rule="evenodd" clip-rule="evenodd" d="M2.70831 7.50004V12.5L2.7197 12.7263C2.77174 13.251 3.00359 13.7442 3.3797 14.1203C3.80947 14.5501 4.39219 14.7917 4.99998 14.7917H13.7671C13.8121 14.7917 13.8569 14.7896 13.9016 14.7854L17.0581 17.9419L17.1053 17.9851C17.3508 18.1853 17.713 18.1708 17.9419 17.9419C18.1707 17.7131 18.1853 17.3508 17.985 17.1053L17.9419 17.0581L6.28169 5.39796L6.26872 5.38499L2.94187 2.05814L2.89467 2.01501C2.64919 1.81475 2.28692 1.82931 2.05808 2.05814C1.82924 2.28698 1.81469 2.64925 2.01495 2.89473L2.05808 2.94193L4.40355 5.2874C4.01964 5.39096 3.66578 5.59367 3.3797 5.87976C2.94992 6.30953 2.70831 6.89225 2.70831 7.50004ZM4.26348 6.76355C4.45884 6.5682 4.72371 6.45837 4.99998 6.45837H5.57452L12.6579 13.5417H4.99998C4.72371 13.5417 4.45884 13.4319 4.26348 13.2365C4.09264 13.0657 3.98694 12.8417 3.96319 12.6034L3.95831 12.5V7.50004C3.95831 7.22377 4.06813 6.9589 4.26348 6.76355Z" fill="#171723"/>
</svg>
