<svg width="20" height="20" viewBox="0 0 20 20" fill="none" xmlns="http://www.w3.org/2000/svg">
<g clip-path="url(#clip0_10314_144684)">
<g clip-path="url(#clip1_10314_144684)">
<path d="M18.935 1.77475L19.8497 0.871246C19.8972 0.824281 19.935 0.768411 19.961 0.706824C19.987 0.645238 20.0005 0.579142 20.0009 0.51231C20.0014 0.445477 19.9886 0.379218 19.9634 0.317314C19.9382 0.25541 19.9011 0.199075 19.8541 0.151524C19.8072 0.103973 19.7513 0.0661384 19.6897 0.0401797C19.6281 0.014221 19.562 0.000646726 19.4952 0.000232047C19.4284 -0.000182632 19.3621 0.0125704 19.3002 0.0377629C19.2383 0.0629554 19.1819 0.100094 19.1344 0.147058L18.2138 1.05648C17.961 0.904812 17.6788 0.80882 17.386 0.774912L10.5226 0.0134635C10.2131 -0.0221018 9.89964 0.0130177 9.60574 0.116177C9.31183 0.219336 9.04516 0.387844 8.82582 0.60901L0.611396 8.82344C0.41836 9.01608 0.265212 9.2449 0.16072 9.4968C0.0562271 9.7487 0.00244141 10.0187 0.00244141 10.2914C0.00244141 10.5642 0.0562271 10.8342 0.16072 11.0861C0.265212 11.338 0.41836 11.5668 0.611396 11.7595L8.24277 19.3908C8.63236 19.7795 9.16021 19.9977 9.71053 19.9977C10.2608 19.9977 10.7887 19.7795 11.1783 19.3908L19.3927 11.1768C19.6133 10.9567 19.7814 10.6896 19.8844 10.3955C19.9875 10.1014 20.0228 9.78777 19.9878 9.4781L19.2209 2.60723C19.1862 2.3125 19.0887 2.02864 18.935 1.77475ZM18.6735 10.4576L10.459 18.6716C10.2604 18.87 9.99121 18.9815 9.71047 18.9815C9.42974 18.9815 9.1605 18.87 8.96194 18.6716L1.33062 11.0402C1.23207 10.942 1.15387 10.8253 1.10051 10.6968C1.04715 10.5683 1.01969 10.4305 1.01969 10.2914C1.01969 10.1523 1.04715 10.0145 1.10051 9.88602C1.15387 9.75753 1.23207 9.64084 1.33062 9.54263L9.54508 1.32817C9.64279 1.22975 9.75902 1.15165 9.88706 1.09837C10.0151 1.04509 10.1524 1.01769 10.2911 1.01774C10.331 1.01783 10.3708 1.02015 10.4103 1.02469L17.2748 1.78614C17.3276 1.79685 17.3795 1.81172 17.43 1.83059L15.635 3.60361C15.1745 3.32928 14.6369 3.21303 14.1042 3.27257C13.5715 3.33211 13.0728 3.56419 12.6842 3.93342C12.3641 4.25352 12.1413 4.65789 12.0418 5.09956C11.9423 5.54122 11.9701 6.00206 12.1221 6.42853C12.274 6.85501 12.5438 7.22962 12.9002 7.50885C13.2566 7.78809 13.6849 7.96049 14.1353 8.00603C14.5857 8.05156 15.0399 7.96837 15.4449 7.76611C15.8499 7.56385 16.1893 7.25082 16.4235 6.86339C16.6578 6.47596 16.7773 6.03002 16.7682 5.57737C16.7591 5.12473 16.6217 4.68396 16.3721 4.30625L18.1582 2.54203C18.1806 2.59985 18.1978 2.65957 18.2095 2.72047L18.9764 9.59085C18.9945 9.74881 18.9766 9.90882 18.9242 10.0589C18.8717 10.209 18.786 10.3453 18.6735 10.4576ZM15.3485 6.59822C15.0865 6.84833 14.7382 6.98788 14.376 6.98788C14.0138 6.98788 13.6655 6.84833 13.4035 6.59822C13.1777 6.37551 13.0362 6.08151 13.0028 5.7662C12.9693 5.45088 13.0462 5.13374 13.2202 4.86869C13.3943 4.60364 13.6547 4.40706 13.9573 4.31238C14.26 4.21769 14.586 4.23076 14.8801 4.34934L13.8584 5.35845C13.7631 5.45344 13.7092 5.58234 13.7087 5.71694C13.7081 5.85154 13.7609 5.98088 13.8555 6.07664C13.9501 6.17241 14.0788 6.2268 14.2134 6.22793C14.348 6.22906 14.4775 6.17682 14.5737 6.08265L15.6149 5.05421C15.734 5.30787 15.7723 5.59198 15.7247 5.86812C15.677 6.14427 15.5457 6.39912 15.3485 6.59822Z" fill="#171723"/>
<path d="M7.36893 7.22835C7.27323 7.13457 7.14439 7.08234 7.0104 7.08301C6.87641 7.08369 6.7481 7.13722 6.65335 7.23196C6.5586 7.32671 6.50508 7.45502 6.5044 7.58901C6.50372 7.723 6.55595 7.85184 6.64974 7.94754L12.5595 13.8583C12.6552 13.9521 12.784 14.0043 12.918 14.0036C13.052 14.0029 13.1803 13.9494 13.2751 13.8547C13.3698 13.7599 13.4233 13.6316 13.424 13.4976C13.4247 13.3636 13.3725 13.2348 13.2787 13.1391L7.36893 7.22835Z" fill="#171723"/>
<path d="M5.3992 9.19893C5.30351 9.10515 5.17466 9.05292 5.04067 9.0536C4.90668 9.05427 4.77837 9.1078 4.68363 9.20255C4.58888 9.29729 4.53535 9.4256 4.53467 9.55959C4.534 9.69358 4.58623 9.82243 4.68001 9.91813L10.5898 15.8284C10.6855 15.9222 10.8143 15.9744 10.9483 15.9737C11.0823 15.973 11.2106 15.9195 11.3053 15.8248C11.4001 15.73 11.4536 15.6017 11.4543 15.4677C11.455 15.3337 11.4027 15.2049 11.309 15.1092L5.3992 9.19893Z" fill="#171723"/>
</g>
</g>
<defs>
<clipPath id="clip0_10314_144684">
<rect width="20" height="20" fill="white"/>
</clipPath>
<clipPath id="clip1_10314_144684">
<rect width="20" height="20" fill="white"/>
</clipPath>
</defs>
</svg>
