<svg width="20" height="20" viewBox="0 0 20 20" fill="none" xmlns="http://www.w3.org/2000/svg">
<g clip-path="url(#clip0_18444_1646)">
<path d="M18.9167 3.25L18.3333 3.75L16.8333 5.25C16.8333 5.33333 16.8333 5.5 16.8333 5.58333C16.8333 6.91667 15.75 8.08333 14.3333 8.08333C13 8.08333 11.9167 7 11.9167 5.58333C11.9167 4.25 13 3.16667 14.3333 3.16667C14.8333 3.16667 15.25 3.33333 15.6667 3.58333C15.9167 3.75 16 3.66667 16.25 4L18 2.25L18.5 1.75L17.9167 1.16667L10 0.583332L0.5 9.75L1.33333 12.1667L9.5 19.4167L10.9167 18.9167L19.5 10L18.9167 3.25ZM4.5 9.58333C4.5 9.41667 4.58333 9.33333 4.66667 9.25C4.75 9.16667 4.91667 9.08333 5 9.08333C5.16667 9.08333 5.25 9.16667 5.33333 9.25L11.25 15.1667C11.3333 15.25 11.4167 15.4167 11.4167 15.5C11.4167 15.6667 11.3333 15.75 11.25 15.8333C11.1667 15.9167 11 16 10.9167 16C10.75 16 10.6667 15.9167 10.5833 15.8333L4.66667 9.91667C4.58333 9.83333 4.5 9.66667 4.5 9.58333ZM13.25 13.1667C13.3333 13.25 13.4167 13.4167 13.4167 13.5C13.4167 13.6667 13.3333 13.75 13.25 13.8333C13.1667 13.9167 13 14 12.9167 14C12.8333 14 12.6667 13.9167 12.5833 13.8333L6.66667 7.91667C6.58333 7.83333 6.5 7.75 6.5 7.58333C6.5 7.5 6.58333 7.33333 6.66667 7.25C6.75 7.16667 6.91667 7.08333 7 7.08333C7.16667 7.08333 7.25 7.16667 7.33333 7.25L13.25 13.1667ZM19.25 2.83333L18.9167 3.16667L18.3333 3.75L19 9.58333C19 9.75 19 9.91667 18.9167 10.0833C18.8333 10.25 18.75 10.3333 18.6667 10.5L10.4167 18.75C10.25 18.9167 9.91667 19.0833 9.66667 19.0833C9.41667 19.0833 9.08333 19 8.91667 18.75L1.25 11.0833C1.16667 11 1.08333 10.8333 1 10.75C0.916667 10.5833 0.916667 10.5 0.916667 10.3333C0.916667 10.1667 0.916667 10.0833 1 9.91667C1.08333 9.83333 1.16667 9.66667 1.25 9.58333L9.5 1.33333C9.58333 1.25 9.75 1.16667 9.83333 1.08333C10 0.999999 10.0833 0.999999 10.25 0.999999H10.3333L17.1667 1.75L17.3333 1.83333L16.1667 2.91667L14.75 4.33333L13.75 5.33333C13.6667 5.41667 13.6667 5.5 13.6667 5.66667C13.6667 5.83333 13.75 5.91667 13.8333 6C13.9167 6.08333 14.0833 6.16667 14.1667 6.16667C14.3333 6.16667 14.4167 6.08333 14.5 6L15.5 5L16.25 4.25L18.1667 2.5L18.6667 2L18.9167 1.75L19.5 1.16667L19.8333 0.833332L20 0.666665V0.499999V0.333332L19.9167 0.166665L19.6667 -1.39698e-06H19.5H19.3333L19.1667 0.166665L18.25 1.08333C18 0.916665 17.75 0.833332 17.4167 0.833332L10.5 -1.39698e-06C10.1667 -0.0833347 9.83333 -1.39326e-06 9.58333 0.0833319C9.25 0.166665 9 0.333332 8.83333 0.583332L0.583333 8.83333C0.416667 9 0.25 9.25 0.166667 9.5C0.0833333 9.75 0 10 0 10.25C0 10.5 0.0833333 10.8333 0.166667 11.0833C0.25 11.3333 0.416667 11.5833 0.583333 11.75L8.25 19.4167C8.66667 19.8333 9.16667 20 9.75 20C10.3333 20 10.8333 19.75 11.25 19.4167L19.5 11.1667C19.75 10.9167 19.9167 10.6667 20 10.4167C20.0833 10.1667 20.1667 9.83333 20.0833 9.5L19.25 2.83333Z" fill="#171723"/>
</g>
<defs>
<clipPath id="clip0_18444_1646">
<rect width="20" height="20" fill="white"/>
</clipPath>
</defs>
</svg>
