<svg width="20" height="20" viewBox="0 0 20 20" fill="none" xmlns="http://www.w3.org/2000/svg">
<path d="M15.3204 7.67486C15.0559 7.67486 14.8081 7.77723 14.6213 7.96284L13.8699 8.71227C13.6668 8.91465 13.5629 9.1951 13.5844 9.4825C13.5861 9.49811 13.5873 9.51429 13.589 9.52993C13.6163 9.75081 13.7132 9.94972 13.8699 10.1058C13.9784 10.214 14.1118 10.2961 14.2563 10.3435C14.2638 10.3869 14.2679 10.4314 14.2679 10.4754C14.2679 10.6737 14.1907 10.8599 14.0503 10.9998L14.0039 11.0461C13.7526 10.9605 13.5298 10.8217 13.3401 10.6332C13.0889 10.3828 12.9229 10.0671 12.8603 9.72016L12.8516 9.67159L12.8133 9.70281C12.7877 9.72364 12.7628 9.74619 12.7401 9.76873L11.9882 10.5182C11.6029 10.9021 11.6029 11.5272 11.9882 11.9117C12.1808 12.1037 12.4344 12.1997 12.6873 12.1997C12.9403 12.1997 13.1939 12.1037 13.3865 11.9117L14.1385 11.1623C14.5238 10.7784 14.5238 10.1533 14.1385 9.7693C14.0358 9.66697 13.9134 9.59006 13.7747 9.54032C13.7672 9.49523 13.7631 9.45011 13.7631 9.40616C13.7631 9.19047 13.849 8.98577 14.0051 8.82964C14.2569 8.91523 14.4797 9.05401 14.6683 9.24195C14.9189 9.49175 15.0848 9.80749 15.1481 10.155L15.1568 10.2036L15.1951 10.1724C15.2206 10.1515 15.2456 10.129 15.2688 10.1058L16.0208 9.35702C16.406 8.97304 16.406 8.34795 16.0208 7.96343C15.8345 7.7778 15.5862 7.67546 15.3216 7.67546L15.3204 7.67486Z" fill="#1D3D3C"/>
<path d="M14.9177 4.93506H5.08226C2.27973 4.93506 0 7.20702 0 9.99999C0 12.793 2.27973 15.0649 5.08226 15.0649H14.9177C17.7203 15.0649 20 12.793 20 9.99999C20 7.20702 17.7203 4.93506 14.9177 4.93506ZM10.0664 12.8762C9.90397 12.9098 9.72177 12.9161 9.59818 12.7866C9.55236 12.8913 9.44616 12.8363 9.3632 12.8225C9.35566 12.8439 9.34927 12.8624 9.34171 12.8838C9.06787 12.9023 8.86247 12.6235 8.7319 12.4131C8.47255 12.2737 8.17836 12.1881 7.91377 12.0418C7.8981 12.283 7.95148 12.5813 7.72114 12.7374C7.70953 13.2006 8.42496 12.7918 8.48995 13.1376C8.43888 13.1428 8.3826 13.1295 8.342 13.1688C8.15574 13.3498 7.94104 13.0324 7.72636 13.1631C7.438 13.3082 7.40839 13.4261 7.05156 13.4562C7.03182 13.4267 7.03995 13.4065 7.05678 13.3886C7.15714 13.2723 7.16413 13.1347 7.33644 13.085C7.15948 13.0572 7.01151 13.1544 6.86299 13.2319C6.66917 13.3105 6.67091 13.0538 6.37268 13.2452C6.33961 13.2186 6.35527 13.1943 6.37442 13.1734C6.45044 13.0815 6.54966 13.0676 6.66221 13.0729C6.10984 12.7658 5.8499 13.4481 5.5946 13.1093C5.518 13.1295 5.48899 13.1983 5.44083 13.2475C5.39906 13.2018 5.43096 13.1469 5.4327 13.0931C5.38281 13.0699 5.31956 13.0584 5.33465 12.9792C5.2366 12.9462 5.16927 13.004 5.09675 13.059C5.03119 13.0086 5.14086 12.9341 5.16117 12.8814C5.21977 12.7797 5.35262 12.8606 5.42052 12.7878C5.61257 12.6791 5.88065 12.856 6.09997 12.8259C6.2694 12.8473 6.47886 12.6738 6.39356 12.5015C6.21255 12.2714 6.24504 11.9701 6.24096 11.6943C6.21834 11.5341 5.8319 11.3294 5.71992 11.1559C5.58182 10.9998 5.4739 10.8194 5.36657 10.6413C4.97782 9.89129 5.10023 8.92732 4.61052 8.23054C4.38888 8.35254 4.10049 8.29472 3.90901 8.13108C3.80574 8.22475 3.80109 8.34734 3.79296 8.47745C3.54579 8.23111 3.57655 7.76503 3.77442 7.49037C3.85506 7.38166 3.95138 7.2926 4.05987 7.21454C4.08426 7.19719 4.09236 7.17927 4.09179 7.15209C4.28732 6.27487 5.62187 6.44431 6.04426 7.06535C6.35062 7.44758 6.44288 7.95355 6.78987 8.30919C7.25696 8.81862 7.78904 9.26734 8.22013 9.81033C8.62745 10.3065 8.91933 10.8876 9.17288 11.474C9.27675 11.6683 9.27732 11.9071 9.43109 12.073C9.50709 12.1731 9.8767 12.446 9.79662 12.5426C9.84304 12.6426 10.1883 12.7814 10.0688 12.8785L10.0664 12.8762ZM16.5488 9.88376L15.7974 10.6332C15.5972 10.8327 15.3495 10.9819 15.0814 11.0634L15.068 11.0674L15.0628 11.0807C14.9752 11.3109 14.8429 11.5156 14.6683 11.6897L13.9163 12.4391C13.5884 12.7658 13.1521 12.9456 12.6879 12.9456C12.2237 12.9456 11.7874 12.7658 11.4596 12.4397C10.7824 11.7648 10.7824 10.6661 11.4596 9.99132L12.2116 9.24189C12.4129 9.04124 12.6537 8.89727 12.9264 8.81342L12.9397 8.80937L12.945 8.79607C13.032 8.56592 13.1655 8.36064 13.3413 8.18542L14.0927 7.43601C14.4205 7.1093 14.8568 6.92946 15.321 6.92946C15.7852 6.92946 16.2221 7.1093 16.5494 7.43601C16.8766 7.76272 17.0576 8.19758 17.0571 8.66018C17.0571 9.12337 16.8766 9.55763 16.5488 9.88376Z" fill="#1D3D3C"/>
<path d="M7.00881 11.969C6.94265 12.2251 6.92117 12.6617 6.58697 12.6744C6.55969 12.8225 6.68967 12.878 6.80863 12.8306C6.92582 12.7768 6.98154 12.8728 7.02156 12.9688C7.2026 12.9954 7.47125 12.9086 7.48169 12.6941C7.21071 12.5386 7.1266 12.2425 7.00881 11.969Z" fill="#1D3D3C"/>
</svg>
