<svg width="20" height="20" viewBox="0 0 20 20" fill="none" xmlns="http://www.w3.org/2000/svg">
<path d="M19.211 17.955C18.4745 17.453 18.2199 16.5291 17.4881 16.0153C17.2513 15.8492 17.1806 15.5298 17.0816 15.2493C16.1506 12.6214 14.8426 10.2127 12.864 8.21291C10.9808 6.30974 9.00578 4.50556 7.93577 1.94129C7.44554 0.767573 6.30481 0.243171 5.05921 0.0463724C3.77001 -0.157496 2.60689 0.320947 2.19798 1.28255C2.00825 1.72917 1.76785 2.09449 1.40371 2.40677C1.11971 2.65071 0.917021 2.96653 0.800356 3.32949C0.558777 4.08015 0.548171 4.79663 1.09732 5.5473C1.15389 5.3776 1.18806 5.31279 1.19513 5.24444C1.24934 4.75421 1.39546 4.5197 1.92105 4.87323C2.2675 5.10656 2.70824 5.19377 3.10773 5.03939C3.52136 4.87913 3.66748 5.08182 3.82657 5.38703C4.31326 6.31917 4.56191 7.32437 4.71511 8.34843C5.071 10.7348 5.81341 12.9101 7.86977 14.4138C8.18206 14.6424 8.27398 14.9606 8.25276 15.3413C8.22095 15.9293 8.24216 16.5126 8.53677 17.0535C8.87733 17.6781 8.60512 18.1553 7.89334 18.2096C7.47382 18.2414 7.08022 18.1141 6.6772 18.0316C5.96425 17.8855 5.16881 18.2225 4.93076 18.7622C5.55651 18.5925 5.75331 18.701 5.94304 19.3185C6.12805 19.3031 6.20818 18.9484 6.43562 19.1299C6.85986 19.4693 7.20867 19.2183 7.56927 19.0286C8.09721 18.7493 8.63104 18.5466 9.245 18.8483C9.04585 19.0026 8.7371 18.9838 8.68289 19.2301C9.56907 19.4269 10.4034 19.3632 11.2142 18.9461C11.0127 19.1853 10.8724 19.4198 10.7404 19.6579C10.6886 19.7509 10.5613 19.8558 10.6768 19.9607C10.7334 20.0114 10.863 20.0031 10.9549 19.9902C11.3768 19.9324 11.7232 19.7038 12.0591 19.4658C12.5199 19.1393 12.9901 18.9661 13.531 19.2749C13.921 19.4976 14.2498 19.2501 14.5857 19.1205C14.8213 19.0286 14.6587 18.9025 14.5668 18.8212C14.3759 18.6503 14.1284 18.675 13.8951 18.6585C13.584 18.635 13.2682 18.6951 12.9606 18.5914C12.6271 18.4794 12.3997 18.1919 12.6118 17.9409C13.0301 17.4424 13.0973 16.8956 13.0985 16.3005C13.0985 16.1874 13.0726 15.934 13.28 16.0577C14.1025 16.548 15.1855 16.5574 15.7841 17.473C16.1813 18.0799 16.6986 18.5289 17.5353 18.2579C17.8228 18.1648 18.128 18.1883 18.4215 18.3498C18.6053 18.4511 18.8374 18.4617 19.0543 18.4005C19.1615 18.3698 19.3065 18.3946 19.3477 18.2543C19.3854 18.1259 19.3112 18.0234 19.211 17.955ZM11.7091 18.1931C11.4334 18.6314 10.7451 18.734 10.3775 18.3628C10.1689 18.153 9.9556 18.2213 9.72463 18.2402C9.54433 18.2555 9.36285 18.2402 9.28507 18.034C9.17901 17.7535 9.43709 17.7712 9.57497 17.7052C9.96738 17.5155 10.1147 17.1525 10.2361 16.7778C10.3197 16.5185 10.3657 16.2475 10.4753 15.7855C10.8453 16.6269 11.1234 17.3363 11.7515 17.8171C11.8682 17.9067 11.7845 18.0717 11.7091 18.1931Z" fill="#171723"/>
</svg>
