<svg width="20" height="20" viewBox="0 0 20 20" fill="none" xmlns="http://www.w3.org/2000/svg">
<g clip-path="url(#clip0_10314_144997)">
<path d="M6.55268 5.25874C6.5137 5.21986 6.4674 5.18909 6.41645 5.16821C6.3655 5.14733 6.31092 5.13675 6.25586 5.13709C6.20081 5.13743 6.14636 5.14868 6.09568 5.17019C6.04499 5.1917 5.99907 5.22304 5.96057 5.2624C5.92207 5.30176 5.89175 5.34836 5.87137 5.39951C5.85099 5.45065 5.84094 5.50533 5.84182 5.56039C5.8427 5.61544 5.85448 5.66977 5.87648 5.72024C5.89848 5.77072 5.93026 5.81633 5.97 5.85444L10.1083 9.90469L5.95536 14.152C5.91643 14.191 5.88562 14.2373 5.8647 14.2882C5.84379 14.3392 5.83318 14.3938 5.8335 14.4489C5.83382 14.5039 5.84506 14.5584 5.86657 14.6091C5.88808 14.6598 5.91943 14.7058 5.95881 14.7443C5.99819 14.7828 6.04481 14.8131 6.09599 14.8335C6.14716 14.8539 6.20187 14.8639 6.25694 14.863C6.31202 14.8621 6.36637 14.8503 6.41686 14.8283C6.46734 14.8063 6.51295 14.7744 6.55106 14.7347L10.9952 10.1896C11.0335 10.1505 11.0637 10.1042 11.0841 10.0534C11.1044 10.0026 11.1146 9.94835 11.114 9.89364C11.1134 9.83892 11.102 9.78487 11.0805 9.73455C11.059 9.68424 11.0278 9.63865 10.9887 9.6004L6.55268 5.25874Z" fill="#171723"/>
<path d="M13.7467 5.14001C13.692 5.13998 13.6378 5.15074 13.5873 5.17167C13.5367 5.1926 13.4907 5.22329 13.452 5.26198C13.4134 5.30068 13.3827 5.34663 13.3617 5.39719C13.3408 5.44776 13.33 5.50196 13.3301 5.55668V14.4433C13.3301 14.5539 13.374 14.6598 13.4521 14.738C13.5303 14.8161 13.6362 14.86 13.7467 14.86C13.8573 14.86 13.9632 14.8161 14.0414 14.738C14.1195 14.6598 14.1634 14.5539 14.1634 14.4433V5.55668C14.1634 5.50196 14.1527 5.44776 14.1318 5.39719C14.1108 5.34663 14.0801 5.30068 14.0414 5.26198C14.0027 5.22329 13.9568 5.1926 13.9062 5.17167C13.8557 5.15074 13.8015 5.13998 13.7467 5.14001Z" fill="#171723"/>
</g>
<defs>
<clipPath id="clip0_10314_144997">
<rect width="20" height="20" fill="white" transform="translate(20 20) rotate(-180)"/>
</clipPath>
</defs>
</svg>
