<svg width="20" height="20" viewBox="0 0 20 20" fill="none" xmlns="http://www.w3.org/2000/svg">
<path fill-rule="evenodd" clip-rule="evenodd" d="M12.942 7.89143C13.1861 8.13551 13.1861 8.53124 12.942 8.77532L11.7173 10L12.942 11.2248C13.1861 11.4688 13.1861 11.8646 12.942 12.1087C12.6979 12.3527 12.3022 12.3527 12.0581 12.1087L10.3914 10.442C10.1474 10.1979 10.1474 9.80218 10.3914 9.5581L12.0581 7.89143C12.3022 7.64735 12.6979 7.64735 12.942 7.89143Z" fill="#171723"/>
<path fill-rule="evenodd" clip-rule="evenodd" d="M5.00004 2.70837C4.39225 2.70837 3.80936 2.94982 3.37959 3.37959C2.94982 3.80936 2.70837 4.39225 2.70837 5.00004V15C2.70837 15.6078 2.94982 16.1907 3.37959 16.6205C3.80936 17.0503 4.39225 17.2917 5.00004 17.2917H7.50004H15C15.6078 17.2917 16.1907 17.0503 16.6205 16.6205C17.0503 16.1907 17.2917 15.6078 17.2917 15V5.00004C17.2917 4.39225 17.0503 3.80936 16.6205 3.37959C16.1907 2.94982 15.6078 2.70837 15 2.70837H7.50004H5.00004ZM5.00004 3.95837C4.72377 3.95837 4.45882 4.06812 4.26347 4.26347C4.06812 4.45882 3.95837 4.72377 3.95837 5.00004V15C3.95837 15.2763 4.06812 15.5413 4.26347 15.7366C4.45882 15.932 4.72377 16.0417 5.00004 16.0417H6.87504V3.95837H5.00004ZM15 16.0417C15.2763 16.0417 15.5413 15.932 15.7366 15.7366C15.932 15.5413 16.0417 15.2763 16.0417 15V5.00004C16.0417 4.72377 15.932 4.45882 15.7366 4.26347C15.5413 4.06812 15.2763 3.95837 15 3.95837H8.12504V16.0417H15Z" fill="#171723"/>
</svg>
