<svg width="20" height="20" viewBox="0 0 20 20" fill="none" xmlns="http://www.w3.org/2000/svg">
<path fill-rule="evenodd" clip-rule="evenodd" d="M11.2248 7.89143C11.4688 7.64735 11.8646 7.64735 12.1086 7.89143L13.7753 9.5581C14.0194 9.80218 14.0194 10.1979 13.7753 10.442L12.1086 12.1087C11.8646 12.3527 11.4688 12.3527 11.2248 12.1087C10.9807 11.8646 10.9807 11.4688 11.2248 11.2248L12.4495 10L11.2248 8.77532C10.9807 8.53124 10.9807 8.13551 11.2248 7.89143Z" fill="#171723"/>
<path fill-rule="evenodd" clip-rule="evenodd" d="M5.00004 2.70837C4.39225 2.70837 3.80936 2.94982 3.37959 3.37959C2.94982 3.80936 2.70837 4.39225 2.70837 5.00004V15C2.70837 15.6078 2.94982 16.1907 3.37959 16.6205C3.80936 17.0503 4.39225 17.2917 5.00004 17.2917H7.50004H15C15.6078 17.2917 16.1907 17.0503 16.6205 16.6205C17.0503 16.1907 17.2917 15.6078 17.2917 15V5.00004C17.2917 4.39225 17.0503 3.80936 16.6205 3.37959C16.1907 2.94982 15.6078 2.70837 15 2.70837H7.50004H5.00004ZM5.00004 3.95837C4.72377 3.95837 4.45882 4.06812 4.26347 4.26347C4.06812 4.45882 3.95837 4.72377 3.95837 5.00004V15C3.95837 15.2763 4.06812 15.5413 4.26347 15.7366C4.45882 15.932 4.72377 16.0417 5.00004 16.0417H6.87504V3.95837H5.00004ZM15 16.0417C15.2763 16.0417 15.5413 15.932 15.7366 15.7366C15.932 15.5413 16.0417 15.2763 16.0417 15V5.00004C16.0417 4.72377 15.932 4.45882 15.7366 4.26347C15.5413 4.06812 15.2763 3.95837 15 3.95837H8.12504V16.0417H15Z" fill="#171723"/>
</svg>
