<svg width="20" height="20" viewBox="0 0 20 20" fill="none" xmlns="http://www.w3.org/2000/svg">
<path d="M12.865 15.1263L8.14328 9.8847L12.8483 4.88529C12.8935 4.83826 12.9296 4.78197 12.9546 4.71968C12.9796 4.65739 12.993 4.59034 12.994 4.5224C12.995 4.45446 12.9836 4.38697 12.9604 4.32385C12.9373 4.26073 12.9028 4.20322 12.859 4.15465C12.8153 4.10607 12.7631 4.06739 12.7054 4.04085C12.6478 4.01431 12.5859 4.00043 12.5234 4.00001C12.4608 3.99959 12.3987 4.01264 12.3408 4.03841C12.2829 4.06418 12.2303 4.10215 12.186 4.15014L7.14247 9.50916C7.098 9.55636 7.06253 9.61262 7.03809 9.67471C7.01365 9.7368 7.00072 9.80352 7.00003 9.87104C6.99934 9.93856 7.01092 10.0056 7.03409 10.0682C7.05726 10.1309 7.09157 10.188 7.13507 10.2362L12.1878 15.8453C12.2318 15.8945 12.2844 15.9335 12.3426 15.9601C12.4008 15.9866 12.4633 16.0002 12.5264 16C12.6196 16 12.7108 15.9701 12.7884 15.9141C12.8661 15.8581 12.9268 15.7785 12.9629 15.6852C12.9991 15.5919 13.0091 15.4891 12.9917 15.3897C12.9742 15.2902 12.9301 15.1986 12.865 15.1263Z" fill="#171723"/>
</svg>
