<svg width="20" height="20" viewBox="0 0 20 20" fill="none" xmlns="http://www.w3.org/2000/svg">
<g clip-path="url(#clip0_17708_32935)">
<path d="M13.9043 0C10.5428 0 7.80863 2.67603 7.80863 5.96541C7.80863 6.72975 7.95415 7.47457 8.2415 8.17827C8.24517 8.18682 8.24843 8.19252 8.2521 8.20147L0.705369 15.5865C0.635666 15.6549 0.599805 15.7391 0.57942 15.8262L0.570454 15.8258L0.0153002 18.954C-0.0376908 19.2316 0.0487243 19.5202 0.247224 19.7253C0.416381 19.9003 0.651568 20 0.91447 20C0.959306 20 1.00578 19.9967 1.05183 19.991L4.10069 19.4046L4.08683 19.3863C4.139 19.374 4.19158 19.3671 4.23968 19.324L5.9084 17.6907C5.94631 17.6532 5.95202 17.6028 5.96588 17.5556L5.99563 17.5238L5.99155 17.4941C5.99237 17.4807 5.98829 17.4709 5.98707 17.4575L5.89862 16.7525L6.56994 16.8685C6.88135 16.9223 7.18705 16.8315 7.41001 16.6207C7.63174 16.4099 7.73365 16.1144 7.6884 15.8099L7.54492 14.6931L8.31121 14.8751C8.62425 14.9495 8.95074 14.8702 9.18633 14.6634C9.41948 14.4583 9.53402 14.151 9.49244 13.8417L9.36894 12.7094L10.1752 13.0208L10.1952 13.0045C10.2991 13.0362 10.4108 13.0322 10.4931 12.9516L11.8908 11.5841C12.5295 11.8063 13.2053 11.9312 13.9043 11.9312C17.2654 11.9312 20 9.25519 20 5.96541C20 2.67603 17.2654 0 13.9043 0ZM13.9043 11.0049C13.1401 11.0049 12.4031 10.8376 11.7318 10.5287C11.7281 10.5336 11.7236 10.5385 11.72 10.5438C11.6315 10.5234 11.539 10.5299 11.4701 10.5975L10.1042 11.9345L9.70602 11.8441C9.37953 11.7228 9.02411 11.7737 8.75549 11.9813C8.49056 12.1868 8.3589 12.5079 8.40373 12.8409L8.53416 13.9748L7.76787 13.7932C7.45239 13.7188 7.12387 13.7993 6.88827 14.009C6.65431 14.2177 6.54222 14.5279 6.58827 14.8396L6.73419 15.9564L6.06287 15.8405C5.75798 15.7879 5.45554 15.8746 5.23381 16.0785C5.01289 16.2816 4.9061 16.5698 4.94034 16.8689L4.9864 17.1949L3.52556 18.6247L0.947886 19.1123L1.41051 16.2918C1.41337 16.289 1.41703 16.2885 1.41989 16.2857L9.17695 8.69433C9.33021 8.54414 9.36038 8.32274 9.27519 8.1404C9.27601 8.13796 9.27356 8.13267 9.27519 8.13104C9.20793 8.01179 9.17288 7.96254 9.1203 7.83434C8.87777 7.24053 8.75509 6.6113 8.75509 5.96539C8.75509 3.1868 11.0646 0.926318 13.9043 0.926318C16.7437 0.926318 19.0535 3.1868 19.0535 5.96539C19.0535 8.74439 16.7437 11.0049 13.9043 11.0049Z" fill="#171723"/>
<path d="M14.8838 2.85918C13.8032 2.85918 12.924 3.73708 12.924 4.81604C12.924 5.89501 13.8032 6.7729 14.8838 6.7729C15.9643 6.7729 16.8431 5.89501 16.8431 4.81604C16.8431 3.73708 15.9643 2.85918 14.8838 2.85918ZM14.8838 5.93936C14.2634 5.93936 13.7588 5.43549 13.7588 4.81603C13.7588 4.19657 14.2634 3.69271 14.8838 3.69271C15.5037 3.69271 16.0084 4.19657 16.0084 4.81603C16.0084 5.43549 15.5037 5.93936 14.8838 5.93936Z" fill="#171723"/>
</g>
<defs>
<clipPath id="clip0_17708_32935">
<rect width="20" height="20" fill="white"/>
</clipPath>
</defs>
</svg>
