<svg width="20" height="20" viewBox="0 0 20 20" fill="none" xmlns="http://www.w3.org/2000/svg">
<g clip-path="url(#clip0_10314_146461)">
<g clip-path="url(#clip1_10314_146461)">
<path d="M16.0517 4.66639C16.1454 4.57074 16.1976 4.44196 16.1969 4.30804C16.1963 4.17412 16.1428 4.04587 16.0481 3.95117C15.9534 3.85647 15.8251 3.80297 15.6912 3.80229C15.5573 3.80162 15.4285 3.85382 15.3328 3.94756L14.4071 4.87332C13.0755 3.72769 11.3517 3.14277 9.59787 3.24144C7.84404 3.34012 6.19672 4.11471 5.00202 5.40247C3.80731 6.69023 3.15823 8.39092 3.19113 10.1472C3.22404 11.9035 3.93638 13.5787 5.17848 14.8208C6.42059 16.0629 8.09577 16.7752 9.85206 16.8081C11.6084 16.841 13.309 16.192 14.5968 14.9973C15.8846 13.8026 16.6592 12.1552 16.7578 10.4014C16.8565 8.64758 16.2716 6.92377 15.126 5.59215L16.0517 4.66639ZM15.7518 9.99981C15.7543 11.3117 15.3091 12.5851 14.4898 13.6097C13.6705 14.6343 12.5261 15.3486 11.2458 15.6347C9.96551 15.9208 8.62592 15.7615 7.44842 15.1832C6.27092 14.6048 5.326 13.642 4.76981 12.4539C4.21362 11.2657 4.07946 9.9234 4.3895 8.64869C4.69954 7.37398 5.43523 6.24321 6.47497 5.44325C7.51471 4.64329 8.79628 4.22203 10.1079 4.24908C11.4195 4.27613 12.6826 4.74988 13.6884 5.59203L10.9384 8.34231C10.6532 8.17673 10.3296 8.08858 9.99971 8.08659C9.62128 8.08659 9.25135 8.19881 8.9367 8.40906C8.62205 8.6193 8.37681 8.91813 8.232 9.26775C8.08718 9.61737 8.04929 10.0021 8.12312 10.3732C8.19694 10.7444 8.37917 11.0853 8.64676 11.3529C8.91435 11.6205 9.25528 11.8027 9.62643 11.8766C9.99759 11.9504 10.3823 11.9125 10.7319 11.7677C11.0815 11.6229 11.3804 11.3776 11.5906 11.063C11.8009 10.7483 11.9131 10.3784 11.9131 9.99998C11.9111 9.67007 11.823 9.3464 11.6574 9.06106L14.4073 6.31079C15.2764 7.34349 15.7526 8.65008 15.7518 9.99981Z" fill="#171723"/>
<path d="M8.9833 1.07226C9.00288 1.07234 9.02246 1.07143 9.04195 1.06953C9.67976 0.999677 10.3232 0.998783 10.9612 1.06686C11.0948 1.07896 11.2279 1.03851 11.3321 0.954097C11.4363 0.869682 11.5035 0.747957 11.5194 0.614781C11.5266 0.548416 11.5205 0.481294 11.5017 0.417272C11.4828 0.35325 11.4514 0.29359 11.4094 0.24172C11.3674 0.18985 11.3156 0.146793 11.2569 0.115023C11.1982 0.083252 11.1338 0.0633943 11.0674 0.0565907C10.3574 -0.0192341 9.64141 -0.0186955 8.9316 0.0581972C8.80254 0.0722282 8.68372 0.13509 8.59952 0.233899C8.51531 0.332708 8.47208 0.459983 8.47869 0.589639C8.4853 0.719295 8.54124 0.841514 8.63506 0.931249C8.72888 1.02098 8.85347 1.07144 8.98329 1.07227L8.9833 1.07226Z" fill="#171723"/>
<path d="M4.65546 2.77671C4.67246 2.76703 4.68893 2.75647 4.70481 2.74506C5.22226 2.36569 5.77908 2.04318 6.36564 1.78312C6.48737 1.72681 6.58236 1.62525 6.63042 1.50003C6.67849 1.37481 6.67585 1.23578 6.62306 1.11247C6.59605 1.05143 6.55725 0.996329 6.50888 0.950329C6.46051 0.904328 6.40353 0.868338 6.34121 0.844424C6.27889 0.820511 6.21246 0.809146 6.14574 0.810983C6.07902 0.81282 6.01331 0.827821 5.9524 0.855127C5.29967 1.14439 4.67987 1.50288 4.10365 1.92442C3.9989 2.0011 3.92744 2.11495 3.90392 2.24262C3.88041 2.37029 3.90661 2.50212 3.97716 2.61109C4.04772 2.72007 4.15728 2.79793 4.28339 2.82872C4.40951 2.85952 4.54263 2.84091 4.65546 2.77671Z" fill="#171723"/>
<path d="M1.11656 6.62504C1.23072 6.67528 1.35935 6.68182 1.47802 6.64341C1.59668 6.605 1.69709 6.52433 1.76015 6.41672C1.77 6.39984 1.77897 6.38246 1.78704 6.36466C2.04553 5.77738 2.36651 5.21964 2.74443 4.7011C2.82172 4.59148 2.85321 4.45605 2.83223 4.32357C2.81124 4.1911 2.73943 4.07203 2.63205 3.99167C2.57814 3.9523 2.51699 3.92397 2.4521 3.90831C2.38721 3.89265 2.31987 3.88996 2.25394 3.9004C2.18801 3.91085 2.1248 3.93421 2.06793 3.96916C2.01106 4.00411 1.96165 4.04995 1.92255 4.10405C1.50193 4.68097 1.14441 5.30134 0.8561 5.95451C0.801759 6.07798 0.79867 6.21796 0.847511 6.3437C0.896352 6.46944 0.993126 6.57064 1.11656 6.62504Z" fill="#171723"/>
<path d="M1.07214 11.0169C1.07224 10.9974 1.07135 10.9778 1.06947 10.9583C0.999628 10.3205 0.998711 9.677 1.06674 9.039C1.07885 8.90543 1.03842 8.7724 0.95401 8.66817C0.869605 8.56394 0.747886 8.49673 0.614714 8.48081C0.548351 8.47367 0.481231 8.47972 0.41721 8.4986C0.353189 8.51747 0.293528 8.54881 0.241654 8.59082C0.189781 8.63282 0.146716 8.68465 0.114933 8.74335C0.0831507 8.80204 0.0632769 8.86644 0.0564531 8.93283C-0.0193745 9.64276 -0.018812 10.3588 0.0581308 11.0686C0.0721406 11.1977 0.134991 11.3165 0.233798 11.4007C0.332605 11.4849 0.459884 11.5282 0.589546 11.5216C0.719208 11.5149 0.84143 11.459 0.931159 11.3652C1.02089 11.2713 1.07133 11.1467 1.07214 11.0169V11.0169Z" fill="#171723"/>
<path d="M2.74486 15.2952C2.36549 14.7777 2.04296 14.2209 1.78286 13.6343C1.72655 13.5126 1.62501 13.4176 1.4998 13.3696C1.37459 13.3215 1.23557 13.3241 1.11228 13.3769C1.05123 13.4039 0.996125 13.4427 0.95012 13.4911C0.904115 13.5395 0.868119 13.5964 0.8442 13.6588C0.82028 13.7211 0.808908 13.7875 0.810737 13.8542C0.812566 13.921 0.82756 13.9867 0.854858 14.0476C1.14417 14.7003 1.50268 15.3201 1.92422 15.8964C2.00091 16.0011 2.11475 16.0726 2.24242 16.0961C2.37009 16.1196 2.50192 16.0934 2.6109 16.0229C2.71987 15.9523 2.79773 15.8427 2.82853 15.7166C2.85932 15.5905 2.84071 15.4574 2.77652 15.3446C2.76681 15.3276 2.75625 15.3111 2.74486 15.2952Z" fill="#171723"/>
<path d="M6.41663 18.24C6.39943 18.23 6.38268 18.2214 6.3645 18.213C5.77722 17.9546 5.2195 17.6337 4.701 17.2558C4.59137 17.1785 4.45592 17.147 4.32344 17.168C4.19096 17.189 4.07188 17.2608 3.9915 17.3681C3.95214 17.4221 3.92382 17.4832 3.90817 17.5481C3.89252 17.613 3.88984 17.6803 3.90029 17.7462C3.91074 17.8122 3.93411 17.8754 3.96906 17.9322C4.00401 17.9891 4.04985 18.0385 4.10395 18.0776C4.68084 18.4982 5.30119 18.8558 5.95437 19.1441C6.07315 19.1965 6.20747 19.2015 6.3298 19.158C6.45213 19.1145 6.5532 19.0259 6.61231 18.9104C6.67141 18.7948 6.68407 18.661 6.64769 18.5363C6.6113 18.4117 6.52864 18.3057 6.41663 18.2401V18.24Z" fill="#171723"/>
<path d="M11.0171 18.9277C10.9975 18.9276 10.9779 18.9285 10.9585 18.9304C10.3206 19.0003 9.67714 19.0012 9.03912 18.9331C8.90555 18.921 8.77253 18.9615 8.6683 19.0459C8.56408 19.1303 8.49686 19.252 8.48093 19.3852C8.4738 19.4515 8.47984 19.5187 8.49873 19.5827C8.51761 19.6467 8.54896 19.7063 8.59097 19.7582C8.63298 19.8101 8.68482 19.8531 8.74352 19.8849C8.80222 19.9167 8.86662 19.9365 8.93302 19.9434C9.64297 20.0192 10.359 20.0187 11.0688 19.9417C11.1979 19.9277 11.3167 19.8649 11.4009 19.766C11.4851 19.6672 11.5283 19.54 11.5217 19.4103C11.5151 19.2807 11.4591 19.1584 11.3653 19.0687C11.2715 18.979 11.1469 18.9286 11.0171 18.9277L11.0171 18.9277Z" fill="#171723"/>
<path d="M15.3447 17.2232C15.3277 17.2329 15.3112 17.2435 15.2953 17.2549C14.7778 17.6342 14.221 17.9568 13.6344 18.2169C13.5127 18.2732 13.4177 18.3747 13.3697 18.4999C13.3216 18.6251 13.3243 18.7642 13.3771 18.8874C13.4041 18.9485 13.4429 19.0036 13.4912 19.0496C13.5396 19.0956 13.5966 19.1316 13.6589 19.1555C13.7212 19.1794 13.7876 19.1908 13.8543 19.189C13.921 19.1871 13.9867 19.1721 14.0477 19.1448C14.7004 18.8555 15.3202 18.497 15.8965 18.0755C16.0012 17.9988 16.0727 17.885 16.0961 17.7573C16.1196 17.6296 16.0934 17.4978 16.0229 17.3889C15.9524 17.2799 15.8428 17.2021 15.7167 17.1713C15.5906 17.1405 15.4575 17.159 15.3447 17.2232Z" fill="#171723"/>
<path d="M18.8837 13.3749C18.7695 13.3246 18.6409 13.3181 18.5222 13.3565C18.4035 13.3949 18.3031 13.4756 18.2401 13.5832C18.2302 13.6001 18.2212 13.6175 18.2131 13.6353C17.9546 14.2226 17.6337 14.7803 17.2557 15.2988C17.1785 15.4085 17.147 15.5439 17.168 15.6764C17.189 15.8089 17.2608 15.9279 17.3682 16.0083C17.4221 16.0477 17.4832 16.076 17.5481 16.0916C17.613 16.1073 17.6803 16.11 17.7462 16.0995C17.8122 16.0891 17.8754 16.0657 17.9322 16.0308C17.9891 15.9958 18.0385 15.95 18.0776 15.8959C18.4983 15.319 18.8558 14.6986 19.144 14.0454C19.1984 13.922 19.2015 13.782 19.1527 13.6562C19.1039 13.5305 19.0071 13.4293 18.8837 13.3749Z" fill="#171723"/>
<path d="M19.9417 8.93136C19.9277 8.80231 19.8648 8.68353 19.766 8.59934C19.6672 8.51516 19.5399 8.47195 19.4103 8.47857C19.2807 8.48518 19.1585 8.54113 19.0687 8.63494C18.979 8.72875 18.9286 8.85332 18.9277 8.98312C18.9277 9.00268 18.9286 9.02223 18.9305 9.04169C19.0003 9.67951 19.0012 10.323 18.9331 10.961C18.921 11.0946 18.9615 11.2276 19.0459 11.3319C19.1303 11.4361 19.252 11.5033 19.3852 11.5193C19.4516 11.5264 19.5187 11.5203 19.5827 11.5014C19.6467 11.4825 19.7064 11.4512 19.7582 11.4092C19.8101 11.3672 19.8532 11.3153 19.8849 11.2566C19.9167 11.198 19.9366 11.1336 19.9434 11.0672C20.0192 10.3572 20.0187 9.64119 19.9417 8.93136Z" fill="#171723"/>
<path d="M17.2548 4.70479C17.6342 5.22222 17.9568 5.77905 18.2168 6.36563C18.2731 6.48735 18.3747 6.58232 18.4999 6.63039C18.6251 6.67845 18.7642 6.67581 18.8875 6.62304C18.9485 6.59602 19.0036 6.55722 19.0496 6.50885C19.0956 6.46048 19.1316 6.4035 19.1555 6.34119C19.1794 6.27887 19.1908 6.21244 19.1889 6.14572C19.1871 6.079 19.1721 6.01329 19.1448 5.95238C18.8555 5.29964 18.4971 4.67982 18.0755 4.10359C17.9988 3.99886 17.885 3.92742 17.7573 3.90392C17.6297 3.88041 17.4978 3.90662 17.3889 3.97717C17.2799 4.04771 17.2021 4.15726 17.1713 4.28336C17.1405 4.40946 17.1591 4.54257 17.2232 4.6554C17.2329 4.67239 17.2434 4.68888 17.2548 4.70479Z" fill="#171723"/>
<path d="M13.5835 1.75982C13.6003 1.76971 13.6177 1.77872 13.6355 1.78682C14.2228 2.04524 14.7805 2.36619 15.2991 2.74411C15.4087 2.82139 15.5441 2.85288 15.6766 2.8319C15.8091 2.81091 15.9281 2.7391 16.0085 2.63172C16.0479 2.57782 16.0762 2.51667 16.0919 2.45179C16.1075 2.3869 16.1102 2.31957 16.0998 2.25364C16.0893 2.18772 16.066 2.12451 16.031 2.06764C15.9961 2.01078 15.9502 1.96138 15.8961 1.92229C15.3192 1.50162 14.6989 1.14409 14.0457 0.855839C13.9269 0.803469 13.7926 0.798509 13.6703 0.841976C13.5479 0.885442 13.4469 0.974044 13.3878 1.08962C13.3287 1.2052 13.316 1.33901 13.3524 1.46361C13.3888 1.58822 13.4715 1.6942 13.5835 1.75982Z" fill="#171723"/>
</g>
</g>
<defs>
<clipPath id="clip0_10314_146461">
<rect width="20" height="20" fill="white"/>
</clipPath>
<clipPath id="clip1_10314_146461">
<rect width="20" height="20" fill="white"/>
</clipPath>
</defs>
</svg>
