<svg width="21" height="20" viewBox="0 0 21 20" fill="none" xmlns="http://www.w3.org/2000/svg">
<g clip-path="url(#clip0_10314_145368)">
<g clip-path="url(#clip1_10314_145368)">
<path d="M10.5302 3.91553C9.3267 3.91542 8.15018 4.27222 7.14945 4.94079C6.14872 5.60937 5.36872 6.55969 4.90811 7.67157C4.4475 8.78346 4.32695 10.007 4.56172 11.1874C4.79649 12.3678 5.37603 13.452 6.22704 14.303C7.07806 15.1541 8.16232 15.7336 9.34272 15.9684C10.5231 16.2031 11.7466 16.0826 12.8585 15.622C13.9704 15.1614 14.9207 14.3814 15.5893 13.3806C16.2579 12.3799 16.6147 11.2034 16.6146 9.99987C16.6126 8.3868 15.9709 6.84036 14.8303 5.69975C13.6897 4.55914 12.1433 3.91748 10.5302 3.91553V3.91553Z" fill="#171723"/>
<path d="M10.5298 2.5525C10.6001 2.55254 10.6697 2.53873 10.7346 2.51185C10.7996 2.48497 10.8586 2.44555 10.9083 2.39585C10.958 2.34614 10.9974 2.28713 11.0243 2.22218C11.0512 2.15724 11.065 2.08763 11.065 2.01734V0.535163C11.065 0.393229 11.0086 0.257108 10.9082 0.156745C10.8078 0.0563829 10.6717 0 10.5298 0C10.3879 0 10.2517 0.0563829 10.1514 0.156745C10.051 0.257108 9.99463 0.393229 9.99463 0.535163V2.01734C9.99459 2.08763 10.0084 2.15724 10.0353 2.22218C10.0622 2.28713 10.1016 2.34614 10.1513 2.39585C10.201 2.44555 10.26 2.48497 10.3249 2.51185C10.3899 2.53873 10.4595 2.55254 10.5298 2.5525V2.5525Z" fill="#171723"/>
<path d="M4.5066 4.73386C4.60729 4.83254 4.74286 4.8875 4.88384 4.88678C5.02482 4.88607 5.15983 4.82975 5.25952 4.73006C5.35921 4.63037 5.41553 4.49537 5.41624 4.35438C5.41695 4.2134 5.362 4.07784 5.26332 3.97714L4.216 2.92876C4.16663 2.87765 4.10758 2.83688 4.04229 2.80883C3.97699 2.78078 3.90677 2.76602 3.83571 2.7654C3.76465 2.76478 3.69418 2.77832 3.62841 2.80523C3.56264 2.83214 3.50289 2.87188 3.45264 2.92213C3.4024 2.97237 3.36266 3.03213 3.33575 3.0979C3.30884 3.16367 3.2953 3.23414 3.29592 3.30519C3.29654 3.37625 3.3113 3.44648 3.33935 3.51177C3.36739 3.57706 3.40816 3.63611 3.45928 3.68548L4.5066 4.73386Z" fill="#171723"/>
<path d="M2.54604 9.46472H1.06495C0.923014 9.46472 0.786893 9.52111 0.68653 9.62147C0.586168 9.72183 0.529785 9.85795 0.529785 9.99988C0.529785 10.1418 0.586168 10.2779 0.68653 10.3783C0.786893 10.4787 0.923014 10.535 1.06495 10.535H2.54604C2.68798 10.535 2.8241 10.4787 2.92446 10.3783C3.02482 10.2779 3.0812 10.1418 3.0812 9.99988C3.0812 9.85795 3.02482 9.72183 2.92446 9.62147C2.8241 9.52111 2.68798 9.46472 2.54604 9.46472Z" fill="#171723"/>
<path d="M4.50661 15.2668L3.45928 16.3141C3.40816 16.3635 3.36739 16.4225 3.33935 16.4878C3.3113 16.5531 3.29654 16.6233 3.29592 16.6944C3.2953 16.7655 3.30884 16.8359 3.33575 16.9017C3.36266 16.9675 3.4024 17.0272 3.45264 17.0775C3.50289 17.1277 3.56264 17.1674 3.62841 17.1944C3.69418 17.2213 3.76465 17.2348 3.83571 17.2342C3.90677 17.2336 3.97699 17.2188 4.04229 17.1908C4.10758 17.1627 4.16663 17.1219 4.216 17.0708L5.26332 16.0235C5.31383 15.974 5.35403 15.915 5.38159 15.8498C5.40915 15.7847 5.42353 15.7147 5.42389 15.644C5.42424 15.5733 5.41058 15.5032 5.38368 15.4378C5.35677 15.3724 5.31717 15.3129 5.26716 15.2629C5.21715 15.2129 5.15772 15.1733 5.09231 15.1464C5.0269 15.1195 4.95681 15.1059 4.88608 15.1062C4.81536 15.1066 4.7454 15.1209 4.68027 15.1485C4.61513 15.1761 4.5561 15.2163 4.5066 15.2668L4.50661 15.2668Z" fill="#171723"/>
<path d="M10.5298 17.4482C10.4595 17.4482 10.3899 17.462 10.3249 17.4889C10.26 17.5158 10.201 17.5552 10.1513 17.6049C10.1016 17.6546 10.0622 17.7136 10.0353 17.7786C10.0084 17.8435 9.99459 17.9131 9.99463 17.9834V19.4645C9.99463 19.6064 10.051 19.7426 10.1514 19.8429C10.2517 19.9433 10.3879 19.9997 10.5298 19.9997C10.6717 19.9997 10.8078 19.9433 10.9082 19.8429C11.0086 19.7426 11.065 19.6064 11.065 19.4645V17.9834C11.065 17.9131 11.0512 17.8435 11.0243 17.7786C10.9974 17.7136 10.958 17.6546 10.9083 17.6049C10.8586 17.5552 10.7996 17.5158 10.7346 17.4889C10.6697 17.462 10.6001 17.4482 10.5298 17.4482Z" fill="#171723"/>
<path d="M16.5525 15.2668C16.503 15.2163 16.444 15.1761 16.3789 15.1485C16.3137 15.1209 16.2438 15.1066 16.1731 15.1062C16.1023 15.1059 16.0322 15.1195 15.9668 15.1464C15.9014 15.1733 15.842 15.2129 15.792 15.2629C15.742 15.3129 15.7024 15.3724 15.6755 15.4378C15.6486 15.5032 15.6349 15.5733 15.6353 15.644C15.6356 15.7147 15.65 15.7847 15.6776 15.8498C15.7051 15.915 15.7453 15.974 15.7958 16.0235L16.8442 17.0708C16.9449 17.1695 17.0805 17.2245 17.2214 17.2237C17.3624 17.223 17.4974 17.1667 17.5971 17.067C17.6968 16.9673 17.7531 16.8323 17.7538 16.6913C17.7546 16.5504 17.6996 16.4148 17.6009 16.3141L16.5525 15.2668Z" fill="#171723"/>
<path d="M19.9943 9.46472H18.5122C18.3703 9.46472 18.2342 9.52111 18.1338 9.62147C18.0334 9.72183 17.9771 9.85795 17.9771 9.99988C17.9771 10.1418 18.0334 10.2779 18.1338 10.3783C18.2342 10.4787 18.3703 10.535 18.5122 10.535H19.9943C20.1362 10.535 20.2724 10.4787 20.3727 10.3783C20.4731 10.2779 20.5295 10.1418 20.5295 9.99988C20.5295 9.85795 20.4731 9.72183 20.3727 9.62147C20.2724 9.52111 20.1362 9.46472 19.9943 9.46472Z" fill="#171723"/>
<path d="M16.8442 2.9288L15.7958 3.97718C15.7453 4.02668 15.7051 4.08571 15.6776 4.15084C15.65 4.21598 15.6356 4.28593 15.6353 4.35666C15.6349 4.42738 15.6486 4.49748 15.6755 4.56289C15.7024 4.6283 15.742 4.68773 15.792 4.73774C15.842 4.78775 15.9014 4.82735 15.9668 4.85425C16.0322 4.88115 16.1023 4.89482 16.1731 4.89446C16.2438 4.89411 16.3137 4.87973 16.3789 4.85217C16.444 4.82461 16.503 4.78441 16.5525 4.7339L17.6009 3.68553C17.6996 3.58483 17.7546 3.44927 17.7538 3.30829C17.7531 3.1673 17.6968 3.0323 17.5971 2.93261C17.4974 2.83292 17.3624 2.7766 17.2214 2.77589C17.0805 2.77517 16.9449 2.83013 16.8442 2.92881V2.9288Z" fill="#171723"/>
</g>
</g>
<defs>
<clipPath id="clip0_10314_145368">
<rect width="20" height="20" fill="white" transform="translate(0.529785)"/>
</clipPath>
<clipPath id="clip1_10314_145368">
<rect width="20" height="20" fill="white" transform="translate(0.529785)"/>
</clipPath>
</defs>
</svg>
