<svg width="20" height="20" viewBox="0 0 20 20" fill="none" xmlns="http://www.w3.org/2000/svg">
<g clip-path="url(#clip0_10995_130589)">
<g clip-path="url(#clip1_10995_130589)">
<path d="M0.857259 20C0.687702 20 0.521958 19.9497 0.380985 19.8554C0.240011 19.7612 0.130138 19.6273 0.0652558 19.4707C0.00037349 19.314 -0.0166042 19.1416 0.0164694 18.9753C0.0495431 18.809 0.131183 18.6562 0.251067 18.5363L18.5426 0.245025C18.704 0.0869195 18.9212 -0.00112992 19.147 1.095e-05C19.3729 0.00115182 19.5892 0.0913909 19.7489 0.251118C19.9086 0.410846 19.9988 0.627155 20 0.853041C20.0011 1.07893 19.9131 1.29614 19.755 1.45747L1.46343 19.7488C1.38392 19.8285 1.28944 19.8918 1.18541 19.9349C1.08138 19.978 0.969864 20.0001 0.857259 20V20Z" fill="#171723"/>
</g>
</g>
<defs>
<clipPath id="clip0_10995_130589">
<rect width="20" height="20" fill="white"/>
</clipPath>
<clipPath id="clip1_10995_130589">
<rect width="20" height="20" fill="white"/>
</clipPath>
</defs>
</svg>
