<svg width="20" height="20" viewBox="0 0 20 20" fill="none" xmlns="http://www.w3.org/2000/svg">
<g clip-path="url(#clip0_10314_145178)">
<g clip-path="url(#clip1_10314_145178)">
<path d="M12.1892 13C12.0664 13 11.9437 12.9961 11.821 12.9875C11.0907 12.9338 10.3803 12.7236 9.73745 12.3709C9.09472 12.0189 8.53536 11.5311 8.09785 10.9408C8.01984 10.8359 7.98645 10.7041 8.00502 10.5743C8.02358 10.4446 8.09259 10.3277 8.19685 10.2492C8.30111 10.1707 8.43209 10.1371 8.56097 10.1557C8.68986 10.1744 8.80608 10.2439 8.88409 10.3488C9.23802 10.8251 9.68965 11.2192 10.2083 11.5044C10.727 11.7895 11.3006 11.959 11.8901 12.0013C12.4798 12.0467 13.0723 11.9611 13.6255 11.7504C14.1786 11.5418 14.6811 11.2168 15.0993 10.797L17.8674 8.01113C18.6161 7.22785 19.0294 6.18011 19.0184 5.0933C19.0074 4.00648 18.5729 2.96745 17.8085 2.19971C17.0441 1.43196 16.0107 0.996865 14.9308 0.988009C13.8509 0.979152 12.8107 1.39725 12.0339 2.15235L10.4518 3.7349C10.3591 3.82523 10.2347 3.87519 10.1057 3.87396C9.97661 3.87272 9.85323 3.8204 9.76223 3.7283C9.67123 3.63621 9.61992 3.51175 9.61941 3.38187C9.6189 3.25199 9.66923 3.12713 9.7595 3.03432L11.3464 1.44647C12.2964 0.516809 13.5699 -0.00228319 14.895 7.54961e-06H14.9401C15.9381 0.00848832 16.9118 0.311335 17.7406 0.871061C18.5693 1.43079 19.2168 2.22282 19.6028 3.14911C19.9889 4.07541 20.0965 5.0953 19.9125 6.08255C19.7284 7.06979 19.2607 7.98105 18.5673 8.70351L15.7934 11.4956C15.2755 12.0153 14.6535 12.418 13.9688 12.6767C13.3996 12.8908 12.7968 13.0003 12.1892 13Z" fill="#171723"/>
<path d="M5.10507 20H5.06C4.06191 19.9914 3.08822 19.6885 2.25945 19.1287C1.43067 18.569 0.783194 17.7769 0.397155 16.8505C0.011117 15.9242 -0.096535 14.9042 0.0875236 13.9169C0.271582 12.9296 0.739271 12.0183 1.4327 11.2958L4.20664 8.50459C4.72404 7.98382 5.34666 7.58112 6.03229 7.32379C6.71791 7.06645 7.4505 6.96051 8.18038 7.01313C8.91026 7.06576 9.62037 7.27572 10.2625 7.62879C10.9047 7.98186 11.4639 8.46978 11.9023 9.05945C11.9409 9.11141 11.9689 9.17051 11.9848 9.23337C12.0007 9.29624 12.0042 9.36164 11.995 9.42584C11.9857 9.49005 11.9641 9.5518 11.9311 9.60756C11.8982 9.66333 11.8547 9.71202 11.8031 9.75087C11.7514 9.78971 11.6927 9.81793 11.6302 9.83393C11.5678 9.84993 11.5028 9.8534 11.439 9.84412C11.3752 9.83485 11.3138 9.81302 11.2584 9.77988C11.203 9.74674 11.1546 9.70294 11.116 9.65099C10.7621 9.17468 10.3104 8.78057 9.79181 8.49537C9.27318 8.21017 8.69967 8.04056 8.11018 7.99805C7.52069 7.95553 6.929 8.04111 6.37526 8.24897C5.82152 8.45683 5.31868 8.78211 4.90084 9.20276L2.13267 11.9887C1.57456 12.5729 1.19871 13.3088 1.05152 14.1055C0.904337 14.9023 0.992266 15.725 1.30445 16.472C1.61663 17.219 2.1394 17.8576 2.80818 18.309C3.47696 18.7604 4.26246 19.0047 5.06767 19.0118C6.14558 19.008 7.18174 18.592 7.96625 17.8481L9.53873 16.2665C9.6311 16.1754 9.75546 16.1246 9.88479 16.1253C10.0141 16.1259 10.138 16.1779 10.2294 16.27C10.3209 16.362 10.3725 16.4867 10.3732 16.6168C10.3738 16.747 10.3234 16.8721 10.2329 16.9651L8.65464 18.5525C7.70461 19.4829 6.43066 20.0024 5.10507 20Z" fill="#171723"/>
</g>
</g>
<defs>
<clipPath id="clip0_10314_145178">
<rect width="20" height="20" fill="white"/>
</clipPath>
<clipPath id="clip1_10314_145178">
<rect width="20" height="20" fill="white"/>
</clipPath>
</defs>
</svg>
