<svg width="20" height="20" viewBox="0 0 20 20" fill="none" xmlns="http://www.w3.org/2000/svg">
<path d="M9.16667 4.37499C9.51185 4.37499 9.79167 4.65482 9.79167 4.99999C9.79167 5.34517 9.51185 5.62499 9.16667 5.62499H3.33334C2.98816 5.62499 2.70834 5.34517 2.70834 4.99999C2.70834 4.65482 2.98816 4.37499 3.33334 4.37499H9.16667Z" fill="#171723"/>
<path d="M9.16667 9.37499C9.51185 9.37499 9.79167 9.65482 9.79167 9.99999C9.79167 10.3452 9.51185 10.625 9.16667 10.625H3.33334C2.98816 10.625 2.70834 10.3452 2.70834 9.99999C2.70834 9.65482 2.98816 9.37499 3.33334 9.37499H9.16667Z" fill="#171723"/>
<path d="M10.8333 14.375C11.1785 14.375 11.4583 14.6548 11.4583 15C11.4583 15.3452 11.1785 15.625 10.8333 15.625H3.33334C2.98816 15.625 2.70834 15.3452 2.70834 15C2.70834 14.6548 2.98816 14.375 3.33334 14.375H10.8333Z" fill="#171723"/>
<path fill-rule="evenodd" clip-rule="evenodd" d="M14.6053 4.51497C14.7445 4.40144 14.9212 4.35695 15.0898 4.3814C15.0605 4.37718 15.0305 4.37499 15 4.37499C14.8483 4.37499 14.7092 4.42905 14.6009 4.51895L14.6053 4.51497ZM14.6009 4.51895L14.5581 4.5581L14.5516 4.56458C14.5672 4.54851 14.5837 4.53328 14.6009 4.51895ZM15.4484 4.56458C15.3545 4.46793 15.2296 4.40153 15.0898 4.3814C15.2187 4.40008 15.3428 4.459 15.4419 4.5581L15.4484 4.56458Z" fill="#171723"/>
<path d="M17.9419 7.94189C18.186 7.69781 18.186 7.30218 17.9419 7.0581L15.4484 4.56458L15.4419 4.5581C15.3428 4.459 15.2187 4.40008 15.0898 4.3814C15.0605 4.37718 15.0305 4.37499 15 4.37499C14.8483 4.37499 14.7092 4.42905 14.6009 4.51895L14.5581 4.5581L14.5516 4.56458L12.0581 7.0581C11.814 7.30218 11.814 7.69781 12.0581 7.94189C12.3022 8.18597 12.6978 8.18597 12.9419 7.94189L14.375 6.50878V15C14.375 15.3452 14.6548 15.625 15 15.625C15.3452 15.625 15.625 15.3452 15.625 15V6.50878L17.0581 7.94189C17.3022 8.18597 17.6978 8.18597 17.9419 7.94189Z" fill="#171723"/>
</svg>
