<svg width="20" height="20" viewBox="0 0 20 20" fill="none" xmlns="http://www.w3.org/2000/svg">
<path d="M10.8333 4.375C11.1785 4.375 11.4583 4.65482 11.4583 5C11.4583 5.34518 11.1785 5.625 10.8333 5.625H3.33333C2.98815 5.625 2.70833 5.34518 2.70833 5C2.70833 4.65482 2.98815 4.375 3.33333 4.375H10.8333Z" fill="#171723"/>
<path d="M9.16666 9.375C9.51184 9.375 9.79166 9.65482 9.79166 10C9.79166 10.3452 9.51184 10.625 9.16666 10.625H3.33333C2.98815 10.625 2.70833 10.3452 2.70833 10C2.70833 9.65482 2.98815 9.375 3.33333 9.375H9.16666Z" fill="#171723"/>
<path d="M9.16666 14.375C9.51184 14.375 9.79166 14.6548 9.79166 15C9.79166 15.3452 9.51184 15.625 9.16666 15.625H3.33333C2.98815 15.625 2.70833 15.3452 2.70833 15C2.70833 14.6548 2.98815 14.375 3.33333 14.375H9.16666Z" fill="#171723"/>
<path fill-rule="evenodd" clip-rule="evenodd" d="M14.5516 15.4354C14.6652 15.5524 14.8241 15.625 15 15.625C15.1758 15.625 15.3348 15.5524 15.4483 15.4354L15.4419 15.4419C15.1978 15.686 14.8022 15.686 14.5581 15.4419L14.5516 15.4354Z" fill="#171723"/>
<path d="M17.9419 12.0581C17.6978 11.814 17.3022 11.814 17.0581 12.0581L15.625 13.4912V5C15.625 4.65482 15.3451 4.375 15 4.375C14.6548 4.375 14.375 4.65482 14.375 5V13.4912L12.9419 12.0581C12.6978 11.814 12.3022 11.814 12.0581 12.0581C11.814 12.3022 11.814 12.6978 12.0581 12.9419L14.5516 15.4354L14.5581 15.4419C14.8022 15.686 15.1978 15.686 15.4419 15.4419L15.4483 15.4354L17.9419 12.9419C18.1859 12.6978 18.1859 12.3022 17.9419 12.0581Z" fill="#171723"/>
</svg>
