<svg width="20" height="20" viewBox="0 0 20 20" fill="none" xmlns="http://www.w3.org/2000/svg">
<path fill-rule="evenodd" clip-rule="evenodd" d="M2.70837 5C2.70837 4.65482 2.9882 4.375 3.33337 4.375H16.6667C17.0119 4.375 17.2917 4.65482 17.2917 5C17.2917 5.34518 17.0119 5.625 16.6667 5.625H3.33337C2.9882 5.625 2.70837 5.34518 2.70837 5Z" fill="#171723"/>
<path fill-rule="evenodd" clip-rule="evenodd" d="M2.70837 10C2.70837 9.65482 2.9882 9.375 3.33337 9.375H6.66671C7.01189 9.375 7.29171 9.65482 7.29171 10C7.29171 10.3452 7.01189 10.625 6.66671 10.625H3.33337C2.9882 10.625 2.70837 10.3452 2.70837 10Z" fill="#171723"/>
<path fill-rule="evenodd" clip-rule="evenodd" d="M2.70837 15C2.70837 14.6548 2.9882 14.375 3.33337 14.375H6.66671C7.01189 14.375 7.29171 14.6548 7.29171 15C7.29171 15.3452 7.01189 15.625 6.66671 15.625H3.33337C2.9882 15.625 2.70837 15.3452 2.70837 15Z" fill="#171723"/>
<path fill-rule="evenodd" clip-rule="evenodd" d="M12.5 8.54167C11.4502 8.54167 10.4434 8.9587 9.70108 9.70104C8.95874 10.4434 8.54171 11.4502 8.54171 12.5C8.54171 13.5498 8.95874 14.5566 9.70108 15.299C10.4434 16.0413 11.4502 16.4583 12.5 16.4583C13.3516 16.4583 14.1749 16.1839 14.8516 15.6841C14.8815 15.7472 14.9225 15.8064 14.9748 15.8586L17.0581 17.9419C17.3022 18.186 17.6979 18.186 17.942 17.9419C18.1861 17.6979 18.1861 17.3021 17.942 17.0581L15.8586 14.9747C15.8064 14.9225 15.7473 14.8815 15.6841 14.8516C16.184 14.1748 16.4584 13.3516 16.4584 12.5C16.4584 11.4502 16.0413 10.4434 15.299 9.70104C14.5567 8.9587 13.5499 8.54167 12.5 8.54167ZM12.5 9.79167C11.7817 9.79167 11.0929 10.077 10.585 10.5849C10.077 11.0928 9.79171 11.7817 9.79171 12.5C9.79171 13.2183 10.077 13.9072 10.585 14.4151C11.0929 14.923 11.7817 15.2083 12.5 15.2083C13.2183 15.2083 13.9072 14.923 14.4151 14.4151C14.923 13.9072 15.2084 13.2183 15.2084 12.5C15.2084 11.7817 14.923 11.0928 14.4151 10.5849C13.9072 10.077 13.2183 9.79167 12.5 9.79167Z" fill="#171723"/>
</svg>
