<svg width="20" height="20" viewBox="0 0 20 20" fill="none" xmlns="http://www.w3.org/2000/svg">
<g clip-path="url(#clip0_5313_35035)">
<g clip-path="url(#clip1_5313_35035)">
<path d="M16.4932 0H6.50781C5.57779 0.00101378 4.68616 0.370911 4.02853 1.02853C3.37091 1.68616 3.00101 2.57779 3 3.50781V13.4927C3.00103 14.4226 3.37095 15.3142 4.02858 15.9718C4.68621 16.6293 5.57784 16.9991 6.50781 17H16.4932C17.423 16.9989 18.3144 16.629 18.9718 15.9715C19.6293 15.314 19.999 14.4225 20 13.4927V3.50781C19.999 2.57794 19.6293 1.68642 18.9719 1.02881C18.3144 0.371208 17.423 0.00121499 16.4932 0ZM19 13.4927C18.9992 14.1573 18.7349 14.7945 18.2649 15.2646C17.795 15.7346 17.1578 15.9991 16.4932 16H6.50781C5.843 15.9993 5.20563 15.7349 4.73549 15.2648C4.26536 14.7948 4.00085 14.1575 4 13.4927V3.50781C4.00075 2.84293 4.26521 2.20549 4.73535 1.73535C5.20549 1.26521 5.84293 1.00075 6.50781 1H16.4932C17.1579 1.00096 17.7951 1.26551 18.2651 1.73563C18.735 2.20576 18.9993 2.84308 19 3.50781V13.4927Z" fill="#171723"/>
<path d="M14.5637 8.28772H11.6462V5.37065C11.6462 5.26014 11.6023 5.15416 11.5241 5.07602C11.446 4.99788 11.34 4.95398 11.2295 4.95398C11.119 4.95398 11.013 4.99788 10.9349 5.07602C10.8567 5.15416 10.8128 5.26014 10.8128 5.37065V8.28772H7.89616C7.78565 8.28772 7.67967 8.33162 7.60153 8.40976C7.52339 8.4879 7.47949 8.59388 7.47949 8.70439C7.47949 8.81489 7.52339 8.92088 7.60153 8.99902C7.67967 9.07716 7.78565 9.12105 7.89616 9.12105H10.8128V12.0381C10.8128 12.1486 10.8567 12.2546 10.9349 12.3327C11.013 12.4109 11.119 12.4548 11.2295 12.4548C11.34 12.4548 11.446 12.4109 11.5241 12.3327C11.6023 12.2546 11.6462 12.1486 11.6462 12.0381V9.12105H14.5637C14.6742 9.12105 14.7801 9.07716 14.8583 8.99902C14.9364 8.92088 14.9803 8.81489 14.9803 8.70439C14.9803 8.59388 14.9364 8.4879 14.8583 8.40976C14.7801 8.33162 14.6742 8.28772 14.5637 8.28772Z" fill="#171723"/>
<path d="M14.4767 18.9535H5.85302C4.57865 18.9519 3.35693 18.445 2.45586 17.5439C1.55479 16.6427 1.04796 15.421 1.04654 14.1467V5.52325C1.04654 5.38448 0.991406 5.25138 0.893274 5.15326C0.795142 5.05513 0.662047 5 0.523268 5C0.384489 5 0.251393 5.05513 0.153261 5.15326C0.0551297 5.25138 0 5.38448 0 5.52325V14.1467C0.00169505 15.6984 0.618879 17.1862 1.71615 18.2835C2.81342 19.3809 4.30118 19.9982 5.85302 20H14.4767C14.6155 20 14.7486 19.9449 14.8467 19.8467C14.9449 19.7486 15 19.6155 15 19.4768C15 19.338 14.9449 19.2049 14.8467 19.1068C14.7486 19.0086 14.6155 18.9535 14.4767 18.9535Z" fill="#171723"/>
</g>
</g>
<defs>
<clipPath id="clip0_5313_35035">
<rect width="20" height="20" fill="white"/>
</clipPath>
<clipPath id="clip1_5313_35035">
<rect width="20" height="20" fill="white"/>
</clipPath>
</defs>
</svg>
