<svg width="20" height="20" viewBox="0 0 20 20" fill="none" xmlns="http://www.w3.org/2000/svg">
<path fill-rule="evenodd" clip-rule="evenodd" d="M4.75198 1H15.248C17.3202 1 19 2.67982 19 4.75198V15.248C19 17.3202 17.3202 19 15.248 19H4.75198C2.67982 19 1 17.3202 1 15.248V4.75198C1 2.67982 2.67982 1 4.75198 1ZM12.7872 14.3327L12.6646 14.1963C12.3767 13.8816 12.2339 13.5181 12.3473 13.0364C11.257 13.3899 10.2099 13.4699 9.12864 13.2226C9.11979 13.3237 9.1126 13.422 9.10555 13.5183L9.10555 13.5183L9.10555 13.5184C9.09004 13.7304 9.07525 13.9325 9.0451 14.1324C9.00987 14.366 8.96242 14.5978 8.91497 14.8297L8.91496 14.8297L8.91495 14.8297C8.89015 14.9509 8.86535 15.0721 8.84229 15.1935L8.83483 15.2324C8.81363 15.3428 8.79231 15.4538 8.78541 15.5654C8.77742 15.6948 8.77322 15.8246 8.76902 15.9543C8.76116 16.197 8.7533 16.4395 8.72072 16.6788C8.70284 16.81 8.63775 16.9348 8.57533 17.0545C8.54791 17.107 8.52101 17.1586 8.49885 17.2093H7.68937L7.69374 17.1992L7.82298 16.8474L7.95229 16.7175L7.94947 16.7203L8.01572 16.6539L8.13489 16.6401C8.14067 16.5417 8.14312 16.5106 8.14434 16.495L8.14517 16.4838C8.14565 16.4762 8.14583 16.4685 8.14645 16.4433C8.1551 16.0921 8.14999 15.7399 8.13114 15.3891C8.12635 15.3007 8.09744 15.2137 8.06852 15.1266L8.06852 15.1266L8.06851 15.1266C8.05529 15.0868 8.04206 15.047 8.03114 15.007L7.95864 15.0089L7.57145 16.4058L7.57718 16.4033C7.53099 16.487 7.4754 16.6101 7.41981 16.7332C7.36421 16.8563 7.3086 16.9794 7.26239 17.0632C7.19884 17.069 7.07134 17.0655 6.92468 17.0614H6.9246H6.92453C6.80608 17.0581 6.67513 17.0545 6.55531 17.0552C6.57718 16.834 6.65927 16.718 6.79874 16.5928C7.09864 16.3237 7.17937 15.9288 7.17822 15.5506C7.17713 15.1807 7.1422 14.8109 7.10727 14.4411L7.10727 14.4411C7.09233 14.283 7.07739 14.1248 7.0651 13.9667L7.05052 13.1308L7.04999 12.7441L6.92229 12.4872L6.5727 12.2474C5.85822 11.7842 5.39208 11.176 5.4377 10.277C5.45416 9.95345 5.39677 9.65939 5.26468 9.35512C5.1598 9.11327 5.14233 8.82618 5.12576 8.55393L5.12333 8.51418C5.11231 8.3356 5.07714 8.16493 5.04167 7.99282C4.99799 7.78083 4.95385 7.56665 4.95385 7.33283C4.95385 6.90918 5.05552 6.06731 5.05552 6.06731L5.08497 5.95824C5.11093 5.86185 5.13689 5.76548 5.16427 5.66949C5.19384 5.56576 5.22476 5.46239 5.25583 5.35854L5.29458 5.22866C5.2003 5.19134 5.10976 5.15723 5.02229 5.12427C4.8319 5.05252 4.65604 4.98626 4.48781 4.90439C4.25187 4.7896 4.10447 4.60074 4.14343 4.31241C4.17322 4.09158 4.29166 3.96689 4.51333 3.94126C4.54888 3.93711 4.58498 3.93731 4.62106 3.9375H4.62106H4.62106C4.66015 3.93772 4.6992 3.93793 4.73749 3.93262C5.11541 3.88012 5.27656 3.69168 5.25687 3.31647C5.25021 3.19009 5.23644 3.06413 5.22004 2.91416L5.22004 2.91411L5.22003 2.914C5.21181 2.8388 5.20292 2.75756 5.19395 2.6672L5.75072 3.06845L5.77427 2.66345C6.32489 2.88345 6.68833 3.26949 6.93583 3.76908C7.29322 4.49043 7.40947 5.26918 7.44822 6.06366L7.63531 7.88824L7.69406 7.94147L9.1726 7.94564L9.37551 7.9446L9.52041 7.97439L9.63343 7.97126L9.81999 7.97116L10.2681 7.97272L11.0425 8.00647C11.8017 8.08647 12.5265 8.27137 13.2069 8.63585C13.3494 8.7122 13.5169 8.74207 13.6844 8.77195C13.7611 8.78564 13.8379 8.79934 13.9123 8.81751C13.9849 8.79843 14.0572 8.77747 14.1295 8.7565C14.2906 8.70981 14.4516 8.66311 14.6159 8.63731C14.9753 8.58074 15.265 8.73751 15.4788 9.01679C15.7772 9.40647 15.8665 9.86585 15.836 10.3421C15.8108 10.7364 15.6197 11.0293 15.1705 11.1196C15.167 11.1835 15.163 11.2474 15.159 11.3112L15.159 11.3113L15.159 11.3113C15.1319 11.7431 15.105 12.1714 15.2332 12.5797C15.3298 12.8876 15.335 13.1927 15.3402 13.4998V13.4999C15.3416 13.582 15.343 13.6643 15.3461 13.7468C15.3497 13.8404 15.3634 13.9336 15.3771 14.0269C15.3833 14.0693 15.3895 14.1117 15.3948 14.1542C15.5743 14.6376 15.646 15.1164 15.376 15.598C15.3415 15.6598 15.3566 15.7551 15.37 15.8394L15.3755 15.875C15.4441 16.3377 15.3805 16.78 15.1951 17.2328C15.1384 17.2328 15.0823 17.2332 15.0267 17.2336H15.0264C14.8658 17.2347 14.709 17.2358 14.5527 17.2274C14.5271 17.226 14.5033 17.1918 14.4794 17.1574C14.4683 17.1415 14.4572 17.1255 14.4459 17.1128L14.5138 17.0532C14.5346 17.0313 14.5553 17.0092 14.576 16.9871L14.5927 16.9747L14.648 16.9333C14.6593 16.9224 14.6736 16.9116 14.6879 16.9009C14.7186 16.8777 14.7494 16.8545 14.751 16.8294L14.759 16.7045C14.7831 16.3317 14.8072 15.9583 14.8049 15.5854C14.8044 15.5053 14.7552 15.4255 14.706 15.3456L14.706 15.3456L14.706 15.3456C14.6834 15.309 14.6609 15.2724 14.643 15.2358C14.638 15.2191 14.6341 15.2021 14.631 15.1849L14.5971 15.1623L14.3968 15.0289L14.3331 14.9676L14.2691 14.9033L14.2079 14.8394L13.868 14.4189L13.8679 14.415L13.8664 14.4169L13.868 14.4189C13.8775 15.1465 13.6811 15.7992 13.1843 16.3501C13.1283 16.4121 13.1092 16.5195 13.1001 16.6087C13.0906 16.7019 13.0926 16.7963 13.0947 16.8963V16.8963V16.8963L13.0947 16.8964C13.0956 16.9403 13.0966 16.9853 13.0966 17.0317H12.3441L12.3961 16.7317L12.6599 16.5486C12.9892 16.1038 13.1568 15.6064 13.1486 15.0514C13.1448 15.0358 13.1429 15.0202 13.1432 15.0042L13.0983 14.9193L12.7872 14.3327Z" fill="black"/>
</svg>
