<svg width="20" height="20" viewBox="0 0 20 20" fill="none" xmlns="http://www.w3.org/2000/svg">
<path d="M15.248 1H4.75198C2.67982 1 1 2.67982 1 4.75198V15.248C1 17.3202 2.67982 19 4.75198 19H15.248C17.3202 19 19 17.3202 19 15.248V4.75198C19 2.67982 17.3202 1 15.248 1Z" fill="black"/>
<path d="M12.7872 14.3327C12.7464 14.2872 12.7054 14.2417 12.6646 14.1962C12.3767 13.8816 12.2339 13.5181 12.3473 13.0364C11.257 13.3899 10.2099 13.4699 9.12865 13.2226C9.10031 13.546 9.08896 13.8417 9.0451 14.1324C8.99146 14.4882 8.90948 14.8397 8.84229 15.1934C8.81885 15.3167 8.79313 15.4407 8.78542 15.5654C8.7625 15.9367 8.77073 16.3116 8.72073 16.6787C8.695 16.8676 8.57146 17.0432 8.49885 17.2093H7.68937L7.69375 17.1992C7.73698 17.0816 7.7801 16.964 7.82333 16.8464L7.82115 16.8492C7.8649 16.8053 7.90854 16.7614 7.95229 16.7175L7.94948 16.7203C7.97156 16.6981 7.99365 16.676 8.01573 16.6539L8.1349 16.6401C8.14646 16.4433 8.14469 16.5156 8.14646 16.4433C8.1551 16.0921 8.15 15.7399 8.13115 15.3891C8.12417 15.2603 8.06594 15.1343 8.03115 15.007C8.00698 15.0076 7.98281 15.0082 7.95865 15.0089C7.82958 15.4745 7.70052 15.9402 7.57146 16.4058L7.57719 16.4033C7.48479 16.5708 7.35479 16.8957 7.2624 17.0632C7.1475 17.0736 6.82354 17.0536 6.55531 17.0552C6.57719 16.834 6.65927 16.718 6.79875 16.5928C7.09865 16.3236 7.17937 15.9287 7.17823 15.5506C7.17667 15.0225 7.10615 14.4947 7.0651 13.9667C7.12333 13.8605 7.15708 13.7251 7.24365 13.653C7.82948 13.165 8.3074 12.5819 8.75354 11.9709C9.18542 11.3795 9.6201 10.7892 10.0271 10.1805C10.4753 9.5101 10.9397 8.84094 11.0425 8.00646C11.8017 8.08646 12.5265 8.27135 13.2069 8.63583C13.4148 8.74719 13.6757 8.75969 13.9123 8.8175C14 8.88521 14.13 8.93479 14.1682 9.02375C14.3609 9.47198 14.5495 9.92396 14.7019 10.387C14.8893 10.9565 14.9394 11.5405 14.8425 12.1429C14.7265 12.8642 14.4089 13.4849 13.9998 14.0737C13.9318 14.1718 13.9097 14.3017 13.8664 14.4169L13.8679 14.415C13.7969 14.4652 13.7218 14.5106 13.6556 14.5665C13.4767 14.7174 13.4334 15.0103 13.1486 15.0514C13.1448 15.0358 13.1429 15.0202 13.1432 15.0042C13.1282 14.9758 13.1133 14.9476 13.0983 14.9193C12.9946 14.7237 12.8909 14.5282 12.7872 14.3327ZM5.38833 5.94375C5.27937 5.93917 5.16656 6.02385 5.05552 6.06729C5.05552 6.06729 4.95385 6.90917 4.95385 7.33281C4.95385 7.75646 5.09875 8.11562 5.12333 8.51417C5.14083 8.79802 5.15469 9.10146 5.26469 9.3551C5.39677 9.65937 5.45417 9.95344 5.43771 10.277C5.39208 11.1759 5.85823 11.7842 6.57271 12.2474C6.89406 11.8982 7.24292 11.5703 7.53094 11.1955C8.1074 10.4453 8.59969 9.64156 8.87073 8.72292C8.92719 8.53156 8.96437 8.33469 9.01948 8.10229C9.04948 8.07167 9.11104 8.00865 9.1726 7.94562L7.69406 7.94146C7.67229 7.92177 7.65708 7.90792 7.63531 7.88823L7.44823 6.06365C6.76167 6.02146 6.07552 5.97271 5.38833 5.94375ZM6.93583 3.76906C6.68833 3.26948 6.3249 2.88344 5.77427 2.66344C5.76552 2.81417 5.75844 2.9349 5.75073 3.06844C5.56677 2.93583 5.40406 2.81865 5.19396 2.66719C5.22083 2.93781 5.24687 3.12667 5.25687 3.31646C5.27656 3.69167 5.11542 3.8801 4.7375 3.9326C4.66385 3.94281 4.5874 3.9326 4.51333 3.94125C4.29167 3.96687 4.17323 4.09156 4.14344 4.3124C4.10448 4.60073 4.25187 4.78958 4.48781 4.90437C4.73333 5.02385 4.9951 5.1101 5.29458 5.22865C5.25073 5.37646 5.20615 5.5226 5.16427 5.66948C5.12656 5.80167 5.09156 5.93458 5.05552 6.06729C5.16656 6.02385 5.27937 5.93917 5.38833 5.94375C6.07552 5.97271 6.76167 6.02146 7.44823 6.06365C7.40948 5.26917 7.29323 4.49042 6.93583 3.76906ZM14.2079 14.8394C14.2283 14.8607 14.2486 14.882 14.2691 14.9033C14.2904 14.9248 14.3118 14.9462 14.3331 14.9676C14.3544 14.988 14.3755 15.0084 14.3968 15.0289C14.4749 15.0808 14.553 15.1329 14.631 15.1849C14.669 14.9812 14.9003 14.6883 15.0939 14.5462C15.1738 14.4876 15.209 14.3701 15.2708 14.284C15.3054 14.2358 15.353 14.1971 15.3948 14.1542C15.3779 14.0183 15.3514 13.883 15.3461 13.7468C15.3313 13.3558 15.3557 12.97 15.2332 12.5797C15.086 12.1109 15.1432 11.6159 15.1705 11.1196C15.6197 11.0293 15.8108 10.7364 15.836 10.3421C15.8665 9.86583 15.7772 9.40646 15.4789 9.01677C15.265 8.7375 14.9753 8.58073 14.6159 8.63729C14.3779 8.67469 14.1466 8.75594 13.9123 8.8175C14 8.88521 14.13 8.93479 14.1682 9.02375C14.3609 9.47198 14.5495 9.92396 14.7019 10.387C14.8893 10.9565 14.9394 11.5405 14.8425 12.1429C14.7265 12.8642 14.4089 13.4849 13.9998 14.0737C13.9318 14.1718 13.9097 14.3017 13.8664 14.4169C13.9802 14.5578 14.0941 14.6984 14.2079 14.8394ZM10.2681 7.97271C10.2026 8.81802 9.8 9.52906 9.35312 10.2161C8.95969 10.821 8.56406 11.4276 8.1224 11.9971C7.80521 12.406 7.41062 12.7551 7.05052 13.1308C7.05542 13.4094 7.06021 13.6881 7.0651 13.9667C7.12333 13.8605 7.15708 13.7251 7.24365 13.653C7.82948 13.165 8.3074 12.5819 8.75354 11.9709C9.18542 11.3795 9.6201 10.7892 10.0271 10.1805C10.4753 9.5101 10.9397 8.84094 11.0425 8.00646C10.7844 7.99521 10.5262 7.98396 10.2681 7.97271ZM6.92229 12.4872C7.25552 12.12 7.63031 11.7818 7.9124 11.3787C8.34833 10.7561 8.73802 10.099 9.11375 9.4375C9.32687 9.0624 9.48187 8.65375 9.50187 8.20698C9.50542 8.12656 9.5876 8.04979 9.63344 7.97125C9.59573 7.97229 9.55812 7.97333 9.52042 7.97437C9.47208 7.96448 9.42375 7.95448 9.37552 7.94458C9.30792 7.945 9.24021 7.94521 9.1726 7.94562C9.11104 8.00865 9.04948 8.07167 9.01948 8.10229C8.96437 8.33469 8.92719 8.53156 8.87073 8.72292C8.59969 9.64156 8.1074 10.4453 7.53094 11.1955C7.24292 11.5703 6.89406 11.8982 6.57271 12.2474C6.68917 12.3273 6.80583 12.4072 6.92229 12.4872ZM9.82 7.97115C9.845 8.67344 9.53167 9.27 9.19594 9.84646C8.87167 10.403 8.50719 10.9375 8.13729 11.4656C7.91969 11.7764 7.65979 12.0577 7.41417 12.3483C7.29854 12.4851 7.17177 12.6125 7.05 12.7441C7.05021 12.873 7.05031 13.0019 7.05052 13.1308C7.41062 12.7551 7.80521 12.406 8.1224 11.9971C8.56406 11.4276 8.95969 10.821 9.35312 10.2161C9.8 9.52906 10.2026 8.81802 10.2681 7.97271C10.1187 7.97219 9.96948 7.97167 9.82 7.97115ZM14.643 15.2358C14.6999 15.3524 14.8042 15.4685 14.8049 15.5854C14.8075 16 14.7774 16.4151 14.751 16.8294C14.7487 16.866 14.6839 16.8987 14.648 16.9333C14.6241 16.9512 14.6 16.9692 14.576 16.9871C14.5553 17.0092 14.5346 17.0312 14.5139 17.0532C14.4912 17.0731 14.4685 17.0929 14.4459 17.1128C14.4815 17.1528 14.5152 17.2254 14.5527 17.2274C14.7632 17.2386 14.9746 17.2328 15.1951 17.2328C15.3805 16.78 15.4441 16.3377 15.3755 15.875C15.362 15.7833 15.3365 15.6686 15.376 15.598C15.646 15.1164 15.5743 14.6376 15.3948 14.1542C15.353 14.1971 15.3054 14.2358 15.2708 14.284C15.209 14.3701 15.1738 14.4876 15.0939 14.5462C14.9003 14.6883 14.669 14.9812 14.631 15.1849C14.6341 15.2021 14.638 15.2191 14.643 15.2358ZM9.63344 7.97125C9.5876 8.04979 9.50542 8.12656 9.50187 8.20698C9.48187 8.65375 9.32687 9.0624 9.11375 9.4375C8.73802 10.099 8.34833 10.7561 7.9124 11.3787C7.63031 11.7818 7.25552 12.12 6.92229 12.4872C6.9649 12.5728 7.0074 12.6584 7.05 12.7441C7.17177 12.6125 7.29854 12.4851 7.41417 12.3483C7.65979 12.0577 7.91969 11.7764 8.13729 11.4656C8.50719 10.9375 8.87167 10.403 9.19594 9.84646C9.53167 9.27 9.845 8.67344 9.82 7.97115C9.75781 7.97115 9.69562 7.97125 9.63344 7.97125ZM7.63823 7.9149C7.65687 7.92375 7.67542 7.9326 7.69406 7.94146C7.6774 7.92844 7.65885 7.91958 7.63823 7.9149ZM12.6599 16.5485C12.572 16.6096 12.4841 16.6706 12.3961 16.7317C12.3791 16.8301 12.362 16.9285 12.3441 17.0317H13.0966C13.0966 16.8797 13.0865 16.7429 13.1001 16.6086C13.1092 16.5195 13.1283 16.4121 13.1843 16.3501C13.682 15.7982 13.8782 15.1442 13.8679 14.415C13.7969 14.4652 13.7218 14.5106 13.6556 14.5665C13.4767 14.7174 13.4334 15.0103 13.1486 15.0514C13.1568 15.6064 12.9892 16.1037 12.6599 16.5485Z" fill="url(#paint0_linear_19606_2309)"/>
<defs>
<linearGradient id="paint0_linear_19606_2309" x1="2.32999" y1="7.64135" x2="16.6092" y2="15.8515" gradientUnits="userSpaceOnUse">
<stop stop-color="#F6DDD7"/>
<stop offset="0.25" stop-color="#FCABE6"/>
<stop offset="0.3" stop-color="#F3ADE6"/>
<stop offset="0.38" stop-color="#DDB3E8"/>
<stop offset="0.48" stop-color="#B8BCEC"/>
<stop offset="0.59" stop-color="#85CAF1"/>
<stop offset="0.7" stop-color="#50D8F6"/>
<stop offset="0.76" stop-color="#50D8F6"/>
<stop offset="0.86" stop-color="#B58FE8"/>
</linearGradient>
</defs>
</svg>
