<svg width="20" height="20" viewBox="0 0 20 20" fill="none" xmlns="http://www.w3.org/2000/svg">
<g clip-path="url(#clip0_10314_145786)">
<path d="M14.578 14.2182H19.4914C19.5582 14.2182 19.6243 14.2051 19.6861 14.1796C19.7478 14.154 19.8039 14.1166 19.8511 14.0693C19.8983 14.0221 19.9358 13.9661 19.9614 13.9044C19.9869 13.8426 20 13.7765 20 13.7097V9.73238C20 9.6656 19.9869 9.59947 19.9614 9.53776C19.9358 9.47605 19.8983 9.41999 19.8511 9.37276C19.8039 9.32554 19.7478 9.28809 19.6861 9.26255C19.6243 9.23701 19.5582 9.22388 19.4914 9.22392H14.578V6.94973L14.576 6.93986V2.9914L14.577 2.98326C14.577 1.04573 10.822 0 7.28851 0C3.75503 0 0 1.04573 0 2.98326L0.00101716 2.9914V14.8884L0.00139357 14.8905L0.00101716 14.8925C0.00101716 16.8281 3.75308 17.8718 7.28361 17.8718C7.68072 17.8718 8.03909 17.8579 8.3833 17.8373V19.4915C8.38326 19.5583 8.39639 19.6245 8.42194 19.6862C8.44749 19.7479 8.48495 19.8039 8.53219 19.8512C8.57943 19.8984 8.63551 19.9358 8.69724 19.9614C8.75896 19.9869 8.82512 20 8.89192 20H19.4914C19.5582 20 19.6243 19.9869 19.6861 19.9614C19.7478 19.9358 19.8039 19.8984 19.8511 19.8512C19.8983 19.8039 19.9358 19.7479 19.9614 19.6862C19.9869 19.6245 20 19.5583 20 19.4915V15.5142C20 15.4474 19.9869 15.3813 19.9614 15.3195C19.9358 15.2578 19.8983 15.2018 19.8511 15.1546C19.8039 15.1073 19.7478 15.0699 19.6861 15.0443C19.6243 15.0188 19.5582 15.0057 19.4914 15.0057H14.5584C14.5614 14.9673 14.578 14.9314 14.578 14.8925V14.2182ZM18.9828 13.2013H9.40046V10.2408H14.0497C14.0566 10.2412 14.0624 10.2448 14.0694 10.2448C14.0764 10.2448 14.0822 10.2412 14.0892 10.2408H18.9828V13.2013ZM8.38322 12.8521C8.04055 12.8738 7.68287 12.8884 7.28353 12.8884C5.71601 12.9149 4.15519 12.6779 2.66622 12.1873C2.38182 12.0883 2.10714 11.9633 1.84568 11.8139C1.7662 11.7682 1.6917 11.7265 1.6162 11.6739C1.45007 11.5687 1.30099 11.4388 1.17414 11.2886C1.14642 11.2586 1.12362 11.2244 1.10659 11.1873C1.09765 11.1694 1.04301 11.0562 1.03109 11.0383C1.02353 10.998 1.01921 10.9571 1.01817 10.9162V8.51342C1.32101 8.72946 1.64891 8.90801 1.99472 9.04517C2.15566 9.11666 2.32751 9.17923 2.50131 9.23782C2.65031 9.29244 2.80727 9.33614 2.97019 9.38282L3.10629 9.42055C3.12423 9.42567 3.14248 9.42965 3.16092 9.43246C3.37048 9.48808 3.59007 9.54469 3.81657 9.59235C3.94474 9.61917 4.08478 9.64697 4.1871 9.65989C5.20869 9.84529 6.24525 9.93572 7.28352 9.93C7.65033 9.93 8.01702 9.91108 8.38321 9.88933L8.38322 12.8521ZM13.559 6.9537L13.5588 6.95471L13.536 7.08285L13.4873 7.19209C13.4513 7.27254 13.3988 7.34459 13.3333 7.40361C13.285 7.45659 13.2314 7.50451 13.1734 7.54661C13.11 7.60353 13.0423 7.65533 12.9707 7.70154C12.8644 7.76906 12.7492 7.8356 12.622 7.90412C12.484 7.9793 12.3413 8.04564 12.1949 8.10275C12.0425 8.17239 11.8859 8.23243 11.726 8.2825C11.6009 8.32818 11.4697 8.36487 11.3326 8.40266L11.2084 8.43841C11.1826 8.44338 11.1578 8.44834 11.1419 8.45232C10.9442 8.50296 10.7465 8.55361 10.5379 8.59731C10.3124 8.64597 10.077 8.68469 9.84947 8.72341C8.02493 8.99588 6.16843 8.97342 4.35102 8.65687C4.24572 8.64197 4.13347 8.62013 4.02717 8.59729C3.80465 8.55061 3.59107 8.495 3.38942 8.44137C3.3755 8.4374 3.3616 8.43442 3.34568 8.43144L3.24435 8.40264C3.10726 8.3649 2.97613 8.32816 2.83904 8.2785C2.68506 8.22587 2.54099 8.17522 2.38704 8.10766C2.00122 7.96566 1.64393 7.75579 1.33205 7.48797C1.29358 7.45533 1.25833 7.41908 1.22676 7.37972C1.14806 7.2949 1.08575 7.19625 1.04298 7.08875C1.03901 7.06889 1.0241 6.9656 1.01814 6.94673V4.55797C2.94631 5.57503 5.11047 6.06085 7.28849 5.96557C9.4665 6.06085 11.6307 5.57504 13.5588 4.55799V6.95271L13.559 6.9537ZM12.1151 9.22392C12.2775 9.17113 12.4369 9.10913 12.5922 9.03821C12.7668 8.96948 12.937 8.89021 13.1019 8.80086C13.2519 8.72142 13.389 8.64097 13.5608 8.52974V9.22392H12.1151ZM7.28849 1.01698C11.1138 1.01698 13.555 2.17984 13.5591 2.9812L13.5588 2.98232V2.9861C13.5535 3.78753 11.1128 4.94864 7.28849 4.94864C3.46416 4.94864 1.02351 3.78753 1.01817 2.9861V2.98232L1.01798 2.98123C1.02205 2.17989 3.46318 1.01698 7.28849 1.01698ZM7.28353 16.8549C3.45895 16.8549 1.01817 15.6929 1.01817 14.8925L1.0178 14.8905L1.01817 14.8884V12.4949L1.04202 12.513C1.13341 12.5765 1.23077 12.6341 1.41354 12.7394C1.70288 12.8999 2.0057 13.0348 2.31853 13.1426C3.91895 13.6737 5.59743 13.9315 7.28353 13.9053C7.692 13.9053 8.0607 13.8906 8.41538 13.8692C8.44787 13.9701 8.51144 14.0582 8.59701 14.1209C8.68258 14.1835 8.78577 14.2176 8.89184 14.2181H13.5608V14.8925C13.5589 14.931 13.5518 14.9691 13.5399 15.0057H8.89184C8.82504 15.0057 8.75888 15.0188 8.69715 15.0443C8.63543 15.0699 8.57934 15.1073 8.53211 15.1546C8.48487 15.2018 8.44741 15.2579 8.42186 15.3196C8.39631 15.3813 8.38318 15.4474 8.38322 15.5142V16.8183C8.04155 16.8399 7.68405 16.8549 7.28353 16.8549ZM18.9828 18.9831H9.40046V16.0226H18.9828L18.9828 18.9831Z" fill="#171723"/>
<path d="M10.6678 18.0118H13.3192C13.4541 18.0118 13.5835 17.9582 13.6789 17.8629C13.7742 17.7675 13.8278 17.6382 13.8278 17.5033C13.8278 17.3685 13.7742 17.2392 13.6789 17.1438C13.5835 17.0484 13.4541 16.9949 13.3192 16.9949H10.6678C10.5329 16.9949 10.4035 17.0484 10.3082 17.1438C10.2128 17.2392 10.1592 17.3685 10.1592 17.5033C10.1592 17.6382 10.2128 17.7675 10.3082 17.8629C10.4035 17.9582 10.5329 18.0118 10.6678 18.0118Z" fill="#171723"/>
<path d="M17.6685 18.0001C17.943 18.0001 18.1656 17.7775 18.1656 17.503C18.1656 17.2284 17.943 17.0059 17.6685 17.0059C17.3939 17.0059 17.1714 17.2284 17.1714 17.503C17.1714 17.7775 17.3939 18.0001 17.6685 18.0001Z" fill="#171723"/>
<path d="M13.3192 11.2122H10.6678C10.5329 11.2122 10.4035 11.2657 10.3082 11.3611C10.2128 11.4564 10.1592 11.5858 10.1592 11.7206C10.1592 11.8555 10.2128 11.9848 10.3082 12.0802C10.4035 12.1755 10.5329 12.2291 10.6678 12.2291H13.3192C13.4541 12.2291 13.5835 12.1755 13.6789 12.0802C13.7742 11.9848 13.8278 11.8555 13.8278 11.7206C13.8278 11.5858 13.7742 11.4564 13.6789 11.3611C13.5835 11.2657 13.4541 11.2122 13.3192 11.2122Z" fill="#171723"/>
<path d="M17.6685 12.2181C17.943 12.2181 18.1656 11.9955 18.1656 11.721C18.1656 11.4464 17.943 11.2239 17.6685 11.2239C17.3939 11.2239 17.1714 11.4464 17.1714 11.721C17.1714 11.9955 17.3939 12.2181 17.6685 12.2181Z" fill="#171723"/>
</g>
<defs>
<clipPath id="clip0_10314_145786">
<rect width="20" height="20" fill="white"/>
</clipPath>
</defs>
</svg>
