<svg width="20" height="20" viewBox="0 0 20 20" fill="none" xmlns="http://www.w3.org/2000/svg">
<path d="M5.00004 18.3334C4.54171 18.3334 4.14935 18.1702 3.82296 17.8438C3.49657 17.5174 3.33337 17.125 3.33337 16.6667V8.33337C3.33337 7.87504 3.49657 7.48268 3.82296 7.15629C4.14935 6.8299 4.54171 6.66671 5.00004 6.66671H5.83337V5.00004C5.83337 3.84726 6.23962 2.86462 7.05212 2.05212C7.86462 1.23962 8.84726 0.833374 10 0.833374C11.1528 0.833374 12.1355 1.23962 12.948 2.05212C13.7605 2.86462 14.1667 3.84726 14.1667 5.00004V6.66671H15C15.4584 6.66671 15.8507 6.8299 16.1771 7.15629C16.5035 7.48268 16.6667 7.87504 16.6667 8.33337V16.6667C16.6667 17.125 16.5035 17.5174 16.1771 17.8438C15.8507 18.1702 15.4584 18.3334 15 18.3334H5.00004ZM5.00004 16.6667H15V8.33337H5.00004V16.6667ZM10 14.1667C10.4584 14.1667 10.8507 14.0035 11.1771 13.6771C11.5035 13.3507 11.6667 12.9584 11.6667 12.5C11.6667 12.0417 11.5035 11.6493 11.1771 11.323C10.8507 10.9966 10.4584 10.8334 10 10.8334C9.54171 10.8334 9.14935 10.9966 8.82296 11.323C8.49657 11.6493 8.33337 12.0417 8.33337 12.5C8.33337 12.9584 8.49657 13.3507 8.82296 13.6771C9.14935 14.0035 9.54171 14.1667 10 14.1667ZM7.50004 6.66671H12.5V5.00004C12.5 4.3056 12.257 3.71532 11.7709 3.22921C11.2848 2.7431 10.6945 2.50004 10 2.50004C9.3056 2.50004 8.71532 2.7431 8.22921 3.22921C7.7431 3.71532 7.50004 4.3056 7.50004 5.00004V6.66671Z" fill="#171723"/>
</svg>
