<svg width="20" height="20" viewBox="0 0 20 20" fill="none" xmlns="http://www.w3.org/2000/svg">
<path d="M9.99992 14.1667C10.4583 14.1667 10.8506 14.0035 11.177 13.6771C11.5034 13.3507 11.6666 12.9584 11.6666 12.5C11.6666 12.0417 11.5034 11.6493 11.177 11.323C10.8506 10.9966 10.4583 10.8334 9.99992 10.8334C9.54159 10.8334 9.14922 10.9966 8.82284 11.323C8.49645 11.6493 8.33325 12.0417 8.33325 12.5C8.33325 12.9584 8.49645 13.3507 8.82284 13.6771C9.14922 14.0035 9.54159 14.1667 9.99992 14.1667ZM4.99992 18.3334C4.54159 18.3334 4.14922 18.1702 3.82284 17.8438C3.49645 17.5174 3.33325 17.125 3.33325 16.6667V8.33337C3.33325 7.87504 3.49645 7.48268 3.82284 7.15629C4.14922 6.8299 4.54159 6.66671 4.99992 6.66671H10.8333V5.00004C10.8333 3.84726 11.2395 2.86462 12.052 2.05212C12.8645 1.23962 13.8471 0.833374 14.9999 0.833374C16.1527 0.833374 17.1353 1.23962 17.9478 2.05212C18.7603 2.86462 19.1666 3.84726 19.1666 5.00004H17.4999C17.4999 4.3056 17.2569 3.71532 16.7708 3.22921C16.2846 2.7431 15.6944 2.50004 14.9999 2.50004C14.3055 2.50004 13.7152 2.7431 13.2291 3.22921C12.743 3.71532 12.4999 4.3056 12.4999 5.00004V6.66671H14.9999C15.4583 6.66671 15.8506 6.8299 16.177 7.15629C16.5034 7.48268 16.6666 7.87504 16.6666 8.33337V16.6667C16.6666 17.125 16.5034 17.5174 16.177 17.8438C15.8506 18.1702 15.4583 18.3334 14.9999 18.3334H4.99992Z" fill="#171723"/>
</svg>
