<svg width="20" height="20" viewBox="0 0 20 20" fill="none" xmlns="http://www.w3.org/2000/svg">
<path d="M15.64 7.47904H14.1879V4.1696C14.1879 1.87057 12.3091 0 10 0C7.6909 0 5.81212 1.87056 5.81212 4.16959V7.47903H4.36001C3.33293 7.47903 2.5 8.30832 2.5 9.33092V18.1481C2.5 19.1707 3.33293 20 4.36001 20H15.64C16.6675 20 17.5 19.1707 17.5 18.1481V9.33092C17.5 8.30832 16.6675 7.47904 15.64 7.47904ZM6.64749 4.1696C6.64749 2.32908 8.15141 0.831727 10 0.831727C11.8486 0.831727 13.3525 2.32908 13.3525 4.1696V7.47904H6.64749V4.1696ZM10.848 13.8738V15.8134C10.848 16.2759 10.4711 16.6512 10.0061 16.6512C9.54153 16.6512 9.16463 16.2759 9.16463 15.8134V13.8802C8.66414 13.5915 8.32314 13.0583 8.32314 12.4406C8.32314 11.5183 9.07408 10.771 10 10.771C10.9263 10.771 11.6769 11.5183 11.6769 12.4406C11.6769 13.0534 11.342 13.583 10.848 13.8738Z" fill="#171723"/>
</svg>
