<svg width="20" height="20" viewBox="0 0 20 20" fill="none" xmlns="http://www.w3.org/2000/svg">
<path d="M5.25646 17.9167C4.8409 17.9167 4.4859 17.7695 4.19146 17.4752C3.89715 17.1808 3.75 16.8258 3.75 16.4102V8.5898C3.75 8.17425 3.89715 7.81925 4.19146 7.5248C4.4859 7.2305 4.8409 7.08335 5.25646 7.08335H6.25V5.41668C6.25 4.37612 6.61486 3.49098 7.34458 2.76126C8.07431 2.03154 8.95944 1.66668 10 1.66668C11.0406 1.66668 11.9257 2.03154 12.6554 2.76126C13.3851 3.49098 13.75 4.37612 13.75 5.41668V7.08335H14.7435C15.1591 7.08335 15.5141 7.2305 15.8085 7.5248C16.1028 7.81925 16.25 8.17425 16.25 8.5898V16.4102C16.25 16.8258 16.1028 17.1808 15.8085 17.4752C15.5141 17.7695 15.1591 17.9167 14.7435 17.9167H5.25646ZM5.25646 16.6667H14.7435C14.8184 16.6667 14.8799 16.6427 14.9279 16.5946C14.976 16.5465 15 16.4851 15 16.4102V8.5898C15 8.51494 14.976 8.45349 14.9279 8.40543C14.8799 8.35737 14.8184 8.33335 14.7435 8.33335H5.25646C5.1816 8.33335 5.12014 8.35737 5.07208 8.40543C5.02403 8.45349 5 8.51494 5 8.5898V16.4102C5 16.4851 5.02403 16.5465 5.07208 16.5946C5.12014 16.6427 5.1816 16.6667 5.25646 16.6667ZM10 13.9583C10.4049 13.9583 10.7492 13.8165 11.0329 13.5329C11.3165 13.2492 11.4583 12.9049 11.4583 12.5C11.4583 12.0952 11.3165 11.7508 11.0329 11.4671C10.7492 11.1835 10.4049 11.0417 10 11.0417C9.59514 11.0417 9.25083 11.1835 8.96708 11.4671C8.68347 11.7508 8.54167 12.0952 8.54167 12.5C8.54167 12.9049 8.68347 13.2492 8.96708 13.5329C9.25083 13.8165 9.59514 13.9583 10 13.9583ZM7.5 7.08335H12.5V5.41668C12.5 4.72224 12.2569 4.13196 11.7708 3.64585C11.2847 3.15973 10.6944 2.91668 10 2.91668C9.30556 2.91668 8.71528 3.15973 8.22917 3.64585C7.74306 4.13196 7.5 4.72224 7.5 5.41668V7.08335Z" fill="#171723"/>
</svg>
