<svg width="20" height="20" viewBox="0 0 20 20" fill="none" xmlns="http://www.w3.org/2000/svg">
<path fill-rule="evenodd" clip-rule="evenodd" d="M14.3799 7.12287H15.2537C16.4925 7.12287 17.5 8.14687 17.5 9.40524V17.7181C17.5 18.9765 16.4925 20 15.2537 20H4.7467C3.508 20 2.5 18.9765 2.5 17.7181V9.40524C2.5 8.14688 3.50799 7.12288 4.7467 7.12288H5.60547V4.45732C5.60547 1.99964 7.57338 0 9.99267 0C12.412 0 14.3799 1.99963 14.3799 4.45731V7.12287ZM9.99268 0.952381C8.09021 0.952381 6.54297 2.52465 6.54297 4.45731V7.12287H13.4424V4.45731C13.4424 2.52465 11.8951 0.952381 9.99268 0.952381ZM15.2537 19.0476C15.9756 19.0476 16.5625 18.451 16.5625 17.7181V9.40523C16.5625 8.67188 15.9756 8.07525 15.2537 8.07525H4.7467C4.02481 8.07525 3.4375 8.67188 3.4375 9.40523V17.7181C3.4375 18.451 4.02481 19.0476 4.7467 19.0476H15.2537ZM7.97412 12.3237C7.97412 11.1849 8.88645 10.2581 10.0075 10.2581C11.129 10.2581 12.0414 11.1849 12.0414 12.3237C12.0414 12.9492 11.7662 13.5277 11.2943 13.9183V15.5176C11.2943 16.2304 10.7234 16.8108 10.0212 16.8108C9.31949 16.8108 8.74866 16.2304 8.74866 15.5176V13.9388C8.25931 13.5491 7.97412 12.9632 7.97412 12.3237ZM10.3568 13.4082L10.5793 13.2687C10.9075 13.0627 11.1039 12.7092 11.1039 12.3237C11.1039 11.7099 10.6118 11.2104 10.0075 11.2104C9.40326 11.2104 8.91163 11.7099 8.91163 12.3237C8.91163 12.7171 9.11488 13.0743 9.45546 13.2784L9.68616 13.4165V15.5175C9.68616 15.7054 9.83631 15.8584 10.0212 15.8584C10.2062 15.8584 10.3568 15.7054 10.3568 15.5175V13.4082Z" fill="#171723"/>
</svg>
