<svg width="20" height="20" viewBox="0 0 20 20" fill="none" xmlns="http://www.w3.org/2000/svg">
<g clip-path="url(#clip0_10314_144682)">
<g clip-path="url(#clip1_10314_144682)">
<path d="M19.9685 8.72123C20.0004 8.63352 20.0083 8.53855 19.9914 8.44656C19.9888 8.42861 19.9852 8.41084 19.9806 8.39333C19.9603 8.30253 19.9159 8.21927 19.8523 8.15273L19.8494 8.15082L19.8493 8.15069L17.7116 6.04093C17.6144 5.94497 17.484 5.89256 17.3491 5.89524C17.2142 5.89792 17.0859 5.95546 16.9924 6.0552C16.8988 6.15495 16.8478 6.28873 16.8504 6.42712C16.853 6.56551 16.9091 6.69716 17.0063 6.79312L18.234 8.00497L12.7855 8.00602C12.6506 8.00602 12.5212 8.061 12.4258 8.15886C12.3304 8.25673 12.2769 8.38946 12.2769 8.52786C12.2769 8.66626 12.3304 8.79899 12.4258 8.89686C12.5212 8.99472 12.6506 9.0497 12.7855 9.0497L18.2935 9.04886L16.9963 10.4175C16.9494 10.4665 16.9123 10.5246 16.8873 10.5884C16.8622 10.6522 16.8497 10.7204 16.8505 10.7891C16.8512 10.8579 16.8652 10.9258 16.8916 10.989C16.9181 11.0522 16.9564 11.1094 17.0044 11.1573C17.0525 11.2053 17.1092 11.243 17.1715 11.2684C17.2338 11.2937 17.3004 11.3062 17.3674 11.3051C17.4344 11.3039 17.5005 11.2892 17.562 11.2618C17.6234 11.2344 17.679 11.1947 17.7254 11.1452L19.8622 8.8907C19.9077 8.84213 19.9435 8.78495 19.9678 8.72234L19.9685 8.7215L19.9685 8.72123Z" fill="#171723"/>
<path d="M15.1468 10.87C15.08 10.8699 15.0139 10.8834 14.9521 10.9096C14.8904 10.9358 14.8343 10.9743 14.7871 11.0227C14.7398 11.0712 14.7024 11.1288 14.6768 11.1921C14.6513 11.2554 14.6382 11.3233 14.6382 11.3918V14.8521C14.6388 15.3405 14.4506 15.8092 14.1148 16.1554C13.7791 16.5016 13.3232 16.6971 12.8472 16.6989H11.0361L11.0472 3.58049C11.0487 3.4133 11.0123 3.24805 10.9407 3.09785C10.8692 2.94764 10.7645 2.81661 10.6349 2.71517C9.90937 2.14595 9.12842 1.65514 8.30453 1.25058C8.14348 1.17231 7.97206 1.11483 7.80722 1.04368H12.8472C13.3219 1.04406 13.7771 1.23765 14.1129 1.58198C14.4486 1.9263 14.6376 2.39323 14.6382 2.88031V5.82586C14.6382 5.96426 14.6918 6.097 14.7872 6.19486C14.8826 6.29273 15.0119 6.3477 15.1468 6.3477C15.2817 6.3477 15.4111 6.29273 15.5065 6.19486C15.6018 6.097 15.6554 5.96426 15.6554 5.82586V2.88031C15.6544 2.11654 15.3582 1.38435 14.8318 0.84438C14.3053 0.304406 13.5916 0.000740704 12.8472 6.5603e-07H2.81817C2.07249 -0.000514529 1.35704 0.302424 0.828733 0.842377C0.300428 1.38233 0.00239688 2.11522 0 2.88031V14.8521C0.000996316 15.6186 0.298262 16.3533 0.826585 16.8952C1.35491 17.4371 2.07114 17.7418 2.81817 17.7426C4.5632 17.7401 6.28727 18.1326 7.86744 18.8923C8.39399 19.1661 8.90237 19.4753 9.38927 19.8177C9.54862 19.9258 9.73347 19.9877 9.92429 19.9969C10.1151 20.0061 10.3048 19.9623 10.4733 19.87C10.6419 19.7777 10.7829 19.6404 10.8817 19.4726C10.9804 19.3048 11.0331 19.1127 11.0343 18.9167L11.0353 17.7426H12.8472C13.5929 17.7406 14.3074 17.4351 14.8339 16.8932C15.3604 16.3513 15.6558 15.6172 15.6554 14.8521V11.3918C15.6555 11.3233 15.6423 11.2554 15.6168 11.1921C15.5912 11.1287 15.5538 11.0712 15.5065 11.0227C15.4593 10.9743 15.4032 10.9358 15.3415 10.9096C15.2798 10.8834 15.2136 10.8699 15.1468 10.87V10.87ZM9.9525 18.9493C9.42579 18.5783 8.8752 18.2443 8.30452 17.9495C6.58765 17.1237 4.71435 16.6967 2.81817 16.6989C2.34082 16.6985 1.88311 16.5039 1.54547 16.1576C1.20783 15.8114 1.01785 15.3419 1.0172 14.8521V2.88031C1.01908 2.39186 1.20978 1.92412 1.54743 1.57978C1.88509 1.23544 2.34211 1.04263 2.81817 1.04368C4.56363 1.04111 6.2881 1.43403 7.86843 2.19438C8.63964 2.56746 9.36519 3.03273 10.03 3.58052V17.2167L9.9525 18.9493Z" fill="#171723"/>
</g>
</g>
<defs>
<clipPath id="clip0_10314_144682">
<rect width="20" height="20" fill="white"/>
</clipPath>
<clipPath id="clip1_10314_144682">
<rect width="20" height="20" fill="white"/>
</clipPath>
</defs>
</svg>
