<svg width="20" height="20" viewBox="0 0 20 20" fill="none" xmlns="http://www.w3.org/2000/svg">
<path d="M18.4134 2.84454C17.3781 1.72165 15.9575 1.10321 14.413 1.10321C13.2585 1.10321 12.2012 1.4682 11.2704 2.18796C10.8008 2.55127 10.3752 2.99576 10 3.51456C9.62494 2.99591 9.19922 2.55127 8.7294 2.18796C7.79877 1.4682 6.74149 1.10321 5.58701 1.10321C4.04251 1.10321 2.62177 1.72165 1.58646 2.84454C0.563507 3.95432 0 5.47043 0 7.1138C0 8.80524 0.630341 10.3535 1.98364 11.9865C3.19427 13.4473 4.93423 14.9301 6.94916 16.6472C7.63718 17.2336 8.41705 17.8983 9.22684 18.6063C9.44077 18.7936 9.71527 18.8968 10 18.8968C10.2846 18.8968 10.5592 18.7936 10.7729 18.6066C11.5826 17.8984 12.363 17.2334 13.0513 16.6467C15.0659 14.93 16.8059 13.4473 18.0165 11.9864C19.3698 10.3535 20 8.80524 20 7.11365C20 5.47043 19.4365 3.95432 18.4134 2.84454Z" fill="#171723"/>
</svg>
