<svg width="20" height="20" viewBox="0 0 20 20" fill="none" xmlns="http://www.w3.org/2000/svg">
<g clip-path="url(#clip0_10314_145266)">
<path d="M17.6058 7.0177H2.76588C2.6275 7.0177 2.4948 7.07267 2.39695 7.17051C2.29911 7.26836 2.24414 7.40106 2.24414 7.53944C2.24414 7.67781 2.29911 7.81051 2.39695 7.90836C2.4948 8.0062 2.6275 8.06117 2.76588 8.06117H4.74677L3.74719 18.0944C3.72313 18.3353 3.7498 18.5786 3.82549 18.8086C3.90118 19.0385 4.0242 19.2501 4.18663 19.4296C4.34907 19.6091 4.54731 19.7526 4.76858 19.8509C4.98985 19.9491 5.22925 19.9999 5.47135 20H14.8993C15.1415 20.0001 15.3811 19.9494 15.6026 19.8512C15.824 19.7529 16.0224 19.6094 16.1849 19.4297C16.3473 19.25 16.4703 19.0382 16.5459 18.8081C16.6214 18.5779 16.6478 18.3344 16.6234 18.0934L15.6152 8.06117H17.6058C17.7441 8.06117 17.8769 8.0062 17.9747 7.90836C18.0725 7.81051 18.1275 7.67781 18.1275 7.53944C18.1275 7.40106 18.0725 7.26836 17.9747 7.17051C17.8769 7.07267 17.7441 7.0177 17.6058 7.0177ZM5.7954 8.06117H14.5671L14.7381 9.7619H5.6258L5.7954 8.06117ZM15.4108 18.7293C15.3465 18.8012 15.2677 18.8587 15.1795 18.8979C15.0913 18.9371 14.9957 18.9571 14.8992 18.9565H5.47135C5.37501 18.9564 5.27975 18.9362 5.19169 18.8971C5.10364 18.858 5.02473 18.8009 4.96005 18.7295C4.89537 18.6581 4.84634 18.574 4.81611 18.4825C4.78589 18.391 4.77513 18.2942 4.78454 18.1984L5.52173 10.8054H14.843L15.5861 18.1973C15.5961 18.2933 15.5857 18.3904 15.5555 18.4821C15.5253 18.5738 15.4759 18.658 15.4108 18.7293V18.7293Z" fill="#171723"/>
<path d="M4.89208 4.32654C4.91489 4.3267 4.93768 4.32532 4.9603 4.32243L17.4565 2.69103C17.5937 2.67303 17.7182 2.60134 17.8026 2.49169C17.8871 2.38204 17.9246 2.24337 17.9069 2.10611C17.8875 1.96956 17.8154 1.84602 17.7061 1.76187C17.5968 1.67772 17.459 1.63962 17.322 1.65571L4.8258 3.28714C4.6944 3.3042 4.57441 3.37059 4.49016 3.47286C4.40591 3.57514 4.36372 3.70562 4.37215 3.83786C4.38058 3.97009 4.43899 4.09417 4.53553 4.18492C4.63208 4.27568 4.75953 4.32631 4.89203 4.32654H4.89208Z" fill="#171723"/>
<path d="M6.92599 1.52196C7.0765 1.52197 7.22363 1.47734 7.34877 1.39373C7.47392 1.31012 7.57146 1.19127 7.62906 1.05222C7.68667 0.913174 7.70174 0.760166 7.67239 0.612549C7.64303 0.464931 7.57056 0.329334 7.46413 0.222905C7.35771 0.116476 7.22212 0.0439948 7.0745 0.0146272C6.92689 -0.0147403 6.77388 0.000324856 6.63483 0.0579176C6.49577 0.11551 6.37692 0.213044 6.2933 0.338185C6.20968 0.463325 6.16504 0.610453 6.16504 0.760961C6.16503 0.860894 6.18471 0.959849 6.22295 1.05218C6.26119 1.1445 6.31724 1.2284 6.3879 1.29906C6.45856 1.36973 6.54245 1.42578 6.63478 1.46403C6.7271 1.50227 6.82606 1.52196 6.92599 1.52196V1.52196Z" fill="#171723"/>
<path d="M7.30664 5.32681C7.30665 5.47731 7.35128 5.62444 7.4349 5.74958C7.51852 5.87471 7.63737 5.97225 7.77642 6.02984C7.91547 6.08743 8.06848 6.1025 8.21609 6.07314C8.3637 6.04377 8.49929 5.9713 8.60572 5.86487C8.71214 5.75845 8.78462 5.62286 8.81398 5.47525C8.84334 5.32763 8.82828 5.17463 8.77068 5.03558C8.71309 4.89653 8.61556 4.77768 8.49042 4.69406C8.36528 4.61044 8.21816 4.5658 8.06765 4.5658C7.86582 4.5658 7.67225 4.64597 7.52954 4.78869C7.38682 4.93141 7.30664 5.12498 7.30664 5.32681Z" fill="#171723"/>
<path d="M3.5219 4.56582C3.52189 4.41532 3.47725 4.2682 3.39363 4.14308C3.31001 4.01795 3.19116 3.92042 3.05211 3.86284C2.91306 3.80525 2.76006 3.79019 2.61246 3.81956C2.46485 3.84893 2.32927 3.92141 2.22286 4.02783C2.11644 4.13425 2.04397 4.26984 2.01462 4.41745C1.98526 4.56506 2.00033 4.71806 2.05793 4.8571C2.11553 4.99614 2.21306 5.11498 2.3382 5.19859C2.46333 5.28221 2.61045 5.32683 2.76095 5.32683C2.86089 5.32684 2.95984 5.30715 3.05217 5.26891C3.1445 5.23067 3.22839 5.17461 3.29906 5.10394C3.36972 5.03327 3.42577 4.94938 3.464 4.85705C3.50224 4.76471 3.52191 4.66576 3.5219 4.56582V4.56582Z" fill="#171723"/>
</g>
<defs>
<clipPath id="clip0_10314_145266">
<rect width="20" height="20" fill="white"/>
</clipPath>
</defs>
</svg>
