<svg width="20" height="20" viewBox="0 0 20 20" fill="none" xmlns="http://www.w3.org/2000/svg">
<g clip-path="url(#clip0_19512_42316)">
<path d="M12.5522 3.13431L7.78061 0.60791L7.7829 17.6028L12.5522 19.5668V3.13431Z" fill="#171723"/>
<path d="M19.5493 0.563966C19.2709 0.394899 18.9183 0.384675 18.6285 0.537568L13.7239 3.13431V19.5445L19.5027 16.4853C19.8094 16.3229 20 16.0063 20 15.6592V1.36368C20 1.03851 19.8273 0.732271 19.5493 0.563966Z" fill="#171723"/>
<path d="M6.60889 0.579071L0.639496 2.56882C0.256958 2.69592 0 3.05237 0 3.45566V18.4486C0 18.748 0.145111 19.0315 0.390167 19.2084C0.550079 19.3227 0.738373 19.3831 0.934448 19.3831C1.03653 19.3831 1.13693 19.3665 1.22986 19.3349L6.61133 17.5412L6.60889 0.579071Z" fill="#171723"/>
</g>
<defs>
<clipPath id="clip0_19512_42316">
<rect width="20" height="20" fill="white"/>
</clipPath>
</defs>
</svg>
