<svg width="20" height="20" viewBox="0 0 20 20" fill="none" xmlns="http://www.w3.org/2000/svg">
<g clip-path="url(#clip0_19512_42606)">
<path d="M19.547 0.137969C19.2687 -0.0361537 18.9173 -0.0460097 18.6273 0.111686L13.1365 3.11886L7.64883 0.111686C7.62555 0.0985449 7.60121 0.0875938 7.57581 0.0777378C7.54511 0.0645965 7.5123 0.0525503 7.47738 0.0415992L7.46785 0.0383138C7.45515 0.0339334 7.43187 0.0273627 7.40117 0.0207921H7.39377C7.3345 0.00765074 7.2837 0.0032703 7.24771 0.00217519C7.2276 0.00108008 7.20326 -1.50345e-05 7.17257 0.00108008H7.16304C7.10589 0.00436541 7.0572 0.0142214 7.02228 0.0218872C7.01169 0.0240774 6.99476 0.0273627 6.97465 0.0317432C6.95454 0.0361236 6.93443 0.0426943 6.91432 0.0492649L0.639255 2.2132C0.257184 2.34462 0 2.71367 0 3.13091V18.6716C0 18.9815 0.144997 19.275 0.390538 19.4579C0.550352 19.5762 0.738742 19.6386 0.93454 19.6386C1.03614 19.6386 1.13563 19.6222 1.23194 19.5882L7.17574 17.5382L12.7798 19.9255C12.8094 19.9387 12.8391 19.9485 12.8698 19.9562C12.9608 19.9847 13.0486 19.9989 13.1375 19.9989C13.219 19.9989 13.3026 19.9868 13.3863 19.9627H13.3905C13.4201 19.9529 13.4434 19.9441 13.4635 19.9354C13.4847 19.9277 13.526 19.9135 13.5746 19.8861L19.5015 16.6391C19.8084 16.4715 19.9989 16.1441 19.9989 15.7849V0.965872C19.9989 0.628578 19.8254 0.312091 19.547 0.137969ZM7.78007 1.58351L12.5523 4.19754V18.4898L7.78325 16.4584L7.78007 1.58461V1.58351ZM6.60846 1.46086L6.61163 16.4277L1.17161 18.3037V3.33569L6.60846 1.46086ZM13.7239 18.4066V4.19754L18.8284 1.40173V15.6097L13.7239 18.4055V18.4066Z" fill="black"/>
</g>
<defs>
<clipPath id="clip0_19512_42606">
<rect width="20" height="20" fill="white"/>
</clipPath>
</defs>
</svg>
