<svg width="20" height="20" viewBox="0 0 20 20" fill="none" xmlns="http://www.w3.org/2000/svg">
<path fill-rule="evenodd" clip-rule="evenodd" d="M12.2909 2.46784C12.2741 2.13761 12.0011 1.875 11.6667 1.875C11.8324 1.875 11.9914 1.94085 12.1086 2.05806C12.2145 2.16406 12.2827 2.30817 12.2909 2.46784Z" fill="#171723"/>
<path fill-rule="evenodd" clip-rule="evenodd" d="M11.4688 6.86453C11.7423 7.13802 12.1132 7.29167 12.5 7.29167H15.2083V10C15.2083 10.3452 15.4882 10.625 15.8333 10.625C16.1785 10.625 16.4583 10.3452 16.4583 10V6.66667C16.4583 6.50091 16.3925 6.34193 16.2753 6.22472L12.1086 2.05806C11.9914 1.94085 11.8324 1.875 11.6667 1.875H5.83333C5.22555 1.875 4.64265 2.11644 4.21288 2.54621C3.78311 2.97598 3.54167 3.55888 3.54167 4.16667V10C3.54167 10.3452 3.82149 10.625 4.16667 10.625C4.51184 10.625 4.79167 10.3452 4.79167 10V4.16667C4.79167 3.8904 4.90141 3.62545 5.09676 3.4301C5.29211 3.23475 5.55707 3.125 5.83333 3.125H11.0417V5.83333C11.0417 6.22011 11.1953 6.59104 11.4688 6.86453ZM12.2917 5.83333C12.2917 5.88859 12.3136 5.94158 12.3527 5.98065C12.3918 6.01972 12.4447 6.04167 12.5 6.04167H14.3245L12.2917 4.00888V5.83333Z" fill="#171723"/>
<path fill-rule="evenodd" clip-rule="evenodd" d="M2.91223 11.9123C3.15966 11.8227 3.43668 11.8977 3.60514 12.0999L5.20833 14.0237L6.81153 12.0999C6.97998 11.8977 7.25701 11.8227 7.50443 11.9123C7.75185 12.0019 7.91667 12.2368 7.91667 12.5V17.5C7.91667 17.8452 7.63684 18.125 7.29167 18.125C6.94649 18.125 6.66667 17.8452 6.66667 17.5V14.2263L5.68847 15.4001C5.56973 15.5426 5.39382 15.625 5.20833 15.625C5.02285 15.625 4.84694 15.5426 4.7282 15.4001L3.75 14.2263V17.5C3.75 17.8452 3.47018 18.125 3.125 18.125C2.77982 18.125 2.5 17.8452 2.5 17.5V12.5C2.5 12.2368 2.66481 12.0019 2.91223 11.9123Z" fill="#171723"/>
<path fill-rule="evenodd" clip-rule="evenodd" d="M14.1667 12.5416C14.1667 12.1965 14.4465 11.9166 14.7917 11.9166H16.0417C16.5389 11.9166 17.0159 12.1142 17.3675 12.4658C17.7191 12.8174 17.9167 13.2944 17.9167 13.7916C17.9167 14.2889 17.7191 14.7658 17.3675 15.1175C17.0159 15.4691 16.5389 15.6666 16.0417 15.6666H15.4167V17.5416C15.4167 17.8868 15.1368 18.1666 14.7917 18.1666C14.4465 18.1666 14.1667 17.8868 14.1667 17.5416V12.5416ZM15.4167 14.4166H16.0417C16.2074 14.4166 16.3664 14.3508 16.4836 14.2336C16.6008 14.1164 16.6667 13.9574 16.6667 13.7916C16.6667 13.6259 16.6008 13.4669 16.4836 13.3497C16.3664 13.2325 16.2074 13.1666 16.0417 13.1666H15.4167V14.4166Z" fill="#171723"/>
<path fill-rule="evenodd" clip-rule="evenodd" d="M9.79167 18.125C10.1368 18.125 10.4167 17.8452 10.4167 17.5V16.25H11.6667V17.5C11.6667 17.8452 11.9465 18.125 12.2917 18.125C12.6368 18.125 12.9167 17.8452 12.9167 17.5V13.75C12.9167 13.2527 12.7191 12.7758 12.3675 12.4242C12.0159 12.0725 11.5389 11.875 11.0417 11.875C10.5444 11.875 10.0675 12.0725 9.71584 12.4242C9.36421 12.7758 9.16667 13.2527 9.16667 13.75V17.5C9.16667 17.8452 9.44649 18.125 9.79167 18.125ZM11.0417 13.125C10.8759 13.125 10.7169 13.1908 10.5997 13.308C10.4825 13.4252 10.4167 13.5842 10.4167 13.75V15H11.6667V13.75C11.6667 13.5842 11.6008 13.4252 11.4836 13.308C11.3664 13.1908 11.2074 13.125 11.0417 13.125Z" fill="#171723"/>
</svg>
