<svg width="20" height="20" viewBox="0 0 20 20" fill="none" xmlns="http://www.w3.org/2000/svg">
<path d="M0.507225 18.7715H4.13473C4.20756 18.7708 4.27937 18.7543 4.34515 18.723C4.40667 18.6838 4.46421 18.6388 4.51697 18.5884C4.52374 18.5805 4.53384 18.5777 4.54021 18.5692L5.45973 17.349L9.51304 15.3185C9.52983 15.31 9.53937 15.2931 9.55499 15.283C9.58708 15.2665 9.61723 15.2465 9.64489 15.2233L18.9917 5.87649C19.6372 5.23098 19.9998 4.3555 19.9998 3.44262C19.9998 2.52974 19.6372 1.65425 18.9917 1.00875C18.3462 0.363249 17.4707 0.000610352 16.5578 0.000610352C15.645 0.000610352 14.7695 0.363249 14.124 1.00875L4.77716 10.3556C4.75397 10.3832 4.73394 10.4134 4.71742 10.4455C4.70732 10.4611 4.69047 10.4706 4.68198 10.4874L2.63934 14.5668L0.100744 17.9595C0.0442745 18.035 0.00992087 18.1246 0.00152884 18.2185C-0.0068632 18.3124 0.0110376 18.4067 0.0532274 18.491C0.0954172 18.5753 0.160231 18.6462 0.240412 18.6957C0.320594 18.7452 0.412979 18.7715 0.507225 18.7715V18.7715ZM14.8418 1.7265C15.2977 1.27507 15.9138 1.02254 16.5553 1.02412C17.1969 1.0257 17.8118 1.28126 18.2655 1.73493C18.7191 2.18859 18.9747 2.80343 18.9763 3.44502C18.9779 4.0866 18.7254 4.70271 18.274 5.15862L9.286 14.1466L5.8538 10.7144L14.8418 1.7265ZM5.27482 11.571L8.42944 14.7256L5.23616 16.3257L3.67571 14.7643L5.27482 11.571ZM3.10943 15.6338L4.46166 16.9866L3.88169 17.7563H1.52142L3.10943 15.6338Z" fill="#171723"/>
<path d="M19.4595 18.9838H0.507105C0.372483 18.9838 0.243374 19.0372 0.148182 19.1324C0.05299 19.2276 -0.000488281 19.3567 -0.000488281 19.4914C-0.000488281 19.626 0.05299 19.7551 0.148182 19.8503C0.243374 19.9455 0.372483 19.999 0.507105 19.999H19.4595C19.5942 19.999 19.7233 19.9455 19.8185 19.8503C19.9137 19.7551 19.9671 19.626 19.9671 19.4914C19.9671 19.3567 19.9137 19.2276 19.8185 19.1324C19.7233 19.0372 19.5942 18.9838 19.4595 18.9838Z" fill="#171723"/>
</svg>
