<svg width="24" height="24" viewBox="0 0 24 24" fill="none" xmlns="http://www.w3.org/2000/svg">
<g clip-path="url(#clip0_10317_147260)">
<path d="M20.6748 2.53619H3.32642C1.54268 2.53619 0.0966797 3.9822 0.0966797 5.76593V18.2329C0.0966797 20.0167 1.54268 21.4627 3.32642 21.4627H20.6748C22.4585 21.4627 23.9045 20.0167 23.9045 18.2329V5.76593C23.9045 3.9822 22.4585 2.53619 20.6748 2.53619Z" fill="white"/>
<path d="M20.6745 21.5588H3.32555C2.44389 21.5577 1.59867 21.207 0.975245 20.5836C0.351823 19.9601 0.00110025 19.1149 0 18.2333V5.76555C0.00110025 4.8839 0.351823 4.03867 0.975245 3.41525C1.59867 2.79183 2.44389 2.4411 3.32555 2.44H20.6745C21.5561 2.4411 22.4013 2.79183 23.0248 3.41525C23.6482 4.03867 23.9989 4.8839 24 5.76555V18.2333C23.9989 19.1149 23.6482 19.9601 23.0248 20.5836C22.4013 21.207 21.5561 21.5577 20.6745 21.5588ZM3.32555 2.63181C2.49477 2.6329 1.69834 2.96341 1.11089 3.55086C0.523445 4.1383 0.192938 4.93474 0.191848 5.76551V18.2332C0.192938 19.064 0.523445 19.8604 1.11089 20.4479C1.69834 21.0353 2.49477 21.3658 3.32555 21.3669H20.6745C21.5052 21.3658 22.3017 21.0353 22.8891 20.4479C23.4766 19.8604 23.8071 19.064 23.8082 18.2332V5.76555C23.8071 4.93478 23.4766 4.13834 22.8891 3.55089C22.3017 2.96345 21.5052 2.63294 20.6745 2.63185L3.32555 2.63181Z" fill="#E4E4E4"/>
<path d="M14.2146 15.7319C16.2531 15.7319 17.9057 14.0794 17.9057 12.0408C17.9057 10.0022 16.2531 8.34967 14.2146 8.34967C12.176 8.34967 10.5234 10.0022 10.5234 12.0408C10.5234 14.0794 12.176 15.7319 14.2146 15.7319Z" fill="#FDA135"/>
<path d="M9.6008 15.7319C11.6394 15.7319 13.2919 14.0794 13.2919 12.0408C13.2919 10.0022 11.6394 8.34967 9.6008 8.34967C7.56225 8.34967 5.90967 10.0022 5.90967 12.0408C5.90967 14.0794 7.56225 15.7319 9.6008 15.7319Z" fill="#FB2129"/>
</g>
<defs>
<clipPath id="clip0_10317_147260">
<rect width="24" height="24" fill="white"/>
</clipPath>
</defs>
</svg>
