<svg width="20" height="20" viewBox="0 0 20 20" fill="none" xmlns="http://www.w3.org/2000/svg">
<path fill-rule="evenodd" clip-rule="evenodd" d="M9.45515 19.8184C9.63676 19.9092 9.81837 20 9.99998 20C10.1816 20 10.3632 19.9092 10.454 19.8184L12.6333 18.2747H15.2667C15.7207 18.2747 16.084 18.0023 16.1748 17.639L16.992 15.0965L19.1714 13.5528C19.5346 13.3712 19.6254 12.9171 19.5346 12.5539L18.7173 10.0114L19.6254 7.46879C19.7162 7.10556 19.6254 6.74234 19.2622 6.46992L17.0828 4.92622L16.2656 2.38366C16.084 2.02043 15.7207 1.74801 15.3575 1.74801H12.7242L10.6356 0.204313C10.2724 -0.0681044 9.90917 -0.0681044 9.54595 0.204313L7.3666 1.74801H4.73323C4.2792 1.74801 3.91598 2.02043 3.82517 2.38366L3.00792 4.92622L0.828578 6.46992C0.465355 6.65153 0.374549 7.10556 0.465355 7.46879L1.28261 10.0114L0.374549 12.5539C0.283743 12.9171 0.374549 13.2804 0.737772 13.5528L2.91711 15.0965L3.73437 17.639C3.91598 18.0023 4.2792 18.2747 4.64243 18.2747H7.2758L9.45515 19.8184ZM8.3759 12.9057C8.55751 13.0873 8.73912 13.1781 9.01154 13.1781C9.28396 13.1781 9.46557 13.0873 9.64718 12.9057L14.1875 8.3654C14.5507 8.00217 14.5507 7.45734 14.1875 7.09411C13.8243 6.73089 13.2794 6.73089 12.9162 7.09411L9.01154 10.9988L7.37703 9.36426C7.01381 9.00104 6.46897 9.00104 6.10575 9.36426C5.74253 9.72749 5.74253 10.2723 6.10575 10.6355L8.3759 12.9057Z" fill="#171723"/>
</svg>
