<svg width="20" height="20" viewBox="0 0 20 20" fill="none" xmlns="http://www.w3.org/2000/svg">
<path d="M16.8677 4.56543C16.8523 4.4096 16.8139 4.25653 16.7537 4.11133C16.6735 3.91751 16.5554 3.74128 16.4071 3.59294C16.2587 3.44459 16.0825 3.32654 15.8887 3.24626C15.6949 3.16605 15.4872 3.125 15.2775 3.125H8.05583C7.63215 3.125 7.22586 3.29335 6.92627 3.59294C6.62668 3.89252 6.45833 4.29881 6.45833 4.72249V11.9442L6.46647 12.1021C6.50279 12.4677 6.66413 12.8116 6.92627 13.0737C7.22586 13.3733 7.63215 13.5417 8.05583 13.5417H15.2775C15.4872 13.5417 15.6949 13.5006 15.8887 13.4204C16.0825 13.3401 16.2587 13.2221 16.4071 13.0737C16.5554 12.9254 16.6735 12.7492 16.7537 12.5553C16.8139 12.4101 16.8523 12.2571 16.8677 12.1012L16.875 11.9442V4.72249L16.8677 4.56543ZM18.125 11.9442L18.1217 12.0841C18.1057 12.4102 18.0337 12.7316 17.9085 13.0339C17.7654 13.3793 17.5553 13.6931 17.2909 13.9575C17.0264 14.2219 16.7127 14.4321 16.3672 14.5752C16.0217 14.7183 15.6514 14.7917 15.2775 14.7917H8.05583C7.30062 14.7917 6.57649 14.4915 6.04248 13.9575C5.54175 13.4568 5.24641 12.7889 5.21159 12.085L5.20833 11.9442V4.72249C5.20833 3.96729 5.50847 3.24316 6.04248 2.70915C6.57649 2.17514 7.30063 1.875 8.05583 1.875H15.2775C15.6514 1.875 16.0217 1.9484 16.3672 2.09147C16.7127 2.23457 17.0264 2.44473 17.2909 2.70915C17.5553 2.97356 17.7654 3.28734 17.9085 3.63281C18.0516 3.97826 18.125 4.34859 18.125 4.72249V11.9442Z" fill="#171723"/>
<path d="M1.875 15.8311V7.49613L1.8807 7.34476C1.90475 6.9933 2.00948 6.65096 2.1875 6.34541C2.39096 5.99638 2.68288 5.70729 3.03385 5.50719C3.33373 5.33624 3.71495 5.44088 3.8859 5.74076C4.05676 6.04052 3.95279 6.42178 3.65316 6.59281C3.4932 6.684 3.3601 6.8162 3.26742 6.97529C3.17476 7.13437 3.12544 7.31529 3.125 7.49938V15.8311C3.12514 16.4025 3.59526 16.8728 4.16667 16.8728H12.5C12.6954 16.8728 12.8051 16.8255 12.8857 16.767C12.9798 16.6985 13.0826 16.5783 13.2039 16.3601C13.3717 16.0588 13.752 15.9501 14.0535 16.1175C14.3552 16.2853 14.4638 16.6663 14.2961 16.968C14.1327 17.2618 13.9229 17.5584 13.6198 17.7785C13.3029 18.0085 12.9296 18.1228 12.5 18.1228H4.16667C2.90491 18.1228 1.87514 17.0928 1.875 15.8311Z" fill="#171723"/>
<path d="M13.3333 5.20833C13.6785 5.20833 13.9583 5.48816 13.9583 5.83333C13.9583 6.17851 13.6785 6.45833 13.3333 6.45833H9.16667C8.82149 6.45833 8.54167 6.17851 8.54167 5.83333C8.54167 5.48816 8.82149 5.20833 9.16667 5.20833H13.3333Z" fill="#171723"/>
<path d="M14.1667 7.70833C14.5118 7.70833 14.7917 7.98816 14.7917 8.33333C14.7917 8.67851 14.5118 8.95833 14.1667 8.95833H9.16667C8.82149 8.95833 8.54167 8.67851 8.54167 8.33333C8.54167 7.98816 8.82149 7.70833 9.16667 7.70833H14.1667Z" fill="#171723"/>
<path d="M11.6667 10.2083C12.0118 10.2083 12.2917 10.4882 12.2917 10.8333C12.2917 11.1785 12.0118 11.4583 11.6667 11.4583H9.16667C8.82149 11.4583 8.54167 11.1785 8.54167 10.8333C8.54167 10.4882 8.82149 10.2083 9.16667 10.2083H11.6667Z" fill="#171723"/>
</svg>
