<svg width="20" height="20" viewBox="0 0 20 20" fill="none" xmlns="http://www.w3.org/2000/svg">
<path d="M10 20C9.81839 20 9.63677 19.9092 9.45516 19.8184L7.27582 18.2747H4.64245C4.27923 18.2747 3.916 18.0023 3.73439 17.639L2.91714 15.0965L0.737795 13.5528C0.374572 13.2804 0.283766 12.9171 0.374572 12.5539L1.28263 10.0114L0.465378 7.46879C0.374572 7.10556 0.465378 6.65153 0.828601 6.46992L3.00794 4.92622L3.8252 2.38366C3.916 2.02043 4.27923 1.74801 4.73325 1.74801H7.36663L9.54597 0.204313C9.90919 -0.0681044 10.2724 -0.0681044 10.6356 0.204313L12.7242 1.74801H15.3575C15.7208 1.74801 16.084 2.02043 16.2656 2.38366L17.0829 4.92622L19.2622 6.46992C19.6254 6.74234 19.7162 7.10556 19.6254 7.46879L18.7174 10.0114L19.5346 12.5539C19.6254 12.9171 19.5346 13.3712 19.1714 13.5528L16.9921 15.0965L16.1748 17.639C16.084 18.0023 15.7208 18.2747 15.2667 18.2747H12.6334L10.454 19.8184C10.3632 19.9092 10.1816 20 10 20ZM7.63904 16.4586C7.82066 16.4586 8.00227 16.5494 8.18388 16.6402L10 18.0023L11.8161 16.6402C11.9977 16.5494 12.1793 16.4586 12.361 16.4586H14.6311L15.3575 14.2792C15.4484 14.0976 15.5392 13.916 15.7208 13.8252L17.5369 12.4631L16.8104 10.2838C16.7196 10.1022 16.7196 9.92055 16.8104 9.73893L17.5369 7.55959L15.7208 6.1975C15.5392 6.1067 15.4484 5.92509 15.3575 5.74347L14.6311 3.56413H12.361C12.1793 3.56413 11.9977 3.47333 11.8161 3.38252L10 2.02043L8.18388 3.38252C8.00227 3.47333 7.82066 3.56413 7.63904 3.56413H5.3689L4.64245 5.74347C4.55164 5.92509 4.46084 6.1067 4.27923 6.1975L2.46311 7.55959L3.18955 9.73893C3.28036 9.92055 3.28036 10.1022 3.18955 10.2838L2.46311 12.4631L4.27923 13.8252C4.46084 13.916 4.55164 14.0976 4.64245 14.2792L5.3689 16.4586H7.63904Z" fill="#171723"/>
<path d="M9.09152 13.1895C8.8191 13.1895 8.63749 13.0987 8.45588 12.9171L6.18573 10.6469C5.82251 10.2837 5.82251 9.73888 6.18573 9.37566C6.54895 9.01243 7.09379 9.01243 7.45701 9.37566L9.09152 11.0102L12.9962 7.10551C13.3594 6.74228 13.9042 6.74228 14.2675 7.10551C14.6307 7.46873 14.6307 8.01357 14.2675 8.37679L9.72716 12.9171C9.54555 13.0987 9.36394 13.1895 9.09152 13.1895Z" fill="#171723"/>
</svg>
