<svg width="20" height="20" viewBox="0 0 20 20" fill="none" xmlns="http://www.w3.org/2000/svg">
<path d="M9.13077 12.1404C9.21116 12.1692 9.29267 12.1939 9.37491 12.2145V18.882C9.26374 18.8552 9.15317 18.8239 9.04532 18.7827L9.03637 18.7794L3.80199 16.6936C3.46606 16.56 3.19165 16.306 3.03214 15.9816C2.87264 15.6569 2.83889 15.2836 2.93855 14.9358L4.2211 10.4461L9.13077 12.1404Z" fill="#171723"/>
<path d="M17.0605 14.9375C17.1598 15.285 17.1264 15.6572 16.9669 15.9816C16.8073 16.3059 16.5329 16.5593 16.197 16.6928L10.9626 18.7794L10.9545 18.7827C10.8466 18.8239 10.7361 18.8552 10.6249 18.882V12.2145C10.7071 12.1939 10.7887 12.1692 10.8691 12.1404L10.8682 12.1396L15.795 10.5104L17.0605 14.9375Z" fill="#171723"/>
<path d="M15.8878 9.16353L10.6249 10.9002V7.21366C10.7308 7.1872 10.8355 7.15364 10.9382 7.11356L10.939 7.11437L17.0572 5.07499L15.8878 9.16353Z" fill="#171723"/>
<path d="M9.06078 7.11356C9.1638 7.15379 9.26874 7.18716 9.37491 7.21366V10.8994L4.0852 9.07726L2.93855 5.06278C2.92146 5.00298 2.90956 4.9422 2.9003 4.8813L9.06078 7.11356Z" fill="#171723"/>
<path d="M9.04532 1.21756C9.58304 1.01223 10.1708 0.987072 10.7209 1.14107L10.9545 1.21756L10.9626 1.22082L16.1962 3.30659C16.4626 3.41243 16.6904 3.59439 16.8529 3.82661L10.524 5.93517L10.498 5.94575C10.3444 6.00758 10.1821 6.03941 10.0194 6.04178C10.0065 6.04197 9.99331 6.04197 9.98038 6.04178C9.81777 6.0394 9.65545 6.00758 9.50186 5.94575L9.47582 5.93517L3.26 3.68257C3.40837 3.51874 3.5935 3.38957 3.80199 3.30659L9.03637 1.22082L9.04532 1.21756Z" fill="#171723"/>
</svg>
