<svg width="20" height="20" viewBox="0 0 20 20" fill="none" xmlns="http://www.w3.org/2000/svg">
<path fill-rule="evenodd" clip-rule="evenodd" d="M10 6.04162C10.0065 6.04162 10.013 6.04172 10.0195 6.04192C10.0065 6.04211 9.99358 6.04211 9.98064 6.04192C9.98709 6.04172 9.99356 6.04162 10 6.04162Z" fill="#171723"/>
<path fill-rule="evenodd" clip-rule="evenodd" d="M9.04568 1.21739C9.5835 1.01201 10.1711 0.9868 10.7213 1.14089L10.9549 1.21739L10.963 1.22064L16.1966 3.30642C16.5327 3.43999 16.8085 3.69384 16.968 4.01849C17.1276 4.34326 17.1606 4.71641 17.0608 5.06423L15.6497 9.99994L17.0608 14.9373C17.1602 15.2849 17.1267 15.657 16.9672 15.9814C16.8077 16.3058 16.5333 16.5591 16.1974 16.6926L10.963 18.7792L10.9549 18.7825C10.3402 19.0173 9.66036 19.0172 9.04568 18.7825L9.03673 18.7792L3.80235 16.6935C3.46629 16.5599 3.19205 16.3059 3.0325 15.9814C2.87294 15.6566 2.83916 15.2835 2.93891 14.9356L4.34923 9.99912L2.93891 5.0626C2.83959 4.71504 2.87305 4.34289 3.0325 4.01849C3.19202 3.69405 3.4664 3.44001 3.80235 3.30642L9.03673 1.22064L9.04568 1.21739ZM9.49164 2.38519C9.77818 2.27578 10.0912 2.26238 10.3844 2.3445L10.5089 2.38519L15.2479 4.27357L10.5241 5.93501L10.4981 5.94559C10.3445 6.00744 10.1821 6.03955 10.0195 6.04192C10.0065 6.04211 9.99358 6.04211 9.98064 6.04192C9.81797 6.03955 9.65564 6.00744 9.502 5.94559L9.47596 5.93501L4.75202 4.27352L9.49164 2.38519ZM4.15392 15.4296C4.13125 15.3833 4.12671 15.3295 4.1409 15.2799L5.41764 10.8127L9.13091 12.1403C9.21131 12.1691 9.29279 12.1938 9.37505 12.2144V17.5682L4.26459 15.5322L4.26378 15.5314C4.21593 15.5122 4.17664 15.4759 4.15392 15.4296ZM15.8458 15.4296C15.8231 15.4759 15.7838 15.5122 15.7359 15.5314L10.625 17.5684V12.2144C10.7073 12.1938 10.7888 12.1691 10.8692 12.1403L10.8684 12.1394L14.5821 10.8127L15.8588 15.2807C15.873 15.3302 15.8685 15.3834 15.8458 15.4296ZM10.9384 7.1134L10.9392 7.11421L15.6487 5.45711L14.487 9.51988L10.625 10.9001V7.21323C10.7309 7.18677 10.8356 7.15349 10.9384 7.1134ZM9.37505 10.8993V7.21349C9.26887 7.18699 9.16394 7.15363 9.06092 7.1134L4.35177 5.4571L5.51269 9.51969L9.37505 10.8993Z" fill="#171723"/>
</svg>
