<svg width="20" height="20" viewBox="0 0 20 20" fill="none" xmlns="http://www.w3.org/2000/svg">
<path d="M9.04598 1.21775C9.58375 1.01242 10.1716 0.986521 10.7218 1.1406L10.9552 1.21775L10.963 1.22067L16.1964 3.30661C16.5325 3.44018 16.8083 3.69391 16.9679 4.01853C17.1274 4.34329 17.1604 4.7166 17.0606 5.06442L15.6495 9.99997L17.0606 14.9375C17.1599 15.285 17.1264 15.657 16.9669 15.9814C16.8074 16.3058 16.5332 16.5588 16.1973 16.6924L10.963 18.7793L10.9552 18.7822C10.3405 19.017 9.66062 19.0169 9.04598 18.7822L9.03719 18.7793L3.80281 16.6933C3.46675 16.5598 3.19186 16.306 3.0323 15.9814C2.87279 15.6567 2.83881 15.2833 2.93855 14.9355L4.34969 9.999L2.93855 5.06247C2.83933 4.71501 2.87293 4.34283 3.0323 4.01853C3.19183 3.69409 3.46686 3.4402 3.80281 3.30661L9.03719 1.22067L9.04598 1.21775ZM4.1407 15.2802C4.12664 15.3297 4.13177 15.3835 4.15438 15.4297C4.1771 15.4758 4.21601 15.5121 4.26375 15.5312L4.26473 15.5322L9.37508 17.5683V12.2148C9.29286 12.1942 9.2113 12.1694 9.13094 12.1406L5.41805 10.8125L4.1407 15.2802ZM10.8682 12.1396L10.8692 12.1406C10.7888 12.1694 10.7073 12.1942 10.6251 12.2148V17.5683L15.7364 15.5312C15.7841 15.5121 15.8231 15.4758 15.8458 15.4297C15.8684 15.3835 15.8725 15.3307 15.8585 15.2812L14.5821 10.8125L10.8682 12.1396ZM10.9395 7.11423L10.9386 7.11325C10.8358 7.15333 10.7309 7.18641 10.6251 7.21286V10.9004L14.4874 9.5195L15.6485 5.457L10.9395 7.11423ZM5.51277 9.5195L9.37508 10.8994V7.21384C9.2689 7.18734 9.16365 7.15348 9.06063 7.11325L4.35164 5.457L5.51277 9.5195ZM10.3848 2.3447C10.0917 2.26258 9.77782 2.2763 9.49129 2.38571L4.75203 4.27341L9.47566 5.93552L9.50203 5.94528C9.65564 6.00712 9.81791 6.03959 9.98055 6.04196C9.99349 6.04215 10.0067 6.04215 10.0196 6.04196C10.1822 6.03958 10.3445 6.00711 10.4981 5.94528L10.5245 5.93552L15.2481 4.27341L10.5089 2.38571L10.3848 2.3447Z" fill="#171723"/>
</svg>
