<svg width="20" height="20" viewBox="0 0 20 20" fill="none" xmlns="http://www.w3.org/2000/svg">
<path fill-rule="evenodd" clip-rule="evenodd" d="M16.2753 6.22473C16.1699 6.11955 16.0267 6.05137 15.8681 6.04262C16.1971 6.06067 16.4583 6.33316 16.4583 6.66667C16.4583 6.50091 16.3925 6.34194 16.2753 6.22473Z" fill="#171723"/>
<path fill-rule="evenodd" clip-rule="evenodd" d="M11.4688 6.86453C11.7423 7.13802 12.1132 7.29167 12.5 7.29167H15.2083V15.8333C15.2083 16.1096 15.0986 16.3746 14.9032 16.5699C14.7079 16.7653 14.4429 16.875 14.1667 16.875H13.3333C12.9882 16.875 12.7083 17.1548 12.7083 17.5C12.7083 17.8452 12.9882 18.125 13.3333 18.125H14.1667C14.7745 18.125 15.3573 17.8836 15.7871 17.4538C16.2169 17.024 16.4583 16.4411 16.4583 15.8333V6.66667C16.4583 6.50091 16.3925 6.34194 16.2753 6.22473L12.1086 2.05806C11.9914 1.94085 11.8324 1.875 11.6667 1.875H5.83333C5.22555 1.875 4.64265 2.11644 4.21288 2.54621C3.78311 2.97598 3.54167 3.55888 3.54167 4.16667V10C3.54167 10.3452 3.82149 10.625 4.16667 10.625C4.51184 10.625 4.79167 10.3452 4.79167 10V4.16667C4.79167 3.8904 4.90141 3.62545 5.09676 3.4301C5.29211 3.23475 5.55707 3.125 5.83333 3.125H11.0417V5.83333C11.0417 6.22011 11.1953 6.59104 11.4688 6.86453ZM12.2917 5.83333C12.2917 5.88859 12.3136 5.94158 12.3527 5.98065C12.3918 6.01972 12.4447 6.04167 12.5 6.04167H14.3245L12.2917 4.00888V5.83333Z" fill="#171723"/>
<path fill-rule="evenodd" clip-rule="evenodd" d="M1.70817 11.8977C1.9789 11.8227 2.2664 11.9376 2.41093 12.1784L3.75 14.4102L5.08907 12.1784C5.2336 11.9376 5.5211 11.8227 5.79183 11.8977C6.06257 11.9727 6.25 12.2191 6.25 12.5V17.5C6.25 17.8452 5.97018 18.125 5.625 18.125C5.27982 18.125 5 17.8452 5 17.5V14.7565L4.28593 15.9466C4.17298 16.1348 3.96954 16.25 3.75 16.25C3.53046 16.25 3.32702 16.1348 3.21407 15.9466L2.5 14.7565V17.5C2.5 17.8452 2.22018 18.125 1.875 18.125C1.52982 18.125 1.25 17.8452 1.25 17.5V12.5C1.25 12.2191 1.43743 11.9727 1.70817 11.8977Z" fill="#171723"/>
<path fill-rule="evenodd" clip-rule="evenodd" d="M7.5 12.5C7.5 12.1548 7.77982 11.875 8.125 11.875H9.375C9.87228 11.875 10.3492 12.0725 10.7008 12.4242C11.0525 12.7758 11.25 13.2527 11.25 13.75V16.25C11.25 16.7473 11.0525 17.2242 10.7008 17.5758C10.3492 17.9275 9.87228 18.125 9.375 18.125H8.125C7.77982 18.125 7.5 17.8452 7.5 17.5V12.5ZM8.75 13.125V16.875H9.375C9.54076 16.875 9.69973 16.8092 9.81694 16.6919C9.93415 16.5747 10 16.4158 10 16.25V13.75C10 13.5842 9.93415 13.4253 9.81694 13.3081C9.69973 13.1908 9.54076 13.125 9.375 13.125H8.75Z" fill="#171723"/>
</svg>
