<svg width="20" height="20" viewBox="0 0 20 20" fill="none" xmlns="http://www.w3.org/2000/svg">
<path d="M7.71919 10.9054C6.74612 11.2824 5.88414 11.8992 5.21337 12.6986C4.54259 13.498 4.08478 14.454 3.88249 15.4778H0.80401C0.591156 15.477 0.387253 15.3921 0.236741 15.2415C0.0862296 15.091 0.00131225 14.8871 0.000496759 14.6743V13.7008C-0.00080889 12.9858 0.148704 12.2786 0.439275 11.6253C0.729846 10.972 1.15494 10.3873 1.6868 9.9094C2.21274 9.42445 2.8362 9.05745 3.51547 8.83298C4.19473 8.60851 4.91411 8.53175 5.62544 8.60783C5.78391 8.61915 5.94238 8.6644 6.10077 8.68706C6.37132 9.5895 6.9424 10.3723 7.71919 10.9054V10.9054Z" fill="#171723"/>
<path d="M15.1215 16.9605V17.6961C15.1209 17.801 15.0996 17.9046 15.0588 18.0012C15.0181 18.0978 14.9587 18.1854 14.884 18.259C14.8094 18.3325 14.721 18.3907 14.6238 18.4301C14.5267 18.4694 14.4227 18.4893 14.3179 18.4884H5.68242C5.57761 18.4893 5.47365 18.4694 5.37651 18.4301C5.27937 18.3907 5.19095 18.3326 5.11631 18.259C5.04167 18.1854 4.98228 18.0978 4.94155 18.0012C4.90081 17.9046 4.87952 17.801 4.87891 17.6961V16.7228C4.87856 15.3649 5.41705 14.0624 6.37616 13.1011C7.33527 12.1399 8.63662 11.5985 9.99451 11.5958C10.1643 11.5958 10.334 11.6072 10.5038 11.6185C11.796 11.7847 12.9814 12.4216 13.8334 13.4072C14.6853 14.3928 15.144 15.6579 15.1215 16.9605V16.9605Z" fill="#171723"/>
<path d="M19.9993 13.9386V14.6743C19.9999 14.78 19.9794 14.8847 19.9393 14.9825C19.8991 15.0802 19.8399 15.169 19.7652 15.2437C19.6904 15.3184 19.6016 15.3776 19.5039 15.4178C19.4061 15.458 19.3014 15.4784 19.1957 15.4778H16.072C15.8446 14.4675 15.3787 13.5262 14.7132 12.7327C14.0477 11.9392 13.2019 11.3166 12.2466 10.9168C13.0384 10.3918 13.6227 9.60743 13.899 8.69846C14.3851 8.58848 14.8858 8.5579 15.3816 8.6079C16.6721 8.7733 17.8563 9.40834 18.7081 10.3917C19.56 11.375 20.0196 12.6377 19.9993 13.9386Z" fill="#171723"/>
<path d="M17.8373 4.47689C17.8365 5.26309 17.5239 6.01688 16.9679 6.57281C16.412 7.12873 15.6582 7.44139 14.872 7.44214C14.6038 7.43396 14.3376 7.39214 14.0798 7.31766C14.0484 6.62046 13.8382 5.94304 13.4696 5.35043C13.1009 4.75783 12.5861 4.26993 11.9746 3.93359C12.1079 3.20739 12.5082 2.55738 13.0967 2.11148C13.6851 1.66558 14.4192 1.45608 15.1544 1.52421C15.8896 1.59234 16.5726 1.93317 17.0691 2.47962C17.5656 3.02607 17.8396 3.73856 17.8372 4.47689H17.8373Z" fill="#171723"/>
<path d="M12.9706 7.49871C12.9704 8.03422 12.8252 8.55968 12.5504 9.0193C12.2756 9.47893 11.8815 9.85556 11.4098 10.1092C10.9382 10.3629 10.4067 10.4841 9.87173 10.4599C9.33677 10.4358 8.81832 10.2673 8.37144 9.9722C7.92456 9.67714 7.56592 9.26656 7.3336 8.78407C7.10129 8.30158 7.00397 7.76518 7.05198 7.23183C7.09999 6.69848 7.29154 6.18809 7.60628 5.75484C7.92102 5.32159 8.34722 4.98166 8.83961 4.77115C8.8622 4.75982 8.88485 4.75982 8.89619 4.74849C9.2491 4.60776 9.62537 4.53481 10.0053 4.53345C10.3779 4.5348 10.7468 4.6078 11.0918 4.74849C11.1144 4.75982 11.1371 4.75982 11.1597 4.77115C11.6957 4.9982 12.1532 5.37781 12.4751 5.86276C12.7971 6.34771 12.9694 6.91662 12.9706 7.49871V7.49871Z" fill="#171723"/>
<path d="M8.02532 3.93356C7.4134 4.27229 6.89856 4.76228 6.53001 5.35672C6.16146 5.95116 5.95151 6.63018 5.92022 7.3289C5.65841 7.40134 5.38827 7.4394 5.11663 7.44212C4.55314 7.44332 4.00097 7.28395 3.52478 6.98265C3.0486 6.68135 2.66813 6.25061 2.42793 5.74088C2.18772 5.23114 2.09773 4.66352 2.1685 4.10448C2.23926 3.54545 2.46785 3.01815 2.82749 2.58434C3.18713 2.15054 3.66293 1.82819 4.19917 1.65504C4.7354 1.4819 5.30987 1.46514 5.8553 1.60671C6.40072 1.74829 6.89451 2.04234 7.27883 2.45444C7.66316 2.86653 7.92211 3.3796 8.02535 3.93356H8.02532Z" fill="#171723"/>
</svg>
