<svg width="20" height="20" viewBox="0 0 20 20" fill="none" xmlns="http://www.w3.org/2000/svg">
<path d="M7.49999 9.16669C8.42046 9.16669 9.16665 8.4205 9.16665 7.50003C9.16665 6.57955 8.42046 5.83336 7.49999 5.83336C6.57951 5.83336 5.83332 6.57955 5.83332 7.50003C5.83332 8.4205 6.57951 9.16669 7.49999 9.16669Z" fill="#171723"/>
<path d="M19.1667 15.8333H17.5V5C17.5 3.62167 16.3783 2.5 15 2.5H4.16667V0.833333C4.16667 0.373333 3.79417 0 3.33333 0C2.8725 0 2.5 0.373333 2.5 0.833333V2.5H0.833333C0.3725 2.5 0 2.87333 0 3.33333C0 3.79333 0.3725 4.16667 0.833333 4.16667H2.5V15C2.5 16.3783 3.62167 17.5 5 17.5H15.8333V19.1667C15.8333 19.6267 16.2058 20 16.6667 20C17.1275 20 17.5 19.6267 17.5 19.1667V17.5H19.1667C19.6275 17.5 20 17.1267 20 16.6667C20 16.2067 19.6275 15.8333 19.1667 15.8333ZM15 4.16667C15.46 4.16667 15.8333 4.54083 15.8333 5V10.7833L13.95 8.9C13.4 8.34917 12.4333 8.34917 11.8833 8.9L7.91667 12.8667L6.86667 11.8167C6.31667 11.2658 5.35 11.2658 4.8 11.8167L4.16667 12.4492V4.16667H15Z" fill="#171723"/>
</svg>
