<svg width="20" height="20" viewBox="0 0 20 20" fill="none" xmlns="http://www.w3.org/2000/svg">
<g clip-path="url(#clip0_10317_147053)">
<path d="M19.4915 18.983H16.6322C15.0087 18.9812 13.4521 18.3355 12.3041 17.1875C11.1561 16.0395 10.5103 14.483 10.5085 12.8595V1.75081L11.595 2.85771C11.6421 2.90613 11.6985 2.94458 11.7608 2.97077C11.823 2.99696 11.8899 3.01035 11.9575 3.01015C12.0577 3.01028 12.1557 2.98077 12.2392 2.92533C12.3227 2.8699 12.3879 2.79101 12.4266 2.6986C12.4654 2.60619 12.4759 2.50438 12.457 2.40599C12.438 2.3076 12.3903 2.21702 12.32 2.14564L10.3674 0.156469L10.3655 0.153489L10.3604 0.150073C10.3139 0.103172 10.2587 0.0657721 10.1979 0.0399562L10.1975 0.0398343C10.1534 0.024105 10.1073 0.0146399 10.0606 0.0117155C10.0427 0.00707783 10.0247 0.00339104 10.0064 0.000671134L10.0044 0.000915293L10 0C9.96832 0.00319246 9.93703 0.00949066 9.90658 0.0188036C9.87552 0.021613 9.84478 0.0273089 9.81478 0.0358174L9.81087 0.0381055C9.75716 0.0607744 9.7078 0.0926156 9.66501 0.132205C9.65867 0.137798 9.65053 0.139598 9.64445 0.145486L9.64371 0.146503L9.63725 0.153398L7.59758 2.14117C7.54978 2.18774 7.51163 2.24326 7.48529 2.30456C7.45895 2.36587 7.44494 2.43177 7.44407 2.49849C7.44319 2.56521 7.45547 2.63145 7.4802 2.69342C7.50493 2.7554 7.54162 2.8119 7.58818 2.8597C7.63475 2.90749 7.69027 2.94565 7.75158 2.97199C7.81289 2.99833 7.87878 3.01233 7.94551 3.0132C8.01223 3.01408 8.07847 3.0018 8.14045 2.97707C8.20243 2.95235 8.25893 2.91565 8.30672 2.86909L9.49151 1.7145V12.8595C9.48969 14.483 8.84393 16.0395 7.6959 17.1875C6.54787 18.3355 4.99132 18.9812 3.36776 18.983H0.508492C0.373631 18.983 0.244294 19.0366 0.148934 19.132C0.0535729 19.2273 0 19.3567 0 19.4915C0 19.6264 0.0535729 19.7557 0.148934 19.8511C0.244294 19.9464 0.373631 20 0.508492 20H3.36776C4.7975 19.9979 6.19376 19.5671 7.37608 18.7632C8.55839 17.9593 9.47241 16.8193 10 15.4905C10.5276 16.8193 11.4416 17.9593 12.6239 18.7632C13.8062 19.5671 15.2025 19.9979 16.6322 20H19.4915C19.6264 20 19.7557 19.9464 19.8511 19.8511C19.9464 19.7557 20 19.6264 20 19.4915C20 19.3567 19.9464 19.2273 19.8511 19.132C19.7557 19.0366 19.6264 18.983 19.4915 18.983Z" fill="#171723"/>
</g>
<defs>
<clipPath id="clip0_10317_147053">
<rect width="20" height="20" fill="white"/>
</clipPath>
</defs>
</svg>
