<svg width="20" height="20" viewBox="0 0 20 20" fill="none" xmlns="http://www.w3.org/2000/svg">
<path fill-rule="evenodd" clip-rule="evenodd" d="M18.9583 9.98484C18.9586 9.99552 18.9586 10.0063 18.9584 10.0171L18.9581 10.0249L18.9584 9.99959L18.9583 9.98484Z" fill="#171723"/>
<path fill-rule="evenodd" clip-rule="evenodd" d="M18.5303 11.0242C18.6643 10.8912 18.772 10.7343 18.8452 10.5603C18.9166 10.3907 18.9549 10.2087 18.9581 10.0249L18.9584 9.99959L18.9583 9.98484L18.9579 9.96353C18.9534 9.78332 18.9152 9.6052 18.8452 9.43888C18.7719 9.26469 18.6653 9.10725 18.5311 8.9742L11.1605 1.51733L11.1516 1.50838L11.0311 1.40259C10.7395 1.16973 10.3763 1.04126 10 1.04126C9.57013 1.04126 9.15689 1.20889 8.84849 1.50838L8.83954 1.51733L1.46975 8.97502C1.3356 9.10806 1.22814 9.2655 1.15481 9.4397C1.08016 9.6171 1.04169 9.80794 1.04169 10.0004C1.04169 10.1929 1.08016 10.3837 1.15481 10.5611C1.22806 10.7351 1.33579 10.892 1.46975 11.025L1.46893 11.0258L8.83954 18.4835L8.8493 18.4932C9.15794 18.7921 9.57119 18.959 10.0008 18.9587C10.4304 18.9584 10.8433 18.7908 11.1516 18.4916L11.1605 18.4827L18.5311 11.025L18.5303 11.0242ZM10.8944 12.9972C10.8086 13.0259 10.718 13.0491 10.625 13.0675V17.2449L16.4616 11.3406L10.8944 12.9972ZM9.37502 13.0675C9.28204 13.0491 9.19141 13.0259 9.10565 12.9972L3.53714 11.3402L9.37502 17.2465V13.0675ZM10.625 2.75429V11.7734L17.5146 9.7238L10.625 2.75429ZM9.37502 11.7734V2.75351L2.48553 9.72369L9.37502 11.7734Z" fill="#171723"/>
</svg>
