<svg width="20" height="20" viewBox="0 0 20 20" fill="none" xmlns="http://www.w3.org/2000/svg">
<path fill-rule="evenodd" clip-rule="evenodd" d="M18.9582 9.98486L18.9583 9.99959L18.9581 10.0249C18.9582 10.019 18.9583 10.0054 18.9583 9.99959C18.9583 9.99467 18.9584 9.98976 18.9582 9.98486Z" fill="#171723"/>
<path fill-rule="evenodd" clip-rule="evenodd" d="M18.8452 10.5603C18.7719 10.7343 18.6642 10.8912 18.5302 11.0242L11.1604 18.4827L11.1515 18.4916C10.8433 18.7908 10.4303 18.9584 10.0008 18.9587C9.57113 18.959 9.15788 18.7921 8.84924 18.4932L8.83948 18.4835L1.46887 11.0258C1.33491 10.8928 1.228 10.7351 1.15474 10.5611C1.0801 10.3837 1.04163 10.1929 1.04163 10.0004C1.04163 9.80794 1.0801 9.6171 1.15474 9.4397C1.22808 9.26551 1.33554 9.10806 1.46969 8.97502L8.83948 1.51733L8.84843 1.50838C9.15683 1.20889 9.57007 1.04126 9.99996 1.04126C10.3762 1.04126 10.7395 1.16973 11.031 1.40259L11.1515 1.50838L11.1604 1.51733L18.531 8.9742C18.6652 9.10725 18.7718 9.26469 18.8452 9.43888C18.9179 9.61176 18.9563 9.7974 18.9582 9.98486L18.9583 9.99959L18.9581 10.0249C18.9548 10.2087 18.9165 10.3907 18.8452 10.5603ZM9.37496 13.0675C9.28198 13.0491 9.19135 13.0259 9.10559 12.9972L3.53707 11.3402L9.37496 17.2465V13.0675ZM10.625 13.0675V17.2449L16.4615 11.3406L10.8943 12.9972C10.8086 13.0259 10.7179 13.0491 10.625 13.0675ZM9.37496 2.75351V11.7734L2.48547 9.72369L9.37496 2.75351ZM10.625 11.7734V2.75429L17.5146 9.7238L10.625 11.7734Z" fill="#171723"/>
</svg>
