<svg width="20" height="20" viewBox="0 0 20 20" fill="none" xmlns="http://www.w3.org/2000/svg">
<path d="M9.10596 12.9977C9.19142 13.0263 9.28188 13.0487 9.37451 13.067V18.8356C9.18096 18.7566 9.00204 18.6409 8.84912 18.4928C8.84595 18.4897 8.84246 18.4862 8.83936 18.483L1.46924 11.026C1.39084 10.9482 1.32293 10.8601 1.26416 10.7672L9.10596 12.9977Z" fill="#171723"/>
<path d="M18.7036 10.8151C18.6521 10.8896 18.5944 10.96 18.5298 11.0241L18.5308 11.025L11.1606 18.483C11.1578 18.486 11.1548 18.489 11.1519 18.4918C10.9985 18.6407 10.8188 18.7563 10.6245 18.8356V13.067C10.7173 13.0487 10.8084 13.0263 10.894 12.9977L18.7036 10.8151Z" fill="#171723"/>
<path d="M9.37451 11.7731L1.15479 9.43813C1.22804 9.26462 1.33559 9.10786 1.46924 8.97523L8.83936 1.51723C8.84224 1.51431 8.84521 1.5113 8.84814 1.50844C9.0013 1.3597 9.18044 1.24302 9.37451 1.16371V11.7731Z" fill="#171723"/>
<path d="M10.6245 1.16469C10.7699 1.2241 10.9068 1.30396 11.0308 1.40297L11.1519 1.50844L11.1606 1.51723L18.5308 8.97426C18.6649 9.10731 18.7719 9.26491 18.8452 9.4391C18.8503 9.45126 18.8541 9.46393 18.8589 9.47621L10.6245 11.7731V1.16469Z" fill="#171723"/>
</svg>
