<svg width="20" height="20" viewBox="0 0 20 20" fill="none" xmlns="http://www.w3.org/2000/svg">
<path fill-rule="evenodd" clip-rule="evenodd" d="M1.70288 5.59427C2.69327 4.06763 4.12256 3 5.76188 3C5.76202 3 5.76217 3 5.76231 3C6.71151 3.00009 7.65535 3.28111 8.64056 4.08573C9.16012 4.50967 9.69616 5.06594 10.2726 5.7958C10.7409 5.16315 11.246 4.56483 11.7895 4.09083C12.5938 3.38972 13.4608 3.00024 14.3337 3.00024C15.7992 3.00024 17.195 3.84947 18.2633 5.44221C19.4325 7.18649 20 9.38367 20 11.651C20 12.9989 19.7343 13.9893 19.2822 14.7718C18.8455 15.5284 17.9942 16.2845 16.5621 16.2845V16.2843H16.5617C15.6714 16.2843 14.8827 16.091 14.0106 15.2681C13.3404 14.6366 12.5562 13.5148 11.9532 12.5063L10.1595 9.51009C10.1084 9.42473 10.0576 9.34059 10.007 9.25774L9.85247 9.53145L9.22232 10.6478C7.95664 12.8925 7.63595 13.4035 7.00302 14.247C5.89376 15.7241 4.94643 16.2842 3.69943 16.2842C2.22008 16.2842 1.28465 15.6436 0.70526 14.6782L0.70522 14.6783C0.232309 13.8917 0 12.8595 0 11.6835M2.5471 13.4655C2.83436 13.9299 3.26271 14.127 3.69943 14.127C4.26274 14.127 4.77812 13.9872 5.77128 12.6135C6.33232 11.8374 6.96369 10.8404 7.50841 9.98023L7.50842 9.98021L7.50845 9.98017C7.73642 9.62018 7.94922 9.28415 8.13533 8.9983L8.98551 7.69203C8.57017 7.10054 8.21287 6.6504 7.9562 6.37748C7.44223 5.83151 6.7816 5.17231 5.72746 5.17212C4.87413 5.17212 4.14939 5.77095 3.54294 6.68695C2.68533 7.98128 2.16065 9.9092 2.16065 11.7606C2.16065 12.5243 2.3282 13.1106 2.54735 13.4653L2.5471 13.4655ZM1.70288 5.59427L1.7032 5.59446L1.70288 5.59427ZM0 11.6834C1.69261e-05 9.54479 0.586987 7.31582 1.7032 5.59446L0 11.6834ZM12.301 8.80227C11.9346 8.19189 11.5867 7.64283 11.2539 7.14893C11.3132 7.05689 11.3724 6.96704 11.4313 6.87946C12.3654 5.49071 13.1965 4.7116 14.2294 4.7116C15.1843 4.7116 16.0523 5.3431 16.722 6.37664C17.6659 7.83374 18.0943 9.87291 18.0943 11.7104V11.7106L18.0938 11.7106C18.0938 12.7721 17.8865 13.7233 17.1293 14.0265C16.9667 14.0915 16.7788 14.1267 16.5621 14.1267V14.1269H16.5617C16.0783 14.1269 15.7062 13.9348 15.1749 13.2909C14.7617 12.7894 14.0558 11.7259 12.815 9.65888L12.301 8.80227Z" fill="url(#paint0_linear_17759_4540)"/>
<defs>
<linearGradient id="paint0_linear_17759_4540" x1="2.88111" y1="12.6676" x2="2.88111" y2="7.59038" gradientUnits="userSpaceOnUse">
<stop stop-color="#0082FB"/>
<stop offset="1" stop-color="#0064E0"/>
</linearGradient>
</defs>
</svg>
