<svg width="20" height="20" viewBox="0 0 20 20" fill="none" xmlns="http://www.w3.org/2000/svg">
<path d="M10.7829 2.29814C10.8181 2.28934 10.8551 2.28973 10.8904 2.29977L16.7237 3.96643C16.8131 3.99199 16.8751 4.07361 16.8751 4.16663V15C16.8751 15.0832 16.8254 15.1583 16.7489 15.1912L10.9156 17.6912C10.8687 17.7113 10.8159 17.7139 10.7675 17.6977L3.26747 15.1977C3.17055 15.1654 3.11115 15.0674 3.1275 14.9666C3.14386 14.8657 3.23121 14.7916 3.33339 14.7916H10.6251V5.30758L6.87506 6.80742V10.8333C6.87506 10.9122 6.83008 10.9844 6.7595 11.0197L3.42616 12.6863C3.36165 12.7184 3.28484 12.7153 3.22353 12.6774C3.1622 12.6394 3.12506 12.5721 3.12506 12.5V5.8333C3.12506 5.75096 3.17352 5.6763 3.24875 5.64287L10.7488 2.30953L10.7829 2.29814Z" fill="#171723"/>
</svg>
