<svg width="20" height="20" viewBox="0 0 20 20" fill="none" xmlns="http://www.w3.org/2000/svg">
<g clip-path="url(#clip0_18905_2087)">
<path d="M18.1818 0.909058H14.5454V4.54542H18.1818V0.909058Z" fill="black"/>
<path d="M19.9999 0.909058H16.3635V4.54542H19.9999V0.909058Z" fill="#F7D046"/>
<path d="M3.63636 0.909058H0V4.54542H3.63636V0.909058Z" fill="black"/>
<path d="M3.63636 4.54541H0V8.18177H3.63636V4.54541Z" fill="black"/>
<path d="M3.63636 8.18176H0V11.8181H3.63636V8.18176Z" fill="black"/>
<path d="M3.63636 11.8181H0V15.4545H3.63636V11.8181Z" fill="black"/>
<path d="M3.63636 15.4545H0V19.0908H3.63636V15.4545Z" fill="black"/>
<path d="M5.45448 0.909058H1.81812V4.54542H5.45448V0.909058Z" fill="#F7D046"/>
<path d="M19.9999 4.54541H16.3635V8.18177H19.9999V4.54541Z" fill="#F2A73B"/>
<path d="M5.45448 4.54541H1.81812V8.18177H5.45448V4.54541Z" fill="#F2A73B"/>
<path d="M14.5455 4.54541H10.9092V8.18177H14.5455V4.54541Z" fill="black"/>
<path d="M16.3637 4.54541H12.7273V8.18177H16.3637V4.54541Z" fill="#F2A73B"/>
<path d="M9.09095 4.54541H5.45459V8.18177H9.09095V4.54541Z" fill="#F2A73B"/>
<path d="M12.7272 8.18176H9.09082V11.8181H12.7272V8.18176Z" fill="#EE792F"/>
<path d="M16.3637 8.18176H12.7273V11.8181H16.3637V8.18176Z" fill="#EE792F"/>
<path d="M9.09095 8.18176H5.45459V11.8181H9.09095V8.18176Z" fill="#EE792F"/>
<path d="M10.9091 11.8181H7.27271V15.4545H10.9091V11.8181Z" fill="black"/>
<path d="M12.7272 11.8181H9.09082V15.4545H12.7272V11.8181Z" fill="#EB5829"/>
<path d="M19.9999 8.18176H16.3635V11.8181H19.9999V8.18176Z" fill="#EE792F"/>
<path d="M5.45448 8.18176H1.81812V11.8181H5.45448V8.18176Z" fill="#EE792F"/>
<path d="M18.1818 11.8181H14.5454V15.4545H18.1818V11.8181Z" fill="black"/>
<path d="M19.9999 11.8181H16.3635V15.4545H19.9999V11.8181Z" fill="#EB5829"/>
<path d="M18.1818 15.4545H14.5454V19.0908H18.1818V15.4545Z" fill="black"/>
<path d="M5.45448 11.8181H1.81812V15.4545H5.45448V11.8181Z" fill="#EB5829"/>
<path d="M19.9999 15.4545H16.3635V19.0908H19.9999V15.4545Z" fill="#EA3326"/>
<path d="M5.45448 15.4545H1.81812V19.0908H5.45448V15.4545Z" fill="#EA3326"/>
</g>
<defs>
<clipPath id="clip0_18905_2087">
<rect width="20" height="20" fill="white"/>
</clipPath>
</defs>
</svg>
