<svg width="20" height="20" viewBox="0 0 20 20" fill="none" xmlns="http://www.w3.org/2000/svg">
<g clip-path="url(#clip0_16271_224543)">
<path d="M16.1463 4.64591H11.0339C10.8073 4.64591 10.6232 4.83464 10.6232 5.06789C10.6232 5.30072 10.8073 5.48987 11.0339 5.48987H16.1463C16.373 5.48987 16.5571 5.30072 16.5571 5.06789C16.5571 4.83464 16.373 4.64591 16.1463 4.64591Z" fill="#171723"/>
<path d="M3.94833 5.48987H8.45464C8.46627 5.48987 8.4759 5.48369 8.48753 5.48287V6.47848C8.48753 6.71173 8.67125 6.90046 8.89829 6.90046C9.12493 6.90046 9.30905 6.71173 9.30905 6.47848V3.6569C9.30905 3.42365 9.12493 3.23491 8.89829 3.23491C8.67125 3.23491 8.48753 3.42365 8.48753 3.6569V4.65251C8.4759 4.65168 8.46627 4.64592 8.45464 4.64592H3.94833C3.72169 4.64592 3.53757 4.83465 3.53757 5.0679C3.53757 5.30073 3.72169 5.48987 3.94833 5.48987Z" fill="#171723"/>
<path d="M16.1463 9.71009H14.0011V8.68646C14.0011 8.45363 13.817 8.26448 13.5903 8.26448C13.3633 8.26448 13.1796 8.45363 13.1796 8.68646V11.5085C13.1796 11.7413 13.3633 11.9304 13.5903 11.9304C13.817 11.9304 14.0011 11.7413 14.0011 11.5085V10.5541H16.1463C16.373 10.5541 16.5571 10.3649 16.5571 10.1321C16.5571 9.89883 16.373 9.71009 16.1463 9.71009Z" fill="#171723"/>
<path d="M3.94833 10.5541H11.3408C11.5674 10.5541 11.7515 10.3649 11.7515 10.1321C11.7515 9.89883 11.5674 9.71009 11.3408 9.71009H3.94833C3.72169 9.71009 3.53757 9.89883 3.53757 10.1321C3.53757 10.3649 3.72169 10.5541 3.94833 10.5541Z" fill="#171723"/>
<path d="M16.1463 14.7743H8.8983C8.67126 14.7743 8.48754 14.963 8.48754 15.1963C8.48754 15.4295 8.67126 15.6182 8.8983 15.6182H16.1463C16.373 15.6182 16.5571 15.4295 16.5571 15.1963C16.5571 14.963 16.373 14.7743 16.1463 14.7743Z" fill="#171723"/>
<path d="M6.69528 13.3633C6.46824 13.3633 6.28452 13.5524 6.28452 13.7853V14.7743H3.94833C3.72169 14.7743 3.53757 14.963 3.53757 15.1963C3.53757 15.4295 3.72169 15.6182 3.94833 15.6182H6.28452V16.6073C6.28452 16.8401 6.46824 17.0292 6.69528 17.0292C6.92192 17.0292 7.10604 16.8401 7.10604 16.6073V13.7853C7.10604 13.5524 6.92192 13.3633 6.69528 13.3633Z" fill="#171723"/>
<path d="M16.3742 0H3.62582C1.62659 0 0 1.67103 0 3.7253V16.2751C0 18.329 1.62659 20 3.62582 20H16.3742C18.3734 20 20 18.329 20 16.2751V3.7253C20 1.67103 18.3734 0 16.3742 0ZM19.1785 16.2751C19.1785 17.8637 17.9205 19.156 16.3742 19.156H3.62582C2.07946 19.156 0.821517 17.8637 0.821517 16.2751V3.7253C0.821517 2.13628 2.07946 0.843962 3.62582 0.843962H16.3742C17.9205 0.843962 19.1785 2.13628 19.1785 3.7253V16.2751Z" fill="#171723"/>
</g>
<defs>
<clipPath id="clip0_16271_224543">
<rect width="20" height="20" fill="white"/>
</clipPath>
</defs>
</svg>
