<svg width="20" height="20" viewBox="0 0 20 20" fill="none" xmlns="http://www.w3.org/2000/svg">
<g clip-path="url(#clip0_14521_205375)">
<path d="M8.08727 11.9481L7.03954 14.2167C6.99594 14.2082 6.95153 14.2048 6.90716 14.2065C6.7759 14.206 6.64543 14.2266 6.5207 14.2675L4.58768 10.9104C4.67009 10.8244 4.74184 10.7288 4.80139 10.6256L7.7007 11.1953C7.74075 11.4827 7.87702 11.7481 8.08727 11.9481Z" fill="#171723"/>
<path d="M4.95402 9.82195C4.92346 9.5389 4.79368 9.27581 4.58768 9.07932L6.5207 5.73239C6.6338 5.76341 6.74954 5.78385 6.86642 5.79343L8.20938 9.99489C8.06788 10.1018 7.9501 10.2369 7.8635 10.3916L4.95402 9.82195Z" fill="#171723"/>
<path d="M8.98248 9.75084L7.63957 5.53921C7.64975 5.52903 7.65992 5.52903 7.67009 5.51886L10.834 7.60433C10.8015 7.70982 10.7843 7.81947 10.7831 7.92987C10.7833 8.12855 10.8321 8.32416 10.9255 8.49955L9.53183 9.88309C9.36163 9.7965 9.17344 9.75119 8.98248 9.75084Z" fill="#171723"/>
<path d="M9.512 12.1719L12.0756 14.8271C12.0233 14.9263 11.9856 15.0325 11.9636 15.1425H8.12836C8.06862 14.9181 7.94914 14.7142 7.78264 14.5524L8.83041 12.294C8.88127 12.294 8.92197 12.3042 8.97283 12.3042C9.16039 12.3026 9.34499 12.2573 9.512 12.1719V12.1719Z" fill="#171723"/>
<path d="M11.2821 6.92268L8.12836 4.84738H11.9026C11.983 5.13182 12.1546 5.38201 12.391 5.55949L12.0451 6.64801C11.7681 6.65668 11.501 6.75284 11.2821 6.92268Z" fill="#171723"/>
<path d="M11.4957 9.06913C11.671 9.16257 11.8667 9.21148 12.0654 9.21156C12.4097 9.20899 12.7389 9.06996 12.9809 8.82498L14.9341 9.78125L10.1121 10.4527L11.4957 9.06913Z" fill="#171723"/>
<path d="M15.1682 10.5646C15.2281 10.6937 15.3108 10.8109 15.4124 10.9105L13.5303 14.1761C13.4233 14.1519 13.3143 14.1382 13.2047 14.1354C13.0148 14.1346 12.8271 14.1763 12.6554 14.2574L10.102 11.6125C10.1592 11.5001 10.2003 11.3803 10.224 11.2564L15.1682 10.5646Z" fill="#171723"/>
<path d="M13.4896 5.75281L15.4124 9.07939C15.4022 9.07939 15.4022 9.08956 15.3921 9.09973L13.3269 8.0926C13.3387 8.03909 13.3455 7.9846 13.3473 7.92983C13.3462 7.72903 13.2977 7.53131 13.2058 7.35277C13.1139 7.17424 12.9811 7.01993 12.8183 6.90241L13.1642 5.80372C13.2745 5.8025 13.3841 5.78535 13.4896 5.75281Z" fill="#171723"/>
<path d="M15.9308 -0.00512683H4.06889C3.53447 -0.00526048 3.00527 0.0999014 2.51151 0.304351C2.01775 0.5088 1.56911 0.808531 1.19123 1.18642C0.813338 1.56431 0.513607 2.01295 0.309157 2.5067C0.104708 3.00046 -0.000453961 3.52967 -0.000320307 4.06408V15.936C0.0011143 17.0148 0.430294 18.049 1.19311 18.8118C1.95592 19.5746 2.99011 20.0038 4.06889 20.0052H15.9308C17.0096 20.0038 18.0438 19.5746 18.8066 18.8118C19.5694 18.049 19.9986 17.0148 20 15.936V4.06408C20.0001 3.52967 19.895 3.00046 19.6905 2.5067C19.4861 2.01295 19.1863 1.56431 18.8085 1.18642C18.4306 0.808531 17.9819 0.5088 17.4882 0.304351C16.9944 0.0999014 16.4652 -0.00526048 15.9308 -0.00512683ZM16.3071 11.2768C16.2557 11.275 16.2047 11.2682 16.1546 11.2564L14.2116 14.6237C14.3918 14.8486 14.4888 15.1289 14.4861 15.4172C14.4851 15.7069 14.3855 15.9876 14.2037 16.2132C14.022 16.4388 13.7689 16.5958 13.486 16.6586C13.2032 16.7213 12.9075 16.6859 12.6474 16.5583C12.3873 16.4307 12.1784 16.2184 12.0549 15.9563H8.09749C8.00092 16.1931 7.83626 16.3958 7.62437 16.5389C7.41249 16.6819 7.16291 16.7589 6.90724 16.76C6.67275 16.7608 6.44257 16.697 6.24191 16.5757C6.04125 16.4544 5.87786 16.2801 5.76965 16.0721C5.66143 15.8641 5.61256 15.6303 5.6284 15.3963C5.64423 15.1624 5.72416 14.9373 5.85942 14.7458L3.84516 11.2564C3.79512 11.2682 3.74405 11.275 3.69267 11.2768C3.35271 11.2768 3.02668 11.1417 2.7863 10.9013C2.54592 10.6609 2.41087 10.3349 2.41087 9.99495C2.41087 9.655 2.54592 9.32897 2.7863 9.08858C3.02668 8.8482 3.35271 8.71315 3.69267 8.71315C3.74405 8.71491 3.79512 8.72173 3.84516 8.7335L5.84925 5.2645C5.71052 5.07319 5.62738 4.84726 5.60899 4.61166C5.5906 4.37607 5.63769 4.13997 5.74505 3.92946C5.85242 3.71894 6.01587 3.54219 6.21738 3.41874C6.41888 3.29529 6.65058 3.22993 6.8869 3.22989C7.14158 3.22974 7.3904 3.30634 7.6009 3.4497C7.8114 3.59306 7.97382 3.79652 8.06697 4.03356H11.953C12.0525 3.80044 12.2184 3.60181 12.4301 3.46249C12.6419 3.32317 12.89 3.24934 13.1434 3.25024C13.4806 3.25037 13.804 3.38439 14.0424 3.62284C14.2809 3.86128 14.4149 4.18465 14.415 4.52187C14.4165 4.79724 14.3271 5.06541 14.1607 5.28484L16.1546 8.7335C16.2047 8.72173 16.2557 8.71491 16.3071 8.71315C16.6471 8.71315 16.9731 8.8482 17.2135 9.08858C17.4539 9.32897 17.5889 9.655 17.5889 9.99495C17.5889 10.3349 17.4539 10.6609 17.2135 10.9013C16.9731 11.1417 16.6471 11.2768 16.3071 11.2768H16.3071Z" fill="#171723"/>
</g>
<defs>
<clipPath id="clip0_14521_205375">
<rect width="20" height="20" fill="white"/>
</clipPath>
</defs>
</svg>
