<svg width="20" height="20" viewBox="0 0 20 20" fill="none" xmlns="http://www.w3.org/2000/svg">
<g clip-path="url(#clip0_14521_205374)">
<path d="M15.9322 20H4.06779C1.82478 20 0 18.1752 0 15.9322V4.06779C0 1.82478 1.82478 0 4.06779 0H15.9322C18.1752 0 20 1.82478 20 4.06779V15.9322C20 18.1752 18.1752 20 15.9322 20ZM4.06779 1.01695C2.38552 1.01695 1.01695 2.38552 1.01695 4.06779V15.9322C1.01695 17.6145 2.38552 18.9831 4.06779 18.9831H15.9322C17.6145 18.9831 18.9831 17.6145 18.9831 15.9322V4.06779C18.9831 2.38552 17.6145 1.01695 15.9322 1.01695H4.06779Z" fill="#171723"/>
<path d="M16.3037 8.71644C16.2505 8.71644 16.2001 8.72576 16.1488 8.73206L14.1624 5.29075C14.3209 5.07771 14.4179 4.81647 14.4179 4.53059C14.4179 3.82394 13.845 3.25108 13.1384 3.25108C12.606 3.25108 12.1502 3.57654 11.9575 4.03911H8.07154C7.88201 3.56945 7.4238 3.23724 6.88625 3.23724C6.17961 3.23724 5.60675 3.81005 5.60675 4.51675C5.60675 4.79708 5.69949 5.05424 5.85242 5.26505L3.85079 8.732C3.79961 8.72575 3.74933 8.71643 3.69647 8.71643C2.98982 8.71643 2.41696 9.28928 2.41696 9.99593C2.41696 10.7026 2.98982 11.2754 3.69647 11.2754C3.74943 11.2754 3.79981 11.2661 3.85118 11.2599L5.86333 14.7458C5.71535 14.9546 5.62659 15.208 5.62659 15.4832C5.62659 16.1899 6.19945 16.7628 6.90609 16.7628C7.44642 16.7628 7.90602 16.4268 8.09367 15.9533H12.0512C12.2552 16.389 12.6944 16.6928 13.2074 16.6928C13.9141 16.6928 14.4869 16.12 14.4869 15.4133C14.4869 15.1135 14.3794 14.8413 14.2067 14.6232L16.1492 11.2599C16.2003 11.2661 16.2507 11.2754 16.3037 11.2754C17.0102 11.2754 17.5831 10.7026 17.5831 9.99593C17.5831 9.28928 17.0102 8.71643 16.3037 8.71643L16.3037 8.71644ZM15.391 9.10061L13.3258 8.09573C13.3327 8.04193 13.3422 7.98891 13.3422 7.93328C13.3422 7.50909 13.1333 7.13603 12.8156 6.9032L13.1623 5.80772C13.277 5.80559 13.3863 5.78491 13.4918 5.75446L15.4117 9.08063C15.4047 9.08732 15.3978 9.09376 15.391 9.10061V9.10061ZM11.9585 15.1408H8.13333C8.07005 14.9142 7.94935 14.7128 7.78322 14.5557L8.83075 12.2929C8.87677 12.2979 8.9214 12.3068 8.96871 12.3068C9.16558 12.3068 9.34995 12.2587 9.51657 12.1792L12.0759 14.8277C12.0249 14.9261 11.9827 15.0295 11.9585 15.1408V15.1408ZM12.3875 5.5623L12.0414 6.6559C11.7527 6.66076 11.4902 6.76341 11.2785 6.92909L8.13035 4.85159H11.9045C11.9799 5.14159 12.1523 5.39067 12.3875 5.5623V5.5623ZM7.67036 5.52104L10.8304 7.60688C10.8026 7.71166 10.7832 7.81976 10.7832 7.93328C10.7832 8.13808 10.8358 8.3289 10.9212 8.50053L9.53592 9.88586C9.3695 9.80284 9.18454 9.75226 8.98648 9.74953L7.64122 5.54504C7.65133 5.53756 7.66046 5.52878 7.67037 5.52104H7.67036ZM10.1143 10.4564L11.4959 9.07487C11.6674 9.16026 11.8581 9.21278 12.0627 9.21278C12.4204 9.21278 12.743 9.0653 12.9751 8.82871L14.9289 9.77958L10.1143 10.4564V10.4564ZM6.51851 5.73616C6.62998 5.76978 6.74582 5.79259 6.86782 5.79438L8.21288 9.99966C8.06887 10.1058 7.95026 10.2414 7.86129 10.3975L4.95922 9.82977C4.92093 9.53759 4.78883 9.27586 4.58789 9.08023L6.51851 5.73617V5.73616ZM4.8035 10.6264L7.70608 11.1944C7.74535 11.4925 7.88361 11.758 8.09149 11.9548L7.04386 14.2176C6.99795 14.2127 6.95331 14.2037 6.90611 14.2037C6.77261 14.2037 6.64636 14.23 6.52526 14.2679L4.5879 10.9117C4.67359 10.8282 4.74381 10.7309 4.80351 10.6264H4.8035ZM13.5253 14.1784C13.423 14.1521 13.3178 14.1338 13.2074 14.1338C13.0103 14.1338 12.8257 14.1821 12.6589 14.2618L10.0999 11.6134C10.157 11.5036 10.2014 11.3868 10.2246 11.2612L15.1641 10.5667C15.2286 10.695 15.3103 10.8125 15.4123 10.9117L13.5253 14.1784V14.1784Z" fill="#171723"/>
</g>
<defs>
<clipPath id="clip0_14521_205374">
<rect width="20" height="20" fill="white"/>
</clipPath>
</defs>
</svg>
