<svg width="20" height="20" viewBox="0 0 20 20" fill="none" xmlns="http://www.w3.org/2000/svg">
<path d="M18.4455 8.42495C18.3804 8.42739 18.3155 8.43402 18.2513 8.44478L15.4454 3.5317C15.5776 3.35345 15.6707 3.14878 15.7185 2.93132C15.7663 2.71387 15.7677 2.48861 15.7227 2.27055C15.6776 2.0525 15.5872 1.84663 15.4573 1.66667C15.3274 1.48671 15.1611 1.33678 14.9695 1.22685C14.7778 1.11693 14.5652 1.04953 14.3458 1.02915C14.1264 1.00877 13.9051 1.03587 13.6969 1.10866C13.4886 1.18144 13.2981 1.29823 13.138 1.45126C12.9778 1.60428 12.8518 1.79003 12.7682 1.99615H7.27043C7.18985 1.7884 7.06635 1.60042 6.90819 1.44476C6.75003 1.28909 6.56084 1.16933 6.35325 1.09346C6.14566 1.01759 5.92444 0.987364 5.70438 1.00479C5.48431 1.02222 5.27046 1.08691 5.07709 1.19453C4.88372 1.30216 4.71529 1.45025 4.58303 1.62891C4.45078 1.80758 4.35775 2.01271 4.31016 2.23061C4.26256 2.44851 4.2615 2.67416 4.30703 2.89251C4.35256 3.11086 4.44365 3.31688 4.57421 3.49681L1.74849 8.44472C1.6843 8.43398 1.6195 8.42737 1.55448 8.42495C1.14221 8.42495 0.746819 8.59051 0.455297 8.88521C0.163775 9.17992 0 9.57962 0 9.9964C0 10.4132 0.163775 10.8129 0.455297 11.1076C0.746819 11.4023 1.14221 11.5678 1.55448 11.5678C1.6195 11.5654 1.6843 11.5588 1.74849 11.5481L4.58871 16.5218C4.46111 16.7031 4.37311 16.9097 4.33055 17.128C4.28798 17.3463 4.29184 17.5712 4.34186 17.7878C4.39187 18.0045 4.4869 18.2079 4.62064 18.3846C4.75438 18.5613 4.92377 18.7072 5.11756 18.8126C5.31135 18.9181 5.5251 18.9806 5.74464 18.9962C5.96418 19.0117 6.18448 18.9798 6.3909 18.9027C6.59733 18.8256 6.78517 18.705 6.94195 18.5488C7.09873 18.3927 7.22086 18.2046 7.30023 17.9971H12.8926C12.9844 18.1992 13.1176 18.3792 13.2835 18.5252C13.4494 18.6713 13.6441 18.7799 13.8547 18.844C14.0653 18.9081 14.287 18.9261 14.5051 18.8969C14.7231 18.8677 14.9325 18.7919 15.1194 18.6746C15.3062 18.5572 15.4662 18.4011 15.5888 18.2164C15.7113 18.0318 15.7936 17.8229 15.8301 17.6036C15.8666 17.3843 15.8566 17.1597 15.8006 16.9447C15.7446 16.7297 15.6441 16.5291 15.5055 16.3564L18.2513 11.548C18.3156 11.5588 18.3804 11.5654 18.4455 11.5679C18.8578 11.5679 19.2532 11.4023 19.5447 11.1076C19.8362 10.8129 20 10.4132 20 9.99641C20 9.57963 19.8362 9.17993 19.5447 8.88522C19.2532 8.59052 18.8578 8.42496 18.4455 8.42496L18.4455 8.42495ZM17.3261 8.91005L14.2963 7.42021C14.3458 7.1359 14.3123 6.84318 14.2 6.57777C14.0877 6.31236 13.9013 6.08576 13.6637 5.92561L14.2156 4.16443C14.3676 4.16151 14.5183 4.13581 14.6628 4.08817L17.3843 8.85361C17.3646 8.87227 17.3448 8.89035 17.3261 8.91005H17.3261ZM10.0114 10.7086L9.99671 10.6812L12.0591 8.59609C12.3545 8.75344 12.6927 8.80863 13.0221 8.75321C13.3515 8.6978 13.6538 8.53482 13.8829 8.28922L16.8311 9.73891L10.0114 10.7086ZM12.7728 17.033H7.35337C7.2791 16.7434 7.12417 16.4815 6.90698 16.2782L8.43285 12.9457C8.72962 12.9974 9.03494 12.9459 9.29903 12.7996L12.9311 16.599C12.8571 16.7349 12.8037 16.8812 12.7728 17.0331L12.7728 17.033ZM13.3067 3.8729L12.7553 5.63206C12.4062 5.63508 12.0685 5.75793 11.7975 5.98047L7.32006 2.99267C7.32303 2.98167 7.32722 2.9713 7.33002 2.96019H12.6971C12.7844 3.32893 13.001 3.6532 13.3066 3.87294L13.3067 3.8729ZM6.79435 3.79739L11.2717 6.78494C11.2158 6.97137 11.197 7.16714 11.2164 7.36095C11.2358 7.55475 11.293 7.74275 11.3847 7.91408L9.32233 9.99958C9.10599 9.88497 8.86574 9.82413 8.6215 9.82211L6.73212 3.84928C6.75401 3.83334 6.77327 3.81439 6.79435 3.79739ZM5.3511 4.06336C5.50364 4.11594 5.66341 4.14395 5.82455 4.14638L7.71405 10.1194C7.52854 10.2556 7.37513 10.4316 7.26481 10.6348L3.0903 9.80899C3.04834 9.44388 2.88021 9.10547 2.61555 8.85344L5.3511 4.06336ZM2.90779 10.7552L7.08254 11.581C7.12515 11.9496 7.29646 12.2908 7.56567 12.5432L6.03969 15.8761C5.97846 15.866 5.91667 15.8597 5.85468 15.8572C5.68618 15.8592 5.51915 15.8892 5.36027 15.946L2.61552 11.1394C2.73207 11.0274 2.83067 10.8978 2.90779 10.7552H2.90779ZM14.7085 15.8251C14.3448 15.7143 13.9528 15.7512 13.6156 15.9279L9.98397 12.1289C10.0622 11.9833 10.1168 11.8261 10.1457 11.6631L17.0524 10.6812C17.1346 10.853 17.2471 11.0083 17.3843 11.1393L14.7085 15.8251Z" fill="#171723"/>
</svg>
