<svg width="20" height="20" viewBox="0 0 20 20" fill="none" xmlns="http://www.w3.org/2000/svg">
<path d="M9.63475 18.077L10.0682 17.2629C10.1656 17.1127 10.2712 16.9797 10.3955 16.8559C10.7601 16.4959 11.0999 16.1116 11.4126 15.7058C12.147 14.7415 12.6424 13.6706 12.9962 12.5124C13.2083 11.8049 13.3235 11.0791 13.3321 10.3452C13.3677 8.15114 12.6155 6.26717 11.099 4.70142C10.8523 4.45313 10.5858 4.22534 10.3022 4.02031C10.1519 4.02031 10.0809 4.13552 10.019 4.2416C9.9062 4.43829 9.83115 4.65431 9.79767 4.87855C9.74438 5.14399 9.70936 5.40943 9.72662 5.6835V5.80734C9.71444 5.83373 9.58197 18.0146 9.63475 18.077Z" fill="#599636"/>
<path d="M9.63476 18.1035C9.617 18.139 9.59923 18.1121 9.58147 18.0948C9.5901 17.9172 9.52818 17.7589 9.43124 17.6076C9.32466 17.4574 9.18356 17.3422 9.04196 17.2183C8.25528 16.5372 7.63609 15.7145 7.14023 14.7943C6.48044 13.556 6.14039 12.2288 6.04396 10.8315C5.9998 10.3275 6.20332 8.54914 6.36218 8.03602C6.79561 6.6738 7.57417 5.53235 8.58264 4.54165C8.83032 4.30311 9.09525 4.08182 9.36932 3.86916C9.449 3.86916 9.45763 3.94022 9.4759 3.993C9.51084 4.10595 9.53747 4.2213 9.55559 4.33813L9.73322 5.66482L9.63476 18.1035Z" fill="#6CAC48"/>
<path d="M10.0682 3.48098C10.086 3.68399 10.1834 3.8525 10.2895 4.02049C10.1829 4.06465 10.1037 4.15245 10.0418 4.2504C9.98841 4.34315 9.94421 4.44089 9.90984 4.54224C9.786 4.91375 9.75961 5.30354 9.72408 5.68317V5.91309C9.67993 5.87756 9.67079 5.5771 9.67079 5.53244C9.64496 5.13119 9.59172 4.73218 9.51143 4.33821C9.48503 4.17884 9.46727 4.01998 9.36932 3.87838C9.36932 3.86062 9.36932 3.84285 9.37794 3.81646C9.53731 3.3475 9.58096 2.86991 9.60786 2.38318V2.20555C9.60786 1.9934 9.59923 2.03806 9.77534 1.96701C9.8464 1.94061 9.92557 1.93148 9.99663 1.87869C10.0499 1.87869 10.0585 1.92285 10.0585 1.95838L10.0322 2.25021V3.06429C10.0235 3.2064 10.0499 3.3475 10.0677 3.48047L10.0682 3.48098Z" fill="#C2BFBF"/>
</svg>
