<svg width="20" height="20" viewBox="0 0 20 20" fill="none" xmlns="http://www.w3.org/2000/svg">
<g clip-path="url(#clip0_19509_2145)">
<path d="M10 20C15.5228 20 20 15.5228 20 10C20 4.47715 15.5228 0 10 0C4.47715 0 0 4.47715 0 10C0 15.5228 4.47715 20 10 20Z" fill="#011F2B"/>
<path d="M12.89 8.57346C12.1865 5.31908 10.5238 4.24904 10.3448 3.84021C10.149 3.55178 9.95058 3.03876 9.95058 3.03876C9.94732 3.0301 9.9421 3.01482 9.93601 3C9.91578 3.28843 9.90533 3.3997 9.64515 3.69064C9.24226 4.0208 7.17515 5.83872 7.00698 9.53612C6.85013 12.9845 9.38366 15.0393 9.72629 15.3013L9.76523 15.3303V15.3278C9.76741 15.3451 9.87401 16.1486 9.94884 17H10.2173C10.2803 16.3982 10.3747 15.8004 10.5001 15.2094L10.5219 15.1946C10.6751 15.0794 10.8212 14.9542 10.9593 14.8195L10.975 14.8047C11.7033 14.0995 13.0127 12.4683 12.9999 9.86764C12.9972 9.43382 12.9605 9.00097 12.89 8.57346ZM9.92034 13.3544C9.92034 13.3544 9.92034 8.51783 10.0726 8.51874C10.1914 8.51874 10.3452 14.7573 10.3452 14.7573C10.1338 14.7306 9.92034 13.7306 9.92034 13.3544Z" fill="#46EA6E"/>
</g>
<defs>
<clipPath id="clip0_19509_2145">
<rect width="20" height="20" fill="white"/>
</clipPath>
</defs>
</svg>
