<svg width="20" height="20" viewBox="0 0 20 20" fill="none" xmlns="http://www.w3.org/2000/svg">
<path d="M5.19232 11.25C4.84857 11.25 4.55434 11.1276 4.30961 10.8827C4.06475 10.638 3.94232 10.3438 3.94232 10C3.94232 9.65625 4.06475 9.36201 4.30961 9.11729C4.55434 8.87243 4.84857 8.75 5.19232 8.75C5.53607 8.75 5.83038 8.87243 6.07524 9.11729C6.31996 9.36201 6.44232 9.65625 6.44232 10C6.44232 10.3438 6.31996 10.638 6.07524 10.8827C5.83038 11.1276 5.53607 11.25 5.19232 11.25ZM10 11.25C9.65628 11.25 9.36204 11.1276 9.11732 10.8827C8.87246 10.638 8.75003 10.3438 8.75003 10C8.75003 9.65625 8.87246 9.36201 9.11732 9.11729C9.36204 8.87243 9.65628 8.75 10 8.75C10.3438 8.75 10.638 8.87243 10.8827 9.11729C11.1276 9.36201 11.25 9.65625 11.25 10C11.25 10.3438 11.1276 10.638 10.8827 10.8827C10.638 11.1276 10.3438 11.25 10 11.25ZM14.8077 11.25C14.464 11.25 14.1697 11.1276 13.9248 10.8827C13.6801 10.638 13.5577 10.3438 13.5577 10C13.5577 9.65625 13.6801 9.36201 13.9248 9.11729C14.1697 8.87243 14.464 8.75 14.8077 8.75C15.1515 8.75 15.4457 8.87243 15.6904 9.11729C15.9353 9.36201 16.0577 9.65625 16.0577 10C16.0577 10.3438 15.9353 10.638 15.6904 10.8827C15.4457 11.1276 15.1515 11.25 14.8077 11.25Z" fill="#171723"/>
</svg>
