<svg width="20" height="20" viewBox="0 0 20 20" fill="none" xmlns="http://www.w3.org/2000/svg">
<path d="M10 16.0577C9.65625 16.0577 9.36201 15.9352 9.11729 15.6904C8.87243 15.4457 8.75 15.1514 8.75 14.8077C8.75 14.4639 8.87243 14.1696 9.11729 13.9248C9.36201 13.68 9.65625 13.5577 10 13.5577C10.3438 13.5577 10.638 13.68 10.8827 13.9248C11.1276 14.1696 11.25 14.4639 11.25 14.8077C11.25 15.1514 11.1276 15.4457 10.8827 15.6904C10.638 15.9352 10.3438 16.0577 10 16.0577ZM10 11.25C9.65625 11.25 9.36201 11.1275 9.11729 10.8827C8.87243 10.638 8.75 10.3437 8.75 9.99997C8.75 9.65622 8.87243 9.36198 9.11729 9.11726C9.36201 8.8724 9.65625 8.74997 10 8.74997C10.3438 8.74997 10.638 8.8724 10.8827 9.11726C11.1276 9.36198 11.25 9.65622 11.25 9.99997C11.25 10.3437 11.1276 10.638 10.8827 10.8827C10.638 11.1275 10.3438 11.25 10 11.25ZM10 6.44226C9.65625 6.44226 9.36201 6.3199 9.11729 6.07518C8.87243 5.83032 8.75 5.53601 8.75 5.19226C8.75 4.84851 8.87243 4.55427 9.11729 4.30955C9.36201 4.06469 9.65625 3.94226 10 3.94226C10.3438 3.94226 10.638 4.06469 10.8827 4.30955C11.1276 4.55427 11.25 4.84851 11.25 5.19226C11.25 5.53601 11.1276 5.83032 10.8827 6.07518C10.638 6.3199 10.3438 6.44226 10 6.44226Z" fill="#171723"/>
</svg>
