<svg width="20" height="20" viewBox="0 0 20 20" fill="none" xmlns="http://www.w3.org/2000/svg">
<g clip-path="url(#clip0_10314_145594)">
<path d="M19.9685 10.1537C19.9995 10.0705 20.0078 9.98053 19.9926 9.89304C19.9897 9.87248 19.9855 9.85213 19.98 9.83212C19.9595 9.74476 19.9156 9.66463 19.853 9.60033L18.415 8.19351C18.3674 8.14604 18.3108 8.10848 18.2486 8.08298C18.1864 8.05749 18.1197 8.04458 18.0525 8.045C17.9853 8.04541 17.9188 8.05914 17.8569 8.0854C17.795 8.11166 17.7389 8.14992 17.6919 8.19797C17.6449 8.24602 17.6078 8.30291 17.583 8.36536C17.5581 8.4278 17.5458 8.49456 17.5469 8.56177C17.5479 8.62898 17.5623 8.69531 17.5892 8.75693C17.6161 8.81855 17.6549 8.87423 17.7034 8.92076L18.25 9.45527H10.4755V1.71069L11.0847 2.30593C11.1815 2.39885 11.311 2.44981 11.4451 2.44772C11.5793 2.44564 11.7072 2.39068 11.801 2.2948C11.8948 2.19892 11.9469 2.06989 11.946 1.93577C11.9452 1.80166 11.8913 1.67331 11.7963 1.57867L10.3225 0.13858C10.2776 0.0964887 10.2255 0.062923 10.1686 0.0395296L10.1585 0.031279L10.1555 0.0309635C10.073 0.000651989 9.98406 -0.00758964 9.89744 0.00705553C9.87628 0.0099309 9.85534 0.0142479 9.83477 0.0199761C9.74744 0.0402866 9.66732 0.0840422 9.60303 0.146525L8.19577 1.58414C8.14835 1.63174 8.11083 1.68827 8.08538 1.75045C8.05993 1.81263 8.04705 1.87924 8.04749 1.94642C8.04793 2.01361 8.06168 2.08004 8.08795 2.14188C8.11421 2.20372 8.15247 2.25975 8.20051 2.30673C8.24856 2.35371 8.30543 2.39071 8.36786 2.41559C8.43028 2.44048 8.49702 2.45275 8.56422 2.45171C8.63141 2.45066 8.69774 2.43632 8.75936 2.40951C8.82098 2.3827 8.87668 2.34395 8.92324 2.2955L9.4579 1.74956V9.45527H1.75001L2.2966 8.92076C2.39154 8.8261 2.44526 8.69779 2.44608 8.56374C2.44691 8.4297 2.39478 8.30074 2.30102 8.20491C2.20725 8.10908 2.07944 8.05412 1.94537 8.05199C1.8113 8.04986 1.68181 8.10072 1.58504 8.19351L0.147029 9.60033C0.0844276 9.66462 0.0405198 9.74475 0.0200164 9.8321C0.0144793 9.85211 0.0102672 9.87246 0.00740763 9.89302C-0.00780782 9.98051 0.000508622 10.0705 0.0315054 10.1537L0.0317497 10.1562L0.0385884 10.1645C0.0622128 10.222 0.0962855 10.2746 0.139081 10.3196L1.57905 11.7926C1.62559 11.8411 1.68129 11.8799 1.74293 11.9067C1.80456 11.9336 1.87091 11.948 1.93814 11.949C2.00537 11.9501 2.07215 11.9378 2.13461 11.913C2.19707 11.8881 2.25397 11.8511 2.30204 11.8041C2.35011 11.7571 2.38838 11.701 2.41464 11.6391C2.44091 11.5772 2.45464 11.5108 2.45506 11.4436C2.45547 11.3763 2.44256 11.3097 2.41706 11.2475C2.39156 11.1853 2.35398 11.1288 2.3065 11.0812L1.71153 10.4727H9.45785V18.2445L8.92319 17.6985C8.82852 17.6035 8.70014 17.5497 8.56599 17.5488C8.43184 17.5479 8.30276 17.6 8.20686 17.6938C8.11096 17.7876 8.05598 17.9155 8.05389 18.0496C8.05181 18.1837 8.10278 18.3132 8.19572 18.4099L9.60294 19.847C9.67337 19.9192 9.76377 19.9688 9.86255 19.9894C9.96133 20.0099 10.064 20.0005 10.1574 19.9624L10.1584 19.9622L10.1614 19.9599C10.2212 19.9355 10.2759 19.8999 10.3224 19.8549L11.7962 18.4154C11.8911 18.3207 11.9449 18.1924 11.9457 18.0584C11.9465 17.9243 11.8944 17.7954 11.8006 17.6995C11.7069 17.6037 11.5791 17.5487 11.445 17.5466C11.3109 17.5445 11.1814 17.5953 11.0847 17.6881L10.4755 18.2832V10.4726H18.2884L17.6934 11.0812C17.6459 11.1287 17.6083 11.1853 17.5828 11.2475C17.5573 11.3097 17.5444 11.3763 17.5448 11.4435C17.5452 11.5107 17.559 11.5772 17.5852 11.6391C17.6115 11.701 17.6498 11.757 17.6978 11.804C17.7459 11.851 17.8028 11.888 17.8653 11.9129C17.9277 11.9378 17.9945 11.9501 18.0617 11.949C18.129 11.9479 18.1953 11.9335 18.257 11.9067C18.3186 11.8798 18.3743 11.841 18.4208 11.7925L19.8608 10.3196C19.9036 10.2746 19.9377 10.222 19.9613 10.1645L19.9681 10.1562L19.9685 10.1537Z" fill="#171723"/>
</g>
<defs>
<clipPath id="clip0_10314_145594">
<rect width="20" height="20" fill="white"/>
</clipPath>
</defs>
</svg>
