<svg width="20" height="20" viewBox="0 0 20 20" fill="none" xmlns="http://www.w3.org/2000/svg">
<g clip-path="url(#clip0_5313_35080)">
<path d="M18.1528 9.56167V5.57259C18.1522 4.97821 17.9044 4.40832 17.4639 3.98802C17.0234 3.56773 16.4261 3.33137 15.8031 3.33082H9.38871C9.27505 3.33123 9.16243 3.31008 9.05742 3.26861C8.9524 3.22714 8.85706 3.16616 8.77696 3.08923L7.12649 1.52491C6.95219 1.35792 6.74493 1.22555 6.51669 1.13545C6.28844 1.04535 6.04374 0.999319 5.79673 1.00001H2.3497C1.72832 0.999102 1.13193 1.23343 0.691415 1.65157C0.2509 2.06971 0.00224018 2.6375 0 3.23036V13.9172C0.000780887 14.5115 0.248622 15.0811 0.689137 15.5013C1.12965 15.9214 1.72686 16.1576 2.3497 16.1581H9.30068C9.69525 16.8519 10.2436 17.4554 10.9075 17.9265C11.5713 18.3976 12.3349 18.725 13.1449 18.8859C13.9549 19.0468 14.7919 19.0374 15.5977 18.8583C16.4035 18.6792 17.1587 18.3347 17.8108 17.8488C18.4628 17.3629 18.9961 16.7473 19.3734 16.0447C19.7507 15.3422 19.963 14.5697 19.9956 13.7809C20.0281 12.9921 19.8801 12.206 19.5619 11.4774C19.2436 10.7487 18.7628 10.095 18.1528 9.56167ZM2.3497 15.1878C1.99652 15.1875 1.65788 15.0535 1.40805 14.8154C1.15821 14.5772 1.01758 14.2542 1.01698 13.9172V3.23036C1.01902 2.89477 1.16047 2.57365 1.4103 2.33741C1.66013 2.10118 1.99796 1.96912 2.3497 1.97018H5.79668C5.91034 1.96977 6.02296 1.99091 6.12798 2.03239C6.233 2.07386 6.32833 2.13484 6.40844 2.21177L8.05891 3.77609C8.2332 3.94308 8.44047 4.07545 8.66871 4.16554C8.89696 4.25564 9.14166 4.30168 9.38866 4.30099H15.8031C16.1564 4.30135 16.4952 4.43544 16.7451 4.67383C16.9949 4.91223 17.1355 5.23546 17.1358 5.57259V8.84734C16.1422 8.30222 14.9992 8.05593 13.8565 8.14068C12.7138 8.22543 11.6244 8.63728 10.731 9.32234C9.8376 10.0074 9.1817 10.9338 8.84912 11.9803C8.51653 13.0268 8.52276 14.1448 8.86697 15.1879L2.3497 15.1878ZM14.3015 18.0227C13.3757 18.0226 12.4708 17.7606 11.701 17.2698C10.9313 16.779 10.3315 16.0814 9.97726 15.2653C9.62307 14.4492 9.53047 13.5512 9.71119 12.6849C9.8919 11.8186 10.3378 11.0229 10.9925 10.3984C11.6472 9.7739 12.4813 9.34864 13.3893 9.17641C14.2974 9.00418 15.2385 9.09271 16.0938 9.43082C16.9491 9.76893 17.6801 10.3414 18.1944 11.0759C18.7086 11.8104 18.9831 12.6739 18.983 13.5572C18.9817 14.7413 18.488 15.8765 17.6103 16.7137C16.7326 17.5509 15.5426 18.0217 14.3015 18.0227Z" fill="#171723"/>
<path d="M16.99 13.8071C16.988 13.7908 16.9848 13.7747 16.9806 13.7588C16.9646 13.6871 16.9294 13.6211 16.8788 13.5678L15.4359 12.125C15.3973 12.0857 15.3514 12.0544 15.3007 12.0329C15.25 12.0115 15.1955 12.0003 15.1404 12C15.0854 11.9997 15.0308 12.0104 14.9799 12.0313C14.9289 12.0523 14.8827 12.0831 14.8437 12.122C14.8048 12.161 14.774 12.2072 14.753 12.2582C14.7321 12.3091 14.7214 12.3637 14.7217 12.4187C14.722 12.4738 14.7332 12.5283 14.7546 12.579C14.7761 12.6297 14.8074 12.6756 14.8467 12.7142L15.5783 13.4458H12.4167C12.3062 13.4458 12.2002 13.4897 12.122 13.5678C12.0439 13.646 12 13.752 12 13.8625C12 13.973 12.0439 14.0789 12.122 14.1571C12.2002 14.2352 12.3062 14.2791 12.4167 14.2791H15.5779L14.8418 15.0148C14.8025 15.0533 14.7712 15.0993 14.7497 15.15C14.7283 15.2007 14.7171 15.2552 14.7168 15.3103C14.7165 15.3653 14.7272 15.4199 14.7481 15.4708C14.769 15.5217 14.7999 15.568 14.8388 15.607C14.8777 15.6459 14.924 15.6767 14.9749 15.6977C15.0259 15.7186 15.0804 15.7293 15.1355 15.729C15.1906 15.7287 15.245 15.7175 15.2958 15.6961C15.3465 15.6746 15.3924 15.6433 15.431 15.604L16.8787 14.157C16.9159 14.1193 16.9456 14.0748 16.9659 14.0259L16.9691 14.022L16.9692 14.0209C16.995 13.9528 17.0022 13.879 16.99 13.8071Z" fill="#171723"/>
</g>
<defs>
<clipPath id="clip0_5313_35080">
<rect width="20" height="20" fill="white"/>
</clipPath>
</defs>
</svg>
