<svg width="20" height="20" viewBox="0 0 20 20" fill="none" xmlns="http://www.w3.org/2000/svg">
<g clip-path="url(#clip0_17694_32923)">
<path d="M18.3872 8.9954H11.1201C11.6494 8.10966 11.9752 7.09122 11.9752 5.98568C11.9752 2.68532 9.28909 0 5.98778 0C2.68607 0 0 2.68531 0 5.98568C0 9.28685 2.68607 11.9722 5.98778 11.9722C6.47312 11.9722 6.93973 11.9017 7.38843 11.7853V18.3877C7.38843 18.443 7.39902 18.4951 7.40472 18.5489C7.40065 18.5896 7.40513 18.6295 7.41653 18.6685C7.55048 19.424 8.20765 20 9.00081 20H18.3872C19.2769 20 20 19.2771 20 18.3877V10.6077C20 9.71833 19.2769 8.9954 18.3872 8.9954ZM7.30801 10.3424V10.8147C6.88737 10.9356 6.44678 11.0065 5.98777 11.0065C3.21834 11.0065 0.965495 8.75432 0.965495 5.98568C0.965495 3.21781 3.21834 0.96522 5.98777 0.96522C8.75682 0.96522 11.0097 3.21781 11.0097 5.98568C11.0097 7.04541 10.6593 8.01343 10.0947 8.82261H8.82782C7.98962 8.82261 7.30801 9.50404 7.30801 10.3424ZM19.1503 18.3416C19.1503 18.8555 18.732 19.2737 18.2179 19.2737H9.17185C8.75434 19.2737 8.40431 18.9964 8.28581 18.6174L10.7383 16.1656C10.8364 16.0679 10.9655 16.0138 11.1029 16.0138H11.1052C11.2398 16.0146 11.3658 16.0679 11.4623 16.1664L12.4567 17.1538C12.6862 17.3954 13.1143 17.3888 13.3305 17.1604L15.3891 15.1088C15.5845 14.9134 15.9169 14.9134 16.1123 15.1088L19.1503 18.1467V18.3416ZM19.1503 17.1455L16.5514 14.5465C16.1216 14.1157 15.3783 14.1173 14.9497 14.5461L12.9006 16.5974L11.9026 15.6059C11.6919 15.3905 11.4093 15.2716 11.1071 15.2696H11.1008C10.7978 15.2696 10.5133 15.3881 10.2974 15.6035L8.23777 17.6626V10.7203C8.23777 10.2059 8.65614 9.78765 9.17027 9.78765H18.2178C18.7319 9.78765 19.1503 10.2059 19.1503 10.7203L19.1503 17.1455Z" fill="#171723"/>
<path d="M11.1828 10.889C10.3082 10.889 9.5969 11.6001 9.5969 12.4745C9.5969 13.3484 10.3082 14.0595 11.1828 14.0595C12.057 14.0595 12.7683 13.3484 12.7683 12.4745C12.7683 11.6001 12.057 10.889 11.1828 10.889ZM11.1828 13.4147C10.6641 13.4147 10.2423 12.9926 10.2423 12.4745C10.2423 11.9563 10.6641 11.5342 11.1828 11.5342C11.7011 11.5342 12.1234 11.9563 12.1234 12.4745C12.1234 12.9926 11.7011 13.4147 11.1828 13.4147Z" fill="#171723"/>
<path d="M7.88966 5.24688L6.03786 4.21134C5.73738 4.05544 5.38355 4.06887 5.09487 4.24431C4.79845 4.42464 4.62093 4.74214 4.62093 5.09301V7.06232C4.62093 7.41238 4.79845 7.72947 5.09487 7.9102C5.24592 8.00301 5.41816 8.05105 5.59283 8.05105C5.74797 8.05105 5.90432 8.01238 6.05374 7.93504L7.88884 6.90886C8.19462 6.73831 8.37621 6.42773 8.37621 6.07767C8.37621 5.72841 8.19463 5.41784 7.88966 5.24688ZM7.6193 6.4261L5.79113 7.4482C5.6588 7.51781 5.50611 7.51455 5.38274 7.43843C5.25204 7.35906 5.17427 7.21822 5.17427 7.06232V5.09301C5.17427 4.9363 5.25204 4.79586 5.38274 4.7169C5.44952 4.67579 5.52443 4.65544 5.59813 4.65544C5.65961 4.65544 5.72068 4.66968 5.77565 4.69818L7.6193 5.72964C7.74878 5.8025 7.82329 5.9291 7.82329 6.07767C7.82329 6.22706 7.74878 6.35364 7.6193 6.4261Z" fill="#171723"/>
</g>
<defs>
<clipPath id="clip0_17694_32923">
<rect width="20" height="20" fill="white"/>
</clipPath>
</defs>
</svg>
