<svg width="20" height="20" viewBox="0 0 20 20" fill="none" xmlns="http://www.w3.org/2000/svg">
<path d="M10.6904 1.70874H10.33C9.8795 1.70965 9.44761 1.88841 9.12829 2.20615L5.15515 6.17917C5.03709 6.29664 4.87762 6.36305 4.71108 6.36413H2.28357C1.67906 6.36487 1.09952 6.60534 0.672074 7.03279C0.244623 7.46024 0.00415704 8.03978 0.00341797 8.64429V11.356C0.00416837 11.9605 0.24464 12.54 0.67209 12.9675C1.09954 13.3949 1.67907 13.6354 2.28357 13.6361H4.71108C4.87753 13.6366 5.03709 13.7027 5.15515 13.82L9.12921 17.7951C9.44875 18.1118 9.88002 18.2901 10.3299 18.2915H10.6904C11.0224 18.2913 11.3407 18.1593 11.5754 17.9246C11.8101 17.6899 11.9421 17.3716 11.9423 17.0396V2.96063C11.9421 2.62868 11.8101 2.31039 11.5754 2.07567C11.3407 1.84095 11.0224 1.70898 10.6904 1.70874ZM10.8723 17.0397C10.8723 17.0879 10.8531 17.1341 10.819 17.1682C10.7849 17.2023 10.7387 17.2215 10.6904 17.2215H10.33C10.1632 17.221 10.0033 17.155 9.88482 17.0376L5.9107 13.0625C5.75329 12.9048 5.56628 12.7798 5.36041 12.6946C5.15455 12.6094 4.93387 12.5657 4.71108 12.5661H2.28357C1.96269 12.5659 1.65502 12.4383 1.42812 12.2114C1.20123 11.9845 1.07367 11.6768 1.07348 11.356V8.64429C1.07367 8.32341 1.20122 8.01573 1.42812 7.78883C1.65501 7.56194 1.96269 7.43438 2.28357 7.43419H4.71108C4.93423 7.43464 5.15526 7.39082 5.36136 7.30526C5.56746 7.21969 5.75454 7.0941 5.91176 6.93573L9.88482 2.96271C10.0032 2.84515 10.1631 2.77906 10.33 2.7788H10.6905C10.7387 2.77882 10.7849 2.79799 10.819 2.83208C10.8531 2.86618 10.8723 2.91241 10.8723 2.96063L10.8723 17.0397Z" fill="#171723"/>
<path d="M17.5268 10.0001L19.8393 7.68806C19.8898 7.63857 19.9299 7.57956 19.9575 7.51444C19.985 7.44932 19.9994 7.37938 19.9998 7.30867C20.0001 7.23797 19.9865 7.16789 19.9596 7.10249C19.9327 7.0371 19.8931 6.97769 19.8431 6.92769C19.7931 6.87769 19.7337 6.8381 19.6683 6.8112C19.6029 6.78431 19.5328 6.77065 19.4621 6.771C19.3914 6.77136 19.3215 6.78573 19.2563 6.81328C19.1912 6.84084 19.1322 6.88103 19.0827 6.93153L16.7702 9.24362L14.4576 6.93148C14.3569 6.83283 14.2214 6.77789 14.0804 6.7786C13.9395 6.77931 13.8045 6.83562 13.7049 6.93529C13.6052 7.03495 13.5489 7.16992 13.5482 7.31087C13.5475 7.45182 13.6024 7.58735 13.7011 7.68802L16.0135 10L13.7011 12.3121C13.6506 12.3616 13.6104 12.4206 13.5828 12.4857C13.5553 12.5508 13.5409 12.6207 13.5405 12.6914C13.5402 12.7622 13.5538 12.8322 13.5807 12.8976C13.6076 12.963 13.6472 13.0224 13.6972 13.0724C13.7472 13.1224 13.8066 13.162 13.872 13.1889C13.9374 13.2158 14.0075 13.2295 14.0782 13.2291C14.1489 13.2288 14.2189 13.2144 14.284 13.1868C14.3491 13.1593 14.4081 13.1191 14.4576 13.0686L16.7701 10.7565L19.0827 13.0686C19.1322 13.1191 19.1912 13.1593 19.2563 13.1868C19.3214 13.2144 19.3914 13.2288 19.4621 13.2291C19.5328 13.2295 19.6029 13.2158 19.6683 13.1889C19.7336 13.162 19.7931 13.1224 19.8431 13.0724C19.8931 13.0224 19.9326 12.963 19.9595 12.8976C19.9864 12.8322 20.0001 12.7622 19.9997 12.6914C19.9994 12.6207 19.985 12.5508 19.9575 12.4857C19.9299 12.4206 19.8897 12.3616 19.8392 12.3121L17.5268 10.0001Z" fill="#171723"/>
</svg>
