<svg width="20" height="20" viewBox="0 0 20 20" fill="none" xmlns="http://www.w3.org/2000/svg">
<path d="M2.5 4.16671V15.8334C2.49996 15.98 2.5386 16.124 2.61203 16.251C2.68547 16.3779 2.79109 16.4832 2.91823 16.5562C3.04537 16.6293 3.18953 16.6674 3.33616 16.667C3.48279 16.6665 3.62669 16.6273 3.75333 16.5534L13.7533 10.72C13.8792 10.6467 13.9837 10.5416 14.0563 10.4153C14.1289 10.2889 14.1671 10.1458 14.1671 10C14.1671 9.85433 14.1289 9.71117 14.0563 9.58483C13.9837 9.4585 13.8792 9.35341 13.7533 9.28004L3.75333 3.44671C3.62669 3.37281 3.48279 3.33363 3.33616 3.33313C3.18953 3.33264 3.04537 3.37084 2.91823 3.44388C2.79109 3.51691 2.68547 3.62221 2.61203 3.74912C2.5386 3.87604 2.49996 4.02008 2.5 4.16671Z" fill="#171723"/>
<path d="M16.6667 3.33338C16.8708 3.3334 17.0678 3.40834 17.2203 3.54397C17.3728 3.67961 17.4703 3.8665 17.4942 4.06921L17.5 4.16671V15.8334C17.4998 16.0458 17.4184 16.2501 17.2726 16.4045C17.1268 16.559 16.9275 16.6519 16.7155 16.6644C16.5035 16.6768 16.2947 16.6078 16.1318 16.4715C15.9689 16.3352 15.8643 16.1418 15.8392 15.9309L15.8333 15.8334V4.16671C15.8333 3.9457 15.9211 3.73373 16.0774 3.57745C16.2337 3.42117 16.4457 3.33338 16.6667 3.33338Z" fill="#171723"/>
</svg>
