<svg width="20" height="20" viewBox="0 0 20 20" fill="none" xmlns="http://www.w3.org/2000/svg">
<path d="M1.66663 4.16659V15.8333C1.66663 16.5499 2.50996 16.9316 3.04913 16.4608L9.71579 10.6274C9.8053 10.5492 9.87704 10.4527 9.92619 10.3445C9.97535 10.2363 10.0008 10.1188 10.0008 9.99992C10.0008 9.88105 9.97535 9.76356 9.92619 9.65533C9.87704 9.5471 9.8053 9.45064 9.71579 9.37242L3.04913 3.53909C2.50996 3.06826 1.66663 3.45076 1.66663 4.16659Z" fill="#171723"/>
<path d="M10.8333 4.16659V15.8333C10.8333 16.5499 11.6766 16.9316 12.2158 16.4608L18.8825 10.6274C18.972 10.5492 19.0437 10.4527 19.0929 10.3445C19.142 10.2363 19.1674 10.1188 19.1674 9.99992C19.1674 9.88105 19.142 9.76356 19.0929 9.65533C19.0437 9.5471 18.972 9.45064 18.8825 9.37242L12.2158 3.53909C11.6766 3.06826 10.8333 3.45076 10.8333 4.16659Z" fill="#171723"/>
</svg>
