<svg width="20" height="20" viewBox="0 0 20 20" fill="none" xmlns="http://www.w3.org/2000/svg">
<path d="M9.37218 8.92986L2.62211 5.15059C2.35232 5.00994 2.05071 4.94156 1.74664 4.95211C1.44257 4.96266 1.14642 5.05179 0.887031 5.21081C0.613598 5.37769 0.388135 5.61265 0.232674 5.89274C0.0772124 6.17282 -0.0029285 6.48844 8.17813e-05 6.80876V13.1918C-0.00292664 13.5122 0.0772153 13.8278 0.232676 14.1079C0.388137 14.3879 0.613599 14.6229 0.887031 14.7898C1.16309 14.9589 1.48043 15.0486 1.80416 15.049C2.09324 15.048 2.37786 14.9776 2.63406 14.8437L9.37145 11.0747C9.56202 10.9679 9.7207 10.8123 9.83118 10.6239C9.94165 10.4354 9.99993 10.221 10 10.0025C10.0001 9.78407 9.94197 9.56955 9.83164 9.38102C9.7213 9.19249 9.56273 9.03676 9.37224 8.92984L9.37218 8.92986Z" fill="#171723"/>
<path d="M19.3722 8.92986L12.6221 5.15059C12.3523 5.00994 12.0507 4.94156 11.7466 4.95211C11.4426 4.96266 11.1464 5.05179 10.887 5.21081C10.6136 5.37769 10.3881 5.61266 10.2327 5.89275C10.0772 6.17283 9.99707 6.48846 10.0001 6.80878V13.1919C9.99708 13.5122 10.0772 13.8278 10.2327 14.1079C10.3881 14.388 10.6136 14.6229 10.887 14.7898C11.1631 14.9589 11.4804 15.0486 11.8042 15.049C12.0933 15.048 12.3779 14.9776 12.6341 14.8437L19.3714 11.0747C19.562 10.968 19.7207 10.8124 19.8312 10.6239C19.9417 10.4355 19.9999 10.221 20 10.0025C20.0001 9.78409 19.942 9.56957 19.8316 9.38104C19.7213 9.19251 19.5627 9.03678 19.3722 8.92986H19.3722Z" fill="#171723"/>
</svg>
