<svg width="20" height="20" viewBox="0 0 20 20" fill="none" xmlns="http://www.w3.org/2000/svg">
<g clip-path="url(#clip0_5313_35236)">
<g clip-path="url(#clip1_5313_35236)">
<path d="M13.7726 7.57225L4.20935 2.21822C3.77622 1.99212 3.29183 1.88228 2.80353 1.89945C2.31524 1.91662 1.83976 2.06021 1.42358 2.31617C0.984697 2.5836 0.622781 2.96041 0.373262 3.40972C0.123743 3.85902 -0.00482658 4.36542 0.000138541 4.87933V15.1218C-0.00465848 15.6357 0.123835 16.1421 0.373082 16.5916C0.62233 17.041 0.98382 17.4182 1.42229 17.6863C1.86622 17.9576 2.37629 18.1015 2.89659 18.1022C3.36002 18.1011 3.81637 17.9885 4.22714 17.774L13.7713 12.434C14.2036 12.1922 14.5636 11.8395 14.8143 11.4123C15.0649 10.9851 15.1971 10.4988 15.1973 10.0035C15.1974 9.50814 15.0655 9.02175 14.815 8.59439C14.5646 8.16704 14.2048 7.81419 13.7726 7.5722L13.7726 7.57225Z" fill="#171723"/>
<path d="M20.0002 3.20028V16.7997C20.0002 17.1451 19.8629 17.4764 19.6187 17.7207C19.3744 17.965 19.0431 18.1022 18.6976 18.1022C18.3521 18.1022 18.0208 17.965 17.7765 17.7207C17.5323 17.4764 17.395 17.1451 17.395 16.7997V3.20028C17.395 2.85481 17.5323 2.5235 17.7765 2.27922C18.0208 2.03494 18.3521 1.89771 18.6976 1.89771C19.0431 1.89771 19.3744 2.03494 19.6187 2.27922C19.8629 2.5235 20.0002 2.85481 20.0002 3.20028Z" fill="#171723"/>
</g>
</g>
<defs>
<clipPath id="clip0_5313_35236">
<rect width="20" height="20" fill="white"/>
</clipPath>
<clipPath id="clip1_5313_35236">
<rect width="20" height="20" fill="white"/>
</clipPath>
</defs>
</svg>
