<svg width="20" height="20" viewBox="0 0 20 20" fill="none" xmlns="http://www.w3.org/2000/svg">
<path fill-rule="evenodd" clip-rule="evenodd" d="M19.283 8.26427C18.8208 7.80201 18.1981 7.54729 17.5472 7.54729C16.8962 7.54729 16.2736 7.80201 15.8113 8.26427C15.4906 8.58503 15.2736 8.99069 15.1698 9.43408H12.3774C12.2736 9.00012 12.0566 8.58503 11.7358 8.26427C11.6981 8.22654 11.6415 8.1888 11.5943 8.15106L13.1792 5.76427C13.3679 5.81144 13.566 5.83974 13.7642 5.83974C14.4151 5.83974 15.0377 5.58503 15.5 5.12276C15.9623 4.6605 16.217 4.03786 16.217 3.38691C16.217 2.73597 15.9623 2.11333 15.5 1.65106C15.0377 1.1888 14.4151 0.934082 13.7642 0.934082C13.1132 0.934082 12.4906 1.1888 12.0283 1.65106C11.566 2.11333 11.3113 2.73597 11.3113 3.38691C11.3113 4.03786 11.566 4.6605 12.0283 5.12276C12.066 5.1605 12.1226 5.19823 12.1698 5.23597L10.5849 7.62276C10.3962 7.57559 10.1981 7.54729 10 7.54729C9.80189 7.54729 9.60377 7.57559 9.41509 7.62276L7.83019 5.23597C7.83019 5.23597 7.92453 5.16993 7.9717 5.12276C8.43396 4.6605 8.68868 4.03786 8.68868 3.38691C8.68868 2.73597 8.43396 2.11333 7.9717 1.65106C7.50943 1.1888 6.88679 0.934082 6.23585 0.934082C5.58491 0.934082 4.96226 1.1888 4.5 1.65106C4.03774 2.11333 3.78302 2.73597 3.78302 3.38691C3.78302 4.03786 4.03774 4.6605 4.5 5.12276C4.96226 5.58503 5.58491 5.83974 6.23585 5.83974C6.43396 5.83974 6.63208 5.81144 6.82075 5.76427L8.40566 8.15106C8.40566 8.15106 8.31132 8.2171 8.26415 8.26427C7.9434 8.58503 7.72641 8.99069 7.62264 9.43408H4.83019C4.72641 9.00012 4.50943 8.58503 4.18868 8.26427C3.72642 7.80201 3.10377 7.54729 2.45283 7.54729C1.80189 7.54729 1.17925 7.80201 0.716981 8.26427C0.254717 8.72654 0 9.34918 0 10.0001C0 10.6511 0.254717 11.2737 0.716981 11.736C1.17925 12.1982 1.80189 12.4529 2.45283 12.4529C3.10377 12.4529 3.72642 12.1982 4.18868 11.736C4.50943 11.4152 4.72641 11.0096 4.83019 10.5662H7.62264C7.72641 11.0001 7.9434 11.4152 8.26415 11.736C8.30189 11.7737 8.35849 11.8114 8.40566 11.8492L6.82075 14.236C6.63208 14.1888 6.43396 14.1605 6.23585 14.1605C5.58491 14.1605 4.96226 14.4152 4.5 14.8775C4.03774 15.3397 3.78302 15.9624 3.78302 16.6133C3.78302 17.2643 4.03774 17.8869 4.5 18.3492C4.96226 18.8114 5.58491 19.0662 6.23585 19.0662C6.88679 19.0662 7.50943 18.8114 7.9717 18.3492C8.43396 17.8869 8.68868 17.2643 8.68868 16.6133C8.68868 15.9624 8.43396 15.3397 7.9717 14.8775C7.93396 14.8397 7.87736 14.802 7.83019 14.7643L9.41509 12.3775C9.60377 12.4246 9.80189 12.4529 10 12.4529C10.1981 12.4529 10.3962 12.4246 10.5849 12.3775L12.1698 14.7643C12.1698 14.7643 12.0755 14.8303 12.0283 14.8775C11.566 15.3397 11.3113 15.9624 11.3113 16.6133C11.3113 17.2643 11.566 17.8869 12.0283 18.3492C12.4906 18.8114 13.1132 19.0662 13.7642 19.0662C14.4151 19.0662 15.0377 18.8114 15.5 18.3492C15.9623 17.8869 16.217 17.2643 16.217 16.6133C16.217 15.9624 15.9623 15.3397 15.5 14.8775C15.0377 14.4152 14.4151 14.1605 13.7642 14.1605C13.566 14.1605 13.3679 14.1888 13.1792 14.236L11.5943 11.8492C11.5943 11.8492 11.6887 11.7831 11.7358 11.736C12.0566 11.4152 12.2736 11.0096 12.3774 10.5662H15.1698C15.2736 11.0001 15.4906 11.4152 15.8113 11.736C16.2736 12.1982 16.8962 12.4529 17.5472 12.4529C18.1981 12.4529 18.8208 12.1982 19.283 11.736C19.7453 11.2737 20 10.6511 20 10.0001C20 9.34918 19.7453 8.72654 19.283 8.26427ZM12.8396 2.46238C13.0849 2.2171 13.4245 2.07559 13.7736 2.07559C14.1226 2.07559 14.4623 2.2171 14.7075 2.46238C14.9528 2.70767 15.0943 3.04729 15.0943 3.39635C15.0943 3.7454 14.9528 4.08503 14.7075 4.33031C14.4623 4.57559 14.1226 4.7171 13.7736 4.7171C13.4245 4.7171 13.0849 4.57559 12.8396 4.33031C12.5943 4.08503 12.4528 3.7454 12.4528 3.39635C12.4528 3.04729 12.5943 2.70767 12.8396 2.46238ZM5.29245 4.33031C5.04717 4.08503 4.90566 3.7454 4.90566 3.39635C4.90566 3.04729 5.04717 2.70767 5.29245 2.46238C5.53774 2.2171 5.87736 2.07559 6.22641 2.07559C6.57547 2.07559 6.91509 2.2171 7.16038 2.46238C7.40566 2.70767 7.54717 3.04729 7.54717 3.39635C7.54717 3.7454 7.40566 4.08503 7.16038 4.33031C6.91509 4.57559 6.57547 4.7171 6.22641 4.7171C5.87736 4.7171 5.53774 4.57559 5.29245 4.33031ZM7.16038 17.5379C6.91509 17.7831 6.57547 17.9246 6.22641 17.9246C5.87736 17.9246 5.53774 17.7831 5.29245 17.5379C5.04717 17.2926 4.90566 16.953 4.90566 16.6039C4.90566 16.2548 5.04717 15.9152 5.29245 15.6699C5.53774 15.4246 5.87736 15.2831 6.22641 15.2831C6.57547 15.2831 6.91509 15.4246 7.16038 15.6699C7.40566 15.9152 7.54717 16.2548 7.54717 16.6039C7.54717 16.953 7.40566 17.2926 7.16038 17.5379ZM14.7075 15.6699C14.9528 15.9152 15.0943 16.2548 15.0943 16.6039C15.0943 16.953 14.9528 17.2926 14.7075 17.5379C14.4623 17.7831 14.1226 17.9246 13.7736 17.9246C13.4245 17.9246 13.0849 17.7831 12.8396 17.5379C12.5943 17.2926 12.4528 16.953 12.4528 16.6039C12.4528 16.2548 12.5943 15.9152 12.8396 15.6699C13.0849 15.4246 13.4245 15.2831 13.7736 15.2831C14.1226 15.2831 14.4623 15.4246 14.7075 15.6699ZM3.38679 10.9341C3.14151 11.1794 2.80189 11.3209 2.45283 11.3209C2.10377 11.3209 1.76415 11.1794 1.51887 10.9341C1.27358 10.6888 1.13208 10.3492 1.13208 10.0001C1.13208 9.65106 1.27358 9.31144 1.51887 9.06616C1.76415 8.82087 2.10377 8.67936 2.45283 8.67936C2.80189 8.67936 3.14151 8.82087 3.38679 9.06616C3.63208 9.31144 3.77358 9.65106 3.77358 10.0001C3.77358 10.3492 3.63208 10.6888 3.38679 10.9341ZM9.06604 10.9341C8.82075 10.6888 8.67924 10.3492 8.67924 10.0001C8.67924 9.65106 8.82075 9.31144 9.06604 9.06616C9.31132 8.82087 9.65094 8.67936 10 8.67936C10.3491 8.67936 10.6887 8.82087 10.934 9.06616C11.1792 9.31144 11.3208 9.65106 11.3208 10.0001C11.3208 10.3492 11.1792 10.6888 10.934 10.9341C10.6887 11.1794 10.3491 11.3209 10 11.3209C9.65094 11.3209 9.31132 11.1794 9.06604 10.9341ZM18.4811 10.9341C18.2358 11.1794 17.8962 11.3209 17.5472 11.3209C17.1981 11.3209 16.8585 11.1794 16.6132 10.9341C16.3679 10.6888 16.2264 10.3492 16.2264 10.0001C16.2264 9.65106 16.3679 9.31144 16.6132 9.06616C16.8585 8.82087 17.1981 8.67936 17.5472 8.67936C17.8962 8.67936 18.2358 8.82087 18.4811 9.06616C18.7264 9.31144 18.8679 9.65106 18.8679 10.0001C18.8679 10.3492 18.7264 10.6888 18.4811 10.9341Z" fill="#171723"/>
</svg>
