<svg width="24" height="24" viewBox="0 0 24 24" fill="none" xmlns="http://www.w3.org/2000/svg">
<g clip-path="url(#clip0_10317_147247)">
<path d="M22.8778 12.3435C22.9038 12.3114 22.9264 12.2764 22.9452 12.2393C23.0012 12.1171 23.0148 11.9784 22.9836 11.847C22.9525 11.7155 22.8786 11.5993 22.7745 11.5182L19.8857 9.07019C19.7652 8.96805 19.6106 8.91996 19.4561 8.93651C19.3015 8.95305 19.1596 9.03288 19.0616 9.15843C18.9635 9.28398 18.9174 9.44496 18.9333 9.60596C18.9491 9.76696 19.0258 9.9148 19.1463 10.0169L20.7512 11.3775H13.9387L20.2449 4.81317C20.5213 5.13477 20.7789 5.47328 21.0165 5.82692C21.0604 5.89296 21.1164 5.94932 21.1813 5.99277C21.2462 6.03623 21.3187 6.06591 21.3946 6.08013C21.4705 6.09434 21.5483 6.09281 21.6237 6.07562C21.699 6.05843 21.7704 6.02591 21.8336 5.97994C21.8969 5.93397 21.9508 5.87544 21.9923 5.80771C22.0338 5.73999 22.0621 5.66439 22.0755 5.58527C22.0889 5.50614 22.0872 5.42503 22.0704 5.3466C22.0537 5.26816 22.0222 5.19394 21.9779 5.12819C21.6004 4.57695 21.1788 4.06 20.7175 3.58285C20.7035 3.55655 20.6875 3.53143 20.6697 3.50774C20.6456 3.48792 20.6201 3.47022 20.5932 3.45482C18.4262 1.22766 15.5006 -0.0145155 12.4566 0.000128015C9.41265 0.0147715 6.49819 1.28505 4.35106 3.53296C2.20393 5.78087 0.999016 8.82334 1 11.9945C1.00098 15.1657 2.20779 18.2074 4.35631 20.4539C4.36204 20.4604 4.36389 20.469 4.36998 20.4753C4.37513 20.4807 4.38207 20.4823 4.38736 20.4873C5.57814 21.7279 7.0157 22.6812 8.59864 23.28C10.1816 23.8787 11.8714 24.1084 13.5488 23.9527C15.2262 23.797 16.8504 23.2598 18.3068 22.379C19.7632 21.4982 21.0164 20.2952 21.9779 18.8548C22.0663 18.722 22.1005 18.5581 22.0731 18.399C22.0456 18.24 21.9587 18.0987 21.8315 18.0063C21.7043 17.9138 21.5471 17.8777 21.3943 17.9057C21.2415 17.9338 21.1057 18.0239 21.0165 18.1561C20.1815 19.4099 19.0998 20.4641 17.8434 21.2487C16.5871 22.0334 15.1848 22.5304 13.7298 22.7069C12.2748 22.8833 10.8005 22.7351 9.4047 22.2721C8.00894 21.8091 6.72375 21.0419 5.63458 20.0215L12.7658 12.5985H20.7673L19.1474 13.9649C19.0864 14.0149 19.0355 14.077 18.9977 14.1477C18.9599 14.2183 18.9359 14.2961 18.9272 14.3765C18.9185 14.4569 18.9253 14.5383 18.947 14.6159C18.9688 14.6936 19.0051 14.766 19.054 14.8289C19.1028 14.8917 19.1632 14.9439 19.2315 14.9823C19.2999 15.0207 19.3749 15.0445 19.4522 15.0524C19.5294 15.0604 19.6075 15.0522 19.6817 15.0284C19.7559 15.0047 19.8249 14.9658 19.8845 14.914L22.7803 12.472C22.7932 12.4612 22.7984 12.4443 22.8102 12.4325C22.8354 12.4051 22.858 12.3753 22.8778 12.3435V12.3435ZM4.8067 19.1575C3.04428 17.1049 2.10342 14.427 2.17748 11.6741C2.25153 8.92125 3.33487 6.30247 5.20487 4.35593C7.07487 2.40938 9.58951 1.28292 12.232 1.20801C14.8746 1.13311 17.4443 2.11544 19.4131 3.95317L12.2808 11.3775H7.60795C7.45253 11.3775 7.30348 11.4418 7.19358 11.5563C7.08368 11.6708 7.02194 11.826 7.02194 11.988C7.02194 12.1499 7.08368 12.3052 7.19358 12.4196C7.30348 12.5341 7.45253 12.5985 7.60795 12.5985H11.1078L4.8067 19.1575Z" fill="#171723"/>
</g>
<defs>
<clipPath id="clip0_10317_147247">
<rect width="24" height="24" fill="white"/>
</clipPath>
</defs>
</svg>
