<svg width="20" height="20" viewBox="0 0 20 20" fill="none" xmlns="http://www.w3.org/2000/svg">
<g clip-path="url(#clip0_10314_145979)">
<path d="M13.4114 6.52857C13.4326 6.37177 13.4455 6.21361 13.4455 6.05445C13.4455 4.87233 12.8596 3.82944 11.9703 3.19883L12.7638 1.50074C13.118 1.43901 13.3925 1.14005 13.3925 0.763033C13.3925 0.3416 13.0558 0 12.6405 0C12.2252 0 11.8886 0.3416 11.8886 0.763033C11.8886 0.901683 11.9349 1.02463 11.9986 1.1367L11.2199 2.80314C10.8424 2.65801 10.4378 2.5687 10.0109 2.5687C9.56536 2.5687 9.14227 2.66167 8.75125 2.819L7.96509 1.13671C8.02883 1.02464 8.07514 0.901692 8.07514 0.763042C8.07514 0.341608 7.73847 8.33333e-06 7.32317 8.33333e-06C6.90787 8.33333e-06 6.57115 0.341608 6.57115 0.763042C6.57115 1.14006 6.84574 1.43902 7.19994 1.50075L8.0096 3.23337C7.14476 3.86697 6.57544 4.89186 6.57544 6.05446C6.57544 6.21686 6.58699 6.33824 6.59689 6.43535C6.60184 6.47637 6.60761 6.50818 6.63154 6.46381L6.64561 6.47694C4.41859 7.68966 2.8999 10.0743 2.8999 12.8133C2.8999 16.7763 6.07711 20 9.98282 20C13.8885 20 17.0666 16.7763 17.0666 12.8133C17.0666 10.1121 15.5885 7.75637 13.4114 6.52857ZM7.42027 6.05445C7.42027 4.6054 8.58274 3.4259 10.0109 3.4259C11.439 3.4259 12.6007 4.6054 12.6007 6.05445C12.6007 6.08239 12.5914 6.10907 12.5906 6.13696C11.7824 5.81074 10.9041 5.62584 9.98283 5.62584C9.07926 5.62584 8.21782 5.80493 7.42259 6.11933C7.42193 6.09714 7.42027 6.07904 7.42027 6.05445ZM9.98283 19.1428C6.54326 19.1428 3.74474 16.3033 3.74474 12.8133C3.74474 9.32255 6.54326 6.48305 9.98283 6.48305C13.4232 6.48305 16.2217 9.32255 16.2217 12.8133C16.2217 16.3033 13.4232 19.1428 9.98283 19.1428Z" fill="#171723"/>
<path d="M12.2479 10.5083C12.8375 10.5083 13.3156 10.0233 13.3156 9.42501C13.3156 8.8267 12.8375 8.34167 12.2479 8.34167C11.6582 8.34167 11.1802 8.8267 11.1802 9.42501C11.1802 10.0233 11.6582 10.5083 12.2479 10.5083Z" fill="#171723"/>
<path d="M6.57112 13.8963C7.16079 13.8963 7.63882 13.4113 7.63882 12.8129C7.63882 12.2146 7.16079 11.7296 6.57112 11.7296C5.98144 11.7296 5.50342 12.2146 5.50342 12.8129C5.50342 13.4113 5.98144 13.8963 6.57112 13.8963Z" fill="#171723"/>
<path d="M12.1571 15.2195C11.5674 15.2195 11.0894 15.7045 11.0894 16.3028C11.0894 16.9011 11.5674 17.3861 12.1571 17.3861C12.7467 17.3861 13.2247 16.9011 13.2247 16.3028C13.2247 15.7045 12.7467 15.2195 12.1571 15.2195Z" fill="#171723"/>
</g>
<defs>
<clipPath id="clip0_10314_145979">
<rect width="14.1667" height="20" fill="white" transform="translate(2.8999)"/>
</clipPath>
</defs>
</svg>
