<svg width="20" height="20" viewBox="0 0 20 20" fill="none" xmlns="http://www.w3.org/2000/svg">
<g clip-path="url(#clip0_5313_35055)">
<path d="M17.3106 14.1932L16.4855 13.5C16.3093 13.3523 16.1675 13.1671 16.0702 12.9577C15.973 12.7482 15.9227 12.5197 15.923 12.2884V7.99712C15.9246 7.21278 15.7722 6.4359 15.4746 5.71141C15.177 4.98693 14.7401 4.32923 14.1891 3.77635C13.5916 3.17529 12.8718 2.71264 12.0796 2.42049V2.10294C12.0796 1.5452 11.8602 1.01031 11.4697 0.615936C11.0792 0.221559 10.5495 0 9.99718 0C9.44488 0 8.9152 0.221559 8.52466 0.615936C8.13413 1.01031 7.91473 1.5452 7.91473 2.10294V2.44023C7.20064 2.72966 6.54926 3.15684 5.99699 3.69789C5.3927 4.28838 4.91154 4.99502 4.58185 5.77619C4.25216 6.55736 4.08061 7.39725 4.0773 8.2464V12.2884C4.07758 12.5194 4.0275 12.7476 3.93062 12.9568C3.83374 13.166 3.69243 13.3512 3.51673 13.499L2.68965 14.1932C2.38722 14.4512 2.16998 14.7962 2.06697 15.1822C1.96396 15.5682 1.98009 15.9768 2.11321 16.3533C2.24632 16.7298 2.49008 17.0563 2.81188 17.2891C3.13369 17.5219 3.51821 17.65 3.91404 17.6562H7.22115C7.33867 18.3137 7.68116 18.9085 8.18881 19.3369C8.69646 19.7653 9.337 20 9.99857 20C10.6601 20 11.3007 19.7653 11.8083 19.3369C12.316 18.9085 12.6585 18.3137 12.776 17.6562H16.0872C16.5943 17.6555 17.0804 17.4517 17.4389 17.0897C17.7975 16.7276 17.9993 16.2367 18 15.7246V15.6789C18.0005 15.3953 17.939 15.1151 17.8198 14.8582C17.7006 14.6014 17.5268 14.3743 17.3106 14.1932V14.1932ZM8.9218 2.10294C8.9218 1.81492 9.0351 1.53869 9.23678 1.33503C9.43845 1.13137 9.71199 1.01696 9.9972 1.01696C10.2824 1.01696 10.5559 1.13137 10.7576 1.33503C10.9593 1.53869 11.0726 1.81492 11.0726 2.10294V2.13689C10.7843 2.07764 10.4921 2.04007 10.1983 2.02448C9.76985 2.01504 9.34168 2.05404 8.9218 2.14074V2.10294ZM9.99474 18.983C9.60191 18.9817 9.22012 18.8516 8.90678 18.6123C8.59344 18.3731 8.36547 18.0376 8.25714 17.6562H11.7398C11.6301 18.0382 11.4007 18.3739 11.0861 18.6132C10.7715 18.8524 10.3885 18.9821 9.99472 18.983H9.99474ZM16.993 15.7246C16.9928 15.9671 16.8973 16.1996 16.7274 16.3711C16.5576 16.5426 16.3274 16.6391 16.0872 16.6393H3.91404C3.79162 16.6378 3.67072 16.6116 3.55846 16.5623C3.4462 16.513 3.34485 16.4414 3.26036 16.352C3.17588 16.2625 3.10996 16.1568 3.06651 16.0413C3.02305 15.9257 3.00292 15.8025 3.0073 15.6789C3.00705 15.5448 3.0361 15.4122 3.09236 15.2907C3.14863 15.1691 3.23073 15.0616 3.33283 14.9758L4.16089 14.2806C4.45032 14.0375 4.68312 13.7329 4.84274 13.3885C5.00235 13.0442 5.08485 12.6686 5.08436 12.2884V8.2464C5.08753 7.53361 5.23185 6.82867 5.50884 6.17306C5.78583 5.51744 6.18988 4.9244 6.69722 4.42883C7.57956 3.54578 8.76921 3.0467 10.0114 3.03846C10.0626 3.03846 10.1137 3.03945 10.1649 3.04144C11.4381 3.08534 12.6449 3.62642 13.531 4.55075C14.4172 5.47509 14.9137 6.71057 14.9159 7.99712V12.2884C14.9156 12.6689 14.9983 13.0448 15.1583 13.3894C15.3182 13.7339 15.5514 14.0385 15.8413 14.2816L16.6674 14.9758C16.7695 15.0617 16.8516 15.1692 16.9079 15.2907C16.9642 15.4122 16.9932 15.5448 16.993 15.679L16.993 15.7246Z" fill="#171723"/>
</g>
<defs>
<clipPath id="clip0_5313_35055">
<rect width="20" height="20" fill="white"/>
</clipPath>
</defs>
</svg>
