<svg width="20" height="20" viewBox="0 0 20 20" fill="none" xmlns="http://www.w3.org/2000/svg">
<path d="M7.45675 6.9549V5.75958C7.57453 5.7522 7.69231 5.74482 7.81008 5.74482C11.0784 5.64152 13.2205 8.56343 13.2205 8.56343C13.2205 8.56343 10.9091 11.7805 8.42841 11.7805C8.09717 11.7805 7.77328 11.7288 7.46411 11.6255V7.99528C8.73758 8.15023 8.99521 8.711 9.7534 9.98749L11.4538 8.55605C11.4538 8.55605 10.2098 6.92539 8.11925 6.92539C7.89842 6.91801 7.67759 6.93277 7.45675 6.9549ZM7.45675 3V4.78561L7.81008 4.76347C12.3519 4.60852 15.3184 8.49702 15.3184 8.49702C15.3184 8.49702 11.9176 12.6438 8.37689 12.6438C8.06772 12.6438 7.76592 12.6143 7.46411 12.5626V13.6694C7.71439 13.6989 7.97203 13.721 8.2223 13.721C11.5201 13.721 13.905 12.0313 16.2164 10.0391C16.5992 10.349 18.1671 11.0943 18.491 11.4189C16.2974 13.2636 11.1814 14.7467 8.28119 14.7467C8.00147 14.7467 7.73647 14.7319 7.47148 14.7024V16.2593H20V3L7.45675 3ZM7.45675 11.6255V12.57C4.40927 12.024 3.56275 8.84381 3.56275 8.84381C3.56275 8.84381 5.0276 7.22053 7.45675 6.9549V7.9879H7.44939C6.17593 7.83295 5.17483 9.02828 5.17483 9.02828C5.17483 9.02828 5.74163 11.0426 7.45675 11.6255ZM2.04637 8.711C2.04637 8.711 3.84983 6.03996 7.46411 5.75958V4.78561C3.4597 5.11027 0 8.5044 0 8.5044C0 8.5044 1.95804 14.1859 7.45675 14.7024V13.6694C3.42289 13.1676 2.04637 8.711 2.04637 8.711Z" fill="#76B900"/>
</svg>
