<svg width="20" height="20" viewBox="0 0 20 20" fill="none" xmlns="http://www.w3.org/2000/svg">
<path fill-rule="evenodd" clip-rule="evenodd" d="M0.645161 5.37883C0.645161 5.55698 0.500726 5.70141 0.322581 5.70141C0.144435 5.70141 0 5.55698 0 5.37883V0.322581C0 0.144435 0.144435 0 0.322581 0H5.37883C5.55698 0 5.70141 0.144435 5.70141 0.322581C5.70141 0.500726 5.55698 0.645161 5.37883 0.645161H0.645161V5.37883ZM10 3.71242L4.87661 6.6704L10 9.62839L15.1234 6.6704L10 3.71242ZM15.4452 7.22778V13.1437L10.3226 16.1013V10.1853L15.4452 7.22778ZM9.67742 16.1013L4.5548 13.1438V7.22778L9.67742 10.1853V16.1013ZM14.6212 0.645161C14.443 0.645161 14.2986 0.500726 14.2986 0.322581C14.2986 0.144435 14.443 0 14.6212 0H19.6774C19.8556 0 20 0.144435 20 0.322581V5.37883C20 5.55698 19.8556 5.70141 19.6774 5.70141C19.4993 5.70141 19.3548 5.55698 19.3548 5.37883V0.645161H14.6212ZM19.3548 14.6212V19.3548H14.6212C14.443 19.3548 14.2986 19.4993 14.2986 19.6774C14.2986 19.8556 14.443 20 14.6212 20H19.6774C19.8556 20 20 19.8556 20 19.6774V14.6212C20 14.443 19.8556 14.2986 19.6774 14.2986C19.4993 14.2986 19.3548 14.443 19.3548 14.6212ZM5.37883 19.3548H0.645161V14.6212C0.645161 14.443 0.500726 14.2986 0.322581 14.2986C0.144435 14.2986 0 14.443 0 14.6212V19.6774C0 19.8556 0.144435 20 0.322581 20H5.37883C5.55698 20 5.70141 19.8556 5.70141 19.6774C5.70141 19.4993 5.55698 19.3548 5.37883 19.3548Z" fill="#171723"/>
</svg>
