<svg width="20" height="20" viewBox="0 0 20 20" fill="none" xmlns="http://www.w3.org/2000/svg">
<g clip-path="url(#clip0_17692_32837)">
<path d="M15.9316 -2.50076e-07H13.2526V1.0168H15.9316C17.6136 1.0168 18.9824 2.38515 18.9824 4.06762V7.21853H19.9992V4.06762C19.9992 1.82487 18.1751 -2.50076e-07 15.9316 -2.50076e-07Z" fill="#171723"/>
<path d="M18.9824 15.9324C18.9824 17.6148 17.6136 18.9832 15.9316 18.9832H13.2526V20H15.9316C18.1751 20 19.9992 18.1751 19.9992 15.9324V13.4089H18.9824L18.9824 15.9324Z" fill="#171723"/>
<path d="M1.0168 15.9324V13.4089H0V15.9324C0 18.1751 1.82447 20 4.06803 20H7.06229V18.9832H4.06803C2.38557 18.9832 1.0168 17.6148 1.0168 15.9324Z" fill="#171723"/>
<path d="M0 4.06763V7.21854H1.0168V4.06763C1.0168 2.38516 2.38556 1.01681 4.06803 1.01681H7.06229V0H4.06803C1.82447 0 0 1.82488 0 4.06763Z" fill="#171723"/>
<path d="M2.92265 12.4222C3.30797 12.6582 3.74618 12.7762 4.23689 12.7762C4.73328 12.7762 5.17353 12.6565 5.55722 12.4181C5.94092 12.1793 6.23631 11.8403 6.4422 11.4009C6.64849 10.9615 6.75142 10.45 6.75142 9.86695V9.60247C6.75142 9.02185 6.64645 8.50999 6.43609 8.06649C6.22573 7.62299 5.9287 7.28242 5.54501 7.0452C5.16131 6.80758 4.72269 6.68918 4.22874 6.68918C3.73518 6.68918 3.29616 6.80758 2.91246 7.0452C2.52877 7.28242 2.23175 7.62298 2.02138 8.06649C1.81102 8.50999 1.70605 9.02307 1.70605 9.60654V9.8995C1.7089 10.4691 1.81591 10.9729 2.02748 11.4111C2.23907 11.8489 2.53773 12.1862 2.92265 12.4222ZM2.94299 9.57806C2.94584 8.96203 3.05854 8.49494 3.2807 8.17634C3.50327 7.85735 3.81941 7.69825 4.22874 7.69825C4.64133 7.69825 4.9587 7.85938 5.18086 8.18244C5.40342 8.5051 5.5145 8.97708 5.5145 9.5984V9.88729C5.51206 10.5029 5.40057 10.9716 5.18086 11.2931C4.96114 11.6145 4.64662 11.7752 4.23689 11.7752C3.81942 11.7752 3.49921 11.6084 3.27664 11.2748C3.05448 10.9411 2.943 10.4716 2.943 9.86694L2.94299 9.57806Z" fill="#171723"/>
<path d="M9.00761 8.12752C9.20983 7.83578 9.51418 7.69012 9.92106 7.69012C10.2954 7.69012 10.5741 7.77597 10.7572 7.94849C10.9403 8.1206 11.0469 8.3981 11.0766 8.78057H12.2973C12.2322 8.11858 11.9909 7.60468 11.573 7.23848C11.1555 6.87229 10.6046 6.68919 9.92106 6.68919C9.42751 6.68919 8.99418 6.80515 8.62106 7.03707C8.24795 7.26899 7.96151 7.60182 7.76051 8.03597C7.55992 8.46971 7.45941 8.97181 7.45941 9.54144V9.90357C7.45941 10.7959 7.67709 11.4977 8.11246 12.0092C8.54783 12.5202 9.14554 12.7762 9.90479 12.7762C10.5993 12.7762 11.1588 12.5931 11.5832 12.2269C12.0076 11.8607 12.2431 11.3586 12.2891 10.7214H11.0685C11.0416 11.0819 10.935 11.3484 10.7491 11.5209C10.5631 11.693 10.282 11.7793 9.9048 11.7793C9.48733 11.7793 9.18136 11.6312 8.98727 11.3358C8.79319 11.04 8.69635 10.5721 8.69635 9.93205V9.48448C8.70205 8.8713 8.80538 8.41885 9.00761 8.12752Z" fill="#171723"/>
<path d="M14.3113 10.5261H15.2838L16.3946 12.6948H17.7048V12.6378L16.4231 10.2169C16.7787 10.0566 17.0436 9.84172 17.2185 9.57196C17.3935 9.30179 17.481 8.96488 17.481 8.56085C17.481 7.99122 17.2914 7.55015 16.9113 7.23848C16.5317 6.9264 15.9918 6.77056 15.2919 6.77056H13.0907V12.6948H14.3113V10.5261ZM14.3113 7.75929H15.2919C15.6203 7.75929 15.8636 7.83904 16.0223 7.99936C16.181 8.15926 16.2603 8.37898 16.2603 8.65851C16.2603 8.93234 16.1765 9.14718 16.0081 9.30343C15.84 9.45926 15.6028 9.53738 15.296 9.53738H14.3113V7.75929Z" fill="#171723"/>
</g>
<defs>
<clipPath id="clip0_17692_32837">
<rect width="19.9992" height="20" fill="white"/>
</clipPath>
</defs>
</svg>
