<svg width="20" height="20" viewBox="0 0 20 20" fill="none" xmlns="http://www.w3.org/2000/svg">
<path fill-rule="evenodd" clip-rule="evenodd" d="M15.8333 1.66666C17.214 1.66666 18.3333 2.78595 18.3333 4.16666V15.8333C18.3333 17.214 17.214 18.3333 15.8333 18.3333H4.16667C2.78596 18.3333 1.66667 17.214 1.66667 15.8333V4.16666C1.66667 2.78595 2.78596 1.66666 4.16667 1.66666H15.8333ZM13.125 4.33349C12.7568 4.33349 12.4585 4.63181 12.4585 5V12.675L7.4406 4.64681C7.28297 4.39461 6.97697 4.27755 6.69109 4.35954C6.40532 4.4416 6.2085 4.70267 6.2085 5V15C6.2085 15.3682 6.50682 15.6665 6.875 15.6665C7.24319 15.6665 7.54151 15.3682 7.54151 15V7.32422L12.5594 15.3532C12.717 15.6054 13.023 15.7224 13.3089 15.6405C13.5947 15.5584 13.7915 15.2973 13.7915 15V5C13.7915 4.63181 13.4932 4.33349 13.125 4.33349Z" fill="#171723"/>
</svg>
