<svg width="20" height="20" viewBox="0 0 20 20" fill="none" xmlns="http://www.w3.org/2000/svg">
<path fill-rule="evenodd" clip-rule="evenodd" d="M15.8333 18.3333H4.16667L4.03809 18.3301C2.75972 18.2653 1.73469 17.2403 1.66993 15.9619L1.66667 15.8333V4.16666C1.66667 2.78595 2.78596 1.66666 4.16667 1.66666H15.8333C17.214 1.66666 18.3333 2.78595 18.3333 4.16666V15.8333C18.3333 17.1709 17.2829 18.2632 15.9619 18.3301L15.8333 18.3333ZM15.8333 17.0833H4.16667C3.47632 17.0833 2.91667 16.5237 2.91667 15.8333V4.16666C2.91667 3.47631 3.47632 2.91666 4.16667 2.91666H15.8333C16.5237 2.91666 17.0833 3.47631 17.0833 4.16666V15.8333C17.0833 16.5237 16.5237 17.0833 15.8333 17.0833Z" fill="#171723"/>
<path d="M6.25 15V5C6.25 4.72127 6.4346 4.47636 6.70248 4.39941C6.97047 4.32255 7.257 4.43239 7.40479 4.66878L12.5 12.8206V5C12.5 4.65482 12.7798 4.375 13.125 4.375C13.4702 4.375 13.75 4.65482 13.75 5V15C13.75 15.2787 13.5654 15.5236 13.2975 15.6006C13.0295 15.6774 12.743 15.5676 12.5952 15.3312L7.5 7.17855V15C7.5 15.3452 7.22018 15.625 6.875 15.625C6.52983 15.625 6.25 15.3452 6.25 15Z" fill="#171723"/>
</svg>
