<svg width="20" height="20" viewBox="0 0 20 20" fill="none" xmlns="http://www.w3.org/2000/svg">
<g clip-path="url(#clip0_10317_146738)">
<path d="M18.2778 9.91683C18.2309 9.86856 18.1747 9.83019 18.1127 9.80398C18.0507 9.77778 17.984 9.76428 17.9167 9.76428C17.8494 9.76428 17.7828 9.77778 17.7207 9.80398C17.6587 9.83019 17.6026 9.86856 17.5557 9.91683L17.2708 10.2017C17.1875 10.1626 17.098 10.1385 17.0063 10.1305L14.1685 9.81516C13.9956 9.79396 13.8202 9.81324 13.656 9.87148C13.4918 9.92972 13.3435 10.0253 13.2226 10.1508L9.81509 13.5481C9.60004 13.7664 9.47949 14.0605 9.47949 14.3669C9.47949 14.6733 9.60004 14.9674 9.81509 15.1856L12.9786 18.349C13.1968 18.5641 13.4909 18.6847 13.7973 18.6847C14.1037 18.6847 14.3977 18.5641 14.616 18.349L18.0133 14.9416C18.1387 14.8207 18.2343 14.6723 18.2926 14.5082C18.3509 14.344 18.3702 14.1685 18.349 13.9956L18.0337 11.1477C18.0227 11.0718 18.0057 10.997 17.9828 10.9238L18.2677 10.6391C18.3643 10.5444 18.4196 10.4153 18.4215 10.28C18.4234 10.1448 18.3717 10.0142 18.2778 9.91683ZM14.1074 17.2097C14.0615 17.2578 14.0063 17.2962 13.9451 17.3224C13.884 17.3487 13.8181 17.3622 13.7516 17.3623C13.6835 17.3623 13.616 17.3488 13.5532 17.3226C13.4903 17.2964 13.4333 17.258 13.3853 17.2097L10.9443 14.7584C10.896 14.7125 10.8576 14.6573 10.8314 14.5961C10.8052 14.5349 10.7916 14.469 10.7916 14.4024C10.7916 14.3358 10.8052 14.2699 10.8314 14.2087C10.8576 14.1476 10.896 14.0923 10.9443 14.0464C10.9912 13.9981 11.0473 13.9598 11.1093 13.9336C11.1714 13.9074 11.238 13.8939 11.3053 13.8939C11.3727 13.8939 11.4393 13.9074 11.5013 13.9336C11.5633 13.9598 11.6195 13.9981 11.6664 14.0464L14.1074 16.4876C14.1557 16.5345 14.1941 16.5906 14.2203 16.6526C14.2465 16.7147 14.26 16.7813 14.26 16.8486C14.26 16.916 14.2465 16.9826 14.2203 17.0446C14.1941 17.1066 14.1557 17.1628 14.1074 17.2097ZM15.4705 15.8468C15.4245 15.8949 15.3693 15.9332 15.3081 15.9594C15.2469 15.9856 15.1811 15.9992 15.1145 15.9993C15.0465 15.9993 14.9791 15.9858 14.9162 15.9596C14.8534 15.9334 14.7963 15.8951 14.7484 15.8468L12.3072 13.3954C12.259 13.3495 12.2206 13.2943 12.1944 13.2331C12.1681 13.1719 12.1546 13.106 12.1546 13.0395C12.1546 12.9729 12.1681 12.907 12.1944 12.8458C12.2206 12.7846 12.259 12.7294 12.3072 12.6835C12.3542 12.6352 12.4103 12.5968 12.4723 12.5706C12.5343 12.5444 12.601 12.5309 12.6683 12.5309C12.7356 12.5309 12.8023 12.5444 12.8643 12.5706C12.9263 12.5968 12.9824 12.6352 13.0294 12.6835L15.4705 15.1246C15.5188 15.1715 15.5571 15.2277 15.5833 15.2897C15.6095 15.3517 15.623 15.4183 15.623 15.4857C15.623 15.553 15.6095 15.6196 15.5833 15.6817C15.5571 15.7437 15.5188 15.7998 15.4705 15.8468ZM16.5589 13.2632C16.4504 13.3728 16.3213 13.4598 16.179 13.5192C16.0367 13.5785 15.884 13.6091 15.7298 13.6091C15.5756 13.6091 15.423 13.5785 15.2807 13.5192C15.1384 13.4598 15.0093 13.3728 14.9008 13.2632C14.7126 13.0753 14.5939 12.8288 14.5643 12.5645C14.5347 12.3001 14.596 12.0336 14.7381 11.8087C14.8801 11.5837 15.0945 11.4139 15.3459 11.327C15.5974 11.2401 15.8709 11.2414 16.1215 11.3307L15.6738 11.768L15.3688 12.073C15.2735 12.169 15.22 12.2988 15.22 12.4341C15.22 12.5694 15.2735 12.6992 15.3688 12.7952C15.4663 12.8842 15.5928 12.9348 15.7247 12.9377C15.7922 12.9396 15.8593 12.9279 15.9222 12.9035C15.9851 12.879 16.0424 12.8422 16.0908 12.7952L16.3959 12.5003L16.8335 12.0629C16.9056 12.2685 16.9181 12.4903 16.8695 12.7027C16.8209 12.9151 16.7132 13.1094 16.5589 13.2632Z" fill="#171723"/>
<path d="M18.4636 8.13366H11.8594V1.53586C11.8589 1.12877 11.6969 0.73849 11.4091 0.450586C11.1213 0.162682 10.7311 0.000645784 10.324 0H1.53588C1.12863 0.000435831 0.73818 0.162373 0.450164 0.450293C0.162149 0.738213 8.23553e-05 1.12861 -0.000488281 1.53586V10.3235C8.235e-05 10.7307 0.162148 11.1211 0.450164 11.4091C0.738179 11.697 1.12863 11.8589 1.53588 11.8594H8.13318V18.4641C8.13365 18.8714 8.29566 19.2619 8.58369 19.55C8.87171 19.838 9.26221 20 9.66954 20.0005H18.4636C18.871 20 19.2615 19.838 19.5495 19.55C19.8375 19.2619 19.9995 18.8714 20 18.4641V9.67001C19.9995 9.26269 19.8375 8.87219 19.5495 8.58416C19.2615 8.29614 18.871 8.13413 18.4636 8.13366ZM1.53588 10.8424C1.4675 10.8432 1.39966 10.8302 1.33634 10.8044C1.27302 10.7786 1.21548 10.7404 1.1671 10.6921C1.11873 10.6438 1.08049 10.5863 1.05462 10.523C1.02875 10.4597 1.01578 10.3919 1.01647 10.3235V1.53586C1.01578 1.46748 1.02876 1.39966 1.05462 1.33636C1.08049 1.27306 1.11873 1.21556 1.16711 1.16724C1.21548 1.11891 1.27302 1.08072 1.33634 1.05492C1.39967 1.02911 1.4675 1.01621 1.53588 1.01696H10.324C10.3923 1.01623 10.4601 1.02915 10.5234 1.05498C10.5866 1.0808 10.6441 1.119 10.6924 1.16734C10.7407 1.21568 10.7788 1.27318 10.8046 1.33646C10.8303 1.39974 10.8432 1.46754 10.8424 1.53586V8.13366H9.66954C9.42004 8.1354 9.17482 8.19868 8.95563 8.31788L6.33171 2.02944C6.30288 1.95996 6.25407 1.90061 6.19147 1.85889C6.12888 1.81718 6.05531 1.79498 5.98009 1.79511H5.87879C5.80357 1.795 5.73001 1.81721 5.66743 1.85893C5.60485 1.90065 5.55605 1.96001 5.52723 2.02949L2.39394 9.53595C2.37647 9.59728 2.37412 9.66193 2.38709 9.72437C2.40006 9.7868 2.42797 9.84517 2.46842 9.89447C2.51173 9.94772 2.5664 9.99062 2.62844 10.02C2.69047 10.0494 2.75829 10.0645 2.82694 10.0643C2.91963 10.067 3.0109 10.041 3.08836 9.99004C3.16582 9.93905 3.22572 9.86547 3.25994 9.77928L4.21034 7.50104H7.64854L8.2824 9.02052C8.1852 9.2233 8.13424 9.44514 8.13318 9.67001V10.8424H1.53588ZM7.29102 6.63057H4.56589L5.92945 3.35919L7.29102 6.63057ZM18.983 18.4641C18.9827 18.6018 18.9279 18.7337 18.8306 18.8311C18.7332 18.9284 18.6013 18.9832 18.4636 18.9835H9.66954C9.53187 18.9832 9.39993 18.9284 9.30258 18.8311C9.20524 18.7337 9.15042 18.6018 9.15014 18.4641V11.3706C9.15045 11.3637 9.15411 11.3579 9.15411 11.3509C9.15411 11.3439 9.15045 11.3381 9.15014 11.3311V9.67001C9.15034 9.53232 9.20513 9.40033 9.30249 9.30297C9.39985 9.2056 9.53185 9.15082 9.66954 9.15061H11.3336C11.3397 9.15081 11.3447 9.15409 11.3509 9.15409C11.3571 9.15409 11.3621 9.15081 11.3682 9.15061H18.4637C18.6014 9.15082 18.7334 9.2056 18.8308 9.30297C18.9281 9.40033 18.9829 9.53232 18.9831 9.67001L18.983 18.4641Z" fill="#171723"/>
</g>
<defs>
<clipPath id="clip0_10317_146738">
<rect width="20" height="20" fill="white"/>
</clipPath>
</defs>
</svg>
