<svg width="20" height="20" viewBox="0 0 20 20" fill="none" xmlns="http://www.w3.org/2000/svg">
<g clip-path="url(#clip0_10317_146742)">
<path d="M4.12012 6.35533H7.0725L5.59577 2.80927L4.12012 6.35533Z" fill="#171723"/>
<path d="M7.45741 7.29212H3.73437L2.69884 9.75959C2.66378 9.85301 2.60024 9.93305 2.51722 9.9884C2.43419 10.0438 2.33587 10.0716 2.23615 10.068C2.16282 10.0692 2.09016 10.054 2.02347 10.0235C1.95677 9.99298 1.89773 9.94798 1.85063 9.89176C1.80537 9.8375 1.77376 9.77319 1.75844 9.70421C1.74312 9.63523 1.74453 9.56358 1.76256 9.49526L5.15524 1.36593C5.1879 1.29079 5.24177 1.22681 5.31024 1.18181C5.37871 1.13682 5.45882 1.11277 5.54075 1.1126H5.65101C5.73186 1.11144 5.81112 1.13511 5.87809 1.18041C5.94506 1.2257 5.99653 1.29046 6.02554 1.36593L8.97767 8.43771C9.18304 8.32297 9.41421 8.26233 9.64946 8.26148H11.1918V0.837179C11.1918 0.727228 11.1702 0.618348 11.1281 0.516759C11.0861 0.415171 11.0244 0.322866 10.9466 0.245119C10.8689 0.167372 10.7766 0.105708 10.675 0.0636491C10.5734 0.0215904 10.4645 -3.79705e-05 10.3546 5.00426e-08H0.837168C0.727218 -3.79713e-05 0.618338 0.0215903 0.51675 0.0636491C0.415163 0.105708 0.322858 0.167373 0.245112 0.24512C0.167367 0.322867 0.105703 0.415172 0.0636453 0.51676C0.0215878 0.618348 -3.9375e-05 0.727229 5.38154e-08 0.837179V10.3544C-3.7971e-05 10.4644 0.0215906 10.5733 0.0636494 10.6749C0.105708 10.7764 0.167373 10.8687 0.245119 10.9465C0.322866 11.0242 0.41517 11.0859 0.516757 11.1279C0.618344 11.17 0.727222 11.1916 0.837168 11.1916H8.26152V9.64947C8.26004 9.54261 8.27353 9.43608 8.3016 9.33297L8.28357 9.28594L7.45741 7.29212Z" fill="#171723"/>
<path d="M14.4277 16.678C14.4735 16.7215 14.5099 16.7739 14.5347 16.8319C14.5596 16.8899 14.5725 16.9524 14.5725 17.0156C14.5725 17.0787 14.5596 17.1412 14.5347 17.1992C14.5099 17.2572 14.4735 17.3096 14.4277 17.3531C14.3387 17.4401 14.22 17.4899 14.0956 17.4924C13.9688 17.4861 13.8479 17.437 13.7526 17.3531L11.4914 15.0705C11.4458 15.0292 11.4094 14.9787 11.3845 14.9224C11.3596 14.8661 11.3467 14.8052 11.3467 14.7437C11.3467 14.6821 11.3596 14.6212 11.3845 14.5649C11.4094 14.5087 11.4458 14.4582 11.4914 14.4168C11.535 14.3711 11.5873 14.3347 11.6454 14.3098C11.7034 14.285 11.7659 14.2722 11.829 14.2722C11.8921 14.2722 11.9546 14.285 12.0126 14.3098C12.0706 14.3347 12.123 14.3711 12.1666 14.4168L14.4277 16.678Z" fill="#171723"/>
<path d="M15.6926 15.4135C15.7383 15.4571 15.7747 15.5094 15.7995 15.5675C15.8244 15.6255 15.8372 15.688 15.8372 15.7511C15.8372 15.8142 15.8244 15.8767 15.7995 15.9347C15.7747 15.9928 15.7383 16.0451 15.6926 16.0887C15.6014 16.171 15.4831 16.2168 15.3603 16.2173C15.2343 16.2169 15.1125 16.1713 15.0173 16.0887L12.7563 13.8061C12.6682 13.718 12.6187 13.5985 12.6187 13.4739C12.6186 13.3493 12.6681 13.2298 12.7562 13.1417C12.8443 13.0536 12.9638 13.0041 13.0884 13.0041C13.213 13.0041 13.3325 13.0536 13.4206 13.1416L15.6926 15.4135Z" fill="#171723"/>
<path d="M16.9566 12.5736C17.0244 12.7646 17.0362 12.9709 16.9906 13.1684C16.945 13.3658 16.844 13.5462 16.6994 13.6881C16.5996 13.7916 16.4796 13.8735 16.3469 13.9288C16.2142 13.9841 16.0715 14.0116 15.9278 14.0096C15.7681 14.0104 15.6101 13.9761 15.4651 13.9091C15.3202 13.8421 15.1917 13.744 15.0888 13.6218C14.9859 13.4997 14.9111 13.3564 14.8697 13.2021C14.8284 13.0478 14.8214 12.8864 14.8493 12.7291C14.8773 12.5719 14.9394 12.4227 15.0314 12.2921C15.1234 12.1615 15.243 12.0528 15.3816 11.9735C15.5203 11.8943 15.6747 11.8465 15.8339 11.8335C15.9931 11.8205 16.1532 11.8427 16.3029 11.8985L15.8849 12.3057L15.5956 12.5843C15.551 12.6285 15.5156 12.6811 15.4915 12.739C15.4673 12.797 15.4549 12.8591 15.4549 12.9219C15.4549 12.9847 15.4673 13.0468 15.4915 13.1047C15.5156 13.1627 15.551 13.2153 15.5956 13.2595C15.6893 13.3374 15.806 13.3826 15.9279 13.3881C16.0539 13.3877 16.1756 13.3421 16.2707 13.2595L16.5601 12.9808L16.9566 12.5736Z" fill="#171723"/>
<path d="M19.1642 8.81226H9.64784C9.60118 8.81009 9.55444 8.81367 9.50866 8.82293C9.38561 8.84407 9.2686 8.8916 9.16565 8.96224C8.97205 9.11144 8.845 9.33089 8.81201 9.57308V19.1643C8.8123 19.3859 8.90044 19.5983 9.05711 19.755C9.21379 19.9117 9.42621 19.9999 9.6478 20.0002H19.1641C19.3857 19.9999 19.5982 19.9117 19.7549 19.755C19.9116 19.5983 19.9997 19.3859 20 19.1643V9.64809C19.9997 9.42651 19.9115 9.21408 19.7549 9.0574C19.5982 8.90071 19.3858 8.81256 19.1642 8.81226ZM18.0711 11.7271L18.3604 14.3634C18.3808 14.5256 18.3634 14.6903 18.3094 14.8446C18.2555 14.9989 18.1666 15.1386 18.0497 15.2528L14.8991 18.4035C14.6959 18.6027 14.4227 18.7143 14.1382 18.7143C13.8537 18.7143 13.5805 18.6027 13.3773 18.4035L10.4516 15.4672C10.35 15.3693 10.2691 15.252 10.2139 15.1222C10.1587 14.9924 10.1302 14.8527 10.1302 14.7117C10.1302 14.5706 10.1587 14.431 10.2139 14.3011C10.2691 14.1713 10.35 14.054 10.4516 13.9562L13.6131 10.7948C13.7232 10.679 13.8595 10.5913 14.0105 10.539C14.1615 10.4868 14.3229 10.4716 14.481 10.4947L17.1174 10.7734C17.2033 10.7835 17.2868 10.8089 17.3638 10.8484L17.6318 10.5805C17.6742 10.5348 17.7256 10.4984 17.7828 10.4735C17.84 10.4486 17.9016 10.4358 17.964 10.4358C18.0263 10.4358 18.088 10.4486 18.1451 10.4735C18.2023 10.4984 18.2537 10.5348 18.2962 10.5805C18.34 10.6254 18.3745 10.6786 18.3977 10.7369C18.4209 10.7952 18.4324 10.8575 18.4314 10.9203C18.4304 10.983 18.417 11.045 18.3919 11.1025C18.3669 11.1601 18.3307 11.2121 18.2855 11.2556L18.0283 11.5235C18.0389 11.5878 18.0604 11.6521 18.0711 11.7271L18.0711 11.7271Z" fill="#171723"/>
</g>
<defs>
<clipPath id="clip0_10317_146742">
<rect width="20" height="20" fill="white"/>
</clipPath>
</defs>
</svg>
