<svg width="21" height="21" viewBox="0 0 21 21" fill="none" xmlns="http://www.w3.org/2000/svg">
<path d="M19.0681 8.93423C19.2917 8.26079 19.3691 7.54739 19.295 6.84168C19.2209 6.13596 18.997 5.45419 18.6384 4.8419C18.1067 3.91642 17.2948 3.18369 16.3199 2.74936C15.3449 2.31503 14.2572 2.20153 13.2135 2.42523C12.6206 1.7657 11.8646 1.27379 11.0214 0.998906C10.1782 0.724024 9.27756 0.675846 8.40986 0.859212C7.54216 1.04258 6.73798 1.45103 6.07809 2.04355C5.41821 2.63607 4.92584 3.39179 4.65046 4.23481C3.95518 4.37739 3.29834 4.66672 2.72384 5.08347C2.14933 5.50023 1.6704 6.03481 1.31904 6.65148C0.781569 7.57542 0.551858 8.64634 0.663116 9.70943C0.774374 10.7725 1.22084 11.7727 1.93796 12.5653C1.71351 13.2384 1.63539 13.9517 1.70883 14.6574C1.78227 15.3632 2.00557 16.0451 2.36379 16.6576C2.89616 17.5834 3.70872 18.3163 4.68438 18.7506C5.66004 19.1849 6.74841 19.2983 7.79262 19.0743C8.26367 19.6048 8.84248 20.0286 9.49038 20.3176C10.1383 20.6066 10.8404 20.754 11.5498 20.75C12.6195 20.751 13.6618 20.412 14.5263 19.7821C15.3909 19.1521 16.0329 18.2637 16.3596 17.2451C17.0548 17.1023 17.7116 16.8129 18.286 16.3961C18.8605 15.9794 19.3395 15.4449 19.691 14.8284C20.2222 13.9058 20.4479 12.8389 20.336 11.7803C20.2242 10.7216 19.7804 9.72541 19.0681 8.93423ZM11.5498 19.441C10.6737 19.4424 9.82512 19.1353 9.15279 18.5736L9.27104 18.5066L13.253 16.2081C13.3521 16.15 13.4343 16.0671 13.4917 15.9676C13.5491 15.868 13.5796 15.7553 13.5802 15.6404V10.0263L15.2635 11.0001C15.2719 11.0044 15.2791 11.0105 15.2846 11.018C15.2901 11.0255 15.2937 11.0343 15.2952 11.0435V15.6956C15.2931 16.6883 14.8978 17.6398 14.1959 18.3417C13.4939 19.0436 12.5425 19.4389 11.5498 19.441ZM3.49921 16.0031C3.05985 15.2445 2.9021 14.3552 3.05371 13.4917L3.17204 13.5627L7.15787 15.8612C7.2565 15.9191 7.36877 15.9496 7.48312 15.9496C7.59747 15.9496 7.70975 15.9191 7.80837 15.8612L12.6774 13.0541V14.9978C12.6769 15.0079 12.6742 15.0177 12.6694 15.0266C12.6646 15.0355 12.6579 15.0432 12.6497 15.0491L8.61654 17.3751C7.75581 17.871 6.7335 18.005 5.77405 17.7478C4.8146 17.4905 3.99644 16.8631 3.49921 16.0031ZM2.45054 7.32965C2.89294 6.56612 3.59123 5.98375 4.42179 5.68565V10.4166C4.42029 10.5309 4.44949 10.6435 4.50635 10.7427C4.56321 10.8419 4.64564 10.924 4.74504 10.9804L9.59037 13.7756L7.90696 14.7494C7.89785 14.7542 7.88769 14.7568 7.87737 14.7568C7.86706 14.7568 7.8569 14.7542 7.84779 14.7494L3.82254 12.4273C2.96343 11.9293 2.33666 11.1112 2.07951 10.152C1.82236 9.19291 1.95577 8.17095 2.45054 7.30998V7.32965ZM16.2808 10.5428L11.4197 7.71998L13.0992 6.74998C13.1083 6.74514 13.1185 6.74261 13.1288 6.74261C13.1391 6.74261 13.1493 6.74514 13.1584 6.74998L17.1836 9.07606C17.7991 9.43119 18.3008 9.95407 18.6303 10.5837C18.9597 11.2132 19.1032 11.9235 19.0441 12.6316C18.985 13.3398 18.7257 14.0164 18.2964 14.5827C17.8672 15.1489 17.2857 15.5814 16.6199 15.8296V11.0986C16.6164 10.9845 16.5833 10.8732 16.5238 10.7758C16.4644 10.6783 16.3807 10.5981 16.2808 10.5428ZM17.9564 8.02356L17.838 7.95256L13.8601 5.6344C13.7609 5.57617 13.6479 5.54547 13.5329 5.54547C13.4178 5.54547 13.3049 5.57617 13.2056 5.6344L8.34071 8.4414V6.49781C8.33967 6.48793 8.34132 6.47795 8.34549 6.46893C8.34965 6.45991 8.35618 6.45218 8.36437 6.44656L12.3896 4.1244C13.0066 3.76899 13.7119 3.59659 14.4232 3.62736C15.1345 3.65813 15.8224 3.89079 16.4063 4.29813C16.9903 4.70548 17.4461 5.27066 17.7206 5.92759C17.9952 6.58452 18.077 7.30602 17.9565 8.00773L17.9564 8.02356ZM7.42196 11.4691L5.73862 10.4993C5.7302 10.4942 5.723 10.4874 5.71753 10.4792C5.71205 10.471 5.70845 10.4618 5.70696 10.4521V5.81181C5.70788 5.09996 5.91144 4.40308 6.29383 3.80265C6.67622 3.20222 7.22164 2.72305 7.86632 2.42118C8.511 2.1193 9.2283 2.0072 9.93434 2.09796C10.6404 2.18873 11.306 2.47861 11.8534 2.93373L11.735 3.00081L7.75321 5.29915C7.6541 5.35727 7.57182 5.44017 7.51445 5.53971C7.45707 5.63925 7.42658 5.75201 7.42596 5.8669L7.42196 11.4691ZM8.33662 9.49798L10.505 8.24815L12.6774 9.49798V11.9975L10.5129 13.2472L8.34062 11.9975L8.33662 9.49798Z" fill="#74AA9C"/>
</svg>
