<svg width="20" height="20" viewBox="0 0 20 20" fill="none" xmlns="http://www.w3.org/2000/svg">
<path d="M1.02151 15.2688L0 14.9463V7.52691L1.50538 6.55917L3.06452 12.6882L4.94624 4.56992L9.03226 2.0968L13.1183 3.38712L13.9785 6.55917L17.1505 4.56992L20 5.4839V15.8602H19.6774L19.6237 5.59143L17.1505 4.83874L15.2151 12.8495L12.7957 3.54841L9.03226 2.41938V17.9033L6.02151 16.9355V7.84949L3.54839 16.1828L2.36559 15.7527L1.02151 9.67745V15.2688Z" fill="url(#paint0_linear_18927_1773)"/>
<path d="M11.7204 17.2581V7.41938L14.4086 17.043L11.7204 17.2581Z" fill="url(#paint1_linear_18927_1773)"/>
<path d="M17.957 8.2796V16.4516L16.0215 16.6129L17.957 8.2796Z" fill="url(#paint2_linear_18927_1773)"/>
<defs>
<linearGradient id="paint0_linear_18927_1773" x1="16.9892" y1="8.2796" x2="16.9892" y2="16.6129" gradientUnits="userSpaceOnUse">
<stop stop-color="#45B7EC"/>
<stop offset="1" stop-color="#02428C"/>
</linearGradient>
<linearGradient id="paint1_linear_18927_1773" x1="16.9892" y1="8.2796" x2="16.9892" y2="16.6129" gradientUnits="userSpaceOnUse">
<stop stop-color="#45B7EC"/>
<stop offset="1" stop-color="#02428C"/>
</linearGradient>
<linearGradient id="paint2_linear_18927_1773" x1="16.9892" y1="8.2796" x2="16.9892" y2="16.6129" gradientUnits="userSpaceOnUse">
<stop stop-color="#45B7EC"/>
<stop offset="1" stop-color="#02428C"/>
</linearGradient>
</defs>
</svg>
