<svg width="20" height="20" viewBox="0 0 20 20" fill="none" xmlns="http://www.w3.org/2000/svg">
<path d="M7.79243 9.47639C6.96844 9.00066 6.32446 8.26634 5.96035 7.38731C5.59625 6.50828 5.53237 5.53367 5.77862 4.61463C6.02488 3.6956 6.5675 2.8835 7.32234 2.30429C8.07718 1.72508 9.00205 1.41113 9.9535 1.41113C10.905 1.41113 11.8298 1.72508 12.5847 2.30429C13.3395 2.8835 13.8821 3.6956 14.1284 4.61463C14.3746 5.53367 14.3108 6.50828 13.9467 7.38731C13.5825 8.26634 12.9386 9.00066 12.1146 9.47639L10.8132 7.2224C11.141 7.03315 11.3972 6.74101 11.5421 6.39131C11.6869 6.0416 11.7124 5.65387 11.6144 5.28825C11.5164 4.92264 11.3006 4.59956 11.0003 4.36913C10.7 4.13871 10.332 4.01381 9.9535 4.01381C9.57499 4.01381 9.20705 4.13871 8.90675 4.36913C8.60645 4.59956 8.39058 4.92264 8.29261 5.28825C8.19465 5.65387 8.22006 6.0416 8.36491 6.39131C8.50976 6.74101 8.76596 7.03315 9.09376 7.2224L7.79243 9.47639Z" fill="#FF0101"/>
<path d="M17.0479 10.5232C17.8719 10.9989 18.5159 11.7332 18.88 12.6123C19.2441 13.4913 19.308 14.4659 19.0617 15.3849C18.8155 16.304 18.2729 17.1161 17.518 17.6953C16.7632 18.2745 15.8383 18.5884 14.8869 18.5884C13.9354 18.5884 13.0105 18.2745 12.2557 17.6953C11.5009 17.1161 10.9582 16.304 10.712 15.3849C10.4657 14.4659 10.5296 13.4913 10.8937 12.6123C11.2578 11.7332 11.9018 10.9989 12.7258 10.5232L14.0271 12.7772C13.6993 12.9664 13.4431 13.2586 13.2983 13.6083C13.1534 13.958 13.128 14.3457 13.226 14.7113C13.3239 15.0769 13.5398 15.4 13.8401 15.6304C14.1404 15.8609 14.5083 15.9858 14.8869 15.9858C15.2654 15.9858 15.6333 15.8609 15.9336 15.6304C16.2339 15.4 16.4498 15.0769 16.5477 14.7113C16.6457 14.3457 16.6203 13.958 16.4754 13.6083C16.3306 13.2586 16.0744 12.9664 15.7466 12.7772L17.0479 10.5232Z" fill="#0101FF"/>
<path d="M9.43533 14.266C9.43533 15.2175 9.12138 16.1423 8.54217 16.8972C7.96297 17.652 7.15087 18.1946 6.23183 18.4409C5.3128 18.6871 4.33819 18.6233 3.45916 18.2592C2.58013 17.8951 1.84581 17.2511 1.37008 16.4271C0.894353 15.6031 0.703809 14.6452 0.827998 13.7019C0.952188 12.7585 1.38417 11.8826 2.05695 11.2098C2.72973 10.537 3.60571 10.105 4.54902 9.98083C5.49234 9.85664 6.45027 10.0472 7.27426 10.5229L5.97292 12.7769C5.64511 12.5876 5.26402 12.5118 4.88874 12.5612C4.51346 12.6106 4.16497 12.7825 3.89732 13.0502C3.62967 13.3178 3.45781 13.6663 3.40841 14.0416C3.359 14.4169 3.4348 14.7979 3.62406 15.1257C3.81332 15.4536 4.10546 15.7098 4.45516 15.8546C4.80486 15.9995 5.19259 16.0249 5.55821 15.9269C5.92383 15.8289 6.24691 15.6131 6.47733 15.3128C6.70776 15.0125 6.83266 14.6445 6.83266 14.266L9.43533 14.266Z" fill="#01FF01"/>
</svg>
