<svg baseProfile="tiny" height="273" version="1.2" width="273">
<defs>
<linearGradient id="grad1" x1="0%" x2="0%" y1="0%" y2="100%">
<stop offset="0.0" stop-color="rgb(255,255,255)" />
<stop offset="0.25" stop-color="rgb(1,118,186)" />
<stop offset="0.5" stop-color="rgb(1,151,222)" />
<stop offset="0.75" stop-color="rgb(0,82,153)" />
<stop offset="1.0" stop-color="rgb(108,148,175)" />
</linearGradient>
</defs>
<polygon fill="url(#grad1)" points="238.0,115.0 238.0,116.0 237.0,117.0 237.0,121.0 236.0,122.0 236.0,123.0 235.0,124.0 235.0,128.0 234.0,129.0 234.0,133.0 233.0,134.0 233.0,138.0 232.0,139.0 232.0,140.0 231.0,141.0 231.0,145.0 230.0,146.0 230.0,151.0 229.0,152.0 229.0,155.0 228.0,156.0 228.0,158.0 227.0,159.0 227.0,162.0 226.0,163.0 226.0,167.0 225.0,168.0 225.0,170.0 224.0,171.0 224.0,174.0 223.0,175.0 223.0,179.0 222.0,180.0 222.0,184.0 221.0,185.0 221.0,187.0 220.0,188.0 220.0,191.0 219.0,192.0 219.0,197.0 218.0,198.0 218.0,202.0 216.0,204.0 216.0,209.0 215.0,210.0 215.0,214.0 214.0,215.0 214.0,218.0 215.0,218.0 216.0,219.0 217.0,219.0 218.0,220.0 222.0,220.0 223.0,219.0 226.0,219.0 227.0,218.0 233.0,218.0 234.0,217.0 238.0,217.0" />
<polygon fill="url(#grad1)" points="159.0,103.0 159.0,226.0 160.0,226.0 161.0,227.0 162.0,227.0 163.0,228.0 166.0,228.0 167.0,229.0 169.0,229.0 170.0,228.0 176.0,228.0 177.0,227.0 179.0,227.0 180.0,226.0 187.0,226.0 188.0,225.0 192.0,225.0 192.0,223.0 191.0,222.0 191.0,219.0 190.0,218.0 190.0,215.0 189.0,214.0 189.0,211.0 188.0,210.0 188.0,209.0 187.0,208.0 187.0,205.0 186.0,204.0 186.0,200.0 185.0,199.0 185.0,196.0 184.0,195.0 184.0,194.0 183.0,193.0 183.0,190.0 182.0,189.0 182.0,186.0 181.0,185.0 181.0,184.0 180.0,183.0 180.0,180.0 179.0,179.0 179.0,175.0 178.0,174.0 178.0,172.0 177.0,171.0 177.0,169.0 176.0,168.0 176.0,165.0 175.0,164.0 175.0,161.0 174.0,160.0 174.0,157.0 173.0,156.0 173.0,155.0 172.0,154.0 172.0,151.0 171.0,150.0 171.0,147.0 170.0,146.0 170.0,142.0 169.0,141.0 169.0,140.0 168.0,139.0 168.0,136.0 167.0,135.0 167.0,132.0 166.0,131.0 166.0,128.0 165.0,127.0 165.0,125.0 164.0,124.0 164.0,122.0 163.0,121.0 163.0,117.0 162.0,116.0 162.0,113.0 161.0,112.0 161.0,111.0 160.0,110.0 160.0,107.0 159.0,106.0" />
<polygon fill="url(#grad1)" points="123.0,38.0 122.0,39.0 121.0,39.0 120.0,40.0 119.0,40.0 117.0,42.0 116.0,42.0 115.0,43.0 114.0,43.0 113.0,44.0 112.0,44.0 110.0,46.0 109.0,46.0 107.0,48.0 105.0,48.0 103.0,50.0 102.0,50.0 100.0,52.0 98.0,52.0 96.0,54.0 95.0,54.0 93.0,56.0 91.0,56.0 91.0,57.0 90.0,58.0 89.0,58.0 88.0,59.0 87.0,59.0 86.0,60.0 85.0,60.0 83.0,62.0 82.0,62.0 81.0,63.0 80.0,63.0 79.0,64.0 78.0,64.0 76.0,66.0 75.0,66.0 74.0,67.0 74.0,68.0 73.0,69.0 73.0,70.0 72.0,71.0 72.0,72.0 71.0,73.0 71.0,76.0 70.0,77.0 70.0,81.0 69.0,82.0 69.0,86.0 68.0,87.0 68.0,89.0 67.0,90.0 67.0,93.0 66.0,94.0 66.0,98.0 65.0,99.0 65.0,104.0 63.0,106.0 63.0,111.0 62.0,112.0 62.0,116.0 61.0,117.0 61.0,120.0 60.0,121.0 60.0,123.0 59.0,124.0 59.0,128.0 58.0,129.0 58.0,133.0 57.0,134.0 57.0,135.0 56.0,136.0 56.0,140.0 55.0,141.0 55.0,146.0 54.0,147.0 54.0,150.0 53.0,151.0 53.0,152.0 52.0,153.0 52.0,157.0 51.0,158.0 51.0,163.0 50.0,164.0 50.0,167.0 49.0,168.0 49.0,170.0 48.0,171.0 47.0,170.0 47.0,167.0 46.0,166.0 46.0,163.0 45.0,162.0 45.0,158.0 44.0,157.0 44.0,155.0 43.0,154.0 43.0,151.0 42.0,150.0 42.0,145.0 41.0,144.0 41.0,141.0 40.0,140.0 40.0,139.0 39.0,138.0 39.0,134.0 38.0,133.0 38.0,129.0 37.0,128.0 37.0,124.0 36.0,123.0 36.0,122.0 35.0,121.0 35.0,117.0 34.0,116.0 34.0,113.0 33.0,112.0 33.0,108.0 32.0,107.0 32.0,105.0 31.0,104.0 31.0,100.0 30.0,99.0 30.0,95.0 29.0,94.0 28.0,94.0 27.0,95.0 26.0,95.0 25.0,96.0 24.0,96.0 22.0,98.0 21.0,98.0 20.0,99.0 19.0,99.0 17.0,101.0 16.0,101.0 12.0,105.0 12.0,106.0 11.0,107.0 11.0,200.0 12.0,200.0 13.0,201.0 15.0,201.0 16.0,202.0 19.0,202.0 20.0,203.0 22.0,203.0 22.0,133.0 23.0,132.0 24.0,133.0 24.0,137.0 25.0,138.0 25.0,140.0 26.0,141.0 26.0,145.0 27.0,146.0 27.0,151.0 28.0,152.0 28.0,156.0 29.0,157.0 29.0,159.0 30.0,160.0 30.0,164.0 31.0,165.0 31.0,168.0 32.0,169.0 32.0,174.0 33.0,175.0 33.0,177.0 34.0,178.0 34.0,182.0 35.0,183.0 35.0,187.0 36.0,188.0 36.0,192.0 37.0,193.0 37.0,195.0 38.0,196.0 38.0,200.0 39.0,201.0 39.0,206.0 40.0,207.0 40.0,209.0 41.0,210.0 44.0,210.0 46.0,212.0 49.0,212.0 50.0,213.0 53.0,213.0 54.0,214.0 55.0,214.0 57.0,212.0 57.0,208.0 58.0,207.0 58.0,204.0 59.0,203.0 59.0,202.0 60.0,201.0 60.0,199.0 61.0,198.0 61.0,194.0 62.0,193.0 62.0,190.0 63.0,189.0 63.0,188.0 64.0,187.0 64.0,184.0 65.0,183.0 65.0,180.0 66.0,179.0 66.0,176.0 68.0,174.0 68.0,170.0 69.0,169.0 69.0,166.0 70.0,165.0 70.0,163.0 71.0,162.0 71.0,160.0 72.0,159.0 72.0,156.0 73.0,155.0 73.0,152.0 74.0,151.0 74.0,148.0 75.0,147.0 75.0,146.0 76.0,145.0 76.0,142.0 77.0,141.0 77.0,139.0 78.0,138.0 78.0,134.0 79.0,133.0 79.0,132.0 80.0,131.0 80.0,128.0 81.0,127.0 81.0,124.0 82.0,123.0 82.0,120.0 83.0,119.0 83.0,118.0 84.0,117.0 84.0,114.0 85.0,113.0 85.0,110.0 86.0,109.0 87.0,110.0 87.0,225.0 90.0,225.0 91.0,226.0 94.0,226.0 96.0,228.0 99.0,228.0 100.0,229.0 103.0,229.0 104.0,230.0 106.0,230.0 107.0,231.0 108.0,231.0 109.0,232.0 111.0,232.0 112.0,233.0 115.0,233.0 116.0,234.0 119.0,234.0 121.0,236.0 124.0,236.0 124.0,41.0 125.0,40.0 126.0,41.0 129.0,41.0 130.0,42.0 133.0,42.0 134.0,43.0 137.0,43.0 138.0,44.0 139.0,44.0 140.0,45.0 143.0,45.0 144.0,46.0 147.0,46.0 148.0,47.0 151.0,47.0 153.0,49.0 157.0,49.0 158.0,50.0 160.0,50.0 161.0,51.0 164.0,51.0 165.0,52.0 167.0,52.0 168.0,53.0 170.0,53.0 175.0,58.0 175.0,59.0 176.0,60.0 176.0,65.0 177.0,66.0 177.0,69.0 178.0,70.0 178.0,72.0 179.0,73.0 179.0,76.0 180.0,77.0 180.0,80.0 181.0,81.0 181.0,85.0 183.0,87.0 183.0,92.0 184.0,93.0 184.0,96.0 185.0,97.0 185.0,99.0 186.0,100.0 186.0,103.0 187.0,104.0 187.0,107.0 188.0,108.0 188.0,113.0 190.0,115.0 190.0,120.0 191.0,121.0 191.0,124.0 192.0,125.0 192.0,128.0 193.0,129.0 193.0,131.0 194.0,132.0 194.0,135.0 195.0,136.0 195.0,140.0 196.0,141.0 196.0,144.0 197.0,145.0 197.0,147.0 198.0,148.0 198.0,151.0 199.0,152.0 199.0,156.0 200.0,157.0 200.0,161.0 201.0,162.0 201.0,163.0 202.0,164.0 202.0,168.0 203.0,169.0 203.0,172.0 204.0,171.0 204.0,170.0 205.0,169.0 205.0,164.0 206.0,163.0 206.0,160.0 207.0,159.0 207.0,155.0 208.0,154.0 208.0,152.0 209.0,151.0 209.0,148.0 210.0,147.0 210.0,142.0 211.0,141.0 211.0,137.0 212.0,136.0 212.0,134.0 213.0,133.0 213.0,130.0 214.0,129.0 214.0,125.0 215.0,124.0 215.0,120.0 216.0,119.0 216.0,118.0 217.0,117.0 217.0,113.0 218.0,112.0 218.0,108.0 219.0,107.0 219.0,104.0 220.0,103.0 220.0,101.0 221.0,100.0 221.0,96.0 222.0,95.0 222.0,90.0 223.0,89.0 223.0,86.0 224.0,85.0 224.0,83.0 225.0,82.0 225.0,78.0 226.0,77.0 226.0,74.0 227.0,73.0 227.0,71.0 228.0,70.0 229.0,70.0 230.0,71.0 231.0,71.0 232.0,72.0 235.0,72.0 236.0,73.0 240.0,73.0 241.0,74.0 243.0,74.0 244.0,75.0 245.0,75.0 246.0,76.0 249.0,76.0 250.0,77.0 253.0,77.0 254.0,78.0 256.0,78.0 259.0,81.0 259.0,211.0 260.0,212.0 261.0,212.0 262.0,211.0 262.0,81.0 261.0,80.0 261.0,79.0 259.0,77.0 258.0,77.0 257.0,76.0 256.0,76.0 255.0,75.0 253.0,75.0 252.0,74.0 248.0,74.0 247.0,73.0 245.0,73.0 244.0,72.0 242.0,72.0 241.0,71.0 238.0,71.0 237.0,70.0 235.0,70.0 234.0,69.0 228.0,69.0 227.0,70.0 226.0,70.0 225.0,71.0 224.0,71.0 221.0,74.0 219.0,74.0 217.0,76.0 216.0,76.0 214.0,78.0 212.0,78.0 209.0,81.0 208.0,81.0 207.0,82.0 206.0,82.0 205.0,83.0 204.0,83.0 202.0,85.0 201.0,85.0 200.0,86.0 199.0,86.0 198.0,87.0 197.0,87.0 195.0,89.0 194.0,89.0 193.0,90.0 192.0,90.0 191.0,91.0 190.0,91.0 190.0,92.0 189.0,93.0 187.0,93.0 186.0,92.0 186.0,90.0 185.0,89.0 185.0,86.0 184.0,85.0 184.0,83.0 183.0,82.0 183.0,79.0 182.0,78.0 182.0,75.0 181.0,74.0 181.0,73.0 180.0,72.0 180.0,68.0 179.0,67.0 179.0,63.0 178.0,62.0 178.0,59.0 177.0,58.0 177.0,56.0 174.0,53.0 174.0,52.0 173.0,52.0 172.0,51.0 169.0,51.0 168.0,50.0 166.0,50.0 165.0,49.0 164.0,49.0 163.0,48.0 160.0,48.0 159.0,47.0 156.0,47.0 155.0,46.0 152.0,46.0 150.0,44.0 146.0,44.0 145.0,43.0 143.0,43.0 142.0,42.0 138.0,42.0 137.0,41.0 136.0,41.0 135.0,40.0 133.0,40.0 132.0,39.0 128.0,39.0 127.0,38.0" />
</svg>