<svg width="20" height="20" viewBox="0 0 20 20" fill="none" xmlns="http://www.w3.org/2000/svg">
<g clip-path="url(#clip0_10838_132708)">
<path d="M3.04958 13.4364C3.11612 13.4364 3.18202 13.4233 3.24349 13.398C3.30498 13.3727 3.36084 13.3355 3.40789 13.2886C3.45494 13.2418 3.49225 13.1862 3.5177 13.1249C3.54315 13.0637 3.55623 12.9981 3.55619 12.9318V11.2667H9.494V12.9318C9.494 13.0656 9.54741 13.1939 9.64236 13.2885C9.73741 13.3831 9.86624 13.4364 10.0006 13.4364C10.135 13.4364 10.2639 13.3831 10.3588 13.2885C10.4539 13.1939 10.5073 13.0656 10.5073 12.9318V11.2667H16.445V12.9318C16.445 13.0656 16.4985 13.1939 16.5935 13.2885C16.6885 13.3831 16.8174 13.4364 16.9517 13.4364C17.0861 13.4364 17.2149 13.3831 17.3099 13.2885C17.4049 13.1939 17.4583 13.0656 17.4583 12.9318V10.7622C17.4583 10.6959 17.4453 10.6304 17.4198 10.5691C17.3944 10.5079 17.3571 10.4522 17.31 10.4054C17.263 10.3585 17.2071 10.3214 17.1456 10.2961C17.0841 10.2707 17.0183 10.2578 16.9517 10.2578H10.5073V9.15816C10.5073 9.02436 10.4539 8.89606 10.3589 8.80145C10.2639 8.70684 10.1351 8.65369 10.0006 8.65369C9.86634 8.65369 9.73741 8.70684 9.64246 8.80145C9.54741 8.89606 9.4941 9.02436 9.4941 9.15816V10.2578H3.04958C2.98304 10.2578 2.91715 10.2707 2.85566 10.2961C2.79418 10.3214 2.73831 10.3585 2.69127 10.4054C2.64422 10.4522 2.6069 10.5079 2.58146 10.5691C2.55601 10.6304 2.54293 10.6959 2.54297 10.7622V12.9318C2.54293 12.9981 2.55601 13.0637 2.58146 13.1249C2.6069 13.1862 2.64422 13.2418 2.69127 13.2886C2.73832 13.3355 2.79418 13.3727 2.85566 13.398C2.91715 13.4233 2.98304 13.4364 3.04958 13.4364Z" fill="#171723"/>
<path d="M12.5069 8.21118H7.44145C6.56575 8.21118 5.85254 7.49915 5.85254 6.62489V1.58629C5.85254 0.71203 6.56575 0 7.44145 0H12.5069C13.3826 0 14.0958 0.71203 14.0958 1.58629V6.6249C14.0958 7.49916 13.3826 8.21119 12.5069 8.21119V8.21118ZM7.44145 0.994706C7.11453 0.994706 6.84889 1.25989 6.84889 1.58629V6.6249C6.84889 6.95128 7.11452 7.21648 7.44145 7.21648H12.5069C12.8338 7.21648 13.0994 6.95129 13.0994 6.6249V1.58629C13.0994 1.2599 12.8338 0.994706 12.5069 0.994706H7.44145Z" fill="#171723"/>
<path d="M4.84845 20H1.26879C0.569206 20 0 19.4318 0 18.7333V15.1722C0 14.4728 0.569206 13.9045 1.26879 13.9045H4.84845C5.54901 13.9045 6.11822 14.4728 6.11822 15.1722V18.7333C6.11822 19.4318 5.54901 20 4.84845 20ZM1.26879 14.8992C1.11895 14.8992 0.996351 15.0216 0.996351 15.1722V18.7333C0.996351 18.8829 1.11895 19.0053 1.26879 19.0053H4.84845C4.99927 19.0053 5.12186 18.8829 5.12186 18.7333V15.1722C5.12186 15.0216 4.99926 14.8992 4.84845 14.8992H1.26879Z" fill="#171723"/>
<path d="M11.7635 20H8.18382C7.48327 20 6.91406 19.4318 6.91406 18.7333V15.1722C6.91406 14.4728 7.48327 13.9045 8.18382 13.9045H11.7635C12.464 13.9045 13.0332 14.4728 13.0332 15.1722V18.7333C13.0332 19.4318 12.464 20 11.7635 20ZM8.18382 14.8992C8.03301 14.8992 7.91041 15.0216 7.91041 15.1722V18.7333C7.91041 18.8829 8.03302 19.0053 8.18382 19.0053H11.7635C11.9143 19.0053 12.0369 18.8829 12.0369 18.7333V15.1722C12.0369 15.0216 11.9143 14.8992 11.7635 14.8992H8.18382Z" fill="#171723"/>
<path d="M18.7303 20H15.1506C14.451 20 13.8818 19.4318 13.8818 18.7333V15.1722C13.8818 14.4728 14.451 13.9045 15.1506 13.9045H18.7303C19.4308 13.9045 20.0001 14.4728 20.0001 15.1722V18.7333C20.0001 19.4318 19.4308 20 18.7303 20ZM15.1506 14.8992C15.0008 14.8992 14.8782 15.0216 14.8782 15.1722V18.7333C14.8782 18.8829 15.0008 19.0053 15.1506 19.0053H18.7303C18.8811 19.0053 19.0037 18.8829 19.0037 18.7333V15.1722C19.0037 15.0216 18.8811 14.8992 18.7303 14.8992H15.1506Z" fill="#171723"/>
</g>
<defs>
<clipPath id="clip0_10838_132708">
<rect width="20" height="20" fill="white"/>
</clipPath>
</defs>
</svg>
