<svg width="21" height="20" viewBox="0 0 21 20" fill="none" xmlns="http://www.w3.org/2000/svg">
<g clip-path="url(#clip0_10314_145408)">
<g clip-path="url(#clip1_10314_145408)">
<path d="M7.97017 0H13.0906C13.4944 1.88303e-05 13.8816 0.160011 14.1671 0.444783C14.4526 0.729554 14.613 1.11578 14.613 1.5185V6.62671C14.613 6.82599 14.5736 7.02332 14.4972 7.20744C14.4207 7.39155 14.3086 7.55884 14.1674 7.69975C14.0261 7.84066 13.8584 7.95244 13.6738 8.0287C13.4892 8.10497 13.2913 8.14422 13.0915 8.14422H7.96919C7.76939 8.14422 7.57155 8.10497 7.38696 8.02871C7.20237 7.95245 7.03465 7.84067 6.89337 7.69975C6.75209 7.55884 6.64003 7.39155 6.56357 7.20744C6.48711 7.02332 6.44775 6.82599 6.44775 6.62671V1.5185C6.44775 1.31909 6.48713 1.12163 6.56364 0.937394C6.64015 0.753161 6.75229 0.585763 6.89366 0.444758C7.03503 0.303752 7.20286 0.1919 7.38757 0.115589C7.57228 0.0392771 7.77025 0 7.97017 0Z" fill="#171723"/>
<path d="M8.7294 13.9666H12.3334C12.4938 13.9666 12.6526 13.9981 12.8008 14.0593C12.949 14.1205 13.0837 14.2103 13.1971 14.3234C13.3105 14.4366 13.4005 14.5709 13.4619 14.7187C13.5233 14.8665 13.5548 15.025 13.5548 15.185V18.7806C13.5548 19.104 13.426 19.4142 13.1968 19.6428C12.9675 19.8715 12.6566 20 12.3323 20H8.72934C8.40511 20 8.09416 19.8715 7.8649 19.6428C7.63563 19.4142 7.50684 19.104 7.50684 18.7806V15.1859C7.50683 15.0258 7.53845 14.8672 7.59989 14.7193C7.66133 14.5713 7.75138 14.4369 7.86491 14.3237C7.97843 14.2105 8.11321 14.1206 8.26154 14.0594C8.40987 13.9981 8.56885 13.9665 8.7294 13.9666Z" fill="#171723"/>
<path d="M15.7034 13.9666H19.3084C19.6324 13.9666 19.943 14.0949 20.1721 14.3234C20.4012 14.5519 20.5299 14.8618 20.5299 15.1849V18.7806C20.5299 19.104 20.4011 19.4141 20.1718 19.6428C19.9426 19.8715 19.6316 19.9999 19.3074 19.9999H15.7034C15.3795 19.9999 15.0688 19.8716 14.8397 19.6431C14.6106 19.4146 14.4819 19.1047 14.4819 18.7816V15.1849C14.4819 14.8618 14.6106 14.5519 14.8397 14.3234C15.0688 14.0949 15.3795 13.9666 15.7034 13.9666Z" fill="#171723"/>
<path d="M5.35624 13.9667H1.75229C1.07712 13.9667 0.529785 14.5126 0.529785 15.186V18.7807C0.529785 19.4541 1.07712 20.0001 1.75229 20.0001H5.35624C6.03141 20.0001 6.57874 19.4541 6.57874 18.7807V15.186C6.57874 14.5126 6.03141 13.9667 5.35624 13.9667Z" fill="#171723"/>
<path d="M3.55388 13.4546C3.62066 13.4546 3.6868 13.4415 3.7485 13.416C3.81021 13.3906 3.86628 13.3532 3.9135 13.3061C3.96072 13.259 3.99817 13.2031 4.02371 13.1415C4.04925 13.08 4.06238 13.014 4.06234 12.9474V11.2734H10.0219V12.9474C10.0219 13.0819 10.0755 13.2109 10.1708 13.306C10.2662 13.4011 10.3955 13.4546 10.5304 13.4546C10.6652 13.4546 10.7946 13.4011 10.8899 13.306C10.9853 13.2109 11.0389 13.0819 11.0389 12.9474V11.2734H16.9984V12.9474C16.9984 13.0819 17.052 13.2109 17.1474 13.306C17.2427 13.4011 17.3721 13.4546 17.5069 13.4546C17.6418 13.4546 17.7711 13.4011 17.8664 13.306C17.9618 13.2109 18.0154 13.0819 18.0154 12.9474V10.7662C18.0154 10.6996 18.0023 10.6337 17.9767 10.5721C17.9512 10.5106 17.9138 10.4546 17.8665 10.4075C17.8193 10.3604 17.7632 10.3231 17.7015 10.2976C17.6398 10.2721 17.5737 10.2591 17.5069 10.2591H11.0389V9.15364C11.0389 9.01913 10.9853 8.89014 10.89 8.79503C10.7946 8.69992 10.6653 8.64648 10.5304 8.64648C10.3956 8.64648 10.2662 8.69992 10.1709 8.79503C10.0755 8.89014 10.022 9.01913 10.022 9.15364V10.2591H3.55388C3.48709 10.2591 3.42096 10.2721 3.35925 10.2976C3.29754 10.3231 3.24147 10.3604 3.19425 10.4075C3.14703 10.4546 3.10958 10.5106 3.08404 10.5721C3.0585 10.6337 3.04537 10.6996 3.04541 10.7662V12.9474C3.04537 13.014 3.0585 13.08 3.08404 13.1415C3.10958 13.2031 3.14703 13.259 3.19425 13.3061C3.24148 13.3532 3.29754 13.3906 3.35925 13.416C3.42096 13.4415 3.48709 13.4546 3.55388 13.4546Z" fill="#171723"/>
</g>
</g>
<defs>
<clipPath id="clip0_10314_145408">
<rect width="20" height="20" fill="white" transform="translate(0.529785)"/>
</clipPath>
<clipPath id="clip1_10314_145408">
<rect width="20" height="20" fill="white" transform="translate(0.529785)"/>
</clipPath>
</defs>
</svg>
