<svg width="20" height="20" viewBox="0 0 20 20" fill="none" xmlns="http://www.w3.org/2000/svg">
<g clip-path="url(#clip0_10838_132716)">
<path d="M3.04935 13.4363C3.11588 13.4363 3.18178 13.4233 3.24326 13.3979C3.30474 13.3727 3.36061 13.3355 3.40765 13.2886C3.4547 13.2418 3.49202 13.1862 3.51746 13.1249C3.54291 13.0637 3.55599 12.9981 3.55595 12.9318V11.2667H9.49377V12.9318C9.49377 13.0656 9.54717 13.1939 9.64212 13.2885C9.73718 13.3831 9.866 13.4363 10.0004 13.4363C10.1347 13.4363 10.2636 13.3831 10.3586 13.2885C10.4537 13.1939 10.5071 13.0656 10.5071 12.9318V11.2667H16.4448V12.9318C16.4448 13.0656 16.4982 13.1939 16.5933 13.2885C16.6882 13.3831 16.8171 13.4363 16.9515 13.4363C17.0859 13.4363 17.2147 13.3831 17.3096 13.2885C17.4047 13.1939 17.4581 13.0656 17.4581 12.9318V10.7622C17.4581 10.6959 17.445 10.6304 17.4195 10.5691C17.3941 10.5079 17.3569 10.4522 17.3097 10.4054C17.2627 10.3585 17.2068 10.3214 17.1453 10.296C17.0839 10.2707 17.018 10.2578 16.9515 10.2578H10.5071V9.15815C10.5071 9.02435 10.4537 8.89604 10.3587 8.80143C10.2636 8.70683 10.1348 8.65367 10.0004 8.65367C9.8661 8.65367 9.73718 8.70683 9.64222 8.80143C9.54717 8.89604 9.49387 9.02435 9.49387 9.15815V10.2578H3.04935C2.9828 10.2578 2.91691 10.2707 2.85543 10.296C2.79394 10.3214 2.73808 10.3585 2.69103 10.4054C2.64398 10.4522 2.60667 10.5079 2.58122 10.5691C2.55577 10.6304 2.54269 10.6959 2.54273 10.7622V12.9318C2.54269 12.9981 2.55577 13.0637 2.58122 13.1249C2.60667 13.1862 2.64398 13.2418 2.69103 13.2886C2.73809 13.3355 2.79394 13.3727 2.85543 13.3979C2.91691 13.4233 2.9828 13.4363 3.04935 13.4363Z" fill="#171723"/>
<path d="M12.5069 8.21118H7.4415C6.56579 8.21118 5.85258 7.49915 5.85258 6.62489V1.58629C5.85258 0.71203 6.56579 0 7.4415 0H12.5069C13.3826 0 14.0958 0.71203 14.0958 1.58629V6.6249C14.0958 7.49916 13.3826 8.21119 12.5069 8.21119V8.21118ZM7.4415 0.994706C7.11457 0.994706 6.84894 1.25989 6.84894 1.58629V6.6249C6.84894 6.95128 7.11456 7.21648 7.4415 7.21648H12.5069C12.8338 7.21648 13.0995 6.95129 13.0995 6.6249V1.58629C13.0995 1.2599 12.8339 0.994706 12.5069 0.994706H7.4415Z" fill="#171723"/>
<path d="M4.84845 20H1.26879C0.569206 20 0 19.4317 0 18.7333V15.1722C0 14.4728 0.569206 13.9045 1.26879 13.9045H4.84845C5.54901 13.9045 6.11821 14.4728 6.11821 15.1722V18.7333C6.11821 19.4317 5.54901 20 4.84845 20V20ZM1.26879 14.8992C1.11895 14.8992 0.996351 15.0216 0.996351 15.1722V18.7333C0.996351 18.8829 1.11895 19.0053 1.26879 19.0053H4.84845C4.99927 19.0053 5.12186 18.8829 5.12186 18.7333V15.1722C5.12186 15.0216 4.99926 14.8992 4.84845 14.8992H1.26879V14.8992Z" fill="#171723"/>
<path d="M11.7636 20H8.1839C7.48334 20 6.91414 19.4317 6.91414 18.7333V15.1722C6.91414 14.4728 7.48334 13.9045 8.1839 13.9045H11.7636C12.4641 13.9045 13.0333 14.4728 13.0333 15.1722V18.7333C13.0333 19.4317 12.4641 20 11.7636 20ZM8.1839 14.8992C8.03308 14.8992 7.91049 15.0216 7.91049 15.1722V18.7333C7.91049 18.8829 8.03309 19.0053 8.1839 19.0053H11.7636C11.9144 19.0053 12.037 18.8829 12.037 18.7333V15.1722C12.037 15.0216 11.9144 14.8992 11.7636 14.8992H8.1839V14.8992Z" fill="#171723"/>
<path d="M18.7302 20H15.1506C14.451 20 13.8818 19.4317 13.8818 18.7333V15.1722C13.8818 14.4728 14.451 13.9045 15.1506 13.9045H18.7302C19.4308 13.9045 20 14.4728 20 15.1722V18.7333C20 19.4317 19.4308 20 18.7302 20V20ZM15.1506 14.8992C15.0007 14.8992 14.8781 15.0216 14.8781 15.1722V18.7333C14.8781 18.8829 15.0007 19.0053 15.1506 19.0053H18.7302C18.8811 19.0053 19.0036 18.8829 19.0036 18.7333V15.1722C19.0036 15.0216 18.881 14.8992 18.7302 14.8992H15.1506V14.8992Z" fill="#171723"/>
</g>
<defs>
<clipPath id="clip0_10838_132716">
<rect width="20" height="20" fill="white"/>
</clipPath>
</defs>
</svg>
