<svg width="20" height="20" viewBox="0 0 20 20" fill="none" xmlns="http://www.w3.org/2000/svg">
<g clip-path="url(#clip0_10314_145662)">
<g clip-path="url(#clip1_10314_145662)">
<path d="M10.0005 20C8.0227 20.0001 6.08927 19.4137 4.44472 18.315C2.80018 17.2162 1.51837 15.6545 0.761404 13.8273C0.00443445 12.0001 -0.193701 9.98943 0.192052 8.0496C0.577806 6.10977 1.53012 4.32789 2.92858 2.9293C4.32703 1.5307 6.10881 0.578202 8.0486 0.192251C9.98839 -0.1937 11.9991 0.00423133 13.8264 0.761015C15.6537 1.5178 17.2155 2.79944 18.3144 4.44388C19.4133 6.08831 19.9999 8.02168 20 9.99949C19.9972 12.6508 18.9428 15.1926 17.0682 17.0675C15.1935 18.9423 12.6518 19.9969 10.0005 20ZM10.0005 1.01694C8.22378 1.01684 6.48693 1.54361 5.00959 2.53064C3.53226 3.51768 2.3808 4.92063 1.70083 6.5621C1.02086 8.20356 0.842921 10.0098 1.18952 11.7524C1.53612 13.495 2.39168 15.0957 3.64802 16.352C4.90435 17.6083 6.50503 18.4639 8.24762 18.8105C9.99021 19.1571 11.7964 18.9791 13.4379 18.2992C15.0794 17.6192 16.4823 16.4677 17.4694 14.9904C18.4564 13.5131 18.9832 11.7762 18.9831 9.99949C18.9802 7.61804 18.0329 5.33495 16.349 3.65101C14.6651 1.96707 12.382 1.01979 10.0005 1.01695V1.01694Z" fill="#171723"/>
<path d="M9.76488 12.9967C9.6981 12.9968 9.63196 12.9837 9.57026 12.9581C9.50855 12.9326 9.45248 12.8951 9.40526 12.8479C9.35804 12.8007 9.32058 12.7446 9.29504 12.6829C9.2695 12.6212 9.25638 12.5551 9.25642 12.4883V11.383C9.25696 10.9903 9.41328 10.6138 9.69105 10.3362C9.96883 10.0586 10.3454 9.90255 10.7381 9.90226C11.0916 9.90239 11.4373 9.79766 11.7313 9.60133C12.0253 9.40499 12.2544 9.12587 12.3898 8.79928C12.5251 8.47268 12.5606 8.11327 12.4917 7.76652C12.4227 7.41978 12.2525 7.10126 12.0025 6.85127C11.7525 6.60129 11.434 6.43106 11.0873 6.36212C10.7405 6.29317 10.3811 6.32862 10.0545 6.46397C9.7279 6.59932 9.44878 6.82849 9.25244 7.1225C9.05611 7.41651 8.95138 7.76214 8.95151 8.11567C8.95151 8.25052 8.89794 8.37986 8.80258 8.47521C8.70723 8.57057 8.5779 8.62414 8.44304 8.62414C8.30819 8.62414 8.17886 8.57057 8.0835 8.47521C7.98815 8.37986 7.93458 8.25052 7.93458 8.11567C7.93366 7.6941 8.02826 7.2778 8.21127 6.89802C8.39429 6.51824 8.66096 6.18486 8.99126 5.9229C9.32495 5.65818 9.71424 5.47242 10.1299 5.37955C10.5456 5.28668 10.9769 5.2891 11.3916 5.38663C11.8968 5.5037 12.3591 5.76018 12.7258 6.12692C13.0926 6.49365 13.349 6.95592 13.4661 7.46117C13.5641 7.87587 13.5668 8.30736 13.4741 8.72326C13.3814 9.13916 13.1956 9.52864 12.9308 9.86247C12.6689 10.1928 12.3355 10.4594 11.9557 10.6424C11.5759 10.8255 11.1596 10.9201 10.7381 10.9191C10.615 10.9191 10.4969 10.9679 10.4097 11.0549C10.3226 11.1418 10.2735 11.2598 10.2733 11.3829V12.4882C10.2734 12.555 10.2603 12.6212 10.2347 12.6829C10.2092 12.7446 10.1717 12.8007 10.1245 12.8479C10.0773 12.8951 10.0212 12.9326 9.95951 12.9581C9.89781 12.9837 9.83167 12.9968 9.76488 12.9967Z" fill="#171723"/>
<path d="M9.99994 15.469C10.3931 15.469 10.7118 15.1503 10.7118 14.7571C10.7118 14.364 10.3931 14.0453 9.99994 14.0453C9.60679 14.0453 9.28809 14.364 9.28809 14.7571C9.28809 15.1503 9.60679 15.469 9.99994 15.469Z" fill="#171723"/>
</g>
</g>
<defs>
<clipPath id="clip0_10314_145662">
<rect width="20" height="20" fill="white"/>
</clipPath>
<clipPath id="clip1_10314_145662">
<rect width="20" height="20" fill="white"/>
</clipPath>
</defs>
</svg>
