<svg width="12" height="12" viewBox="0 0 12 12" fill="none" xmlns="http://www.w3.org/2000/svg">
<g clip-path="url(#clip0_10314_146646)">
<g clip-path="url(#clip1_10314_146646)">
<path d="M6.00043 12C4.81374 12.0001 3.65368 11.6483 2.66693 10.9891C1.68019 10.3298 0.911091 9.39282 0.456887 8.29649C0.00268421 7.20017 -0.116221 5.99377 0.115209 4.82987C0.346639 3.66597 0.918009 2.59683 1.75707 1.75766C2.59612 0.918484 3.66518 0.346965 4.82905 0.115372C5.99292 -0.11622 7.19933 0.00251644 8.29572 0.456567C9.39211 0.910617 10.3292 1.67959 10.9886 2.66624C11.6479 3.65289 11.9999 4.8129 12 5.99959C11.9983 7.59032 11.3657 9.11542 10.2409 10.2403C9.11617 11.3652 7.59116 11.9981 6.00043 12ZM6.00043 0.837247C4.97929 0.837162 3.98106 1.13989 3.13199 1.70715C2.28291 2.27441 1.62112 3.08072 1.2303 4.02411C0.839494 4.9675 0.737218 6.0056 0.936411 7.00712C1.1356 8.00864 1.62732 8.9286 2.34937 9.65065C3.07142 10.3727 3.99138 10.8644 4.9929 11.0636C5.99442 11.2628 7.03252 11.1605 7.97591 10.7697C8.9193 10.3789 9.72561 9.71711 10.2929 8.86803C10.8601 8.01896 11.1629 7.02073 11.1628 5.99959C11.1612 4.63094 10.6168 3.31882 9.64898 2.35104C8.6812 1.38326 7.36907 0.838849 6.00043 0.837238V0.837247Z" fill="#171723"/>
</g>
</g>
<defs>
<clipPath id="clip0_10314_146646">
<rect width="12" height="12" fill="white"/>
</clipPath>
<clipPath id="clip1_10314_146646">
<rect width="12" height="12" fill="white"/>
</clipPath>
</defs>
</svg>
