<svg width="20" height="20" viewBox="0 0 20 20" fill="none" xmlns="http://www.w3.org/2000/svg">
<g clip-path="url(#clip0_10317_147146)">
<path d="M0 4.52893L0.0536458 18.871C0.0539295 19.0201 0.0835896 19.1676 0.140921 19.3052C0.198252 19.4427 0.282123 19.5675 0.38771 19.6724C0.493298 19.7773 0.618519 19.8603 0.756172 19.9165C0.893825 19.9727 1.04119 20.001 1.18981 19.9999H18.8636C19.0135 20.0025 19.1625 19.9748 19.3015 19.9185C19.4405 19.8622 19.5668 19.7783 19.6728 19.672C19.7789 19.5656 19.8625 19.4389 19.9186 19.2995C19.9748 19.16 20.0024 19.0106 19.9998 18.8602V4.52893H0ZM14.1157 8.20582H5.88413C5.59987 8.20582 5.32725 8.09255 5.12625 7.89093C4.92526 7.6893 4.81233 7.41584 4.81233 7.1307C4.81233 6.84556 4.92526 6.5721 5.12625 6.37048C5.32725 6.16886 5.59987 6.05558 5.88413 6.05558H14.1157C14.3999 6.05558 14.6725 6.16886 14.8735 6.37048C15.0745 6.5721 15.1874 6.84556 15.1874 7.1307C15.1874 7.41584 15.0745 7.6893 14.8735 7.89093C14.6725 8.09255 14.3999 8.20582 14.1157 8.20582V8.20582Z" fill="#171723"/>
<path d="M9.43549 0.000183107L9.4581 3.39785H0.504883L2.46941 0.487247C2.5729 0.336985 2.71121 0.214164 2.87245 0.129328C3.03368 0.0444917 3.21304 0.000175208 3.39511 0.000183107H9.43549Z" fill="#171723"/>
<path d="M19.5178 3.3978H10.5871L10.5645 0.000136107H16.6613C16.8452 -0.00278826 17.0267 0.0414551 17.1887 0.128668C17.3507 0.215882 17.4878 0.343172 17.587 0.498463L19.5178 3.3978Z" fill="#171723"/>
</g>
<defs>
<clipPath id="clip0_10317_147146">
<rect width="20" height="20" fill="white"/>
</clipPath>
</defs>
</svg>
