<svg width="20" height="20" viewBox="0 0 20 20" fill="none" xmlns="http://www.w3.org/2000/svg">
<path d="M10 18.9274C10.7731 18.9274 11.3992 18.3013 11.3992 17.5282V5.40175H8.60079V17.5282C8.60079 18.3013 9.22694 18.9274 10 18.9274Z" fill="#F9AB00"/>
<path d="M15.5747 9.82643C14.0659 8.31878 11.812 8.01329 10 8.90878L15.9898 14.8985C16.237 15.1457 16.6626 15.0478 16.7675 14.7155C17.2945 13.0469 16.8969 11.1498 15.5747 9.82643Z" fill="#5BB974"/>
<path d="M4.42533 9.82643C5.93414 8.31878 8.18803 8.01329 10 8.90878L4.01023 14.8985C3.76304 15.1457 3.33744 15.0478 3.2325 14.7155C2.70547 13.0469 3.10308 11.1498 4.42533 9.82643Z" fill="#129EAF"/>
<path d="M15.1304 5.17754C12.7471 5.17754 10.7241 6.73998 10 8.90875H19.4726C19.8609 8.90875 20.1198 8.49832 19.9437 8.15202C19.0435 6.38552 17.2269 5.17754 15.1304 5.17754Z" fill="#AF5CF7"/>
<path d="M10.9899 2.64298C9.3039 4.32903 8.97858 6.86276 10 8.9091L16.6987 2.2104C16.9739 1.93522 16.8666 1.46182 16.497 1.34172C14.6104 0.72957 12.4719 1.16099 10.9899 2.64298Z" fill="#FF8BCB"/>
<path d="M9.01006 2.64298C10.6961 4.32903 11.0214 6.86276 10 8.9091L3.3013 2.2104C3.02612 1.93522 3.13339 1.46182 3.50302 1.34172C5.38961 0.72957 7.52807 1.16099 9.01006 2.64298Z" fill="#FA7B17"/>
<path d="M4.86958 5.17754C7.25289 5.17754 9.27591 6.73998 10 8.90875H0.527373C0.139094 8.90875 -0.11976 8.49832 0.0563071 8.15202C0.956463 6.38552 2.7731 5.17754 4.86958 5.17754Z" fill="#4285F4"/>
</svg>
