<svg width="20" height="20" viewBox="0 0 20 20" fill="none" xmlns="http://www.w3.org/2000/svg">
<g clip-path="url(#clip0_5313_35095)">
<g clip-path="url(#clip1_5313_35095)">
<path d="M19.9647 15.7766C19.9998 15.6799 20.0089 15.5757 19.9912 15.4744C19.9877 15.4472 19.982 15.4203 19.9743 15.3939C19.9497 15.2996 19.9015 15.213 19.8344 15.1421C19.8294 15.1369 19.8296 15.129 19.8243 15.1239L16.0674 11.4996C16.0105 11.4448 15.9433 11.4018 15.8697 11.3728C15.796 11.3439 15.7174 11.3297 15.6382 11.331C15.5591 11.3323 15.481 11.3491 15.4083 11.3805C15.3357 11.4118 15.27 11.457 15.215 11.5136C15.1599 11.5702 15.1166 11.637 15.0875 11.7103C15.0585 11.7835 15.0442 11.8617 15.0455 11.9405C15.0468 12.0192 15.0637 12.0969 15.0952 12.1691C15.1267 12.2414 15.1722 12.3067 15.2291 12.3615L17.9182 14.9553L3.42376 14.9577C2.83584 14.9572 2.27213 14.7247 1.85629 14.3113C1.44045 13.8979 1.20645 13.3374 1.20561 12.7526V0.599571C1.20561 0.440555 1.1421 0.288052 1.02905 0.17561C0.916005 0.063169 0.762679 0 0.602805 0C0.442931 0 0.289606 0.063169 0.176558 0.17561C0.0635098 0.288052 0 0.440555 0 0.599571V12.7526C0.00126369 13.6553 0.362423 14.5206 1.00426 15.1588C1.6461 15.7969 2.51621 16.1559 3.42375 16.1568L17.9789 16.1547L15.2161 18.9802C15.1605 19.0365 15.1165 19.1032 15.0869 19.1765C15.0572 19.2498 15.0424 19.3282 15.0433 19.4072C15.0442 19.4862 15.0608 19.5642 15.0921 19.6368C15.1234 19.7094 15.1688 19.7751 15.2257 19.8302C15.2827 19.8853 15.35 19.9286 15.4238 19.9578C15.4976 19.9869 15.5765 20.0012 15.6559 19.9999C15.7353 19.9986 15.8137 19.9817 15.8865 19.9502C15.9594 19.9187 16.0252 19.8732 16.0803 19.8163L19.8361 15.9753C19.8872 15.9215 19.9278 15.8588 19.9559 15.7902L19.9644 15.7797L19.9647 15.7766Z" fill="#171723"/>
</g>
</g>
<defs>
<clipPath id="clip0_5313_35095">
<rect width="20" height="20" fill="white"/>
</clipPath>
<clipPath id="clip1_5313_35095">
<rect width="20" height="20" fill="white"/>
</clipPath>
</defs>
</svg>
