<svg width="20" height="20" viewBox="0 0 20 20" fill="none" xmlns="http://www.w3.org/2000/svg">
<g clip-path="url(#clip0_10259_149786)">
<g clip-path="url(#clip1_10259_149786)">
<path d="M20 8.64355C19.9971 8.62204 19.9928 8.60074 19.9871 8.57981C19.9591 8.02295 19.7264 7.49604 19.3336 7.1002L18.3297 6.09496C18.0406 5.80983 17.6807 5.60704 17.287 5.50751V5.42182C17.2858 4.34364 16.8569 3.30995 16.0944 2.54756C15.3318 1.78517 14.2979 1.35635 13.2195 1.3552H13.202C13.1604 0.983302 12.9835 0.63968 12.7049 0.389774C12.4263 0.139868 12.0655 0.0011362 11.6912 0H5.5968C5.2224 0.00111598 4.86148 0.139817 4.58273 0.389705C4.30397 0.639593 4.12685 0.983224 4.08506 1.3552H4.06753C2.9891 1.35635 1.95518 1.78517 1.19262 2.54756C0.43006 3.30995 0.00114938 4.34364 0 5.42182V15.9334C0.00107683 17.0116 0.429965 18.0453 1.19254 18.8077C1.95512 19.5701 2.98908 19.9989 4.06753 20H13.2195L13.2293 19.998H17.719C18.3238 19.9974 18.9036 19.757 19.3313 19.3294C19.759 18.9019 19.9995 18.3221 20 17.7174V8.71151C20 8.69594 19.9958 8.68118 19.9955 8.66566C19.9959 8.65794 20 8.65143 20 8.64355ZM18.6137 7.81803C18.6995 7.9125 18.7705 8.01945 18.8243 8.13522H17.288V6.5975C17.4058 6.65207 17.5144 6.72469 17.6097 6.81276L18.6137 7.81803ZM5.08441 1.52846C5.08459 1.39269 5.13865 1.26254 5.23472 1.16659C5.3308 1.07063 5.46103 1.01671 5.59683 1.01665H11.6911C11.8267 1.01689 11.9568 1.07091 12.0527 1.16685C12.1485 1.26279 12.2025 1.39283 12.2026 1.52846V2.19912C12.2025 2.33476 12.1487 2.46484 12.0528 2.5608C11.9569 2.65675 11.8268 2.71075 11.6912 2.71092H5.5968C5.46097 2.71095 5.3307 2.65705 5.23462 2.56107C5.13853 2.46509 5.0845 2.3349 5.08441 2.19911V1.52846ZM1.01688 15.9334V5.42182C1.01776 4.61319 1.33945 3.83793 1.91137 3.26614C2.48329 2.69436 3.25872 2.37274 4.06753 2.37186H4.08503C4.12673 2.74393 4.30382 3.08767 4.58259 3.33766C4.86136 3.58765 5.22235 3.72643 5.59683 3.72757H11.6911C12.0655 3.72641 12.4263 3.58761 12.705 3.3376C12.9836 3.0876 13.1605 2.74385 13.202 2.37186H13.2195C14.0283 2.37274 14.8037 2.69436 15.3756 3.26614C15.9475 3.83793 16.2692 4.61319 16.2701 5.42182V5.42428H10.001C9.39606 5.42488 8.81603 5.66537 8.3882 6.09301C7.96036 6.52064 7.71967 7.10049 7.71894 7.70533V17.7175C7.71864 18.1684 7.85293 18.6092 8.10461 18.9833H4.06753C3.25872 18.9825 2.48329 18.6608 1.91137 18.0891C1.33945 17.5173 1.01776 16.742 1.01688 15.9334V15.9334ZM17.719 18.9814H10.001C9.6657 18.9811 9.34424 18.8478 9.10707 18.6109C8.86991 18.374 8.7364 18.0527 8.73582 17.7175V7.70533C8.73637 7.37008 8.86986 7.04873 9.10701 6.81171C9.34416 6.5747 9.66564 6.44137 10.001 6.44094H16.2711V8.64353C16.271 8.71029 16.2841 8.77641 16.3097 8.8381C16.3352 8.89979 16.3727 8.95584 16.4199 9.00305C16.4671 9.05026 16.5232 9.0877 16.5849 9.11324C16.6466 9.13877 16.7127 9.15189 16.7795 9.15186H18.9831V17.7175C18.9827 18.0526 18.8494 18.3738 18.6124 18.6108C18.3754 18.8477 18.0541 18.981 17.7189 18.9814H17.719Z" fill="#171723"/>
</g>
</g>
<defs>
<clipPath id="clip0_10259_149786">
<rect width="20" height="20" fill="white"/>
</clipPath>
<clipPath id="clip1_10259_149786">
<rect width="20" height="20" fill="white"/>
</clipPath>
</defs>
</svg>
