<svg width="20" height="20" viewBox="0 0 20 20" fill="none" xmlns="http://www.w3.org/2000/svg">
<path d="M5.61878 19.3759C4.92438 19.3759 4.25842 19.07 3.76741 18.5255C3.27639 17.9811 3.00052 17.2427 3.00049 16.4727V3.51902C3.00049 2.74905 3.27634 2.01061 3.76737 1.46616C4.25839 0.921714 4.92437 0.615845 5.61878 0.615845C6.31319 0.615845 6.97917 0.921714 7.47019 1.46616C7.96121 2.01061 8.23707 2.74905 8.23707 3.51902V16.4727C8.23704 17.2427 7.96117 17.9811 7.47015 18.5255C6.97914 19.07 6.31318 19.3759 5.61878 19.3759Z" fill="#171723"/>
<path d="M14.382 19.3759C13.6876 19.3759 13.0216 19.07 12.5306 18.5255C12.0396 17.9811 11.7637 17.2427 11.7637 16.4727V3.51902C11.7637 2.74905 12.0395 2.01061 12.5306 1.46616C13.0216 0.921714 13.6875 0.615845 14.382 0.615845C15.0764 0.615845 15.7423 0.921714 16.2334 1.46616C16.7244 2.01061 17.0003 2.74905 17.0003 3.51902V16.4727C17.0002 17.2427 16.7244 17.9811 16.2333 18.5255C15.7423 19.07 15.0764 19.3759 14.382 19.3759Z" fill="#171723"/>
</svg>
