<svg width="20" height="20" viewBox="0 0 20 20" fill="none" xmlns="http://www.w3.org/2000/svg">
<path d="M5.61862 19.3759C4.92421 19.3758 4.25826 19.0699 3.76724 18.5255C3.27623 17.9811 3.00036 17.2426 3.00033 16.4727V3.51897C3.00033 2.749 3.27618 2.01057 3.7672 1.46612C4.25823 0.921668 4.9242 0.615799 5.61862 0.615799C6.31303 0.615799 6.979 0.921668 7.47003 1.46612C7.96105 2.01057 8.23691 2.749 8.23691 3.51897V16.4727C8.23687 17.2426 7.96101 17.9811 7.46999 18.5255C6.97897 19.0699 6.31302 19.3758 5.61862 19.3759Z" fill="#171723"/>
<path d="M14.3817 19.3759C13.6873 19.3758 13.0214 19.0699 12.5303 18.5255C12.0393 17.9811 11.7635 17.2426 11.7634 16.4727V3.51897C11.7634 2.749 12.0393 2.01057 12.5303 1.46612C13.0213 0.921668 13.6873 0.615799 14.3817 0.615799C15.0761 0.615799 15.7421 0.921668 16.2331 1.46612C16.7241 2.01057 17 2.749 17 3.51897V16.4727C17 17.2426 16.7241 17.9811 16.2331 18.5255C15.7421 19.0699 15.0761 19.3758 14.3817 19.3759Z" fill="#171723"/>
</svg>
