<svg width="20" height="20" viewBox="0 0 20 20" fill="none" xmlns="http://www.w3.org/2000/svg">
<path fill-rule="evenodd" clip-rule="evenodd" d="M3.54169 12.5C3.54169 12.1548 3.82151 11.875 4.16669 11.875H5.41669C5.91397 11.875 6.39088 12.0725 6.74251 12.4242C7.09414 12.7758 7.29169 13.2527 7.29169 13.75C7.29169 14.2473 7.09414 14.7242 6.74251 15.0758C6.39088 15.4275 5.91397 15.625 5.41669 15.625H4.79169V17.5C4.79169 17.8452 4.51186 18.125 4.16669 18.125C3.82151 18.125 3.54169 17.8452 3.54169 17.5V12.5ZM4.79169 14.375H5.41669C5.58245 14.375 5.74142 14.3092 5.85863 14.1919C5.97584 14.0747 6.04169 13.9158 6.04169 13.75C6.04169 13.5842 5.97584 13.4253 5.85863 13.3081C5.74142 13.1908 5.58245 13.125 5.41669 13.125H4.79169V14.375Z" fill="#171723"/>
<path fill-rule="evenodd" clip-rule="evenodd" d="M8.54169 12.5C8.54169 12.1548 8.82151 11.875 9.16669 11.875H10C10.6078 11.875 11.1907 12.1164 11.6205 12.5462C12.0502 12.976 12.2917 13.5589 12.2917 14.1667V15.8333C12.2917 16.4411 12.0502 17.024 11.6205 17.4538C11.1907 17.8836 10.6078 18.125 10 18.125H9.16669C8.82151 18.125 8.54169 17.8452 8.54169 17.5V12.5ZM9.79169 13.125V16.875H10C10.2763 16.875 10.5412 16.7653 10.7366 16.5699C10.9319 16.3746 11.0417 16.1096 11.0417 15.8333V14.1667C11.0417 13.8904 10.9319 13.6254 10.7366 13.4301C10.5412 13.2347 10.2763 13.125 10 13.125H9.79169Z" fill="#171723"/>
<path d="M16.4584 15C16.4584 14.6548 16.1785 14.375 15.8334 14.375H14.7917V13.125H16.6667C17.0119 13.125 17.2917 12.8452 17.2917 12.5C17.2917 12.1548 17.0119 11.875 16.6667 11.875H14.1667C13.8215 11.875 13.5417 12.1548 13.5417 12.5V15V17.5C13.5417 17.8452 13.8215 18.125 14.1667 18.125C14.5119 18.125 14.7917 17.8452 14.7917 17.5V15.625H15.8334C16.1785 15.625 16.4584 15.3452 16.4584 15Z" fill="#171723"/>
<path fill-rule="evenodd" clip-rule="evenodd" d="M12.2909 2.46784C12.2741 2.13761 12.0011 1.875 11.6667 1.875C11.8324 1.875 11.9914 1.94085 12.1086 2.05806C12.2145 2.16406 12.2827 2.30817 12.2909 2.46784ZM16.4584 6.66667C16.4584 6.50091 16.3925 6.34193 16.2753 6.22472C16.1699 6.11955 16.0267 6.05137 15.8681 6.04262C16.1971 6.06066 16.4584 6.33316 16.4584 6.66667Z" fill="#171723"/>
<path fill-rule="evenodd" clip-rule="evenodd" d="M11.4688 6.86453C11.7423 7.13802 12.1132 7.29167 12.5 7.29167H15.2084V10C15.2084 10.3452 15.4882 10.625 15.8334 10.625C16.1785 10.625 16.4584 10.3452 16.4584 10V6.66667C16.4584 6.50091 16.3925 6.34193 16.2753 6.22472L12.1086 2.05806C11.9914 1.94085 11.8324 1.875 11.6667 1.875H5.83335C5.22557 1.875 4.64267 2.11644 4.2129 2.54621C3.78313 2.97598 3.54169 3.55888 3.54169 4.16667V10C3.54169 10.3452 3.82151 10.625 4.16669 10.625C4.51186 10.625 4.79169 10.3452 4.79169 10V4.16667C4.79169 3.8904 4.90143 3.62545 5.09678 3.4301C5.29213 3.23475 5.55709 3.125 5.83335 3.125H11.0417V5.83333C11.0417 6.22011 11.1953 6.59104 11.4688 6.86453ZM12.2917 5.83333C12.2917 5.88859 12.3136 5.94158 12.3527 5.98065C12.3918 6.01972 12.4448 6.04167 12.5 6.04167H14.3245L12.2917 4.00888V5.83333Z" fill="#171723"/>
</svg>
