<svg width="20" height="20" viewBox="0 0 20 20" fill="none" xmlns="http://www.w3.org/2000/svg">
<path fill-rule="evenodd" clip-rule="evenodd" d="M11.6665 1.875C12.0117 1.875 12.2915 2.15482 12.2915 2.5V5.83333C12.2915 5.88859 12.3135 5.94158 12.3525 5.98065C12.3916 6.01972 12.4446 6.04167 12.4998 6.04167H15.8332C16.1783 6.04167 16.4582 6.32149 16.4582 6.66667C16.4582 7.01184 16.1783 7.29167 15.8332 7.29167H12.4998C12.1131 7.29167 11.7421 7.13802 11.4686 6.86453C11.1951 6.59104 11.0415 6.22011 11.0415 5.83333V2.5C11.0415 2.15482 11.3213 1.875 11.6665 1.875Z" fill="#171723"/>
<path fill-rule="evenodd" clip-rule="evenodd" d="M5.83317 3.125C5.5569 3.125 5.29195 3.23475 5.0966 3.4301C4.90125 3.62545 4.7915 3.8904 4.7915 4.16667V10C4.7915 10.3452 4.51168 10.625 4.1665 10.625C3.82133 10.625 3.5415 10.3452 3.5415 10V4.16667C3.5415 3.55888 3.78295 2.97598 4.21272 2.54621C4.64249 2.11644 5.22538 1.875 5.83317 1.875H11.6665C11.8323 1.875 11.9912 1.94085 12.1084 2.05806L16.2751 6.22472C16.3923 6.34193 16.4582 6.50091 16.4582 6.66667V10C16.4582 10.3452 16.1783 10.625 15.8332 10.625C15.488 10.625 15.2082 10.3452 15.2082 10V6.92555L11.4076 3.125H5.83317Z" fill="#171723"/>
<path fill-rule="evenodd" clip-rule="evenodd" d="M3.5415 12.5C3.5415 12.1548 3.82133 11.875 4.1665 11.875H5.4165C5.91378 11.875 6.3907 12.0725 6.74233 12.4242C7.09396 12.7758 7.2915 13.2527 7.2915 13.75C7.2915 14.2473 7.09396 14.7242 6.74233 15.0758C6.3907 15.4275 5.91379 15.625 5.4165 15.625H4.7915V17.5C4.7915 17.8452 4.51168 18.125 4.1665 18.125C3.82133 18.125 3.5415 17.8452 3.5415 17.5V12.5ZM4.7915 14.375H5.4165C5.58226 14.375 5.74124 14.3092 5.85845 14.1919C5.97566 14.0747 6.0415 13.9158 6.0415 13.75C6.0415 13.5842 5.97566 13.4253 5.85845 13.3081C5.74124 13.1908 5.58226 13.125 5.4165 13.125H4.7915V14.375Z" fill="#171723"/>
<path fill-rule="evenodd" clip-rule="evenodd" d="M13.5415 15C13.5415 14.6548 13.8213 14.375 14.1665 14.375H15.8332C16.1783 14.375 16.4582 14.6548 16.4582 15C16.4582 15.3452 16.1783 15.625 15.8332 15.625H14.1665C13.8213 15.625 13.5415 15.3452 13.5415 15Z" fill="#171723"/>
<path fill-rule="evenodd" clip-rule="evenodd" d="M13.5415 12.5C13.5415 12.1548 13.8213 11.875 14.1665 11.875H16.6665C17.0117 11.875 17.2915 12.1548 17.2915 12.5C17.2915 12.8452 17.0117 13.125 16.6665 13.125H14.7915V17.5C14.7915 17.8452 14.5117 18.125 14.1665 18.125C13.8213 18.125 13.5415 17.8452 13.5415 17.5V12.5Z" fill="#171723"/>
<path fill-rule="evenodd" clip-rule="evenodd" d="M8.5415 12.5C8.5415 12.1548 8.82133 11.875 9.1665 11.875H9.99984C10.6076 11.875 11.1905 12.1164 11.6203 12.5462C12.0501 12.976 12.2915 13.5589 12.2915 14.1667V15.8333C12.2915 16.4411 12.0501 17.024 11.6203 17.4538C11.1905 17.8836 10.6076 18.125 9.99984 18.125H9.1665C8.82133 18.125 8.5415 17.8452 8.5415 17.5V12.5ZM9.7915 13.125V16.875H9.99984C10.2761 16.875 10.5411 16.7653 10.7364 16.5699C10.9318 16.3746 11.0415 16.1096 11.0415 15.8333V14.1667C11.0415 13.8904 10.9318 13.6254 10.7364 13.4301C10.5411 13.2347 10.2761 13.125 9.99984 13.125H9.7915Z" fill="#171723"/>
</svg>
