<svg width="20" height="20" viewBox="0 0 20 20" fill="none" xmlns="http://www.w3.org/2000/svg">
<path d="M18.3951 4.3031C18.3951 4.27279 18.3851 4.2425 18.3752 4.21171C18.3345 3.48947 18.0394 2.80797 17.5204 2.28889L16.1166 0.875222C15.5573 0.31542 14.7839 0 14.0006 0H4.60112C2.94257 0 1.60986 1.34313 1.60986 2.99076V17.0092C1.60986 18.6574 2.94257 20 4.60112 20H15.4043C17.0524 20 18.3951 18.6574 18.3951 17.0092V4.39499C18.3951 4.37462 18.3851 4.35426 18.3851 4.33389C18.3851 4.32346 18.3951 4.31353 18.3951 4.3031ZM7.01419 10.6924C6.91187 10.913 6.76285 11.1057 6.5741 11.2656C6.39031 11.4186 6.17573 11.5379 5.93333 11.6213C5.69291 11.7037 5.43065 11.7455 5.15149 11.7455H4.64683V13.2644C4.64683 13.5168 4.44118 13.7224 4.18885 13.7224C3.93651 13.7224 3.65239 13.5168 3.65239 13.2644V8.6509C3.65239 8.39856 3.85803 8.19291 4.11037 8.19291H5.1515C5.75949 8.19291 6.24628 8.33696 6.59796 8.62109C6.97845 8.92905 7.17217 9.38207 7.17217 9.9692C7.17217 10.2265 7.11851 10.4689 7.01419 10.6924ZM12.2477 12.0902C12.1215 12.4349 11.9417 12.732 11.7112 12.9734C11.4787 13.2177 11.1976 13.4075 10.8727 13.5356C10.5598 13.6588 10.2111 13.7224 9.83856 13.7224H8.19043C7.93809 13.7224 7.73245 13.5168 7.73245 13.2644V8.65088C7.73245 8.39854 7.93809 8.19289 8.19043 8.19289H9.83856C10.2111 8.19289 10.5598 8.25647 10.8727 8.37966C11.1976 8.50782 11.4787 8.69756 11.7112 8.94194C11.9417 9.18434 12.1225 9.48138 12.2477 9.82511C12.3698 10.1579 12.4314 10.5394 12.4314 10.9576C12.4314 11.3749 12.3698 11.7554 12.2477 12.0902ZM16.7887 8.72342C16.7887 8.97576 16.583 9.1814 16.3307 9.1814H14.1719V10.4927H16.0009C16.2532 10.4927 16.4589 10.6984 16.4589 10.9507C16.4589 11.2031 16.2532 11.4812 16.0009 11.4812H14.1719V13.2644C14.1719 13.5168 13.9663 13.7224 13.714 13.7224C13.4616 13.7224 13.1765 13.5168 13.1765 13.2644V8.6509C13.1765 8.39856 13.3822 8.19291 13.6345 8.19291H16.3307C16.583 8.19291 16.7887 8.39856 16.7887 8.6509V8.72342ZM14.7059 3.28928V0.613952C15.001 0.705345 15.2757 0.868274 15.4997 1.09229L16.9034 2.49602C17.1274 2.72004 17.2799 2.99424 17.3818 3.28929L14.7059 3.28928Z" fill="#171723"/>
<path d="M5.15164 9.17444H4.64697V10.763H5.15164C5.32649 10.763 5.48047 10.7391 5.60962 10.6934C5.73976 10.6467 5.84407 10.5881 5.92951 10.5136C6.00997 10.4421 6.07057 10.3616 6.11429 10.2672C6.157 10.1758 6.17687 10.0785 6.17687 9.96918C6.17687 9.60558 6.05667 9.45954 5.96626 9.38107C5.80731 9.24596 5.52616 9.17444 5.15164 9.17444Z" fill="#171723"/>
<path d="M10.9851 9.61354C10.85 9.47148 10.6931 9.36518 10.5023 9.29067C10.3056 9.21319 10.0821 9.17444 9.8387 9.17444H8.72803V12.7409H9.8387C10.0821 12.7409 10.3056 12.7022 10.5023 12.6237C10.6931 12.5492 10.85 12.4449 10.9841 12.3018C11.1212 12.1568 11.2295 11.974 11.307 11.7574C11.3895 11.5299 11.4302 11.2617 11.4302 10.9577C11.4302 10.6537 11.3895 10.3844 11.308 10.158C11.2295 9.94138 11.1212 9.75858 10.9851 9.61354Z" fill="#171723"/>
</svg>
