<svg width="20" height="20" viewBox="0 0 20 20" fill="none" xmlns="http://www.w3.org/2000/svg">
<path d="M13.2731 0.242988L13.3805 0.337838L19.6674 6.62308C19.86 6.81675 19.977 7.07302 19.9969 7.34546C20.0169 7.61789 19.9386 7.88847 19.7762 8.10816C19.6138 8.32784 19.3781 8.48211 19.1117 8.543C18.8454 8.60389 18.566 8.56738 18.3243 8.44008L14.6985 12.0638L13.0708 16.4029C13.0279 16.5174 12.9669 16.6243 12.8902 16.7195L12.8101 16.8109L11.0956 18.525C10.8986 18.7216 10.6366 18.8396 10.3589 18.8569C10.0811 18.8741 9.80652 18.7894 9.58672 18.6187L9.47813 18.5239L6.28557 15.3333L1.94995 19.6667C1.74425 19.8716 1.46823 19.9906 1.17795 19.9995C0.88767 20.0083 0.6049 19.9064 0.387073 19.7144C0.169246 19.5223 0.0326945 19.2546 0.00515412 18.9656C-0.0223863 18.6766 0.0611492 18.3879 0.238794 18.1582L0.333668 18.0508L4.66814 13.7163L1.47673 10.5245C1.27992 10.3277 1.16169 10.0659 1.14422 9.78819C1.12676 9.51046 1.21125 9.23591 1.38185 9.01604L1.47673 8.90862L3.19131 7.19446C3.27756 7.10793 3.37713 7.03578 3.48622 6.98076L3.59824 6.93277L7.93729 5.30432L11.5619 1.68174C11.4383 1.4507 11.3979 1.18423 11.4474 0.926941C11.4969 0.669654 11.6333 0.437184 11.8338 0.268469C12.0343 0.0997532 12.2867 0.00504004 12.5487 0.000193276C12.8107 -0.00465349 13.0665 0.0818034 13.2731 0.242988Z" fill="#171723"/>
</svg>
