<svg width="20" height="20" viewBox="0 0 20 20" fill="none" xmlns="http://www.w3.org/2000/svg">
<path fill-rule="evenodd" clip-rule="evenodd" d="M13.271 0.258435C12.9264 -0.0861451 12.3677 -0.0861451 12.0231 0.258435C11.6905 0.591039 11.679 1.12312 11.9885 1.46958L8.04064 5.41741L3.51371 7.115C3.39578 7.15923 3.28868 7.22819 3.19961 7.31726L1.43491 9.08196C1.09033 9.42655 1.09033 9.98522 1.43491 10.3298L4.92864 13.8235L0.258435 18.4937C-0.0861451 18.8383 -0.0861451 19.397 0.258435 19.7416C0.603015 20.0861 1.16169 20.0861 1.50627 19.7416L6.17647 15.0714L9.6702 18.5651C10.0148 18.9097 10.5735 18.9097 10.918 18.5651L12.6827 16.8004C12.7718 16.7113 12.8408 16.6042 12.885 16.4863L14.5826 11.9594L18.5304 8.01154C18.8769 8.32102 19.409 8.30946 19.7416 7.97686C20.0861 7.63228 20.0861 7.0736 19.7416 6.72902L19.1536 6.14106L13.271 0.258435ZM13.2353 2.71842L9.15333 6.80039C9.06427 6.88945 8.95716 6.95842 8.83923 7.00264L4.3123 8.70024L3.30666 9.70588L10.2941 16.6933L11.2998 15.6877L12.9974 11.1608C13.0416 11.0428 13.1105 10.9357 13.1996 10.8467L17.2816 6.76471L13.2353 2.71842Z" fill="#171723"/>
</svg>
