<svg width="20" height="20" viewBox="0 0 20 20" fill="none" xmlns="http://www.w3.org/2000/svg">
<g clip-path="url(#clip0_5313_35244)">
<path d="M6.9497 12.5125H13.0513C13.4558 12.5121 13.8436 12.351 14.1296 12.0646C14.4155 11.7783 14.5764 11.39 14.5767 10.9851V10.5259H18.4746C18.879 10.5254 19.2668 10.3644 19.5527 10.0782C19.8387 9.7919 19.9995 9.40378 20 8.99895V3.54292C19.9995 3.13809 19.8387 2.74997 19.5527 2.46372C19.2668 2.17746 18.879 2.01645 18.4746 2.01601H9.15238V1.52691C9.15194 1.12209 8.99108 0.733967 8.70511 0.447711C8.41914 0.161455 8.0314 0.000441887 7.62698 0H1.52937C1.12495 0.000441887 0.737214 0.161455 0.451242 0.447711C0.16527 0.733967 0.00441747 1.12209 0.00397603 1.52691V3.52304C0.00441747 3.92787 0.16527 4.31599 0.451242 4.60224C0.737214 4.8885 1.12495 5.04951 1.52937 5.04996H7.62699C8.03141 5.04951 8.41915 4.8885 8.70512 4.60224C8.99109 4.31599 9.15195 3.92787 9.15239 3.52304V3.03395H18.4746C18.6094 3.03412 18.7386 3.0878 18.8339 3.18322C18.9293 3.27863 18.9829 3.40799 18.9831 3.54292V8.99895C18.9829 9.13389 18.9293 9.26325 18.8339 9.35866C18.7386 9.45407 18.6094 9.50775 18.4746 9.50793H14.5767V8.98752C14.5763 8.5827 14.4154 8.19458 14.1294 7.90832C13.8435 7.62206 13.4557 7.46105 13.0513 7.46061H6.94971C6.54529 7.46105 6.15755 7.62206 5.87158 7.90832C5.58561 8.19458 5.42476 8.5827 5.42431 8.98752V9.50793H1.5254C1.12105 9.50834 0.733373 9.66927 0.447409 9.95543C0.161445 10.2416 0.000543758 10.6296 0 11.0343V16.4561C0.000441448 16.8609 0.161294 17.249 0.447266 17.5353C0.733238 17.8216 1.12097 17.9826 1.5254 17.983H10.8476V18.4731C10.8481 18.8779 11.0089 19.266 11.2949 19.5523C11.5809 19.8385 11.9686 19.9996 12.373 20H18.4746C18.879 19.9996 19.2668 19.8385 19.5527 19.5523C19.8387 19.266 19.9996 18.8779 20 18.4731V16.475C19.9996 16.0701 19.8387 15.682 19.5527 15.3958C19.2668 15.1095 18.879 14.9485 18.4746 14.9481H12.373C11.9686 14.9485 11.5809 15.1095 11.2949 15.3958C11.0089 15.682 10.8481 16.0701 10.8476 16.475V16.9651H1.5254C1.39063 16.9648 1.26145 16.9111 1.16615 16.8157C1.07086 16.7203 1.0172 16.591 1.01693 16.4561V11.0343C1.01721 10.8995 1.07089 10.7702 1.1662 10.6749C1.26151 10.5796 1.39068 10.526 1.5254 10.5259H5.42431V10.9851C5.42465 11.39 5.58545 11.7783 5.87143 12.0646C6.15741 12.351 6.5452 12.5121 6.9497 12.5125Z" fill="#171723"/>
</g>
<defs>
<clipPath id="clip0_5313_35244">
<rect width="20" height="20" fill="white"/>
</clipPath>
</defs>
</svg>
