<svg width="20" height="20" viewBox="0 0 20 20" fill="none" xmlns="http://www.w3.org/2000/svg">
<g clip-path="url(#clip0_5313_35102)">
<g clip-path="url(#clip1_5313_35102)">
<path d="M6.94905 12.5122H13.051C13.4554 12.5117 13.8432 12.3507 14.1291 12.0644C14.4151 11.7782 14.576 11.39 14.5764 10.9852V10.5259H18.4745C18.879 10.5255 19.2667 10.3644 19.5527 10.0782C19.8387 9.79189 19.9996 9.40375 20 8.9989V3.5431C19.9996 3.13825 19.8387 2.75011 19.5527 2.46384C19.2667 2.17757 18.879 2.01655 18.4745 2.01611H9.15285V1.52699C9.15241 1.12214 8.99155 0.734004 8.70556 0.447733C8.41958 0.161463 8.03182 0.000441909 7.62738 0H1.52853C1.12408 0.000441909 0.736326 0.161463 0.45034 0.447733C0.164353 0.734004 0.00349244 1.12214 0.00305097 1.52699V3.52322C0.00349244 3.92806 0.164353 4.3162 0.45034 4.60247C0.736326 4.88874 1.12408 5.04977 1.52853 5.05021H7.62738C8.03182 5.04977 8.41958 4.88874 8.70556 4.60247C8.99155 4.3162 9.15241 3.92806 9.15285 3.52322V3.0341H18.4745C18.6093 3.03428 18.7386 3.08796 18.8339 3.18338C18.9292 3.27879 18.9828 3.40816 18.983 3.5431V8.9989C18.9828 9.13385 18.9292 9.26321 18.8339 9.35863C18.7386 9.45404 18.6093 9.50773 18.4745 9.5079H14.5764V8.98747C14.576 8.58263 14.4151 8.19449 14.1291 7.90822C13.8432 7.62194 13.4554 7.46092 13.051 7.46048H6.94905C6.5446 7.46092 6.15685 7.62194 5.87086 7.90822C5.58488 8.19449 5.42402 8.58263 5.42357 8.98747V9.5079H1.52548C1.12103 9.50834 0.733276 9.66936 0.447289 9.95564C0.161303 10.2419 0.00044147 10.63 0 11.0349V16.4559C0.00044147 16.8608 0.161303 17.2489 0.447289 17.5352C0.733276 17.8214 1.12103 17.9825 1.52548 17.9829H10.8471V18.473C10.8476 18.8779 11.0085 19.266 11.2944 19.5523C11.5804 19.8385 11.9682 19.9996 12.3726 20H18.4745C18.879 19.9996 19.2667 19.8385 19.5527 19.5523C19.8387 19.266 19.9996 18.8779 20 18.473V16.4758C19.9996 16.0709 19.8387 15.6828 19.5527 15.3965C19.2667 15.1103 18.879 14.9492 18.4745 14.9488H12.3726C11.9682 14.9492 11.5804 15.1103 11.2944 15.3965C11.0085 15.6828 10.8476 16.0709 10.8471 16.4758V16.9649H1.52548C1.3907 16.9646 1.26152 16.9109 1.16621 16.8155C1.07091 16.7201 1.01725 16.5908 1.01698 16.4559V11.0349C1.01716 10.9 1.07079 10.7706 1.16611 10.6752C1.26143 10.5798 1.39067 10.5261 1.52548 10.5259H5.42357V10.9852C5.42402 11.39 5.58488 11.7782 5.87086 12.0644C6.15685 12.3507 6.5446 12.5117 6.94905 12.5122ZM8.13587 3.52322C8.13569 3.65816 8.08206 3.78752 7.98674 3.88294C7.89142 3.97835 7.76218 4.03204 7.62738 4.03221H1.52853C1.39372 4.03204 1.26449 3.97835 1.16916 3.88294C1.07384 3.78752 1.02021 3.65816 1.02003 3.52322V1.52699C1.02021 1.39205 1.07384 1.26269 1.16916 1.16727C1.26448 1.07185 1.39372 1.01817 1.52853 1.01799H7.62738C7.76218 1.01817 7.89142 1.07185 7.98674 1.16727C8.08207 1.26269 8.13569 1.39205 8.13587 1.52699V3.52322ZM11.8641 16.4758C11.8644 16.3409 11.9181 16.2116 12.0134 16.1162C12.1087 16.0208 12.2378 15.9671 12.3726 15.9668H18.4745C18.6093 15.9671 18.7385 16.0208 18.8338 16.1162C18.9291 16.2116 18.9827 16.3409 18.983 16.4758V18.473C18.9827 18.6079 18.9291 18.7372 18.8338 18.8326C18.7385 18.928 18.6093 18.9817 18.4745 18.982H12.3726C12.2378 18.9817 12.1087 18.928 12.0134 18.8326C11.9181 18.7372 11.8644 18.6079 11.8641 18.473V16.4758ZM6.44056 8.98747C6.44073 8.85253 6.49436 8.72317 6.58968 8.62775C6.68501 8.53233 6.81424 8.47865 6.94905 8.47848H13.051C13.1858 8.47865 13.315 8.53233 13.4103 8.62775C13.5056 8.72317 13.5593 8.85253 13.5594 8.98747V10.9852C13.5592 11.1201 13.5055 11.2494 13.4102 11.3448C13.3149 11.4402 13.1857 11.4939 13.051 11.4942H6.94905C6.81427 11.4939 6.68509 11.4402 6.58979 11.3448C6.49449 11.2494 6.44083 11.1201 6.44056 10.9852V8.98747Z" fill="#171723"/>
</g>
</g>
<defs>
<clipPath id="clip0_5313_35102">
<rect width="20" height="20" fill="white"/>
</clipPath>
<clipPath id="clip1_5313_35102">
<rect width="20" height="20" fill="white"/>
</clipPath>
</defs>
</svg>
