<svg width="20" height="20" viewBox="0 0 20 20" fill="none" xmlns="http://www.w3.org/2000/svg">
<path d="M15.1491 2.46123e-06H4.85091C4.09618 -0.00101323 3.37195 0.31237 2.83737 0.871282C2.30279 1.43019 2.0016 2.1889 2 2.98067V17.0092C1.99979 17.402 2.07339 17.791 2.21658 18.154C2.35978 18.5169 2.56977 18.8467 2.83454 19.1245C3.09932 19.4023 3.41368 19.6226 3.75967 19.7728C4.10565 19.923 4.47646 20.0002 4.85091 20H15.1491C15.5236 20.0002 15.8944 19.923 16.2404 19.7728C16.5863 19.6225 16.9007 19.4022 17.1655 19.1245C17.4302 18.8467 17.6402 18.5169 17.7834 18.154C17.9266 17.791 18.0002 17.402 18 17.0092V2.98067C17.9984 2.18892 17.6972 1.43022 17.1626 0.871313C16.6281 0.312404 15.9039 -0.000988949 15.1491 2.46123e-06ZM4.26909 15.0661C4.31383 15.0178 4.36735 14.9794 4.42648 14.9532C4.4856 14.927 4.54914 14.9135 4.61333 14.9135C4.67752 14.9135 4.74106 14.927 4.80019 14.9532C4.85932 14.9794 4.91284 15.0178 4.95758 15.0661L5.48121 15.6256L6.75152 14.293C6.84305 14.1984 6.96652 14.1456 7.095 14.1461C7.22348 14.1466 7.34657 14.2004 7.43742 14.2957C7.52828 14.391 7.57953 14.5201 7.58001 14.6549C7.5805 14.7897 7.53017 14.9192 7.44 15.0153L5.8303 16.704C5.78459 16.7523 5.73021 16.7907 5.67029 16.8169C5.61038 16.8431 5.54612 16.8565 5.48121 16.8566C5.35337 16.8544 5.23146 16.7996 5.14182 16.704L4.26909 15.7884C4.22305 15.7415 4.18646 15.6853 4.16147 15.6233C4.13648 15.5613 4.1236 15.4946 4.1236 15.4273C4.1236 15.3599 4.13648 15.2933 4.16147 15.2312C4.18646 15.1692 4.22305 15.1131 4.26909 15.0661ZM5.48121 4.62869L6.75152 3.29603C6.84312 3.2018 6.96648 3.14931 7.09477 3.14997C7.22306 3.15063 7.34592 3.20439 7.43664 3.29956C7.52736 3.39473 7.5786 3.52362 7.57923 3.65821C7.57986 3.7928 7.52982 3.92221 7.44 4.01831L5.8303 5.70702C5.78412 5.754 5.72944 5.7908 5.66949 5.81526C5.60953 5.83973 5.54552 5.85135 5.48121 5.84944C5.41848 5.85037 5.3562 5.83826 5.29795 5.81381C5.2397 5.78937 5.18664 5.75308 5.14182 5.70702L4.26909 4.79146C4.17892 4.69543 4.1286 4.5659 4.12908 4.43111C4.12956 4.29632 4.18082 4.16719 4.27167 4.07188C4.36252 3.97657 4.48561 3.9228 4.61409 3.92229C4.74258 3.92179 4.86604 3.97458 4.95758 4.06918L5.48121 4.62869ZM7.44 9.5117L5.8303 11.2004C5.78458 11.2487 5.7302 11.2871 5.67029 11.3133C5.61038 11.3395 5.54612 11.353 5.48121 11.353C5.35337 11.3508 5.23147 11.296 5.14182 11.2004L4.26909 10.2848C4.22305 10.2379 4.18646 10.1818 4.16147 10.1197C4.13648 10.0577 4.1236 9.99105 4.1236 9.9237C4.1236 9.85636 4.13648 9.7897 4.16147 9.72767C4.18646 9.66564 4.22305 9.6095 4.26909 9.56256C4.36176 9.46953 4.48507 9.41759 4.61333 9.41759C4.7416 9.41759 4.86491 9.46953 4.95758 9.56256L5.48121 10.1221L6.75152 8.79959C6.79626 8.75131 6.84978 8.71293 6.9089 8.68672C6.96803 8.66051 7.03157 8.64701 7.09576 8.64701C7.15995 8.64701 7.22348 8.66051 7.28261 8.68672C7.34174 8.71293 7.39526 8.75131 7.44 8.79959C7.52861 8.8948 7.57821 9.02259 7.57821 9.15565C7.57821 9.28871 7.52861 9.41649 7.44 9.5117ZM8.42909 15.5036C8.42947 15.3688 8.48067 15.2396 8.57152 15.1443C8.66236 15.049 8.78547 14.9953 8.91394 14.9949H15.3916C15.4554 14.9943 15.5187 15.007 15.5778 15.0323C15.637 15.0576 15.6906 15.0951 15.7358 15.1424C15.7809 15.1898 15.8166 15.2461 15.8408 15.3081C15.8649 15.3701 15.877 15.4366 15.8764 15.5036C15.876 15.6383 15.8248 15.7675 15.734 15.8628C15.6431 15.9581 15.52 16.0118 15.3916 16.0122H8.91394C8.78598 16.0101 8.66382 15.9558 8.57333 15.8609C8.48284 15.766 8.43111 15.6378 8.42909 15.5036ZM8.42909 10C8.42946 9.86522 8.48066 9.73606 8.5715 9.64076C8.66235 9.54545 8.78546 9.49174 8.91394 9.49135H15.3916C15.5202 9.49135 15.6435 9.54494 15.7344 9.64033C15.8253 9.73572 15.8764 9.8651 15.8764 10C15.8764 10.1349 15.8253 10.2643 15.7344 10.3597C15.6435 10.4551 15.5202 10.5086 15.3916 10.5086H8.91394C8.78547 10.5083 8.66236 10.4545 8.57152 10.3592C8.48067 10.2639 8.42947 10.1348 8.42909 10ZM15.3916 5.00509H8.91394C8.78546 5.0047 8.66235 4.95099 8.5715 4.85568C8.48066 4.76038 8.42946 4.63122 8.42909 4.49644C8.43112 4.3622 8.48285 4.23406 8.57334 4.13912C8.66383 4.04419 8.78598 3.98992 8.91394 3.98779H15.3916C15.52 3.98821 15.6431 4.04193 15.734 4.13723C15.8248 4.23253 15.876 4.36167 15.8764 4.49644C15.877 4.56342 15.8649 4.62986 15.8408 4.69186C15.8166 4.75387 15.781 4.81021 15.7358 4.85757C15.6907 4.90493 15.637 4.94237 15.5779 4.9677C15.5187 4.99303 15.4554 5.00574 15.3916 5.00509Z" fill="#171723"/>
</svg>
