<svg width="20" height="20" viewBox="0 0 20 20" fill="none" xmlns="http://www.w3.org/2000/svg">
<g clip-path="url(#clip0_10314_144942)">
<path d="M1.67289 14.6182L5.39181 18.338C5.20766 18.7812 4.91015 19.1681 4.52915 19.4598C4.14816 19.7515 3.69711 19.9378 3.22134 20C3.21002 19.8417 3.21002 19.6721 3.21002 19.5025C3.22134 19.3103 3.25528 19.1407 3.27791 18.9824C3.30396 18.8666 3.29157 18.7455 3.24262 18.6373C3.19367 18.5292 3.11083 18.44 3.00664 18.3832C2.90405 18.3243 2.78556 18.2992 2.66792 18.3114C2.55027 18.3235 2.43943 18.3724 2.35107 18.451C2.11342 18.6635 1.85602 18.8528 1.58237 19.0164C1.23938 19.2278 0.87096 19.395 0.485933 19.5138C0.612975 19.13 0.783628 18.762 0.994543 18.4171C1.15423 18.1409 1.34376 17.8831 1.55972 17.6483C1.63614 17.5588 1.68355 17.4481 1.69567 17.331C1.7078 17.2139 1.68406 17.0959 1.62761 16.9926C1.5673 16.8889 1.47586 16.8069 1.36627 16.7581C1.25668 16.7094 1.13453 16.6965 1.01717 16.7212C0.846005 16.7579 0.672138 16.7805 0.497293 16.789C0.331575 16.8021 0.164958 16.7983 0 16.7778C0.0642931 16.3024 0.252814 15.8525 0.546534 15.4733C0.840254 15.0941 1.22878 14.7991 1.67289 14.6182V14.6182Z" fill="#171723"/>
<path d="M0.949368 5.68618C0.867906 5.60319 0.822266 5.49154 0.822266 5.37523C0.822266 5.25893 0.867906 5.14727 0.949368 5.06428L1.78596 4.22757C2.27187 3.74258 2.9045 3.43192 3.5853 3.34399C4.2661 3.25606 4.95686 3.39578 5.55001 3.7414L6.20573 4.12585L2.792 7.54037L0.949368 5.68618Z" fill="#171723"/>
<path d="M3.50386 11.6337L8.37528 16.4956L7.26814 18.6205L1.39014 12.7304L3.50386 11.6337Z" fill="#171723"/>
<path d="M16.2658 14.4599C16.6069 15.0533 16.743 15.7425 16.6531 16.4211C16.5632 17.0996 16.2523 17.7296 15.7685 18.2136L14.932 19.0503C14.8938 19.0934 14.8467 19.1278 14.7941 19.1512C14.7415 19.1747 14.6844 19.1865 14.6268 19.1861C14.5675 19.1866 14.5088 19.1748 14.4543 19.1515C14.3998 19.1281 14.3508 19.0937 14.3103 19.0503L12.4678 17.2075L15.8815 13.7928L16.2658 14.4599Z" fill="#171723"/>
<path d="M19.7244 2.50915C19.6088 1.95904 19.3356 1.45447 18.9382 1.05696C18.5408 0.65945 18.0363 0.386174 17.4864 0.270446C16.125 -0.0851232 14.6959 -0.090158 13.3321 0.255811C11.9682 0.601781 10.7142 1.28749 9.68685 2.24903L2.70117 9.22505L4.01242 10.5366L6.73662 13.2614L10.772 17.2978L17.769 10.3105C18.7263 9.28067 19.4076 8.02534 19.7496 6.66132C20.0915 5.2973 20.0828 3.86894 19.7244 2.50915V2.50915ZM10.8736 14.4938C10.8226 14.5474 10.7613 14.5901 10.6933 14.6193C10.6253 14.6484 10.552 14.6635 10.4781 14.6635C10.4041 14.6635 10.3308 14.6484 10.2628 14.6193C10.1948 14.5901 10.1335 14.5474 10.0825 14.4938L5.50444 9.92611C5.39866 9.81951 5.33943 9.67533 5.33971 9.52514C5.33999 9.37494 5.39977 9.23098 5.50595 9.12479C5.61213 9.01859 5.75606 8.9588 5.90622 8.95853C6.05638 8.95826 6.20052 9.01752 6.30709 9.12333L10.8736 13.6911C10.9273 13.7432 10.97 13.8056 10.9991 13.8746C11.0282 13.9435 11.0433 14.0176 11.0433 14.0925C11.0433 14.1673 11.0282 14.2414 10.9991 14.3103C10.97 14.3793 10.9273 14.4417 10.8736 14.4938V14.4938ZM15.2143 9.63213C14.5705 10.2695 13.7012 10.6271 12.7953 10.6271C11.8895 10.6271 11.0202 10.2695 10.3764 9.63213C9.89656 9.15334 9.56957 8.54294 9.43677 7.87818C9.30397 7.21342 9.37133 6.5242 9.63032 5.89775C9.88931 5.27131 10.3283 4.7358 10.8917 4.35901C11.4551 3.98223 12.1176 3.7811 12.7953 3.7811C13.4731 3.7811 14.1356 3.98223 14.699 4.35901C15.2624 4.7358 15.7014 5.27131 15.9604 5.89775C16.2194 6.5242 16.2867 7.21342 16.1539 7.87818C16.0211 8.54294 15.6941 9.15334 15.2143 9.63213V9.63213ZM12.7953 4.91734C12.2656 4.91767 11.7524 5.10176 11.3432 5.43823C10.934 5.77469 10.6541 6.24271 10.5513 6.76249C10.4485 7.28226 10.529 7.82162 10.7793 8.28861C11.0296 8.75561 11.434 9.12132 11.9237 9.3234C12.4134 9.52549 12.958 9.55144 13.4647 9.39683C13.9714 9.24222 14.4087 8.91662 14.7022 8.47554C14.9958 8.03446 15.1273 7.5052 15.0743 6.978C15.0213 6.4508 14.7872 5.95829 14.4118 5.58444C13.9827 5.15651 13.4013 4.91656 12.7953 4.91734V4.91734Z" fill="#171723"/>
</g>
<defs>
<clipPath id="clip0_10314_144942">
<rect width="20" height="20" fill="white"/>
</clipPath>
</defs>
</svg>
