<svg width="20" height="20" viewBox="0 0 20 20" fill="none" xmlns="http://www.w3.org/2000/svg">
<g clip-path="url(#clip0_10314_145186)">
<path d="M18.5795 8.5791H11.4196V1.42045C11.4196 1.04372 11.2699 0.682424 11.0035 0.416039C10.7371 0.149654 10.3758 0 9.99907 0C9.62233 0 9.26102 0.149654 8.99462 0.416039C8.72822 0.682424 8.57856 1.04372 8.57856 1.42045V8.5791H1.42051C1.04377 8.5791 0.682455 8.72875 0.416058 8.99514C0.14966 9.26153 0 9.62282 0 9.99955C0 10.3763 0.14966 10.7376 0.416058 11.004C0.682455 11.2703 1.04377 11.42 1.42051 11.42H8.57856V18.5796C8.57856 18.9563 8.72822 19.3176 8.99462 19.584C9.26102 19.8503 9.62233 20 9.99907 20C10.3758 20 10.7371 19.8503 11.0035 19.584C11.2699 19.3176 11.4196 18.9563 11.4196 18.5796V11.42H18.5795C18.9562 11.42 19.3175 11.2703 19.5839 11.004C19.8503 10.7376 20 10.3763 20 9.99955C20 9.62282 19.8503 9.26153 19.5839 8.99514C19.3175 8.72875 18.9562 8.5791 18.5795 8.5791Z" fill="#171723"/>
</g>
<defs>
<clipPath id="clip0_10314_145186">
<rect width="20" height="20" fill="white"/>
</clipPath>
</defs>
</svg>
