<svg width="20" height="20" viewBox="0 0 20 20" fill="none" xmlns="http://www.w3.org/2000/svg">
<g clip-path="url(#clip0_5313_35147)">
<g clip-path="url(#clip1_5313_35147)">
<path d="M10.0005 20C8.02266 20.0001 6.08919 19.4137 4.44462 18.3149C2.80005 17.2161 1.51825 15.6544 0.761306 13.8271C0.00436723 11.9998 -0.193709 9.98908 0.192127 8.04922C0.577963 6.10937 1.53038 4.32749 2.92894 2.92894C4.32749 1.53038 6.10937 0.577963 8.04922 0.192127C9.98908 -0.193709 11.9998 0.00436705 13.8271 0.761306C15.6544 1.51825 17.2161 2.80005 18.3149 4.44462C19.4137 6.08919 20.0001 8.02265 20 10.0005C19.9969 12.6516 18.9424 15.1932 17.0678 17.0678C15.1932 18.9424 12.6516 19.9969 10.0005 20ZM10.0005 1.01694C8.22383 1.01684 6.48701 1.54358 5.0097 2.53057C3.53239 3.51756 2.38093 4.92046 1.70093 6.56186C1.02093 8.20326 0.842929 10.0094 1.18944 11.752C1.53596 13.4946 2.39142 15.0953 3.64766 16.3516C4.90389 17.608 6.50447 18.4637 8.24699 18.8104C9.98952 19.1571 11.7957 18.9793 13.4372 18.2995C15.0787 17.6197 16.4817 16.4683 17.4689 14.9911C18.456 13.5139 18.983 11.7772 18.9831 10.0005C18.9804 7.61892 18.0332 5.33563 16.3492 3.6515C14.6653 1.96737 12.3821 1.01991 10.0005 1.01695V1.01694Z" fill="#171723"/>
<path d="M10 13C11.6569 13 13 11.6569 13 10C13 8.34315 11.6569 7 10 7C8.34315 7 7 8.34315 7 10C7 11.6569 8.34315 13 10 13Z" fill="#171723"/>
</g>
</g>
<defs>
<clipPath id="clip0_5313_35147">
<rect width="20" height="20" fill="white"/>
</clipPath>
<clipPath id="clip1_5313_35147">
<rect width="20" height="20" fill="white"/>
</clipPath>
</defs>
</svg>
