<svg width="20" height="20" viewBox="0 0 20 20" fill="none" xmlns="http://www.w3.org/2000/svg">
<g clip-path="url(#clip0_5313_35219)">
<g clip-path="url(#clip1_5313_35219)">
<path d="M19.3441 12.3912C19.1326 12.2715 18.8944 12.2106 18.6531 12.2146C18.4118 12.2185 18.1757 12.2871 17.968 12.4137V12.0989C17.9682 11.9787 17.9453 11.8597 17.9007 11.7487C17.8561 11.6376 17.7907 11.5368 17.7082 11.4518C17.6257 11.3668 17.5277 11.2995 17.4198 11.2536C17.312 11.2077 17.1964 11.1841 17.0797 11.1843H15.7692V11.1393C15.7683 10.8971 15.6744 10.665 15.5081 10.4937C15.3417 10.3224 15.1163 10.2257 14.881 10.2247H13.5414V7.27871C13.5419 7.12188 13.5122 6.96651 13.4543 6.82149C13.3963 6.67648 13.3111 6.54466 13.2036 6.43361C13.096 6.32255 12.9682 6.23444 12.8276 6.17432C12.6869 6.1142 12.5361 6.08325 12.3838 6.08325C12.2315 6.08325 12.0807 6.1142 11.94 6.17432C11.7993 6.23444 11.6715 6.32255 11.564 6.43361C11.4565 6.54466 11.3713 6.67648 11.3133 6.82149C11.2553 6.96651 11.2257 7.12188 11.2262 7.27871V12.6311L9.8501 12.9459C9.60461 13.0061 9.38904 13.1568 9.24415 13.3695C9.09927 13.5822 9.03512 13.8422 9.06383 14.1004L9.31862 16.4317C9.37755 16.9702 9.5597 17.4866 9.8501 17.9385L10.4544 18.8831C10.6814 19.2266 10.9864 19.508 11.3429 19.7026C11.6994 19.8973 12.0967 19.9993 12.5003 20H16.5119C17.0422 20.0025 17.5588 19.8261 17.9826 19.4978C18.2636 19.2858 18.4949 19.0117 18.6597 18.6956L19.2275 17.6312C19.5026 17.1107 19.6781 16.5406 19.7445 15.952L19.9848 13.8155C20.0247 13.5396 19.9853 13.2578 19.8714 13.0047C19.7576 12.7515 19.5742 12.5383 19.3441 12.3912Z" fill="#171723"/>
<path d="M11.4232 3.72758H13.0523C13.3163 3.72737 13.5694 3.6193 13.7561 3.42709C13.9428 3.23489 14.0477 2.97426 14.0479 2.70243V1.02515C14.0477 0.753325 13.9428 0.492695 13.7561 0.300488C13.5694 0.10828 13.3163 0.000207278 13.0523 0H11.4232C11.1592 0.000207278 10.9061 0.10828 10.7194 0.300488C10.5327 0.492695 10.4278 0.753325 10.4276 1.02515V2.70248C10.4335 2.78513 10.4495 2.86668 10.4753 2.94519L7.02099 6.49227L3.57319 2.94231C3.59856 2.8647 3.6144 2.78412 3.62033 2.70246V1.02515C3.62018 0.753487 3.51536 0.492985 3.32889 0.300797C3.14242 0.108608 2.88952 0.000431071 2.62568 0H0.995646C0.731653 0.000218331 0.478534 0.108296 0.291866 0.300502C0.105199 0.492709 0.000241892 0.753332 4.05935e-05 1.02515V2.70248C0.000241906 2.9743 0.105205 3.23493 0.291881 3.42714C0.478557 3.61934 0.731686 3.72742 0.995686 3.72762H1.30448V10.7365H0.995646C0.731804 10.7367 0.478798 10.8446 0.29214 11.0366C0.105483 11.2286 0.000418666 11.489 0 11.7607V13.439C0.000201313 13.7108 0.105164 13.9715 0.29184 14.1637C0.478516 14.3559 0.731646 14.464 0.995646 14.4642H2.6257C2.88954 14.4637 3.14244 14.3556 3.32891 14.1634C3.51538 13.9712 3.6202 13.7107 3.62035 13.439V11.7607C3.62 11.4892 3.51509 11.2289 3.32864 11.0369C3.14218 10.8449 2.88939 10.7369 2.6257 10.7365H2.3179V3.72758H2.6257C2.70415 3.72145 2.78157 3.70533 2.85617 3.67958L6.66274 7.59894C6.75776 7.69663 6.8865 7.75159 7.02078 7.75179C7.15507 7.75198 7.28396 7.6974 7.37925 7.59998L11.1963 3.68036C11.2698 3.70553 11.346 3.72139 11.4232 3.72758ZM2.60689 13.4207L1.0135 13.439L0.995686 11.78L1.77582 11.7706C1.78813 11.7715 1.79865 11.778 1.81121 11.778C1.82531 11.778 1.83712 11.7709 1.85092 11.7697L2.60696 11.7606L2.60689 13.4207ZM0.995646 1.04349L2.60689 1.02515V2.68409L1.86226 2.69269C1.84543 2.68818 1.82838 2.68463 1.81117 2.68205C1.79192 2.6848 1.77285 2.68876 1.75407 2.6939L1.0135 2.70248L0.995646 1.04349ZM13.0345 1.02515V2.68409L11.4433 2.70243L11.441 2.69891L11.4233 1.04349L13.0345 1.02515Z" fill="#171723"/>
</g>
</g>
<defs>
<clipPath id="clip0_5313_35219">
<rect width="20" height="20" fill="white"/>
</clipPath>
<clipPath id="clip1_5313_35219">
<rect width="20" height="20" fill="white"/>
</clipPath>
</defs>
</svg>
