<svg width="20" height="20" viewBox="0 0 20 20" fill="none" xmlns="http://www.w3.org/2000/svg">
<g clip-path="url(#clip0_5313_35144)">
<g clip-path="url(#clip1_5313_35144)">
<path d="M19.5601 2.53939L17.454 0.439441C17.3143 0.300126 17.1485 0.189611 16.966 0.11421C16.7835 0.0388091 16.5879 0 16.3903 0C16.1928 0 15.9971 0.0388091 15.8146 0.11421C15.6321 0.189611 15.4663 0.300126 15.3267 0.439441L13.2205 2.53939C12.9389 2.82089 12.7807 3.20229 12.7807 3.59992C12.7807 3.99755 12.9389 4.37895 13.2205 4.66044L13.856 5.29403L5.29699 13.861L4.67253 13.2384C4.39017 12.958 4.00793 12.8007 3.60948 12.8007C3.21102 12.8007 2.82878 12.958 2.54642 13.2384L0.43793 15.3407C0.157227 15.6223 -0.000225287 16.0033 2.41944e-07 16.4003C0.000225771 16.7973 0.158111 17.1781 0.439134 17.4594L2.54648 19.5606C2.68579 19.7003 2.85154 19.8111 3.03413 19.8866C3.21671 19.962 3.41249 20.0006 3.61013 20H3.61133C3.80861 20.0005 4.00402 19.9619 4.18621 19.8865C4.3684 19.811 4.53374 19.7002 4.67262 19.5606L6.77876 17.4606C6.91873 17.3215 7.02982 17.1563 7.10565 16.9744C7.18148 16.7924 7.22057 16.5973 7.22069 16.4003C7.2208 16.2033 7.18193 16.0082 7.1063 15.8262C7.03067 15.6441 6.91978 15.4788 6.77996 15.3396L6.14801 14.7095L14.707 6.14246L15.3267 6.76044C15.6091 7.04111 15.9916 7.19871 16.3904 7.19871C16.7891 7.19871 17.1716 7.04111 17.454 6.76044L19.5601 4.66049C19.8418 4.37898 20 3.99757 20 3.59993C20 3.20229 19.8418 2.82089 19.5601 2.53939ZM5.92896 16.6109L3.82047 18.7133C3.76418 18.769 3.688 18.8002 3.60867 18.8C3.52933 18.7998 3.45333 18.7682 3.39736 18.7121L1.29001 16.6109C1.23411 16.5547 1.20275 16.4786 1.20275 16.3994C1.20275 16.3202 1.23411 16.2442 1.29001 16.1879L3.39615 14.088C3.45302 14.0317 3.52991 14.0001 3.61005 14.0001C3.64931 13.9999 3.68823 14.0074 3.72454 14.0223C3.76085 14.0372 3.79384 14.0591 3.82161 14.0868L4.86175 15.1239L4.87115 15.1379L4.88504 15.1471L5.92892 16.1879C5.95686 16.2156 5.97903 16.2486 5.99416 16.2849C6.00928 16.3212 6.01707 16.3601 6.01707 16.3994C6.01707 16.4387 6.00928 16.4777 5.99416 16.514C5.97903 16.5503 5.95686 16.5832 5.92892 16.6109H5.92896ZM18.7092 3.81201L16.603 5.91196C16.5798 5.94708 16.5483 5.9759 16.5111 5.99585C16.474 6.01579 16.4325 6.02623 16.3903 6.02623C16.3481 6.02623 16.3066 6.01579 16.2695 5.99585C16.2324 5.9759 16.2008 5.94708 16.1776 5.91196L14.0714 3.81201C14.0435 3.78416 14.0213 3.7511 14.0062 3.71471C13.9911 3.67831 13.9833 3.63931 13.9833 3.59991C13.9833 3.56052 13.9911 3.52151 14.0062 3.48512C14.0213 3.44872 14.0435 3.41566 14.0714 3.38781L16.1776 1.28786C16.2055 1.26 16.2387 1.23789 16.2752 1.22281C16.3117 1.20773 16.3508 1.19997 16.3903 1.19997C16.4298 1.19997 16.4689 1.20773 16.5054 1.22281C16.542 1.23789 16.5751 1.26 16.603 1.28786L18.7092 3.38781C18.7371 3.41566 18.7593 3.44872 18.7744 3.48512C18.7895 3.52151 18.7973 3.56052 18.7973 3.59991C18.7973 3.63931 18.7895 3.67831 18.7744 3.71471C18.7593 3.7511 18.7371 3.78416 18.7092 3.81201Z" fill="#171723"/>
</g>
</g>
<defs>
<clipPath id="clip0_5313_35144">
<rect width="20" height="20" fill="white"/>
</clipPath>
<clipPath id="clip1_5313_35144">
<rect width="20" height="20" fill="white"/>
</clipPath>
</defs>
</svg>
