<svg width="20" height="20" viewBox="0 0 20 20" fill="none" xmlns="http://www.w3.org/2000/svg">
<g clip-path="url(#clip0_10314_144691)">
<g clip-path="url(#clip1_10314_144691)">
<path d="M18.5092 6.02979C18.9043 6.02953 19.2832 5.87253 19.5627 5.59324C19.8422 5.31395 19.9994 4.93519 20 4.54007V1.48972C19.9994 1.0946 19.8422 0.71584 19.5627 0.436553C19.2832 0.157265 18.9043 0.000263948 18.5092 0H15.4599C15.0648 0.000263948 14.6859 0.157265 14.4064 0.436553C14.1269 0.71584 13.9697 1.0946 13.9691 1.48972V4.54007C13.9691 4.73814 14.0088 4.9342 14.0859 5.11665L9.99771 9.20481L5.91411 5.11187C5.99022 4.93083 6.02955 4.73646 6.0298 4.54007V1.48972C6.02949 1.09471 5.87244 0.715974 5.59313 0.436664C5.31381 0.157353 4.93507 0.000303388 4.54007 0H1.48973C1.09473 0.000306387 0.715986 0.157357 0.436674 0.436667C0.157362 0.715977 0.000309395 1.09471 0 1.48972V4.54007C0.000309395 4.93508 0.157362 5.31381 0.436674 5.59312C0.715986 5.87243 1.09473 6.02948 1.48973 6.02979H1.87517V13.9691H1.48973C1.09461 13.9697 0.715849 14.1269 0.43656 14.4064C0.157271 14.6859 0.00026695 15.0648 0 15.4599V18.5092C0.000269953 18.9043 0.157275 19.2832 0.436563 19.5627C0.715852 19.8422 1.09461 19.9994 1.48973 20H4.54007C4.93519 19.9994 5.31395 19.8422 5.59324 19.5627C5.87252 19.2832 6.02952 18.9043 6.02979 18.5092V18.127H13.9691V18.5092C13.9696 18.9044 14.1268 19.2833 14.4063 19.5628C14.6858 19.8422 15.0647 19.9995 15.4599 20H18.5092C18.9044 19.9995 19.2833 19.8422 19.5628 19.5628C19.8422 19.2833 19.9995 18.9044 20 18.5092V15.4599C19.9995 15.0647 19.8422 14.6858 19.5628 14.4063C19.2833 14.1269 18.9044 13.9696 18.5092 13.9691H18.1282V6.02979H18.5092ZM15.1033 1.48972C15.1034 1.39528 15.1411 1.30477 15.208 1.2381C15.2749 1.17143 15.3655 1.13405 15.4599 1.13419H18.5092C18.6036 1.13405 18.6942 1.17143 18.7611 1.2381C18.828 1.30477 18.8657 1.39528 18.8658 1.48972V4.54007C18.8657 4.63451 18.828 4.72502 18.7611 4.79169C18.6942 4.85836 18.6036 4.89574 18.5092 4.8956H17.5831C17.5753 4.89526 17.5689 4.89118 17.5611 4.89118C17.5532 4.89118 17.5468 4.89526 17.539 4.8956H15.4599C15.3732 4.89338 15.2904 4.85916 15.2274 4.79953L15.2184 4.78592C15.2131 4.78059 15.2059 4.779 15.2004 4.77394C15.1399 4.71087 15.1053 4.62741 15.1032 4.54004L15.1033 1.48972ZM1.13419 4.54007V1.48972C1.13429 1.39546 1.17178 1.30509 1.23844 1.23843C1.30509 1.17178 1.39547 1.13429 1.48973 1.13419H4.54007C4.63433 1.13429 4.7247 1.17178 4.79135 1.23844C4.858 1.30509 4.8955 1.39546 4.8956 1.48972V4.54007C4.89427 4.6298 4.85865 4.71562 4.79606 4.77993L4.78708 4.78595L4.78044 4.79585C4.71605 4.85865 4.63003 4.89437 4.54009 4.89566H2.46427C2.45651 4.89532 2.45008 4.89124 2.44225 4.89124C2.43443 4.89124 2.428 4.89532 2.42024 4.89566H1.48973C1.39546 4.89556 1.30508 4.85806 1.23842 4.79139C1.17176 4.72473 1.13428 4.63434 1.13419 4.54007ZM4.54007 18.8658H1.48973C1.39529 18.8657 1.30478 18.828 1.2381 18.7611C1.17143 18.6942 1.13405 18.6036 1.13419 18.5092V15.4599C1.13405 15.3655 1.17143 15.2749 1.2381 15.208C1.30478 15.1411 1.39529 15.1034 1.48973 15.1033H4.54007C4.63451 15.1034 4.72502 15.1411 4.79169 15.208C4.85836 15.2749 4.89574 15.3655 4.8956 15.4599V17.5434L4.89229 17.5599L4.8956 17.5764V18.5091C4.89575 18.6036 4.85837 18.6942 4.7917 18.7611C4.72502 18.828 4.63451 18.8657 4.54007 18.8658ZM18.8658 15.4599V18.5092C18.8658 18.556 18.8566 18.6024 18.8387 18.6457C18.8208 18.689 18.7945 18.7283 18.7614 18.7614C18.7283 18.7945 18.689 18.8208 18.6457 18.8387C18.6024 18.8566 18.556 18.8658 18.5092 18.8658H15.4599C15.4131 18.8658 15.3667 18.8566 15.3234 18.8387C15.2801 18.8208 15.2408 18.7945 15.2077 18.7614C15.1745 18.7283 15.1483 18.689 15.1304 18.6457C15.1125 18.6024 15.1032 18.556 15.1033 18.5092V15.4599C15.1032 15.4131 15.1125 15.3667 15.1304 15.3234C15.1483 15.2801 15.1745 15.2408 15.2077 15.2077C15.2408 15.1746 15.2801 15.1483 15.3234 15.1304C15.3667 15.1125 15.4131 15.1033 15.4599 15.1033H18.5092C18.556 15.1033 18.6024 15.1125 18.6457 15.1304C18.689 15.1483 18.7283 15.1746 18.7614 15.2077C18.7945 15.2408 18.8208 15.2801 18.8387 15.3234C18.8566 15.3667 18.8658 15.4131 18.8658 15.4599V15.4599ZM16.994 13.9691H15.4599C15.0647 13.9696 14.6858 14.1268 14.4063 14.4063C14.1268 14.6858 13.9696 15.0647 13.9691 15.4599V16.9929H6.02979V15.4599C6.02952 15.0648 5.87252 14.6859 5.59324 14.4064C5.31395 14.1269 4.93519 13.9697 4.54007 13.9691H3.00936V6.02979H4.54007C4.73667 6.02959 4.93126 5.99024 5.11249 5.91405L9.59628 10.4082C9.64892 10.4609 9.71143 10.5026 9.78022 10.5311C9.84901 10.5596 9.92275 10.5743 9.99722 10.5743C10.0717 10.5743 10.1454 10.5596 10.2142 10.5311C10.283 10.5026 10.3455 10.4609 10.3982 10.4082L14.8915 5.91488C15.0715 5.99029 15.2647 6.02935 15.4599 6.02979H16.994V13.9691Z" fill="#171723"/>
</g>
</g>
<defs>
<clipPath id="clip0_10314_144691">
<rect width="20" height="20" fill="white"/>
</clipPath>
<clipPath id="clip1_10314_144691">
<rect width="20" height="20" fill="white"/>
</clipPath>
</defs>
</svg>
