<svg width="20" height="20" viewBox="0 0 20 20" fill="none" xmlns="http://www.w3.org/2000/svg">
<path d="M17.7852 6.96492C17.2787 6.96492 16.8168 7.14192 16.4437 7.42838L11.8669 3.39599C12.0841 3.05338 12.2144 2.65014 12.2144 2.21476C12.2144 0.991617 11.2227 0 10 0C8.77686 0 7.78524 0.991617 7.78524 2.21476C7.78524 2.62044 7.90242 2.99601 8.09286 3.32275L3.86352 7.71443C3.45784 7.25789 2.87312 6.96492 2.21436 6.96492C0.991217 6.96492 0 7.95613 0 9.17928C0 10.4024 0.991208 11.394 2.21436 11.394C3.43751 11.394 4.42912 10.4024 4.42912 9.17928C4.42912 8.92701 4.37785 8.68856 4.30012 8.46232L8.64298 3.95305C9.01896 4.24683 9.48608 4.42912 10 4.42912C10.4854 4.42912 10.9306 4.2684 11.2956 4.00351L15.8895 8.05055C15.6917 8.38217 15.5709 8.76507 15.5709 9.17929C15.5709 9.75791 15.7979 10.28 16.1609 10.6742L11.7944 15.7137C11.556 15.6258 11.3017 15.5709 11.0327 15.5709C9.95932 15.5709 9.06495 16.335 8.86232 17.349L4.38925 17.3893C4.20207 16.3562 3.30201 15.5709 2.21437 15.5709C0.991225 15.5709 8.33333e-06 16.5625 8.33333e-06 17.7852C8.33333e-06 19.0084 0.991217 20 2.21437 20C3.28777 20 4.18173 19.2363 4.38478 18.2231L8.85824 18.1824C9.04583 19.2155 9.94548 20 11.0327 20C12.2559 20 13.2475 19.0084 13.2475 17.7852C13.2475 17.1566 12.9826 16.5918 12.5614 16.189L16.8852 11.1991C17.1607 11.322 17.4638 11.3941 17.7852 11.3941C19.0084 11.3941 20 10.4024 20 9.1793C20 7.95616 19.0084 6.96492 17.7852 6.96492Z" fill="#171723"/>
</svg>
