<svg width="20" height="20" viewBox="0 0 20 20" fill="none" xmlns="http://www.w3.org/2000/svg">
<path d="M10.3125 5.6665L10.5249 5.67708C11.016 5.72591 11.4774 5.94352 11.8294 6.29557C12.2318 6.69799 12.4585 7.24339 12.4585 7.8125C12.4585 8.38161 12.2318 8.927 11.8294 9.32942C11.427 9.73185 10.8816 9.95849 10.3125 9.95849H7.54149V5.6665H10.3125Z" fill="#171723"/>
<path fill-rule="evenodd" clip-rule="evenodd" d="M15.8333 1.66666C17.214 1.66666 18.3333 2.78595 18.3333 4.16666V15.8333C18.3333 17.214 17.214 18.3333 15.8333 18.3333H4.16666C2.78594 18.3333 1.66666 17.214 1.66666 15.8333V4.16666C1.66666 2.78595 2.78594 1.66666 4.16666 1.66666H15.8333ZM6.87499 4.33349C6.5068 4.33349 6.20849 4.63181 6.20849 5V15C6.20849 15.3682 6.5068 15.6665 6.87499 15.6665C7.24318 15.6665 7.54149 15.3682 7.54149 15V11.2915H10.3125C11.2352 11.2915 12.1201 10.9251 12.7726 10.2726C13.4251 9.62015 13.7915 8.73523 13.7915 7.8125C13.7915 6.88976 13.4251 6.00484 12.7726 5.35237C12.1201 4.6999 11.2352 4.33349 10.3125 4.33349H6.87499Z" fill="#171723"/>
</svg>
