<svg width="20" height="20" viewBox="0 0 20 20" fill="none" xmlns="http://www.w3.org/2000/svg">
<path fill-rule="evenodd" clip-rule="evenodd" d="M15.8333 18.3333H4.16666L4.03808 18.3301C2.75971 18.2653 1.73468 17.2403 1.66991 15.9619L1.66666 15.8333V4.16666C1.66666 2.78595 2.78594 1.66666 4.16666 1.66666H15.8333C17.214 1.66666 18.3333 2.78595 18.3333 4.16666V15.8333C18.3333 17.1709 17.2829 18.2632 15.9619 18.3301L15.8333 18.3333ZM15.8333 17.0833H4.16666C3.4763 17.0833 2.91666 16.5237 2.91666 15.8333V4.16666C2.91666 3.47631 3.4763 2.91666 4.16666 2.91666H15.8333C16.5237 2.91666 17.0833 3.47631 17.0833 4.16666V15.8333C17.0833 16.5237 16.5237 17.0833 15.8333 17.0833Z" fill="#171723"/>
<path d="M12.5 7.8125C12.5 7.23234 12.2698 6.6757 11.8595 6.26546C11.5006 5.90656 11.0296 5.68535 10.529 5.63558L10.3125 5.625H7.49999V10H10.3125C10.8927 10 11.4493 9.76977 11.8595 9.35954C12.2698 8.9493 12.5 8.39266 12.5 7.8125ZM13.75 7.8125C13.75 8.72418 13.388 9.59867 12.7433 10.2433C12.0987 10.888 11.2242 11.25 10.3125 11.25H7.49999V15C7.49999 15.3452 7.22017 15.625 6.87499 15.625C6.52981 15.625 6.24999 15.3452 6.24999 15V5C6.24999 4.65482 6.52981 4.375 6.87499 4.375H10.3125C11.2242 4.375 12.0987 4.73701 12.7433 5.38167C13.388 6.02633 13.75 6.90082 13.75 7.8125Z" fill="#171723"/>
</svg>
