<svg width="20" height="20" viewBox="0 0 20 20" fill="none" xmlns="http://www.w3.org/2000/svg">
<g clip-path="url(#clip0_7401_132214)">
<path d="M12.5204 14.1523L8.36661 9.90504L12.5057 5.85396C12.5454 5.81584 12.5772 5.77023 12.5992 5.71976C12.6212 5.66928 12.633 5.61495 12.6339 5.5599C12.6348 5.50485 12.6247 5.45017 12.6043 5.39902C12.584 5.34787 12.5536 5.30127 12.5151 5.26191C12.4766 5.22255 12.4307 5.19121 12.38 5.1697C12.3293 5.14819 12.2749 5.13694 12.2198 5.1366C12.1648 5.13627 12.1102 5.14684 12.0593 5.16772C12.0083 5.1886 11.962 5.21937 11.923 5.25826L7.48618 9.60071C7.44706 9.63896 7.41585 9.68454 7.39435 9.73486C7.37285 9.78517 7.36147 9.83923 7.36087 9.89394C7.36026 9.94865 7.37044 10.0029 7.39082 10.0537C7.41121 10.1045 7.4414 10.1508 7.47966 10.1899L11.9247 14.735C11.9633 14.7748 12.0097 14.8064 12.0608 14.8279C12.112 14.8495 12.167 14.8605 12.2225 14.8603C12.3045 14.8603 12.3847 14.8361 12.453 14.7907C12.5213 14.7453 12.5747 14.6808 12.6066 14.6052C12.6384 14.5296 12.6471 14.4463 12.6318 14.3657C12.6165 14.2852 12.5777 14.2109 12.5204 14.1523L12.5204 14.1523Z" fill="#171723"/>
</g>
<defs>
<clipPath id="clip0_7401_132214">
<rect width="20" height="20" fill="white"/>
</clipPath>
</defs>
</svg>
