<svg width="20" height="20" viewBox="0 0 20 20" fill="none" xmlns="http://www.w3.org/2000/svg">
<g clip-path="url(#clip0_18610_1767)">
<mask id="mask0_18610_1767" style="mask-type:luminance" maskUnits="userSpaceOnUse" x="0" y="0" width="20" height="20">
<path d="M0 0H20V20H0V0Z" fill="white"/>
</mask>
<g mask="url(#mask0_18610_1767)">
<path d="M16.125 8.36667C15.5583 5.49167 13.0333 3.33333 10 3.33333C7.59167 3.33333 5.5 4.7 4.45833 6.7C1.95 6.96667 0 9.09167 0 11.6667C0 14.425 2.24167 16.6667 5 16.6667H15.8333C18.1333 16.6667 20 14.8 20 12.5C20 10.3 18.2917 8.51667 16.125 8.36667ZM8.925 13.575C8.6 13.9 8.075 13.9 7.75 13.575L6 11.8333C5.675 11.5083 5.675 10.9833 6 10.6583C6.325 10.3333 6.85 10.3333 7.175 10.6583L8.33333 11.8167L12.0667 8.08333C12.3917 7.75833 12.9167 7.75833 13.2417 8.08333C13.5667 8.40833 13.5667 8.93333 13.2417 9.25833L8.925 13.575Z" fill="#171723"/>
</g>
</g>
<defs>
<clipPath id="clip0_18610_1767">
<rect width="20" height="20" fill="white"/>
</clipPath>
</defs>
</svg>
