<svg width="20" height="20" viewBox="0 0 20 20" fill="none" xmlns="http://www.w3.org/2000/svg">
<path d="M13.1 8.9C14.3 8 15 6.6 15 5C15 2.2 12.8 0 9.99995 0C7.19995 0 4.99995 2.2 4.99995 5C4.99995 6.6 5.69995 8 6.89995 8.9C3.79995 10.1 1.69995 12.8 1.69995 16.1C1.69995 20 3.79995 20 8.59995 20C8.99995 20 9.49995 20 9.99995 20C10.5 20 11 20 11.4 20C16.2 20 18.2999 20 18.2999 16.1C18.2999 12.8 16.2 10.1 13.1 8.9ZM6.29995 5C6.29995 2.9 7.99995 1.2 10.1 1.2C12.2 1.2 13.9 2.9 13.9 5C13.9 6.6 13 7.9 11.6 8.5C11.1 8.4 10.6 8.4 10.1 8.4C9.59995 8.4 9.09995 8.4 8.59995 8.5C7.19995 7.9 6.29995 6.6 6.29995 5ZM16.8 17.9C16.7 18.1 16.5 18.3 16 18.5C15.5 18.7 14.8 18.7 13.8 18.8C13.1 18.8 12.4 18.8 11.5 18.8C11.1 18.8 10.6 18.8 10.1 18.8C9.59995 18.8 9.09995 18.8 8.69995 18.8C7.79995 18.8 7.09995 18.8 6.39995 18.8C5.39995 18.8 4.69995 18.7 4.19995 18.5C3.69995 18.4 3.49995 18.2 3.39995 17.9C3.19995 17.6 3.09995 17.1 3.09995 16.1C3.09995 12.6 6.19995 9.6 10.2 9.6C14.2 9.6 17.3 12.6 17.3 16.1C17.1 17.1 16.9 17.6 16.8 17.9Z" fill="#171723"/>
</svg>
