<svg width="20" height="20" viewBox="0 0 20 20" fill="none" xmlns="http://www.w3.org/2000/svg">
<path fill-rule="evenodd" clip-rule="evenodd" d="M7.74377 13.5687C8.06877 13.8937 8.59377 13.8937 8.91877 13.5687L13.2354 9.252C13.5604 8.927 13.5604 8.402 13.2354 8.077C12.9104 7.752 12.3854 7.752 12.0604 8.077L8.3271 11.8103L7.16877 10.652C6.84377 10.327 6.31877 10.327 5.99377 10.652C5.66877 10.977 5.66877 11.502 5.99377 11.827L7.74377 13.5687ZM15.292 9.31139L15.1439 8.56005C14.6677 6.1444 12.5461 4.33333 10 4.33333C7.97957 4.33333 6.22177 5.47901 5.34525 7.16193L5.09746 7.63769L4.56405 7.69439C2.55996 7.90745 1 9.6073 1 11.6667C1 13.8727 2.79395 15.6667 5 15.6667H15.8333C17.581 15.6667 19 14.2477 19 12.5C19 10.8356 17.7086 9.47869 16.0559 9.36428L15.292 9.31139ZM4.45833 6.7C1.95 6.96667 0 9.09167 0 11.6667C0 14.425 2.24167 16.6667 5 16.6667H15.8333C18.1333 16.6667 20 14.8 20 12.5C20 10.3 18.2917 8.51666 16.125 8.36667C15.5583 5.49167 13.0333 3.33333 10 3.33333C7.59167 3.33333 5.5 4.7 4.45833 6.7Z" fill="#171723"/>
</svg>
