<svg width="24" height="24" viewBox="0 0 24 24" fill="none" xmlns="http://www.w3.org/2000/svg">
<path fill-rule="evenodd" clip-rule="evenodd" d="M16.5 6C16.5 7.86148 15.3697 9.45898 13.758 10.1436C13.1873 10.0492 12.5998 10 12 10C11.4002 10 10.8127 10.0492 10.242 10.1436C8.63027 9.45898 7.5 7.86148 7.5 6C7.5 3.51472 9.51472 1.5 12 1.5C14.4853 1.5 16.5 3.51472 16.5 6ZM8.24476 10.6798C6.87607 9.58013 6 7.89237 6 6C6 2.68629 8.68629 0 12 0C15.3137 0 18 2.68629 18 6C18 7.89237 17.1239 9.58013 15.7552 10.6798C19.4173 12.0644 22 15.4135 22 19.3251C22 24.0451 19.4801 24.0298 13.6705 23.9943C13.1412 23.991 12.5845 23.9876 12 23.9876C11.4155 23.9876 10.8588 23.991 10.3295 23.9943C4.5199 24.0298 2 24.0451 2 19.3251C2 15.4135 4.58275 12.0644 8.24476 10.6798ZM20.5 19.3251C20.5 20.4987 20.3232 21.1283 20.1219 21.4779C19.9567 21.7648 19.7066 21.986 19.1663 22.1595C18.5682 22.3516 17.7168 22.4498 16.4744 22.4839C15.6563 22.5064 14.7514 22.5008 13.7142 22.4944C13.18 22.4911 12.6107 22.4876 12 22.4876C11.3893 22.4876 10.82 22.4911 10.2858 22.4944C9.24858 22.5008 8.3437 22.5064 7.52556 22.4839C6.28325 22.4498 5.43185 22.3516 4.83366 22.1595C4.29341 21.986 4.04325 21.7648 3.87809 21.4779C3.67683 21.1283 3.5 20.4987 3.5 19.3251C3.5 15.1004 7.20514 11.5 12 11.5C16.7949 11.5 20.5 15.1004 20.5 19.3251Z" fill="#171723"/>
</svg>
