<svg width="20" height="20" viewBox="0 0 20 20" fill="none" xmlns="http://www.w3.org/2000/svg">
<g clip-path="url(#clip0_10314_146225)">
<path d="M19.8045 10.7164C19.9982 10.3858 20.0505 9.99305 19.95 9.62448C19.8495 9.25591 19.6044 8.94169 19.2685 8.75086L19.2675 8.74984L18.1827 8.13491L19.2665 7.52031C19.4893 7.39428 19.6745 7.21267 19.8033 6.9938C19.932 6.77493 19.9999 6.52653 20 6.27363C20.0001 6.02073 19.9324 5.77227 19.8038 5.55329C19.6753 5.33432 19.4903 5.15257 19.2675 5.02636L10.7297 0.189429C10.5067 0.0650914 10.2547 -0.000177902 9.99829 3.64185e-07C9.74192 0.00017863 9.48999 0.0657983 9.26711 0.190446L0.733337 5.02632C0.510258 5.15131 0.325198 5.3327 0.197323 5.55172C0.10081 5.71548 0.0380857 5.89636 0.0127431 6.08401C-0.0125995 6.27166 -6.2096e-05 6.46238 0.0496369 6.64525C0.0993359 6.82813 0.18522 6.99955 0.302368 7.14971C0.419515 7.29987 0.565625 7.42581 0.732324 7.52031L1.81689 8.13524L0.73131 8.7509C0.509618 8.87733 0.325228 9.05841 0.196309 9.2763C0.100134 9.44019 0.0377088 9.62111 0.0125965 9.80873C-0.0125158 9.99636 0.000177197 10.187 0.0499509 10.3698C0.0997246 10.5526 0.185604 10.724 0.302686 10.8741C0.419768 11.0242 0.565759 11.1502 0.732324 11.2449L1.81689 11.8598L0.73131 12.4754C0.509618 12.6018 0.325228 12.7829 0.196309 13.0008C0.100134 13.1647 0.0377088 13.3456 0.0125965 13.5332C-0.0125158 13.7208 0.000177197 13.9115 0.0499509 14.0943C0.0997246 14.2771 0.185604 14.4484 0.302686 14.5986C0.419768 14.7487 0.565759 14.8747 0.732324 14.9693L9.26808 19.8093C9.49126 19.9343 9.74363 20 10.0004 20C10.2572 20 10.5096 19.9343 10.7328 19.8093L19.2665 14.9694C19.4893 14.8433 19.6743 14.6617 19.8031 14.4429C19.9318 14.2241 19.9997 13.9758 19.9999 13.723C20.0001 13.4702 19.9326 13.2217 19.8043 13.0027C19.6759 12.7837 19.4911 12.6019 19.2686 12.4754L19.2675 12.4744L18.1828 11.8595L19.2665 11.2448C19.4897 11.1179 19.6752 10.9358 19.8045 10.7164ZM1.08966 6.48236C1.05228 6.41821 1.03279 6.34548 1.03315 6.27153C1.03352 6.19758 1.05372 6.12504 1.09173 6.06124C1.12892 5.99699 1.18339 5.94407 1.24915 5.90829L9.78188 1.07334C9.84833 1.03616 9.92348 1.01665 9.99992 1.01673C10.0757 1.01606 10.1502 1.03525 10.216 1.07235L18.7517 5.90829C18.8172 5.94509 18.8716 5.99829 18.9093 6.0625C18.9471 6.12671 18.9669 6.19961 18.9667 6.2738C18.9665 6.34739 18.9467 6.41964 18.9092 6.48331C18.8711 6.54776 18.8164 6.6012 18.7507 6.63825L16.8899 7.69365L16.8883 7.69408L13.8473 9.41923L10.2169 11.4782C10.1509 11.5151 10.0763 11.5345 10.0004 11.5345C9.92447 11.5345 9.84986 11.5151 9.78384 11.4782L3.11156 7.69408L3.10896 7.6934L1.24814 6.6383C1.18191 6.60143 1.12712 6.54753 1.08966 6.48236ZM18.7507 13.3554C18.8156 13.3927 18.8699 13.4457 18.9082 13.5093C18.9368 13.5573 18.9555 13.6105 18.9631 13.6657C18.9707 13.7209 18.9671 13.777 18.9525 13.8308C18.9378 13.8846 18.9124 13.935 18.8778 13.979C18.8431 14.0231 18.7999 14.0599 18.7507 14.0874L10.218 18.9273C10.1519 18.9646 10.0771 18.9843 10.0009 18.9843C9.92476 18.9843 9.84993 18.9646 9.7839 18.9273L1.24814 14.0874C1.18269 14.0503 1.12836 13.9969 1.09067 13.9325C1.05257 13.8687 1.03269 13.7959 1.03313 13.7219C1.0333 13.6477 1.05313 13.5748 1.09067 13.5104C1.12879 13.4462 1.18346 13.3931 1.24915 13.3564L2.85245 12.447L9.26808 16.0848C9.45656 16.1874 9.66592 16.2475 9.88094 16.2605C9.9205 16.2637 9.95929 16.2755 9.99891 16.2755L9.99929 16.2754C10.0348 16.2754 10.0696 16.2646 10.105 16.2621C10.3251 16.25 10.5397 16.1894 10.7328 16.0848L17.1471 12.4469L18.7507 13.3554ZM18.9102 10.2069C18.8718 10.2717 18.8168 10.3255 18.7507 10.3628L16.8902 11.4181L16.8883 11.4186L10.218 15.2028C10.1519 15.2401 10.0771 15.2597 10.0009 15.2597C9.92476 15.2597 9.84993 15.2401 9.7839 15.2028L3.11156 11.4187L3.10896 11.4179L1.24814 10.3628C1.18269 10.3258 1.12836 10.2723 1.09067 10.2079C1.05257 10.1441 1.03269 10.0714 1.03313 9.99737C1.0333 9.92313 1.05313 9.85022 1.09067 9.78582C1.12879 9.72166 1.18346 9.66855 1.24915 9.63187L2.85245 8.72246L9.26808 12.3602C9.49104 12.4858 9.7435 12.5519 10.0004 12.5519C10.2574 12.5519 10.5098 12.4858 10.7328 12.3602L17.1472 8.72234L18.7507 9.63088C18.8157 9.66815 18.8699 9.72114 18.9082 9.78482C18.9462 9.84879 18.9664 9.92149 18.9667 9.99558C18.9671 10.0697 18.9476 10.1426 18.9102 10.2069L18.9102 10.2069Z" fill="#171723"/>
</g>
<defs>
<clipPath id="clip0_10314_146225">
<rect width="20" height="20" fill="white"/>
</clipPath>
</defs>
</svg>
