<svg width="20" height="20" viewBox="0 0 20 20" fill="none" xmlns="http://www.w3.org/2000/svg">
<g clip-path="url(#clip0_10314_146249)">
<path d="M20 14.6208C19.9981 14.6555 19.9872 14.6892 19.9685 14.7185C19.9498 14.7477 19.9239 14.7717 19.8933 14.7879L11.6059 19.5681C11.1153 19.8511 10.5597 20 9.99426 20C9.4288 20 8.87318 19.8511 8.38259 19.5681L0.095547 14.7879C0.0663757 14.7711 0.0421925 14.7467 0.0254864 14.7173C0.00878028 14.688 0.000154942 14.6546 0.000498137 14.6208C0.00225014 14.5874 0.0117612 14.5548 0.0282681 14.5258C0.0447749 14.4968 0.0678176 14.472 0.095547 14.4535L1.79276 13.474L5.18733 15.4331L9.00931 17.6548C9.09014 17.6957 9.17336 17.7316 9.25851 17.7624C9.49176 17.8606 9.74144 17.9133 9.99425 17.9177C10.2343 17.9116 10.4713 17.863 10.6946 17.7743C10.7935 17.7448 10.889 17.7047 10.9795 17.6548L14.6707 15.5166L18.196 13.474L19.8932 14.4535C19.9238 14.4698 19.9498 14.4937 19.9685 14.523C19.9872 14.5523 19.9981 14.586 20 14.6208Z" fill="#171723"/>
<path d="M20 10.2489C19.9981 10.2837 19.9872 10.3174 19.9685 10.3467C19.9498 10.376 19.9239 10.3999 19.8933 10.4162L18.1961 11.3957L16.4038 12.423L11.6053 15.1952C11.1149 15.4786 10.5594 15.6278 9.99392 15.6282C9.42846 15.6286 8.87274 15.4801 8.38195 15.1975L3.58502 12.4349L1.79276 11.3957L0.0955474 10.4162C0.0663685 10.3993 0.0421817 10.3749 0.0254759 10.3455C0.00877002 10.3161 0.000148554 10.2828 0.000498527 10.2489C0.00226353 10.2155 0.0117808 10.183 0.0282872 10.154C0.0447936 10.125 0.0678296 10.1002 0.0955474 10.0818L1.01061 9.55369C1.24874 9.41625 1.51843 9.34384 1.79294 9.34363C2.06745 9.34342 2.33725 9.41541 2.57559 9.55248L3.7867 10.249L5.18733 11.0612L5.56708 11.2763L9.00932 13.2831C9.09014 13.324 9.17336 13.3599 9.25852 13.3906C9.49176 13.4888 9.74145 13.5415 9.99426 13.5459C10.2343 13.5398 10.4713 13.4913 10.6946 13.4025C10.7916 13.3678 10.8867 13.328 10.9795 13.2831L14.4333 11.2882L14.6708 11.1448L16.2137 10.2489L17.4121 9.55572C17.6507 9.41772 17.921 9.34503 18.1962 9.34489C18.4714 9.34475 18.7418 9.41718 18.9805 9.55495L19.8933 10.0817C19.9239 10.098 19.9498 10.1219 19.9685 10.1512C19.9872 10.1805 19.9981 10.2142 20 10.2489Z" fill="#171723"/>
<path d="M20 5.87699C19.9981 5.91176 19.9872 5.94543 19.9685 5.97473C19.9498 6.00403 19.9239 6.02798 19.8933 6.04424L18.1961 7.02367L16.4038 8.05101L14.4216 9.1977L12.6294 10.2369L11.6037 10.8274C11.1137 11.1095 10.5589 11.258 9.99432 11.258C9.42975 11.258 8.87497 11.1095 8.38492 10.8274L7.35937 10.237L5.57892 9.20966L3.58502 8.06297L1.79276 7.02369L0.0955466 6.04425C0.0663766 6.02737 0.0421971 6.00299 0.0254926 5.97359C0.00878811 5.9442 0.000161112 5.91086 0.00049777 5.877C0.00301719 5.8421 0.0127773 5.80812 0.0291487 5.77726C0.0455202 5.74639 0.0681392 5.71932 0.0955466 5.69779L9.89951 0.0238393C9.92895 0.0089267 9.96131 0.000784076 9.99426 0C10.0309 0.00219552 10.067 0.0102422 10.1012 0.0238393L19.8933 5.69778C19.9243 5.71653 19.9503 5.74269 19.9689 5.77394C19.9875 5.8052 19.9982 5.84059 20 5.87699Z" fill="#171723"/>
</g>
<defs>
<clipPath id="clip0_10314_146249">
<rect width="20" height="20" fill="white"/>
</clipPath>
</defs>
</svg>
