<svg width="20" height="20" viewBox="0 0 20 20" fill="none" xmlns="http://www.w3.org/2000/svg">
<g clip-path="url(#clip0_10314_146598)">
<g clip-path="url(#clip1_10314_146598)">
<path d="M5.08486 2.54223C5.08483 2.06123 4.94836 1.5901 4.69128 1.18356C4.4342 0.777025 4.06707 0.451755 3.63252 0.245528C3.19797 0.0393012 2.71384 -0.039421 2.23634 0.0185037C1.75884 0.0764285 1.30756 0.268624 0.934928 0.572769C0.562292 0.876914 0.283581 1.28053 0.131162 1.73674C-0.0212556 2.19296 -0.0411268 2.68305 0.0738564 3.1501C0.18884 3.61716 0.433959 4.04202 0.780749 4.37533C1.12754 4.70865 1.56177 4.93674 2.03301 5.03314V14.9668C1.41558 15.0929 0.866976 15.4438 0.493556 15.9515C0.120137 16.4591 -0.0514914 17.0873 0.0119465 17.7143C0.0753843 18.3412 0.369369 18.9223 0.836902 19.3449C1.30444 19.7674 1.91221 20.0013 2.54239 20.0012C3.17257 20.0011 3.78026 19.767 4.24764 19.3443C4.71502 18.9215 5.0088 18.3404 5.07201 17.7134C5.13522 17.0863 4.96337 16.4582 4.58977 15.9507C4.21616 15.4432 3.66743 15.0925 3.04996 14.9666V5.03332C3.62403 4.91573 4.13995 4.60369 4.51067 4.14986C4.88138 3.69604 5.08419 3.12822 5.08486 2.54223ZM1.01709 2.54223C1.01709 2.24053 1.10655 1.94561 1.27417 1.69476C1.44178 1.4439 1.68002 1.24839 1.95875 1.13293C2.23748 1.01748 2.54419 0.987269 2.84009 1.04613C3.136 1.10499 3.4078 1.25027 3.62113 1.4636C3.83446 1.67693 3.97975 1.94873 4.0386 2.24464C4.09746 2.54054 4.06725 2.84725 3.9518 3.12598C3.83634 3.40471 3.64083 3.64295 3.38998 3.81056C3.13912 3.97818 2.8442 4.06764 2.5425 4.06764C2.13807 4.0672 1.75033 3.90635 1.46436 3.62037C1.17838 3.3344 1.01753 2.94666 1.01709 2.54223ZM4.06791 17.4577C4.06791 17.7594 3.97845 18.0543 3.81084 18.3052C3.64322 18.556 3.40498 18.7516 3.12625 18.867C2.84752 18.9825 2.54081 19.0127 2.24491 18.9538C1.94901 18.895 1.6772 18.7497 1.46387 18.5363C1.25054 18.323 1.10526 18.0512 1.0464 17.7553C0.98754 17.4594 1.01775 17.1527 1.1332 16.874C1.24866 16.5952 1.44417 16.357 1.69503 16.1894C1.94588 16.0218 2.2408 15.9323 2.5425 15.9323C2.94693 15.9327 3.33467 16.0936 3.62064 16.3796C3.90661 16.6655 4.06747 17.0533 4.06791 17.4577V17.4577Z" fill="#171723"/>
<path d="M17.9697 14.9672V5.59702C17.9686 4.65339 17.5932 3.74873 16.926 3.08148C16.2587 2.41423 15.3541 2.03887 14.4104 2.03773H9.87197L10.875 1.03469C10.9688 0.939018 11.021 0.810212 11.0203 0.676262C11.0196 0.542312 10.9661 0.414041 10.8714 0.319323C10.7767 0.224605 10.6484 0.171093 10.5145 0.170417C10.3805 0.16974 10.2517 0.221953 10.156 0.31571L8.28396 2.18671L8.28118 2.19193C8.22219 2.25512 8.18082 2.33268 8.16118 2.41686C8.15542 2.43843 8.15121 2.46038 8.14858 2.48254C8.13465 2.56831 8.14323 2.65623 8.17346 2.7377L8.17378 2.74086L8.18042 2.74894C8.20524 2.80778 8.24107 2.86133 8.286 2.90671L10.157 4.7678C10.253 4.86077 10.3818 4.91218 10.5155 4.91091C10.6492 4.90964 10.777 4.85579 10.8712 4.76101C10.9655 4.66623 11.0186 4.53815 11.0191 4.40448C11.0197 4.27081 10.9675 4.14231 10.874 4.04679L9.87664 3.05468H14.4105C15.0846 3.0553 15.7309 3.32336 16.2075 3.80001C16.6842 4.27666 16.9522 4.92295 16.9528 5.59703V14.9663C16.3359 15.0917 15.7875 15.4418 15.4139 15.9486C15.0403 16.4554 14.8683 17.0828 14.931 17.7092C14.9938 18.3357 15.2869 18.9165 15.7535 19.3392C16.2202 19.7618 16.8271 19.9961 17.4567 19.9967C18.0863 19.9973 18.6937 19.7641 19.1611 19.3423C19.6285 18.9205 19.9227 18.3402 19.9866 17.7139C20.0505 17.0876 19.8795 16.4598 19.5069 15.9523C19.1343 15.4449 18.5865 15.0938 17.9698 14.9672L17.9697 14.9672ZM17.4573 18.9831C17.1556 18.9831 16.8607 18.8937 16.6098 18.7261C16.359 18.5584 16.1635 18.3202 16.048 18.0415C15.9325 17.7627 15.9023 17.456 15.9612 17.1601C16.0201 16.8642 16.1653 16.5924 16.3787 16.3791C16.592 16.1658 16.8638 16.0205 17.1597 15.9616C17.4556 15.9028 17.7623 15.933 18.041 16.0484C18.3198 16.1639 18.558 16.3594 18.7256 16.6103C18.8932 16.8611 18.9827 17.156 18.9827 17.4577C18.9823 17.8621 18.8214 18.2499 18.5354 18.5358C18.2495 18.8218 17.8618 18.9827 17.4573 18.9831L17.4573 18.9831Z" fill="#171723"/>
</g>
</g>
<defs>
<clipPath id="clip0_10314_146598">
<rect width="20" height="20" fill="white"/>
</clipPath>
<clipPath id="clip1_10314_146598">
<rect width="20" height="20" fill="white"/>
</clipPath>
</defs>
</svg>
