<svg width="20" height="20" viewBox="0 0 20 20" fill="none" xmlns="http://www.w3.org/2000/svg">
<path fill-rule="evenodd" clip-rule="evenodd" d="M12.2908 2.46784C12.2741 2.13761 12.001 1.875 11.6666 1.875C11.8324 1.875 11.9914 1.94085 12.1086 2.05806C12.2144 2.16406 12.2827 2.30817 12.2908 2.46784Z" fill="#171723"/>
<path fill-rule="evenodd" clip-rule="evenodd" d="M11.4688 6.86453C11.7423 7.13802 12.1132 7.29167 12.5 7.29167H15.2083V15.8333C15.2083 16.1096 15.0985 16.3746 14.9032 16.5699C14.7078 16.7653 14.4429 16.875 14.1666 16.875H13.3333C12.9881 16.875 12.7083 17.1548 12.7083 17.5C12.7083 17.8452 12.9881 18.125 13.3333 18.125H14.1666C14.7744 18.125 15.3573 17.8836 15.7871 17.4538C16.2168 17.024 16.4583 16.4411 16.4583 15.8333V6.66667C16.4583 6.50091 16.3924 6.34193 16.2752 6.22472L12.1086 2.05806C11.9914 1.94085 11.8324 1.875 11.6666 1.875H5.83329C5.2255 1.875 4.64261 2.11644 4.21284 2.54621C3.78307 2.97598 3.54163 3.55888 3.54163 4.16667V10C3.54163 10.3452 3.82145 10.625 4.16663 10.625C4.5118 10.625 4.79163 10.3452 4.79163 10V4.16667C4.79163 3.8904 4.90137 3.62545 5.09672 3.4301C5.29207 3.23475 5.55703 3.125 5.83329 3.125H11.0416V5.83333C11.0416 6.22011 11.1953 6.59104 11.4688 6.86453ZM12.2916 5.83333C12.2916 5.88859 12.3136 5.94158 12.3526 5.98065C12.3917 6.01972 12.4447 6.04167 12.5 6.04167H14.3244L12.2916 4.00888V5.83333Z" fill="#171723"/>
<path fill-rule="evenodd" clip-rule="evenodd" d="M1.83325 12.5417C1.83325 12.1965 2.11307 11.9167 2.45825 11.9167H3.70825C4.20553 11.9167 4.68245 12.1142 5.03408 12.4658C5.38571 12.8175 5.58325 13.2944 5.58325 13.7917C5.58325 14.2889 5.38571 14.7659 5.03408 15.1175C4.68245 15.4691 4.20553 15.6667 3.70825 15.6667H3.08325V17.5417C3.08325 17.8868 2.80343 18.1667 2.45825 18.1667C2.11307 18.1667 1.83325 17.8868 1.83325 17.5417V12.5417ZM3.08325 14.4167H3.70825C3.87401 14.4167 4.03298 14.3508 4.15019 14.2336C4.2674 14.1164 4.33325 13.9574 4.33325 13.7917C4.33325 13.6259 4.2674 13.4669 4.15019 13.3497C4.03298 13.2325 3.87401 13.1667 3.70825 13.1667H3.08325V14.4167Z" fill="#171723"/>
<path d="M8.12218 12.3097C7.99399 11.9892 7.63025 11.8333 7.30976 11.9615C6.98927 12.0897 6.83339 12.4535 6.96159 12.7739L8.16692 15.7873V17.5418C8.16692 17.887 8.44674 18.1668 8.79192 18.1668C9.1371 18.1668 9.41692 17.887 9.41692 17.5418V15.7871L10.6222 12.7739C10.7504 12.4535 10.5945 12.0897 10.274 11.9615C9.95351 11.8333 9.58978 11.9892 9.46159 12.3097L8.79188 13.984L8.12218 12.3097Z" fill="#171723"/>
</svg>
