<svg width="20" height="20" viewBox="0 0 20 20" fill="none" xmlns="http://www.w3.org/2000/svg">
<g clip-path="url(#clip0_17694_32953)">
<path d="M18.0471 5.56622H15.6166V2.19467C15.6166 0.98455 14.6459 0 13.4528 0H8.33872C7.14561 0 6.17489 0.98455 6.17489 2.19467V4.78731H1.9529C0.8761 4.78731 0 5.67589 0 6.76803V12.4531C0 13.5452 0.8761 14.4338 1.9529 14.4338H4.52755V17.8053C4.52755 19.0154 5.49827 20 6.69138 20H11.8054C12.9986 20 13.9693 19.0154 13.9693 17.8053V15.2127H18.0471C19.1239 15.2127 20 14.3241 20 13.232V7.54694C20 6.4548 19.1239 5.56622 18.0471 5.56622ZM4.52754 11.7693V13.583H1.95289C1.33852 13.583 0.838825 13.0762 0.838825 12.4531V6.76803C0.838825 6.1449 1.33852 5.63809 1.95289 5.63809H6.17488V8.23073C6.17488 8.73713 6.34486 9.20365 6.62993 9.57545C5.46508 9.60868 4.52754 10.5799 4.52754 11.7693ZM13.1304 14.3619H8.74012C8.50829 14.3619 8.3207 14.5526 8.3207 14.7873C8.3207 15.0224 8.50829 15.2127 8.74012 15.2127H13.1304V17.8053C13.1304 18.5464 12.5361 19.1492 11.8054 19.1492H6.69137C5.96067 19.1492 5.36637 18.5464 5.36637 17.8053V11.7693C5.36637 11.0282 5.96067 10.4254 6.69137 10.4254H11.8054C12.5361 10.4254 13.1304 11.0282 13.1304 11.7693V14.3619ZM11.8054 9.57461H8.33872C7.60802 9.57461 7.01371 8.97183 7.01371 8.23072V5.63808H11.2599C11.4913 5.63808 11.6793 5.44741 11.6793 5.21269C11.6793 4.97757 11.4913 4.7873 11.2599 4.7873H7.01371V2.19466C7.01371 1.45355 7.60802 0.850775 8.33872 0.850775H13.4528C14.1835 0.850775 14.7778 1.45355 14.7778 2.19466V8.23072C14.7778 8.97182 14.1835 9.5746 13.4528 9.5746L11.8054 9.57461ZM19.1612 13.232C19.1612 13.8551 18.6615 14.3619 18.0471 14.3619H13.9693V11.7693C13.9693 11.2629 13.7993 10.7964 13.5146 10.4246C14.6791 10.3913 15.6166 9.42007 15.6166 8.23072V6.41699H18.0471C18.6615 6.41699 19.1612 6.92381 19.1612 7.54693L19.1612 13.232Z" fill="#171723"/>
<path d="M8.85726 3.69309C9.34202 3.69309 9.735 3.29451 9.735 2.80284C9.735 2.31117 9.34202 1.91259 8.85726 1.91259C8.37249 1.91259 7.97952 2.31117 7.97952 2.80284C7.97952 3.29451 8.37249 3.69309 8.85726 3.69309Z" fill="#171723"/>
<path d="M11.3897 18.3682C11.8743 18.3682 12.267 17.9694 12.267 17.478C12.267 16.9861 11.8743 16.5877 11.3897 16.5877C10.9048 16.5877 10.512 16.9861 10.512 17.478C10.512 17.9694 10.9048 18.3682 11.3897 18.3682Z" fill="#171723"/>
</g>
<defs>
<clipPath id="clip0_17694_32953">
<rect width="20" height="20" fill="white"/>
</clipPath>
</defs>
</svg>
