<svg width="20" height="20" viewBox="0 0 20 20" fill="none" xmlns="http://www.w3.org/2000/svg">
<path d="M15.8771 5.84919L14.3798 7.3344C16.8383 9.77309 16.8383 13.697 14.3798 16.099C11.9213 18.5377 7.96547 18.5377 5.54392 16.099C3.0854 13.6603 3.0854 9.73642 5.54392 7.3344L9.44429 3.46551L9.99884 2.91543V0L4.12057 5.83086C0.848697 9.07633 0.848697 14.3204 4.12057 17.5659C7.39244 20.8114 12.6792 20.8114 15.8956 17.5659C19.149 14.3204 19.149 9.113 15.8771 5.84919Z" fill="#EE4C2C"/>
<path d="M12.938 5.50063C13.5403 5.50063 14.0286 5.0163 14.0286 4.41882C14.0286 3.82135 13.5403 3.33699 12.938 3.33699C12.3357 3.33699 11.8474 3.82135 11.8474 4.41882C11.8474 5.0163 12.3357 5.50063 12.938 5.50063Z" fill="#EE4C2C"/>
</svg>
