<svg width="20" height="20" viewBox="0 0 20 20" fill="none" xmlns="http://www.w3.org/2000/svg">
<path d="M19.8511 19.1318L16.5132 15.7944C16.3813 15.6626 16.1978 15.6265 16.0293 15.6689L14.9248 14.5645C16.3848 13.0156 17.2876 10.9351 17.2876 8.64404C17.2876 3.87793 13.4097 0 8.64356 0C3.87793 0 0 3.87793 0 8.64404C0 13.4097 3.87793 17.2876 8.64356 17.2876C10.9356 17.2876 13.0161 16.3848 14.5649 14.9238L15.6694 16.0278C15.6265 16.1963 15.6621 16.3814 15.794 16.5132L19.1318 19.8511C19.231 19.9502 19.3613 20 19.4912 20C19.6216 20 19.7515 19.9502 19.8511 19.8511C20.0493 19.6523 20.0493 19.3306 19.8511 19.1318ZM8.33155 13.7217C7.93848 13.7217 7.61964 13.4028 7.61964 13.0093C7.61964 12.6167 7.93849 12.2978 8.33155 12.2978C8.72413 12.2978 9.04298 12.6167 9.04298 13.0093C9.04298 13.4028 8.72413 13.7217 8.33155 13.7217ZM11.4966 8.11522C10.9614 8.78661 10.1616 9.17186 9.30372 9.17186C9.04737 9.17186 8.83936 9.37938 8.83936 9.63573V10.7407C8.83936 11.022 8.61182 11.2495 8.33057 11.2495C8.04932 11.2495 7.82227 11.022 7.82227 10.7407V9.63573C7.82227 8.81932 8.48633 8.15477 9.30372 8.15477C9.85011 8.15477 10.3594 7.90965 10.7012 7.48143C11.0479 7.04637 11.169 6.4995 11.0415 5.94041C10.896 5.30271 10.3696 4.77635 9.73194 4.63035C9.17383 4.50437 8.62647 4.62351 8.19044 4.97117C7.76271 5.31248 7.5171 5.82224 7.5171 6.36814C7.5171 6.64939 7.29005 6.87644 7.0088 6.87644C6.72755 6.87644 6.5005 6.64939 6.5005 6.36814C6.5005 5.51023 6.88575 4.71091 7.55714 4.17527C8.2295 3.63914 9.10499 3.44578 9.95851 3.63914C10.9839 3.87352 11.7984 4.68797 12.0327 5.71385C12.2276 6.56785 12.0317 7.44383 11.4966 8.11522Z" fill="#171723"/>
</svg>
