<svg width="20" height="20" viewBox="0 0 20 20" fill="none" xmlns="http://www.w3.org/2000/svg">
<g clip-path="url(#clip0_10317_147122)">
<path d="M17.2039 5.59329C18.7484 5.59329 20.0005 4.34119 20.0005 2.79664C20.0005 1.2521 18.7484 0 17.2039 0C15.6593 0 14.4072 1.2521 14.4072 2.79664C14.4072 4.34119 15.6593 5.59329 17.2039 5.59329Z" fill="#171723"/>
<path d="M2.79616 5.59329C4.3407 5.59329 5.5928 4.34119 5.5928 2.79664C5.5928 1.2521 4.3407 0 2.79616 0C1.25161 0 -0.000488281 1.2521 -0.000488281 2.79664C-0.000488281 4.34119 1.25161 5.59329 2.79616 5.59329Z" fill="#171723"/>
<path d="M10.0007 0C9.44762 0 8.90692 0.16402 8.44701 0.47132C7.98711 0.778619 7.62866 1.2154 7.41699 1.72642C7.20531 2.23744 7.14993 2.79975 7.25784 3.34224C7.36575 3.88474 7.6321 4.38305 8.02322 4.77417C8.41434 5.16529 8.91265 5.43164 9.45515 5.53955C9.99764 5.64746 10.56 5.59208 11.071 5.38041C11.582 5.16874 12.0188 4.81028 12.3261 4.35038C12.6334 3.89047 12.7974 3.34977 12.7974 2.79664C12.7966 2.05516 12.5018 1.34426 11.9774 0.819951C11.4531 0.295642 10.7422 0.000753816 10.0007 0V0ZM10.0007 4.57633C9.64876 4.57633 9.30468 4.47195 9.01201 4.2764C8.71934 4.08084 8.49123 3.80289 8.35653 3.4777C8.22183 3.15251 8.18659 2.79467 8.25526 2.44945C8.32393 2.10422 8.49343 1.78711 8.74232 1.53822C8.99121 1.28933 9.30832 1.11983 9.65355 1.05116C9.99877 0.982488 10.3566 1.01773 10.6818 1.15243C11.007 1.28713 11.2849 1.51524 11.4805 1.80791C11.6761 2.10057 11.7804 2.44466 11.7804 2.79664C11.7799 3.26847 11.5922 3.72081 11.2585 4.05444C10.9249 4.38807 10.4726 4.57576 10.0007 4.57633V4.57633Z" fill="#171723"/>
<path d="M17.2039 20.0001C18.7484 20.0001 20.0005 18.748 20.0005 17.2034C20.0005 15.6589 18.7484 14.4068 17.2039 14.4068C15.6593 14.4068 14.4072 15.6589 14.4072 17.2034C14.4072 18.748 15.6593 20.0001 17.2039 20.0001Z" fill="#171723"/>
<path d="M2.79616 20.0001C4.3407 20.0001 5.5928 18.748 5.5928 17.2034C5.5928 15.6589 4.3407 14.4068 2.79616 14.4068C1.25161 14.4068 -0.000488281 15.6589 -0.000488281 17.2034C-0.000488281 18.748 1.25161 20.0001 2.79616 20.0001Z" fill="#171723"/>
<path d="M10.0007 14.4068C9.44762 14.4068 8.90692 14.5708 8.44701 14.8781C7.98711 15.1854 7.62866 15.6222 7.41699 16.1332C7.20531 16.6442 7.14993 17.2065 7.25784 17.749C7.36575 18.2915 7.6321 18.7899 8.02322 19.181C8.41434 19.5721 8.91265 19.8384 9.45515 19.9464C9.99764 20.0543 10.56 19.9989 11.071 19.7872C11.582 19.5755 12.0188 19.2171 12.3261 18.7572C12.6334 18.2973 12.7974 17.7566 12.7974 17.2034C12.7966 16.462 12.5018 15.7511 11.9774 15.2267C11.4531 14.7024 10.7422 14.4076 10.0007 14.4068V14.4068ZM10.0007 18.9831C9.64876 18.9831 9.30468 18.8788 9.01201 18.6832C8.71934 18.4876 8.49123 18.2097 8.35653 17.8845C8.22183 17.5593 8.18659 17.2015 8.25526 16.8562C8.32393 16.511 8.49343 16.1939 8.74232 15.945C8.99121 15.6961 9.30832 15.5266 9.65355 15.458C9.99877 15.3893 10.3566 15.4245 10.6818 15.5592C11.007 15.6939 11.2849 15.922 11.4805 16.2147C11.6761 16.5074 11.7804 16.8515 11.7804 17.2034C11.7799 17.6753 11.5922 18.1276 11.2585 18.4612C10.9249 18.7949 10.4726 18.9826 10.0007 18.9831V18.9831Z" fill="#171723"/>
<path d="M17.2039 12.7968C18.7484 12.7968 20.0005 11.5447 20.0005 10.0002C20.0005 8.45565 18.7484 7.20355 17.2039 7.20355C15.6593 7.20355 14.4072 8.45565 14.4072 10.0002C14.4072 11.5447 15.6593 12.7968 17.2039 12.7968Z" fill="#171723"/>
<path d="M2.79616 7.20355C2.24303 7.20355 1.70233 7.36757 1.24243 7.67487C0.782519 7.98217 0.424066 8.41895 0.212395 8.92997C0.000723471 9.44099 -0.0546594 10.0033 0.0532497 10.5458C0.161159 11.0883 0.427513 11.5866 0.818631 11.9777C1.20975 12.3688 1.70806 12.6352 2.25056 12.7431C2.79306 12.851 3.35537 12.7956 3.86639 12.584C4.37741 12.3723 4.81418 12.0138 5.12148 11.5539C5.42878 11.094 5.5928 10.5533 5.5928 10.0002C5.59205 9.25871 5.29716 8.54781 4.77285 8.0235C4.24854 7.49919 3.53764 7.20431 2.79616 7.20355V7.20355ZM2.79616 11.7799C2.44417 11.7799 2.10009 11.6755 1.80742 11.4799C1.51475 11.2844 1.28664 11.0064 1.15194 10.6813C1.01724 10.3561 0.982001 9.99822 1.05067 9.653C1.11934 9.30777 1.28884 8.99066 1.53773 8.74177C1.78662 8.49288 2.10373 8.32338 2.44896 8.25471C2.79418 8.18604 3.15202 8.22128 3.47721 8.35598C3.80241 8.49068 4.08036 8.71879 4.27591 9.01146C4.47146 9.30412 4.57584 9.64821 4.57584 10.0002C4.57527 10.472 4.38759 10.9244 4.05395 11.258C3.72032 11.5916 3.26798 11.7793 2.79616 11.7799V11.7799Z" fill="#171723"/>
<path d="M10.0007 12.7968C11.5453 12.7968 12.7974 11.5447 12.7974 10.0002C12.7974 8.45565 11.5453 7.20355 10.0007 7.20355C8.4562 7.20355 7.2041 8.45565 7.2041 10.0002C7.2041 11.5447 8.4562 12.7968 10.0007 12.7968Z" fill="#171723"/>
</g>
<defs>
<clipPath id="clip0_10317_147122">
<rect width="20" height="20" fill="white"/>
</clipPath>
</defs>
</svg>
