<svg width="20" height="20" viewBox="0 0 20 20" fill="none" xmlns="http://www.w3.org/2000/svg">
<g clip-path="url(#clip0_5313_35045)">
<path d="M19.851 19.132L16.5132 15.7942C16.3817 15.6627 16.1979 15.6264 16.0296 15.6691L14.9248 14.5643C16.3851 13.0155 17.2878 10.935 17.2878 8.64392C17.2879 3.87805 13.4098 0 8.64392 0C3.87805 0 0 3.87805 0 8.64392C0 13.4098 3.87805 17.2878 8.64392 17.2878C10.9355 17.2878 13.0165 16.3846 14.5653 14.9238L15.6696 16.0281C15.6264 16.1964 15.6622 16.3812 15.7942 16.5132L19.132 19.851C19.2313 19.9504 19.3614 20 19.4915 20C19.6216 20 19.7517 19.9503 19.851 19.851C20.0497 19.6524 20.0497 19.3307 19.851 19.132ZM8.64392 16.2709C4.43816 16.2709 1.01693 12.8497 1.01693 8.64392C1.01693 4.43816 4.43816 1.01693 8.64392 1.01693C12.8497 1.01693 16.2709 4.43816 16.2709 8.64392C16.2709 12.8497 12.8497 16.2709 8.64392 16.2709Z" fill="#171723"/>
<path d="M9.95846 3.63925C9.10538 3.4456 8.22947 3.63925 7.55714 4.17552C6.8858 4.7108 6.50049 5.51025 6.50049 6.36828C6.50049 6.64933 6.7279 6.87675 7.00895 6.87675C7.29 6.87675 7.51742 6.64933 7.51742 6.36828C7.51742 5.82208 7.76272 5.31261 8.19074 4.971C8.62671 4.62341 9.17391 4.50424 9.73203 4.63036C10.3696 4.77635 10.8959 5.30269 11.0419 5.94027C11.169 6.49937 11.0479 7.04658 10.7013 7.48155C10.3597 7.90958 9.85021 8.15487 9.30401 8.15487C8.48669 8.15487 7.82231 8.81925 7.82231 9.63557V10.7409C7.82231 11.0219 8.04972 11.2494 8.33077 11.2494C8.61182 11.2494 8.83924 11.0219 8.83924 10.7409V9.63557C8.83924 9.37936 9.04779 9.1718 9.30401 9.1718C10.162 9.1718 10.9615 8.78648 11.4968 8.11515C12.0321 7.44382 12.2277 6.56791 12.033 5.71384C11.7987 4.68796 10.9843 3.87362 9.95846 3.63925Z" fill="#171723"/>
<path d="M8.33169 12.298C7.93842 12.298 7.61963 12.6168 7.61963 13.0095C7.61963 13.4028 7.93842 13.7216 8.33169 13.7216C8.72445 13.7216 9.04324 13.4028 9.04324 13.0095C9.04324 12.6168 8.72445 12.298 8.33169 12.298Z" fill="#171723"/>
</g>
<defs>
<clipPath id="clip0_5313_35045">
<rect width="20" height="20" fill="white"/>
</clipPath>
</defs>
</svg>
