<svg width="20" height="20" viewBox="0 0 20 20" fill="none" xmlns="http://www.w3.org/2000/svg">
<path d="M10 0C5.19111 0 1.31342 3.73871 1.31342 8.72828C1.31342 13.7318 5.19111 17.4566 10 17.4566C10.82 17.4566 11.6122 17.3454 12.3627 17.1369L13.3078 19.5692C13.4051 19.8332 13.5997 20 13.9472 20H15.4482C15.8096 20 16.0737 19.7637 15.9069 19.3051L14.6838 16.1223C17.0883 14.6074 18.6866 11.9249 18.6866 8.71439C18.6866 3.7387 14.8089 0 10 0ZM13.7804 13.8013L12.6824 10.952C12.5851 10.7158 12.3905 10.4934 11.9736 10.4934H10.542C10.1807 10.4934 9.90271 10.7297 10.0695 11.1883L11.5149 14.927C11.0424 15.0521 10.5281 15.1077 10 15.1077C6.48366 15.1077 3.98193 12.3419 3.98193 8.72828C3.98193 5.11467 6.48366 2.34885 10 2.34885C13.5163 2.34885 16.0181 5.11467 16.0181 8.72828C16.0181 10.8409 15.1703 12.6477 13.7804 13.8013Z" fill="#3253DC"/>
</svg>
