<svg width="20" height="20" viewBox="0 0 20 20" fill="none" xmlns="http://www.w3.org/2000/svg">
<g clip-path="url(#clip0_10314_144683)">
<g clip-path="url(#clip1_10314_144683)">
<path d="M0.50801 20.0001C0.441225 20 0.375112 19.9868 0.313347 19.9614C0.220467 19.9229 0.141085 19.8577 0.085228 19.7741C0.0293707 19.6905 -0.000457101 19.5922 -0.000488281 19.4916V3.60306C0.000754893 2.64783 0.380769 1.73207 1.05622 1.05661C1.73167 0.381156 2.64742 0.00113189 3.60266 -0.00012207H16.3966C17.3518 0.00111307 18.2676 0.381133 18.9431 1.0566C19.6186 1.73207 19.9986 2.64784 19.9998 3.6031V12.6518C19.9986 13.607 19.6186 14.5228 18.9431 15.1983C18.2676 15.8737 17.3518 16.2538 16.3966 16.255H5.52745C4.84027 16.2572 4.18176 16.5306 3.69506 17.0157L0.868525 19.8512C0.772799 19.9466 0.643159 20.0001 0.50801 20.0001V20.0001ZM3.60266 1.01687C2.91697 1.01759 2.25957 1.2903 1.77471 1.77515C1.28986 2.26001 1.01715 2.91741 1.01644 3.6031V18.2612L2.97495 16.2967C3.6533 15.6217 4.5704 15.2413 5.52737 15.238H16.3965C17.0822 15.2373 17.7396 14.9646 18.2245 14.4797C18.7093 13.9949 18.982 13.3375 18.9827 12.6518V3.60306C18.982 2.91738 18.7093 2.25997 18.2245 1.77512C17.7396 1.29026 17.0822 1.01756 16.3965 1.01684L3.60266 1.01687Z" fill="#171723"/>
<path d="M9.48227 10.7538C9.41548 10.7539 9.34934 10.7407 9.28763 10.7152C9.22592 10.6896 9.16985 10.6522 9.12262 10.605C9.0754 10.5577 9.03794 10.5017 9.0124 10.44C8.98686 10.3782 8.97374 10.3121 8.97377 10.2453V9.14092C8.97428 8.74834 9.13046 8.372 9.40805 8.09441C9.68565 7.81683 10.062 7.66066 10.4546 7.66017C10.8079 7.66017 11.1534 7.55538 11.4472 7.35905C11.741 7.16273 11.97 6.88369 12.1052 6.55722C12.2404 6.23075 12.2758 5.87152 12.2069 5.52494C12.138 5.17836 11.9678 4.86001 11.7179 4.61014C11.4681 4.36027 11.1497 4.19011 10.8031 4.12116C10.4565 4.05222 10.0973 4.0876 9.77084 4.22283C9.44437 4.35805 9.16533 4.58705 8.969 4.88086C8.77268 5.17467 8.66789 5.5201 8.66788 5.87347C8.66788 6.00833 8.61431 6.13767 8.51895 6.23303C8.42358 6.3284 8.29425 6.38197 8.15938 6.38197C8.02452 6.38197 7.89518 6.3284 7.79982 6.23303C7.70446 6.13767 7.65089 6.00833 7.65089 5.87347C7.64995 5.45186 7.74455 5.03552 7.92757 4.6557C8.11059 4.27589 8.37728 3.94247 8.70761 3.68048C9.04157 3.41583 9.43105 3.23013 9.84691 3.13727C10.2628 3.0444 10.6943 3.04678 11.1091 3.14422C11.6143 3.26145 12.0765 3.518 12.4432 3.88473C12.81 4.25146 13.0665 4.71368 13.1837 5.21889C13.2813 5.6337 13.2838 6.06522 13.1909 6.48111C13.098 6.89699 12.9122 7.28647 12.6474 7.62034C12.3855 7.95067 12.052 8.21735 11.6723 8.40037C11.2925 8.58339 10.8761 8.67799 10.4545 8.67707C10.3936 8.67707 10.3333 8.68906 10.277 8.71236C10.2208 8.73566 10.1696 8.76982 10.1266 8.81289C10.0835 8.85595 10.0493 8.90708 10.026 8.96334C10.0027 9.01961 9.99073 9.07992 9.99073 9.14083V10.2452C9.99078 10.312 9.97766 10.3782 9.95213 10.4399C9.9266 10.5016 9.88915 10.5577 9.84193 10.6049C9.7947 10.6522 9.73863 10.6896 9.67692 10.7152C9.61521 10.7407 9.54906 10.7538 9.48227 10.7538V10.7538Z" fill="#171723"/>
<path d="M9.48241 13.2269C9.87558 13.2269 10.1943 12.9082 10.1943 12.515C10.1943 12.1218 9.87558 11.8031 9.48241 11.8031C9.08923 11.8031 8.77051 12.1218 8.77051 12.515C8.77051 12.9082 9.08923 13.2269 9.48241 13.2269Z" fill="#171723"/>
</g>
</g>
<defs>
<clipPath id="clip0_10314_144683">
<rect width="20" height="20" fill="white"/>
</clipPath>
<clipPath id="clip1_10314_144683">
<rect width="20" height="20" fill="white"/>
</clipPath>
</defs>
</svg>
