<svg width="20" height="20" viewBox="0 0 20 20" fill="none" xmlns="http://www.w3.org/2000/svg">
<path fill-rule="evenodd" clip-rule="evenodd" d="M9.26571 8.15047C10.1999 7.21628 11.467 6.69145 12.7881 6.69145C14.1093 6.69145 15.3763 7.21628 16.3105 8.15047C17.2447 9.08467 17.7695 10.3517 17.7695 11.6729C17.7695 12.994 17.2447 14.2611 16.3105 15.1953C15.3763 16.1294 14.1093 16.6543 12.7881 16.6543C11.467 16.6543 10.1999 16.1294 9.26571 15.1953C8.33152 14.2611 7.80669 12.994 7.80669 11.6729C7.80669 10.3517 8.33152 9.08467 9.26571 8.15047ZM12.7881 7.73234C11.743 7.73234 10.7407 8.1475 10.0017 8.88649C9.26274 9.62548 8.84758 10.6278 8.84758 11.6729C8.84758 12.718 9.26274 13.7202 10.0017 14.4592C10.7407 15.1982 11.743 15.6134 12.7881 15.6134C13.8332 15.6134 14.8355 15.1982 15.5745 14.4592C16.3135 13.7202 16.7286 12.718 16.7286 11.6729C16.7286 10.6278 16.3135 9.62548 15.5745 8.88649C14.8355 8.1475 13.8332 7.73234 12.7881 7.73234Z" fill="#171723"/>
<path fill-rule="evenodd" clip-rule="evenodd" d="M16.3234 15.2082C16.5267 15.0049 16.8562 15.0049 17.0595 15.2082L19.8476 17.9963C20.0508 18.1995 20.0508 18.5291 19.8476 18.7323C19.6443 18.9356 19.3148 18.9356 19.1115 18.7323L16.3234 15.9442C16.1202 15.741 16.1202 15.4114 16.3234 15.2082Z" fill="#171723"/>
<path fill-rule="evenodd" clip-rule="evenodd" d="M0 1.63569C0 1.34825 0.233012 1.11524 0.520446 1.11524H18.3643C18.6517 1.11524 18.8848 1.34825 18.8848 1.63569C18.8848 1.92312 18.6517 2.15613 18.3643 2.15613H0.520446C0.233012 2.15613 0 1.92312 0 1.63569Z" fill="#171723"/>
<path fill-rule="evenodd" clip-rule="evenodd" d="M0 8.32714C0 8.0397 0.233012 7.80669 0.520446 7.80669H4.98141C5.26885 7.80669 5.50186 8.0397 5.50186 8.32714C5.50186 8.61457 5.26885 8.84758 4.98141 8.84758H0.520446C0.233012 8.84758 0 8.61457 0 8.32714Z" fill="#171723"/>
<path fill-rule="evenodd" clip-rule="evenodd" d="M0 15.0186C0 14.7312 0.233012 14.4981 0.520446 14.4981H4.98141C5.26885 14.4981 5.50186 14.7312 5.50186 15.0186C5.50186 15.306 5.26885 15.539 4.98141 15.539H0.520446C0.233012 15.539 0 15.306 0 15.0186Z" fill="#171723"/>
</svg>
