<svg width="20" height="20" viewBox="0 0 20 20" fill="none" xmlns="http://www.w3.org/2000/svg">
<g clip-path="url(#clip0_10317_147048)">
<g clip-path="url(#clip1_10317_147048)">
<path d="M18.4031 10H8.71373C8.38187 10.0002 8.05826 10.1034 7.78757 10.2954C7.51689 10.4874 7.31248 10.7587 7.20255 11.0718C7.13759 11.243 7.10485 11.4247 7.10599 11.6077V16.2058C7.10571 16.417 7.14712 16.6262 7.22782 16.8214C7.30852 17.0166 7.42693 17.1939 7.57628 17.3433C7.72562 17.4926 7.90297 17.611 8.09815 17.6917C8.29333 17.7724 8.50252 17.8138 8.71373 17.8136H18.4031C18.828 17.8119 19.2348 17.6417 19.5343 17.3402C19.8337 17.0387 20.0013 16.6307 20.0001 16.2058V11.6077C20.0013 11.1828 19.8337 10.7748 19.5343 10.4734C19.2348 10.1719 18.828 10.0017 18.4031 10Z" fill="#171723"/>
<path d="M12.8941 5.01611V3.78347C12.8924 3.35858 12.7221 2.95172 12.4207 2.65228C12.1192 2.35284 11.7112 2.1853 11.2863 2.18647H1.59701C1.17378 2.18751 0.768182 2.3561 0.468911 2.65537C0.169641 2.95464 0.00105019 3.36024 6.29832e-06 3.78347V8.3923C-0.00118388 8.81721 0.166347 9.22521 0.465793 9.52667C0.765239 9.82813 1.17211 9.99839 1.59701 10H2.47585V7.69565C2.47611 6.98507 2.75851 6.30367 3.26097 5.80121C3.76343 5.29875 4.44483 5.01636 5.15542 5.01611H12.8941Z" fill="#171723"/>
<path d="M12.7972 8.92819H16.4522V7.69562C16.4524 7.48441 16.4111 7.27522 16.3304 7.08004C16.2497 6.88485 16.1312 6.70751 15.9819 6.55816C15.8325 6.40881 15.6552 6.2904 15.46 6.2097C15.2648 6.12901 15.0556 6.08761 14.8444 6.08789H5.15511C4.9439 6.08761 4.73471 6.12901 4.53952 6.2097C4.34433 6.2904 4.16699 6.40881 4.01764 6.55816C3.86829 6.70751 3.74988 6.88485 3.66918 7.08004C3.58848 7.27522 3.54709 7.48441 3.54736 7.69562V12.3045C3.54709 12.5157 3.58849 12.7249 3.66919 12.92C3.74989 13.1152 3.8683 13.2926 4.01765 13.4419C4.167 13.5913 4.34434 13.7097 4.53953 13.7904C4.73471 13.8711 4.9439 13.9125 5.15511 13.9122H6.03394V11.6077C6.03532 11.4278 6.05328 11.2484 6.08759 11.0718C6.168 10.6836 6.33263 10.3177 6.56985 10C6.81891 9.66665 7.14245 9.39613 7.51464 9.21004C7.88684 9.02394 8.29738 8.92743 8.7135 8.92819H12.7972Z" fill="#171723"/>
</g>
</g>
<defs>
<clipPath id="clip0_10317_147048">
<rect width="20" height="20" fill="white"/>
</clipPath>
<clipPath id="clip1_10317_147048">
<rect width="20" height="20" fill="white"/>
</clipPath>
</defs>
</svg>
