<svg width="20" height="20" viewBox="0 0 20 20" fill="none" xmlns="http://www.w3.org/2000/svg">
<path fill-rule="evenodd" clip-rule="evenodd" d="M11.7736 5.02832L10.8871 5.20182C10.9938 5.74711 11.0085 6.30747 10.931 6.85787L11.8254 6.98393C11.917 6.33403 11.8996 5.67242 11.7736 5.02832ZM10.3605 2.21647C10.1309 1.96942 9.93643 1.78526 9.72402 1.61154L9.15214 2.31076C9.33168 2.4576 9.49646 2.61361 9.6953 2.82751C9.91392 3.06844 10.1094 3.33196 10.2767 3.61105L11.0514 3.14664C10.8537 2.81671 10.6228 2.5054 10.3605 2.21647ZM6.08104 0.290234L6.07025 1.19347C6.62618 1.20011 7.1777 1.29938 7.70045 1.48774L8.00667 0.637931C7.38887 0.415317 6.73749 0.298074 6.08104 0.290234ZM2.38248 1.5454L2.94153 2.25493C3.38181 1.90802 3.87216 1.64166 4.39476 1.46219L4.10137 0.607865C3.48313 0.820177 2.90289 1.13536 2.38248 1.5454ZM0.272114 4.92159L1.15521 5.11158C1.27198 4.56884 1.47864 4.04917 1.76883 3.57394L0.997891 3.10319C0.65456 3.66545 0.41013 4.28008 0.272114 4.92159ZM0.753973 8.77798L1.5625 8.3752C1.31433 7.87702 1.15299 7.34149 1.08316 6.79066L0.187027 6.90427C0.269557 7.55527 0.460359 8.18859 0.753973 8.77798ZM3.66556 11.5451L4.02604 10.7169C3.51959 10.4965 3.05207 10.192 2.64058 9.81103L2.02692 10.4739C2.51323 10.9241 3.06642 11.2844 3.66556 11.5451ZM7.59904 11.8153L7.35554 10.9454C6.82046 11.0952 6.26317 11.154 5.70824 11.1202L5.65323 12.0218C6.3085 12.0618 6.96669 11.9923 7.59904 11.8153Z" fill="#171723"/>
<path fill-rule="evenodd" clip-rule="evenodd" d="M7.40836 5.40143L5.50443 7.30537C5.14842 7.66138 5.14046 8.23064 5.50002 8.59019L16.3537 19.4438C16.7072 19.7974 17.277 19.8009 17.6385 19.4394L19.5424 17.5355C19.8984 17.1795 19.9064 16.6102 19.5468 16.2507L8.69319 5.39702C8.33961 5.04344 7.76984 5.03996 7.40836 5.40143ZM6.13708 7.94999L8.05298 6.03408L10.6075 8.58862L8.69162 10.5045L6.13708 7.94999ZM9.33025 11.1432L11.2462 9.22725L18.9098 16.8909L16.9939 18.8068L9.33025 11.1432Z" fill="#171723"/>
</svg>
