<svg width="20" height="20" viewBox="0 0 20 20" fill="none" xmlns="http://www.w3.org/2000/svg">
<path d="M10 13.75C11.0406 13.75 11.9257 13.3852 12.6555 12.6554C13.3852 11.9257 13.75 11.0406 13.75 10C13.75 8.95947 13.3852 8.07433 12.6555 7.34461C11.9257 6.61489 11.0406 6.25003 10 6.25003C8.95949 6.25003 8.07435 6.61489 7.34462 7.34461C6.6149 8.07433 6.25004 8.95947 6.25004 10C6.25004 11.0406 6.6149 11.9257 7.34462 12.6554C8.07435 13.3852 8.95949 13.75 10 13.75ZM10.0015 17.9167C8.9065 17.9167 7.87726 17.7089 6.91379 17.2934C5.95032 16.8778 5.11226 16.3138 4.39962 15.6015C3.68699 14.8891 3.12275 14.0514 2.70692 13.0884C2.29122 12.1253 2.08337 11.0963 2.08337 10.0015C2.08337 8.90648 2.29115 7.87725 2.70671 6.91378C3.12226 5.9503 3.68622 5.11225 4.39858 4.39961C5.11094 3.68697 5.94865 3.12273 6.91171 2.7069C7.87476 2.29121 8.90372 2.08336 9.99858 2.08336C11.0936 2.08336 12.1228 2.29114 13.0863 2.70669C14.0498 3.12225 14.8878 3.68621 15.6005 4.39857C16.3131 5.11093 16.8773 5.94864 17.2932 6.91169C17.7089 7.87475 17.9167 8.90371 17.9167 9.99857C17.9167 11.0936 17.7089 12.1228 17.2934 13.0863C16.8778 14.0497 16.3139 14.8878 15.6015 15.6004C14.8891 16.3131 14.0514 16.8773 13.0884 17.2932C12.1253 17.7088 11.0964 17.9167 10.0015 17.9167ZM10 16.6667C11.8612 16.6667 13.4375 16.0209 14.7292 14.7292C16.0209 13.4375 16.6667 11.8611 16.6667 10C16.6667 8.13891 16.0209 6.56253 14.7292 5.27086C13.4375 3.97919 11.8612 3.33336 10 3.33336C8.13893 3.33336 6.56254 3.97919 5.27087 5.27086C3.97921 6.56253 3.33337 8.13891 3.33337 10C3.33337 11.8611 3.97921 13.4375 5.27087 14.7292C6.56254 16.0209 8.13893 16.6667 10 16.6667Z" fill="#171723"/>
</svg>
