<svg width="20" height="20" viewBox="0 0 20 20" fill="none" xmlns="http://www.w3.org/2000/svg">
<path d="M13.7894 4.46635e-05H7.06385C6.98933 -0.000887265 6.91537 0.0127731 6.8462 0.0402403C6.77703 0.0677076 6.71403 0.10844 6.66081 0.160096C6.6076 0.211752 6.56522 0.273314 6.53611 0.341241C6.50701 0.409168 6.49175 0.482121 6.49121 0.555907V1.28962C6.49174 1.36341 6.507 1.43637 6.5361 1.50429C6.56521 1.57222 6.60759 1.63379 6.6608 1.68544C6.71402 1.7371 6.77702 1.77783 6.84619 1.8053C6.91536 1.83276 6.98933 1.84642 7.06385 1.84549H13.7894C13.8634 1.84621 13.9367 1.83233 14.0052 1.80465C14.0736 1.77698 14.1358 1.73606 14.1881 1.6843C14.2403 1.63254 14.2817 1.57097 14.3096 1.5032C14.3376 1.43543 14.3516 1.36282 14.3508 1.28962V0.555907C14.3516 0.482709 14.3376 0.410103 14.3096 0.342337C14.2816 0.274571 14.2403 0.213007 14.188 0.161246C14.1358 0.109485 14.0736 0.0685677 14.0051 0.0408883C13.9367 0.013209 13.8634 -0.000676393 13.7894 4.46635e-05V4.46635e-05ZM13.7894 4.46635e-05H7.06385C6.98933 -0.000887265 6.91537 0.0127731 6.8462 0.0402403C6.77703 0.0677076 6.71403 0.10844 6.66081 0.160096C6.6076 0.211752 6.56522 0.273314 6.53611 0.341241C6.50701 0.409168 6.49175 0.482121 6.49121 0.555907V1.28962C6.49174 1.36341 6.507 1.43637 6.5361 1.50429C6.56521 1.57222 6.60759 1.63379 6.6608 1.68544C6.71402 1.7371 6.77702 1.77783 6.84619 1.8053C6.91536 1.83276 6.98933 1.84642 7.06385 1.84549H13.7894C13.8634 1.84621 13.9367 1.83233 14.0052 1.80465C14.0736 1.77698 14.1358 1.73606 14.1881 1.6843C14.2403 1.63254 14.2817 1.57097 14.3096 1.5032C14.3376 1.43543 14.3516 1.36282 14.3508 1.28962V0.555907C14.3516 0.482709 14.3376 0.410103 14.3096 0.342337C14.2816 0.274571 14.2403 0.213007 14.188 0.161246C14.1358 0.109485 14.0736 0.0685677 14.0051 0.0408883C13.9367 0.013209 13.8634 -0.000676393 13.7894 4.46635e-05V4.46635e-05ZM13.7894 4.46635e-05H7.06385C6.98933 -0.000887265 6.91537 0.0127731 6.8462 0.0402403C6.77703 0.0677076 6.71403 0.10844 6.66081 0.160096C6.6076 0.211752 6.56522 0.273314 6.53611 0.341241C6.50701 0.409168 6.49175 0.482121 6.49121 0.555907V1.28962C6.49174 1.36341 6.507 1.43637 6.5361 1.50429C6.56521 1.57222 6.60759 1.63379 6.6608 1.68544C6.71402 1.7371 6.77702 1.77783 6.84619 1.8053C6.91536 1.83276 6.98933 1.84642 7.06385 1.84549H13.7894C13.8634 1.84621 13.9367 1.83233 14.0052 1.80465C14.0736 1.77698 14.1358 1.73606 14.1881 1.6843C14.2403 1.63254 14.2817 1.57097 14.3096 1.5032C14.3376 1.43543 14.3516 1.36282 14.3508 1.28962V0.555907C14.3516 0.482709 14.3376 0.410103 14.3096 0.342337C14.2816 0.274571 14.2403 0.213007 14.188 0.161246C14.1358 0.109485 14.0736 0.0685677 14.0051 0.0408883C13.9367 0.013209 13.8634 -0.000676393 13.7894 4.46635e-05V4.46635e-05ZM13.7894 4.46635e-05H7.06385C6.98933 -0.000887265 6.91537 0.0127731 6.8462 0.0402403C6.77703 0.0677076 6.71403 0.10844 6.66081 0.160096C6.6076 0.211752 6.56522 0.273314 6.53611 0.341241C6.50701 0.409168 6.49175 0.482121 6.49121 0.555907V1.28962C6.49174 1.36341 6.507 1.43637 6.5361 1.50429C6.56521 1.57222 6.60759 1.63379 6.6608 1.68544C6.71402 1.7371 6.77702 1.77783 6.84619 1.8053C6.91536 1.83276 6.98933 1.84642 7.06385 1.84549H13.7894C13.8634 1.84621 13.9367 1.83233 14.0052 1.80465C14.0736 1.77698 14.1358 1.73606 14.1881 1.6843C14.2403 1.63254 14.2817 1.57097 14.3096 1.5032C14.3376 1.43543 14.3516 1.36282 14.3508 1.28962V0.555907C14.3516 0.482709 14.3376 0.410103 14.3096 0.342337C14.2816 0.274571 14.2403 0.213007 14.188 0.161246C14.1358 0.109485 14.0736 0.0685677 14.0051 0.0408883C13.9367 0.013209 13.8634 -0.000676393 13.7894 4.46635e-05V4.46635e-05ZM13.7894 4.46635e-05H7.06385C6.98933 -0.000887265 6.91537 0.0127731 6.8462 0.0402403C6.77703 0.0677076 6.71403 0.10844 6.66081 0.160096C6.6076 0.211752 6.56522 0.273314 6.53611 0.341241C6.50701 0.409168 6.49175 0.482121 6.49121 0.555907V1.28962C6.49174 1.36341 6.507 1.43637 6.5361 1.50429C6.56521 1.57222 6.60759 1.63379 6.6608 1.68544C6.71402 1.7371 6.77702 1.77783 6.84619 1.8053C6.91536 1.83276 6.98933 1.84642 7.06385 1.84549H13.7894C13.8634 1.84621 13.9367 1.83233 14.0052 1.80465C14.0736 1.77698 14.1358 1.73606 14.1881 1.6843C14.2403 1.63254 14.2817 1.57097 14.3096 1.5032C14.3376 1.43543 14.3516 1.36282 14.3508 1.28962V0.555907C14.3516 0.482709 14.3376 0.410103 14.3096 0.342337C14.2816 0.274571 14.2403 0.213007 14.188 0.161246C14.1358 0.109485 14.0736 0.0685677 14.0051 0.0408883C13.9367 0.013209 13.8634 -0.000676393 13.7894 4.46635e-05V4.46635e-05ZM13.7894 4.46635e-05H7.06385C6.98933 -0.000887265 6.91537 0.0127731 6.8462 0.0402403C6.77703 0.0677076 6.71403 0.10844 6.66081 0.160096C6.6076 0.211752 6.56522 0.273314 6.53611 0.341241C6.50701 0.409168 6.49175 0.482121 6.49121 0.555907V1.28962C6.49174 1.36341 6.507 1.43637 6.5361 1.50429C6.56521 1.57222 6.60759 1.63379 6.6608 1.68544C6.71402 1.7371 6.77702 1.77783 6.84619 1.8053C6.91536 1.83276 6.98933 1.84642 7.06385 1.84549H13.7894C13.8634 1.84621 13.9367 1.83233 14.0052 1.80465C14.0736 1.77698 14.1358 1.73606 14.1881 1.6843C14.2403 1.63254 14.2817 1.57097 14.3096 1.5032C14.3376 1.43543 14.3516 1.36282 14.3508 1.28962V0.555907C14.3516 0.482709 14.3376 0.410103 14.3096 0.342337C14.2816 0.274571 14.2403 0.213007 14.188 0.161246C14.1358 0.109485 14.0736 0.0685677 14.0051 0.0408883C13.9367 0.013209 13.8634 -0.000676393 13.7894 4.46635e-05V4.46635e-05ZM13.7894 4.46635e-05H7.06385C6.98933 -0.000887265 6.91537 0.0127731 6.8462 0.0402403C6.77703 0.0677076 6.71403 0.10844 6.66081 0.160096C6.6076 0.211752 6.56522 0.273314 6.53611 0.341241C6.50701 0.409168 6.49175 0.482121 6.49121 0.555907V1.28962C6.49174 1.36341 6.507 1.43637 6.5361 1.50429C6.56521 1.57222 6.60759 1.63379 6.6608 1.68544C6.71402 1.7371 6.77702 1.77783 6.84619 1.8053C6.91536 1.83276 6.98933 1.84642 7.06385 1.84549H13.7894C13.8634 1.84621 13.9367 1.83233 14.0052 1.80465C14.0736 1.77698 14.1358 1.73606 14.1881 1.6843C14.2403 1.63254 14.2817 1.57097 14.3096 1.5032C14.3376 1.43543 14.3516 1.36282 14.3508 1.28962V0.555907C14.3516 0.482709 14.3376 0.410103 14.3096 0.342337C14.2816 0.274571 14.2403 0.213007 14.188 0.161246C14.1358 0.109485 14.0736 0.0685677 14.0051 0.0408883C13.9367 0.013209 13.8634 -0.000676393 13.7894 4.46635e-05V4.46635e-05ZM13.7894 4.46635e-05H7.06385C6.98933 -0.000887265 6.91537 0.0127731 6.8462 0.0402403C6.77703 0.0677076 6.71403 0.10844 6.66081 0.160096C6.6076 0.211752 6.56522 0.273314 6.53611 0.341241C6.50701 0.409168 6.49175 0.482121 6.49121 0.555907V1.28962C6.49174 1.36341 6.507 1.43637 6.5361 1.50429C6.56521 1.57222 6.60759 1.63379 6.6608 1.68544C6.71402 1.7371 6.77702 1.77783 6.84619 1.8053C6.91536 1.83276 6.98933 1.84642 7.06385 1.84549H13.7894C13.8634 1.84621 13.9367 1.83233 14.0052 1.80465C14.0736 1.77698 14.1358 1.73606 14.1881 1.6843C14.2403 1.63254 14.2817 1.57097 14.3096 1.5032C14.3376 1.43543 14.3516 1.36282 14.3508 1.28962V0.555907C14.3516 0.482709 14.3376 0.410103 14.3096 0.342337C14.2816 0.274571 14.2403 0.213007 14.188 0.161246C14.1358 0.109485 14.0736 0.0685677 14.0051 0.0408883C13.9367 0.013209 13.8634 -0.000676393 13.7894 4.46635e-05V4.46635e-05ZM13.7894 4.46635e-05H7.06385C6.98933 -0.000887265 6.91537 0.0127731 6.8462 0.0402403C6.77703 0.0677076 6.71403 0.10844 6.66081 0.160096C6.6076 0.211752 6.56522 0.273314 6.53611 0.341241C6.50701 0.409168 6.49175 0.482121 6.49121 0.555907V1.28962C6.49174 1.36341 6.507 1.43637 6.5361 1.50429C6.56521 1.57222 6.60759 1.63379 6.6608 1.68544C6.71402 1.7371 6.77702 1.77783 6.84619 1.8053C6.91536 1.83276 6.98933 1.84642 7.06385 1.84549H13.7894C13.8634 1.84621 13.9367 1.83233 14.0052 1.80465C14.0736 1.77698 14.1358 1.73606 14.1881 1.6843C14.2403 1.63254 14.2817 1.57097 14.3096 1.5032C14.3376 1.43543 14.3516 1.36282 14.3508 1.28962V0.555907C14.3516 0.482709 14.3376 0.410103 14.3096 0.342337C14.2816 0.274571 14.2403 0.213007 14.188 0.161246C14.1358 0.109485 14.0736 0.0685677 14.0051 0.0408883C13.9367 0.013209 13.8634 -0.000676393 13.7894 4.46635e-05V4.46635e-05ZM13.7894 4.46635e-05H7.06385C6.98933 -0.000887265 6.91537 0.0127731 6.8462 0.0402403C6.77703 0.0677076 6.71403 0.10844 6.66081 0.160096C6.6076 0.211752 6.56522 0.273314 6.53611 0.341241C6.50701 0.409168 6.49175 0.482121 6.49121 0.555907V1.28962C6.49174 1.36341 6.507 1.43637 6.5361 1.50429C6.56521 1.57222 6.60759 1.63379 6.6608 1.68544C6.71402 1.7371 6.77702 1.77783 6.84619 1.8053C6.91536 1.83276 6.98933 1.84642 7.06385 1.84549H13.7894C13.8634 1.84621 13.9367 1.83233 14.0052 1.80465C14.0736 1.77698 14.1358 1.73606 14.1881 1.6843C14.2403 1.63254 14.2817 1.57097 14.3096 1.5032C14.3376 1.43543 14.3516 1.36282 14.3508 1.28962V0.555907C14.3516 0.482709 14.3376 0.410103 14.3096 0.342337C14.2816 0.274571 14.2403 0.213007 14.188 0.161246C14.1358 0.109485 14.0736 0.0685677 14.0051 0.0408883C13.9367 0.013209 13.8634 -0.000676393 13.7894 4.46635e-05V4.46635e-05ZM13.7894 4.46635e-05H7.06385C6.98933 -0.000887265 6.91537 0.0127731 6.8462 0.0402403C6.77703 0.0677076 6.71403 0.10844 6.66081 0.160096C6.6076 0.211752 6.56522 0.273314 6.53611 0.341241C6.50701 0.409168 6.49175 0.482121 6.49121 0.555907V1.28962C6.49174 1.36341 6.507 1.43637 6.5361 1.50429C6.56521 1.57222 6.60759 1.63379 6.6608 1.68544C6.71402 1.7371 6.77702 1.77783 6.84619 1.8053C6.91536 1.83276 6.98933 1.84642 7.06385 1.84549H13.7894C13.8634 1.84621 13.9367 1.83233 14.0052 1.80465C14.0736 1.77698 14.1358 1.73606 14.1881 1.6843C14.2403 1.63254 14.2817 1.57097 14.3096 1.5032C14.3376 1.43543 14.3516 1.36282 14.3508 1.28962V0.555907C14.3516 0.482709 14.3376 0.410103 14.3096 0.342337C14.2816 0.274571 14.2403 0.213007 14.188 0.161246C14.1358 0.109485 14.0736 0.0685677 14.0051 0.0408883C13.9367 0.013209 13.8634 -0.000676393 13.7894 4.46635e-05V4.46635e-05ZM13.7894 4.46635e-05H7.06385C6.98933 -0.000887265 6.91537 0.0127731 6.8462 0.0402403C6.77703 0.0677076 6.71403 0.10844 6.66081 0.160096C6.6076 0.211752 6.56522 0.273314 6.53611 0.341241C6.50701 0.409168 6.49175 0.482121 6.49121 0.555907V1.28962C6.49174 1.36341 6.507 1.43637 6.5361 1.50429C6.56521 1.57222 6.60759 1.63379 6.6608 1.68544C6.71402 1.7371 6.77702 1.77783 6.84619 1.8053C6.91536 1.83276 6.98933 1.84642 7.06385 1.84549H13.7894C13.8634 1.84621 13.9367 1.83233 14.0052 1.80465C14.0736 1.77698 14.1358 1.73606 14.1881 1.6843C14.2403 1.63254 14.2817 1.57097 14.3096 1.5032C14.3376 1.43543 14.3516 1.36282 14.3508 1.28962V0.555907C14.3516 0.482709 14.3376 0.410103 14.3096 0.342337C14.2816 0.274571 14.2403 0.213007 14.188 0.161246C14.1358 0.109485 14.0736 0.0685677 14.0051 0.0408883C13.9367 0.013209 13.8634 -0.000676393 13.7894 4.46635e-05V4.46635e-05Z" fill="#171723"/>
<path d="M15.4737 1.84546H15.4512C15.4079 2.25173 15.214 2.6277 14.9071 2.90076C14.6003 3.17382 14.2021 3.32461 13.7895 3.32401H7.06386C6.65002 3.32492 6.25041 3.17452 5.94167 2.90166C5.63293 2.6288 5.4368 2.25269 5.39088 1.84546H5.36841C4.47527 1.84618 3.61892 2.19779 2.98738 2.8231C2.35584 3.44841 2.00072 4.29631 2 5.18063V16.6648C2.00073 17.5491 2.35584 18.397 2.98738 19.0223C3.61893 19.6476 4.47527 19.9992 5.36841 19.9999H15.4737C15.9162 20.0005 16.3545 19.9147 16.7634 19.7473C17.1724 19.5799 17.5439 19.3342 17.8568 19.0244C18.1698 18.7146 18.4178 18.3467 18.5869 17.9418C18.756 17.5369 18.8427 17.1029 18.8421 16.6648V5.18064C18.8427 4.7425 18.756 4.30854 18.5869 3.90363C18.4178 3.49872 18.1698 3.13081 17.8569 2.821C17.5439 2.51118 17.1724 2.26553 16.7634 2.09813C16.3545 1.93073 15.9162 1.84487 15.4737 1.84546V1.84546ZM8.38884 6.62589H9.85965V5.16952C9.86007 5.02222 9.91935 4.88108 10.0245 4.77692C10.1297 4.67277 10.2723 4.61407 10.421 4.61365C10.495 4.61293 10.5683 4.62681 10.6368 4.65449C10.7052 4.68216 10.7674 4.72308 10.8197 4.77484C10.8719 4.82661 10.9133 4.88817 10.9412 4.95594C10.9692 5.02371 10.9832 5.09632 10.9825 5.16952V6.62589H12.4534C12.5274 6.62544 12.6008 6.63948 12.6693 6.66721C12.7378 6.69495 12.8001 6.73582 12.8526 6.78748C12.9051 6.83914 12.9468 6.90057 12.9752 6.96823C13.0036 7.0359 13.0183 7.10846 13.0183 7.18175C13.0183 7.25503 13.0036 7.3276 12.9752 7.39526C12.9468 7.46292 12.9051 7.52435 12.8526 7.57602C12.8001 7.62768 12.7378 7.66855 12.6693 7.69628C12.6008 7.72402 12.5274 7.73806 12.4534 7.73761H10.9825V9.19397C10.9832 9.26717 10.9692 9.33978 10.9412 9.40754C10.9133 9.47531 10.8719 9.53688 10.8197 9.58864C10.7674 9.6404 10.7052 9.68132 10.6368 9.709C10.5683 9.73668 10.495 9.75056 10.421 9.74983C10.2723 9.74941 10.1297 9.69072 10.0245 9.58656C9.91935 9.48241 9.86007 9.34126 9.85965 9.19397V7.73762H8.38884C8.31483 7.73807 8.24145 7.72403 8.17294 7.69629C8.10443 7.66856 8.04213 7.62769 7.98963 7.57603C7.93713 7.52436 7.89547 7.46293 7.86704 7.39527C7.83861 7.32761 7.82398 7.25504 7.82398 7.18176C7.82398 7.10847 7.83861 7.03591 7.86704 6.96825C7.89547 6.90058 7.93713 6.83915 7.98963 6.78749C8.04213 6.73583 8.10443 6.69496 8.17294 6.66722C8.24145 6.63949 8.31483 6.62545 8.38884 6.6259V6.62589ZM14.9123 18.1545H5.92984C5.78167 18.1522 5.64022 18.0929 5.53544 17.9892C5.43065 17.8854 5.37076 17.7454 5.36843 17.5987C5.36886 17.4514 5.42815 17.3102 5.53334 17.2061C5.63853 17.1019 5.78108 17.0432 5.92984 17.0428H14.9123C14.9862 17.0421 15.0595 17.056 15.128 17.0836C15.1964 17.1113 15.2586 17.1522 15.3109 17.204C15.3631 17.2558 15.4045 17.3173 15.4324 17.3851C15.4604 17.4529 15.4744 17.5255 15.4737 17.5987C15.4733 17.746 15.414 17.8871 15.3088 17.9913C15.2036 18.0954 15.061 18.1541 14.9123 18.1545V18.1545ZM14.9123 15.1862H5.92984C5.85583 15.1867 5.78245 15.1726 5.71394 15.1449C5.64543 15.1172 5.58313 15.0763 5.53063 15.0246C5.47813 14.973 5.43647 14.9115 5.40804 14.8439C5.37961 14.7762 5.36497 14.7036 5.36497 14.6304C5.36497 14.5571 5.37961 14.4845 5.40804 14.4168C5.43647 14.3492 5.47813 14.2878 5.53063 14.2361C5.58313 14.1844 5.64543 14.1436 5.71394 14.1158C5.78245 14.0881 5.85583 14.074 5.92984 14.0745H14.9123C14.9863 14.074 15.0596 14.0881 15.1282 14.1158C15.1967 14.1436 15.259 14.1844 15.3115 14.2361C15.364 14.2878 15.4056 14.3492 15.4341 14.4168C15.4625 14.4845 15.4771 14.5571 15.4771 14.6304C15.4771 14.7036 15.4625 14.7762 15.4341 14.8439C15.4056 14.9115 15.364 14.973 15.3115 15.0246C15.259 15.0763 15.1967 15.1172 15.1282 15.1449C15.0596 15.1726 14.9863 15.1867 14.9123 15.1862ZM14.9123 12.2179H5.92984C5.78107 12.2174 5.63852 12.1587 5.53332 12.0546C5.42813 11.9504 5.36885 11.8093 5.36843 11.662C5.37077 11.5153 5.43067 11.3752 5.53545 11.2715C5.64024 11.1677 5.78168 11.1084 5.92984 11.1061H14.9123C15.061 11.1066 15.2036 11.1653 15.3088 11.2694C15.4139 11.3736 15.4732 11.5147 15.4737 11.662C15.4744 11.7352 15.4604 11.8078 15.4324 11.8756C15.4045 11.9433 15.3632 12.0049 15.3109 12.0567C15.2586 12.1084 15.1964 12.1494 15.128 12.177C15.0595 12.2047 14.9862 12.2186 14.9123 12.2179Z" fill="#171723"/>
</svg>
