<svg width="20" height="20" viewBox="0 0 20 20" fill="none" xmlns="http://www.w3.org/2000/svg">
<path d="M9.41052 5.29458H10.5512C10.8663 5.29458 11.1216 5.54981 11.1216 5.86493V14.1351C11.1216 14.4502 10.8663 14.7054 10.5512 14.7054H9.41052C9.0954 14.7054 8.84016 14.4502 8.84016 14.1351V5.86493C8.84016 5.54981 9.09568 5.29458 9.41052 5.29458Z" fill="black"/>
<path d="M6.90067 6.01066L4.71279 14.2808C4.64663 14.5309 4.4202 14.7054 4.16155 14.7054H2.75819C2.49925 14.7054 2.2731 14.5312 2.20694 14.2808L0.0190637 6.01066C-0.0613563 5.70609 0.120017 5.39411 0.424586 5.3134C0.47221 5.30085 0.521261 5.29458 0.570311 5.29458H1.72585C1.99506 5.29458 2.22776 5.48308 2.28366 5.74658L3.46001 11.2833L4.6358 5.74658C4.69169 5.48308 4.9244 5.29458 5.1936 5.29458H6.34914C6.66426 5.29458 6.9195 5.54981 6.9195 5.86493C6.91978 5.91427 6.91322 5.96332 6.90067 6.01066Z" fill="black"/>
<path d="M12.8326 5.86493V14.1351C12.8326 14.4502 13.0879 14.7054 13.403 14.7054H14.5437C14.8588 14.7054 15.1141 14.4502 15.1141 14.1351V12.1388H16.5779C18.4677 12.1388 20 10.6066 20 8.7167C20 6.82684 18.4677 5.29458 16.5779 5.29458H13.403C13.0882 5.29458 12.8326 5.54981 12.8326 5.86493ZM16.5399 9.85741H15.1141V7.576H16.5399C17.1699 7.576 17.6807 8.08675 17.6807 8.7167C17.6807 9.34666 17.1702 9.85741 16.5399 9.85741Z" fill="black"/>
</svg>
