<svg width="20" height="20" viewBox="0 0 20 20" fill="none" xmlns="http://www.w3.org/2000/svg">
<g clip-path="url(#clip0_10995_130830)">
<g clip-path="url(#clip1_10995_130830)">
<path d="M19.9899 3.84232C20.0107 3.71488 19.9993 3.58386 19.9569 3.46264L19.9565 3.45818L19.9453 3.44358C19.9134 3.36153 19.8678 3.28635 19.8107 3.22168L17.0693 0.228289C17.0056 0.157642 16.9293 0.101111 16.845 0.0619501C16.7606 0.0227892 16.6698 0.00177204 16.5778 0.000107303C16.4858 -0.00155744 16.3944 0.016163 16.3088 0.0522499C16.2233 0.0883368 16.1453 0.142077 16.0793 0.210378C16.0133 0.278678 15.9607 0.360191 15.9244 0.450224C15.8882 0.540256 15.869 0.637031 15.868 0.73498C15.8671 0.832928 15.8843 0.930115 15.9188 1.02095C15.9532 1.11178 16.0042 1.19446 16.0688 1.26424L17.6553 2.99662H5.56163C4.08473 3.0008 2.66971 3.62842 1.62704 4.74177C0.584374 5.85511 -0.000769723 7.36324 7.5993e-07 8.93525V19.2571C7.5993e-07 19.4541 0.0735327 19.6431 0.20442 19.7824C0.335308 19.9217 0.512829 20 0.697932 20C0.883034 20 1.06056 19.9217 1.19144 19.7824C1.32233 19.6431 1.39586 19.4541 1.39586 19.2571V8.93528C1.39485 7.75724 1.83285 6.62686 2.61379 5.79209C3.39474 4.95732 4.45486 4.48632 5.56163 4.4824H17.6037L16.0851 6.06971C16.0185 6.13779 15.9652 6.21927 15.9284 6.30944C15.8916 6.3996 15.8719 6.49665 15.8706 6.59496C15.8692 6.69327 15.8863 6.79087 15.9206 6.88213C15.955 6.97338 16.0061 7.05646 16.0709 7.12656C16.1356 7.19665 16.2128 7.25237 16.298 7.29047C16.3831 7.32857 16.4745 7.3483 16.5669 7.34851C16.6593 7.34873 16.7508 7.32943 16.8361 7.29172C16.9214 7.25402 16.9988 7.19867 17.0639 7.12888L19.7968 4.2721L19.797 4.27201L19.7971 4.27184L19.7997 4.26912L19.8031 4.2624C19.8859 4.17007 19.9443 4.05611 19.9724 3.93205C19.9802 3.9026 19.986 3.87262 19.9899 3.84232V3.84232Z" fill="#171723"/>
</g>
</g>
<defs>
<clipPath id="clip0_10995_130830">
<rect width="20" height="20" fill="white"/>
</clipPath>
<clipPath id="clip1_10995_130830">
<rect width="20" height="20" fill="white"/>
</clipPath>
</defs>
</svg>
