<svg width="20" height="20" viewBox="0 0 20 20" fill="none" xmlns="http://www.w3.org/2000/svg">
<path d="M8.01774 15.4167C6.79871 15.4167 5.75461 15.0085 4.88545 14.1923C4.01628 13.376 3.5817 12.3712 3.5817 11.1779C3.5817 9.98458 4.01628 8.98111 4.88545 8.1675C5.75461 7.35389 6.79871 6.94708 8.01774 6.94708H13.8686L11.5498 4.62813L12.4279 3.75L16.25 7.57208L12.4279 11.3942L11.5498 10.516L13.8686 8.19708H8.01774C7.14802 8.19708 6.39961 8.48285 5.77253 9.05437C5.14531 9.62604 4.8317 10.3339 4.8317 11.1779C4.8317 12.0219 5.14531 12.731 5.77253 13.3052C6.39961 13.8795 7.14802 14.1667 8.01774 14.1667H13.9984V15.4167H8.01774Z" fill="#171723"/>
</svg>
