<svg width="20" height="20" viewBox="0 0 20 20" fill="none" xmlns="http://www.w3.org/2000/svg">
<g clip-path="url(#clip0_10310_144562)">
<path fill-rule="evenodd" clip-rule="evenodd" d="M16.0124 19.5941C16.1115 19.7646 15.9901 19.9792 15.7939 19.9803L12.4408 20C12.276 20.001 12.172 19.822 12.2535 19.6779L13.9126 16.7441C14.0097 16.5724 14.255 16.5709 14.3541 16.7414L14.9046 17.6884C17.2463 16.0949 18.7477 13.5369 18.9486 10.5606C18.9907 9.93768 19.0004 8.75482 18.6094 7.37863C18.6004 7.34896 18.5897 7.31863 18.579 7.28828C18.5706 7.26452 18.5622 7.24075 18.5546 7.2173C18.4955 7.02345 18.4265 6.84065 18.3573 6.6578C18.161 6.15045 17.9122 5.63333 17.6171 5.12618C16.8742 3.89739 15.9851 3.02484 15.3374 2.49017C14.5964 1.93541 13.8906 1.56411 13.1601 1.29963C12.8553 1.1893 12.6855 0.88362 12.8028 0.592078C12.9111 0.322911 13.2155 0.193261 13.4828 0.302311C15.4696 1.11352 17.1104 2.50166 18.2459 4.28216C19.7528 6.55358 20.3815 9.40184 19.7655 12.2206C19.1867 14.8694 17.6399 17.115 15.4321 18.5958L16.0124 19.5941ZM6.83995 18.7004C7.14472 18.8107 7.31451 19.1164 7.19721 19.4079C7.08884 19.6771 6.78458 19.8067 6.51724 19.6977C4.53039 18.8865 2.88964 17.4983 1.75416 15.7178C0.247272 13.4464 -0.381417 10.5982 0.234543 7.77945C0.81337 5.13062 2.36017 2.88504 4.56798 1.40417L3.98764 0.405887C3.88857 0.235395 4.00997 0.0208536 4.20618 0.019687L7.55927 3.76756e-06C7.72406 -0.00101289 7.82807 0.177979 7.74653 0.32212L6.08741 3.25593C5.99031 3.42764 5.74505 3.42911 5.64593 3.25857L5.09544 2.31161C2.7537 3.90514 1.25238 6.46307 1.05147 9.43935C1.00934 10.0623 0.999689 11.2452 1.39064 12.6214C1.39971 12.6512 1.41048 12.6818 1.42125 12.7123C1.42956 12.7359 1.43788 12.7594 1.4454 12.7827C1.5045 12.9765 1.57356 13.1594 1.64272 13.3422C1.83909 13.8495 2.08783 14.3667 2.38295 14.8738C3.12586 16.1026 4.01492 16.9752 4.6626 17.5098C5.40369 18.0646 6.10942 18.4359 6.83995 18.7004Z" fill="#171723"/>
</g>
<defs>
<clipPath id="clip0_10310_144562">
<rect width="20" height="20" fill="white" transform="translate(20) rotate(90)"/>
</clipPath>
</defs>
</svg>
