<svg width="20" height="20" viewBox="0 0 20 20" fill="none" xmlns="http://www.w3.org/2000/svg">
<g clip-path="url(#clip0_14721_205550)">
<path fill-rule="evenodd" clip-rule="evenodd" d="M19.5941 3.9876C19.7646 3.88853 19.9792 4.00993 19.9803 4.20614L20 7.55923C20.001 7.72402 19.822 7.82804 19.6779 7.7465L16.7441 6.08736C16.5724 5.99026 16.5709 5.745 16.7414 5.64588L17.6884 5.09544C16.0949 2.75365 13.5369 1.25233 10.5606 1.05142C9.93768 1.00929 8.75482 0.999639 7.37863 1.39059C7.34896 1.39963 7.31863 1.41032 7.28828 1.42102C7.26452 1.42939 7.24075 1.43777 7.2173 1.44535C7.02345 1.50446 6.84065 1.57351 6.6578 1.64267C6.15045 1.83904 5.63333 2.08778 5.12618 2.3829C3.89739 3.12581 3.02484 4.01487 2.49017 4.66255C1.93541 5.40365 1.56411 6.10937 1.29963 6.83991C1.1893 7.14467 0.88362 7.31446 0.592078 7.19716C0.322912 7.08885 0.193262 6.78454 0.302312 6.5172C1.11352 4.53035 2.50166 2.8896 4.28216 1.75412C6.55358 0.247231 9.40184 -0.381457 12.2206 0.234501C14.8694 0.813337 17.115 2.36013 18.5958 4.56794L19.5941 3.9876ZM18.7004 13.16C18.8107 12.8553 19.1164 12.6855 19.4079 12.8028C19.6771 12.9112 19.8067 13.2154 19.6977 13.4828C18.8865 15.4696 17.4983 17.1104 15.7178 18.2458C13.4464 19.7527 10.5982 20.3814 7.77945 19.7655C5.13062 19.1866 2.88504 17.6398 1.40417 15.432L0.405888 16.0124C0.235396 16.1114 0.0208543 15.99 0.0196876 15.7938L4.31136e-06 12.4407C-0.00101236 12.2759 0.177979 12.1719 0.322121 12.2535L3.25593 13.9126C3.42764 14.0097 3.42911 14.255 3.25857 14.3541L2.31161 14.9046C3.90514 17.2463 6.46307 18.7476 9.43935 18.9485C10.0623 18.9907 11.2452 19.0003 12.6214 18.6094C12.6512 18.6003 12.6818 18.5895 12.7123 18.5788C12.7359 18.5704 12.7594 18.5621 12.7827 18.5546C12.9765 18.4955 13.1594 18.4264 13.3422 18.3573C13.8495 18.1609 14.3667 17.9122 14.8738 17.617C16.1026 16.8741 16.9752 15.9851 17.5098 15.3374C18.0646 14.5963 18.4359 13.8906 18.7004 13.16Z" fill="#171723"/>
</g>
<defs>
<clipPath id="clip0_14721_205550">
<rect width="20" height="20" fill="white"/>
</clipPath>
</defs>
</svg>
