<svg width="20" height="20" viewBox="0 0 20 20" fill="none" xmlns="http://www.w3.org/2000/svg">
<g clip-path="url(#clip0_10995_130582)">
<g clip-path="url(#clip1_10995_130582)">
<path d="M19.9803 4.20614C19.9792 4.00993 19.7646 3.88853 19.5941 3.9876L18.5958 4.56794C17.1149 2.36013 14.8693 0.813337 12.2206 0.234501C9.40181 -0.381457 6.55355 0.247231 4.28213 1.75412C2.50163 2.8896 1.11349 4.53035 0.302285 6.5172C0.193235 6.78454 0.322885 7.08885 0.592052 7.19716C0.883593 7.31446 1.18928 7.14467 1.2996 6.83991C1.56409 6.10937 1.93539 5.40364 2.49014 4.66255C3.02481 4.01487 3.89736 3.12581 5.12615 2.3829C5.6333 2.08778 6.15043 1.83904 6.65778 1.64267C6.84063 1.57351 7.02343 1.50446 7.21727 1.44535C7.27068 1.42808 7.32571 1.40671 7.3786 1.39059C8.75479 0.999639 9.93765 1.00929 10.5606 1.05142C13.5369 1.25233 16.0948 2.75365 17.6884 5.09544L16.7414 5.64588C16.5709 5.745 16.5723 5.99026 16.744 6.08736L19.6778 7.7465C19.822 7.82804 20.001 7.72402 20 7.55923L19.9803 4.20614H19.9803Z" fill="#171723"/>
<path d="M19.4079 12.8028C19.1164 12.6855 18.8107 12.8553 18.7004 13.1601C18.4359 13.8906 18.0646 14.5964 17.5098 15.3374C16.9752 15.9851 16.1026 16.8742 14.8738 17.6171C14.3667 17.9122 13.8495 18.161 13.3422 18.3573C13.1594 18.4265 12.9765 18.4955 12.7827 18.5546C12.7293 18.5719 12.6743 18.5933 12.6214 18.6094C11.2452 19.0004 10.0623 18.9907 9.43934 18.9486C6.46307 18.7477 3.90513 17.2463 2.31161 14.9046L3.25857 14.3541C3.42911 14.255 3.42763 14.0097 3.25593 13.9126L0.322117 12.2535C0.177976 12.172 -0.00101617 12.276 4.96667e-07 12.4408L0.0196838 15.7939C0.0208505 15.9901 0.235392 16.1115 0.405884 16.0124L1.40417 15.4321C2.88503 17.6399 5.13062 19.1867 7.77944 19.7655C10.5982 20.3815 13.4464 19.7528 15.7178 18.2459C17.4983 17.1104 18.8865 15.4697 19.6977 13.4828C19.8067 13.2155 19.6771 12.9112 19.4079 12.8028V12.8028Z" fill="#171723"/>
</g>
</g>
<defs>
<clipPath id="clip0_10995_130582">
<rect width="20" height="20" fill="white" transform="translate(20) rotate(90)"/>
</clipPath>
<clipPath id="clip1_10995_130582">
<rect width="20" height="20" fill="white"/>
</clipPath>
</defs>
</svg>
