<svg width="20" height="20" viewBox="0 0 20 20" fill="none" xmlns="http://www.w3.org/2000/svg">
<path d="M4.306 13.0225C4.05392 12.5534 3.8635 12.0692 3.73475 11.5697C3.606 11.0702 3.54163 10.5608 3.54163 10.0416C3.54163 8.23926 4.16878 6.70537 5.42308 5.43995C6.67739 4.1744 8.20301 3.54162 9.99996 3.54162H10.6506L9.10892 1.99995L9.98704 1.12183L13.032 4.16662L9.98704 7.21141L9.10892 6.33328L10.6506 4.79162H9.99996C8.55232 4.79162 7.32232 5.3012 6.30996 6.32037C5.29774 7.33967 4.79163 8.58009 4.79163 10.0416C4.79163 10.3868 4.82926 10.7315 4.90454 11.076C4.97996 11.4206 5.09295 11.7569 5.2435 12.085L4.306 13.0225ZM10.0129 18.8781L6.96788 15.8333L10.0129 12.7885L10.891 13.6666L9.34933 15.2083H9.99996C11.4476 15.2083 12.6776 14.6987 13.69 13.6795C14.7022 12.6602 15.2083 11.4198 15.2083 9.95828C15.2083 9.61315 15.1707 9.26835 15.0954 8.92391C15.02 8.57933 14.907 8.24301 14.7564 7.91495L15.6939 6.97745C15.946 7.44648 16.1364 7.93072 16.2652 8.43016C16.3939 8.92974 16.4583 9.43912 16.4583 9.95828C16.4583 11.7606 15.8311 13.2945 14.5768 14.56C13.3225 15.8255 11.7969 16.4583 9.99996 16.4583H9.34933L10.891 18L10.0129 18.8781Z" fill="#171723"/>
</svg>
