<svg width="20" height="20" viewBox="0 0 20 20" fill="none" xmlns="http://www.w3.org/2000/svg">
<g clip-path="url(#clip0_11252_134034)">
<path d="M18.4458 5.60008C19.3028 5.60008 20 4.90293 20 4.04589V1.5542C20 0.697158 19.3028 0 18.4458 0H1.5542C0.697158 0 0 0.697158 0 1.5542V4.04589C0 4.90293 0.697158 5.60008 1.5542 5.60008H2.71612V15.1358C2.71612 16.554 3.86911 17.7069 5.28626 17.7069H8.96866V18.4458C8.96866 19.3028 9.66582 20 10.5229 20H18.4458C19.3028 20 20 19.3028 20 18.4458V15.9541C20 15.0971 19.3028 14.3999 18.4458 14.3999H10.5229C9.66582 14.3999 8.96866 15.0971 8.96866 15.9541V16.69H5.28626C4.4302 16.69 3.73306 15.9928 3.73306 15.1358V5.60008H18.4458Z" fill="#171723"/>
</g>
<defs>
<clipPath id="clip0_11252_134034">
<rect width="20" height="20" fill="white"/>
</clipPath>
</defs>
</svg>
