<svg width="20" height="20" viewBox="0 0 20 20" fill="none" xmlns="http://www.w3.org/2000/svg">
<g clip-path="url(#clip0_10314_146454)">
<path d="M18.4458 5.60006C18.8579 5.59961 19.2529 5.43572 19.5443 5.14435C19.8357 4.85298 19.9995 4.45792 20 4.04587V1.55419C19.9995 1.14214 19.8357 0.747083 19.5443 0.455713C19.2529 0.164343 18.8579 0.000452209 18.4458 0H1.5542C1.14214 0.000452209 0.747084 0.164343 0.455713 0.455713C0.164343 0.747083 0.00045221 1.14214 0 1.55419V4.04587C0.00045221 4.45792 0.164343 4.85298 0.455713 5.14435C0.747084 5.43572 1.14214 5.59961 1.5542 5.60006H2.71612V15.1358C2.71669 15.8174 2.98763 16.4709 3.46947 16.9529C3.95131 17.4349 4.60471 17.7061 5.28627 17.7069H8.96867V18.4458C8.96912 18.8579 9.13301 19.2529 9.42438 19.5443C9.71575 19.8357 10.1108 19.9995 10.5229 20H18.4458C18.8578 19.9995 19.2529 19.8357 19.5443 19.5443C19.8356 19.2529 19.9995 18.8579 20 18.4458V15.9541C19.9995 15.5421 19.8356 15.147 19.5443 14.8556C19.2529 14.5643 18.8578 14.4004 18.4458 14.3999H10.5229C10.1108 14.4004 9.71575 14.5643 9.42438 14.8556C9.13301 15.147 8.96912 15.5421 8.96867 15.9541V16.69H5.28627C4.87435 16.6894 4.47951 16.5254 4.18833 16.234C3.89716 15.9426 3.73343 15.5477 3.73306 15.1358V5.60001L18.4458 5.60006ZM10.5229 15.4168H18.4458C18.5882 15.4171 18.7247 15.4738 18.8254 15.5745C18.9261 15.6752 18.9828 15.8117 18.9831 15.9541V18.4458C18.9828 18.5882 18.9261 18.7247 18.8254 18.8254C18.7247 18.9261 18.5882 18.9828 18.4458 18.983H10.5229C10.3805 18.9828 10.244 18.9261 10.1433 18.8254C10.0426 18.7247 9.98589 18.5882 9.98562 18.4458V17.2083L9.9876 17.1984L9.98562 17.1886V15.9541C9.98589 15.8117 10.0426 15.6752 10.1433 15.5745C10.244 15.4738 10.3805 15.4171 10.5229 15.4168H10.5229ZM1.01693 4.04587V1.55419C1.0172 1.41178 1.07389 1.27528 1.17459 1.17458C1.27529 1.07389 1.41179 1.0172 1.5542 1.01693H18.4458C18.5882 1.0172 18.7247 1.07389 18.8254 1.17458C18.9261 1.27528 18.9828 1.41178 18.9831 1.55419V4.04587C18.9828 4.18828 18.9261 4.32478 18.8254 4.42547C18.7247 4.52617 18.5882 4.58286 18.4458 4.58313H1.5542C1.41179 4.58286 1.27529 4.52617 1.17459 4.42547C1.07389 4.32478 1.0172 4.18828 1.01693 4.04587Z" fill="#171723"/>
</g>
<defs>
<clipPath id="clip0_10314_146454">
<rect width="20" height="20" fill="white"/>
</clipPath>
</defs>
</svg>
