<svg width="20" height="20" viewBox="0 0 20 20" fill="none" xmlns="http://www.w3.org/2000/svg">
<path fill-rule="evenodd" clip-rule="evenodd" d="M7.85651 1.67072C11.7102 0.682395 15.6794 2.4213 17.5442 5.81734ZM17.5442 5.81734H13.488C13.1027 5.81734 12.7903 6.12971 12.7903 6.51505C12.7903 6.90038 13.1027 7.21276 13.488 7.21276H18.6315C18.6392 7.21289 18.6469 7.21289 18.6546 7.21276H19.3023C19.6876 7.21276 20 6.90038 20 6.51505V0.700806C20 0.315472 19.6876 0.00309681 19.3023 0.00309681C18.917 0.00309681 18.6046 0.315472 18.6046 0.700806V4.86003C16.3711 1.09236 11.8677 -0.798633 7.5097 0.319082L7.50923 0.319204C5.75102 0.771457 4.14908 1.69379 2.87522 2.98728C1.60136 4.28077 0.703627 5.89663 0.278312 7.66155C-0.147003 9.42647 -0.0838597 11.2739 0.460969 13.0056C1.0058 14.7374 2.01176 16.2882 3.37096 17.4917C4.73017 18.6952 6.39134 19.506 8.17633 19.8371C9.96132 20.1683 11.8028 20.0073 13.5032 19.3714C15.2037 18.7356 16.699 17.6488 17.8287 16.2277C18.9584 14.8066 19.68 13.1048 19.9161 11.3047C19.9662 10.9227 19.6971 10.5723 19.315 10.5222C18.933 10.4721 18.5826 10.7412 18.5325 11.1233C18.3294 12.6722 17.7085 14.1365 16.7364 15.3593C15.7643 16.5821 14.4776 17.5173 13.0145 18.0644C11.5513 18.6116 9.96679 18.7501 8.43087 18.4651C6.89495 18.1802 5.46556 17.4825 4.29601 16.447C3.12647 15.4114 2.26087 14.077 1.79207 12.5869C1.32326 11.0967 1.26893 9.50712 1.6349 7.98846C2.00087 6.46981 2.77333 5.07942 3.86944 3.96642C4.96544 2.85353 6.34368 2.05994 7.85637 1.67075" fill="#171723"/>
</svg>
