<svg width="20" height="20" viewBox="0 0 20 20" fill="none" xmlns="http://www.w3.org/2000/svg">
<path d="M16.875 13.3333V6.66667C16.875 6.61141 16.853 6.55844 16.814 6.51937C16.7749 6.4803 16.7219 6.45833 16.6667 6.45833H10.8333C10.4882 6.45833 10.2083 6.17851 10.2083 5.83333C10.2083 5.48816 10.4882 5.20833 10.8333 5.20833H16.6667C17.0534 5.20833 17.4243 5.36209 17.6978 5.63558C17.9712 5.90907 18.125 6.27989 18.125 6.66667V13.3333C18.125 13.7201 17.9712 14.0909 17.6978 14.3644C17.4243 14.6379 17.0534 14.7917 16.6667 14.7917H10.8333C10.4882 14.7917 10.2083 14.5118 10.2083 14.1667C10.2083 13.8215 10.4882 13.5417 10.8333 13.5417H16.6667C16.7219 13.5417 16.7749 13.5197 16.814 13.4806C16.853 13.4416 16.875 13.3886 16.875 13.3333Z" fill="#171723"/>
<path d="M1.875 13.3333V6.66667C1.875 6.27989 2.02876 5.90907 2.30225 5.63558C2.57574 5.36209 2.94656 5.20833 3.33333 5.20833H4.16667C4.51184 5.20833 4.79167 5.48816 4.79167 5.83333C4.79167 6.17851 4.51184 6.45833 4.16667 6.45833H3.33333C3.27808 6.45833 3.22511 6.4803 3.18604 6.51937C3.14697 6.55844 3.125 6.61141 3.125 6.66667V13.3333L3.12907 13.374C3.13706 13.4141 3.1567 13.4513 3.18604 13.4806C3.2251 13.5197 3.27808 13.5417 3.33333 13.5417H4.16667C4.51184 13.5417 4.79167 13.8215 4.79167 14.1667C4.79167 14.5118 4.51184 14.7917 4.16667 14.7917H3.33333C2.94656 14.7917 2.57574 14.6379 2.30225 14.3644C2.06292 14.1251 1.91546 13.8113 1.88232 13.4774L1.875 13.3333Z" fill="#171723"/>
<path d="M6.875 15V5C6.875 4.50272 6.67731 4.02595 6.32568 3.67432C6.01805 3.36669 5.6147 3.17661 5.18555 3.13395L5 3.125L4.93571 3.12174C4.62074 3.08956 4.375 2.82347 4.375 2.5C4.375 2.15482 4.65482 1.875 5 1.875L5.15462 1.87907C5.92712 1.91731 6.65997 2.24103 7.20947 2.79053C7.31473 2.89579 7.41172 3.00778 7.5 3.12548C7.58828 3.00778 7.68527 2.89579 7.79053 2.79053C8.37658 2.20448 9.1712 1.875 10 1.875C10.3452 1.875 10.625 2.15482 10.625 2.5C10.625 2.84518 10.3452 3.125 10 3.125C9.50272 3.125 9.02595 3.32269 8.67432 3.67432C8.32269 4.02595 8.125 4.50272 8.125 5V15C8.125 15.4973 8.32269 15.9741 8.67432 16.3257C8.98194 16.6333 9.3853 16.8234 9.81445 16.866L10 16.875L10.0643 16.8783C10.3793 16.9104 10.625 17.1765 10.625 17.5C10.625 17.8235 10.3793 18.0896 10.0643 18.1217L10 18.125L9.84538 18.1209C9.07288 18.0827 8.34003 17.759 7.79053 17.2095C7.68527 17.1042 7.58828 16.9922 7.5 16.8745C7.41172 16.9922 7.31473 17.1042 7.20947 17.2095C6.62342 17.7955 5.8288 18.125 5 18.125C4.65482 18.125 4.375 17.8452 4.375 17.5C4.375 17.1548 4.65482 16.875 5 16.875C5.49728 16.875 5.97405 16.6773 6.32568 16.3257C6.67731 15.9741 6.875 15.4973 6.875 15Z" fill="#171723"/>
</svg>
