<svg width="20" height="20" viewBox="0 0 20 20" fill="none" xmlns="http://www.w3.org/2000/svg">
<path d="M18.1589 5.02083H16.2342V4.35157C16.2342 3.98224 16.534 3.68231 16.9026 3.68231C17.2262 3.68231 17.4889 3.41997 17.4889 3.09638C17.4129 2.11856 16.078 2.56157 15.6483 3.00532C15.219 2.56165 13.8833 2.11856 13.8076 3.09638C13.8076 3.41997 14.0703 3.68231 14.3939 3.68231C14.7626 3.68231 15.0623 3.98227 15.0623 4.35157V5.02083H1.84116C0.813617 5.02083 2.28882e-05 5.85489 2.28882e-05 6.862V13.1381C2.28882e-05 14.1656 0.834046 14.9792 1.84116 14.9792H15.0623V15.6484C15.0623 16.0175 14.7622 16.3177 14.3932 16.3177C14.0696 16.3177 13.8073 16.58 13.8073 16.9036C13.8835 17.8814 15.2183 17.4385 15.6482 16.9944C16.0776 17.4384 17.4132 17.8814 17.4892 16.9036C17.4892 16.58 17.2268 16.3177 16.9032 16.3177C16.5342 16.3177 16.2342 16.0175 16.2342 15.6484V14.9792H18.1588C19.1675 14.9792 20 14.164 20 13.1381V6.862C20 5.83259 19.1639 5.02083 18.1589 5.02083ZM1.84116 13.8073C1.47643 13.8073 1.1719 13.5125 1.1719 13.1381V6.862C1.1719 6.4972 1.46686 6.19274 1.84116 6.19274H15.0623V13.8074L1.84116 13.8073ZM18.8281 13.1381C18.8281 13.5035 18.5327 13.8073 18.1589 13.8073H16.2342V6.1927H18.1589C18.5244 6.1927 18.8281 6.48829 18.8281 6.86196V13.1381Z" fill="black"/>
</svg>
