<svg width="20" height="20" viewBox="0 0 20 20" fill="none" xmlns="http://www.w3.org/2000/svg">
<path fill-rule="evenodd" clip-rule="evenodd" d="M12.1435 1.67072C8.28978 0.682395 4.32061 2.4213 2.45579 5.81734L12.1435 1.67072ZM2.45579 5.81734H6.51195C6.89729 5.81734 7.20966 6.12971 7.20966 6.51505C7.20966 6.90038 6.89729 7.21276 6.51195 7.21276H1.36846C1.36077 7.21289 1.35307 7.21289 1.34535 7.21276H0.69771C0.312375 7.21276 0 6.90038 0 6.51505V0.700806C0 0.315472 0.312375 0.00309682 0.69771 0.00309682C1.08304 0.00309682 1.39542 0.315472 1.39542 0.700806V4.86003C3.62892 1.09236 8.13233 -0.798633 12.4903 0.319082C14.2485 0.771336 15.8509 1.69379 17.1248 2.98728C18.3986 4.28077 19.2964 5.89663 19.7217 7.66155C20.147 9.42647 20.0839 11.2739 19.539 13.0056C18.9942 14.7374 17.9882 16.2882 16.629 17.4917C15.2698 18.6952 13.6087 19.506 11.8237 19.8371C10.0387 20.1683 8.19722 20.0073 6.49677 19.3714C4.79633 18.7356 3.30105 17.6488 2.1713 16.2277C1.04156 14.8066 0.319958 13.1048 0.0839031 11.3047C0.0337995 10.9227 0.302906 10.5723 0.68497 10.5222C1.06703 10.4721 1.41737 10.7412 1.46748 11.1233C1.67059 12.6722 2.2915 14.1365 3.26361 15.3593C4.23572 16.5821 5.52235 17.5173 6.98552 18.0644C8.4487 18.6116 10.0332 18.7501 11.5691 18.4651C13.1051 18.1802 14.5344 17.4825 15.704 16.447C16.8735 15.4114 17.7391 14.077 18.2079 12.5869C18.6767 11.0967 18.7311 9.50712 18.3651 7.98846C17.9991 6.46981 17.2267 5.07942 16.1306 3.96642C15.0346 2.85353 13.6562 2.05991 12.1435 1.67072" fill="#171723"/>
</svg>
