<svg width="20" height="20" viewBox="0 0 20 20" fill="none" xmlns="http://www.w3.org/2000/svg">
<g clip-path="url(#clip0_10317_146755)">
<g clip-path="url(#clip1_10317_146755)">
<path d="M19.2291 11.5049C19.2291 11.5354 19.219 11.5557 19.219 11.5862C19.1681 11.8911 19.1072 12.1859 19.0259 12.4908C18.9852 12.6535 18.9445 12.8161 18.8936 12.9686C18.8429 13.121 18.7921 13.2837 18.7311 13.4361C18.7016 13.5259 18.6677 13.6141 18.6293 13.7004C18.5848 13.78 18.5199 13.8464 18.4414 13.8928C18.3628 13.9392 18.2734 13.964 18.1822 13.9646C18.1199 13.9645 18.0582 13.9542 17.9993 13.9342C17.9365 13.9102 17.879 13.8741 17.8302 13.8279C17.7814 13.7817 17.7422 13.7263 17.7148 13.665C17.6874 13.6036 17.6724 13.5374 17.6706 13.4702C17.6689 13.4031 17.6804 13.3362 17.7045 13.2734C17.9388 12.6765 18.1091 12.0564 18.2127 11.4235C18.3669 10.4467 18.3634 9.45148 18.2026 8.47575C17.9104 6.67821 17.0716 5.01428 15.8004 3.71027C14.5291 2.40627 12.887 1.52549 11.0975 1.18773C9.74735 0.91951 8.35355 0.966144 7.02435 1.324C5.69516 1.68186 4.46635 2.34132 3.43337 3.25114L4.18555 4.00332C4.21682 4.03409 4.23937 4.0726 4.25089 4.11492C4.26242 4.15724 4.26251 4.20187 4.25115 4.24424C4.2398 4.28661 4.21741 4.32521 4.18627 4.3561C4.15513 4.38699 4.11635 4.40906 4.07389 4.42007L0.922753 5.26374C0.886713 5.2724 0.849033 5.27149 0.813456 5.26108C0.777878 5.25068 0.745643 5.23115 0.719951 5.20443C0.694259 5.17771 0.676006 5.14473 0.667004 5.10877C0.658002 5.07282 0.658566 5.03513 0.668638 4.99946L1.51238 1.84843C1.52434 1.80667 1.54689 1.76873 1.57785 1.73827C1.60882 1.70782 1.64713 1.6859 1.68908 1.67465C1.73102 1.66339 1.77517 1.66318 1.81722 1.67404C1.85927 1.6849 1.89779 1.70646 1.92904 1.73661L2.72188 2.52945C4.64877 0.805287 7.17229 -0.0991083 9.75571 0.00863062C12.2277 0.123968 14.5703 1.14694 16.3352 2.88173C18.1 4.61652 19.163 6.94124 19.3208 9.4109C19.3624 10.1102 19.3317 10.8119 19.2291 11.5049V11.5049Z" fill="#171723"/>
<path d="M9.33748 19.9993C9.04564 19.9993 8.75678 19.9868 8.4709 19.9616C8.4044 19.9558 8.3397 19.9369 8.28049 19.9061C8.22129 19.8753 8.16875 19.833 8.12588 19.7819C8.083 19.7307 8.05064 19.6716 8.03064 19.6079C8.01065 19.5442 8.0034 19.4772 8.00933 19.4107C8.02522 19.2781 8.09104 19.1566 8.19339 19.0708C8.29575 18.9851 8.42694 18.9415 8.56025 18.9491C9.19938 19.0044 9.84257 18.9918 10.479 18.9114C10.6128 18.8945 10.7477 18.9315 10.8542 19.0142C10.9607 19.0968 11.03 19.2184 11.0468 19.3521C11.0637 19.4859 11.0267 19.6208 10.944 19.7273C10.8614 19.8338 10.7398 19.9031 10.6061 19.9199C10.1853 19.9726 9.76158 19.9992 9.33748 19.9993V19.9993Z" fill="#171723"/>
<path d="M6.52691 19.5765C6.47575 19.5766 6.42487 19.5689 6.37603 19.5536C5.69509 19.3419 5.03857 19.0584 4.41756 18.7079C4.30077 18.6415 4.21504 18.5316 4.17913 18.4021C4.14322 18.2727 4.16005 18.1342 4.22594 18.0172C4.29183 17.9001 4.40141 17.8139 4.53071 17.7774C4.66 17.7409 4.79849 17.7571 4.91586 17.8225C5.47467 18.1374 6.06528 18.3923 6.67779 18.5828C6.79394 18.6189 6.89332 18.6953 6.95788 18.7984C7.02244 18.9015 7.04791 19.0243 7.02965 19.1445C7.01139 19.2647 6.95062 19.3745 6.85838 19.4537C6.76613 19.533 6.64852 19.5765 6.52691 19.5764V19.5765Z" fill="#171723"/>
<path d="M12.5134 19.4553C12.3937 19.4552 12.2779 19.4128 12.1863 19.3356C12.0948 19.2584 12.0335 19.1514 12.0132 19.0334C11.9929 18.9154 12.0149 18.794 12.0754 18.6907C12.1359 18.5874 12.2309 18.5087 12.3437 18.4686C12.9469 18.2533 13.5256 17.9745 14.0699 17.6368C14.1266 17.6009 14.1898 17.5765 14.256 17.5652C14.3222 17.5539 14.3899 17.5558 14.4554 17.5708C14.5208 17.5858 14.5826 17.6136 14.6372 17.6526C14.6918 17.6916 14.7382 17.7411 14.7736 17.7981C14.809 17.8552 14.8327 17.9186 14.8435 17.9849C14.8542 18.0512 14.8517 18.1189 14.8361 18.1842C14.8205 18.2495 14.7922 18.3111 14.7526 18.3653C14.7131 18.4196 14.6632 18.4655 14.6059 18.5004C14 18.8769 13.3554 19.1871 12.6831 19.4255C12.6288 19.4456 12.5713 19.4556 12.5134 19.4553V19.4553Z" fill="#171723"/>
<path d="M15.935 17.3301C15.8338 17.3301 15.7348 17.2999 15.6509 17.2433C15.5669 17.1867 15.5018 17.1063 15.4638 17.0125C15.4259 16.9186 15.4168 16.8156 15.4378 16.7166C15.4588 16.6175 15.5089 16.527 15.5816 16.4566C16.0422 16.0104 16.4541 15.5166 16.8105 14.9835C16.886 14.8724 17.0024 14.7957 17.1342 14.77C17.266 14.7443 17.4027 14.7718 17.5143 14.8465C17.626 14.9212 17.7035 15.037 17.7301 15.1687C17.7567 15.3003 17.7301 15.4372 17.6562 15.5493C17.2587 16.1416 16.8003 16.6905 16.2884 17.1872C16.1937 17.279 16.0669 17.3303 15.935 17.3301Z" fill="#171723"/>
<path d="M3.00914 17.5704C2.88326 17.5707 2.76181 17.524 2.66863 17.4393C2.40409 17.2006 2.15196 16.9485 1.91324 16.684C1.8684 16.6344 1.83376 16.5766 1.8113 16.5137C1.78885 16.4507 1.77902 16.384 1.78238 16.3173C1.78574 16.2506 1.80222 16.1852 1.83088 16.1249C1.85954 16.0645 1.89981 16.0104 1.9494 15.9657C1.99898 15.9209 2.05691 15.8864 2.11986 15.864C2.18281 15.8417 2.24955 15.8319 2.31626 15.8354C2.38297 15.8389 2.44834 15.8555 2.50863 15.8842C2.56892 15.913 2.62295 15.9533 2.66763 16.003C2.88288 16.2421 3.11051 16.4697 3.34958 16.6849C3.42581 16.7538 3.4794 16.8441 3.50328 16.944C3.52716 17.0439 3.5202 17.1487 3.48333 17.2446C3.44646 17.3404 3.38141 17.4229 3.29675 17.4811C3.21208 17.5392 3.11178 17.5704 3.00906 17.5704H3.00914Z" fill="#171723"/>
<path d="M12.4081 8.87086L8.87428 6.89255C8.67382 6.78777 8.44957 6.73689 8.22353 6.7449C7.99748 6.7529 7.77739 6.81952 7.58485 6.93821C7.38372 7.06075 7.21782 7.23337 7.10334 7.43919C6.98886 7.64501 6.92972 7.877 6.93169 8.11251V11.8885C6.92972 12.124 6.98886 12.356 7.10334 12.5618C7.21782 12.7676 7.38372 12.9402 7.58485 13.0628C7.78956 13.1881 8.02478 13.2547 8.2648 13.2554C8.4823 13.2543 8.69638 13.2012 8.88917 13.1005L12.4081 11.1321C12.6091 11.0196 12.7766 10.8556 12.8932 10.6568C13.0097 10.4581 13.0712 10.2319 13.0712 10.0015C13.0712 9.7711 13.0097 9.54487 12.8932 9.34614C12.7766 9.1474 12.6091 8.98334 12.4081 8.87088V8.87086Z" fill="#171723"/>
</g>
</g>
<defs>
<clipPath id="clip0_10317_146755">
<rect width="20" height="20" fill="white"/>
</clipPath>
<clipPath id="clip1_10317_146755">
<rect width="20" height="20" fill="white"/>
</clipPath>
</defs>
</svg>
