<svg width="20" height="20" viewBox="0 0 20 20" fill="none" xmlns="http://www.w3.org/2000/svg">
<path d="M9.74507 0.00878811C7.1185 -0.0999588 4.55252 0.804005 2.59347 2.52821L1.78949 1.73692C1.75819 1.70609 1.71918 1.68391 1.6764 1.67262C1.63361 1.66132 1.58856 1.6613 1.54576 1.67257C1.50297 1.68383 1.46394 1.70598 1.43261 1.73678C1.40129 1.76759 1.37876 1.80597 1.36729 1.84805L0.507216 5.00182C0.497595 5.03715 0.497595 5.07436 0.507217 5.10969C0.516839 5.14502 0.535743 5.17724 0.562033 5.20312C0.588322 5.22899 0.62107 5.2476 0.656988 5.25709C0.692907 5.26658 0.73073 5.2666 0.766661 5.25716L3.97374 4.41333C4.01654 4.40208 4.05557 4.37995 4.08692 4.34916C4.11826 4.31837 4.1408 4.28 4.15229 4.23792C4.16377 4.19583 4.16378 4.15152 4.15232 4.10943C4.14087 4.06734 4.11834 4.02896 4.08701 3.99815L3.3243 3.24751C4.37499 2.3376 5.62483 1.6782 6.97671 1.32053C8.32858 0.962853 9.7461 0.916543 11.1191 1.18519C12.9384 1.52445 14.6073 2.40655 15.8988 3.71157C17.1904 5.01658 18.042 6.68116 18.3377 8.47897C18.6199 10.1518 18.4189 11.8689 17.7577 13.435C17.0966 15.001 16.0017 16.3531 14.5978 17.3373C13.1939 18.3216 11.5373 18.8985 9.81653 19.0024C8.09572 19.1063 6.3798 18.7331 4.86402 17.9252C4.10703 17.5745 3.44337 17.0554 2.92551 16.409C2.88285 16.3533 2.82898 16.3067 2.76726 16.2723C2.70553 16.238 2.63726 16.2164 2.56671 16.2091C2.49616 16.2018 2.42483 16.2088 2.35716 16.2298C2.28949 16.2507 2.22693 16.2852 2.17338 16.3309C2.11983 16.3767 2.07642 16.4328 2.04587 16.4958C2.01532 16.5588 1.99828 16.6273 1.9958 16.697C1.99332 16.7667 2.00546 16.8362 2.03147 16.9011C2.05747 16.9661 2.09679 17.025 2.14696 17.0744C3.60538 18.5075 5.47229 19.4706 7.50008 19.8362C9.52787 20.2017 11.6207 19.9523 13.5011 19.121C15.3814 18.2897 16.9604 16.9159 18.0287 15.1817C19.0969 13.4475 19.6038 11.4348 19.4823 9.4107C19.3221 6.93897 18.2397 4.61243 16.4427 2.87733C14.6457 1.14224 12.2607 0.120745 9.74507 0.00878811Z" fill="#171723"/>
<path d="M10.0004 11.914C11.075 11.914 11.9462 11.0572 11.9462 10.0003C11.9462 8.94336 11.075 8.08655 10.0004 8.08655C8.92583 8.08655 8.05469 8.94336 8.05469 10.0003C8.05469 11.0572 8.92583 11.914 10.0004 11.914Z" fill="#171723"/>
</svg>
