<svg width="20" height="20" viewBox="0 0 20 20" fill="none" xmlns="http://www.w3.org/2000/svg">
<g clip-path="url(#clip0_10325_129862)">
<path d="M19.9685 10.1574C19.9995 10.0719 20.0078 9.97953 19.9926 9.88968C19.9898 9.86873 19.9857 9.84799 19.9801 9.82762C19.9598 9.73774 19.9158 9.65531 19.853 9.58923L18.4149 8.14557C18.3182 8.05022 18.1887 7.99792 18.0545 8.00006C17.9204 8.0022 17.7925 8.0586 17.6987 8.15699C17.6049 8.25538 17.5527 8.3878 17.5536 8.52543C17.5545 8.66305 17.6083 8.79476 17.7034 8.89187L18.25 9.44038H1.75L2.29659 8.89187C2.39164 8.79476 2.44547 8.66305 2.44635 8.52543C2.44723 8.3878 2.39509 8.25538 2.30128 8.15699C2.20747 8.0586 2.07958 8.0022 1.94545 8.00006C1.81131 7.99792 1.68177 8.05022 1.58502 8.14557L0.146996 9.58923C0.0842145 9.65531 0.0402465 9.73774 0.0198512 9.82762C0.0143354 9.84799 0.0101638 9.86873 0.00736467 9.88968C-0.00779686 9.97953 0.000543147 10.0719 0.0315339 10.1574L0.0317171 10.1592L0.0364388 10.1651C0.0603468 10.2253 0.0951636 10.2804 0.139048 10.3274L1.57902 11.8394C1.62557 11.8891 1.68127 11.929 1.7429 11.9565C1.80454 11.9841 1.87089 11.9988 1.93812 11.9999C2.00535 12.001 2.07212 11.9885 2.13458 11.9629C2.19704 11.9374 2.25395 11.8994 2.30202 11.8512C2.35008 11.8029 2.38835 11.7454 2.41462 11.6819C2.44088 11.6184 2.45462 11.5502 2.45503 11.4812C2.45545 11.4122 2.44253 11.3439 2.41703 11.28C2.39154 11.2162 2.35396 11.1582 2.30648 11.1094L1.71125 10.4844H18.2887L17.6935 11.1094C17.646 11.1582 17.6085 11.2162 17.583 11.28C17.5575 11.3439 17.5445 11.4122 17.545 11.4812C17.5454 11.5502 17.5591 11.6184 17.5854 11.6819C17.6116 11.7454 17.6499 11.8029 17.698 11.8512C17.746 11.8994 17.803 11.9374 17.8654 11.9629C17.9279 11.9885 17.9947 12.001 18.0619 11.9999C18.1291 11.9988 18.1955 11.9841 18.2571 11.9565C18.3187 11.929 18.3744 11.8891 18.421 11.8394L19.861 10.3274C19.9048 10.2804 19.9397 10.2253 19.9636 10.1651L19.9683 10.1592L19.9685 10.1574Z" fill="#171723"/>
</g>
<defs>
<clipPath id="clip0_10325_129862">
<rect width="20" height="20" fill="white"/>
</clipPath>
</defs>
</svg>
