<svg width="20" height="20" viewBox="0 0 20 20" fill="none" xmlns="http://www.w3.org/2000/svg">
<path fill-rule="evenodd" clip-rule="evenodd" d="M20 1.11111C20 0.497778 19.5022 0 18.8889 0H1.11111C0.497778 0 0 0.497778 0 1.11111V18.8922C0 19.5056 0.497778 20.0033 1.11111 20.0033H18.8889C19.5022 20.0033 20 19.5056 20 18.8922V1.11111ZM7.15444 14.4167L8.56333 13.0078C8.99667 12.5744 8.99667 11.87 8.56333 11.4367C8.13 11.0033 7.42555 11.0033 6.99222 11.4367L5.55556 12.8733V12.2222C5.55556 11.6089 5.05778 11.1111 4.44444 11.1111C3.83111 11.1111 3.33333 11.6089 3.33333 12.2222V15.5278C3.33333 16.1422 3.83111 16.6389 4.44444 16.6389H7.77778C8.39111 16.6389 8.88889 16.1411 8.88889 15.5278C8.88889 14.9156 8.39111 14.4167 7.77778 14.4167H7.15444ZM12.8733 5.55556L11.4367 6.99222C11.0033 7.42555 11.0033 8.13 11.4367 8.56333C11.87 8.99667 12.5744 8.99667 13.0078 8.56333L14.4444 7.12667V7.77778C14.4444 8.39111 14.9422 8.88889 15.5556 8.88889C16.1689 8.88889 16.6667 8.39111 16.6667 7.77778V4.44444C16.6667 3.83111 16.1689 3.33333 15.5556 3.33333H12.2222C11.6089 3.33333 11.1111 3.83111 11.1111 4.44444C11.1111 5.05778 11.6089 5.55556 12.2222 5.55556H12.8733Z" fill="black"/>
</svg>
