<svg width="20" height="20" viewBox="0 0 20 20" fill="none" xmlns="http://www.w3.org/2000/svg">
<path fill-rule="evenodd" clip-rule="evenodd" d="M12.4611 2.52337C12.4611 2.16206 12.754 1.86916 13.1153 1.86916H14.3614C15.8568 1.86916 17.291 2.46323 18.3485 3.52068C19.4059 4.57812 20 6.01233 20 7.50779C20 9.00325 19.4059 10.4375 18.3485 11.4949C17.291 12.5524 15.8568 13.1464 14.3614 13.1464H2.2336L6.10122 17.014C6.35671 17.2695 6.35671 17.6837 6.10122 17.9392C5.84574 18.1947 5.43152 18.1947 5.17604 17.9392L0.191612 12.9548C-0.0638708 12.6993 -0.0638708 12.2851 0.191612 12.0296L5.17604 7.0452C5.43152 6.78971 5.84574 6.78971 6.10122 7.0452C6.35671 7.30068 6.35671 7.7149 6.10122 7.97038L2.2336 11.838H14.3614C15.5098 11.838 16.6112 11.3818 17.4233 10.5697C18.2354 9.75764 18.6916 8.65623 18.6916 7.50779C18.6916 6.35934 18.2354 5.25794 17.4233 4.44586C16.6112 3.63379 15.5098 3.17757 14.3614 3.17757H13.1153C12.754 3.17757 12.4611 2.88467 12.4611 2.52337Z" fill="#171723"/>
</svg>
