<svg width="20" height="20" viewBox="0 0 20 20" fill="none" xmlns="http://www.w3.org/2000/svg">
<path fill-rule="evenodd" clip-rule="evenodd" d="M5.83334 5C5.73881 5.02492 5.64629 5.05075 5.5559 5.07749C3.7189 5.62078 3.33334 6.36872 3.33334 6.9005V17.6255C3.33334 18.1572 3.7189 18.9052 5.5559 19.4485C6.75832 19.8041 8.3366 20 10 20C11.6634 20 13.2417 19.8041 14.4441 19.4485C16.2811 18.9052 16.6667 18.1572 16.6667 17.6255V6.9005C16.6667 6.36872 16.2811 5.62078 14.4441 5.07749C14.3537 5.05075 14.2612 5.02492 14.1667 5V6.24707C15.1334 6.55364 15.3422 6.85217 15.3422 6.9005C15.3422 6.95104 15.1139 7.2752 14.0291 7.59604C12.9726 7.90853 11.504 8.08776 10 8.08776C8.49603 8.08776 7.02742 7.90853 5.97086 7.59604C4.8861 7.2752 4.65784 6.95104 4.65784 6.9005C4.65784 6.85217 4.86656 6.55364 5.83334 6.24707V5ZM10 18.8127C11.504 18.8127 12.9726 18.6335 14.0291 18.321C15.1139 18.0002 15.3422 17.676 15.3422 17.6255V15.5572C15.0904 15.6725 14.7936 15.7833 14.4441 15.8867C13.2417 16.2423 11.6634 16.4382 10 16.4382C8.3366 16.4382 6.75832 16.2423 5.5559 15.8867C5.20632 15.7833 4.90963 15.6725 4.65784 15.5572V17.6255C4.65784 17.676 4.8861 18.0002 5.97086 18.321C7.02742 18.6335 8.49603 18.8127 10 18.8127ZM5.5559 8.72351C5.20632 8.62013 4.90963 8.50932 4.65784 8.394V10.5019C4.65784 10.5524 4.8861 10.8766 5.97086 11.1974C7.02742 11.5099 8.49603 11.6891 10 11.6891C11.504 11.6891 12.9726 11.5099 14.0291 11.1974C15.1139 10.8766 15.3422 10.5524 15.3422 10.5019V8.394C15.0904 8.50928 14.7936 8.62013 14.4441 8.72351C13.2417 9.07917 11.6634 9.27503 10 9.27503C8.3366 9.27503 6.75832 9.07917 5.5559 8.72351ZM5.5559 12.3249C5.20632 12.2215 4.90963 12.1107 4.65784 11.9954V14.0637C4.65784 14.1142 4.8861 14.4384 5.97086 14.7592C7.02742 15.0717 8.49603 15.2509 10 15.2509C11.504 15.2509 12.9726 15.0717 14.0291 14.7592C15.1139 14.4384 15.3422 14.1142 15.3422 14.0637V11.9954C15.0904 12.1107 14.7936 12.2215 14.4441 12.3249C13.2417 12.6805 11.6634 12.8764 10 12.8764C8.3366 12.8764 6.75832 12.6805 5.5559 12.3249Z" fill="#171723"/>
<path d="M9.45117 0.229219L6.89426 2.80727C6.78561 2.91676 6.71161 3.05627 6.68161 3.20817C6.65162 3.36007 6.66699 3.51753 6.72577 3.66062L6.75217 3.71738C6.81728 3.84569 6.91626 3.95338 7.03819 4.0286C7.16012 4.10381 7.30028 4.14363 7.44323 4.14367H8.4472V6.05044C8.4472 6.25808 8.529 6.45721 8.67462 6.60403C8.82023 6.75085 9.01773 6.83333 9.22366 6.83333H10.7766L10.8348 6.83138C11.0302 6.81656 11.2127 6.72785 11.3459 6.58302C11.4791 6.4382 11.5531 6.24796 11.5531 6.05044L11.5527 4.14367H12.557C12.7106 4.14363 12.8607 4.0977 12.9883 4.01167C13.116 3.92564 13.2155 3.80339 13.2742 3.66035C13.333 3.51732 13.3484 3.35993 13.3184 3.20809C13.2885 3.05624 13.2146 2.91676 13.106 2.80727L10.5491 0.229219C10.4035 0.0824503 10.206 0 10.0001 0C9.79424 0 9.59678 0.0824503 9.45117 0.229219Z" fill="#171723"/>
</svg>
