<svg width="20" height="20" viewBox="0 0 20 20" fill="none" xmlns="http://www.w3.org/2000/svg">
<path fill-rule="evenodd" clip-rule="evenodd" d="M11.8749 0H2.29164C1.02499 0 0 1.02499 0 2.29164V15.2082C0 16.4748 1.02499 17.4998 2.29164 17.4998H9.07491C8.34158 16.4998 7.91658 15.2832 7.91658 13.9582C7.91658 10.6249 10.6249 7.91658 13.9582 7.91658C14.0249 7.91658 14.0999 7.91658 14.1665 7.92492V2.29164C14.1665 1.02499 13.1415 0 11.8749 0ZM3.3333 3.3333H6.6666C7.12493 3.3333 7.49992 3.70829 7.49992 4.16662C7.49992 4.62495 7.12493 4.99995 6.6666 4.99995H3.3333C2.87497 4.99995 2.49997 4.62495 2.49997 4.16662C2.49997 3.70829 2.87497 3.3333 3.3333 3.3333ZM7.49992 11.6665H3.3333C2.87497 11.6665 2.49997 11.2915 2.49997 10.8332C2.49997 10.3749 2.87497 9.9999 3.3333 9.9999H7.49992C7.95825 9.9999 8.33325 10.3749 8.33325 10.8332C8.33325 11.2915 7.95825 11.6665 7.49992 11.6665ZM10.8332 8.33325H3.3333C2.87497 8.33325 2.49997 7.95825 2.49997 7.49992C2.49997 7.04159 2.87497 6.6666 3.3333 6.6666H10.8332C11.2915 6.6666 11.6665 7.04159 11.6665 7.49992C11.6665 7.95825 11.2915 8.33325 10.8332 8.33325Z" fill="black"/>
<path fill-rule="evenodd" clip-rule="evenodd" d="M13.9582 18.3331C11.5457 18.3331 9.58323 16.3707 9.58323 13.9582C9.58323 11.5457 11.5457 9.58323 13.9582 9.58323C16.3707 9.58323 18.3331 11.5457 18.3331 13.9582C18.3331 14.8639 18.0565 15.7062 17.5834 16.405L19.7556 18.5773C20.0815 18.9031 20.0815 19.4298 19.7556 19.7556C19.5931 19.9181 19.3798 19.9998 19.1665 19.9998C18.9531 19.9998 18.7398 19.9181 18.5773 19.7556L16.405 17.5834C15.7062 18.0565 14.8639 18.3331 13.9582 18.3331ZM15.9268 15.8163C15.9069 15.8328 15.8876 15.8504 15.869 15.869C15.8504 15.8876 15.8328 15.9069 15.8163 15.9268C15.331 16.3851 14.6768 16.6665 13.9582 16.6665C12.4649 16.6665 11.2499 15.4515 11.2499 13.9582C11.2499 12.4649 12.4649 11.2499 13.9582 11.2499C15.4515 11.2499 16.6665 12.4649 16.6665 13.9582C16.6665 14.6768 16.3851 15.331 15.9268 15.8163Z" fill="black"/>
</svg>
