<svg width="20" height="20" viewBox="0 0 20 20" fill="none" xmlns="http://www.w3.org/2000/svg">
<path d="M8.77473 17.4995H2.2916C1.02747 17.4995 0 16.472 0 15.2079V2.2916C0 1.02747 1.02747 0 2.2916 0H11.8746C13.1388 0 14.1662 1.02747 14.1662 2.2916V8.15808C14.1662 8.50307 13.8862 8.78306 13.5412 8.78306C13.1963 8.78306 12.9163 8.50307 12.9163 8.15808V2.2916C12.9163 1.71745 12.4488 1.24996 11.8746 1.24996H2.2916C1.71745 1.24996 1.24996 1.71745 1.24996 2.2916V15.2079C1.24996 15.782 1.71745 16.2495 2.2916 16.2495H8.77473C9.11972 16.2495 9.39971 16.5295 9.39971 16.8745C9.39971 17.2195 9.11972 17.4995 8.77473 17.4995Z" fill="black"/>
<path fill-rule="evenodd" clip-rule="evenodd" d="M9.99969 14.1662C9.99969 16.4637 11.8688 18.3328 14.1662 18.3328C15.0901 18.3328 15.9447 18.0305 16.6364 17.5197L18.9327 19.816C19.0544 19.9385 19.2144 19.9994 19.3744 19.9994C19.5344 19.9994 19.6944 19.9385 19.8169 19.816C20.061 19.5719 20.061 19.1761 19.8169 18.9319L17.5204 16.6354C18.0308 15.9439 18.3328 15.0897 18.3328 14.1662C18.3328 11.8688 16.4637 9.99969 14.1662 9.99969C11.8688 9.99969 9.99969 11.8688 9.99969 14.1662ZM16.2784 16.1756C16.7766 15.6521 17.0828 14.9443 17.0828 14.1662C17.0828 12.5579 15.7745 11.2496 14.1662 11.2496C12.5579 11.2496 11.2496 12.5579 11.2496 14.1662C11.2496 15.7745 12.5579 17.0828 14.1662 17.0828C14.9446 17.0828 15.6528 16.7763 16.1763 16.2777C16.1911 16.259 16.2072 16.241 16.2245 16.2237C16.2417 16.2064 16.2597 16.1904 16.2784 16.1756Z" fill="black"/>
<path d="M3.1249 7.91642H11.0413C11.3863 7.91642 11.6663 7.63643 11.6663 7.29144C11.6663 6.94645 11.3863 6.66646 11.0413 6.66646H3.1249C2.77991 6.66646 2.49992 6.94645 2.49992 7.29144C2.49992 7.63643 2.77991 7.91642 3.1249 7.91642Z" fill="black"/>
<path d="M7.70809 11.2496H3.1249C2.77991 11.2496 2.49992 10.9697 2.49992 10.6247C2.49992 10.2797 2.77991 9.99969 3.1249 9.99969H7.70809C8.05308 9.99969 8.33307 10.2797 8.33307 10.6247C8.33307 10.9697 8.05308 11.2496 7.70809 11.2496Z" fill="black"/>
<path d="M3.1249 4.58319H6.87479C7.21977 4.58319 7.49977 4.3032 7.49977 3.95821C7.49977 3.61322 7.21977 3.33323 6.87479 3.33323H3.1249C2.77991 3.33323 2.49992 3.61322 2.49992 3.95821C2.49992 4.3032 2.77991 4.58319 3.1249 4.58319Z" fill="black"/>
</svg>
