<svg width="20" height="20" viewBox="0 0 20 20" fill="none" xmlns="http://www.w3.org/2000/svg">
<g clip-path="url(#clip0_16433_236990)">
<path d="M7.13505 4.87372L11.8567 10.1153L7.15169 15.1147C7.10653 15.1617 7.07039 15.218 7.04539 15.2803C7.02038 15.3426 7.00699 15.4097 7.00599 15.4776C7.00499 15.5455 7.01641 15.613 7.03958 15.6761C7.06275 15.7393 7.09721 15.7968 7.14098 15.8454C7.18474 15.8939 7.23694 15.9326 7.29455 15.9591C7.35217 15.9857 7.41406 15.9996 7.47664 16C7.53923 16.0004 7.60127 15.9874 7.65919 15.9616C7.7171 15.9358 7.76973 15.8978 7.81404 15.8499L12.8575 10.4908C12.902 10.4436 12.9375 10.3874 12.9619 10.3253C12.9864 10.2632 12.9993 10.1965 13 10.129C13.0007 10.0614 12.9891 9.99443 12.9659 9.93177C12.9427 9.86911 12.9084 9.81201 12.8649 9.76375L7.81218 4.15466C7.7682 4.10552 7.71556 4.0665 7.65739 4.03992C7.59922 4.01335 7.53672 3.99977 7.47361 4C7.38038 4.00001 7.28923 4.02988 7.21157 4.08588C7.13392 4.14189 7.07321 4.22152 7.03706 4.31481C7.00091 4.40811 6.99092 4.51091 7.00835 4.61034C7.02578 4.70976 7.06986 4.80137 7.13505 4.87372Z" fill="#171723"/>
</g>
<defs>
<clipPath id="clip0_16433_236990">
<rect width="20" height="20" fill="white"/>
</clipPath>
</defs>
</svg>
