<svg width="20" height="20" viewBox="0 0 20 20" fill="none" xmlns="http://www.w3.org/2000/svg">
<g clip-path="url(#clip0_10314_144998)">
<path d="M12.5137 9.60041L8.07689 5.25874C8.03791 5.21986 7.99161 5.18909 7.94066 5.16821C7.88972 5.14733 7.83513 5.13675 7.78008 5.13709C7.72502 5.13743 7.67057 5.14868 7.61989 5.17019C7.5692 5.1917 7.52328 5.22304 7.48478 5.2624C7.44628 5.30176 7.41596 5.34836 7.39558 5.39951C7.3752 5.45065 7.36516 5.50533 7.36603 5.56039C7.36691 5.61544 7.37869 5.66977 7.40069 5.72024C7.42269 5.77072 7.45448 5.81633 7.49421 5.85444L11.6333 9.90468L7.47957 14.152C7.44069 14.191 7.40992 14.2373 7.38903 14.2882C7.36815 14.3392 7.35758 14.3938 7.35792 14.4488C7.35826 14.5039 7.36951 14.5583 7.39101 14.609C7.41252 14.6597 7.44386 14.7056 7.48322 14.7441C7.52258 14.7826 7.56918 14.8129 7.62033 14.8333C7.67148 14.8537 7.72616 14.8637 7.78121 14.8629C7.83626 14.862 7.8906 14.8502 7.94107 14.8282C7.99154 14.8062 8.03715 14.7744 8.07527 14.7347L12.5203 10.1896C12.5585 10.1505 12.5887 10.1042 12.6091 10.0534C12.6295 10.0027 12.6397 9.94837 12.6391 9.89365C12.6385 9.83894 12.6271 9.78488 12.6056 9.73456C12.5841 9.68425 12.5529 9.63866 12.5137 9.60041Z" fill="#171723"/>
</g>
<defs>
<clipPath id="clip0_10314_144998">
<rect width="20" height="20" fill="white"/>
</clipPath>
</defs>
</svg>
