<svg width="20" height="20" viewBox="0 0 20 20" fill="none" xmlns="http://www.w3.org/2000/svg">
<path d="M10.024 1.22266C5.08531 1.22266 1.08264 5.22532 1.08264 10.164C1.08264 15.1027 5.08664 19.1067 10.0253 19.1067C14.964 19.1067 18.968 15.1027 18.968 10.164C18.968 5.22532 14.964 1.22266 10.024 1.22266ZM6.92398 15.3027C6.95464 15.3573 6.97064 15.4187 6.96798 15.4813C6.96131 15.6533 6.82664 15.7947 6.64931 15.7867C6.52798 15.7813 6.41731 15.7187 6.31331 15.6547C5.56131 15.1933 4.89198 14.5427 4.54664 13.72C4.23998 13.0067 4.20264 12.1907 4.40931 11.4453C4.91198 9.58932 6.92664 8.04399 8.50664 7.84799C9.87198 7.67732 10.2333 8.55732 9.40798 9.20132C7.01864 10.98 5.24264 12.2387 6.92398 15.3027ZM15.9093 12.7427C15.424 13.7453 14.8893 14.4187 14.5173 14.8133C13.4106 16.0453 11.6786 16.852 10.0786 16.1893C9.15997 15.808 8.44131 14.9533 8.31331 13.9533C7.96531 10.9987 13.212 10.296 12.492 7.29866C12.1506 6.32799 11.0093 5.90532 10.0733 5.80799C8.39998 5.62799 6.78931 6.37732 5.64398 7.56932C5.33331 7.85199 5.02264 8.29332 4.58531 8.36132C4.27464 8.40399 3.97998 8.17732 4.01864 7.84932C4.10531 7.11332 4.92664 6.27466 5.44931 5.76932C7.26131 4.08532 9.97597 3.49066 12.3373 4.19466C13.652 4.58266 14.9546 5.49732 15.1866 6.93732C15.4093 8.36399 14.5826 9.72132 13.6346 10.716C12.8426 11.5507 11.8333 12.0973 10.996 12.8747C10.5066 13.3293 10.3066 13.888 10.8973 14.3613C12.128 15.02 13.4533 14.04 14.2373 13.112C14.4013 12.9147 14.552 12.708 14.6973 12.4973C14.82 12.3173 14.9346 12.112 15.0973 11.964C15.356 11.668 15.8226 11.696 15.9933 12.068C16.0813 12.2773 16.0026 12.5453 15.908 12.7427H15.9093Z" fill="#6706CE"/>
</svg>
