<svg width="20" height="20" viewBox="0 0 20 20" fill="none" xmlns="http://www.w3.org/2000/svg">
<g clip-path="url(#clip0_5313_35216)">
<path d="M16.8062 20H14.537C14.4021 20 14.2728 19.9464 14.1774 19.8511C14.0821 19.7557 14.0285 19.6264 14.0285 19.4916C14.0285 19.3567 14.0821 19.2274 14.1774 19.132C14.2728 19.0367 14.4021 18.9831 14.537 18.9831H16.8062C16.8284 18.9829 16.8507 18.9842 16.8727 18.9871C16.9253 18.8748 17.0176 18.786 17.1319 18.7378C17.4998 18.581 17.8329 18.3528 18.1121 18.0665C18.1586 18.018 18.2143 17.9793 18.2759 17.9524C18.3375 17.9256 18.4038 17.9112 18.471 17.9101C18.5381 17.909 18.6049 17.9213 18.6673 17.9462C18.7297 17.971 18.7866 18.008 18.8346 18.055C18.8826 18.102 18.9209 18.158 18.9471 18.2199C18.9734 18.2817 18.9871 18.3482 18.9875 18.4154C18.9879 18.4825 18.975 18.5491 18.9495 18.6113C18.9241 18.6735 18.8865 18.73 18.8391 18.7776C18.4664 19.1594 18.0219 19.4639 17.5312 19.6733C17.4479 19.7099 17.3561 19.7226 17.266 19.71C17.2245 19.7968 17.1594 19.8701 17.078 19.9214C16.9966 19.9728 16.9024 20 16.8062 20ZM13.1407 20H11.7454C11.6105 20 11.4812 19.9464 11.3858 19.8511C11.2905 19.7557 11.2369 19.6264 11.2369 19.4916C11.2369 19.3567 11.2905 19.2274 11.3858 19.132C11.4812 19.0367 11.6105 18.9831 11.7454 18.9831H13.1407C13.2755 18.9831 13.4049 19.0367 13.5002 19.132C13.5956 19.2274 13.6491 19.3567 13.6491 19.4916C13.6491 19.6264 13.5956 19.7557 13.5002 19.8511C13.4049 19.9464 13.2755 20 13.1407 20ZM10.3491 20H8.95382C8.81897 20 8.68964 19.9464 8.59428 19.8511C8.49893 19.7557 8.44535 19.6264 8.44535 19.4916C8.44535 19.3567 8.49893 19.2274 8.59428 19.132C8.68964 19.0367 8.81897 18.9831 8.95382 18.9831H10.3491C10.4839 18.9831 10.6132 19.0367 10.7086 19.132C10.8039 19.2274 10.8575 19.3567 10.8575 19.4916C10.8575 19.6264 10.8039 19.7557 10.7086 19.8511C10.6132 19.9464 10.4839 20 10.3491 20H10.3491ZM7.55747 20H6.16217C6.02732 20 5.89799 19.9464 5.80263 19.8511C5.70727 19.7557 5.6537 19.6264 5.6537 19.4916C5.6537 19.3567 5.70727 19.2274 5.80263 19.132C5.89799 19.0367 6.02732 18.9831 6.16217 18.9831H7.55747C7.69233 18.9831 7.82166 19.0367 7.91701 19.132C8.01237 19.2274 8.06594 19.3567 8.06594 19.4916C8.06594 19.6264 8.01237 19.7557 7.91701 19.8511C7.82166 19.9464 7.69233 20 7.55747 20ZM4.76588 20H4.06773C3.80166 20.0003 3.5362 19.9744 3.27523 19.9225C3.14335 19.8959 3.02742 19.818 2.95286 19.706C2.8783 19.594 2.85119 19.457 2.87748 19.325C2.90377 19.193 2.98131 19.0769 3.0931 19.002C3.20489 18.9271 3.34182 18.8996 3.47386 18.9255C3.66951 18.9638 3.86839 18.9831 4.06775 18.9831H4.7659C4.90076 18.9831 5.03009 19.0367 5.12544 19.132C5.2208 19.2274 5.27437 19.3567 5.27437 19.4916C5.27437 19.6264 5.2208 19.7557 5.12544 19.8511C5.03009 19.9464 4.90076 20 4.7659 20H4.76588ZM2.0944 19.4032C1.99372 19.4031 1.89529 19.3734 1.81137 19.3178C1.36865 19.0216 0.988126 18.6418 0.691249 18.1996C0.65395 18.1443 0.627907 18.0822 0.614608 18.0168C0.601309 17.9515 0.601014 17.8842 0.613739 17.8187C0.626465 17.7532 0.651962 17.6909 0.688775 17.6353C0.725588 17.5797 0.772995 17.5318 0.828291 17.4945C0.883587 17.4572 0.945688 17.4312 1.01105 17.4179C1.07641 17.4046 1.14375 17.4043 1.20922 17.417C1.2747 17.4298 1.33702 17.4552 1.39265 17.4921C1.44827 17.5289 1.49609 17.5763 1.53339 17.6316C1.75761 17.9637 2.04432 18.2491 2.37753 18.4717C2.46831 18.5323 2.53717 18.6205 2.57394 18.7233C2.61071 18.8261 2.61342 18.938 2.58168 19.0425C2.54995 19.1469 2.48544 19.2384 2.39771 19.3033C2.30997 19.3683 2.20366 19.4033 2.09449 19.4032L2.0944 19.4032ZM19.2353 17.7706C19.1521 17.7706 19.0702 17.7502 18.9968 17.7112C18.9234 17.6722 18.8606 17.6157 18.814 17.5468C18.7675 17.4779 18.7385 17.3986 18.7297 17.3159C18.7209 17.2332 18.7326 17.1496 18.7636 17.0725C18.9092 16.7101 18.9837 16.323 18.9831 15.9325C18.9824 15.7958 19.0352 15.6643 19.1302 15.5662C19.2252 15.468 19.3549 15.4109 19.4915 15.4071C19.5575 15.4053 19.6231 15.4167 19.6845 15.4406C19.746 15.4645 19.8021 15.5005 19.8495 15.5464C19.8968 15.5923 19.9345 15.6472 19.9604 15.7078C19.9862 15.7685 19.9997 15.8337 20 15.8997V15.9325C20.0007 16.453 19.9012 16.9688 19.707 17.4518C19.6693 17.546 19.6042 17.6268 19.5201 17.6836C19.436 17.7404 19.3368 17.7707 19.2353 17.7706ZM0.577984 17.145C0.460726 17.1447 0.347172 17.1039 0.256516 17.0295C0.16586 16.9551 0.103663 16.8518 0.0804393 16.7368C0.0275398 16.4726 0.000598668 16.2039 8.56304e-08 15.9345V15.2452C8.56304e-08 15.1104 0.0535706 14.9811 0.148926 14.8857C0.244282 14.7904 0.373612 14.7368 0.508466 14.7368C0.64332 14.7368 0.77265 14.7904 0.868006 14.8857C0.963362 14.9811 1.01693 15.1104 1.01693 15.2452V15.9324C1.01746 16.1352 1.03775 16.3374 1.07751 16.5362C1.10404 16.6684 1.077 16.8057 1.00233 16.918C0.927659 17.0303 0.811465 17.1084 0.67928 17.135C0.645941 17.1418 0.612 17.1451 0.577984 17.145ZM19.4915 15.0119C19.4247 15.0119 19.3586 14.9988 19.2969 14.9733C19.2352 14.9477 19.1791 14.9103 19.1319 14.8631C19.0847 14.8159 19.0472 14.7598 19.0217 14.6981C18.9961 14.6364 18.983 14.5702 18.9831 14.5035V13.1082C18.9831 12.9734 19.0366 12.8441 19.132 12.7487C19.2273 12.6534 19.3567 12.5998 19.4915 12.5998C19.6264 12.5998 19.7557 12.6534 19.8511 12.7487C19.9464 12.8441 20 12.9734 20 13.1082V14.5035C20 14.5702 19.9869 14.6364 19.9614 14.6981C19.9358 14.7598 19.8984 14.8159 19.8511 14.8631C19.8039 14.9103 19.7479 14.9477 19.6862 14.9733C19.6244 14.9988 19.5583 15.0119 19.4915 15.0119ZM0.508466 14.3585C0.441682 14.3586 0.375546 14.3454 0.313839 14.3199C0.252131 14.2944 0.196063 14.2569 0.14884 14.2097C0.101617 14.1625 0.064165 14.1064 0.0386259 14.0447C0.0130868 13.983 -3.86826e-05 13.9169 8.56304e-08 13.8501V12.4539C8.56304e-08 12.3191 0.0535706 12.1897 0.148926 12.0944C0.244282 11.999 0.373612 11.9455 0.508466 11.9455C0.64332 11.9455 0.77265 11.999 0.868006 12.0944C0.963362 12.1897 1.01693 12.3191 1.01693 12.4539V13.8501C1.01697 13.9169 1.00385 13.983 0.978306 14.0447C0.952767 14.1064 0.915315 14.1625 0.868092 14.2097C0.820869 14.2569 0.764801 14.2944 0.703093 14.3199C0.641386 14.3454 0.57525 14.3586 0.508466 14.3585ZM19.4915 12.2205C19.4247 12.2205 19.3586 12.2074 19.2969 12.1819C19.2352 12.1563 19.1791 12.1189 19.1319 12.0717C19.0847 12.0244 19.0472 11.9684 19.0217 11.9067C18.9962 11.845 18.983 11.7788 18.9831 11.712V10.3168C18.9831 10.1819 19.0366 10.0526 19.132 9.95725C19.2273 9.8619 19.3567 9.80833 19.4915 9.80833C19.6264 9.80833 19.7557 9.8619 19.8511 9.95725C19.9464 10.0526 20 10.1819 20 10.3168V11.712C20 11.7788 19.9869 11.8449 19.9614 11.9066C19.9358 11.9683 19.8984 12.0244 19.8512 12.0716C19.8039 12.1188 19.7479 12.1563 19.6862 12.1818C19.6244 12.2074 19.5583 12.2205 19.4915 12.2204L19.4915 12.2205ZM0.508466 11.5671C0.441683 11.5671 0.375547 11.554 0.31384 11.5284C0.252133 11.5029 0.196066 11.4655 0.148843 11.4182C0.10162 11.371 0.0641681 11.3149 0.0386286 11.2532C0.013089 11.1915 -3.73444e-05 11.1254 8.56304e-08 11.0586V9.66236C8.56304e-08 9.52751 0.0535706 9.39819 0.148926 9.30284C0.244282 9.20749 0.373612 9.15392 0.508466 9.15392C0.64332 9.15392 0.77265 9.20749 0.868006 9.30284C0.963362 9.39819 1.01693 9.52751 1.01693 9.66236V11.0586C1.01697 11.1254 1.00384 11.1915 0.978303 11.2532C0.952764 11.3149 0.915312 11.371 0.868089 11.4182C0.820866 11.4654 0.764799 11.5029 0.703092 11.5284C0.641385 11.5539 0.575249 11.5671 0.508466 11.567V11.5671ZM19.4915 9.43002C19.4247 9.43006 19.3586 9.41693 19.2969 9.3914C19.2352 9.36586 19.1791 9.32841 19.1319 9.28119C19.0847 9.23397 19.0472 9.1779 19.0217 9.1162C18.9962 9.05449 18.983 8.98836 18.9831 8.92158V7.5254C18.9831 7.39056 19.0366 7.26123 19.132 7.16588C19.2273 7.07053 19.3567 7.01696 19.4915 7.01696C19.6264 7.01696 19.7557 7.07053 19.8511 7.16588C19.9464 7.26123 20 7.39056 20 7.5254V8.92158C20 8.98836 19.9869 9.05449 19.9614 9.11619C19.9358 9.17789 19.8984 9.23395 19.8511 9.28117C19.8039 9.32838 19.7479 9.36583 19.6861 9.39137C19.6244 9.4169 19.5583 9.43002 19.4915 9.42998L19.4915 9.43002ZM0.508466 8.77561C0.441682 8.77565 0.375546 8.76252 0.313839 8.73699C0.252131 8.71145 0.196063 8.674 0.14884 8.62678C0.101617 8.57956 0.064165 8.52349 0.0386259 8.46179C0.0130868 8.40008 -3.86826e-05 8.33395 8.56304e-08 8.26717V6.8709C8.56304e-08 6.73605 0.0535706 6.60673 0.148926 6.51138C0.244282 6.41603 0.373612 6.36246 0.508466 6.36246C0.64332 6.36246 0.77265 6.41603 0.868006 6.51138C0.963362 6.60673 1.01693 6.73605 1.01693 6.8709V8.26713C1.01697 8.33391 1.00385 8.40004 0.978306 8.46175C0.952767 8.52345 0.915315 8.57951 0.868092 8.62674C0.820869 8.67396 0.764801 8.71141 0.703093 8.73694C0.641386 8.76248 0.57525 8.77561 0.508466 8.77557V8.77561ZM19.4915 6.63857C19.4247 6.63861 19.3586 6.62548 19.2969 6.59995C19.2352 6.57441 19.1791 6.53696 19.1319 6.48974C19.0847 6.44252 19.0472 6.38645 19.0217 6.32475C18.9962 6.26304 18.983 6.19691 18.9831 6.13013V4.73386C18.9831 4.59901 19.0366 4.46969 19.132 4.37434C19.2273 4.27899 19.3567 4.22542 19.4915 4.22542C19.6264 4.22542 19.7557 4.27899 19.8511 4.37434C19.9464 4.46969 20 4.59901 20 4.73386V6.13009C20 6.19687 19.9869 6.263 19.9614 6.32471C19.9358 6.38641 19.8984 6.44248 19.8512 6.4897C19.8039 6.53692 19.7479 6.57437 19.6862 6.59991C19.6244 6.62544 19.5583 6.63857 19.4915 6.63853L19.4915 6.63857ZM0.508466 5.98415C0.441682 5.98419 0.375546 5.97106 0.313839 5.94552C0.252131 5.91999 0.196063 5.88254 0.14884 5.83531C0.101617 5.78809 0.064165 5.73203 0.0386259 5.67032C0.0130868 5.60862 -3.86826e-05 5.54249 8.56304e-08 5.47571V4.07953C8.56304e-08 3.94468 0.0535706 3.81536 0.148926 3.72001C0.244282 3.62466 0.373612 3.57109 0.508466 3.57109C0.64332 3.57109 0.77265 3.62466 0.868006 3.72001C0.963362 3.81536 1.01693 3.94468 1.01693 4.07953V5.47571C1.01697 5.54248 1.00384 5.60861 0.978294 5.67031C0.952753 5.73201 0.9153 5.78807 0.868078 5.83529C0.820855 5.8825 0.764789 5.91995 0.703084 5.94549C0.641379 5.97102 0.575246 5.98414 0.508466 5.98411V5.98415ZM19.416 3.85303C19.2993 3.85284 19.1862 3.81246 19.0957 3.73866C19.0053 3.66487 18.9431 3.56217 18.9195 3.44786C18.8389 3.05596 18.6813 2.68397 18.4557 2.35352C18.4182 2.29836 18.3918 2.23634 18.3783 2.17101C18.3647 2.10567 18.3641 2.0383 18.3765 1.97273C18.389 1.90717 18.4142 1.8447 18.4508 1.78889C18.4874 1.73308 18.5346 1.68503 18.5898 1.64747C18.645 1.60991 18.707 1.58359 18.7723 1.57C18.8377 1.55641 18.905 1.55582 18.9706 1.56827C19.0362 1.58072 19.0986 1.60596 19.1545 1.64255C19.2103 1.67914 19.2583 1.72637 19.2959 1.78153C19.5968 2.22233 19.8071 2.71854 19.9146 3.24131C19.9283 3.30666 19.9289 3.37406 19.9165 3.43967C19.9041 3.50527 19.8789 3.56777 19.8422 3.62359C19.8056 3.67941 19.7583 3.72745 19.7031 3.76495C19.6478 3.80245 19.5857 3.82867 19.5203 3.84211C19.4861 3.84967 19.4511 3.85333 19.416 3.85303ZM0.772604 3.2284C0.688965 3.22865 0.606558 3.20825 0.532705 3.16899C0.458851 3.12973 0.395837 3.07285 0.349261 3.00338C0.302685 2.93391 0.273989 2.85402 0.265723 2.77079C0.257457 2.68756 0.269875 2.60358 0.301876 2.52631C0.504864 2.03318 0.802812 1.58476 1.17878 1.20655C1.2743 1.11306 1.4028 1.06093 1.53647 1.06146C1.67013 1.06199 1.79822 1.11513 1.89299 1.20938C1.98777 1.30363 2.04163 1.43141 2.0429 1.56507C2.04417 1.69872 1.99275 1.8275 1.89978 1.92354C1.61748 2.20677 1.39433 2.54332 1.24334 2.9136C1.20466 3.00664 1.13934 3.08617 1.05558 3.14218C0.97182 3.1982 0.873367 3.22819 0.772604 3.2284ZM17.8877 1.60378C17.788 1.60405 17.6905 1.57467 17.6076 1.51938C17.2744 1.29903 16.9007 1.14713 16.5083 1.0725C16.4425 1.0602 16.3798 1.03503 16.3237 0.998433C16.2677 0.961835 16.2194 0.91453 16.1816 0.85923C16.1439 0.803931 16.1175 0.741726 16.1038 0.676184C16.0902 0.610643 16.0897 0.543054 16.1022 0.477297C16.1148 0.41154 16.1402 0.348908 16.177 0.292994C16.2138 0.23708 16.2613 0.188985 16.3167 0.151468C16.3722 0.113951 16.4345 0.087751 16.5001 0.0743702C16.5657 0.0609895 16.6333 0.0606918 16.699 0.073494C17.2233 0.173624 17.7225 0.376818 18.1677 0.671298C18.2589 0.731545 18.3282 0.819552 18.3654 0.922278C18.4026 1.025 18.4057 1.13698 18.3743 1.24162C18.3429 1.34626 18.2786 1.43799 18.1909 1.50322C18.1033 1.56845 17.9969 1.60371 17.8877 1.60378ZM2.68732 1.29493C2.56991 1.29491 2.45613 1.25425 2.3653 1.17986C2.27446 1.10547 2.21218 1.00194 2.18901 0.886838C2.16585 0.771741 2.18324 0.652175 2.23824 0.548444C2.29323 0.444713 2.38243 0.363212 2.49069 0.317779C2.98186 0.110979 3.50898 0.00299657 4.04191 3.87208e-06H4.04588C4.18074 -0.000522029 4.31028 0.0525415 4.406 0.147521C4.50173 0.2425 4.55581 0.371615 4.55633 0.506462C4.55686 0.641308 4.50379 0.770841 4.40881 0.866564C4.31383 0.962287 4.1847 1.01636 4.04985 1.01689C3.64934 1.01903 3.25318 1.10002 2.88396 1.25521C2.82171 1.2814 2.75486 1.2949 2.68732 1.29493ZM15.2123 1.01787H13.817C13.6821 1.01787 13.5528 0.964304 13.4574 0.868953C13.3621 0.773602 13.3085 0.644278 13.3085 0.509431C13.3085 0.374584 13.3621 0.24526 13.4574 0.149909C13.5528 0.0545579 13.6821 0.000990374 13.817 0.000990374H15.2123C15.3471 0.000990374 15.4765 0.0545579 15.5718 0.149909C15.6672 0.24526 15.7207 0.374584 15.7207 0.509431C15.7207 0.644278 15.6672 0.773602 15.5718 0.868953C15.4765 0.964304 15.3471 1.01787 15.2123 1.01787ZM12.4207 1.01787H11.0254C10.8905 1.01787 10.7612 0.964304 10.6658 0.868953C10.5705 0.773602 10.5169 0.644278 10.5169 0.509431C10.5169 0.374584 10.5705 0.24526 10.6658 0.149909C10.7612 0.0545579 10.8905 0.000990374 11.0254 0.000990374H12.4207C12.5555 0.000990374 12.6849 0.0545579 12.7802 0.149909C12.8756 0.24526 12.9291 0.374584 12.9291 0.509431C12.9291 0.644278 12.8756 0.773602 12.7802 0.868953C12.6849 0.964304 12.5555 1.01787 12.4207 1.01787ZM9.62907 1.01787H8.23377C8.09892 1.01787 7.96959 0.964304 7.87423 0.868953C7.77888 0.773602 7.72531 0.644278 7.72531 0.509431C7.72531 0.374584 7.77888 0.24526 7.87423 0.149909C7.96959 0.0545579 8.09892 0.000990374 8.23377 0.000990374H9.62906C9.76392 0.000990374 9.89325 0.0545579 9.9886 0.149909C10.084 0.24526 10.1375 0.374584 10.1375 0.509431C10.1375 0.644278 10.084 0.773602 9.9886 0.868953C9.89325 0.964304 9.76392 1.01787 9.62906 1.01787H9.62907ZM6.83747 1.01787H5.44217C5.30732 1.01787 5.17799 0.964304 5.08263 0.868953C4.98728 0.773602 4.93371 0.644278 4.93371 0.509431C4.93371 0.374584 4.98728 0.24526 5.08263 0.149909C5.17799 0.0545579 5.30732 0.000990374 5.44217 0.000990374H6.83747C6.97233 0.000990374 7.10166 0.0545579 7.19701 0.149909C7.29237 0.24526 7.34594 0.374584 7.34594 0.509431C7.34594 0.644278 7.29237 0.773602 7.19701 0.868953C7.10166 0.964304 6.97233 1.01787 6.83747 1.01787Z" fill="#171723"/>
<path d="M12.8704 4.4353H7.12993C5.64159 4.4353 4.43506 5.64178 4.43506 7.13004V12.8702C4.43506 14.3585 5.64159 15.5649 7.12993 15.5649H12.8704C14.3587 15.5649 15.5653 14.3585 15.5653 12.8702V7.13004C15.5653 5.64178 14.3587 4.4353 12.8704 4.4353Z" fill="#171723"/>
</g>
<defs>
<clipPath id="clip0_5313_35216">
<rect width="20" height="20" fill="white"/>
</clipPath>
</defs>
</svg>
