<svg width="20" height="20" viewBox="0 0 20 20" fill="none" xmlns="http://www.w3.org/2000/svg">
<path d="M5.36231 13.1731C5.71606 13.2853 6.02057 13.469 6.27585 13.7242C6.53099 13.9794 6.71467 14.284 6.82689 14.6377H9V15.721H6.82689C6.67522 16.157 6.41967 16.523 6.06022 16.819C5.70064 17.1148 5.28744 17.2627 4.82064 17.2627C4.24189 17.2627 3.74994 17.0602 3.3448 16.6552C2.9398 16.2501 2.7373 15.7581 2.7373 15.1794C2.7373 14.7126 2.88522 14.2959 3.18105 13.9294C3.47703 13.563 3.843 13.304 4.27897 13.1523V6.80604C3.843 6.65437 3.47703 6.39882 3.18105 6.03937C2.88522 5.67979 2.7373 5.27354 2.7373 4.82062C2.7373 4.22798 2.9398 3.73257 3.3448 3.33437C3.74994 2.93632 4.24189 2.73729 4.82064 2.73729C5.28744 2.73729 5.70064 2.88173 6.06022 3.17062C6.41967 3.45965 6.67522 3.8291 6.82689 4.27896H13.194C13.3372 3.81521 13.5926 3.44229 13.9602 3.16021C14.3279 2.87826 14.7342 2.73729 15.1794 2.73729C15.772 2.73729 16.2674 2.93632 16.6656 3.33437C17.0637 3.73257 17.2627 4.22798 17.2627 4.82062C17.2627 5.26576 17.1217 5.67215 16.8398 6.03979C16.5577 6.40743 16.1848 6.66284 15.7211 6.80604V8.99998H14.6377V6.80604C14.2948 6.69396 13.9922 6.5118 13.73 6.25958C13.4677 6.00736 13.282 5.70826 13.1731 5.36229H6.82689C6.71536 5.70826 6.53258 6.00597 6.27855 6.25541C6.02453 6.505 5.71911 6.68854 5.36231 6.80604V13.1731ZM4.82064 5.82062C5.10397 5.82062 5.34147 5.72479 5.53314 5.53312C5.7248 5.34146 5.82064 5.10396 5.82064 4.82062C5.82064 4.53729 5.7248 4.29979 5.53314 4.10812C5.34147 3.91646 5.10397 3.82062 4.82064 3.82062C4.5373 3.82062 4.2998 3.91646 4.10814 4.10812C3.91647 4.29979 3.82064 4.53729 3.82064 4.82062C3.82064 5.10396 3.91647 5.34146 4.10814 5.53312C4.2998 5.72479 4.5373 5.82062 4.82064 5.82062ZM15.1794 5.82062C15.4627 5.82062 15.7002 5.72479 15.8919 5.53312C16.0836 5.34146 16.1794 5.10396 16.1794 4.82062C16.1794 4.53729 16.0836 4.29979 15.8919 4.10812C15.7002 3.91646 15.4627 3.82062 15.1794 3.82062C14.8961 3.82062 14.6586 3.91646 14.4669 4.10812C14.2752 4.29979 14.1794 4.53729 14.1794 4.82062C14.1794 5.10396 14.2752 5.34146 14.4669 5.53312C14.6586 5.72479 14.8961 5.82062 15.1794 5.82062ZM4.82064 16.1794C5.10397 16.1794 5.34147 16.0835 5.53314 15.8919C5.7248 15.7002 5.82064 15.4627 5.82064 15.1794C5.82064 14.896 5.7248 14.6585 5.53314 14.4669C5.34147 14.2752 5.10397 14.1794 4.82064 14.1794C4.5373 14.1794 4.2998 14.2752 4.10814 14.4669C3.91647 14.6585 3.82064 14.896 3.82064 15.1794C3.82064 15.4627 3.91647 15.7002 4.10814 15.8919C4.2998 16.0835 4.5373 16.1794 4.82064 16.1794Z" fill="#171723"/>
<path d="M14.4287 11.7975L18 12.0983L15.2861 14.3805L16.0772 17.8004L12.9795 15.987L9.88087 17.8004L10.7334 14.3805L8.00001 12.0983L11.6123 11.7975L13 8.57L14.4287 11.7975ZM12.5303 12.1921L12.294 12.7438L10.5117 12.8922L11.8555 14.0143L11.7041 14.6227L11.4258 15.736L12.9795 14.8278L14.5791 15.7643L14.1738 14.0094L14.6426 13.6159L15.5029 12.8913L13.7549 12.7438L13.0127 11.07L12.5303 12.1921Z" fill="#171723"/>
<path d="M11.2004 8.90021L9.50021 10.6004L7.80001 8.90021L9.50021 7.20001L11.2004 8.90021ZM9.07247 8.89923L9.50021 9.32696L9.92697 8.89923L9.50021 8.47247L9.07247 8.89923Z" fill="#171723"/>
</svg>
