<svg width="20" height="20" viewBox="0 0 20 20" fill="none" xmlns="http://www.w3.org/2000/svg">
<path d="M5.65903 4.63925L4.83321 3.67828C6.5627 1.98734 8.7834 1.09727 11.0583 1.18324C13.3332 1.2692 15.4976 2.32497 17.1256 4.14279C17.2235 4.25126 17.3551 4.31096 17.4915 4.30882C17.6279 4.30668 17.7579 4.24287 17.8532 4.13137C17.9486 4.01987 18.0013 3.86976 18 3.71391C17.9986 3.55806 17.9433 3.40916 17.8461 3.29982C16.0249 1.2671 13.6015 0.0910481 11.0568 0.00506917C8.51213 -0.0809097 6.03215 0.929465 4.10905 2.83568L3.25356 1.8402C3.2295 1.8122 3.19941 1.79194 3.16632 1.78144C3.13323 1.77095 3.09831 1.77059 3.06506 1.7804C3.03182 1.79022 3.00142 1.80986 2.97692 1.83735C2.95242 1.86485 2.93468 1.89923 2.92549 1.93704L2.00714 5.71672C1.99795 5.75452 1.99763 5.79443 2.00621 5.83241C2.01479 5.8704 2.03198 5.90514 2.05604 5.93313C2.0801 5.96112 2.11019 5.98138 2.14327 5.99187C2.17636 6.00236 2.21128 6.0027 2.24452 5.99288L5.56829 5.01229C5.60156 5.00252 5.63198 4.9829 5.65651 4.95541C5.68103 4.92793 5.69878 4.89355 5.70798 4.85573C5.71718 4.81791 5.7175 4.77799 5.7089 4.73999C5.70031 4.70199 5.68311 4.66724 5.65903 4.63925Z" fill="#171723"/>
<path d="M10.8678 5.14656C10.7683 5.05244 10.6365 5 10.4995 5C10.3626 5 10.2308 5.05244 10.1312 5.14656L3.1526 12.1285C3.10422 12.1769 3.06585 12.2343 3.03966 12.2975C3.01348 12.3608 3 12.4285 3 12.4969C3 12.5654 3.01348 12.6331 3.03966 12.6964C3.06585 12.7596 3.10422 12.817 3.1526 12.8654L10.1312 19.8473C10.1796 19.8957 10.237 19.9341 10.3002 19.9603C10.3634 19.9865 10.4311 20 10.4995 20C10.5679 20 10.6356 19.9865 10.6988 19.9603C10.762 19.9341 10.8194 19.8957 10.8678 19.8473L17.8474 12.8654C17.8958 12.817 17.9342 12.7596 17.9603 12.6964C17.9865 12.6331 18 12.5654 18 12.4969C18 12.4285 17.9865 12.3608 17.9603 12.2975C17.9342 12.2343 17.8958 12.1769 17.8474 12.1285L10.8678 5.14656ZM10.4995 18.742L4.25753 12.497L10.4995 6.25195L16.7425 12.497L10.4995 18.742Z" fill="#171723"/>
</svg>
