<svg width="24" height="24" viewBox="0 0 24 24" fill="none" xmlns="http://www.w3.org/2000/svg">
<mask id="mask0_18341_1566" style="mask-type:alpha" maskUnits="userSpaceOnUse" x="0" y="0" width="24" height="24">
<rect width="24" height="24" rx="12" fill="#D9D9D9"/>
</mask>
<g mask="url(#mask0_18341_1566)">
<path fill-rule="evenodd" clip-rule="evenodd" d="M12 0C5.37258 0 0 5.37258 0 12C0 17.5507 3.76864 22.2211 8.88677 23.5922V24.8257C8.88737 25.2433 9.0536 25.6436 9.34898 25.9387C9.64437 26.2338 10.0448 26.3997 10.4623 26.4H13.9457C14.363 26.3995 14.7632 26.2334 15.0583 25.9383C15.3534 25.6432 15.5194 25.2431 15.52 24.8257L15.5197 23.4756C20.4296 21.9715 24 17.4027 24 12C24 5.37258 18.6274 0 12 0ZM15.5197 23.4756L15.5186 18.4816C15.5534 18.0268 15.4916 17.5697 15.3374 17.1404C15.3151 17.0807 15.2928 17.0216 15.2678 16.9632C17.3948 16.5226 19.6742 15.2694 19.6742 11.1709C19.676 10.0842 19.3058 9.02966 18.6251 8.18257C18.8939 7.20221 18.8217 6.15963 18.4203 5.22569C18.3815 5.13491 18.3231 5.0538 18.2493 4.98811C18.1756 4.92242 18.0883 4.87375 17.9936 4.84557C17.7993 4.79045 16.7699 4.58494 14.7282 5.88352C13.0686 5.48437 11.3381 5.48437 9.67849 5.88352C7.63811 4.58497 6.61135 4.79045 6.41441 4.84557C6.32012 4.87396 6.23317 4.92264 6.15968 4.98819C6.08619 5.05374 6.02794 5.13458 5.989 5.22503C5.58606 6.15847 5.5129 7.20127 5.78156 8.18183C5.09605 9.03539 4.72556 10.0991 4.73247 11.1938C4.73247 15.247 7.01839 16.5127 9.14542 16.9756C9.12047 17.0327 9.09684 17.0911 9.07583 17.1508C8.92385 17.5594 8.85944 17.9953 8.88677 18.4303V18.5652C8.08329 18.7925 7.22364 18.7082 6.47955 18.3293C5.73546 17.9504 5.16173 17.3047 4.87296 16.5212C4.79296 16.3622 4.65314 16.2414 4.48418 16.1853C4.31521 16.1292 4.13089 16.1424 3.97165 16.222C3.81241 16.3016 3.69125 16.4412 3.63475 16.61C3.57825 16.7788 3.59103 16.9632 3.67027 17.1226C4.02204 17.9731 4.61527 18.7019 5.37667 19.219C6.13806 19.7361 7.03426 20.0188 7.95455 20.0322C8.26721 20.0302 8.57912 20.0011 8.88677 19.9453V23.5922C9.87961 23.8582 10.9232 24 12 24C13.2247 24 14.4066 23.8165 15.5197 23.4756Z" fill="#171723"/>
</g>
</svg>
