<svg width="20" height="20" viewBox="0 0 20 20" fill="none" xmlns="http://www.w3.org/2000/svg">
<path d="M15.3324 19.9878C12.9093 20.2093 10.8833 17.3699 9.33023 15.9297C8.54489 21.5882 -0.0058357 21.0519 2.98873e-06 15.3117C0.00292234 12.9008 2.98873e-06 7.00909 2.98873e-06 4.67398C2.98873e-06 3.83439 0.230631 2.98897 0.662694 2.27182C1.48303 0.881245 3.06824 -0.0166499 4.68263 0.000841559C7.11445 0.00375681 12.9707 -0.00207369 15.3324 0.000841559C21.0777 0.000841559 21.6236 8.54838 15.9455 9.31793L18.64 12.0087C21.6002 14.7928 19.3786 20.1102 15.3324 19.9878ZM14.0275 16.6207C15.6973 18.3407 18.3627 15.6761 16.6432 14.0086L11.9722 9.34423H9.35941C9.35941 9.59786 9.35941 11.7726 9.35941 11.9562L13.3969 15.9881L14.0275 16.6207ZM2.82885 15.3146C2.7909 17.7051 6.56561 17.7139 6.52766 15.3146V4.67398C6.55977 3.48165 5.29862 2.53419 4.16007 2.90151C4.11044 2.91609 4.06374 2.93066 4.01994 2.94816C3.30471 3.21344 2.80842 3.94517 2.82885 4.70897V15.3146ZM15.3324 6.51933C17.7321 6.55723 17.7292 2.78782 15.3324 2.82571H8.98867C9.47038 3.84022 9.34778 5.42028 9.35652 6.51933C9.70097 6.51933 15.1631 6.51933 15.3324 6.51933Z" fill="#171723"/>
</svg>
