<svg width="20" height="20" viewBox="0 0 20 20" fill="none" xmlns="http://www.w3.org/2000/svg">
<path d="M8.32476 4.54587C8.65134 4.2023 9.04461 3.929 9.48048 3.7427C9.91635 3.55639 10.3857 3.46101 10.8597 3.46238C12.1822 3.46238 13.3286 4.19444 13.9454 5.28524C14.4944 5.04417 15.0874 4.91954 15.687 4.9192C18.0676 4.9192 20 6.8592 20 9.25317C20 11.6471 18.0676 13.5875 15.687 13.5875C15.393 13.5875 15.114 13.5579 14.8346 13.4995C14.5607 13.9877 14.1618 14.3942 13.6789 14.6773C13.196 14.9603 12.6464 15.1098 12.0867 15.1103C11.5946 15.1103 11.1241 14.9929 10.7054 14.7954C10.1543 16.0767 8.88317 16.977 7.39905 16.977C6.66476 16.9782 5.94775 16.7543 5.34469 16.3353C4.74162 15.9164 4.2815 15.3227 4.02635 14.6341C3.80603 14.6783 3.5781 14.7075 3.34317 14.7075C1.49143 14.6929 0 13.1919 0 11.3325C0 10.0881 0.668572 9.00428 1.66794 8.41857C1.45711 7.93355 1.34954 7.40996 1.35206 6.88111C1.35206 4.75095 3.08571 3.02301 5.23143 3.02301C6.49524 3.02301 7.61206 3.61603 8.32476 4.54587Z" fill="#009DDC"/>
</svg>
