<svg width="20" height="20" viewBox="0 0 20 20" fill="none" xmlns="http://www.w3.org/2000/svg">
<path fill-rule="evenodd" clip-rule="evenodd" d="M11.7735 5.02837L10.8871 5.20187C10.9938 5.74716 11.0085 6.30752 10.9309 6.85792L11.8254 6.98398C11.917 6.33408 11.8996 5.67247 11.7735 5.02837ZM10.3605 2.21652C10.1309 1.96947 9.93641 1.78531 9.72401 1.61159L9.15213 2.31081C9.33167 2.45765 9.49645 2.61366 9.69529 2.82756C9.9139 3.06849 10.1094 3.33201 10.2767 3.6111L11.0514 3.14669C10.8537 2.81676 10.6228 2.50545 10.3605 2.21652ZM6.08102 0.290283L6.07024 1.19352C6.62617 1.20016 7.17768 1.29943 7.70043 1.48779L8.00665 0.63798C7.38886 0.415366 6.73747 0.298124 6.08102 0.290283ZM2.38247 1.54545L2.94151 2.25498C3.38179 1.90807 3.87214 1.64171 4.39474 1.46224L4.10136 0.607914C3.48311 0.820227 2.90288 1.13541 2.38247 1.54545ZM0.272099 4.92164L1.15519 5.11163C1.27196 4.56889 1.47862 4.04922 1.76881 3.57399L0.997876 3.10324C0.654545 3.6655 0.410114 4.28013 0.272099 4.92164ZM0.753958 8.77803L1.56249 8.37525C1.31431 7.87707 1.15297 7.34154 1.08314 6.79071L0.187012 6.90432C0.269542 7.55532 0.460343 8.18864 0.753958 8.77803ZM3.66555 11.5452L4.02602 10.7169C3.51958 10.4965 3.05205 10.192 2.64056 9.81108L2.0269 10.4739C2.51321 10.9242 3.0664 11.2844 3.66555 11.5452ZM7.59902 11.8153L7.35553 10.9455C6.82045 11.0952 6.26316 11.1541 5.70823 11.1202L5.65321 12.0219C6.30848 12.0618 6.96667 11.9923 7.59902 11.8153Z" fill="#171723"/>
<path fill-rule="evenodd" clip-rule="evenodd" d="M7.40835 5.40148L5.50441 7.30542C5.1484 7.66143 5.14045 8.23069 5.5 8.59024L16.3536 19.4439C16.7072 19.7975 17.277 19.8009 17.6385 19.4395L19.5424 17.5355C19.8984 17.1795 19.9064 16.6103 19.5468 16.2507L8.69317 5.39707C8.3396 5.04349 7.76983 5.04001 7.40835 5.40148ZM6.13706 7.95003L8.05297 6.03413L10.6075 8.58867L8.6916 10.5046L6.13706 7.95003ZM9.33023 11.1432L11.2461 9.2273L18.9097 16.8909L16.9938 18.8068L9.33023 11.1432Z" fill="#171723"/>
</svg>
