<svg width="20" height="20" viewBox="0 0 20 20" fill="none" xmlns="http://www.w3.org/2000/svg">
<g clip-path="url(#clip0_5313_35038)">
<g clip-path="url(#clip1_5313_35038)">
<path d="M18.8013 3.17138L16.8062 1.1895C16.4705 0.861758 16.0808 0.59444 15.6542 0.399337C15.6378 0.389362 15.6209 0.380368 15.6035 0.372404C15.0737 0.129286 14.4981 0.00231104 13.9152 6.27237e-06H4.09057C3.00923 -0.0018875 1.9713 0.425116 1.20444 1.18735C0.437587 1.94958 0.00443359 2.9848 0 4.06591V15.9291C0.00443359 17.0102 0.437587 18.0455 1.20444 18.8077C1.9713 19.5699 3.00923 19.9969 4.09057 19.995H4.52572C4.53436 19.9955 4.54162 20 4.55036 20C4.55911 20 4.56638 19.9955 4.57501 19.995H15.3972C15.4058 19.9955 15.4131 20 15.4218 20C15.4306 20 15.4378 19.9955 15.4465 19.995H15.9104C16.9917 19.9969 18.0295 19.5698 18.7962 18.8076C19.5628 18.0453 19.9958 17.0101 20 15.9291V6.04776C19.9965 4.96822 19.5655 3.934 18.8013 3.17138V3.17138ZM14.9123 1.19348V4.44324C14.9128 4.55101 14.8918 4.65779 14.8505 4.75733C14.8092 4.85686 14.7484 4.94714 14.6717 5.02288C14.595 5.09862 14.504 5.1583 14.4039 5.1984C14.3039 5.2385 14.1968 5.25823 14.0891 5.25642H5.90198C5.6863 5.25631 5.47948 5.17061 5.32697 5.01813C5.17446 4.86565 5.08874 4.65888 5.08863 4.44324V1.01674H13.9153C14.2551 1.02027 14.592 1.07999 14.9123 1.19348V1.19348ZM1.01693 15.9291V4.06593C1.02115 3.25785 1.34456 2.48416 1.91673 1.91339C2.48889 1.34262 3.26345 1.02101 4.0717 1.0186V4.44324C4.07233 4.92837 4.26536 5.39345 4.60847 5.73649C4.95158 6.07953 5.41675 6.27253 5.90198 6.27315H14.0891C14.5756 6.27392 15.0426 6.08169 15.3876 5.73863C15.7326 5.39557 15.9274 4.92971 15.9293 4.44324V1.77997C15.9815 1.82527 16.0397 1.8613 16.0891 1.91034L18.0843 3.89217C18.657 4.46376 18.9801 5.23873 18.983 6.04776V7.91504C18.5111 7.57016 17.9316 7.40493 17.3487 7.44904C16.7658 7.49315 16.2177 7.74372 15.8031 8.15569L15.3392 8.6195C15.3338 8.62446 15.3267 8.62608 15.3214 8.6313C15.3162 8.63651 15.3146 8.64364 15.3096 8.64904L13.0582 10.9001H6.32999C5.72604 10.8983 5.14602 11.136 4.7171 11.5611C4.28818 11.9862 4.04537 12.564 4.0419 13.1679V18.9734C3.23919 18.9637 2.4724 18.6392 1.90662 18.0699C1.34085 17.5005 1.02135 16.7317 1.01693 15.9291ZM14.9133 18.9783H11.8723C11.8982 18.9596 11.9239 18.9412 11.9488 18.9211C11.9961 18.8995 12.0397 18.8705 12.078 18.8353C12.0843 18.829 12.0863 18.8205 12.0922 18.814L12.0969 18.8105L14.9133 15.9946L14.9133 18.9783ZM10.4036 13.554H7.25556C7.12071 13.554 6.99138 13.6076 6.89602 13.7029C6.80067 13.7983 6.7471 13.9276 6.7471 14.0624C6.7471 14.1972 6.80067 14.3265 6.89602 14.4219C6.99138 14.5172 7.12071 14.5708 7.25556 14.5708H9.38674L8.62201 15.3353L8.61699 15.342C8.61097 15.3476 8.60301 15.3494 8.59719 15.3552C8.5662 15.3899 8.54031 15.4289 8.52028 15.4709C8.33792 15.6826 8.2093 15.9351 8.14532 16.2071L7.53822 18.9783H5.05883V13.1679C5.06179 12.8335 5.1973 12.514 5.43561 12.2795C5.67393 12.0449 5.99559 11.9145 6.32999 11.9168H12.0413L10.4036 13.554ZM9.10479 16.5815L10.8519 18.3283L8.61412 18.8184L9.10479 16.5815ZM15.0751 14.3951L15.0534 14.4168L11.7155 17.754L9.67821 15.7171L10.9587 14.4369C10.9716 14.4252 10.984 14.4129 10.9957 14.3999L15.6839 9.71262L17.7209 11.7499L15.0751 14.3951ZM18.5589 10.9119L18.4398 11.031L16.4029 8.9937L16.5221 8.87449C16.7925 8.60512 17.1587 8.45404 17.5404 8.45442C17.9221 8.4548 18.2881 8.60662 18.5579 8.87653C18.8277 9.14645 18.9794 9.51239 18.9796 9.89401C18.9798 10.2756 18.8285 10.6417 18.5589 10.9119V10.9119ZM15.9302 18.9763V14.9779L18.7845 12.1242C18.7899 12.1192 18.797 12.1176 18.8022 12.1124C18.8074 12.1072 18.809 12.1001 18.814 12.0947L18.9829 11.9257V15.9291C18.9788 16.7368 18.6556 17.5102 18.0839 18.0809C17.5122 18.6516 16.7381 18.9734 15.9302 18.9763L15.9302 18.9763Z" fill="#171723"/>
</g>
</g>
<defs>
<clipPath id="clip0_5313_35038">
<rect width="20" height="20" fill="white"/>
</clipPath>
<clipPath id="clip1_5313_35038">
<rect width="20" height="20" fill="white"/>
</clipPath>
</defs>
</svg>
