<svg width="20" height="20" viewBox="0 0 20 20" fill="none" xmlns="http://www.w3.org/2000/svg">
<g clip-path="url(#clip0_5313_35039)">
<g clip-path="url(#clip1_5313_35039)">
<path d="M18.8014 3.17303L16.8063 1.18977C16.4697 0.861681 16.0792 0.594064 15.6517 0.398683C15.6365 0.389504 15.6208 0.381176 15.6047 0.373737C15.0744 0.129835 14.498 0.00239659 13.9143 5.75987e-06H4.08956C3.00825 -0.0018093 1.97038 0.425417 1.20369 1.18794C0.436995 1.95046 0.00410315 2.986 0 4.06733V15.9332C0.00421063 17.0144 0.437153 18.0498 1.20384 18.8123C1.97052 19.5747 3.00833 20.0018 4.08956 20H15.9094C16.9907 20.0019 18.0287 19.5748 18.7955 18.8124C19.5624 18.05 19.9956 17.0145 20 15.9332V6.04961C20.0011 5.51458 19.8957 4.98467 19.6899 4.4908C19.4842 3.99692 19.1821 3.54896 18.8014 3.17303V3.17303ZM14.9124 1.19393V4.44523C14.9128 4.55307 14.8917 4.65991 14.8502 4.75948C14.8088 4.85905 14.7479 4.94936 14.6712 5.0251C14.5944 5.10085 14.5033 5.16052 14.4032 5.20061C14.3031 5.2407 14.196 5.26041 14.0881 5.25859H5.902C5.68635 5.2584 5.47958 5.17264 5.32709 5.02015C5.1746 4.86766 5.08885 4.66089 5.08866 4.44523V1.01696H13.9143C14.2545 1.02048 14.5918 1.08027 14.9124 1.19393V1.19393ZM14.9154 18.983H5.06284V13.1753C5.06473 12.8409 5.19922 12.5209 5.4368 12.2855C5.67438 12.0502 5.99562 11.9187 6.33003 11.92H13.6482C13.9826 11.9187 14.3039 12.0502 14.5414 12.2855C14.779 12.5209 14.9135 12.8409 14.9154 13.1753V18.983ZM18.9831 15.9332C18.9789 16.7407 18.656 17.5139 18.0847 18.0846C17.5134 18.6553 16.7398 18.9774 15.9323 18.9808V13.1753C15.9301 12.5712 15.6883 11.9928 15.2601 11.5668C14.8319 11.1408 14.2522 10.9021 13.6482 10.903H6.33003C5.72602 10.9021 5.14631 11.1408 4.7181 11.5668C4.28989 11.9928 4.04814 12.5712 4.0459 13.1753V18.9786C3.24243 18.9699 2.47457 18.6458 1.90793 18.076C1.3413 17.5063 1.02129 16.7367 1.01694 15.9332V4.06733C1.02103 3.25897 1.34439 2.48498 1.91656 1.91397C2.48874 1.34296 3.26338 1.02119 4.07172 1.01876V4.44523C4.07235 4.93047 4.26538 5.39565 4.60849 5.73877C4.9516 6.08188 5.41677 6.27492 5.902 6.27555H14.0881C14.5748 6.27635 15.042 6.08412 15.3871 5.74101C15.7323 5.3979 15.9273 4.93191 15.9294 4.44523V1.7808C15.9815 1.82611 16.0398 1.86216 16.0892 1.91127L18.0844 3.89405C18.3698 4.17564 18.5963 4.51129 18.7507 4.88139C18.905 5.25149 18.984 5.64863 18.9831 6.04961V15.9332Z" fill="#171723"/>
<path d="M12.5371 12.9158H7.75358C7.64307 12.9158 7.53709 12.9597 7.45895 13.0378C7.38081 13.116 7.33691 13.2219 7.33691 13.3324C7.33691 13.4429 7.38081 13.5489 7.45895 13.6271C7.53709 13.7052 7.64307 13.7491 7.75358 13.7491H12.5371C12.6476 13.7491 12.7536 13.7052 12.8317 13.6271C12.9099 13.5489 12.9538 13.4429 12.9538 13.3324C12.9538 13.2219 12.9099 13.116 12.8317 13.0378C12.7536 12.9597 12.6476 12.9158 12.5371 12.9158V12.9158Z" fill="#171723"/>
</g>
</g>
<defs>
<clipPath id="clip0_5313_35039">
<rect width="20" height="20" fill="white"/>
</clipPath>
<clipPath id="clip1_5313_35039">
<rect width="20" height="20" fill="white"/>
</clipPath>
</defs>
</svg>
