<svg width="20" height="20" viewBox="0 0 20 20" fill="none" xmlns="http://www.w3.org/2000/svg">
<g clip-path="url(#clip0_10836_132615)">
<path d="M5.09969 4.44521C5.09969 4.89361 5.46417 5.25858 5.91305 5.25858H14.0994C14.5612 5.25858 14.9237 4.90105 14.9237 4.44521V1.19392L14.963 0.157344C14.6239 0.0644243 14.2762 0 13.9147 0H5.10179L5.09968 1.01696V4.44521H5.09969Z" fill="#171723"/>
<path d="M18.8018 3.17303L16.8066 1.18976C16.5469 0.932235 16.2489 0.733298 15.9376 0.559998V2.19114C15.9371 2.20299 15.9408 2.21379 15.9406 2.22558V4.44521C15.9406 5.45423 15.1143 6.27553 14.0994 6.27553H5.91305C4.90403 6.27553 4.08273 5.45422 4.08273 4.44521V1.01876L4.10061 0H4.08969C1.8343 0 0 1.82437 0 4.06733V15.9332C0 18.1756 1.8343 20 4.08968 20H15.9098C18.1652 20 20.0005 18.1756 20.0005 15.9332V6.04961C20.0005 4.96313 19.5744 3.94121 18.8018 3.17303ZM13.1072 14.5756H7.26966C6.98861 14.5756 6.76118 14.3481 6.76118 14.0671C6.76118 13.786 6.98861 13.5586 7.26966 13.5586H13.1072C13.3883 13.5586 13.6157 13.786 13.6157 14.0671C13.6157 14.3481 13.3883 14.5756 13.1072 14.5756ZM15.9436 18.9808L14.9266 18.9831V13.1753C14.9266 12.4831 14.3586 11.92 13.6594 11.92H6.34109C5.64193 11.92 5.07387 12.4831 5.07387 13.1753V18.9831L4.05691 18.9786V13.1753C4.05691 11.922 5.08181 10.903 6.34109 10.903H13.6594C14.9187 10.903 15.9436 11.9219 15.9436 13.1753V18.9808V18.9808Z" fill="#171723"/>
</g>
<defs>
<clipPath id="clip0_10836_132615">
<rect width="20.0005" height="20" fill="white"/>
</clipPath>
</defs>
</svg>
