<svg width="20" height="20" viewBox="0 0 20 20" fill="none" xmlns="http://www.w3.org/2000/svg">
<g clip-path="url(#clip0_10314_145410)">
<g clip-path="url(#clip1_10314_145410)">
<path d="M19.8818 17.2115C19.9336 17.1481 19.9698 17.0727 19.9876 16.9917C20.0053 16.9107 20.004 16.8265 19.9838 16.7461L19.4196 14.6157C19.3838 14.4808 19.2978 14.3662 19.1804 14.297C19.063 14.2279 18.924 14.2099 18.7938 14.2471C18.6637 14.2842 18.5531 14.3734 18.4864 14.4951C18.4197 14.6167 18.4024 14.7609 18.4382 14.8958L18.6843 15.8251L17.5373 15.1659V7.70332C17.5377 7.52258 17.4913 7.34505 17.4028 7.18928C17.3144 7.0335 17.1873 6.9052 17.0347 6.81778L10.4847 3.04702L10.4797 3.04492V1.76692L11.1443 2.44053C11.2394 2.53678 11.367 2.59072 11.4999 2.59086C11.6009 2.59086 11.6997 2.55964 11.7836 2.50119C11.8675 2.44275 11.9326 2.35972 11.9708 2.26271C12.0089 2.16571 12.0184 2.05911 11.9978 1.95654C11.9773 1.85396 11.9277 1.76005 11.8555 1.68679L10.3318 0.142245C10.2738 0.0856907 10.2038 0.0441455 10.1274 0.0210026C10.051 -0.00214021 9.97045 -0.00622443 9.89225 0.00908367C9.87735 0.0114424 9.86257 0.0145779 9.84798 0.0184784C9.75924 0.0390034 9.67775 0.0847067 9.61262 0.15048L9.61138 0.152473L9.60765 0.154582L8.15439 1.69606C8.10693 1.74538 8.06937 1.80397 8.04388 1.86843C8.0184 1.9329 8.00549 2.00196 8.0059 2.07162C8.00631 2.14129 8.02004 2.21017 8.0463 2.27431C8.07255 2.33844 8.1108 2.39654 8.15884 2.44525C8.20689 2.49397 8.26377 2.53233 8.3262 2.55812C8.38863 2.58391 8.45537 2.59662 8.52257 2.59551C8.58977 2.5944 8.65608 2.57949 8.71769 2.55166C8.7793 2.52382 8.83497 2.4836 8.88149 2.43332L9.46259 1.81649V3.08834L2.98415 6.81984C2.83401 6.9068 2.70861 7.03324 2.6206 7.18641C2.5318 7.3432 2.48451 7.52151 2.48353 7.70332V15.1539L1.31562 15.825L1.56178 14.8958C1.5976 14.7609 1.58026 14.6167 1.51357 14.4951C1.44688 14.3734 1.3363 14.2842 1.20616 14.2471C1.07602 14.2099 0.936974 14.2279 0.819615 14.297C0.702256 14.3662 0.616197 14.4808 0.580369 14.6157L0.0161603 16.7461C-0.00404227 16.8265 -0.00532205 16.9107 0.0124288 16.9917C0.0301797 17.0727 0.0664414 17.1481 0.118161 17.2115C0.127793 17.2242 0.13647 17.2348 0.147099 17.2464C0.207465 17.3163 0.285182 17.3676 0.37177 17.3949L0.374567 17.3952L0.378707 17.398L2.38322 17.9674C2.42696 17.9795 2.47204 17.9857 2.51733 17.9859C2.64052 17.9859 2.75953 17.9396 2.85226 17.8555C2.94499 17.7714 3.00513 17.6553 3.02151 17.5288C3.0379 17.4022 3.00941 17.2738 2.94134 17.1673C2.87328 17.0609 2.77026 16.9837 2.65142 16.95L1.8518 16.7224L2.96331 16.0837C2.97156 16.0889 2.97777 16.0966 2.98616 16.1016L9.53611 19.8723C9.68116 19.9559 9.84434 19.9998 10.0103 20C10.1762 20.0002 10.3395 19.9566 10.4847 19.8734L17.0337 16.1016L17.0481 16.0904L18.1482 16.7225L17.3486 16.95C17.2297 16.9837 17.1267 17.0609 17.0586 17.1673C16.9906 17.2738 16.9621 17.4022 16.9785 17.5288C16.9949 17.6553 17.055 17.7715 17.1477 17.8555C17.2405 17.9396 17.3595 17.9859 17.4827 17.9859C17.528 17.9858 17.573 17.9795 17.6168 17.9674L19.6213 17.398L19.6255 17.3953L19.6282 17.3949C19.7148 17.3677 19.7926 17.3164 19.8529 17.2465C19.8635 17.2348 19.8722 17.2242 19.8818 17.2115ZM9.97117 7.45825C10.038 7.45829 10.1041 7.44468 10.1658 7.4182C10.2276 7.39172 10.2836 7.35289 10.3309 7.30393C10.3781 7.25496 10.4156 7.19683 10.4411 7.13285C10.4667 7.06886 10.4798 7.00029 10.4797 6.93105V4.24991L15.9989 7.42041L9.99303 10.8614L4.02421 7.42549L9.46259 4.27423V6.93105C9.46255 7.00029 9.47568 7.06886 9.50122 7.13285C9.52677 7.19683 9.56423 7.25496 9.61146 7.30392C9.6587 7.35289 9.71478 7.39172 9.7765 7.4182C9.83822 7.44468 9.90437 7.45829 9.97117 7.45825ZM6.6952 13.3368C6.62947 13.2149 6.51993 13.1248 6.39043 13.0863C6.26094 13.0477 6.12199 13.0637 6.00385 13.1309L3.49895 14.5703L3.48237 8.32082L9.47547 11.7696L9.49932 11.784V18.6468L3.98821 15.4948L6.49653 14.0534C6.555 14.0199 6.60653 13.9748 6.64817 13.9207C6.68981 13.8665 6.72074 13.8044 6.7392 13.7378C6.75765 13.6713 6.76326 13.6016 6.75571 13.5328C6.74816 13.464 6.7276 13.3974 6.6952 13.3368ZM10.5165 18.6693V11.7892L10.5264 11.783L16.5217 8.32719L16.5385 14.592L13.9921 13.1288C13.9337 13.0953 13.8695 13.074 13.8031 13.0662C13.7367 13.0584 13.6695 13.0642 13.6053 13.0833C13.5411 13.1025 13.4812 13.1345 13.4289 13.1776C13.3767 13.2208 13.3331 13.2742 13.3008 13.3347C13.2684 13.3953 13.2479 13.4619 13.2404 13.5307C13.2329 13.5995 13.2385 13.6692 13.2569 13.7357C13.2754 13.8023 13.3063 13.8644 13.3479 13.9186C13.3895 13.9727 13.441 14.0179 13.4994 14.0514L16.0032 15.49L10.5165 18.6693Z" fill="#171723"/>
</g>
</g>
<defs>
<clipPath id="clip0_10314_145410">
<rect width="20" height="20" fill="white"/>
</clipPath>
<clipPath id="clip1_10314_145410">
<rect width="20" height="20" fill="white"/>
</clipPath>
</defs>
</svg>
