<svg width="20" height="20" viewBox="0 0 20 20" fill="none" xmlns="http://www.w3.org/2000/svg">
<g clip-path="url(#clip0_6394_68552)">
<path d="M18.3923 4.30409C18.3891 4.27388 18.3831 4.24404 18.3743 4.21496C18.3358 3.48914 18.0314 2.80291 17.5193 2.28711L16.1131 0.877907C15.836 0.598779 15.5063 0.377446 15.143 0.226745C14.7797 0.0760446 14.3901 -0.00102381 13.9968 1.02697e-05H4.59812C3.80536 0.00100059 3.04535 0.316365 2.48479 0.876937C1.92423 1.43751 1.60888 2.19752 1.60791 2.99028V17.0098C1.6089 17.8025 1.92426 18.5625 2.48481 19.1231C3.04537 19.6836 3.80537 19.999 4.59812 20H15.402C16.1947 19.999 16.9547 19.6836 17.5153 19.1231C18.0759 18.5625 18.3912 17.8025 18.3922 17.0098V4.39943C18.3922 4.37758 18.3864 4.35691 18.3859 4.33513C18.3867 4.32427 18.3923 4.31514 18.3923 4.30409ZM16.8003 3.00611C17.0183 3.22791 17.1802 3.4986 17.2724 3.79563H14.5966V1.11906C14.8969 1.21196 15.1705 1.37588 15.394 1.59693L16.8003 3.00611ZM15.402 18.9831H4.59812C4.07491 18.9826 3.57327 18.7745 3.20331 18.4046C2.83335 18.0346 2.6253 17.533 2.62483 17.0098V2.99028C2.62529 2.46706 2.83333 1.96541 3.20329 1.59544C3.57326 1.22547 4.0749 1.01741 4.59812 1.01694H13.5797V4.30409C13.5796 4.37088 13.5927 4.43701 13.6183 4.49872C13.6438 4.56043 13.6813 4.61649 13.7285 4.66372C13.7757 4.71094 13.8318 4.74839 13.8935 4.77393C13.9552 4.79947 14.0213 4.8126 14.0881 4.81256H17.3753V17.0098C17.3748 17.533 17.1668 18.0346 16.7968 18.4046C16.4268 18.7745 15.9252 18.9826 15.402 18.9831Z" fill="#171723"/>
<path d="M6.34372 10.9955C6.19011 10.8807 6.0209 10.7884 5.84121 10.7214C5.68927 10.6648 5.53732 10.6102 5.38538 10.5605C5.24039 10.5119 5.09838 10.4622 4.95835 10.4106C4.86097 10.3755 4.76878 10.3274 4.68428 10.2676C4.62516 10.2249 4.57547 10.1704 4.5383 10.1077C4.50662 10.0408 4.49228 9.96705 4.49661 9.89318C4.49622 9.81589 4.51108 9.73929 4.54034 9.66775C4.56815 9.5989 4.6101 9.53665 4.66349 9.48503C4.72614 9.42629 4.80015 9.381 4.88097 9.35195C5.08615 9.29128 5.30376 9.28614 5.51159 9.33705C5.58365 9.36106 5.65239 9.39409 5.71616 9.43537C5.75205 9.45697 5.78508 9.48299 5.81448 9.51283C5.86656 9.57622 5.93144 9.62792 6.00486 9.66454C6.07828 9.70117 6.1586 9.72189 6.24057 9.72537C6.3879 9.71859 6.52649 9.65358 6.62589 9.54463C6.63483 9.53371 6.65668 9.50293 6.66562 9.491C6.72634 9.404 6.75498 9.29861 6.74665 9.19283C6.73832 9.08706 6.69353 8.98746 6.61993 8.91103C6.43977 8.71979 6.22293 8.56679 5.98236 8.46116C5.50935 8.27618 4.98521 8.26948 4.50762 8.44229C4.30761 8.52026 4.12502 8.63704 3.97035 8.7859C3.82132 8.93012 3.70426 9.10405 3.62674 9.29641C3.54888 9.48573 3.50906 9.68854 3.50955 9.89325C3.50652 10.0866 3.54057 10.2788 3.60985 10.4593C3.67355 10.6182 3.76691 10.7634 3.88494 10.8873C3.99613 11.0039 4.12478 11.1024 4.26629 11.1793C4.39062 11.2465 4.51936 11.3053 4.65162 11.3551C4.7767 11.4028 4.90483 11.4455 5.03793 11.4862C5.14916 11.519 5.2584 11.5557 5.36466 11.5944C5.45928 11.6294 5.5515 11.6705 5.64074 11.7176C5.69839 11.7469 5.75129 11.7847 5.79765 11.8298C5.83335 11.8664 5.86166 11.9096 5.88104 11.9569C5.90399 12.0191 5.91413 12.0853 5.91083 12.1516C5.9122 12.2613 5.89231 12.3702 5.85224 12.4723C5.81688 12.5656 5.76203 12.6502 5.69136 12.7206C5.61385 12.7963 5.52201 12.8557 5.42123 12.8954C5.20354 12.9695 4.96984 12.9832 4.74497 12.9351C4.67556 12.9189 4.608 12.8956 4.54338 12.8656C4.49101 12.8405 4.44109 12.8105 4.39427 12.7762C4.35153 12.7431 4.31075 12.7076 4.27212 12.6699L4.17683 12.5716C4.12806 12.5186 4.06922 12.4758 4.00374 12.4458C3.93827 12.4158 3.86747 12.3991 3.79548 12.3968C3.70459 12.3985 3.61554 12.4228 3.53629 12.4673C3.48256 12.4995 3.43512 12.5413 3.39626 12.5904C3.32605 12.6724 3.28706 12.7766 3.28615 12.8845C3.28524 12.9924 3.32248 13.0972 3.39129 13.1803C3.48261 13.2904 3.58293 13.3927 3.69121 13.4862C3.92506 13.6876 4.20577 13.8269 4.50754 13.8914C4.67776 13.9287 4.85169 13.9463 5.02593 13.944C5.28789 13.9477 5.54814 13.9012 5.79261 13.807C6.01769 13.7198 6.22226 13.5869 6.39343 13.4167C6.55876 13.2501 6.68762 13.0509 6.7718 12.8318C6.85729 12.6104 6.90041 12.3749 6.89891 12.1376C6.90488 11.8978 6.84914 11.6605 6.73704 11.4484C6.63877 11.2718 6.50483 11.1175 6.34372 10.9955Z" fill="#171723"/>
<path d="M11.4016 9.11666C11.1671 8.8712 10.8817 8.68003 10.5654 8.55656C10.2359 8.43008 9.88552 8.36675 9.53258 8.36986H7.88702C7.76567 8.37008 7.64935 8.41838 7.56353 8.50419C7.47772 8.59 7.42942 8.70632 7.4292 8.82767V13.4337C7.42942 13.555 7.47772 13.6713 7.56353 13.7571C7.64935 13.843 7.76567 13.8913 7.88702 13.8915H9.53258C9.88552 13.8946 10.2359 13.8312 10.5654 13.7048C10.8825 13.5809 11.1686 13.389 11.4036 13.1427C11.6405 12.8889 11.8227 12.589 11.9389 12.2618C12.1851 11.5282 12.1851 10.7342 11.9389 10.0005C11.8226 9.67202 11.6397 9.3711 11.4016 9.11666ZM10.9984 11.9291C10.9296 12.1297 10.8209 12.3141 10.6787 12.4714C10.5441 12.6139 10.3791 12.7242 10.196 12.7941C9.98433 12.8748 9.75914 12.9143 9.53262 12.9103H8.42429V9.35105H9.53258C9.75939 9.34744 9.98484 9.38687 10.197 9.46724C10.3786 9.53748 10.5424 9.64702 10.6766 9.78801C10.8202 9.9463 10.93 10.1321 10.9994 10.3342C11.1626 10.8534 11.1622 11.4102 10.9984 11.9291H10.9984Z" fill="#171723"/>
<path d="M14.4344 11.083L16.4425 9.1584C16.5058 9.09332 16.5481 9.01069 16.5639 8.92125C16.5796 8.83181 16.5681 8.73969 16.5309 8.65688C16.5003 8.59303 16.4569 8.53619 16.4033 8.48994C16.3497 8.44369 16.2871 8.40903 16.2195 8.38813C16.1519 8.36724 16.0807 8.36056 16.0104 8.36853C15.94 8.3765 15.8721 8.39893 15.8109 8.43442C15.7538 8.46816 15.6999 8.50705 15.65 8.55062L13.6479 10.4544V8.82069C13.6297 8.69211 13.5652 8.57459 13.4664 8.49028C13.3676 8.40596 13.2415 8.36065 13.1116 8.36287C12.9903 8.36309 12.8739 8.41139 12.7881 8.49721C12.7023 8.58302 12.654 8.69934 12.6538 8.82069V13.4336C12.672 13.5622 12.7365 13.6797 12.8353 13.764C12.9341 13.8484 13.0602 13.8937 13.1901 13.8914C13.3114 13.8912 13.4278 13.8429 13.5136 13.7571C13.5994 13.6713 13.6477 13.555 13.6479 13.4336V11.6947L15.7731 13.7017C15.8257 13.7533 15.8848 13.7977 15.9489 13.8338C16.0453 13.8777 16.151 13.8975 16.2568 13.8914C16.3484 13.8913 16.4378 13.8637 16.5136 13.8122C16.5894 13.7608 16.648 13.6877 16.6818 13.6026C16.7156 13.5174 16.723 13.4241 16.7032 13.3347C16.6834 13.2452 16.6372 13.1638 16.5706 13.1009L14.4344 11.083Z" fill="#171723"/>
</g>
<defs>
<clipPath id="clip0_6394_68552">
<rect width="20" height="20" fill="white"/>
</clipPath>
</defs>
</svg>
