<svg width="20" height="20" viewBox="0 0 20 20" fill="none" xmlns="http://www.w3.org/2000/svg">
<path d="M2.30769 19.4003H17.6923C18.9654 19.4003 20 18.3696 20 17.0926V14.0157C20 12.7426 18.9654 11.708 17.6923 11.708H8.19615C7.73846 13.0042 6.73077 14.0272 5.44615 14.5003L4.77308 15.1696H5.76923C6.26538 15.1696 6.26538 15.9388 5.76923 15.9388H4.77308L5.47692 16.6426C5.82692 16.9926 5.28462 17.5388 4.93462 17.1888L4.23077 16.4849V17.4772C4.23077 17.9734 3.46154 17.9734 3.46154 17.4772V16.4849L2.75769 17.1888C2.40769 17.5388 1.86538 16.9926 2.21538 16.6426L2.91923 15.9388H1.92308C1.42692 15.9388 1.42692 15.1696 1.92308 15.1696H2.91923L2.24615 14.5003C1.45 14.208 0.75 13.6965 0.223077 13.0311C0.076923 13.3388 0 13.6772 0 14.0157V17.0926C0 18.3696 1.03462 19.4003 2.30769 19.4003ZM14.2308 15.1696H15.2269L14.5231 14.4696C14.1731 14.1157 14.7154 13.5734 15.0654 13.9234L15.7692 14.6272V13.6311C15.7692 13.1349 16.5385 13.1349 16.5385 13.6311V14.6272L17.2423 13.9234C17.5923 13.5734 18.1346 14.1157 17.7846 14.4696L17.0808 15.1696H18.0769C18.5731 15.1696 18.5731 15.9388 18.0769 15.9388H17.0808L17.7846 16.6426C18.1346 16.9926 17.5923 17.5388 17.2423 17.1888L16.5385 16.4849V17.4772C16.5385 17.9734 15.7692 17.9734 15.7692 17.4772V16.4849L15.0654 17.1888C14.7154 17.5388 14.1731 16.9926 14.5231 16.6426L15.2269 15.9388H14.2308C13.7346 15.9388 13.7346 15.1696 14.2308 15.1696ZM8.07692 15.1696H9.07308L8.36923 14.4696C8.01923 14.1157 8.56154 13.5734 8.91154 13.9234L9.61539 14.6272V13.6311C9.61539 13.1349 10.3846 13.1349 10.3846 13.6311V14.6272L11.0885 13.9234C11.4385 13.5734 11.9808 14.1157 11.6308 14.4696L10.9269 15.1696H11.9231C12.4192 15.1696 12.4192 15.9388 11.9231 15.9388H10.9269L11.6308 16.6426C11.9808 16.9926 11.4385 17.5388 11.0885 17.1888L10.3846 16.4849V17.4772C10.3846 17.9734 9.61539 17.9734 9.61539 17.4772V16.4849L8.91154 17.1888C8.56154 17.5388 8.01923 16.9926 8.36923 16.6426L9.07308 15.9388H8.07692C7.58077 15.9388 7.58077 15.1696 8.07692 15.1696Z" fill="#171723"/>
<path d="M12.4231 5.8234C13.4423 6.91186 15.1231 5.33109 14.1077 4.24648L13.0538 3.1234L13.6154 2.59648C14.7038 1.58109 13.1231 -0.103523 12.0385 0.915708L5.73461 6.81955C4.21923 5.96571 2.25769 6.25802 1.05769 7.51955C-0.150001 8.79263 -0.334616 10.7772 0.611538 12.2542C1.56538 13.7349 3.46154 14.3811 5.11923 13.8003C6.96923 13.1503 8.05769 11.1349 7.57692 9.22725C7.51154 8.98109 7.42308 8.73494 7.31154 8.50417L8.56538 7.33109L10.1423 9.01571C11.1615 10.1003 12.8423 8.5234 11.8269 7.43879L10.25 5.75417L11.3692 4.70032L12.4231 5.8234ZM3.84615 11.708C3.00769 11.708 2.30769 11.008 2.30769 10.1696C2.30769 9.33109 3.00769 8.63109 3.84615 8.63109C4.68461 8.63109 5.38461 9.33109 5.38461 10.1696C5.38461 11.008 4.68461 11.708 3.84615 11.708Z" fill="#171723"/>
</svg>
