<svg width="20" height="20" viewBox="0 0 20 20" fill="none" xmlns="http://www.w3.org/2000/svg">
<g clip-path="url(#clip0_5313_35150)">
<g clip-path="url(#clip1_5313_35150)">
<path d="M12.4423 19.9999H12.4341C11.9822 20.0034 11.5413 19.8604 11.1772 19.5924C10.8215 19.3253 10.5613 18.9507 10.435 18.5241L8.42063 11.9807C8.39185 11.8876 8.34076 11.8028 8.27182 11.7338C8.20287 11.6649 8.11815 11.6138 8.025 11.585L1.47666 9.56735C1.05384 9.43939 0.682698 9.18012 0.416972 8.82708C0.149803 8.47436 0.00366935 8.04473 0.000337006 7.60218C-0.00761294 7.15994 0.125272 6.72665 0.379766 6.36498C0.63426 6.00331 0.997165 5.73202 1.41597 5.59037L17.2179 0.117746C17.5897 -0.0126551 17.9908 -0.0352664 18.375 0.052519C18.7591 0.140304 19.1106 0.334912 19.389 0.613907C19.6673 0.892903 19.8612 1.24493 19.9483 1.62939C20.0354 2.01386 20.0121 2.41512 19.8811 2.78692L14.4111 18.5883C14.2728 19.0007 14.0081 19.359 13.6547 19.6124C13.3013 19.8658 12.8771 20.0014 12.4423 19.9999V19.9999ZM17.9099 1.19546C17.8082 1.19564 17.7072 1.21302 17.6112 1.24687L1.80109 6.72179C1.62122 6.78198 1.46536 6.89824 1.35636 7.05353C1.24735 7.20882 1.19094 7.39496 1.1954 7.58466V7.58817C1.19753 7.77609 1.25958 7.95841 1.37252 8.10858C1.48546 8.25875 1.64338 8.36891 1.82327 8.42301L8.37744 10.443C8.6564 10.5291 8.91012 10.6821 9.11656 10.8887C9.32299 11.0952 9.4759 11.349 9.562 11.6281L11.5787 18.1796C11.6303 18.3599 11.7392 18.5184 11.8889 18.6311C12.0387 18.7438 12.2211 18.8046 12.4085 18.8043H12.412C12.607 18.8097 12.7985 18.752 12.9581 18.6397C13.1087 18.5324 13.2212 18.3798 13.279 18.2041L18.7526 2.39227C18.8097 2.2319 18.8202 2.05861 18.7829 1.89249C18.7441 1.72781 18.6604 1.57708 18.5413 1.45697C18.4215 1.33792 18.2707 1.25498 18.106 1.21762C18.0416 1.2032 17.9759 1.19578 17.9099 1.19546V1.19546Z" fill="#171723"/>
</g>
</g>
<defs>
<clipPath id="clip0_5313_35150">
<rect width="20" height="20" fill="white"/>
</clipPath>
<clipPath id="clip1_5313_35150">
<rect width="20" height="20" fill="white"/>
</clipPath>
</defs>
</svg>
