<svg width="20" height="20" viewBox="0 0 20 20" fill="none" xmlns="http://www.w3.org/2000/svg">
<path d="M7.67405 18.2499H7.681C8.06515 18.2528 8.43993 18.1313 8.74937 17.9036C9.05169 17.6765 9.2729 17.3581 9.38029 16.9955L11.0925 11.4336C11.1169 11.3544 11.1604 11.2824 11.219 11.2238C11.2776 11.1651 11.3496 11.1217 11.4288 11.0972L16.9948 9.38224C17.3542 9.27348 17.6697 9.0531 17.8956 8.75302C18.1227 8.4532 18.2469 8.08802 18.2497 7.71185C18.2565 7.33595 18.1435 6.96765 17.9272 6.66023C17.7109 6.35281 17.4024 6.12222 17.0464 6.00181L3.61481 1.35008C3.29874 1.23924 2.9578 1.22002 2.63129 1.29464C2.30478 1.36926 2.00599 1.53468 1.76937 1.77182C1.53276 2.00897 1.36794 2.30819 1.29393 2.63499C1.21992 2.96178 1.23973 3.30286 1.35107 3.61888L6.00055 17.0501C6.11815 17.4006 6.34311 17.7052 6.64351 17.9205C6.9439 18.1359 7.30448 18.2512 7.67405 18.2499ZM3.02655 2.26614C3.11305 2.26629 3.19891 2.28107 3.2805 2.30984L16.7191 6.96352C16.872 7.01469 17.0044 7.11351 17.0971 7.2455C17.1898 7.37749 17.2377 7.53571 17.2339 7.69696V7.69994C17.2321 7.85967 17.1794 8.01465 17.0834 8.1423C16.9874 8.26994 16.8531 8.36357 16.7002 8.40956L11.1292 10.1265C10.8921 10.1998 10.6764 10.3298 10.5009 10.5054C10.3255 10.6809 10.1955 10.8967 10.1223 11.1339L8.40813 16.7027C8.36427 16.8559 8.27168 16.9906 8.14441 17.0864C8.01713 17.1822 7.8621 17.2339 7.70282 17.2337H7.69984C7.53407 17.2383 7.37125 17.1892 7.23562 17.0937C7.10757 17.0026 7.01198 16.8729 6.96282 16.7235L2.31033 3.28343C2.26178 3.14711 2.25284 2.99982 2.28454 2.85862C2.31755 2.71864 2.38862 2.59052 2.48988 2.48843C2.5917 2.38723 2.71992 2.31673 2.85989 2.28497C2.9146 2.27272 2.97048 2.26641 3.02655 2.26614Z" fill="#171723"/>
</svg>
