<svg width="20" height="20" viewBox="0 0 20 20" fill="none" xmlns="http://www.w3.org/2000/svg">
<g clip-path="url(#clip0_5313_35167)">
<g clip-path="url(#clip1_5313_35167)">
<path d="M3.6547 20C3.30272 20.0014 2.95247 19.9519 2.61534 19.8529C1.98926 19.6449 1.42884 19.282 0.988569 18.7995C0.548297 18.317 0.243143 17.7314 0.102765 17.0994C-0.0367438 16.387 -0.0253191 15.6542 0.136333 14.9462C0.297986 14.2383 0.606428 13.5703 1.04258 12.9836L1.19194 12.7849C1.29456 12.6537 1.4053 12.5225 1.51707 12.3904C1.83421 12.0559 2.09331 11.6729 2.28414 11.2566C2.52275 10.6696 2.60728 10.0335 2.53002 9.40638C2.49397 9.16362 2.40452 8.93139 2.26784 8.72571L2.26679 8.7247C2.17402 8.58589 2.06185 8.46047 1.93354 8.35207C1.78621 8.22589 1.62772 8.11259 1.46922 7.99931C1.3219 7.89398 1.17457 7.78767 1.03329 7.67437C0.77981 7.47712 0.558534 7.24325 0.377078 6.98081C0.180312 6.67164 0.0567433 6.32334 0.0154218 5.96143C-0.0258997 5.59951 0.0160722 5.23313 0.138264 4.88913C0.286124 4.48262 0.539128 4.12049 0.872627 3.83803C1.20613 3.55557 1.60875 3.36241 2.04127 3.27737C2.54039 3.20836 3.04789 3.22316 3.54192 3.32112L3.73599 3.34895C4.1509 3.42046 4.5748 3.42683 4.99176 3.36783C5.94555 3.12998 6.77095 2.54586 7.30019 1.73419C7.58415 1.29375 7.95628 0.914048 8.3942 0.61793C8.83211 0.321812 9.32676 0.115399 9.84836 0.0111131C10.455 -0.0390517 11.0637 0.0813155 11.6028 0.358048C12.1419 0.634781 12.589 1.05636 12.8913 1.57318C13.44 2.54106 13.6559 3.65587 13.507 4.75295C13.4162 5.50917 13.2699 6.25802 13.0691 6.99369C13.0092 7.23615 12.9493 7.4796 12.8934 7.72304C12.7555 8.17356 12.7225 8.64858 12.7968 9.1132C13.0224 10.0323 14.1258 10.5322 14.5901 10.7041C14.9396 10.8342 15.3013 10.9366 15.661 11.0389C16.297 11.1962 16.9141 11.4191 17.502 11.7037C18.3878 12.1745 19.0987 12.907 19.5332 13.7967C19.9677 14.6863 20.1035 15.6875 19.9212 16.6572C19.6853 17.6333 19.0947 18.4923 18.2593 19.0741C17.424 19.656 16.4009 19.9211 15.3806 19.8201C14.4658 19.636 13.5963 19.2799 12.8202 18.7717C12.1374 18.3136 11.3654 17.9977 10.5525 17.8436C9.32399 17.8591 8.12727 18.2274 7.11121 18.9029L6.9588 18.9814C5.95655 19.5744 4.8235 19.9237 3.6547 20ZM3.13857 8.16825C3.35788 8.49632 3.5011 8.86737 3.55819 9.25533C3.66512 10.0524 3.56231 10.863 3.25948 11.6104C3.03162 12.1346 2.71376 12.6169 2.31966 13.0363C2.21704 13.1595 2.11341 13.2827 2.01482 13.4079L1.88782 13.5758C1.53617 14.0445 1.28635 14.5786 1.15373 15.1453C1.0211 15.712 1.00849 16.2992 1.11666 16.8708C1.21443 17.3289 1.43157 17.7545 1.74701 18.1064C2.06246 18.4582 2.4655 18.7244 2.91708 18.8791C4.16225 19.0686 5.43432 18.7837 6.4711 18.0832L6.62351 18.0037C7.81887 17.2206 9.22967 16.8119 10.6683 16.8321C11.6263 16.9967 12.5377 17.3581 13.3424 17.8924C14.0055 18.331 14.7474 18.6432 15.5289 18.8125C16.289 18.8755 17.047 18.6707 17.6661 18.235C18.2853 17.7993 18.7247 17.1614 18.9051 16.4366C19.0434 15.6837 18.9348 14.9074 18.5949 14.2185C18.2549 13.5297 17.701 12.9635 17.0123 12.601C16.4876 12.3508 15.9376 12.1547 15.3714 12.0157C14.9843 11.9064 14.5962 11.7951 14.2203 11.656C13.6567 11.4882 13.1419 11.1917 12.7185 10.791C12.2951 10.3904 11.9751 9.89705 11.7849 9.35168C11.6693 8.73551 11.7013 8.10153 11.8784 7.49947C11.9353 7.25105 11.9962 7.00263 12.0582 6.75422C12.2469 6.0659 12.3847 5.36523 12.4707 4.65759C12.5911 3.77875 12.4273 2.88511 12.0023 2.10185C11.8044 1.75397 11.5099 1.46789 11.1529 1.2766C10.7959 1.08532 10.3909 0.996618 9.98453 1.02073C9.16157 1.12607 8.69418 1.68054 8.10286 2.38107C7.42411 3.38314 6.37953 4.09372 5.1828 4.36744C4.65462 4.4477 4.11665 4.44401 3.58968 4.35651L3.38851 4.32769C3.00996 4.24862 2.62062 4.23149 2.23634 4.27701C1.98379 4.32863 1.74889 4.44242 1.55385 4.60761C1.35881 4.7728 1.2101 4.98392 1.12177 5.22101C1.05268 5.41854 1.02808 5.62835 1.04965 5.83605C1.07122 6.04375 1.13845 6.24444 1.24674 6.42435C1.37219 6.60015 1.52352 6.75685 1.69582 6.88936C1.82079 6.99072 1.95287 7.08412 2.08394 7.17852C2.26683 7.30968 2.44869 7.43986 2.61837 7.58493C2.81771 7.75569 2.99268 7.95187 3.13857 8.16822V8.16825Z" fill="#171723"/>
</g>
</g>
<defs>
<clipPath id="clip0_5313_35167">
<rect width="20" height="20" fill="white"/>
</clipPath>
<clipPath id="clip1_5313_35167">
<rect width="20" height="20" fill="white"/>
</clipPath>
</defs>
</svg>
