<svg width="20" height="20" viewBox="0 0 20 20" fill="none" xmlns="http://www.w3.org/2000/svg">
<g clip-path="url(#clip0_10317_147003)">
<g clip-path="url(#clip1_10317_147003)">
<path d="M9.06439 1.93421C9.06439 1.94522 9.05337 1.95615 9.05337 1.96715C8.98799 2.05217 8.93256 2.14435 8.88814 2.24191C8.82209 2.35748 8.76683 2.47887 8.72306 2.60455C8.68042 2.68857 8.64715 2.77701 8.62384 2.86827C8.59296 2.96576 8.56725 3.0648 8.54682 3.16499C8.51047 3.31315 8.48472 3.4637 8.46978 3.61551C7.83698 3.68653 7.24694 3.96931 6.7958 4.41774C6.30096 4.93541 6.02827 5.62544 6.03585 6.34079C6.03402 6.41785 6.0377 6.49494 6.04687 6.57148C6.05788 6.67041 6.07993 6.78026 6.10184 6.8902H2.02713C1.50521 6.89503 1.00189 6.69703 0.623691 6.33811C0.245493 5.97919 0.0220994 5.48751 0.000792524 4.96714C-0.0067 4.70579 0.0389983 4.44562 0.135125 4.20239C0.231252 3.95915 0.37581 3.73789 0.560063 3.55197C0.744316 3.36606 0.964436 3.21936 1.20712 3.12073C1.4498 3.02211 1.71001 2.97361 1.97201 2.97817C2.00827 2.97854 2.04424 2.97169 2.07782 2.95801C2.11139 2.94433 2.14189 2.92411 2.16753 2.89852C2.19318 2.87293 2.21345 2.8425 2.22715 2.809C2.24086 2.7755 2.24773 2.7396 2.24736 2.70342C2.2555 2.01508 2.52278 1.35497 2.99612 0.854172C3.46946 0.353373 4.11425 0.0485166 4.80243 0.000139675H4.90165C5.50621 -0.00596363 6.09573 0.188108 6.57796 0.55198C7.06019 0.915852 7.4079 1.42899 7.56668 2.01108C7.57633 2.05354 7.59652 2.09289 7.62539 2.12553C7.65426 2.15817 7.69089 2.18304 7.73191 2.19787C7.77336 2.21481 7.81851 2.22067 7.86293 2.21489C7.90734 2.2091 7.94948 2.19187 7.98518 2.16488C8.1407 2.05685 8.31623 1.98081 8.50153 1.94121C8.68682 1.9016 8.87817 1.89923 9.06439 1.93421V1.93421Z" fill="#171723"/>
<path d="M19.9997 6.85729C20.0062 7.22203 19.8811 7.57694 19.6472 7.85732C19.5021 8.03892 19.3178 8.18557 19.1081 8.28639C18.8984 8.38721 18.6686 8.4396 18.4358 8.43969H17.0592C17.0823 8.39404 17.1008 8.34618 17.1142 8.29683C17.127 8.24646 17.1344 8.19489 17.1363 8.14297C17.1382 8.03194 17.1117 7.92224 17.0592 7.82432L16.4426 6.76936C16.3741 6.64408 16.2644 6.54618 16.132 6.49215C15.9996 6.43812 15.8526 6.43125 15.7157 6.4727L15.0549 6.65949C15.0248 6.67131 14.9924 6.67645 14.9601 6.67455C14.9278 6.67265 14.8962 6.66376 14.8677 6.64849C14.8567 6.6375 14.8456 6.6265 14.8346 6.6265C14.7804 6.5903 14.7412 6.53562 14.7245 6.4727L14.5593 5.80239C14.5241 5.66536 14.4446 5.54374 14.3331 5.45634C14.2216 5.36893 14.0844 5.32063 13.9426 5.3189H12.7091C12.5679 5.31801 12.4307 5.36555 12.3204 5.45356C12.2102 5.54157 12.1336 5.6647 12.1034 5.80234L11.9382 6.47266C11.9289 6.50641 11.9122 6.53769 11.8893 6.56428C11.8665 6.59086 11.8381 6.61209 11.8061 6.62646C11.7783 6.64779 11.7456 6.66195 11.7111 6.66771C11.6765 6.67346 11.641 6.67063 11.6078 6.65945L10.9361 6.46167C10.7991 6.42378 10.6534 6.43236 10.5219 6.48607C10.3903 6.53977 10.2803 6.63556 10.2092 6.75839L9.59259 7.82427C9.54133 7.91872 9.51479 8.02457 9.51545 8.13199C9.51659 8.18395 9.52399 8.23558 9.5375 8.28578C9.54914 8.33922 9.56767 8.39094 9.59263 8.43964H8.79959C8.40949 8.44465 8.02531 8.3441 7.6879 8.14867C7.35049 7.95325 7.07246 7.67024 6.88335 7.32975C6.84781 7.27835 6.81827 7.22306 6.7953 7.16496L6.76223 7.09903C6.75948 7.08249 6.7518 7.06715 6.74018 7.05503C6.74018 7.04404 6.72915 7.04404 6.72915 7.0331C6.72915 7.0221 6.72915 7.0111 6.71814 7.0111C6.68506 6.91217 6.65199 6.79131 6.63008 6.69245C6.59983 6.5777 6.58501 6.45945 6.58599 6.3408C6.57959 6.05649 6.63008 5.77377 6.7345 5.50916C6.83892 5.24456 6.99517 5.00339 7.19412 4.79976C7.39306 4.59614 7.63071 4.43414 7.89315 4.32325C8.15559 4.21237 8.43756 4.15481 8.72256 4.15396C8.79355 4.15349 8.86167 4.12589 8.91289 4.07684C8.96411 4.02778 8.99454 3.961 8.99791 3.89024C9.01951 3.27573 9.21836 2.6805 9.57061 2.17598C9.58163 2.16499 9.60354 2.12105 9.61454 2.11005C9.63659 2.07712 9.64761 2.05512 9.66952 2.04412C9.68137 2.01438 9.70028 1.98797 9.72464 1.96714C9.76385 1.92916 9.80067 1.8888 9.83487 1.84627C10.3425 1.30593 11.0426 0.98626 11.7842 0.956188H11.8941C12.55 0.949968 13.1894 1.1614 13.7117 1.55725C14.234 1.95311 14.6097 2.51093 14.7796 3.14304C14.7901 3.18571 14.8109 3.22516 14.8402 3.25793C14.8695 3.2907 14.9065 3.31579 14.9478 3.33098C14.9891 3.34617 15.0335 3.35101 15.0771 3.34507C15.1208 3.33913 15.1623 3.32259 15.198 3.2969C15.3926 3.17456 15.61 3.09274 15.8372 3.05637C16.0643 3.02 16.2964 3.02982 16.5197 3.08524C16.7429 3.14066 16.9526 3.24054 17.1362 3.37888C17.3197 3.51721 17.4733 3.69115 17.5878 3.89024C17.755 4.24273 17.8052 4.63924 17.731 5.02213C17.7195 5.06638 17.7195 5.11284 17.7311 5.15708C17.7427 5.20132 17.7654 5.24186 17.7971 5.27485C17.8324 5.30665 17.8749 5.32931 17.921 5.3408C17.9671 5.3523 18.0154 5.35229 18.0615 5.34078C18.2999 5.28035 18.5497 5.28035 18.7882 5.34078C19.0806 5.40962 19.3476 5.55969 19.5581 5.77362C19.7686 5.98755 19.9141 6.25658 19.9777 6.54959C19.9905 6.65169 19.9979 6.75441 19.9997 6.85729V6.85729Z" fill="#171723"/>
<path d="M13.5351 13.1978V17.6199C13.5351 17.6756 13.5241 17.7307 13.5028 17.7821C13.4814 17.8336 13.4501 17.8803 13.4107 17.9197C13.3712 17.959 13.3244 17.9903 13.2728 18.0116C13.2213 18.0329 13.1661 18.0438 13.1103 18.0438H1.0308C0.918123 18.0438 0.810063 17.9992 0.73039 17.9197C0.650717 17.8402 0.605957 17.7323 0.605957 17.6199V11.0393C0.605957 10.9836 0.616946 10.9285 0.638296 10.877C0.659646 10.8256 0.69094 10.7789 0.73039 10.7395C0.769841 10.7001 0.816675 10.6689 0.868219 10.6476C0.919763 10.6263 0.975007 10.6154 1.0308 10.6154H9.5596C9.57243 10.644 9.58347 10.6733 9.59267 10.7033L10.2202 11.7692C10.2926 11.8904 10.4033 11.9842 10.5348 12.0359C10.6664 12.0876 10.8115 12.0943 10.9472 12.0549L11.5968 11.8571C11.6329 11.8485 11.67 11.8448 11.7071 11.8461H11.7512C11.7732 11.8571 11.7952 11.8791 11.8172 11.8901C11.8745 11.9255 11.9174 11.98 11.9383 12.044L12.0925 12.7143C12.1262 12.8521 12.2053 12.9746 12.3171 13.0623C12.4289 13.15 12.567 13.1977 12.7091 13.1978L13.5351 13.1978Z" fill="#171723"/>
<path d="M16.0724 9.84857H16.0616C15.9059 9.69518 15.8173 9.48649 15.8153 9.26812C15.8133 9.04976 15.898 8.83948 16.0509 8.68327L16.2223 8.51221L16.5653 8.20218C16.5771 8.18723 16.5844 8.16921 16.5862 8.15027C16.5881 8.13133 16.5845 8.11224 16.5759 8.09527L15.9545 7.04757C15.9534 7.03928 15.9504 7.03136 15.9457 7.02442C15.9411 7.01748 15.9348 7.01171 15.9276 7.00756C15.9203 7.00342 15.9122 7.00101 15.9038 7.00054C15.8954 7.00006 15.8871 7.00152 15.8794 7.00481L15.2045 7.18655C15.1037 7.21829 14.9975 7.22898 14.8924 7.21794C14.7873 7.20691 14.6857 7.17439 14.5937 7.12241C14.5674 7.1105 14.5423 7.09619 14.5186 7.07964C14.4344 7.0288 14.3622 6.96048 14.3067 6.87932C14.2513 6.79816 14.214 6.70605 14.1973 6.60925L14.0259 5.93573C14.0199 5.91755 14.0085 5.90165 13.9932 5.89017C13.9778 5.8787 13.9593 5.87221 13.9402 5.87158H12.708C12.6759 5.87158 12.6437 5.88227 12.6437 5.92509L12.4724 6.6093C12.4454 6.71616 12.3962 6.81615 12.3279 6.90274C12.2596 6.98932 12.1737 7.06055 12.0759 7.11177C11.9828 7.16562 11.8797 7.20002 11.7729 7.21289C11.6661 7.22575 11.5578 7.21681 11.4545 7.18661L10.7901 6.99417C10.77 6.98811 10.7485 6.98904 10.729 6.99681C10.7095 7.00458 10.6933 7.01873 10.6829 7.03693L10.0722 8.09533C10.0627 8.11283 10.0596 8.13312 10.0635 8.15266C10.0674 8.1722 10.0781 8.18974 10.0937 8.20223L10.4365 8.5337L10.5865 8.67268C10.6646 8.74731 10.7266 8.83694 10.769 8.93616C10.8113 9.03538 10.8331 9.14214 10.8329 9.24999C10.8334 9.47736 10.745 9.69595 10.5865 9.85936L10.0937 10.3191C10.0942 10.329 10.0925 10.3389 10.0888 10.3481C10.0851 10.3574 10.0795 10.3657 10.0722 10.3725C10.0722 10.3939 10.0722 10.4046 10.0615 10.4153L10.6937 11.4844C10.7151 11.5271 10.7471 11.5379 10.8008 11.5271L11.4438 11.3347C11.5185 11.3041 11.5988 11.2895 11.6795 11.2919C11.818 11.2972 11.9536 11.3337 12.0759 11.3988C12.0972 11.4095 12.1187 11.4309 12.1401 11.4416C12.3008 11.5519 12.4181 11.7144 12.4723 11.9013L12.6222 12.5855C12.6263 12.6048 12.6373 12.6218 12.6531 12.6336C12.6688 12.6454 12.6883 12.6511 12.708 12.6497H13.9401C13.9593 12.649 13.9778 12.6425 13.9931 12.6311C14.0085 12.6196 14.0199 12.6037 14.0258 12.5855L14.1973 11.9227C14.2212 11.8183 14.266 11.7198 14.329 11.6331C14.3921 11.5465 14.4721 11.4735 14.5642 11.4186C14.6563 11.3636 14.7587 11.3278 14.865 11.3134C14.9713 11.299 15.0795 11.3063 15.183 11.3347L15.8579 11.5271C15.8779 11.5332 15.8995 11.5323 15.919 11.5245C15.9385 11.5167 15.9547 11.5026 15.9651 11.4844L16.5758 10.426C16.5853 10.4085 16.5884 10.3882 16.5845 10.3687C16.5806 10.3491 16.57 10.3316 16.5544 10.3191L16.0724 9.84857ZM13.3296 10.3297C13.1162 10.3307 12.9072 10.2685 12.7293 10.1508C12.5514 10.0332 12.4126 9.86541 12.3304 9.66887C12.2483 9.47232 12.2265 9.25585 12.2679 9.04694C12.3093 8.83802 12.4119 8.64609 12.5628 8.4955C12.7137 8.34492 12.9061 8.24248 13.1155 8.2012C13.3248 8.15991 13.5418 8.18164 13.7388 8.26362C13.9357 8.3456 14.1039 8.48414 14.2218 8.66165C14.3397 8.83915 14.4021 9.04762 14.401 9.26057C14.3996 9.54367 14.2862 9.81477 14.0856 10.015C13.885 10.2151 13.6133 10.3282 13.3296 10.3297V10.3297Z" fill="#171723"/>
<path d="M16.7199 16.1905H15.6004C15.5293 16.1905 15.4612 16.1623 15.411 16.1122C15.3607 16.0621 15.3325 15.9941 15.3325 15.9232C15.3325 15.8523 15.3607 15.7844 15.411 15.7342C15.4612 15.6841 15.5293 15.656 15.6004 15.656H16.7199C17.2319 15.6552 17.7226 15.4519 18.0845 15.0906C18.4464 14.7293 18.6499 14.2395 18.6504 13.7287V10.5475C18.6504 10.4767 18.6786 10.4087 18.7288 10.3586C18.7791 10.3084 18.8472 10.2803 18.9182 10.2803C18.9893 10.2803 19.0574 10.3084 19.1076 10.3586C19.1579 10.4087 19.1861 10.4767 19.1861 10.5475V13.7287C19.1855 14.3812 18.9255 15.0069 18.4632 15.4685C18.0008 15.93 17.3739 16.1897 16.7199 16.1905V16.1905Z" fill="#171723"/>
<path d="M13.3301 20.0001H0.80021C0.613234 20.0001 0.433916 19.9259 0.301703 19.794C0.169491 19.6621 0.0952148 19.4832 0.0952148 19.2966C0.0952148 19.11 0.169491 18.9311 0.301703 18.7992C0.433916 18.6673 0.613234 18.5931 0.80021 18.5931H13.3301C13.517 18.5931 13.6964 18.6673 13.8286 18.7992C13.9608 18.9311 14.0351 19.11 14.0351 19.2966C14.0351 19.4832 13.9608 19.6621 13.8286 19.794C13.6964 19.9259 13.517 20.0001 13.3301 20.0001Z" fill="#171723"/>
</g>
</g>
<defs>
<clipPath id="clip0_10317_147003">
<rect width="20" height="20" fill="white"/>
</clipPath>
<clipPath id="clip1_10317_147003">
<rect width="20" height="20" fill="white"/>
</clipPath>
</defs>
</svg>
