<svg width="20" height="20" viewBox="0 0 20 20" fill="none" xmlns="http://www.w3.org/2000/svg">
<path fill-rule="evenodd" clip-rule="evenodd" d="M8.58819 2.5L8.3943 3.84373C8.32861 4.29898 8.05533 4.69929 7.65284 4.92981L6.62871 5.51639C6.16222 5.78358 5.58735 5.78596 5.1186 5.52265L4.06813 4.93256L2.5733 7.46199L3.65031 8.28987C4.01999 8.57405 4.23624 9.01108 4.23624 9.47405V10.6005C4.23624 11.0634 4.01999 11.5005 3.6503 11.7846L2.57681 12.6098L4.07662 15.091L5.188 14.5395C5.62001 14.3251 6.12948 14.3271 6.55978 14.5448L7.58812 15.0651C8.02696 15.2871 8.32934 15.7061 8.39896 16.1885L8.58819 17.5H11.3917L11.5463 16.1995C11.6035 15.718 11.8927 15.2934 12.3225 15.0599L13.2336 14.565C13.6575 14.3348 14.1669 14.3181 14.6052 14.52L15.8745 15.1048L17.416 12.6269L16.2133 11.7983C15.8061 11.5178 15.5635 11.0582 15.5635 10.5676V9.50687C15.5635 9.01628 15.8061 8.55668 16.2133 8.2762L17.4199 7.44493L15.8822 4.91664L14.6761 5.5458C14.1992 5.79456 13.6245 5.7744 13.1667 5.49283L12.2557 4.93264C11.8638 4.69159 11.6041 4.28722 11.5502 3.83396L11.3917 2.5H8.58819ZM7.61163 2.18702C7.6685 1.79283 8.00995 1.5 8.41271 1.5H11.5716C11.982 1.5 12.3274 1.80371 12.3753 2.20666L12.5548 3.71728C12.5728 3.86837 12.6593 4.00316 12.79 4.08351L13.7009 4.6437C13.8535 4.73755 14.0451 4.74428 14.204 4.66136L15.5794 3.94394C15.9592 3.74587 16.4293 3.87548 16.6505 4.23926L18.3842 7.08987C18.6036 7.45064 18.5027 7.9178 18.1534 8.15847L16.7916 9.09665C16.6558 9.19014 16.575 9.34334 16.575 9.50687V10.5676C16.575 10.7312 16.6558 10.8844 16.7916 10.9779L18.151 11.9144C18.5029 12.1569 18.6023 12.6287 18.3776 12.9899L16.6416 15.7805C16.4264 16.1265 15.983 16.2581 15.6105 16.0865L14.1779 15.4264C14.0318 15.3591 13.862 15.3647 13.7207 15.4414L12.8096 15.9363C12.6663 16.0142 12.5699 16.1557 12.5508 16.3162L12.3753 17.7933C12.3274 18.1963 11.982 18.5 11.5716 18.5H8.41271C8.00995 18.5 7.6685 18.2072 7.61163 17.813L7.39761 16.3298C7.3744 16.1689 7.27361 16.0293 7.12733 15.9553L6.09899 15.435C5.95555 15.3624 5.78573 15.3618 5.64173 15.4332L4.36236 16.0681C3.98355 16.256 3.52221 16.1232 3.30478 15.7635L1.61675 12.9709C1.40706 12.624 1.49197 12.177 1.81466 11.929L3.02944 10.9952C3.15267 10.9005 3.22475 10.7548 3.22475 10.6005V9.47405C3.22475 9.31972 3.15267 9.17405 3.02944 9.07932L1.81255 8.14391C1.49227 7.89771 1.4059 7.45509 1.61057 7.10878L3.29561 4.25747C3.51914 3.87923 4.00879 3.74907 4.39404 3.96548L5.6183 4.65319C5.77454 4.74096 5.96617 4.74017 6.12166 4.65111L7.1458 4.06453C7.27996 3.98769 7.37105 3.85426 7.39295 3.70251L7.61163 2.18702Z" fill="#171723"/>
<path fill-rule="evenodd" clip-rule="evenodd" d="M10.0051 11.5384C10.8645 11.5384 11.5612 10.8496 11.5612 9.99996C11.5612 9.15029 10.8645 8.4615 10.0051 8.4615C9.14564 8.4615 8.44893 9.15029 8.44893 9.99996C8.44893 10.8496 9.14564 11.5384 10.0051 11.5384ZM10.0051 12.5C11.4016 12.5 12.5338 11.3807 12.5338 9.99996C12.5338 8.61925 11.4016 7.49996 10.0051 7.49996C8.60849 7.49996 7.47635 8.61925 7.47635 9.99996C7.47635 11.3807 8.60849 12.5 10.0051 12.5Z" fill="#171723"/>
</svg>
