<svg width="20" height="20" viewBox="0 0 20 20" fill="none" xmlns="http://www.w3.org/2000/svg">
<g clip-path="url(#clip0_5313_35069)">
<g clip-path="url(#clip1_5313_35069)">
<path d="M9.99705 13.1446C9.18136 13.145 8.39734 12.8288 7.81016 12.2626C7.22298 11.6964 6.87847 10.9244 6.8492 10.1092C6.81993 9.29405 7.10818 8.49934 7.65323 7.89249C8.19829 7.28563 8.9576 6.91401 9.77123 6.8559C10.5849 6.7978 11.3893 7.05774 12.015 7.58098C12.6408 8.10421 13.0391 8.84989 13.1259 9.66095C13.2128 10.472 12.9815 11.2851 12.4807 11.929C11.98 12.5729 11.2489 12.9973 10.4414 13.1128C10.2942 13.134 10.1457 13.1446 9.99705 13.1446ZM9.99949 7.68885C9.59183 7.68894 9.19145 7.79691 8.83901 8.00178C8.48657 8.20665 8.19461 8.50113 7.99278 8.85532C7.79095 9.20951 7.68643 9.6108 7.68984 10.0184C7.69325 10.4261 7.80446 10.8256 8.01218 11.1763L8.01302 11.1772C8.20671 11.5037 8.47789 11.7773 8.80255 11.9741C9.12722 12.1708 9.49536 12.2844 9.87441 12.3049C10.2535 12.3255 10.6317 12.2523 10.9757 12.0918C11.3198 11.9313 11.6189 11.6885 11.8468 11.3849C12.0746 11.0813 12.2241 10.7262 12.282 10.351C12.3399 9.97587 12.3045 9.59222 12.1788 9.23402C12.0531 8.87582 11.8411 8.55412 11.5615 8.29738C11.2819 8.04064 10.9433 7.85678 10.5757 7.76206C10.3874 7.71357 10.1939 7.68897 9.99949 7.68885Z" fill="#171723"/>
<path d="M11.6541 20H8.34515C8.01149 20.0005 7.68738 19.8925 7.42518 19.6934C7.16299 19.4943 6.97801 19.2157 6.90013 18.9026L6.46476 17.1652C6.43545 17.0498 6.38224 16.9413 6.30833 16.8463C6.23441 16.7513 6.14133 16.6717 6.03468 16.6123C5.92804 16.5529 5.81003 16.515 5.68779 16.5008C5.56554 16.4866 5.44158 16.4964 5.32336 16.5296L3.5634 17.0316C3.24318 17.1237 2.90013 17.1087 2.58983 16.9891C2.27954 16.8695 2.02021 16.6523 1.85386 16.3727L0.20089 13.6149C0.0330855 13.3364 -0.0323954 13.0115 0.0150505 12.6926C0.0624965 12.3738 0.220091 12.0797 0.462315 11.8581L1.78898 10.6351C1.87727 10.5537 1.94759 10.4559 1.9957 10.3476C2.04381 10.2394 2.06871 10.1228 2.06893 10.005C2.07076 9.88356 2.04688 9.76306 1.99874 9.65087C1.9506 9.53868 1.87922 9.43715 1.78898 9.35251L0.461282 8.1305C0.21976 7.90864 0.0626444 7.61481 0.0152322 7.29631C-0.03218 6.97782 0.0328704 6.65319 0.19991 6.37471L1.85485 3.6144C2.02082 3.33496 2.27983 3.11789 2.58982 2.99844C2.8998 2.87899 3.24253 2.86419 3.56233 2.95645L5.33567 3.45995C5.45276 3.4931 5.5756 3.50302 5.69677 3.48911C5.81794 3.4752 5.93494 3.43775 6.0407 3.37901C6.14874 3.31973 6.24321 3.23993 6.31838 3.14443C6.39356 3.04893 6.44788 2.93971 6.47807 2.82337L6.91034 1.09688C6.98876 0.783946 7.17404 0.505586 7.43635 0.306616C7.69866 0.107646 8.02274 -0.000354302 8.3564 3.26311e-06H11.654C11.9877 -0.000684015 12.3118 0.107213 12.574 0.306253C12.8362 0.505293 13.0212 0.783843 13.099 1.09688L13.5345 2.82637C13.5633 2.94057 13.6157 3.04797 13.6886 3.14217C13.7614 3.23636 13.8532 3.3154 13.9585 3.37457C14.067 3.43846 14.1881 3.47988 14.314 3.49621C14.44 3.51254 14.5681 3.50341 14.6903 3.46941L16.4461 2.96888C16.7664 2.8769 17.1096 2.89202 17.4199 3.0118C17.7302 3.13159 17.9895 3.34901 18.1556 3.6288L19.8003 6.38663C19.9674 6.66482 20.0324 6.98926 19.9848 7.30751C19.9372 7.62575 19.7797 7.9192 19.5379 8.14043L18.2102 9.36492C18.1219 9.44628 18.0515 9.54405 18.0034 9.65235C17.9553 9.76064 17.9304 9.87722 17.9303 9.99504C17.9282 10.1163 17.952 10.2367 18.0002 10.3488C18.0483 10.4609 18.1198 10.5622 18.2102 10.6465L19.5379 11.8695C19.7795 12.0916 19.9366 12.3857 19.9836 12.7045C20.0307 13.0232 19.965 13.348 19.7973 13.6263L18.1433 16.3856C17.9769 16.6646 17.7178 16.8813 17.408 17.0007C17.0981 17.12 16.7557 17.1352 16.4358 17.0436L14.6676 16.5415C14.5503 16.508 14.4271 16.4978 14.3056 16.5117C14.1841 16.5255 14.0667 16.5631 13.9607 16.6221C13.8547 16.6811 13.7622 16.7603 13.689 16.8548C13.6157 16.9494 13.5631 17.0574 13.5345 17.1722L13.0991 18.9036C13.0211 19.2165 12.8361 19.495 12.5739 19.6939C12.3117 19.8929 11.9876 20.0007 11.6541 20ZM5.5765 15.4779C6.01733 15.4779 6.44543 15.6206 6.79231 15.8831C7.13918 16.1456 7.38478 16.5128 7.48982 16.9259L7.92415 18.6633C7.9469 18.7545 8.0008 18.8356 8.07716 18.8936C8.15353 18.9516 8.24791 18.9831 8.3451 18.9831H11.654C11.7511 18.9834 11.8455 18.9521 11.9217 18.8941C11.998 18.8361 12.0517 18.7549 12.074 18.6637L12.5093 16.9328C12.5717 16.6842 12.6858 16.4504 12.8447 16.2456C13.0036 16.0408 13.2039 15.8693 13.4336 15.7415C13.6632 15.6137 13.9174 15.5323 14.1807 15.5022C14.4439 15.472 14.7108 15.4939 14.965 15.5663L16.7333 16.0683C16.8263 16.0945 16.9258 16.0899 17.0159 16.0552C17.106 16.0206 17.1815 15.9579 17.2304 15.8771L18.8854 13.1169C18.9343 13.0357 18.9534 12.9411 18.9396 12.8482C18.9257 12.7552 18.8798 12.6696 18.8093 12.605L17.4816 11.3825C17.2901 11.2039 17.1378 10.99 17.0338 10.7534C16.9298 10.5169 16.8763 10.2625 16.8764 10.0056C16.8765 9.7486 16.9302 9.49429 17.0344 9.25781C17.1385 9.02132 17.291 8.8075 17.4826 8.62909L18.8103 7.4046C18.8808 7.34038 18.9267 7.2551 18.9407 7.16256C18.9547 7.07002 18.936 6.97563 18.8875 6.89464L17.2427 4.13677C17.1948 4.05506 17.1194 3.9915 17.0291 3.95649C16.9388 3.92149 16.8389 3.91713 16.7456 3.94411L14.9887 4.44462C14.7334 4.51762 14.4652 4.53946 14.2008 4.50881C13.9364 4.47815 13.6812 4.39565 13.4511 4.26637C13.2181 4.13816 13.0146 3.9657 12.8527 3.75941C12.6909 3.55312 12.574 3.3173 12.5093 3.0662L12.074 1.33677C12.0518 1.2455 11.9982 1.16419 11.9219 1.10612C11.8456 1.04804 11.7512 1.01662 11.6541 1.017H8.35644C8.25906 1.01698 8.16451 1.04855 8.08798 1.10664C8.01145 1.16472 7.95738 1.24595 7.93446 1.33727L7.50219 3.06322C7.43891 3.31232 7.32403 3.54648 7.16446 3.75159C7.0049 3.95671 6.80396 4.12853 6.57374 4.25672C6.34352 4.38491 6.08879 4.46681 5.8249 4.49748C5.56101 4.52815 5.29342 4.50697 5.03824 4.4352L3.26385 3.93169C3.17092 3.9052 3.07146 3.90966 2.98148 3.94434C2.89149 3.97902 2.81622 4.0419 2.76777 4.12288L1.11279 6.88317C1.06414 6.9643 1.0452 7.05886 1.05902 7.15163C1.07283 7.2444 1.1186 7.32999 1.18894 7.39462L2.51768 8.61762C2.7091 8.79613 2.86134 9.00998 2.96531 9.24645C3.06928 9.48292 3.12286 9.73717 3.12286 9.99404C3.12286 10.2509 3.06928 10.5051 2.96531 10.7416C2.86134 10.9781 2.7091 11.1919 2.51768 11.3705L1.18997 12.5945C1.11926 12.6589 1.07316 12.7444 1.05915 12.8372C1.04514 12.9301 1.06404 13.0247 1.11279 13.1059L2.76674 15.8642C2.81543 15.9455 2.89101 16.0087 2.98135 16.0435C3.07169 16.0784 3.17154 16.0829 3.26489 16.0564L5.02485 15.5544C5.20401 15.5037 5.38977 15.4779 5.5765 15.4779Z" fill="#171723"/>
</g>
</g>
<defs>
<clipPath id="clip0_5313_35069">
<rect width="20" height="20" fill="white"/>
</clipPath>
<clipPath id="clip1_5313_35069">
<rect width="20" height="20" fill="white"/>
</clipPath>
</defs>
</svg>
