<svg width="20" height="20" viewBox="0 0 20 20" fill="none" xmlns="http://www.w3.org/2000/svg">
<path fill-rule="evenodd" clip-rule="evenodd" d="M7.76037 3.38394L7.99288 1.77373C8.01556 1.61667 8.1517 1.5 8.31229 1.5H11.6711C11.8347 1.5 11.9724 1.62101 11.9915 1.78156L12.1824 3.3866C12.2206 3.70766 12.4046 3.99409 12.6825 4.16483L13.6511 4.76003C13.9756 4.95947 14.3829 4.97376 14.721 4.79755L16.1834 4.0353C16.3348 3.95638 16.5222 4.00802 16.6104 4.15297L18.4538 7.18174C18.5413 7.32549 18.5011 7.51162 18.3618 7.60751L16.9138 8.60433C16.6252 8.803 16.4532 9.12855 16.4532 9.47605V10.6031C16.4532 10.9506 16.6252 11.2762 16.9138 11.4748L18.3593 12.4699C18.4996 12.5665 18.5392 12.7545 18.4497 12.8984L16.6038 15.8635C16.518 16.0013 16.3412 16.0538 16.1927 15.9854L14.6694 15.284C14.3587 15.141 13.9976 15.1528 13.6972 15.3159L12.7284 15.8418C12.4237 16.0072 12.2187 16.3079 12.1782 16.649L11.9915 18.2184C11.9724 18.379 11.8347 18.5 11.6711 18.5H8.31229C8.1517 18.5 8.01556 18.3833 7.99288 18.2263L7.76532 16.6504C7.71597 16.3086 7.50163 16.0118 7.19056 15.8546L6.09715 15.3018C5.79214 15.1476 5.431 15.1462 5.12477 15.298L3.76447 15.9725C3.61342 16.0474 3.42947 15.9945 3.34278 15.8511L1.54795 12.8841C1.46434 12.7459 1.4982 12.5678 1.62686 12.4689L2.9185 11.4768C3.18055 11.2755 3.33383 10.9659 3.33383 10.638V9.44118C3.33383 9.11324 3.18055 8.80368 2.9185 8.60239L1.62462 7.60851C1.49692 7.51042 1.46248 7.33406 1.54409 7.19607L3.33574 4.16656C3.42487 4.01586 3.62011 3.964 3.77372 4.05022L5.07542 4.78092C5.40769 4.96743 5.81518 4.96574 6.14586 4.77648L7.23479 4.15325C7.52008 3.98996 7.7138 3.70641 7.76037 3.38394ZM10.0054 12.6562C11.4903 12.6562 12.6941 11.467 12.6941 10C12.6941 8.53299 11.4903 7.34375 10.0054 7.34375C8.52046 7.34375 7.31669 8.53299 7.31669 10C7.31669 11.467 8.52046 12.6562 10.0054 12.6562Z" fill="#171723"/>
</svg>
