<svg width="20" height="20" viewBox="0 0 20 20" fill="none" xmlns="http://www.w3.org/2000/svg">
<path fill-rule="evenodd" clip-rule="evenodd" d="M15.8333 18.3333H4.16667L4.03809 18.3301C2.75972 18.2653 1.73469 17.2403 1.66993 15.9619L1.66667 15.8333V4.16666C1.66667 2.78595 2.78596 1.66666 4.16667 1.66666H15.8333C17.214 1.66666 18.3333 2.78595 18.3333 4.16666V15.8333C18.3333 17.1709 17.2829 18.2632 15.9619 18.3301L15.8333 18.3333ZM15.8333 17.0833H4.16667C3.47632 17.0833 2.91667 16.5237 2.91667 15.8333V4.16666C2.91667 3.47631 3.47632 2.91666 4.16667 2.91666H15.8333C16.5237 2.91666 17.0833 3.47631 17.0833 4.16666V15.8333C17.0833 16.5237 16.5237 17.0833 15.8333 17.0833Z" fill="#171723"/>
<path d="M12.5 7.5C12.5 7.00272 12.3023 6.52594 11.9507 6.17431C11.6431 5.86669 11.2397 5.67661 10.8106 5.63395L10.625 5.625H9.375C8.87772 5.625 8.40095 5.82268 8.04932 6.17431C7.69769 6.52594 7.5 7.00272 7.5 7.5L7.50896 7.68554C7.55161 8.1147 7.74169 8.51805 8.04932 8.82568C8.40095 9.17731 8.87772 9.375 9.375 9.375H10.625C11.4538 9.375 12.2484 9.70447 12.8345 10.2905C13.4205 10.8766 13.75 11.6712 13.75 12.5C13.75 13.3288 13.4205 14.1234 12.8345 14.7095C12.2484 15.2955 11.4538 15.625 10.625 15.625H9.375C8.5462 15.625 7.75158 15.2955 7.16553 14.7095C6.57948 14.1234 6.25 13.3288 6.25 12.5C6.25 12.1548 6.52983 11.875 6.875 11.875C7.22018 11.875 7.5 12.1548 7.5 12.5C7.5 12.9973 7.69769 13.4741 8.04932 13.8257C8.40095 14.1773 8.87772 14.375 9.375 14.375H10.625C11.1223 14.375 11.5991 14.1773 11.9507 13.8257C12.3023 13.4741 12.5 12.9973 12.5 12.5C12.5 12.0027 12.3023 11.5259 11.9507 11.1743C11.6431 10.8667 11.2397 10.6766 10.8106 10.6339L10.625 10.625H9.375C8.5462 10.625 7.75158 10.2955 7.16553 9.70947C6.61603 9.15997 6.29232 8.42712 6.25407 7.65462L6.25 7.5C6.25 6.6712 6.57948 5.87658 7.16553 5.29052C7.75158 4.70447 8.5462 4.375 9.375 4.375H10.625C11.4538 4.375 12.2484 4.70447 12.8345 5.29052C13.4205 5.87658 13.75 6.6712 13.75 7.5C13.75 7.84518 13.4702 8.125 13.125 8.125C12.7798 8.125 12.5 7.84518 12.5 7.5Z" fill="#171723"/>
</svg>
