<svg width="20" height="20" viewBox="0 0 20 20" fill="none" xmlns="http://www.w3.org/2000/svg">
<path fill-rule="evenodd" clip-rule="evenodd" d="M15.8333 1.66666C17.214 1.66666 18.3333 2.78595 18.3333 4.16666V15.8333C18.3333 17.214 17.214 18.3333 15.8333 18.3333H4.16667C2.78596 18.3333 1.66667 17.214 1.66667 15.8333V4.16666C1.66667 2.78595 2.78596 1.66666 4.16667 1.66666H15.8333ZM9.375 4.33349C8.53515 4.33349 7.7301 4.66736 7.13624 5.26123C6.54237 5.85509 6.2085 6.66015 6.2085 7.5L6.21257 7.65706C6.25141 8.43972 6.5795 9.18203 7.13624 9.73877C7.7301 10.3326 8.53515 10.6665 9.375 10.6665H10.625L10.8065 10.6755C11.2261 10.7172 11.6206 10.9028 11.9214 11.2036C12.2652 11.5474 12.4585 12.0138 12.4585 12.5C12.4585 12.9862 12.2652 13.4526 11.9214 13.7964C11.5776 14.1402 11.1112 14.3335 10.625 14.3335H9.375C8.88878 14.3335 8.42244 14.1402 8.07862 13.7964C7.7348 13.4526 7.54151 12.9862 7.54151 12.5C7.54151 12.1318 7.24319 11.8335 6.875 11.8335C6.50682 11.8335 6.2085 12.1318 6.2085 12.5C6.2085 13.3398 6.54237 14.1449 7.13624 14.7388C7.7301 15.3326 8.53515 15.6665 9.375 15.6665H10.625C11.4649 15.6665 12.2699 15.3326 12.8638 14.7388C13.4576 14.1449 13.7915 13.3398 13.7915 12.5C13.7915 11.6601 13.4576 10.8551 12.8638 10.2612C12.2699 9.66736 11.4649 9.33349 10.625 9.33349H9.375C8.88877 9.33349 8.42243 9.1402 8.07862 8.79638C7.77784 8.49561 7.59218 8.10107 7.55046 7.68148L7.54151 7.5C7.54151 7.01377 7.7348 6.54743 8.07862 6.20361C8.42243 5.85979 8.88877 5.6665 9.375 5.6665H10.625L10.8065 5.67545C11.2261 5.71717 11.6206 5.90283 11.9214 6.20361C12.2652 6.54743 12.4585 7.01377 12.4585 7.5C12.4585 7.86819 12.7568 8.1665 13.125 8.1665C13.4932 8.1665 13.7915 7.86819 13.7915 7.5C13.7915 6.66015 13.4576 5.85509 12.8638 5.26123C12.2699 4.66736 11.4649 4.33349 10.625 4.33349H9.375Z" fill="#171723"/>
</svg>
