<svg width="20" height="20" viewBox="0 0 20 20" fill="none" xmlns="http://www.w3.org/2000/svg">
<path fill-rule="evenodd" clip-rule="evenodd" d="M9.82326 3.53108C9.82323 3.5311 9.82329 3.53105 9.82326 3.53108L3.23936 10.115C3.23933 10.115 3.23939 10.115 3.23936 10.115C3.20446 10.1499 3.18062 10.1945 3.17098 10.2429C3.16135 10.2914 3.16629 10.3416 3.18521 10.3873C3.20412 10.433 3.23615 10.472 3.27723 10.4995C3.31828 10.5269 3.36653 10.5416 3.4159 10.5416C3.41595 10.5416 3.41584 10.5416 3.4159 10.5416H7.00084C7.41493 10.5416 7.75062 10.8773 7.75062 11.2914V16.5398H12.2493V11.2914C12.2493 10.8773 12.585 10.5416 12.9991 10.5416H16.5839C16.5839 10.5416 16.5838 10.5416 16.5839 10.5416C16.6332 10.5416 16.6816 10.5269 16.7227 10.4995C16.7638 10.472 16.7958 10.433 16.8147 10.3873C16.8336 10.3416 16.8386 10.2914 16.8289 10.2429C16.8193 10.1945 16.7955 10.15 16.7606 10.1151C16.7606 10.115 16.7607 10.1151 16.7606 10.1151L10.1767 3.53108C10.1766 3.53105 10.1767 3.5311 10.1767 3.53108C10.1298 3.48427 10.0662 3.4579 9.99996 3.4579C9.93373 3.4579 9.87012 3.48427 9.82326 3.53108ZM8.76307 2.47057C9.09115 2.14259 9.53606 1.95834 9.99996 1.95834C10.4639 1.95834 10.9088 2.14259 11.2368 2.47057L17.821 9.05471C18.0656 9.29938 18.2322 9.61115 18.2997 9.95047C18.3672 10.2898 18.3325 10.6415 18.2001 10.9611C18.0678 11.2808 17.8436 11.554 17.5559 11.7462C17.2683 11.9384 16.9301 12.0411 16.5842 12.0412H13.7489V17.2896C13.7489 17.7037 13.4132 18.0394 12.9991 18.0394H7.00084C6.58675 18.0394 6.25106 17.7037 6.25106 17.2896V12.0412H3.4159C3.06994 12.0411 2.7316 11.9384 2.44397 11.7462C2.15634 11.554 1.93216 11.2808 1.79978 10.9611C1.66739 10.6415 1.63275 10.2898 1.70022 9.95047C1.7677 9.61115 1.93426 9.29946 2.17885 9.05479L8.76307 2.47057Z" fill="#171723"/>
</svg>
