<svg width="20" height="20" viewBox="0 0 20 20" fill="none" xmlns="http://www.w3.org/2000/svg">
<path d="M9.9998 12.6762C11.5074 12.6762 12.7295 11.454 12.7295 9.94645C12.7295 8.43887 11.5074 7.21674 9.9998 7.21674C8.49222 7.21674 7.27009 8.43887 7.27009 9.94645C7.27009 11.454 8.49222 12.6762 9.9998 12.6762Z" fill="#171723"/>
<path d="M19.5887 8.73361C18.1156 6.81645 14.9121 3.6 9.99999 3.6C5.0879 3.6 1.88437 6.81645 0.411243 8.73361C-0.137081 9.44782 -0.137081 10.4451 0.411243 11.1594C1.88437 13.0765 5.08791 16.293 10 16.293C14.9121 16.293 18.1156 13.0765 19.5888 11.1594C20.1371 10.4451 20.1371 9.44782 19.5887 8.73361ZM9.99999 13.6934C7.93383 13.6934 6.2531 12.0126 6.2531 9.94649C6.2531 7.88033 7.93383 6.1996 9.99999 6.1996C12.0661 6.1996 13.7469 7.88033 13.7469 9.94649C13.7469 12.0126 12.0661 13.6934 9.99999 13.6934Z" fill="#171723"/>
</svg>
