<svg width="20" height="20" viewBox="0 0 20 20" fill="none" xmlns="http://www.w3.org/2000/svg">
<g clip-path="url(#clip0_5313_35067)">
<path d="M10 16C5.08791 16 1.88438 12.9591 0.411251 11.1467C0.144541 10.8176 0 10.4146 0 10C0 9.58543 0.144541 9.18242 0.411251 8.85335C1.88433 7.04085 5.08786 4 10 4C14.9121 4 18.1156 7.04085 19.5888 8.85335C19.8555 9.18242 20 9.58543 20 10C20 10.4146 19.8555 10.8176 19.5888 11.1467C18.1156 12.9592 14.912 16 10 16ZM10 4.96165C5.52399 4.96165 2.57674 7.76679 1.21784 9.43935C1.08557 9.59948 1.01372 9.79682 1.01372 9.99999C1.01372 10.2032 1.08557 10.4005 1.21784 10.5606C2.57668 12.2332 5.52394 15.0383 10 15.0383C14.4761 15.0383 17.4233 12.2332 18.7822 10.5607C18.9144 10.4005 18.9863 10.2032 18.9863 10C18.9863 9.79684 18.9144 9.59949 18.7822 9.43937C17.4232 7.76679 14.476 4.96165 10 4.96165Z" fill="#171723"/>
<path d="M9.99999 14C9.20887 14 8.43551 13.7654 7.77771 13.3259C7.11992 12.8863 6.60723 12.2616 6.30448 11.5307C6.00173 10.7998 5.92252 9.99556 6.07686 9.21963C6.2312 8.44371 6.61217 7.73098 7.17158 7.17157C7.73099 6.61216 8.44372 6.2312 9.21964 6.07686C9.99557 5.92252 10.7998 6.00173 11.5307 6.30448C12.2616 6.60724 12.8864 7.11993 13.3259 7.77772C13.7654 8.43552 14 9.20888 14 10C13.9988 11.0605 13.577 12.0773 12.8271 12.8272C12.0772 13.577 11.0605 13.9988 9.99999 14V14ZM9.99999 7.0859C9.42364 7.0859 8.86022 7.25681 8.381 7.57702C7.90178 7.89723 7.52828 8.35235 7.30772 8.88483C7.08716 9.41731 7.02945 10.0032 7.14189 10.5685C7.25434 11.1338 7.53188 11.653 7.93942 12.0606C8.34697 12.4681 8.86621 12.7457 9.43149 12.8581C9.99677 12.9706 10.5827 12.9128 11.1152 12.6923C11.6477 12.4717 12.1028 12.0982 12.423 11.619C12.7432 11.1398 12.9141 10.5764 12.9141 10C12.9131 9.22743 12.6058 8.48677 12.0595 7.94048C11.5132 7.39419 10.7726 7.08686 9.99999 7.0859V7.0859Z" fill="#171723"/>
</g>
<defs>
<clipPath id="clip0_5313_35067">
<rect width="20" height="20" fill="white"/>
</clipPath>
</defs>
</svg>
