<svg width="20" height="20" viewBox="0 0 20 20" fill="none" xmlns="http://www.w3.org/2000/svg">
<g clip-path="url(#clip0_19509_7541)">
<path d="M16.7047 9.15838C16.6642 9.30093 16.6191 9.4422 16.5701 9.58081C16.5185 9.72669 16.4629 9.86992 16.4021 10.0112L14.3688 9.96826C14.3688 10.0098 14.3688 10.0508 14.3675 10.0924L19.8943 10.2092C19.9014 9.87982 19.8929 9.55111 19.8675 9.22503L16.7041 9.15838H16.7047Z" fill="black"/>
<path d="M12.4381 0.332623L12.3825 0.471896C12.6891 0.588068 12.9858 0.726021 13.2714 0.882456L11.3047 5.80588C11.4244 5.84285 11.544 5.88576 11.6623 5.93394C11.6681 5.93657 11.674 5.93855 11.6793 5.94121L13.7466 0.764965C13.7407 0.762326 13.7348 0.760345 13.7296 0.757704C13.3034 0.584108 12.8721 0.442854 12.4381 0.332623Z" fill="black"/>
<path d="M14.4152 1.6653C14.6616 1.8719 14.8943 2.09499 15.1113 2.33329L12.3054 6.26067C12.4034 6.32141 12.4988 6.38543 12.5904 6.45275L15.825 1.92602C15.4779 1.67256 15.1113 1.43955 14.7263 1.23031L14.4152 1.66596V1.6653Z" fill="black"/>
<path d="M15.9001 3.37751C16.0675 3.64681 16.2171 3.928 16.3485 4.21976L13.1603 6.95442C13.2269 7.02438 13.291 7.09632 13.3531 7.17091L17.5662 3.55705C17.3054 3.24551 17.025 2.94913 16.7256 2.66992L15.9008 3.37751H15.9001Z" fill="black"/>
<path d="M18.3067 4.56562L16.7466 5.35111C16.825 5.65275 16.8845 5.96232 16.9237 6.2785L13.8139 7.84418C13.8518 7.91281 13.8884 7.98212 13.9224 8.0521L18.8681 5.56232C18.7002 5.21974 18.5126 4.88707 18.306 4.56562H18.3067Z" fill="black"/>
<path d="M16.9779 7.33988C16.9714 7.65275 16.9446 7.96166 16.8988 8.26398L14.2256 8.86992C14.2407 8.928 14.2551 8.9861 14.2675 9.04483L19.6602 7.8224C19.5832 7.47521 19.4884 7.13264 19.3753 6.796L16.9779 7.33923V7.33988Z" fill="black"/>
<path d="M19.7484 11.701L16.0629 10.7003C15.9243 10.9465 15.772 11.1848 15.6067 11.4118L14.2394 11.0409C14.2315 11.0719 14.2237 11.1023 14.2152 11.1333L19.5524 12.5821C19.6316 12.2891 19.6963 11.9953 19.7478 11.7003L19.7484 11.701Z" fill="black"/>
<path d="M15.1903 11.9326C15.0217 12.1247 14.8426 12.3075 14.6544 12.4798L13.8596 12.0369C13.8472 12.0607 13.8341 12.0844 13.8211 12.1082L18.6603 14.8046C18.7903 14.5663 18.9119 14.3214 19.0243 14.0693L15.1897 11.9326H15.1903Z" fill="black"/>
<path d="M14.193 12.8692C14.0113 13.0098 13.8224 13.1412 13.6276 13.264L13.2518 12.9135C13.2381 12.9293 13.2237 12.9445 13.2093 12.9603L17.2694 16.7485C17.4354 16.5683 17.5949 16.3808 17.7479 16.1868L14.193 12.8699V12.8692Z" fill="black"/>
<path d="M15.9897 17.9161L13.1348 13.5465C13.0217 13.6052 12.9073 13.6607 12.791 13.7135C12.791 13.7135 12.5812 13.8046 12.5335 13.8244L15.4557 18.2963C15.6381 18.1755 15.8158 18.0488 15.9903 17.9161H15.9897Z" fill="black"/>
<path d="M12.0485 13.9999C12.0001 14.0151 11.6936 14.1049 11.6028 14.1273C11.6028 14.1273 11.5171 14.1485 11.4936 14.1537L13.3269 19.361C13.5073 19.2963 13.6858 19.227 13.8622 19.1518L12.0485 13.9993V13.9999Z" fill="black"/>
<path d="M10.9466 14.2528C10.7858 14.2877 10.623 14.3128 10.4583 14.3293L11.01 19.8838C11.174 19.8673 11.3374 19.8467 11.4995 19.8224L10.9466 14.2534V14.2528Z" fill="black"/>
<path d="M9.82826 14.3438C9.691 14.3366 9.55375 14.3234 9.41649 14.3029L8.63545 19.8297C8.77204 19.8495 8.9093 19.8665 9.0459 19.8812L9.82826 14.3445V14.3438Z" fill="black"/>
<path d="M3.38579 10.8072C3.4263 10.6646 3.4714 10.5234 3.52042 10.3848C3.57206 10.2389 3.62761 10.0957 3.6884 9.95441L5.72173 9.9973C5.72173 9.95572 5.72173 9.91481 5.72304 9.87323L0.196243 9.75639C0.189053 10.0858 0.197549 10.4145 0.223039 10.7406L3.38644 10.8072H3.38579Z" fill="black"/>
<path d="M7.65308 19.633L7.70865 19.4937C7.4021 19.3775 7.10537 19.2395 6.81975 19.0831L8.78641 14.1597C8.66681 14.1227 8.5472 14.0798 8.4289 14.0316C8.42302 14.029 8.41714 14.027 8.4119 14.0244L6.34459 19.2006C6.35047 19.2032 6.35635 19.2052 6.36159 19.2079C6.78773 19.3815 7.2191 19.5227 7.65308 19.633Z" fill="black"/>
<path d="M5.67531 18.3003C5.42891 18.0937 5.19623 17.8706 4.97923 17.6323L7.78511 13.7049C7.68707 13.6442 7.59166 13.5801 7.50015 13.5128L4.2655 18.0395C4.61256 18.293 4.97923 18.526 5.36421 18.7353L5.67531 18.2996V18.3003Z" fill="black"/>
<path d="M4.19036 16.5881C4.02304 16.3188 3.87336 16.0376 3.74199 15.7458L6.93022 13.0112C6.86355 12.9412 6.79952 12.8693 6.73742 12.7947L2.52434 16.4085C2.78512 16.7201 3.06551 17.0165 3.36487 17.2957L4.18971 16.5881H4.19036Z" fill="black"/>
<path d="M1.78447 15.3999L3.34461 14.6145C3.26618 14.3128 3.20669 14.0032 3.16747 13.6871L6.27728 12.1214C6.23938 12.0527 6.20277 11.9834 6.16879 11.9135L1.22238 14.4032C1.39036 14.7458 1.57794 15.0785 1.78447 15.3999Z" fill="black"/>
<path d="M3.11256 12.6257C3.11909 12.3128 3.14589 12.0039 3.19164 11.7016L5.86484 11.0957C5.84982 11.0376 5.83542 10.9795 5.82301 10.9208L0.430206 12.1425C0.50733 12.4897 0.602102 12.8323 0.715173 13.1689L3.11321 12.6257H3.11256Z" fill="black"/>
<path d="M0.341995 8.26464L4.02761 9.26529C4.16618 9.01909 4.31846 8.78081 4.48383 8.55374L5.85114 8.92469C5.85899 8.89368 5.86683 8.86331 5.87532 8.8323L0.537421 7.38279C0.458334 7.67586 0.393629 7.96959 0.341995 8.26464Z" fill="black"/>
<path d="M4.90016 8.03295C5.06879 7.84087 5.24788 7.65804 5.43612 7.48576L6.23088 7.92865C6.2433 7.90489 6.25637 7.88113 6.26945 7.85737L1.43023 5.16034C1.30016 5.39863 1.1786 5.64352 1.06618 5.89566L4.90082 8.0323L4.90016 8.03295Z" fill="black"/>
<path d="M5.89819 7.09632C6.0799 6.95572 6.26878 6.82438 6.46355 6.7016L6.83937 7.0521C6.8531 7.03626 6.86747 7.02107 6.88186 7.00523L2.82172 3.21711C2.6557 3.39731 2.49623 3.58477 2.34329 3.77883L5.89819 7.09566V7.09632Z" fill="black"/>
<path d="M4.10147 2.04945L6.95637 6.41909C7.06943 6.36034 7.18382 6.30489 7.30016 6.2521C7.30016 6.2521 7.50996 6.16101 7.55767 6.14121L4.6361 1.66926C4.45375 1.79005 4.27598 1.91678 4.10147 2.04945Z" fill="black"/>
<path d="M8.04198 5.96563C8.09035 5.95046 8.39688 5.86068 8.48774 5.83824C8.48774 5.83824 8.57335 5.81711 8.59688 5.81184L6.76355 0.604576C6.58315 0.669263 6.40474 0.73857 6.22827 0.813818L8.04198 5.9663V5.96563Z" fill="black"/>
<path d="M9.14397 5.71281C9.30475 5.67784 9.4675 5.65275 9.6322 5.63626L9.08122 0.0817986C8.91717 0.0983001 8.75377 0.118762 8.59167 0.143185L9.14462 5.71216L9.14397 5.71281Z" fill="black"/>
<path d="M10.2629 5.62172C10.4002 5.62899 10.5374 5.6422 10.6747 5.66265L11.4551 0.13592C11.3185 0.116118 11.1812 0.0989559 11.0446 0.0844345L10.2623 5.62107L10.2629 5.62172Z" fill="black"/>
</g>
<defs>
<clipPath id="clip0_19509_7541">
<rect width="20" height="20" fill="white"/>
</clipPath>
</defs>
</svg>
