<svg width="20" height="20" viewBox="0 0 20 20" fill="none" xmlns="http://www.w3.org/2000/svg">
<g clip-path="url(#clip0_20343_2105)">
<path d="M16.7045 9.15837C16.664 9.30092 16.6189 9.44219 16.5699 9.5808C16.5183 9.72668 16.4627 9.86991 16.4019 10.0112L14.3686 9.96825C14.3686 10.0098 14.3686 10.0508 14.3673 10.0923L19.8941 10.2092C19.9012 9.87981 19.8928 9.5511 19.8673 9.22502L16.7045 9.15837Z" fill="black"/>
<path d="M12.4379 0.332612L12.3823 0.471885C12.6889 0.588057 12.9856 0.72601 13.2712 0.882445L11.3046 5.80587C11.4242 5.84284 11.5438 5.88575 11.6621 5.93393C11.668 5.93656 11.6738 5.93854 11.6791 5.9412L13.7464 0.764954C13.7405 0.762315 13.7346 0.760335 13.7294 0.757693C13.3033 0.584097 12.8719 0.442843 12.4379 0.332612Z" fill="black"/>
<path d="M14.415 1.66528C14.6614 1.87188 14.8941 2.09498 15.1111 2.33328L12.3052 6.26066C12.4032 6.32139 12.4987 6.38541 12.5902 6.45274L15.8248 1.92601C15.4777 1.67254 15.1111 1.43954 14.7261 1.2303L14.415 1.66528Z" fill="black"/>
<path d="M15.9 3.37749C16.0673 3.6468 16.217 3.92799 16.3483 4.21975L13.1601 6.9544C13.2268 7.02436 13.2908 7.09631 13.3529 7.1709L17.566 3.55704C17.3052 3.24549 17.0248 2.94912 16.7255 2.66991L15.9 3.37749Z" fill="black"/>
<path d="M18.3065 4.56561L16.7464 5.3511C16.8248 5.65274 16.8843 5.96231 16.9235 6.27848L13.8137 7.84417C13.8516 7.9128 13.8882 7.98211 13.9222 8.05209L18.8679 5.5623C18.7 5.21973 18.513 4.88706 18.3065 4.56561Z" fill="black"/>
<path d="M16.9777 7.33987C16.9712 7.65274 16.9444 7.96165 16.8987 8.26397L14.2255 8.86991C14.2405 8.92799 14.2549 8.98609 14.2673 9.04482L19.66 7.82239C19.583 7.4752 19.4882 7.13262 19.3751 6.79599L16.9777 7.33987Z" fill="black"/>
<path d="M19.7483 11.7009L16.0627 10.7003C15.9242 10.9465 15.7719 11.1848 15.6065 11.4118L14.2392 11.0409C14.2313 11.0719 14.2235 11.1022 14.215 11.1333L19.5523 12.5821C19.6314 12.2891 19.6961 11.9953 19.7477 11.7003L19.7483 11.7009Z" fill="black"/>
<path d="M15.1902 11.9326C15.0215 12.1247 14.8424 12.3075 14.6542 12.4798L13.8594 12.0369C13.847 12.0607 13.834 12.0844 13.8209 12.1082L18.6601 14.8046C18.7902 14.5663 18.9117 14.3214 19.0241 14.0693L15.1902 11.9326Z" fill="black"/>
<path d="M14.1928 12.8692C14.0111 13.0098 13.8222 13.1412 13.6274 13.264L13.2516 12.9135C13.2379 12.9293 13.2235 12.9445 13.2091 12.9603L17.2693 16.7484C17.4353 16.5682 17.5947 16.3808 17.7477 16.1867L14.1928 12.8692Z" fill="black"/>
<path d="M15.9895 17.9161L13.1346 13.5465C13.0215 13.6052 12.9072 13.6607 12.7908 13.7135C12.7908 13.7135 12.581 13.8045 12.5333 13.8243L15.4555 18.2963C15.6379 18.1755 15.815 18.0488 15.9895 17.9161Z" fill="black"/>
<path d="M12.0483 13.9999C12 14.0151 11.6934 14.1049 11.6026 14.1273C11.6026 14.1273 11.517 14.1484 11.4934 14.1537L13.3268 19.361C13.5072 19.2963 13.6856 19.227 13.8621 19.1518L12.0483 13.9999Z" fill="black"/>
<path d="M10.9464 14.2527C10.7856 14.2877 10.6229 14.3128 10.4582 14.3293L11.0098 19.8838C11.1738 19.8673 11.3372 19.8467 11.4993 19.8224L10.9464 14.2527Z" fill="black"/>
<path d="M9.82808 14.3438C9.69082 14.3366 9.55357 14.3234 9.41631 14.3029L8.63527 19.8297C8.77186 19.8495 8.90912 19.8665 9.04573 19.8812L9.82808 14.3438Z" fill="black"/>
<path d="M3.38561 10.8072C3.42612 10.6646 3.47121 10.5234 3.52023 10.3848C3.57188 10.2389 3.62743 10.0957 3.68821 9.9544L5.72155 9.9973C5.72155 9.95571 5.72155 9.9148 5.72286 9.87322L0.19606 9.75638C0.18887 10.0858 0.197366 10.4145 0.222856 10.7405L3.38561 10.8072Z" fill="black"/>
<path d="M7.6529 19.6329L7.70847 19.4937C7.40192 19.3775 7.1052 19.2395 6.81957 19.0831L8.78623 14.1597C8.66663 14.1227 8.54702 14.0798 8.42872 14.0316C8.42284 14.029 8.41696 14.027 8.41172 14.0243L6.34441 19.2006C6.35029 19.2032 6.35618 19.2052 6.36141 19.2079C6.78755 19.3815 7.21892 19.5227 7.6529 19.6329Z" fill="black"/>
<path d="M5.67514 18.3003C5.42874 18.0937 5.19606 17.8706 4.97906 17.6323L7.78494 13.7049C7.6869 13.6442 7.59149 13.5801 7.49998 13.5128L4.26533 18.0395C4.61239 18.293 4.97906 18.526 5.36404 18.7353L5.67514 18.3003Z" fill="black"/>
<path d="M4.19018 16.5881C4.02286 16.3188 3.87318 16.0376 3.7418 15.7458L6.93004 13.0112C6.86337 12.9412 6.79933 12.8693 6.73723 12.7947L2.52416 16.4085C2.78494 16.7201 3.06533 17.0164 3.36469 17.2957L4.19018 16.5881Z" fill="black"/>
<path d="M1.78429 15.3999L3.34443 14.6145C3.266 14.3128 3.20651 14.0032 3.16729 13.6871L6.2771 12.1214C6.23919 12.0527 6.20259 11.9834 6.16861 11.9135L1.2222 14.4032C1.39018 14.7458 1.57776 15.0785 1.78429 15.3999Z" fill="black"/>
<path d="M3.11239 12.6257C3.11892 12.3128 3.14572 12.0039 3.19147 11.7016L5.86467 11.0957C5.84965 11.0376 5.83525 10.9795 5.82284 10.9207L0.430036 12.1425C0.50716 12.4897 0.601932 12.8323 0.715003 13.1689L3.11239 12.6257Z" fill="black"/>
<path d="M0.341811 8.26462L4.02743 9.26528C4.166 9.01908 4.31827 8.7808 4.48365 8.55373L5.85096 8.92468C5.8588 8.89367 5.86665 8.8633 5.87514 8.83229L0.537236 7.38278C0.45815 7.67585 0.393444 7.96957 0.341811 8.26462Z" fill="black"/>
<path d="M4.89998 8.03294C5.06861 7.84086 5.2477 7.65803 5.43594 7.48575L6.2307 7.92864C6.24312 7.90488 6.25619 7.88112 6.26927 7.85735L1.43005 5.16032C1.29999 5.39862 1.17842 5.64351 1.066 5.89565L4.90065 8.03228L4.89998 8.03294Z" fill="black"/>
<path d="M5.89802 7.09631C6.07972 6.95571 6.26861 6.82437 6.46337 6.70159L6.83919 7.05209C6.85292 7.03625 6.86729 7.02106 6.88168 7.00522L2.82155 3.2171C2.65553 3.3973 2.49606 3.58476 2.34312 3.77882L5.89802 7.09631Z" fill="black"/>
<path d="M4.10129 2.04943L6.9562 6.41908C7.06925 6.36033 7.18365 6.30488 7.29998 6.25209C7.29998 6.25209 7.50978 6.161 7.55749 6.1412L4.63592 1.66925C4.45357 1.79004 4.2758 1.91677 4.10129 2.04943Z" fill="black"/>
<path d="M8.0418 5.96561C8.09018 5.95044 8.3967 5.86066 8.48757 5.83823C8.48757 5.83823 8.57318 5.8171 8.59671 5.81183L6.76337 0.604562C6.58298 0.669249 6.40457 0.738556 6.2281 0.813804L8.0418 5.96561Z" fill="black"/>
<path d="M9.14378 5.7128C9.30457 5.67783 9.46731 5.65274 9.63202 5.63625L9.08104 0.0817871C8.91698 0.0982887 8.75359 0.118751 8.59149 0.143173L9.14443 5.71215L9.14378 5.7128Z" fill="black"/>
<path d="M10.2627 5.62171C10.4 5.62898 10.5372 5.64219 10.6745 5.66264L11.4549 0.135907C11.3183 0.116105 11.181 0.0989434 11.0444 0.084422L10.2621 5.62106L10.2627 5.62171Z" fill="black"/>
</g>
<defs>
<clipPath id="clip0_20343_2105">
<rect width="20" height="20" fill="white"/>
</clipPath>
</defs>
</svg>
