<svg width="20" height="20" viewBox="0 0 20 20" fill="none" xmlns="http://www.w3.org/2000/svg">
<g clip-path="url(#clip0_19509_7485)">
<path d="M16.7047 9.10596C16.6642 9.24854 16.6191 9.38978 16.5701 9.5284C16.5185 9.67428 16.4629 9.81751 16.4021 9.95877L14.3688 9.91586C14.3688 9.95745 14.3688 9.99838 14.3675 10.04L19.8943 10.1568C19.9014 9.82741 19.8929 9.49869 19.8674 9.17263L16.7041 9.10596H16.7047Z" fill="white"/>
<path d="M12.4381 0.280216L12.3825 0.419489C12.6891 0.535662 12.9858 0.673616 13.2714 0.830052L11.3047 5.75348C11.4244 5.79045 11.544 5.83335 11.6623 5.88154C11.6681 5.88418 11.674 5.88616 11.6793 5.88879L13.7466 0.712559C13.7407 0.709919 13.7348 0.707939 13.7296 0.705299C13.3034 0.531701 12.8721 0.390448 12.4381 0.280216Z" fill="white"/>
<path d="M14.4152 1.61289C14.6616 1.81949 14.8943 2.0426 15.1113 2.28087L12.3054 6.20828C12.4034 6.26899 12.4988 6.33301 12.5904 6.40034L15.825 1.87362C15.4779 1.62015 15.1113 1.38715 14.7263 1.17791L14.4152 1.61355V1.61289Z" fill="white"/>
<path d="M15.9001 3.32511C16.0675 3.59441 16.2171 3.8756 16.3485 4.16735L13.1603 6.902C13.2269 6.97196 13.291 7.04392 13.3531 7.11849L17.5662 3.50463C17.3054 3.19309 17.025 2.89671 16.7256 2.6175L15.9008 3.32511H15.9001Z" fill="white"/>
<path d="M18.3067 4.51321L16.7465 5.29869C16.825 5.60034 16.8845 5.90992 16.9237 6.22608L13.8139 7.79176C13.8518 7.86041 13.8884 7.92972 13.9224 7.99968L18.8681 5.50992C18.7002 5.16735 18.5126 4.83467 18.306 4.51321H18.3067Z" fill="white"/>
<path d="M16.9779 7.28748C16.9714 7.60036 16.9446 7.90927 16.8988 8.21156L14.2256 8.8175C14.2407 8.8756 14.2551 8.93368 14.2675 8.99244L19.6602 7.76998C19.5832 7.42279 19.4884 7.08022 19.3753 6.74358L16.9779 7.28681V7.28748Z" fill="white"/>
<path d="M19.7484 11.6485L16.0629 10.6479C15.9243 10.8941 15.772 11.1324 15.6067 11.3594L14.2394 10.9885C14.2315 11.0195 14.2237 11.0499 14.2152 11.0809L19.5524 12.5297C19.6316 12.2367 19.6963 11.9429 19.7478 11.6479L19.7484 11.6485Z" fill="white"/>
<path d="M15.1903 11.8802C15.0217 12.0723 14.8426 12.2551 14.6544 12.4274L13.8596 11.9845C13.8472 12.0083 13.8341 12.032 13.8211 12.0558L18.6603 14.7522C18.7903 14.5139 18.9119 14.269 19.0243 14.0169L15.1897 11.8802H15.1903Z" fill="white"/>
<path d="M14.193 12.8169C14.0113 12.9574 13.8224 13.0888 13.6276 13.2116L13.2518 12.8611C13.2381 12.8769 13.2237 12.8921 13.2093 12.9079L17.2694 16.6961C17.4354 16.5159 17.5949 16.3284 17.7479 16.1343L14.193 12.8175V12.8169Z" fill="white"/>
<path d="M15.9897 17.8637L13.1348 13.4941C13.0217 13.5528 12.9073 13.6083 12.791 13.6611C12.791 13.6611 12.5812 13.7522 12.5335 13.772L15.4557 18.2439C15.6381 18.1231 15.8158 17.9964 15.9903 17.8637H15.9897Z" fill="white"/>
<path d="M12.0485 13.9475C12.0001 13.9627 11.6936 14.0525 11.6028 14.0749C11.6028 14.0749 11.5171 14.0961 11.4936 14.1013L13.3269 19.3086C13.5073 19.2439 13.6858 19.1746 13.8622 19.0993L12.0485 13.9469V13.9475Z" fill="white"/>
<path d="M10.9466 14.2004C10.7858 14.2353 10.623 14.2604 10.4583 14.2769L11.01 19.8313C11.174 19.8148 11.3374 19.7944 11.4995 19.77L10.9466 14.201V14.2004Z" fill="white"/>
<path d="M9.82826 14.2914C9.691 14.2842 9.55375 14.271 9.41649 14.2505L8.63545 19.7772C8.77204 19.797 8.9093 19.8143 9.0459 19.8287L9.82826 14.2921V14.2914Z" fill="white"/>
<path d="M3.38578 10.7548C3.42629 10.6122 3.47139 10.471 3.52041 10.3324C3.57206 10.1865 3.62761 10.0433 3.68839 9.902L5.72172 9.94491C5.72172 9.90333 5.72172 9.8624 5.72304 9.82081L0.196235 9.70398C0.189045 10.0334 0.197541 10.3621 0.223031 10.6881L3.38643 10.7548H3.38578Z" fill="white"/>
<path d="M7.65308 19.5805L7.70865 19.4413C7.4021 19.3251 7.10537 19.1871 6.81975 19.0307L8.78641 14.1073C8.66681 14.0703 8.5472 14.0274 8.4289 13.9792C8.42302 13.9766 8.41714 13.9746 8.4119 13.972L6.34459 19.1482C6.35047 19.1508 6.35635 19.1528 6.36159 19.1555C6.78773 19.3291 7.2191 19.4703 7.65308 19.5805Z" fill="white"/>
<path d="M5.67531 18.2479C5.42892 18.0413 5.19624 17.8182 4.97924 17.5799L7.78512 13.6525C7.68708 13.5918 7.59167 13.5277 7.50016 13.4604L4.26551 17.9871C4.61257 18.2406 4.97924 18.4736 5.36422 18.6828L5.67531 18.2472V18.2479Z" fill="white"/>
<path d="M4.19035 16.5357C4.02304 16.2664 3.87335 15.9852 3.74198 15.6934L6.93021 12.9588C6.86355 12.8888 6.79951 12.8169 6.73741 12.7423L2.52433 16.3561C2.78511 16.6677 3.06551 16.964 3.36486 17.2432L4.1897 16.5357H4.19035Z" fill="white"/>
<path d="M1.78447 15.3475L3.34461 14.5621C3.26618 14.2604 3.20669 13.9509 3.16747 13.6347L6.27728 12.069C6.23938 12.0004 6.20277 11.931 6.16879 11.8611L1.22238 14.3509C1.39036 14.6934 1.57794 15.0261 1.78447 15.3475Z" fill="white"/>
<path d="M3.11257 12.5733C3.1191 12.2604 3.1459 11.9515 3.19165 11.6492L5.86484 11.0433C5.84982 10.9852 5.83543 10.9271 5.82302 10.8683L0.430214 12.0901C0.507337 12.4373 0.60211 12.7799 0.715181 13.1165L3.11322 12.5733H3.11257Z" fill="white"/>
<path d="M0.341988 8.21224L4.02761 9.21289C4.16618 8.96669 4.31845 8.7284 4.48382 8.50135L5.85114 8.8723C5.85898 8.84127 5.86682 8.81091 5.87531 8.77988L0.537413 7.33038C0.458327 7.62345 0.393621 7.91719 0.341988 8.21224Z" fill="white"/>
<path d="M4.90016 7.98055C5.06879 7.78848 5.24788 7.60562 5.43612 7.43335L6.23088 7.87626C6.2433 7.8525 6.25637 7.82873 6.26945 7.80497L1.43023 5.10794C1.30016 5.34622 1.1786 5.59111 1.06618 5.84325L4.90082 7.97988L4.90016 7.98055Z" fill="white"/>
<path d="M5.89819 7.0439C6.0799 6.90331 6.26878 6.77196 6.46355 6.64919L6.83937 6.99968C6.8531 6.98384 6.86747 6.96865 6.88186 6.95281L2.82172 3.16469C2.6557 3.34489 2.49623 3.53236 2.34329 3.72641L5.89819 7.04325V7.0439Z" fill="white"/>
<path d="M4.10147 1.99705L6.95637 6.36669C7.06943 6.30794 7.18382 6.2525 7.30016 6.19968C7.30016 6.19968 7.50996 6.10859 7.55767 6.08879L4.6361 1.61685C4.45375 1.73764 4.27598 1.86438 4.10147 1.99705Z" fill="white"/>
<path d="M8.04198 5.91323C8.09035 5.89804 8.39688 5.80828 8.48774 5.78582C8.48774 5.78582 8.57335 5.76471 8.59688 5.75943L6.76355 0.55217C6.58315 0.616857 6.40474 0.686164 6.22827 0.761411L8.04198 5.91388V5.91323Z" fill="white"/>
<path d="M9.14396 5.66041C9.30475 5.62542 9.46749 5.60036 9.6322 5.58384L9.08122 0.0293922C8.91716 0.0458938 8.75377 0.0663558 8.59167 0.0907782L9.14461 5.65976L9.14396 5.66041Z" fill="white"/>
<path d="M10.2629 5.56933C10.4002 5.57657 10.5374 5.58978 10.6747 5.61024L11.4551 0.0835133C11.3185 0.0637114 11.1812 0.0465496 11.0446 0.0320282L10.2623 5.56865L10.2629 5.56933Z" fill="white"/>
</g>
<defs>
<clipPath id="clip0_19509_7485">
<rect width="20" height="20" fill="white"/>
</clipPath>
</defs>
</svg>
