<svg width="20" height="20" viewBox="0 0 20 20" fill="none" xmlns="http://www.w3.org/2000/svg">
<g clip-path="url(#clip0_18354_1646)">
<path d="M4.65824 12.4417C4.65824 13.5167 3.79157 14.3833 2.71657 14.3833C1.64157 14.3833 0.774902 13.5167 0.774902 12.4417C0.774902 11.3667 1.64157 10.5 2.71657 10.5H4.65824V12.4417ZM5.6249 12.4417C5.6249 11.3667 6.49157 10.5 7.56657 10.5C8.64157 10.5 9.50824 11.3667 9.50824 12.4417V17.2917C9.50824 18.3667 8.64157 19.2333 7.56657 19.2333C6.49157 19.2333 5.6249 18.3667 5.6249 17.2917V12.4417Z" fill="#E01E5A"/>
<path d="M7.5666 4.65006C6.4916 4.65006 5.62494 3.78339 5.62494 2.70839C5.62494 1.63339 6.4916 0.766724 7.5666 0.766724C8.6416 0.766724 9.50827 1.63339 9.50827 2.70839V4.65006H7.5666ZM7.5666 5.63339C8.6416 5.63339 9.50827 6.50006 9.50827 7.57506C9.50827 8.65006 8.6416 9.51672 7.5666 9.51672H2.70827C1.63327 9.51672 0.766602 8.65006 0.766602 7.57506C0.766602 6.50006 1.63327 5.63339 2.70827 5.63339H7.5666Z" fill="#36C5F0"/>
<path d="M15.3417 7.57506C15.3417 6.50006 16.2084 5.63339 17.2834 5.63339C18.3584 5.63339 19.225 6.50006 19.225 7.57506C19.225 8.65006 18.3584 9.51672 17.2834 9.51672H15.3417V7.57506ZM14.375 7.57506C14.375 8.65006 13.5084 9.51672 12.4334 9.51672C11.3584 9.51672 10.4917 8.65006 10.4917 7.57506V2.70839C10.4917 1.63339 11.3584 0.766724 12.4334 0.766724C13.5084 0.766724 14.375 1.63339 14.375 2.70839V7.57506Z" fill="#2EB67D"/>
<path d="M12.4334 15.35C13.5084 15.35 14.375 16.2167 14.375 17.2917C14.375 18.3667 13.5084 19.2334 12.4334 19.2334C11.3584 19.2334 10.4917 18.3667 10.4917 17.2917V15.35H12.4334ZM12.4334 14.375C11.3584 14.375 10.4917 13.5084 10.4917 12.4334C10.4917 11.3584 11.3584 10.4917 12.4334 10.4917H17.3C18.375 10.4917 19.2417 11.3584 19.2417 12.4334C19.2417 13.5084 18.375 14.375 17.3 14.375H12.4334Z" fill="#ECB22E"/>
</g>
<defs>
<clipPath id="clip0_18354_1646">
<rect width="20" height="20" fill="white"/>
</clipPath>
</defs>
</svg>
