<svg width="20" height="20" viewBox="0 0 20 20" fill="none" xmlns="http://www.w3.org/2000/svg">
<g clip-path="url(#clip0_18355_1698)">
<path d="M4.65824 12.4417C4.65824 13.5167 3.79157 14.3833 2.71657 14.3833C1.64157 14.3833 0.774902 13.5167 0.774902 12.4417C0.774902 11.3667 1.64157 10.5 2.71657 10.5H4.65824V12.4417Z" fill="#E01E5A"/>
<path d="M5.625 12.4417C5.625 11.3667 6.49167 10.5 7.56667 10.5C8.64167 10.5 9.50833 11.3667 9.50833 12.4417V17.2917C9.50833 18.3667 8.64167 19.2333 7.56667 19.2333C6.49167 19.2333 5.625 18.3667 5.625 17.2917V12.4417Z" fill="#E01E5A"/>
<path d="M7.56667 4.65006C6.49167 4.65006 5.625 3.78339 5.625 2.70839C5.625 1.63339 6.49167 0.766724 7.56667 0.766724C8.64167 0.766724 9.50833 1.63339 9.50833 2.70839V4.65006H7.56667Z" fill="#36C5F0"/>
<path d="M7.5666 5.6333C8.6416 5.6333 9.50827 6.49997 9.50827 7.57497C9.50827 8.64997 8.6416 9.51663 7.5666 9.51663H2.70827C1.63327 9.51663 0.766602 8.64997 0.766602 7.57497C0.766602 6.49997 1.63327 5.6333 2.70827 5.6333H7.5666Z" fill="#36C5F0"/>
<path d="M15.3416 7.57497C15.3416 6.49997 16.2082 5.6333 17.2832 5.6333C18.3582 5.6333 19.2249 6.49997 19.2249 7.57497C19.2249 8.64997 18.3582 9.51663 17.2832 9.51663H15.3416V7.57497Z" fill="#2EB67D"/>
<path d="M14.375 7.57506C14.375 8.65006 13.5084 9.51672 12.4334 9.51672C11.3584 9.51672 10.4917 8.65006 10.4917 7.57506V2.70839C10.4917 1.63339 11.3584 0.766724 12.4334 0.766724C13.5084 0.766724 14.375 1.63339 14.375 2.70839V7.57506Z" fill="#2EB67D"/>
<path d="M12.4334 15.35C13.5084 15.35 14.375 16.2166 14.375 17.2916C14.375 18.3666 13.5084 19.2333 12.4334 19.2333C11.3584 19.2333 10.4917 18.3666 10.4917 17.2916V15.35H12.4334Z" fill="#ECB22E"/>
<path d="M12.4334 14.375C11.3584 14.375 10.4917 13.5084 10.4917 12.4334C10.4917 11.3584 11.3584 10.4917 12.4334 10.4917H17.3C18.375 10.4917 19.2417 11.3584 19.2417 12.4334C19.2417 13.5084 18.375 14.375 17.3 14.375H12.4334Z" fill="#ECB22E"/>
</g>
<defs>
<clipPath id="clip0_18355_1698">
<rect width="20" height="20" fill="white"/>
</clipPath>
</defs>
</svg>
