<svg width="20" height="20" viewBox="0 0 20 20" fill="none" xmlns="http://www.w3.org/2000/svg">
<path d="M5.99359 13.75C4.95304 13.75 4.0679 13.3851 3.33817 12.6554C2.60845 11.9257 2.24359 11.0406 2.24359 10C2.24359 8.95944 2.60845 8.07431 3.33817 7.34458C4.0679 6.61486 4.95304 6.25 5.99359 6.25C6.65345 6.25 7.2506 6.40278 7.78505 6.70833C8.31935 7.01389 8.75852 7.41667 9.10255 7.91667H15.6732C16.2554 7.91667 16.7482 8.11833 17.1515 8.52167C17.5548 8.925 17.7565 9.41778 17.7565 10C17.7565 10.5822 17.5548 11.075 17.1515 11.4783C16.7482 11.8817 16.2554 12.0833 15.6732 12.0833H9.10255C8.75852 12.5833 8.31935 12.9861 7.78505 13.2917C7.2506 13.5972 6.65345 13.75 5.99359 13.75ZM9.64422 10.8333H15.6732C15.9093 10.8333 16.1072 10.7535 16.2669 10.5938C16.4266 10.434 16.5065 10.2361 16.5065 10C16.5065 9.76389 16.4266 9.56597 16.2669 9.40625C16.1072 9.24653 15.9093 9.16667 15.6732 9.16667H9.64422C9.67741 9.29167 9.70227 9.43056 9.7188 9.58333C9.73533 9.73611 9.74359 9.875 9.74359 10C9.74359 10.125 9.73533 10.2639 9.7188 10.4167C9.70227 10.5694 9.67741 10.7083 9.64422 10.8333ZM5.99359 12.5C6.68804 12.5 7.27831 12.2569 7.76442 11.7708C8.25054 11.2847 8.49359 10.6944 8.49359 10C8.49359 9.30556 8.25054 8.71528 7.76442 8.22917C7.27831 7.74306 6.68804 7.5 5.99359 7.5C5.29915 7.5 4.70887 7.74306 4.22276 8.22917C3.73665 8.71528 3.49359 9.30556 3.49359 10C3.49359 10.6944 3.73665 11.2847 4.22276 11.7708C4.70887 12.2569 5.29915 12.5 5.99359 12.5Z" fill="#171723"/>
</svg>
