<svg width="20" height="20" viewBox="0 0 20 20" fill="none" xmlns="http://www.w3.org/2000/svg">
<path fill-rule="evenodd" clip-rule="evenodd" d="M10.8314 0.833182C10.8314 0.373028 11.2044 0 11.6645 0H15.8304C18.1312 0 19.9964 1.86514 19.9964 4.16591V8.33182C19.9964 8.79197 19.6233 9.165 19.1632 9.165C18.703 9.165 18.33 8.79197 18.33 8.33182V4.16591C18.33 2.78545 17.2109 1.66636 15.8304 1.66636H11.6645C11.2044 1.66636 10.8314 1.29334 10.8314 0.833182Z" fill="#171723"/>
<path fill-rule="evenodd" clip-rule="evenodd" d="M9.165 19.1632C9.165 19.6233 8.79197 19.9964 8.33181 19.9964H4.16591C1.86514 19.9964 0 18.1312 0 15.8305V11.6645C0 11.2044 0.373028 10.8314 0.833182 10.8314C1.29334 10.8314 1.66636 11.2044 1.66636 11.6645V15.8305C1.66636 17.2109 2.78545 18.33 4.16591 18.33H8.33181C8.79197 18.33 9.165 18.703 9.165 19.1632Z" fill="#171723"/>
<path d="M14.8304 11.1302C15.1078 10.4269 16.1032 10.4269 16.3806 11.1302L17.1223 13.011C17.207 13.2258 17.377 13.3957 17.5917 13.4804L19.4725 14.2222C20.1758 14.4996 20.1758 15.495 19.4725 15.7723L17.5917 16.5141C17.377 16.5988 17.207 16.7688 17.1223 16.9835L16.3806 18.8643C16.1032 19.5676 15.1078 19.5676 14.8304 18.8643L14.0886 16.9835C14.0039 16.7688 13.834 16.5988 13.6192 16.5141L11.7384 15.7723C11.0351 15.495 11.0351 14.4996 11.7384 14.2222L13.6192 13.4804C13.834 13.3957 14.0039 13.2258 14.0886 13.011L14.8304 11.1302Z" fill="#171723"/>
<path fill-rule="evenodd" clip-rule="evenodd" d="M6.34605 6.34606C5.17469 7.51742 3.27555 7.51742 2.10419 6.34606C0.932827 5.1747 0.932827 3.27555 2.10419 2.10419C3.27555 0.932833 5.17469 0.932833 6.34605 2.10419C7.51741 3.27555 7.51741 5.1747 6.34605 6.34606ZM1.27938 7.17087C-0.34751 5.54398 -0.34751 2.90627 1.27938 1.27938C2.90627 -0.347503 5.54397 -0.347503 7.17086 1.27938C8.65778 2.7663 8.78571 5.09758 7.55465 6.72979L10.1166 9.29177C10.3444 9.51954 10.3444 9.88882 10.1166 10.1166C9.88887 10.3443 9.51959 10.3443 9.29182 10.1166L6.72985 7.55461C5.09764 8.78572 2.76631 8.6578 1.27938 7.17087Z" fill="#171723"/>
</svg>
