<svg width="20" height="20" viewBox="0 0 20 20" fill="none" xmlns="http://www.w3.org/2000/svg">
<g clip-path="url(#clip0_10314_144685)">
<path d="M15.9582 18.0003H4.04307C2.96024 17.9992 1.92207 17.5685 1.15639 16.8029C0.390712 16.0372 -0.0399191 14.999 -0.0410003 13.9162V8.89187C-0.0685864 8.36888 0.00999358 7.84572 0.190005 7.35392C0.370016 6.86211 0.647731 6.41184 1.00642 6.03024C1.3651 5.64863 1.79733 5.34359 2.27706 5.1335C2.75679 4.92342 3.27408 4.81262 3.79778 4.8078H4.55856C4.90659 4.80624 5.24383 4.68681 5.51526 4.46897C5.7867 4.25113 5.97632 3.94776 6.05319 3.60831C6.15009 3.15225 6.40101 2.74343 6.76378 2.45056C7.12656 2.15768 7.57908 1.99858 8.04533 2.00001H11.9619C12.4259 2.00231 12.8754 2.16194 13.2369 2.4528C13.5984 2.74367 13.8505 3.14857 13.9521 3.60131C14.0278 3.94231 14.2171 4.24746 14.4891 4.46669C14.761 4.68592 15.0994 4.8062 15.4487 4.8078H15.9582C17.041 4.80889 18.0792 5.23952 18.8449 6.00519C19.6106 6.77087 20.0412 7.80904 20.0423 8.89187V13.9162C20.0412 14.999 19.6106 16.0372 18.8449 16.8029C18.0792 17.5685 17.041 17.9992 15.9582 18.0003ZM3.79778 5.82882C3.40767 5.83234 3.02243 5.91588 2.6659 6.07426C2.30937 6.23265 1.98914 6.46251 1.72501 6.74962C1.46089 7.03674 1.25849 7.375 1.13035 7.74348C1.0022 8.11196 0.951037 8.50282 0.980016 8.89187V13.9162C0.980902 14.7283 1.3039 15.5069 1.87814 16.0811C2.45238 16.6554 3.23097 16.9783 4.04307 16.9792H15.9582C16.7703 16.9783 17.5489 16.6554 18.1231 16.0811C18.6974 15.5069 19.0204 14.7283 19.0213 13.9162V8.89187C19.0204 8.07977 18.6974 7.30119 18.1231 6.72695C17.5489 6.15271 16.7703 5.82971 15.9582 5.82882H15.4487C14.8668 5.82627 14.3031 5.62603 13.85 5.26097C13.3969 4.89591 13.0813 4.3877 12.955 3.8197C12.9063 3.59283 12.7809 3.38963 12.6001 3.24421C12.4193 3.09879 12.194 3.01998 11.9619 3.02103H8.04533C7.81381 3.01986 7.58893 3.09827 7.40832 3.24312C7.22772 3.38796 7.10236 3.59046 7.05323 3.8167C6.92649 4.38491 6.61074 4.89332 6.1576 5.25881C5.70445 5.62431 5.14072 5.82526 4.55856 5.82882H3.79778Z" fill="#171723"/>
<path d="M10.0005 14.594C9.22629 14.594 8.46944 14.3645 7.82569 13.9343C7.18194 13.5042 6.6802 12.8928 6.38392 12.1775C6.08763 11.4622 6.01011 10.6751 6.16116 9.91577C6.3122 9.15642 6.68503 8.45891 7.23249 7.91145C7.77996 7.36398 8.47747 6.99116 9.23682 6.84011C9.99617 6.68907 10.7833 6.76659 11.4986 7.06287C12.2139 7.35916 12.8252 7.8609 13.2554 8.50465C13.6855 9.1484 13.9151 9.90524 13.9151 10.6795C13.9138 11.7173 13.5009 12.7122 12.7671 13.446C12.0332 14.1799 11.0383 14.5927 10.0005 14.594ZM10.0005 7.78591C9.42822 7.78591 8.86878 7.95562 8.39294 8.27356C7.9171 8.59151 7.54622 9.04342 7.32721 9.57215C7.10821 10.1009 7.05091 10.6827 7.16255 11.244C7.2742 11.8053 7.54979 12.3209 7.95446 12.7255C8.35913 13.1302 8.87471 13.4058 9.43601 13.5174C9.99731 13.6291 10.5791 13.5718 11.1078 13.3528C11.6366 13.1338 12.0885 12.7629 12.4064 12.287C12.7244 11.8112 12.8941 11.2518 12.8941 10.6795C12.8931 9.91236 12.5879 9.17694 12.0455 8.63451C11.503 8.09208 10.7676 7.78692 10.0005 7.78594V7.78591Z" fill="#171723"/>
<path d="M3.19382 9.55756C3.70132 9.55756 4.11273 9.14614 4.11273 8.63864C4.11273 8.13114 3.70132 7.71973 3.19382 7.71973C2.68631 7.71973 2.2749 8.13114 2.2749 8.63864C2.2749 9.14614 2.68631 9.55756 3.19382 9.55756Z" fill="#171723"/>
</g>
<defs>
<clipPath id="clip0_10314_144685">
<rect width="20" height="20" fill="white"/>
</clipPath>
</defs>
</svg>
