<svg width="20" height="20" viewBox="0 0 20 20" fill="none" xmlns="http://www.w3.org/2000/svg">
<path fill-rule="evenodd" clip-rule="evenodd" d="M19.3141 8.62684L16.9605 9.98763L19.3141 11.3441C19.4593 11.4233 19.5873 11.5306 19.6904 11.66C19.7936 11.7893 19.8698 11.9379 19.9146 12.0971C19.9595 12.2564 19.972 12.4229 19.9515 12.5871C19.931 12.7512 19.8778 12.9096 19.7952 13.0529C19.7126 13.1962 19.6021 13.3215 19.4703 13.4215C19.3385 13.5214 19.1881 13.594 19.0278 13.635C18.8675 13.6759 18.7007 13.6844 18.5371 13.6599C18.3735 13.6354 18.2165 13.5784 18.0752 13.4923L13.8595 11.0588C13.5882 10.9033 13.3867 10.65 13.2961 10.3506C13.255 10.2204 13.2362 10.0842 13.2405 9.94769C13.2433 9.84998 13.2576 9.75227 13.2833 9.65456C13.3703 9.34063 13.5766 9.07316 13.8581 8.90927L18.0724 6.47869C18.2134 6.39739 18.369 6.34467 18.5304 6.32354C18.6918 6.3024 18.8557 6.31328 19.0129 6.35553C19.17 6.39779 19.3174 6.4706 19.4464 6.56981C19.5754 6.66901 19.6836 6.79267 19.7648 6.93371C19.8469 7.07428 19.9005 7.22971 19.9223 7.39105C19.9441 7.55239 19.9337 7.71644 19.8918 7.87377C19.8499 8.03109 19.7773 8.17856 19.6781 8.30769C19.579 8.43682 19.4552 8.54576 19.3141 8.62684ZM17.0853 15.2211L12.8732 12.7919C12.6563 12.6649 12.4054 12.6081 12.155 12.6293C11.8429 12.6522 11.551 12.7925 11.3382 13.022C11.1254 13.2515 11.0075 13.553 11.0082 13.866V18.73C11.0042 18.8953 11.0333 19.0598 11.0939 19.2137C11.1544 19.3676 11.2451 19.5078 11.3606 19.6262C11.4761 19.7445 11.6142 19.8385 11.7666 19.9027C11.919 19.9669 12.0827 20 12.2481 20C12.4134 20 12.5771 19.9669 12.7295 19.9027C12.8819 19.8385 13.02 19.7445 13.1355 19.6262C13.251 19.5078 13.3417 19.3676 13.4022 19.2137C13.4628 19.0598 13.4919 18.8953 13.488 18.73V16.0092L15.8465 17.3707C15.9873 17.4525 16.1428 17.5057 16.3042 17.5272C16.4656 17.5488 16.6297 17.5382 16.787 17.4962C16.9443 17.4542 17.0918 17.3816 17.2209 17.2824C17.3501 17.1833 17.4584 17.0596 17.5396 16.9185C17.7041 16.6331 17.7487 16.2941 17.6635 15.9758C17.5783 15.6576 17.3704 15.3862 17.0853 15.2211ZM12.2242 10.4626L10.4725 12.2121C10.4126 12.268 10.3348 12.3008 10.2529 12.3048H9.73867C9.65691 12.3003 9.57926 12.2675 9.519 12.2121L7.76739 10.4626C7.71288 10.4025 7.68087 10.3254 7.67681 10.2444V9.72945C7.67681 9.65813 7.71675 9.55899 7.76739 9.50836L9.51758 7.7596C9.57794 7.70452 9.65562 7.67223 9.73724 7.66831H10.2529C10.3242 7.66831 10.4219 7.70824 10.4725 7.7596L12.2242 9.50907C12.2741 9.55899 12.3147 9.65813 12.3147 9.73016V10.2451C12.3102 10.326 12.2782 10.4022 12.2242 10.4626ZM10.8242 9.97764C10.8185 9.89559 10.7857 9.81776 10.7307 9.75655L10.2244 9.25089C10.1637 9.19581 10.0858 9.16332 10.004 9.15889H9.98401C9.90274 9.16365 9.82562 9.19641 9.76577 9.25161L9.2594 9.75655C9.20569 9.81814 9.17429 9.89602 9.17025 9.97764V9.99761C9.17025 10.0682 9.20876 10.1659 9.25869 10.2158L9.76577 10.7222C9.81569 10.7729 9.9134 10.8149 9.98401 10.8149H10.004C10.0856 10.8099 10.1631 10.7772 10.2236 10.7222L10.7307 10.2158C10.7856 10.1558 10.8183 10.0788 10.8234 9.99761L10.8242 9.97764ZM2.90552 4.74847L7.11981 7.18048C7.3466 7.31099 7.59765 7.36306 7.83871 7.34309C8.15089 7.31952 8.44262 7.17883 8.65543 6.94922C8.86825 6.7196 8.98641 6.41804 8.98624 6.10498V1.24096C8.97848 0.917273 8.84444 0.60945 8.61276 0.383261C8.38108 0.157072 8.07014 0.0304524 7.74635 0.0304524C7.42257 0.0304524 7.11162 0.157072 6.87994 0.383261C6.64826 0.60945 6.51422 0.917273 6.50646 1.24096V3.96253L4.14577 2.59889C3.86072 2.43433 3.52197 2.38975 3.20404 2.47495C2.88612 2.56014 2.61506 2.76815 2.4505 3.0532C2.28594 3.33825 2.24135 3.677 2.32655 3.99493C2.41175 4.31285 2.62047 4.58391 2.90552 4.74847ZM12.1557 7.34309C12.4059 7.36356 12.6563 7.30681 12.8732 7.18048L17.0853 4.74847C17.3703 4.58365 17.5782 4.31247 17.6634 3.99448C17.7486 3.67649 17.7041 3.33769 17.5396 3.05249C17.3752 2.76783 17.1045 2.56013 16.787 2.47507C16.4695 2.39001 16.1312 2.43455 15.8465 2.59889L13.4872 3.96324V1.23954C13.4872 0.910792 13.3566 0.595511 13.1242 0.363052C12.8917 0.130594 12.5764 0 12.2477 0C11.919 0 11.6037 0.130594 11.3712 0.363052C11.1388 0.595511 11.0082 0.910792 11.0082 1.23954V6.10426C11.0075 6.41736 11.1254 6.7191 11.3381 6.9488C11.5509 7.1785 11.8427 7.31912 12.155 7.34237L12.1557 7.34309ZM7.83871 12.6293C7.58803 12.608 7.3369 12.6648 7.11981 12.7919L2.9048 15.2211C2.62012 15.3865 2.41262 15.6581 2.32773 15.9762C2.24285 16.2944 2.28751 16.6332 2.45192 16.9185C2.61655 17.2027 2.88725 17.41 3.20458 17.4947C3.5219 17.5795 3.8599 17.5349 4.14434 17.3707L6.50503 16.0092V18.7307C6.50503 19.0596 6.63566 19.3749 6.86819 19.6075C7.10071 19.84 7.41608 19.9706 7.74492 19.9706C8.07376 19.9706 8.38914 19.84 8.62166 19.6075C8.85419 19.3749 8.98482 19.0596 8.98482 18.7307V13.866C8.98566 13.5531 8.86787 13.2515 8.65519 13.0221C8.44251 12.7926 8.15075 12.6522 7.83871 12.6293ZM6.69617 10.3506C6.73753 10.2187 6.75465 10.0825 6.7518 9.94769C6.74588 9.7358 6.68557 9.52899 6.57666 9.34714C6.46774 9.16529 6.31389 9.0145 6.12989 8.90927L1.91916 6.47869C1.77817 6.39718 1.62248 6.3443 1.46101 6.32305C1.29954 6.30181 1.13547 6.31264 0.978189 6.3549C0.82091 6.39717 0.673516 6.47005 0.544448 6.56937C0.41538 6.6687 0.307176 6.79251 0.226033 6.93371C0.144294 7.07452 0.0911811 7.23009 0.0697445 7.39149C0.0483079 7.55288 0.0589703 7.71692 0.101119 7.87418C0.143268 8.03145 0.216073 8.17883 0.315351 8.30788C0.414629 8.43692 0.538425 8.54507 0.679627 8.62613L3.03318 9.98763L0.6782 11.3441C0.534132 11.4239 0.407401 11.5316 0.305404 11.661C0.203408 11.7903 0.128187 11.9386 0.0841333 12.0973C0.0400792 12.256 0.0280736 12.4219 0.0488172 12.5853C0.0695607 12.7486 0.122638 12.9063 0.204952 13.0489C0.287265 13.1916 0.397166 13.3164 0.528241 13.4161C0.659316 13.5158 0.80894 13.5884 0.968381 13.6297C1.12782 13.671 1.29389 13.6801 1.45688 13.6565C1.61988 13.6329 1.77655 13.5771 1.91774 13.4923L6.12917 11.0588C6.41445 10.8962 6.60702 10.6395 6.69617 10.3506Z" fill="#249EDC"/>
</svg>
