<svg width="20" height="20" viewBox="0 0 20 20" fill="none" xmlns="http://www.w3.org/2000/svg">
<g clip-path="url(#clip0_10314_145983)">
<g clip-path="url(#clip1_10314_145983)">
<path d="M4.70488 0.191267C4.6241 0.112942 4.5235 0.0581303 4.41389 0.0327313C4.38892 0.0257929 4.36353 0.0205107 4.33787 0.0169194C4.229 -0.00182869 4.11711 0.00848278 4.01349 0.0468126L4.01051 0.0471687L4.00033 0.0553991C3.92814 0.084961 3.86207 0.127662 3.80546 0.181332L1.78314 2.1596C1.72249 2.21778 1.67397 2.28741 1.64038 2.36445C1.6068 2.4415 1.58882 2.52444 1.58748 2.60847C1.58614 2.69251 1.60147 2.77597 1.63259 2.85405C1.6637 2.93212 1.70998 3.00326 1.76875 3.06334C1.82752 3.12342 1.89761 3.17126 1.97498 3.20409C2.05235 3.23692 2.13546 3.25409 2.21951 3.25461C2.30355 3.25513 2.38686 3.23899 2.46463 3.20711C2.5424 3.17524 2.61308 3.12827 2.67259 3.06892L3.61421 2.1478V19.364C3.61421 19.5327 3.68122 19.6944 3.8005 19.8137C3.91978 19.933 4.08155 20 4.25024 20C4.41892 20 4.5807 19.933 4.69997 19.8137C4.81925 19.6944 4.88626 19.5327 4.88626 19.364V2.195L5.7285 3.05526C5.78668 3.11591 5.85631 3.16443 5.93335 3.19801C6.0104 3.2316 6.09333 3.24958 6.17737 3.25091C6.2614 3.25225 6.34487 3.23692 6.42295 3.20581C6.50102 3.1747 6.57216 3.12842 6.63224 3.06965C6.69232 3.01088 6.74016 2.94078 6.77299 2.86341C6.80582 2.78604 6.82299 2.70294 6.82351 2.61889C6.82403 2.53485 6.80788 2.45153 6.77601 2.37376C6.74414 2.296 6.69717 2.22532 6.63781 2.16581L4.70488 0.191267Z" fill="#171723"/>
<path d="M18.2189 16.9342C18.1592 16.8758 18.0886 16.8297 18.0111 16.7986C17.9336 16.7675 17.8507 16.7519 17.7672 16.7528C17.6837 16.7538 17.6012 16.7711 17.5244 16.804C17.4476 16.8368 17.378 16.8844 17.3196 16.9441L16.4773 17.805V0.636026C16.4773 0.467342 16.4103 0.305566 16.2911 0.186288C16.1718 0.0670098 16.01 0 15.8413 0C15.6726 0 15.5109 0.0670098 15.3916 0.186288C15.2723 0.305566 15.2053 0.467342 15.2053 0.636026V17.8531L14.2624 16.9317C14.2029 16.8724 14.1322 16.8254 14.0545 16.7935C13.9767 16.7616 13.8934 16.7455 13.8093 16.746C13.7253 16.7465 13.6422 16.7637 13.5648 16.7965C13.4875 16.8294 13.4174 16.8772 13.3586 16.9373C13.2998 16.9974 13.2535 17.0685 13.2224 17.1466C13.1913 17.2247 13.176 17.3081 13.1773 17.3922C13.1787 17.4762 13.1966 17.5591 13.2302 17.6362C13.2638 17.7132 13.3123 17.7829 13.373 17.841L15.3966 19.8187C15.455 19.8755 15.5238 19.9204 15.5993 19.951L15.6016 19.9528L15.6023 19.953C15.7569 20.0162 15.9301 20.0157 16.0843 19.9517C16.1639 19.9191 16.236 19.8704 16.296 19.8087L18.2289 17.8336C18.2873 17.7739 18.3334 17.7033 18.3645 17.6257C18.3956 17.5482 18.4111 17.4653 18.4102 17.3818C18.4093 17.2983 18.3919 17.2158 18.3591 17.139C18.3263 17.0622 18.2786 16.9926 18.2189 16.9342V16.9342Z" fill="#171723"/>
</g>
</g>
<defs>
<clipPath id="clip0_10314_145983">
<rect width="20" height="20" fill="white"/>
</clipPath>
<clipPath id="clip1_10314_145983">
<rect width="20" height="20" fill="white"/>
</clipPath>
</defs>
</svg>
