<svg width="20" height="20" viewBox="0 0 20 20" fill="none" xmlns="http://www.w3.org/2000/svg">
<path d="M5.20829 15.8333V5.67545L2.94185 7.94189C2.69777 8.18597 2.30214 8.18597 2.05806 7.94189C1.81398 7.69781 1.81398 7.30218 2.05806 7.0581L5.39139 3.72477L5.43859 3.68164C5.68408 3.48138 6.04634 3.49593 6.27518 3.72477L9.60851 7.0581L9.65165 7.1053C9.8519 7.35079 9.83735 7.71305 9.60851 7.94189C9.37968 8.17073 9.01741 8.18528 8.77193 7.98502L8.72473 7.94189L6.45829 5.67545V15.8333C6.45829 16.1785 6.17846 16.4583 5.83329 16.4583C5.48811 16.4583 5.20829 16.1785 5.20829 15.8333Z" fill="#171723"/>
<path d="M13.5416 4.16666C13.5416 3.82148 13.8214 3.54166 14.1666 3.54166C14.5118 3.54166 14.7916 3.82148 14.7916 4.16666V14.3245L17.0581 12.0581C17.3021 11.814 17.6978 11.814 17.9418 12.0581C18.1859 12.3022 18.1859 12.6978 17.9418 12.9419L14.6085 16.2752C14.3644 16.5193 13.9688 16.5193 13.7247 16.2752L10.3914 12.9419C10.1473 12.6978 10.1473 12.3022 10.3914 12.0581C10.6202 11.8293 10.9825 11.8147 11.228 12.015L11.2752 12.0581L13.5416 14.3245V4.16666Z" fill="#171723"/>
</svg>
