<svg width="20" height="20" viewBox="0 0 20 20" fill="none" xmlns="http://www.w3.org/2000/svg">
<path d="M10 20C15.5228 20 20 15.5228 20 10C20 4.47715 15.5228 0 10 0C4.47715 0 0 4.47715 0 10C0 15.5228 4.47715 20 10 20Z" fill="white"/>
<path fill-rule="evenodd" clip-rule="evenodd" d="M13.4272 2.13759C14.5406 2.44957 15.4692 3.05659 16.4405 3.97961C17.4132 4.90395 18.2661 6.10707 18.471 7.43045C18.6776 8.7648 18.2118 10.1315 16.7666 11.3439C16.3292 12.6101 15.3895 13.2856 14.578 13.6378C14.1966 13.8032 13.8378 13.9004 13.56 13.9575C13.5988 14.0757 13.6472 14.2096 13.7065 14.3526C13.9176 14.8624 14.2515 15.4518 14.7494 15.8722C14.8488 15.9561 14.9093 16.0772 14.9165 16.2069C14.9237 16.3367 14.8772 16.4637 14.7877 16.5581L14.2086 17.1692C14.0633 17.3226 13.8336 17.3613 13.6459 17.2641C12.3888 16.6133 11.4445 15.6732 10.8186 14.907C10.5043 14.5223 10.2667 14.177 10.1068 13.9264C10.0816 13.8868 10.0582 13.8495 10.0368 13.8148C9.96094 13.827 9.87432 13.8398 9.77868 13.8522C9.41797 13.899 8.92109 13.9406 8.38513 13.9168C7.40599 13.8733 6.12547 13.6009 5.44592 12.539C5.41745 12.5313 5.3886 12.5236 5.35939 12.5158C4.96269 12.4097 4.50016 12.2859 4.05309 12.1201C3.49588 11.9134 2.9162 11.626 2.45348 11.1805C1.98037 10.7251 1.64562 10.1193 1.56635 9.31877C1.48844 8.53199 1.65994 7.5873 2.13431 6.44152C2.13878 6.43074 2.14364 6.42012 2.14889 6.4097C3.26273 4.19855 6.08939 1.61515 9.56447 2.01231C11.1117 1.82192 12.3365 1.83197 13.4272 2.13759ZM10.6983 13.0693L10.6999 13.0722L10.7085 13.088C10.7165 13.1027 10.7293 13.1256 10.7467 13.1558C10.7815 13.2163 10.8349 13.3061 10.9066 13.4185C11.0502 13.6436 11.2664 13.958 11.5534 14.3094C12.0748 14.9477 12.8185 15.6936 13.772 16.2531L13.7773 16.2475C13.3238 15.7515 13.0232 15.1794 12.8303 14.7138C12.7089 14.4207 12.6264 14.1605 12.574 13.9724C12.5478 13.8781 12.5289 13.8014 12.5164 13.7471C12.5101 13.7199 12.5054 13.6983 12.5021 13.6827L12.4983 13.6641L12.4972 13.6584L12.4968 13.6565L12.4966 13.6554C12.4966 13.6553 12.4966 13.6552 12.9622 13.5665L12.4966 13.6554C12.4709 13.521 12.5048 13.3818 12.5895 13.2743C12.674 13.167 12.8008 13.1014 12.9373 13.0942L12.9381 13.0942L12.9396 13.0941L12.9551 13.093C12.9701 13.0918 12.9941 13.0897 13.026 13.0861C13.09 13.079 13.1852 13.0663 13.3029 13.044C13.5395 12.9993 13.8607 12.9175 14.1999 12.7703C14.8764 12.4768 15.5963 11.9388 15.9052 10.9285C15.9329 10.8381 15.987 10.758 16.0607 10.6986C17.3687 9.64435 17.687 8.56272 17.5341 7.57486C17.3743 6.54268 16.6848 5.51802 15.7867 4.66458C14.8872 3.80982 14.0897 3.30573 13.1709 3.04827C12.2429 2.78825 11.1461 2.76692 9.62494 2.95801C9.5859 2.96292 9.54639 2.96295 9.50734 2.95811C6.55846 2.59286 4.02679 4.80249 3.00378 6.81898C2.57052 7.87048 2.45261 8.64851 2.50978 9.22577C2.56588 9.79228 2.79279 10.1928 3.11173 10.4998C3.44104 10.8168 3.88377 11.0481 4.38342 11.2335C4.7844 11.3822 5.1922 11.4915 5.58587 11.5969C5.68599 11.6237 5.7852 11.6503 5.88314 11.6772C6.00918 11.7119 6.11529 11.7969 6.17636 11.9122C6.5682 12.6521 7.45926 12.9288 8.42729 12.9718C8.89216 12.9925 9.33139 12.9563 9.65658 12.9142C9.81837 12.8932 9.94996 12.871 10.04 12.8543C10.085 12.846 10.1194 12.839 10.142 12.8343L10.1666 12.8291L10.1718 12.8279C10.3816 12.7799 10.5983 12.8792 10.6983 13.0693Z" fill="#585858"/>
<path fill-rule="evenodd" clip-rule="evenodd" d="M9.96661 4.34887C10.2284 4.34887 10.4406 4.56062 10.4406 4.82182V11.044C10.4406 11.3052 10.2284 11.517 9.96661 11.517C9.70482 11.517 9.4926 11.3052 9.4926 11.044V4.82182C9.4926 4.56062 9.70482 4.34887 9.96661 4.34887ZM11.1916 4.89332C11.4533 4.89332 11.6656 5.10506 11.6656 5.36627V10.5107C11.6656 10.7719 11.4533 10.9837 11.1916 10.9837C10.9298 10.9837 10.7175 10.7719 10.7175 10.5107V5.36627C10.7175 5.10506 10.9298 4.89332 11.1916 4.89332ZM7.51672 5.39332C7.77851 5.39332 7.99073 5.60506 7.99073 5.86627V10.0107C7.99073 10.2719 7.77851 10.4837 7.51672 10.4837C7.25493 10.4837 7.04271 10.2719 7.04271 10.0107V5.86627C7.04271 5.60506 7.25493 5.39332 7.51672 5.39332ZM13.6414 5.81554C13.9032 5.81554 14.1154 6.02729 14.1154 6.28849V9.58849C14.1154 9.8497 13.9032 10.0614 13.6414 10.0614C13.3797 10.0614 13.1674 9.8497 13.1674 9.58849V6.28849C13.1674 6.02729 13.3797 5.81554 13.6414 5.81554ZM8.7528 6.19331C9.01459 6.19331 9.22681 6.40506 9.22681 6.66627V9.22182C9.22681 9.48303 9.01459 9.69478 8.7528 9.69478C8.49101 9.69478 8.27879 9.48303 8.27879 9.22182V6.66627C8.27879 6.40506 8.49101 6.19331 8.7528 6.19331ZM6.30291 6.64887C6.5647 6.64887 6.77692 6.86062 6.77692 7.12182V8.75516C6.77692 9.01636 6.5647 9.22811 6.30291 9.22811C6.04112 9.22811 5.8289 9.01636 5.8289 8.75516V7.12182C5.8289 6.86062 6.04112 6.64887 6.30291 6.64887ZM12.4165 6.69331C12.6783 6.69331 12.8905 6.90506 12.8905 7.16627V8.72182C12.8905 8.98303 12.6783 9.19478 12.4165 9.19478C12.1547 9.19478 11.9425 8.98303 11.9425 8.72182V7.16627C11.9425 6.90506 12.1547 6.69331 12.4165 6.69331Z" fill="#328CE7"/>
<path d="M14.2873 7.95559C14.2857 8.04695 14.3029 8.13766 14.3379 8.22211C14.3728 8.30656 14.4248 8.38293 14.4906 8.44649C14.5564 8.51004 14.6346 8.55943 14.7203 8.59158C14.806 8.62373 14.8974 8.63795 14.9889 8.63337C15.4121 8.63337 15.4009 8.30004 15.4009 7.92226C15.4009 7.53337 15.4009 7.23337 14.9889 7.23337C14.5657 7.23337 14.2873 7.5667 14.2873 7.95559Z" fill="#328CE7"/>
<path d="M5.64587 7.95559C5.64743 8.04597 5.63056 8.13573 5.59627 8.21939C5.56198 8.30306 5.511 8.3789 5.44642 8.4423C5.38184 8.50569 5.30501 8.55532 5.22061 8.58817C5.13621 8.62102 5.04599 8.63639 4.95545 8.63337C4.53229 8.63337 4.54342 8.30004 4.54342 7.92226C4.54342 7.53337 4.53229 7.23337 4.95545 7.23337C5.37861 7.23337 5.64587 7.5667 5.64587 7.95559Z" fill="#328CE7"/>
<path fill-rule="evenodd" clip-rule="evenodd" d="M14.0727 3.43387C14.866 3.28279 15.9004 3.39681 16.7936 4.40421C16.9571 4.58868 16.9398 4.87049 16.7549 5.03367C16.5701 5.19685 16.2876 5.1796 16.1241 4.99513C15.4805 4.2692 14.7888 4.20544 14.2403 4.30992C13.9564 4.36398 13.7088 4.46504 13.5307 4.55436C13.4424 4.59864 13.3733 4.63896 13.3277 4.6672C13.3049 4.68128 13.2882 4.69225 13.278 4.69907L13.2679 4.706C13.2671 4.70654 13.2667 4.70683 13.2666 4.70686L13.2679 4.706C13.0677 4.84975 12.7884 4.80457 12.6442 4.6049C12.4998 4.40512 12.5451 4.12642 12.7453 3.98239L13.0065 4.34385C12.7453 3.98239 12.7451 3.98253 12.7453 3.98239L12.7461 3.98183L12.7471 3.98114L12.7495 3.97939L12.7566 3.97443C12.7623 3.9705 12.7698 3.96533 12.7791 3.95907C12.7978 3.94655 12.8237 3.92961 12.8563 3.9094C12.9215 3.86906 13.014 3.81529 13.1293 3.75748C13.3583 3.64264 13.6856 3.50758 14.0727 3.43387ZM13.2689 11.1457C13.4771 11.2779 13.5385 11.5535 13.406 11.7613L13.029 11.5219C13.406 11.7613 13.4061 11.7611 13.406 11.7613L13.405 11.7629L13.4037 11.7649L13.4001 11.7704L13.3894 11.7863C13.3807 11.7992 13.3686 11.8165 13.3532 11.8376C13.3224 11.8799 13.278 11.9379 13.2193 12.0077C13.1019 12.1471 12.9269 12.334 12.6878 12.5367C12.2089 12.9428 11.4741 13.4112 10.4378 13.6862C10.1993 13.7495 9.95447 13.6078 9.89104 13.3698C9.82761 13.1318 9.96957 12.8876 10.2081 12.8243C11.0983 12.5881 11.7165 12.1899 12.109 11.8571C12.3056 11.6904 12.4458 11.5398 12.5348 11.434C12.5793 11.3812 12.6109 11.3397 12.6302 11.3132C12.6399 11.2999 12.6465 11.2904 12.6501 11.2852L12.6531 11.2806L12.6527 11.2813L12.6521 11.2822C12.6525 11.2816 12.6528 11.2812 12.6531 11.2806M13.2689 11.1457C13.0613 11.0139 12.7861 11.0744 12.6531 11.2806Z" fill="#585858"/>
<path fill-rule="evenodd" clip-rule="evenodd" d="M3.95842 7.85607C4.02556 8.04882 3.92368 8.25935 3.73082 8.32685L3.72948 8.32733L3.71949 8.33105C3.70977 8.33474 3.69415 8.34084 3.67361 8.34941C3.63242 8.36661 3.57202 8.39353 3.49997 8.43069C3.35439 8.50578 3.16906 8.61871 2.99914 8.77177C2.66754 9.07046 2.41015 9.49876 2.58495 10.1353C2.63908 10.3325 2.52279 10.5361 2.32519 10.5901C2.1276 10.6441 1.92353 10.5281 1.86939 10.3309C1.59875 9.3453 2.03179 8.64581 2.50197 8.22229C2.73294 8.01424 2.97635 7.86744 3.15927 7.77309C3.25148 7.72553 3.33027 7.69029 3.38722 7.66652C3.41574 7.65461 3.43893 7.64551 3.45575 7.63913L3.47611 7.63157L3.4825 7.62927L3.4847 7.6285L3.48555 7.6282C3.48571 7.62814 3.48623 7.62796 3.60802 7.97758L3.48555 7.6282C3.67907 7.56109 3.89116 7.66298 3.95842 7.85607Z" fill="#585858"/>
<path fill-rule="evenodd" clip-rule="evenodd" d="M6.07746 10.6745C6.07775 10.674 6.07792 10.6738 6.07795 10.6737C6.078 10.6736 6.07767 10.6742 6.07693 10.6753L6.07549 10.6776L6.07452 10.679L6.07368 10.6803C6.07496 10.6784 6.07622 10.6765 6.07746 10.6745Z" fill="#585858"/>
<path fill-rule="evenodd" clip-rule="evenodd" d="M17.056 5.41858C17.2485 5.34881 17.4613 5.44802 17.5313 5.64016C17.9045 6.6657 17.7377 7.3635 17.3821 7.80836C17.214 8.0188 17.0198 8.15117 16.8697 8.23079C16.7942 8.27086 16.728 8.29858 16.6787 8.31683C16.6539 8.32598 16.6332 8.33283 16.6175 8.33772C16.6096 8.34016 16.6029 8.34213 16.5976 8.34365L16.5905 8.3456L16.5878 8.34634L16.5866 8.34665C16.5863 8.34672 16.5856 8.34692 16.4921 7.98871L16.5856 8.34692C16.3873 8.39839 16.1847 8.27974 16.1331 8.0819C16.0819 7.88532 16.199 7.68452 16.395 7.63149C16.3949 7.63152 16.3946 7.63161 16.395 7.63149L16.397 7.63095M16.395 7.63149C16.3955 7.63136 16.396 7.63128 16.397 7.63095C16.401 7.62972 16.4093 7.62696 16.4207 7.62275C16.4436 7.61425 16.4791 7.59961 16.5214 7.57718C16.6069 7.5318 16.7127 7.45862 16.8021 7.34683C16.9616 7.14725 17.14 6.73395 16.8339 5.89281C16.764 5.70067 16.8634 5.48834 17.056 5.41858" fill="#585858"/>
<path fill-rule="evenodd" clip-rule="evenodd" d="M10.7462 2.30616C10.8042 2.54554 10.6567 2.78652 10.4168 2.84439C9.45946 3.07532 8.82662 3.418 8.44069 3.69127C8.24721 3.82828 8.11441 3.94882 8.03306 4.03085C7.99236 4.07189 7.9645 4.10333 7.94833 4.12243C7.94024 4.13197 7.93508 4.13844 7.93271 4.14146C7.93215 4.14218 7.93174 4.1427 7.93149 4.14303C7.93149 4.14303 7.93149 4.14303 7.93149 4.14303C7.78567 4.33953 7.50805 4.38234 7.30948 4.23825C7.10986 4.0934 7.06573 3.81451 7.21091 3.61533L7.57235 3.87761C7.21091 3.61533 7.21076 3.61554 7.21091 3.61533L7.21151 3.6145L7.21219 3.61358L7.21375 3.61147L7.2177 3.6062L7.22899 3.59157C7.23804 3.58003 7.25017 3.56501 7.26554 3.54687C7.29626 3.51058 7.33991 3.46182 7.39769 3.40355C7.51331 3.28696 7.68535 3.13251 7.92338 2.96396C8.40049 2.62612 9.13735 2.23547 10.2067 1.97751C10.4467 1.91963 10.6882 2.06678 10.7462 2.30616Z" fill="#585858"/>
<path d="M16.7817 7.94443C16.7848 8.03573 16.7691 8.12669 16.7355 8.21168C16.7019 8.29666 16.6511 8.37384 16.5864 8.43844C16.5216 8.50304 16.4443 8.55367 16.3591 8.58719C16.2739 8.62071 16.1828 8.63641 16.0913 8.63332C15.6681 8.63332 15.6792 8.3111 15.6792 7.92221C15.6792 7.53332 15.6681 7.24443 16.0913 7.24443C16.5144 7.24443 16.7817 7.56665 16.7817 7.95554V7.94443Z" fill="#585858"/>
<path d="M3.24053 7.94443C3.23732 8.0367 3.25337 8.12864 3.28764 8.21441C3.32191 8.30017 3.37366 8.3779 3.43962 8.44266C3.50557 8.50743 3.58429 8.55782 3.67079 8.59064C3.75728 8.62345 3.84967 8.63799 3.94209 8.63332C4.36525 8.63332 4.35411 8.3111 4.35411 7.92221C4.35411 7.53332 4.35411 7.24443 3.94209 7.24443C3.50779 7.24443 3.24053 7.56665 3.24053 7.95554V7.94443Z" fill="#585858"/>
</svg>
