<svg width="20" height="20" viewBox="0 0 20 20" fill="none" xmlns="http://www.w3.org/2000/svg">
<g clip-path="url(#clip0_10317_147118)">
<path d="M19.9927 2.62653C20.0078 2.53922 19.9994 2.44947 19.9685 2.36644L19.9682 2.36352L19.9605 2.35415C19.9372 2.29757 19.9038 2.24572 19.8619 2.20114L17.8636 0.152201C17.7692 0.0562156 17.6406 0.00150133 17.506 3.04372e-05C17.3714 -0.00144045 17.2416 0.0504518 17.1452 0.144352C17.0487 0.238253 16.9934 0.366515 16.9914 0.501071C16.9893 0.635627 17.0407 0.765519 17.1342 0.862325L18.2903 2.04769H16.6354C15.2048 2.04981 13.8078 2.48071 12.6248 3.28471C11.4419 4.0887 10.5274 5.22883 9.99949 6.55774C9.47162 5.22883 8.5571 4.0887 7.37414 3.28471C6.19117 2.48072 4.79414 2.04981 3.36359 2.04769H1.70929L2.86477 0.862325C2.9583 0.765519 3.00965 0.635627 3.00759 0.501071C3.00553 0.366515 2.95023 0.238253 2.85378 0.144352C2.75734 0.0504518 2.6276 -0.00144045 2.49297 3.04372e-05C2.35834 0.00150133 2.22977 0.0562156 2.1354 0.152201L0.138076 2.20112C0.0962758 2.2456 0.0629388 2.29732 0.0397004 2.35376L0.0317533 2.3635L0.0314481 2.36655C0.000585407 2.44952 -0.00775264 2.53917 0.0072814 2.6264C0.0101466 2.64711 0.0144236 2.6676 0.0200822 2.68773C0.0403905 2.77106 0.0820791 2.84766 0.141037 2.90998L0.146125 2.91923L2.14051 4.8763C2.23727 4.96862 2.3665 5.01916 2.50026 5.017C2.63401 5.01483 2.76153 4.96014 2.85526 4.86474C2.94898 4.76934 3.00137 4.6409 3.0011 4.5072C3.00083 4.3735 2.94792 4.24528 2.8538 4.15026L1.74687 3.06471H3.36359C4.98805 3.06653 6.54544 3.71232 7.69411 4.86039C8.84277 6.00846 9.48888 7.56506 9.4907 9.18868V19.4915C9.4907 19.6264 9.5443 19.7557 9.63972 19.8511C9.73513 19.9464 9.86454 20 9.99947 20C10.1344 20 10.2638 19.9464 10.3592 19.8511C10.4546 19.7557 10.5082 19.6264 10.5082 19.4915V9.18868C10.5101 7.56506 11.1562 6.00845 12.3049 4.86038C13.4535 3.7123 15.0109 3.06652 16.6354 3.06471H18.2531L17.1461 4.15026C17.0498 4.24483 16.995 4.37376 16.9938 4.50871C16.9926 4.64365 17.0451 4.77355 17.1397 4.86982C17.2343 4.9661 17.3633 5.02087 17.4983 5.02208C17.6333 5.02329 17.7633 4.97085 17.8596 4.87628L19.854 2.91921L19.859 2.90998C19.918 2.84766 19.9597 2.77101 19.98 2.68763C19.9856 2.66758 19.9898 2.64716 19.9927 2.62653V2.62653Z" fill="#171723"/>
</g>
<defs>
<clipPath id="clip0_10317_147118">
<rect width="20" height="20" fill="white"/>
</clipPath>
</defs>
</svg>
