<svg width="20" height="20" viewBox="0 0 20 20" fill="none" xmlns="http://www.w3.org/2000/svg">
<path d="M10.7181 0.714286V19.2857C10.7181 19.4752 10.6428 19.6568 10.5088 19.7908C10.3748 19.9247 10.1931 20 10.0036 20C9.81407 20 9.63232 19.9247 9.49832 19.7908C9.36432 19.6568 9.28903 19.4752 9.28903 19.2857V0.714286C9.28903 0.524845 9.36432 0.343164 9.49832 0.209209C9.63232 0.0752549 9.81407 0 10.0036 0C10.1931 0 10.3748 0.0752549 10.5088 0.209209C10.6428 0.343164 10.7181 0.524845 10.7181 0.714286ZM6.43087 2.14286H2.14362C1.5751 2.14286 1.02986 2.36862 0.627853 2.77049C0.225845 3.17235 0 3.71739 0 4.28571V15.7143C0 16.2826 0.225845 16.8277 0.627853 17.2295C1.02986 17.6314 1.5751 17.8571 2.14362 17.8571H6.43087C6.62038 17.8571 6.80212 17.7819 6.93613 17.6479C7.07013 17.514 7.14541 17.3323 7.14541 17.1429V2.85714C7.14541 2.6677 7.07013 2.48602 6.93613 2.35207C6.80212 2.21811 6.62038 2.14286 6.43087 2.14286Z" fill="#171723"/>
<path fill-rule="evenodd" clip-rule="evenodd" d="M18.2746 2.19117C18.1379 2.16398 17.9978 2.15 17.8564 2.15H17.3205V3.4H17.8564C17.9154 3.4 17.9737 3.40583 18.0306 3.41715L18.2746 2.19117ZM14.105 2.15V3.45953H12.8546V2.86429C12.8546 2.81715 12.8593 2.7705 12.8683 2.72494L13.5691 2.86429L13.4297 2.16372C13.4753 2.15466 13.522 2.15 13.5691 2.15H14.105ZM13.5691 2.86429L13.1722 2.27038L13.5691 2.86429ZM13.1722 2.27038C13.1335 2.29618 13.0972 2.32588 13.0639 2.35921C13.0305 2.39254 13.0008 2.42883 12.975 2.46745M12.8546 16.5548H14.105V17.15V17.8643H13.5691C13.522 17.8643 13.4753 17.8596 13.4297 17.8506L13.5691 17.15M13.4815 17.1674L12.8683 17.2894C12.8866 17.3813 12.9229 17.4689 12.975 17.5468C13.0008 17.5855 13.0305 17.6217 13.0639 17.6551C13.0972 17.6884 13.1335 17.7181 13.1722 17.7439L13.5691 17.15L12.975 17.5468M17.3205 17.8643V16.6143H17.8564C17.9154 16.6143 17.9737 16.6085 18.0306 16.5971L18.2746 17.8231C18.1379 17.8503 17.9978 17.8643 17.8564 17.8643H17.3205ZM19.0473 17.5032L18.3526 16.4638C18.4009 16.4316 18.4462 16.3945 18.4879 16.3528C18.5297 16.3111 18.5668 16.2657 18.599 16.2175L19.6387 16.9119C19.5613 17.0278 19.4722 17.1367 19.3721 17.2367C19.2721 17.3367 19.1632 17.4257 19.0473 17.5032ZM20 4.86429H18.7496V4.29286C18.7496 4.23387 18.7437 4.17558 18.7324 4.11868L19.9588 3.87481C19.986 4.01148 20 4.15145 20 4.29286V4.86429ZM19.6387 3.10235L18.599 3.79679C18.5668 3.74856 18.5297 3.70323 18.4879 3.66151C18.4462 3.6198 18.4009 3.5827 18.3526 3.55048L19.0473 2.51113C19.1632 2.58855 19.2721 2.67764 19.3721 2.77763C19.4722 2.87762 19.5613 2.98648 19.6387 3.10235ZM20 6.00714H18.7496V7.15H20V6.00714ZM20 8.29286H18.7496V9.43572H20V8.29286ZM20 10.5786H18.7496V11.7214H20V10.5786ZM20 12.8643H18.7496V14.0071H20V12.8643ZM20 15.15H18.7496V15.7214C18.7496 15.7804 18.7437 15.8387 18.7324 15.8956L19.9588 16.1395C19.986 16.0028 20 15.8628 20 15.7214V15.15ZM16.2487 17.8643V16.6143H15.1768V17.8643H16.2487ZM12.8546 15.3643H14.105V14.1738H12.8546V15.3643ZM12.8546 12.9833H14.105V11.7929H12.8546V12.9833ZM12.8546 10.6024H14.105V9.41191H12.8546V10.6024ZM12.8546 8.22143H14.105V7.03095H12.8546V8.22143ZM12.8546 5.84048H14.105V4.65H12.8546V5.84048ZM15.1768 2.15V3.4H16.2487V2.15H15.1768Z" fill="#171723"/>
</svg>
