<svg width="20" height="20" viewBox="0 0 20 20" fill="none" xmlns="http://www.w3.org/2000/svg">
<path d="M10.7143 0.714286V19.2857C10.7143 19.4752 10.639 19.6568 10.5051 19.7908C10.3711 19.9247 10.1894 20 10 20C9.81056 20 9.62888 19.9247 9.49492 19.7908C9.36097 19.6568 9.28572 19.4752 9.28572 19.2857V0.714286C9.28572 0.524845 9.36097 0.343164 9.49492 0.209209C9.62888 0.0752549 9.81056 0 10 0C10.1894 0 10.3711 0.0752549 10.5051 0.209209C10.639 0.343164 10.7143 0.524845 10.7143 0.714286ZM6.42857 2.14286H2.14286C1.57454 2.14286 1.02949 2.36862 0.627628 2.77049C0.225765 3.17235 0 3.71739 0 4.28571V15.7143C0 16.2826 0.225765 16.8277 0.627628 17.2295C1.02949 17.6314 1.57454 17.8571 2.14286 17.8571H6.42857C6.61801 17.8571 6.79969 17.7819 6.93365 17.6479C7.0676 17.514 7.14286 17.3323 7.14286 17.1429V2.85714C7.14286 2.6677 7.0676 2.48602 6.93365 2.35207C6.79969 2.21811 6.61801 2.14286 6.42857 2.14286ZM17.8571 2.14286H13.5714C13.382 2.14286 13.2003 2.21811 13.0664 2.35207C12.9324 2.48602 12.8571 2.6677 12.8571 2.85714V17.1429C12.8571 17.3323 12.9324 17.514 13.0664 17.6479C13.2003 17.7819 13.382 17.8571 13.5714 17.8571H17.8571C18.4255 17.8571 18.9705 17.6314 19.3724 17.2295C19.7742 16.8277 20 16.2826 20 15.7143V4.28571C20 3.71739 19.7742 3.17235 19.3724 2.77049C18.9705 2.36862 18.4255 2.14286 17.8571 2.14286Z" fill="#171723"/>
</svg>
