<svg width="20" height="20" viewBox="0 0 20 20" fill="none" xmlns="http://www.w3.org/2000/svg">
<path d="M5.65768 18.3333C9.52311 18.3333 12.0372 16.2775 12.0372 13.185C12.0372 10.7866 10.5081 9.26265 7.774 8.63151L6.01861 8.1028C4.47872 7.75568 3.57991 7.33885 3.79168 6.27398C3.96785 5.38811 4.49491 4.88801 5.72053 4.88801C9.61681 4.88801 11.0604 6.27398 11.0604 6.27398V2.94049C11.0604 2.94049 9.65493 1.66667 5.72053 1.66667C2.01223 1.66667 0 3.58271 0 6.54907C0 8.9474 1.39448 10.3421 4.22284 11.0048C4.42079 11.0545 4.52196 11.0801 4.52636 11.0814C4.95658 11.2151 5.53711 11.3918 6.26795 11.6114C7.71356 11.9585 8.08531 12.3269 8.08531 13.4314C8.08531 14.4413 7.04044 15.0153 5.65768 15.0153C1.67437 15.0153 0 12.9918 0 12.9918V16.685C0 16.685 1.04707 18.3333 5.65768 18.3333Z" fill="url(#paint0_linear_18957_1870)"/>
<path d="M17.6126 18.0836C18.981 18.0836 20 17.0896 20 15.7448C20 14.3707 19.0101 13.406 17.6126 13.406C16.2443 13.406 15.2544 14.3707 15.2544 15.7448C15.2544 17.1188 16.2443 18.0836 17.6126 18.0836Z" fill="#E80000"/>
<defs>
<linearGradient id="paint0_linear_18957_1870" x1="6.01861" y1="1.66667" x2="6.01861" y2="18.3333" gradientUnits="userSpaceOnUse">
<stop stop-color="#9D39FF"/>
<stop offset="1" stop-color="#A380FF"/>
</linearGradient>
</defs>
</svg>
