<svg width="20" height="20" viewBox="0 0 20 20" fill="none" xmlns="http://www.w3.org/2000/svg">
<g clip-path="url(#clip0_17765_43624)">
<path d="M5.77969 10.1235L6.72045 8.4039C7.10905 7.69304 7.69336 7.10873 8.40382 6.72013L10.1238 5.77977C10.5616 5.5401 10.5616 4.91144 10.1238 4.67218L8.40382 3.73141C7.69336 3.34281 7.10905 2.7585 6.72045 2.04804L5.77969 0.328066C5.54042 -0.109355 4.91176 -0.109355 4.67209 0.328066L3.73173 2.04805C3.34314 2.75851 2.75882 3.34282 2.04836 3.73142L0.328372 4.67218C-0.109457 4.91144 -0.109457 5.54011 0.328372 5.77978L2.04836 6.72014C2.75881 7.10873 3.34313 7.69305 3.73172 8.40391L4.67208 10.1235C4.91175 10.5613 5.54042 10.5613 5.77969 10.1235Z" fill="url(#paint0_linear_17765_43624)"/>
<path d="M19.728 10.2802L18.3022 9.50011C17.7134 9.17825 17.2288 8.69363 16.9069 8.10483L16.1269 6.67903C15.9287 6.31607 15.4075 6.31607 15.2089 6.67903L14.4293 8.10483C14.107 8.69362 13.6228 9.17825 13.0336 9.50011L11.6078 10.2802C11.2448 10.4783 11.2448 10.9996 11.6078 11.1981L13.0336 11.9778C13.6228 12.3 14.107 12.7842 14.4293 13.3734L15.2089 14.7992C15.4075 15.1618 15.9287 15.1618 16.1269 14.7992L16.9069 13.3734C17.2288 12.7842 17.7134 12.3 18.3022 11.9778L19.728 11.1981C20.0909 10.9996 20.0909 10.4783 19.728 10.2802Z" fill="url(#paint1_linear_17765_43624)"/>
<path d="M10.6495 16.3736L9.57041 15.7835C9.12444 15.5398 8.75823 15.1732 8.51409 14.7272L7.92407 13.6481C7.77392 13.3734 7.37923 13.3734 7.22908 13.6481L6.63907 14.7272C6.39492 15.1732 6.02871 15.5398 5.58274 15.7835L4.50363 16.3736C4.22897 16.5241 4.22897 16.9184 4.50363 17.0685L5.58274 17.6586C6.02871 17.9027 6.39492 18.2693 6.63907 18.7149L7.22908 19.794C7.37923 20.0687 7.77393 20.0687 7.92407 19.794L8.51409 18.7149C8.75823 18.2693 9.12444 17.9027 9.57041 17.6586L10.6495 17.0685C10.9242 16.9184 10.9242 16.5241 10.6495 16.3736Z" fill="url(#paint2_linear_17765_43624)"/>
</g>
<defs>
<linearGradient id="paint0_linear_17765_43624" x1="5.22609" y1="0" x2="5.22609" y2="10.4519" gradientUnits="userSpaceOnUse">
<stop stop-color="#FFDA3A"/>
<stop offset="1" stop-color="#FFC01E"/>
</linearGradient>
<linearGradient id="paint1_linear_17765_43624" x1="15.6679" y1="6.40681" x2="15.6679" y2="15.0712" gradientUnits="userSpaceOnUse">
<stop stop-color="#FFDA3A"/>
<stop offset="1" stop-color="#FFC01E"/>
</linearGradient>
<linearGradient id="paint2_linear_17765_43624" x1="7.57658" y1="13.4421" x2="7.57658" y2="20" gradientUnits="userSpaceOnUse">
<stop stop-color="#FFDA3A"/>
<stop offset="1" stop-color="#FFC01E"/>
</linearGradient>
<clipPath id="clip0_17765_43624">
<rect width="20.0002" height="20" fill="white"/>
</clipPath>
</defs>
</svg>
