<svg width="20" height="20" viewBox="0 0 20 20" fill="none" xmlns="http://www.w3.org/2000/svg">
<g clip-path="url(#clip0_10317_147011)">
<path d="M15.9329 1.27237e-07H4.06711C3.53297 -0.000133525 3.00404 0.105028 2.51054 0.309475C2.01703 0.513923 1.56862 0.813651 1.19093 1.19154C0.813238 1.56942 0.513662 2.01806 0.309318 2.51181C0.104974 3.00557 -0.000133457 3.53477 1.27172e-07 4.06918V15.9308C-0.000133457 16.4652 0.104974 16.9944 0.309318 17.4882C0.513662 17.9819 0.813238 18.4306 1.19093 18.8085C1.56862 19.1863 2.01703 19.4861 2.51054 19.6905C3.00404 19.895 3.53297 20.0001 4.06711 20H15.9329C17.0111 19.9986 18.0448 19.5694 18.8072 18.8066C19.5696 18.0438 19.9986 17.0096 20 15.9308V4.06918C19.9986 2.99041 19.5696 1.95624 18.8072 1.19343C18.0448 0.430625 17.0111 0.00144547 15.9329 1.27237e-07ZM13.4926 10C13.4933 10.2341 13.4315 10.464 13.3135 10.6662C13.1956 10.8683 13.0257 11.0352 12.8216 11.1495L9.22226 13.1638C9.02687 13.2632 8.81093 13.3155 8.59173 13.3164C8.34767 13.3185 8.10798 13.2515 7.9004 13.1231C7.69692 12.9987 7.5291 12.8236 7.41329 12.6151C7.29747 12.4065 7.2376 12.1715 7.23949 11.9329V8.06714C7.23638 7.82832 7.29573 7.59283 7.41166 7.38405C7.5276 7.17526 7.69608 7.00043 7.9004 6.87691C8.09444 6.75661 8.31633 6.68869 8.54443 6.67977C8.77253 6.67086 8.99904 6.72125 9.20187 6.82604L12.8217 8.85046C13.0257 8.96485 13.1956 9.13175 13.3135 9.33386C13.4315 9.53597 13.4933 9.76595 13.4926 10Z" fill="#171723"/>
</g>
<defs>
<clipPath id="clip0_10317_147011">
<rect width="20" height="20" fill="white"/>
</clipPath>
</defs>
</svg>
