<svg width="20" height="20" viewBox="0 0 20 20" fill="none" xmlns="http://www.w3.org/2000/svg">
<g clip-path="url(#clip0_10579_132598)">
<path d="M19.4915 18.983H1.01696V0.508479C1.01696 0.227422 0.789037 0 0.508479 0C0.227422 0 0 0.227422 0 0.508479V19.4915C0 19.7726 0.227422 20 0.508479 20H19.4915C19.7726 20 20 19.7726 20 19.4915C20 19.211 19.7726 18.983 19.4915 18.983Z" fill="#171723"/>
<path d="M2.48504 15.53C2.61514 15.53 2.74524 15.4803 2.84456 15.381L7.26395 10.9616L9.86395 13.5706C9.95929 13.6659 10.0884 13.72 10.2235 13.72C10.3585 13.72 10.4881 13.6664 10.5835 13.5711L17.9529 6.20161V7.73003C17.9529 8.01109 18.1804 8.23851 18.4614 8.23851C18.742 8.23851 18.9699 8.01109 18.9699 7.73003V4.97412C18.9699 4.88026 18.9376 4.79734 18.8934 4.72186C18.8825 4.70348 18.8721 4.6881 18.8592 4.67122C18.805 4.60021 18.74 4.53963 18.6571 4.50487L18.6561 4.50437C18.6541 4.50388 18.6506 4.50387 18.6506 4.50387C18.592 4.48004 18.5284 4.46564 18.4614 4.46564H15.7055C15.4244 4.46564 15.197 4.69356 15.197 4.97412C15.197 5.25517 15.4244 5.48259 15.7055 5.48259H17.2339L10.2244 12.4916L7.62495 9.88312C7.52961 9.78729 7.40001 9.73366 7.26495 9.73366C7.16365 9.73764 7.00077 9.7868 6.90495 9.88263L2.12553 14.662C1.92691 14.8606 1.92691 15.1829 2.12553 15.381C2.22485 15.4803 2.35494 15.53 2.48504 15.53Z" fill="#171723"/>
</g>
<defs>
<clipPath id="clip0_10579_132598">
<rect width="20" height="20" fill="white"/>
</clipPath>
</defs>
</svg>
