<svg width="20" height="20" viewBox="0 0 20 20" fill="none" xmlns="http://www.w3.org/2000/svg">
<g clip-path="url(#clip0_10310_144613)">
<g clip-path="url(#clip1_10310_144613)">
<path d="M12.4277 13.4636C12.4409 13.565 12.4484 13.667 12.4504 13.7692C12.4504 15.0005 12.0852 16.2041 11.4012 17.2279C10.7171 18.2517 9.74485 19.0496 8.6073 19.5208C7.46976 19.992 6.21803 20.1153 5.01042 19.875C3.8028 19.6348 2.69354 19.0419 1.8229 18.1713C0.952258 17.3006 0.359344 16.1914 0.119134 14.9838C-0.121075 13.7762 0.00220914 12.5244 0.473397 11.3869C0.944584 10.2493 1.74251 9.27705 2.76628 8.593C3.79004 7.90894 4.99367 7.54382 6.22494 7.54382C6.3269 7.54382 6.44007 7.56648 6.54191 7.56648C6.77265 8.8414 7.34359 10.0303 8.19438 11.0074L6.22494 12.9769L4.16496 10.9168C4.059 10.8134 3.9168 10.7555 3.76874 10.7555C3.62068 10.7555 3.47849 10.8134 3.37253 10.9168C3.31881 10.9691 3.27611 11.0316 3.24695 11.1006C3.21779 11.1696 3.20277 11.2438 3.20277 11.3187C3.20277 11.3936 3.21779 11.4678 3.24695 11.5368C3.27611 11.6058 3.31881 11.6683 3.37253 11.7205L5.42134 13.7806L3.37255 15.8293C3.31883 15.8815 3.27614 15.944 3.24698 16.013C3.21783 16.082 3.20281 16.1562 3.20281 16.2311C3.20281 16.3061 3.21783 16.3802 3.24698 16.4492C3.27614 16.5183 3.31883 16.5807 3.37255 16.633C3.42366 16.6866 3.48513 16.7293 3.55324 16.7585C3.62135 16.7877 3.69467 16.8027 3.76876 16.8027C3.84286 16.8027 3.91618 16.7877 3.98429 16.7585C4.05239 16.7293 4.11387 16.6866 4.16498 16.633L6.22496 14.5729L8.27375 16.633C8.32712 16.6867 8.3906 16.7294 8.46053 16.7585C8.53046 16.7877 8.60546 16.8027 8.68122 16.8027C8.75528 16.8026 8.82856 16.7875 8.89664 16.7583C8.96472 16.7292 9.02619 16.6865 9.07736 16.633C9.13107 16.5807 9.17377 16.5183 9.20292 16.4492C9.23208 16.3802 9.2471 16.3061 9.2471 16.2311C9.2471 16.1562 9.23208 16.082 9.20292 16.013C9.17377 15.944 9.13107 15.8815 9.07736 15.8293L7.02854 13.7806L8.98681 11.8111C9.96957 12.6533 11.156 13.2231 12.4277 13.4636V13.4636Z" fill="#171723"/>
<path d="M13.7743 0.00539254C12.1235 0.00637415 10.5406 0.662579 9.3733 1.82986C8.20602 2.99714 7.54981 4.58002 7.54883 6.2308C7.54885 6.45005 7.5602 6.66916 7.58283 6.88724C7.58283 6.90989 7.59402 6.94382 7.59402 6.96648C7.76222 8.34822 8.38698 9.63424 9.36918 10.6205C10.3514 11.6068 11.6348 12.2369 13.0158 12.4109C13.0502 12.409 13.0847 12.4129 13.1178 12.4222C13.9583 12.5113 14.8082 12.4283 15.6156 12.1782C16.423 11.9282 17.171 11.5164 17.8141 10.9679C18.4571 10.4194 18.9818 9.74566 19.356 8.98781C19.7303 8.22996 19.9463 7.40384 19.9909 6.5598C20.0356 5.71575 19.9078 4.87146 19.6156 4.07838C19.3233 3.28529 18.8726 2.56002 18.291 1.94677C17.7093 1.33351 17.0089 0.845119 16.2323 0.511349C15.4558 0.177578 14.6195 0.0054219 13.7742 0.00537109L13.7743 0.00539254ZM17.1699 5.08764L13.978 8.52857C13.8767 8.63589 13.7382 8.70037 13.5908 8.70878C13.4435 8.7172 13.2985 8.66891 13.1856 8.57382L11.0577 6.68358C10.9451 6.58451 10.8765 6.44478 10.8669 6.29512C10.8574 6.14547 10.9077 5.99815 11.0068 5.88557C11.1058 5.773 11.2456 5.70439 11.3952 5.69484C11.5449 5.68529 11.6922 5.73559 11.8048 5.83466L13.5253 7.35143L16.3437 4.31796C16.4475 4.20891 16.5903 4.14534 16.7408 4.1411C16.8913 4.13685 17.0374 4.19228 17.1473 4.2953C17.2012 4.34558 17.2446 4.40608 17.275 4.47327C17.3053 4.54046 17.3221 4.61301 17.3242 4.68671C17.3263 4.76041 17.3137 4.8338 17.2872 4.90261C17.2608 4.97143 17.2209 5.0343 17.1699 5.08759L17.1699 5.08764Z" fill="#171723"/>
</g>
</g>
<defs>
<clipPath id="clip0_10310_144613">
<rect width="20" height="20" fill="white"/>
</clipPath>
<clipPath id="clip1_10310_144613">
<rect width="20" height="20" fill="white"/>
</clipPath>
</defs>
</svg>
