<svg width="20" height="20" viewBox="0 0 20 20" fill="none" xmlns="http://www.w3.org/2000/svg">
<g clip-path="url(#clip0_5313_35253)">
<path d="M19.3024 1.17524e-07H0.697644C0.606013 -5.30891e-05 0.515271 0.0179604 0.430604 0.0530109C0.345938 0.0880615 0.26901 0.139461 0.204217 0.204272C0.139424 0.269082 0.0880376 0.346032 0.0529966 0.430721C0.0179555 0.51541 -5.30747e-05 0.606177 1.17492e-07 0.697833V4.41868C1.17492e-07 4.60375 0.0735018 4.78125 0.204335 4.91212C0.335169 5.04299 0.512617 5.11651 0.697644 5.11651C0.882671 5.11651 1.06012 5.04299 1.19095 4.91212C1.32179 4.78125 1.39529 4.60375 1.39529 4.41868V1.39567H9.30238V18.6043H6.28558C6.10055 18.6043 5.9231 18.6779 5.79227 18.8087C5.66143 18.9396 5.58793 19.1171 5.58793 19.3022C5.58793 19.4872 5.66143 19.6647 5.79227 19.7956C5.9231 19.9265 6.10055 20 6.28558 20H13.7212C13.9062 20 14.0837 19.9265 14.2145 19.7956C14.3453 19.6647 14.4188 19.4872 14.4188 19.3022C14.4188 19.1171 14.3453 18.9396 14.2145 18.8087C14.0837 18.6779 13.9062 18.6043 13.7212 18.6043H10.6976V1.39567H18.6047V4.41868C18.6047 4.60375 18.6782 4.78125 18.809 4.91212C18.9399 5.04299 19.1173 5.11651 19.3024 5.11651C19.4874 5.11651 19.6648 5.04299 19.7957 4.91212C19.9265 4.78125 20 4.60375 20 4.41868V0.697833C20.0001 0.60618 19.982 0.515414 19.947 0.430727C19.912 0.34604 19.8606 0.269092 19.7958 0.204282C19.731 0.139472 19.6541 0.0880711 19.5694 0.0530189C19.4848 0.0179667 19.394 -4.94194e-05 19.3024 1.17524e-07V1.17524e-07Z" fill="#171723"/>
</g>
<defs>
<clipPath id="clip0_5313_35253">
<rect width="20" height="20" fill="white"/>
</clipPath>
</defs>
</svg>
