<svg width="20" height="20" viewBox="0 0 20 20" fill="none" xmlns="http://www.w3.org/2000/svg">
<path d="M0.958252 4.41667C0.958252 3.49619 1.70444 2.75 2.62492 2.75H7.62492C8.54539 2.75 9.29159 3.49619 9.29159 4.41667C9.29159 5.33714 8.54539 6.08333 7.62492 6.08333H2.62492C1.70444 6.08333 0.958252 5.33714 0.958252 4.41667Z" fill="#171723"/>
<path fill-rule="evenodd" clip-rule="evenodd" d="M9.54159 13.5833C9.54159 13.3665 9.57227 13.1568 9.62953 12.9583C9.90036 12.0198 10.7658 11.3333 11.7916 11.3333H16.7916C18.0342 11.3333 19.0416 12.3407 19.0416 13.5833C19.0416 14.826 18.0342 15.8333 16.7916 15.8333H11.7916C10.7658 15.8333 9.90036 15.1469 9.62953 14.2083C9.57227 14.0099 9.54159 13.8002 9.54159 13.5833ZM11.7916 12.5C11.1933 12.5 10.7083 12.985 10.7083 13.5833C10.7083 14.1816 11.1933 14.6667 11.7916 14.6667H16.7916C17.3899 14.6667 17.8749 14.1816 17.8749 13.5833C17.8749 12.985 17.3899 12.5 16.7916 12.5H11.7916Z" fill="#171723"/>
<path d="M5.74992 6.08333H5.12492H4.49992V11.0833C4.49992 11.9121 4.82916 12.707 5.41521 13.293C6.00126 13.8791 6.79612 14.2083 7.62492 14.2083H9.62953C9.57227 14.0099 9.54159 13.8002 9.54159 13.5833C9.54159 13.3665 9.57227 13.1568 9.62953 12.9583H7.62492C7.12764 12.9583 6.65072 12.7608 6.29909 12.4092C5.94746 12.0575 5.74992 11.5806 5.74992 11.0833V6.08333Z" fill="#171723"/>
</svg>
