<svg width="20" height="20" viewBox="0 0 20 20" fill="none" xmlns="http://www.w3.org/2000/svg">
<g clip-path="url(#clip0_6394_68551)">
<path d="M17.3048 8.92858V7.61231C17.3048 5.5934 16.5353 3.65718 15.1656 2.22959C13.7959 0.802009 11.9381 0 10.001 0C8.06387 0 6.2061 0.802009 4.83636 2.22959C3.46662 3.65718 2.69711 5.5934 2.69711 7.61231V8.92812C2.21475 9.04739 1.78499 9.33249 1.4771 9.73744C1.16922 10.1424 1.00115 10.6436 1 11.1603V14.6905C1 15.3006 1.23253 15.8857 1.64643 16.3171C2.06033 16.7484 2.6217 16.9908 3.20704 16.9908C3.79239 16.9908 4.35376 16.7484 4.76766 16.3171C5.18156 15.8857 5.41409 15.3006 5.41409 14.6905V11.1603C5.4129 10.6448 5.24553 10.1446 4.93884 9.74018C4.63215 9.33572 4.20395 9.05041 3.72299 8.93007V7.61231C3.7215 6.75206 3.88278 5.89995 4.19761 5.10474C4.51244 4.30952 4.97464 3.58682 5.55775 2.97798C6.14086 2.36914 6.83345 1.88612 7.59587 1.55656C8.35829 1.227 9.17559 1.05736 10.001 1.05736C10.8264 1.05736 11.6437 1.227 12.4061 1.55656C13.1685 1.88612 13.8611 2.36914 14.4442 2.97798C15.0273 3.58682 15.4895 4.30952 15.8043 5.10474C16.1192 5.89995 16.2805 6.75206 16.279 7.61231V8.92976C15.7978 9.04992 15.3693 9.33519 15.0624 9.73973C14.7555 10.1443 14.588 10.6446 14.5869 11.1603V14.6905C14.588 15.2066 14.7558 15.7073 15.0631 16.112C15.3703 16.5167 15.7993 16.8019 16.281 16.9217V17.3374C16.2806 17.6181 16.1735 17.8872 15.983 18.0857C15.7926 18.2842 15.5344 18.3958 15.2651 18.3962H14.3237C14.2365 18.2356 14.1103 18.1016 13.9578 18.0078C13.8053 17.914 13.6319 17.8636 13.4548 17.8616H10.7378C10.4657 17.8616 10.2048 17.9742 10.0124 18.1748C9.82003 18.3753 9.71195 18.6472 9.71195 18.9308C9.71195 19.2144 9.82003 19.4863 10.0124 19.6868C10.2048 19.8874 10.4657 20 10.7378 20H13.4548C13.6319 19.998 13.8053 19.9476 13.9578 19.8538C14.1103 19.7599 14.2365 19.626 14.3237 19.4654H15.2651C15.8065 19.4648 16.3255 19.2405 16.7083 18.8415C17.0911 18.4426 17.3063 17.9016 17.3069 17.3374V16.9216C17.7883 16.8016 18.2171 16.5163 18.5241 16.1117C18.8312 15.707 18.9988 15.2065 19 14.6905V11.1603C18.9989 10.644 18.831 10.1431 18.5235 9.73825C18.216 9.33342 17.7868 9.04822 17.3048 8.92858ZM4.38821 11.1603V14.6905C4.38821 15.017 4.26376 15.3302 4.04225 15.561C3.82074 15.7919 3.52031 15.9216 3.20704 15.9216C2.89378 15.9216 2.59334 15.7919 2.37183 15.561C2.15032 15.3302 2.02588 15.017 2.02588 14.6905V11.1603C2.0263 10.8341 2.15075 10.5215 2.37196 10.2908C2.59316 10.06 2.89309 9.93012 3.20604 9.92946L3.21005 9.9303L3.21107 9.93011C3.52341 9.93151 3.82253 10.0617 4.04308 10.2922C4.26364 10.5227 4.38772 10.8348 4.38821 11.1603ZM17.9741 14.6905C17.9741 14.8521 17.9436 15.0121 17.8842 15.1614C17.8249 15.3107 17.7379 15.4464 17.6283 15.5607C17.5187 15.6749 17.3885 15.7656 17.2453 15.8274C17.102 15.8892 16.9485 15.9211 16.7935 15.9211C16.6384 15.9211 16.4849 15.8892 16.3416 15.8274C16.1984 15.7656 16.0682 15.6749 15.9586 15.5607C15.849 15.4464 15.762 15.3107 15.7027 15.1614C15.6433 15.0121 15.6128 14.8521 15.6128 14.6905V11.1603C15.6133 10.8347 15.7374 10.5224 15.9581 10.2919C16.1788 10.0614 16.478 9.93123 16.7905 9.92997L16.792 9.9303L16.7955 9.92959C17.1083 9.93039 17.4079 10.0604 17.6289 10.2911C17.8498 10.5218 17.9739 10.8344 17.9741 11.1603V14.6905Z" fill="#171723"/>
</g>
<defs>
<clipPath id="clip0_6394_68551">
<rect width="20" height="20" fill="white"/>
</clipPath>
</defs>
</svg>
