<svg width="20" height="20" viewBox="0 0 20 20" fill="none" xmlns="http://www.w3.org/2000/svg">
<g clip-path="url(#clip0_10317_146824)">
<g clip-path="url(#clip1_10317_146824)">
<path d="M16.5691 15.1773L14.6609 15.407C14.6196 15.4119 14.5804 15.4277 14.5471 15.4526C14.5139 15.4776 14.4878 15.5109 14.4714 15.5491C14.4551 15.5873 14.4491 15.6292 14.4541 15.6705C14.459 15.7117 14.4748 15.751 14.4997 15.7843L14.7394 16.1038C14.2709 16.3606 13.7422 16.4874 13.2082 16.471C12.6741 16.4545 12.1542 16.2956 11.7023 16.0105C11.2504 15.7255 10.883 15.3248 10.6381 14.8499C10.3933 14.375 10.28 13.8433 10.3099 13.3098C10.3143 13.2611 10.3216 13.2126 10.3317 13.1647C10.3443 13.0915 10.3423 13.0165 10.3259 12.944C10.3095 12.8715 10.279 12.803 10.2362 12.7423C10.1933 12.6816 10.1389 12.63 10.076 12.5903C10.0132 12.5506 9.94317 12.5237 9.86993 12.5111C9.7967 12.4985 9.7217 12.5005 9.64922 12.5169C9.57673 12.5332 9.50819 12.5637 9.4475 12.6066C9.3868 12.6495 9.33515 12.7039 9.29548 12.7667C9.25582 12.8296 9.22891 12.8996 9.21632 12.9729C9.18809 13.1385 9.17405 13.3063 9.17435 13.4744C9.17162 14.205 9.36353 14.9232 9.73036 15.5551C10.0972 16.187 10.6257 16.7098 11.2615 17.0697C11.8974 17.4297 12.6176 17.6138 13.3482 17.6031C14.0787 17.5924 14.7933 17.3874 15.4183 17.0091L15.6994 17.3839C15.7244 17.4171 15.7576 17.4433 15.7959 17.4596C15.8341 17.476 15.876 17.4819 15.9173 17.477C15.9586 17.472 15.9979 17.4562 16.0311 17.4313C16.0644 17.4063 16.0905 17.373 16.1068 17.3348L16.8616 15.5673C16.881 15.5218 16.8881 15.4721 16.8822 15.423C16.8763 15.374 16.8576 15.3273 16.8279 15.2878C16.7983 15.2483 16.7588 15.2173 16.7133 15.1979C16.6679 15.1784 16.6181 15.1713 16.5691 15.1773Z" fill="#171723"/>
<path d="M13.3035 9.33545C12.5536 9.33849 11.8189 9.54795 11.1801 9.94088L10.8941 9.56911C10.8688 9.53616 10.8352 9.51045 10.7968 9.49459C10.7583 9.47873 10.7164 9.47326 10.6752 9.47874C10.634 9.48422 10.5949 9.50046 10.5619 9.52582C10.529 9.55117 10.5033 9.58476 10.4874 9.6232L9.75419 11.3998C9.73535 11.4455 9.72885 11.4953 9.73537 11.5443C9.74188 11.5933 9.76118 11.6397 9.79131 11.6788C9.82144 11.718 9.86135 11.7486 9.90703 11.7674C9.9527 11.7863 10.0025 11.7928 10.0515 11.7863L11.9567 11.5333C11.9979 11.5278 12.037 11.5116 12.0699 11.4862C12.1029 11.4609 12.1286 11.4273 12.1445 11.3889C12.1604 11.3504 12.1658 11.3085 12.1604 11.2673C12.1549 11.226 12.1387 11.187 12.1133 11.154L11.8704 10.8383C12.3088 10.5948 12.802 10.4669 13.3035 10.4666C14.1009 10.4677 14.8654 10.7849 15.4292 11.3488C15.9931 11.9126 16.3103 12.677 16.3114 13.4744C16.3113 13.5682 16.3046 13.6619 16.2915 13.7547C16.2676 13.8974 16.2958 14.0439 16.3711 14.1674C16.4463 14.291 16.5634 14.3834 16.7011 14.4277C16.7479 14.4413 16.7963 14.448 16.845 14.4476C16.979 14.4474 17.1086 14.3995 17.2106 14.3124C17.3126 14.2254 17.3803 14.105 17.4017 13.9726C17.429 13.808 17.4426 13.6413 17.4425 13.4744C17.4412 12.3771 17.0048 11.3251 16.2288 10.5491C15.4529 9.77321 14.4009 9.33672 13.3035 9.33545Z" fill="#171723"/>
<path d="M14.5763 6.95382V2.67021C14.5763 2.65893 14.5706 2.64944 14.5699 2.63838C14.4967 -1.12029 0.00152709 -1.11253 0.00152709 2.66615V6.81058L0.000488281 6.81559L0.00152709 6.82206V10.9661L0.000488281 10.9711L0.00152709 10.9776V15.1216L0.000488281 15.1266C0.000488281 17.0228 3.66904 18.015 7.29295 18.015C7.64569 18.015 7.98942 17.9957 8.32619 17.9707C9.03318 18.7629 9.91871 19.3754 10.9095 19.7573C11.9002 20.1393 12.9677 20.2798 14.0236 20.1671C15.0794 20.0545 16.0932 19.692 16.9811 19.1096C17.869 18.5273 18.6054 17.7418 19.1294 16.8182C19.6533 15.8947 19.9498 14.8596 19.9941 13.7987C20.0385 12.7378 19.8296 11.6816 19.3846 10.7175C18.9396 9.75337 18.2714 8.90913 17.4352 8.25464C16.5991 7.60016 15.619 7.15425 14.5763 6.95382ZM6.65836 12.7959C5.80716 12.774 4.95883 12.688 4.12057 12.5386C1.86742 12.1017 1.04571 11.3657 1.04045 10.9752V8.37056C1.92858 8.892 2.90656 9.24242 3.92375 9.40367C5.03497 9.60896 6.163 9.7095 7.29301 9.70397C7.47905 9.70397 7.65152 9.69719 7.82888 9.69288C7.18272 10.6117 6.78 11.6792 6.65836 12.7959ZM8.78583 8.60441C8.3331 8.64321 7.83648 8.66509 7.29296 8.66509C6.22902 8.66955 5.16698 8.57513 4.12052 8.38304C1.86737 7.94616 1.04565 7.21015 1.0404 6.81972V4.2229C2.97368 5.19562 5.12508 5.65356 7.28692 5.5525C9.45029 5.65398 11.6032 5.19535 13.5374 4.22099V6.81559C13.5374 6.82429 13.5291 6.83234 13.5285 6.8409C13.4551 6.83849 13.3831 6.8298 13.3092 6.8298C11.6317 6.83049 10.0163 7.46425 8.78583 8.60441ZM7.28692 0.819707C11.1006 0.819707 13.5344 1.91337 13.5344 2.66615C13.5344 3.41894 11.1006 4.51362 7.28692 4.51362C3.47431 4.51362 1.04045 3.41894 1.04045 2.66615C1.04045 1.91337 3.47431 0.819707 7.28692 0.819707ZM7.29301 16.9761C3.47868 16.9761 1.04456 15.8823 1.04025 15.1287L1.04045 15.1277V12.526C1.9289 13.0476 2.90722 13.398 3.92476 13.5592C4.8194 13.7185 5.72477 13.8103 6.63318 13.8338C6.68346 14.9401 7.00983 16.0162 7.58255 16.9641C7.484 16.9655 7.39206 16.9761 7.29301 16.9761ZM13.3092 19.1726C11.8106 19.171 10.3738 18.575 9.31404 17.5155C8.25428 16.4559 7.65807 15.0192 7.65619 13.5206C7.65619 13.4662 7.66285 13.4133 7.66437 13.3593L7.66735 13.3451L7.66557 13.3358C7.7024 12.2269 8.06491 11.1535 8.70788 10.2493C9.35085 9.34517 10.2458 8.65036 11.2811 8.25156C12.3164 7.85276 13.4462 7.76763 14.5296 8.00679C15.613 8.24596 16.602 8.79883 17.3731 9.59643C18.1443 10.394 18.6636 11.401 18.8662 12.4919C19.0687 13.5827 18.9456 14.709 18.5122 15.7303C18.0788 16.7516 17.3542 17.6226 16.429 18.2348C15.5037 18.847 14.4186 19.1732 13.3092 19.1726V19.1726Z" fill="#171723"/>
</g>
</g>
<defs>
<clipPath id="clip0_10317_146824">
<rect width="20" height="20" fill="white"/>
</clipPath>
<clipPath id="clip1_10317_146824">
<rect width="20" height="20" fill="white"/>
</clipPath>
</defs>
</svg>
