<svg width="20" height="20" viewBox="0 0 20 20" fill="none" xmlns="http://www.w3.org/2000/svg">
<g clip-path="url(#clip0_10314_146206)">
<path d="M5.05695 9.24685C5.06173 9.25219 5.06862 9.25373 5.07359 9.25883C5.07825 9.26361 5.07985 9.27007 5.08476 9.27465C5.11294 9.30141 5.1469 9.31575 5.17886 9.33479C5.20022 9.34745 5.21846 9.36521 5.24112 9.37451C5.303 9.40021 5.36817 9.41467 5.43434 9.41467C5.49789 9.41467 5.56114 9.40121 5.62147 9.37712C5.64221 9.36892 5.65909 9.35322 5.67883 9.34218C5.71154 9.32393 5.74598 9.30966 5.77497 9.28358C5.78055 9.27856 5.7826 9.27142 5.78794 9.26614C5.79241 9.26174 5.7985 9.26036 5.80278 9.25578L7.74627 7.20801C7.93992 7.00442 7.93198 6.68266 7.72741 6.49001C7.52581 6.29834 7.20305 6.30331 7.0094 6.50887L5.44409 8.15816L4.84842 7.498C4.66072 7.28945 4.33896 7.27356 4.13041 7.46126C3.92187 7.64895 3.90498 7.97072 4.09367 8.17926L5.05695 9.24685Z" fill="#171723"/>
<path d="M15.5342 13.1221H9.11979C8.83874 13.1221 8.61133 13.3495 8.61133 13.6305C8.61133 13.9116 8.83874 14.139 9.11979 14.139H15.5342C15.8153 14.139 16.0427 13.9116 16.0427 13.6305C16.0427 13.3495 15.8153 13.1221 15.5342 13.1221Z" fill="#171723"/>
<path d="M9.11979 15.7926H12.1577C12.4387 15.7926 12.6661 15.5652 12.6661 15.2841C12.6661 15.0031 12.4387 14.7756 12.1577 14.7756H9.11979C8.83874 14.7756 8.61133 15.0031 8.61133 15.2841C8.61133 15.5652 8.83874 15.7926 9.11979 15.7926Z" fill="#171723"/>
<path d="M6.98475 12.4259H4.95982C4.39872 12.4259 3.94189 12.8827 3.94189 13.4448V15.4687C3.94189 16.0308 4.39872 16.4877 4.95982 16.4877H6.98475C7.54585 16.4877 8.00268 16.0308 8.00268 15.4687V13.4448C8.00268 12.8827 7.54585 12.4259 6.98475 12.4259ZM6.98575 15.4697C6.98575 15.4707 6.98475 15.4707 6.98475 15.4707L4.95883 15.4688L4.95982 13.4428L6.98575 13.4448V15.4697Z" fill="#171723"/>
<path d="M15.5342 6.74426H9.11979C8.83874 6.74426 8.61133 6.97168 8.61133 7.25273C8.61133 7.53378 8.83874 7.7612 9.11979 7.7612H15.5342C15.8153 7.7612 16.0427 7.53378 16.0427 7.25273C16.0427 6.97168 15.8153 6.74426 15.5342 6.74426Z" fill="#171723"/>
<path d="M9.11979 9.41464H12.1577C12.4387 9.41464 12.6661 9.18722 12.6661 8.90617C12.6661 8.62512 12.4387 8.39771 12.1577 8.39771H9.11979C8.83874 8.39771 8.61133 8.62512 8.61133 8.90617C8.61133 9.18722 8.83874 9.41464 9.11979 9.41464Z" fill="#171723"/>
<path d="M18.3844 4.30408C18.3844 4.27237 18.372 4.24475 18.3664 4.21465C18.3218 3.48832 18.0303 2.80768 17.5115 2.2871L16.1053 0.877897C15.5402 0.311832 14.7884 0 13.989 0H4.59032C2.94178 0 1.6001 1.34168 1.6001 2.99022V17.0098C1.6001 18.6583 2.94178 20 4.59032 20H15.3942C17.0428 20 18.3844 18.6583 18.3844 17.0098V4.39942C18.3844 4.37764 18.3786 4.3569 18.3782 4.33518C18.3789 4.32432 18.3844 4.31514 18.3844 4.30408ZM16.7915 3.00512C17.0153 3.23011 17.17 3.50216 17.2644 3.79562H14.5888V1.11903C14.8851 1.21375 15.1599 1.36991 15.3863 1.5969L16.7915 3.00512ZM15.3942 18.9831H4.59032C3.50188 18.9831 2.61703 18.0982 2.61703 17.0098V2.99022C2.61703 1.90179 3.50188 1.01693 4.59032 1.01693H13.5719V4.30408C13.5719 4.58513 13.7993 4.81255 14.0804 4.81255H17.3675V17.0098C17.3675 18.0982 16.4827 18.9831 15.3942 18.9831Z" fill="#171723"/>
</g>
<defs>
<clipPath id="clip0_10314_146206">
<rect width="16.7843" height="20" fill="white" transform="translate(1.6001)"/>
</clipPath>
</defs>
</svg>
