<svg width="20" height="20" viewBox="0 0 20 20" fill="none" xmlns="http://www.w3.org/2000/svg">
<g clip-path="url(#clip0_10314_146226)">
<path d="M7.08664 12.9436H5.0625V14.9682H7.08664V12.9436Z" fill="#171723"/>
<path d="M18.3853 4.3031C18.3853 4.27279 18.3754 4.2425 18.3654 4.21171C18.3247 3.48947 18.0297 2.80797 17.5106 2.28889L16.1069 0.875222C15.5476 0.31542 14.7742 0 13.9908 0H4.59136C2.9328 0 1.6001 1.34313 1.6001 2.99076V17.0092C1.6001 18.6574 2.9328 20 4.59136 20H15.3946C17.0427 20 18.3853 18.6574 18.3853 17.0092V4.39499C18.3853 4.37462 18.3754 4.35426 18.3754 4.33389C18.3754 4.32346 18.3853 4.31353 18.3853 4.3031ZM4.22868 6.95147C4.44227 6.76867 4.76763 6.77861 4.95091 6.9922L5.55095 7.65334L7.10718 6.00571C7.30041 5.79162 7.62625 5.79162 7.82942 5.98534C8.03308 6.17857 8.0435 6.49399 7.84978 6.69715L5.9071 8.75208C5.90015 8.75208 5.89336 8.75556 5.88674 8.76251C5.88674 8.76251 5.88674 8.77245 5.87631 8.77245C5.846 8.80324 5.81521 8.81318 5.78492 8.83355C5.76455 8.84349 5.74418 8.86434 5.72382 8.87428C5.66272 8.89465 5.60162 8.90459 5.54052 8.90459C5.4695 8.90459 5.4084 8.89465 5.3473 8.86435C5.317 8.86435 5.30657 8.84349 5.27627 8.83356C5.24597 8.81319 5.21517 8.79283 5.18488 8.77246C5.18488 8.76584 5.1814 8.75905 5.17445 8.7521C5.17445 8.7521 5.16451 8.74216 5.15409 8.74216L4.1979 7.67371C4.00468 7.46012 4.02503 7.14469 4.22868 6.95147ZM8.1041 14.9683C8.1041 15.5276 7.64662 15.9855 7.08682 15.9855H5.06267C4.50287 15.9855 4.04539 15.5276 4.04539 14.9683V12.9436C4.04539 12.3739 4.50287 11.9263 5.06267 11.9263H7.08682C7.64662 11.9263 8.1041 12.3739 8.1041 12.9436V14.9683ZM12.2651 15.2936H9.22322C8.93859 15.2936 8.71458 15.0597 8.71458 14.785C8.71458 14.4999 8.93859 14.2763 9.22322 14.2763H12.2651C12.5398 14.2763 12.7738 14.4999 12.7738 14.785C12.7738 15.0597 12.5398 15.2936 12.2651 15.2936ZM15.6423 13.6356H9.22322C8.93859 13.6356 8.71458 13.4115 8.71458 13.1269C8.71458 12.8418 8.93859 12.6183 9.22322 12.6183H15.6424C15.917 12.6183 16.151 12.8418 16.151 13.1269C16.151 13.4115 15.917 13.6356 15.6423 13.6356ZM8.71457 8.39593C8.71457 8.12125 8.93858 7.88729 9.22321 7.88729H12.2651C12.5398 7.88729 12.7738 8.12125 12.7738 8.39593C12.7738 8.68105 12.5398 8.90458 12.2651 8.90458H9.22321C8.93858 8.90458 8.71457 8.68105 8.71457 8.39593ZM15.6423 7.25695H9.22322C8.93859 7.25695 8.71458 7.02299 8.71458 6.74831C8.71458 6.46319 8.93859 6.23966 9.22322 6.23966H15.6424C15.917 6.23966 16.151 6.46319 16.151 6.74831C16.151 7.02299 15.917 7.25695 15.6423 7.25695ZM14.6961 3.28904V0.613698C14.9911 0.705091 15.2658 0.868019 15.4898 1.09204L16.8936 2.49577C17.1176 2.71978 17.2701 2.99398 17.3719 3.28904H14.6961Z" fill="#171723"/>
</g>
<defs>
<clipPath id="clip0_10314_146226">
<rect width="16.7852" height="20" fill="white" transform="translate(1.6001)"/>
</clipPath>
</defs>
</svg>
