<svg width="20" height="20" viewBox="0 0 20 20" fill="none" xmlns="http://www.w3.org/2000/svg">
<path d="M8.33334 12.5V2.5C8.33334 1.08333 7.25 0 5.83334 0C4.41667 0 3.33334 1.08333 3.33334 2.5V12.5C2.33334 13.25 1.66667 14.5 1.66667 15.8333C1.66667 18.1667 3.5 20 5.83334 20C8.16667 20 10 18.1667 10 15.8333C10 14.5 9.33334 13.3333 8.33334 12.5ZM5.83334 1.66667C6.33334 1.66667 6.66667 2 6.66667 2.5V10H5V2.5C5 2 5.33334 1.66667 5.83334 1.66667ZM17.5 3.33333H10.8333C10.3333 3.33333 10 3 10 2.5C10 2 10.3333 1.66667 10.8333 1.66667H17.5C18 1.66667 18.3333 2 18.3333 2.5C18.3333 3 18 3.33333 17.5 3.33333ZM15.8333 6.66667H10.8333C10.3333 6.66667 10 6.33333 10 5.83333C10 5.33333 10.3333 5 10.8333 5H15.8333C16.3333 5 16.6667 5.33333 16.6667 5.83333C16.6667 6.33333 16.3333 6.66667 15.8333 6.66667ZM14.1667 10H10.8333C10.3333 10 10 9.66667 10 9.16667C10 8.66667 10.3333 8.33333 10.8333 8.33333H14.1667C14.6667 8.33333 15 8.66667 15 9.16667C15 9.66667 14.6667 10 14.1667 10Z" fill="black"/>
</svg>
