<svg xmlns="http://www.w3.org/2000/svg" width="300" height="273" viewBox="0 0 300 273" version="1.1">
<path d="M 0 136.500 L 0 273 13.500 273 L 27 273 27 136.500 L 27 0 13.500 0 L 0 0 0 136.500 M 218 27 L 218 54 231.500 54 L 245 54 245 27 L 245 0 231.500 0 L 218 0 218 27 M 163 81.500 L 163 109 177 109 L 191 109 191 81.500 L 191 54 177 54 L 163 54 163 81.500 M 108.234 191.250 L 108.500 218.500 122.250 218.778 L 136 219.056 136 191.528 L 136 164 121.984 164 L 107.968 164 108.234 191.250 M 217.767 218.500 L 218.034 273 231.517 273 L 245 273 245 218.500 L 245 164 231.250 164 L 217.500 164 217.767 218.500" stroke="none" fill="#000000" fill-rule="evenodd"/>
<path d="M 224.206 54.741 C 227.895 54.932, 234.195 54.934, 238.206 54.743 C 242.218 54.553, 239.200 54.396, 231.500 54.395 C 223.800 54.393, 220.518 54.549, 224.206 54.741 M 170.250 109.742 C 173.963 109.934, 180.037 109.934, 183.750 109.742 C 187.463 109.549, 184.425 109.392, 177 109.392 C 169.575 109.392, 166.537 109.549, 170.250 109.742 M 27.233 191.250 L 27 273 54.500 273 L 82 273 82 218.500 L 82 164 55.016 164 L 28.032 164 27.749 136.750 C 27.594 121.762, 27.362 146.287, 27.233 191.250 M 122.750 163.674 L 136 164.056 136 191.528 L 136 219 163.500 219 L 191 219 191 191.500 L 191 164 170.250 163.997 C 158.838 163.996, 140.500 163.837, 129.500 163.643 C 118.500 163.450, 115.463 163.464, 122.750 163.674 M 231.750 163.674 L 245 164.056 245 218.528 L 245 273 272.500 273 L 300 273 300 218.500 L 300 164 279.250 163.997 C 267.837 163.996, 249.500 163.837, 238.500 163.643 C 227.500 163.450, 224.463 163.464, 231.750 163.674" stroke="none" fill="#ea4027" fill-rule="evenodd"/>
<path d="M 245.439 27 C 245.439 42.125, 245.578 48.313, 245.748 40.750 C 245.917 33.188, 245.917 20.813, 245.748 13.250 C 245.578 5.688, 245.439 11.875, 245.439 27 M 27.234 68.086 C 27.105 76.108, 27.299 101.033, 27.665 123.475 L 28.330 164.278 82.415 163.948 C 155.051 163.505, 209.107 163.498, 258.750 163.927 L 300 164.282 300 136.510 L 300 108.738 232.250 109.028 C 194.988 109.188, 133.795 109.247, 96.266 109.159 L 28.032 109 27.749 81.250 C 27.594 65.987, 27.362 60.064, 27.234 68.086" stroke="none" fill="#ee792f" fill-rule="evenodd"/>
<path d="M 27.439 27 C 27.439 42.125, 27.578 48.313, 27.748 40.750 C 27.917 33.188, 27.917 20.813, 27.748 13.250 C 27.578 5.688, 27.439 11.875, 27.439 27 M 55.250 54.749 L 28 55.032 28 82.016 L 28 109 82.500 109 L 137 109 137 81.500 L 137 54 109.750 54.233 C 94.762 54.362, 70.238 54.594, 55.250 54.749 M 191 81.422 L 191 109 245.500 109 L 300 109 300 82 L 300 55 272.750 55.021 C 257.762 55.033, 233.238 54.773, 218.250 54.444 L 191 53.845 191 81.422" stroke="none" fill="#f2a73b" fill-rule="evenodd"/>
<path d="M 28 27.500 L 28 55 55 55 L 82 55 82 27.500 L 82 0 55 0 L 28 0 28 27.500 M 246 27.500 L 246 55 273 55 L 300 55 300 27.500 L 300 0 273 0 L 246 0 246 27.500" stroke="none" fill="#f7d046" fill-rule="evenodd"/>
</svg>