<!-- Generated by IcoMoon.io -->
<svg version="1.1" xmlns="http://www.w3.org/2000/svg" width="512" height="512" viewBox="0 0 512 512">
<g id="icomoon-ignore">
</g>
<path fill="#000" d="M465.454 23.272h-93.092v93.091h93.092v-93.091z"></path>
<path fill="#f7d046" d="M511.998 23.272h-93.092v93.091h93.092v-93.091z"></path>
<path fill="#000" d="M93.091 23.272h-93.091v93.091h93.091v-93.091z"></path>
<path fill="#000" d="M93.091 116.362h-93.091v93.091h93.091v-93.091z"></path>
<path fill="#000" d="M93.091 209.453h-93.091v93.090h93.091v-93.091zM93.091 302.543h-93.091v93.092h93.091v-93.092zM93.091 395.635h-93.091v93.089h93.091v-93.089z"></path>
<path fill="#f7d046" d="M139.635 23.272h-93.091v93.091h93.091v-93.091z"></path>
<path fill="#f2a73b" d="M511.998 116.362h-93.092v93.091h93.092v-93.091zM139.635 116.362h-93.091v93.091h93.091v-93.091z"></path>
<path fill="#000" d="M372.365 116.362h-93.089v93.091h93.089v-93.091z"></path>
<path fill="#f2a73b" d="M418.911 116.362h-93.092v93.091h93.092v-93.091zM232.728 116.362h-93.091v93.091h93.091v-93.091z"></path>
<path fill="#ee792f" d="M325.817 209.453h-93.091v93.090h93.091v-93.091zM418.911 209.453h-93.092v93.090h93.092v-93.091z"></path>
<path fill="#ee792f" d="M232.728 209.453h-93.091v93.090h93.091v-93.091z"></path>
<path fill="#000" d="M279.273 302.543h-93.091v93.092h93.091v-93.092z"></path>
<path fill="#eb5829" d="M325.817 302.543h-93.091v93.092h93.091v-93.092z"></path>
<path fill="#ee792f" d="M511.998 209.453h-93.092v93.090h93.092v-93.091zM139.635 209.453h-93.091v93.090h93.091v-93.091z"></path>
<path fill="#000" d="M465.454 302.543h-93.092v93.092h93.092v-93.092z"></path>
<path fill="#eb5829" d="M511.998 302.543h-93.092v93.092h93.092v-93.092z"></path>
<path fill="#000" d="M465.454 395.635h-93.092v93.089h93.092v-93.089z"></path>
<path fill="#eb5829" d="M139.635 302.543h-93.091v93.092h93.091v-93.092z"></path>
<path fill="#ea3326" d="M511.998 395.635h-93.092v93.089h93.092v-93.089zM139.635 395.635h-93.091v93.089h93.091v-93.089z"></path>
</svg>
