<svg xmlns="http://www.w3.org/2000/svg" width="512" height="512" version="1.1">
    <path fill="#000" d="M465.454 23.272h-93.092v93.091h93.092V23.272z"/>
    <path fill="#f7d046" d="M511.998 23.272h-93.092v93.091h93.092V23.272z"/>
    <path fill="#000" d="M93.091 23.272H0v93.091h93.091V23.272z"/>
    <path fill="#000" d="M93.091 116.362H0v93.091h93.091v-93.091z"/>
    <path fill="#000" d="M93.091 209.453H0v93.09h93.091v-93.091zM93.091 302.543H0v93.092h93.091v-93.092zM93.091 395.635H0v93.089h93.091v-93.089z"/>
    <path fill="#f7d046" d="M139.635 23.272H46.544v93.091h93.091V23.272z"/>
    <path fill="#f2a73b" d="M511.998 116.362h-93.092v93.091h93.092v-93.091zM139.635 116.362H46.544v93.091h93.091v-93.091z"/>
    <path fill="#000" d="M372.365 116.362h-93.089v93.091h93.089v-93.091z"/>
    <path fill="#f2a73b" d="M418.911 116.362h-93.092v93.091h93.092v-93.091zM232.728 116.362h-93.091v93.091h93.091v-93.091z"/>
    <path fill="#ee792f" d="M325.817 209.453h-93.091v93.09h93.091v-93.091zM418.911 209.453h-93.092v93.09h93.092v-93.091z"/>
    <path fill="#ee792f" d="M232.728 209.453h-93.091v93.09h93.091v-93.091z"/>
    <path fill="#000" d="M279.273 302.543h-93.091v93.092h93.091v-93.092z"/>
    <path fill="#eb5829" d="M325.817 302.543h-93.091v93.092h93.091v-93.092z"/>
    <path fill="#ee792f" d="M511.998 209.453h-93.092v93.09h93.092v-93.091zM139.635 209.453H46.544v93.09h93.091v-93.091z"/>
    <path fill="#000" d="M465.454 302.543h-93.092v93.092h93.092v-93.092z"/>
    <path fill="#eb5829" d="M511.998 302.543h-93.092v93.092h93.092v-93.092z"/>
    <path fill="#000" d="M465.454 395.635h-93.092v93.089h93.092v-93.089z"/>
    <path fill="#eb5829" d="M139.635 302.543H46.544v93.092h93.091v-93.092z"/>
    <path fill="#ea3326" d="M511.998 395.635h-93.092v93.089h93.092v-93.089zM139.635 395.635H46.544v93.089h93.091v-93.089z"/>
</svg>
