<svg width="20" height="20" viewBox="0 0 20 20" fill="none" xmlns="http://www.w3.org/2000/svg">
<path fill-rule="evenodd" clip-rule="evenodd" d="M2.49622 12.9932H7.48778L8.40722 15.4166H9.984L5.86256 4.58331H4.13874L0 15.4166H1.57678L2.49622 12.9932ZM2.9235 11.8367L4.99243 6.33397L7.06137 11.8367H2.9235ZM18.4888 8.27238C17.9638 7.38141 16.8143 6.56824 15.1389 6.56824C12.7257 6.56824 10.8695 8.28804 10.8695 10.9614C10.8695 13.6191 12.7257 15.4167 15.1225 15.4167C16.7814 15.4167 17.9473 14.6039 18.4888 13.6816V15.2758H19.9998V6.70906H18.4888V8.27238ZM12.397 10.9614C12.397 8.94473 13.793 7.80342 15.4347 7.80342C17.0763 7.80342 18.4888 8.99166 18.4888 10.977C18.4888 12.9932 17.0764 14.1658 15.4347 14.1658C13.793 14.1658 12.397 12.9776 12.397 10.9614Z" fill="#171723"/>
</svg>
