<svg width="20" height="20" viewBox="0 0 20 20" fill="none" xmlns="http://www.w3.org/2000/svg">
<path d="M0.585938 4.4623C0.909531 4.4623 1.17188 4.19996 1.17188 3.87637V1.17188H3.87637C4.19996 1.17188 4.4623 0.909531 4.4623 0.585938C4.4623 0.262344 4.19996 0 3.87637 0H0.585938C0.262344 0 0 0.262344 0 0.585938V3.87637C0 4.2 0.262344 4.4623 0.585938 4.4623Z" fill="#171723"/>
<path d="M19.4141 0H16.1236C15.8 0 15.5377 0.262344 15.5377 0.585938C15.5377 0.909531 15.8 1.17188 16.1236 1.17188H18.8281V3.87637C18.8281 4.19996 19.0905 4.4623 19.4141 4.4623C19.7377 4.4623 20 4.19996 20 3.87637V0.585938C20 0.262344 19.7377 0 19.4141 0Z" fill="#171723"/>
<path d="M19.4141 15.5377C19.0905 15.5377 18.8281 15.8 18.8281 16.1236V18.8281H16.1236C15.8 18.8281 15.5377 19.0905 15.5377 19.4141C15.5377 19.7377 15.8 20 16.1236 20H19.4141C19.7377 20 20 19.7377 20 19.4141V16.1236C20 15.8 19.7377 15.5377 19.4141 15.5377Z" fill="#171723"/>
<path d="M3.87637 18.8281H1.17188V16.1236C1.17188 15.8 0.909531 15.5377 0.585938 15.5377C0.262344 15.5377 0 15.8 0 16.1236V19.4141C0 19.7377 0.262344 20 0.585938 20H3.87637C4.19996 20 4.4623 19.7377 4.4623 19.4141C4.4623 19.0905 4.2 18.8281 3.87637 18.8281Z" fill="#171723"/>
<path d="M16.393 7.47578V3.77539C16.393 3.5918 16.2441 3.44297 16.0602 3.44297H3.93984C3.75586 3.44297 3.60703 3.5918 3.60703 3.77539V7.47578C3.60703 7.65977 3.75586 7.80859 3.93984 7.80859H5.70703C5.89062 7.80859 6.03945 7.65977 6.03945 7.47578V6.2082C6.03945 6.02422 6.18867 5.87539 6.37227 5.87539H8.45078C8.63477 5.87539 8.78359 6.02422 8.78359 6.2082V15.3543C8.78359 15.5383 8.63477 15.6871 8.45078 15.6871H7.5418C7.35781 15.6871 7.20898 15.8359 7.20898 16.0199V17.7871C7.20898 17.9707 7.35781 18.1195 7.5418 18.1195H12.4582C12.6422 18.1195 12.791 17.9707 12.791 17.7871V16.0199C12.791 15.8359 12.6422 15.6871 12.4582 15.6871H11.5492C11.3652 15.6871 11.2164 15.5383 11.2164 15.3543V6.2082C11.2164 6.02422 11.3652 5.87539 11.5492 5.87539H13.6277C13.8113 5.87539 13.9605 6.02422 13.9605 6.2082V7.47578C13.9605 7.65977 14.1094 7.80859 14.293 7.80859H16.0602C16.2441 7.80859 16.393 7.65977 16.393 7.47578Z" fill="#171723"/>
</svg>
