<svg width="20" height="20" viewBox="0 0 20 20" fill="none" xmlns="http://www.w3.org/2000/svg">
<g clip-path="url(#clip0_16782_247957)">
<path d="M15.1224 11.1859C16.7815 11.1859 17.9478 10.3467 18.4892 9.39425V11.0406H20V2.19498H18.4892V3.80929C17.9638 2.8889 16.8146 2.04916 15.1395 2.04916C12.7257 2.04916 10.8698 3.82533 10.8698 6.58547C10.8698 9.3296 12.7262 11.1859 15.1224 11.1859ZM15.4349 3.3248C17.0765 3.3248 18.4892 4.55182 18.4892 6.60152C18.4892 8.68379 17.0765 9.89427 15.4349 9.89427C13.7934 9.89427 12.3972 8.66724 12.3972 6.58549C12.3972 4.50323 13.7934 3.3248 15.4349 3.3248Z" fill="#171723"/>
<path d="M2.49637 8.68379H7.48811L8.40753 11.1859H9.98447L5.86259 0H4.13892L0 11.1859H1.57695L2.49637 8.68379ZM4.99273 1.8077L7.06144 7.48933H2.92354L4.99273 1.8077Z" fill="#171723"/>
<path d="M19.4121 14.2346H0.587909C0.263402 14.2346 0 14.4714 0 14.7641C0 15.0567 0.263412 15.2936 0.587909 15.2936H19.4121C19.7371 15.2936 20 15.0567 20 14.7641C20 14.4714 19.7371 14.2346 19.4121 14.2346Z" fill="#171723"/>
<path d="M14.4709 18.941H0.648008C0.289955 18.941 0 19.1778 0 19.4705C0 19.7632 0.289944 20 0.648008 20H14.4709C14.829 20 15.1184 19.7632 15.1184 19.4705C15.1184 19.1778 14.829 18.941 14.4709 18.941Z" fill="#171723"/>
</g>
<defs>
<clipPath id="clip0_16782_247957">
<rect width="20" height="20" fill="white"/>
</clipPath>
</defs>
</svg>
