<svg width="20" height="20" viewBox="0 0 20 20" fill="none" xmlns="http://www.w3.org/2000/svg">
<g clip-path="url(#clip0_5313_35108)">
<g clip-path="url(#clip1_5313_35108)">
<path d="M7.23147 9.1393H2.01358C1.47995 9.13875 0.968319 8.92897 0.590927 8.55597C0.213536 8.18296 0.00119607 7.67719 0.000488281 7.1496V1.99029C0.00107133 1.46261 0.213352 0.956707 0.590753 0.58358C0.968155 0.210453 1.47985 0.000576447 2.01358 0H7.23147C7.7652 0.000573371 8.2769 0.210449 8.6543 0.583577C9.0317 0.956705 9.24398 1.46261 9.24456 1.99029V7.14966C9.24384 7.67724 9.0315 8.18299 8.65411 8.55599C8.27672 8.92898 7.76509 9.13876 7.23147 9.1393ZM2.01358 1.16462C1.79217 1.16489 1.5799 1.25197 1.42334 1.40676C1.26677 1.56155 1.17869 1.77141 1.17842 1.99032V7.14966C1.17882 7.36847 1.26696 7.5782 1.42351 7.73287C1.58007 7.88754 1.79226 7.97452 2.01358 7.97476H7.23147C7.45279 7.97452 7.66499 7.88754 7.82154 7.73287C7.97809 7.5782 8.06623 7.36847 8.06663 7.14966V1.99029C8.06636 1.77139 7.97828 1.56152 7.82172 1.40673C7.66515 1.25194 7.45288 1.16486 7.23147 1.1646L2.01358 1.16462Z" fill="#171723"/>
<path d="M17.9875 9.1393H12.7685C12.2348 9.13876 11.7232 8.92898 11.3458 8.55597C10.9684 8.18296 10.7561 7.67719 10.7554 7.1496V1.99029C10.756 1.46261 10.9682 0.956705 11.3456 0.583577C11.723 0.210449 12.2347 0.000573371 12.7685 0H17.9875C18.5212 0.000573371 19.0329 0.210449 19.4103 0.583577C19.7877 0.956705 20 1.46261 20.0006 1.99029V7.14966C19.9999 7.67724 19.7875 8.18299 19.4101 8.55599C19.0328 8.92898 18.5211 9.13876 17.9875 9.1393ZM12.7685 1.16462C12.547 1.16489 12.3348 1.25197 12.1782 1.40676C12.0217 1.56155 11.9336 1.77141 11.9333 1.99032V7.14966C11.9337 7.36847 12.0218 7.5782 12.1784 7.73287C12.3349 7.88754 12.5471 7.97452 12.7685 7.97476H17.9875C18.2088 7.97452 18.421 7.88754 18.5776 7.73287C18.7341 7.5782 18.8223 7.36847 18.8227 7.14966V1.99029C18.8224 1.77139 18.7343 1.56152 18.5778 1.40673C18.4212 1.25194 18.2089 1.16486 17.9875 1.1646L12.7685 1.16462Z" fill="#171723"/>
<path d="M7.23147 20H2.01358C1.47985 19.9995 0.968155 19.7896 0.590753 19.4165C0.213352 19.0433 0.00107133 18.5374 0.000488281 18.0097V12.8504C0.00107133 12.3227 0.213352 11.8168 0.590753 11.4437C0.968155 11.0706 1.47985 10.8607 2.01358 10.8601H7.23147C7.7652 10.8607 8.2769 11.0706 8.6543 11.4437C9.0317 11.8168 9.24398 12.3227 9.24456 12.8504V18.0098C9.24398 18.5374 9.0317 19.0433 8.6543 19.4165C8.27689 19.7896 7.7652 19.9995 7.23147 20ZM2.01358 12.0247C1.79217 12.025 1.5799 12.1121 1.42334 12.2669C1.26677 12.4216 1.17869 12.6315 1.17842 12.8504V18.0098C1.17879 18.2286 1.2669 18.4384 1.42344 18.5932C1.57999 18.748 1.7922 18.8351 2.01358 18.8355H7.23147C7.45285 18.8351 7.66506 18.748 7.82161 18.5932C7.97815 18.4384 8.06626 18.2286 8.06663 18.0098V12.8504C8.06636 12.6315 7.97828 12.4216 7.82172 12.2668C7.66515 12.1121 7.45288 12.025 7.23147 12.0247L2.01358 12.0247Z" fill="#171723"/>
<path d="M17.9875 20H12.7685C12.2347 19.9995 11.723 19.7896 11.3456 19.4165C10.9682 19.0433 10.756 18.5374 10.7554 18.0097V12.8504C10.756 12.3227 10.9682 11.8168 11.3456 11.4437C11.723 11.0706 12.2347 10.8607 12.7685 10.8601H17.9875C18.5212 10.8607 19.0329 11.0706 19.4103 11.4437C19.7877 11.8168 20 12.3227 20.0006 12.8504V18.0098C20 18.5374 19.7877 19.0433 19.4103 19.4165C19.0329 19.7896 18.5212 19.9995 17.9875 20ZM12.7685 12.0247C12.547 12.025 12.3348 12.1121 12.1782 12.2669C12.0217 12.4216 11.9336 12.6315 11.9333 12.8504V18.0098C11.9337 18.2286 12.0218 18.4384 12.1783 18.5932C12.3349 18.748 12.5471 18.8351 12.7685 18.8355H17.9875C18.2089 18.8351 18.4211 18.748 18.5776 18.5932C18.7342 18.4384 18.8223 18.2286 18.8227 18.0098V12.8504C18.8224 12.6315 18.7343 12.4216 18.5778 12.2668C18.4212 12.1121 18.2089 12.025 17.9875 12.0247L12.7685 12.0247Z" fill="#171723"/>
</g>
</g>
<defs>
<clipPath id="clip0_5313_35108">
<rect width="20" height="20" fill="white"/>
</clipPath>
<clipPath id="clip1_5313_35108">
<rect width="20" height="20" fill="white"/>
</clipPath>
</defs>
</svg>
