<svg width="20" height="20" viewBox="0 0 20 20" fill="none" xmlns="http://www.w3.org/2000/svg">
<path d="M16.875 10C16.875 8.17664 16.151 6.42766 14.8617 5.13835C13.5723 3.84903 11.8234 3.125 10 3.125C8.17664 3.125 6.42766 3.84903 5.13835 5.13835C3.84903 6.42766 3.125 8.17664 3.125 10C3.125 10.9028 3.30277 11.7969 3.64827 12.631C3.99378 13.4651 4.49995 14.2233 5.13835 14.8617C5.77674 15.5 6.53488 16.0062 7.36898 16.3517C8.20309 16.6972 9.09716 16.875 10 16.875L10.3377 16.8669C11.1252 16.8281 11.9011 16.6541 12.631 16.3517C13.4651 16.0062 14.2233 15.5 14.8617 14.8617C15.5 14.2233 16.0062 13.4651 16.3517 12.631C16.6972 11.7969 16.875 10.9028 16.875 10ZM18.125 10C18.125 11.067 17.9148 12.1238 17.5065 13.1095C17.0982 14.0952 16.4999 14.991 15.7454 15.7454C14.991 16.4999 14.0952 17.0982 13.1095 17.5065C12.247 17.8638 11.3301 18.0694 10.3996 18.1152L10 18.125C8.93301 18.125 7.87623 17.9148 6.89046 17.5065C5.90477 17.0982 5.00898 16.4999 4.25456 15.7454C3.50013 14.991 2.90181 14.0952 2.49349 13.1095C2.08517 12.1238 1.875 11.067 1.875 10C1.875 7.84512 2.73082 5.77829 4.25456 4.25456C5.77829 2.73082 7.84512 1.875 10 1.875C12.1549 1.875 14.2217 2.73082 15.7454 4.25456C17.2692 5.77829 18.125 7.84512 18.125 10Z" fill="#171723"/>
<path d="M9.375 5.83333C9.375 5.48816 9.65482 5.20833 10 5.20833C10.3452 5.20833 10.625 5.48816 10.625 5.83333V9.74121L12.9419 12.0581L12.985 12.1053C13.1853 12.3508 13.1707 12.7131 12.9419 12.9419C12.7131 13.1707 12.3508 13.1853 12.1053 12.985L12.0581 12.9419L9.55811 10.4419C9.4409 10.3247 9.375 10.1658 9.375 10V5.83333Z" fill="#171723"/>
</svg>
