<svg width="20" height="20" viewBox="0 0 20 20" fill="none" xmlns="http://www.w3.org/2000/svg">
<g clip-path="url(#clip0_20108_2274)">
<path d="M15.0141 4.57051L15.8539 3.58292C16.0606 3.37568 16.0606 3.04132 15.8539 2.83461C15.6471 2.62737 15.3123 2.62737 15.1056 2.83461L14.1185 3.9948C13.1237 3.44855 12.0089 3.09662 10.8239 2.98654V1.05839H12.8787C12.8632 1.03152 12.8523 1.00154 12.8374 0.974669C12.9903 0.881647 13.0978 0.720921 13.0978 0.529194C13.0978 0.236687 12.8611 0 12.5686 0H7.80226C7.50976 0 7.27307 0.236687 7.27307 0.529194C7.27307 0.720921 7.38056 0.881647 7.53405 0.974669C7.51854 1.00154 7.50821 1.03152 7.49219 1.05839H9.76555V2.95915C8.49683 2.99842 7.29942 3.31418 6.22761 3.85061L5.36353 2.83461C5.15681 2.62737 4.82193 2.62737 4.61522 2.83461C4.4085 3.04132 4.4085 3.37568 4.61522 3.58292L5.29634 4.38445C3.00955 5.91519 1.5 8.52084 1.5 11.4738C1.5 16.1755 5.32529 20.0008 10.0276 20.0008C14.7293 20.0008 18.5551 16.1755 18.5551 11.4738C18.5551 8.63402 17.1546 6.12139 15.0141 4.5705L15.0141 4.57051ZM10.0276 18.9425C5.90925 18.9425 2.55838 15.5921 2.55838 11.4738C2.55838 7.35498 5.90925 4.00462 10.0276 4.00462C14.1459 4.00462 17.4967 7.35498 17.4967 11.4738C17.4967 15.5921 14.1459 18.9425 10.0276 18.9425Z" fill="#171723"/>
<path d="M10 5.5C11.5261 5.5 12.9948 6.08151 14.1073 7.12619L10 11.5L10 5.5Z" fill="#171723"/>
</g>
<defs>
<clipPath id="clip0_20108_2274">
<rect width="20" height="20" fill="white"/>
</clipPath>
</defs>
</svg>
