<svg width="20" height="20" viewBox="0 0 20 20" fill="none" xmlns="http://www.w3.org/2000/svg">
<g clip-path="url(#clip0_20108_2273)">
<path d="M12.5684 0C12.8609 0 13.0977 0.23679 13.0977 0.529297C13.0976 0.720978 12.9899 0.881604 12.8369 0.974609C12.8519 1.00148 12.8634 1.03172 12.8789 1.05859H10.8242V2.98633C12.0091 3.09643 13.1234 3.44895 14.1182 3.99512L15.1055 2.83496C15.3122 2.62773 15.6468 2.62773 15.8535 2.83496C16.0602 3.04167 16.0602 3.37578 15.8535 3.58301L15.0137 4.57031C17.1542 6.12117 18.5546 8.63393 18.5547 11.4736C18.5547 16.1754 14.7291 20.001 10.0273 20.001C5.32517 20.0009 1.5 16.1753 1.5 11.4736C1.50005 8.52095 3.0094 5.91551 5.2959 4.38477L4.61523 3.58301C4.40858 3.37583 4.40869 3.04169 4.61523 2.83496C4.82195 2.62773 5.15657 2.62773 5.36328 2.83496L6.22754 3.85059C7.29936 3.31415 8.4969 2.99826 9.76562 2.95898V1.05859H7.49219C7.50821 1.03172 7.51867 1.00148 7.53418 0.974609C7.38072 0.881604 7.27348 0.720978 7.27344 0.529297C7.27344 0.23679 7.51023 0 7.80273 0H12.5684ZM10.0273 4.00488C5.90919 4.005 2.55868 7.35496 2.55859 11.4736C2.55859 15.5919 5.90914 18.9423 10.0273 18.9424C14.1456 18.9424 17.4971 15.5919 17.4971 11.4736C17.497 7.35489 14.1456 4.00488 10.0273 4.00488ZM10 5.5C13.3137 5.5 16 8.18629 16 11.5C16 14.8137 13.3137 17.5 10 17.5C6.68629 17.5 4 14.8137 4 11.5C4 8.18629 6.68629 5.5 10 5.5ZM12.9414 9.39258C12.6973 9.14896 12.3015 9.14866 12.0576 9.39258L9.16699 12.2842L7.94141 11.0596L7.89453 11.0166C7.64905 10.8164 7.28643 10.8308 7.05762 11.0596C6.81383 11.3036 6.8139 11.6993 7.05762 11.9434L8.72461 13.6104C8.96863 13.8543 9.36431 13.8542 9.6084 13.6104L12.9414 10.2764C13.1855 10.0323 13.1855 9.63666 12.9414 9.39258Z" fill="#171723"/>
</g>
<defs>
<clipPath id="clip0_20108_2273">
<rect width="20" height="20" fill="white"/>
</clipPath>
</defs>
</svg>
