<svg width="20" height="20" viewBox="0 0 20 20" fill="none" xmlns="http://www.w3.org/2000/svg">
<g clip-path="url(#clip0_10608_147851)">
<path d="M14.5746 4.57051L15.4144 3.58292C15.6211 3.37568 15.6211 3.04132 15.4144 2.83461C15.2077 2.62737 14.8728 2.62737 14.6661 2.83461L13.679 3.9948C12.6842 3.44855 11.5695 3.09662 10.3845 2.98654V1.05839H12.4393C12.4237 1.03152 12.4129 1.00154 12.3979 0.974669C12.5509 0.881647 12.6584 0.720921 12.6584 0.529194C12.6584 0.236687 12.4217 0 12.1292 0H7.36281C7.0703 0 6.83362 0.236687 6.83362 0.529194C6.83362 0.720921 6.94111 0.881647 7.09459 0.974669C7.07909 1.00154 7.06876 1.03152 7.05273 1.05839H9.3261V2.95915C8.05738 2.99842 6.85997 3.31418 5.78815 3.85061L4.92407 2.83461C4.71736 2.62737 4.38248 2.62737 4.17576 2.83461C3.96905 3.04132 3.96905 3.37568 4.17576 3.58292L4.85689 4.38445C2.57009 5.91519 1.06055 8.52084 1.06055 11.4738C1.06055 16.1755 4.88584 20.0008 9.58811 20.0008C14.2899 20.0008 18.1157 16.1755 18.1157 11.4738C18.1157 8.63402 16.7152 6.12139 14.5746 4.5705L14.5746 4.57051ZM9.5881 18.9425C5.4698 18.9425 2.11892 15.5921 2.11892 11.4738C2.11892 7.35498 5.4698 4.00462 9.5881 4.00462C13.7064 4.00462 17.0573 7.35498 17.0573 11.4738C17.0573 15.5921 13.7064 18.9425 9.5881 18.9425Z" fill="#494446"/>
<path d="M9.58224 5.49347C9.4489 5.49347 9.31816 5.50381 9.18638 5.5131V11.6898H3.61279C3.72752 14.8918 6.3523 17.4541 9.58225 17.4541C12.8856 17.4541 15.5631 14.7761 15.5631 11.4738C15.5631 8.17045 12.8856 5.49347 9.58225 5.49347H9.58224Z" fill="#494446"/>
</g>
<defs>
<clipPath id="clip0_10608_147851">
<rect width="20" height="20" fill="white"/>
</clipPath>
</defs>
</svg>
