<svg width="20" height="20" viewBox="0 0 20 20" fill="none" xmlns="http://www.w3.org/2000/svg">
<g clip-path="url(#clip0_5313_35109)">
<g clip-path="url(#clip1_5313_35109)">
<path d="M10.0005 20C8.0227 20.0001 6.08927 19.4137 4.44472 18.315C2.80018 17.2162 1.51837 15.6545 0.761404 13.8273C0.00443463 12.0001 -0.193701 9.98943 0.192052 8.0496C0.577806 6.10977 1.53012 4.32789 2.92858 2.9293C4.32703 1.5307 6.10881 0.578202 8.0486 0.192251C9.98839 -0.1937 11.9991 0.00423115 13.8264 0.761014C15.6537 1.5178 17.2155 2.79944 18.3144 4.44388C19.4133 6.08831 19.9999 8.02168 20 9.9995C19.9972 12.6508 18.9428 15.1926 17.0682 17.0675C15.1935 18.9423 12.6518 19.9969 10.0005 20ZM10.0005 1.01694C8.22378 1.01684 6.48693 1.54361 5.00959 2.53064C3.53226 3.51768 2.3808 4.92064 1.70083 6.5621C1.02086 8.20356 0.842921 10.0098 1.18952 11.7524C1.53612 13.495 2.39168 15.0957 3.64802 16.352C4.90435 17.6083 6.50503 18.4639 8.24762 18.8105C9.99021 19.1571 11.7964 18.9791 13.4379 18.2992C15.0794 17.6192 16.4823 16.4677 17.4694 14.9904C18.4564 13.5131 18.9832 11.7762 18.9831 9.9995C18.9802 7.61804 18.0329 5.33495 16.349 3.65101C14.6651 1.96706 12.382 1.01978 10.0005 1.01694Z" fill="#171723"/>
<path d="M13.5001 15C13.4344 15.0001 13.3694 14.9874 13.3087 14.9626C13.248 14.9379 13.1929 14.9016 13.1465 14.8558L9.14648 10.9185C9.10004 10.8728 9.06319 10.8186 9.03806 10.7588C9.01292 10.6991 8.99999 10.6351 9 10.5705V5.49217C9 5.36164 9.05268 5.23645 9.14645 5.14415C9.24022 5.05185 9.3674 5 9.50001 5C9.63262 5 9.7598 5.05185 9.85357 5.14415C9.94734 5.23645 10 5.36164 10 5.49217V10.3667L13.8536 14.1599C13.9235 14.2287 13.9711 14.3164 13.9904 14.4118C14.0097 14.5073 13.9998 14.6062 13.9619 14.6962C13.9241 14.7861 13.86 14.8629 13.7778 14.917C13.6956 14.9711 13.599 15 13.5001 15Z" fill="#171723"/>
</g>
</g>
<defs>
<clipPath id="clip0_5313_35109">
<rect width="20" height="20" fill="white"/>
</clipPath>
<clipPath id="clip1_5313_35109">
<rect width="20" height="20" fill="white"/>
</clipPath>
</defs>
</svg>
