<svg width="20" height="20" viewBox="0 0 20 20" fill="none" xmlns="http://www.w3.org/2000/svg">
<path d="M5.83333 14.5833C4.56014 14.5833 3.47799 14.1379 2.58688 13.2471C1.69563 12.3562 1.25 11.2745 1.25 10.0018C1.25 8.72921 1.69563 7.64685 2.58688 6.75477C3.47799 5.86268 4.56014 5.41664 5.83333 5.41664H14.1667C15.4399 5.41664 16.522 5.86206 17.4131 6.75289C18.3044 7.64372 18.75 8.72546 18.75 9.9981C18.75 11.2707 18.3044 12.3531 17.4131 13.2452C16.522 14.1373 15.4399 14.5833 14.1667 14.5833H5.83333ZM5.83229 12.2916C6.46868 12.2916 7.00986 12.0689 7.45583 11.6235C7.90194 11.1781 8.125 10.6373 8.125 10.001C8.125 9.36463 7.90229 8.82345 7.45688 8.37747C7.01146 7.93136 6.47062 7.70831 5.83437 7.70831C5.19799 7.70831 4.65681 7.93102 4.21083 8.37643C3.76472 8.82185 3.54167 9.36268 3.54167 9.99893C3.54167 10.6353 3.76438 11.1765 4.20979 11.6225C4.65521 12.0686 5.19604 12.2916 5.83229 12.2916Z" fill="#171723"/>
</svg>
