<svg width="20" height="20" viewBox="0 0 20 20" fill="none" xmlns="http://www.w3.org/2000/svg">
<path d="M5.83333 14.5833C4.56014 14.5833 3.47799 14.1379 2.58688 13.2471C1.69563 12.3562 1.25 11.2745 1.25 10.0018C1.25 8.72921 1.69563 7.64685 2.58688 6.75477C3.47799 5.86268 4.56014 5.41664 5.83333 5.41664H14.1667C15.4399 5.41664 16.522 5.86206 17.4131 6.75289C18.3044 7.64372 18.75 8.72546 18.75 9.9981C18.75 11.2707 18.3044 12.3531 17.4131 13.2452C16.522 14.1373 15.4399 14.5833 14.1667 14.5833H5.83333ZM14.1656 12.2916C14.802 12.2916 15.3432 12.0689 15.7892 11.6235C16.2353 11.1781 16.4583 10.6373 16.4583 10.001C16.4583 9.36463 16.2356 8.82345 15.7902 8.37747C15.3448 7.93136 14.804 7.70831 14.1677 7.70831C13.5313 7.70831 12.9901 7.93102 12.5442 8.37643C12.0981 8.82185 11.875 9.36268 11.875 9.99893C11.875 10.6353 12.0977 11.1765 12.5431 11.6225C12.9885 12.0686 13.5294 12.2916 14.1656 12.2916Z" fill="#171723"/>
</svg>
