<svg width="20" height="20" viewBox="0 0 20 20" fill="none" xmlns="http://www.w3.org/2000/svg">
<g clip-path="url(#clip0_10314_145784)">
<path d="M12.9974 13.4125L12.8334 10.5219C12.8252 10.3803 12.7723 10.2477 12.6854 10.1508C12.5985 10.054 12.4841 10.0001 12.3652 10H7.63241C7.51335 9.99994 7.39873 10.0539 7.31179 10.1511C7.22484 10.2482 7.17208 10.3811 7.1642 10.523L7.00381 13.4245C6.99832 13.4737 6.89111 14.6532 8.32056 15.5142C8.83943 15.8333 9.41459 15.9998 9.99821 16C10.5818 16.0002 11.1571 15.834 11.6761 15.5153C13.0176 14.7079 13.0112 13.6149 12.9974 13.4125ZM11.2509 14.5164C10.8625 14.7506 10.4334 14.8726 9.99823 14.8724C9.56306 14.8722 9.13402 14.7499 8.74573 14.5153C7.95862 14.0415 7.93755 13.5317 7.93755 13.5317L8.07132 11.1203H11.9272L12.061 13.4912C12.0619 13.5131 12.0646 14.0262 11.2528 14.5153L11.2509 14.5164Z" fill="#171723"/>
<path d="M7.72709 7H12.2729C12.4568 6.99776 12.6329 6.91037 12.7645 6.75605C12.8961 6.60172 12.9731 6.39235 12.9794 6.17154C13 5.28224 13 4.66231 13 4.65103C13 3.18913 11.6546 2 10.0004 2C8.34633 2 7 3.18462 7 4.64089C7 4.66118 7 5.28224 7.02158 6.16929C7.02682 6.39053 7.10327 6.6007 7.23484 6.75563C7.36641 6.91055 7.54287 6.99815 7.72709 7V7ZM10.0004 3.15423C11.0869 3.15423 12.0392 3.85418 12.0392 4.65107C12.0392 4.66121 12.0392 5.13574 12.0252 5.84584H7.97575C7.96075 5.13462 7.96075 4.65896 7.96075 4.64092C7.96072 3.9376 8.79857 3.15423 10.0004 3.15423V3.15423Z" fill="#171723"/>
<path d="M16.9825 11.3805C16.9806 11.348 16.9752 11.3159 16.9664 11.2845L16.96 11.2748C16.9425 11.2395 16.9205 11.2063 16.8947 11.1758C16.8806 11.1522 16.8645 11.1297 16.8467 11.1085C16.7918 11.0705 16.736 11.0339 16.6792 10.9986C16.648 10.9887 16.6158 10.9814 16.5831 10.9769C16.5476 10.9664 16.5109 10.9594 16.4738 10.9561L16.4621 10.9538C16.4 10.967 16.3372 10.9776 16.2741 10.9856L14.8315 11.4955L14.796 10.9856C14.7518 10.3348 14.7719 9.68157 14.8559 9.03431C15.1343 6.86361 15.1459 4.07428 15.1459 3.95512C15.1459 1.77449 12.8379 0 10.0005 0C7.16315 0 4.85412 1.7745 4.85412 3.95612C4.85412 4.07429 4.86567 6.86362 5.14406 9.03432C5.22797 9.68158 5.24837 10.3348 5.20498 10.9856L5.1694 11.4959L3.72589 10.9856C3.69313 10.9774 3.65959 10.9724 3.62577 10.9705C3.59705 10.9625 3.56763 10.9569 3.53785 10.9538L3.52742 10.9558C3.48597 10.959 3.44507 10.9668 3.40555 10.979C3.3771 10.9833 3.34904 10.9896 3.32165 10.998C3.29232 11.0132 3.26454 11.0309 3.23866 11.0509C3.2084 11.0673 3.1799 11.0865 3.15357 11.1081C3.13516 11.1299 3.11865 11.153 3.10419 11.1773C3.07885 11.2073 3.0573 11.2401 3.03998 11.2749L3.03362 11.2845C3.02503 11.3442 3.01381 11.4035 3 11.4623V12.1782C3.00085 12.5093 3.10849 12.8323 3.30857 13.1042C3.50864 13.376 3.79164 13.5836 4.11981 13.6995L4.99436 14.0068L4.85833 15.9585C4.84677 16.045 4.59048 18.1014 7.28082 19.3883C8.1243 19.7905 9.05584 20 10.0005 20C10.9453 20 11.8768 19.7905 12.7203 19.3883C15.4085 18.1014 15.1532 16.0449 15.1448 15.9913L15.0067 14.0098L15.8833 13.7004C16.2106 13.5837 16.4927 13.3758 16.6921 13.1041C16.8916 12.8324 16.9989 12.5098 17 12.1791V11.4622C16.9967 11.4345 16.9908 11.4072 16.9825 11.3805V11.3805ZM4.4938 12.7461C4.37476 12.7038 4.27174 12.6289 4.19784 12.531C4.12393 12.4331 4.08247 12.3167 4.07873 12.1965L5.09554 12.5559L5.06816 12.948L4.4938 12.7461ZM12.2349 18.4807C11.542 18.8115 10.7767 18.9838 10.0005 18.9838C9.2243 18.9838 8.45895 18.8115 7.76609 18.4807C5.78276 17.5324 5.91933 16.1452 5.92878 16.0588L6.09482 13.6827C6.097 13.6653 6.0982 13.6478 6.09843 13.6302L6.27859 11.0521C6.32617 10.338 6.30366 9.62133 6.21136 8.91119C5.94136 6.80106 5.92983 3.98194 5.92983 3.95516C5.92983 2.33458 7.75559 1.01687 10.0005 1.01687C12.2444 1.01687 14.0701 2.33458 14.0701 3.95417C14.0701 3.98197 14.0586 6.80109 13.7886 8.91122C13.6956 9.62165 13.6735 10.3388 13.7224 11.0531L14.0743 16.0866C14.0806 16.1452 14.2172 17.5324 12.2349 18.4807V18.4807ZM15.5072 12.7471L14.9329 12.9499L14.9054 12.5556L15.9214 12.1965C15.9179 12.3167 15.8766 12.4333 15.8029 12.5313C15.7291 12.6294 15.6262 12.7045 15.5072 12.7471H15.5072Z" fill="#171723"/>
<path d="M7.9971 16.1972C7.91727 16.0997 7.79308 16.0319 7.65179 16.0087C7.5105 15.9856 7.36366 16.0089 7.24351 16.0736C7.12336 16.1383 7.03972 16.2391 7.01095 16.3538C6.98218 16.4686 7.01063 16.5879 7.09006 16.6856L8.0024 17.8022C8.08211 17.8999 8.20635 17.9679 8.34777 17.9912C8.48919 18.0145 8.63621 17.9912 8.75649 17.9264C8.87677 17.8617 8.96046 17.7607 8.98914 17.6458C9.01782 17.5309 8.98915 17.4115 8.90944 17.3138L7.9971 16.1972Z" fill="#171723"/>
<path d="M12.0027 16.1978L11.0905 17.314C11.0108 17.4117 10.9822 17.5311 11.0109 17.6459C11.0395 17.7608 11.1232 17.8617 11.2435 17.9264C11.3637 17.9912 11.5107 18.0145 11.6521 17.9912C11.7935 17.9679 11.9177 17.8999 11.9974 17.8022L12.9095 16.686C12.9489 16.6376 12.9763 16.5834 12.9899 16.5265C13.0036 16.4695 13.0033 16.4109 12.9891 16.3541C12.9749 16.2972 12.9471 16.2431 12.9072 16.195C12.8673 16.1469 12.8161 16.1056 12.7566 16.0736C12.697 16.0415 12.6303 16.0193 12.5602 16.0082C12.4901 15.9971 12.4179 15.9973 12.3479 16.0088C12.2779 16.0204 12.2114 16.043 12.1522 16.0754C12.0929 16.1078 12.0421 16.1494 12.0026 16.1978H12.0027Z" fill="#171723"/>
</g>
<defs>
<clipPath id="clip0_10314_145784">
<rect width="20" height="20" fill="white"/>
</clipPath>
</defs>
</svg>
