<svg width="20" height="20" viewBox="0 0 20 20" fill="none" xmlns="http://www.w3.org/2000/svg">
<g clip-path="url(#clip0_17693_32876)">
<path d="M18.464 8.13354H11.8595V1.53564C11.8595 0.689292 11.1707 0 10.3243 0H1.53646C0.689292 0 0 0.689292 0 1.53564V10.3231C0 11.1698 0.689292 11.8591 1.53646 11.8591H8.13354V18.4635C8.13354 19.3107 8.82283 20 9.67 20H18.4639C19.3111 20 20 19.3107 20 18.4635V9.66959C20 8.82283 19.3111 8.13354 18.464 8.13354ZM6.33219 2.02922C6.2736 1.88721 6.13444 1.79484 5.98063 1.79484H5.87931C5.7255 1.79484 5.58634 1.88721 5.52774 2.02922L2.3946 9.53573C2.34496 9.65332 2.39867 9.788 2.46907 9.89421C2.54028 10.0004 2.70018 10.0639 2.82755 10.0639C3.031 10.0639 3.21003 9.93856 3.26049 9.77905L4.21101 7.50081H7.64892L8.28287 9.02018C8.18968 9.21833 8.13353 9.43684 8.13353 9.66959V10.8423H1.53646C1.24553 10.8423 1.01684 10.614 1.01684 10.3231V1.53564C1.01684 1.24471 1.24552 1.01684 1.53646 1.01684H10.3243C10.6152 1.01684 10.8427 1.24471 10.8427 1.53564V8.13354H9.67C9.4108 8.13354 9.17033 8.20393 8.95589 8.31746L6.33219 2.02922ZM7.29126 6.63045H4.56624L5.92977 3.35897L7.29126 6.63045ZM18.9832 18.4635C18.9832 18.7496 18.7496 18.9832 18.4639 18.9832H9.67C9.38395 18.9832 9.15038 18.7496 9.15038 18.4635V11.3704C9.15079 11.3635 9.15445 11.3578 9.15445 11.3505C9.15445 11.3436 9.15079 11.3379 9.15038 11.331V9.66959C9.15038 9.38313 9.38394 9.15038 9.67 9.15038H11.3338C11.3399 9.15038 11.3452 9.15404 11.3513 9.15404C11.3574 9.15404 11.3623 9.15038 11.3684 9.15038H18.464C18.7496 9.15038 18.9832 9.38313 18.9832 9.66959L18.9832 18.4635Z" fill="#171723"/>
<path d="M17.7161 10.3646H10.4175C10.2067 10.3646 10.0362 10.5355 10.0362 10.7463C10.0362 10.957 10.2067 11.1279 10.4175 11.1279H16.495C16.2594 11.7041 15.7182 12.7844 14.5618 14.1992C14.3465 14.4621 14.1183 14.7266 13.8786 14.9915C13.6495 14.7099 13.4444 14.4104 13.2629 14.0934C12.7201 13.1457 12.6062 12.3877 12.6046 12.3755C12.5757 12.1672 12.3836 12.0215 12.1753 12.05C11.9662 12.0785 11.8201 12.2709 11.8486 12.4797C11.8534 12.5155 11.9747 13.3659 12.5806 14.4381C12.7706 14.7742 13.0233 15.1559 13.3549 15.5505C12.8723 16.0494 12.3486 16.5495 11.7867 17.0459C11.6288 17.1855 11.6142 17.4264 11.7533 17.5846C11.829 17.6697 11.934 17.7136 12.0398 17.7132C12.1293 17.7132 12.2197 17.6819 12.2921 17.6176C12.8577 17.1179 13.3862 16.6142 13.8749 16.1104C14.467 16.6886 15.2397 17.262 16.2443 17.7328C16.2968 17.7572 16.3517 17.769 16.4058 17.769C16.5495 17.769 16.6866 17.6876 16.7517 17.5492C16.8412 17.358 16.759 17.131 16.5678 17.0414C15.7243 16.6463 14.9984 16.1499 14.3949 15.5579C14.6619 15.2653 14.915 14.9731 15.1526 14.6822C16.5723 12.9456 17.1212 11.676 17.312 11.1279H17.7161C17.9268 11.1279 18.0977 10.957 18.0977 10.7463C18.0977 10.5355 17.9268 10.3646 17.7161 10.3646Z" fill="#171723"/>
<path d="M14.8124 4.93653C14.8938 5.01587 14.9988 5.05575 15.1042 5.05575C15.2124 5.05575 15.3202 5.01384 15.4016 4.93083C15.5627 4.76644 15.5603 4.50278 15.3959 4.34164L14.6895 3.64828H17.2872C17.4377 3.64828 17.5602 3.77076 17.5602 3.92132V6.49374C17.5602 6.72405 17.7466 6.91041 17.9769 6.91041C18.2068 6.91041 18.3935 6.72405 18.3935 6.49374V3.92132C18.3935 3.31138 17.8971 2.81495 17.2872 2.81495H14.6317L15.3784 2.01946C15.5359 1.85141 15.5273 1.58773 15.3593 1.43027C15.1916 1.2728 14.928 1.28134 14.7705 1.44939L13.5616 2.73764C13.3 3.01678 13.3093 3.46152 13.5824 3.72967L14.8124 4.93653Z" fill="#171723"/>
<path d="M4.97355 15.1213C4.89217 15.0419 4.78719 15.002 4.68221 15.002C4.57397 15.002 4.46573 15.0439 4.38436 15.127C4.22322 15.2913 4.22567 15.555 4.39006 15.7161L5.09644 16.4095H2.49878C2.34823 16.4095 2.22616 16.287 2.22616 16.1365V13.564C2.22616 13.3337 2.0398 13.1474 1.80949 13.1474C1.57918 13.1474 1.39282 13.3337 1.39282 13.564V16.1365C1.39282 16.7464 1.88924 17.2428 2.49878 17.2428H5.15422L4.40796 18.0383C4.25008 18.2064 4.25903 18.4701 4.42667 18.6275C4.59432 18.785 4.85799 18.7764 5.01587 18.6084L6.22437 17.3201C6.48641 17.041 6.47664 16.5963 6.20402 16.3281L4.97355 15.1213Z" fill="#171723"/>
</g>
<defs>
<clipPath id="clip0_17693_32876">
<rect width="20" height="20" fill="white"/>
</clipPath>
</defs>
</svg>
