<svg width="20" height="20" viewBox="0 0 20 20" fill="none" xmlns="http://www.w3.org/2000/svg">
<g clip-path="url(#clip0_10317_147043)">
<path d="M7.93578 19.9999C7.79437 20.0016 7.65416 19.9737 7.52404 19.918C7.29428 19.8171 7.10683 19.6386 6.99413 19.4133C6.88144 19.1881 6.85059 18.9303 6.90693 18.6845L8.62399 11.7392H4.05935C3.88646 11.7394 3.71619 11.6967 3.5636 11.615C3.41101 11.5332 3.28081 11.4149 3.18452 11.2705C3.08527 11.1264 3.02374 10.9596 3.00562 10.7853C2.9875 10.611 3.01337 10.4349 3.08085 10.2734L6.76376 0.681356C6.84307 0.482425 6.97916 0.311566 7.15488 0.190324C7.33059 0.0690814 7.53807 0.00288476 7.75114 8.10747e-05H13.4374C13.6146 -0.00212932 13.7894 0.0408906 13.9455 0.125117C14.1017 0.209343 14.234 0.332024 14.3302 0.481684C14.4263 0.631344 14.4832 0.803093 14.4954 0.980868C14.5077 1.15864 14.4749 1.33663 14.4001 1.49819L12.533 5.77853H15.9404C16.1271 5.77964 16.3104 5.82963 16.4721 5.92357C16.6338 6.01751 16.7684 6.15218 16.8626 6.31431C16.9576 6.48341 17.005 6.67537 16.9996 6.86952C16.9942 7.06368 16.9363 7.25268 16.832 7.41618L16.8271 7.42312L8.8214 19.5187C8.72569 19.6671 8.59443 19.789 8.43968 19.8731C8.28493 19.9572 8.11166 20.0008 7.93578 19.9999ZM7.75114 1.01703L4.0159 10.6612L9.27071 10.7223C9.34746 10.7223 9.42319 10.7399 9.49216 10.7738C9.56113 10.8077 9.62155 10.8568 9.66883 10.9177C9.71611 10.9785 9.74902 11.0493 9.76506 11.1248C9.78111 11.2003 9.77987 11.2784 9.76144 11.3534L7.89041 18.9224L15.9829 6.86449C15.9879 6.85812 15.9908 6.85033 15.9911 6.84222C15.9915 6.83411 15.9893 6.82609 15.9849 6.8193L11.7589 6.79547C11.6748 6.79553 11.5921 6.7745 11.5181 6.73427C11.4441 6.69404 11.3813 6.6359 11.3354 6.56509C11.2894 6.49429 11.2617 6.41307 11.2548 6.32879C11.2479 6.24451 11.262 6.15983 11.2958 6.08242L13.4799 1.07711L7.75114 1.01703Z" fill="#171723"/>
</g>
<defs>
<clipPath id="clip0_10317_147043">
<rect width="20" height="20" fill="white"/>
</clipPath>
</defs>
</svg>
