<svg width="20" height="20" viewBox="0 0 20 20" fill="none" xmlns="http://www.w3.org/2000/svg">
<path d="M16.8631 6.31432C16.7688 6.15218 16.6342 6.01752 16.4725 5.92358C16.3108 5.82963 16.1276 5.77965 15.9409 5.77854H12.5333L14.4005 1.49819C14.4753 1.33664 14.5081 1.15864 14.4958 0.980861C14.4836 0.803081 14.4268 0.631325 14.3306 0.481661C14.2344 0.331996 14.102 0.209314 13.9459 0.125092C13.7898 0.0408691 13.6149 -0.00214206 13.4378 8.20772e-05H7.7513C7.53822 0.00288991 7.33074 0.0690898 7.15503 0.190334C6.97931 0.311578 6.84322 0.482438 6.76392 0.681368L3.08085 10.2734C3.01337 10.4349 2.9875 10.611 3.00562 10.7853C3.02374 10.9596 3.08528 11.1264 3.18453 11.2705C3.28082 11.4149 3.41102 11.5332 3.56361 11.615C3.7162 11.6967 3.88648 11.7394 4.05937 11.7392H8.62416L6.90706 18.6846C6.85065 18.9297 6.88115 19.187 6.99329 19.4119C7.10543 19.6369 7.29217 19.8154 7.52124 19.9165C7.65212 19.9733 7.79343 20.0017 7.93595 19.9999C8.11185 20.0008 8.28514 19.9572 8.43991 19.8731C8.59468 19.789 8.72596 19.6672 8.82168 19.5188L16.8266 7.42315L16.8306 7.41819C16.9354 7.2546 16.9938 7.06533 16.9995 6.87081C17.0053 6.67628 16.9581 6.48387 16.8631 6.31432Z" fill="#171723"/>
</svg>
