<svg width="20" height="20" viewBox="0 0 20 20" fill="none" xmlns="http://www.w3.org/2000/svg">
<path fill-rule="evenodd" clip-rule="evenodd" d="M16.2752 6.22472C16.3925 6.34193 16.4583 6.50091 16.4583 6.66667C16.4583 6.33316 16.1971 6.06066 15.8681 6.04262C16.0266 6.05137 16.1698 6.11955 16.2752 6.22472Z" fill="#171723"/>
<path fill-rule="evenodd" clip-rule="evenodd" d="M11.4688 6.86453C11.7423 7.13802 12.1132 7.29167 12.5 7.29167H15.2083V10C15.2083 10.3452 15.4881 10.625 15.8333 10.625C16.1785 10.625 16.4583 10.3452 16.4583 10V6.66667C16.4583 6.50091 16.3925 6.34193 16.2752 6.22472L12.1086 2.05806C11.9914 1.94085 11.8324 1.875 11.6666 1.875H5.83331C5.22552 1.875 4.64263 2.11644 4.21285 2.54621C3.78308 2.97598 3.54164 3.55888 3.54164 4.16667V10C3.54164 10.3452 3.82146 10.625 4.16664 10.625C4.51182 10.625 4.79164 10.3452 4.79164 10V4.16667C4.79164 3.8904 4.90139 3.62545 5.09674 3.4301C5.29209 3.23475 5.55704 3.125 5.83331 3.125H11.0416V5.83333C11.0416 6.22011 11.1953 6.59104 11.4688 6.86453ZM12.2916 5.83333C12.2916 5.88859 12.3136 5.94158 12.3527 5.98065C12.3917 6.01972 12.4447 6.04167 12.5 6.04167H14.3244L12.2916 4.00888V5.83333Z" fill="#171723"/>
<path d="M3.75 11.875C3.40482 11.875 3.125 12.1549 3.125 12.5C3.125 12.8452 3.40482 13.125 3.75 13.125H4.375V17.5C4.375 17.8452 4.65482 18.125 5 18.125C5.34518 18.125 5.625 17.8452 5.625 17.5V13.125H6.25C6.59518 13.125 6.875 12.8452 6.875 12.5C6.875 12.1549 6.59518 11.875 6.25 11.875H3.75Z" fill="#171723"/>
<path d="M8.85336 12.1533C8.66189 11.8661 8.27385 11.7885 7.98665 11.98C7.69944 12.1715 7.62183 12.5595 7.8133 12.8467L9.24884 15L7.8133 17.1533C7.62183 17.4405 7.69944 17.8286 7.98665 18.0201C8.27385 18.2115 8.66189 18.1339 8.85336 17.8467L10 16.1268L11.1466 17.8467C11.3381 18.1339 11.7261 18.2115 12.0134 18.0201C12.3006 17.8286 12.3782 17.4405 12.1867 17.1533L10.7512 15L12.1867 12.8467C12.3782 12.5595 12.3006 12.1715 12.0134 11.98C11.7261 11.7885 11.3381 11.8661 11.1466 12.1533L10 13.8733L8.85336 12.1533Z" fill="#171723"/>
<path d="M13.75 11.875C13.4048 11.875 13.125 12.1549 13.125 12.5C13.125 12.8452 13.4048 13.125 13.75 13.125H14.375V17.5C14.375 17.8452 14.6548 18.125 15 18.125C15.3452 18.125 15.625 17.8452 15.625 17.5V13.125H16.25C16.5952 13.125 16.875 12.8452 16.875 12.5C16.875 12.1549 16.5952 11.875 16.25 11.875H13.75Z" fill="#171723"/>
</svg>
