<svg width="20" height="22" viewBox="0 0 20 22" fill="none" xmlns="http://www.w3.org/2000/svg">
<path d="M18.9345 1.77445L19.849 0.87087C20.0487 0.673161 20.0507 0.351276 19.853 0.151085C19.6563 -0.0481094 19.3344 -0.0510902 19.1337 0.146619L18.2132 1.05616C17.9653 0.910119 17.6881 0.807785 17.3851 0.774498L10.5211 0.0129918C9.88029 -0.0555563 9.27226 0.160526 8.8242 0.608591L0.609008 8.82377C0.216581 9.2157 0 9.73729 0 10.2922C0 10.8465 0.216581 11.3681 0.609008 11.76L6.25304 17.4041C6.60225 19.9737 8.78843 21.9731 11.4569 21.9731C14.3679 21.9731 16.7329 19.6022 16.7329 16.6977C16.7329 15.8661 16.5228 15.0897 16.179 14.3898L19.392 11.1774C19.84 10.7283 20.0566 10.1094 19.9871 9.47849L19.2201 2.60701C19.1858 2.30201 19.0825 2.02282 18.9345 1.77445ZM13.3252 18.1248C13.4434 18.2431 13.4434 18.4418 13.3252 18.566C13.2631 18.6216 13.1827 18.6524 13.1022 18.6524C13.0277 18.6524 12.9467 18.6216 12.8846 18.566L11.457 17.1383L10.0298 18.566C9.96771 18.6216 9.88675 18.6524 9.80626 18.6524C9.73176 18.6524 9.65079 18.6216 9.58919 18.566C9.465 18.4418 9.465 18.2431 9.58919 18.1248L11.0163 16.6977L9.58919 15.2636C9.465 15.1459 9.465 14.9472 9.58919 14.8294C9.71287 14.7052 9.90562 14.7052 10.0298 14.8294L11.457 16.2571L12.8846 14.8294C13.0088 14.7052 13.201 14.7052 13.3252 14.8294C13.4434 14.9472 13.4434 15.1459 13.3252 15.2636L11.8981 16.6977L13.3252 18.1248ZM18.6727 10.4581L15.6276 13.5031C14.6853 12.2752 13.2289 11.4699 11.5722 11.4337L7.36775 7.22872C7.16905 7.03003 6.84716 7.03003 6.64846 7.22872C6.44977 7.42742 6.44977 7.74931 6.64846 7.94801L10.2687 11.5683C9.63489 11.7153 9.04079 11.9662 8.51722 12.3189L5.39765 9.1993C5.19895 9.0006 4.87706 9.0006 4.67836 9.1993C4.47967 9.398 4.47967 9.71989 4.67836 9.91859L7.72789 12.9681C6.93657 13.7589 6.41797 14.8066 6.25504 15.968L1.32829 11.0407C1.12761 10.8406 1.01734 10.5743 1.01734 10.2922C1.01734 10.0095 1.12762 9.74325 1.32829 9.54306L9.54349 1.32788C9.74418 1.12719 10.0104 1.01741 10.2896 1.01741C10.3293 1.01741 10.3691 1.01989 10.4088 1.02437L17.2739 1.78588C17.3295 1.79184 17.3772 1.81619 17.4293 1.8301L15.6341 3.60348C14.7196 3.05407 13.4564 3.15889 12.6829 3.93332C11.751 4.8667 11.751 6.38426 12.6829 7.31765C13.135 7.76969 13.736 8.01855 14.3748 8.01855C15.0147 8.01855 15.6147 7.76968 16.0668 7.31765C16.8839 6.5 16.9852 5.23479 16.3713 4.30587L18.1576 2.54193C18.175 2.60104 18.2018 2.65667 18.2087 2.72025L18.9757 9.59125C19.0115 9.91314 18.9012 10.2296 18.6727 10.4581ZM13.8533 6.07826C13.9526 6.1786 14.0838 6.22927 14.2149 6.22927C14.3441 6.22927 14.4732 6.18059 14.5726 6.08273L15.6142 5.05397C15.8477 5.56214 15.7657 6.18009 15.3475 6.59836C14.8289 7.11795 13.9228 7.11795 13.4022 6.59836C12.8667 6.06188 12.8667 5.1891 13.4022 4.6526C13.6625 4.39281 14.0073 4.24974 14.3748 4.24974C14.5507 4.24974 14.7206 4.28649 14.879 4.34909L13.8572 5.35848C13.6576 5.55619 13.6556 5.87807 13.8533 6.07826Z" fill="#171723"/>
</svg>
