<svg width="20" height="20" viewBox="0 0 20 20" fill="none" xmlns="http://www.w3.org/2000/svg">
<path d="M6.00167 15.4167V14.1667H11.9823C12.852 14.1667 13.6004 13.8795 14.2275 13.3052C14.8547 12.731 15.1683 12.0219 15.1683 11.1779C15.1683 10.3339 14.8547 9.62604 14.2275 9.05437C13.6004 8.48285 12.852 8.19708 11.9823 8.19708H6.13146L8.45021 10.516L7.57208 11.3942L3.75 7.57208L7.57208 3.75L8.45021 4.62813L6.13146 6.94708H11.9823C13.2013 6.94708 14.2454 7.35389 15.1146 8.1675C15.9838 8.98111 16.4183 9.98458 16.4183 11.1779C16.4183 12.3713 15.9838 13.376 15.1146 14.1923C14.2454 15.0085 13.2013 15.4167 11.9823 15.4167H6.00167Z" fill="#171723"/>
</svg>
