<svg width="24" height="24" viewBox="0 0 24 24" fill="none" xmlns="http://www.w3.org/2000/svg">
<g clip-path="url(#clip0_10317_147258)">
<path d="M20.6744 2.53632H3.32512C1.54129 2.53632 0.0952148 3.98239 0.0952148 5.76622V18.2339C0.0952148 20.0177 1.54129 21.4638 3.32512 21.4638H20.6744C22.4582 21.4638 23.9043 20.0177 23.9043 18.2339V5.76622C23.9043 3.98239 22.4582 2.53632 20.6744 2.53632Z" fill="white"/>
<path d="M20.6743 21.5599H3.32572C2.44402 21.5588 1.59875 21.2081 0.975297 20.5846C0.351841 19.9612 0.00110031 19.1159 0 18.2342V5.76585C0.00110031 4.88415 0.351841 4.03888 0.975297 3.41542C1.59875 2.79197 2.44402 2.44122 3.32572 2.44012H20.6743C21.556 2.44122 22.4013 2.79197 23.0247 3.41542C23.6482 4.03888 23.9989 4.88415 24 5.76585V18.2342C23.9989 19.1159 23.6482 19.9612 23.0247 20.5846C22.4013 21.2081 21.556 21.5588 20.6743 21.5599ZM3.32572 2.63194C2.4949 2.63303 1.69843 2.96356 1.11095 3.55104C0.523472 4.13851 0.192948 4.93499 0.191858 5.76581V18.2342C0.192948 19.065 0.523472 19.8615 1.11095 20.4489C1.69843 21.0364 2.4949 21.3669 3.32572 21.368H20.6743C21.5051 21.3669 22.3016 21.0364 22.8891 20.4489C23.4765 19.8615 23.8071 19.065 23.8082 18.2342V5.76585C23.8071 4.93503 23.4765 4.13855 22.8891 3.55107C22.3016 2.9636 21.5051 2.63307 20.6743 2.63198L3.32572 2.63194Z" fill="#E4E4E4"/>
<path d="M10.0451 13.6114H10.1327C10.1672 13.6157 10.2023 13.6097 10.2334 13.5942C10.2646 13.5786 10.2904 13.5542 10.3077 13.5239L10.5702 13.1447H11.2412L11.0954 13.3781H11.9122L11.7955 13.7573H10.8327C10.7937 13.8309 10.7346 13.8918 10.6623 13.9331C10.59 13.9744 10.5075 13.9944 10.4243 13.9907H9.92843L10.0451 13.6114ZM9.92843 14.1366H11.6789L11.5621 14.545H10.862L10.7453 14.9534H11.4455L11.3288 15.3618H10.6285L10.4535 15.9453C10.4243 16.0328 10.4535 16.0912 10.5994 16.062H11.1537L11.037 16.4412H9.95756C9.75332 16.4412 9.69499 16.3246 9.75332 16.0912L9.95756 15.3327H9.52002L9.6367 14.9242H10.0743L10.191 14.5158H9.78258L9.92843 14.1366ZM12.7583 13.1447L12.7291 13.3781C12.9128 13.2299 13.1359 13.1386 13.3709 13.1155H14.4795L14.0419 14.6909C14.0127 14.8659 13.8668 14.9534 13.5751 14.9534H12.3206L12.0289 16.0328C11.9997 16.0912 12.0289 16.1204 12.0872 16.1204H12.3498L12.2623 16.4412H11.6205C11.3871 16.4412 11.2704 16.3829 11.3287 16.2078L12.1748 13.1154H12.7582L12.7583 13.1447ZM13.6918 13.5823H12.6999L12.5832 13.9907C12.7159 13.9129 12.8671 13.8726 13.0208 13.874H13.6043L13.6918 13.5823ZM13.3417 14.545C13.4292 14.545 13.4584 14.5158 13.4584 14.4574L13.5168 14.224H12.5249L12.4373 14.5449L13.3417 14.545ZM12.6707 15.0409H13.2542V15.3035H13.4001C13.4876 15.3035 13.5168 15.2743 13.5168 15.216L13.5751 15.0409H14.0419L13.9835 15.2744C13.956 15.3685 13.8982 15.451 13.8191 15.509C13.74 15.567 13.644 15.5973 13.5459 15.5953H13.225V16.0329C13.225 16.0912 13.2834 16.1496 13.4001 16.1496H13.6918L13.6043 16.4997H12.9041C12.6999 16.4997 12.6124 16.4121 12.6124 16.2079L12.6707 15.0409Z" fill="#009DA5"/>
<path d="M10.7167 13.9032L10.8334 13.7865H11.7961L11.9128 13.4072H11.0959L11.2418 13.1738H10.5709L10.3083 13.5239C10.2911 13.5542 10.2652 13.5786 10.2341 13.5942C10.2029 13.6098 10.1678 13.6158 10.1333 13.6114H10.0458L10.0166 13.699C10.2499 13.7573 10.4833 13.8448 10.7167 13.9032Z" fill="#02CCCC"/>
<path d="M12.729 13.3781L12.7582 13.1447H12.1747L11.9121 14.0783C12.058 14.0783 12.233 14.1074 12.3789 14.1074C13.0203 14.1102 13.6587 14.0218 14.2752 13.8449L14.4794 13.1447H13.3709C13.1398 13.1633 12.918 13.244 12.729 13.3781ZM13.6042 13.8741H13.0207C12.8662 13.8658 12.713 13.9067 12.5831 13.9908L12.6998 13.5823H13.6917L13.6042 13.8741Z" fill="#02CCCC"/>
<path d="M15.092 13.6116L15.2379 13.1448H15.9089L15.8797 13.3198C16.0622 13.2272 16.2598 13.1679 16.4632 13.1448H17.3092L17.1633 13.6116H17.0466L16.4048 15.8287H16.5215L16.4048 16.2663H16.259L16.2006 16.4705H15.5588L15.6172 16.2663H14.3335L14.4502 15.8287H14.5669L15.2087 13.6116H15.092ZM15.8214 13.6116L15.6463 14.2242C15.8249 14.1546 16.0109 14.1057 16.2006 14.0783C16.259 13.8741 16.3173 13.6115 16.3173 13.6115L15.8214 13.6116ZM15.5879 14.5159L15.4129 15.1578C15.59 15.0774 15.7761 15.0186 15.9672 14.9827L16.0839 14.5159H15.5879ZM15.7046 15.8287L15.8213 15.362H15.3254L15.2087 15.8287H15.7046ZM17.3384 13.1156H17.9802L18.0094 13.349C18.0094 13.4074 18.0385 13.4365 18.126 13.4365H18.2428L18.126 13.8449H17.6592C17.4842 13.8449 17.3966 13.7866 17.3675 13.6407L17.3384 13.1156ZM17.1633 13.9908H19.2054L19.0888 14.3992H18.447L18.3303 14.8077H18.9721L18.8554 15.2453H18.1261L17.951 15.5078H18.3011L18.3887 16.0038C18.3887 16.0621 18.447 16.0913 18.5053 16.0913H18.622L18.5053 16.4997H18.126C17.9218 16.4997 17.8052 16.4414 17.8052 16.2955L17.7176 15.8287L17.3967 16.3247C17.3635 16.3882 17.313 16.4411 17.2511 16.4772C17.1891 16.5133 17.1183 16.5312 17.0466 16.5289H16.434L16.5507 16.1205H16.7257C16.7673 16.1223 16.8086 16.1123 16.8447 16.0916C16.8809 16.071 16.9104 16.0405 16.9299 16.0037L17.4259 15.2744H16.784L16.9008 14.8368H17.6009L17.7176 14.4284H17.0174L17.1633 13.9908Z" fill="#009DA5"/>
<path d="M15.9093 13.1738H15.2383L15.1216 13.5531C15.3841 13.4364 15.6467 13.3197 15.9093 13.1738Z" fill="#02CCCC"/>
<path d="M5.66925 11.0734C5.60284 11.418 5.41685 11.7279 5.14412 11.9487C4.82726 12.167 4.44937 12.2793 4.06469 12.2695C3.89985 12.283 3.73403 12.2613 3.57816 12.206C3.42228 12.1507 3.2799 12.063 3.16038 11.9487C3.08908 11.87 3.03427 11.7778 2.9992 11.6776C2.96412 11.5774 2.94949 11.4711 2.95616 11.3652C2.95262 11.2574 2.96242 11.1496 2.98533 11.0443L3.45216 8.79791H4.15231L3.68546 11.0151C3.68546 11.0734 3.65628 11.1318 3.65628 11.1901C3.65246 11.255 3.66292 11.3198 3.68691 11.3802C3.71091 11.4406 3.74786 11.4949 3.79515 11.5394C3.84244 11.584 3.89893 11.6176 3.96063 11.6379C4.02233 11.6582 4.08773 11.6647 4.15222 11.6569C4.33788 11.6617 4.52073 11.6109 4.67735 11.5111C4.75011 11.4548 4.81084 11.3845 4.85595 11.3043C4.90105 11.2241 4.9296 11.1357 4.93992 11.0442L5.40675 8.82706H6.16524L5.66925 11.0734Z" fill="#FF7F29"/>
<path d="M5.66925 11.0734C5.60284 11.418 5.41685 11.7279 5.14412 11.9487C4.82726 12.167 4.44937 12.2793 4.06469 12.2695C3.89985 12.283 3.73403 12.2613 3.57816 12.206C3.42228 12.1507 3.2799 12.063 3.16038 11.9487C3.08908 11.87 3.03427 11.7778 2.9992 11.6776C2.96412 11.5774 2.94949 11.4711 2.95616 11.3652C2.95262 11.2574 2.96242 11.1496 2.98533 11.0443L4.00642 8.79791H4.15226L3.68546 11.0151C3.68546 11.0734 3.65628 11.1318 3.65628 11.1901C3.65246 11.255 3.66292 11.3198 3.68691 11.3802C3.71091 11.4406 3.74786 11.4949 3.79515 11.5394C3.84244 11.584 3.89893 11.6176 3.96063 11.6379C4.02233 11.6582 4.08773 11.6647 4.15222 11.6569C4.33788 11.6617 4.52073 11.6109 4.67735 11.5111C4.75011 11.4548 4.81084 11.3845 4.85595 11.3043C4.90105 11.2241 4.9296 11.1357 4.93992 11.0442L5.96097 8.82706H6.16517L5.66925 11.0734Z" fill="#EA2227"/>
<path d="M6.34044 10.1982H6.8364L6.77804 10.4899L6.8364 10.4024C6.90946 10.3197 6.99927 10.2536 7.09987 10.2083C7.20046 10.163 7.30954 10.1397 7.41985 10.1398C7.50556 10.1349 7.59136 10.1479 7.67174 10.178C7.75212 10.2082 7.82531 10.2548 7.88662 10.3149C7.97936 10.4624 8.01077 10.6404 7.97414 10.8108L7.71158 12.1819H7.18649L7.41991 10.9275C7.43853 10.88 7.44559 10.8288 7.44052 10.7781C7.43545 10.7274 7.41839 10.6786 7.39075 10.6358C7.36158 10.5774 7.27407 10.5482 7.15733 10.5482C7.09854 10.5427 7.03925 10.5503 6.98375 10.5705C6.92825 10.5907 6.87793 10.6229 6.83643 10.665C6.74432 10.7615 6.68334 10.8834 6.6614 11.015L6.42799 12.1819H5.90283L6.34044 10.1982Z" fill="#EA2227"/>
<path d="M12.0584 10.1982H12.5543L12.496 10.4899L12.5543 10.4024C12.6274 10.3197 12.7172 10.2536 12.8178 10.2083C12.9184 10.163 13.0275 10.1397 13.1378 10.1398C13.2235 10.1349 13.3093 10.1479 13.3897 10.178C13.47 10.2082 13.5432 10.2548 13.6045 10.3149C13.6973 10.4624 13.7287 10.6404 13.6921 10.8108L13.4295 12.1819H12.9044L13.1669 10.9275C13.1856 10.88 13.1926 10.8288 13.1875 10.7781C13.1825 10.7274 13.1654 10.6786 13.1378 10.6358C13.1086 10.5774 13.0211 10.5482 12.9044 10.5482C12.8456 10.5427 12.7863 10.5503 12.7308 10.5705C12.6753 10.5907 12.625 10.6229 12.5835 10.665C12.4914 10.7614 12.4304 10.8834 12.4084 11.015L12.175 12.1819H11.6499L12.0584 10.1982Z" fill="#A5002F"/>
<path d="M8.64465 10.1981H9.19894L8.76133 12.2111H8.20703L8.64465 10.1981ZM8.81965 9.46881H9.37397L9.25725 9.96473H8.70297L8.81965 9.46881Z" fill="#EA2227"/>
<path d="M9.69555 12.0653C9.62457 11.9924 9.56972 11.9054 9.53453 11.8099C9.49935 11.7144 9.48463 11.6126 9.49132 11.511V11.3651C9.4868 11.3147 9.49694 11.2641 9.52051 11.2193C9.57197 10.9208 9.71465 10.6456 9.92892 10.4316C10.0333 10.3317 10.157 10.2542 10.2925 10.204C10.428 10.1538 10.5723 10.132 10.7166 10.1398C10.823 10.1279 10.9306 10.14 11.0316 10.1754C11.1326 10.2107 11.2244 10.2684 11.3001 10.3441C11.3757 10.4197 11.4334 10.5115 11.4687 10.6125C11.5041 10.7135 11.5163 10.8212 11.5043 10.9275V11.0734C11.5088 11.1238 11.4987 11.1745 11.4751 11.2193C11.4302 11.5115 11.286 11.7794 11.0667 11.9778C10.8485 12.1679 10.5684 12.2717 10.279 12.2695C10.0671 12.2692 9.86144 12.1972 9.69555 12.0653ZM10.7458 11.6569C10.8535 11.5218 10.9239 11.3609 10.95 11.1901C10.9487 11.1493 10.9588 11.1089 10.9792 11.0734V10.9859C10.9861 10.8813 10.955 10.7777 10.8917 10.6941C10.8579 10.6581 10.8173 10.6293 10.7722 10.6093C10.7271 10.5892 10.6784 10.5784 10.6291 10.5774C10.5567 10.5754 10.4848 10.5902 10.419 10.6206C10.3532 10.6509 10.2953 10.6961 10.2498 10.7525C10.137 10.8956 10.0662 11.0673 10.0456 11.2485C10.0476 11.2643 10.046 11.2804 10.0409 11.2955C10.0359 11.3107 10.0275 11.3245 10.0164 11.336V11.4235C10.0096 11.5281 10.0406 11.6317 10.104 11.7152C10.1397 11.7466 10.1813 11.7705 10.2264 11.7855C10.2715 11.8005 10.3191 11.8064 10.3665 11.8028C10.4369 11.8128 10.5088 11.8047 10.5752 11.7792C10.6415 11.7537 10.7003 11.7116 10.7458 11.6569L10.7458 11.6569Z" fill="#EA2227"/>
<path d="M14.5383 8.94371H15.997C16.2247 8.92639 16.4514 8.98822 16.6388 9.11875C16.7187 9.18613 16.7815 9.27149 16.8221 9.36784C16.8627 9.46418 16.8798 9.56877 16.8722 9.67303V9.81889C16.8722 9.87724 16.843 9.93557 16.843 9.99392C16.7928 10.291 16.6375 10.5602 16.4054 10.7524C16.1735 10.9384 15.8858 11.0412 15.5886 11.0442H14.8009L14.5675 12.2111H13.8965L14.5383 8.94371ZM14.8884 10.4607H15.5302C15.6758 10.4714 15.8205 10.43 15.9386 10.3441C16.0297 10.2424 16.0991 10.1233 16.1428 9.99396V9.84808C16.1484 9.7979 16.1406 9.74712 16.1201 9.70098C16.0996 9.65484 16.0671 9.61499 16.0261 9.58552C15.9113 9.51901 15.7792 9.48852 15.6469 9.498H15.0926L14.8884 10.4607Z" fill="#1398E2"/>
<path d="M15.0924 8.94371H15.9676C16.1953 8.9264 16.422 8.98822 16.6094 9.11875C16.6893 9.18613 16.7522 9.27149 16.7927 9.36784C16.8333 9.46418 16.8505 9.56877 16.8428 9.67303V9.81888C16.8428 9.87724 16.8137 9.93557 16.8137 9.99392C16.7634 10.291 16.6081 10.5602 16.3761 10.7524C16.1441 10.9384 15.8565 11.0412 15.5592 11.0442H14.7715L14.5381 12.2111H13.8672L15.0924 8.94371ZM14.8882 10.4607H15.53C15.6757 10.4714 15.8204 10.43 15.9384 10.3441C16.0295 10.2424 16.099 10.1233 16.1426 9.99396V9.84808C16.1482 9.7979 16.1404 9.74713 16.1199 9.70099C16.0994 9.65484 16.067 9.61499 16.026 9.58552C15.9112 9.51901 15.779 9.48852 15.6467 9.498H15.0924L14.8882 10.4607Z" fill="#0872B9"/>
<path d="M19.8473 12.5904C19.7239 12.9014 19.546 13.1879 19.3222 13.4365C19.2097 13.5715 19.0657 13.6767 18.9028 13.7428C18.74 13.809 18.5635 13.834 18.3887 13.8157L18.447 13.4657C18.9138 13.3198 19.1764 12.6488 19.3222 12.3571L19.1472 10.1982H19.8473L19.8765 11.5694L20.46 10.1982H21.0434L19.8473 12.5904Z" fill="#055093"/>
<path d="M18.2143 10.3441L17.9808 10.5191C17.8672 10.3976 17.7147 10.3195 17.5497 10.2982C17.3846 10.2769 17.2173 10.3137 17.0765 10.4024C16.4931 10.665 15.9971 12.7654 17.6017 12.0653L17.6892 12.182L18.331 12.2111L18.7394 10.3149L18.2143 10.3441ZM17.835 11.3943C17.7183 11.686 17.5141 11.8903 17.339 11.8319C17.164 11.7735 17.1056 11.4818 17.1932 11.1901C17.3099 10.8984 17.5141 10.6941 17.6891 10.7525C17.8933 10.8108 17.9517 11.1026 17.835 11.3943Z" fill="#0872B9"/>
<path d="M17.1636 12.2111C17.2803 12.1819 17.4261 12.1527 17.6012 12.0944L17.6887 12.2111L18.3305 12.2403L18.7389 10.344H18.5931C18.2817 11.077 17.7899 11.7193 17.1636 12.2111Z" fill="#055093"/>
<path d="M11.2996 10.3441C11.221 10.2728 11.1288 10.218 11.0286 10.1829C10.9284 10.1478 10.8221 10.1332 10.7162 10.1399H10.5703C10.5048 10.3201 10.4268 10.4956 10.3369 10.665C10.4224 10.6058 10.5245 10.5751 10.6286 10.5775C10.6788 10.5719 10.7295 10.5797 10.7757 10.6002C10.8218 10.6207 10.8617 10.6532 10.8912 10.6942C10.9545 10.7777 10.9856 10.8813 10.9787 10.9859V11.0734C10.98 11.1143 10.9699 11.1547 10.9495 11.1901C10.9296 11.3626 10.8584 11.5252 10.7453 11.6569C10.698 11.7094 10.6391 11.75 10.5731 11.7753C10.5072 11.8007 10.4363 11.8101 10.366 11.8028C10.3186 11.8064 10.271 11.8006 10.2259 11.7855C10.1808 11.7705 10.1392 11.7466 10.1035 11.7153C10.0401 11.6317 10.0091 11.5281 10.0159 11.4235V11.336C10.014 11.3202 10.0156 11.3041 10.0206 11.2889C10.0257 11.2738 10.0341 11.26 10.0451 11.2485C10.0451 11.1901 10.0743 11.161 10.0743 11.1318C9.9146 11.375 9.72873 11.6 9.52002 11.8028C9.54927 11.9147 9.61002 12.016 9.69505 12.0945C9.77373 12.1658 9.86589 12.2206 9.96611 12.2557C10.0663 12.2908 10.1725 12.3054 10.2785 12.2987C10.5685 12.3043 10.8498 12.2001 11.0662 12.007C11.2855 11.8086 11.4297 11.5408 11.4746 11.2485C11.4746 11.1901 11.5038 11.161 11.5038 11.1026V10.9567C11.5155 10.8459 11.5033 10.734 11.4681 10.6283C11.4329 10.5226 11.3754 10.4257 11.2996 10.3441Z" fill="#A5002F"/>
</g>
<defs>
<clipPath id="clip0_10317_147258">
<rect width="24" height="24" fill="white"/>
</clipPath>
</defs>
</svg>
