<svg width="20" height="21" viewBox="0 0 20 21" fill="none" xmlns="http://www.w3.org/2000/svg">
<g clip-path="url(#clip0_10314_145361)">
<path d="M19.4913 20H7.2833C7.21649 20 7.15032 19.9869 7.08859 19.9614C7.02686 19.9358 6.97077 19.8984 6.92353 19.8512C6.87628 19.804 6.83882 19.7479 6.81327 19.6862C6.78772 19.6245 6.77459 19.5584 6.77463 19.4916V13.2182H0.508668C0.441858 13.2182 0.375696 13.2051 0.313964 13.1795C0.252232 13.154 0.196141 13.1166 0.148899 13.0693C0.101657 13.0221 0.0641905 12.9661 0.0386413 12.9044C0.013092 12.8427 -3.8698e-05 12.7765 8.56645e-08 12.7098V0.508391C-3.8698e-05 0.441617 0.013092 0.37549 0.0386413 0.313792C0.0641905 0.252094 0.101657 0.196034 0.148899 0.148818C0.196141 0.101602 0.252232 0.0641555 0.313964 0.0386202C0.375696 0.0130849 0.441858 -3.86769e-05 0.508668 8.56177e-08H12.7167C12.7835 -3.86769e-05 12.8497 0.0130849 12.9114 0.0386202C12.9731 0.0641555 13.0292 0.101602 13.0765 0.148818C13.1237 0.196034 13.1612 0.252094 13.1867 0.313792C13.2123 0.37549 13.2254 0.441617 13.2254 0.508391V6.78185H19.4913C19.5581 6.78181 19.6243 6.79493 19.686 6.82047C19.7478 6.846 19.8039 6.88345 19.8511 6.93067C19.8983 6.97788 19.9358 7.03394 19.9614 7.09564C19.9869 7.15734 20 7.22346 20 7.29024V19.4916C20 19.5584 19.9869 19.6245 19.9614 19.6862C19.9358 19.7479 19.8983 19.804 19.8511 19.8512C19.8039 19.8984 19.7478 19.9358 19.686 19.9614C19.6243 19.9869 19.5581 20 19.4913 20ZM7.79196 18.9832H18.9827V7.79863H12.7167C12.6499 7.79867 12.5837 7.78554 12.522 7.76001C12.4603 7.73447 12.4042 7.69703 12.3569 7.64981C12.3097 7.6026 12.2722 7.54654 12.2467 7.48484C12.2211 7.42314 12.208 7.35701 12.208 7.29024V1.01678H1.01734V12.2014H7.2833C7.35011 12.2013 7.41627 12.2145 7.478 12.24C7.53973 12.2655 7.59582 12.303 7.64306 12.3502C7.69031 12.3974 7.72777 12.4535 7.75332 12.5152C7.77887 12.5769 7.792 12.643 7.79196 12.7098V18.9832Z" fill="#171723"/>
</g>
<defs>
<clipPath id="clip0_10314_145361">
<rect width="20" height="20.265" fill="white"/>
</clipPath>
</defs>
</svg>
