<svg width="20" height="20" viewBox="0 0 20 20" fill="none" xmlns="http://www.w3.org/2000/svg">
<g clip-path="url(#clip0_5313_35217)">
<path d="M15.9308 1.27237e-07H4.06918C3.53477 -0.000133525 3.00557 0.105028 2.51181 0.309475C2.01806 0.513923 1.56942 0.813651 1.19154 1.19154C0.813651 1.56942 0.513923 2.01806 0.309475 2.51181C0.105028 3.00557 -0.000133525 3.53477 1.27237e-07 4.06918V15.9308C-0.000133525 16.4652 0.105028 16.9944 0.309475 17.4882C0.513923 17.9819 0.813651 18.4306 1.19154 18.8085C1.56942 19.1863 2.01806 19.4861 2.51181 19.6905C3.00557 19.895 3.53477 20.0001 4.06918 20H15.9308C16.4652 20.0001 16.9944 19.895 17.4882 19.6905C17.9819 19.4861 18.4306 19.1863 18.8085 18.8085C19.1863 18.4306 19.4861 17.9819 19.6905 17.4882C19.895 16.9944 20.0001 16.4652 20 15.9308V4.06918C20.0001 3.53477 19.895 3.00557 19.6905 2.51181C19.4861 2.01806 19.1863 1.56942 18.8085 1.19154C18.4306 0.813651 17.9819 0.513923 17.4882 0.309475C16.9944 0.105028 16.4652 -0.000133525 15.9308 1.27237e-07V1.27237e-07ZM6.34791 10.5392C6.34858 10.6061 6.33587 10.6726 6.31054 10.7346C6.28521 10.7966 6.24777 10.8529 6.20041 10.9003C6.15304 10.9477 6.09671 10.9851 6.0347 11.0104C5.97269 11.0358 5.90625 11.0485 5.83927 11.0478H3.7233C3.58851 11.0474 3.45936 10.9937 3.36405 10.8984C3.26874 10.8031 3.21503 10.674 3.21465 10.5392V8.42319C3.21503 8.28841 3.26874 8.15926 3.36405 8.06395C3.45936 7.96864 3.58851 7.91493 3.7233 7.91455H5.83927C5.90625 7.91389 5.97269 7.92659 6.0347 7.95192C6.09671 7.97725 6.15304 8.01469 6.20041 8.06205C6.24777 8.10942 6.28521 8.16575 6.31054 8.22776C6.33587 8.28978 6.34858 8.35621 6.34791 8.42319V10.5392ZM6.34791 5.83927C6.34858 5.90625 6.33587 5.97269 6.31054 6.0347C6.28521 6.09671 6.24777 6.15304 6.20041 6.20041C6.15304 6.24777 6.09671 6.28521 6.0347 6.31054C5.97269 6.33587 5.90625 6.34858 5.83927 6.34791H3.7233C3.58851 6.34753 3.45936 6.29382 3.36405 6.19851C3.26874 6.10321 3.21503 5.97405 3.21465 5.83927V3.7233C3.21676 3.58905 3.27103 3.4609 3.36596 3.36596C3.4609 3.27103 3.58905 3.21676 3.7233 3.21465H5.83927C5.97405 3.21504 6.1032 3.26876 6.1985 3.36406C6.29381 3.45937 6.34752 3.58852 6.34791 3.7233V5.83927ZM11.0478 10.5392C11.0485 10.6061 11.0358 10.6726 11.0104 10.7346C10.9851 10.7966 10.9477 10.8529 10.9003 10.9003C10.8529 10.9477 10.7966 10.9851 10.7346 11.0104C10.6726 11.0358 10.6061 11.0485 10.5392 11.0478H8.42319C8.35621 11.0485 8.28977 11.0358 8.22776 11.0104C8.16575 10.9851 8.10941 10.9477 8.06204 10.9003C8.01468 10.853 7.97724 10.7966 7.95191 10.7346C7.92659 10.6726 7.91388 10.6061 7.91455 10.5392V8.42319C7.91388 8.35621 7.92659 8.28977 7.95191 8.22776C7.97724 8.16575 8.01468 8.10941 8.06204 8.06204C8.10941 8.01468 8.16575 7.97724 8.22776 7.95191C8.28977 7.92659 8.35621 7.91388 8.42319 7.91455H10.5392C10.6061 7.91389 10.6726 7.92659 10.7346 7.95192C10.7966 7.97725 10.8529 8.01469 10.9003 8.06205C10.9477 8.10942 10.9851 8.16575 11.0104 8.22776C11.0358 8.28978 11.0485 8.35621 11.0478 8.42319V10.5392Z" fill="#171723"/>
</g>
<defs>
<clipPath id="clip0_5313_35217">
<rect width="20" height="20" fill="white"/>
</clipPath>
</defs>
</svg>
