<svg width="20" height="20" viewBox="0 0 20 20" fill="none" xmlns="http://www.w3.org/2000/svg">
<path fill-rule="evenodd" clip-rule="evenodd" d="M1.31316 0.225303C1.01276 -0.0751008 0.525706 -0.0751008 0.225303 0.225303C-0.0751008 0.525706 -0.0751008 1.01276 0.225303 1.31316L5.72086 6.80872L4.60166 7.22848C4.49886 7.26704 4.4055 7.32715 4.32787 7.40479L2.78941 8.94325C2.489 9.24366 2.489 9.7307 2.78941 10.0311L5.83522 13.0769L1.76376 17.1484C1.46336 17.4488 1.46336 17.9358 1.76376 18.2362C2.06417 18.5366 2.55122 18.5366 2.85162 18.2362L6.92308 14.1648L9.96889 17.2106C10.2693 17.511 10.7563 17.511 11.0568 17.2106L12.5952 15.6721C12.6728 15.5945 12.733 15.5012 12.7715 15.3984L13.1913 14.2792L18.6868 19.7747C18.9872 20.0751 19.4743 20.0751 19.7747 19.7747C20.0751 19.4743 20.0751 18.9872 19.7747 18.6868L13.4917 12.4039C13.4572 12.3608 13.4178 12.3213 13.374 12.2862L1.31316 0.225303ZM10.5128 15.5788L4.42119 9.48718L5.29792 8.61045L6.9158 8.00365L11.9964 13.0843L11.3896 14.7021L10.5128 15.5788Z" fill="#171723"/>
<path d="M13.6209 1.76376L13.108 1.25094C12.8076 0.95054 12.3206 0.95054 12.0202 1.25094C11.7302 1.54091 11.7201 2.00477 11.9899 2.30682L9.20069 5.09607C8.90028 5.39648 8.90028 5.88353 9.20069 6.18393C9.50109 6.48433 9.98814 6.48433 10.2885 6.18393L13.0769 3.39555L16.6045 6.92316L13.815 9.71359C13.5146 10.014 13.5147 10.5011 13.8151 10.8014C14.1156 11.1018 14.6026 11.1017 14.903 10.8013L17.6933 8.01014C17.9953 8.27986 18.4591 8.26976 18.7491 7.97983C19.0495 7.67942 19.0495 7.19237 18.7491 6.89197L13.6209 1.76376Z" fill="#171723"/>
</svg>
