<svg width="20" height="20" viewBox="0 0 20 20" fill="none" xmlns="http://www.w3.org/2000/svg">
<path fill-rule="evenodd" clip-rule="evenodd" d="M0.225302 0.225302C0.525706 -0.0751008 1.01276 -0.0751008 1.31316 0.225302L19.7747 18.6868C20.0751 18.9872 20.0751 19.4743 19.7747 19.7747C19.4743 20.0751 18.9872 20.0751 18.6868 19.7747L0.225302 1.31316C-0.0751008 1.01276 -0.0751008 0.525706 0.225302 0.225302Z" fill="#171723"/>
<path fill-rule="evenodd" clip-rule="evenodd" d="M7.467 12.533C7.76741 12.8334 7.76741 13.3204 7.467 13.6208L2.85162 18.2362C2.55122 18.5366 2.06417 18.5366 1.76376 18.2362C1.46336 17.9358 1.46336 17.4488 1.76376 17.1484L6.37915 12.533C6.67955 12.2326 7.1666 12.2326 7.467 12.533Z" fill="#171723"/>
<path fill-rule="evenodd" clip-rule="evenodd" d="M12.0202 1.25094C12.3206 0.95054 12.8076 0.95054 13.108 1.25094L18.7491 6.89197C19.0495 7.19237 19.0495 7.67942 18.7491 7.97983C18.4487 8.28023 17.9616 8.28023 17.6612 7.97983L12.0202 2.3388C11.7198 2.0384 11.7198 1.55135 12.0202 1.25094Z" fill="#171723"/>
<path d="M13.6208 1.76382C13.4766 1.61959 13.2809 1.53846 13.0769 1.53846C12.873 1.53846 12.6773 1.61959 12.5331 1.76382L9.20072 5.09615C8.90036 5.39663 8.90024 5.88341 9.20047 6.18389L13.8149 10.8013C13.8793 10.8659 13.9539 10.9175 14.0351 10.955C14.1356 11.0016 14.2459 11.0266 14.3588 11.0266C14.5629 11.0266 14.7587 10.9455 14.903 10.8013L18.2363 7.46695C18.5367 7.16647 18.5367 6.67969 18.2362 6.37921L13.6208 1.76382Z" fill="#171723"/>
<path fill-rule="evenodd" clip-rule="evenodd" d="M7.65237 6.5655C7.43903 6.35266 7.12089 6.28355 6.83857 6.38972L4.60161 7.22857C4.49882 7.26713 4.40555 7.32722 4.32792 7.40485L2.78946 8.94331C2.48898 9.24379 2.48898 9.73057 2.78946 10.031L9.96895 17.2105C10.2693 17.511 10.7563 17.511 11.0567 17.2105L12.5952 15.6721C12.643 15.6245 12.6842 15.5704 12.7178 15.5123C12.7388 15.4758 12.7568 15.4377 12.7716 15.3981L13.6125 13.1565C13.7186 12.8736 13.6495 12.5551 13.4359 12.3417L7.65237 6.5655ZM4.4212 9.48718L5.29798 8.61028L6.91531 8.00381L11.9979 13.0799L11.3896 14.702L10.5128 15.5789L4.4212 9.48718Z" fill="#171723"/>
<path d="M13.0769 2.30769L9.74462 5.64L13.0769 2.30769ZM7.10872 7.10974L4.87179 7.94872L3.33333 9.48718L10.5128 16.6667L12.0513 15.1282L12.8923 12.8862M14.359 10.2574L17.6923 6.92308L14.359 10.2574Z" fill="#171723"/>
</svg>
