<svg width="20" height="20" viewBox="0 0 20 20" fill="none" xmlns="http://www.w3.org/2000/svg">
<path fill-rule="evenodd" clip-rule="evenodd" d="M20 0H0V20H20V0ZM15.0248 3.8501H12.4622V11.5029C12.4622 11.9645 12.3596 12.3749 12.1545 12.7338C11.9531 13.0929 11.6671 13.375 11.2964 13.5801C10.9294 13.7854 10.4972 13.8879 10 13.8879C9.50684 13.8879 9.07471 13.7854 8.70402 13.5801C8.33293 13.375 8.04484 13.0929 7.83976 12.7338C7.63835 12.3749 7.53784 11.9645 7.53784 11.5029V3.8501H4.97518V11.7218C4.97518 12.6056 5.18433 13.3789 5.60262 14.042C6.02091 14.7048 6.60685 15.2216 7.36043 15.5924C8.11401 15.9595 8.99373 16.143 10 16.143C11.0022 16.143 11.8803 15.9595 12.6339 15.5924C13.3875 15.2216 13.9734 14.7048 14.3917 14.042C14.8136 13.3789 15.0248 12.6056 15.0248 11.7218V3.8501Z" fill="#171723"/>
</svg>
