<svg width="20" height="20" viewBox="0 0 20 20" fill="none" xmlns="http://www.w3.org/2000/svg">
<g clip-path="url(#clip0_10317_146764)">
<g clip-path="url(#clip1_10317_146764)">
<path d="M18.3923 4.30459C18.3891 4.27449 18.3831 4.24475 18.3743 4.21578C18.3357 3.48988 18.0314 2.80355 17.5193 2.28759L16.1131 0.878905C15.8362 0.599455 15.5065 0.377843 15.1432 0.22696C14.7799 0.0760761 14.3902 -0.00106869 13.9968 1.1182e-05H4.59813C3.80535 0.000912846 3.0453 0.316242 2.48472 0.876822C1.92414 1.4374 1.60881 2.19745 1.60791 2.99023V17.0098C1.60881 17.8026 1.92414 18.5626 2.48472 19.1232C3.0453 19.6838 3.80535 19.9991 4.59813 20H15.402C16.1948 19.9991 16.9548 19.6838 17.5154 19.1232C18.076 18.5626 18.3913 17.8026 18.3922 17.0098V4.39943C18.3922 4.37771 18.3865 4.35716 18.386 4.3355C18.3867 4.3247 18.3923 4.31558 18.3923 4.30459ZM16.7993 3.00562C17.0177 3.22766 17.1799 3.4987 17.2724 3.79613H14.5966V1.11913C14.8969 1.21214 15.1704 1.376 15.3941 1.59688L16.7993 3.00562ZM15.4021 18.9831H4.59813C4.07495 18.9825 3.57336 18.7744 3.20342 18.4045C2.83347 18.0346 2.6254 17.533 2.62484 17.0098V2.99023C2.62539 2.46705 2.83347 1.96546 3.20341 1.59552C3.57336 1.22557 4.07495 1.0175 4.59813 1.01694H13.5797V4.30459C13.5796 4.37138 13.5928 4.43751 13.6183 4.49922C13.6438 4.56093 13.6813 4.617 13.7285 4.66422C13.7757 4.71144 13.8318 4.7489 13.8935 4.77443C13.9552 4.79997 14.0214 4.8131 14.0881 4.81306H17.3753V17.0098C17.3747 17.533 17.1667 18.0346 16.7967 18.4045C16.4268 18.7744 15.9252 18.9825 15.402 18.9831H15.4021Z" fill="#171723"/>
<path d="M10.9741 5.49825C10.5593 5.40095 10.1279 5.39864 9.71205 5.4915C9.29623 5.58436 8.90678 5.76999 8.57278 6.03452C8.24252 6.29652 7.97589 6.62991 7.79288 7.00968C7.60988 7.38944 7.51526 7.80572 7.51612 8.22728C7.51612 8.36214 7.56969 8.49147 7.66505 8.58682C7.7604 8.68218 7.88973 8.73575 8.02459 8.73575C8.15944 8.73575 8.28877 8.68218 8.38412 8.58682C8.47948 8.49147 8.53305 8.36214 8.53305 8.22728C8.53311 7.87401 8.63792 7.52869 8.83422 7.23498C9.03052 6.94128 9.30951 6.71237 9.6359 6.5772C9.96229 6.44204 10.3214 6.40669 10.6679 6.47562C11.0144 6.54456 11.3326 6.71468 11.5824 6.96448C11.8322 7.21428 12.0024 7.53254 12.0713 7.87902C12.1402 8.2255 12.1049 8.58464 11.9697 8.91103C11.8346 9.23742 11.6056 9.5164 11.3119 9.71271C11.0182 9.90901 10.6729 10.0138 10.3196 10.0139C9.92702 10.0144 9.55063 10.1707 9.27306 10.4483C8.99548 10.726 8.83938 11.1025 8.83898 11.4951V12.5994C8.83898 12.7343 8.89256 12.8636 8.98791 12.9589C9.08327 13.0543 9.2126 13.1079 9.34745 13.1079C9.4823 13.1079 9.61164 13.0543 9.70699 12.9589C9.80235 12.8636 9.85592 12.7343 9.85592 12.5994V11.4951C9.85587 11.372 9.9047 11.254 9.99165 11.1669C10.0786 11.0799 10.1966 11.0309 10.3196 11.0308C10.7412 11.0318 11.1575 10.9373 11.5372 10.7544C11.917 10.5715 12.2504 10.3049 12.5124 9.97464C12.7772 9.64078 12.963 9.25133 13.0558 8.83546C13.1487 8.4196 13.1463 7.98811 13.0487 7.57333C12.9315 7.06808 12.6749 6.60581 12.3082 6.23901C11.9415 5.87222 11.4793 5.61558 10.9741 5.49825Z" fill="#171723"/>
<path d="M9.34711 14.1568C9.20631 14.1568 9.06868 14.1986 8.95162 14.2768C8.83455 14.355 8.74331 14.4662 8.68944 14.5963C8.63556 14.7263 8.62146 14.8695 8.64894 15.0075C8.67641 15.1456 8.74421 15.2725 8.84377 15.372C8.94333 15.4716 9.07017 15.5394 9.20826 15.5668C9.34635 15.5943 9.48948 15.5802 9.61956 15.5263C9.74963 15.4724 9.8608 15.3812 9.93902 15.2641C10.0172 15.147 10.059 15.0094 10.059 14.8686C10.059 14.7751 10.0406 14.6826 10.0048 14.5962C9.969 14.5098 9.91657 14.4314 9.85047 14.3653C9.78436 14.2992 9.70589 14.2467 9.61952 14.211C9.53315 14.1752 9.44059 14.1568 9.34711 14.1568Z" fill="#171723"/>
</g>
</g>
<defs>
<clipPath id="clip0_10317_146764">
<rect width="20" height="20" fill="white"/>
</clipPath>
<clipPath id="clip1_10317_146764">
<rect width="20" height="20" fill="white"/>
</clipPath>
</defs>
</svg>
