<svg width="20" height="20" viewBox="0 0 20 20" fill="none" xmlns="http://www.w3.org/2000/svg">
<path d="M17.9899 4.20946C17.9496 3.48651 17.6601 2.80356 17.1753 2.28775L15.8275 0.884596C15.5635 0.605088 15.2494 0.383049 14.9032 0.231241C14.5571 0.0794327 14.1857 0.000846931 13.8105 0H4.85084C4.09543 0.00231762 3.37159 0.318008 2.83743 0.878113C2.30328 1.43822 2.00221 2.19722 2 2.98932V17.0107C2.00221 17.8028 2.30328 18.5618 2.83743 19.1219C3.37159 19.682 4.09543 19.9977 4.85084 20H15.1488C15.9049 20 16.63 19.6851 17.1646 19.1244C17.6993 18.5638 17.9996 17.8035 17.9996 17.0107V4.31113C18.0012 4.27692 17.9979 4.24266 17.9899 4.20946ZM9.37921 15.577C9.24497 15.577 9.11374 15.5353 9.00213 15.457C8.89051 15.3788 8.80352 15.2677 8.75216 15.1376C8.7008 15.0075 8.68736 14.8644 8.71356 14.7264C8.73976 14.5883 8.80441 14.4615 8.89934 14.362C8.99427 14.2624 9.11522 14.1947 9.24689 14.1672C9.37855 14.1397 9.51503 14.1538 9.63905 14.2077C9.76308 14.2616 9.86908 14.3528 9.94366 14.4699C10.0182 14.5869 10.0581 14.7245 10.0581 14.8653C10.0586 14.9589 10.0414 15.0517 10.0075 15.1383C9.97357 15.225 9.92359 15.3037 9.86044 15.3699C9.7973 15.4361 9.72224 15.4885 9.63964 15.524C9.55703 15.5596 9.46851 15.5776 9.37921 15.577ZM12.3949 9.97458C12.1466 10.305 11.8298 10.5719 11.4687 10.755C11.1075 10.9382 10.7114 11.033 10.3102 11.032C10.2516 11.0319 10.1935 11.0438 10.1393 11.0673C10.0851 11.0907 10.0359 11.1252 9.9944 11.1686C9.95294 11.2121 9.92009 11.2637 9.89772 11.3205C9.87535 11.3774 9.86392 11.4383 9.86407 11.4997V12.5979C9.86407 12.7327 9.81299 12.862 9.72206 12.9573C9.63114 13.0527 9.50782 13.1063 9.37923 13.1063C9.25065 13.1063 9.12733 13.0527 9.0364 12.9573C8.94548 12.862 8.8944 12.7327 8.8944 12.5979V11.4035C8.89758 11.2123 8.93769 11.0237 9.01229 10.8492C9.08689 10.6746 9.19444 10.5178 9.32844 10.388C9.46245 10.2583 9.62014 10.1584 9.79199 10.0943C9.96384 10.0302 10.1463 10.0033 10.3283 10.0152C10.6644 10.0109 10.9917 9.90253 11.2692 9.70372C11.5466 9.5049 11.7618 9.2245 11.8877 8.89778C12.0136 8.57105 12.0446 8.2126 11.9767 7.86748C11.9088 7.52236 11.7451 7.20599 11.5062 6.95814C11.2674 6.7103 10.9639 6.54205 10.6341 6.47456C10.3042 6.40706 9.96274 6.44333 9.65251 6.57881C9.34228 6.71428 9.07717 6.94291 8.89053 7.23595C8.70389 7.52898 8.60403 7.87334 8.60353 8.22572C8.60353 8.36057 8.55245 8.48988 8.46152 8.58523C8.37059 8.68058 8.24726 8.73414 8.11867 8.73414C7.99007 8.73414 7.86675 8.68058 7.77582 8.58523C7.68489 8.48988 7.6338 8.36057 7.6338 8.22572C7.63291 7.80503 7.72323 7.38963 7.89794 7.01091C8.07265 6.63219 8.32717 6.30008 8.64226 6.03965C8.95992 5.77405 9.33095 5.58754 9.72736 5.49419C10.1238 5.40084 10.5352 5.40309 10.9307 5.50076C11.4126 5.61741 11.8536 5.87372 12.2034 6.24046C12.5531 6.6072 12.7976 7.06962 12.9088 7.57499C13.002 7.98966 13.0041 8.4211 12.9151 8.83677C12.8261 9.25244 12.6482 9.64149 12.3949 9.97458ZM14.6726 3.80275C14.6345 3.80275 14.5968 3.7949 14.5617 3.77963C14.5265 3.76435 14.4945 3.74197 14.4676 3.71375C14.4407 3.68552 14.4193 3.65202 14.4048 3.61514C14.3902 3.57827 14.3827 3.53874 14.3827 3.49883V1.11845C14.6719 1.2086 14.9352 1.37284 15.1488 1.59634L16.4868 3.00966C16.6983 3.22922 16.8519 3.50245 16.9329 3.80275H14.6726Z" fill="#171723"/>
</svg>
