<svg width="20" height="20" viewBox="0 0 20 20" fill="none" xmlns="http://www.w3.org/2000/svg">
<g clip-path="url(#clip0_19089_1948)">
<path d="M19.4 18L18.2 16.8L18.3 16.55C18.9 15.4 19.15 13.9 19.15 12.05V0.700003C19.15 0.500003 19.15 0.350003 19 0.200003C18.9 0.100003 18.75 0.0500031 18.55 0.0500031H13.75L13.3 0.200003C13.2 0.350003 13.1 0.500003 13.1 0.700003V12.2C13.1 14.3 12.6 15.85 11.6 16.85C11.4 17.15 11.1 17.35 10.75 17.55C11.6619 17.703 12.5943 17.686 13.5 17.5C13.6911 17.2143 13.8584 16.9132 14 16.6C14.6 15.45 14.9 13.95 14.9 12.1V1.3H17.4V12.2C17.4 14.3 16.9 15.85 15.9 16.85C14.95 17.85 13.6 18.35 11.95 18.35C10.25 18.35 8.95 17.85 7.95 16.85C6.95 15.85 6.45 14.35 6.45 12.2V0.700003C6.45 0.500003 6.45 0.350003 6.3 0.200003C6.2 0.100003 6.05 0.0500031 5.8 0.0500031H1.1C0.9 0.0500031 0.75 0.100003 0.65 0.200003C0.55 0.350003 0.5 0.500003 0.5 0.700003V12.15C0.5 13.95 0.75 15.45 1.35 16.65C1.95 17.8 2.75 18.65 3.85 19.2C4.9 19.75 6.2 20.05 7.7 20.05L7.4 19.9C6.51532 19.4405 5.77217 18.7492 5.25 17.9C4.69016 17.6666 4.18079 17.327 3.75 16.9C2.75 15.9 2.25 14.3 2.25 12.2V1.25H4.75V12.1C4.75 13.9 5.05 15.4 5.65 16.6C6.2 17.75 7.05 18.6 8.15 19.15C9.15 19.7 10.5 20 12 20C13.5 20 14.85 19.7 15.9 19.15L16.55 18.75L17.6 19.8C17.6557 19.8559 17.722 19.9003 17.7949 19.9306C17.8678 19.9609 17.946 19.9765 18.025 19.9765C18.104 19.9765 18.1822 19.9609 18.2551 19.9306C18.328 19.9003 18.3943 19.8559 18.45 19.8L19.45 18.8C19.5484 18.69 19.6028 18.5476 19.6028 18.4C19.6028 18.2524 19.5484 18.11 19.45 18H19.4Z" fill="#171723"/>
</g>
<defs>
<clipPath id="clip0_19089_1948">
<rect width="20" height="20" fill="white"/>
</clipPath>
</defs>
</svg>
