<svg width="20" height="20" viewBox="0 0 20 20" fill="none" xmlns="http://www.w3.org/2000/svg">
<path d="M4.87372 12.865L10.1153 8.14328L15.1147 12.8483C15.1617 12.8935 15.218 12.9296 15.2803 12.9546C15.3426 12.9796 15.4097 12.993 15.4776 12.994C15.5455 12.995 15.613 12.9836 15.6761 12.9604C15.7393 12.9373 15.7968 12.9028 15.8454 12.859C15.8939 12.8153 15.9326 12.7631 15.9591 12.7054C15.9857 12.6478 15.9996 12.5859 16 12.5234C16.0004 12.4608 15.9874 12.3987 15.9616 12.3408C15.9358 12.2829 15.8978 12.2303 15.8499 12.186L10.4908 7.14247C10.4436 7.098 10.3874 7.06253 10.3253 7.03809C10.2632 7.01365 10.1965 7.00072 10.129 7.00003C10.0614 6.99934 9.99443 7.01092 9.93177 7.03409C9.86911 7.05726 9.81201 7.09157 9.76375 7.13507L4.15467 12.1878C4.10552 12.2318 4.0665 12.2844 4.03992 12.3426C4.01335 12.4008 3.99977 12.4633 4 12.5264C4.00001 12.6196 4.02988 12.7108 4.08589 12.7884C4.14189 12.8661 4.22152 12.9268 4.31482 12.9629C4.40811 12.9991 4.51091 13.0091 4.61034 12.9917C4.70977 12.9742 4.80137 12.9301 4.87372 12.865Z" fill="#171723"/>
</svg>
