<svg width="20" height="20" viewBox="0 0 20 20" fill="none" xmlns="http://www.w3.org/2000/svg">
<g clip-path="url(#clip0_5313_35040)">
<g clip-path="url(#clip1_5313_35040)">
<path d="M6.89225 4.07344L9.3962 1.6803V13.5114C9.3962 13.641 9.45124 13.7653 9.54922 13.8569C9.64719 13.9485 9.78007 14 9.91862 14C10.0572 14 10.1901 13.9485 10.288 13.8569C10.386 13.7653 10.441 13.641 10.441 13.5114V1.64386L13.1123 4.08679C13.21 4.17599 13.3411 4.22598 13.4776 4.22611C13.5814 4.2261 13.6829 4.19717 13.769 4.14301C13.8552 4.08885 13.9221 4.01191 13.9613 3.92202C14.0005 3.83212 14.0102 3.73334 13.9891 3.63829C13.968 3.54323 13.9171 3.45621 13.8429 3.38832L10.2839 0.133533C10.2375 0.0926052 10.1835 0.0599806 10.1245 0.0372788L10.1155 0.0304389L10.1128 0.0302046C10.0274 0.000551573 9.93512 -0.00745114 9.84533 0.00700809C9.8248 0.00969318 9.80448 0.0136097 9.78449 0.0187334C9.69418 0.0381172 9.61137 0.0804908 9.54522 0.141164L6.14541 3.39023C6.05011 3.48314 5.99787 3.60747 6.00007 3.7362C6.00226 3.86493 6.0587 3.98765 6.15712 4.07768C6.25553 4.1677 6.38797 4.21776 6.52564 4.21697C6.66331 4.21617 6.79508 4.16459 6.8923 4.07344H6.89225Z" fill="#171723"/>
<path d="M19.4915 14C19.4247 14 19.3586 14.0122 19.2969 14.036C19.2352 14.0597 19.1791 14.0946 19.1319 14.1386C19.0846 14.1825 19.0472 14.2347 19.0216 14.2922C18.9961 14.3496 18.983 14.4112 18.983 14.4733V16.2133C18.9821 16.9662 18.6604 17.6881 18.0884 18.2206C17.5165 18.753 16.741 19.0525 15.9321 19.0533H4.06793C3.25904 19.0525 2.48353 18.753 1.91156 18.2206C1.33959 17.6881 1.01787 16.9662 1.01698 16.2133V14.4733C1.01698 14.3478 0.96341 14.2274 0.86805 14.1386C0.772689 14.0499 0.643352 14 0.508492 14C0.373631 14 0.244294 14.0499 0.148934 14.1386C0.0535729 14.2274 0 14.3478 0 14.4733V16.2133C0.00107694 17.2173 0.430007 18.1798 1.19266 18.8898C1.95531 19.5997 2.98938 19.999 4.06793 20H15.9321C17.0106 19.999 18.0447 19.5997 18.8073 18.8898C19.57 18.1798 19.9989 17.2173 20 16.2133V14.4733C20 14.4112 19.9869 14.3496 19.9614 14.2922C19.9358 14.2347 19.8984 14.1825 19.8512 14.1386C19.8039 14.0946 19.7479 14.0597 19.6861 14.036C19.6244 14.0122 19.5583 14 19.4915 14Z" fill="#171723"/>
</g>
</g>
<defs>
<clipPath id="clip0_5313_35040">
<rect width="20" height="20" fill="white"/>
</clipPath>
<clipPath id="clip1_5313_35040">
<rect width="20" height="20" fill="white"/>
</clipPath>
</defs>
</svg>
