<svg width="20" height="20" viewBox="0 0 20 20" fill="none" xmlns="http://www.w3.org/2000/svg">
<g clip-path="url(#clip0_10314_144688)">
<g clip-path="url(#clip1_10314_144688)">
<path d="M17.4583 0H2.54373C1.86982 0.000624581 1.22369 0.268637 0.747168 0.745211C0.270643 1.22178 0.00265797 1.86798 0.00203345 2.54195V5.92301L0 5.93288L0.00203345 5.94275V17.458C0.00265528 18.132 0.27064 18.7782 0.747165 19.2548C1.22369 19.7314 1.86982 19.9994 2.54373 20H17.4583C18.1322 19.9994 18.7783 19.7314 19.2549 19.2548C19.7314 18.7782 19.9994 18.132 20 17.458V2.54195C19.9994 1.86798 19.7314 1.22178 19.2549 0.745211C18.7783 0.268637 18.1322 0.000624581 17.4583 0ZM4.74984 6.44131V9.94444H1.01871V6.44127L4.74984 6.44131ZM5.76651 6.44131H9.48771V9.94444H5.76651V6.44131ZM10.5044 6.44131H14.2355V9.94444H10.5044V6.44131ZM15.2522 6.44131H18.9833V9.94444H15.2522V6.44131ZM1.01871 10.9612H4.74984V14.4594H1.01871V10.9612ZM5.76651 10.9612H9.48771V14.4594H5.76651V10.9612ZM9.48771 15.4762V18.9833H5.76651V15.4761L9.48771 15.4762ZM10.5044 15.4762H14.2355V18.9833H10.5044V15.4762ZM10.5044 14.4594V10.9612H14.2355V14.4593L10.5044 14.4594ZM15.2522 10.9612H18.9833V14.4594H15.2522V10.9612ZM1.01871 2.54199C1.01915 2.13763 1.17996 1.74995 1.46587 1.46402C1.75177 1.17809 2.1394 1.01726 2.54373 1.01682H17.4583C17.8626 1.01726 18.2503 1.17809 18.5362 1.46402C18.8221 1.74995 18.9829 2.13763 18.9833 2.54199V5.41952H1.01871V2.54195V2.54199ZM1.01871 17.4581V15.4761H4.74984V18.9832H2.54373C2.1394 18.9828 1.75177 18.8219 1.46587 18.536C1.17996 18.2501 1.01915 17.8624 1.01871 17.458V17.4581ZM17.4583 18.9833H15.2522V15.4761H18.9833V17.458C18.9829 17.8624 18.8221 18.2501 18.5362 18.536C18.2503 18.8219 17.8626 18.9828 17.4583 18.9832V18.9833Z" fill="#171723"/>
</g>
</g>
<defs>
<clipPath id="clip0_10314_144688">
<rect width="20" height="20" fill="white"/>
</clipPath>
<clipPath id="clip1_10314_144688">
<rect width="20" height="20" fill="white"/>
</clipPath>
</defs>
</svg>
