<svg width="20" height="20" viewBox="0 0 20 20" fill="none" xmlns="http://www.w3.org/2000/svg">
<g clip-path="url(#clip0_12121_199287)">
<path fill-rule="evenodd" clip-rule="evenodd" d="M0.833333 18.0261V1.9735C0.833333 1.3471 1.34074 0.836965 1.96492 0.836965H8.22469V0H1.96492C0.88135 0 0 0.885732 0 1.9735V18.0261C0 19.1143 0.88135 20 1.96492 20H8.22469V19.163H1.96492C1.34074 19.163 0.833333 18.6529 0.833333 18.0261ZM18.0351 0H11.7753V0.836957H18.0351C18.6593 0.836957 19.1667 1.3471 19.1667 1.97349V18.0261C19.1667 18.6529 18.6593 19.163 18.0351 19.163H11.7753V20H18.0351C19.1187 20 20 19.1143 20 18.0261V1.9735C20 0.885741 19.1187 0 18.0351 0ZM13.9387 12.4629L14.2642 12.6605C14.1556 13.2621 12.6098 15.2059 11.4782 15.4034C10.347 15.6014 10.0613 14.0437 10.0613 14.0437C10.0613 14.0437 9.77487 12.8422 9.4461 11.4601L9.38018 11.1833L7.67201 13.5121C7.67201 13.5121 6.08795 15.9615 4.70326 15.1291C4.70326 15.1291 3.86382 14.7319 4.48231 13.723C4.48231 13.723 4.96124 13.1031 6.08795 13.8454C6.08795 13.8454 6.39801 14.1783 7.00022 13.4356C7.25291 13.1251 8.18837 11.8044 9.18854 10.3764L9.0994 10.0026C8.78774 8.69582 8.5127 7.54251 8.4785 7.40621C8.39631 7.07533 8.19326 6.36763 7.93366 5.74896C7.67364 5.12988 5.99151 5.76766 5.99151 5.76766L5.88653 5.40629L7.68747 4.79941C7.68747 4.79941 8.51022 4.51203 9.17185 4.62544C9.83429 4.73966 10.03 5.97457 10.03 5.97457C10.03 5.97457 10.3034 7.29809 10.6021 8.72243L12.3282 6.36886C12.3282 6.36886 13.9122 3.91937 15.2965 4.75186C15.2965 4.75186 16.1364 5.149 15.5175 6.15789C15.5175 6.15789 15.039 6.77779 13.9122 6.03595C13.9122 6.03595 13.6018 5.70304 13 6.44569C12.7444 6.75991 11.7907 8.10701 10.7775 9.5537C10.985 10.5358 11.1819 11.4532 11.2865 11.8987C11.5705 13.1109 11.8078 13.9393 12.3217 14.0665C12.8356 14.1942 13.9387 12.4629 13.9387 12.4629Z" fill="#171723"/>
</g>
<defs>
<clipPath id="clip0_12121_199287">
<rect width="20" height="20" fill="white"/>
</clipPath>
</defs>
</svg>
