<svg width="20" height="20" viewBox="0 0 20 20" fill="none" xmlns="http://www.w3.org/2000/svg">
<g clip-path="url(#clip0_11631_154434)">
<path d="M20 2.7348C20 1.22664 18.6661 0 17.0268 0C15.3871 0 14.0536 1.22664 14.0536 2.7348C14.0536 4.01834 15.0231 5.09043 16.3219 5.38341V8.59248C16.3219 9.52913 15.2539 10.2917 13.9409 10.2917H6.09464C5.02974 10.2917 4.08336 10.6628 3.42774 11.2394V5.42714C4.85041 5.22418 5.94638 4.09943 5.94638 2.7348C5.94638 1.22664 4.61248 0 2.97319 0C1.3339 0 0 1.22664 0 2.7348C0 4.09944 1.09553 5.22418 2.51865 5.42714V14.5729C1.09553 14.7758 0 15.9006 0 17.2652C0 18.7734 1.3339 20 2.97319 20C4.61248 20 5.94638 18.7734 5.94638 17.2652C5.94638 15.9006 4.85041 14.7758 3.42774 14.5729V13.0753C3.42774 12.0198 4.62403 11.1613 6.09464 11.1613H13.9409C15.7551 11.1613 17.231 10.0089 17.231 8.59248V5.4505C18.7735 5.35199 20 4.17842 20 2.7348ZM0.909091 2.7348C0.909091 1.70643 1.83505 0.869565 2.97319 0.869565C4.11134 0.869565 5.03729 1.70643 5.03729 2.7348C5.03729 3.76317 4.11134 4.60003 2.97319 4.60003C1.83505 4.60003 0.909091 3.76317 0.909091 2.7348ZM5.03729 17.2652C5.03729 18.2936 4.11134 19.1304 2.97319 19.1304C1.83505 19.1304 0.909091 18.2936 0.909091 17.2652C0.909091 16.3065 1.71697 15.5235 2.74814 15.4208H3.1978C4.22941 15.5235 5.03729 16.3065 5.03729 17.2652ZM17.0268 4.60003C15.8887 4.60003 14.9627 3.76317 14.9627 2.7348C14.9627 1.70643 15.8887 0.869565 17.0268 0.869565C18.165 0.869565 19.0909 1.70643 19.0909 2.7348C19.0909 3.76317 18.165 4.60003 17.0268 4.60003Z" fill="#171723"/>
</g>
<defs>
<clipPath id="clip0_11631_154434">
<rect width="20" height="20" fill="white"/>
</clipPath>
</defs>
</svg>
