<svg width="20" height="20" viewBox="0 0 20 20" fill="none" xmlns="http://www.w3.org/2000/svg">
<path d="M18.578 12.074C18.4502 11.9205 18.2711 11.8186 18.0739 11.787C17.8767 11.7555 17.6748 11.7964 17.5055 11.9024L9.99756 17.4153V17.6513C10.1059 17.6384 10.2157 17.6487 10.3198 17.6814C10.4238 17.714 10.5198 17.7684 10.6013 17.8409C10.6829 17.9133 10.7482 18.0022 10.7928 18.1017C10.8375 18.2012 10.8607 18.3091 10.8607 18.4181C10.8607 18.5272 10.8375 18.6351 10.7928 18.7346C10.7482 18.8341 10.6829 18.923 10.6013 18.9954C10.5198 19.0679 10.4238 19.1222 10.3198 19.1549C10.2157 19.1876 10.1059 19.1979 9.99756 19.185C10.1717 19.1858 10.3413 19.1293 10.4802 19.0241L18.4279 13.1572C18.5827 13.0274 18.6838 12.8447 18.7116 12.6445C18.7393 12.4444 18.6917 12.241 18.578 12.074Z" fill="#669DF6"/>
<path d="M9.99756 19.1853C9.8098 19.163 9.63672 19.0727 9.51113 18.9313C9.38554 18.79 9.31617 18.6075 9.31617 18.4184C9.31617 18.2293 9.38554 18.0468 9.51113 17.9055C9.63672 17.7641 9.8098 17.6738 9.99756 17.6515V17.4156L2.48966 11.9026C2.32104 11.7944 2.11848 11.7521 1.92064 11.7837C1.7228 11.8154 1.54355 11.9188 1.41711 12.0742C1.30402 12.2413 1.25882 12.4452 1.2907 12.6445C1.32258 12.8437 1.42914 13.0233 1.58872 13.1468L9.53636 19.0137C9.67194 19.1173 9.83765 19.1738 10.0083 19.1746L9.99756 19.1853Z" fill="#AECBFA"/>
<path d="M9.99759 16.8467C9.68575 16.8467 9.38092 16.9391 9.12164 17.1124C8.86236 17.2856 8.66028 17.5319 8.54095 17.82C8.42161 18.1081 8.39039 18.4251 8.45122 18.7309C8.51206 19.0368 8.66222 19.3177 8.88272 19.5382C9.10322 19.7587 9.38415 19.9089 9.69 19.9697C9.99584 20.0305 10.3129 19.9993 10.6009 19.88C10.889 19.7606 11.1353 19.5586 11.3085 19.2993C11.4818 19.04 11.5742 18.7352 11.5742 18.4233C11.5742 18.0052 11.4081 17.6042 11.1125 17.3085C10.8168 17.0128 10.4157 16.8467 9.99759 16.8467ZM9.99759 19.1849C9.8444 19.1848 9.69468 19.1393 9.56746 19.0539C9.44024 18.9686 9.34128 18.8473 9.28316 18.7056C9.22504 18.5639 9.21039 18.4081 9.24106 18.258C9.27174 18.1079 9.34636 17.9703 9.45544 17.8628C9.56451 17.7552 9.70311 17.6825 9.85361 17.6539C10.0041 17.6253 10.1597 17.6422 10.3006 17.7023C10.4415 17.7624 10.5614 17.863 10.6449 17.9914C10.7285 18.1198 10.772 18.2702 10.7698 18.4233C10.7698 18.5242 10.7498 18.6242 10.7109 18.7173C10.6719 18.8104 10.6149 18.8948 10.543 18.9656C10.4712 19.0365 10.3859 19.0924 10.2923 19.13C10.1987 19.1676 10.0985 19.1863 9.99759 19.1849Z" fill="#4285F4"/>
<path d="M3.56219 3.72932C3.34971 3.72654 3.14671 3.6409 2.99645 3.49064C2.84619 3.34038 2.76055 3.13738 2.75777 2.9249V0.908493C2.74461 0.794325 2.75574 0.678665 2.79043 0.569101C2.82512 0.459538 2.88258 0.358548 2.95905 0.272757C3.03552 0.186967 3.12927 0.118316 3.23414 0.0713083C3.33901 0.024301 3.45263 0 3.56755 0C3.68248 0 3.7961 0.024301 3.90097 0.0713083C4.00584 0.118316 4.09959 0.186967 4.17606 0.272757C4.25253 0.358548 4.30999 0.459538 4.34468 0.569101C4.37937 0.678665 4.3905 0.794325 4.37733 0.908493V2.9249C4.37451 3.13922 4.28739 3.34381 4.13483 3.49437C3.98226 3.64493 3.77654 3.72934 3.56219 3.72932Z" fill="#AECBFA"/>
<path d="M3.54073 10.8622C3.99092 10.8622 4.35587 10.4973 4.35587 10.0471C4.35587 9.5969 3.99092 9.23195 3.54073 9.23195C3.09054 9.23195 2.72559 9.5969 2.72559 10.0471C2.72559 10.4973 3.09054 10.8622 3.54073 10.8622Z" fill="#AECBFA"/>
<path d="M3.54073 8.4914C3.99092 8.4914 4.35587 8.12645 4.35587 7.67626C4.35587 7.22607 3.99092 6.86111 3.54073 6.86111C3.09054 6.86111 2.72559 7.22607 2.72559 7.67626C2.72559 8.12645 3.09054 8.4914 3.54073 8.4914Z" fill="#AECBFA"/>
<path d="M3.54073 6.11062C3.99092 6.11062 4.35587 5.74567 4.35587 5.29547C4.35587 4.84528 3.99092 4.48033 3.54073 4.48033C3.09054 4.48033 2.72559 4.84528 2.72559 5.29547C2.72559 5.74567 3.09054 6.11062 3.54073 6.11062Z" fill="#AECBFA"/>
<path d="M16.4329 6.08902C16.2186 6.0862 16.014 5.99908 15.8634 5.84651C15.7129 5.69395 15.6285 5.48822 15.6285 5.27388V3.25747C15.6285 3.04413 15.7132 2.83952 15.8641 2.68866C16.0149 2.53781 16.2196 2.45306 16.4329 2.45306C16.6462 2.45306 16.8508 2.53781 17.0017 2.68866C17.1526 2.83952 17.2373 3.04413 17.2373 3.25747V5.27388C17.2387 5.38042 17.219 5.48617 17.1792 5.58501C17.1394 5.68385 17.0804 5.7738 17.0055 5.84964C16.9307 5.92547 16.8415 5.98569 16.7432 6.02678C16.6449 6.06788 16.5394 6.08903 16.4329 6.08902Z" fill="#4285F4"/>
<path d="M16.4543 10.8727C16.9045 10.8727 17.2695 10.5078 17.2695 10.0576C17.2695 9.60738 16.9045 9.24242 16.4543 9.24242C16.0041 9.24242 15.6392 9.60738 15.6392 10.0576C15.6392 10.5078 16.0041 10.8727 16.4543 10.8727Z" fill="#4285F4"/>
<path d="M16.4543 8.45946C16.9045 8.45946 17.2695 8.0945 17.2695 7.64431C17.2695 7.19412 16.9045 6.82917 16.4543 6.82917C16.0041 6.82917 15.6392 7.19412 15.6392 7.64431C15.6392 8.0945 16.0041 8.45946 16.4543 8.45946Z" fill="#4285F4"/>
<path d="M16.4543 1.72403C16.9045 1.72403 17.2695 1.35908 17.2695 0.908889C17.2695 0.458698 16.9045 0.0937462 16.4543 0.0937462C16.0041 0.0937462 15.6392 0.458698 15.6392 0.908889C15.6392 1.35908 16.0041 1.72403 16.4543 1.72403Z" fill="#4285F4"/>
<path d="M9.99753 13.2645C9.78505 13.2617 9.58206 13.176 9.4318 13.0258C9.28154 12.8755 9.19589 12.6725 9.19312 12.46V10.4115C9.21602 10.2128 9.31119 10.0294 9.46051 9.89631C9.60983 9.76322 9.80287 9.68967 10.0029 9.68967C10.2029 9.68967 10.396 9.76322 10.5453 9.89631C10.6946 10.0294 10.7898 10.2128 10.8127 10.4115V12.4386C10.8141 12.5465 10.7941 12.6537 10.7537 12.7538C10.7134 12.854 10.6536 12.9451 10.5778 13.0219C10.5019 13.0988 10.4116 13.1598 10.312 13.2014C10.2124 13.243 10.1055 13.2645 9.99753 13.2645Z" fill="#669DF6"/>
<path d="M9.99755 15.6348C10.4477 15.6348 10.8127 15.2698 10.8127 14.8197C10.8127 14.3695 10.4477 14.0045 9.99755 14.0045C9.54736 14.0045 9.1824 14.3695 9.1824 14.8197C9.1824 15.2698 9.54736 15.6348 9.99755 15.6348Z" fill="#669DF6"/>
<path d="M9.99755 8.8669C10.4477 8.8669 10.8127 8.50195 10.8127 8.05176C10.8127 7.60157 10.4477 7.23661 9.99755 7.23661C9.54736 7.23661 9.1824 7.60157 9.1824 8.05176C9.1824 8.50195 9.54736 8.8669 9.99755 8.8669Z" fill="#669DF6"/>
<path d="M9.99755 6.48612C10.4477 6.48612 10.8127 6.12117 10.8127 5.67098C10.8127 5.22079 10.4477 4.85583 9.99755 4.85583C9.54736 4.85583 9.1824 5.22079 9.1824 5.67098C9.1824 6.12117 9.54736 6.48612 9.99755 6.48612Z" fill="#669DF6"/>
<path d="M13.2152 8.48093C13.0027 8.47815 12.7997 8.39251 12.6495 8.24225C12.4992 8.09199 12.4136 7.88899 12.4108 7.67651V5.66011C12.3976 5.54594 12.4088 5.43028 12.4434 5.32071C12.4781 5.21115 12.5356 5.11016 12.6121 5.02437C12.6885 4.93858 12.7823 4.86993 12.8872 4.82292C12.992 4.77591 13.1056 4.75161 13.2206 4.75161C13.3355 4.75161 13.4491 4.77591 13.554 4.82292C13.6589 4.86993 13.7526 4.93858 13.8291 5.02437C13.9055 5.11016 13.963 5.21115 13.9977 5.32071C14.0324 5.43028 14.0435 5.54594 14.0303 5.66011V7.67651C14.0275 7.89084 13.9404 8.09543 13.7878 8.24599C13.6353 8.39654 13.4296 8.48095 13.2152 8.48093Z" fill="#4285F4"/>
<path d="M13.2259 4.09434C13.6761 4.09434 14.0411 3.72938 14.0411 3.27919C14.0411 2.829 13.6761 2.46405 13.2259 2.46405C12.7757 2.46405 12.4108 2.829 12.4108 3.27919C12.4108 3.72938 12.7757 4.09434 13.2259 4.09434Z" fill="#4285F4"/>
<path d="M13.2259 13.2111C13.6761 13.2111 14.0411 12.8461 14.0411 12.3959C14.0411 11.9457 13.6761 11.5808 13.2259 11.5808C12.7757 11.5808 12.4108 11.9457 12.4108 12.3959C12.4108 12.8461 12.7757 13.2111 13.2259 13.2111Z" fill="#4285F4"/>
<path d="M13.2259 10.8298C13.6761 10.8298 14.0411 10.4648 14.0411 10.0146C14.0411 9.56443 13.6761 9.19948 13.2259 9.19948C12.7757 9.19948 12.4108 9.56443 12.4108 10.0146C12.4108 10.4648 12.7757 10.8298 13.2259 10.8298Z" fill="#4285F4"/>
<path d="M6.76912 13.2111C7.21931 13.2111 7.58427 12.8461 7.58427 12.3959C7.58427 11.9457 7.21931 11.5808 6.76912 11.5808C6.31893 11.5808 5.95398 11.9457 5.95398 12.3959C5.95398 12.8461 6.31893 13.2111 6.76912 13.2111Z" fill="#AECBFA"/>
<path d="M6.76912 6.48612C7.21931 6.48612 7.58427 6.12117 7.58427 5.67098C7.58427 5.22079 7.21931 4.85583 6.76912 4.85583C6.31893 4.85583 5.95398 5.22079 5.95398 5.67098C5.95398 6.12117 6.31893 6.48612 6.76912 6.48612Z" fill="#AECBFA"/>
<path d="M6.76912 4.09434C7.21931 4.09434 7.58427 3.72938 7.58427 3.27919C7.58427 2.829 7.21931 2.46405 6.76912 2.46405C6.31893 2.46405 5.95398 2.829 5.95398 3.27919C5.95398 3.72938 6.31893 4.09434 6.76912 4.09434Z" fill="#AECBFA"/>
<path d="M6.77987 10.8299C6.56914 10.8301 6.36653 10.7486 6.21456 10.6026C6.06258 10.4567 5.97304 10.2575 5.96472 10.0469V8.00909C5.96472 7.79574 6.04947 7.59114 6.20033 7.44028C6.35119 7.28942 6.55579 7.20467 6.76914 7.20467C6.98248 7.20467 7.18709 7.28942 7.33795 7.44028C7.48881 7.59114 7.57356 7.79574 7.57356 8.00909V10.0469C7.56803 10.2547 7.48231 10.4523 7.33435 10.5982C7.18639 10.7442 6.98768 10.8272 6.77987 10.8299Z" fill="#AECBFA"/>
</svg>
