<svg width="20" height="20" viewBox="0 0 20 20" fill="none" xmlns="http://www.w3.org/2000/svg">
<g clip-path="url(#clip0_10325_129871)">
<g clip-path="url(#clip1_10325_129871)">
<path d="M19.72 15.233C18.9384 14.2188 17.9336 13.3982 16.7835 12.8352V2.98608C16.7827 2.19317 16.4675 1.43294 15.9069 0.872171C15.3463 0.311404 14.5862 -0.00410091 13.7933 -0.00512695H2.98974C2.19673 -0.00413903 1.43648 0.311322 0.875731 0.872069C0.314985 1.43282 -0.000476918 2.19307 -0.00146484 2.98608V17.0142C-0.000438799 17.8071 0.315067 18.5673 0.875833 19.1278C1.4366 19.6884 2.19683 20.0037 2.98974 20.0044H13.7933C14.0946 20.0045 14.3942 19.9596 14.6823 19.8713C14.6889 19.8693 14.6932 19.8643 14.6996 19.8621C15.6912 19.7216 16.6451 19.3866 17.5067 18.8762C18.3683 18.3658 19.1205 17.6902 19.7201 16.8881C19.9017 16.6505 20.0002 16.3597 20.0002 16.0605C20.0002 15.7614 19.9017 15.4706 19.72 15.233ZM1.0158 17.0143V2.98614C1.01626 2.46275 1.22437 1.96093 1.59445 1.59083C1.96454 1.22074 2.46636 1.01261 2.98974 1.01214H13.7933C14.3165 1.01283 14.8181 1.22105 15.1879 1.59111C15.5578 1.96118 15.7658 2.46286 15.7662 2.98608V12.4597C15.2082 12.294 14.6296 12.2076 14.0476 12.2031C12.9349 12.2478 11.8468 12.5435 10.8647 13.0682C9.88252 13.593 9.03177 14.333 8.3761 15.233C8.19348 15.4703 8.09445 15.7612 8.09445 16.0606C8.09445 16.36 8.19348 16.6509 8.3761 16.8881C9.03115 17.7291 9.83688 18.4409 10.7522 18.9872H2.98974C2.46652 18.9868 1.96484 18.7788 1.59478 18.4089C1.22471 18.0391 1.01649 17.5375 1.0158 17.0143V17.0143ZM18.9134 16.2682C18.3579 17.0501 17.6303 17.6941 16.7867 18.1505C15.9431 18.6069 15.006 18.8636 14.0476 18.9008C13.0893 18.8635 12.1524 18.6067 11.309 18.1503C10.4656 17.6939 9.73816 17.05 9.18277 16.2682C9.13642 16.2089 9.11124 16.1358 9.11124 16.0606C9.11124 15.9853 9.13642 15.9123 9.18277 15.853C9.73788 15.0709 10.4652 14.4268 11.3087 13.9704C12.1522 13.5139 13.0892 13.2573 14.0476 13.2204C15.0061 13.2572 15.9433 13.5137 16.787 13.9702C17.6306 14.4266 18.3581 15.0708 18.9134 15.853C18.9597 15.9122 18.9849 15.9853 18.9849 16.0606C18.9849 16.1358 18.9597 16.2089 18.9134 16.2682V16.2682Z" fill="#171723"/>
<path d="M14.0475 13.6943C13.5795 13.6943 13.122 13.8331 12.7328 14.0931C12.3437 14.3532 12.0404 14.7227 11.8613 15.1551C11.6822 15.5875 11.6353 16.0633 11.7266 16.5223C11.8179 16.9814 12.0433 17.403 12.3742 17.7339C12.7052 18.0649 13.1268 18.2902 13.5858 18.3815C14.0449 18.4729 14.5207 18.426 14.9531 18.2469C15.3854 18.0678 15.755 17.7645 16.015 17.3753C16.2751 16.9862 16.4138 16.5287 16.4138 16.0607C16.4132 15.4333 16.1637 14.8318 15.72 14.3881C15.2764 13.9445 14.6749 13.695 14.0475 13.6943ZM14.0475 17.4097C13.7807 17.4097 13.5198 17.3306 13.298 17.1824C13.0761 17.0341 12.9032 16.8234 12.8011 16.5769C12.699 16.3304 12.6723 16.0592 12.7243 15.7975C12.7764 15.5358 12.9049 15.2954 13.0936 15.1067C13.2822 14.9181 13.5226 14.7896 13.7843 14.7375C14.046 14.6855 14.3173 14.7122 14.5638 14.8143C14.8103 14.9164 15.021 15.0893 15.1692 15.3112C15.3174 15.533 15.3966 15.7939 15.3966 16.0607C15.3963 16.4184 15.2541 16.7614 15.0011 17.0143C14.7482 17.2672 14.4052 17.4095 14.0475 17.4097Z" fill="#171723"/>
<path d="M11.8542 9.99972C11.8542 9.93292 11.8411 9.86676 11.8155 9.80503C11.79 9.74331 11.7525 9.68722 11.7053 9.63998C11.658 9.59274 11.6019 9.55528 11.5402 9.52973C11.4785 9.50418 11.4123 9.49105 11.3455 9.49109H3.20736C3.07247 9.49109 2.94309 9.54468 2.84771 9.64006C2.75232 9.73545 2.69873 9.86483 2.69873 9.99972C2.69873 10.1346 2.75232 10.264 2.84771 10.3594C2.94309 10.4548 3.07247 10.5084 3.20736 10.5084H11.3455C11.4123 10.5084 11.4785 10.4953 11.5402 10.4697C11.6019 10.4442 11.658 10.4067 11.7053 10.3595C11.7525 10.3122 11.79 10.2561 11.8155 10.1944C11.8411 10.1327 11.8542 10.0665 11.8542 9.99972Z" fill="#171723"/>
<path d="M3.20736 7.79522H14.0784C14.2133 7.79522 14.3427 7.74163 14.4381 7.64625C14.5335 7.55086 14.5871 7.42149 14.5871 7.28659C14.5871 7.15169 14.5335 7.02232 14.4381 6.92693C14.3427 6.83154 14.2133 6.77795 14.0784 6.77795H3.20736C3.07247 6.77795 2.94309 6.83154 2.84771 6.92693C2.75232 7.02232 2.69873 7.15169 2.69873 7.28659C2.69873 7.42149 2.75232 7.55086 2.84771 7.64625C2.94309 7.74163 3.07247 7.79522 3.20736 7.79522Z" fill="#171723"/>
<path d="M3.20736 5.08233H14.0784C14.2133 5.08233 14.3427 5.02874 14.4381 4.93336C14.5335 4.83797 14.5871 4.7086 14.5871 4.5737C14.5871 4.4388 14.5335 4.30943 14.4381 4.21404C14.3427 4.11865 14.2133 4.06506 14.0784 4.06506H3.20736C3.07247 4.06506 2.94309 4.11865 2.84771 4.21404C2.75232 4.30943 2.69873 4.4388 2.69873 4.5737C2.69873 4.7086 2.75232 4.83797 2.84771 4.93336C2.94309 5.02874 3.07247 5.08233 3.20736 5.08233Z" fill="#171723"/>
</g>
</g>
<defs>
<clipPath id="clip0_10325_129871">
<rect width="20" height="20" fill="white"/>
</clipPath>
<clipPath id="clip1_10325_129871">
<rect width="20" height="20" fill="white"/>
</clipPath>
</defs>
</svg>
