<svg width="20" height="20" viewBox="0 0 20 20" fill="none" xmlns="http://www.w3.org/2000/svg">
<path d="M10.211 0.0213856C10.015 0.00712852 9.81185 0 9.61225 0C9.40909 0 9.20948 0.00712852 9.01343 0.0213856C8.40596 0.428023 7.92835 1.0009 7.63763 1.67162C7.04063 2.91529 6.6345 4.24185 6.4329 5.60657H12.7951C12.5925 4.24163 12.1852 2.91505 11.5868 1.67162C11.2961 1.0009 10.8185 0.428026 10.211 0.0213856Z" fill="#171723"/>
<path d="M12.5242 0.456215C12.8979 1.06722 13.2061 1.71594 13.4438 2.39161C13.8121 3.43526 14.0795 4.51185 14.2422 5.60658H18.2841C17.7358 4.39418 16.9402 3.30973 15.9483 2.4228C14.9564 1.53586 13.7901 0.866014 12.5242 0.456215Z" fill="#171723"/>
<path d="M14.6409 9.93807C15.276 9.9355 15.9052 10.0586 16.4924 10.3002C17.0797 10.5418 17.6133 10.8972 18.0626 11.346C18.2614 11.5451 18.4427 11.7609 18.6044 11.9911H18.7933C19.0146 11.1828 19.1261 10.3484 19.1248 9.51035C19.1253 8.67378 19.015 7.84083 18.7969 7.03319H14.42C14.4948 7.82446 14.5328 8.65018 14.534 9.51035C14.534 9.65649 14.534 9.79906 14.5305 9.94163C14.5661 9.93807 14.6053 9.93807 14.6409 9.93807Z" fill="#171723"/>
<path fill-rule="evenodd" clip-rule="evenodd" d="M19.8972 18.9895L17.7672 16.8691C18.2581 16.1459 18.4809 15.2739 18.3972 14.4039C18.3134 13.5338 17.9283 12.7204 17.3085 12.1041C16.5991 11.4008 15.6406 11.0061 14.6417 11.0061C13.6428 11.0061 12.6843 11.4008 11.9749 12.1041C11.6244 12.4526 11.3462 12.867 11.1563 13.3234C10.9665 13.7798 10.8687 14.2692 10.8687 14.7635C10.8687 15.2578 10.9665 15.7472 11.1563 16.2036C11.3462 16.66 11.6244 17.0744 11.9749 17.4229C12.5967 18.0395 13.413 18.4215 14.2848 18.5039C15.1566 18.5863 16.03 18.3639 16.7563 17.8746L18.8913 20L19.8972 18.9895ZM16.3025 16.4124C15.8607 16.8504 15.2638 17.0961 14.6417 17.0961C14.0196 17.0961 13.4226 16.8504 12.9808 16.4124C12.7633 16.1964 12.5907 15.9395 12.4729 15.6565C12.3551 15.3735 12.2944 15.07 12.2944 14.7635C12.2944 14.457 12.3551 14.1535 12.4729 13.8705C12.5907 13.5875 12.7633 13.3306 12.9808 13.1146C13.4225 12.6765 14.0195 12.4306 14.6417 12.4306C15.2638 12.4306 15.8608 12.6765 16.3025 13.1146C16.5199 13.3306 16.6925 13.5875 16.8103 13.8705C16.9281 14.1535 16.9887 14.457 16.9887 14.7635C16.9887 15.07 16.9281 15.3735 16.8103 15.6565C16.6925 15.9395 16.5199 16.1964 16.3025 16.4124Z" fill="#171723"/>
<path d="M5.78424 16.6309C6.02038 17.3071 6.32869 17.956 6.70382 18.5663C5.43759 18.1571 4.27099 17.4874 3.27902 16.6004C2.28705 15.7134 1.49165 14.6287 0.943963 13.4159H4.98584C5.14811 14.5107 5.41548 15.5873 5.78424 16.6309Z" fill="#171723"/>
<path d="M4.98584 5.60658H0.943963C1.49165 4.39381 2.28705 3.30905 3.27902 2.42205C4.27099 1.53504 5.43759 0.865417 6.70382 0.456215C6.32869 1.06645 6.02038 1.71533 5.78424 2.39161C5.4159 3.43527 5.14854 4.51186 4.98584 5.60658Z" fill="#171723"/>
<path d="M0.102855 9.50946C0.101581 10.3475 0.213081 11.1819 0.434354 11.9902H4.80771C4.73286 11.1989 4.69366 10.3685 4.69366 9.50946C4.69366 8.65047 4.73286 7.82356 4.80771 7.0323H0.430789C0.212676 7.83994 0.102408 8.67289 0.102855 9.50946Z" fill="#171723"/>
<path d="M7.63728 17.3553C7.04142 16.11 6.63534 14.7824 6.43255 13.4168H9.98972C9.86369 13.8548 9.80009 14.3084 9.80081 14.7641C9.79599 16.0065 10.2754 17.2019 11.1374 18.0967C10.9036 18.4668 10.5862 18.7769 10.2107 19.002C10.0146 19.0163 9.81148 19.0234 9.61188 19.0234C9.40874 19.0234 9.20914 19.0163 9.01308 19.002C8.40654 18.5959 7.92909 18.0244 7.63728 17.3553Z" fill="#171723"/>
<path d="M13.1083 9.51035C13.1083 9.73847 13.1048 9.96302 13.1012 10.1876C12.3917 10.4206 11.7469 10.8174 11.2193 11.346C11.0205 11.545 10.8392 11.7609 10.6775 11.9911H6.24356C6.15885 11.1669 6.11721 10.3389 6.11881 9.51035C6.11786 8.68313 6.15831 7.85637 6.24 7.03319H12.9872C13.0656 7.81376 13.1083 8.64067 13.1083 9.51035Z" fill="#171723"/>
</svg>
