<svg width="20" height="20" viewBox="0 0 20 20" fill="none" xmlns="http://www.w3.org/2000/svg">
<g clip-path="url(#clip0_17249_252013)">
<path d="M15.9322 0H4.06783C1.82437 0 0 1.82486 0 4.06783V15.9322C0 18.1751 1.82437 20 4.06783 20H15.9322C18.1751 20 20 18.1751 20 15.9322V4.06783C20 1.82486 18.1751 0 15.9322 0ZM18.983 4.06783V9.531H10.3404V1.01696H15.9322C17.6145 1.01696 18.983 2.38548 18.983 4.06783ZM4.06783 1.01696H9.32344V9.531H1.01696V4.06783C1.01696 2.38548 2.38548 1.01696 4.06783 1.01696ZM1.01696 15.9322V10.548H9.32344V18.983H4.06783C2.38548 18.983 1.01696 17.6145 1.01696 15.9322ZM15.9322 18.983H10.3404V10.548H18.983V15.9322C18.983 17.6145 17.6145 18.983 15.9322 18.983Z" fill="#171723"/>
</g>
<defs>
<clipPath id="clip0_17249_252013">
<rect width="20" height="20" fill="white"/>
</clipPath>
</defs>
</svg>
