<svg width="20" height="20" viewBox="0 0 20 20" fill="none" xmlns="http://www.w3.org/2000/svg">
<path fill-rule="evenodd" clip-rule="evenodd" d="M15.8333 1.66664C17.214 1.66664 18.3333 2.78593 18.3333 4.16664V15.8333C18.3333 17.214 17.214 18.3333 15.8333 18.3333H4.16663C2.78591 18.3333 1.66663 17.214 1.66663 15.8333V4.16664C1.66663 2.78593 2.78591 1.66664 4.16663 1.66664H15.8333ZM15.1619 4.353C14.8048 4.26373 14.4424 4.48096 14.353 4.83803L12.4568 12.4218L10.6412 6.06687C10.5595 5.78068 10.2976 5.58347 9.99996 5.58347C9.73963 5.58348 9.50672 5.73419 9.39775 5.96352L9.35868 6.06687L7.54228 12.4218L5.64693 4.83803C5.55754 4.48095 5.19514 4.26372 4.83801 4.353C4.48094 4.44239 4.26371 4.8048 4.35299 5.16192L6.85299 15.1619C6.92622 15.4545 7.18702 15.6613 7.48857 15.6665C7.7903 15.6715 8.05833 15.4732 8.14124 15.1831L9.99996 8.67755L11.8587 15.1831C11.9416 15.4732 12.2096 15.6715 12.5114 15.6665C12.8129 15.6613 13.0737 15.4545 13.1469 15.1619L15.6469 5.16192C15.7362 4.80479 15.519 4.44238 15.1619 4.353Z" fill="#171723"/>
</svg>
