<svg width="20" height="20" viewBox="0 0 20 20" fill="none" xmlns="http://www.w3.org/2000/svg">
<path fill-rule="evenodd" clip-rule="evenodd" d="M15.8333 18.3333H4.16666L4.03808 18.3301C2.75971 18.2653 1.73468 17.2403 1.66991 15.9619L1.66666 15.8333V4.16666C1.66666 2.78595 2.78594 1.66666 4.16666 1.66666H15.8333C17.214 1.66666 18.3333 2.78595 18.3333 4.16666V15.8333C18.3333 17.1709 17.2829 18.2632 15.9619 18.3301L15.8333 18.3333ZM15.8333 17.0833H4.16666C3.4763 17.0833 2.91666 16.5237 2.91666 15.8333V4.16666C2.91666 3.47631 3.4763 2.91666 4.16666 2.91666H15.8333C16.5237 2.91666 17.0833 3.47631 17.0833 4.16666V15.8333C17.0833 16.5237 16.5237 17.0833 15.8333 17.0833Z" fill="#171723"/>
<path d="M14.3937 4.84863C14.4774 4.51382 14.8165 4.31012 15.1514 4.39371C15.4862 4.47742 15.6899 4.81655 15.6063 5.15136L13.1063 15.1514C13.0377 15.4258 12.7934 15.6202 12.5106 15.625C12.2277 15.6297 11.9772 15.4437 11.8994 15.1717L9.99999 8.52376L8.10058 15.1717C8.02282 15.4437 7.77225 15.6297 7.48941 15.625C7.2066 15.6202 6.96231 15.4258 6.89371 15.1514L4.39371 5.15136C4.31011 4.81655 4.51381 4.47742 4.84862 4.39371C5.18343 4.31012 5.52257 4.51382 5.60627 4.84863L7.53987 12.5846L9.3994 6.07829L9.43521 5.98144C9.53736 5.7664 9.75589 5.625 9.99999 5.625C10.279 5.625 10.5239 5.81003 10.6006 6.07829L12.4593 12.5846L14.3937 4.84863Z" fill="#171723"/>
</svg>
