<svg width="20" height="20" viewBox="0 0 20 20" fill="none" xmlns="http://www.w3.org/2000/svg">
<g clip-path="url(#clip0_10314_145595)">
<g clip-path="url(#clip1_10314_145595)">
<path d="M9.99674 9.9561C10.3559 9.95546 10.7068 9.8484 11.0052 9.64844C11.3036 9.44847 11.536 9.16458 11.6731 8.83261C11.8102 8.50064 11.8459 8.13549 11.7756 7.78326C11.7053 7.43103 11.5322 7.10754 11.2782 6.85362C11.0241 6.59971 10.7006 6.42676 10.3483 6.35663C9.99606 6.2865 9.63092 6.32233 9.29901 6.4596C8.9671 6.59686 8.68331 6.8294 8.48349 7.12785C8.28366 7.4263 8.17675 7.77727 8.17627 8.13644C8.17771 8.61875 8.37 9.08087 8.71112 9.42183C9.05223 9.7628 9.51444 9.95488 9.99674 9.9561ZM9.99674 7.155C10.1913 7.15564 10.3813 7.21395 10.5427 7.32256C10.7042 7.43117 10.8298 7.5852 10.9037 7.76518C10.9775 7.94516 10.9964 8.14301 10.9579 8.33372C10.9194 8.52443 10.8252 8.69943 10.6872 8.83661C10.5492 8.97378 10.3737 9.06697 10.1827 9.1044C9.99182 9.14182 9.79408 9.1218 9.61453 9.04686C9.43498 8.97193 9.28168 8.84544 9.17401 8.68339C9.06633 8.52134 9.00912 8.331 9.0096 8.13644C9.01137 7.87571 9.11611 7.62623 9.30102 7.44239C9.48593 7.25855 9.736 7.15524 9.99674 7.15498V7.155Z" fill="#171723"/>
<path d="M11.0775 10.3761H8.92172C8.37801 10.3759 7.85641 10.5913 7.47134 10.9751C7.08627 11.359 6.86917 11.8799 6.86768 12.4236V12.7841C6.86834 13.0213 6.96303 13.2486 7.13099 13.4161C7.29895 13.5836 7.52647 13.6776 7.76368 13.6777H12.2355C12.4727 13.6776 12.7002 13.5836 12.8682 13.4161C13.0362 13.2486 13.1309 13.0213 13.1315 12.7841V12.4236C13.13 11.8799 12.9129 11.359 12.5279 10.9751C12.1428 10.5913 11.6212 10.3759 11.0775 10.3761ZM12.2982 12.7841C12.2978 12.8004 12.2911 12.8159 12.2793 12.8272C12.2676 12.8385 12.2518 12.8447 12.2355 12.8444H7.76368C7.74739 12.8447 7.73165 12.8385 7.7199 12.8272C7.70815 12.8159 7.70136 12.8004 7.70102 12.7841V12.4236C7.70223 12.1008 7.83143 11.7917 8.06029 11.5641C8.28914 11.3365 8.59895 11.2089 8.92173 11.2095H11.0775C11.4003 11.2089 11.7101 11.3365 11.9389 11.5641C12.1678 11.7917 12.297 12.1008 12.2982 12.4236V12.7841Z" fill="#171723"/>
<path d="M18.7906 7.61973H17.4535C17.3197 7.20492 17.1512 6.80211 16.9498 6.41557L17.8989 5.46595C18.013 5.3525 18.1032 5.21728 18.1641 5.0683C18.225 4.91932 18.2554 4.75962 18.2534 4.59868C18.2534 4.44255 18.222 4.28801 18.1613 4.14418C18.1006 4.00035 18.0117 3.87013 17.8999 3.76122L16.2347 2.08529C16.0065 1.86503 15.7014 1.74252 15.3844 1.74381C15.0673 1.74511 14.7632 1.87012 14.5368 2.09225L13.5831 3.04646C13.195 2.84406 12.7906 2.6748 12.3741 2.54048V1.20014C12.3757 1.04209 12.3458 0.885307 12.2861 0.73897C12.2265 0.592632 12.1382 0.459686 12.0265 0.34792C11.9148 0.236155 11.7819 0.147818 11.6356 0.0880862C11.4894 0.0283545 11.3327 -0.00157084 11.1747 6.35075e-05H8.82536C8.50602 -0.000937628 8.19932 0.124861 7.97258 0.34985C7.74584 0.57484 7.61758 0.880639 7.61595 1.20014V2.54408C7.20296 2.67772 6.80188 2.84574 6.41693 3.04638L5.45627 2.08529C5.22797 1.86471 4.92257 1.74208 4.60519 1.74356C4.28781 1.74505 3.98356 1.87053 3.75733 2.09324L2.10804 3.75327C1.99416 3.86269 1.90347 3.99394 1.84138 4.13917C1.77928 4.28441 1.74705 4.44067 1.7466 4.59863C1.74464 4.75957 1.77501 4.91927 1.8359 5.06825C1.89679 5.21723 1.98697 5.35245 2.10108 5.4659L3.04966 6.41495C2.84819 6.80168 2.67958 7.20468 2.54561 7.61968H1.2104C0.890945 7.61864 0.584119 7.74441 0.357213 7.96939C0.130308 8.19437 0.00184518 8.50019 0 8.8198V11.1703C0.000455083 11.4912 0.128158 11.7989 0.355084 12.0257C0.58201 12.2526 0.889621 12.3801 1.21041 12.3803H2.5463C2.68021 12.795 2.84875 13.1978 3.05016 13.5843L2.10009 14.5341C1.8754 14.7608 1.74933 15.0671 1.74933 15.3864C1.74933 15.7057 1.8754 16.0121 2.10009 16.2388L3.76528 17.9147C3.99128 18.1338 4.2936 18.2564 4.60829 18.2565C4.92774 18.2558 5.23439 18.1308 5.46322 17.9078L6.4177 16.9528C6.80241 17.1533 7.20323 17.3213 7.61595 17.4549V18.7999C7.61758 19.1194 7.74584 19.4252 7.97258 19.6502C8.19933 19.8751 8.50602 20.0009 8.82536 19.9999H11.1747C11.3327 20.0016 11.4894 19.9717 11.6357 19.9119C11.7819 19.8522 11.9148 19.7639 12.0265 19.6521C12.1382 19.5403 12.2265 19.4074 12.2862 19.2611C12.3459 19.1147 12.3758 18.9579 12.3742 18.7999V17.4585C12.7904 17.3242 13.1945 17.155 13.5823 16.9528L14.5438 17.9147C14.7694 18.1337 15.0715 18.2559 15.3858 18.2555C15.7059 18.2552 16.0133 18.1301 16.2427 17.9068L17.9 16.2388C18.1248 16.0119 18.2508 15.7053 18.2506 15.3858C18.2504 15.0662 18.124 14.7598 17.899 14.5331L16.9493 13.5838C17.1505 13.1975 17.319 12.7949 17.4528 12.3804H18.7906C19.1113 12.3801 19.4188 12.2526 19.6455 12.0257C19.8723 11.7988 19.9998 11.4912 20 11.1704V8.8198C19.9984 8.50031 19.8701 8.19452 19.6434 7.96954C19.4167 7.74455 19.11 7.61874 18.7906 7.61973ZM10.0001 16.812C8.96236 16.8162 7.93752 16.5821 7.00444 16.1277C6.07137 15.6734 5.25495 15.0108 4.61804 14.1912C3.98112 13.3715 3.5407 12.4165 3.33067 11.3998C3.12064 10.383 3.1466 9.33162 3.40656 8.32649L3.40676 8.32581C3.72057 7.09032 4.37474 5.96778 5.29482 5.08593C6.21489 4.20408 7.36391 3.59835 8.61113 3.33766C9.85834 3.07697 11.1537 3.1718 12.3497 3.61136C13.5456 4.05092 14.5943 4.81754 15.3763 5.824C16.1582 6.83046 16.6421 8.03632 16.7728 9.30435C16.9035 10.5724 16.6758 11.8517 16.1156 12.9966C15.5554 14.1415 14.6852 15.1062 13.6041 15.7807C12.5229 16.4552 11.2742 16.8125 10.0001 16.812ZM15.2488 2.81845C15.2849 2.78294 15.3331 2.76239 15.3838 2.76092C15.4344 2.75945 15.4837 2.77715 15.5218 2.8105L17.187 4.48643C17.203 4.50226 17.2156 4.52115 17.2242 4.54198C17.2327 4.5628 17.237 4.58512 17.2367 4.60763C17.2369 4.6334 17.232 4.65897 17.2223 4.68285C17.2126 4.70672 17.1982 4.72843 17.1801 4.74671L16.4083 5.51882C15.8823 4.76807 15.2295 4.11482 14.4792 3.58844L15.2488 2.81845ZM8.63273 1.20014C8.63313 1.1754 8.63846 1.151 8.64841 1.12835C8.65836 1.1057 8.67272 1.08527 8.69066 1.06825C8.7086 1.05122 8.72975 1.03795 8.75288 1.02921C8.77602 1.02047 8.80066 1.01644 8.82536 1.01734H11.1747C11.1989 1.01644 11.2231 1.02055 11.2457 1.02942C11.2682 1.03829 11.2887 1.05172 11.3059 1.06887C11.323 1.08603 11.3365 1.10654 11.3453 1.12913C11.3542 1.15171 11.3583 1.17588 11.3574 1.20013V2.29574C10.4569 2.12727 9.53301 2.12777 8.63273 2.29722V1.20014ZM2.81998 4.74669C2.80182 4.72841 2.78746 4.7067 2.77774 4.68282C2.76803 4.65895 2.76315 4.63338 2.76339 4.60761C2.76356 4.58327 2.76877 4.55923 2.77868 4.53701C2.78859 4.51478 2.80299 4.49485 2.82098 4.47846L4.47027 2.81845C4.50707 2.78371 4.55539 2.76379 4.60597 2.76251C4.65654 2.76123 4.70581 2.77867 4.74432 2.8115L5.52074 3.5883C4.7704 4.11464 4.11751 4.76781 3.59138 5.51849L2.81998 4.74669ZM1.21041 11.363C1.18505 11.3631 1.15991 11.3581 1.13645 11.3485C1.11299 11.3388 1.09166 11.3247 1.07367 11.3068C1.05569 11.2889 1.04141 11.2676 1.03165 11.2442C1.02189 11.2208 1.01684 11.1956 1.01678 11.1703V8.8198C1.01949 8.77031 1.0411 8.72375 1.07713 8.68974C1.11316 8.65572 1.16087 8.63684 1.21041 8.63701H2.30011C2.13129 9.53783 2.13139 10.4622 2.30041 11.363L1.21041 11.363ZM4.75128 17.1815C4.71515 17.217 4.66694 17.2376 4.61631 17.2391C4.56568 17.2405 4.51636 17.2228 4.47822 17.1895L2.82098 15.5215C2.80289 15.5041 2.78848 15.4832 2.7786 15.4602C2.76873 15.4371 2.76359 15.4122 2.7635 15.3871C2.7634 15.362 2.76835 15.3371 2.77805 15.314C2.78775 15.2908 2.802 15.2698 2.81996 15.2523L3.59192 14.4807C4.11814 15.2314 4.77109 15.8846 5.52148 16.411L4.75128 17.1815ZM11.3574 18.7999C11.3583 18.8241 11.3542 18.8483 11.3453 18.8709C11.3365 18.8934 11.323 18.9139 11.3059 18.9311C11.2887 18.9483 11.2682 18.9617 11.2457 18.9706C11.2231 18.9794 11.1989 18.9835 11.1747 18.9826H8.82536C8.80066 18.9835 8.77602 18.9795 8.75289 18.9708C8.72976 18.962 8.7086 18.9488 8.69066 18.9317C8.67272 18.9147 8.65836 18.8943 8.64841 18.8716C8.63847 18.849 8.63314 18.8246 8.63273 18.7999V17.7017C9.533 17.8713 10.4569 17.8718 11.3574 17.7033L11.3574 18.7999ZM17.1791 15.2513C17.1972 15.2688 17.2117 15.2898 17.2215 15.313C17.2314 15.3362 17.2364 15.3612 17.2364 15.3864C17.2364 15.4116 17.2314 15.4366 17.2215 15.4598C17.2117 15.483 17.1972 15.504 17.1791 15.5215L15.5298 17.1815C15.4931 17.2165 15.4448 17.2366 15.3941 17.2379C15.3435 17.2391 15.2941 17.2215 15.2557 17.1885L14.4784 16.4108C15.2288 15.8843 15.8817 15.231 16.4078 14.4802L17.1791 15.2513ZM18.9833 11.1703C18.9832 11.2214 18.9629 11.2703 18.9268 11.3065C18.8907 11.3426 18.8417 11.3629 18.7907 11.363H17.6987C17.8677 10.4622 17.8678 9.53781 17.699 8.63699H18.7906C18.84 8.63702 18.8875 8.65599 18.9234 8.68999C18.9592 8.72399 18.9806 8.77044 18.9833 8.81978L18.9833 11.1703Z" fill="#171723"/>
</g>
</g>
<defs>
<clipPath id="clip0_10314_145595">
<rect width="20" height="20" fill="white"/>
</clipPath>
<clipPath id="clip1_10314_145595">
<rect width="20" height="20" fill="white"/>
</clipPath>
</defs>
</svg>
