<svg width="20" height="20" viewBox="0 0 20 20" fill="none" xmlns="http://www.w3.org/2000/svg">
<g clip-path="url(#clip0_10314_145596)">
<path d="M9.9987 9.95617C10.358 9.95561 10.709 9.84858 11.0075 9.6486C11.306 9.44863 11.5385 9.16468 11.6757 8.83262C11.8129 8.50056 11.8486 8.13529 11.7783 7.78295C11.7081 7.43061 11.5349 7.107 11.2808 6.85301C11.0267 6.59901 10.703 6.42602 10.3506 6.35589C9.99827 6.28576 9.63302 6.32163 9.30102 6.45897C8.96903 6.59631 8.68518 6.82897 8.48534 7.12755C8.2855 7.42612 8.17863 7.77723 8.17822 8.13651C8.17967 8.61881 8.37196 9.08094 8.71307 9.4219C9.05419 9.76286 9.5164 9.95494 9.9987 9.95617Z" fill="#171723"/>
<path d="M11.0794 10.3752H8.92366C8.37996 10.375 7.85836 10.5904 7.47329 10.9743C7.08822 11.3581 6.87113 11.879 6.86963 12.4227V12.7833C6.87013 13.0206 6.96474 13.248 7.13271 13.4157C7.30068 13.5834 7.5283 13.6776 7.76563 13.6776H12.2375C12.4747 13.6775 12.7022 13.5833 12.87 13.4156C13.0379 13.2479 13.1323 13.0205 13.1326 12.7833V12.4228C13.1312 11.8792 12.9142 11.3584 12.5293 10.9745C12.1444 10.5907 11.623 10.3752 11.0794 10.3752Z" fill="#171723"/>
<path d="M18.7895 7.61972H17.4294C17.3049 7.20735 17.1405 6.80811 16.9386 6.42765L17.8988 5.46693L17.8999 5.46591C18.0138 5.35216 18.1038 5.21671 18.1645 5.06758C18.2252 4.91845 18.2554 4.75866 18.2533 4.59765C18.2531 4.44184 18.2217 4.28766 18.161 4.14417C18.1003 4.00069 18.0115 3.8708 17.8999 3.76216L16.2347 2.08523C16.0063 1.86495 15.701 1.74244 15.3838 1.74374C15.0666 1.74504 14.7623 1.87004 14.5357 2.09219L13.5747 3.05371C13.1903 2.85129 12.7885 2.68394 12.3741 2.5537V1.20108C12.3739 0.882607 12.2473 0.577243 12.0222 0.352048C11.7971 0.126853 11.4919 0.000237548 11.1736 5.83047e-06H8.82531C8.50571 -0.000987259 8.19876 0.124918 7.97183 0.350094C7.7449 0.575269 7.61653 0.881319 7.61488 1.20108V2.56104C7.20273 2.68603 6.80366 2.85072 6.42329 3.0528L5.45622 2.08525C5.22792 1.86466 4.92251 1.74204 4.60514 1.74352C4.28776 1.745 3.98351 1.87048 3.75728 2.09319L2.108 3.75424C1.99427 3.86342 1.9036 3.99433 1.84134 4.1392C1.77909 4.28408 1.74652 4.43997 1.74557 4.59767C1.74365 4.75899 1.77412 4.91905 1.83518 5.06837C1.89625 5.21769 1.98665 5.35322 2.10104 5.46693L3.06141 6.42777C2.85899 6.80817 2.69403 7.20737 2.56884 7.61972H1.20941C0.890064 7.61871 0.583368 7.74451 0.356629 7.9695C0.12989 8.1945 0.00163051 8.5003 0 8.8198V11.1703C0.000228921 11.4911 0.127722 11.7988 0.35448 12.0256C0.581239 12.2525 0.888723 12.3801 1.20941 12.3803H2.57263C2.70184 12.7905 2.86622 13.1888 3.06395 13.5707L2.10208 14.5331C1.98931 14.6446 1.89974 14.7773 1.83855 14.9236C1.77736 15.0699 1.74576 15.2269 1.74557 15.3855C1.74538 15.5441 1.77661 15.7012 1.83745 15.8477C1.89829 15.9941 1.98754 16.1271 2.10004 16.2388L3.76423 17.9138C3.98991 18.1342 4.29283 18.2576 4.60823 18.2575C4.92789 18.2569 5.23467 18.1315 5.46316 17.9078L6.42521 16.9461C6.80751 17.1449 7.20662 17.3096 7.61789 17.4381V18.7989C7.61933 19.1186 7.74749 19.4246 7.97425 19.6498C8.201 19.875 8.50781 20.0009 8.82731 20H11.1766C11.4948 19.9995 11.7998 19.8728 12.0246 19.6477C12.2495 19.4225 12.3759 19.1172 12.3761 18.7989V17.4451C12.7899 17.3155 13.1911 17.1489 13.5749 16.9472L14.5428 17.9148C14.7688 18.1339 15.0711 18.2564 15.3858 18.2565C15.706 18.2558 16.0133 18.1304 16.2427 17.9068L17.8999 16.2388C18.1251 16.0123 18.2515 15.7057 18.2513 15.3862C18.2511 15.0667 18.1244 14.7603 17.8989 14.5341L16.9377 13.5724C17.1393 13.1916 17.3042 12.7924 17.4302 12.3803H18.7896C19.1104 12.3801 19.418 12.2526 19.6449 12.0257C19.8718 11.7989 19.9995 11.4912 20 11.1703V8.8198C19.9981 8.50018 19.8697 8.19435 19.6427 7.96938C19.4158 7.74441 19.109 7.61866 18.7895 7.61972ZM16.5663 11.7544C16.424 12.3416 16.1919 12.9032 15.8782 13.4194C15.2902 14.4476 14.4397 15.3009 13.4137 15.8921C12.8924 16.2037 12.3285 16.4377 11.7397 16.5865C11.7153 16.59 11.6912 16.5953 11.6675 16.6022C10.5452 16.8929 9.36643 16.8844 8.24844 16.5776C7.66253 16.4285 7.10084 16.1967 6.58027 15.8891C5.61979 15.326 4.81303 14.5344 4.23151 13.5846C4.19688 13.5282 4.15461 13.4769 4.1217 13.4194L4.11966 13.4165C3.81088 12.8897 3.57757 12.3222 3.42659 11.7306C3.11213 10.5903 3.11419 9.3858 3.43254 8.24658C3.57316 7.65872 3.80575 7.09678 4.1217 6.58157C4.70988 5.55204 5.56157 4.69786 6.58916 4.10691C7.10773 3.79044 7.67309 3.55808 8.26427 3.41845C8.78012 3.27638 9.31204 3.20104 9.84704 3.19428C9.89487 3.19316 9.93981 3.18522 9.98803 3.18513C10.5764 3.18194 11.1625 3.25775 11.7306 3.41052H11.7307L11.7406 3.4125C12.3321 3.56308 12.8984 3.79937 13.4216 4.11387C14.4496 4.70518 15.3003 5.56146 15.8851 6.5935C16.2018 7.11204 16.4337 7.67779 16.5723 8.26943C16.7322 8.83222 16.8111 9.41494 16.8066 10C16.8094 10.5932 16.7285 11.1838 16.5663 11.7544Z" fill="#171723"/>
</g>
<defs>
<clipPath id="clip0_10314_145596">
<rect width="20" height="20" fill="white"/>
</clipPath>
</defs>
</svg>
