<svg width="20" height="20" viewBox="0 0 20 20" fill="none" xmlns="http://www.w3.org/2000/svg">
<path fill-rule="evenodd" clip-rule="evenodd" d="M12.2908 2.46784C12.2741 2.13761 12.001 1.875 11.6667 1.875C11.8324 1.875 11.9914 1.94085 12.1086 2.05806C12.2145 2.16406 12.2827 2.30817 12.2908 2.46784Z" fill="#171723"/>
<path fill-rule="evenodd" clip-rule="evenodd" d="M11.4688 6.86453C11.7423 7.13802 12.1132 7.29167 12.5 7.29167H15.2083V10C15.2083 10.3452 15.4881 10.625 15.8333 10.625C16.1785 10.625 16.4583 10.3452 16.4583 10V6.66667C16.4583 6.50091 16.3925 6.34193 16.2753 6.22472L12.1086 2.05806C11.9914 1.94085 11.8324 1.875 11.6667 1.875H5.83332C5.22553 1.875 4.64264 2.11644 4.21287 2.54621C3.78309 2.97598 3.54165 3.55888 3.54165 4.16667V10C3.54165 10.3452 3.82147 10.625 4.16665 10.625C4.51183 10.625 4.79165 10.3452 4.79165 10V4.16667C4.79165 3.8904 4.9014 3.62545 5.09675 3.4301C5.2921 3.23475 5.55705 3.125 5.83332 3.125H11.0417V5.83333C11.0417 6.22011 11.1953 6.59104 11.4688 6.86453ZM12.2917 5.83333C12.2917 5.88859 12.3136 5.94158 12.3527 5.98065C12.3917 6.01972 12.4447 6.04167 12.5 6.04167H14.3244L12.2917 4.00888V5.83333Z" fill="#171723"/>
<path fill-rule="evenodd" clip-rule="evenodd" d="M15.8333 11.875C16.1785 11.875 16.4583 12.1548 16.4583 12.5V16.875H18.3333C18.6785 16.875 18.9583 17.1548 18.9583 17.5C18.9583 17.8452 18.6785 18.125 18.3333 18.125H15.8333C15.4881 18.125 15.2083 17.8452 15.2083 17.5V12.5C15.2083 12.1548 15.4881 11.875 15.8333 11.875Z" fill="#171723"/>
<path fill-rule="evenodd" clip-rule="evenodd" d="M8.95389 11.9123C9.20131 11.8228 9.47833 11.8977 9.64679 12.0999L11.25 14.0237L12.8532 12.0999C13.0216 11.8977 13.2987 11.8228 13.5461 11.9123C13.7935 12.0019 13.9583 12.2369 13.9583 12.5V17.5C13.9583 17.8452 13.6785 18.125 13.3333 18.125C12.9881 18.125 12.7083 17.8452 12.7083 17.5V14.2263L11.7301 15.4001C11.6114 15.5426 11.4355 15.625 11.25 15.625C11.0645 15.625 10.8886 15.5426 10.7698 15.4001L9.79165 14.2263V17.5C9.79165 17.8452 9.51183 18.125 9.16665 18.125C8.82147 18.125 8.54165 17.8452 8.54165 17.5V12.5C8.54165 12.2369 8.70646 12.0019 8.95389 11.9123Z" fill="#171723"/>
<path d="M3.85335 12.1533C3.66188 11.8661 3.27384 11.7885 2.98663 11.98C2.69943 12.1714 2.62182 12.5595 2.81329 12.8467L4.24883 15L2.81329 17.1533C2.62182 17.4405 2.69943 17.8286 2.98663 18.02C3.27384 18.2115 3.66188 18.1339 3.85335 17.8467L4.99998 16.1267L6.14662 17.8467C6.33809 18.1339 6.72613 18.2115 7.01334 18.02C7.30054 17.8286 7.37815 17.4405 7.18668 17.1533L5.75114 15L7.18668 12.8467C7.37815 12.5595 7.30054 12.1714 7.01334 11.98C6.72613 11.7885 6.33809 11.8661 6.14662 12.1533L4.99998 13.8733L3.85335 12.1533Z" fill="#171723"/>
</svg>
