<svg width="20" height="20" viewBox="0 0 20 20" fill="none" xmlns="http://www.w3.org/2000/svg">
<g clip-path="url(#clip0_6394_68550)">
<g clip-path="url(#clip1_6394_68550)">
<path d="M15.9322 17.2881H4.06734C2.98881 17.287 1.95477 16.8581 1.19214 16.0954C0.429508 15.3328 0.000588628 14.2988 -0.000488281 13.2202V6.77986C0.000588628 5.70134 0.429508 4.6673 1.19214 3.90466C1.95477 3.14203 2.98881 2.71311 4.06734 2.71204H15.9322C17.0107 2.71311 18.0447 3.14203 18.8074 3.90466C19.57 4.6673 19.9989 5.70134 20 6.77986V13.2202C19.9989 14.2988 19.57 15.3328 18.8074 16.0954C18.0447 16.8581 17.0107 17.287 15.9322 17.2881ZM4.06734 3.72899C3.25847 3.72988 2.48298 4.05159 1.91102 4.62355C1.33906 5.1955 1.01735 5.97099 1.01647 6.77986V13.2202C1.01735 14.0291 1.33906 14.8046 1.91102 15.3766C2.48298 15.9485 3.25847 16.2702 4.06734 16.2711H15.9322C16.741 16.2702 17.5165 15.9485 18.0885 15.3766C18.6604 14.8046 18.9822 14.0291 18.983 13.2202V6.77986C18.9822 5.97099 18.6604 5.1955 18.0885 4.62355C17.5165 4.05159 16.741 3.72988 15.9322 3.72899H4.06734Z" fill="#171723"/>
<path d="M8.81069 13.3195C8.56743 13.3192 8.32897 13.2518 8.12146 13.1249C7.91727 13.0003 7.74884 12.825 7.63258 12.6159C7.51632 12.4069 7.45619 12.1713 7.45806 11.9321V8.0679C7.45601 7.82894 7.51596 7.59353 7.63206 7.38465C7.74816 7.17577 7.91644 7.00057 8.12047 6.87615C8.31614 6.75615 8.53954 6.68887 8.76894 6.68086C8.99833 6.67286 9.22589 6.7244 9.42944 6.83047L13.0444 8.85446C13.2483 8.96853 13.4181 9.1349 13.5363 9.33644C13.6545 9.53798 13.7168 9.76738 13.7168 10.001C13.7168 10.2346 13.6545 10.4641 13.5363 10.6656C13.4181 10.8671 13.2483 11.0335 13.0444 11.1476L9.44336 13.1626C9.24812 13.2649 9.03112 13.3188 8.81069 13.3195ZM8.82062 7.69449C8.76011 7.69547 8.70103 7.71298 8.64977 7.74513C8.59479 7.77877 8.54967 7.82634 8.51898 7.88302C8.48829 7.9397 8.47311 8.00348 8.47498 8.0679V11.9321C8.47314 11.9967 8.48833 12.0606 8.51901 12.1174C8.54969 12.1743 8.59479 12.222 8.64977 12.2559C8.69593 12.2857 8.74929 12.3024 8.80418 12.3043C8.85908 12.3062 8.91347 12.2933 8.96161 12.2668L12.5478 10.2597C12.5938 10.234 12.6322 10.1965 12.6589 10.151C12.6856 10.1055 12.6997 10.0538 12.6997 10.001C12.6997 9.94826 12.6856 9.89647 12.6589 9.85099C12.6322 9.80551 12.5938 9.76799 12.5478 9.7423L8.94775 7.72627C8.90853 7.70563 8.86493 7.69473 8.82062 7.69449Z" fill="#171723"/>
</g>
</g>
<defs>
<clipPath id="clip0_6394_68550">
<rect width="20" height="20" fill="white"/>
</clipPath>
<clipPath id="clip1_6394_68550">
<rect width="20" height="20" fill="white"/>
</clipPath>
</defs>
</svg>
