<svg width="20" height="20" viewBox="0 0 20 20" fill="none" xmlns="http://www.w3.org/2000/svg">
<g clip-path="url(#clip0_5313_35047)">
<g clip-path="url(#clip1_5313_35047)">
<path d="M19.8552 19.1383L16.5273 15.8106C16.4648 15.7495 16.3875 15.7058 16.3029 15.684C16.2184 15.6622 16.1295 15.6629 16.0453 15.6861L14.9435 14.5843C16.5025 12.9313 17.3483 10.7312 17.2984 8.45965C17.2484 6.18807 16.3066 4.02735 14.6765 2.44445C13.0464 0.861537 10.8589 -0.0164443 8.58674 0.000233324C6.31457 0.016911 4.1402 0.926908 2.53351 2.53357C0.92682 4.14024 0.0168456 6.31455 0.000231539 8.58662C-0.0163825 10.8587 0.861698 13.0461 2.44472 14.6761C4.02774 16.3061 6.18857 17.2477 8.46026 17.2976C10.7319 17.3475 12.932 16.5016 14.5851 14.9427L15.6863 16.0439C15.6627 16.1283 15.6618 16.2174 15.6836 16.3022C15.7054 16.3871 15.7491 16.4648 15.8104 16.5274L19.1383 19.8551C19.2337 19.9486 19.3621 20.0007 19.4957 20C19.6292 19.9993 19.7571 19.946 19.8515 19.8515C19.946 19.7571 19.9993 19.6292 20 19.4957C20.0007 19.3621 19.9486 19.2337 19.8551 19.1383L19.8552 19.1383ZM8.68137 16.2859C7.17738 16.2859 5.70716 15.8399 4.45664 15.0044C3.20612 14.1688 2.23145 12.9812 1.6559 11.5918C1.08035 10.2023 0.929757 8.67343 1.22317 7.1984C1.51659 5.72336 2.24083 4.36846 3.30431 3.30503C4.36779 2.24159 5.72275 1.51738 7.19784 1.22398C8.67294 0.930574 10.2019 1.08116 11.5914 1.65669C12.9809 2.23221 14.1686 3.20684 15.0041 4.45731C15.8397 5.70778 16.2857 7.17793 16.2857 8.68186C16.2835 10.6979 15.4816 12.6307 14.056 14.0563C12.6304 15.4818 10.6975 16.2837 8.68137 16.2859Z" fill="#171723"/>
<path d="M12.2204 8.46993H9.30534V5.5557C9.30534 5.4452 9.26144 5.33922 9.1833 5.26108C9.10516 5.18294 8.99918 5.13904 8.88867 5.13904C8.77816 5.13904 8.67218 5.18294 8.59404 5.26108C8.5159 5.33922 8.472 5.4452 8.472 5.5557V8.46993H5.55778C5.44727 8.46993 5.34129 8.51383 5.26315 8.59197C5.18501 8.67011 5.14111 8.77609 5.14111 8.8866C5.14111 8.9971 5.18501 9.10308 5.26315 9.18122C5.34129 9.25936 5.44727 9.30326 5.55778 9.30326H8.472V12.2175C8.472 12.328 8.5159 12.434 8.59404 12.5121C8.67218 12.5903 8.77816 12.6342 8.88867 12.6342C8.99918 12.6342 9.10516 12.5903 9.1833 12.5121C9.26144 12.434 9.30534 12.328 9.30534 12.2175V9.30326H12.2204C12.3309 9.30326 12.4369 9.25936 12.515 9.18122C12.5931 9.10308 12.637 8.9971 12.637 8.8866C12.637 8.77609 12.5931 8.67011 12.515 8.59197C12.4369 8.51383 12.3309 8.46993 12.2204 8.46993Z" fill="#171723"/>
</g>
</g>
<defs>
<clipPath id="clip0_5313_35047">
<rect width="20" height="20" fill="white"/>
</clipPath>
<clipPath id="clip1_5313_35047">
<rect width="20" height="20" fill="white"/>
</clipPath>
</defs>
</svg>
