<svg width="20" height="20" viewBox="0 0 20 20" fill="none" xmlns="http://www.w3.org/2000/svg">
<g clip-path="url(#clip0_5313_35046)">
<g clip-path="url(#clip1_5313_35046)">
<path d="M19.8551 19.1383L16.5268 15.8101C16.4644 15.749 16.387 15.7054 16.3025 15.6835C16.2179 15.6617 16.129 15.6624 16.0448 15.6856L14.9434 14.5842C16.5024 12.9312 17.3483 10.7313 17.2984 8.45973C17.2485 6.18818 16.3067 4.02748 14.6767 2.44456C13.0466 0.861641 10.8591 -0.0163836 8.58698 0.000231584C6.31481 0.0168467 4.14041 0.926767 2.53368 2.53336C0.92695 4.13995 0.0169138 6.31419 0.000233393 8.58622C-0.016447 10.8583 0.861567 13.0456 2.44454 14.6756C4.02751 16.3056 6.18831 17.2474 8.45999 17.2973C10.7317 17.3473 12.9318 16.5015 14.5849 14.9427L15.6857 16.0434C15.6622 16.1278 15.6613 16.217 15.6831 16.3018C15.7049 16.3867 15.7486 16.4644 15.8099 16.527L19.1382 19.8551C19.2336 19.9486 19.362 20.0007 19.4956 20C19.6292 19.9993 19.7571 19.946 19.8515 19.8515C19.946 19.7571 19.9993 19.6292 20 19.4956C20.0007 19.3621 19.9486 19.2336 19.8551 19.1382L19.8551 19.1383ZM8.68098 16.2854C7.1768 16.2854 5.7064 15.8394 4.45572 15.0038C3.20503 14.1682 2.23025 12.9805 1.65462 11.5909C1.07899 10.2013 0.928385 8.67219 1.22184 7.19699C1.51529 5.7218 2.23962 4.36675 3.30324 3.3032C4.36685 2.23964 5.72199 1.51536 7.19727 1.22192C8.67255 0.928487 10.2017 1.07909 11.5914 1.65468C12.9811 2.23027 14.1689 3.205 15.0045 4.45561C15.8402 5.70621 16.2863 7.17653 16.2863 8.68062C16.2841 10.6969 15.4821 12.6299 14.0563 14.0556C12.6305 15.4813 10.6974 16.2832 8.68098 16.2854V16.2854Z" fill="#171723"/>
<path d="M12.2199 8.46985H5.55729C5.44678 8.46985 5.3408 8.51375 5.26266 8.59189C5.18452 8.67003 5.14062 8.77601 5.14062 8.88652C5.14062 8.99702 5.18452 9.103 5.26266 9.18114C5.3408 9.25928 5.44678 9.30318 5.55729 9.30318H12.2199C12.3304 9.30318 12.4364 9.25928 12.5145 9.18114C12.5926 9.103 12.6365 8.99702 12.6365 8.88652C12.6365 8.77601 12.5926 8.67003 12.5145 8.59189C12.4364 8.51375 12.3304 8.46985 12.2199 8.46985Z" fill="#171723"/>
</g>
</g>
<defs>
<clipPath id="clip0_5313_35046">
<rect width="20" height="20" fill="white"/>
</clipPath>
<clipPath id="clip1_5313_35046">
<rect width="20" height="20" fill="white"/>
</clipPath>
</defs>
</svg>
