<svg width="20" height="20" viewBox="0 0 20 20" fill="none" xmlns="http://www.w3.org/2000/svg">
<path d="M8.28892 11.5273C8.20457 11.6115 8.1052 11.6791 7.99594 11.7267C7.74622 11.8161 7.47524 11.8278 7.21877 11.76C7.13246 11.7351 7.05022 11.6978 6.9746 11.6493C6.91855 11.6135 6.86855 11.569 6.82649 11.5175C6.78419 11.4642 6.74662 11.4073 6.71419 11.3474C6.69076 11.3047 6.67168 11.2597 6.65722 11.2131C6.64339 11.1659 6.6328 11.131 6.62629 11.1008C6.61598 11.042 6.59177 10.9864 6.55569 10.9388C6.5196 10.8912 6.47268 10.8528 6.41881 10.827C6.36494 10.8011 6.30568 10.7885 6.24595 10.7901C6.18621 10.7917 6.12773 10.8076 6.07535 10.8364C6.01732 10.8694 5.97145 10.9202 5.94449 10.9813C5.91753 11.0424 5.91091 11.1106 5.92561 11.1757C5.94351 11.253 5.9663 11.336 5.99561 11.4264C6.02876 11.5272 6.07069 11.625 6.12094 11.7185C6.17676 11.8193 6.24304 11.914 6.31869 12.0009C6.40891 12.1039 6.51528 12.1916 6.63364 12.2605C6.7622 12.3346 6.90016 12.3909 7.04379 12.4282C7.21742 12.4721 7.39611 12.4929 7.5752 12.49C7.79657 12.4919 8.01632 12.4522 8.22299 12.3728C8.41222 12.2989 8.58669 12.1917 8.73813 12.0562C8.88406 11.9228 9.00216 11.7619 9.08563 11.5826C9.17011 11.4014 9.21372 11.2039 9.21339 11.004C9.21492 10.8276 9.18374 10.6523 9.12144 10.4872C9.05986 10.3238 8.96446 10.1751 8.84149 10.051C8.77854 9.98772 8.70929 9.93101 8.63482 9.88177C8.65761 9.86224 8.67877 9.8419 8.69993 9.82155C8.81797 9.70356 8.91365 9.56514 8.98232 9.41302C9.0563 9.24772 9.09377 9.0684 9.09218 8.88731C9.09658 8.67329 9.05263 8.46104 8.9636 8.26637C8.88282 8.09576 8.76461 7.94555 8.61777 7.82692C8.47764 7.71626 8.31733 7.6339 8.14576 7.58442C7.78881 7.47999 7.40841 7.48766 7.05597 7.60641C6.88084 7.66912 6.71887 7.76377 6.57827 7.88557C6.43733 8.00954 6.32133 8.15924 6.23647 8.32666C6.14843 8.50287 6.09092 8.69273 6.06639 8.88818C6.06341 8.93343 6.06991 8.97881 6.08547 9.0214C6.10102 9.064 6.12529 9.10288 6.15672 9.13557C6.18914 9.16933 6.22807 9.19618 6.27114 9.21451C6.31422 9.23283 6.36056 9.24224 6.40737 9.24218C6.49075 9.23285 6.5692 9.19798 6.63199 9.14234C6.69478 9.08669 6.73883 9.013 6.75812 8.93135C6.77458 8.82476 6.80927 8.72181 6.86066 8.62699C6.95405 8.45113 7.10998 8.31669 7.29767 8.2502C7.50693 8.18202 7.73195 8.1789 7.94302 8.24125C8.02982 8.26587 8.11068 8.30796 8.18064 8.36495C8.24705 8.41902 8.29952 8.48823 8.33364 8.56676C8.37696 8.66795 8.39751 8.77741 8.39386 8.88741C8.39599 8.98031 8.37721 9.0725 8.33889 9.15716C8.30058 9.24183 8.24371 9.31679 8.17251 9.3765C8.08714 9.44621 7.98941 9.49921 7.88442 9.53275C7.7497 9.57633 7.60932 9.59991 7.46775 9.60275C7.38228 9.61651 7.30462 9.66061 7.24902 9.72697C7.19342 9.79333 7.1636 9.87751 7.16502 9.96407C7.1649 10.0466 7.19745 10.1258 7.25556 10.1843C7.31366 10.2429 7.39258 10.276 7.47508 10.2766C7.65227 10.2739 7.8289 10.2974 7.99917 10.3466C8.11218 10.3784 8.21763 10.4326 8.30923 10.5061C8.37684 10.5618 8.42967 10.6334 8.46304 10.7144C8.49866 10.8068 8.51634 10.9051 8.51512 11.0041C8.51416 11.0951 8.49536 11.1849 8.45978 11.2686C8.42003 11.365 8.36202 11.4529 8.28892 11.5273Z" fill="#171723"/>
<path d="M13.4505 8.21602C13.2453 7.99964 12.9945 7.83148 12.7165 7.72366C12.425 7.61152 12.1149 7.55547 11.8026 7.55846H10.2808C10.1979 7.55849 10.1184 7.59142 10.0598 7.65002C10.0012 7.70862 9.96828 7.78809 9.96826 7.87096V12.1296C9.96828 12.2125 10.0012 12.2919 10.0598 12.3505C10.1184 12.4091 10.1979 12.4421 10.2808 12.4421H11.8026C12.1151 12.445 12.4255 12.389 12.7173 12.2769C12.9947 12.169 13.2448 12.0012 13.4497 11.7854C13.6585 11.5617 13.8189 11.2974 13.9209 11.009C14.1398 10.3552 14.1401 9.64795 13.9217 8.99399C13.8199 8.70499 13.6595 8.44013 13.4505 8.21602ZM13.2617 10.7754C13.1923 10.9753 13.0833 11.1591 12.9411 11.3158C12.8057 11.4591 12.64 11.5703 12.4561 11.6413C12.2473 11.7198 12.0257 11.7587 11.8026 11.7561H10.6673V8.2445H11.8025C12.0257 8.24199 12.2473 8.28119 12.456 8.36006C12.6393 8.43145 12.8046 8.54231 12.9402 8.68477C13.083 8.84073 13.1921 9.02438 13.2609 9.22432C13.4212 9.72888 13.4215 10.2707 13.2617 10.7754H13.2617Z" fill="#171723"/>
<path d="M11.3381 2.84657L11.3587 2.41027C11.3602 2.37883 11.3534 2.34756 11.3389 2.3196C11.3245 2.29164 11.3029 2.26797 11.2765 2.25097C11.25 2.23396 11.2195 2.22423 11.1881 2.22274C11.1566 2.22124 11.1253 2.22805 11.0974 2.24247L9.67957 2.97428C9.65161 2.98871 9.62794 3.01026 9.61094 3.03674C9.59394 3.06323 9.5842 3.09372 9.58272 3.12516C9.58123 3.15659 9.58805 3.18787 9.60248 3.21584C9.61691 3.2438 9.63845 3.26748 9.66492 3.28449L11.0074 4.14661C11.0339 4.16362 11.0644 4.17336 11.0958 4.17484C11.1273 4.17633 11.1586 4.16952 11.1865 4.15508C11.2145 4.14065 11.2382 4.11911 11.2552 4.09262C11.2722 4.06614 11.2819 4.03564 11.2834 4.0042L11.3028 3.59378C12.779 3.89825 14.1058 4.70101 15.0605 5.86746C16.0151 7.03391 16.5398 8.49313 16.5464 10.0004C16.5477 10.187 16.5385 10.3735 16.5189 10.5591C16.5081 10.6567 16.5365 10.7547 16.5978 10.8314C16.6591 10.9082 16.7483 10.9575 16.846 10.9686C16.8599 10.9701 16.8739 10.9708 16.8879 10.9708C16.9789 10.9706 17.0667 10.937 17.1345 10.8763C17.2023 10.8155 17.2454 10.732 17.2556 10.6416C17.2781 10.4286 17.2887 10.2146 17.2874 10.0004C17.2797 8.30299 16.6819 6.66105 15.5965 5.35591C14.5112 4.05077 13.0057 3.16366 11.3381 2.84657Z" fill="#171723"/>
<path d="M8.99335 15.8535C8.96687 15.8364 8.93638 15.8267 8.90494 15.8252C8.8735 15.8237 8.84221 15.8305 8.81423 15.8449C8.78625 15.8593 8.76256 15.8808 8.74554 15.9073C8.72852 15.9338 8.71877 15.9643 8.71727 15.9957L8.69773 16.406C7.22176 16.1012 5.89533 15.2985 4.94061 14.1324C3.98589 12.9662 3.46086 11.5074 3.45344 10.0003C3.4525 9.81328 3.46168 9.62631 3.48094 9.44024C3.49149 9.34256 3.4628 9.24468 3.4012 9.16815C3.33959 9.09161 3.2501 9.04268 3.15242 9.03212C3.05528 9.02427 2.95882 9.05396 2.8829 9.11507C2.80699 9.17618 2.75738 9.26406 2.74429 9.36064C2.72215 9.57314 2.71152 9.78669 2.71246 10.0003C2.72085 11.6976 3.31891 13.3391 4.40427 14.644C5.48962 15.9489 6.99478 16.836 8.66211 17.1534L8.64136 17.5896C8.63986 17.621 8.64667 17.6523 8.66109 17.6803C8.67551 17.7083 8.69705 17.732 8.72353 17.749C8.75001 17.766 8.7805 17.7757 8.81194 17.7772C8.84338 17.7787 8.87467 17.7719 8.90264 17.7575L10.3207 17.0263C10.3487 17.0119 10.3724 16.9904 10.3894 16.9639C10.4064 16.9374 10.4162 16.9069 10.4177 16.8755C10.4191 16.8441 10.4123 16.8128 10.3979 16.7848C10.3835 16.7568 10.362 16.7332 10.3355 16.7161L8.99335 15.8535Z" fill="#171723"/>
</svg>
