<svg width="20" height="20" viewBox="0 0 20 20" fill="none" xmlns="http://www.w3.org/2000/svg">
<path d="M9.98406 13.4331C9.81161 13.4337 9.63947 13.4188 9.46973 13.3883C9.31599 13.3606 9.16428 13.3225 9.01563 13.2744C8.87987 13.2292 8.74767 13.174 8.62012 13.1092C8.50738 13.0524 8.39958 12.9862 8.29786 12.9114C8.23188 12.8618 8.18826 12.788 8.17652 12.7063C8.16477 12.6245 8.18587 12.5415 8.2352 12.4752C8.37924 12.2637 8.53712 12.2002 8.86345 12.3963C8.94417 12.443 9.02759 12.4849 9.11329 12.5216C9.23599 12.5743 9.36283 12.6168 9.49252 12.6486C9.86795 12.7344 10.2597 12.7159 10.6253 12.5949C10.8173 12.5297 10.993 12.4238 11.1403 12.2845C11.2877 12.1451 11.4032 11.9756 11.479 11.7876C11.5713 11.5618 11.6162 11.3194 11.6108 11.0755C11.6127 10.8746 11.5816 10.6747 11.5189 10.4838C11.4656 10.3226 11.3766 10.1754 11.2585 10.0533C11.1291 9.92485 10.9729 9.82649 10.8011 9.76525C10.401 9.64253 9.97716 9.61851 9.56577 9.69525C9.35525 9.72457 9.14658 9.76587 8.94077 9.81895C8.8728 9.83608 8.80102 9.82947 8.73731 9.80022L8.65756 9.76439C8.59388 9.73593 8.54158 9.68697 8.50898 9.62531C8.47638 9.56365 8.46537 9.49286 8.47771 9.42421L8.94483 6.82412C8.9578 6.75198 8.99572 6.6867 9.05195 6.63969C9.10818 6.59268 9.17915 6.56693 9.25245 6.56696H11.8973C11.9802 6.56698 12.0597 6.59991 12.1183 6.65851C12.1769 6.71711 12.2098 6.79658 12.2098 6.87946V6.92421C12.2039 7.02426 12.162 7.11879 12.0918 7.19033C12.0189 7.24952 11.9292 7.28426 11.8355 7.28961H9.60157L9.28741 9.0165C9.35574 9.0043 9.4225 8.99371 9.48842 8.98476C10.0087 8.89571 10.5428 8.93368 11.0452 9.09544C11.3141 9.19154 11.5596 9.34353 11.7654 9.54141C11.9627 9.73672 12.114 9.97358 12.2081 10.2347C12.3046 10.5075 12.3525 10.795 12.3497 11.0843C12.355 11.4241 12.2891 11.7612 12.1561 12.0739C12.0369 12.352 11.8615 12.6023 11.6409 12.8093C11.4204 13.0163 11.1594 13.1755 10.8743 13.2767C10.5892 13.3813 10.2877 13.4343 9.98406 13.4331Z" fill="#171723"/>
<path d="M10.2051 1.81226C12.322 1.72314 14.3902 2.46391 15.9691 3.87684L16.6171 3.22841C16.6424 3.20314 16.6738 3.18497 16.7083 3.17571C16.7428 3.16645 16.7791 3.16644 16.8136 3.17567C16.8481 3.1849 16.8795 3.20305 16.9048 3.22829C16.93 3.25353 16.9482 3.28498 16.9574 3.31947L17.6506 5.90388C17.6584 5.93283 17.6584 5.96332 17.6506 5.99227C17.6429 6.02123 17.6276 6.04763 17.6064 6.06883C17.5852 6.09003 17.5589 6.10529 17.5299 6.11306C17.501 6.12084 17.4705 6.12086 17.4415 6.11312L14.8567 5.42163C14.8222 5.41242 14.7907 5.39428 14.7654 5.36905C14.7402 5.34381 14.722 5.31237 14.7128 5.27789C14.7035 5.2434 14.7035 5.20709 14.7127 5.17259C14.722 5.1381 14.7401 5.10665 14.7654 5.08141L15.3801 4.46628C14.5333 3.72064 13.5259 3.18028 12.4363 2.88718C11.3467 2.59408 10.2042 2.55613 9.09759 2.77628C7.63131 3.05429 6.28622 3.77715 5.24524 4.84656C4.20426 5.91597 3.51791 7.28005 3.27951 8.75329C3.05213 10.1241 3.2141 11.5312 3.74699 12.8146C4.27988 14.0979 5.16228 15.2059 6.2938 16.0124C7.42532 16.819 8.76052 17.2917 10.1475 17.3769C11.5344 17.462 12.9174 17.1562 14.1391 16.4941C14.7492 16.2068 15.2841 15.7814 15.7015 15.2517C15.7359 15.206 15.7793 15.1679 15.8291 15.1397C15.8788 15.1115 15.9338 15.0939 15.9907 15.0879C16.0476 15.0819 16.1051 15.0876 16.1596 15.1048C16.2141 15.122 16.2646 15.1502 16.3077 15.1877C16.3509 15.2252 16.3859 15.2712 16.4105 15.3228C16.4351 15.3744 16.4488 15.4305 16.4508 15.4877C16.4528 15.5448 16.4431 15.6018 16.4221 15.655C16.4011 15.7082 16.3694 15.7565 16.329 15.7969C15.1535 16.9713 13.6489 17.7606 12.0145 18.0601C10.3801 18.3596 8.69333 18.1553 7.1778 17.4741C5.66227 16.7929 4.38963 15.667 3.52866 14.2459C2.6677 12.8248 2.25909 11.1755 2.35702 9.51683C2.48616 7.49133 3.35856 5.5848 4.80689 4.16295C6.25523 2.74109 8.17752 1.90401 10.2051 1.81226Z" fill="#171723"/>
</svg>
