<svg width="20" height="20" viewBox="0 0 20 20" fill="none" xmlns="http://www.w3.org/2000/svg">
<path d="M17.8709 13.7958L11.9293 3.89578C11.7309 3.56066 11.4487 3.28299 11.1105 3.0901C10.7722 2.89721 10.3895 2.79578 10.0001 2.79578C9.61068 2.79578 9.22799 2.89721 8.88971 3.0901C8.55144 3.28299 8.26924 3.56066 8.07092 3.89578L2.12925 13.7875C1.92448 14.1298 1.81406 14.5203 1.80925 14.9192C1.80443 15.3181 1.90539 15.7111 2.10185 16.0583C2.29831 16.4055 2.58324 16.6944 2.92766 16.8957C3.27208 17.0969 3.66367 17.2034 4.06259 17.2041H15.9376C16.3358 17.2038 16.7268 17.098 17.0708 16.8975C17.4148 16.6969 17.6995 16.4088 17.8959 16.0625C18.0924 15.7161 18.1936 15.3239 18.1892 14.9258C18.1848 14.5276 18.075 14.1377 17.8709 13.7958ZM9.27092 7.95412C9.27092 7.76073 9.34774 7.57526 9.48449 7.43852C9.62123 7.30177 9.8067 7.22495 10.0001 7.22495C10.1935 7.22495 10.3789 7.30177 10.5157 7.43852C10.6524 7.57526 10.7293 7.76073 10.7293 7.95412V10.8708C10.7293 11.0642 10.6524 11.2496 10.5157 11.3864C10.3789 11.5231 10.1935 11.6 10.0001 11.6C9.8067 11.6 9.62123 11.5231 9.48449 11.3864C9.34774 11.2496 9.27092 11.0642 9.27092 10.8708V7.95412ZM9.99592 14.8041C9.8311 14.8041 9.66999 14.7552 9.53294 14.6637C9.3959 14.5721 9.28909 14.442 9.22602 14.2897C9.16295 14.1374 9.14644 13.9699 9.1786 13.8082C9.21075 13.6466 9.29012 13.4981 9.40666 13.3815C9.52321 13.265 9.67169 13.1856 9.83334 13.1535C9.995 13.1213 10.1626 13.1378 10.3148 13.2009C10.4671 13.264 10.5972 13.3708 10.6888 13.5078C10.7804 13.6448 10.8293 13.806 10.8293 13.9708C10.8296 14.0803 10.8083 14.1889 10.7666 14.2901C10.7248 14.3914 10.6635 14.4834 10.586 14.5609C10.5086 14.6383 10.4165 14.6997 10.3153 14.7415C10.214 14.7832 10.1055 14.8045 9.99592 14.8041Z" fill="#171723"/>
</svg>
