<svg width="20" height="20" viewBox="0 0 20 20" fill="none" xmlns="http://www.w3.org/2000/svg">
<path d="M18.0942 11.3661L17.2527 10.5246C17.1989 10.4735 17.1322 10.4381 17.0597 10.4223C17.045 10.4186 17.0302 10.4157 17.0152 10.4137C16.9428 10.4011 16.8684 10.4082 16.7997 10.4342L16.7986 10.4343L16.7947 10.4374C16.7458 10.4578 16.7013 10.4874 16.6635 10.5246L15.822 11.3661C15.7452 11.4445 15.7024 11.55 15.703 11.6598C15.7035 11.7696 15.7474 11.8747 15.825 11.9523C15.9026 12.0299 16.0077 12.0738 16.1175 12.0743C16.2273 12.0749 16.3328 12.0321 16.4112 11.9553L16.4422 11.9242C16.1936 13.3734 15.4636 14.6963 14.3702 15.6794C13.2769 16.6624 11.884 17.2482 10.4167 17.3419V8.32736H11.6163C11.7268 8.32736 11.8328 8.28346 11.9109 8.20532C11.989 8.12718 12.0329 8.0212 12.0329 7.91069C12.0329 7.80018 11.989 7.6942 11.9109 7.61606C11.8328 7.53792 11.7268 7.49402 11.6163 7.49402H10.4168V6.40958C10.8797 6.32481 11.3063 6.10231 11.6407 5.7712C11.8568 5.5558 12.0283 5.29988 12.1453 5.01811C12.2623 4.73633 12.3226 4.43423 12.3227 4.12912C12.3228 3.82401 12.2626 3.52188 12.1458 3.24004C12.0289 2.95821 11.8575 2.7022 11.6415 2.4867C11.1992 2.06363 10.6106 1.82751 9.99848 1.82751C9.38635 1.82751 8.79781 2.06363 8.35542 2.4867C8.13966 2.70233 7.96852 2.95838 7.85179 3.2402C7.73505 3.52202 7.675 3.82408 7.67508 4.12912C7.67516 4.43416 7.73536 4.73619 7.85224 5.01795C7.96912 5.29971 8.14038 5.55567 8.35625 5.7712C8.69152 6.10302 9.11932 6.32567 9.58346 6.40988V7.49405H8.38143C8.27092 7.49405 8.16494 7.53795 8.0868 7.61609C8.00866 7.69423 7.96477 7.80021 7.96477 7.91071C7.96477 8.02122 8.00866 8.1272 8.0868 8.20534C8.16494 8.28348 8.27092 8.32738 8.38143 8.32738H9.58342V17.342C8.11631 17.2482 6.72365 16.6626 5.63039 15.6798C4.53712 14.697 3.8071 13.3743 3.55823 11.9254L3.58814 11.9553C3.66654 12.0321 3.77209 12.0749 3.88185 12.0744C3.99162 12.0738 4.09673 12.03 4.17435 11.9523C4.25196 11.8747 4.29581 11.7696 4.29637 11.6599C4.29692 11.5501 4.25414 11.4445 4.17731 11.3661L3.33587 10.5246C3.29812 10.4874 3.25357 10.4578 3.20464 10.4374L3.20077 10.4343L3.19971 10.4342C3.1313 10.4083 3.05721 10.4012 2.98512 10.4135C2.96954 10.4156 2.9541 10.4186 2.93888 10.4225C2.8667 10.4384 2.80023 10.4737 2.74667 10.5246L1.9052 11.3661C1.82837 11.4445 1.78558 11.55 1.78614 11.6598C1.78669 11.7696 1.83054 11.8747 1.90816 11.9523C1.98578 12.0299 2.09089 12.0738 2.20065 12.0743C2.31042 12.0749 2.41597 12.0321 2.49437 11.9553L2.68479 11.7648C2.91476 13.5423 3.78405 15.1753 5.13023 16.3586C6.47641 17.5419 8.20737 18.1946 9.99969 18.1947C11.792 18.1948 13.523 17.5423 14.8694 16.3591C16.2157 15.176 17.0851 13.5431 17.3153 11.7657L17.5049 11.9553C17.5435 11.9946 17.5894 12.0259 17.6402 12.0474C17.6909 12.0688 17.7453 12.08 17.8004 12.0803C17.8555 12.0806 17.91 12.0699 17.961 12.049C18.0119 12.028 18.0582 11.9972 18.0971 11.9583C18.136 11.9193 18.1669 11.8731 18.1878 11.8221C18.2088 11.7712 18.2194 11.7166 18.2191 11.6616C18.2188 11.6065 18.2076 11.552 18.1862 11.5013C18.1647 11.4506 18.1334 11.4047 18.0941 11.3661L18.0942 11.3661ZM8.50839 4.12976C8.5079 3.88445 8.56797 3.64281 8.68327 3.42628C8.79856 3.20975 8.96552 3.02502 9.16933 2.88849C9.37314 2.75196 9.60749 2.66784 9.85161 2.64361C10.0957 2.61937 10.342 2.65576 10.5687 2.74955C10.7954 2.84334 10.9954 2.99163 11.151 3.18126C11.3067 3.37089 11.4131 3.596 11.4608 3.83662C11.5086 4.07724 11.4962 4.32593 11.4248 4.56062C11.3534 4.79531 11.2252 5.00875 11.0515 5.182C10.7661 5.44945 10.3896 5.59827 9.99847 5.59827C9.60732 5.59827 9.23083 5.44945 8.94541 5.182C8.80667 5.04418 8.69661 4.88022 8.6216 4.69962C8.54659 4.51901 8.50811 4.32533 8.50839 4.12976Z" fill="#171723"/>
</svg>
