<svg width="20" height="20" viewBox="0 0 20 20" fill="none" xmlns="http://www.w3.org/2000/svg">
<path d="M9.99984 2.91663C8.59889 2.91663 7.2294 3.33206 6.06455 4.11038C4.8997 4.88871 3.99181 5.99497 3.45569 7.28928C2.91957 8.58359 2.7793 10.0078 3.05261 11.3818C3.32592 12.7559 4.00055 14.018 4.99117 15.0086C5.98179 15.9993 7.24392 16.6739 8.61795 16.9472C9.99198 17.2205 11.4162 17.0802 12.7105 16.5441C14.0048 16.008 15.1111 15.1001 15.8894 13.9352C16.6677 12.7704 17.0832 11.4009 17.0832 9.99996C17.0819 8.12173 16.3352 6.32079 15.0071 4.99268C13.679 3.66457 11.8781 2.91788 9.99984 2.91663ZM13.2415 8.78329L10.0998 12.1583C10.0252 12.2373 9.92326 12.2847 9.8148 12.2909C9.70634 12.2971 9.59962 12.2616 9.51651 12.1916L7.42484 10.3333C7.34196 10.2593 7.29189 10.1553 7.28564 10.0444C7.27938 9.9334 7.31747 9.82451 7.39151 9.74163C7.46555 9.65875 7.56948 9.60867 7.68044 9.60242C7.7914 9.59617 7.90029 9.63425 7.98317 9.70829L9.76651 11.3L12.6332 8.21663C12.6702 8.17693 12.7147 8.14499 12.7642 8.12264C12.8137 8.10029 12.8671 8.08798 12.9214 8.08643C12.9756 8.08488 13.0296 8.09411 13.0803 8.1136C13.131 8.13309 13.1773 8.16244 13.2165 8.19996C13.2576 8.2359 13.291 8.27981 13.3146 8.32902C13.3382 8.37824 13.3516 8.43173 13.3539 8.48627C13.3563 8.54081 13.3475 8.59526 13.3282 8.64631C13.3089 8.69737 13.2794 8.74397 13.2415 8.78329Z" fill="#171723"/>
</svg>
