<svg width="20" height="20" viewBox="0 0 20 20" fill="none" xmlns="http://www.w3.org/2000/svg">
<g clip-path="url(#clip0_5313_35061)">
<path d="M10.0003 17.0834C8.59938 17.0834 7.22989 16.668 6.06504 15.8897C4.90019 15.1113 3.9923 14.0051 3.45618 12.7108C2.92006 11.4164 2.77979 9.99223 3.0531 8.61819C3.32641 7.24416 4.00103 5.98203 4.99166 4.99141C5.98228 4.00079 7.24441 3.32617 8.61844 3.05286C9.99247 2.77954 11.4167 2.91982 12.711 3.45594C14.0053 3.99206 15.1116 4.89995 15.8899 6.0648C16.6682 7.22964 17.0837 8.59913 17.0837 10.0001C17.0814 11.878 16.3344 13.6784 15.0065 15.0063C13.6786 16.3342 11.8783 17.0812 10.0003 17.0834ZM10.0003 3.75008C8.7642 3.75008 7.55582 4.11664 6.52801 4.8034C5.50021 5.49016 4.69913 6.46627 4.22608 7.60831C3.75303 8.75035 3.62926 10.007 3.87042 11.2194C4.11158 12.4318 4.70683 13.5454 5.58091 14.4195C6.45499 15.2936 7.56863 15.8888 8.78101 16.13C9.9934 16.3712 11.2501 16.2474 12.3921 15.7743C13.5341 15.3013 14.5103 14.5002 15.197 13.4724C15.8838 12.4446 16.2503 11.2362 16.2503 10.0001C16.2485 8.34304 15.5895 6.75438 14.4177 5.58266C13.246 4.41095 11.6574 3.75189 10.0003 3.75008Z" fill="#171723"/>
<path d="M9.79273 12.2975C9.69077 12.2975 9.59235 12.2601 9.51607 12.1925L7.42783 10.337C7.3463 10.2633 7.29718 10.1604 7.29116 10.0507C7.28513 9.94099 7.32268 9.83332 7.39563 9.75114C7.46859 9.66896 7.57105 9.61892 7.68071 9.61191C7.79038 9.6049 7.89838 9.64148 7.98121 9.7137L9.76505 11.2989L12.6305 8.22115C12.6677 8.18089 12.7125 8.14838 12.7624 8.12548C12.8122 8.10258 12.8661 8.08974 12.9209 8.08769C12.9757 8.08565 13.0304 8.09444 13.0818 8.11356C13.1332 8.13268 13.1803 8.16175 13.2205 8.19912C13.2606 8.23648 13.293 8.2814 13.3158 8.33131C13.3385 8.38121 13.3512 8.43511 13.3531 8.48993C13.355 8.54474 13.346 8.59939 13.3268 8.65074C13.3075 8.70209 13.2783 8.74914 13.2408 8.78918L10.0979 12.1648C10.0589 12.2067 10.0116 12.2401 9.95912 12.2629C9.90662 12.2857 9.84998 12.2975 9.79273 12.2975Z" fill="#171723"/>
</g>
<defs>
<clipPath id="clip0_5313_35061">
<rect width="20" height="20" fill="white"/>
</clipPath>
</defs>
</svg>
