<svg width="20" height="20" viewBox="0 0 20 20" fill="none" xmlns="http://www.w3.org/2000/svg">
<g clip-path="url(#clip0_10317_146836)">
<path d="M17.0319 3.79999H10.9184C10.6648 3.80273 10.4225 3.90535 10.2441 4.08558C10.0657 4.26581 9.96553 4.50911 9.96533 4.76272V15.2373C9.96542 15.4667 10.0473 15.6886 10.1964 15.863C10.2156 15.8823 10.2253 15.9015 10.2446 15.9208C10.4233 16.0995 10.6657 16.1999 10.9184 16.2H17.0319C17.2855 16.1972 17.5277 16.0946 17.7062 15.9144C17.8846 15.7341 17.9848 15.4909 17.985 15.2373V4.76272C17.9848 4.50912 17.8846 4.26582 17.7062 4.0856C17.5277 3.90538 17.2855 3.80275 17.0319 3.79999ZM11.987 7.03475C12.083 6.94972 12.2087 6.90605 12.3368 6.91325C12.4648 6.92046 12.5848 6.97797 12.6707 7.07325L13.4216 7.91082L15.2893 5.93723C15.3326 5.89072 15.3848 5.8533 15.4428 5.82712C15.5007 5.80095 15.5633 5.78656 15.6269 5.78477C15.6905 5.78299 15.7538 5.79385 15.8131 5.81673C15.8724 5.83961 15.9266 5.87406 15.9725 5.91806C16.0185 5.96206 16.0552 6.01475 16.0805 6.07306C16.1059 6.13137 16.1195 6.19414 16.1204 6.25773C16.1213 6.32131 16.1096 6.38445 16.0859 6.44347C16.0622 6.50249 16.027 6.55621 15.9824 6.60152L13.8066 8.89282L13.7681 8.94095L13.7295 8.9795C13.6915 9.01071 13.6495 9.0366 13.6045 9.05647C13.5852 9.0661 13.5659 9.0661 13.5563 9.07575C13.5089 9.08688 13.4606 9.09333 13.412 9.09501C13.2907 9.08883 13.1751 9.04125 13.0846 8.96022C13.0749 8.96022 13.0653 8.95058 13.0557 8.94095L11.9583 7.71832C11.8719 7.62365 11.8264 7.49866 11.8318 7.3706C11.8372 7.24255 11.893 7.12182 11.987 7.03475ZM16.7912 13.7932H11.1591C11.0957 13.7938 11.0329 13.7818 10.9742 13.7578C10.9155 13.7338 10.8622 13.6984 10.8174 13.6536C10.7725 13.6087 10.7371 13.5554 10.7131 13.4967C10.6892 13.4381 10.6771 13.3752 10.6778 13.3118C10.6781 13.1842 10.729 13.062 10.8192 12.9718C10.9094 12.8816 11.0316 12.8308 11.1591 12.8304H16.7912C16.9188 12.8308 17.041 12.8816 17.1312 12.9718C17.2214 13.062 17.2722 13.1842 17.2726 13.3118C17.2732 13.3752 17.2612 13.438 17.2372 13.4967C17.2132 13.5554 17.1778 13.6087 17.133 13.6535C17.0881 13.6984 17.0348 13.7338 16.9761 13.7578C16.9175 13.7817 16.8546 13.7938 16.7912 13.7932H16.7912ZM16.7912 11.0108H11.1591C11.0316 11.0105 10.9094 10.9596 10.8192 10.8694C10.729 10.7793 10.6781 10.657 10.6778 10.5295C10.6771 10.4661 10.6892 10.4032 10.7131 10.3445C10.7371 10.2858 10.7725 10.2325 10.8174 10.1877C10.8622 10.1429 10.9155 10.1074 10.9742 10.0835C11.0329 10.0595 11.0957 10.0475 11.1591 10.0481H16.7912C16.8546 10.0475 16.9175 10.0595 16.9762 10.0835C17.0348 10.1075 17.0881 10.1429 17.133 10.1877C17.1778 10.2325 17.2132 10.2859 17.2372 10.3445C17.2612 10.4032 17.2732 10.4661 17.2726 10.5295C17.2722 10.657 17.2213 10.7792 17.1311 10.8694C17.0409 10.9596 16.9187 11.0104 16.7912 11.0108L16.7912 11.0108ZM17.0319 3.79999H10.9184C10.6648 3.80273 10.4225 3.90535 10.2441 4.08558C10.0657 4.26581 9.96553 4.50911 9.96533 4.76272V15.2373C9.96542 15.4667 10.0473 15.6886 10.1964 15.863C10.2156 15.8823 10.2253 15.9015 10.2446 15.9208C10.4233 16.0995 10.6657 16.1999 10.9184 16.2H17.0319C17.2855 16.1972 17.5277 16.0946 17.7062 15.9144C17.8846 15.7341 17.9848 15.4909 17.985 15.2373V4.76272C17.9848 4.50912 17.8846 4.26582 17.7062 4.0856C17.5277 3.90538 17.2855 3.80275 17.0319 3.79999ZM11.987 7.03475C12.083 6.94972 12.2087 6.90605 12.3368 6.91325C12.4648 6.92046 12.5848 6.97797 12.6707 7.07325L13.4216 7.91082L15.2893 5.93723C15.3326 5.89072 15.3848 5.8533 15.4428 5.82712C15.5007 5.80095 15.5633 5.78656 15.6269 5.78477C15.6905 5.78299 15.7538 5.79385 15.8131 5.81673C15.8724 5.83961 15.9266 5.87406 15.9725 5.91806C16.0185 5.96206 16.0552 6.01475 16.0805 6.07306C16.1059 6.13137 16.1195 6.19414 16.1204 6.25773C16.1213 6.32131 16.1096 6.38445 16.0859 6.44347C16.0622 6.50249 16.027 6.55621 15.9824 6.60152L13.8066 8.89282L13.7681 8.94095L13.7295 8.9795C13.6915 9.01071 13.6495 9.0366 13.6045 9.05647C13.5852 9.0661 13.5659 9.0661 13.5563 9.07575C13.5089 9.08688 13.4606 9.09333 13.412 9.09501C13.2907 9.08883 13.1751 9.04125 13.0846 8.96022C13.0749 8.96022 13.0653 8.95058 13.0557 8.94095L11.9583 7.71832C11.8719 7.62365 11.8264 7.49866 11.8318 7.3706C11.8372 7.24255 11.893 7.12182 11.987 7.03475ZM16.7912 13.7932H11.1591C11.0957 13.7938 11.0329 13.7818 10.9742 13.7578C10.9155 13.7338 10.8622 13.6984 10.8174 13.6536C10.7725 13.6087 10.7371 13.5554 10.7131 13.4967C10.6892 13.4381 10.6771 13.3752 10.6778 13.3118C10.6781 13.1842 10.729 13.062 10.8192 12.9718C10.9094 12.8816 11.0316 12.8308 11.1591 12.8304H16.7912C16.9188 12.8308 17.041 12.8816 17.1312 12.9718C17.2214 13.062 17.2722 13.1842 17.2726 13.3118C17.2732 13.3752 17.2612 13.438 17.2372 13.4967C17.2132 13.5554 17.1778 13.6087 17.133 13.6535C17.0881 13.6984 17.0348 13.7338 16.9761 13.7578C16.9175 13.7817 16.8546 13.7938 16.7912 13.7932H16.7912ZM16.7912 11.0108H11.1591C11.0316 11.0105 10.9094 10.9596 10.8192 10.8694C10.729 10.7793 10.6781 10.657 10.6778 10.5295C10.6771 10.4661 10.6892 10.4032 10.7131 10.3445C10.7371 10.2858 10.7725 10.2325 10.8174 10.1877C10.8622 10.1429 10.9155 10.1074 10.9742 10.0835C11.0329 10.0595 11.0957 10.0475 11.1591 10.0481H16.7912C16.8546 10.0475 16.9175 10.0595 16.9762 10.0835C17.0348 10.1075 17.0881 10.1429 17.133 10.1877C17.1778 10.2325 17.2132 10.2859 17.2372 10.3445C17.2612 10.4032 17.2732 10.4661 17.2726 10.5295C17.2722 10.657 17.2213 10.7792 17.1311 10.8694C17.0409 10.9596 16.9187 11.0104 16.7912 11.0108L16.7912 11.0108ZM17.0319 3.79999H10.9184C10.6648 3.80273 10.4225 3.90535 10.2441 4.08558C10.0657 4.26581 9.96553 4.50911 9.96533 4.76272V15.2373C9.96542 15.4667 10.0473 15.6886 10.1964 15.863C10.2156 15.8823 10.2253 15.9015 10.2446 15.9208C10.4233 16.0995 10.6657 16.1999 10.9184 16.2H17.0319C17.2855 16.1972 17.5277 16.0946 17.7062 15.9144C17.8846 15.7341 17.9848 15.4909 17.985 15.2373V4.76272C17.9848 4.50912 17.8846 4.26582 17.7062 4.0856C17.5277 3.90538 17.2855 3.80275 17.0319 3.79999ZM11.987 7.03475C12.083 6.94972 12.2087 6.90605 12.3368 6.91325C12.4648 6.92046 12.5848 6.97797 12.6707 7.07325L13.4216 7.91082L15.2893 5.93723C15.3326 5.89072 15.3848 5.8533 15.4428 5.82712C15.5007 5.80095 15.5633 5.78656 15.6269 5.78477C15.6905 5.78299 15.7538 5.79385 15.8131 5.81673C15.8724 5.83961 15.9266 5.87406 15.9725 5.91806C16.0185 5.96206 16.0552 6.01475 16.0805 6.07306C16.1059 6.13137 16.1195 6.19414 16.1204 6.25773C16.1213 6.32131 16.1096 6.38445 16.0859 6.44347C16.0622 6.50249 16.027 6.55621 15.9824 6.60152L13.8066 8.89282L13.7681 8.94095L13.7295 8.9795C13.6915 9.01071 13.6495 9.0366 13.6045 9.05647C13.5852 9.0661 13.5659 9.0661 13.5563 9.07575C13.5089 9.08688 13.4606 9.09333 13.412 9.09501C13.2907 9.08883 13.1751 9.04125 13.0846 8.96022C13.0749 8.96022 13.0653 8.95058 13.0557 8.94095L11.9583 7.71832C11.8719 7.62365 11.8264 7.49866 11.8318 7.3706C11.8372 7.24255 11.893 7.12182 11.987 7.03475ZM16.7912 13.7932H11.1591C11.0957 13.7938 11.0329 13.7818 10.9742 13.7578C10.9155 13.7338 10.8622 13.6984 10.8174 13.6536C10.7725 13.6087 10.7371 13.5554 10.7131 13.4967C10.6892 13.4381 10.6771 13.3752 10.6778 13.3118C10.6781 13.1842 10.729 13.062 10.8192 12.9718C10.9094 12.8816 11.0316 12.8308 11.1591 12.8304H16.7912C16.9188 12.8308 17.041 12.8816 17.1312 12.9718C17.2214 13.062 17.2722 13.1842 17.2726 13.3118C17.2732 13.3752 17.2612 13.438 17.2372 13.4967C17.2132 13.5554 17.1778 13.6087 17.133 13.6535C17.0881 13.6984 17.0348 13.7338 16.9761 13.7578C16.9175 13.7817 16.8546 13.7938 16.7912 13.7932H16.7912ZM16.7912 11.0108H11.1591C11.0316 11.0105 10.9094 10.9596 10.8192 10.8694C10.729 10.7793 10.6781 10.657 10.6778 10.5295C10.6771 10.4661 10.6892 10.4032 10.7131 10.3445C10.7371 10.2858 10.7725 10.2325 10.8174 10.1877C10.8622 10.1429 10.9155 10.1074 10.9742 10.0835C11.0329 10.0595 11.0957 10.0475 11.1591 10.0481H16.7912C16.8546 10.0475 16.9175 10.0595 16.9762 10.0835C17.0348 10.1075 17.0881 10.1429 17.133 10.1877C17.1778 10.2325 17.2132 10.2859 17.2372 10.3445C17.2612 10.4032 17.2732 10.4661 17.2726 10.5295C17.2722 10.657 17.2213 10.7792 17.1311 10.8694C17.0409 10.9596 16.9187 11.0104 16.7912 11.0108L16.7912 11.0108ZM17.0319 3.79999H10.9184C10.6648 3.80273 10.4225 3.90535 10.2441 4.08558C10.0657 4.26581 9.96553 4.50911 9.96533 4.76272V15.2373C9.96542 15.4667 10.0473 15.6886 10.1964 15.863C10.2156 15.8823 10.2253 15.9015 10.2446 15.9208C10.4233 16.0995 10.6657 16.1999 10.9184 16.2H17.0319C17.2855 16.1972 17.5277 16.0946 17.7062 15.9144C17.8846 15.7341 17.9848 15.4909 17.985 15.2373V4.76272C17.9848 4.50912 17.8846 4.26582 17.7062 4.0856C17.5277 3.90538 17.2855 3.80275 17.0319 3.79999ZM11.987 7.03475C12.083 6.94972 12.2087 6.90605 12.3368 6.91325C12.4648 6.92046 12.5848 6.97797 12.6707 7.07325L13.4216 7.91082L15.2893 5.93723C15.3326 5.89072 15.3848 5.8533 15.4428 5.82712C15.5007 5.80095 15.5633 5.78656 15.6269 5.78477C15.6905 5.78299 15.7538 5.79385 15.8131 5.81673C15.8724 5.83961 15.9266 5.87406 15.9725 5.91806C16.0185 5.96206 16.0552 6.01475 16.0805 6.07306C16.1059 6.13137 16.1195 6.19414 16.1204 6.25773C16.1213 6.32131 16.1096 6.38445 16.0859 6.44347C16.0622 6.50249 16.027 6.55621 15.9824 6.60152L13.8066 8.89282L13.7681 8.94095L13.7295 8.9795C13.6915 9.01071 13.6495 9.0366 13.6045 9.05647C13.5852 9.0661 13.5659 9.0661 13.5563 9.07575C13.5089 9.08688 13.4606 9.09333 13.412 9.09501C13.2907 9.08883 13.1751 9.04125 13.0846 8.96022C13.0749 8.96022 13.0653 8.95058 13.0557 8.94095L11.9583 7.71832C11.8719 7.62365 11.8264 7.49866 11.8318 7.3706C11.8372 7.24255 11.893 7.12182 11.987 7.03475ZM16.7912 13.7932H11.1591C11.0957 13.7938 11.0329 13.7818 10.9742 13.7578C10.9155 13.7338 10.8622 13.6984 10.8174 13.6536C10.7725 13.6087 10.7371 13.5554 10.7131 13.4967C10.6892 13.4381 10.6771 13.3752 10.6778 13.3118C10.6781 13.1842 10.729 13.062 10.8192 12.9718C10.9094 12.8816 11.0316 12.8308 11.1591 12.8304H16.7912C16.9188 12.8308 17.041 12.8816 17.1312 12.9718C17.2214 13.062 17.2722 13.1842 17.2726 13.3118C17.2732 13.3752 17.2612 13.438 17.2372 13.4967C17.2132 13.5554 17.1778 13.6087 17.133 13.6535C17.0881 13.6984 17.0348 13.7338 16.9761 13.7578C16.9175 13.7817 16.8546 13.7938 16.7912 13.7932H16.7912ZM16.7912 11.0108H11.1591C11.0316 11.0105 10.9094 10.9596 10.8192 10.8694C10.729 10.7793 10.6781 10.657 10.6778 10.5295C10.6771 10.4661 10.6892 10.4032 10.7131 10.3445C10.7371 10.2858 10.7725 10.2325 10.8174 10.1877C10.8622 10.1429 10.9155 10.1074 10.9742 10.0835C11.0329 10.0595 11.0957 10.0475 11.1591 10.0481H16.7912C16.8546 10.0475 16.9175 10.0595 16.9762 10.0835C17.0348 10.1075 17.0881 10.1429 17.133 10.1877C17.1778 10.2325 17.2132 10.2859 17.2372 10.3445C17.2612 10.4032 17.2732 10.4661 17.2726 10.5295C17.2722 10.657 17.2213 10.7792 17.1311 10.8694C17.0409 10.9596 16.9187 11.0104 16.7912 11.0108L16.7912 11.0108ZM17.0319 3.79999H10.9184C10.6648 3.80273 10.4225 3.90535 10.2441 4.08558C10.0657 4.26581 9.96553 4.50911 9.96533 4.76272V15.2373C9.96542 15.4667 10.0473 15.6886 10.1964 15.863C10.2156 15.8823 10.2253 15.9015 10.2446 15.9208C10.4233 16.0995 10.6657 16.1999 10.9184 16.2H17.0319C17.2855 16.1972 17.5277 16.0946 17.7062 15.9144C17.8846 15.7341 17.9848 15.4909 17.985 15.2373V4.76272C17.9848 4.50912 17.8846 4.26582 17.7062 4.0856C17.5277 3.90538 17.2855 3.80275 17.0319 3.79999ZM11.987 7.03475C12.083 6.94972 12.2087 6.90605 12.3368 6.91325C12.4648 6.92046 12.5848 6.97797 12.6707 7.07325L13.4216 7.91082L15.2893 5.93723C15.3326 5.89072 15.3848 5.8533 15.4428 5.82712C15.5007 5.80095 15.5633 5.78656 15.6269 5.78477C15.6905 5.78299 15.7538 5.79385 15.8131 5.81673C15.8724 5.83961 15.9266 5.87406 15.9725 5.91806C16.0185 5.96206 16.0552 6.01475 16.0805 6.07306C16.1059 6.13137 16.1195 6.19414 16.1204 6.25773C16.1213 6.32131 16.1096 6.38445 16.0859 6.44347C16.0622 6.50249 16.027 6.55621 15.9824 6.60152L13.8066 8.89282L13.7681 8.94095L13.7295 8.9795C13.6915 9.01071 13.6495 9.0366 13.6045 9.05647C13.5852 9.0661 13.5659 9.0661 13.5563 9.07575C13.5089 9.08688 13.4606 9.09333 13.412 9.09501C13.2907 9.08883 13.1751 9.04125 13.0846 8.96022C13.0749 8.96022 13.0653 8.95058 13.0557 8.94095L11.9583 7.71832C11.8719 7.62365 11.8264 7.49866 11.8318 7.3706C11.8372 7.24255 11.893 7.12182 11.987 7.03475ZM16.7912 13.7932H11.1591C11.0957 13.7938 11.0329 13.7818 10.9742 13.7578C10.9155 13.7338 10.8622 13.6984 10.8174 13.6536C10.7725 13.6087 10.7371 13.5554 10.7131 13.4967C10.6892 13.4381 10.6771 13.3752 10.6778 13.3118C10.6781 13.1842 10.729 13.062 10.8192 12.9718C10.9094 12.8816 11.0316 12.8308 11.1591 12.8304H16.7912C16.9188 12.8308 17.041 12.8816 17.1312 12.9718C17.2214 13.062 17.2722 13.1842 17.2726 13.3118C17.2732 13.3752 17.2612 13.438 17.2372 13.4967C17.2132 13.5554 17.1778 13.6087 17.133 13.6535C17.0881 13.6984 17.0348 13.7338 16.9761 13.7578C16.9175 13.7817 16.8546 13.7938 16.7912 13.7932H16.7912ZM16.7912 11.0108H11.1591C11.0316 11.0105 10.9094 10.9596 10.8192 10.8694C10.729 10.7793 10.6781 10.657 10.6778 10.5295C10.6771 10.4661 10.6892 10.4032 10.7131 10.3445C10.7371 10.2858 10.7725 10.2325 10.8174 10.1877C10.8622 10.1429 10.9155 10.1074 10.9742 10.0835C11.0329 10.0595 11.0957 10.0475 11.1591 10.0481H16.7912C16.8546 10.0475 16.9175 10.0595 16.9762 10.0835C17.0348 10.1075 17.0881 10.1429 17.133 10.1877C17.1778 10.2325 17.2132 10.2859 17.2372 10.3445C17.2612 10.4032 17.2732 10.4661 17.2726 10.5295C17.2722 10.657 17.2213 10.7792 17.1311 10.8694C17.0409 10.9596 16.9187 11.0104 16.7912 11.0108L16.7912 11.0108Z" fill="#171723"/>
<path d="M9.00467 6.24783C9.00468 6.73198 8.86112 7.20526 8.59215 7.60782C8.32318 8.01038 7.94087 8.32414 7.49358 8.50942C7.04629 8.69471 6.5541 8.74319 6.07925 8.64874C5.6044 8.55429 5.16822 8.32116 4.82587 7.97882C4.48353 7.63647 4.25038 7.2003 4.15593 6.72545C4.06147 6.25061 4.10995 5.75841 4.29522 5.31112C4.4805 4.86382 4.79425 4.48151 5.1968 4.21253C5.59936 3.94355 6.07264 3.79999 6.55679 3.79999C7.20562 3.80123 7.82752 4.05952 8.28632 4.51831C8.74512 4.9771 9.00342 5.599 9.00467 6.24783Z" fill="#171723"/>
<path d="M9.41525 16.2H3.42353C3.049 16.1986 2.69034 16.0486 2.42629 15.783C2.16223 15.5174 2.01436 15.1579 2.01514 14.7833V14.075C2.01798 12.8713 2.49739 11.7178 3.34852 10.8667C4.19965 10.0156 5.35321 9.53616 6.55687 9.53334H6.59013C6.73503 9.52872 6.88006 9.53708 7.02346 9.55834C7.78588 9.63439 8.51396 9.91353 9.1318 10.3667V15.2333C9.1309 15.5762 9.22935 15.9119 9.41525 16.2Z" fill="#171723"/>
</g>
<defs>
<clipPath id="clip0_10317_146836">
<rect width="20" height="20" fill="white"/>
</clipPath>
</defs>
</svg>
