<svg width="20" height="20" viewBox="0 0 20 20" fill="none" xmlns="http://www.w3.org/2000/svg">
<g clip-path="url(#clip0_10314_145977)">
<path d="M10.0089 18.1947C9.99588 18.1938 9.9853 18.1947 9.97307 18.1938C8.35314 18.1888 6.77103 17.7038 5.42656 16.8002C4.0821 15.8965 3.03558 14.6147 2.4192 13.1166C1.80282 11.6185 1.64422 9.97137 1.96343 8.3832C2.28264 6.79502 3.06535 5.33707 4.21269 4.19348C5.36003 3.04989 6.82054 2.27196 8.40975 1.95794C9.99897 1.64393 11.6456 1.80792 13.1417 2.42921C14.6377 3.05049 15.9161 4.10119 16.8154 5.44861C17.7146 6.79603 18.1944 8.37972 18.1941 9.99965V11.296C18.1951 11.6346 18.1289 11.9699 17.9994 12.2827C17.87 12.5954 17.6797 12.8794 17.4397 13.1181C16.9485 13.5865 16.2959 13.8478 15.6172 13.8478C14.9385 13.8478 14.2859 13.5865 13.7947 13.1181C13.5306 12.8547 13.3268 12.537 13.1974 12.1872C12.6739 12.9527 11.8932 13.5052 10.9971 13.7441C10.1011 13.9831 9.14896 13.8928 8.31379 13.4896C7.47861 13.0864 6.81574 12.397 6.44557 11.5467C6.07539 10.6963 6.02246 9.74144 6.29638 8.8554C6.5703 7.96936 7.15292 7.21094 7.93841 6.71788C8.7239 6.22483 9.66017 6.02983 10.5772 6.16831C11.4942 6.30679 12.3312 6.76957 12.936 7.47258C13.5409 8.1756 13.8736 9.07224 13.8736 9.99965V11.296C13.873 11.5251 13.9177 11.752 14.0053 11.9636C14.0929 12.1752 14.2216 12.3674 14.3839 12.529C14.716 12.8465 15.1578 13.0237 15.6172 13.0237C16.0767 13.0237 16.5185 12.8465 16.8506 12.529C17.0129 12.3674 17.1416 12.1752 17.2292 11.9636C17.3168 11.752 17.3615 11.5251 17.3608 11.296V9.99967C17.3609 8.54376 16.9292 7.12054 16.1204 5.90998C15.3115 4.69941 14.1619 3.75589 12.8168 3.19871C11.4717 2.64153 9.99166 2.49574 8.56373 2.77976C7.13579 3.06378 5.82415 3.76485 4.79466 4.79433C3.76518 5.82381 3.0641 7.13545 2.78007 8.56338C2.49605 9.99132 2.64184 11.4714 3.19901 12.8165C3.75618 14.1616 4.6997 15.3112 5.91026 16.12C7.12082 16.9289 8.54404 17.3606 9.99995 17.3605C10.0089 17.3605 10.017 17.3605 10.026 17.3613C11.3093 17.358 12.5693 17.0179 13.6799 16.375C13.7756 16.3195 13.8893 16.3043 13.9961 16.3327C14.103 16.3611 14.1942 16.4307 14.2496 16.5264C14.3051 16.622 14.3203 16.7357 14.2919 16.8425C14.2636 16.9494 14.1939 17.0406 14.0983 17.096C12.8553 17.8152 11.4449 18.1941 10.0089 18.1947ZM9.99995 6.9593C9.39867 6.95925 8.81087 7.1375 8.3109 7.47151C7.81092 7.80552 7.42123 8.28029 7.19109 8.83579C6.96094 9.39128 6.9007 10.0025 7.01796 10.5923C7.13523 11.182 7.42474 11.7237 7.84989 12.1489C8.42903 12.7021 9.19909 13.0107 9.99996 13.0107C10.8008 13.0107 11.5709 12.7021 12.15 12.1489C12.5752 11.7237 12.8648 11.182 12.982 10.5923C13.0993 10.0025 13.0391 9.39124 12.8089 8.83573C12.5788 8.28022 12.1891 7.80544 11.6891 7.47144C11.1891 7.13743 10.6012 6.95921 9.99995 6.9593Z" fill="#171723"/>
</g>
<defs>
<clipPath id="clip0_10314_145977">
<rect width="20" height="20" fill="white"/>
</clipPath>
</defs>
</svg>
