<svg width="20" height="20" viewBox="0 0 20 20" fill="none" xmlns="http://www.w3.org/2000/svg">
<path d="M18.0706 17.4838L17.055 16.4682C17.0036 16.4179 16.9399 16.382 16.8703 16.364C16.8007 16.3461 16.7276 16.3468 16.6583 16.366L16.115 15.8228C16.5256 15.3712 16.8187 14.8255 16.9684 14.2338C17.118 13.6421 17.1196 13.0226 16.9731 12.4302C16.8265 11.8377 16.5363 11.2904 16.128 10.8368C15.7198 10.3831 15.206 10.0369 14.6323 9.8289V4.10488C14.6306 3.49405 14.3866 2.90885 13.9539 2.47769C13.5213 2.04653 12.9352 1.80462 12.3244 1.80505H4.10742C3.49768 1.80575 2.91312 2.04828 2.48197 2.47943C2.05083 2.91058 1.80831 3.49514 1.80762 4.10488V14.7799C1.80829 15.3897 2.0508 15.9743 2.48193 16.4055C2.91307 16.8367 3.49764 17.0794 4.10742 17.0801H12.3244C12.4755 17.0778 12.626 17.0602 12.7735 17.0274C13.3172 17.1268 13.8767 17.0962 14.4062 16.938C14.9358 16.7799 15.4204 16.4986 15.8204 16.1173L16.3637 16.6604C16.3445 16.7297 16.3438 16.8029 16.3617 16.8725C16.3796 16.9422 16.4155 17.0059 16.4658 17.0573L17.4814 18.073C17.5598 18.1498 17.6654 18.1926 17.7752 18.192C17.8849 18.1915 17.99 18.1476 18.0676 18.07C18.1453 17.9924 18.1891 17.8873 18.1897 17.7775C18.1902 17.6678 18.1474 17.5622 18.0706 17.4838L18.0706 17.4838ZM4.10742 16.2468C3.71855 16.2464 3.34573 16.0917 3.0708 15.8167C2.79586 15.5417 2.64127 15.1688 2.64095 14.7799V4.10492C2.64134 3.7161 2.79596 3.34332 3.07089 3.06838C3.34582 2.79344 3.7186 2.63879 4.10742 2.63839H12.3244C12.7142 2.63779 13.0884 2.79184 13.3649 3.06676C13.6413 3.34167 13.7974 3.715 13.799 4.10486V9.62986C13.6442 9.60416 13.4879 9.58836 13.331 9.58256C12.554 9.57919 11.7952 9.81829 11.1604 10.2666C10.5257 10.7148 10.0465 11.35 9.78983 12.0834C9.53312 12.8169 9.51159 13.6122 9.72825 14.3584C9.94491 15.1047 10.389 15.7648 10.9986 16.2468L4.10742 16.2468ZM13.331 16.2505C12.7541 16.2504 12.1901 16.0793 11.7103 15.7587C11.2306 15.4381 10.8567 14.9825 10.636 14.4494C10.4152 13.9163 10.3575 13.3297 10.4701 12.7639C10.5827 12.198 10.8605 11.6782 11.2686 11.2702C11.6766 10.8623 12.1964 10.5845 12.7623 10.4719C13.3282 10.3594 13.9148 10.4172 14.4478 10.6381C14.9809 10.8589 15.4365 11.2328 15.757 11.7126C16.0775 12.1924 16.2486 12.7564 16.2485 13.3334C16.2476 14.1068 15.94 14.8483 15.393 15.3952C14.8461 15.9421 14.1045 16.2497 13.331 16.2505Z" fill="#171723"/>
<path d="M10.8813 9.44291C10.8813 9.38819 10.8706 9.33399 10.8497 9.28342C10.8287 9.23286 10.798 9.18691 10.7593 9.14821C10.7206 9.10952 10.6747 9.07883 10.6241 9.0579C10.5736 9.03697 10.5194 9.02621 10.4646 9.02625H4.27409C4.16358 9.02625 4.0576 9.07014 3.97946 9.14828C3.90132 9.22642 3.85742 9.3324 3.85742 9.44291C3.85742 9.55342 3.90132 9.6594 3.97946 9.73754C4.0576 9.81568 4.16358 9.85958 4.27409 9.85958H10.4647C10.5194 9.8596 10.5736 9.84884 10.6242 9.82791C10.6747 9.80698 10.7207 9.77629 10.7593 9.73759C10.798 9.6989 10.8287 9.65295 10.8497 9.60239C10.8706 9.55183 10.8813 9.49763 10.8813 9.44291Z" fill="#171723"/>
<path d="M4.27409 7.79622H12.5431C12.6536 7.79622 12.7596 7.75233 12.8377 7.67419C12.9159 7.59605 12.9598 7.49006 12.9598 7.37956C12.9598 7.26905 12.9159 7.16307 12.8377 7.08493C12.7596 7.00679 12.6536 6.96289 12.5431 6.96289H4.27409C4.16358 6.96289 4.0576 7.00679 3.97946 7.08493C3.90132 7.16307 3.85742 7.26905 3.85742 7.37956C3.85742 7.49006 3.90132 7.59605 3.97946 7.67419C4.0576 7.75233 4.16358 7.79622 4.27409 7.79622Z" fill="#171723"/>
<path d="M4.27409 5.73287H12.5431C12.6536 5.73287 12.7596 5.68897 12.8377 5.61083C12.9159 5.53269 12.9598 5.42671 12.9598 5.3162C12.9598 5.2057 12.9159 5.09972 12.8377 5.02158C12.7596 4.94343 12.6536 4.89954 12.5431 4.89954H4.27409C4.16358 4.89954 4.0576 4.94343 3.97946 5.02158C3.90132 5.09972 3.85742 5.2057 3.85742 5.3162C3.85742 5.42671 3.90132 5.53269 3.97946 5.61083C4.0576 5.68897 4.16358 5.73287 4.27409 5.73287Z" fill="#171723"/>
</svg>
