<svg width="20" height="20" viewBox="0 0 20 20" fill="none" xmlns="http://www.w3.org/2000/svg">
<path d="M13.1869 12.8496C13.1095 12.8497 13.0337 12.8282 12.9678 12.7875C12.902 12.7469 12.8487 12.6887 12.8141 12.6195C12.7795 12.5503 12.7648 12.4728 12.7717 12.3957C12.7786 12.3187 12.8069 12.245 12.8533 12.1831C13.2506 11.5251 13.4606 10.7711 13.4606 10.0025C13.4606 9.23391 13.2506 8.47991 12.8533 7.82194C12.7876 7.73341 12.7596 7.62247 12.7756 7.51339C12.7915 7.40432 12.85 7.30598 12.9382 7.23991C13.0264 7.17384 13.1372 7.14541 13.2464 7.16085C13.3555 7.17628 13.4541 7.23432 13.5206 7.32227C14.0266 8.12466 14.2951 9.05391 14.2951 10.0025C14.2951 10.9511 14.0266 11.8804 13.5206 12.6828C13.4817 12.7345 13.4313 12.7766 13.3734 12.8055C13.3155 12.8345 13.2517 12.8496 13.1869 12.8496Z" fill="#171723"/>
<path d="M15.2702 15.2804C15.1868 15.2803 15.1054 15.2551 15.0365 15.2083C14.9676 15.1614 14.9143 15.095 14.8836 15.0175C14.8528 14.94 14.846 14.8551 14.864 14.7738C14.882 14.6924 14.924 14.6183 14.9845 14.561C15.6025 13.9809 16.0946 13.28 16.4305 12.5018C16.7663 11.7236 16.9387 10.8846 16.9368 10.0371C16.9433 9.17811 16.7732 8.327 16.4369 7.53658C16.1006 6.74617 15.6054 6.03333 14.9821 5.44234C14.9424 5.40455 14.9105 5.3593 14.8883 5.30916C14.866 5.25903 14.8539 5.20501 14.8527 5.15019C14.8514 5.09538 14.8609 5.04085 14.8807 4.98972C14.9005 4.9386 14.9303 4.89189 14.9682 4.85227C15.0061 4.81265 15.0514 4.7809 15.1016 4.75884C15.1518 4.73678 15.2059 4.72485 15.2607 4.72372C15.3155 4.72259 15.37 4.73229 15.4211 4.75227C15.4721 4.77225 15.5188 4.8021 15.5583 4.84013C16.259 5.51248 16.8162 6.31982 17.1964 7.21343C17.5765 8.10703 17.7717 9.06839 17.7702 10.0395C17.7722 11.0002 17.5766 11.9511 17.1957 12.8331C16.8148 13.715 16.2566 14.5093 15.5558 15.1665C15.4788 15.2398 15.3765 15.2806 15.2702 15.2804Z" fill="#171723"/>
<path d="M10.5535 16.4572H10.272C10.0985 16.4575 9.92661 16.4235 9.76628 16.3571C9.60596 16.2908 9.46032 16.1934 9.33773 16.0706L6.24284 12.9749C6.19731 12.9294 6.14325 12.8934 6.08377 12.8688C6.02428 12.8442 5.96053 12.8316 5.89617 12.8317H4.0057C3.53492 12.8311 3.0836 12.6439 2.75071 12.311C2.41782 11.9781 2.23056 11.5268 2.22998 11.056V8.94418C2.23055 8.47341 2.41782 8.02208 2.75071 7.68919C3.0836 7.3563 3.53492 7.16903 4.0057 7.16846H5.89616C5.9606 7.16858 6.02442 7.15591 6.08393 7.13118C6.14343 7.10646 6.19744 7.07017 6.24282 7.02442L9.3369 3.93034C9.4594 3.80715 9.60512 3.70948 9.76562 3.64299C9.92612 3.57649 10.0982 3.5425 10.272 3.54297H10.5535C10.8119 3.54332 11.0596 3.64617 11.2422 3.82896C11.4249 4.01174 11.5275 4.25952 11.5276 4.51791V15.4823C11.5275 15.7406 11.4249 15.9884 11.2423 16.1712C11.0596 16.354 10.8119 16.4568 10.5535 16.4572ZM4.0057 8.00179C3.75581 8.00194 3.51619 8.10128 3.33949 8.27798C3.1628 8.45468 3.06346 8.69429 3.06331 8.94418V11.056C3.06347 11.3059 3.16281 11.5455 3.33951 11.7222C3.51621 11.8989 3.75581 11.9982 4.0057 11.9983H5.89616C6.06979 11.9981 6.24176 12.0321 6.40222 12.0984C6.56268 12.1647 6.70847 12.2621 6.83121 12.3849L9.92611 15.4806C10.018 15.572 10.1423 15.6235 10.2719 15.6238H10.5535C10.5909 15.6236 10.6268 15.6086 10.6531 15.5821C10.6795 15.5556 10.6943 15.5197 10.6943 15.4822V4.51791C10.6943 4.48049 10.6795 4.44458 10.6531 4.41805C10.6267 4.39151 10.5909 4.37651 10.5535 4.37631H10.2719C10.2077 4.37623 10.1441 4.38884 10.0847 4.41342C10.0254 4.438 9.97148 4.47406 9.92611 4.51953L6.83203 7.61361C6.70948 7.73701 6.56365 7.83487 6.403 7.9015C6.24235 7.96814 6.07008 8.00222 5.89616 8.00179H4.0057Z" fill="#171723"/>
</svg>
