<svg width="20" height="20" viewBox="0 0 20 20" fill="none" xmlns="http://www.w3.org/2000/svg">
<path d="M15.2751 1.80835H4.7251C4.56088 1.80813 4.39824 1.84031 4.24648 1.90305C4.09473 1.9658 3.95684 2.05786 3.84073 2.17398C3.72461 2.29009 3.63254 2.42798 3.5698 2.57974C3.50706 2.73149 3.47488 2.89414 3.4751 3.05835V17.7417C3.4751 17.7667 3.48343 17.7834 3.48343 17.8084C3.48891 17.8396 3.49727 17.8703 3.50843 17.9C3.53864 17.9752 3.59032 18.0397 3.65702 18.0857C3.72371 18.1316 3.80246 18.1569 3.88343 18.1584H3.89177C3.92568 18.1569 3.9593 18.1513 3.99187 18.1417C4.01035 18.1342 4.03037 18.1314 4.0502 18.1334L5.86687 17.3917L7.78343 18.1667C7.88636 18.2 7.99717 18.2 8.1001 18.1667L10.0084 17.3917L11.9251 18.1667C12.028 18.2 12.1388 18.2 12.2417 18.1667L14.15 17.3917L15.9499 18.125C15.9749 18.1333 15.9916 18.125 16.0083 18.1333C16.0409 18.1429 16.0744 18.1485 16.1083 18.15H16.125C16.2046 18.1472 16.2817 18.1213 16.3468 18.0754C16.412 18.0296 16.4623 17.9657 16.4917 17.8916C16.5046 17.8629 16.5103 17.8314 16.5084 17.8C16.5177 17.7789 16.5233 17.7563 16.5249 17.7333V3.05835C16.5252 2.89415 16.493 2.73152 16.4303 2.57977C16.3675 2.42803 16.2755 2.29015 16.1594 2.17403C16.0433 2.05792 15.9054 1.96585 15.7537 1.9031C15.6019 1.84035 15.4393 1.80815 15.2751 1.80835ZM10.2084 14.5417C10.2079 14.4868 10.2183 14.4324 10.239 14.3816C10.2598 14.3308 10.2905 14.2846 10.3293 14.2459C10.3681 14.2071 10.4142 14.1764 10.465 14.1556C10.5158 14.1349 10.5702 14.1245 10.6251 14.125H14.1418C14.2523 14.125 14.3583 14.1689 14.4364 14.2471C14.5145 14.3252 14.5584 14.4312 14.5584 14.5417C14.5584 14.6522 14.5145 14.7582 14.4364 14.8363C14.3583 14.9145 14.2523 14.9584 14.1418 14.9584H10.6251C10.5702 14.9589 10.5158 14.9485 10.465 14.9277C10.4142 14.907 10.3681 14.8763 10.3293 14.8375C10.2905 14.7987 10.2598 14.7526 10.2391 14.7018C10.2183 14.651 10.2079 14.5965 10.2085 14.5417H10.2084ZM6.9751 11.7167C7.03926 11.7821 7.11574 11.8342 7.20012 11.87C7.2845 11.9057 7.37512 11.9244 7.46677 11.925H7.83343C8.23597 11.9248 8.62232 12.0835 8.90843 12.3667C9.19141 12.6529 9.35011 13.0392 9.35011 13.4417C9.35011 13.8442 9.19141 14.2304 8.90843 14.5167C8.63122 14.7827 8.26719 14.9396 7.88343 14.9584V15.275C7.88312 15.3854 7.83912 15.4912 7.76105 15.5693C7.68298 15.6474 7.57718 15.6914 7.46677 15.6917C7.4119 15.6922 7.35747 15.6818 7.30667 15.6611C7.25587 15.6403 7.20972 15.6097 7.17092 15.5709C7.13212 15.5321 7.10145 15.4859 7.08071 15.4351C7.05996 15.3843 7.04955 15.3299 7.0501 15.275V14.9584H6.35838C6.24788 14.9584 6.14189 14.9145 6.06375 14.8363C5.98561 14.7582 5.94172 14.6522 5.94172 14.5417C5.94172 14.4312 5.98561 14.3252 6.06375 14.2471C6.14189 14.1689 6.24788 14.125 6.35838 14.125H7.83343C7.92319 14.1251 8.01208 14.1075 8.09501 14.0731C8.17795 14.0388 8.25331 13.9885 8.31677 13.925C8.38024 13.8616 8.43057 13.7862 8.46489 13.7033C8.49921 13.6203 8.51683 13.5314 8.51677 13.4417C8.51634 13.2605 8.44448 13.0868 8.31677 12.9584C8.25382 12.8942 8.17856 12.8434 8.09551 12.809C8.01245 12.7747 7.92331 12.7574 7.83343 12.7584H7.46677C7.16511 12.7593 6.86998 12.6705 6.61895 12.5032C6.36792 12.3359 6.17233 12.0977 6.05707 11.819C5.94181 11.5402 5.91209 11.2334 5.97169 10.9377C6.03129 10.642 6.17752 10.3707 6.39177 10.1583C6.66497 9.88634 7.03142 9.72844 7.41677 9.71668V9.40002C7.41623 9.34515 7.42665 9.29073 7.4474 9.23994C7.46815 9.18915 7.49882 9.143 7.53762 9.1042C7.57642 9.06541 7.62256 9.03473 7.67335 9.01398C7.72415 8.99323 7.77857 8.98282 7.83343 8.98335C7.94384 8.98367 8.04963 9.02767 8.12771 9.10574C8.20578 9.18381 8.24978 9.28961 8.2501 9.40002V9.71668H8.93343C9.04394 9.71668 9.14992 9.76058 9.22806 9.83872C9.3062 9.91686 9.3501 10.0228 9.3501 10.1334C9.3501 10.2439 9.3062 10.3498 9.22806 10.428C9.14992 10.5061 9.04394 10.55 8.93343 10.55H7.46677C7.37564 10.5491 7.28523 10.5662 7.20082 10.6006C7.11641 10.6349 7.03967 10.6857 6.9751 10.75C6.84868 10.8794 6.77701 11.0525 6.775 11.2333C6.77544 11.4145 6.84737 11.5882 6.97515 11.7167H6.9751ZM14.5584 4.44168C14.5581 4.55209 14.5141 4.65789 14.436 4.73597C14.358 4.81404 14.2522 4.85804 14.1418 4.85835H8.58352C8.52866 4.8589 8.47423 4.84849 8.42343 4.82774C8.37263 4.807 8.32648 4.77633 8.28768 4.73753C8.24888 4.69873 8.21821 4.65258 8.19746 4.60178C8.17672 4.55098 8.16631 4.49655 8.16686 4.44168C8.16718 4.33128 8.21118 4.22548 8.28925 4.14741C8.36732 4.06934 8.47312 4.02534 8.58352 4.02502H14.1418C14.2517 4.02675 14.3567 4.07121 14.4345 4.14898C14.5122 4.22674 14.5567 4.33172 14.5584 4.44168ZM6.85843 4.45002C6.85843 4.58263 6.80575 4.7098 6.71199 4.80357C6.61822 4.89734 6.49104 4.95002 6.35843 4.95002C6.22582 4.95002 6.09865 4.89734 6.00488 4.80357C5.91111 4.7098 5.85843 4.58263 5.85843 4.45002C5.85843 4.31741 5.91111 4.19023 6.00488 4.09646C6.09865 4.0027 6.22582 3.95002 6.35843 3.95002C6.49104 3.95002 6.61822 4.0027 6.71199 4.09646C6.80575 4.19023 6.85843 4.31741 6.85843 4.45002ZM6.35835 6.12502C6.45724 6.12499 6.55393 6.1543 6.63617 6.20922C6.71841 6.26415 6.78251 6.34223 6.82038 6.43359C6.85824 6.52495 6.86816 6.62549 6.84888 6.72249C6.8296 6.81948 6.78199 6.90859 6.71207 6.97853C6.64215 7.04847 6.55306 7.0961 6.45607 7.1154C6.35907 7.1347 6.25853 7.12481 6.16716 7.08697C6.07579 7.04913 5.99769 6.98504 5.94275 6.90282C5.8878 6.82059 5.85847 6.72391 5.85847 6.62502C5.85887 6.49255 5.91166 6.36561 6.00533 6.27193C6.09899 6.17825 6.22591 6.12544 6.35838 6.12502H6.35835ZM8.58349 7.04168C8.47298 7.04168 8.367 6.99779 8.28886 6.91965C8.21072 6.84151 8.16682 6.73552 8.16682 6.62502C8.16682 6.51451 8.21072 6.40853 8.28886 6.33039C8.367 6.25225 8.47298 6.20835 8.58349 6.20835H14.1418C14.2523 6.20835 14.3583 6.25225 14.4364 6.33039C14.5145 6.40853 14.5584 6.51451 14.5584 6.62502C14.5584 6.73552 14.5145 6.84151 14.4364 6.91965C14.3583 6.99779 14.2523 7.04168 14.1418 7.04168H8.58349ZM14.1418 10.55H10.6251C10.5146 10.55 10.4086 10.5061 10.3305 10.428C10.2523 10.3498 10.2084 10.2439 10.2084 10.1334C10.2084 10.0228 10.2523 9.91686 10.3305 9.83872C10.4086 9.76058 10.5146 9.71668 10.6251 9.71668H14.1418C14.2523 9.71668 14.3583 9.76058 14.4364 9.83872C14.5145 9.91686 14.5584 10.0228 14.5584 10.1334C14.5584 10.2439 14.5145 10.3498 14.4364 10.428C14.3583 10.5061 14.2523 10.55 14.1418 10.55ZM14.5584 12.3417C14.5567 12.4516 14.5122 12.5566 14.4345 12.6344C14.3567 12.7122 14.2517 12.7566 14.1418 12.7584H10.6251C10.5147 12.758 10.4089 12.714 10.3308 12.636C10.2528 12.5579 10.2088 12.4521 10.2084 12.3417C10.2079 12.2868 10.2183 12.2324 10.239 12.1816C10.2598 12.1308 10.2905 12.0846 10.3293 12.0458C10.3681 12.007 10.4142 11.9764 10.465 11.9556C10.5158 11.9349 10.5702 11.9245 10.6251 11.925H14.1418C14.2522 11.9253 14.358 11.9693 14.436 12.0474C14.5141 12.1255 14.5581 12.2313 14.5584 12.3417Z" fill="#171723"/>
</svg>
