<svg width="20" height="20" viewBox="0 0 20 20" fill="none" xmlns="http://www.w3.org/2000/svg">
<path d="M7.4637 10.5482H8.93344C9.04395 10.5482 9.14993 10.5043 9.22807 10.4262C9.30621 10.348 9.3501 10.242 9.3501 10.1315C9.3501 10.021 9.30621 9.91504 9.22807 9.8369C9.14993 9.75876 9.04395 9.71486 8.93344 9.71486H8.2474V9.39665C8.2474 9.28614 8.2035 9.18016 8.12536 9.10202C8.04722 9.02388 7.94124 8.97998 7.83073 8.97998C7.72022 8.97998 7.61424 9.02388 7.5361 9.10202C7.45796 9.18016 7.41406 9.28614 7.41406 9.39665V9.71968C7.02889 9.72974 6.66222 9.88702 6.38949 10.1592C6.24836 10.3002 6.13641 10.4677 6.06003 10.652C5.98365 10.8363 5.94434 11.0339 5.94434 11.2334C5.94434 11.4329 5.98365 11.6305 6.06003 11.8148C6.13641 11.9991 6.24836 12.1666 6.38949 12.3076C6.53017 12.4492 6.69757 12.5615 6.88197 12.6379C7.06637 12.7143 7.2641 12.7533 7.4637 12.7528H7.83073C7.96637 12.7526 8.099 12.7928 8.21183 12.868C8.32465 12.9433 8.4126 13.0504 8.46453 13.1757C8.51646 13.301 8.53004 13.4389 8.50355 13.5719C8.47707 13.705 8.4117 13.8272 8.31573 13.923C8.18684 14.0513 8.01256 14.1235 7.83073 14.124H6.361C6.2505 14.124 6.14452 14.1679 6.06638 14.2461C5.98824 14.3242 5.94434 14.4302 5.94434 14.5407C5.94434 14.6512 5.98824 14.7572 6.06638 14.8353C6.14452 14.9135 6.2505 14.9574 6.361 14.9574H7.04704V15.2756C7.04704 15.3861 7.09094 15.492 7.16908 15.5702C7.24722 15.6483 7.3532 15.6922 7.4637 15.6922C7.57421 15.6922 7.68019 15.6483 7.75833 15.5702C7.83647 15.492 7.88037 15.3861 7.88037 15.2756V14.9524C8.26518 14.9401 8.63114 14.7829 8.90495 14.5122C9.1173 14.2998 9.2619 14.0291 9.32045 13.7345C9.379 13.4399 9.34889 13.1345 9.23391 12.857C9.11894 12.5795 8.92426 12.3423 8.6745 12.1754C8.42474 12.0085 8.13111 11.9195 7.83073 11.9194H7.4637C7.37359 11.9196 7.28434 11.902 7.20109 11.8675C7.11785 11.833 7.04226 11.7823 6.9787 11.7184C6.91498 11.6547 6.86443 11.5791 6.82994 11.4959C6.79545 11.4127 6.7777 11.3235 6.7777 11.2334C6.7777 11.1433 6.79545 11.0541 6.82994 10.9709C6.86443 10.8877 6.91498 10.812 6.9787 10.7484C7.04226 10.6845 7.11786 10.634 7.20112 10.5996C7.28438 10.5653 7.37363 10.5478 7.4637 10.5482Z" fill="#171723"/>
<path d="M6.36084 4.94446C6.45973 4.94446 6.5564 4.91513 6.63862 4.86019C6.72085 4.80525 6.78494 4.72716 6.82278 4.6358C6.86062 4.54444 6.87053 4.4439 6.85123 4.34691C6.83194 4.24992 6.78432 4.16083 6.71439 4.0909C6.64447 4.02098 6.55538 3.97336 6.45839 3.95407C6.36139 3.93477 6.26086 3.94467 6.1695 3.98252C6.07814 4.02036 6.00005 4.08445 5.9451 4.16667C5.89016 4.2489 5.86084 4.34557 5.86084 4.44446C5.86084 4.57707 5.91352 4.70424 6.00729 4.79801C6.10105 4.89178 6.22823 4.94446 6.36084 4.94446Z" fill="#171723"/>
<path d="M14.1387 4.02808H8.58366C8.47315 4.02808 8.36717 4.07197 8.28903 4.15012C8.21089 4.22826 8.16699 4.33424 8.16699 4.44474C8.16699 4.55525 8.21089 4.66123 8.28903 4.73937C8.36717 4.81751 8.47315 4.86141 8.58366 4.86141H14.1387C14.2492 4.86141 14.3551 4.81751 14.4333 4.73937C14.5114 4.66123 14.5553 4.55525 14.5553 4.44474C14.5553 4.33424 14.5114 4.22826 14.4333 4.15012C14.3551 4.07197 14.2492 4.02808 14.1387 4.02808Z" fill="#171723"/>
<path d="M6.36084 7.12451C6.45973 7.12451 6.5564 7.09519 6.63862 7.04025C6.72085 6.98531 6.78494 6.90722 6.82278 6.81585C6.86062 6.72449 6.87053 6.62396 6.85123 6.52697C6.83194 6.42998 6.78432 6.34088 6.71439 6.27096C6.64447 6.20103 6.55538 6.15341 6.45839 6.13412C6.36139 6.11483 6.26086 6.12473 6.1695 6.16257C6.07814 6.20042 6.00005 6.2645 5.9451 6.34673C5.89016 6.42895 5.86084 6.52562 5.86084 6.62451C5.86084 6.75712 5.91352 6.8843 6.00729 6.97806C6.10105 7.07183 6.22823 7.12451 6.36084 7.12451Z" fill="#171723"/>
<path d="M14.1387 6.20825H8.58366C8.47315 6.20825 8.36717 6.25215 8.28903 6.33029C8.21089 6.40843 8.16699 6.51441 8.16699 6.62492C8.16699 6.73543 8.21089 6.84141 8.28903 6.91955C8.36717 6.99769 8.47315 7.04159 8.58366 7.04159H14.1387C14.2492 7.04159 14.3551 6.99769 14.4333 6.91955C14.5114 6.84141 14.5553 6.73543 14.5553 6.62492C14.5553 6.51441 14.5114 6.40843 14.4333 6.33029C14.3551 6.25215 14.2492 6.20825 14.1387 6.20825Z" fill="#171723"/>
<path d="M14.1385 9.71484H10.6237C10.5132 9.71484 10.4072 9.75874 10.3291 9.83688C10.2509 9.91502 10.207 10.021 10.207 10.1315C10.207 10.242 10.2509 10.348 10.3291 10.4261C10.4072 10.5043 10.5132 10.5482 10.6237 10.5482H14.1385C14.249 10.5482 14.355 10.5043 14.4331 10.4261C14.5113 10.348 14.5552 10.242 14.5552 10.1315C14.5552 10.021 14.5113 9.91502 14.4331 9.83688C14.355 9.75874 14.249 9.71484 14.1385 9.71484Z" fill="#171723"/>
<path d="M14.1385 11.9194H10.6237C10.5132 11.9194 10.4072 11.9633 10.3291 12.0415C10.2509 12.1196 10.207 12.2256 10.207 12.3361C10.207 12.4466 10.2509 12.5526 10.3291 12.6307C10.4072 12.7089 10.5132 12.7528 10.6237 12.7528H14.1385C14.249 12.7528 14.355 12.7089 14.4331 12.6307C14.5113 12.5526 14.5552 12.4466 14.5552 12.3361C14.5552 12.2256 14.5113 12.1196 14.4331 12.0415C14.355 11.9633 14.249 11.9194 14.1385 11.9194Z" fill="#171723"/>
<path d="M14.1385 14.124H10.6237C10.5132 14.124 10.4072 14.1679 10.3291 14.2461C10.2509 14.3242 10.207 14.4302 10.207 14.5407C10.207 14.6512 10.2509 14.7572 10.3291 14.8353C10.4072 14.9135 10.5132 14.9574 10.6237 14.9574H14.1385C14.249 14.9574 14.355 14.9135 14.4331 14.8353C14.5113 14.7572 14.5552 14.6512 14.5552 14.5407C14.5552 14.4302 14.5113 14.3242 14.4331 14.2461C14.355 14.1679 14.249 14.124 14.1385 14.124Z" fill="#171723"/>
<path d="M16.5252 17.7285V3.05472C16.5249 2.72416 16.3935 2.40722 16.1597 2.17348C15.926 1.93974 15.609 1.80829 15.2785 1.80798H4.72103C4.39059 1.80846 4.07384 1.93999 3.84026 2.17372C3.60668 2.40745 3.47536 2.72429 3.4751 3.05472V17.7414C3.47757 17.7624 3.48175 17.7832 3.4876 17.8035C3.48967 17.8355 3.49558 17.8671 3.50519 17.8976L3.50717 17.9006C3.52639 17.9447 3.55313 17.9851 3.58621 18.02C3.59038 18.0245 3.59227 18.0312 3.59659 18.0354C3.66796 18.1048 3.76195 18.1462 3.86133 18.1519C3.86972 18.1526 3.87716 18.1567 3.88565 18.1568L3.89175 18.1581C3.92503 18.1556 3.95787 18.149 3.98951 18.1384C4.00923 18.1363 4.02878 18.1328 4.048 18.1279L5.86766 17.3906L7.78579 18.1613C7.88541 18.202 7.997 18.202 8.09662 18.1613L10.0082 17.3906L11.928 18.1613C11.9774 18.1814 12.0302 18.1916 12.0834 18.1914C12.137 18.1915 12.19 18.1813 12.2397 18.1613L14.1497 17.3906L15.9523 18.1198C16.0046 18.1287 16.0567 18.1387 16.1085 18.1499L16.1143 18.1487L16.1224 18.1471C16.2022 18.1448 16.2795 18.1195 16.3453 18.0744C16.411 18.0292 16.4623 17.966 16.4931 17.8925L16.4951 17.8895C16.5044 17.8372 16.5144 17.7852 16.5252 17.7332L16.5252 17.7285ZM13.9935 16.5549L12.0835 17.3256L10.1637 16.5549C10.0641 16.5142 9.95252 16.5142 9.8529 16.5549L7.94128 17.3256L6.02233 16.5549C5.92242 16.5142 5.81057 16.5142 5.71066 16.5549L4.30848 17.1228V3.05472C4.30846 2.94522 4.3519 2.84017 4.42926 2.76266C4.50662 2.68515 4.61157 2.64151 4.72108 2.64132H15.2785C15.3881 2.64147 15.4931 2.68508 15.5706 2.76257C15.6481 2.84007 15.6917 2.94513 15.6919 3.05472V17.1151L14.306 16.5549C14.2058 16.5142 14.0937 16.5142 13.9935 16.5549Z" fill="#171723"/>
</svg>
