<svg width="20" height="20" viewBox="0 0 20 20" fill="none" xmlns="http://www.w3.org/2000/svg">
<g clip-path="url(#clip0_5313_35151)">
<path d="M17.5251 5.342C17.7286 5.15734 17.8924 4.93326 18.0067 4.68337C18.121 4.43348 18.1834 4.16298 18.19 3.88827C18.1966 3.61356 18.1474 3.34037 18.0453 3.08526C17.9432 2.83015 17.7903 2.59844 17.5959 2.40418C17.4006 2.21072 17.1685 2.05845 16.9132 1.95641C16.6579 1.85436 16.3848 1.80461 16.1099 1.8101C15.8354 1.81577 15.565 1.8777 15.3154 1.99207C15.0659 2.10643 14.8424 2.27079 14.6589 2.47499L10.34 7.23165C10.3131 7.26122 10.2805 7.28504 10.2441 7.30169C10.2077 7.31833 10.1684 7.32745 10.1284 7.3285C10.0884 7.33054 10.0484 7.32388 10.0111 7.30899C9.97391 7.2941 9.94034 7.27132 9.91276 7.24223L8.98665 6.31612C8.64138 5.97159 8.17354 5.7781 7.68579 5.7781C7.19803 5.7781 6.73019 5.97159 6.38492 6.31612L2.46647 10.2346C2.25155 10.4495 2.08107 10.7046 1.96475 10.9854C1.84844 11.2662 1.78857 11.5672 1.78857 11.8711C1.78857 12.1751 1.84844 12.476 1.96475 12.7568C2.08107 13.0376 2.25155 13.2928 2.46647 13.5077L2.68782 13.729L2.68945 13.7315L2.69189 13.7332L6.49235 17.5336C6.70726 17.7485 6.9624 17.919 7.2432 18.0353C7.524 18.1516 7.82497 18.2115 8.1289 18.2115C8.43284 18.2115 8.7338 18.1516 9.0146 18.0353C9.2954 17.919 9.55054 17.7485 9.76546 17.5336L13.6839 13.6151C14.0283 13.2698 14.2216 12.8019 14.2216 12.3142C14.2216 11.8265 14.0283 11.3587 13.6839 11.0134L12.7578 10.0873C12.7295 10.0591 12.7073 10.0254 12.6924 9.98835C12.6776 9.95127 12.6705 9.91155 12.6715 9.87162C12.6726 9.83165 12.6817 9.7923 12.6984 9.75594C12.715 9.71958 12.7388 9.68696 12.7684 9.66004L17.5251 5.342ZM9.17627 16.9444C8.89408 17.2137 8.51899 17.364 8.1289 17.364C7.73881 17.364 7.36372 17.2137 7.08154 16.9444L3.5737 13.4365L5.06657 11.9444C5.14339 11.866 5.18618 11.7604 5.18563 11.6507C5.18507 11.5409 5.14122 11.4358 5.0636 11.3582C4.98599 11.2806 4.88088 11.2367 4.77111 11.2362C4.66134 11.2356 4.5558 11.2784 4.4774 11.3552L2.99147 12.8404C2.74266 12.5596 2.61069 12.1943 2.62262 11.8193C2.63455 11.4444 2.78948 11.0882 3.05564 10.8238L4.99577 8.88367L11.1164 15.0043L9.17627 16.9444ZM12.1686 10.6765L13.0947 11.6026C13.2831 11.7915 13.3889 12.0474 13.3889 12.3142C13.3889 12.5811 13.2831 12.837 13.0947 13.0259L11.7056 14.4151L5.58496 8.29448L6.97412 6.90531C7.16293 6.71668 7.4189 6.61072 7.68579 6.61072C7.95268 6.61072 8.20865 6.71668 8.39746 6.90531L9.32357 7.83142C9.53564 8.0426 9.82261 8.16137 10.1219 8.16183C10.13 8.16183 10.139 8.16183 10.1479 8.16099C10.3007 8.15719 10.4512 8.12249 10.5902 8.05899C10.7292 7.99549 10.8539 7.90451 10.9569 7.79153L15.2757 3.03486C15.3839 2.9146 15.5157 2.81782 15.6628 2.75049C15.8099 2.68317 15.9693 2.64673 16.131 2.64343C16.293 2.63968 16.4541 2.66874 16.6046 2.72888C16.7551 2.78902 16.8919 2.87898 17.0067 2.99336C17.1211 3.10791 17.2112 3.2445 17.2713 3.39486C17.3315 3.54523 17.3605 3.70623 17.3566 3.86813C17.3527 4.03003 17.316 4.18946 17.2488 4.33677C17.1815 4.48407 17.085 4.61619 16.9652 4.72513L12.2085 9.04316C12.0955 9.14587 12.0044 9.27045 11.9409 9.40936C11.8774 9.54826 11.8427 9.69861 11.839 9.85129C11.8353 10.004 11.8626 10.1558 11.9192 10.2977C11.9759 10.4395 12.0607 10.5684 12.1686 10.6765L12.1686 10.6765Z" fill="#171723"/>
</g>
<defs>
<clipPath id="clip0_5313_35151">
<rect width="20" height="20" fill="white"/>
</clipPath>
</defs>
</svg>
