<svg width="20" height="20" viewBox="0 0 20 20" fill="none" xmlns="http://www.w3.org/2000/svg">
<path d="M18.1958 9.99984L18.1934 9.98773V5.139C18.1925 4.25521 17.841 3.40788 17.2161 2.78295C16.5912 2.15802 15.7438 1.80655 14.86 1.80566H5.13753C4.25375 1.80655 3.40641 2.15802 2.78148 2.78295C2.15655 3.40788 1.80508 4.25521 1.8042 5.139V14.8615C1.80508 15.7453 2.15655 16.5926 2.78148 17.2175C3.40641 17.8425 4.25375 18.1939 5.13753 18.1948H14.86C15.7438 18.1939 16.5912 17.8425 17.2161 17.2175C17.841 16.5926 18.1925 15.7453 18.1934 14.8615V10.0119L18.1958 9.99984ZM17.36 5.139V9.58316H13.0045V2.639H14.86C15.5229 2.63972 16.1583 2.90335 16.627 3.37203C17.0957 3.84072 17.3593 4.47618 17.36 5.139ZM7.82064 9.58316V2.639H12.1712V9.58316H7.82064ZM12.1712 10.4165V17.3615H7.82063V10.4165H12.1712ZM5.13753 2.639H6.9873V9.58316H2.63753V5.139C2.63826 4.47618 2.90188 3.84072 3.37057 3.37203C3.83925 2.90335 4.47471 2.63972 5.13753 2.639ZM2.63753 14.8615V10.4165H6.9873V17.3615H5.13753C4.47471 17.3608 3.83925 17.0971 3.37057 16.6285C2.90188 16.1598 2.63826 15.5243 2.63753 14.8615ZM14.86 17.3615H13.0045V10.4165H17.36V14.8615C17.3593 15.5243 17.0957 16.1598 16.627 16.6285C16.1583 17.0971 15.5229 17.3608 14.86 17.3615Z" fill="#171723"/>
</svg>
