<svg width="18" height="18" viewBox="0 0 18 18" fill="none" xmlns="http://www.w3.org/2000/svg">
<g clip-path="url(#clip0_10314_146039)">
<g clip-path="url(#clip1_10314_146039)">
<path d="M8.26445 15.0416C8.26211 15.0246 8.25861 15.0078 8.25398 14.9913C8.23719 14.9217 8.20233 14.8578 8.15291 14.806L8.15088 14.8022L8.1493 14.8007L8.14925 14.8006L8.14915 14.8005L6.51837 13.1982C6.47953 13.1591 6.43331 13.128 6.38238 13.1069C6.33145 13.0857 6.27683 13.0749 6.22168 13.075C6.16654 13.0751 6.11197 13.0862 6.06113 13.1076C6.01029 13.1289 5.96421 13.1602 5.92554 13.1995C5.88687 13.2388 5.85639 13.2854 5.83587 13.3366C5.81534 13.3878 5.80518 13.4425 5.80597 13.4977C5.80677 13.5528 5.8185 13.6072 5.84049 13.6578C5.86247 13.7084 5.89428 13.7541 5.93406 13.7923L6.83982 14.6826H4.1958C3.53505 14.6804 2.90216 14.4162 2.43593 13.948C1.9697 13.4798 1.70822 12.8458 1.70882 12.185V10.1025C1.70882 9.99195 1.66492 9.88597 1.58678 9.80783C1.50864 9.72969 1.40266 9.68579 1.29216 9.68579C1.18165 9.68579 1.07567 9.72969 0.997528 9.80783C0.919388 9.88597 0.875489 9.99195 0.875489 10.1025V12.185C0.875029 13.0667 1.22436 13.9126 1.84684 14.537C2.46931 15.1615 3.31408 15.5135 4.1958 15.5159H6.87102L5.92431 16.4875C5.84771 16.5668 5.80567 16.6732 5.80738 16.7835C5.8091 16.8937 5.85444 16.9988 5.93347 17.0757C6.0125 17.1525 6.11878 17.195 6.22902 17.1936C6.33927 17.1923 6.44449 17.1473 6.52165 17.0686L8.15739 15.3897C8.1915 15.3534 8.21873 15.3113 8.23775 15.2652L8.24446 15.257L8.24472 15.2545C8.26999 15.1865 8.2768 15.1131 8.26445 15.0416Z" fill="#171723"/>
<path d="M13.8743 2.48448H11.0591L12.0058 1.51281C12.0443 1.47366 12.0746 1.42729 12.0951 1.37636C12.1156 1.32544 12.1259 1.27096 12.1252 1.21607C12.1246 1.16117 12.1132 1.10694 12.0915 1.05649C12.0699 1.00604 12.0385 0.960357 11.9991 0.922077C11.9598 0.883798 11.9133 0.853672 11.8622 0.833431C11.8112 0.813191 11.7567 0.803234 11.7018 0.804133C11.6469 0.805033 11.5927 0.81677 11.5424 0.838672C11.492 0.860574 11.4465 0.892208 11.4084 0.931756L9.77274 2.61062C9.73873 2.64682 9.71157 2.68889 9.69257 2.73479L9.68565 2.74323L9.68541 2.74587C9.66012 2.81381 9.65331 2.88725 9.66567 2.95868C9.66803 2.97574 9.67155 2.99261 9.6762 3.00919C9.69296 3.07874 9.72781 3.14263 9.77721 3.19438L9.77925 3.19815L9.78082 3.19967L9.78087 3.19977L9.78097 3.19982L11.4117 4.80133C11.4908 4.87725 11.5966 4.91893 11.7063 4.91736C11.8159 4.91578 11.9205 4.87107 11.9973 4.79291C12.0742 4.71475 12.1172 4.60945 12.1169 4.49982C12.1167 4.39019 12.0733 4.28508 11.996 4.20726L11.0903 3.31781H13.8743C14.535 3.31983 15.1678 3.58384 15.6341 4.05191C16.1003 4.51998 16.3619 5.15389 16.3613 5.81456V7.88245C16.3613 7.99295 16.4052 8.09893 16.4833 8.17707C16.5615 8.25522 16.6674 8.29911 16.7779 8.29911C16.8885 8.29911 16.9944 8.25522 17.0726 8.17707C17.1507 8.09893 17.1946 7.99295 17.1946 7.88245V5.81456C17.1949 4.93297 16.8455 4.08726 16.223 3.46297C15.6006 2.83868 14.7559 2.48678 13.8743 2.48448Z" fill="#171723"/>
<path d="M16.708 9.68579H10.0715C10.0167 9.68576 9.96253 9.69652 9.91196 9.71745C9.8614 9.73837 9.81545 9.76906 9.77676 9.80776C9.73806 9.84646 9.70737 9.8924 9.68644 9.94297C9.66551 9.99354 9.65475 10.0477 9.65479 10.1025V16.7781C9.65475 16.8328 9.66551 16.887 9.68644 16.9376C9.70737 16.9881 9.73806 17.0341 9.77676 17.0728C9.81545 17.1115 9.8614 17.1422 9.91196 17.1631C9.96253 17.184 10.0167 17.1948 10.0715 17.1947H16.708C16.7627 17.1948 16.8169 17.184 16.8675 17.1631C16.9181 17.1422 16.964 17.1115 17.0027 17.0728C17.0414 17.0341 17.0721 16.9881 17.093 16.9376C17.114 16.887 17.1247 16.8328 17.1247 16.7781V10.1025C17.1247 10.0477 17.114 9.99354 17.093 9.94297C17.0721 9.8924 17.0414 9.84646 17.0027 9.80776C16.964 9.76906 16.9181 9.73837 16.8675 9.71745C16.8169 9.69652 16.7627 9.68576 16.708 9.68579ZM16.2913 16.3614H10.4881V10.5191H16.2913V16.3614Z" fill="#171723"/>
<path d="M7.85889 0.805664H1.22233C1.11182 0.805664 1.00584 0.849563 0.927703 0.927703C0.849563 1.00584 0.805664 1.11182 0.805664 1.22233C0.805664 1.33284 0.849563 1.43882 0.927703 1.51696C1.00584 1.5951 1.11182 1.639 1.22233 1.639H7.85889C7.9694 1.639 8.07538 1.5951 8.15352 1.51696C8.23166 1.43882 8.27556 1.33284 8.27556 1.22233C8.27556 1.11182 8.23166 1.00584 8.15352 0.927703C8.07538 0.849563 7.9694 0.805664 7.85889 0.805664Z" fill="#171723"/>
<path d="M7.85889 3.02576H1.22233C1.11182 3.02576 1.00584 3.06966 0.927703 3.1478C0.849563 3.22594 0.805664 3.33192 0.805664 3.44242C0.805664 3.55293 0.849563 3.65891 0.927703 3.73705C1.00584 3.81519 1.11182 3.85909 1.22233 3.85909H7.85889C7.9694 3.85909 8.07538 3.81519 8.15352 3.73705C8.23166 3.65891 8.27556 3.55293 8.27556 3.44242C8.27556 3.33192 8.23166 3.22594 8.15352 3.1478C8.07538 3.06966 7.9694 3.02576 7.85889 3.02576Z" fill="#171723"/>
<path d="M7.85889 5.24573H1.22233C1.11182 5.24573 1.00584 5.28963 0.927703 5.36777C0.849563 5.44591 0.805664 5.55189 0.805664 5.66239C0.805664 5.7729 0.849563 5.87888 0.927703 5.95702C1.00584 6.03516 1.11182 6.07906 1.22233 6.07906H7.85889C7.9694 6.07906 8.07538 6.03516 8.15352 5.95702C8.23166 5.87888 8.27556 5.7729 8.27556 5.66239C8.27556 5.55189 8.23166 5.44591 8.15352 5.36777C8.07538 5.28963 7.9694 5.24573 7.85889 5.24573Z" fill="#171723"/>
<path d="M7.85889 7.46582H1.22233C1.11182 7.46582 1.00584 7.50972 0.927703 7.58786C0.849563 7.666 0.805664 7.77198 0.805664 7.88249C0.805664 7.99299 0.849563 8.09897 0.927703 8.17711C1.00584 8.25525 1.11182 8.29915 1.22233 8.29915H7.85889C7.9694 8.29915 8.07538 8.25525 8.15352 8.17711C8.23166 8.09897 8.27556 7.99299 8.27556 7.88249C8.27556 7.77198 8.23166 7.666 8.15352 7.58786C8.07538 7.50972 7.9694 7.46582 7.85889 7.46582Z" fill="#171723"/>
</g>
</g>
<defs>
<clipPath id="clip0_10314_146039">
<rect width="18" height="18" fill="white"/>
</clipPath>
<clipPath id="clip1_10314_146039">
<rect width="18" height="18" fill="white"/>
</clipPath>
</defs>
</svg>
