<svg width="20" height="20" viewBox="0 0 20 20" fill="none" xmlns="http://www.w3.org/2000/svg">
<g clip-path="url(#clip0_10314_145785)">
<path d="M17.9811 8.49493C17.8916 8.04127 17.6733 7.623 17.3524 7.29017C17.0314 6.95734 16.6213 6.72407 16.1712 6.61826C15.9823 6.55685 15.7833 6.53279 15.5852 6.54743C15.5779 6.14891 15.4846 5.75668 15.3118 5.39753C15.0912 4.98935 14.7632 4.64921 14.3633 4.41386C13.9634 4.17851 13.5069 4.05689 13.0429 4.06215C12.736 4.06063 12.4319 4.11953 12.1477 4.23548C11.8443 3.51208 11.333 2.895 10.6787 2.46241C10.0243 2.02983 9.25621 1.80119 8.47178 1.80548L8.32774 1.80631C7.33529 1.8573 6.40062 2.28863 5.71787 3.01071C5.11714 3.64534 4.73776 4.45722 4.63633 5.32517C3.95523 5.41155 3.32353 5.72625 2.84434 6.2179C2.42087 6.65109 2.13629 7.20077 2.027 7.79661C1.91771 8.39245 1.98869 9.00735 2.23084 9.56262C2.473 10.1179 2.87533 10.5883 3.38634 10.9136C3.89735 11.2389 4.49381 11.4044 5.09939 11.3888H5.24587V13.04C5.24584 13.0947 5.2566 13.1489 5.27752 13.1995C5.29845 13.25 5.32914 13.296 5.36784 13.3347C5.40654 13.3734 5.45248 13.4041 5.50305 13.425C5.55361 13.4459 5.60781 13.4567 5.66254 13.4566H14.3466C14.4013 13.4567 14.4555 13.4459 14.5061 13.425C14.5567 13.4041 14.6026 13.3734 14.6413 13.3347C14.68 13.296 14.7107 13.25 14.7316 13.1995C14.7526 13.1489 14.7633 13.0947 14.7633 13.04V11.3888H15.6007C15.9579 11.3883 16.3106 11.3093 16.6339 11.1574C16.9572 11.0056 17.2432 10.7845 17.4716 10.5099C17.6979 10.2312 17.8606 9.90661 17.9486 9.55861C18.0366 9.21062 18.0477 8.84763 17.9811 8.49493ZM6.0792 12.6233V10.1974H13.93V10.9681L13.9291 10.9721L13.93 10.9762V12.6233H6.0792ZM16.8295 9.97927C16.6793 10.1593 16.4914 10.3042 16.2791 10.4037C16.0667 10.5033 15.8352 10.5551 15.6007 10.5554H14.7633V9.78073C14.7633 9.726 14.7526 9.67181 14.7316 9.62124C14.7107 9.57068 14.68 9.52473 14.6413 9.48603C14.6026 9.44734 14.5567 9.41665 14.5061 9.39572C14.4555 9.37479 14.4013 9.36403 14.3466 9.36406H5.66254C5.60781 9.36403 5.55361 9.37479 5.50305 9.39572C5.45248 9.41665 5.40654 9.44734 5.36784 9.48603C5.32914 9.52473 5.29845 9.57068 5.27752 9.62124C5.2566 9.67181 5.24584 9.726 5.24587 9.78073V10.5555H5.09939C4.65781 10.571 4.22169 10.4539 3.84729 10.2193C3.4729 9.98464 3.17739 9.6432 2.9989 9.239C2.8204 8.83481 2.76711 8.3864 2.84588 7.95163C2.92466 7.51685 3.13189 7.11565 3.44085 6.79978C3.64706 6.58856 3.89353 6.42082 4.16568 6.30648C4.43783 6.19214 4.73014 6.13352 5.02533 6.13409C5.13405 6.13419 5.2385 6.09177 5.31635 6.01589C5.39421 5.94001 5.4393 5.83668 5.44199 5.728C5.46 4.92911 5.77375 4.1653 6.32253 3.58445C6.85276 3.022 7.57804 2.68367 8.34971 2.6388H8.47178C9.16132 2.63256 9.83343 2.8554 10.3827 3.27236C10.9319 3.68933 11.3272 4.27682 11.5064 4.94268C11.5237 5.00761 11.5562 5.06746 11.6014 5.11717C11.6466 5.16688 11.7031 5.205 11.7661 5.22832C11.8291 5.25229 11.8971 5.2603 11.964 5.25163C12.0308 5.24297 12.0945 5.21791 12.1494 5.17868C12.3457 5.0559 12.5645 4.97361 12.7931 4.93665C13.0216 4.8997 13.2553 4.90883 13.4802 4.9635C13.7052 5.01817 13.917 5.11728 14.1031 5.255C14.2892 5.39272 14.4459 5.56627 14.5639 5.76544C14.7422 6.1255 14.7949 6.53487 14.7137 6.92835C14.6977 6.99822 14.7 7.07104 14.7204 7.13976C14.7408 7.20847 14.7785 7.27077 14.83 7.32061C14.8811 7.37104 14.9445 7.40713 15.014 7.42527C15.0834 7.44341 15.1564 7.44295 15.2256 7.42395C15.4714 7.36399 15.7281 7.36511 15.9734 7.4272C16.2666 7.49768 16.5339 7.64973 16.7443 7.86576C16.9547 8.08178 17.0997 8.35296 17.1624 8.64792C17.2076 8.88068 17.2013 9.12053 17.1438 9.35057C17.0863 9.5806 16.979 9.79522 16.8295 9.9793V9.97927Z" fill="#171723"/>
<path d="M14.3468 14.1021H5.66276C5.60803 14.102 5.55384 14.1128 5.50327 14.1337C5.4527 14.1546 5.40676 14.1853 5.36806 14.224C5.32936 14.2627 5.29867 14.3087 5.27775 14.3592C5.25682 14.4098 5.24606 14.464 5.24609 14.5187V17.778C5.24606 17.8327 5.25682 17.8869 5.27775 17.9375C5.29867 17.988 5.32936 18.034 5.36806 18.0727C5.40676 18.1114 5.4527 18.1421 5.50327 18.163C5.55384 18.1839 5.60803 18.1947 5.66276 18.1947H14.3468C14.4016 18.1947 14.4558 18.1839 14.5063 18.163C14.5569 18.1421 14.6028 18.1114 14.6415 18.0727C14.6802 18.034 14.7109 17.988 14.7319 17.9375C14.7528 17.8869 14.7635 17.8327 14.7635 17.778V14.5187C14.7635 14.464 14.7528 14.4098 14.7319 14.3592C14.7109 14.3087 14.6802 14.2627 14.6415 14.224C14.6028 14.1853 14.5569 14.1546 14.5063 14.1337C14.4558 14.1128 14.4016 14.102 14.3468 14.1021ZM13.9302 17.3613H6.07943V14.9354H13.9302V17.3613Z" fill="#171723"/>
<path d="M7.11784 16.5647H9.29069C9.4012 16.5647 9.50718 16.5208 9.58532 16.4426C9.66346 16.3645 9.70736 16.2585 9.70736 16.148C9.70736 16.0375 9.66346 15.9315 9.58532 15.8534C9.50718 15.7752 9.4012 15.7313 9.29069 15.7313H7.11784C7.00733 15.7313 6.90135 15.7752 6.82321 15.8534C6.74507 15.9315 6.70117 16.0375 6.70117 16.148C6.70117 16.2585 6.74507 16.3645 6.82321 16.4426C6.90135 16.5208 7.00733 16.5647 7.11784 16.5647Z" fill="#171723"/>
<path d="M12.8527 16.5557C13.0776 16.5557 13.26 16.3733 13.26 16.1483C13.26 15.9233 13.0776 15.741 12.8527 15.741C12.6277 15.741 12.4453 15.9233 12.4453 16.1483C12.4453 16.3733 12.6277 16.5557 12.8527 16.5557Z" fill="#171723"/>
<path d="M9.29069 10.9933H7.11784C7.00733 10.9933 6.90135 11.0372 6.82321 11.1153C6.74507 11.1935 6.70117 11.2994 6.70117 11.41C6.70117 11.5205 6.74507 11.6264 6.82321 11.7046C6.90135 11.7827 7.00733 11.8266 7.11784 11.8266H9.29069C9.4012 11.8266 9.50718 11.7827 9.58532 11.7046C9.66346 11.6264 9.70736 11.5205 9.70736 11.41C9.70736 11.2994 9.66346 11.1935 9.58532 11.1153C9.50718 11.0372 9.4012 10.9933 9.29069 10.9933Z" fill="#171723"/>
<path d="M12.8527 11.8176C13.0776 11.8176 13.26 11.6353 13.26 11.4103C13.26 11.1853 13.0776 11.0029 12.8527 11.0029C12.6277 11.0029 12.4453 11.1853 12.4453 11.4103C12.4453 11.6353 12.6277 11.8176 12.8527 11.8176Z" fill="#171723"/>
</g>
<defs>
<clipPath id="clip0_10314_145785">
<rect width="20" height="20" fill="white"/>
</clipPath>
</defs>
</svg>
