<svg width="20" height="20" viewBox="0 0 20 20" fill="none" xmlns="http://www.w3.org/2000/svg">
<g clip-path="url(#clip0_10314_146586)">
<path d="M14.8607 1.80566H5.139C4.25521 1.80655 3.40788 2.15802 2.78295 2.78295C2.15802 3.40788 1.80655 4.25521 1.80566 5.139V14.8615C1.80655 15.7453 2.15802 16.5926 2.78295 17.2175C3.40788 17.8425 4.25521 18.1939 5.139 18.1948H14.8607C15.7445 18.1939 16.5918 17.8425 17.2167 17.2175C17.8416 16.5926 18.1931 15.7453 18.194 14.8615V5.139C18.1931 4.25521 17.8416 3.40788 17.2167 2.78295C16.5918 2.15802 15.7445 1.80655 14.8607 1.80566ZM17.3607 14.8615C17.3599 15.5243 17.0963 16.1598 16.6276 16.6285C16.159 17.0971 15.5235 17.3608 14.8607 17.3615H5.139C4.47618 17.3608 3.84071 17.0971 3.37203 16.6285C2.90335 16.1598 2.63972 15.5243 2.639 14.8615V5.139C2.63972 4.47618 2.90335 3.84071 3.37203 3.37203C3.84071 2.90335 4.47618 2.63972 5.139 2.639H14.8607C15.5235 2.63972 16.159 2.90335 16.6276 3.37203C17.0963 3.84071 17.3599 4.47618 17.3607 5.139V14.8615Z" fill="#171723"/>
<path d="M10.0002 9.41141C10.5325 9.41133 11.0529 9.2534 11.4955 8.9576C11.938 8.6618 12.283 8.24142 12.4866 7.74959C12.6903 7.25777 12.7436 6.7166 12.6397 6.19451C12.5358 5.67241 12.2795 5.19284 11.9031 4.81643C11.5266 4.44002 11.0471 4.18368 10.525 4.07981C10.0029 3.97595 9.4617 4.02922 8.96988 4.2329C8.47806 4.43658 8.05768 4.78152 7.76189 5.2241C7.4661 5.66668 7.30818 6.18703 7.30811 6.71936C7.30892 7.43309 7.59282 8.11736 8.09751 8.62204C8.6022 9.12672 9.28646 9.4106 10.0002 9.41141ZM10.0002 4.86141C10.3677 4.86149 10.727 4.97055 11.0326 5.17481C11.3381 5.37907 11.5763 5.66936 11.7168 6.00895C11.8574 6.34855 11.8941 6.72221 11.8224 7.08267C11.7506 7.44314 11.5735 7.77423 11.3136 8.03407C11.0536 8.2939 10.7225 8.47082 10.362 8.54245C10.0015 8.61407 9.62782 8.57719 9.28828 8.43646C8.94875 8.29574 8.65857 8.05748 8.45444 7.75184C8.25031 7.44619 8.1414 7.08687 8.14148 6.71933C8.14219 6.22666 8.33827 5.75438 8.68672 5.40609C9.03516 5.0578 9.50753 4.86193 10.0002 4.86144V4.86141Z" fill="#171723"/>
<path d="M10.3994 9.9852C10.3134 9.97696 10.2303 9.98989 10.1448 9.98687C10.1094 9.97454 10.0723 9.96713 10.0348 9.96484C9.99504 9.9669 9.95575 9.97482 9.91826 9.98834C8.9335 9.99675 7.98608 10.3663 7.2557 11.0269C6.83519 11.4096 6.49916 11.8759 6.26907 12.3959C6.03898 12.9159 5.9199 13.4782 5.91943 14.0469V14.6751C5.9198 15.0191 6.05659 15.3488 6.29978 15.592C6.54298 15.8352 6.87271 15.972 7.21663 15.9723H12.783C13.127 15.972 13.4567 15.8352 13.6999 15.592C13.9431 15.3488 14.0799 15.0191 14.0802 14.6751V14.2039C14.0932 13.1711 13.7248 12.1697 13.0458 11.3914C12.3667 10.6131 11.4245 10.1124 10.3994 9.9852ZM13.2469 14.6751C13.2467 14.7981 13.1977 14.916 13.1108 15.0029C13.0239 15.0898 12.906 15.1388 12.783 15.139H7.21663C7.09367 15.1388 6.97581 15.0898 6.88887 15.0029C6.80192 14.916 6.75298 14.7981 6.75276 14.6751V14.0469C6.75313 13.5944 6.84792 13.1469 7.03107 12.7331C7.21422 12.3193 7.48169 11.9483 7.8164 11.6437C8.41123 11.0984 9.18961 10.7971 9.99658 10.7998C10.1032 10.7998 10.2114 10.8047 10.3197 10.8153C11.139 10.9211 11.8905 11.3253 12.4306 11.9505C12.9706 12.5756 13.2613 13.3779 13.2469 14.204L13.2469 14.6751Z" fill="#171723"/>
</g>
<defs>
<clipPath id="clip0_10314_146586">
<rect width="20" height="20" fill="white"/>
</clipPath>
</defs>
</svg>
