<svg width="20" height="20" viewBox="0 0 20 20" fill="none" xmlns="http://www.w3.org/2000/svg">
<g clip-path="url(#clip0_5313_35074)">
<path d="M5.30095 6.23601H3.58789C3.33995 6.23585 3.1022 6.13728 2.92688 5.96196C2.75156 5.78664 2.65299 5.54889 2.65283 5.30095V3.58789C2.65299 3.33995 2.75156 3.1022 2.92688 2.92688C3.1022 2.75156 3.33995 2.65299 3.58789 2.65283H5.30095C5.54889 2.65299 5.78664 2.75156 5.96196 2.92688C6.13728 3.1022 6.23585 3.33995 6.23601 3.58789V5.30095C6.23585 5.54889 6.13728 5.78664 5.96196 5.96196C5.78664 6.13728 5.54889 6.23585 5.30095 6.23601ZM3.58789 3.48617C3.56091 3.48618 3.53505 3.4969 3.51597 3.51597C3.4969 3.53505 3.48618 3.56091 3.48617 3.58789V5.30095C3.48618 5.32792 3.4969 5.35379 3.51597 5.37287C3.53505 5.39194 3.56091 5.40266 3.58789 5.40267H5.30095C5.32792 5.40266 5.35379 5.39194 5.37287 5.37287C5.39194 5.35379 5.40266 5.32792 5.40267 5.30095V3.58789C5.40266 3.56091 5.39194 3.53505 5.37287 3.51597C5.35379 3.4969 5.32792 3.48618 5.30095 3.48617H3.58789Z" fill="#171723"/>
<path d="M16.4118 6.23601H14.6987C14.4508 6.23585 14.213 6.13728 14.0377 5.96196C13.8624 5.78664 13.7638 5.54889 13.7637 5.30095V3.58789C13.7638 3.33995 13.8624 3.1022 14.0377 2.92688C14.213 2.75156 14.4508 2.65299 14.6987 2.65283H16.4118C16.6597 2.65299 16.8975 2.75156 17.0728 2.92688C17.2481 3.1022 17.3467 3.33995 17.3468 3.58789V5.30095C17.3467 5.54889 17.2481 5.78663 17.0728 5.96196C16.8975 6.13728 16.6597 6.23585 16.4118 6.23601ZM14.6987 3.48617C14.6718 3.48618 14.6459 3.4969 14.6268 3.51597C14.6077 3.53505 14.597 3.56091 14.597 3.58789V5.30095C14.597 5.32792 14.6077 5.35379 14.6268 5.37287C14.6459 5.39194 14.6718 5.40266 14.6987 5.40267H16.4118C16.4388 5.40267 16.4646 5.39194 16.4837 5.37287C16.5028 5.35379 16.5135 5.32793 16.5135 5.30095V3.58789C16.5135 3.56091 16.5028 3.53505 16.4837 3.51597C16.4646 3.49689 16.4388 3.48617 16.4118 3.48617H14.6987Z" fill="#171723"/>
<path d="M10.8569 6.23601H9.14307C8.89512 6.23585 8.65738 6.13728 8.48206 5.96196C8.30673 5.78664 8.20817 5.54889 8.20801 5.30095V3.58789C8.20817 3.33995 8.30673 3.1022 8.48206 2.92688C8.65738 2.75156 8.89512 2.65299 9.14307 2.65283H10.8569C11.1049 2.65299 11.3426 2.75156 11.5179 2.92688C11.6933 3.1022 11.7918 3.33995 11.792 3.58789V5.30095C11.7918 5.54889 11.6933 5.78664 11.5179 5.96196C11.3426 6.13728 11.1049 6.23585 10.8569 6.23601ZM9.14307 3.48617C9.11609 3.48617 9.09022 3.49689 9.07115 3.51597C9.05207 3.53505 9.04135 3.56091 9.04134 3.58789V5.30095C9.04135 5.32793 9.05207 5.35379 9.07115 5.37287C9.09022 5.39194 9.11609 5.40267 9.14307 5.40267H10.8569C10.8839 5.40266 10.9098 5.39194 10.9289 5.37287C10.9479 5.35379 10.9586 5.32792 10.9587 5.30095V3.58789C10.9586 3.56091 10.9479 3.53505 10.9289 3.51597C10.9098 3.4969 10.8839 3.48618 10.8569 3.48617H9.14307Z" fill="#171723"/>
<path d="M5.30095 11.7919H3.58789C3.33995 11.7917 3.1022 11.6932 2.92688 11.5179C2.75156 11.3425 2.65299 11.1048 2.65283 10.8568V9.1438C2.65299 8.89585 2.75156 8.65811 2.92688 8.48279C3.1022 8.30747 3.33995 8.2089 3.58789 8.20874H5.30095C5.54889 8.2089 5.78664 8.30747 5.96196 8.48279C6.13728 8.65811 6.23585 8.89585 6.23601 9.1438V10.8568C6.23585 11.1048 6.13728 11.3425 5.96196 11.5179C5.78664 11.6932 5.54889 11.7917 5.30095 11.7919ZM3.58789 9.04207C3.56091 9.04208 3.53504 9.0528 3.51597 9.07188C3.49689 9.09095 3.48617 9.11682 3.48617 9.1438V10.8568C3.48618 10.8838 3.4969 10.9097 3.51597 10.9288C3.53505 10.9478 3.56091 10.9586 3.58789 10.9586H5.30095C5.32792 10.9586 5.35379 10.9478 5.37287 10.9288C5.39194 10.9097 5.40266 10.8838 5.40267 10.8568V9.1438C5.40266 9.11682 5.39194 9.09095 5.37287 9.07188C5.35379 9.0528 5.32793 9.04208 5.30095 9.04207H3.58789Z" fill="#171723"/>
<path d="M16.4118 11.7919H14.6987C14.4508 11.7917 14.213 11.6932 14.0377 11.5179C13.8624 11.3425 13.7638 11.1048 13.7637 10.8568V9.1438C13.7638 8.89585 13.8624 8.65811 14.0377 8.48279C14.213 8.30747 14.4508 8.2089 14.6987 8.20874H16.4118C16.6597 8.2089 16.8975 8.30747 17.0728 8.48279C17.2481 8.65811 17.3467 8.89586 17.3468 9.1438V10.8568C17.3467 11.1048 17.2481 11.3425 17.0728 11.5179C16.8975 11.6932 16.6597 11.7917 16.4118 11.7919ZM14.6987 9.04207C14.6718 9.04208 14.6459 9.0528 14.6268 9.07188C14.6077 9.09095 14.597 9.11682 14.597 9.1438V10.8568C14.597 10.8838 14.6077 10.9097 14.6268 10.9288C14.6459 10.9478 14.6718 10.9586 14.6987 10.9586H16.4118C16.4388 10.9586 16.4646 10.9478 16.4837 10.9288C16.5028 10.9097 16.5135 10.8838 16.5135 10.8568V9.1438C16.5135 9.11682 16.5028 9.09095 16.4837 9.07188C16.4646 9.0528 16.4388 9.04208 16.4118 9.04207H14.6987Z" fill="#171723"/>
<path d="M10.8569 11.7919H9.14307C8.89512 11.7917 8.65738 11.6932 8.48206 11.5179C8.30673 11.3425 8.20817 11.1048 8.20801 10.8568V9.1438C8.20817 8.89585 8.30673 8.65811 8.48206 8.48279C8.65738 8.30747 8.89512 8.2089 9.14307 8.20874H10.8569C11.1049 8.2089 11.3426 8.30747 11.5179 8.48279C11.6933 8.65811 11.7918 8.89585 11.792 9.1438V10.8568C11.7918 11.1048 11.6933 11.3425 11.5179 11.5179C11.3426 11.6932 11.1049 11.7917 10.8569 11.7919ZM9.14307 9.04207C9.11609 9.04208 9.09022 9.0528 9.07115 9.07188C9.05207 9.09095 9.04135 9.11682 9.04134 9.1438V10.8568C9.04135 10.8838 9.05207 10.9097 9.07115 10.9288C9.09022 10.9478 9.11609 10.9586 9.14307 10.9586H10.8569C10.8839 10.9586 10.9098 10.9478 10.9289 10.9288C10.9479 10.9097 10.9586 10.8838 10.9587 10.8568V9.1438C10.9586 9.11682 10.9479 9.09095 10.9289 9.07188C10.9098 9.0528 10.8839 9.04208 10.8569 9.04207H9.14307Z" fill="#171723"/>
<path d="M5.30095 17.3468H3.58789C3.33995 17.3467 3.1022 17.2481 2.92688 17.0728C2.75156 16.8975 2.65299 16.6597 2.65283 16.4118V14.6987C2.65299 14.4508 2.75156 14.213 2.92688 14.0377C3.1022 13.8624 3.33995 13.7638 3.58789 13.7637H5.30095C5.54889 13.7638 5.78664 13.8624 5.96196 14.0377C6.13728 14.213 6.23585 14.4508 6.23601 14.6987V16.4118C6.23585 16.6597 6.13728 16.8975 5.96196 17.0728C5.78664 17.2481 5.54889 17.3467 5.30095 17.3468ZM3.58789 14.597C3.56091 14.597 3.53505 14.6077 3.51597 14.6268C3.4969 14.6459 3.48618 14.6718 3.48617 14.6987V16.4118C3.48618 16.4388 3.4969 16.4646 3.51597 16.4837C3.53505 16.5028 3.56091 16.5135 3.58789 16.5135H5.30095C5.32792 16.5135 5.35379 16.5028 5.37287 16.4837C5.39194 16.4646 5.40266 16.4388 5.40267 16.4118V14.6987C5.40266 14.6718 5.39194 14.6459 5.37287 14.6268C5.35379 14.6077 5.32792 14.597 5.30095 14.597H3.58789Z" fill="#171723"/>
<path d="M16.4118 17.3468H14.6987C14.4508 17.3467 14.213 17.2481 14.0377 17.0728C13.8624 16.8975 13.7638 16.6597 13.7637 16.4118V14.6987C13.7638 14.4508 13.8624 14.213 14.0377 14.0377C14.213 13.8624 14.4508 13.7638 14.6987 13.7637H16.4118C16.6597 13.7638 16.8975 13.8624 17.0728 14.0377C17.2481 14.213 17.3467 14.4508 17.3468 14.6987V16.4118C17.3467 16.6597 17.2481 16.8975 17.0728 17.0728C16.8975 17.2481 16.6597 17.3467 16.4118 17.3468ZM14.6987 14.597C14.6718 14.597 14.6459 14.6077 14.6268 14.6268C14.6077 14.6459 14.597 14.6718 14.597 14.6987V16.4118C14.597 16.4388 14.6077 16.4646 14.6268 16.4837C14.6459 16.5028 14.6718 16.5135 14.6987 16.5135H16.4118C16.4388 16.5135 16.4646 16.5028 16.4837 16.4837C16.5028 16.4646 16.5135 16.4388 16.5135 16.4118V14.6987C16.5135 14.6718 16.5028 14.6459 16.4837 14.6268C16.4646 14.6077 16.4388 14.597 16.4118 14.597H14.6987Z" fill="#171723"/>
<path d="M10.8569 17.3468H9.14307C8.89512 17.3467 8.65738 17.2481 8.48206 17.0728C8.30673 16.8975 8.20817 16.6597 8.20801 16.4118V14.6987C8.20817 14.4508 8.30673 14.213 8.48206 14.0377C8.65738 13.8624 8.89512 13.7638 9.14307 13.7637H10.8569C11.1049 13.7638 11.3426 13.8624 11.5179 14.0377C11.6933 14.213 11.7918 14.4508 11.792 14.6987V16.4118C11.7918 16.6597 11.6933 16.8975 11.5179 17.0728C11.3426 17.2481 11.1049 17.3467 10.8569 17.3468ZM9.14307 14.597C9.11609 14.597 9.09022 14.6077 9.07115 14.6268C9.05207 14.6459 9.04135 14.6718 9.04134 14.6987V16.4118C9.04135 16.4388 9.05207 16.4646 9.07115 16.4837C9.09022 16.5028 9.11609 16.5135 9.14307 16.5135H10.8569C10.8839 16.5135 10.9098 16.5028 10.9289 16.4837C10.9479 16.4646 10.9586 16.4388 10.9587 16.4118V14.6987C10.9586 14.6718 10.9479 14.6459 10.9289 14.6268C10.9098 14.6077 10.8839 14.597 10.8569 14.597H9.14307Z" fill="#171723"/>
</g>
<defs>
<clipPath id="clip0_5313_35074">
<rect width="20" height="20" fill="white"/>
</clipPath>
</defs>
</svg>
