<svg width="20" height="20" viewBox="0 0 20 20" fill="none" xmlns="http://www.w3.org/2000/svg">
<g clip-path="url(#clip0_10314_146625)">
<path d="M15.0858 11.1646V8.69439C15.618 8.03933 16.0799 7.41697 16.4794 6.82834C16.5834 6.85593 16.6904 6.87052 16.798 6.87178C17.0551 6.87258 17.3068 6.7978 17.5218 6.65672C17.7368 6.51565 17.9056 6.31451 18.0072 6.0783C18.1088 5.84209 18.1387 5.58123 18.0933 5.32814C18.0479 5.07506 17.9291 4.8409 17.7516 4.65478C18.2994 3.43637 18.3402 2.60583 17.8682 2.13382C16.7957 1.04867 13.8873 2.94117 12.1625 4.24097C10.7304 4.00359 9.26889 4.00373 7.83679 4.24137C7.50542 3.98913 7.18641 3.75913 6.87858 3.54699C6.90647 3.44248 6.92123 3.33491 6.92253 3.22676C6.92313 2.96905 6.84787 2.71686 6.70614 2.50163C6.5644 2.2864 6.36245 2.11765 6.12546 2.0164C5.88847 1.91516 5.62692 1.8859 5.37342 1.93228C5.11992 1.97865 4.88567 2.09862 4.69988 2.27721C3.47282 1.71411 2.60602 1.66024 2.13331 2.13221C0.881574 3.38317 3.58864 7.05851 4.91651 8.70117V8.88107L4.91734 8.88508V11.2935C4.47317 11.8441 4.09743 12.3415 3.76576 12.8091C3.63185 12.7619 3.49112 12.7369 3.34914 12.7352C3.08761 12.7348 2.8319 12.8124 2.61475 12.9581C2.39761 13.1039 2.22891 13.3111 2.13027 13.5533C2.03163 13.7956 2.00754 14.0617 2.06108 14.3177C2.11462 14.5737 2.24336 14.8079 2.43081 14.9902C1.72809 16.3858 1.62178 17.357 2.13337 17.8679C2.25112 17.9782 2.38998 18.0635 2.54159 18.1188C2.69319 18.174 2.8544 18.198 3.01552 18.1893C4.39985 18.1886 6.56792 16.7228 7.98211 15.6407C8.6485 15.7497 9.32269 15.8041 9.99794 15.8033C10.6744 15.8041 11.3497 15.7497 12.0173 15.6407C12.4089 15.9419 12.7805 16.2103 13.1335 16.4508C13.1056 16.5552 13.0909 16.6628 13.0896 16.7709C13.0889 17.0283 13.164 17.2802 13.3054 17.4953C13.4468 17.7103 13.6483 17.8791 13.8849 17.9805C14.1214 18.082 14.3826 18.1116 14.6359 18.0658C14.8892 18.0199 15.1234 17.9006 15.3094 17.7227C15.8287 17.9923 16.3981 18.1517 16.9819 18.191C17.1434 18.1997 17.3051 18.1756 17.457 18.12C17.6089 18.0645 17.7479 17.9787 17.8657 17.8679C19.1142 16.6194 16.4117 12.9389 15.0858 11.2931V11.1646ZM5.75066 13.685V12.3766C6.92169 12.9746 8.21922 13.2826 9.53407 13.2746C8.90495 13.8383 8.32507 14.3239 7.77514 14.7462C6.51596 14.4793 5.75066 14.0263 5.75066 13.685ZM6.63388 7.77169C6.65175 7.77916 6.67013 7.78535 6.68888 7.79021C7.76099 8.12133 8.87831 8.28263 10.0003 8.26827C11.1245 8.28277 12.244 8.12066 13.3179 7.78787C13.3309 7.78339 13.3441 7.78059 13.3565 7.7749C13.6687 7.67059 13.9684 7.5319 14.25 7.36138V8.40157C14.0052 8.70624 13.7491 9.01192 13.4747 9.32193C13.3242 9.39306 13.1698 9.45562 13.0122 9.50932C11.04 10.0508 8.95833 10.0511 6.98597 9.51015C6.82942 9.45678 6.67603 9.39451 6.52658 9.32364C6.25248 9.01404 5.99644 8.70841 5.74981 8.40145V7.36133C6.0285 7.53023 6.32499 7.66785 6.63388 7.77169ZM9.99789 12.4496C7.44499 12.4496 5.75066 11.6765 5.75066 11.1646V9.85106C5.82893 9.9005 5.90955 9.94922 5.99836 9.99551C6.08294 10.0871 6.16669 10.1781 6.2544 10.2808C6.67432 10.7406 7.1154 11.211 7.57682 11.683C7.61551 11.7228 7.66182 11.7544 7.71299 11.776C7.76417 11.7975 7.81916 11.8085 7.87467 11.8083C7.95669 11.8083 8.03688 11.7841 8.10519 11.7387C8.17351 11.6933 8.22691 11.6288 8.25872 11.5532C8.29052 11.4776 8.29931 11.3943 8.28398 11.3138C8.26864 11.2332 8.22988 11.1589 8.17253 11.1003C7.98413 10.9075 7.81772 10.7236 7.63705 10.5328C8.41445 10.6873 9.20527 10.7643 9.99788 10.7625C10.796 10.7645 11.5923 10.6865 12.3749 10.5297C12.0812 10.8394 11.7788 11.1506 11.4676 11.4632C11.1356 11.7952 10.7972 12.1169 10.4615 12.4323C10.307 12.4382 10.1595 12.4496 9.99789 12.4496ZM12.0568 12.0525C12.6533 11.4559 13.2165 10.8602 13.7568 10.2686C13.8353 10.1754 13.9214 10.0821 14.0078 9.98892C14.0942 9.94411 14.1788 9.8994 14.2524 9.85347V11.1496C14.2102 11.2096 14.1851 11.28 14.1797 11.3532C13.508 11.9247 12.6681 12.2613 11.7877 12.3118C11.8776 12.2237 11.9677 12.1416 12.0568 12.0525ZM16.798 6.03847C16.7027 6.03839 16.6095 6.01005 16.5303 5.95704C16.451 5.90402 16.3893 5.82871 16.3528 5.74062C16.3164 5.65253 16.3069 5.55561 16.3255 5.46211C16.3441 5.36862 16.39 5.28274 16.4574 5.21533C16.5249 5.14792 16.6107 5.102 16.7042 5.08338C16.7977 5.06477 16.8946 5.07428 16.9827 5.11073C17.0708 5.14717 17.1461 5.20891 17.1992 5.28815C17.2522 5.36738 17.2805 5.46055 17.2806 5.55588C17.2804 5.68382 17.2295 5.80648 17.1391 5.89695C17.0486 5.98741 16.926 6.0383 16.798 6.03845L16.798 6.03847ZM17.2765 2.72141C17.4181 2.86224 17.4182 3.35012 17.0168 4.26285C16.7538 4.21619 16.4829 4.25122 16.2405 4.36322C15.9981 4.47521 15.7959 4.6588 15.661 4.88925C15.5261 5.1197 15.4651 5.38595 15.4861 5.65214C15.5072 5.91833 15.6093 6.17168 15.7787 6.37807C15.5661 6.69047 15.3373 7.01162 15.0833 7.34675V6.15533L15.0842 6.14831C15.0844 5.39072 14.3283 4.84114 13.2318 4.49604C15.6804 2.74932 17.012 2.45163 17.2765 2.72139L17.2765 2.72141ZM14.2501 6.14663L14.25 6.14747V6.15042C14.2455 6.66238 12.5523 7.43497 10.0003 7.43497C7.44836 7.43497 5.75429 6.66238 5.74984 6.15045V6.14747L5.74969 6.14663C5.75315 5.63465 7.44763 4.86169 10.0003 4.86169C12.553 4.86169 14.2467 5.63465 14.2501 6.14663ZM5.60662 2.74417C5.70206 2.74417 5.79537 2.77248 5.87473 2.82551C5.95409 2.87853 6.01595 2.95391 6.05247 3.04209C6.089 3.13027 6.09856 3.2273 6.07993 3.32092C6.06131 3.41453 6.01535 3.50052 5.94786 3.56801C5.88036 3.6355 5.79437 3.68147 5.70076 3.70009C5.60715 3.71871 5.51011 3.70915 5.42193 3.67262C5.33375 3.63609 5.25838 3.57424 5.20535 3.49487C5.15232 3.41551 5.12402 3.32221 5.12402 3.22676C5.12417 3.09881 5.17506 2.97614 5.26553 2.88567C5.356 2.7952 5.47867 2.74431 5.60662 2.74417ZM2.7225 2.72139C2.83765 2.60547 3.30432 2.55822 4.31216 3.014C4.26692 3.27642 4.30294 3.5464 4.41539 3.78779C4.52785 4.02917 4.71137 4.23044 4.94138 4.36462C5.1714 4.49881 5.43692 4.55952 5.70239 4.53862C5.96786 4.51772 6.22061 4.41621 6.42679 4.24767C6.54418 4.32875 6.65842 4.4051 6.77987 4.49267C5.67716 4.83753 4.9159 5.38842 4.91569 6.1483L4.91652 6.15532V7.34124C2.90753 4.6796 2.39199 3.05118 2.7225 2.72139ZM3.34912 13.5686C3.44449 13.5686 3.53769 13.597 3.61694 13.65C3.69619 13.7031 3.75794 13.7785 3.79436 13.8666C3.83078 13.9547 3.84025 14.0517 3.82156 14.1452C3.80288 14.2387 3.75688 14.3246 3.68939 14.392C3.6219 14.4594 3.53595 14.5052 3.4424 14.5237C3.34885 14.5423 3.2519 14.5326 3.16382 14.4961C3.07575 14.4595 3.00049 14.3976 2.94758 14.3183C2.89466 14.2389 2.86646 14.1457 2.86654 14.0503C2.86685 13.9225 2.91782 13.8 3.00828 13.7097C3.09873 13.6194 3.2213 13.5687 3.34912 13.5686ZM2.7225 17.2787C2.58862 17.144 2.55714 16.5828 3.1824 15.3494C3.23755 15.3586 3.29324 15.3642 3.34912 15.3663C3.58882 15.3666 3.82405 15.3015 4.02935 15.1777C4.23466 15.054 4.4022 14.8765 4.51384 14.6644C4.62548 14.4523 4.67696 14.2137 4.66272 13.9744C4.64847 13.7351 4.56903 13.5043 4.43301 13.307C4.58611 13.091 4.74032 12.874 4.91732 12.6409V13.685C4.91732 14.4724 5.73732 15.0467 6.90636 15.3973C4.37721 17.2326 2.99787 17.5533 2.7225 17.2787ZM8.90057 14.9148C9.3234 14.5691 9.75914 14.1997 10.2298 13.7744C10.2472 13.7632 10.2638 13.7506 10.2795 13.737C10.4544 13.5822 10.6289 13.4199 10.8022 13.2565C12.0046 13.2316 13.1852 12.9303 14.2524 12.3759V13.685C14.2524 14.0264 13.4859 14.4793 12.2243 14.7463C11.936 14.5227 11.6442 14.291 11.3439 14.0406C11.3019 14.0055 11.2534 13.9791 11.2012 13.9628C11.149 13.9465 11.0941 13.9406 11.0396 13.9455C10.9851 13.9504 10.9321 13.966 10.8837 13.9914C10.8352 14.0168 10.7922 14.0515 10.7572 14.0935C10.7221 14.1355 10.6957 14.184 10.6794 14.2362C10.6631 14.2884 10.6572 14.3433 10.6621 14.3978C10.667 14.4523 10.6826 14.5053 10.708 14.5538C10.7334 14.6022 10.7681 14.6452 10.8101 14.6802C10.9095 14.7636 11.0034 14.8339 11.1019 14.9144C10.7533 14.947 10.3899 14.97 9.99789 14.97C9.60846 14.97 9.24711 14.9471 8.90057 14.9148ZM14.4054 17.2535C14.31 17.2535 14.2167 17.2252 14.1373 17.1721C14.058 17.1191 13.9961 17.0437 13.9596 16.9556C13.9231 16.8674 13.9135 16.7703 13.9321 16.6767C13.9507 16.5831 13.9967 16.4971 14.0642 16.4296C14.1317 16.3621 14.2177 16.3162 14.3113 16.2975C14.4049 16.2789 14.5019 16.2885 14.5901 16.325C14.6783 16.3615 14.7537 16.4234 14.8067 16.5028C14.8597 16.5821 14.888 16.6754 14.888 16.7709C14.8879 16.8988 14.837 17.0215 14.7465 17.112C14.6561 17.2024 14.5334 17.2533 14.4054 17.2535ZM17.2765 17.2787C17.1608 17.3936 16.697 17.4411 15.6994 16.9883C15.7456 16.7255 15.7103 16.4549 15.5982 16.2128C15.4861 15.9706 15.3026 15.7686 15.0724 15.6339C14.8421 15.4991 14.5761 15.4381 14.3101 15.4589C14.0441 15.4798 13.7909 15.5816 13.5845 15.7506C13.4206 15.6385 13.2572 15.5269 13.0833 15.4002C14.2596 15.0499 15.0858 14.4747 15.0858 13.6849V12.6545C17.0905 15.3202 17.6058 16.9494 17.2765 17.2787Z" fill="#171723"/>
</g>
<defs>
<clipPath id="clip0_10314_146625">
<rect width="20" height="20" fill="white"/>
</clipPath>
</defs>
</svg>
