<svg width="20" height="20" viewBox="0 0 20 20" fill="none" xmlns="http://www.w3.org/2000/svg">
<g clip-path="url(#clip0_5313_35110)">
<path d="M16.1129 2.91317H15.9705V2.22062C15.9705 2.11011 15.9266 2.00413 15.8485 1.92599C15.7703 1.84785 15.6644 1.80396 15.5539 1.80396C15.4433 1.80396 15.3374 1.84785 15.2592 1.92599C15.1811 2.00413 15.1372 2.11011 15.1372 2.22062V2.91317H12.2669V2.22062C12.2669 2.11011 12.223 2.00413 12.1449 1.92599C12.0667 1.84785 11.9608 1.80396 11.8502 1.80396C11.7397 1.80396 11.6338 1.84785 11.5556 1.92599C11.4775 2.00413 11.4336 2.11011 11.4336 2.22062V2.91317H8.5633V2.22062C8.5633 2.11011 8.5194 2.00413 8.44126 1.92599C8.36312 1.84785 8.25714 1.80396 8.14663 1.80396C8.03612 1.80396 7.93014 1.84785 7.852 1.92599C7.77386 2.00413 7.72996 2.11011 7.72996 2.22062V2.91317H4.85969V2.22062C4.85969 2.11011 4.81579 2.00413 4.73765 1.92599C4.65951 1.84785 4.55353 1.80396 4.44302 1.80396C4.33251 1.80396 4.22653 1.84785 4.14839 1.92599C4.07025 2.00413 4.02635 2.11011 4.02635 2.22062V2.91317H3.88802C3.33564 2.91368 2.80603 3.13334 2.41544 3.52393C2.02485 3.91452 1.8052 4.44413 1.80469 4.99651V16.113C1.8052 16.6654 2.02485 17.195 2.41544 17.5856C2.80603 17.9762 3.33564 18.1959 3.88802 18.1964H16.1129C16.6653 18.1959 17.1949 17.9762 17.5855 17.5856C17.9761 17.195 18.1958 16.6654 18.1963 16.113V4.99651C18.1958 4.44413 17.9761 3.91452 17.5855 3.52393C17.1949 3.13334 16.6653 2.91368 16.1129 2.91317ZM3.888 3.74651H4.02634V4.44234C4.02634 4.55285 4.07024 4.65883 4.14838 4.73697C4.22652 4.81511 4.3325 4.85901 4.443 4.85901C4.55351 4.85901 4.65949 4.81511 4.73763 4.73697C4.81577 4.65883 4.85967 4.55285 4.85967 4.44234V3.74651H7.72996V4.44234C7.72996 4.55285 7.77386 4.65883 7.852 4.73697C7.93014 4.81511 8.03612 4.85901 8.14663 4.85901C8.25714 4.85901 8.36312 4.81511 8.44126 4.73697C8.5194 4.65883 8.5633 4.55285 8.5633 4.44234V3.74651H11.4336V4.44234C11.4336 4.55285 11.4775 4.65883 11.5556 4.73697C11.6338 4.81511 11.7397 4.85901 11.8502 4.85901C11.9608 4.85901 12.0667 4.81511 12.1449 4.73697C12.223 4.65883 12.2669 4.55285 12.2669 4.44234V3.74651H15.1372V4.44234C15.1372 4.55285 15.1811 4.65883 15.2592 4.73697C15.3374 4.81511 15.4433 4.85901 15.5539 4.85901C15.6644 4.85901 15.7703 4.81511 15.8485 4.73697C15.9266 4.65883 15.9705 4.55285 15.9705 4.44234V3.74651H16.1129C16.4443 3.74687 16.7621 3.87868 16.9964 4.11302C17.2308 4.34736 17.3626 4.6651 17.3629 4.99651V6.24651H2.638V4.99651C2.63837 4.6651 2.77018 4.34736 3.00452 4.11302C3.23886 3.87868 3.55659 3.74687 3.888 3.74651ZM16.1129 17.363H3.888C3.55659 17.3627 3.23886 17.2309 3.00452 16.9965C2.77018 16.7622 2.63837 16.4444 2.638 16.113V7.07984H17.3629V16.113C17.3626 16.4444 17.2308 16.7622 16.9964 16.9965C16.7621 17.2309 16.4443 17.3627 16.1129 17.363Z" fill="#171723"/>
<path d="M4.85954 8.13696C4.80481 8.13693 4.75062 8.14769 4.70005 8.16862C4.64948 8.18955 4.60354 8.22024 4.56484 8.25893C4.52614 8.29763 4.49545 8.34358 4.47453 8.39414C4.4536 8.44471 4.44284 8.4989 4.44287 8.55363V9.22014C4.44287 9.33064 4.48677 9.43663 4.56491 9.51477C4.64305 9.59291 4.74903 9.6368 4.85954 9.6368C4.97004 9.6368 5.07603 9.59291 5.15417 9.51477C5.23231 9.43663 5.2762 9.33064 5.2762 9.22014V8.55363C5.27624 8.4989 5.26548 8.44471 5.24455 8.39414C5.22362 8.34358 5.19293 8.29763 5.15423 8.25893C5.11554 8.22024 5.06959 8.18955 5.01903 8.16862C4.96846 8.14769 4.91426 8.13693 4.85954 8.13696Z" fill="#171723"/>
<path d="M8.28581 8.13696C8.23108 8.13693 8.17689 8.14769 8.12632 8.16862C8.07575 8.18955 8.02981 8.22024 7.99111 8.25893C7.95241 8.29763 7.92172 8.34358 7.90079 8.39414C7.87987 8.44471 7.86911 8.4989 7.86914 8.55363V9.22014C7.86914 9.33064 7.91304 9.43663 7.99118 9.51477C8.06932 9.59291 8.1753 9.6368 8.28581 9.6368C8.39631 9.6368 8.5023 9.59291 8.58044 9.51477C8.65858 9.43663 8.70247 9.33064 8.70247 9.22014V8.55363C8.7025 8.4989 8.69175 8.44471 8.67082 8.39414C8.64989 8.34358 8.6192 8.29763 8.5805 8.25893C8.54181 8.22024 8.49586 8.18955 8.4453 8.16862C8.39473 8.14769 8.34053 8.13693 8.28581 8.13696Z" fill="#171723"/>
<path d="M11.7111 8.13696C11.6564 8.13693 11.6022 8.14769 11.5516 8.16862C11.501 8.18955 11.4551 8.22024 11.4164 8.25893C11.3777 8.29763 11.347 8.34358 11.3261 8.39414C11.3052 8.44471 11.2944 8.4989 11.2944 8.55363V9.22014C11.2944 9.33064 11.3383 9.43663 11.4165 9.51477C11.4946 9.59291 11.6006 9.6368 11.7111 9.6368C11.8216 9.6368 11.9276 9.59291 12.0057 9.51477C12.0839 9.43663 12.1278 9.33064 12.1278 9.22014V8.55363C12.1278 8.4989 12.117 8.44471 12.0961 8.39414C12.0752 8.34358 12.0445 8.29763 12.0058 8.25893C11.9671 8.22024 11.9212 8.18955 11.8706 8.16862C11.82 8.14769 11.7658 8.13693 11.7111 8.13696Z" fill="#171723"/>
<path d="M15.1369 8.13696C15.0822 8.13693 15.028 8.14769 14.9774 8.16862C14.9268 8.18955 14.8809 8.22024 14.8422 8.25893C14.8035 8.29763 14.7728 8.34358 14.7519 8.39414C14.7309 8.44471 14.7202 8.4989 14.7202 8.55363V9.22014C14.7202 9.33064 14.7641 9.43663 14.8423 9.51477C14.9204 9.59291 15.0264 9.6368 15.1369 9.6368C15.2474 9.6368 15.3534 9.59291 15.4315 9.51477C15.5096 9.43663 15.5535 9.33064 15.5535 9.22014V8.55363C15.5536 8.4989 15.5428 8.44471 15.5219 8.39414C15.501 8.34358 15.4703 8.29763 15.4316 8.25893C15.3929 8.22024 15.3469 8.18955 15.2964 8.16862C15.2458 8.14769 15.1916 8.13693 15.1369 8.13696Z" fill="#171723"/>
<path d="M4.85954 14.8036C4.80481 14.8036 4.75062 14.8143 4.70005 14.8352C4.64948 14.8562 4.60354 14.8869 4.56484 14.9256C4.52614 14.9643 4.49545 15.0102 4.47453 15.0608C4.4536 15.1113 4.44284 15.1655 4.44287 15.2203V15.8868C4.44287 15.9973 4.48677 16.1033 4.56491 16.1814C4.64305 16.2595 4.74903 16.3034 4.85954 16.3034C4.97004 16.3034 5.07603 16.2595 5.15417 16.1814C5.23231 16.1033 5.2762 15.9973 5.2762 15.8868V15.2203C5.27624 15.1655 5.26548 15.1113 5.24455 15.0608C5.22362 15.0102 5.19293 14.9643 5.15423 14.9256C5.11554 14.8869 5.06959 14.8562 5.01903 14.8352C4.96846 14.8143 4.91426 14.8036 4.85954 14.8036Z" fill="#171723"/>
<path d="M8.28581 14.8036C8.23108 14.8036 8.17689 14.8143 8.12632 14.8352C8.07575 14.8562 8.02981 14.8869 7.99111 14.9256C7.95241 14.9643 7.92172 15.0102 7.90079 15.0608C7.87987 15.1113 7.86911 15.1655 7.86914 15.2203V15.8868C7.86914 15.9973 7.91304 16.1033 7.99118 16.1814C8.06932 16.2595 8.1753 16.3034 8.28581 16.3034C8.39631 16.3034 8.5023 16.2595 8.58044 16.1814C8.65858 16.1033 8.70247 15.9973 8.70247 15.8868V15.2203C8.7025 15.1655 8.69175 15.1113 8.67082 15.0608C8.64989 15.0102 8.6192 14.9643 8.5805 14.9256C8.54181 14.8869 8.49586 14.8562 8.4453 14.8352C8.39473 14.8143 8.34053 14.8036 8.28581 14.8036Z" fill="#171723"/>
<path d="M11.7111 14.8036C11.6564 14.8036 11.6022 14.8143 11.5516 14.8352C11.501 14.8562 11.4551 14.8869 11.4164 14.9256C11.3777 14.9643 11.347 15.0102 11.3261 15.0608C11.3052 15.1113 11.2944 15.1655 11.2944 15.2203V15.8868C11.2944 15.9973 11.3383 16.1033 11.4165 16.1814C11.4946 16.2595 11.6006 16.3034 11.7111 16.3034C11.8216 16.3034 11.9276 16.2595 12.0057 16.1814C12.0839 16.1033 12.1278 15.9973 12.1278 15.8868V15.2203C12.1278 15.1655 12.117 15.1113 12.0961 15.0608C12.0752 15.0102 12.0445 14.9643 12.0058 14.9256C11.9671 14.8869 11.9212 14.8562 11.8706 14.8352C11.82 14.8143 11.7658 14.8036 11.7111 14.8036Z" fill="#171723"/>
<path d="M4.85954 11.4702C4.80481 11.4702 4.75062 11.4809 4.70005 11.5019C4.64948 11.5228 4.60354 11.5535 4.56484 11.5922C4.52614 11.6309 4.49545 11.6768 4.47453 11.7274C4.4536 11.778 4.44284 11.8322 4.44287 11.8869V12.5534C4.44287 12.6639 4.48677 12.7699 4.56491 12.848C4.64305 12.9262 4.74903 12.9701 4.85954 12.9701C4.97004 12.9701 5.07603 12.9262 5.15417 12.848C5.23231 12.7699 5.2762 12.6639 5.2762 12.5534V11.8869C5.27624 11.8322 5.26548 11.778 5.24455 11.7274C5.22362 11.6768 5.19293 11.6309 5.15423 11.5922C5.11554 11.5535 5.06959 11.5228 5.01903 11.5019C4.96846 11.4809 4.91426 11.4702 4.85954 11.4702Z" fill="#171723"/>
<path d="M8.28581 11.4702C8.23108 11.4702 8.17689 11.4809 8.12632 11.5019C8.07575 11.5228 8.02981 11.5535 7.99111 11.5922C7.95241 11.6309 7.92172 11.6768 7.90079 11.7274C7.87987 11.778 7.86911 11.8322 7.86914 11.8869V12.5534C7.86914 12.6639 7.91304 12.7699 7.99118 12.848C8.06932 12.9262 8.1753 12.9701 8.28581 12.9701C8.39631 12.9701 8.5023 12.9262 8.58044 12.848C8.65858 12.7699 8.70247 12.6639 8.70247 12.5534V11.8869C8.7025 11.8322 8.69175 11.778 8.67082 11.7274C8.64989 11.6768 8.6192 11.6309 8.5805 11.5922C8.54181 11.5535 8.49586 11.5228 8.4453 11.5019C8.39473 11.4809 8.34053 11.4702 8.28581 11.4702Z" fill="#171723"/>
<path d="M11.7111 11.4702C11.6564 11.4702 11.6022 11.4809 11.5516 11.5019C11.501 11.5228 11.4551 11.5535 11.4164 11.5922C11.3777 11.6309 11.347 11.6768 11.3261 11.7274C11.3052 11.778 11.2944 11.8322 11.2944 11.8869V12.5534C11.2944 12.6639 11.3383 12.7699 11.4165 12.848C11.4946 12.9262 11.6006 12.9701 11.7111 12.9701C11.8216 12.9701 11.9276 12.9262 12.0057 12.848C12.0839 12.7699 12.1278 12.6639 12.1278 12.5534V11.8869C12.1278 11.8322 12.117 11.778 12.0961 11.7274C12.0752 11.6768 12.0445 11.6309 12.0058 11.5922C11.9671 11.5535 11.9212 11.5228 11.8706 11.5019C11.82 11.4809 11.7658 11.4702 11.7111 11.4702Z" fill="#171723"/>
<path d="M15.1369 11.4702C15.0822 11.4702 15.028 11.4809 14.9774 11.5019C14.9268 11.5228 14.8809 11.5535 14.8422 11.5922C14.8035 11.6309 14.7728 11.6768 14.7519 11.7274C14.7309 11.778 14.7202 11.8322 14.7202 11.8869V12.5534C14.7202 12.6639 14.7641 12.7699 14.8423 12.848C14.9204 12.9262 15.0264 12.9701 15.1369 12.9701C15.2474 12.9701 15.3534 12.9262 15.4315 12.848C15.5096 12.7699 15.5535 12.6639 15.5535 12.5534V11.8869C15.5536 11.8322 15.5428 11.778 15.5219 11.7274C15.501 11.6768 15.4703 11.6309 15.4316 11.5922C15.3929 11.5535 15.3469 11.5228 15.2964 11.5019C15.2458 11.4809 15.1916 11.4702 15.1369 11.4702Z" fill="#171723"/>
</g>
<defs>
<clipPath id="clip0_5313_35110">
<rect width="20" height="20" fill="white"/>
</clipPath>
</defs>
</svg>
