<svg width="20" height="20" viewBox="0 0 20 20" fill="none" xmlns="http://www.w3.org/2000/svg">
<g clip-path="url(#clip0_10317_146883)">
<path d="M8.6628 7.9378V8.08225H11.3469V7.9378C11.35 7.64139 11.2515 7.35286 11.0677 7.12023C11.2878 6.83039 11.4087 6.47744 11.4126 6.11357C11.4126 6.00306 11.3687 5.89708 11.2906 5.81894C11.2124 5.7408 11.1064 5.6969 10.9959 5.6969C10.8854 5.6969 10.7794 5.7408 10.7013 5.81894C10.6232 5.89708 10.5793 6.00306 10.5793 6.11357C10.5694 6.31022 10.4947 6.49806 10.3667 6.64767C10.128 6.58052 9.87547 6.58076 9.63698 6.64839C9.50663 6.49966 9.43056 6.31112 9.42122 6.11357C9.42122 6.00306 9.37732 5.89708 9.29918 5.81894C9.22104 5.7408 9.11506 5.6969 9.00456 5.6969C8.89405 5.6969 8.78807 5.7408 8.70993 5.81894C8.63179 5.89708 8.58789 6.00306 8.58789 6.11357C8.59117 6.4789 8.71361 6.83318 8.93661 7.12258C8.75675 7.35606 8.66034 7.64309 8.6628 7.9378Z" fill="#171723"/>
<path d="M17.7777 15.8166H17.2479C17.4855 15.4854 17.6135 15.0882 17.6141 14.6806V5.31939C17.6125 4.83621 17.4319 4.37076 17.1073 4.01288C17.1018 4.00531 17.1002 3.9961 17.0941 3.98883C17.0886 3.98232 17.0807 3.97973 17.075 3.97367C16.8921 3.77731 16.6709 3.62062 16.425 3.51333C16.1791 3.40604 15.9138 3.35044 15.6455 3.34998H4.35401C3.83199 3.35071 3.33157 3.55846 2.96252 3.92766C2.59347 4.29686 2.38593 4.79737 2.38542 5.31939V14.6806C2.38601 15.0882 2.51405 15.4854 2.75163 15.8166H2.22184C2.11134 15.8166 2.00535 15.8605 1.92721 15.9387C1.84907 16.0168 1.80518 16.1228 1.80518 16.2333C1.80518 16.3438 1.84907 16.4498 1.92721 16.5279C2.00535 16.6061 2.11134 16.65 2.22184 16.65H17.7777C17.8882 16.65 17.9942 16.6061 18.0723 16.5279C18.1504 16.4498 18.1943 16.3438 18.1943 16.2333C18.1943 16.1228 18.1504 16.0168 18.0723 15.9387C17.9942 15.8605 17.8882 15.8166 17.7777 15.8166ZM3.21875 5.31939C3.21898 5.0183 3.33863 4.72958 3.55146 4.5166C3.76429 4.30362 4.05291 4.18375 4.35401 4.18331H15.6455C15.8033 4.18362 15.9593 4.21712 16.1033 4.28164L11.1553 8.47414C11.0989 8.45842 11.0412 8.4478 10.983 8.4424C10.9519 8.44047 10.9223 8.4399 10.8941 8.44037H9.11277C9.08479 8.43991 9.05508 8.44047 9.02386 8.4424C8.93637 8.44806 8.84985 8.464 8.76608 8.4899C8.47389 8.56693 8.21631 8.74047 8.03519 8.98235C7.79442 8.87284 7.58632 8.70252 7.43136 8.48817C7.2764 8.27381 7.17992 8.0228 7.15143 7.75983C7.15143 7.64933 7.10753 7.54335 7.02939 7.46521C6.95125 7.38707 6.84527 7.34317 6.73476 7.34317C6.62425 7.34317 6.51827 7.38707 6.44013 7.46521C6.36199 7.54335 6.31809 7.64933 6.31809 7.75983C6.3457 8.19403 6.49258 8.6122 6.74256 8.96829C6.99254 9.32438 7.33593 9.60458 7.73493 9.77806C7.74804 9.78523 7.76259 9.78289 7.77623 9.78843V10.3957H6.66638C6.55587 10.3957 6.44989 10.4396 6.37175 10.5178C6.29361 10.5959 6.24971 10.7019 6.24971 10.8124C6.24971 10.9229 6.29361 11.0289 6.37175 11.107C6.44989 11.1852 6.55587 11.2291 6.66638 11.2291H7.7762V11.3372L3.30838 15.1229C3.24906 14.983 3.21858 14.8325 3.21875 14.6806V5.31939ZM12.7271 8.23523C12.5468 8.54719 12.2883 8.80673 11.9771 8.9882C11.9588 8.96383 11.9317 8.94893 11.9119 8.92594L12.7271 8.23523ZM4.35401 15.8166C4.19602 15.8163 4.03988 15.7827 3.89573 15.7181L6.47726 13.5307C6.47405 13.5777 6.45809 13.6231 6.45809 13.6705C6.45809 13.781 6.50199 13.887 6.58013 13.9651C6.65827 14.0432 6.76425 14.0871 6.87476 14.0871C6.98527 14.0871 7.09125 14.0432 7.16939 13.9651C7.24753 13.887 7.29143 13.781 7.29143 13.6705C7.30254 13.4367 7.36594 13.2085 7.47696 13.0025C7.58798 12.7965 7.74378 12.6181 7.9329 12.4803C8.09628 12.8959 8.38131 13.2524 8.75069 13.5033C9.12007 13.7543 9.55658 13.8878 10.0031 13.8865V13.8866H10.0038V13.8865C10.4495 13.8878 10.8853 13.7548 11.2543 13.5048C11.6232 13.2549 11.9084 12.8995 12.0725 12.4852C12.2602 12.6228 12.4148 12.8007 12.5249 13.0058C12.635 13.2108 12.6979 13.438 12.7089 13.6705C12.7089 13.781 12.7528 13.887 12.8309 13.9651C12.9091 14.0432 13.0151 14.0871 13.1256 14.0871C13.2361 14.0871 13.3421 14.0432 13.4202 13.9651C13.4983 13.887 13.5422 13.781 13.5422 13.6705C13.5277 13.2651 13.4138 12.8696 13.2104 12.5186C13.0071 12.1677 12.7205 11.8721 12.3761 11.658C12.332 11.6285 12.2827 11.6077 12.2308 11.5968V11.2291H13.3331C13.4436 11.2291 13.5496 11.1852 13.6277 11.1071C13.7059 11.0289 13.7498 10.9229 13.7498 10.8124C13.7498 10.7019 13.7059 10.5959 13.6277 10.5178C13.5496 10.4397 13.4436 10.3958 13.3331 10.3958H12.2308V9.78993C12.2489 9.78647 12.2667 9.78169 12.2841 9.77564C12.6782 9.5962 13.0165 9.3135 13.263 8.95748C13.5096 8.60145 13.6553 8.18537 13.6846 7.75331C13.6829 7.66162 13.6503 7.57319 13.5921 7.5023L16.6909 4.87664C16.7504 5.01668 16.7809 5.16727 16.7808 5.3194V14.6806C16.7805 14.9817 16.6609 15.2704 16.4481 15.4834C16.2352 15.6963 15.9466 15.8162 15.6455 15.8166H4.35401Z" fill="#171723"/>
</g>
<defs>
<clipPath id="clip0_10317_146883">
<rect width="20" height="20" fill="white"/>
</clipPath>
</defs>
</svg>
