<svg width="20" height="20" viewBox="0 0 20 20" fill="none" xmlns="http://www.w3.org/2000/svg">
<path d="M9.99984 2.91663C8.59889 2.91663 7.2294 3.33206 6.06455 4.11038C4.8997 4.88871 3.99181 5.99497 3.45569 7.28928C2.91957 8.58359 2.7793 10.0078 3.05261 11.3818C3.32592 12.7559 4.00055 14.018 4.99117 15.0086C5.98179 15.9993 7.24392 16.6739 8.61795 16.9472C9.99198 17.2205 11.4162 17.0802 12.7105 16.5441C14.0048 16.008 15.1111 15.1001 15.8894 13.9352C16.6677 12.7704 17.0832 11.4009 17.0832 9.99996C17.0819 8.12173 16.3352 6.32079 15.0071 4.99268C13.679 3.66457 11.8781 2.91788 9.99984 2.91663ZM12.5082 11.9167C12.5844 11.9963 12.627 12.1023 12.627 12.2125C12.627 12.3227 12.5844 12.4287 12.5082 12.5083C12.4279 12.5833 12.3222 12.625 12.2123 12.625C12.1025 12.625 11.9968 12.5833 11.9165 12.5083L9.99984 10.5916L8.08317 12.5083C8.00292 12.5833 7.89718 12.625 7.78734 12.625C7.6775 12.625 7.57176 12.5833 7.49151 12.5083C7.45194 12.4698 7.42049 12.4239 7.39902 12.373C7.37754 12.3222 7.36648 12.2676 7.36648 12.2125C7.36648 12.1573 7.37754 12.1027 7.39902 12.0519C7.42049 12.0011 7.45194 11.9551 7.49151 11.9166L9.40817 9.99996L7.49151 8.07496C7.45201 8.03735 7.42056 7.9921 7.39907 7.94197C7.37758 7.89183 7.3665 7.83786 7.3665 7.78331C7.3665 7.72877 7.37758 7.67479 7.39907 7.62466C7.42056 7.57453 7.45201 7.52928 7.49151 7.49167C7.52996 7.45211 7.57595 7.42067 7.62676 7.3992C7.67757 7.37773 7.73218 7.36667 7.78734 7.36667C7.8425 7.36667 7.89711 7.37773 7.94792 7.3992C7.99873 7.42067 8.04472 7.45211 8.08317 7.49167L9.99984 9.40833L11.9165 7.49167C11.955 7.45211 12.0009 7.42067 12.0518 7.3992C12.1026 7.37773 12.1572 7.36667 12.2123 7.36667C12.2675 7.36667 12.3221 7.37773 12.3729 7.3992C12.4237 7.42067 12.4697 7.45211 12.5082 7.49167C12.5843 7.56966 12.6269 7.67432 12.6269 7.78331C12.6269 7.8923 12.5843 7.99697 12.5082 8.07496L10.5915 9.99996L12.5082 11.9167Z" fill="#171723"/>
</svg>
