<svg width="20" height="20" viewBox="0 0 20 20" fill="none" xmlns="http://www.w3.org/2000/svg">
<path d="M17.6727 6.083C17.6849 6.01115 17.6777 5.93737 17.6519 5.86922L17.6518 5.86815L17.6486 5.86429C17.6282 5.81536 17.5986 5.77081 17.5614 5.73306L15.4171 3.58914C15.3387 3.51231 15.2331 3.46952 15.1234 3.47008C15.0136 3.47063 14.9085 3.51448 14.8309 3.5921C14.7532 3.66972 14.7094 3.77483 14.7088 3.88459C14.7083 3.99436 14.7511 4.09991 14.8279 4.1783L16.2609 5.611H9.22393C9.14872 4.90413 8.87508 4.23294 8.4346 3.67499C7.99413 3.11703 7.4048 2.69506 6.73469 2.45783C6.06457 2.22059 5.34102 2.17777 4.6476 2.3343C3.95418 2.49084 3.31919 2.84034 2.81598 3.34245C2.31276 3.84455 1.96186 4.47877 1.8038 5.17184C1.64573 5.86491 1.68696 6.58856 1.92271 7.25919C2.15847 7.92983 2.57913 8.52009 3.13612 8.96179C3.6931 9.40349 4.36368 9.67862 5.07039 9.75539V17.7985C5.07039 17.909 5.11428 18.015 5.19242 18.0931C5.27057 18.1713 5.37655 18.2152 5.48705 18.2152C5.59756 18.2152 5.70354 18.1713 5.78168 18.0931C5.85982 18.015 5.90372 17.909 5.90372 17.7985V9.75548C6.75068 9.66244 7.54074 9.28388 8.14393 8.68207C8.74711 8.08027 9.12748 7.29107 9.22245 6.44433H16.2609L14.8279 7.87664C14.7885 7.91518 14.7572 7.96114 14.7358 8.01185C14.7143 8.06256 14.7031 8.11703 14.7029 8.17209C14.7026 8.22716 14.7132 8.28173 14.7342 8.33266C14.7551 8.38359 14.7859 8.42986 14.8249 8.46879C14.8638 8.50773 14.9101 8.53856 14.961 8.55951C15.0119 8.58045 15.0665 8.59109 15.1216 8.59082C15.1766 8.59054 15.2311 8.57935 15.2818 8.55789C15.3325 8.53643 15.3785 8.50513 15.417 8.4658L17.5614 6.32225C17.6121 6.26902 17.6473 6.20302 17.6633 6.13131C17.6675 6.11543 17.6706 6.09929 17.6727 6.083ZM7.11178 7.64397C7.02211 7.72801 6.9041 7.77522 6.78122 7.77621C6.66152 7.77334 6.54713 7.72623 6.46013 7.64397L5.48736 6.66171L4.51451 7.64397C4.42727 7.72879 4.31039 7.77624 4.18871 7.77624C4.06703 7.77624 3.95015 7.72879 3.86291 7.64397C3.77819 7.55857 3.73066 7.44314 3.73066 7.32285C3.73066 7.20255 3.77819 7.08713 3.86291 7.00173L4.85463 6.01952L3.86291 5.04664C3.82067 5.00457 3.78722 4.95451 3.76451 4.89938C3.74181 4.84426 3.7303 4.78516 3.73066 4.72555C3.73044 4.66279 3.74383 4.60074 3.76992 4.54367C3.79601 4.48659 3.83417 4.43586 3.88178 4.39497C3.9693 4.32082 4.07886 4.27766 4.19344 4.27219C4.31162 4.28181 4.42386 4.32804 4.51454 4.40443L5.48736 5.38674L6.47908 4.39497C6.56396 4.32259 6.66994 4.27953 6.78125 4.27219C6.90235 4.28151 7.0177 4.32766 7.11181 4.40443C7.19658 4.48981 7.24415 4.60524 7.24415 4.72555C7.24415 4.84586 7.19658 4.96129 7.11181 5.04667L6.12019 6.01952L7.11178 7.00173C7.19655 7.08711 7.24412 7.20254 7.24412 7.32285C7.24412 7.44316 7.19655 7.55859 7.11178 7.64397Z" fill="#171723"/>
</svg>
