<svg width="20" height="20" viewBox="0 0 20 20" fill="none" xmlns="http://www.w3.org/2000/svg">
<path d="M18.1637 14.1511C18.1895 14.083 18.1967 14.0092 18.1845 13.9373C18.1824 13.921 18.1793 13.9049 18.1751 13.889C18.1591 13.8173 18.1239 13.7513 18.0732 13.6981L15.9289 11.5537C15.8505 11.4769 15.7449 11.4341 15.6352 11.4346C15.5254 11.4352 15.4203 11.479 15.3427 11.5567C15.265 11.6343 15.2212 11.7394 15.2206 11.8491C15.2201 11.9589 15.2629 12.0645 15.3397 12.1429L16.7728 13.576H9.73433C9.63941 12.7292 9.25906 11.9399 8.65586 11.338C8.05266 10.7362 7.26255 10.3575 6.41554 10.2645V2.22184C6.41554 2.11134 6.37164 2.00535 6.2935 1.92721C6.21536 1.84907 6.10938 1.80518 5.99887 1.80518C5.88837 1.80518 5.78239 1.84907 5.70425 1.92721C5.62611 2.00535 5.58221 2.11134 5.58221 2.22184V10.2646C4.87549 10.3414 4.2049 10.6165 3.64791 11.0582C3.09091 11.4999 2.67023 12.0902 2.43446 12.7608C2.19869 13.4315 2.15745 14.1551 2.3155 14.8482C2.47354 15.5413 2.82444 16.1755 3.32764 16.6777C3.83085 17.1798 4.46583 17.5293 5.15925 17.6859C5.85267 17.8424 6.57624 17.7996 7.24637 17.5624C7.9165 17.3252 8.50586 16.9033 8.94637 16.3453C9.38687 15.7874 9.66056 15.1162 9.73581 14.4093H16.7725L15.3397 15.8416C15.3004 15.8802 15.2691 15.9261 15.2476 15.9768C15.2262 16.0275 15.215 16.082 15.2147 16.1371C15.2144 16.1921 15.225 16.2467 15.246 16.2976C15.2669 16.3486 15.2978 16.3948 15.3367 16.4338C15.3756 16.4727 15.4219 16.5035 15.4728 16.5245C15.5238 16.5454 15.5783 16.5561 15.6334 16.5558C15.6885 16.5555 15.7429 16.5443 15.7937 16.5229C15.8444 16.5014 15.8903 16.4701 15.9289 16.4308L18.0732 14.2872C18.1104 14.2495 18.14 14.2049 18.1604 14.156L18.1636 14.1521L18.1637 14.1511ZM7.62373 15.6156C7.52961 15.6924 7.41427 15.7385 7.29317 15.7478C7.18186 15.7405 7.07588 15.6975 6.991 15.6251L5.99923 14.6333L5.02643 15.6156C4.93575 15.692 4.82352 15.7382 4.70534 15.7478C4.59076 15.7424 4.4812 15.6992 4.39367 15.6251C4.34606 15.5842 4.30789 15.5334 4.28179 15.4764C4.2557 15.4193 4.2423 15.3572 4.24251 15.2945C4.24216 15.2348 4.25367 15.1757 4.27637 15.1206C4.29907 15.0655 4.33252 15.0154 4.37476 14.9734L5.36653 14.0005L4.37478 13.0183C4.29007 12.9329 4.24254 12.8174 4.24254 12.6972C4.24254 12.5769 4.29007 12.4614 4.37478 12.376C4.46444 12.292 4.58245 12.2448 4.70534 12.2438C4.82504 12.2467 4.93943 12.2938 5.02643 12.376L5.99923 13.3583L6.97208 12.376C7.05908 12.2938 7.17347 12.2467 7.29317 12.2438C7.41606 12.2448 7.53407 12.292 7.62373 12.376C7.7085 12.4614 7.75607 12.5768 7.75607 12.6972C7.75607 12.8175 7.7085 12.9329 7.62373 13.0183L6.63211 14.0005L7.62373 14.9734C7.7085 15.0587 7.75607 15.1742 7.75607 15.2945C7.75607 15.4148 7.7085 15.5302 7.62373 15.6156Z" fill="#171723"/>
</svg>
