<svg width="20" height="20" viewBox="0 0 20 20" fill="none" xmlns="http://www.w3.org/2000/svg">
<path d="M16.061 6.07249C16.483 6.07241 16.8954 5.94721 17.2462 5.71273C17.597 5.47824 17.8704 5.145 18.0318 4.75514C18.1932 4.36529 18.2353 3.93633 18.1529 3.52251C18.0705 3.10869 17.8673 2.72859 17.5689 2.43029C17.2705 2.13199 16.8903 1.92888 16.4764 1.84664C16.0626 1.7644 15.6336 1.80673 15.2438 1.96828C14.854 2.12982 14.5209 2.40333 14.2866 2.7542C14.0522 3.10508 13.9272 3.51757 13.9272 3.93952C13.928 4.50513 14.1531 5.04734 14.5531 5.44721C14.9531 5.84708 15.4954 6.07195 16.061 6.07249Z" fill="#171723"/>
<path d="M16.0612 13.9273C15.6393 13.9274 15.2269 14.0526 14.8761 14.287C14.5253 14.5215 14.252 14.8547 14.0905 15.2445C13.9291 15.6343 13.8869 16.0632 13.9692 16.477C14.0516 16.8908 14.2547 17.2709 14.5531 17.5692C14.8514 17.8676 15.2315 18.0707 15.6453 18.1531C16.0591 18.2354 16.488 18.1932 16.8778 18.0318C17.2676 17.8703 17.6008 17.597 17.8353 17.2462C18.0697 16.8954 18.1949 16.483 18.195 16.0611C18.1944 15.4954 17.9694 14.953 17.5694 14.5529C17.1693 14.1529 16.6269 13.9279 16.0612 13.9273Z" fill="#171723"/>
<path d="M16.061 12.1337C17.2395 12.1337 18.1948 11.1784 18.1948 9.99994C18.1948 8.82148 17.2395 7.86615 16.061 7.86615C14.8826 7.86615 13.9272 8.82148 13.9272 9.99994C13.9272 11.1784 14.8826 12.1337 16.061 12.1337Z" fill="#171723"/>
<path d="M13.313 9.94899C13.3108 9.93199 13.3076 9.91515 13.3032 9.89858C13.2874 9.83065 13.2543 9.76795 13.2072 9.71654L13.2029 9.70861L12.2199 8.7174C12.1419 8.63903 12.0361 8.5948 11.9255 8.59443C11.815 8.59405 11.7088 8.63756 11.6303 8.7154C11.5518 8.79324 11.5074 8.89904 11.5069 9.00958C11.5064 9.12012 11.5497 9.22636 11.6274 9.30496L11.9066 9.58573H7.94707C7.902 9.24861 7.80086 8.92141 7.64784 8.61766L11.958 6.46164L11.8366 6.82612C11.8016 6.93102 11.8097 7.0455 11.8592 7.1444C11.9086 7.2433 11.9953 7.3185 12.1002 7.35347C12.2051 7.38843 12.3196 7.3803 12.4185 7.33085C12.5174 7.2814 12.5926 7.19469 12.6276 7.08979L13.067 5.77063C13.0829 5.72121 13.0892 5.66926 13.0858 5.61749L13.0874 5.61031L13.0869 5.60879C13.0795 5.5371 13.0535 5.46858 13.0115 5.41006C13.0019 5.39559 12.9913 5.38179 12.9798 5.36876C12.9339 5.31268 12.8739 5.26986 12.806 5.24476L12.805 5.2441L12.8045 5.24394L12.8034 5.24328L12.8022 5.24313L11.4817 4.7965C11.4297 4.77834 11.3747 4.77067 11.3197 4.77392C11.2647 4.77718 11.2109 4.79129 11.1615 4.81546C11.112 4.83963 11.0678 4.87336 11.0314 4.91472C10.995 4.95607 10.9672 5.00422 10.9496 5.05639C10.932 5.10856 10.9248 5.1637 10.9286 5.21864C10.9324 5.27358 10.9471 5.32721 10.9718 5.37645C10.9964 5.42569 11.0306 5.46955 11.0723 5.5055C11.114 5.54145 11.1625 5.56877 11.2148 5.58589L11.5908 5.71284L7.17224 7.92368C6.75292 7.4611 6.20337 7.13631 5.59591 6.99207C4.98845 6.84783 4.35155 6.89089 3.76903 7.11558C3.18652 7.34027 2.68568 7.73607 2.33244 8.25088C1.9792 8.76569 1.7901 9.3754 1.79004 9.99974C1.78998 10.6241 1.97895 11.2338 2.33209 11.7487C2.68524 12.2636 3.18599 12.6595 3.76847 12.8843C4.35094 13.1091 4.98783 13.1523 5.59532 13.0082C6.2028 12.864 6.75242 12.5394 7.17183 12.0769L11.5908 14.2871L11.2148 14.4141C11.1212 14.4457 11.0419 14.5096 10.9911 14.5942C10.9402 14.6789 10.9211 14.7789 10.9372 14.8764C10.9532 14.9739 11.0033 15.0625 11.0786 15.1264C11.1539 15.1903 11.2495 15.2254 11.3483 15.2254C11.3936 15.2252 11.4387 15.2178 11.4817 15.2034L12.8019 14.7577L12.8033 14.7575L12.8045 14.7568L12.805 14.7567L12.8059 14.7561C12.8739 14.7309 12.9339 14.6881 12.9798 14.632C12.9911 14.6193 13.0015 14.6058 13.0109 14.5916C13.0533 14.5329 13.0794 14.4641 13.0867 14.3921L13.0874 14.3904L13.0856 14.3829C13.089 14.3313 13.0827 14.2794 13.067 14.2301L12.6276 12.9101C12.5926 12.8052 12.5174 12.7185 12.4185 12.669C12.3196 12.6196 12.2051 12.6114 12.1002 12.6464C11.9953 12.6814 11.9086 12.7566 11.8592 12.8555C11.8097 12.9544 11.8016 13.0688 11.8365 13.1737L11.9582 13.5391L7.64748 11.3829C7.80004 11.0804 7.90112 10.7547 7.94655 10.4191H11.9015L11.6291 10.6917C11.5897 10.7302 11.5584 10.7762 11.537 10.8269C11.5155 10.8776 11.5043 10.9321 11.504 10.9871C11.5038 11.0422 11.5144 11.0968 11.5354 11.1477C11.5563 11.1986 11.5871 11.2449 11.6261 11.2839C11.665 11.3228 11.7113 11.3536 11.7622 11.3746C11.8131 11.3955 11.8677 11.4062 11.9228 11.4059C11.9778 11.4056 12.0323 11.3944 12.083 11.3729C12.1337 11.3515 12.1797 11.3202 12.2182 11.2809L13.2013 10.297C13.2371 10.2602 13.2657 10.2171 13.2857 10.1698L13.2916 10.1627L13.2918 10.1607C13.3174 10.0932 13.3247 10.0202 13.313 9.94899Z" fill="#171723"/>
</svg>
