<svg width="20" height="20" viewBox="0 0 20 20" fill="none" xmlns="http://www.w3.org/2000/svg">
<g clip-path="url(#clip0_10314_144692)">
<path d="M17.0998 7.78459H15.8592C15.4867 7.05967 14.9721 6.41715 14.3461 5.89528C13.7201 5.37342 12.9955 4.98289 12.2153 4.74697V3.68303C12.215 3.39263 12.0994 3.11424 11.8941 2.9089C11.6887 2.70356 11.4104 2.58803 11.12 2.58765H8.87956C8.58916 2.58803 8.31077 2.70356 8.10543 2.9089C7.90009 3.11424 7.78456 3.39263 7.78418 3.68303V4.74692C7.00436 4.98389 6.27995 5.37481 5.65381 5.89656C5.02766 6.41831 4.51247 7.0603 4.13871 7.78459H2.90056C2.61016 7.78497 2.33177 7.9005 2.12643 8.10584C1.92109 8.31118 1.80556 8.58957 1.80518 8.87996V11.1204C1.80559 11.4107 1.92115 11.689 2.12651 11.8942C2.33187 12.0994 2.61025 12.2147 2.90056 12.2149H4.1386C4.51333 12.9388 5.02881 13.5805 5.65483 14.1024C6.28084 14.6244 7.00478 15.0161 7.78418 15.2546V16.3173C7.78459 16.6076 7.90016 16.8859 8.10551 17.0911C8.31087 17.2963 8.58925 17.4117 8.87956 17.4119H11.12C11.4103 17.4117 11.6886 17.2963 11.894 17.0911C12.0994 16.8859 12.2149 16.6076 12.2153 16.3173V15.255C12.9955 15.0183 13.7201 14.6272 14.3461 14.105C14.9721 13.5827 15.4867 12.94 15.8594 12.2149H17.0998C17.39 12.2147 17.6683 12.0993 17.8735 11.8941C18.0787 11.6889 18.1941 11.4106 18.1943 11.1204V8.87996C18.1941 8.58965 18.0788 8.31128 17.8736 8.10592C17.6684 7.90056 17.3901 7.785 17.0998 7.78459ZM8.61752 3.68303C8.61749 3.64861 8.62426 3.61453 8.63742 3.58272C8.65058 3.55092 8.66988 3.52202 8.69422 3.49768C8.71855 3.47335 8.74745 3.45404 8.77925 3.44088C8.81105 3.42772 8.84514 3.42096 8.87956 3.42098H11.12C11.1544 3.42096 11.1885 3.42772 11.2203 3.44088C11.2521 3.45404 11.281 3.47335 11.3053 3.49768C11.3296 3.52202 11.3489 3.55092 11.3621 3.58272C11.3753 3.61453 11.382 3.64861 11.382 3.68303V5.92342C11.382 5.95784 11.3753 5.99193 11.3621 6.02373C11.3489 6.05553 11.3296 6.08443 11.3053 6.10877C11.281 6.13311 11.2521 6.15241 11.2203 6.16557C11.1885 6.17873 11.1544 6.18549 11.12 6.18547H8.87956C8.84514 6.18549 8.81105 6.17873 8.77925 6.16557C8.74745 6.15241 8.71855 6.13311 8.69422 6.10877C8.66988 6.08443 8.65058 6.05553 8.63742 6.02373C8.62426 5.99193 8.61749 5.95784 8.61752 5.92342V3.68303ZM2.63851 11.1204V8.87996C2.63849 8.84555 2.64525 8.81146 2.65841 8.77966C2.67158 8.74786 2.69088 8.71896 2.71522 8.69462C2.73955 8.67029 2.76845 8.65099 2.80025 8.63782C2.83206 8.62466 2.86614 8.6179 2.90056 8.61792H4.37415C4.38107 8.61828 4.38783 8.62199 4.3947 8.62199C4.39958 8.62199 4.40355 8.61807 4.40838 8.61792H5.14095C5.17537 8.6179 5.20945 8.62466 5.24126 8.63782C5.27306 8.65099 5.30196 8.67029 5.32629 8.69462C5.35063 8.71896 5.36993 8.74786 5.3831 8.77966C5.39626 8.81146 5.40302 8.84555 5.403 8.87996V11.1204C5.40289 11.1898 5.37521 11.2563 5.32607 11.3052C5.27693 11.3542 5.21034 11.3817 5.14095 11.3816H4.40293C4.39775 11.3815 4.39287 11.3815 4.38763 11.3816H2.90056C2.83117 11.3817 2.76458 11.3542 2.71544 11.3052C2.6663 11.2563 2.63862 11.1898 2.63851 11.1204ZM11.12 16.5785H8.87956C8.81017 16.5786 8.74358 16.5512 8.69444 16.5022C8.6453 16.4532 8.61763 16.3867 8.61752 16.3173V14.0761C8.61763 14.0067 8.6453 13.9402 8.69444 13.8912C8.74358 13.8422 8.81017 13.8148 8.87956 13.8149H11.12C11.1893 13.8148 11.2559 13.8422 11.3051 13.8912C11.3542 13.9402 11.3819 14.0067 11.382 14.0761V16.3173C11.3819 16.3867 11.3542 16.4532 11.3051 16.5022C11.2559 16.5512 11.1893 16.5786 11.12 16.5785ZM12.2153 14.3806V14.0761C12.2149 13.7858 12.0994 13.5075 11.894 13.3023C11.6886 13.0971 11.4103 12.9817 11.12 12.9815H8.87956C8.58925 12.9817 8.31087 13.0971 8.10551 13.3023C7.90016 13.5075 7.78459 13.7858 7.78418 14.0761V14.3784C6.66805 13.9772 5.71712 13.2161 5.08124 12.2149H5.14095C5.43126 12.2147 5.70964 12.0994 5.915 11.8942C6.12036 11.689 6.23592 11.4107 6.23633 11.1204V8.87996C6.23595 8.58957 6.12042 8.31118 5.91508 8.10584C5.70974 7.9005 5.43135 7.78497 5.14095 7.78459H5.08109C5.71589 6.78279 6.66733 6.02192 7.78418 5.62292V5.92341C7.78456 6.21381 7.90009 6.4922 8.10543 6.69755C8.31077 6.90289 8.58916 7.01841 8.87956 7.0188H11.12C11.4104 7.01841 11.6887 6.90289 11.8941 6.69755C12.0994 6.4922 12.215 6.21381 12.2153 5.92341V5.62156C13.3329 6.01941 14.2845 6.78116 14.9173 7.78459H14.8586C14.5683 7.78501 14.29 7.90057 14.0848 8.10593C13.8796 8.31128 13.7642 8.58966 13.764 8.87996V11.1204C13.7643 11.4106 13.8796 11.6889 14.0849 11.8941C14.2901 12.0993 14.5684 12.2147 14.8586 12.2149H14.918C14.2849 13.219 13.3332 13.9816 12.2153 14.3806ZM17.361 11.1204C17.3609 11.1896 17.3334 11.256 17.2844 11.305C17.2354 11.354 17.169 11.3815 17.0998 11.3816H15.6107C15.6043 11.3815 15.5983 11.3814 15.5919 11.3816H14.8586C14.7893 11.3815 14.7229 11.354 14.674 11.305C14.625 11.256 14.5974 11.1896 14.5974 11.1204V8.87996C14.5973 8.81058 14.6247 8.74399 14.6737 8.69485C14.7227 8.64571 14.7892 8.61804 14.8586 8.61792H15.5895C15.5944 8.61807 15.5983 8.62199 15.6032 8.62199C15.6101 8.62199 15.6168 8.61828 15.6238 8.61792H17.0998C17.1692 8.61804 17.2357 8.64571 17.2847 8.69485C17.3336 8.74399 17.3611 8.81058 17.361 8.87996V11.1204Z" fill="#171723"/>
</g>
<defs>
<clipPath id="clip0_10314_144692">
<rect width="20" height="20" fill="white"/>
</clipPath>
</defs>
</svg>
