<svg width="20" height="20" viewBox="0 0 20 20" fill="none" xmlns="http://www.w3.org/2000/svg">
<g clip-path="url(#clip0_5313_35172)">
<path d="M17.24 8.86512C16.8189 8.62481 16.3208 8.55759 15.8511 8.67769C15.7968 8.34281 15.6253 8.0381 15.3673 7.81786C15.1092 7.59762 14.7814 7.47617 14.4421 7.47514H13.302C13.2219 7.17005 13.0432 6.89997 12.7938 6.70689C12.5443 6.51381 12.2381 6.40855 11.9226 6.40746H10.8049L10.802 3.54369C10.8009 3.08311 10.617 2.64179 10.2909 2.31657C9.96475 1.99135 9.52291 1.8088 9.06232 1.80896C8.60173 1.80912 8.16002 1.99199 7.8341 2.31743C7.50817 2.64288 7.32466 3.08432 7.32383 3.54491V9.16345L6.07383 9.44131C5.69187 9.52768 5.35543 9.75244 5.12941 10.0722C4.90339 10.392 4.80381 10.7842 4.84987 11.1731L5.14038 13.7683C5.21765 14.431 5.44987 15.0662 5.81826 15.6225L6.51326 16.6772C6.80933 17.1172 7.20906 17.4776 7.67725 17.7266C8.14543 17.9757 8.66768 18.1058 9.19799 18.1054H13.7886C14.4836 18.1097 15.1606 17.8849 15.7149 17.4658C16.089 17.1941 16.3972 16.8417 16.6166 16.4347L17.2644 15.2514C17.6051 14.6267 17.821 13.9416 17.9 13.2344L18.1807 10.8573C18.2333 10.4698 18.1724 10.0754 18.0055 9.72185C17.8385 9.36827 17.5726 9.07068 17.24 8.86512ZM17.0723 13.1404C17.0053 13.7403 16.8223 14.3214 16.5336 14.8514L15.8842 16.0372C15.7225 16.3373 15.4949 16.5969 15.2185 16.7964C14.8073 17.1082 14.3047 17.2754 13.7887 17.2721H9.198C8.80501 17.2726 8.41793 17.1764 8.07082 16.9922C7.72372 16.8079 7.42722 16.5412 7.20742 16.2154L6.51326 15.1623C6.21731 14.7156 6.03053 14.2056 5.96801 13.6735L5.6783 11.0783C5.6579 10.8941 5.70543 10.7087 5.81195 10.557C5.91848 10.4053 6.07669 10.2977 6.25691 10.2543L7.32381 10.0173V11.1031C7.32381 11.2136 7.3677 11.3196 7.44584 11.3978C7.52398 11.4759 7.62997 11.5198 7.74047 11.5198C7.85098 11.5198 7.95696 11.4759 8.0351 11.3978C8.11324 11.3196 8.15714 11.2136 8.15714 11.1031V3.54489C8.15775 3.30513 8.25339 3.0754 8.42309 2.90605C8.5928 2.73669 8.82273 2.64153 9.06249 2.64142C9.30224 2.64131 9.53226 2.73626 9.70212 2.90546C9.87198 3.07466 9.96783 3.3043 9.96866 3.54405L9.97517 9.96862C9.97523 10.0791 10.0192 10.1851 10.0974 10.2632C10.1755 10.3413 10.2815 10.3851 10.392 10.3851C10.5026 10.385 10.6085 10.3411 10.6866 10.2629C10.7647 10.1847 10.8086 10.0787 10.8085 9.96821V7.24079H11.9226C12.0812 7.24116 12.2332 7.30426 12.3454 7.41634C12.4577 7.52841 12.521 7.68034 12.5216 7.83894C12.5216 8.24584 12.5224 8.55915 12.5273 8.80044C12.5273 8.83747 12.5264 8.8745 12.5264 8.91153L12.5248 9.17642L12.5313 9.17683C12.5313 9.37336 12.5321 9.63256 12.5321 9.96866C12.5321 10.0234 12.5429 10.0775 12.5638 10.1281C12.5847 10.1786 12.6154 10.2245 12.6541 10.2632C12.6928 10.3018 12.7388 10.3325 12.7893 10.3534C12.8399 10.3743 12.8941 10.385 12.9488 10.3849H12.9496C12.9722 10.3823 12.9946 10.3778 13.0164 10.3713C13.113 10.3566 13.2012 10.3079 13.2652 10.2341C13.3291 10.1602 13.3647 10.066 13.3655 9.96825V8.30848H14.4421C14.6008 8.30886 14.7528 8.37203 14.8651 8.48419C14.9773 8.59634 15.0406 8.74836 15.0411 8.90703L15.0413 9.26912V9.27151L15.0427 11.0652C15.0427 11.1199 15.0535 11.1741 15.0745 11.2246C15.0954 11.2751 15.1261 11.321 15.1648 11.3597C15.2035 11.3983 15.2494 11.429 15.3 11.4499C15.3505 11.4708 15.4047 11.4815 15.4594 11.4815H15.4602C15.5706 11.4812 15.6764 11.4371 15.7543 11.3589C15.8323 11.2807 15.876 11.1748 15.876 11.0644L15.8749 9.53899C16.0263 9.47617 16.1898 9.44773 16.3535 9.45575C16.5173 9.46376 16.6772 9.50802 16.8217 9.58534C17.0142 9.70961 17.1667 9.88678 17.261 10.0956C17.3552 10.3044 17.3872 10.536 17.3531 10.7625L17.0723 13.1404Z" fill="#171723"/>
<path d="M6.00081 2.22209C6.00085 2.16736 5.99009 2.11316 5.96916 2.0626C5.94823 2.01203 5.91754 1.96609 5.87885 1.92739C5.84015 1.88869 5.7942 1.858 5.74364 1.83707C5.69307 1.81614 5.63887 1.80539 5.58415 1.80542H2.22233C2.11182 1.80542 2.00584 1.84932 1.9277 1.92746C1.84956 2.0056 1.80566 2.11158 1.80566 2.22209C1.80566 2.33259 1.84956 2.43857 1.9277 2.51671C2.00584 2.59485 2.11182 2.63875 2.22233 2.63875H5.58415C5.63887 2.63878 5.69307 2.62803 5.74363 2.6071C5.7942 2.58617 5.84015 2.55548 5.87884 2.51678C5.91754 2.47809 5.94823 2.43214 5.96916 2.38157C5.99009 2.33101 6.00084 2.27681 6.00081 2.22209Z" fill="#171723"/>
</g>
<defs>
<clipPath id="clip0_5313_35172">
<rect width="20" height="20" fill="white"/>
</clipPath>
</defs>
</svg>
