<svg width="20" height="20" viewBox="0 0 20 20" fill="none" xmlns="http://www.w3.org/2000/svg">
<path d="M9.99984 17.0831C8.59889 17.0831 7.2294 16.6676 6.06455 15.8893C4.8997 15.111 3.99181 14.0047 3.45569 12.7104C2.91957 11.4161 2.7793 9.99186 3.05261 8.61783C3.32592 7.2438 4.00055 5.98167 4.99117 4.99105C5.98179 4.00042 7.24392 3.3258 8.61795 3.05249C9.99198 2.77918 11.4162 2.91945 12.7105 3.45557C14.0048 3.99169 15.1111 4.89958 15.8894 6.06443C16.6677 7.22928 17.0832 8.59877 17.0832 9.99972C17.0809 11.8776 16.3339 13.678 15.006 15.0059C13.6781 16.3338 11.8778 17.0808 9.99984 17.0831ZM9.99984 3.74972C8.76371 3.74972 7.55533 4.11627 6.52753 4.80303C5.49972 5.48979 4.69864 6.46591 4.22559 7.60795C3.75255 8.74999 3.62877 10.0067 3.86993 11.219C4.11109 12.4314 4.70634 13.5451 5.58042 14.4191C6.4545 15.2932 7.56814 15.8885 8.78053 16.1296C9.99291 16.3708 11.2496 16.247 12.3916 15.774C13.5336 15.3009 14.5098 14.4998 15.1965 13.472C15.8833 12.4442 16.2498 11.2359 16.2498 9.99972C16.248 8.34267 15.589 6.75401 14.4173 5.5823C13.2455 4.41059 11.6569 3.75153 9.99984 3.74972Z" fill="#171723"/>
<path d="M9.99984 13.3333C10.4601 13.3333 10.8332 12.9602 10.8332 12.5C10.8332 12.0397 10.4601 11.6666 9.99984 11.6666C9.5396 11.6666 9.1665 12.0397 9.1665 12.5C9.1665 12.9602 9.5396 13.3333 9.99984 13.3333Z" fill="#171723"/>
<path d="M9.99967 10.8078C9.90391 10.8078 9.80909 10.789 9.72061 10.7523C9.63213 10.7157 9.55174 10.662 9.48403 10.5943C9.41632 10.5266 9.36261 10.4462 9.32597 10.3577C9.28933 10.2692 9.27049 10.1744 9.27051 10.0786V7.1652C9.27051 6.97182 9.34733 6.78635 9.48408 6.6496C9.62082 6.51286 9.80629 6.43604 9.99967 6.43604C10.1931 6.43604 10.3785 6.51286 10.5153 6.6496C10.652 6.78635 10.7288 6.97182 10.7288 7.1652V10.0786C10.7289 10.1744 10.71 10.2692 10.6734 10.3577C10.6367 10.4462 10.583 10.5266 10.5153 10.5943C10.4476 10.662 10.3672 10.7157 10.2787 10.7523C10.1903 10.789 10.0954 10.8078 9.99967 10.8078Z" fill="#171723"/>
</svg>
