<svg width="20" height="20" viewBox="0 0 20 20" fill="none" xmlns="http://www.w3.org/2000/svg">
<g clip-path="url(#clip0_10317_147175)">
<path d="M16.4891 10.5292C16.4183 10.4599 16.3626 10.3768 16.3254 10.285C16.2881 10.1933 16.2701 10.0948 16.2725 9.99585C16.271 9.89944 16.2894 9.80376 16.3267 9.71484C16.3639 9.62591 16.4192 9.54567 16.4891 9.47919L17.5391 8.47085C17.7304 8.2905 17.8552 8.05071 17.893 7.79049C17.9308 7.53026 17.8795 7.26489 17.7474 7.03752L16.4475 4.77919C16.318 4.54839 16.1135 4.36882 15.8679 4.27029C15.6223 4.17176 15.3504 4.16019 15.0974 4.23752L13.7058 4.64585C13.6101 4.6746 13.5094 4.68278 13.4103 4.66985C13.3112 4.65693 13.2159 4.62319 13.1308 4.57085C13.0482 4.52171 12.9761 4.45661 12.9189 4.37936C12.8616 4.3021 12.8203 4.21423 12.7974 4.12085L12.4474 2.70419C12.388 2.4466 12.2425 2.21699 12.0349 2.05334C11.8273 1.88969 11.5701 1.80179 11.3058 1.80419H8.69743C8.43373 1.80431 8.17775 1.89314 7.97067 2.05639C7.76358 2.21964 7.61744 2.44781 7.55576 2.70419L7.21409 4.12085C7.19105 4.21527 7.14883 4.30394 7.09006 4.38135C7.0313 4.45877 6.95725 4.52327 6.8725 4.57085C6.78928 4.62042 6.69659 4.65197 6.60041 4.66345C6.50423 4.67493 6.40672 4.6661 6.31417 4.63752L4.90579 4.22919C4.65357 4.15381 4.38333 4.16541 4.1385 4.26214C3.89368 4.35887 3.68848 4.53511 3.55589 4.76252L2.25578 7.02919C2.12237 7.25558 2.06951 7.52047 2.10583 7.78073C2.14214 8.04099 2.26549 8.2813 2.45578 8.46252L3.50578 9.47085C3.5769 9.53856 3.63352 9.62 3.67221 9.71025C3.7109 9.8005 3.73084 9.89766 3.73084 9.99585C3.73084 10.094 3.7109 10.1912 3.67221 10.2815C3.63352 10.3717 3.5769 10.4531 3.50578 10.5209L2.45578 11.5209C2.26512 11.7036 2.14167 11.9453 2.10538 12.2069C2.06908 12.4686 2.12207 12.7348 2.25578 12.9625L3.55583 15.2209C3.68902 15.45 3.89522 15.628 4.14144 15.7262C4.38767 15.8244 4.65971 15.8372 4.91407 15.7625L6.2974 15.3459C6.4888 15.2951 6.69251 15.322 6.86412 15.4209C6.9494 15.4678 7.02387 15.532 7.08272 15.6096C7.14156 15.6871 7.18347 15.7761 7.20571 15.8709L7.54738 17.2959C7.60938 17.5521 7.75561 17.78 7.96262 17.9432C8.16964 18.1064 8.42544 18.1954 8.68904 18.1959H11.3057C11.5696 18.1966 11.8261 18.1082 12.0333 17.9448C12.2406 17.7814 12.3865 17.5527 12.4474 17.2959L12.7973 15.8792C12.818 15.7849 12.8584 15.696 12.9158 15.6185C12.9733 15.5409 13.0466 15.4764 13.1308 15.4292C13.2142 15.3803 13.3065 15.3485 13.4024 15.3356C13.4982 15.3227 13.5957 15.329 13.689 15.3542L15.089 15.7709C15.3421 15.8454 15.6131 15.8326 15.858 15.7343C16.103 15.636 16.3077 15.4581 16.4391 15.2292L17.7474 12.9709C17.8798 12.7421 17.9312 12.4754 17.8934 12.2139C17.8556 11.9523 17.7308 11.7111 17.539 11.5292L16.4891 10.5292ZM12.6474 11.2542L9.88069 12.7959C9.66437 12.9083 9.42461 12.9683 9.18082 12.9709C8.91693 12.9677 8.65841 12.8959 8.43069 12.7625C8.21247 12.6273 8.0327 12.4383 7.90867 12.2135C7.78464 11.9888 7.72052 11.7359 7.72249 11.4792V8.51252C7.7216 8.25716 7.78625 8.00585 7.91024 7.78262C8.03424 7.55939 8.21343 7.37171 8.43069 7.23752C8.64377 7.10705 8.88696 7.03388 9.13665 7.02512C9.38635 7.01636 9.63406 7.0723 9.85576 7.18752L12.6474 8.74585C12.8699 8.87106 13.0551 9.05321 13.184 9.2736C13.3128 9.494 13.3808 9.74471 13.3808 10C13.3808 10.2553 13.3128 10.506 13.184 10.7264C13.0551 10.9468 12.8699 11.129 12.6474 11.2542H12.6474Z" fill="#171723"/>
</g>
<defs>
<clipPath id="clip0_10317_147175">
<rect width="20" height="20" fill="white"/>
</clipPath>
</defs>
</svg>
