<svg width="20" height="20" viewBox="0 0 20 20" fill="none" xmlns="http://www.w3.org/2000/svg">
<g clip-path="url(#clip0_10317_147141)">
<path d="M17.6984 9.02836C16.7201 8.54186 15.8154 7.91954 15.0112 7.17986C14.978 7.14996 14.9538 7.1113 14.9415 7.06831C14.9292 7.02532 14.9293 6.97973 14.9417 6.93677C15.3415 5.42631 15.6378 3.89034 15.8286 2.33955C15.8606 2.08311 15.6577 2.08853 15.5748 2.18461C12.8394 5.45425 8.20752 1.93621 5.21037 4.27086C5.21037 4.27086 5.2166 4.32951 5.21572 4.35901C5.21601 4.62887 5.15243 4.89497 5.03017 5.13556C4.9961 5.19971 4.98758 5.27438 5.00631 5.34456L5.07147 5.57443C5.64222 7.62558 6.2154 9.67752 6.79102 11.7303C6.79965 11.7607 6.81588 11.7885 6.8382 11.811C6.86051 11.8335 6.88818 11.8499 6.91859 11.8588C6.949 11.8676 6.98116 11.8686 7.01205 11.8616C7.04294 11.8546 7.07155 11.8399 7.09518 11.8188C10.0842 9.18722 14.8485 12.9197 17.6396 9.57863C17.8076 9.31039 17.816 9.07914 17.6984 9.02836Z" fill="#171723"/>
<path d="M3.42288 5.86364C3.66035 5.86364 3.8925 5.79322 4.08995 5.66128C4.28741 5.52935 4.44131 5.34182 4.53219 5.12242C4.62306 4.90302 4.64684 4.6616 4.60051 4.42868C4.55418 4.19577 4.43983 3.98182 4.27191 3.8139C4.10398 3.64598 3.89004 3.53162 3.65712 3.48529C3.42421 3.43896 3.18279 3.46274 2.96339 3.55362C2.74398 3.6445 2.55646 3.7984 2.42452 3.99585C2.29259 4.19331 2.22217 4.42545 2.22217 4.66293C2.22217 4.82061 2.25323 4.97674 2.31357 5.12242C2.37391 5.2681 2.46235 5.40046 2.57385 5.51196C2.79902 5.73713 3.10443 5.86364 3.42288 5.86364Z" fill="#171723"/>
<path d="M7.07474 17.8763C6.98417 17.8762 6.8961 17.8466 6.82385 17.7919C6.75161 17.7373 6.69913 17.6606 6.67435 17.5735L3.61527 6.85331C3.60017 6.80069 3.5956 6.74561 3.60181 6.69122C3.60803 6.63683 3.62491 6.5842 3.6515 6.53634C3.67808 6.48848 3.71385 6.44634 3.75674 6.41232C3.79963 6.37831 3.84882 6.35308 3.90147 6.3381C3.95413 6.32312 4.00922 6.31867 4.0636 6.325C4.11797 6.33134 4.17057 6.34834 4.21836 6.37503C4.26616 6.40172 4.30822 6.43758 4.34215 6.48055C4.37607 6.52352 4.40118 6.57276 4.41605 6.62545L7.47513 17.3457C7.49015 17.3982 7.49466 17.4533 7.48838 17.5076C7.48211 17.5619 7.46519 17.6145 7.43858 17.6622C7.41197 17.71 7.3762 17.7521 7.33332 17.786C7.29044 17.8199 7.24128 17.8451 7.18867 17.86C7.1517 17.871 7.11331 17.8765 7.07474 17.8763Z" fill="#171723"/>
</g>
<defs>
<clipPath id="clip0_10317_147141">
<rect width="20" height="20" fill="white"/>
</clipPath>
</defs>
</svg>
