<svg width="20" height="20" viewBox="0 0 20 20" fill="none" xmlns="http://www.w3.org/2000/svg">
<g clip-path="url(#clip0_10314_146184)">
<path d="M9.9948 11.5243C10.8338 11.5243 11.514 10.8441 11.514 10.0051C11.514 9.16602 10.8338 8.48584 9.9948 8.48584C9.15576 8.48584 8.47559 9.16602 8.47559 10.0051C8.47559 10.8441 9.15576 11.5243 9.9948 11.5243Z" fill="#171723"/>
<path d="M17.7733 9.58863H17.294C17.1902 7.7971 16.4318 6.10615 15.1629 4.83719C13.894 3.56822 12.2031 2.80971 10.4116 2.70584V2.22697C10.4116 2.11646 10.3677 2.01048 10.2896 1.93234C10.2114 1.8542 10.1055 1.8103 9.99496 1.8103C9.88445 1.8103 9.77847 1.8542 9.70033 1.93234C9.62219 2.01048 9.57829 2.11646 9.57829 2.22697V2.70584C7.78677 2.80972 6.09587 3.56823 4.82698 4.83719C3.5581 6.10615 2.79969 7.7971 2.69591 9.58862H2.22721C2.11671 9.58862 2.01073 9.63252 1.93259 9.71066C1.85445 9.7888 1.81055 9.89478 1.81055 10.0053C1.81055 10.1158 1.85445 10.2218 1.93259 10.2999C2.01073 10.3781 2.11671 10.422 2.22721 10.422H2.69591C2.7998 12.2134 3.55826 13.9042 4.82715 15.173C6.09603 16.4418 7.78687 17.2001 9.57829 17.3039V17.7726C9.57829 17.8831 9.62219 17.9891 9.70033 18.0672C9.77847 18.1454 9.88445 18.1893 9.99496 18.1893C10.1055 18.1893 10.2114 18.1454 10.2896 18.0672C10.3677 17.9891 10.4116 17.8831 10.4116 17.7726V17.3039C12.203 17.2001 13.8939 16.4418 15.1628 15.173C16.4317 13.9042 17.1901 12.2134 17.294 10.422H17.7733C17.8838 10.422 17.9898 10.3781 18.0679 10.2999C18.146 10.2218 18.1899 10.1158 18.1899 10.0053C18.1899 9.89478 18.146 9.7888 18.0679 9.71066C17.9898 9.63252 17.8838 9.58862 17.7733 9.58862V9.58863ZM10.4116 16.4706V16.0441C10.4116 15.9336 10.3677 15.8276 10.2896 15.7495C10.2114 15.6713 10.1055 15.6274 9.99495 15.6274C9.88444 15.6274 9.77846 15.6713 9.70032 15.7495C9.62218 15.8276 9.57828 15.9336 9.57828 16.0441V16.4706C8.00779 16.3679 6.52822 15.6976 5.41531 14.5848C4.3024 13.472 3.63207 11.9924 3.52924 10.422H3.95572C4.06623 10.422 4.17221 10.3781 4.25035 10.2999C4.32849 10.2218 4.37239 10.1158 4.37239 10.0053C4.37239 9.89479 4.32849 9.78881 4.25035 9.71067C4.17221 9.63253 4.06623 9.58863 3.95572 9.58863H3.52925C3.63191 8.01801 4.30217 6.53831 5.4151 5.42531C6.52802 4.31231 8.00768 3.64195 9.57829 3.53917V3.95548C9.57829 4.06598 9.62219 4.17197 9.70033 4.25011C9.77847 4.32825 9.88445 4.37214 9.99496 4.37214C10.1055 4.37214 10.2114 4.32825 10.2896 4.25011C10.3677 4.17197 10.4116 4.06598 10.4116 3.95548V3.53917C11.9822 3.64195 13.4619 4.3123 14.5748 5.4253C15.6877 6.5383 16.358 8.01801 16.4607 9.58862H16.0448C15.9343 9.58862 15.8283 9.63252 15.7501 9.71066C15.672 9.7888 15.6281 9.89478 15.6281 10.0053C15.6281 10.1158 15.672 10.2218 15.7501 10.2999C15.8283 10.3781 15.9343 10.422 16.0448 10.422H16.4607C16.3578 11.9924 15.6875 13.472 14.5746 14.5848C13.4617 15.6976 11.9821 16.3679 10.4116 16.4706H10.4116Z" fill="#171723"/>
</g>
<defs>
<clipPath id="clip0_10314_146184">
<rect width="20" height="20" fill="white"/>
</clipPath>
</defs>
</svg>
