<svg width="20" height="20" viewBox="0 0 20 20" fill="none" xmlns="http://www.w3.org/2000/svg">
<path fill-rule="evenodd" clip-rule="evenodd" d="M11.5531 8.06481H8.44677C8.20602 8.06443 7.97524 7.96863 7.805 7.79839C7.63476 7.62816 7.53895 7.39737 7.53857 7.15662V6.80662C7.53898 6.46354 7.61091 6.12431 7.74977 5.81059C7.88863 5.49687 8.09137 5.21554 8.34505 4.98456C8.48165 4.86168 8.63174 4.75468 8.79244 4.66561C8.56033 4.42753 8.40374 4.12619 8.34233 3.79941C8.28092 3.47264 8.31742 3.135 8.44727 2.8289C8.57711 2.52281 8.79449 2.2619 9.07212 2.07894C9.34976 1.89598 9.67525 1.79913 10.0077 1.80055C10.3402 1.80197 10.6649 1.9016 10.941 2.08692C11.217 2.27224 11.4322 2.535 11.5594 2.8422C11.6866 3.14939 11.7202 3.48732 11.656 3.81356C11.5918 4.1398 11.4327 4.4398 11.1985 4.67588C11.5833 4.90446 11.9021 5.22918 12.1234 5.61816C12.3448 6.00714 12.4612 6.447 12.4613 6.89456V7.15662C12.4609 7.39737 12.3651 7.62816 12.1948 7.79839C12.0246 7.96863 11.7938 8.06443 11.5531 8.06481ZM10.4733 2.78292C10.3331 2.68921 10.1682 2.63919 9.99951 2.63919C9.77344 2.63959 9.55674 2.72958 9.39689 2.88943C9.23703 3.04928 9.14705 3.26598 9.14664 3.49205C9.14664 3.66073 9.19666 3.82562 9.29037 3.96588C9.38408 4.10613 9.51728 4.21545 9.67312 4.28C9.82896 4.34455 10.0004 4.36144 10.1659 4.32853C10.3313 4.29563 10.4833 4.2144 10.6026 4.09513C10.7218 3.97585 10.8031 3.82388 10.836 3.65844C10.8689 3.493 10.852 3.32152 10.7875 3.16568C10.7229 3.00984 10.6136 2.87664 10.4733 2.78292ZM8.51166 6.14767C8.41973 6.3552 8.37213 6.57964 8.37191 6.80662V7.15662C8.37174 7.1665 8.37357 7.17631 8.37727 7.18546C8.38098 7.19462 8.38649 7.20294 8.39347 7.20992C8.40046 7.21691 8.40877 7.22242 8.41793 7.22612C8.42709 7.22983 8.4369 7.23165 8.44677 7.23149H11.5531C11.5629 7.23165 11.5727 7.22983 11.5819 7.22612C11.5911 7.22242 11.5994 7.21691 11.6064 7.20992C11.6133 7.20294 11.6189 7.19462 11.6226 7.18546C11.6263 7.17631 11.6281 7.1665 11.6279 7.15662V6.8946C11.6363 6.47937 11.4914 6.07561 11.2209 5.76049C10.9503 5.44537 10.5732 5.241 10.1615 5.18643C10.1074 5.1809 10.0531 5.17818 9.9987 5.17829C9.59413 5.17681 9.20388 5.32788 8.90576 5.60138C8.73781 5.75407 8.60358 5.94014 8.51166 6.14767ZM6.12936 13.3868C6.06503 13.7132 5.90569 14.0132 5.67136 14.2493C6.05604 14.4778 6.37469 14.8025 6.59603 15.1913C6.81737 15.5802 6.93381 16.0199 6.93391 16.4673V16.7302C6.93354 16.9709 6.83773 17.2017 6.66749 17.372C6.49725 17.5422 6.26647 17.638 6.02571 17.6384H2.91944C2.67868 17.638 2.44789 17.5422 2.27765 17.372C2.10741 17.2017 2.01161 16.9709 2.01123 16.7302V16.3794C2.01159 16.0365 2.08342 15.6975 2.22213 15.3839C2.36085 15.0703 2.56342 14.7891 2.8169 14.5581C2.95392 14.4351 3.10451 14.328 3.26576 14.2391C3.03345 14.001 2.87667 13.6996 2.81512 13.3727C2.75356 13.0458 2.78999 12.708 2.91981 12.4018C3.04963 12.0955 3.26706 11.8345 3.54478 11.6514C3.82251 11.4683 4.14814 11.3714 4.48077 11.3728C4.8134 11.3742 5.1382 11.4739 5.41435 11.6593C5.69051 11.8448 5.90571 12.1077 6.03293 12.415C6.16014 12.7224 6.19369 13.0604 6.12936 13.3868ZM4.94697 12.356C4.8067 12.2621 4.64175 12.212 4.47299 12.2119C4.24672 12.2119 4.02971 12.3018 3.86963 12.4617C3.70956 12.6216 3.61952 12.8385 3.61931 13.0648C3.61922 13.2336 3.66919 13.3986 3.76288 13.5389C3.85657 13.6793 3.98978 13.7887 4.14567 13.8534C4.30155 13.918 4.47311 13.935 4.63865 13.9022C4.80418 13.8693 4.95626 13.7881 5.07565 13.6689C5.19504 13.5496 5.27638 13.3976 5.30938 13.2321C5.34238 13.0666 5.32557 12.895 5.26106 12.7391C5.19655 12.5831 5.08725 12.4498 4.94697 12.356ZM6.09522 16.759C6.09893 16.7499 6.10075 16.7401 6.10059 16.7302V16.4673C6.10914 16.0523 5.96436 15.6486 5.69395 15.3336C5.42354 15.0186 5.04649 14.8144 4.63493 14.76C4.58058 14.7544 4.52598 14.7517 4.47136 14.7518C4.06656 14.7505 3.6761 14.9016 3.37761 15.175C3.20999 15.3277 3.07603 15.5137 2.98426 15.7211C2.89248 15.9285 2.84491 16.1527 2.84456 16.3794V16.7302C2.84454 16.74 2.84646 16.7498 2.85021 16.7589C2.85397 16.768 2.85948 16.7762 2.86644 16.7832C2.8734 16.7901 2.88166 16.7956 2.89076 16.7994C2.89985 16.8032 2.9096 16.8051 2.91944 16.805H6.02572C6.0356 16.8052 6.04541 16.8034 6.05456 16.7997C6.06372 16.796 6.07204 16.7905 6.07902 16.7835C6.08601 16.7765 6.09152 16.7682 6.09522 16.759ZM16.7254 14.2491C16.9595 14.0131 17.1187 13.7131 17.1829 13.3869C17.2471 13.0607 17.2134 12.7227 17.0862 12.4156C16.959 12.1084 16.7438 11.8457 16.4678 11.6604C16.1917 11.4751 15.8671 11.3755 15.5346 11.3742C15.2021 11.3728 14.8767 11.4697 14.5991 11.6527C14.3215 11.8357 14.1042 12.0966 13.9744 12.4027C13.8447 12.7089 13.8083 13.0465 13.8698 13.3732C13.9313 13.7 14.088 14.0012 14.3201 14.2392C14.159 14.3282 14.0085 14.4352 13.8716 14.5582C13.6181 14.7891 13.4155 15.0703 13.2768 15.3839C13.1381 15.6975 13.0663 16.0366 13.0659 16.3795V16.7302C13.0663 16.971 13.1621 17.2017 13.3323 17.372C13.5026 17.5422 13.7334 17.638 13.9741 17.6384H17.0804C17.3212 17.638 17.5519 17.5422 17.7222 17.372C17.8924 17.2017 17.9882 16.971 17.9886 16.7302V16.4673C17.9885 16.0198 17.872 15.58 17.6505 15.1911C17.4291 14.8022 17.1102 14.4776 16.7254 14.2491ZM15.5269 12.212C15.6956 12.2119 15.8607 12.2619 16.0011 12.3556C16.1414 12.4493 16.2509 12.5826 16.3155 12.7385C16.3801 12.8944 16.3971 13.066 16.3642 13.2316C16.3313 13.3972 16.25 13.5492 16.1306 13.6686C16.0113 13.788 15.8592 13.8692 15.6936 13.9021C15.5281 13.9351 15.3565 13.9181 15.2005 13.8535C15.0446 13.7889 14.9114 13.6794 14.8176 13.539C14.7239 13.3987 14.6739 13.2336 14.674 13.0648C14.6742 12.8387 14.7641 12.6219 14.924 12.462C15.0839 12.3021 15.3007 12.2122 15.5269 12.2119V12.212ZM17.1553 16.7302C17.1553 16.74 17.1534 16.7498 17.1496 16.7589C17.1459 16.768 17.1404 16.7762 17.1334 16.7832C17.1264 16.7902 17.1182 16.7957 17.1091 16.7994C17.1 16.8032 17.0902 16.8051 17.0804 16.8051H13.9741C13.9642 16.8052 13.9544 16.8034 13.9453 16.7997C13.9361 16.796 13.9278 16.7905 13.9208 16.7835C13.9138 16.7765 13.9083 16.7682 13.9046 16.759C13.9009 16.7499 13.8991 16.7401 13.8993 16.7302V16.3795C13.8995 16.1527 13.9471 15.9284 14.0388 15.7211C14.1306 15.5137 14.2646 15.3277 14.4323 15.175C14.7304 14.9015 15.1207 14.7504 15.5252 14.7518C15.5799 14.7517 15.6345 14.7544 15.6888 14.76C16.1004 14.8144 16.4776 15.0186 16.7482 15.3336C17.0187 15.6485 17.1636 16.0522 17.1553 16.4673V16.7302ZM7.80631 16.9491C9.21562 17.496 10.7785 17.496 12.1878 16.9491H12.1879C12.2901 16.9096 12.4037 16.9119 12.5042 16.9555C12.6047 16.9991 12.684 17.0806 12.7249 17.1823C12.7657 17.2839 12.7649 17.3976 12.7226 17.4986C12.6803 17.5997 12.5999 17.68 12.4987 17.7222C10.8904 18.3516 9.10386 18.3516 7.49547 17.7222C7.39436 17.68 7.31393 17.5997 7.2716 17.4986C7.22928 17.3976 7.22846 17.2839 7.26933 17.1823C7.31021 17.0806 7.38948 16.9991 7.48998 16.9555C7.59048 16.9119 7.70413 16.9096 7.80631 16.9491ZM16.012 10.7552C16.0211 10.8588 16.0687 10.9553 16.1454 11.0256C16.222 11.096 16.3222 11.1351 16.4262 11.1353C16.4372 11.1353 16.4482 11.1346 16.4598 11.1339L16.4637 11.1336C16.5737 11.1239 16.6754 11.0708 16.7464 10.9861C16.8173 10.9014 16.8518 10.792 16.8421 10.682C16.7433 9.55198 16.3636 8.46464 15.7373 7.51889C15.1111 6.57314 14.2583 5.79901 13.2565 5.26697C13.1592 5.2151 13.0453 5.20394 12.9397 5.23593C12.8342 5.26791 12.7457 5.34044 12.6935 5.4376C12.6414 5.53477 12.6299 5.64864 12.6616 5.75426C12.6933 5.85987 12.7656 5.94861 12.8626 6.00102C13.7423 6.46809 14.4912 7.1477 15.0413 7.97803C15.5913 8.80835 15.925 9.76303 16.012 10.7552ZM7.04393 5.23436C7.14994 5.26562 7.23923 5.33762 7.29227 5.43458C7.34492 5.53174 7.35693 5.64581 7.32567 5.75181C7.2944 5.85781 7.22242 5.9471 7.12547 6.00015C6.25155 6.4746 5.50772 7.15668 4.9595 7.98632C4.41129 8.81595 4.07551 9.76768 3.98176 10.7577C3.97201 10.8608 3.92418 10.9567 3.8476 11.0265C3.77101 11.0963 3.67116 11.1351 3.56753 11.1353C3.5537 11.1353 3.54068 11.1345 3.52766 11.1336C3.41765 11.1231 3.3163 11.0694 3.24582 10.9843C3.17534 10.8992 3.14149 10.7896 3.15168 10.6795C3.25829 9.55353 3.64011 8.47101 4.26352 7.52729C4.88693 6.58358 5.73282 5.80762 6.72668 5.26774C6.82385 5.21509 6.93793 5.20309 7.04393 5.23436Z" fill="#171723"/>
</svg>
