<svg width="20" height="20" viewBox="0 0 20 20" fill="none" xmlns="http://www.w3.org/2000/svg">
<path d="M9.99984 2.91663C8.59889 2.91663 7.2294 3.33206 6.06455 4.11038C4.8997 4.88871 3.99181 5.99497 3.45569 7.28928C2.91957 8.58359 2.7793 10.0078 3.05261 11.3818C3.32592 12.7559 4.00055 14.018 4.99117 15.0086C5.98179 15.9993 7.24392 16.6739 8.61795 16.9472C9.99198 17.2205 11.4162 17.0802 12.7105 16.5441C14.0048 16.008 15.1111 15.1001 15.8894 13.9352C16.6677 12.7704 17.0832 11.4009 17.0832 9.99996C17.0805 8.12216 16.3334 6.32203 15.0056 4.99422C13.6778 3.66642 11.8776 2.91928 9.99984 2.91663ZM10.7248 12.7583C10.7248 12.9517 10.648 13.1371 10.5113 13.2739C10.3745 13.4106 10.1891 13.4875 9.99567 13.4875C9.80229 13.4875 9.61682 13.4106 9.48007 13.2739C9.34333 13.1371 9.26651 12.9517 9.26651 12.7583V9.84163C9.26651 9.64824 9.34333 9.46277 9.48007 9.32603C9.61682 9.18928 9.80229 9.11246 9.99567 9.11246C10.1891 9.11246 10.3745 9.18928 10.5113 9.32603C10.648 9.46277 10.7248 9.64824 10.7248 9.84163V12.7583ZM9.99984 8.25829C9.83502 8.25829 9.67391 8.20942 9.53686 8.11785C9.39982 8.02628 9.29301 7.89613 9.22994 7.74386C9.16687 7.59159 9.15036 7.42403 9.18252 7.26238C9.21467 7.10073 9.29404 6.95225 9.41058 6.8357C9.52713 6.71916 9.67561 6.63979 9.83727 6.60764C9.99892 6.57548 10.1665 6.59199 10.3187 6.65506C10.471 6.71813 10.6012 6.82494 10.6927 6.96198C10.7843 7.09903 10.8332 7.26014 10.8332 7.42496C10.8336 7.5345 10.8123 7.64304 10.7705 7.74431C10.7288 7.84559 10.6674 7.93761 10.5899 8.01506C10.5125 8.09252 10.4205 8.15389 10.3192 8.19564C10.2179 8.23738 10.1094 8.25867 9.99984 8.25829Z" fill="#171723"/>
</svg>
