<svg width="20" height="20" viewBox="0 0 20 20" fill="none" xmlns="http://www.w3.org/2000/svg">
<g clip-path="url(#clip0_10314_145061)">
<path d="M16.1728 5.08198C15.9043 4.91803 15.5978 4.82673 15.2833 4.81703C14.9689 4.80732 14.6573 4.87956 14.3792 5.02663L8.27326 8.44623C7.99683 8.60106 7.76667 8.82677 7.60647 9.10012C7.44626 9.37347 7.36182 9.68457 7.36182 10.0014C7.36182 10.3182 7.44626 10.6294 7.60647 10.9027C7.76667 11.176 7.99683 11.4018 8.27326 11.5566L14.3914 14.9786C14.6684 15.1232 14.9781 15.1935 15.2903 15.1826C15.6025 15.1718 15.9066 15.0802 16.1728 14.9168C16.4536 14.7454 16.6851 14.5042 16.8447 14.2166C17.0043 13.9291 17.0866 13.605 17.0835 13.2761V6.7226C17.0866 6.39372 17.0043 6.06967 16.8447 5.78211C16.6851 5.49455 16.4536 5.25331 16.1728 5.08198Z" fill="#171723"/>
<path d="M4.44484 8.47144C4.14264 8.47135 3.84721 8.56088 3.5959 8.7287C3.34459 8.89653 3.14869 9.1351 3.03297 9.41426C2.91725 9.69342 2.88691 10.0006 2.94578 10.297C3.00466 10.5934 3.1501 10.8657 3.36373 11.0795C3.57735 11.2932 3.84956 11.4388 4.14593 11.4978C4.4423 11.5569 4.74952 11.5267 5.02874 11.4111C5.30797 11.2956 5.54665 11.0998 5.71461 10.8486C5.88256 10.5973 5.97225 10.302 5.97234 9.99977C5.97201 9.59467 5.811 9.20625 5.52464 8.91973C5.23827 8.6332 4.84993 8.47198 4.44484 8.47144Z" fill="#171723"/>
</g>
<defs>
<clipPath id="clip0_10314_145061">
<rect width="20" height="20" fill="white"/>
</clipPath>
</defs>
</svg>
