<svg width="24" height="24" viewBox="0 0 24 24" fill="none" xmlns="http://www.w3.org/2000/svg">
<path d="M12.0002 21.3333C13.7885 21.3333 15.5366 20.803 17.0235 19.8095C18.5104 18.816 19.6693 17.4039 20.3536 15.7517C21.038 14.0996 21.217 12.2816 20.8681 10.5277C20.5193 8.77377 19.6581 7.16269 18.3936 5.89819C17.1291 4.63369 15.518 3.77255 13.7641 3.42368C12.0102 3.0748 10.1922 3.25386 8.54007 3.9382C6.88792 4.62255 5.4758 5.78145 4.48229 7.26835C3.48878 8.75525 2.95849 10.5034 2.9585 12.2916C2.9585 14.6896 3.91111 16.9894 5.60675 18.6851C7.3024 20.3807 9.60218 21.3333 12.0002 21.3333Z" fill="#E7EFFF"/>
<path d="M18.1686 18.9009C16.4944 20.4632 14.2898 21.3321 11.9998 21.3321C9.70989 21.3321 7.50525 20.4632 5.83105 18.9009C6.03005 18.5342 6.3366 18.2372 6.70944 18.05C7.08228 17.8628 7.50353 17.7943 7.91647 17.8538C7.91338 17.6358 7.95919 17.4199 8.05055 17.2219C8.14191 17.024 8.27649 16.849 8.44438 16.71C8.61228 16.5709 8.80922 16.4712 9.02071 16.4183C9.2322 16.3654 9.45287 16.3606 9.66647 16.4042V14.0417H14.3331V16.4042C14.5451 16.3609 14.7639 16.3654 14.9739 16.4171C15.1839 16.4689 15.3797 16.5667 15.5473 16.7035C15.7148 16.8403 15.8498 17.0127 15.9424 17.2081C16.0351 17.4035 16.0832 17.6171 16.0831 17.8334C16.0831 17.88 16.0598 17.8334 16.3748 17.8334C16.7422 17.8335 17.1027 17.9327 17.4184 18.1205C17.7341 18.3084 17.9933 18.578 18.1686 18.9009H18.1686Z" fill="#7F96D1"/>
<path d="M7.3335 13.12V15.5C7.33349 15.5383 7.34104 15.5762 7.35569 15.6116C7.37035 15.647 7.39183 15.6791 7.41892 15.7062C7.446 15.7333 7.47816 15.7548 7.51355 15.7695C7.54893 15.7841 7.58686 15.7916 7.62517 15.7916H8.35434C8.39961 15.7916 8.44427 15.7811 8.48477 15.7608C8.52526 15.7406 8.56049 15.7112 8.58767 15.675L9.37517 14.625V10.8333L7.74039 12.2348C7.61277 12.3443 7.51034 12.4801 7.44011 12.6329C7.36988 12.7857 7.33351 12.9518 7.3335 13.12Z" fill="#3452FF"/>
<path d="M16.6667 13.12V15.5C16.6667 15.5383 16.6591 15.5762 16.6445 15.6116C16.6298 15.647 16.6083 15.6791 16.5812 15.7062C16.5542 15.7333 16.522 15.7548 16.4866 15.7694C16.4512 15.7841 16.4133 15.7916 16.375 15.7916H15.6458C15.6006 15.7916 15.5559 15.7811 15.5154 15.7608C15.4749 15.7406 15.4397 15.7112 15.4125 15.675L14.625 14.625V10.8333L16.2598 12.2348C16.3874 12.3443 16.4898 12.4801 16.5601 12.6329C16.6303 12.7857 16.6667 12.9518 16.6667 13.12Z" fill="#3452FF"/>
<path d="M14.9357 8.95789L14.625 13.4583H9.37501L9.0644 8.95789C8.98073 7.74643 9.20622 6.53357 9.7197 5.43313C10.2332 4.33269 11.0178 3.38074 12 2.66663C12.982 3.38092 13.7665 4.3329 14.28 5.43329C14.7934 6.53369 15.019 7.74646 14.9356 8.95789H14.9357Z" fill="white"/>
<path d="M9.375 13.4583H14.625V14.625H9.375V13.4583Z" fill="#4E6AFF"/>
<path d="M11.9998 15.7917C11.9164 15.7916 11.8354 15.7638 11.7697 15.7125C11.7039 15.6613 11.6571 15.5896 11.6366 15.5088C11.1073 13.3913 11.116 13.4948 11.1481 13.3679L11.6366 11.4079C11.6571 11.3271 11.7039 11.2554 11.7696 11.2042C11.8354 11.1529 11.9164 11.1251 11.9998 11.1251C12.0831 11.1251 12.1641 11.1529 12.2299 11.2042C12.2957 11.2554 12.3425 11.3271 12.3629 11.4079C12.8923 13.5254 12.8835 13.4219 12.8514 13.5488L12.3629 15.5088C12.3425 15.5896 12.2957 15.6613 12.2299 15.7125C12.1641 15.7638 12.0831 15.7916 11.9998 15.7917Z" fill="#3452FF"/>
<path d="M12 9.66669C12.3461 9.66669 12.6845 9.56405 12.9722 9.37176C13.26 9.17947 13.4843 8.90615 13.6168 8.58638C13.7492 8.26661 13.7839 7.91475 13.7164 7.57528C13.6489 7.23581 13.4822 6.92399 13.2374 6.67925C12.9927 6.43451 12.6809 6.26784 12.3414 6.20031C12.0019 6.13279 11.6501 6.16745 11.3303 6.2999C11.0105 6.43235 10.7372 6.65665 10.5449 6.94444C10.3526 7.23223 10.25 7.57057 10.25 7.91669C10.25 8.38082 10.4344 8.82594 10.7626 9.15412C11.0908 9.48231 11.5359 9.66669 12 9.66669Z" fill="#4E6AFF"/>
<path d="M12.0002 9.08334C12.2309 9.08334 12.4565 9.01492 12.6483 8.88672C12.8402 8.75853 12.9897 8.57632 13.078 8.36314C13.1663 8.14995 13.1894 7.91538 13.1444 7.68906C13.0994 7.46275 12.9883 7.25487 12.8251 7.09171C12.662 6.92855 12.4541 6.81743 12.2278 6.77242C12.0015 6.7274 11.7669 6.75051 11.5537 6.83881C11.3405 6.92711 11.1583 7.07665 11.0301 7.2685C10.9019 7.46036 10.8335 7.68592 10.8335 7.91667C10.8335 8.22609 10.9564 8.52284 11.1752 8.74163C11.394 8.96042 11.6907 9.08334 12.0002 9.08334Z" fill="#E7EFFF"/>
<path d="M13.6392 4.32913C13.2025 4.76018 12.6136 5.00188 12 5.00188C11.3864 5.00188 10.7975 4.76018 10.3608 4.32913C10.8128 3.6892 11.3665 3.1276 12 2.66663C12.6334 3.12761 13.1872 3.6892 13.6392 4.32913Z" fill="#E1B75B"/>
<path d="M20.8607 10.4848C20.6026 10.5606 20.7878 10.5417 17.5415 10.5417C17.1791 10.5406 16.83 10.4046 16.5623 10.1602C16.2947 9.91581 16.1277 9.58048 16.0938 9.21961C16.0599 8.85873 16.1617 8.49818 16.3792 8.20823C16.5967 7.91829 16.9143 7.71973 17.2703 7.65126C17.3246 7.29222 17.4892 6.95895 17.7413 6.69766C17.9935 6.43636 18.3207 6.25997 18.6776 6.19293C19.7811 7.39907 20.5357 8.88265 20.8607 10.4848Z" fill="white"/>
<path d="M6.16691 12.875C6.1669 13.2617 6.01325 13.6327 5.73976 13.9062C5.46627 14.1797 5.09534 14.3333 4.70857 14.3333H3.19044C2.8582 12.8908 2.88323 11.389 3.26336 9.95831C3.67898 9.96142 4.07993 10.1124 4.39443 10.3841C4.70893 10.6558 4.91644 11.0306 4.97982 11.4414C5.31371 11.5046 5.61505 11.6825 5.83179 11.9442C6.04853 12.2059 6.16706 12.5351 6.16691 12.875Z" fill="white"/>
<path d="M14.6249 19C14.5476 19 14.4734 18.9693 14.4187 18.9146C14.364 18.8599 14.3333 18.7857 14.3333 18.7084C14.3333 18.6318 14.3182 18.5559 14.2889 18.4851C14.2595 18.4143 14.2166 18.35 14.1624 18.2959C14.1082 18.2417 14.0439 18.1987 13.9732 18.1694C13.9024 18.1401 13.8265 18.125 13.7499 18.125C13.6729 18.1246 13.5991 18.0936 13.5448 18.039C13.4905 17.9843 13.46 17.9104 13.46 17.8334C13.46 17.7563 13.4905 17.6824 13.5448 17.6277C13.5991 17.5731 13.6729 17.5421 13.7499 17.5417C13.9031 17.5417 14.0548 17.5719 14.1964 17.6305C14.3379 17.6891 14.4666 17.7751 14.5749 17.8834C14.6832 17.9917 14.7692 18.1203 14.8278 18.2619C14.8864 18.4034 14.9166 18.5551 14.9166 18.7084C14.9166 18.7467 14.9091 18.7846 14.8944 18.82C14.8797 18.8554 14.8583 18.8875 14.8312 18.9146C14.8041 18.9417 14.7719 18.9632 14.7365 18.9778C14.7012 18.9925 14.6632 19 14.6249 19Z" fill="#E7EFFF"/>
<path d="M9.37517 19.5833C9.29781 19.5833 9.22363 19.5526 9.16893 19.4979C9.11423 19.4432 9.0835 19.369 9.0835 19.2917C9.0835 18.9823 9.20642 18.6855 9.42521 18.4667C9.644 18.2479 9.94075 18.125 10.2502 18.125C10.3275 18.125 10.4017 18.1557 10.4564 18.2104C10.5111 18.2651 10.5418 18.3393 10.5418 18.4167C10.5418 18.494 10.5111 18.5682 10.4564 18.6229C10.4017 18.6776 10.3275 18.7083 10.2502 18.7083C10.1736 18.7083 10.0977 18.7234 10.0269 18.7527C9.95615 18.782 9.89184 18.825 9.83768 18.8792C9.78351 18.9333 9.74054 18.9977 9.71123 19.0684C9.68191 19.1392 9.66683 19.2151 9.66684 19.2917C9.66683 19.369 9.6361 19.4432 9.5814 19.4979C9.52671 19.5526 9.45252 19.5833 9.37517 19.5833V19.5833Z" fill="#E7EFFF"/>
<path d="M3.979 6.45831C4.06553 6.45831 4.15012 6.43265 4.22207 6.38458C4.29401 6.33651 4.35009 6.26818 4.3832 6.18824C4.41631 6.10829 4.42498 6.02033 4.4081 5.93546C4.39122 5.85059 4.34955 5.77264 4.28836 5.71145C4.22718 5.65027 4.14922 5.6086 4.06436 5.59172C3.97949 5.57484 3.89152 5.5835 3.81158 5.61662C3.73164 5.64973 3.66331 5.7058 3.61524 5.77775C3.56716 5.8497 3.5415 5.93428 3.5415 6.02081C3.54151 6.13684 3.5876 6.24812 3.66965 6.33017C3.75169 6.41222 3.86297 6.45831 3.979 6.45831Z" fill="#E1B75B"/>
<path d="M20.3125 16.0833C20.399 16.0833 20.4836 16.0577 20.5556 16.0096C20.6275 15.9615 20.6836 15.8932 20.7167 15.8132C20.7498 15.7333 20.7585 15.6453 20.7416 15.5605C20.7247 15.4756 20.683 15.3976 20.6219 15.3365C20.5607 15.2753 20.4827 15.2336 20.3979 15.2167C20.313 15.1998 20.225 15.2085 20.1451 15.2416C20.0651 15.2747 19.9968 15.3308 19.9487 15.4028C19.9007 15.4747 19.875 15.5593 19.875 15.6458C19.875 15.7033 19.8863 15.7602 19.9083 15.8132C19.9303 15.8663 19.9625 15.9145 20.0031 15.9552C20.0438 15.9958 20.092 16.028 20.1451 16.05C20.1982 16.072 20.255 16.0833 20.3125 16.0833Z" fill="#E1B75B"/>
<path d="M19.729 5C19.8155 5 19.9001 4.97434 19.9721 4.92626C20.044 4.87819 20.1001 4.80986 20.1332 4.72992C20.1663 4.64997 20.175 4.56201 20.1581 4.47714C20.1412 4.39228 20.0995 4.31432 20.0384 4.25314C19.9772 4.19195 19.8992 4.15029 19.8144 4.13341C19.7295 4.11653 19.6415 4.12519 19.5616 4.1583C19.4816 4.19142 19.4133 4.24749 19.3652 4.31944C19.3172 4.39139 19.2915 4.47597 19.2915 4.5625C19.2915 4.67853 19.3376 4.78981 19.4197 4.87186C19.5017 4.95391 19.613 5 19.729 5Z" fill="#00DE93"/>
<path d="M4.854 19.875C4.94053 19.875 5.02512 19.8493 5.09707 19.8013C5.16901 19.7532 5.22509 19.6849 5.2582 19.6049C5.29131 19.525 5.29998 19.437 5.2831 19.3521C5.26622 19.2673 5.22455 19.1893 5.16336 19.1281C5.10218 19.067 5.02422 19.0253 4.93936 19.0084C4.85449 18.9915 4.76652 19.0002 4.68658 19.0333C4.60664 19.0664 4.53831 19.1225 4.49024 19.1944C4.44216 19.2664 4.4165 19.351 4.4165 19.4375C4.4165 19.5535 4.4626 19.6648 4.54464 19.7469C4.62669 19.8289 4.73797 19.875 4.854 19.875Z" fill="#00DE93"/>
</svg>
