<svg width="20" height="20" viewBox="0 0 20 20" fill="none" xmlns="http://www.w3.org/2000/svg">
<g clip-path="url(#clip0_10314_146461)">
<path d="M14.9601 5.62849C15.0369 5.55009 15.0797 5.44454 15.0792 5.33477C15.0786 5.22501 15.0348 5.1199 14.9571 5.04228C14.8795 4.96466 14.7744 4.92081 14.6646 4.92026C14.5549 4.9197 14.4493 4.96249 14.3709 5.03932L13.6122 5.79808C12.5208 4.85911 11.1079 4.3797 9.67049 4.46058C8.23302 4.54145 6.88286 5.17632 5.90366 6.23178C4.92446 7.28725 4.39246 8.68116 4.41943 10.1206C4.44641 11.5601 5.03025 12.9331 6.04829 13.9512C7.06634 14.9692 8.43934 15.5531 9.87882 15.58C11.3183 15.607 12.7122 15.075 13.7677 14.0958C14.8231 13.1166 15.458 11.7664 15.5389 10.329C15.6198 8.89152 15.1403 7.47866 14.2014 6.38725L14.9601 5.62849ZM14.7143 9.99983C14.7164 11.0751 14.3515 12.1188 13.6799 12.9585C13.0084 13.7983 12.0705 14.3838 11.0212 14.6183C9.9718 14.8528 8.87386 14.7222 7.90876 14.2482C6.94367 13.7741 6.1692 12.985 5.71334 12.0112C5.25748 11.0374 5.14752 9.9372 5.40163 8.89243C5.65575 7.84766 6.25872 6.92087 7.11091 6.26521C7.9631 5.60955 9.01349 5.26428 10.0885 5.28645C11.1635 5.30862 12.1987 5.69691 13.0232 6.38715L10.7692 8.64132C10.5354 8.50561 10.2702 8.43336 9.99984 8.43173C9.68967 8.43173 9.38647 8.5237 9.12858 8.69602C8.87069 8.86834 8.66969 9.11326 8.55099 9.39982C8.4323 9.68637 8.40124 10.0017 8.46175 10.3059C8.52226 10.6101 8.67162 10.8895 8.89094 11.1089C9.11026 11.3282 9.38969 11.4775 9.69389 11.538C9.9981 11.5986 10.3134 11.5675 10.6 11.4488C10.8865 11.3301 11.1314 11.1291 11.3038 10.8712C11.4761 10.6133 11.5681 10.3101 11.5681 9.99997C11.5665 9.72957 11.4942 9.46429 11.3585 9.23042L13.6124 6.97625C14.3247 7.82267 14.715 8.89357 14.7143 9.99983Z" fill="#171723"/>
<path d="M9.16657 2.6827C9.18262 2.68276 9.19866 2.68201 9.21464 2.68045C9.7374 2.6232 10.2648 2.62247 10.7877 2.67827C10.8972 2.68819 11.0062 2.65503 11.0917 2.58585C11.1771 2.51666 11.2322 2.41689 11.2452 2.30774C11.2511 2.25334 11.2461 2.19833 11.2306 2.14586C11.2152 2.09338 11.1895 2.04449 11.155 2.00197C11.1206 1.95946 11.0781 1.92417 11.03 1.89813C10.9819 1.87209 10.9291 1.85581 10.8747 1.85024C10.2928 1.78809 9.70597 1.78853 9.1242 1.85155C9.01841 1.86305 8.92103 1.91458 8.85202 1.99556C8.783 2.07655 8.74757 2.18086 8.75298 2.28713C8.7584 2.3934 8.80425 2.49357 8.88115 2.56712C8.95805 2.64067 9.06016 2.68202 9.16656 2.6827L9.16657 2.6827Z" fill="#171723"/>
<path d="M5.61945 4.0798C5.63338 4.07187 5.64688 4.06321 5.6599 4.05386C6.08401 3.74292 6.54039 3.47859 7.02113 3.26544C7.12091 3.21929 7.19876 3.13605 7.23816 3.03342C7.27755 2.93078 7.27539 2.81683 7.23212 2.71577C7.20998 2.66574 7.17818 2.62058 7.13854 2.58287C7.09889 2.54517 7.05219 2.51567 7.00112 2.49607C6.95004 2.47647 6.89559 2.46716 6.8409 2.46866C6.78622 2.47017 6.73236 2.48246 6.68244 2.50484C6.14745 2.74193 5.63946 3.03575 5.16718 3.38125C5.08132 3.4441 5.02275 3.53741 5.00348 3.64205C4.9842 3.74669 5.00568 3.85474 5.06351 3.94406C5.12134 4.03338 5.21113 4.09719 5.3145 4.12243C5.41786 4.14767 5.52697 4.13242 5.61945 4.0798Z" fill="#171723"/>
<path d="M2.71902 7.23387C2.81259 7.27505 2.91802 7.28041 3.01528 7.24892C3.11254 7.21744 3.19483 7.15132 3.24652 7.06313C3.25459 7.04929 3.26195 7.03505 3.26856 7.02045C3.48042 6.53911 3.7435 6.08198 4.05325 5.65698C4.1166 5.56713 4.14241 5.45613 4.12521 5.34755C4.10801 5.23898 4.04915 5.14139 3.96114 5.07552C3.91696 5.04325 3.86684 5.02004 3.81365 5.0072C3.76047 4.99436 3.70528 4.99216 3.65124 5.00072C3.5972 5.00928 3.54539 5.02843 3.49878 5.05707C3.45217 5.08572 3.41167 5.12329 3.37963 5.16763C3.03488 5.64048 2.74185 6.14895 2.50555 6.6843C2.46101 6.78549 2.45848 6.90022 2.49851 7.00328C2.53854 7.10633 2.61786 7.18928 2.71902 7.23387Z" fill="#171723"/>
<path d="M2.68245 10.8335C2.68253 10.8174 2.68181 10.8014 2.68026 10.7854C2.62302 10.2626 2.62227 9.73524 2.67802 9.21232C2.68795 9.10285 2.65481 8.99381 2.58563 8.90838C2.51645 8.82295 2.41669 8.76787 2.30754 8.75482C2.25315 8.74897 2.19813 8.75393 2.14566 8.7694C2.09319 8.78487 2.04429 8.81056 2.00177 8.84498C1.95926 8.87941 1.92396 8.9219 1.89791 8.97C1.87186 9.01811 1.85557 9.07089 1.84998 9.12531C1.78783 9.70718 1.78829 10.294 1.85136 10.8758C1.86284 10.9816 1.91435 11.079 1.99533 11.148C2.07632 11.217 2.18064 11.2525 2.28691 11.2471C2.39318 11.2416 2.49336 11.1958 2.5669 11.1189C2.64044 11.042 2.68178 10.9398 2.68245 10.8334V10.8335Z" fill="#171723"/>
<path d="M4.05365 14.34C3.74271 13.9158 3.47836 13.4595 3.26518 12.9787C3.21903 12.8789 3.13581 12.8011 3.03318 12.7617C2.93056 12.7223 2.81662 12.7245 2.71556 12.7677C2.66553 12.7899 2.62036 12.8217 2.58266 12.8613C2.54495 12.901 2.51545 12.9477 2.49584 12.9987C2.47624 13.0498 2.46692 13.1043 2.46842 13.1589C2.46992 13.2136 2.48221 13.2675 2.50458 13.3174C2.74171 13.8524 3.03554 14.3604 3.38105 14.8327C3.4439 14.9186 3.5372 14.9771 3.64184 14.9964C3.74649 15.0157 3.85454 14.9942 3.94385 14.9364C4.03317 14.8786 4.09699 14.7888 4.12222 14.6854C4.14746 14.582 4.13221 14.4729 4.0796 14.3804C4.07164 14.3665 4.06298 14.353 4.05365 14.34Z" fill="#171723"/>
<path d="M7.06315 16.7536C7.04906 16.7454 7.03532 16.7383 7.02042 16.7315C6.53908 16.5197 6.08197 16.2567 5.657 15.9469C5.56714 15.8836 5.45613 15.8578 5.34755 15.875C5.23896 15.8922 5.14136 15.951 5.07548 16.039C5.04323 16.0832 5.02002 16.1333 5.00719 16.1865C4.99436 16.2397 4.99216 16.2949 5.00073 16.3489C5.00929 16.4029 5.02845 16.4547 5.05709 16.5013C5.08574 16.548 5.12331 16.5884 5.16765 16.6205C5.64047 16.9653 6.14893 17.2583 6.68427 17.4946C6.78163 17.5376 6.89172 17.5416 6.99199 17.506C7.09225 17.4704 7.17509 17.3978 7.22353 17.303C7.27197 17.2083 7.28235 17.0986 7.25253 16.9965C7.22271 16.8943 7.15495 16.8075 7.06315 16.7537V16.7536Z" fill="#171723"/>
<path d="M10.8335 17.3173C10.8174 17.3172 10.8014 17.3179 10.7854 17.3195C10.2627 17.3767 9.73525 17.3774 9.21232 17.3216C9.10284 17.3117 8.99382 17.3449 8.90839 17.4141C8.82297 17.4833 8.76788 17.583 8.75482 17.6922C8.74897 17.7466 8.75393 17.8016 8.76941 17.8541C8.78489 17.9065 8.81058 17.9554 8.84501 17.9979C8.87944 18.0404 8.92194 18.0757 8.97005 18.1018C9.01816 18.1278 9.07094 18.1441 9.12536 18.1497C9.70724 18.2118 10.2941 18.2114 10.8759 18.1484C10.9817 18.1369 11.0791 18.0853 11.1481 18.0044C11.2171 17.9234 11.2525 17.819 11.2471 17.7128C11.2417 17.6065 11.1958 17.5064 11.1189 17.4328C11.042 17.3593 10.9399 17.3179 10.8335 17.3173L10.8335 17.3173Z" fill="#171723"/>
<path d="M14.3807 15.9202C14.3668 15.9281 14.3533 15.9368 14.3402 15.9461C13.9161 16.2571 13.4597 16.5214 12.9789 16.7346C12.8792 16.7808 12.8013 16.864 12.7619 16.9666C12.7225 17.0692 12.7247 17.1832 12.768 17.2842C12.7901 17.3343 12.8219 17.3794 12.8616 17.4171C12.9012 17.4548 12.9479 17.4843 12.999 17.5039C13.05 17.5235 13.1045 17.5329 13.1592 17.5314C13.2138 17.5299 13.2677 17.5176 13.3176 17.4952C13.8526 17.2581 14.3606 16.9642 14.833 16.6187C14.9188 16.5559 14.9773 16.4626 14.9966 16.3579C15.0159 16.2533 14.9944 16.1453 14.9366 16.056C14.8787 15.9667 14.789 15.9029 14.6856 15.8776C14.5823 15.8524 14.4732 15.8676 14.3807 15.9202Z" fill="#171723"/>
<path d="M17.281 12.766C17.1875 12.7248 17.082 12.7195 16.9848 12.751C16.8875 12.7825 16.8052 12.8486 16.7535 12.9368C16.7454 12.9506 16.738 12.9649 16.7314 12.9795C16.5196 13.4608 16.2565 13.918 15.9468 14.3429C15.8834 14.4328 15.8576 14.5438 15.8748 14.6524C15.892 14.761 15.9509 14.8586 16.0389 14.9244C16.0831 14.9567 16.1332 14.9799 16.1864 14.9927C16.2396 15.0056 16.2948 15.0078 16.3488 14.9992C16.4028 14.9906 16.4546 14.9715 16.5012 14.9428C16.5478 14.9142 16.5883 14.8766 16.6204 14.8323C16.9652 14.3595 17.2582 13.851 17.4945 13.3156C17.539 13.2144 17.5416 13.0997 17.5015 12.9966C17.4615 12.8936 17.3822 12.8106 17.281 12.766Z" fill="#171723"/>
<path d="M18.1485 9.1241C18.137 9.01833 18.0854 8.92097 18.0044 8.85197C17.9235 8.78298 17.8192 8.74756 17.7129 8.75298C17.6067 8.75841 17.5065 8.80426 17.433 8.88115C17.3594 8.95803 17.3181 9.06013 17.3174 9.16652C17.3173 9.18255 17.3181 9.19857 17.3196 9.21453C17.3768 9.73729 17.3776 10.2647 17.3218 10.7876C17.3119 10.8971 17.3451 11.0061 17.4142 11.0916C17.4834 11.177 17.5832 11.2321 17.6923 11.2452C17.7467 11.251 17.8017 11.246 17.8542 11.2306C17.9067 11.2151 17.9556 11.1894 17.9981 11.155C18.0406 11.1205 18.0759 11.078 18.1019 11.0299C18.128 10.9818 18.1443 10.9291 18.1498 10.8746C18.212 10.2928 18.2115 9.70588 18.1485 9.1241Z" fill="#171723"/>
<path d="M15.9461 5.66001C16.2571 6.0841 16.5214 6.54048 16.7346 7.02125C16.7807 7.12101 16.864 7.19886 16.9666 7.23825C17.0692 7.27764 17.1832 7.27548 17.2842 7.23222C17.3343 7.21008 17.3794 7.17828 17.4171 7.13863C17.4548 7.09899 17.4843 7.05229 17.5039 7.00122C17.5235 6.95014 17.5328 6.89569 17.5313 6.84101C17.5298 6.78632 17.5175 6.73247 17.4952 6.68255C17.2581 6.14755 16.9643 5.63954 16.6188 5.16725C16.5559 5.08141 16.4626 5.02286 16.358 5.00359C16.2533 4.98433 16.1453 5.00581 16.056 5.06363C15.9667 5.12145 15.9029 5.21124 15.8776 5.31459C15.8524 5.41795 15.8676 5.52704 15.9202 5.61952C15.9281 5.63345 15.9368 5.64696 15.9461 5.66001Z" fill="#171723"/>
<path d="M12.937 3.24631C12.9509 3.25441 12.9651 3.26179 12.9797 3.26843C13.4611 3.48024 13.9182 3.74329 14.3432 4.05304C14.433 4.11638 14.544 4.1422 14.6526 4.125C14.7612 4.1078 14.8588 4.04894 14.9246 3.96093C14.9569 3.91675 14.9801 3.86663 14.993 3.81345C15.0058 3.76027 15.008 3.70508 14.9994 3.65105C14.9909 3.59702 14.9717 3.54521 14.9431 3.4986C14.9144 3.452 14.8769 3.41151 14.8325 3.37947C14.3597 3.03468 13.8512 2.74165 13.3159 2.50539C13.2185 2.46247 13.1084 2.4584 13.0082 2.49403C12.9079 2.52966 12.8251 2.60227 12.7766 2.697C12.7282 2.79173 12.7178 2.9014 12.7477 3.00353C12.7775 3.10566 12.8452 3.19252 12.937 3.24631Z" fill="#171723"/>
</g>
<defs>
<clipPath id="clip0_10314_146461">
<rect width="20" height="20" fill="white"/>
</clipPath>
</defs>
</svg>
