<svg width="20" height="20" viewBox="0 0 20 20" fill="none" xmlns="http://www.w3.org/2000/svg">
<path d="M2.25654 10.9299C2.15121 10.9297 2.04984 10.8897 1.97284 10.8178C1.89583 10.7459 1.8489 10.6476 1.8415 10.5425C1.82278 10.278 1.80566 10.0054 1.80566 9.73275C1.8067 7.65787 2.63079 5.66813 4.09712 4.20013C5.56344 2.73212 7.55223 1.90576 9.62711 1.90234C9.73762 1.90234 9.8436 1.94624 9.92174 2.02438C9.99988 2.10252 10.0438 2.2085 10.0438 2.31901C10.0438 2.42952 9.99988 2.5355 9.92174 2.61364C9.8436 2.69178 9.73762 2.73568 9.62711 2.73568C7.77321 2.73895 5.9963 3.47748 4.68623 4.78923C3.37616 6.10099 2.63993 7.87884 2.63904 9.73275C2.63904 9.98584 2.65612 10.2389 2.67321 10.4839C2.68092 10.5942 2.64454 10.703 2.57206 10.7865C2.49957 10.8699 2.39692 10.9212 2.28665 10.929C2.27686 10.9299 2.26709 10.9299 2.25654 10.9299Z" fill="#171723"/>
<path d="M2.53836 14.246C2.44671 14.246 2.35765 14.2157 2.28496 14.1599C2.21226 14.1041 2.16001 14.0258 2.13628 13.9373C2.11255 13.8488 2.11867 13.7549 2.1537 13.6702C2.18873 13.5855 2.2507 13.5148 2.33003 13.4689L4.11958 12.4337C4.16693 12.4061 4.21928 12.3881 4.27361 12.3807C4.32794 12.3734 4.38319 12.3768 4.43619 12.3909C4.48918 12.4049 4.53888 12.4293 4.58242 12.4626C4.62597 12.4959 4.6625 12.5375 4.68994 12.585C4.71737 12.6325 4.73516 12.6849 4.74228 12.7393C4.7494 12.7936 4.74571 12.8489 4.73143 12.9018C4.71715 12.9547 4.69256 13.0043 4.65906 13.0477C4.62557 13.0911 4.58383 13.1275 4.53624 13.1547L2.74669 14.1899C2.68349 14.2268 2.61157 14.2462 2.53836 14.246Z" fill="#171723"/>
<path d="M4.81911 16.7729C4.74234 16.7729 4.66705 16.7517 4.60157 16.7117C4.53608 16.6716 4.48293 16.6142 4.44799 16.5459C4.41305 16.4775 4.39768 16.4008 4.40357 16.3243C4.40947 16.2477 4.43639 16.1743 4.48138 16.1121L5.69231 14.4365C5.72433 14.392 5.76481 14.3543 5.81141 14.3255C5.85802 14.2967 5.90985 14.2774 5.96393 14.2687C6.01802 14.2599 6.0733 14.2619 6.12661 14.2745C6.17992 14.2872 6.23021 14.3102 6.27461 14.3423C6.31901 14.3744 6.35665 14.4149 6.38537 14.4616C6.41408 14.5083 6.43332 14.5601 6.44197 14.6142C6.45063 14.6683 6.44853 14.7236 6.43579 14.7769C6.42306 14.8302 6.39995 14.8804 6.36777 14.9248L5.15684 16.6004C5.11817 16.6538 5.06741 16.6972 5.00871 16.7272C4.95 16.7572 4.88503 16.7729 4.81911 16.7729Z" fill="#171723"/>
<path d="M7.92466 18.1597C7.89542 18.1595 7.86626 18.1565 7.83759 18.1507C7.7295 18.1275 7.63502 18.0624 7.57491 17.9696C7.51479 17.8769 7.49394 17.764 7.51695 17.6559L7.94745 15.6377C7.97054 15.5296 8.03565 15.435 8.12844 15.3749C8.22123 15.3148 8.33411 15.294 8.44225 15.3171C8.55038 15.3402 8.64491 15.4053 8.70504 15.4981C8.76517 15.5908 8.78598 15.7037 8.76288 15.8119L8.3324 17.8301C8.31226 17.9233 8.26083 18.0068 8.18666 18.0668C8.11249 18.1267 8.02004 18.1595 7.92466 18.1597Z" fill="#171723"/>
<path d="M11.3281 18.1596C11.2329 18.1594 11.1405 18.1266 11.0665 18.0667C10.9925 18.0067 10.9412 17.9232 10.9212 17.83L10.4916 15.8118C10.4686 15.7037 10.4894 15.5908 10.5495 15.4981C10.6096 15.4053 10.7041 15.3402 10.8122 15.317C10.9202 15.2955 11.0323 15.3169 11.1247 15.3768C11.2171 15.4367 11.2825 15.5303 11.307 15.6376L11.7367 17.6559C11.7597 17.764 11.7388 17.8768 11.6787 17.9696C11.6186 18.0624 11.5241 18.1275 11.416 18.1507C11.3871 18.1565 11.3577 18.1595 11.3281 18.1596Z" fill="#171723"/>
<path d="M14.4444 16.7729C14.3788 16.7729 14.3143 16.7574 14.2558 16.7277C14.1974 16.698 14.1469 16.6549 14.1083 16.602L12.8884 14.9353C12.8232 14.8462 12.7961 14.7348 12.813 14.6257C12.83 14.5166 12.8896 14.4186 12.9787 14.3535C13.0679 14.2883 13.1792 14.2612 13.2884 14.2781C13.3975 14.2951 13.4954 14.3547 13.5606 14.4438L14.7805 16.1105C14.8258 16.1726 14.8531 16.246 14.8592 16.3226C14.8654 16.3993 14.8503 16.4761 14.8155 16.5447C14.7807 16.6133 14.7276 16.6709 14.6621 16.7112C14.5966 16.7514 14.5213 16.7728 14.4444 16.7729Z" fill="#171723"/>
<path d="M16.7253 14.246C16.6521 14.2462 16.5802 14.2268 16.517 14.1899L14.7266 13.1547C14.6791 13.1275 14.6373 13.0911 14.6038 13.0477C14.5703 13.0043 14.5457 12.9547 14.5315 12.9018C14.5172 12.8489 14.5135 12.7936 14.5206 12.7393C14.5277 12.6849 14.5455 12.6325 14.573 12.585C14.6004 12.5375 14.6369 12.4959 14.6805 12.4626C14.724 12.4293 14.7737 12.4049 14.8267 12.3909C14.8797 12.3768 14.935 12.3734 14.9893 12.3807C15.0436 12.3881 15.096 12.4061 15.1433 12.4337L16.9337 13.4689C17.013 13.5148 17.075 13.5855 17.11 13.6702C17.145 13.7549 17.1512 13.8488 17.1274 13.9373C17.1037 14.0258 17.0514 14.1041 16.9788 14.1599C16.9061 14.2157 16.817 14.246 16.7253 14.246Z" fill="#171723"/>
<path d="M17.7784 11.0088C17.7634 11.0088 17.7485 11.008 17.7336 11.0064L15.6812 10.7875C15.5713 10.7758 15.4706 10.721 15.4012 10.635C15.3318 10.5491 15.2993 10.4392 15.3109 10.3293C15.3241 10.2201 15.3794 10.1204 15.4649 10.0513C15.5505 9.98213 15.6596 9.94905 15.7691 9.95902L17.8215 10.1779C17.9275 10.1892 18.0252 10.2406 18.0944 10.3217C18.1636 10.4028 18.1991 10.5073 18.1936 10.6138C18.1881 10.7203 18.1419 10.8206 18.0647 10.8941C17.9874 10.9675 17.885 11.0086 17.7784 11.0088Z" fill="#171723"/>
<path d="M15.4614 8.25407C15.3622 8.25411 15.2662 8.21876 15.1907 8.15438C15.1152 8.08999 15.0652 8.00079 15.0496 7.90281C15.034 7.80484 15.0539 7.70451 15.1057 7.61987C15.1574 7.53523 15.2377 7.47184 15.332 7.44108L17.2884 6.80062C17.3404 6.78356 17.3953 6.77694 17.45 6.78112C17.5046 6.78531 17.5579 6.80021 17.6067 6.82499C17.6556 6.84977 17.6991 6.88394 17.7347 6.92553C17.7704 6.96713 17.7975 7.01535 17.8145 7.06742C17.8315 7.1195 17.838 7.17442 17.8338 7.22904C17.8296 7.28365 17.8146 7.3369 17.7898 7.38574C17.765 7.43457 17.7308 7.47803 17.6891 7.51364C17.6475 7.54925 17.5992 7.5763 17.5472 7.59326L15.5908 8.23372C15.549 8.24721 15.5053 8.25408 15.4614 8.25407Z" fill="#171723"/>
<path d="M14.1803 6.05187C14.096 6.05186 14.0137 6.02628 13.9442 5.97849C13.8747 5.93071 13.8214 5.86297 13.7912 5.78423C13.7611 5.70548 13.7555 5.61944 13.7753 5.53748C13.7951 5.45551 13.8392 5.38147 13.902 5.32514L15.4466 3.93842C15.5289 3.86533 15.6369 3.82781 15.7468 3.83404C15.8567 3.84028 15.9597 3.88977 16.0332 3.9717C16.1068 4.05364 16.1449 4.16135 16.1393 4.2713C16.1337 4.38126 16.0848 4.48453 16.0033 4.55853L14.4586 5.94526C14.3823 6.01406 14.2831 6.05206 14.1803 6.05187Z" fill="#171723"/>
<path d="M12.119 4.56025C12.0495 4.56044 11.9809 4.54318 11.9197 4.51006C11.8585 4.47694 11.8066 4.429 11.7688 4.37063C11.7309 4.31226 11.7082 4.24533 11.7029 4.17595C11.6975 4.10657 11.7097 4.03696 11.7382 3.97349L12.5805 2.0871C12.6257 1.98623 12.7091 1.90744 12.8123 1.86801C12.9156 1.82859 13.0303 1.83176 13.1312 1.87683C13.2321 1.9219 13.311 2.00519 13.3506 2.10839C13.3902 2.2116 13.3871 2.32629 13.3422 2.42727L12.4999 4.31366C12.467 4.38715 12.4135 4.44953 12.346 4.49329C12.2784 4.53704 12.1996 4.5603 12.119 4.56025Z" fill="#171723"/>
</svg>
