<svg width="20" height="20" viewBox="0 0 20 20" fill="none" xmlns="http://www.w3.org/2000/svg">
<g clip-path="url(#clip0_10314_144682)">
<path d="M18.1641 8.9788C18.1902 8.90876 18.1967 8.83293 18.1829 8.75948C18.1808 8.74515 18.1778 8.73096 18.174 8.71698C18.1574 8.64448 18.121 8.578 18.0689 8.52487L18.0665 8.52335L18.0665 8.52325L16.3151 6.8387C16.2355 6.76208 16.1287 6.72023 16.0182 6.72237C15.9077 6.72451 15.8026 6.77045 15.7259 6.85009C15.6493 6.92974 15.6075 7.03656 15.6096 7.14705C15.6117 7.25755 15.6577 7.36267 15.7373 7.43929L16.7432 8.4069L12.2795 8.40773C12.169 8.40773 12.063 8.45163 11.9848 8.52977C11.9067 8.60791 11.8628 8.71389 11.8628 8.8244C11.8628 8.9349 11.9067 9.04088 11.9848 9.11902C12.063 9.19717 12.169 9.24106 12.2795 9.24106L16.7918 9.2404L15.7292 10.3332C15.6907 10.3723 15.6603 10.4187 15.6398 10.4696C15.6193 10.5206 15.6091 10.575 15.6097 10.6299C15.6103 10.6848 15.6218 10.7391 15.6434 10.7895C15.665 10.84 15.6964 10.8856 15.7358 10.9239C15.7751 10.9622 15.8217 10.9923 15.8727 11.0126C15.9237 11.0328 15.9783 11.0428 16.0332 11.0419C16.088 11.041 16.1422 11.0292 16.1926 11.0073C16.2429 10.9854 16.2884 10.9538 16.3265 10.9142L18.077 9.11411C18.1143 9.07533 18.1436 9.02967 18.1635 8.97968L18.1641 8.97901L18.1641 8.9788Z" fill="#171723"/>
<path d="M14.214 10.6945C14.1593 10.6944 14.1051 10.7052 14.0545 10.7261C14.004 10.747 13.958 10.7777 13.9193 10.8164C13.8806 10.8551 13.8499 10.9011 13.829 10.9516C13.8081 11.0022 13.7973 11.0564 13.7974 11.1111V13.874C13.7979 14.264 13.6437 14.6382 13.3686 14.9146C13.0935 15.1911 12.7201 15.3471 12.3301 15.3486H10.8464L10.8555 4.87412C10.8567 4.74063 10.8269 4.60868 10.7683 4.48875C10.7096 4.36882 10.6239 4.2642 10.5177 4.1832C9.92332 3.7287 9.28353 3.33682 8.60858 3.01379C8.47663 2.95129 8.3362 2.9054 8.20116 2.84859H12.3301C12.719 2.8489 13.0919 3.00347 13.367 3.2784C13.6421 3.55332 13.7969 3.92615 13.7974 4.31506V6.66695C13.7974 6.77746 13.8413 6.88344 13.9194 6.96158C13.9976 7.03972 14.1035 7.08362 14.214 7.08362C14.3245 7.08362 14.4305 7.03972 14.5087 6.96158C14.5868 6.88344 14.6307 6.77746 14.6307 6.66695V4.31506C14.6299 3.70522 14.3872 3.1206 13.9559 2.68946C13.5246 2.25831 12.9399 2.01585 12.3301 2.01526H4.11393C3.50304 2.01485 2.91691 2.25673 2.48411 2.68786C2.0513 3.11899 1.80714 3.70417 1.80518 4.31506V13.874C1.80599 14.486 2.04952 15.0727 2.48235 15.5053C2.91517 15.938 3.50194 16.1813 4.11393 16.1819C5.54352 16.1799 6.95595 16.4933 8.25049 17.0999C8.68186 17.3185 9.09834 17.5654 9.49723 17.8388C9.62778 17.9251 9.77922 17.9746 9.93555 17.9819C10.0919 17.9893 10.2473 17.9542 10.3853 17.8805C10.5234 17.8068 10.639 17.6972 10.7199 17.5632C10.8008 17.4293 10.844 17.2759 10.8449 17.1194L10.8457 16.1819H12.3301C12.941 16.1803 13.5264 15.9364 13.9577 15.5037C14.389 15.071 14.6311 14.4849 14.6307 13.874V11.1111C14.6307 11.0564 14.62 11.0022 14.5991 10.9516C14.5781 10.9011 14.5474 10.8551 14.5087 10.8164C14.47 10.7777 14.4241 10.747 14.3735 10.7261C14.323 10.7052 14.2688 10.6944 14.214 10.6945ZM9.95866 17.1455C9.52715 16.8492 9.07609 16.5825 8.60857 16.3471C7.20204 15.6877 5.66735 15.3468 4.11393 15.3486C3.72286 15.3483 3.34789 15.1929 3.07129 14.9164C2.79468 14.6399 2.63904 14.2651 2.63851 13.874V4.31506C2.64005 3.92505 2.79627 3.55158 3.07289 3.27664C3.34951 3.0017 3.72392 2.84776 4.11393 2.84859C5.54388 2.84654 6.95663 3.16027 8.2513 3.76738C8.88311 4.06526 9.47751 4.43676 10.0221 4.87414V15.762L9.95866 17.1455Z" fill="#171723"/>
</g>
<defs>
<clipPath id="clip0_10314_144682">
<rect width="20" height="20" fill="white"/>
</clipPath>
</defs>
</svg>
