<svg width="20" height="20" viewBox="0 0 20 20" fill="none" xmlns="http://www.w3.org/2000/svg">
<g clip-path="url(#clip0_10314_145182)">
<path d="M18.1834 16.0391C18.181 16.0223 18.1776 16.0056 18.173 15.9892C18.1562 15.9176 18.1202 15.8519 18.069 15.7991L16.4284 14.1943C16.3492 14.1182 16.2431 14.0764 16.1332 14.0782C16.0234 14.0799 15.9187 14.1249 15.8419 14.2034C15.765 14.282 15.7223 14.3876 15.7231 14.4975C15.7238 14.6074 15.7679 14.7125 15.8457 14.79L16.7555 15.6803H5.13851C4.47569 15.6796 3.84023 15.416 3.37154 14.9473C2.90286 14.4786 2.63923 13.8431 2.63851 13.1803V8.88871C2.63851 8.77821 2.59461 8.67222 2.51647 8.59408C2.43833 8.51594 2.33235 8.47205 2.22184 8.47205C2.11134 8.47205 2.00535 8.51594 1.92721 8.59408C1.84907 8.67222 1.80518 8.77821 1.80518 8.88871V13.1803C1.80606 14.0641 2.15753 14.9114 2.78246 15.5364C3.40739 16.1613 4.25473 16.5128 5.13851 16.5136H16.7876L15.8367 17.4861C15.7979 17.5251 15.7672 17.5714 15.7463 17.6224C15.7255 17.6733 15.715 17.7279 15.7153 17.7829C15.7157 17.8379 15.7269 17.8923 15.7484 17.943C15.77 17.9936 15.8013 18.0395 15.8406 18.078C15.88 18.1165 15.9265 18.1468 15.9777 18.1672C16.0288 18.1876 16.0834 18.1976 16.1385 18.1968C16.1935 18.1959 16.2478 18.1842 16.2983 18.1622C16.3487 18.1402 16.3943 18.1085 16.4325 18.0688L18.0755 16.3883C18.1116 16.3508 18.1402 16.3067 18.1598 16.2585L18.1634 16.254L18.1635 16.2528C18.1889 16.1846 18.1958 16.1108 18.1834 16.0391Z" fill="#171723"/>
<path d="M14.8609 3.48595H3.21219L4.16347 2.51345C4.23948 2.43421 4.28114 2.32817 4.27939 2.21838C4.27764 2.10859 4.23263 2.00393 4.15413 1.92715C4.07564 1.85037 3.97001 1.80768 3.86021 1.80836C3.75041 1.80903 3.64531 1.85303 3.56777 1.93077L1.92389 3.61128C1.88854 3.64831 1.86044 3.69162 1.84103 3.73899L1.83603 3.74514L1.83588 3.74698C1.81047 3.81517 1.80365 3.8889 1.81614 3.9606C1.81846 3.97751 1.82191 3.99425 1.82647 4.0107C1.84328 4.08221 1.87922 4.1478 1.93043 4.20047L3.57102 5.80569C3.65032 5.88137 3.75625 5.92275 3.86585 5.92087C3.97545 5.91898 4.07989 5.87399 4.15654 5.79563C4.23319 5.71727 4.27588 5.61186 4.27535 5.50224C4.27482 5.39263 4.23111 5.28764 4.1537 5.21003L3.24306 4.31929H14.8609C15.5237 4.32001 16.1592 4.58363 16.6279 5.05232C17.0965 5.521 17.3602 6.15647 17.3609 6.81928V11.1109C17.3609 11.2214 17.4048 11.3273 17.4829 11.4055C17.5611 11.4836 17.6671 11.5275 17.7776 11.5275C17.8881 11.5275 17.994 11.4836 18.0722 11.4055C18.1503 11.3273 18.1942 11.2214 18.1942 11.1109V6.81928C18.1933 5.93552 17.8418 5.08822 17.2169 4.4633C16.592 3.83838 15.7447 3.48689 14.8609 3.48595Z" fill="#171723"/>
</g>
<defs>
<clipPath id="clip0_10314_145182">
<rect width="20" height="20" fill="white"/>
</clipPath>
</defs>
</svg>
