<svg width="20" height="20" viewBox="0 0 20 20" fill="none" xmlns="http://www.w3.org/2000/svg">
<path d="M15.2328 8.45413C15.6453 8.1861 15.9859 7.82115 16.2249 7.39114C16.4638 6.96113 16.5938 6.47915 16.6036 5.98731C16.6133 5.49546 16.5025 5.00871 16.2807 4.56958C16.059 4.13045 15.7331 3.75229 15.3315 3.46813C14.93 3.18398 14.4649 3.00248 13.977 2.93948C13.4891 2.87648 12.9933 2.93391 12.5327 3.10674C12.0721 3.27957 11.6608 3.56255 11.3348 3.93096C11.0088 4.29937 10.778 4.742 10.6625 5.22018C10.2241 5.11393 9.76671 5.1144 9.3286 5.22156C9.21315 4.74499 8.98312 4.3038 8.6585 3.93629C8.33387 3.56878 7.92445 3.28605 7.46578 3.11265C7.00711 2.93925 6.51305 2.88042 6.02648 2.94126C5.53992 3.0021 5.07555 3.18078 4.6737 3.46178C4.27185 3.74278 3.94465 4.11761 3.72051 4.55374C3.49637 4.98987 3.38206 5.47411 3.38751 5.96444C3.39296 6.45476 3.51799 6.93635 3.75177 7.36739C3.98554 7.79843 4.32098 8.1659 4.72898 8.43791C3.866 8.77367 3.12478 9.36264 2.60269 10.1274C2.08061 10.8922 1.80209 11.797 1.80372 12.723V13.4396C1.80407 13.8174 1.95431 14.1797 2.22148 14.4468C2.48864 14.714 2.85089 14.8642 3.22872 14.8646H5.39839C5.39793 14.8913 5.39417 14.9176 5.39417 14.9443V15.6625C5.39454 16.0397 5.54451 16.4014 5.81119 16.6681C6.07787 16.9349 6.43947 17.085 6.81667 17.0855H13.1782C13.5554 17.085 13.917 16.9349 14.1836 16.6681C14.4503 16.4014 14.6003 16.0397 14.6007 15.6625V15.1242C14.6007 15.0357 14.5814 14.952 14.5767 14.8646H16.7703C17.1481 14.8642 17.5104 14.714 17.7775 14.4468C18.0447 14.1797 18.195 13.8174 18.1953 13.4396V12.898C18.1971 11.9472 17.9165 11.0172 17.389 10.2261C16.8616 9.43494 16.1111 8.81823 15.2328 8.45413ZM13.5875 3.74802C13.8989 3.74668 14.207 3.81225 14.4909 3.94029C14.7747 4.06834 15.0278 4.25587 15.2329 4.49019C15.438 4.72451 15.5903 5.00016 15.6797 5.29848C15.769 5.5968 15.7932 5.91083 15.7506 6.21932C15.7081 6.5278 15.5998 6.82354 15.433 7.08653C15.2662 7.34952 15.0449 7.57361 14.784 7.74364C14.5231 7.91367 14.2287 8.02567 13.9208 8.07207C13.6129 8.11846 13.2986 8.09816 12.9992 8.01255C12.9741 7.50152 12.8189 7.00536 12.5482 6.57117C12.2776 6.13698 11.9004 5.77916 11.4526 5.53168C11.5442 5.03186 11.8078 4.57985 12.1978 4.25406C12.5877 3.92826 13.0794 3.74923 13.5875 3.74802ZM10.8035 6.13261C10.8194 6.1391 10.8357 6.14461 10.8522 6.14909C11.3154 6.34631 11.6962 6.69756 11.93 7.14335C12.1639 7.58914 12.2365 8.10206 12.1355 8.59523C12.0345 9.0884 11.7661 9.53151 11.3759 9.84948C10.9856 10.1675 10.4974 10.3408 9.99401 10.3401C9.4906 10.3393 9.00292 10.1646 8.61357 9.84553C8.22422 9.52643 7.95713 9.08256 7.85755 8.5891C7.75797 8.09564 7.83202 7.58293 8.06715 7.13781C8.30229 6.6927 8.68405 6.34254 9.14778 6.14665C9.15958 6.14192 9.17279 6.14082 9.18404 6.1351C9.70255 5.9214 10.2844 5.9205 10.8035 6.1326V6.13261ZM4.22064 5.93145C4.21896 5.38756 4.42096 4.86274 4.78687 4.46034C5.15278 4.05793 5.65609 3.8071 6.19769 3.75722C6.7393 3.70735 7.27995 3.86204 7.7132 4.19085C8.14645 4.51966 8.4409 4.99876 8.53858 5.53381C8.08926 5.78278 7.71133 6.14286 7.44093 6.57961C7.17053 7.01637 7.0167 7.51519 6.99416 8.02838C6.80215 8.08312 6.60374 8.11219 6.4041 8.11485C5.82524 8.11416 5.27028 7.8839 4.86095 7.47459C4.45162 7.06527 4.22135 6.51032 4.22064 5.93145ZM3.22864 14.0312C3.07176 14.0311 2.92135 13.9687 2.81042 13.8578C2.69949 13.7469 2.63711 13.5964 2.63698 13.4396V12.723C2.63743 12.197 2.7476 11.6768 2.96045 11.1958C3.1733 10.7147 3.48415 10.2833 3.87314 9.92922C4.26183 9.57417 4.7211 9.30521 5.22092 9.13994C5.72073 8.97467 6.24981 8.91681 6.77354 8.97015C6.89575 8.98439 7.01014 9.01196 7.12672 9.03567C7.32568 9.69733 7.74545 10.2708 8.31604 10.6604C7.59988 10.9401 6.96554 11.3954 6.47139 11.9845C5.97724 12.5735 5.63914 13.2773 5.48818 14.0312L3.22864 14.0312ZM13.7674 15.6625C13.7672 15.8187 13.7051 15.9686 13.5947 16.0791C13.4842 16.1896 13.3345 16.2518 13.1782 16.2521H6.81669C6.66044 16.2518 6.51068 16.1896 6.40023 16.0791C6.28979 15.9686 6.22768 15.8187 6.22753 15.6625V14.9443C6.22805 14.419 6.3381 13.8995 6.55066 13.4191C6.76323 12.9387 7.07363 12.5079 7.46204 12.1542C8.15282 11.521 9.05668 11.171 9.99378 11.174H9.99389L9.99785 11.1744L9.99928 11.1743C10.122 11.1745 10.2455 11.1803 10.3689 11.1919C11.3199 11.3146 12.1922 11.7835 12.8192 12.509C13.4461 13.2344 13.7837 14.1655 13.7674 15.1242V15.6625ZM17.3619 13.4396C17.3618 13.5965 17.2994 13.7469 17.1885 13.8578C17.0776 13.9687 16.9272 14.0311 16.7703 14.0313H14.4631C14.2967 13.2877 13.9542 12.595 13.4644 12.0113C12.9747 11.4276 12.3519 10.97 11.6486 10.677C12.2329 10.289 12.6638 9.70962 12.8673 9.03838C13.2245 8.96114 13.5914 8.93842 13.9554 8.97099C14.9068 9.09196 15.7802 9.55938 16.4087 10.2839C17.0372 11.0083 17.3765 11.939 17.3619 12.898L17.3619 13.4396Z" fill="#171723"/>
</svg>
