<svg width="20" height="20" viewBox="0 0 20 20" fill="none" xmlns="http://www.w3.org/2000/svg">
<path d="M8.43313 11.5958L7.57487 13.4542C7.53916 13.4473 7.50278 13.4445 7.46643 13.4458C7.35891 13.4455 7.25204 13.4624 7.14986 13.4958L5.56641 10.7458C5.63391 10.6754 5.69269 10.597 5.74147 10.5125L8.11647 10.9792C8.14928 11.2146 8.2609 11.432 8.43313 11.5958Z" fill="#171723"/>
<path d="M5.8665 9.85415C5.84147 9.62229 5.73516 9.40678 5.56641 9.24582L7.14986 6.50415C7.24251 6.52956 7.33732 6.5463 7.43306 6.55415L8.53316 9.99582C8.41725 10.0834 8.32077 10.194 8.24983 10.3208L5.8665 9.85415Z" fill="#171723"/>
<path d="M9.16646 9.79583L8.06641 6.34583C8.07474 6.3375 8.08307 6.3375 8.09141 6.32916L10.6832 8.0375C10.6565 8.12391 10.6425 8.21373 10.6415 8.30416C10.6416 8.46691 10.6816 8.62715 10.7581 8.77083L9.61646 9.90416C9.47705 9.83323 9.32289 9.79612 9.16646 9.79583Z" fill="#171723"/>
<path d="M9.60022 11.7792L11.7002 13.9542C11.6574 14.0354 11.6265 14.1224 11.6085 14.2125H8.46679C8.41786 14.0287 8.31998 13.8617 8.18359 13.7292L9.04189 11.8792C9.08355 11.8792 9.11689 11.8875 9.15855 11.8875C9.31219 11.8862 9.46341 11.8491 9.60022 11.7792Z" fill="#171723"/>
<path d="M11.0502 7.47918L8.4668 5.77917H11.5585C11.6244 6.01218 11.7649 6.21712 11.9585 6.36251L11.6752 7.25417C11.4483 7.26128 11.2296 7.34005 11.0502 7.47918Z" fill="#171723"/>
<path d="M11.2252 9.23748C11.3688 9.31402 11.5291 9.35408 11.6919 9.35414C11.9739 9.35204 12.2436 9.23815 12.4418 9.03748L14.0418 9.82081L10.0918 10.3708L11.2252 9.23748Z" fill="#171723"/>
<path d="M14.2336 10.4625C14.2826 10.5682 14.3504 10.6642 14.4336 10.7459L12.8918 13.4209C12.8042 13.401 12.7149 13.3899 12.6252 13.3875C12.4696 13.3869 12.3158 13.4211 12.1752 13.4875L10.0835 11.3209C10.1304 11.2288 10.1641 11.1306 10.1835 11.0292L14.2336 10.4625Z" fill="#171723"/>
<path d="M12.8585 6.52081L14.4336 9.24581C14.4253 9.24581 14.4253 9.25415 14.4169 9.26248L12.7253 8.43748C12.7349 8.39364 12.7405 8.34901 12.7419 8.30415C12.741 8.13965 12.7013 7.97769 12.626 7.83144C12.5507 7.68519 12.442 7.55879 12.3086 7.46252L12.5919 6.56252C12.6823 6.56152 12.7721 6.54747 12.8585 6.52081Z" fill="#171723"/>
<path d="M14.8582 1.80414H5.14144C4.70367 1.80403 4.27017 1.89017 3.8657 2.05765C3.46123 2.22513 3.09372 2.47065 2.78417 2.7802C2.47462 3.08976 2.22909 3.45726 2.06162 3.86173C1.89414 4.2662 1.808 4.6997 1.80811 5.13747V14.8625C1.80928 15.7462 2.16085 16.5933 2.78571 17.2182C3.41058 17.8431 4.25774 18.1946 5.14144 18.1958H14.8582C15.7419 18.1946 16.5891 17.8431 17.214 17.2182C17.8388 16.5933 18.1904 15.7462 18.1916 14.8625V5.13747C18.1917 4.6997 18.1055 4.2662 17.9381 3.86173C17.7706 3.45726 17.5251 3.08976 17.2155 2.7802C16.906 2.47065 16.5384 2.22513 16.134 2.05765C15.7295 1.89017 15.296 1.80403 14.8582 1.80414ZM15.1665 11.0458C15.1244 11.0444 15.0826 11.0388 15.0416 11.0291L13.4499 13.7875C13.5976 13.9717 13.677 14.2014 13.6748 14.4375C13.6739 14.6748 13.5924 14.9047 13.4435 15.0895C13.2946 15.2743 13.0873 15.403 12.8556 15.4544C12.6239 15.5058 12.3816 15.4768 12.1686 15.3723C11.9555 15.2677 11.7844 15.0938 11.6833 14.8791H8.44151C8.3624 15.0731 8.22752 15.2391 8.05395 15.3563C7.88038 15.4735 7.67593 15.5366 7.46651 15.5375C7.27442 15.5381 7.08586 15.4859 6.92149 15.3865C6.75712 15.2871 6.62328 15.1444 6.53463 14.974C6.44599 14.8036 6.40596 14.6121 6.41893 14.4204C6.4319 14.2288 6.49737 14.0444 6.60817 13.8875L4.95817 11.0291C4.91718 11.0388 4.87534 11.0444 4.83326 11.0458C4.55478 11.0458 4.28771 10.9352 4.09079 10.7383C3.89388 10.5414 3.78326 10.2743 3.78326 9.9958C3.78326 9.71733 3.89388 9.45026 4.09079 9.25334C4.28771 9.05643 4.55478 8.9458 4.83326 8.9458C4.87534 8.94725 4.91718 8.95283 4.95817 8.96247L6.59984 6.1208C6.4862 5.96409 6.41809 5.77902 6.40303 5.58603C6.38797 5.39304 6.42654 5.19964 6.51449 5.02719C6.60243 4.85475 6.73633 4.70996 6.9014 4.60884C7.06646 4.50771 7.25626 4.45417 7.44984 4.45414C7.65846 4.45401 7.86229 4.51676 8.03472 4.63419C8.20716 4.75163 8.3402 4.9183 8.41651 5.11247H11.5998C11.6813 4.92151 11.8172 4.7588 11.9907 4.64467C12.1641 4.53054 12.3673 4.47007 12.5749 4.4708C12.8512 4.47091 13.1161 4.58069 13.3114 4.77602C13.5067 4.97135 13.6165 5.23624 13.6166 5.51247C13.6178 5.73805 13.5446 5.95772 13.4083 6.13747L15.0416 8.96247C15.0826 8.95283 15.1244 8.94725 15.1665 8.9458C15.445 8.9458 15.7121 9.05643 15.909 9.25334C16.1059 9.45026 16.2165 9.71733 16.2165 9.9958C16.2165 10.2743 16.1059 10.5414 15.909 10.7383C15.7121 10.9352 15.445 11.0458 15.1665 11.0458H15.1665Z" fill="#171723"/>
</svg>
