<svg width="20" height="20" viewBox="0 0 20 20" fill="none" xmlns="http://www.w3.org/2000/svg">
<path d="M18.1629 10.1284C18.1883 10.0603 18.1951 9.98659 18.1827 9.91492C18.1803 9.89808 18.1769 9.88141 18.1723 9.86502C18.1555 9.79346 18.1196 9.72783 18.0683 9.67516L16.8908 8.52282C16.8518 8.48393 16.8055 8.45316 16.7545 8.43228C16.7036 8.4114 16.649 8.40082 16.5939 8.40116C16.5389 8.4015 16.4844 8.41275 16.4338 8.43426C16.3831 8.45577 16.3372 8.48711 16.2987 8.52647C16.2601 8.56583 16.2298 8.61243 16.2095 8.66358C16.1891 8.71472 16.179 8.76941 16.1799 8.82446C16.1808 8.87951 16.1926 8.93384 16.2146 8.98432C16.2366 9.03479 16.2683 9.0804 16.3081 9.11852L16.7557 9.55634H10.3893V3.21265L10.8881 3.70022C10.9674 3.77633 11.0734 3.81807 11.1833 3.81636C11.2931 3.81466 11.3979 3.76964 11.4747 3.6911C11.5515 3.61257 11.5942 3.50687 11.5935 3.39702C11.5927 3.28716 11.5487 3.18204 11.4708 3.10451L10.264 1.92491C10.2272 1.89044 10.1845 1.86294 10.138 1.84378L10.1297 1.83702L10.1272 1.83676C10.0597 1.81194 9.98683 1.80518 9.9159 1.81718C9.89857 1.81954 9.88142 1.82307 9.86458 1.82776C9.79307 1.8444 9.72745 1.88024 9.67481 1.93142L8.52243 3.10899C8.48359 3.14798 8.45287 3.19428 8.43203 3.24522C8.41119 3.29615 8.40064 3.35071 8.401 3.40574C8.40136 3.46077 8.41262 3.51519 8.43413 3.56584C8.45564 3.6165 8.48697 3.66239 8.52631 3.70088C8.56565 3.73936 8.61223 3.76966 8.66334 3.79005C8.71446 3.81043 8.76911 3.82048 8.82414 3.81963C8.87917 3.81877 8.93348 3.80702 8.98394 3.78506C9.0344 3.7631 9.08001 3.73136 9.11814 3.69167L9.55596 3.24449V9.55634H3.24409L3.69168 9.11852C3.76943 9.04097 3.81342 8.93588 3.8141 8.82608C3.81477 8.71628 3.77208 8.61065 3.6953 8.53215C3.61852 8.45366 3.51386 8.40864 3.40407 8.40689C3.29428 8.40515 3.18824 8.4468 3.109 8.52282L1.93143 9.67516C1.88017 9.72782 1.84422 9.79345 1.82743 9.86501C1.82289 9.8814 1.81944 9.89806 1.8171 9.91491C1.80464 9.98657 1.81145 10.0603 1.83683 10.1284L1.83703 10.1305L1.84263 10.1373C1.86198 10.1843 1.88988 10.2274 1.92493 10.2643L3.10409 11.4708C3.14221 11.5106 3.18782 11.5424 3.23829 11.5644C3.28877 11.5864 3.3431 11.5981 3.39815 11.599C3.4532 11.5999 3.50788 11.5899 3.55903 11.5695C3.61018 11.5491 3.65678 11.5188 3.69614 11.4803C3.7355 11.4418 3.76684 11.3958 3.78835 11.3452C3.80986 11.2945 3.8211 11.24 3.82144 11.185C3.82178 11.1299 3.81121 11.0753 3.79033 11.0244C3.76945 10.9734 3.73868 10.9271 3.69979 10.8882L3.21258 10.3897H9.55592V16.7557L9.11809 16.3085C9.04057 16.2306 8.93545 16.1866 8.82559 16.1859C8.71574 16.1851 8.61004 16.2278 8.53151 16.3046C8.45297 16.3815 8.40795 16.4862 8.40624 16.596C8.40454 16.7059 8.44628 16.812 8.52239 16.8912L9.67474 18.0683C9.73241 18.1275 9.80643 18.1681 9.88732 18.1849C9.96821 18.2018 10.0523 18.1941 10.1288 18.1629L10.1296 18.1627L10.132 18.1608C10.1811 18.1408 10.2258 18.1116 10.2639 18.0748L11.4708 16.8957C11.5485 16.8181 11.5925 16.713 11.5932 16.6032C11.5939 16.4934 11.5512 16.3878 11.4744 16.3093C11.3976 16.2308 11.2929 16.1858 11.1832 16.1841C11.0734 16.1823 10.9673 16.224 10.8881 16.3L10.3892 16.7874V10.3897H16.7871L16.2999 10.8881C16.261 10.9271 16.2302 10.9734 16.2093 11.0244C16.1885 11.0753 16.1779 11.1299 16.1782 11.1849C16.1786 11.24 16.1898 11.2944 16.2113 11.3451C16.2328 11.3958 16.2642 11.4417 16.3035 11.4802C16.3429 11.5187 16.3895 11.5491 16.4406 11.5694C16.4918 11.5898 16.5465 11.5999 16.6015 11.599C16.6566 11.5981 16.7109 11.5863 16.7614 11.5643C16.8118 11.5423 16.8575 11.5105 16.8956 11.4708L18.0747 10.2643C18.1098 10.2274 18.1377 10.1844 18.157 10.1373L18.1626 10.1305L18.1629 10.1284Z" fill="#171723"/>
</svg>
