<svg width="20" height="20" viewBox="0 0 20 20" fill="none" xmlns="http://www.w3.org/2000/svg">
<path d="M10.5381 3.54297H10.2574C9.90654 3.54367 9.5702 3.68289 9.32152 3.93034L6.22736 7.02441C6.13541 7.11589 6.01122 7.16762 5.88152 7.16845H3.99105C3.52028 7.16903 3.06895 7.3563 2.73606 7.68919C2.40318 8.02208 2.21591 8.4734 2.21533 8.94418V11.056C2.21592 11.5268 2.40319 11.9781 2.73607 12.311C3.06896 12.6438 3.52028 12.8311 3.99105 12.8317H5.88152C6.01116 12.8321 6.13542 12.8835 6.22736 12.9749L9.32224 16.0706C9.57109 16.3172 9.90695 16.4561 10.2573 16.4572H10.5381C10.7966 16.457 11.0445 16.3542 11.2273 16.1714C11.41 15.9886 11.5128 15.7407 11.513 15.4822V4.5179C11.5128 4.25939 11.4101 4.01152 11.2273 3.82872C11.0445 3.64593 10.7966 3.54315 10.5381 3.54297ZM10.6797 15.4823C10.6797 15.5198 10.6648 15.5558 10.6382 15.5824C10.6116 15.6089 10.5756 15.6238 10.5381 15.6239H10.2574C10.1275 15.6235 10.0029 15.5721 9.91069 15.4806L6.81576 12.3849C6.69317 12.2621 6.54754 12.1648 6.38721 12.0984C6.22689 12.0321 6.05503 11.9981 5.88152 11.9983H3.99105C3.74116 11.9982 3.50155 11.8989 3.32485 11.7222C3.14815 11.5455 3.04882 11.3058 3.04867 11.056V8.94418C3.04882 8.69429 3.14815 8.45467 3.32485 8.27797C3.50155 8.10127 3.74116 8.00194 3.99105 8.00179H5.88152C6.05531 8.00214 6.22744 7.96801 6.38794 7.90138C6.54845 7.83474 6.69414 7.73693 6.81658 7.6136L9.91069 4.51953C10.0029 4.42798 10.1274 4.37651 10.2574 4.3763H10.5381C10.5757 4.37632 10.6117 4.39124 10.6382 4.4178C10.6648 4.44435 10.6797 4.48035 10.6797 4.5179L10.6797 15.4823Z" fill="#171723"/>
<path d="M15.8622 10.0001L17.6631 8.19954C17.7024 8.16099 17.7337 8.11504 17.7552 8.06432C17.7766 8.01361 17.7878 7.95915 17.7881 7.90408C17.7884 7.84901 17.7777 7.79444 17.7568 7.74351C17.7358 7.69259 17.705 7.64632 17.6661 7.60738C17.6271 7.56844 17.5809 7.53761 17.5299 7.51666C17.479 7.49572 17.4244 7.48508 17.3694 7.48536C17.3143 7.48563 17.2598 7.49683 17.2091 7.51828C17.1584 7.53974 17.1125 7.57104 17.0739 7.61037L15.273 9.41096L13.472 7.61034C13.3936 7.53351 13.2881 7.49072 13.1783 7.49128C13.0685 7.49183 12.9634 7.53568 12.8858 7.6133C12.8082 7.69091 12.7643 7.79603 12.7638 7.90579C12.7632 8.01556 12.806 8.12111 12.8828 8.1995L14.6837 10L12.8828 11.8006C12.8435 11.8391 12.8122 11.8851 12.7907 11.9358C12.7693 11.9865 12.7581 12.041 12.7578 12.096C12.7575 12.1511 12.7682 12.2057 12.7891 12.2566C12.8101 12.3075 12.8409 12.3538 12.8798 12.3927C12.9188 12.4317 12.965 12.4625 13.016 12.4834C13.0669 12.5044 13.1215 12.515 13.1765 12.5148C13.2316 12.5145 13.2861 12.5033 13.3368 12.4818C13.3875 12.4604 13.4335 12.4291 13.472 12.3897L15.2729 10.5892L17.0739 12.3897C17.1124 12.4291 17.1584 12.4604 17.2091 12.4818C17.2598 12.5033 17.3143 12.5145 17.3693 12.5148C17.4244 12.515 17.479 12.5044 17.5299 12.4834C17.5808 12.4625 17.6271 12.4317 17.666 12.3927C17.705 12.3538 17.7358 12.3075 17.7568 12.2566C17.7777 12.2057 17.7883 12.1511 17.7881 12.096C17.7878 12.041 17.7766 11.9865 17.7551 11.9358C17.7337 11.8851 17.7024 11.8391 17.6631 11.8006L15.8622 10.0001Z" fill="#171723"/>
</svg>
