<svg width="20" height="20" viewBox="0 0 20 20" fill="none" xmlns="http://www.w3.org/2000/svg">
<path d="M16.7829 9.93189C16.7444 9.89233 16.6984 9.86089 16.6476 9.83942C16.5968 9.81795 16.5422 9.80688 16.487 9.80688C16.4319 9.80688 16.3773 9.81795 16.3264 9.83942C16.2756 9.86089 16.2296 9.89233 16.1912 9.93189L15.9578 10.1653C15.8895 10.1333 15.8161 10.1136 15.741 10.107L13.4156 9.84857C13.2739 9.8312 13.1302 9.847 12.9956 9.89473C12.8611 9.94245 12.7395 10.0208 12.6405 10.1236L9.84824 12.9075C9.67202 13.0863 9.57324 13.3273 9.57324 13.5784C9.57324 13.8295 9.67202 14.0705 9.84824 14.2493L12.4405 16.8415C12.6193 17.0178 12.8603 17.1166 13.1114 17.1166C13.3625 17.1166 13.6035 17.0178 13.7823 16.8415L16.5662 14.0494C16.669 13.9503 16.7473 13.8287 16.7951 13.6942C16.8428 13.5597 16.8586 13.4159 16.8413 13.2742L16.5829 10.9405C16.5739 10.8783 16.5599 10.817 16.5412 10.7571L16.7746 10.5237C16.8538 10.4461 16.8991 10.3404 16.9006 10.2295C16.9022 10.1187 16.8599 10.0117 16.7829 9.93189ZM13.3655 15.9079C13.3279 15.9474 13.2827 15.9788 13.2325 16.0003C13.1824 16.0218 13.1285 16.0329 13.0739 16.033C13.0181 16.033 12.9629 16.0219 12.9114 16.0005C12.8599 15.979 12.8131 15.9476 12.7738 15.9079L10.7735 13.8993C10.734 13.8617 10.7025 13.8164 10.681 13.7663C10.6595 13.7161 10.6485 13.6621 10.6485 13.6076C10.6485 13.553 10.6595 13.499 10.681 13.4489C10.7025 13.3987 10.734 13.3534 10.7735 13.3158C10.812 13.2763 10.858 13.2448 10.9088 13.2234C10.9596 13.2019 11.0142 13.1908 11.0694 13.1908C11.1246 13.1908 11.1792 13.2019 11.23 13.2234C11.2808 13.2448 11.3268 13.2763 11.3653 13.3158L13.3655 15.3162C13.4051 15.3547 13.4366 15.4006 13.4581 15.4515C13.4795 15.5023 13.4906 15.5569 13.4906 15.6121C13.4906 15.6672 13.4795 15.7219 13.4581 15.7727C13.4366 15.8235 13.4051 15.8695 13.3655 15.9079ZM14.4825 14.7911C14.4448 14.8305 14.3996 14.8619 14.3494 14.8834C14.2993 14.9049 14.2454 14.916 14.1908 14.9161C14.135 14.9161 14.0798 14.905 14.0283 14.8836C13.9768 14.8621 13.9301 14.8307 13.8908 14.7911L11.8904 12.7824C11.8509 12.7448 11.8194 12.6995 11.7979 12.6494C11.7764 12.5992 11.7653 12.5452 11.7653 12.4907C11.7653 12.4361 11.7764 12.3821 11.7979 12.332C11.8194 12.2819 11.8509 12.2366 11.8904 12.199C11.9289 12.1594 11.9749 12.128 12.0257 12.1065C12.0765 12.085 12.1311 12.074 12.1863 12.074C12.2414 12.074 12.2961 12.085 12.3469 12.1065C12.3977 12.128 12.4437 12.1594 12.4821 12.199L14.4825 14.1993C14.5221 14.2378 14.5535 14.2838 14.575 14.3346C14.5964 14.3854 14.6075 14.44 14.6075 14.4952C14.6075 14.5504 14.5964 14.605 14.575 14.6558C14.5535 14.7066 14.522 14.7526 14.4825 14.7911ZM15.3744 12.674C15.2855 12.7638 15.1797 12.8351 15.0631 12.8838C14.9465 12.9324 14.8214 12.9575 14.695 12.9575C14.5687 12.9575 14.4436 12.9324 14.327 12.8838C14.2104 12.8351 14.1046 12.7638 14.0157 12.674C13.8614 12.52 13.7642 12.3181 13.7399 12.1015C13.7157 11.8848 13.7659 11.6664 13.8823 11.4821C13.9987 11.2978 14.1744 11.1586 14.3804 11.0875C14.5865 11.0163 14.8106 11.0173 15.0159 11.0904L14.6491 11.4488L14.3992 11.6988C14.3211 11.7774 14.2772 11.8838 14.2772 11.9947C14.2772 12.1055 14.3211 12.2119 14.3992 12.2906C14.4791 12.3634 14.5827 12.4049 14.6908 12.4073C14.7461 12.4088 14.8011 12.3993 14.8526 12.3792C14.9042 12.3592 14.9511 12.329 14.9908 12.2906L15.2408 12.0489L15.5994 11.6905C15.6585 11.8589 15.6687 12.0407 15.6289 12.2148C15.5891 12.3888 15.5009 12.548 15.3744 12.674Z" fill="#171723"/>
<path d="M16.9354 8.4707H11.5236V3.06421C11.5232 2.73062 11.3905 2.41081 11.1547 2.17489C10.9188 1.93897 10.5991 1.80619 10.2655 1.80566H3.06413C2.73042 1.80602 2.41047 1.93872 2.17446 2.17465C1.93845 2.41058 1.80564 2.73049 1.80518 3.06421V10.2651C1.80564 10.5988 1.93845 10.9188 2.17446 11.1547C2.41047 11.3906 2.73042 11.5233 3.06413 11.5237H8.47022V16.9359C8.4706 17.2696 8.60336 17.5896 8.83938 17.8257C9.07539 18.0617 9.39539 18.1944 9.72917 18.1948H16.9354C17.2692 18.1944 17.5892 18.0617 17.8252 17.8257C18.0612 17.5896 18.194 17.2696 18.1943 16.9359V9.72965C18.194 9.39587 18.0612 9.07587 17.8252 8.83986C17.5892 8.60384 17.2692 8.47108 16.9354 8.4707ZM3.06413 10.6903C3.0081 10.691 2.95251 10.6804 2.90062 10.6592C2.84873 10.6381 2.80159 10.6068 2.76195 10.5672C2.72231 10.5276 2.69097 10.4805 2.66977 10.4286C2.64858 10.3767 2.63795 10.3212 2.63851 10.2651V3.06421C2.63795 3.00818 2.64858 2.9526 2.66978 2.90073C2.69097 2.84886 2.72231 2.80174 2.76195 2.76214C2.80159 2.72254 2.84874 2.69125 2.90063 2.6701C2.95252 2.64896 3.0081 2.63838 3.06413 2.639H10.2655C10.3215 2.6384 10.377 2.64899 10.4288 2.67015C10.4807 2.69131 10.5278 2.72262 10.5673 2.76223C10.6069 2.80184 10.6382 2.84895 10.6593 2.90081C10.6804 2.95267 10.6909 3.00822 10.6903 3.06421V8.4707H9.72917C9.52472 8.47212 9.32378 8.52398 9.14417 8.62166L6.99403 3.46866C6.9704 3.41173 6.9304 3.3631 6.87911 3.32891C6.82782 3.29473 6.76753 3.27654 6.70589 3.27665H6.62288C6.56125 3.27655 6.50097 3.29475 6.44969 3.32894C6.3984 3.36313 6.35842 3.41177 6.3348 3.46871L3.76726 9.61979C3.75295 9.67005 3.75102 9.72302 3.76165 9.77419C3.77228 9.82535 3.79515 9.87317 3.82829 9.91357C3.86378 9.95721 3.90858 9.99236 3.95942 10.0164C4.01025 10.0405 4.06583 10.0529 4.12208 10.0527C4.19804 10.0549 4.27282 10.0337 4.3363 9.99189C4.39977 9.9501 4.44885 9.88981 4.47689 9.81918L5.25569 7.95231H8.07308L8.59249 9.19742C8.51285 9.36359 8.47108 9.54538 8.47022 9.72965V10.6903H3.06413ZM7.78012 7.23901H5.54704L6.66439 4.55831L7.78012 7.23901ZM17.361 16.9359C17.3608 17.0487 17.3159 17.1568 17.2361 17.2366C17.1563 17.3163 17.0482 17.3613 16.9354 17.3615H9.72917C9.61636 17.3613 9.50824 17.3163 9.42847 17.2366C9.3487 17.1568 9.30378 17.0487 9.30355 16.9359V11.1232C9.30381 11.1175 9.30681 11.1128 9.30681 11.107C9.30681 11.1013 9.30381 11.0965 9.30355 11.0908V9.72965C9.30372 9.61682 9.34861 9.50866 9.42839 9.42887C9.50818 9.34909 9.61634 9.3042 9.72917 9.30403H11.0928C11.0978 9.30419 11.1019 9.30688 11.107 9.30688C11.112 9.30688 11.1161 9.30419 11.1211 9.30403H16.9354C17.0483 9.3042 17.1564 9.34909 17.2362 9.42887C17.316 9.50865 17.3609 9.61682 17.3611 9.72965L17.361 16.9359Z" fill="#171723"/>
</svg>
