<svg width="20" height="20" viewBox="0 0 20 20" fill="none" xmlns="http://www.w3.org/2000/svg">
<g clip-path="url(#clip0_5313_35178)">
<path d="M13.5863 6.41373C13.3436 5.37792 12.8286 4.42578 12.0943 3.65588C11.3601 2.88599 10.4335 2.3263 9.41038 2.03477C8.38725 1.74323 7.30478 1.73044 6.27505 1.99772C5.24531 2.265 4.30572 2.80264 3.55353 3.55498C2.80134 4.30731 2.26389 5.24701 1.99682 6.2768C1.72974 7.3066 1.74275 8.38905 2.03448 9.41213C2.32622 10.4352 2.88609 11.3617 3.65613 12.0958C4.42618 12.8298 5.37842 13.3447 6.41428 13.5872C6.65703 14.6229 7.17215 15.5748 7.90633 16.3446C8.64051 17.1143 9.56707 17.6739 10.5901 17.9653C11.6131 18.2568 12.6955 18.2695 13.7251 18.0023C14.7547 17.735 15.6942 17.1974 16.4463 16.4452C17.1984 15.6929 17.7358 14.7533 18.0028 13.7237C18.2699 12.694 18.2569 11.6117 17.9653 10.5887C17.6736 9.56571 17.1139 8.63927 16.344 7.90524C15.5741 7.17121 14.622 6.65628 13.5863 6.41373ZM2.63899 7.77874C2.63879 6.54762 3.08061 5.35736 3.88405 4.42455C4.68749 3.49174 5.79914 2.8784 7.01669 2.69615C8.23425 2.51389 9.47676 2.77485 10.5181 3.43151C11.5595 4.08817 12.3305 5.0969 12.6908 6.27412C12.5358 6.26202 12.3805 6.25042 12.2223 6.25042C10.6391 6.25226 9.12127 6.88201 8.00177 8.00152C6.88226 9.12102 6.25252 10.6389 6.25067 12.2221C6.25067 12.3806 6.26227 12.5362 6.27443 12.6915C5.22303 12.3686 4.30275 11.7173 3.6485 10.8332C2.99425 9.94908 2.64046 8.87861 2.63899 7.77874ZM7.08399 12.2221C7.08399 12.1881 7.08841 12.1552 7.08908 12.1214L7.87658 12.9121C7.84352 12.9127 7.81138 12.9171 7.77816 12.9171C7.56125 12.9156 7.34465 12.9004 7.12966 12.8715C7.10073 12.6562 7.08548 12.4393 7.08399 12.2221V12.2221ZM8.92465 12.7836L7.21867 11.0709C7.28037 10.7994 7.36424 10.5334 7.46943 10.2756L9.7205 12.5333C9.46251 12.6383 9.19634 12.7221 8.92465 12.7836V12.7836ZM10.4975 12.1307L7.87297 9.49856C8.00417 9.28829 8.15033 9.08775 8.31034 8.89847L11.1022 11.6903C10.9115 11.8516 10.7094 11.9987 10.4975 12.1307V12.1307ZM11.6913 11.1011L8.89958 8.30931C9.08908 8.14919 9.28988 8.00294 9.50041 7.87169L12.1291 10.4997C11.9978 10.7104 11.8515 10.9114 11.6913 11.1011V11.1011ZM11.0718 7.21823L12.7822 8.92859C12.7206 9.20009 12.6368 9.46608 12.5316 9.72387L10.2762 7.46898C10.5341 7.36377 10.8002 7.2799 11.0718 7.21823ZM12.9165 7.77874C12.9165 7.81272 12.9121 7.84562 12.9114 7.87944L12.1208 7.08889C12.1549 7.08822 12.1881 7.08375 12.2223 7.08375C12.4392 7.08522 12.6558 7.10042 12.8708 7.12927C12.8997 7.34458 12.915 7.5615 12.9165 7.77874ZM12.2223 17.3604C11.1227 17.359 10.0524 17.0055 9.16835 16.3516C8.28428 15.6977 7.63291 14.7778 7.30972 13.7267C7.46472 13.7388 7.62003 13.7504 7.77816 13.7504C8.56035 13.7508 9.33494 13.597 10.0577 13.2979C10.7804 12.9988 11.4371 12.5601 11.9902 12.0071L12.001 11.9999L12.0086 11.9885C12.4162 11.5789 12.7626 11.1126 13.037 10.6041L13.0442 10.5892C13.5081 9.72512 13.7505 8.75949 13.7498 7.77874C13.7498 7.6203 13.7382 7.46466 13.7261 7.30927C14.9032 7.66948 15.9119 8.44034 16.5685 9.48157C17.2252 10.5228 17.4862 11.7652 17.3041 12.9827C17.1219 14.2001 16.5087 15.3117 15.5761 16.1152C14.6434 16.9186 13.4533 17.3605 12.2223 17.3604L12.2223 17.3604Z" fill="#171723"/>
</g>
<defs>
<clipPath id="clip0_5313_35178">
<rect width="20" height="20" fill="white"/>
</clipPath>
</defs>
</svg>
