<svg width="20" height="20" viewBox="0 0 20 20" fill="none" xmlns="http://www.w3.org/2000/svg">
<g clip-path="url(#clip0_10314_145662)">
<path d="M10.0002 18.1948C8.37944 18.1949 6.79508 17.7144 5.44744 16.814C4.0998 15.9137 3.04942 14.6339 2.42911 13.1366C1.80881 11.6392 1.64645 9.99159 1.96255 8.40198C2.27866 6.81237 3.05905 5.35219 4.20502 4.2061C5.351 3.06001 6.81109 2.27948 8.40067 1.96321C9.99025 1.64693 11.6379 1.80913 13.1353 2.42928C14.6327 3.04944 15.9126 4.09969 16.8131 5.44724C17.7136 6.79479 18.1943 8.3791 18.1943 9.99984C18.192 12.1724 17.328 14.2554 15.7918 15.7917C14.2557 17.3281 12.1728 18.1923 10.0002 18.1948ZM10.0002 2.639C8.54423 2.63892 7.12095 3.07059 5.91033 3.87942C4.69972 4.68826 3.75614 5.83792 3.19893 7.18303C2.64173 8.52814 2.49591 10.0083 2.77994 11.4363C3.06396 12.8642 3.76506 14.1759 4.79457 15.2054C5.82409 16.235 7.13578 16.9361 8.56376 17.2201C9.99174 17.5041 11.4719 17.3583 12.817 16.8011C14.1621 16.2439 15.3118 15.3003 16.1206 14.0897C16.9294 12.8791 17.3611 11.4558 17.361 9.99984C17.3587 8.04834 16.5824 6.17743 15.2025 4.79751C13.8226 3.4176 11.9517 2.64134 10.0002 2.63901V2.639Z" fill="#171723"/>
<path d="M9.80699 12.456C9.75227 12.456 9.69807 12.4452 9.64751 12.4243C9.59694 12.4034 9.55099 12.3727 9.5123 12.334C9.4736 12.2953 9.44291 12.2493 9.42198 12.1988C9.40105 12.1482 9.3903 12.094 9.39033 12.0393V11.1335C9.39078 10.8117 9.51887 10.5032 9.74649 10.2757C9.97412 10.0483 10.2827 9.92038 10.6045 9.92014C10.8942 9.92025 11.1774 9.83443 11.4184 9.67354C11.6593 9.51266 11.8471 9.28393 11.958 9.01629C12.0689 8.74866 12.098 8.45414 12.0415 8.17C11.985 7.88585 11.8455 7.62484 11.6406 7.41999C11.4358 7.21513 11.1748 7.07564 10.8906 7.01914C10.6065 6.96265 10.312 6.99169 10.0443 7.10261C9.77669 7.21352 9.54796 7.40132 9.38707 7.64225C9.22618 7.88317 9.14036 8.1664 9.14047 8.45611C9.14047 8.56662 9.09657 8.6726 9.01843 8.75074C8.94029 8.82888 8.83431 8.87278 8.7238 8.87278C8.61329 8.87278 8.50731 8.82888 8.42917 8.75074C8.35103 8.6726 8.30713 8.56662 8.30713 8.45611C8.30638 8.11065 8.3839 7.76951 8.53388 7.45829C8.68385 7.14708 8.90237 6.87389 9.17304 6.65923C9.44649 6.4423 9.76549 6.29008 10.1061 6.21397C10.4468 6.13787 10.8002 6.13985 11.14 6.21978C11.554 6.31571 11.9328 6.52588 12.2334 6.82641C12.5339 7.12693 12.7441 7.50574 12.84 7.91978C12.9203 8.2596 12.9225 8.61319 12.8465 8.954C12.7706 9.29481 12.6184 9.61398 12.4014 9.88754C12.1867 10.1582 11.9135 10.3767 11.6023 10.5267C11.2911 10.6767 10.9499 10.7542 10.6045 10.7534C10.5036 10.7534 10.4068 10.7934 10.3354 10.8646C10.264 10.9359 10.2238 11.0326 10.2237 11.1335V12.0392C10.2237 12.094 10.2129 12.1482 10.192 12.1987C10.1711 12.2493 10.1404 12.2953 10.1017 12.334C10.063 12.3727 10.0171 12.4034 9.96649 12.4243C9.91592 12.4452 9.86172 12.456 9.80699 12.456Z" fill="#171723"/>
<path d="M9.99984 14.4817C10.322 14.4817 10.5832 14.2206 10.5832 13.8984C10.5832 13.5762 10.322 13.3151 9.99984 13.3151C9.67767 13.3151 9.4165 13.5762 9.4165 13.8984C9.4165 14.2206 9.67767 14.4817 9.99984 14.4817Z" fill="#171723"/>
</g>
<defs>
<clipPath id="clip0_10314_145662">
<rect width="20" height="20" fill="white"/>
</clipPath>
</defs>
</svg>
