<svg width="20" height="20" viewBox="0 0 20 20" fill="none" xmlns="http://www.w3.org/2000/svg">
<path d="M2.22331 8.47229H8.88997C9.12009 8.47229 9.30664 8.65884 9.30664 8.88896V17.7696C9.30664 17.9997 9.12009 18.1862 8.88997 18.1862H2.22331C1.99319 18.1862 1.80664 17.9997 1.80664 17.7696V8.88896C1.80664 8.65884 1.99319 8.47229 2.22331 8.47229Z" fill="#171723"/>
<path d="M11.1125 1.81372H17.7767C18.0068 1.81372 18.1934 2.00027 18.1934 2.23039V11.111C18.1934 11.3411 18.0068 11.5277 17.7767 11.5277H11.1125C10.8823 11.5277 10.6958 11.3411 10.6958 11.111V2.23039C10.6958 2.00027 10.8823 1.81372 11.1125 1.81372Z" fill="#171723"/>
<path d="M2.22477 1.81372H8.889C9.11912 1.81372 9.30566 2.00027 9.30566 2.23039V6.6709C9.30566 6.90101 9.11912 7.08756 8.889 7.08756H2.22477C1.99465 7.08756 1.80811 6.90101 1.80811 6.6709V2.23039C1.80811 2.00027 1.99465 1.81372 2.22477 1.81372Z" fill="#171723"/>
<path d="M11.1125 12.9169H17.7767C18.0068 12.9169 18.1934 13.1034 18.1934 13.3335V17.7688C18.1934 17.9989 18.0068 18.1854 17.7767 18.1854H11.1125C10.8823 18.1854 10.6958 17.9989 10.6958 17.7688V13.3335C10.6958 13.1034 10.8823 12.9169 11.1125 12.9169Z" fill="#171723"/>
</svg>
