<svg width="20" height="20" viewBox="0 0 20 20" fill="none" xmlns="http://www.w3.org/2000/svg">
<g clip-path="url(#clip0_5313_35095)">
<path d="M17.8272 14.0151C17.8514 13.9479 17.8578 13.8755 17.8455 13.8051C17.8431 13.7862 17.8392 13.7675 17.8339 13.7491C17.8168 13.6836 17.7835 13.6234 17.7371 13.5741C17.7337 13.5705 17.7338 13.565 17.7302 13.5615L15.1333 11.0428C15.094 11.0048 15.0475 10.9748 14.9967 10.9547C14.9458 10.9346 14.8914 10.9248 14.8367 10.9257C14.782 10.9266 14.728 10.9382 14.6778 10.96C14.6276 10.9818 14.5822 11.0132 14.5441 11.0526C14.5061 11.0919 14.4761 11.1383 14.456 11.1892C14.4359 11.2401 14.4261 11.2945 14.427 11.3492C14.4279 11.4039 14.4396 11.4579 14.4613 11.5081C14.4831 11.5583 14.5146 11.6037 14.5539 11.6418L16.4126 13.4443L6.39389 13.446C5.98751 13.4456 5.59787 13.2841 5.31044 12.9968C5.023 12.7095 4.86126 12.32 4.86068 11.9136V3.46794C4.86068 3.35743 4.81678 3.25145 4.73864 3.17331C4.6605 3.09517 4.55452 3.05127 4.44401 3.05127C4.3335 3.05127 4.22752 3.09517 4.14938 3.17331C4.07124 3.25145 4.02734 3.35743 4.02734 3.46794V11.9136C4.02822 12.5409 4.27786 13.1422 4.7215 13.5857C5.16515 14.0292 5.76658 14.2786 6.39389 14.2793L16.4546 14.2778L14.5449 16.2414C14.5064 16.2805 14.4761 16.3269 14.4556 16.3778C14.4351 16.4288 14.4248 16.4832 14.4255 16.5381C14.4261 16.593 14.4375 16.6472 14.4592 16.6977C14.4808 16.7481 14.5122 16.7938 14.5516 16.8321C14.5909 16.8704 14.6375 16.9005 14.6885 16.9207C14.7395 16.941 14.794 16.9509 14.8489 16.95C14.9038 16.9491 14.958 16.9374 15.0083 16.9155C15.0587 16.8936 15.1042 16.862 15.1423 16.8224L17.7383 14.1532C17.7736 14.1158 17.8017 14.0722 17.8211 14.0245L17.827 14.0173L17.8272 14.0151Z" fill="#171723"/>
</g>
<defs>
<clipPath id="clip0_5313_35095">
<rect width="20" height="20" fill="white"/>
</clipPath>
</defs>
</svg>
