<svg width="20" height="20" viewBox="0 0 20 20" fill="none" xmlns="http://www.w3.org/2000/svg">
<g clip-path="url(#clip0_5313_35174)">
<path d="M16.8774 5.33256C16.8748 5.3077 16.8699 5.28315 16.8626 5.25922C16.8304 4.6647 16.5811 4.10266 16.1621 3.67968L15.0097 2.52494C14.5489 2.06571 13.9253 1.80715 13.2748 1.80554H5.57371C4.92396 1.80619 4.30099 2.06453 3.84147 2.5239C3.38196 2.98327 3.12341 3.60615 3.12256 4.2559V15.7443C3.12341 16.3941 3.38196 17.017 3.84148 17.4763C4.301 17.9357 4.92397 18.1941 5.57372 18.1947H14.4271C15.0767 18.1939 15.6995 17.9355 16.1588 17.4761C16.6182 17.0168 16.8766 16.394 16.8774 15.7443V5.41068C16.8774 5.39283 16.8726 5.37584 16.8723 5.35804C16.8728 5.34917 16.8774 5.34161 16.8774 5.33256ZM15.5713 4.2681C15.7503 4.45011 15.8834 4.67218 15.9594 4.91589H13.7663V2.72417C14.012 2.80034 14.236 2.93404 14.4197 3.11417L15.5713 4.2681ZM14.4271 17.3614H5.57371C5.14488 17.361 4.73371 17.1906 4.43041 16.8874C4.12711 16.5843 3.95646 16.1732 3.95589 15.7443V4.2559C3.95646 3.82707 4.12712 3.41598 4.43042 3.11283C4.73372 2.80968 5.1449 2.63923 5.57372 2.63888H12.9329V5.33256C12.9329 5.38728 12.9437 5.44148 12.9646 5.49205C12.9855 5.54261 13.0162 5.58856 13.0549 5.62726C13.0936 5.66595 13.1396 5.69664 13.1901 5.71757C13.2407 5.7385 13.2949 5.74926 13.3496 5.74923H16.0441V15.7443C16.0437 16.1731 15.8732 16.5842 15.5701 16.8873C15.2669 17.1905 14.8558 17.361 14.4271 17.3614H14.4271Z" fill="#171723"/>
<path d="M5.84815 8.80997H4.99528C4.89584 8.81015 4.80052 8.84973 4.7302 8.92005C4.65988 8.99036 4.6203 9.08568 4.62012 9.18513V12.9644C4.63501 13.0698 4.6879 13.1661 4.76884 13.2352C4.84977 13.3043 4.95317 13.3414 5.05958 13.3396C5.15902 13.3394 5.25434 13.2998 5.32466 13.2295C5.39498 13.1592 5.43456 13.0639 5.43473 12.9644V11.7201H5.84815C6.06578 11.7219 6.2822 11.6875 6.48858 11.6184C6.67983 11.554 6.85772 11.4553 7.01348 11.327C7.16647 11.1987 7.28952 11.0384 7.37399 10.8575C7.46026 10.6719 7.50445 10.4696 7.50338 10.265C7.51599 10.0571 7.48006 9.84904 7.39842 9.65738C7.31679 9.46572 7.19168 9.29567 7.03301 9.16069C6.69023 8.91081 6.27171 8.78693 5.84815 8.80997ZM6.63672 10.5092C6.60095 10.5863 6.54938 10.6551 6.48535 10.711C6.40807 10.7762 6.31916 10.8262 6.22331 10.8583C6.10236 10.8983 5.97552 10.9176 5.84815 10.9153H5.43473V9.614H5.84815C6.08328 9.59401 6.3183 9.65362 6.51547 9.78328C6.57962 9.8447 6.6286 9.9202 6.65854 10.0038C6.68848 10.0874 6.69855 10.1769 6.68797 10.265C6.68934 10.3492 6.67183 10.4327 6.63672 10.5092Z" fill="#171723"/>
<path d="M11.2217 9.42352C11.0293 9.22149 10.7948 9.06424 10.5348 8.9629C10.2645 8.85919 9.97715 8.80729 9.68766 8.80991H8.33756C8.23812 8.81009 8.1428 8.84967 8.07248 8.91999C8.00216 8.9903 7.96258 9.08562 7.9624 9.18507V12.9644C7.96258 13.0638 8.00216 13.1591 8.07248 13.2295C8.1428 13.2998 8.23812 13.3394 8.33756 13.3395H9.68766C9.97715 13.3422 10.2645 13.2903 10.5348 13.1865C10.7948 13.0852 11.0293 12.928 11.2217 12.7259C11.4166 12.5177 11.5662 12.2714 11.6611 12.0025C11.8619 11.4003 11.8619 10.7492 11.6611 10.147C11.5662 9.87808 11.4165 9.63175 11.2217 9.42352ZM10.8905 11.7298C10.8342 11.8952 10.7441 12.0471 10.626 12.1758C10.5163 12.2927 10.3812 12.3829 10.2313 12.4395C10.0578 12.5057 9.87332 12.5383 9.68766 12.5355H8.77783V9.61394H9.68766C9.87323 9.61131 10.0576 9.64361 10.2313 9.70916C10.3813 9.76655 10.5164 9.85694 10.6268 9.97364C10.7444 10.1027 10.8344 10.2545 10.8913 10.4196C11.025 10.8462 11.0247 11.3035 10.8904 11.7298H10.8905Z" fill="#171723"/>
<path d="M15.0057 8.80994H12.797C12.6976 8.81011 12.6023 8.8497 12.532 8.92001C12.4616 8.99033 12.4221 9.08565 12.4219 9.18509V12.9644C12.437 13.0698 12.49 13.1661 12.5711 13.2352C12.6521 13.3043 12.7556 13.3414 12.8621 13.3396C12.9616 13.3394 13.0569 13.2998 13.1272 13.2295C13.1975 13.1592 13.2371 13.0638 13.2373 12.9644V11.5036H14.7355C14.8405 11.4899 14.9367 11.438 15.0059 11.3578C15.0751 11.2777 15.1124 11.1749 15.1107 11.0691C15.1105 10.9696 15.0709 10.8743 15.0006 10.804C14.9303 10.7336 14.835 10.6941 14.7355 10.6939H13.2373V9.61967H15.0057C15.1051 9.61949 15.2005 9.57991 15.2708 9.50959C15.3411 9.43927 15.3807 9.34395 15.3809 9.2445V9.18509C15.3807 9.08565 15.3411 8.99033 15.2708 8.92001C15.2005 8.84969 15.1051 8.81011 15.0057 8.80994Z" fill="#171723"/>
</g>
<defs>
<clipPath id="clip0_5313_35174">
<rect width="20" height="20" fill="white"/>
</clipPath>
</defs>
</svg>
