<svg width="20" height="20" viewBox="0 0 20 20" fill="none" xmlns="http://www.w3.org/2000/svg">
<g clip-path="url(#clip0_5313_35102)">
<path d="M7.49983 12.0565H12.4998C12.8312 12.0561 13.149 11.9243 13.3833 11.69C13.6177 11.4556 13.7495 11.1379 13.7498 10.8065V10.4305H16.944C17.2754 10.4301 17.5931 10.2983 17.8275 10.064C18.0618 9.82964 18.1936 9.51191 18.194 9.1805V4.71436C18.1936 4.38295 18.0618 4.06521 17.8275 3.83087C17.5931 3.59653 17.2754 3.46472 16.944 3.46436H9.30566V3.06396C9.3053 2.73256 9.17349 2.41482 8.93915 2.18048C8.70481 1.94614 8.38707 1.81433 8.05566 1.81396H3.05816C2.72675 1.81433 2.40902 1.94614 2.17468 2.18048C1.94034 2.41482 1.80853 2.73256 1.80816 3.06396V4.69808C1.80853 5.02949 1.94034 5.34722 2.17468 5.58157C2.40902 5.81591 2.72675 5.94772 3.05816 5.94808H8.05566C8.38707 5.94772 8.70481 5.81591 8.93915 5.58157C9.17349 5.34722 9.3053 5.02949 9.30566 4.69808V4.29769H16.944C17.0545 4.29783 17.1604 4.34178 17.2385 4.41989C17.3166 4.498 17.3605 4.60389 17.3607 4.71436V9.1805C17.3605 9.29096 17.3166 9.39686 17.2385 9.47497C17.1604 9.55308 17.0545 9.59702 16.944 9.59716H13.7498V9.17114C13.7495 8.83973 13.6177 8.522 13.3833 8.28766C13.149 8.05331 12.8312 7.9215 12.4998 7.92114H7.49983C7.16842 7.9215 6.85069 8.05331 6.61635 8.28766C6.38201 8.522 6.25019 8.83973 6.24983 9.17114V9.59716H3.05566C2.72425 9.59753 2.40652 9.72934 2.17218 9.96368C1.93784 10.198 1.80603 10.5158 1.80566 10.8472V15.2848C1.80603 15.6162 1.93784 15.934 2.17218 16.1683C2.40652 16.4027 2.72425 16.5345 3.05566 16.5348H10.694V16.936C10.6944 17.2674 10.8262 17.5852 11.0605 17.8195C11.2949 18.0539 11.6126 18.1857 11.944 18.186H16.944C17.2754 18.1857 17.5931 18.0539 17.8275 17.8195C18.0618 17.5852 18.1936 17.2674 18.194 16.936V15.3011C18.1936 14.9697 18.0618 14.652 17.8275 14.4176C17.5931 14.1833 17.2754 14.0515 16.944 14.0511H11.944C11.6126 14.0515 11.2949 14.1833 11.0605 14.4176C10.8262 14.652 10.6944 14.9697 10.694 15.3011V15.7015H3.05566C2.94522 15.7013 2.83937 15.6573 2.76128 15.5792C2.68319 15.5011 2.63922 15.3953 2.639 15.2848V10.8472C2.63914 10.7367 2.68309 10.6308 2.76119 10.5527C2.8393 10.4746 2.9452 10.4306 3.05566 10.4305H6.24983V10.8065C6.25019 11.1379 6.38201 11.4556 6.61635 11.69C6.85069 11.9243 7.16842 12.0561 7.49983 12.0565ZM8.47233 4.69808C8.47219 4.80854 8.42824 4.91444 8.35013 4.99255C8.27202 5.07066 8.16613 5.1146 8.05566 5.11475H3.05816C2.9477 5.1146 2.84181 5.07066 2.7637 4.99255C2.68559 4.91444 2.64164 4.80854 2.6415 4.69808V3.06396C2.64164 2.9535 2.68559 2.8476 2.76369 2.7695C2.8418 2.69139 2.9477 2.64744 3.05816 2.6473H8.05566C8.16613 2.64744 8.27203 2.69139 8.35013 2.7695C8.42824 2.8476 8.47219 2.9535 8.47233 3.06396V4.69808ZM11.5273 15.3011C11.5276 15.1907 11.5715 15.0848 11.6496 15.0067C11.7277 14.9286 11.8336 14.8847 11.944 14.8844H16.944C17.0544 14.8847 17.1603 14.9286 17.2384 15.0067C17.3165 15.0848 17.3604 15.1907 17.3607 15.3011V16.936C17.3604 17.0465 17.3165 17.1523 17.2384 17.2304C17.1603 17.3085 17.0544 17.3525 16.944 17.3527H11.944C11.8336 17.3525 11.7277 17.3085 11.6496 17.2304C11.5715 17.1523 11.5276 17.0465 11.5273 16.936V15.3011ZM7.08316 9.17114C7.08331 9.06068 7.12725 8.95478 7.20536 8.87667C7.28347 8.79856 7.38937 8.75462 7.49983 8.75447H12.4998C12.6103 8.75461 12.7162 8.79856 12.7943 8.87667C12.8724 8.95478 12.9164 9.06068 12.9165 9.17114V10.8065C12.9163 10.9169 12.8723 11.0228 12.7942 11.1009C12.7161 11.179 12.6103 11.2229 12.4998 11.2231H7.49983C7.38939 11.2229 7.28354 11.179 7.20545 11.1009C7.12735 11.0228 7.08338 10.9169 7.08316 10.8065V9.17114Z" fill="#171723"/>
</g>
<defs>
<clipPath id="clip0_5313_35102">
<rect width="20" height="20" fill="white"/>
</clipPath>
</defs>
</svg>
