<svg width="20" height="20" viewBox="0 0 20 20" fill="none" xmlns="http://www.w3.org/2000/svg">
<path d="M7.50066 12.0569H12.5007C12.8321 12.0565 13.1499 11.9247 13.3843 11.6902C13.6186 11.4558 13.7504 11.138 13.7507 10.8065V10.4305H16.9448C17.2762 10.4302 17.594 10.2984 17.8283 10.064C18.0626 9.82968 18.1945 9.51195 18.1948 9.18054V4.71399C18.1945 4.38258 18.0626 4.06485 17.8283 3.83051C17.594 3.59616 17.2762 3.46435 16.9448 3.46399H9.30566V3.0636C9.30529 2.73219 9.17348 2.41446 8.93914 2.18011C8.7048 1.94577 8.38706 1.81396 8.05566 1.8136H3.05892C2.72751 1.81396 2.40978 1.94577 2.17544 2.18011C1.9411 2.41446 1.80928 2.73219 1.80892 3.0636V4.69772C1.80928 5.02912 1.9411 5.34686 2.17544 5.5812C2.40978 5.81554 2.72751 5.94735 3.05892 5.94772H8.05566C8.38707 5.94735 8.70481 5.81554 8.93915 5.5812C9.17349 5.34686 9.3053 5.02912 9.30566 4.69772V4.29732H16.9448C17.0553 4.29747 17.1612 4.34141 17.2393 4.41952C17.3174 4.49763 17.3614 4.60353 17.3615 4.71399V9.18054C17.3614 9.291 17.3174 9.3969 17.2393 9.47501C17.1612 9.55312 17.0553 9.59706 16.9448 9.59721H13.7507V9.17118C13.7503 8.83977 13.6185 8.52204 13.3841 8.2877C13.1498 8.05336 12.8321 7.92154 12.5007 7.92118H7.50066C7.16925 7.92154 6.85152 8.05336 6.61718 8.2877C6.38284 8.52204 6.25103 8.83977 6.25066 9.17118V9.59721H3.05566C2.72432 9.59754 2.40663 9.72929 2.1723 9.96355C1.93796 10.1978 1.80611 10.5155 1.80566 10.8468V15.2853C1.80603 15.6167 1.93784 15.9344 2.17218 16.1688C2.40652 16.4031 2.72425 16.5349 3.05566 16.5353H10.6948V16.9365C10.6952 17.2679 10.827 17.5856 11.0613 17.82C11.2957 18.0543 11.6134 18.1861 11.9448 18.1865H16.9448C17.2762 18.1861 17.594 18.0543 17.8283 17.82C18.0627 17.5856 18.1945 17.2679 18.1948 16.9365V15.3007C18.1945 14.9693 18.0627 14.6516 17.8283 14.4173C17.594 14.1829 17.2762 14.0511 16.9448 14.0507H11.9448C11.6134 14.0511 11.2957 14.1829 11.0613 14.4173C10.827 14.6516 10.6952 14.9693 10.6948 15.3007V15.702H3.05566C2.94522 15.7017 2.83937 15.6578 2.76128 15.5797C2.68319 15.5016 2.63922 15.3957 2.639 15.2853V10.8468C2.63923 10.7364 2.68321 10.6306 2.76131 10.5526C2.83942 10.4745 2.94527 10.4307 3.05566 10.4305H6.25066V10.8065C6.25094 11.138 6.38271 11.4558 6.61706 11.6902C6.8514 11.9247 7.16918 12.0565 7.50066 12.0569Z" fill="#171723"/>
</svg>
