<svg width="20" height="20" viewBox="0 0 20 20" fill="none" xmlns="http://www.w3.org/2000/svg">
<path d="M14.8865 8.14969L7.24163 3.8691C6.91116 3.69658 6.5416 3.61272 6.16904 3.6257C5.79647 3.63868 5.43365 3.74806 5.11598 3.94315C4.78057 4.14813 4.50402 4.43656 4.31333 4.7803C4.12263 5.12404 4.0243 5.51134 4.02793 5.90441V14.0961C4.02423 14.489 4.12245 14.8762 4.313 15.2198C4.50356 15.5634 4.77993 15.8517 5.11517 16.0566C5.45381 16.2645 5.84328 16.3749 6.24066 16.3756C6.59352 16.3746 6.94098 16.289 7.25384 16.1258L14.8857 11.8549C15.2151 11.6706 15.4894 11.4018 15.6803 11.0762C15.8713 10.7506 15.972 10.38 15.9721 10.0026C15.9722 9.6251 15.8716 9.25444 15.6808 8.92876C15.49 8.60308 15.2158 8.33416 14.8865 8.14969H14.8865Z" fill="#171723"/>
</svg>
