<svg width="20" height="20" viewBox="0 0 20 20" fill="none" xmlns="http://www.w3.org/2000/svg">
<path d="M5.97079 3.89163C5.97071 3.49745 5.85881 3.11138 5.64807 2.77826C5.43733 2.44514 5.13642 2.17864 4.78027 2.00972C4.42412 1.84079 4.02736 1.77637 3.63606 1.82394C3.24476 1.87151 2.87498 2.02911 2.56968 2.27844C2.26437 2.52777 2.03607 2.8586 1.91128 3.23251C1.78649 3.60641 1.77034 4.00805 1.8647 4.39077C1.95906 4.77349 2.16006 5.12158 2.44436 5.39463C2.72865 5.66767 3.08458 5.85446 3.47079 5.93329L3.47263 5.9335V14.0664L3.47079 14.0666C2.96488 14.1698 2.51526 14.457 2.2091 14.8728C1.90294 15.2885 1.76203 15.8032 1.81368 16.3169C1.86534 16.8306 2.10588 17.3069 2.48869 17.6534C2.87149 17.9998 3.3693 18.1919 3.88562 18.1922C4.40194 18.1925 4.9 18.0012 5.28327 17.6552C5.66654 17.3093 5.90772 16.8333 5.96006 16.3197C6.0124 15.806 5.87218 15.2912 5.56657 14.875C5.26096 14.4589 4.81174 14.171 4.30596 14.0672V5.9327C4.7749 5.83391 5.19586 5.57749 5.49877 5.20613C5.80168 4.83476 5.96827 4.37085 5.97079 3.89163Z" fill="#171723"/>
<path d="M16.531 14.0672V6.39164C16.5301 5.61837 16.2225 4.87705 15.6757 4.33027C15.1289 3.78349 14.3876 3.4759 13.6143 3.47497H9.89609L10.718 2.65303C10.7573 2.61448 10.7886 2.56853 10.8101 2.51781C10.8316 2.4671 10.8428 2.41264 10.843 2.35757C10.8433 2.30251 10.8327 2.24793 10.8117 2.197C10.7908 2.14608 10.7599 2.09981 10.721 2.06087C10.6821 2.02193 10.6358 1.9911 10.5849 1.97016C10.5339 1.94921 10.4794 1.93857 10.4243 1.93885C10.3692 1.93913 10.3148 1.95032 10.2641 1.97178C10.2134 1.99323 10.1674 2.02453 10.1289 2.06386L8.59481 3.59699L8.59258 3.60127C8.54424 3.65307 8.51029 3.71662 8.4941 3.78559C8.48946 3.80328 8.48602 3.82126 8.48383 3.83941C8.47242 3.9097 8.47946 3.98175 8.50428 4.0485L8.50448 4.0511L8.50998 4.05771C8.53028 4.10594 8.55963 4.14982 8.59644 4.187L10.1296 5.71207C10.1684 5.75065 10.2145 5.78121 10.2651 5.80201C10.3157 5.82281 10.3699 5.83343 10.4246 5.83328C10.4793 5.83313 10.5334 5.8222 10.5839 5.80112C10.6344 5.78005 10.6803 5.74923 10.7188 5.71044C10.7574 5.67164 10.788 5.62563 10.8088 5.57502C10.8296 5.52442 10.8402 5.47021 10.8401 5.4155C10.8399 5.36078 10.829 5.30664 10.8079 5.25615C10.7868 5.20566 10.756 5.15982 10.7172 5.12124L9.89995 4.3083H13.6143C14.1667 4.30881 14.6963 4.52847 15.0869 4.91906C15.4775 5.30965 15.6972 5.83926 15.6977 6.39164V14.0665L15.6959 14.0666C15.19 14.1698 14.7403 14.4571 14.4342 14.8728C14.128 15.2886 13.9871 15.8032 14.0388 16.3169C14.0904 16.8306 14.331 17.3069 14.7138 17.6534C15.0966 17.9998 15.5944 18.1919 16.1107 18.1922C16.627 18.1926 17.1251 18.0012 17.5084 17.6552C17.8916 17.3093 18.1328 16.8333 18.1851 16.3197C18.2375 15.806 18.0973 15.2912 17.7917 14.875C17.4861 14.4589 17.0368 14.171 16.531 14.0672L16.531 14.0672Z" fill="#171723"/>
</svg>
