<svg width="20" height="20" viewBox="0 0 20 20" fill="none" xmlns="http://www.w3.org/2000/svg">
<g clip-path="url(#clip0_10314_146252)">
<path d="M13.7498 2.91248H13.7352C13.7005 2.60803 13.5551 2.32695 13.3268 2.12262C13.0984 1.91828 12.803 1.80493 12.4966 1.80408H7.50228C7.19594 1.80494 6.90059 1.91832 6.67236 2.12267C6.44414 2.32702 6.29894 2.60809 6.26437 2.91248H6.24984C5.36605 2.91336 4.51872 3.26483 3.89379 3.88976C3.26886 4.51469 2.91739 5.36203 2.9165 6.24581V14.8631C2.91739 15.7469 3.26886 16.5942 3.89379 17.2192C4.51872 17.8441 5.36605 18.1956 6.24984 18.1965H13.7498C14.6336 18.1956 15.481 17.8441 16.1059 17.2192C16.7308 16.5942 17.0823 15.7469 17.0832 14.8631V6.24581C17.0823 5.36203 16.7308 4.51469 16.1059 3.88976C15.481 3.26483 14.6336 2.91336 13.7498 2.91248ZM7.08317 3.05652C7.08329 2.9454 7.12748 2.83887 7.20606 2.7603C7.28463 2.68172 7.39116 2.63753 7.50228 2.63741H12.4966C12.6078 2.63736 12.7145 2.68147 12.7933 2.76006C12.872 2.83865 12.9163 2.94527 12.9165 3.05652V3.60664C12.9163 3.71789 12.872 3.82452 12.7933 3.9031C12.7145 3.98169 12.6078 4.0258 12.4966 4.02575H7.50228C7.39116 4.02563 7.28463 3.98144 7.20606 3.90287C7.12748 3.82429 7.08329 3.71776 7.08317 3.60664V3.05652ZM16.2498 14.8632C16.2491 15.526 15.9855 16.1615 15.5168 16.6302C15.0481 17.0988 14.4127 17.3625 13.7498 17.3632H6.24984C5.58702 17.3625 4.95155 17.0988 4.48287 16.6302C4.01419 16.1615 3.75056 15.526 3.74984 14.8632V6.24581C3.75056 5.58299 4.01419 4.94753 4.48287 4.47884C4.95155 4.01016 5.58702 3.74653 6.24984 3.74581H6.26388C6.29734 4.05116 6.44213 4.33348 6.67057 4.53883C6.89901 4.74419 7.1951 4.85819 7.50228 4.85905H12.4966C12.8039 4.85819 13.1 4.74421 13.3286 4.53886C13.5572 4.33352 13.7021 4.05119 13.7358 3.74577H13.7498C14.4127 3.74649 15.0481 4.01012 15.5168 4.4788C15.9855 4.94749 16.2491 5.58295 16.2498 6.24577L16.2498 14.8632Z" fill="#171723"/>
<path d="M8.49089 8.16643H9.58301V9.25854C9.58301 9.36905 9.62691 9.47503 9.70505 9.55317C9.78319 9.63131 9.88917 9.67521 9.99968 9.67521C10.1102 9.67521 10.2162 9.63131 10.2943 9.55317C10.3724 9.47503 10.4163 9.36905 10.4163 9.25854V8.16643H11.5093C11.6198 8.16643 11.7258 8.12253 11.8039 8.04439C11.8821 7.96625 11.926 7.86027 11.926 7.74976C11.926 7.63925 11.8821 7.53327 11.8039 7.45513C11.7258 7.37699 11.6198 7.33309 11.5093 7.33309H10.4164V6.24015C10.4164 6.12965 10.3725 6.02367 10.2943 5.94553C10.2162 5.86739 10.1102 5.82349 9.99969 5.82349C9.88918 5.82349 9.7832 5.86739 9.70506 5.94553C9.62692 6.02367 9.58302 6.12965 9.58302 6.24015V7.33309H8.49089C8.38038 7.33309 8.2744 7.37699 8.19626 7.45513C8.11812 7.53327 8.07422 7.63925 8.07422 7.74976C8.07422 7.86027 8.11812 7.96625 8.19626 8.04439C8.2744 8.12253 8.38038 8.16643 8.49089 8.16643Z" fill="#171723"/>
<path d="M13.3328 10.6948H6.66618C6.55567 10.6948 6.44969 10.7387 6.37155 10.8169C6.29341 10.895 6.24951 11.001 6.24951 11.1115C6.24951 11.222 6.29341 11.328 6.37155 11.4061C6.44969 11.4843 6.55567 11.5282 6.66618 11.5282H13.3328C13.4434 11.5282 13.5493 11.4843 13.6275 11.4061C13.7056 11.328 13.7495 11.222 13.7495 11.1115C13.7495 11.001 13.7056 10.895 13.6275 10.8169C13.5493 10.7387 13.4434 10.6948 13.3328 10.6948Z" fill="#171723"/>
<path d="M13.3328 12.9165H6.66618C6.55567 12.9165 6.44969 12.9604 6.37155 13.0385C6.29341 13.1167 6.24951 13.2227 6.24951 13.3332C6.24951 13.4437 6.29341 13.5497 6.37155 13.6278C6.44969 13.7059 6.55567 13.7498 6.66618 13.7498H13.3328C13.4434 13.7498 13.5493 13.7059 13.6275 13.6278C13.7056 13.5497 13.7495 13.4437 13.7495 13.3332C13.7495 13.2227 13.7056 13.1167 13.6275 13.0385C13.5493 12.9604 13.4434 12.9165 13.3328 12.9165Z" fill="#171723"/>
<path d="M13.3328 15.139H6.66618C6.55567 15.139 6.44969 15.1829 6.37155 15.2611C6.29341 15.3392 6.24951 15.4452 6.24951 15.5557C6.24951 15.6662 6.29341 15.7722 6.37155 15.8503C6.44969 15.9285 6.55567 15.9724 6.66618 15.9724H13.3328C13.4434 15.9724 13.5493 15.9285 13.6275 15.8503C13.7056 15.7722 13.7495 15.6662 13.7495 15.5557C13.7495 15.4452 13.7056 15.3392 13.6275 15.2611C13.5493 15.1829 13.4434 15.139 13.3328 15.139Z" fill="#171723"/>
</g>
<defs>
<clipPath id="clip0_10314_146252">
<rect width="20" height="20" fill="white"/>
</clipPath>
</defs>
</svg>
