<svg width="20" height="20" viewBox="0 0 20 20" fill="none" xmlns="http://www.w3.org/2000/svg">
<g clip-path="url(#clip0_10325_129862)">
<path d="M18.1628 10.1284C18.1882 10.0602 18.195 9.98645 18.1826 9.91473C18.1803 9.89801 18.1769 9.88146 18.1724 9.86519C18.1557 9.79345 18.1197 9.72765 18.0683 9.67491L16.8907 8.52256C16.8115 8.44646 16.7054 8.40471 16.5955 8.40642C16.4857 8.40813 16.381 8.45315 16.3042 8.53169C16.2273 8.61022 16.1846 8.71592 16.1854 8.82577C16.1861 8.93563 16.2302 9.04075 16.308 9.11827L16.7556 9.5561H3.24407L3.69167 9.11827C3.76951 9.04075 3.81358 8.93563 3.8143 8.82577C3.81502 8.71592 3.77233 8.61022 3.69551 8.53169C3.61869 8.45315 3.51397 8.40813 3.40412 8.40642C3.29428 8.40471 3.1882 8.44646 3.10898 8.52256L1.93141 9.67491C1.88 9.72765 1.84399 9.79345 1.82729 9.86519C1.82277 9.88146 1.81936 9.89801 1.81707 9.91473C1.80465 9.98645 1.81148 10.0602 1.83686 10.1284L1.83701 10.1298L1.84087 10.1346C1.86045 10.1827 1.88896 10.2266 1.9249 10.2641L3.10407 11.471C3.14218 11.5107 3.18779 11.5425 3.23827 11.5645C3.28874 11.5865 3.34307 11.5983 3.39812 11.5992C3.45318 11.6 3.50786 11.59 3.559 11.5696C3.61015 11.5492 3.65675 11.5189 3.69611 11.4804C3.73547 11.4419 3.76681 11.396 3.78832 11.3453C3.80983 11.2946 3.82108 11.2402 3.82142 11.1851C3.82176 11.13 3.81118 11.0755 3.7903 11.0245C3.76942 10.9736 3.73865 10.9273 3.69977 10.8883L3.21235 10.3894H16.7873L16.2999 10.8883C16.261 10.9273 16.2303 10.9736 16.2094 11.0245C16.1885 11.0755 16.1779 11.13 16.1783 11.1851C16.1786 11.2402 16.1899 11.2946 16.2114 11.3453C16.2329 11.396 16.2642 11.4419 16.3036 11.4804C16.3429 11.5189 16.3895 11.5492 16.4407 11.5696C16.4918 11.59 16.5465 11.6 16.6016 11.5992C16.6566 11.5983 16.711 11.5865 16.7614 11.5645C16.8119 11.5425 16.8575 11.5107 16.8956 11.471L18.0748 10.2641C18.1107 10.2266 18.1392 10.1827 18.1588 10.1346L18.1627 10.1298L18.1628 10.1284Z" fill="#171723"/>
</g>
<defs>
<clipPath id="clip0_10325_129862">
<rect width="20" height="20" fill="white"/>
</clipPath>
</defs>
</svg>
