<svg width="20" height="20" viewBox="0 0 20 20" fill="none" xmlns="http://www.w3.org/2000/svg">
<g clip-path="url(#clip0_5313_35128)">
<path d="M12.514 9.60041L8.0771 5.25874C8.03812 5.21986 7.99182 5.18909 7.94087 5.16821C7.88992 5.14733 7.83534 5.13675 7.78029 5.13709C7.72523 5.13743 7.67078 5.14868 7.6201 5.17019C7.56941 5.1917 7.52349 5.22304 7.48499 5.2624C7.44649 5.30176 7.41617 5.34836 7.39579 5.39951C7.37541 5.45065 7.36537 5.50533 7.36624 5.56039C7.36712 5.61544 7.3789 5.66977 7.4009 5.72024C7.4229 5.77072 7.45469 5.81633 7.49442 5.85444L11.6335 9.90469L7.47977 14.152C7.44084 14.191 7.41003 14.2373 7.38912 14.2882C7.3682 14.3392 7.3576 14.3938 7.35792 14.4489C7.35824 14.504 7.36948 14.5584 7.39099 14.6092C7.41249 14.6599 7.44384 14.7058 7.48322 14.7443C7.5226 14.7828 7.56923 14.8132 7.6204 14.8336C7.67157 14.8539 7.72628 14.864 7.78136 14.8631C7.83643 14.8622 7.89079 14.8504 7.94127 14.8283C7.99175 14.8063 8.03737 14.7745 8.07547 14.7347L12.5205 10.1896C12.5587 10.1505 12.5889 10.1042 12.6093 10.0534C12.6297 10.0027 12.6399 9.94837 12.6393 9.89366C12.6387 9.83894 12.6273 9.78488 12.6058 9.73456C12.5843 9.68425 12.5531 9.63866 12.514 9.60041Z" fill="#171723"/>
</g>
<defs>
<clipPath id="clip0_5313_35128">
<rect width="20" height="20" fill="white"/>
</clipPath>
</defs>
</svg>
