<svg width="20" height="20" viewBox="0 0 20 20" fill="none" xmlns="http://www.w3.org/2000/svg">
<g clip-path="url(#clip0_5313_35038)">
<path d="M17.2121 4.40329L15.5772 2.77889C15.3021 2.51027 14.9828 2.29117 14.6331 2.13126C14.6197 2.12308 14.6059 2.11571 14.5916 2.10919C14.1575 1.90992 13.6858 1.80585 13.2082 1.80396H5.15723C4.27112 1.80241 3.42057 2.15239 2.79217 2.77713C2.16376 3.40187 1.80881 4.25036 1.80518 5.13646V14.8598C1.80881 15.7459 2.16376 16.5944 2.79217 17.2191C3.42057 17.8439 4.27112 18.1938 5.15723 18.1923H5.51383C5.5209 18.1927 5.52685 18.1964 5.53402 18.1964C5.54118 18.1964 5.54714 18.1927 5.55422 18.1923H14.4226C14.4296 18.1927 14.4356 18.1964 14.4427 18.1964C14.4499 18.1964 14.4559 18.1927 14.4629 18.1923H14.8431C15.7292 18.1938 16.5796 17.8438 17.2079 17.219C17.8361 16.5943 18.1909 15.7458 18.1944 14.8598V6.76083C18.1915 5.87601 17.8383 5.02834 17.2121 4.40329ZM14.0252 2.78215V5.44573C14.0256 5.53406 14.0084 5.62158 13.9745 5.70316C13.9407 5.78474 13.8909 5.85874 13.828 5.92081C13.7652 5.98289 13.6906 6.0318 13.6086 6.06467C13.5266 6.09754 13.4389 6.11371 13.3506 6.11223H6.64161C6.46487 6.11214 6.29539 6.04189 6.17042 5.91692C6.04544 5.79194 5.97519 5.62247 5.9751 5.44573V2.63729H13.2082C13.4867 2.64019 13.7627 2.68913 14.0252 2.78215ZM2.63851 14.8598V5.13648C2.64197 4.47415 2.90699 3.84003 3.37586 3.37221C3.84472 2.9044 4.47944 2.64079 5.14177 2.63882V5.44573C5.14228 5.84335 5.30047 6.22454 5.58163 6.5057C5.86279 6.78686 6.24399 6.94505 6.64161 6.94556H13.3506C13.7493 6.94619 14.132 6.78863 14.4147 6.50745C14.6974 6.22628 14.857 5.84445 14.8586 5.44573V3.26285C14.9013 3.29999 14.9491 3.32952 14.9896 3.36971L16.6245 4.99406C17.0938 5.46254 17.3586 6.09773 17.361 6.76083V8.29129C16.9743 8.00862 16.4994 7.87318 16.0217 7.90934C15.5441 7.9455 15.095 8.15087 14.7552 8.48853L14.375 8.86868C14.3706 8.87274 14.3648 8.87407 14.3605 8.87834C14.3562 8.88262 14.3549 8.88846 14.3508 8.89289L12.5058 10.7379H6.99235C6.49744 10.7364 6.02213 10.9313 5.67065 11.2797C5.31917 11.6281 5.12019 12.1017 5.11735 12.5966V17.3549C4.45957 17.347 3.83121 17.0811 3.36758 16.6144C2.90395 16.1477 2.64213 15.5176 2.63851 14.8598ZM14.026 17.359H11.534C11.5552 17.3436 11.5764 17.3286 11.5967 17.3121C11.6355 17.2944 11.6713 17.2706 11.7026 17.2418C11.7078 17.2366 11.7094 17.2297 11.7142 17.2243L11.7181 17.2214L14.026 14.9135L14.026 17.359ZM10.3305 12.9131H7.75082C7.64031 12.9131 7.53433 12.957 7.45619 13.0352C7.37805 13.1133 7.33415 13.2193 7.33415 13.3298C7.33415 13.4403 7.37805 13.5463 7.45619 13.6244C7.53433 13.7026 7.64031 13.7465 7.75082 13.7465H9.49723L8.87057 14.3731L8.86645 14.3786C8.86152 14.3831 8.855 14.3846 8.85023 14.3894C8.82484 14.4179 8.80362 14.4498 8.7872 14.4843C8.63777 14.6578 8.53237 14.8647 8.47994 15.0876L7.98244 17.359H5.95068V12.5966C5.95311 12.3226 6.06415 12.0607 6.25944 11.8685C6.45474 11.6762 6.71832 11.5693 6.99235 11.5712H11.6725L10.3305 12.9131ZM9.26618 15.3945L10.6979 16.8262L8.8641 17.2279L9.26618 15.3945ZM14.1586 13.6025L14.1408 13.6203L11.4056 16.3555L9.73608 14.686L10.7854 13.6367C10.796 13.6272 10.8061 13.617 10.8157 13.6064L14.6575 9.76462L16.3267 11.4344L14.1586 13.6025ZM17.0135 10.7476L16.9159 10.8452L15.2467 9.17538L15.3444 9.07767C15.5659 8.85689 15.8661 8.73306 16.1788 8.73337C16.4916 8.73369 16.7915 8.85812 17.0126 9.07934C17.2337 9.30057 17.358 9.60051 17.3582 9.91329C17.3583 10.2261 17.2344 10.5261 17.0135 10.7476ZM14.8593 17.3573V14.0802L17.1983 11.7412C17.2027 11.7371 17.2086 11.7358 17.2128 11.7315C17.2171 11.7273 17.2184 11.7214 17.2225 11.717L17.3609 11.5785V14.8598C17.3575 15.5218 17.0927 16.1557 16.6242 16.6234C16.1557 17.0912 15.5214 17.355 14.8594 17.3573L14.8593 17.3573Z" fill="#171723"/>
</g>
<defs>
<clipPath id="clip0_5313_35038">
<rect width="20" height="20" fill="white"/>
</clipPath>
</defs>
</svg>
