<svg width="20" height="20" viewBox="0 0 20 20" fill="none" xmlns="http://www.w3.org/2000/svg">
<g clip-path="url(#clip0_5313_35049)">
<path d="M18.0724 17.4834L15.3372 14.7482C15.2858 14.6979 15.2221 14.662 15.1525 14.6441C15.0829 14.6261 15.0098 14.6268 14.9405 14.646L14.0352 13.7407C15.3163 12.3823 16.0114 10.5743 15.9703 8.70758C15.9293 6.84083 15.1554 5.06518 13.8159 3.76436C12.4763 2.46353 10.6788 1.742 8.81162 1.75568C6.94446 1.76937 5.15767 2.51716 3.83735 3.83748C2.51704 5.15779 1.76924 6.94459 1.75556 8.81174C1.74188 10.6789 2.46341 12.4765 3.76424 13.816C5.06506 15.1555 6.84071 15.9294 8.70746 15.9704C10.5742 16.0115 12.3822 15.3164 13.7406 14.0353L14.6458 14.9405C14.6266 15.0098 14.6259 15.0829 14.6438 15.1526C14.6618 15.2222 14.6977 15.2859 14.748 15.3374L17.4832 18.0725C17.5616 18.1494 17.6671 18.1921 17.7769 18.1916C17.8866 18.191 17.9918 18.1472 18.0694 18.0696C18.147 17.9919 18.1908 17.8868 18.1914 17.7771C18.192 17.6673 18.1492 17.5618 18.0723 17.4834H18.0724ZM8.8886 15.1388C7.65247 15.1388 6.4441 14.7722 5.41629 14.0855C4.38848 13.3987 3.58741 12.4226 3.11436 11.2806C2.64131 10.1385 2.51754 8.88185 2.7587 7.66947C2.99985 6.45709 3.59511 5.34345 4.46919 4.46937C5.34327 3.59529 6.45691 3.00003 7.66929 2.75888C8.88167 2.51772 10.1383 2.64149 11.2804 3.11454C12.4224 3.58759 13.3985 4.38866 14.0853 5.41647C14.772 6.44428 15.1386 7.65265 15.1386 8.88878C15.1368 10.5458 14.4777 12.1345 13.306 13.3062C12.1343 14.4779 10.5457 15.137 8.8886 15.1388Z" fill="#171723"/>
</g>
<defs>
<clipPath id="clip0_5313_35049">
<rect width="20" height="20" fill="white"/>
</clipPath>
</defs>
</svg>
