<svg width="20" height="20" viewBox="0 0 20 20" fill="none" xmlns="http://www.w3.org/2000/svg">
<path d="M14.8624 16.5297H5.13753C4.25375 16.5288 3.40642 16.1773 2.78149 15.5524C2.15656 14.9275 1.80508 14.0801 1.8042 13.1963V9.09559C1.78169 8.66874 1.84582 8.24174 1.99274 7.84034C2.13966 7.43894 2.36633 7.07144 2.65908 6.75998C2.95183 6.44852 3.30461 6.19956 3.69616 6.02809C4.0877 5.85661 4.50991 5.76619 4.93733 5.76226H5.55827C5.84233 5.76098 6.11757 5.6635 6.33911 5.48571C6.56065 5.30791 6.71542 5.0603 6.77816 4.78326C6.85725 4.41102 7.06204 4.07736 7.35813 3.83832C7.65422 3.59927 8.02356 3.46943 8.4041 3.47059H11.6008C11.9795 3.47246 12.3463 3.60275 12.6414 3.84015C12.9364 4.07755 13.1422 4.40802 13.2251 4.77754C13.2869 5.05586 13.4414 5.30492 13.6634 5.48385C13.8853 5.66277 14.1615 5.76095 14.4466 5.76226H14.8624C15.7462 5.76314 16.5936 6.11461 17.2185 6.73954C17.8434 7.36447 18.1949 8.2118 18.1958 9.09559V13.1963C18.1949 14.0801 17.8434 14.9275 17.2185 15.5524C16.5936 16.1773 15.7462 16.5288 14.8624 16.5297ZM4.93733 6.59559C4.61893 6.59846 4.30451 6.66664 4.01352 6.79591C3.72253 6.92518 3.46116 7.11279 3.24558 7.34713C3.03001 7.58147 2.86482 7.85755 2.76023 8.1583C2.65564 8.45904 2.61388 8.77805 2.63753 9.09559V13.1963C2.63826 13.8592 2.90188 14.4946 3.37057 14.9633C3.83925 15.432 4.47472 15.6956 5.13753 15.6963H14.8624C15.5253 15.6956 16.1607 15.432 16.6294 14.9633C17.0981 14.4946 17.3617 13.8592 17.3624 13.1963V9.09559C17.3617 8.43277 17.0981 7.79731 16.6294 7.32862C16.1607 6.85994 15.5253 6.59631 14.8624 6.59559H14.4466C13.9717 6.5935 13.5116 6.43008 13.1418 6.13212C12.7719 5.83417 12.5144 5.41937 12.4113 4.95578C12.3715 4.77062 12.2692 4.60477 12.1216 4.48608C11.9741 4.36739 11.7901 4.30307 11.6007 4.30392H8.4041C8.21515 4.30297 8.0316 4.36697 7.88419 4.48519C7.73679 4.60341 7.63447 4.76868 7.59437 4.95334C7.49093 5.4171 7.23322 5.83205 6.86337 6.13036C6.49352 6.42867 6.03342 6.59268 5.55827 6.59559H4.93733Z" fill="#171723"/>
<path d="M10.0002 13.7496C9.36827 13.7496 8.75055 13.5622 8.22513 13.2112C7.69972 12.8601 7.2902 12.3611 7.04838 11.7773C6.80656 11.1935 6.74329 10.5511 6.86657 9.93131C6.98985 9.31154 7.29414 8.74224 7.74097 8.29541C8.1878 7.84859 8.75709 7.54429 9.37686 7.42101C9.99663 7.29773 10.639 7.361 11.2229 7.60283C11.8067 7.84465 12.3057 8.25416 12.6567 8.77957C13.0078 9.30499 13.1952 9.92271 13.1952 10.5546C13.1941 11.4017 12.8571 12.2137 12.2582 12.8126C11.6592 13.4116 10.8472 13.7485 10.0002 13.7496ZM10.0002 8.19295C9.53308 8.19295 9.07648 8.33146 8.68811 8.59097C8.29973 8.85047 7.99703 9.21931 7.81828 9.65085C7.63953 10.0824 7.59276 10.5572 7.68389 11.0154C7.77501 11.4735 7.99994 11.8943 8.33023 12.2246C8.66051 12.5549 9.08132 12.7798 9.53944 12.8709C9.99756 12.962 10.4724 12.9153 10.9039 12.7365C11.3355 12.5578 11.7043 12.2551 11.9638 11.8667C12.2233 11.4783 12.3618 11.0217 12.3618 10.5546C12.361 9.92852 12.112 9.32829 11.6692 8.88557C11.2265 8.44284 10.6263 8.19377 10.0002 8.19298V8.19295Z" fill="#171723"/>
<path d="M4.44434 9.63892C4.85855 9.63892 5.19434 9.30313 5.19434 8.88892C5.19434 8.4747 4.85855 8.13892 4.44434 8.13892C4.03012 8.13892 3.69434 8.4747 3.69434 8.88892C3.69434 9.30313 4.03012 9.63892 4.44434 9.63892Z" fill="#171723"/>
</svg>
