<svg width="20" height="20" viewBox="0 0 20 20" fill="none" xmlns="http://www.w3.org/2000/svg">
<g clip-path="url(#clip0_10314_145983)">
<path d="M6.53057 3.57416C6.47765 3.52285 6.41174 3.48694 6.33994 3.4703C6.32358 3.46576 6.30695 3.4623 6.29014 3.45995C6.21881 3.44766 6.14551 3.45442 6.07764 3.47953L6.07568 3.47976L6.06901 3.48515C6.02172 3.50452 5.97844 3.53249 5.94135 3.56765L4.61651 4.86364C4.57678 4.90175 4.54499 4.94736 4.52299 4.99784C4.50099 5.04831 4.48921 5.10264 4.48833 5.15769C4.48746 5.21275 4.4975 5.26743 4.51788 5.31858C4.53827 5.36972 4.56858 5.41632 4.60708 5.45568C4.64558 5.49505 4.6915 5.52639 4.74219 5.54789C4.79287 5.5694 4.84732 5.58065 4.90238 5.58099C4.95744 5.58133 5.01202 5.57075 5.06296 5.54987C5.11391 5.52899 5.16021 5.49822 5.1992 5.45934L5.81606 4.8559V16.1344C5.81606 16.2449 5.85996 16.3509 5.9381 16.429C6.01624 16.5072 6.12222 16.5511 6.23273 16.5511C6.34324 16.5511 6.44922 16.5072 6.52736 16.429C6.6055 16.3509 6.64939 16.2449 6.64939 16.1344V4.88683L7.20115 5.45039C7.23927 5.49012 7.28488 5.52191 7.33535 5.54391C7.38583 5.56591 7.44016 5.57769 7.49521 5.57857C7.55026 5.57944 7.60494 5.5694 7.65609 5.54902C7.70724 5.52863 7.75384 5.49832 7.7932 5.45982C7.83256 5.42132 7.8639 5.3754 7.88541 5.32471C7.90692 5.27403 7.91816 5.21958 7.9185 5.16452C7.91884 5.10946 7.90827 5.05488 7.88739 5.00394C7.86651 4.95299 7.83574 4.90669 7.79685 4.8677L6.53057 3.57416Z" fill="#171723"/>
<path d="M15.3839 14.5426C15.3448 14.5043 15.2985 14.4741 15.2478 14.4538C15.197 14.4334 15.1427 14.4232 15.088 14.4238C15.0333 14.4244 14.9792 14.4358 14.9289 14.4573C14.8786 14.4788 14.833 14.51 14.7947 14.5491L14.243 15.1131V3.86552C14.243 3.75501 14.1991 3.64903 14.1209 3.57089C14.0428 3.49275 13.9368 3.44885 13.8263 3.44885C13.7158 3.44885 13.6098 3.49275 13.5317 3.57089C13.4535 3.64903 13.4096 3.75501 13.4096 3.86552V15.1446L12.792 14.541C12.753 14.5021 12.7067 14.4713 12.6557 14.4504C12.6048 14.4296 12.5502 14.419 12.4952 14.4193C12.4401 14.4197 12.3856 14.4309 12.335 14.4524C12.2843 14.4739 12.2384 14.5053 12.1999 14.5446C12.1614 14.584 12.131 14.6306 12.1107 14.6817C12.0903 14.7329 12.0802 14.7876 12.0811 14.8426C12.082 14.8977 12.0938 14.952 12.1158 15.0025C12.1378 15.053 12.1696 15.0986 12.2093 15.1367L13.535 16.4323C13.5732 16.4695 13.6183 16.4989 13.6678 16.519L13.6692 16.5201L13.6698 16.5202C13.771 16.5616 13.8845 16.5613 13.9855 16.5194C14.0376 16.498 14.0849 16.4662 14.1242 16.4257L15.3904 15.1318C15.4287 15.0927 15.4589 15.0464 15.4793 14.9956C15.4996 14.9449 15.5098 14.8906 15.5092 14.8358C15.5086 14.7811 15.4972 14.7271 15.4757 14.6768C15.4542 14.6264 15.423 14.5809 15.3839 14.5426Z" fill="#171723"/>
</g>
<defs>
<clipPath id="clip0_10314_145983">
<rect width="20" height="20" fill="white"/>
</clipPath>
</defs>
</svg>
