<svg width="20" height="20" viewBox="0 0 20 20" fill="none" xmlns="http://www.w3.org/2000/svg">
<path d="M14.8625 1.80835H5.13753C4.69976 1.80824 4.26626 1.89438 3.86179 2.06186C3.45732 2.22934 3.08982 2.47487 2.78027 2.78442C2.47072 3.09397 2.22519 3.46147 2.05771 3.86594C1.89023 4.27041 1.80409 4.70391 1.8042 5.14168V14.8583C1.80409 15.2961 1.89023 15.7296 2.05771 16.1341C2.22519 16.5386 2.47072 16.9061 2.78027 17.2156C3.08982 17.5252 3.45732 17.7707 3.86179 17.9382C4.26626 18.1056 4.69976 18.1918 5.13753 18.1917H14.8625C15.7462 18.1905 16.5934 17.8389 17.2182 17.2141C17.8431 16.5892 18.1947 15.742 18.1959 14.8583V5.14168C18.1947 4.25799 17.8431 3.41083 17.2182 2.78597C16.5934 2.1611 15.7462 1.80953 14.8625 1.80835ZM12.8625 10C12.8631 10.1917 12.8124 10.3801 12.7158 10.5457C12.6191 10.7113 12.4799 10.848 12.3126 10.9417L9.36261 12.5917C9.20247 12.6731 9.02549 12.7159 8.84584 12.7167C8.64581 12.7185 8.44937 12.6636 8.27923 12.5583C8.11246 12.4564 7.97493 12.313 7.88 12.1422C7.78508 11.9713 7.73601 11.7788 7.73757 11.5833V8.41668C7.73501 8.22105 7.78366 8.02814 7.87868 7.85711C7.97369 7.68608 8.11178 7.54287 8.27923 7.44168C8.43826 7.34314 8.62013 7.2875 8.80707 7.2802C8.99402 7.27289 9.17966 7.31418 9.3459 7.40002L12.3126 9.05835C12.4799 9.15206 12.6191 9.28877 12.7157 9.45433C12.8124 9.6199 12.8631 9.80829 12.8625 10Z" fill="#171723"/>
</svg>
