<svg width="20" height="20" viewBox="0 0 20 20" fill="none" xmlns="http://www.w3.org/2000/svg">
<g clip-path="url(#clip0_6394_68551)">
<path d="M15.9336 9.16718V8.14128C15.9336 6.56774 15.3085 5.05865 14.1959 3.94599C13.0832 2.83334 11.5741 2.20825 10.0006 2.20825C8.42704 2.20825 6.91795 2.83334 5.80529 3.94599C4.69263 5.05865 4.06755 6.56774 4.06755 8.14128V9.16682C3.67572 9.25978 3.32662 9.48198 3.07652 9.7976C2.82642 10.1132 2.6899 10.5039 2.68896 10.9066V13.658C2.68896 14.1335 2.87785 14.5895 3.21407 14.9258C3.55028 15.262 4.00629 15.4509 4.48177 15.4509C4.95726 15.4509 5.41326 15.262 5.74948 14.9258C6.0857 14.5895 6.27458 14.1335 6.27458 13.658V10.9066C6.27362 10.5048 6.13766 10.115 5.88854 9.79974C5.63941 9.4845 5.29157 9.26213 4.90088 9.16834V8.14128C4.89967 7.4708 5.03068 6.80667 5.28642 6.18688C5.54216 5.56709 5.91761 5.00381 6.39128 4.52929C6.86495 4.05476 7.42755 3.67829 8.04687 3.42143C8.6662 3.16457 9.3301 3.03236 10.0006 3.03236C10.6711 3.03236 11.3349 3.16457 11.9543 3.42143C12.5736 3.67829 13.1362 4.05476 13.6099 4.52929C14.0835 5.00381 14.459 5.56709 14.7147 6.18688C14.9705 6.80667 15.1015 7.4708 15.1003 8.14128V9.16809C14.7094 9.26175 14.3613 9.48409 14.112 9.79939C13.8628 10.1147 13.7267 10.5046 13.7257 10.9066V13.658C13.7267 14.0603 13.8629 14.4505 14.1126 14.7659C14.3622 15.0814 14.7106 15.3037 15.1019 15.397V15.721C15.1016 15.9398 15.0146 16.1495 14.8599 16.3042C14.7052 16.4589 14.4955 16.5459 14.2767 16.5462H13.512C13.4411 16.421 13.3387 16.3166 13.2148 16.2435C13.0909 16.1704 12.95 16.1311 12.8061 16.1296H10.5991C10.3781 16.1296 10.1661 16.2174 10.0099 16.3736C9.85359 16.5299 9.76579 16.7419 9.76579 16.9629C9.76579 17.1839 9.85359 17.3959 10.0099 17.5522C10.1661 17.7084 10.3781 17.7962 10.5991 17.7962H12.8062C12.95 17.7947 13.0909 17.7554 13.2148 17.6823C13.3387 17.6091 13.4411 17.5048 13.512 17.3796H14.2767C14.7164 17.3791 15.1381 17.2043 15.449 16.8933C15.7599 16.5824 15.9348 16.1608 15.9352 15.721V15.3969C16.3263 15.3034 16.6746 15.0811 16.924 14.7657C17.1735 14.4503 17.3096 14.0602 17.3106 13.658V10.9066C17.3097 10.5042 17.1733 10.1138 16.9236 9.79823C16.6738 9.48271 16.3251 9.26043 15.9336 9.16718ZM5.44125 10.9066V13.658C5.44125 13.9125 5.34016 14.1566 5.16022 14.3365C4.98029 14.5164 4.73624 14.6175 4.48177 14.6175C4.2273 14.6175 3.98326 14.5164 3.80332 14.3365C3.62339 14.1566 3.5223 13.9125 3.5223 13.658V10.9066C3.52264 10.6524 3.62373 10.4087 3.80342 10.2289C3.98311 10.049 4.22675 9.94778 4.48096 9.94726L4.48421 9.94792L4.48505 9.94777C4.73876 9.94886 4.98174 10.0503 5.1609 10.23C5.34006 10.4096 5.44085 10.6529 5.44125 10.9066ZM16.4773 13.658C16.4773 13.784 16.4524 13.9087 16.4043 14.0251C16.3561 14.1414 16.2854 14.2472 16.1964 14.3362C16.1073 14.4253 16.0016 14.4959 15.8852 14.5441C15.7688 14.5923 15.6441 14.6171 15.5182 14.6171C15.3922 14.6171 15.2675 14.5923 15.1512 14.5441C15.0348 14.4959 14.9291 14.4253 14.84 14.3362C14.751 14.2472 14.6803 14.1414 14.6321 14.0251C14.5839 13.9087 14.5591 13.784 14.5591 13.658V10.9066C14.5595 10.6528 14.6604 10.4094 14.8396 10.2297C15.0189 10.0501 15.262 9.94864 15.5158 9.94766L15.517 9.94792L15.5199 9.94736C15.7739 9.94798 16.0173 10.0493 16.1968 10.2291C16.3763 10.4089 16.4771 10.6525 16.4773 10.9066V13.658Z" fill="#171723"/>
</g>
<defs>
<clipPath id="clip0_6394_68551">
<rect width="20" height="20" fill="white"/>
</clipPath>
</defs>
</svg>
