<svg width="19" height="19" viewBox="0 0 19 19" fill="none" xmlns="http://www.w3.org/2000/svg">
<g clip-path="url(#clip0_10314_145361)">
<path d="M17.3044 17.7256H7.30436C7.24964 17.7256 7.19544 17.7149 7.14487 17.6939C7.09431 17.673 7.04836 17.6423 7.00967 17.6036C6.97097 17.5649 6.94028 17.519 6.91935 17.4684C6.89842 17.4178 6.88767 17.3636 6.8877 17.3089V12.1673H1.75505C1.70032 12.1673 1.64612 12.1566 1.59556 12.1357C1.54499 12.1147 1.49904 12.084 1.46035 12.0454C1.42165 12.0067 1.39096 11.9607 1.37003 11.9101C1.3491 11.8596 1.33835 11.8054 1.33838 11.7507V1.75065C1.33835 1.69592 1.3491 1.64173 1.37003 1.59116C1.39096 1.5406 1.42165 1.49465 1.46035 1.45595C1.49904 1.41726 1.54499 1.38656 1.59556 1.36564C1.64612 1.34471 1.70032 1.33395 1.75505 1.33398H11.755C11.8098 1.33395 11.864 1.34471 11.9145 1.36564C11.9651 1.38656 12.011 1.41726 12.0497 1.45595C12.0884 1.49465 12.1191 1.5406 12.1401 1.59116C12.161 1.64173 12.1717 1.69592 12.1717 1.75065V6.89225H17.3044C17.3591 6.89222 17.4133 6.90297 17.4639 6.9239C17.5144 6.94483 17.5604 6.97552 17.5991 7.01422C17.6378 7.05292 17.6685 7.09886 17.6894 7.14943C17.7103 7.2 17.7211 7.25419 17.721 7.30892V17.3089C17.7211 17.3636 17.7103 17.4178 17.6894 17.4684C17.6685 17.519 17.6378 17.5649 17.5991 17.6036C17.5604 17.6423 17.5144 17.673 17.4639 17.6939C17.4133 17.7149 17.3591 17.7256 17.3044 17.7256ZM7.72103 16.8923H16.8877V7.72558H11.755C11.7003 7.72562 11.6461 7.71486 11.5956 7.69393C11.545 7.673 11.499 7.64231 11.4603 7.60362C11.4217 7.56492 11.391 7.51897 11.37 7.46841C11.3491 7.41784 11.3383 7.36364 11.3384 7.30892V2.16732H2.17171V11.334H7.30436C7.35909 11.334 7.41329 11.3447 7.46385 11.3656C7.51442 11.3866 7.56036 11.4173 7.59906 11.456C7.63776 11.4946 7.66845 11.5406 7.68938 11.5912C7.71031 11.6417 7.72106 11.6959 7.72103 11.7507V16.8923Z" fill="#171723"/>
</g>
<defs>
<clipPath id="clip0_10314_145361">
<rect width="18.53" height="18.53" fill="white"/>
</clipPath>
</defs>
</svg>
