<svg width="20" height="20" viewBox="0 0 20 20" fill="none" xmlns="http://www.w3.org/2000/svg">
<path d="M14.8581 1.80835H5.14144C4.70367 1.80824 4.27017 1.89438 3.8657 2.06186C3.46123 2.22934 3.09372 2.47487 2.78417 2.78442C2.47462 3.09397 2.22909 3.46147 2.06162 3.86594C1.89414 4.27041 1.808 4.70391 1.80811 5.14168V14.8584C1.808 15.2961 1.89414 15.7296 2.06162 16.1341C2.22909 16.5386 2.47462 16.9061 2.78417 17.2156C3.09372 17.5252 3.46123 17.7707 3.8657 17.9382C4.27017 18.1056 4.70367 18.1918 5.14144 18.1917H14.8581C15.2959 18.1918 15.7294 18.1056 16.1338 17.9382C16.5383 17.7707 16.9058 17.5252 17.2154 17.2156C17.5249 16.9061 17.7705 16.5386 17.9379 16.1341C18.1054 15.7296 18.1915 15.2961 18.1914 14.8584V5.14168C18.1915 4.70391 18.1054 4.27041 17.9379 3.86594C17.7705 3.46147 17.5249 3.09397 17.2154 2.78442C16.9058 2.47487 16.5383 2.22934 16.1338 2.06186C15.7294 1.89438 15.2959 1.80824 14.8581 1.80835ZM7.00811 10.4417C7.00865 10.4966 6.99824 10.551 6.97749 10.6018C6.95674 10.6526 6.92607 10.6987 6.88727 10.7375C6.84847 10.7763 6.80233 10.807 6.75153 10.8277C6.70073 10.8485 6.64631 10.8589 6.59144 10.8584H4.85811C4.74769 10.858 4.6419 10.814 4.56382 10.736C4.48575 10.6579 4.44175 10.5521 4.44144 10.4417V8.70835C4.44175 8.59794 4.48575 8.49214 4.56382 8.41407C4.6419 8.336 4.74769 8.292 4.85811 8.29168H6.59144C6.64631 8.29114 6.70073 8.30155 6.75153 8.3223C6.80233 8.34305 6.84847 8.37372 6.88727 8.41252C6.92607 8.45132 6.95674 8.49746 6.97749 8.54826C6.99824 8.59906 7.00865 8.65348 7.00811 8.70835V10.4417ZM7.00811 6.59168C7.00865 6.64655 6.99824 6.70098 6.97749 6.75177C6.95674 6.80257 6.92607 6.84872 6.88727 6.88752C6.84847 6.92632 6.80233 6.95699 6.75153 6.97774C6.70073 6.99848 6.64631 7.00889 6.59144 7.00835H4.85811C4.74769 7.00804 4.6419 6.96404 4.56382 6.88597C4.48575 6.80789 4.44175 6.70209 4.44144 6.59168V4.85835C4.44317 4.74838 4.48762 4.6434 4.56539 4.56563C4.64316 4.48787 4.74814 4.44341 4.85811 4.44168H6.59144C6.70185 4.442 6.80764 4.48601 6.88571 4.56408C6.96378 4.64215 7.00778 4.74794 7.00811 4.85835V6.59168ZM10.8581 10.4417C10.8586 10.4966 10.8482 10.551 10.8275 10.6018C10.8067 10.6526 10.7761 10.6987 10.7373 10.7375C10.6985 10.7763 10.6523 10.807 10.6015 10.8277C10.5507 10.8485 10.4963 10.8589 10.4414 10.8584H8.70811C8.65324 10.8589 8.59881 10.8485 8.54801 10.8277C8.49721 10.807 8.45106 10.7763 8.41226 10.7375C8.37346 10.6987 8.34279 10.6526 8.32205 10.6018C8.3013 10.551 8.29089 10.4966 8.29144 10.4417V8.70835C8.29089 8.65348 8.3013 8.59906 8.32205 8.54826C8.34279 8.49746 8.37346 8.45131 8.41226 8.41251C8.45106 8.37371 8.49721 8.34304 8.54801 8.32229C8.59881 8.30154 8.65324 8.29114 8.70811 8.29168H10.4414C10.4963 8.29114 10.5507 8.30155 10.6015 8.3223C10.6523 8.34305 10.6985 8.37372 10.7373 8.41252C10.7761 8.45132 10.8067 8.49746 10.8275 8.54826C10.8482 8.59906 10.8586 8.65348 10.8581 8.70835V10.4417Z" fill="#171723"/>
</svg>
