<svg width="20" height="20" viewBox="0 0 20 20" fill="none" xmlns="http://www.w3.org/2000/svg">
<g clip-path="url(#clip0_5313_35129)">
<path d="M14.7414 11.9224L10.399 7.48636C10.361 7.44715 10.3156 7.4159 10.2653 7.39444C10.2151 7.37298 10.1611 7.36173 10.1065 7.36136C10.0517 7.36066 9.9973 7.37075 9.94639 7.39108C9.89548 7.4114 9.84906 7.44156 9.8098 7.47982L5.26472 11.924C5.22504 11.9621 5.1933 12.0077 5.17133 12.0582C5.14937 12.1086 5.13762 12.163 5.13677 12.218C5.13591 12.273 5.14597 12.3277 5.16635 12.3788C5.18673 12.4299 5.21704 12.4765 5.25552 12.5158C5.294 12.5552 5.33989 12.5865 5.39055 12.608C5.44121 12.6295 5.49562 12.6408 5.55065 12.6411C5.60568 12.6415 5.66024 12.6309 5.71118 12.6101C5.76211 12.5893 5.80841 12.5585 5.84741 12.5197L10.0947 8.36671L14.1457 12.505C14.2233 12.5828 14.3284 12.6268 14.4382 12.6274C14.548 12.6281 14.6536 12.5854 14.7321 12.5087C14.8106 12.4319 14.8556 12.3272 14.8574 12.2174C14.8591 12.1076 14.8175 12.0016 14.7414 11.9224L14.7414 11.9224Z" fill="#171723"/>
</g>
<defs>
<clipPath id="clip0_5313_35129">
<rect width="20" height="20" fill="white"/>
</clipPath>
</defs>
</svg>
