<svg width="20" height="20" viewBox="0 0 20 20" fill="none" xmlns="http://www.w3.org/2000/svg">
<g clip-path="url(#clip0_10314_145592)">
<path d="M7.65235 11.9638C7.53661 12.0721 7.40025 12.159 7.25033 12.2202C6.90765 12.3352 6.53582 12.3501 6.18389 12.2631C6.06546 12.231 5.95261 12.1831 5.84884 12.1208C5.77192 12.0747 5.70332 12.0175 5.64559 11.9513C5.58756 11.8827 5.536 11.8095 5.4915 11.7326C5.45936 11.6776 5.43317 11.6198 5.41333 11.5599C5.39434 11.4992 5.37982 11.4542 5.37089 11.4155C5.35674 11.3398 5.32352 11.2684 5.27401 11.2072C5.22449 11.1459 5.1601 11.0966 5.08618 11.0634C5.01226 11.0301 4.93094 11.0139 4.84898 11.016C4.76701 11.0181 4.68676 11.0385 4.61489 11.0755C4.53526 11.118 4.47231 11.1833 4.43532 11.2619C4.39832 11.3404 4.38924 11.428 4.40941 11.5118C4.43397 11.6112 4.46525 11.7179 4.50547 11.8341C4.55095 11.9637 4.60849 12.0894 4.67744 12.2097C4.75404 12.3393 4.845 12.461 4.9488 12.5728C5.0726 12.7053 5.21856 12.818 5.38097 12.9066C5.55739 13.0018 5.74669 13.0743 5.94377 13.1221C6.18204 13.1786 6.42724 13.2054 6.67299 13.2016C6.97674 13.2041 7.27828 13.153 7.56188 13.051C7.82155 12.9559 8.06096 12.8181 8.26875 12.6439C8.46901 12.4724 8.63106 12.2654 8.7456 12.035C8.86152 11.802 8.92137 11.548 8.92092 11.291C8.92301 11.0641 8.88022 10.8388 8.79473 10.6266C8.71024 10.4164 8.57933 10.2253 8.41058 10.0657C8.32421 9.98431 8.22919 9.91139 8.12699 9.84808C8.15827 9.82297 8.1873 9.79681 8.21634 9.77065C8.37831 9.61894 8.5096 9.44097 8.60384 9.24538C8.70535 9.03284 8.75677 8.80229 8.75458 8.56944C8.76062 8.29427 8.70032 8.02136 8.57815 7.77107C8.4673 7.5517 8.30509 7.35857 8.1036 7.20604C7.91131 7.06376 7.69133 6.95786 7.45591 6.89424C6.96611 6.75996 6.44412 6.76983 5.96049 6.92251C5.72018 7.00314 5.49792 7.12485 5.30499 7.28145C5.1116 7.44084 4.95242 7.63332 4.83597 7.84858C4.71516 8.07514 4.63624 8.31927 4.60258 8.57056C4.59851 8.62874 4.60742 8.68708 4.62877 8.74185C4.65011 8.79662 4.68341 8.84662 4.72654 8.88865C4.77103 8.93206 4.82444 8.96658 4.88355 8.99014C4.94266 9.01369 5.00625 9.0258 5.07048 9.02572C5.18489 9.01373 5.29255 8.96889 5.37871 8.89735C5.46487 8.8258 5.52532 8.73105 5.55178 8.62607C5.57437 8.48902 5.62197 8.35665 5.69249 8.23473C5.82064 8.00862 6.03461 7.83576 6.29215 7.75027C6.5793 7.66261 6.88807 7.6586 7.1777 7.73876C7.29682 7.77042 7.40778 7.82454 7.50378 7.89781C7.5949 7.96733 7.66689 8.05632 7.71372 8.1573C7.77316 8.28739 7.80136 8.42813 7.79635 8.56957C7.79928 8.68902 7.7735 8.80756 7.72093 8.91641C7.66835 9.02526 7.59032 9.12164 7.49261 9.19842C7.37547 9.28805 7.24136 9.3562 7.09729 9.39932C6.91243 9.45536 6.7198 9.48568 6.52554 9.48932C6.40825 9.50702 6.3017 9.56372 6.2254 9.64905C6.14911 9.73437 6.10818 9.8426 6.11013 9.9539C6.10997 10.06 6.15464 10.1618 6.23437 10.2371C6.3141 10.3124 6.4224 10.355 6.53559 10.3557C6.77875 10.3522 7.0211 10.3825 7.25475 10.4457C7.40983 10.4866 7.55453 10.5564 7.68022 10.6508C7.773 10.7225 7.84549 10.8145 7.89127 10.9186C7.94016 11.0374 7.96442 11.1639 7.96274 11.2912C7.96143 11.4081 7.93562 11.5236 7.8868 11.6312C7.83227 11.7552 7.75266 11.8682 7.65235 11.9638Z" fill="#171723"/>
<path d="M14.7349 7.7062C14.4532 7.42799 14.1092 7.21177 13.7276 7.07315C13.3276 6.92896 12.9021 6.85689 12.4736 6.86074H10.3854C10.2716 6.86077 10.1626 6.90311 10.0822 6.97846C10.0018 7.0538 9.95657 7.15599 9.95654 7.26254V12.7381C9.95657 12.8447 10.0018 12.9468 10.0822 13.0222C10.1626 13.0975 10.2716 13.1399 10.3854 13.1399H12.4736C12.9025 13.1437 13.3283 13.0716 13.7288 12.9275C14.1094 12.7888 14.4526 12.573 14.7338 12.2955C15.0203 12.008 15.2404 11.6682 15.3804 11.2973C15.6808 10.4567 15.6812 9.54732 15.3815 8.70648C15.2418 8.33489 15.0216 7.99435 14.7349 7.7062V7.7062ZM14.4758 10.997C14.3806 11.254 14.231 11.4903 14.0359 11.6918C13.8501 11.876 13.6227 12.0191 13.3703 12.1103C13.0838 12.2112 12.7797 12.2612 12.4736 12.2578H10.9158V7.74281H12.4736C12.7797 7.7396 13.0838 7.78999 13.3703 7.89141C13.6218 7.98319 13.8486 8.12573 14.0347 8.3089C14.2306 8.50942 14.3804 8.74556 14.4747 9.00263C14.6947 9.65138 14.6951 10.348 14.4758 10.997H14.4758Z" fill="#171723"/>
<path d="M11.8363 0.802356L11.8646 0.24138C11.8666 0.200961 11.8572 0.160757 11.8374 0.124805C11.8176 0.0888526 11.788 0.0584179 11.7517 0.0365567C11.7153 0.0146956 11.6735 0.00217739 11.6304 0.000259302C11.5872 -0.00165879 11.5443 0.00709084 11.5059 0.0256293L9.56043 0.966558C9.52205 0.985123 9.48957 1.01282 9.46624 1.04688C9.44291 1.08093 9.42956 1.12013 9.42752 1.16055C9.42548 1.20097 9.43483 1.24118 9.45463 1.27715C9.47444 1.31311 9.50399 1.34355 9.54032 1.36542L11.3825 2.4739C11.4188 2.49577 11.4607 2.50829 11.5038 2.5102C11.547 2.51211 11.5899 2.50335 11.6283 2.48479C11.6667 2.46623 11.6991 2.43854 11.7225 2.40448C11.7458 2.37043 11.7592 2.33122 11.7612 2.29079L11.7878 1.7631C13.8135 2.15457 15.634 3.18672 16.9441 4.6865C18.2541 6.18627 18.974 8.06247 18.9831 10.0005C18.9849 10.2404 18.9723 10.4802 18.9454 10.7188C18.9306 10.8443 18.9695 10.9703 19.0536 11.069C19.1377 11.1677 19.2602 11.2311 19.3942 11.2454C19.4133 11.2472 19.4325 11.2482 19.4517 11.2482C19.5766 11.2479 19.6971 11.2047 19.7901 11.1266C19.8831 11.0485 19.9422 10.9411 19.9562 10.8249C19.9871 10.5511 20.0017 10.2758 19.9999 10.0005C19.9893 7.818 19.169 5.70686 17.6797 4.02876C16.1903 2.35067 14.1246 1.21006 11.8363 0.802356V0.802356Z" fill="#171723"/>
<path d="M8.61874 17.5262C8.58241 17.5043 8.54057 17.4918 8.49742 17.4898C8.45428 17.4879 8.41135 17.4966 8.37295 17.5152C8.33455 17.5337 8.30204 17.5614 8.27869 17.5954C8.25533 17.6295 8.24195 17.6687 8.23989 17.7091L8.21309 18.2367C6.18775 17.8448 4.36763 16.8127 3.05756 15.3133C1.74749 13.8139 1.02703 11.9383 1.01686 10.0005C1.01557 9.76 1.02816 9.5196 1.05459 9.28036C1.06907 9.15476 1.0297 9.02892 0.945163 8.93052C0.860623 8.83211 0.73783 8.7692 0.60379 8.75562C0.470493 8.74553 0.338138 8.7837 0.233963 8.86227C0.129787 8.94084 0.0617172 9.05384 0.0437601 9.17801C0.0133719 9.45124 -0.00120996 9.72581 7.84532e-05 10.0005C0.0115964 12.1828 0.832256 14.2934 2.32158 15.9712C3.81091 17.649 5.8763 18.7895 8.16421 19.1976L8.13573 19.7585C8.13368 19.7989 8.14301 19.8391 8.16281 19.8751C8.1826 19.9111 8.21215 19.9415 8.24849 19.9634C8.28482 19.9853 8.32667 19.9978 8.36981 19.9997C8.41295 20.0017 8.45588 19.9929 8.49427 19.9744L10.4402 19.0343C10.4786 19.0157 10.5111 18.988 10.5344 18.954C10.5577 18.9199 10.5711 18.8807 10.5732 18.8403C10.5752 18.7999 10.5659 18.7597 10.5461 18.7237C10.5263 18.6877 10.4968 18.6573 10.4604 18.6354L8.61874 17.5262Z" fill="#171723"/>
</g>
<defs>
<clipPath id="clip0_10314_145592">
<rect width="20" height="20" fill="white"/>
</clipPath>
</defs>
</svg>
