<svg width="20" height="20" viewBox="0 0 20 20" fill="none" xmlns="http://www.w3.org/2000/svg">
<g clip-path="url(#clip0_10314_145865)">
<path d="M9.41485 16.892C9.07218 16.8928 8.73012 16.8631 8.39272 16.8033C8.08422 16.7487 7.77992 16.6726 7.48206 16.5754C7.21229 16.4867 6.94974 16.3773 6.69675 16.2483C6.47766 16.1372 6.26784 16.0088 6.06931 15.8642C6.03602 15.8396 6.00794 15.8087 5.9867 15.7731C5.96546 15.7376 5.95149 15.6983 5.94558 15.6573C5.93968 15.6163 5.94196 15.5746 5.95231 15.5346C5.96265 15.4945 5.98084 15.4569 6.00583 15.4239L6.06198 15.3499C6.10272 15.2926 6.15691 15.2463 6.21978 15.2149C6.28265 15.1835 6.35227 15.1681 6.4225 15.17C6.58568 15.1885 6.74087 15.2506 6.87171 15.3499C7.3153 15.6063 7.7932 15.7981 8.29098 15.9195C9.14924 16.1176 10.0455 16.0754 10.8813 15.7974C11.3312 15.6436 11.7429 15.3951 12.0886 15.0687C12.4344 14.7423 12.7062 14.3456 12.8857 13.9054C13.0984 13.3859 13.2025 12.8284 13.1917 12.2672C13.1955 11.8059 13.1237 11.3471 12.9793 10.9089C12.8503 10.5199 12.6353 10.165 12.3502 9.87053C12.0422 9.56348 11.6701 9.32837 11.2605 9.18205C10.3625 8.90352 9.41059 8.84573 8.48548 9.01359C8.02956 9.07852 7.57751 9.16817 7.13132 9.28214C7.06297 9.3004 6.99039 9.29406 6.92624 9.26424L6.7586 9.18856C6.69519 9.15983 6.64315 9.11079 6.61073 9.04918C6.57831 8.98758 6.56734 8.91692 6.57956 8.84838L7.56426 3.3658C7.57723 3.29366 7.61515 3.22838 7.67138 3.18137C7.72762 3.13436 7.79859 3.10862 7.87188 3.10864H13.448C13.5309 3.10866 13.6104 3.1416 13.669 3.2002C13.7276 3.2588 13.7605 3.33827 13.7605 3.42114V3.51473C13.7602 3.57371 13.7474 3.63196 13.723 3.68567C13.6986 3.73937 13.6631 3.78732 13.6189 3.82639C13.5356 3.89932 13.4286 3.93952 13.3178 3.93951H8.31784L7.51299 8.36578C7.83037 8.29578 8.1323 8.24127 8.41549 8.20302C9.45736 8.02414 10.527 8.09867 11.534 8.4203C12.0549 8.6046 12.5303 8.89848 12.928 9.28212C13.3086 9.65646 13.5994 10.1122 13.7784 10.6151C13.9687 11.1516 14.0629 11.7175 14.0568 12.2867C14.0671 12.9551 13.938 13.6184 13.6775 14.2341C13.44 14.7826 13.0924 15.2764 12.6562 15.6851C12.2259 16.0802 11.7213 16.3859 11.1719 16.5844C10.609 16.7899 10.0141 16.8941 9.41485 16.892Z" fill="#171723"/>
</g>
<defs>
<clipPath id="clip0_10314_145865">
<rect width="20" height="20" fill="white"/>
</clipPath>
</defs>
</svg>
