<svg width="20" height="20" viewBox="0 0 20 20" fill="none" xmlns="http://www.w3.org/2000/svg">
<path d="M17.5391 1H2.4615C2.20927 0.999436 1.95939 1.04857 1.72615 1.1446C1.49291 1.24064 1.28088 1.38169 1.10217 1.55969C0.92346 1.73769 0.781574 1.94917 0.684619 2.18202C0.587663 2.41488 0.537539 2.66456 0.537109 2.91679V13.5263C0.5376 14.0367 0.740442 14.5261 1.10117 14.8872C1.4619 15.2483 1.95109 15.4516 2.4615 15.4527H17.5391C18.0495 15.4516 18.5387 15.2483 18.8994 14.8872C19.2601 14.5261 19.463 14.0367 19.4635 13.5263V2.91679C19.463 2.66456 19.4129 2.41488 19.316 2.18202C19.219 1.94917 19.0771 1.73769 18.8984 1.55969C18.7197 1.38169 18.5077 1.24064 18.2744 1.1446C18.0412 1.04857 17.7913 0.999436 17.5391 1ZM9.9955 3.61645C10.5101 3.61754 11.0128 3.77119 11.4401 4.05799C11.8674 4.34478 12.2001 4.75183 12.396 5.22767C12.592 5.70351 12.6424 6.22677 12.541 6.73129C12.4396 7.23581 12.1909 7.69892 11.8263 8.06208C11.4617 8.42524 10.9976 8.67214 10.4926 8.77155C9.98773 8.87095 9.46467 8.81842 8.98961 8.62057C8.51456 8.42273 8.10883 8.08846 7.82374 7.66004C7.53864 7.23162 7.38699 6.72828 7.38794 6.21368C7.39041 5.52382 7.66626 4.86307 8.15503 4.37624C8.64381 3.8894 9.30564 3.61617 9.9955 3.61645ZM14.691 12.7404C14.6908 12.8488 14.6692 12.9562 14.6275 13.0563C14.5858 13.1564 14.5248 13.2474 14.448 13.3239C14.3712 13.4004 14.28 13.4611 14.1797 13.5024C14.0794 13.5437 13.972 13.5649 13.8635 13.5646H6.13709C6.02863 13.5649 5.92119 13.5437 5.8209 13.5024C5.72061 13.4611 5.62944 13.4004 5.5526 13.3239C5.47575 13.2474 5.41474 13.1564 5.37304 13.0563C5.33134 12.9562 5.30977 12.8488 5.30956 12.7404V12.1174C5.31009 11.7466 5.3837 11.3796 5.52619 11.0372C5.66868 10.6949 5.87725 10.384 6.13997 10.1223C6.4027 9.86058 6.71442 9.65324 7.05733 9.51211C7.40024 9.37098 7.76761 9.29882 8.13842 9.29976H11.8622C12.233 9.29882 12.6003 9.37097 12.9432 9.51211C13.2862 9.65324 13.5979 9.86057 13.8606 10.1223C14.1233 10.3839 14.3319 10.6949 14.4744 11.0372C14.6169 11.3796 14.6905 11.7466 14.691 12.1174V12.7404Z" fill="#171723"/>
<path d="M18.9264 18.9806H1.07363C0.788888 18.9806 0.515805 18.8675 0.31446 18.6662C0.113115 18.4648 0 18.1918 0 17.907C0 17.6223 0.113115 17.3492 0.31446 17.1478C0.515805 16.9465 0.788888 16.8334 1.07363 16.8334H18.9264C19.2111 16.8334 19.4842 16.9465 19.6855 17.1478C19.8869 17.3492 20 17.6223 20 17.907C20 18.1918 19.8869 18.4648 19.6855 18.6662C19.4842 18.8675 19.2111 18.9806 18.9264 18.9806Z" fill="#171723"/>
</svg>
