<svg width="20" height="20" viewBox="0 0 20 20" fill="none" xmlns="http://www.w3.org/2000/svg">
<g clip-path="url(#clip0_5400_35222)">
<path d="M18.1217 9.78055C17.0744 8.89901 15.7182 8.45625 14.3435 8.54708C12.9688 8.63792 11.6848 9.25512 10.7665 10.2665C10.3915 10.0635 9.999 9.89344 9.5936 9.75842C10.5116 9.25543 11.2342 8.46678 11.6482 7.51603C12.0622 6.56529 12.1442 5.50617 11.8813 4.50462C11.6185 3.50306 11.0256 2.61567 10.1957 1.98146C9.36575 1.34726 8.34558 1.00208 7.29504 1.00001C6.24451 0.99794 5.22295 1.3391 4.39043 1.97003C3.55791 2.60096 2.96147 3.48601 2.69455 4.48652C2.42764 5.48703 2.50533 6.54647 2.91546 7.49883C3.32559 8.4512 4.04499 9.24269 4.96093 9.74929C3.89515 10.0994 2.9268 10.6891 2.1326 11.4717C0.771628 12.8199 0.00535309 14.6421 0 16.543V18.3857C0 18.5186 0.0535811 18.6459 0.148956 18.7398C0.244331 18.8338 0.373687 18.8865 0.508567 18.8865C0.643447 18.8865 0.772803 18.8338 0.868178 18.7398C0.963553 18.6459 1.01713 18.5186 1.01713 18.3857V16.543C1.02161 14.9075 1.68082 13.3397 2.85175 12.1798C3.78891 11.251 5.00385 10.6426 6.31811 10.444C7.63236 10.2455 8.97665 10.4671 10.1535 11.0764C9.6934 11.8104 9.42782 12.6464 9.38112 13.5077C9.33443 14.369 9.50812 15.228 9.88627 16.0061C10.4025 17.0806 11.2749 17.9499 12.36 18.4709C13.445 18.9918 14.6779 19.1333 15.8556 18.8721C17.0332 18.6108 18.0854 17.9624 18.8387 17.0336C19.592 16.1048 20.0016 14.951 20 13.7623C20.001 13.0039 19.8334 12.2544 19.5089 11.5665C19.1845 10.8786 18.711 10.269 18.1217 9.78055ZM3.55603 5.69999C3.55583 4.97355 3.77441 4.26337 4.18413 3.65926C4.59384 3.05515 5.17629 2.58426 5.85781 2.30612C6.53933 2.02799 7.28931 1.95511 8.01289 2.09671C8.73648 2.23831 9.40116 2.58803 9.92289 3.10163C10.4446 3.61522 10.8 4.26964 10.944 4.9821C11.088 5.69457 11.0141 6.43308 10.7319 7.10424C10.4496 7.7754 9.97154 8.34906 9.35815 8.75267C8.74476 9.15628 8.0236 9.3717 7.28586 9.3717C6.29712 9.37077 5.34913 8.98366 4.64989 8.29531C3.95064 7.60696 3.55726 6.67359 3.55603 5.69999V5.69999ZM14.6919 17.9984C13.8781 17.9958 13.0816 17.7671 12.394 17.3385C11.7064 16.9099 11.1557 16.2989 10.8051 15.5757C10.5308 15.0094 10.3893 14.3897 10.3909 13.7623C10.3921 12.9261 10.6449 12.109 11.1175 11.4143C11.59 10.7195 12.2611 10.1782 13.0459 9.85877C13.8307 9.53935 14.694 9.45613 15.5268 9.61962C16.3597 9.78311 17.1246 10.186 17.725 10.7773C18.3254 11.3687 18.7344 12.122 18.9002 12.9421C19.066 13.7622 18.9813 14.6123 18.6568 15.385C18.3322 16.1577 17.7823 16.8184 17.0766 17.2835C16.3709 17.7487 15.5411 17.9975 14.6919 17.9984V17.9984Z" fill="#171723"/>
<path d="M17.0066 13.2626H15.1978V11.4815C15.1978 11.3487 15.1442 11.2213 15.0488 11.1274C14.9534 11.0335 14.8241 10.9807 14.6892 10.9807C14.5543 10.9807 14.425 11.0335 14.3296 11.1274C14.2342 11.2213 14.1806 11.3487 14.1806 11.4815V13.2626H12.3718C12.237 13.2626 12.1076 13.3153 12.0122 13.4093C11.9169 13.5032 11.8633 13.6306 11.8633 13.7634C11.8633 13.8962 11.9169 14.0236 12.0122 14.1175C12.1076 14.2114 12.237 14.2641 12.3718 14.2641H14.1806V16.0452C14.1806 16.1781 14.2342 16.3054 14.3296 16.3993C14.425 16.4933 14.5543 16.546 14.6892 16.546C14.8241 16.546 14.9534 16.4933 15.0488 16.3993C15.1442 16.3054 15.1978 16.1781 15.1978 16.0452V14.2641H17.0066C17.1414 14.2641 17.2708 14.2114 17.3662 14.1175C17.4615 14.0236 17.5151 13.8962 17.5151 13.7634C17.5151 13.6306 17.4615 13.5032 17.3662 13.4093C17.2708 13.3153 17.1414 13.2626 17.0066 13.2626V13.2626Z" fill="#171723"/>
</g>
<defs>
<clipPath id="clip0_5400_35222">
<rect width="20" height="20" fill="white"/>
</clipPath>
</defs>
</svg>
