<svg width="20" height="20" viewBox="0 0 20 20" fill="none" xmlns="http://www.w3.org/2000/svg">
<g clip-path="url(#clip0_5313_35041)">
<g clip-path="url(#clip1_5313_35041)">
<path d="M15.9321 0H4.06793C2.9894 0.00114675 1.95537 0.430078 1.19274 1.19268C0.4301 1.95527 0.0011468 2.98925 0 4.06773V15.9323C0.0011468 17.0107 0.4301 18.0447 1.19274 18.8073C1.95537 19.5699 2.9894 19.9989 4.06793 20H15.9321C17.0106 19.9989 18.0446 19.5699 18.8073 18.8073C19.5699 18.0447 19.9989 17.0107 20 15.9323V4.06773C19.9989 2.98926 19.5699 1.95529 18.8073 1.19269C18.0447 0.430097 17.0106 0.0011602 15.9321 0V0ZM18.9831 15.9323C18.9822 16.7411 18.6605 17.5166 18.0885 18.0885C17.5165 18.6605 16.741 18.9822 15.9321 18.9831H4.06793C3.25904 18.9822 2.48353 18.6605 1.91156 18.0885C1.33959 17.5166 1.01787 16.7411 1.01698 15.9323V4.06773C1.01787 3.25888 1.33959 2.48341 1.91156 1.91146C2.48353 1.33952 3.25904 1.01781 4.06793 1.01693H15.9321C16.741 1.01781 17.5165 1.33952 18.0884 1.91146C18.6604 2.48341 18.9821 3.25888 18.983 4.06773L18.9831 15.9323Z" fill="#171723"/>
<path d="M13.5757 9.58328H10.4165V6.42411C10.4165 6.31361 10.3726 6.20763 10.2945 6.12949C10.2164 6.05135 10.1104 6.00745 9.99987 6.00745C9.88937 6.00745 9.78339 6.05135 9.70525 6.12949C9.62711 6.20763 9.58321 6.31361 9.58321 6.42411V9.58328H6.42399C6.31348 9.58328 6.2075 9.62718 6.12936 9.70532C6.05122 9.78346 6.00732 9.88944 6.00732 9.99995C6.00732 10.1105 6.05122 10.2164 6.12936 10.2946C6.2075 10.3727 6.31348 10.4166 6.42399 10.4166H9.58316V13.5758C9.58316 13.6863 9.62706 13.7923 9.7052 13.8704C9.78334 13.9485 9.88932 13.9924 9.99982 13.9924C10.1103 13.9924 10.2163 13.9485 10.2945 13.8704C10.3726 13.7923 10.4165 13.6863 10.4165 13.5758V10.4166H13.5757C13.6862 10.4166 13.7921 10.3727 13.8703 10.2946C13.9484 10.2164 13.9923 10.1105 13.9923 9.99995C13.9923 9.88944 13.9484 9.78346 13.8703 9.70532C13.7921 9.62718 13.6862 9.58328 13.5757 9.58328H13.5757Z" fill="#171723"/>
</g>
</g>
<defs>
<clipPath id="clip0_5313_35041">
<rect width="20" height="20" fill="white"/>
</clipPath>
<clipPath id="clip1_5313_35041">
<rect width="20" height="20" fill="white"/>
</clipPath>
</defs>
</svg>
