<svg width="20" height="20" viewBox="0 0 20 20" fill="none" xmlns="http://www.w3.org/2000/svg">
<g clip-path="url(#clip0_5313_35041)">
<path d="M14.8607 1.80542H5.139C4.25523 1.80636 3.40793 2.15785 2.78301 2.78277C2.15809 3.40769 1.8066 4.25499 1.80566 5.13875V14.8613C1.8066 15.745 2.15809 16.5923 2.78301 17.2172C3.40793 17.8422 4.25523 18.1936 5.139 18.1946H14.8607C15.7444 18.1936 16.5917 17.8422 17.2166 17.2172C17.8416 16.5923 18.1931 15.745 18.194 14.8613V5.13875C18.1931 4.25499 17.8416 3.4077 17.2167 2.78278C16.5918 2.15787 15.7445 1.80637 14.8607 1.80542ZM17.3607 14.8613C17.36 15.5241 17.0964 16.1595 16.6277 16.6282C16.159 17.0969 15.5235 17.3605 14.8607 17.3613H5.139C4.47618 17.3605 3.84071 17.0969 3.37203 16.6282C2.90335 16.1595 2.63972 15.5241 2.639 14.8613V5.13875C2.63972 4.47593 2.90335 3.84047 3.37203 3.37179C3.84071 2.9031 4.47618 2.63948 5.139 2.63875H14.8607C15.5235 2.63948 16.1589 2.9031 16.6276 3.37179C17.0963 3.84047 17.3599 4.47593 17.3607 5.13875L17.3607 14.8613Z" fill="#171723"/>
<path d="M13.5757 9.58328H10.4165V6.42411C10.4165 6.31361 10.3726 6.20763 10.2945 6.12949C10.2164 6.05135 10.1104 6.00745 9.99987 6.00745C9.88937 6.00745 9.78339 6.05135 9.70525 6.12949C9.62711 6.20763 9.58321 6.31361 9.58321 6.42411V9.58328H6.42399C6.31348 9.58328 6.2075 9.62718 6.12936 9.70532C6.05122 9.78346 6.00732 9.88944 6.00732 9.99995C6.00732 10.1105 6.05122 10.2164 6.12936 10.2946C6.2075 10.3727 6.31348 10.4166 6.42399 10.4166H9.58316V13.5758C9.58316 13.6863 9.62706 13.7923 9.7052 13.8704C9.78334 13.9485 9.88932 13.9924 9.99982 13.9924C10.1103 13.9924 10.2163 13.9485 10.2945 13.8704C10.3726 13.7923 10.4165 13.6863 10.4165 13.5758V10.4166H13.5757C13.6862 10.4166 13.7921 10.3727 13.8703 10.2946C13.9484 10.2164 13.9923 10.1105 13.9923 9.99995C13.9923 9.88944 13.9484 9.78346 13.8703 9.70532C13.7921 9.62718 13.6862 9.58328 13.5757 9.58328H13.5757Z" fill="#171723"/>
</g>
<defs>
<clipPath id="clip0_5313_35041">
<rect width="20" height="20" fill="white"/>
</clipPath>
</defs>
</svg>
