<svg width="20" height="20" viewBox="0 0 20 20" fill="none" xmlns="http://www.w3.org/2000/svg">
<g clip-path="url(#clip0_6915_81251)">
<path d="M9.4903 8.19896C9.45753 8.14562 9.41164 8.10157 9.35701 8.07102C9.30237 8.04046 9.24082 8.02441 9.17822 8.02441C9.11562 8.02441 9.05406 8.04046 8.99943 8.07102C8.94479 8.10157 8.8989 8.14562 8.86613 8.19896L7.46475 11.5599C7.448 11.609 7.44354 11.6615 7.45177 11.7127C7.46 11.7639 7.48066 11.8123 7.51195 11.8537C7.5526 11.8964 7.60271 11.9289 7.65823 11.9486C7.71375 11.9683 7.77313 11.9747 7.83158 11.9673C7.89003 11.9598 7.94591 11.9388 7.99472 11.9058C8.04352 11.8727 8.08388 11.8287 8.11253 11.7772L8.50072 10.8454H9.85572L10.2349 11.7512C10.26 11.8188 10.3042 11.8777 10.3622 11.9206C10.4201 11.9635 10.4893 11.9886 10.5613 11.9928H10.6044C10.6559 11.993 10.7067 11.9803 10.7521 11.9561C10.7975 11.9318 10.8362 11.8967 10.8648 11.8538C10.8933 11.8109 10.9108 11.7616 10.9156 11.7103C10.9204 11.659 10.9125 11.6074 10.8925 11.5599L9.4903 8.19896ZM8.78067 10.1724L9.17862 9.21785L9.57657 10.1724H8.78067Z" fill="#171723"/>
<path d="M11.895 8.00703C11.8121 8.00705 11.7327 8.03998 11.6741 8.09858C11.6155 8.15718 11.5825 8.23665 11.5825 8.31953V11.6805C11.5825 11.7634 11.6155 11.8429 11.6741 11.9015C11.7327 11.9601 11.8121 11.993 11.895 11.993H11.952C12.0349 11.993 12.1143 11.9601 12.1729 11.9015C12.2315 11.8429 12.2645 11.7634 12.2645 11.6805V8.31953C12.2514 8.23143 12.2067 8.15111 12.1387 8.0936C12.0707 8.03608 11.9841 8.00531 11.895 8.00703Z" fill="#171723"/>
<path d="M17.0811 15.2034V12.3608C17.0805 11.919 16.9047 11.4954 16.5923 11.183C16.2798 10.8705 15.8563 10.6947 15.4144 10.6942H14.0513V9.3025H15.4144C15.8563 9.30192 16.2798 9.12614 16.5923 8.81371C16.9047 8.50127 17.0805 8.07768 17.0811 7.63583V4.79651C17.4362 4.69654 17.7432 4.4715 17.9454 4.16292C18.1475 3.85434 18.2313 3.48304 18.1811 3.11754C18.131 2.75204 17.9503 2.41701 17.6725 2.17428C17.3947 1.93156 17.0385 1.79751 16.6695 1.79688C16.3006 1.79625 15.9439 1.92908 15.6653 2.17085C15.3866 2.41263 15.2048 2.74704 15.1534 3.11236C15.102 3.47768 15.1845 3.84927 15.3856 4.15854C15.5868 4.46782 15.893 4.69391 16.2477 4.79509V7.63583C16.2476 7.8568 16.1597 8.06867 16.0035 8.22492C15.8473 8.38117 15.6354 8.46901 15.4144 8.46916H14.0513V7.6147C14.0507 7.17285 13.8749 6.74926 13.5625 6.43683C13.2501 6.12439 12.8265 5.94861 12.3846 5.94804H7.61493C7.17308 5.94861 6.74949 6.12439 6.43705 6.43683C6.12462 6.74926 5.94884 7.17285 5.94827 7.6147V8.46916H4.58107C4.36011 8.46901 4.14823 8.38117 3.99198 8.22492C3.83574 8.06867 3.74789 7.8568 3.74774 7.63583V4.79651C4.10286 4.69654 4.40984 4.4715 4.61202 4.16292C4.81421 3.85434 4.89796 3.48304 4.84781 3.11754C4.79767 2.75204 4.61701 2.41701 4.33919 2.17428C4.06137 1.93156 3.70512 1.79751 3.3362 1.79688C2.96728 1.79625 2.61058 1.92908 2.33193 2.17085C2.05328 2.41263 1.87148 2.74704 1.82008 3.11236C1.76869 3.47768 1.85117 3.84927 2.0523 4.15854C2.25342 4.46782 2.55963 4.69391 2.91441 4.79509V7.63583C2.91498 8.07768 3.09076 8.50127 3.4032 8.8137C3.71563 9.12614 4.13922 9.30192 4.58107 9.3025H5.94827V10.6942H4.58107C4.13922 10.6947 3.71563 10.8705 3.4032 11.183C3.09076 11.4954 2.91498 11.919 2.91441 12.3608V15.2049C2.55989 15.306 2.25394 15.532 2.05299 15.8411C1.85204 16.1502 1.76966 16.5215 1.82105 16.8866C1.87244 17.2517 2.05414 17.5858 2.33261 17.8274C2.61108 18.069 2.96753 18.2017 3.3362 18.2011C3.70486 18.2005 4.06086 18.0665 4.33851 17.824C4.61615 17.5814 4.7967 17.2467 4.84684 16.8814C4.89698 16.5162 4.81334 16.1451 4.61133 15.8367C4.40933 15.5283 4.1026 15.3034 3.74774 15.2034V12.3608C3.74789 12.1399 3.83574 11.928 3.99198 11.7717C4.14823 11.6155 4.36011 11.5276 4.58107 11.5275H5.94827V12.3852C5.94884 12.8271 6.12462 13.2507 6.43705 13.5631C6.74949 13.8756 7.17308 14.0513 7.61493 14.0519H12.3846C12.8265 14.0513 13.2501 13.8756 13.5625 13.5631C13.8749 13.2507 14.0507 12.8271 14.0513 12.3852V11.5275H15.4144C15.6354 11.5276 15.8473 11.6155 16.0035 11.7717C16.1597 11.928 16.2476 12.1399 16.2477 12.3608V15.2049C15.8932 15.306 15.5873 15.532 15.3863 15.8411C15.1854 16.1502 15.103 16.5215 15.1544 16.8866C15.2058 17.2517 15.3875 17.5858 15.6659 17.8274C15.9444 18.069 16.3009 18.2017 16.6695 18.2011C17.0382 18.2005 17.3942 18.0665 17.6718 17.824C17.9495 17.5814 18.13 17.2467 18.1802 16.8814C18.2303 16.5162 18.1467 16.1451 17.9447 15.8367C17.7427 15.5283 17.4359 15.3034 17.0811 15.2034V15.2034ZM15.9719 3.33333C15.9718 3.19595 16.0124 3.06164 16.0887 2.94737C16.1649 2.8331 16.2734 2.74401 16.4003 2.69136C16.5271 2.63871 16.6668 2.62487 16.8015 2.65159C16.9363 2.67831 17.0601 2.74439 17.1573 2.84147C17.2545 2.93855 17.3207 3.06228 17.3476 3.197C17.3745 3.33172 17.3608 3.47138 17.3083 3.59833C17.2558 3.72528 17.1669 3.83381 17.0527 3.9102C16.9385 3.98659 16.8042 4.02741 16.6669 4.02749C16.4827 4.02736 16.3062 3.95421 16.1759 3.82408C16.0456 3.69396 15.9722 3.51747 15.9719 3.33333ZM2.63853 3.33333C2.63845 3.19595 2.67911 3.06164 2.75536 2.94737C2.83161 2.8331 2.94004 2.74401 3.06692 2.69136C3.19381 2.63871 3.33346 2.62487 3.46821 2.65159C3.60296 2.67831 3.72677 2.74439 3.82396 2.84147C3.92116 2.93855 3.98739 3.06228 4.01427 3.197C4.04115 3.33172 4.02748 3.47138 3.97499 3.59833C3.92249 3.72528 3.83353 3.83381 3.71935 3.9102C3.60517 3.98659 3.47091 4.02741 3.33353 4.02749C3.14939 4.02736 2.97282 3.95421 2.84253 3.82408C2.71224 3.69396 2.63888 3.51747 2.63853 3.33333ZM4.0277 16.6667C4.02778 16.8041 3.9871 16.9384 3.91081 17.0527C3.83452 17.167 3.72605 17.2561 3.59911 17.3087C3.47218 17.3613 3.33249 17.3751 3.19771 17.3483C3.06294 17.3215 2.93913 17.2554 2.84197 17.1582C2.74481 17.0611 2.67865 16.9373 2.65186 16.8025C2.62507 16.6677 2.63886 16.528 2.69148 16.4011C2.74411 16.2741 2.8332 16.1657 2.94749 16.0894C3.06177 16.0131 3.19612 15.9724 3.33353 15.9725C3.51754 15.9728 3.69392 16.046 3.82404 16.1762C3.95415 16.3063 4.02738 16.4827 4.02769 16.6667H4.0277ZM12.3846 13.2186H7.61493C7.39396 13.2184 7.18209 13.1306 7.02584 12.9743C6.86959 12.8181 6.78175 12.6062 6.7816 12.3852V7.6147C6.78175 7.39374 6.86959 7.18186 7.02584 7.02561C7.18209 6.86937 7.39396 6.78152 7.61493 6.78137H12.3846C12.6056 6.78152 12.8175 6.86937 12.9737 7.02561C13.13 7.18186 13.2178 7.39374 13.218 7.6147V8.8697C13.2177 8.8754 13.2147 8.88013 13.2147 8.88587C13.2147 8.89161 13.2177 8.89635 13.218 8.90205V11.0946C13.2177 11.1003 13.2147 11.1051 13.2147 11.1108C13.2147 11.1166 13.2177 11.1213 13.218 11.127V12.3852C13.2178 12.6062 13.13 12.8181 12.9737 12.9743C12.8175 13.1306 12.6056 13.2184 12.3846 13.2185L12.3846 13.2186ZM16.6668 17.3608C16.5296 17.3608 16.3953 17.3201 16.2812 17.2438C16.167 17.1676 16.0781 17.0592 16.0255 16.9323C15.973 16.8055 15.9592 16.6659 15.986 16.5312C16.0128 16.3966 16.0789 16.2729 16.176 16.1758C16.2731 16.0787 16.3968 16.0126 16.5314 15.9858C16.6661 15.9591 16.8057 15.9728 16.9325 16.0253C17.0593 16.0779 17.1678 16.1669 17.244 16.281C17.3203 16.3952 17.361 16.5294 17.361 16.6667C17.3607 16.8507 17.2874 17.027 17.1573 17.1571C17.0272 17.2872 16.8508 17.3605 16.6668 17.3608Z" fill="#171723"/>
</g>
<defs>
<clipPath id="clip0_6915_81251">
<rect width="20" height="20" fill="white"/>
</clipPath>
</defs>
</svg>
