<svg width="20" height="20" viewBox="0 0 20 20" fill="none" xmlns="http://www.w3.org/2000/svg">
<g clip-path="url(#clip0_5313_35090)">
<path d="M16.6701 4.86104H3.33024C3.21973 4.86104 3.11375 4.81714 3.03561 4.739C2.95747 4.66086 2.91357 4.55488 2.91357 4.44438C2.91357 4.33387 2.95747 4.22789 3.03561 4.14975C3.11375 4.07161 3.21973 4.02771 3.33024 4.02771H16.6701C16.7806 4.02771 16.8865 4.07161 16.9647 4.14975C17.0428 4.22789 17.0867 4.33387 17.0867 4.44438C17.0867 4.55488 17.0428 4.66086 16.9647 4.739C16.8865 4.81714 16.7806 4.86104 16.6701 4.86104Z" fill="#171723"/>
<path d="M12.2227 15.9719H3.33024C3.21973 15.9719 3.11375 15.928 3.03561 15.8498C2.95747 15.7717 2.91357 15.6657 2.91357 15.5552C2.91357 15.4447 2.95747 15.3387 3.03561 15.2606C3.11375 15.1824 3.21973 15.1385 3.33024 15.1385H12.2227C12.3332 15.1385 12.4391 15.1824 12.5173 15.2606C12.5954 15.3387 12.6393 15.4447 12.6393 15.5552C12.6393 15.6657 12.5954 15.7717 12.5173 15.8498C12.4391 15.928 12.3332 15.9719 12.2227 15.9719Z" fill="#171723"/>
<path d="M16.666 12.2683H3.33024C3.21973 12.2683 3.11375 12.2244 3.03561 12.1462C2.95747 12.0681 2.91357 11.9621 2.91357 11.8516C2.91357 11.7411 2.95747 11.6351 3.03561 11.557C3.11375 11.4788 3.21973 11.4349 3.33024 11.4349H16.666C16.7765 11.4349 16.8825 11.4788 16.9606 11.557C17.0388 11.6351 17.0827 11.7411 17.0827 11.8516C17.0827 11.9621 17.0388 12.0681 16.9606 12.1462C16.8825 12.2244 16.7765 12.2683 16.666 12.2683Z" fill="#171723"/>
<path d="M12.2227 8.56466H3.33024C3.21973 8.56466 3.11375 8.52076 3.03561 8.44262C2.95747 8.36448 2.91357 8.2585 2.91357 8.14799C2.91357 8.03748 2.95747 7.9315 3.03561 7.85336C3.11375 7.77522 3.21973 7.73132 3.33024 7.73132H12.2227C12.3332 7.73132 12.4391 7.77522 12.5173 7.85336C12.5954 7.9315 12.6393 8.03748 12.6393 8.14799C12.6393 8.2585 12.5954 8.36448 12.5173 8.44262C12.4391 8.52076 12.3332 8.56466 12.2227 8.56466Z" fill="#171723"/>
</g>
<defs>
<clipPath id="clip0_5313_35090">
<rect width="20" height="20" fill="white"/>
</clipPath>
</defs>
</svg>
