<svg width="20" height="20" viewBox="0 0 20 20" fill="none" xmlns="http://www.w3.org/2000/svg">
<g clip-path="url(#clip0_5313_35098)">
<path d="M5.04297 19.9999H0.521722C0.453198 19.9999 0.385338 19.9868 0.322022 19.9613C0.258707 19.9357 0.201177 19.8983 0.152723 19.8511C0.104269 19.8038 0.0658408 19.7478 0.0396354 19.6861C0.01343 19.6244 -3.8324e-05 19.5582 8.19064e-08 19.4914V11.3558C-3.8324e-05 11.289 0.01343 11.2228 0.0396354 11.1611C0.0658408 11.0994 0.104269 11.0434 0.152723 10.9961C0.201177 10.9489 0.258707 10.9115 0.322022 10.8859C0.385338 10.8604 0.453198 10.8473 0.521722 10.8473H5.04296C5.11149 10.8473 5.17935 10.8604 5.24267 10.8859C5.30598 10.9115 5.36351 10.9489 5.41197 10.9961C5.46042 11.0434 5.49885 11.0994 5.52505 11.1611C5.55126 11.2228 5.56473 11.289 5.56469 11.3558V19.4914C5.56473 19.5582 5.55126 19.6244 5.52505 19.6861C5.49885 19.7478 5.46042 19.8038 5.41197 19.8511C5.36352 19.8983 5.30599 19.9357 5.24267 19.9613C5.17936 19.9868 5.1115 19.9999 5.04297 19.9999V19.9999ZM1.04345 18.983H4.52125V11.8642H1.04344L1.04345 18.983Z" fill="#171723"/>
<path d="M12.2602 20H7.73901C7.67048 20 7.60262 19.9869 7.53931 19.9614C7.47599 19.9358 7.41846 19.8984 7.37001 19.8512C7.32155 19.8039 7.28312 19.7479 7.25692 19.6862C7.23071 19.6244 7.21725 19.5583 7.21729 19.4915V0.508479C7.21725 0.441694 7.23071 0.375556 7.25692 0.313847C7.28312 0.252138 7.32155 0.196068 7.37001 0.148844C7.41846 0.101619 7.47599 0.0641666 7.53931 0.0386269C7.60262 0.0130872 7.67048 -3.86836e-05 7.73901 8.56326e-08H12.2602C12.3288 -3.73454e-05 12.3966 0.0130894 12.4599 0.0386296C12.5233 0.0641698 12.5808 0.101622 12.6292 0.148847C12.6777 0.196071 12.7161 0.25214 12.7423 0.313848C12.7685 0.375557 12.782 0.441694 12.782 0.508479V19.4915C12.782 19.5583 12.7685 19.6244 12.7423 19.6862C12.7161 19.7479 12.6777 19.8039 12.6292 19.8512C12.5808 19.8984 12.5233 19.9358 12.4599 19.9614C12.3966 19.9869 12.3288 20 12.2602 20ZM8.26073 18.983H11.7385V1.01696H8.26073V18.983Z" fill="#171723"/>
<path d="M19.4781 20H14.9558C14.8873 20.0001 14.8194 19.9869 14.7561 19.9614C14.6928 19.9358 14.6353 19.8984 14.5868 19.8512C14.5383 19.8039 14.4999 19.7479 14.4737 19.6862C14.4475 19.6245 14.434 19.5583 14.4341 19.4915V5.93194C14.434 5.86516 14.4475 5.79902 14.4737 5.73731C14.4999 5.6756 14.5383 5.61953 14.5868 5.57231C14.6353 5.52508 14.6928 5.48763 14.7561 5.46209C14.8194 5.43655 14.8873 5.42342 14.9558 5.42346H19.4781C19.5466 5.42342 19.6145 5.43655 19.6778 5.46209C19.7411 5.48763 19.7986 5.52508 19.8471 5.57231C19.8955 5.61953 19.934 5.6756 19.9602 5.73731C19.9864 5.79902 19.9998 5.86516 19.9998 5.93194V19.4915C19.9998 19.5583 19.9864 19.6245 19.9602 19.6862C19.934 19.7479 19.8955 19.8039 19.8471 19.8512C19.7986 19.8984 19.7411 19.9358 19.6778 19.9614C19.6145 19.9869 19.5466 20.0001 19.4781 20V20ZM15.4775 18.9831H18.9564V6.44042H15.4775V18.9831Z" fill="#171723"/>
</g>
<defs>
<clipPath id="clip0_5313_35098">
<rect width="20" height="20" fill="white"/>
</clipPath>
</defs>
</svg>
