<svg width="20" height="20" viewBox="0 0 20 20" fill="none" xmlns="http://www.w3.org/2000/svg">
<g clip-path="url(#clip0_5313_35229)">
<path d="M5.0432 10.8473H0.521745C0.233593 10.8473 0 11.0749 0 11.3558V19.4914C0 19.7723 0.233593 19.9999 0.521745 19.9999H5.0432C5.33135 19.9999 5.56494 19.7723 5.56494 19.4914V11.3558C5.56494 11.0749 5.33135 10.8473 5.0432 10.8473Z" fill="#171723"/>
<path d="M12.261 0H7.73854C7.45039 0 7.2168 0.227654 7.2168 0.508479V19.4915C7.2168 19.7723 7.45039 20 7.73854 20H12.261C12.5492 20 12.7828 19.7723 12.7828 19.4915V0.508479C12.7828 0.227654 12.5492 0 12.261 0Z" fill="#171723"/>
<path d="M19.4778 5.42334H14.9563C14.6682 5.42334 14.4346 5.65099 14.4346 5.93182V19.4914C14.4346 19.7722 14.6682 19.9999 14.9563 19.9999H19.4778C19.7659 19.9999 19.9995 19.7722 19.9995 19.4914V5.93182C19.9995 5.65099 19.7659 5.42334 19.4778 5.42334Z" fill="#171723"/>
</g>
<defs>
<clipPath id="clip0_5313_35229">
<rect width="20" height="20" fill="white"/>
</clipPath>
</defs>
</svg>
