<svg width="20" height="20" viewBox="0 0 20 20" fill="none" xmlns="http://www.w3.org/2000/svg">
<g clip-path="url(#clip0_6397_68730)">
<path d="M10.5009 2.43268C10.2328 2.17666 9.87634 2.03381 9.50563 2.03381C9.13492 2.03381 8.77847 2.17666 8.51035 2.43268C8.29246 2.65213 8.15298 2.93729 8.11349 3.24401C8.07401 3.55074 8.13674 3.86192 8.29195 4.1294L3.39362 12.6572C3.1111 12.614 2.82217 12.6613 2.56816 12.7923C2.31416 12.9233 2.10809 13.1313 1.97945 13.3865C1.85081 13.6417 1.80619 13.9311 1.85196 14.2132C1.89774 14.4953 2.03157 14.7557 2.23431 14.9571L5.1054 17.8282C5.30341 18.0279 5.55872 18.1609 5.83584 18.2088C6.11296 18.2566 6.39811 18.217 6.65162 18.0952C6.90514 17.9735 7.11443 17.7758 7.25038 17.5297C7.38634 17.2835 7.4422 17.0011 7.41019 16.7217L8.0712 16.338C8.37443 16.622 8.76108 16.8007 9.17384 16.8477C9.58661 16.8947 10.0035 16.8074 10.3628 16.5989C10.7221 16.3903 11.0046 16.0715 11.1685 15.6898C11.3325 15.3081 11.369 14.8837 11.2728 14.4796L15.9911 11.7407C16.292 11.8608 16.6252 11.8734 16.9343 11.7763C17.2434 11.6792 17.5095 11.4784 17.6877 11.2078C17.8658 10.9372 17.9451 10.6134 17.9122 10.2911C17.8793 9.96875 17.7361 9.66768 17.5069 9.43871L10.5009 2.43268ZM6.43758 17.239C6.33903 17.3375 6.2054 17.3928 6.06607 17.3928C5.92675 17.3928 5.79312 17.3375 5.69457 17.239L2.8235 14.3679C2.72509 14.2693 2.66982 14.1357 2.66986 13.9965C2.66989 13.8572 2.72521 13.7236 2.82368 13.6251C2.92214 13.5266 3.05568 13.4712 3.19497 13.4711C3.33425 13.4709 3.46789 13.5261 3.5665 13.6245L6.4376 16.4956C6.53609 16.5942 6.59141 16.7279 6.59141 16.8673C6.59141 17.0067 6.53609 17.1404 6.4376 17.239H6.43758ZM7.02674 15.9064L4.15569 13.0353L4.14326 13.0252L8.87493 4.78782L15.278 11.1909L7.06809 15.957C7.05326 15.9407 7.04251 15.9221 7.02679 15.9064H7.02674ZM10.1819 15.6928C10.0114 15.8602 9.79164 15.9684 9.55499 16.0013C9.31834 16.0343 9.07737 15.9902 8.86769 15.8757L10.4959 14.9305C10.4934 15.2156 10.3809 15.4887 10.1819 15.6928H10.1819ZM16.9177 10.8401C16.8102 10.9422 16.6679 10.9999 16.5196 11.0014C16.3712 11.003 16.2278 10.9482 16.1182 10.8483L9.09222 3.82265L9.09181 3.82234C8.98853 3.71422 8.93154 3.57005 8.93299 3.42054C8.93443 3.27102 8.99419 3.12797 9.09955 3.02187C9.20897 2.91746 9.35439 2.85921 9.50563 2.85921C9.65687 2.85921 9.8023 2.91746 9.91172 3.02187L16.9177 10.0279C16.9711 10.0812 17.0135 10.1445 17.0424 10.2142C17.0713 10.2838 17.0862 10.3585 17.0862 10.434C17.0862 10.5094 17.0713 10.5841 17.0424 10.6538C17.0135 10.7235 16.9711 10.7868 16.9177 10.8401H16.9177Z" fill="#171723"/>
<path d="M14.5284 5.83074C14.5831 5.83081 14.6373 5.82005 14.6879 5.7991C14.7384 5.77816 14.7844 5.74742 14.823 5.70867L16.1601 4.37117C16.1994 4.33262 16.2307 4.28667 16.2522 4.23595C16.2736 4.18524 16.2848 4.13078 16.2851 4.07571C16.2854 4.02065 16.2747 3.96607 16.2538 3.91514C16.2328 3.86422 16.202 3.81795 16.1631 3.77901C16.1241 3.74007 16.0779 3.70924 16.0269 3.68829C15.976 3.66735 15.9214 3.65671 15.8664 3.65699C15.8113 3.65727 15.7568 3.66846 15.7061 3.68991C15.6554 3.71137 15.6095 3.74267 15.5709 3.782L14.2338 5.1195C14.1756 5.17777 14.1359 5.25201 14.1198 5.33283C14.1037 5.41365 14.112 5.49741 14.1435 5.57354C14.1751 5.64967 14.2285 5.71474 14.297 5.76053C14.3655 5.80631 14.446 5.83076 14.5284 5.83077L14.5284 5.83074Z" fill="#171723"/>
<path d="M12.8661 4.26245C12.9016 4.27225 12.9383 4.27718 12.9752 4.2771C13.0667 4.27707 13.1556 4.24693 13.2283 4.19134C13.3009 4.13574 13.3532 4.05778 13.3772 3.96948L13.8297 2.30037C13.844 2.24758 13.8478 2.19248 13.8408 2.13823C13.8339 2.08397 13.8163 2.03162 13.7891 1.98417C13.7619 1.93671 13.7256 1.89508 13.6823 1.86164C13.639 1.82821 13.5895 1.80363 13.5367 1.78931C13.4839 1.77499 13.4288 1.77121 13.3746 1.77818C13.3203 1.78515 13.268 1.80274 13.2205 1.82995C13.1731 1.85715 13.1314 1.89344 13.098 1.93673C13.0646 1.98003 13.04 2.02948 13.0257 2.08227L12.5732 3.75138C12.5588 3.80418 12.555 3.85928 12.562 3.91354C12.5689 3.9678 12.5865 4.02016 12.6137 4.06763C12.6409 4.11509 12.6772 4.15672 12.7205 4.19015C12.7639 4.22358 12.8133 4.24815 12.8661 4.26245Z" fill="#171723"/>
<path d="M18.1483 6.40112C18.1342 6.34821 18.1097 6.29863 18.0763 6.25523C18.0429 6.21183 18.0013 6.17546 17.9538 6.14823C17.9063 6.12099 17.8538 6.10343 17.7995 6.09655C17.7452 6.08967 17.69 6.09361 17.6372 6.10814L15.9681 6.56064C15.8707 6.58709 15.7862 6.64801 15.7303 6.73208C15.6744 6.81615 15.651 6.91765 15.6643 7.01772C15.6776 7.11778 15.7268 7.20961 15.8028 7.27612C15.8787 7.34263 15.9762 7.3793 16.0772 7.37933C16.114 7.37941 16.1507 7.37448 16.1862 7.36468L17.8553 6.91218C17.9081 6.89788 17.9576 6.87332 18.0009 6.83989C18.0442 6.80646 18.0805 6.76482 18.1077 6.71736C18.1349 6.6699 18.1525 6.61754 18.1595 6.56328C18.1664 6.50901 18.1626 6.45391 18.1483 6.40112Z" fill="#171723"/>
</g>
<defs>
<clipPath id="clip0_6397_68730">
<rect width="20" height="20" fill="white"/>
</clipPath>
</defs>
</svg>
