<svg width="20" height="20" viewBox="0 0 20 20" fill="none" xmlns="http://www.w3.org/2000/svg">
<path d="M17.1812 5.80507C17.45 5.80485 17.7077 5.698 17.8978 5.50798C18.0879 5.31796 18.1948 5.06028 18.1952 4.79149V2.81883C18.1948 2.55004 18.0879 2.29236 17.8978 2.10234C17.7077 1.91231 17.45 1.80546 17.1812 1.80524H15.2085C14.9397 1.80546 14.682 1.91231 14.4919 2.10233C14.3018 2.29236 14.1948 2.55004 14.1945 2.81883V3.39093H5.80503V2.81883C5.80474 2.55017 5.69791 2.29258 5.50798 2.10257C5.31804 1.91256 5.0605 1.80563 4.79184 1.80524H2.81918C2.55039 1.80546 2.29267 1.9123 2.10256 2.10233C1.91246 2.29235 1.80551 2.55004 1.80518 2.81883V4.79149C1.80551 5.06027 1.91246 5.31795 2.10256 5.50798C2.29266 5.698 2.55038 5.80485 2.81917 5.80507H3.38802V14.195H2.82C2.55121 14.1952 2.29349 14.302 2.10339 14.4921C1.91329 14.6821 1.80634 14.9398 1.806 15.2086V17.1812C1.80633 17.45 1.91329 17.7077 2.10339 17.8977C2.29349 18.0877 2.55121 18.1946 2.82 18.1948H4.79268C5.06134 18.1944 5.31887 18.0875 5.5088 17.8975C5.69873 17.7075 5.80556 17.4499 5.80584 17.1812V16.6075H14.1945V17.1812C14.1948 17.45 14.3018 17.7077 14.4919 17.8977C14.682 18.0877 14.9397 18.1946 15.2085 18.1948H17.1812C17.45 18.1946 17.7077 18.0877 17.8978 17.8977C18.0879 17.7077 18.1948 17.45 18.1952 17.1812V15.2086C18.1948 14.9398 18.0879 14.6821 17.8978 14.4921C17.7077 14.302 17.45 14.1952 17.1812 14.195H16.6131V5.80507H17.1812ZM15.2085 2.63857H17.1812C17.229 2.63865 17.2748 2.65765 17.3087 2.69143C17.3425 2.7252 17.3616 2.77101 17.3618 2.81883V4.79149C17.3616 4.83931 17.3425 4.88511 17.3087 4.91888C17.2748 4.95266 17.229 4.97166 17.1812 4.97174H15.2085C15.1607 4.97166 15.1148 4.95266 15.081 4.91889C15.0471 4.88511 15.028 4.83931 15.0278 4.79149V3.81569L15.0295 3.8076L15.0278 3.79951V2.81883C15.028 2.77101 15.0471 2.7252 15.081 2.69143C15.1148 2.65765 15.1607 2.63865 15.2085 2.63857ZM2.63851 4.79149V2.81883C2.63869 2.77101 2.6578 2.7252 2.69165 2.69143C2.7255 2.65765 2.77135 2.63865 2.81917 2.63857H4.79184C4.83958 2.63868 4.88532 2.65772 4.91904 2.69151C4.95276 2.7253 4.97169 2.77109 4.97169 2.81883V4.79149C4.97169 4.83922 4.95276 4.88501 4.91904 4.9188C4.88532 4.95259 4.83958 4.97163 4.79184 4.97174H2.81918C2.77136 4.97167 2.72551 4.95267 2.69166 4.91889C2.6578 4.88511 2.63869 4.83931 2.63851 4.79149ZM4.79268 17.3615H2.82C2.77218 17.3614 2.72633 17.3424 2.69248 17.3086C2.65863 17.2749 2.63952 17.2291 2.63933 17.1812V15.2086C2.63952 15.1607 2.65863 15.1149 2.69248 15.0812C2.72633 15.0474 2.77218 15.0284 2.82 15.0283H4.79268C4.84041 15.0284 4.88616 15.0474 4.91987 15.0812C4.95359 15.115 4.97253 15.1608 4.97253 15.2086V16.1868L4.97169 16.1908L4.97253 16.1948V17.1812C4.97253 17.2289 4.95359 17.2747 4.91987 17.3085C4.88616 17.3423 4.84041 17.3614 4.79268 17.3615V17.3615ZM17.3618 15.2086V17.1812C17.3617 17.229 17.3426 17.2749 17.3087 17.3086C17.2749 17.3424 17.229 17.3614 17.1812 17.3615H15.2085C15.1607 17.3614 15.1148 17.3424 15.081 17.3086C15.0471 17.2749 15.028 17.2291 15.0278 17.1812V16.1989L15.0295 16.1908L15.0278 16.1827V15.2086C15.028 15.1607 15.0471 15.1149 15.081 15.0812C15.1148 15.0474 15.1607 15.0284 15.2085 15.0283H17.1812C17.229 15.0284 17.2748 15.0474 17.3087 15.0812C17.3425 15.1149 17.3617 15.1607 17.3618 15.2086V15.2086ZM15.7798 14.195H15.2085C14.9397 14.1952 14.682 14.3021 14.4919 14.4921C14.3018 14.6821 14.1948 14.9398 14.1945 15.2086V15.7742H5.80584V15.2086C5.80556 14.9399 5.69874 14.6823 5.50881 14.4923C5.31888 14.3023 5.06134 14.1954 4.79268 14.195H4.22137V5.80507H4.79184C5.0605 5.80468 5.31804 5.69775 5.50798 5.50774C5.69791 5.31773 5.80474 5.06015 5.80503 4.79149V4.22426H14.1945V4.79149C14.1948 5.06028 14.3018 5.31795 14.4919 5.50798C14.682 5.698 14.9397 5.80485 15.2085 5.80507H15.7798L15.7798 14.195Z" fill="#171723"/>
<path d="M12.812 13.0624C12.7714 13.0595 12.7317 13.0493 12.6946 13.0324C12.6483 13.002 12.6139 12.9564 12.5975 12.9034C12.5291 12.7248 12.458 12.5468 12.3937 12.3666C12.2102 11.9033 12.1255 11.4067 12.145 10.9088C12.1833 10.3887 12.147 9.86249 12.1946 9.33993C12.1977 9.27674 12.2094 9.21427 12.2293 9.15423C12.3246 8.98724 12.4517 8.84058 12.6034 8.72256C12.7015 8.62388 12.7565 8.49042 12.7565 8.35132V6.27549C12.7565 6.23027 12.7435 6.18601 12.719 6.14801C12.6945 6.11 12.6596 6.07985 12.6184 6.06118C12.5772 6.0425 12.5315 6.03608 12.4868 6.04269C12.4421 6.0493 12.4002 6.06865 12.3662 6.09844L11.6915 6.68927C11.6393 6.73507 11.5723 6.76048 11.5029 6.76084H11.0053C10.9364 6.76048 10.87 6.73504 10.8185 6.68927L10.1429 6.09914C10.1089 6.06946 10.0671 6.05019 10.0225 6.04364C9.97786 6.03708 9.93229 6.04351 9.89122 6.06217C9.85016 6.08082 9.81533 6.1109 9.79091 6.14882C9.76649 6.18674 9.7535 6.23089 9.75351 6.27599V8.35164C9.75351 8.4213 9.76723 8.49027 9.79389 8.55463C9.82055 8.61898 9.85963 8.67745 9.90889 8.72671C9.96179 8.77965 10.0149 8.8324 10.0676 8.88545C10.0932 8.91113 10.1531 8.95355 10.1569 8.99128C10.1637 9.05852 10.0613 9.11005 10.0146 9.14509C9.5029 9.51091 9.03425 9.93345 8.61759 10.4047C8.17013 10.8955 7.87297 11.5044 7.76142 12.1592C7.75836 12.1847 7.75642 12.2065 7.75359 12.2314C7.75064 12.1097 7.73836 11.9884 7.71686 11.8686C7.7126 11.7535 7.71663 11.6383 7.72891 11.5239C7.7809 10.9191 7.91155 10.3237 8.11755 9.75268C8.22151 9.46464 8.46046 9.09563 8.38931 8.77911C8.36167 8.67802 8.30253 8.58837 8.22046 8.52319C8.1384 8.458 8.0377 8.42067 7.93297 8.41661C7.35631 8.39336 7.15681 9.15732 7.02812 9.58213C6.70143 10.6162 6.59808 11.7078 6.72493 12.7848C6.74876 13.0118 6.8164 13.2319 6.9241 13.4331C7.0231 13.5868 7.1574 13.7146 7.31581 13.8058C7.47422 13.897 7.65215 13.949 7.83475 13.9575H11.1453C11.7074 13.9575 12.2706 13.9468 12.8327 13.9575C12.9407 13.9727 13.0509 13.9587 13.1516 13.9168C13.2167 13.8765 13.2683 13.8178 13.2999 13.7481C13.3315 13.6785 13.3417 13.6009 13.3292 13.5254L13.3264 13.5076C13.2993 13.3883 13.2348 13.2807 13.1422 13.2006C13.0497 13.1205 12.934 13.0721 12.812 13.0624Z" fill="#171723"/>
</svg>
