<svg width="20" height="20" viewBox="0 0 20 20" fill="none" xmlns="http://www.w3.org/2000/svg">
<g clip-path="url(#clip0_10317_147151)">
<path d="M20.0017 4.57981L20.0007 4.57489V4.06785C19.9995 2.98934 19.5706 1.95533 18.808 1.19271C18.0453 0.430091 17.0113 0.00114678 15.9328 0H4.06793C2.98942 0.00114947 1.95542 0.430094 1.1928 1.19271C0.430175 1.95533 0.00123036 2.98934 8.08934e-05 4.06785V4.56993L-0.00195312 4.57981L8.08934e-05 4.58967V15.9322C0.00123036 17.0107 0.430175 18.0447 1.1928 18.8074C1.95542 19.57 2.98942 19.9989 4.06793 20.0001H15.9328C17.0113 19.9989 18.0453 19.57 18.808 18.8074C19.5706 18.0447 19.9995 17.0107 20.0007 15.9322V4.58472L20.0017 4.57981ZM4.06793 1.01696H15.9328C16.7417 1.01784 17.5172 1.33956 18.0891 1.91152C18.6611 2.48348 18.9828 3.25897 18.9837 4.06785V4.07132H1.01704V4.06785C1.01793 3.25897 1.33964 2.48348 1.9116 1.91152C2.48356 1.33956 3.25905 1.01784 4.06793 1.01696V1.01696ZM15.9328 18.9831H4.06793C3.25905 18.9822 2.48356 18.6605 1.9116 18.0886C1.33964 17.5166 1.01793 16.7411 1.01704 15.9322V5.08829H18.9837V15.9322C18.9828 16.7411 18.6611 17.5166 18.0891 18.0886C17.5172 18.6605 16.7417 18.9822 15.9328 18.9831V18.9831Z" fill="#171723"/>
<path d="M6.36815 8.58207C6.32021 8.50915 6.2547 8.44946 6.17764 8.40851C6.10059 8.36755 6.01446 8.34664 5.9272 8.34769C5.85198 8.34758 5.77842 8.36979 5.71584 8.41151C5.65325 8.45324 5.60445 8.5126 5.57563 8.58207L2.95776 14.8542C2.93958 14.9152 2.93651 14.9797 2.94879 15.0421C2.96107 15.1046 2.98834 15.1631 3.02826 15.2127C3.0705 15.2659 3.12426 15.3088 3.18551 15.3383C3.24675 15.3677 3.31388 15.3828 3.38182 15.3825C3.46887 15.3746 3.55249 15.3447 3.6249 15.2958C3.69731 15.2468 3.75615 15.1803 3.79595 15.1025L4.57158 13.2413H7.36924L8.13197 15.0637C8.16488 15.151 8.22177 15.2273 8.29608 15.2837C8.3704 15.34 8.45912 15.3743 8.55205 15.3825H8.63249C8.69535 15.3827 8.75727 15.3673 8.81271 15.3376C8.86816 15.308 8.9154 15.2651 8.95022 15.2128C8.98505 15.1605 9.00636 15.1003 9.01227 15.0378C9.01817 14.9752 9.00849 14.9121 8.98407 14.8542L6.36815 8.58207ZM4.9261 12.3892L5.97087 9.88059L7.01564 12.3892H4.9261Z" fill="#171723"/>
<path d="M11.6614 8.34773H10.2442C10.143 8.34775 10.046 8.38794 9.97452 8.45945C9.90301 8.53097 9.86282 8.62795 9.86279 8.72909V15.0012C9.86282 15.1023 9.903 15.1993 9.97452 15.2708C10.046 15.3423 10.143 15.3825 10.2442 15.3825H10.3524C10.4535 15.3825 10.5505 15.3423 10.622 15.2708C10.6936 15.1993 10.7337 15.1023 10.7338 15.0012V12.6946H11.6614C11.9951 12.6977 12.327 12.6453 12.6436 12.5397C12.9329 12.444 13.2018 12.2947 13.4361 12.0998C13.6646 11.91 13.8483 11.6721 13.9743 11.4031C14.1029 11.127 14.1681 10.8257 14.165 10.5212C14.1851 10.2123 14.1332 9.90305 14.0134 9.61766C13.8936 9.33228 13.7093 9.07859 13.4748 8.87657C12.9491 8.49704 12.3087 8.31028 11.6614 8.34773V8.34773ZM13.1878 11.0287C13.1129 11.1872 13.0061 11.3285 12.874 11.4438C12.7248 11.572 12.5521 11.67 12.3655 11.7323C12.1388 11.8092 11.9007 11.8466 11.6614 11.843H10.7338V9.20083H11.6614C12.1088 9.16355 12.5552 9.28349 12.9236 9.53998C13.0551 9.66529 13.1568 9.81848 13.2213 9.98829C13.2857 10.1581 13.3113 10.3402 13.2961 10.5212C13.2977 10.6962 13.2607 10.8695 13.1878 11.0287H13.1878Z" fill="#171723"/>
<path d="M15.8094 8.34766H15.7012C15.4906 8.34766 15.3198 8.5184 15.3198 8.72902V15.0011C15.3198 15.2117 15.4906 15.3825 15.7012 15.3825H15.8094C16.0201 15.3825 16.1908 15.2117 16.1908 15.0011V8.72902C16.1908 8.5184 16.0201 8.34766 15.8094 8.34766Z" fill="#171723"/>
</g>
<defs>
<clipPath id="clip0_10317_147151">
<rect width="20" height="20" fill="white"/>
</clipPath>
</defs>
</svg>
