<svg width="20" height="20" viewBox="0 0 20 20" fill="none" xmlns="http://www.w3.org/2000/svg">
<g clip-path="url(#clip0_5313_35061)">
<g clip-path="url(#clip1_5313_35061)">
<path d="M10 20C8.02219 20 6.08879 19.4135 4.4443 18.3147C2.79981 17.2159 1.51809 15.6541 0.761209 13.8268C0.00433284 11.9996 -0.1937 9.98891 0.192152 8.0491C0.578004 6.10929 1.53041 4.32746 2.92894 2.92894C4.32746 1.53041 6.10929 0.578004 8.0491 0.192152C9.98891 -0.1937 11.9996 0.00433263 13.8268 0.761209C15.6541 1.51808 17.2159 2.79981 18.3147 4.4443C19.4135 6.08879 20 8.02219 20 10C19.9968 12.6512 18.9423 15.1929 17.0676 17.0676C15.1929 18.9423 12.6512 19.9968 10 20V20ZM10 1.17647C8.25487 1.17647 6.54893 1.69397 5.09791 2.66351C3.64689 3.63305 2.51596 5.0111 1.84813 6.62338C1.18029 8.23567 1.00556 10.0098 1.34602 11.7214C1.68647 13.433 2.52683 15.0052 3.76083 16.2392C4.99482 17.4732 6.56702 18.3135 8.27862 18.654C9.99021 18.9944 11.7643 18.8197 13.3766 18.1519C14.9889 17.484 16.367 16.3531 17.3365 14.9021C18.306 13.4511 18.8235 11.7451 18.8235 10C18.821 7.66064 17.8905 5.41783 16.2364 3.76365C14.5822 2.10947 12.3394 1.17903 10 1.17647V1.17647Z" fill="#171723"/>
<path d="M9.71442 13C9.56307 13 9.41695 12.9468 9.30372 12.8504L6.20381 10.2061C6.0828 10.101 6.00988 9.95439 6.00093 9.79801C5.99198 9.64164 6.04772 9.4882 6.15602 9.37108C6.26432 9.25396 6.41642 9.18265 6.57922 9.17266C6.74201 9.16266 6.90233 9.2148 7.02529 9.31772L9.67333 11.5769L13.9269 7.19061C13.9822 7.13324 14.0488 7.08691 14.1227 7.05427C14.1967 7.02163 14.2767 7.00333 14.358 7.00041C14.4394 6.9975 14.5206 7.01002 14.5969 7.03727C14.6732 7.06452 14.7432 7.10596 14.8028 7.15921C14.8624 7.21246 14.9104 7.27648 14.9442 7.3476C14.978 7.41872 14.9968 7.49554 14.9996 7.57366C15.0024 7.65178 14.9892 7.72966 14.9606 7.80284C14.932 7.87603 14.8886 7.94307 14.833 8.00014L10.1674 12.811C10.1095 12.8706 10.0394 12.9182 9.96142 12.9507C9.88348 12.9832 9.7994 13 9.71442 13V13Z" fill="#171723"/>
</g>
</g>
<defs>
<clipPath id="clip0_5313_35061">
<rect width="20" height="20" fill="white"/>
</clipPath>
<clipPath id="clip1_5313_35061">
<rect width="20" height="20" fill="white"/>
</clipPath>
</defs>
</svg>
