<svg width="20" height="20" viewBox="0 0 20 20" fill="none" xmlns="http://www.w3.org/2000/svg">
<g clip-path="url(#clip0_5588_35615)">
<path d="M18.4746 -0.00219727H1.52495C1.12051 -0.00175581 0.732767 0.159101 0.446789 0.44508C0.16081 0.731058 -4.68227e-05 1.1188 -0.000488281 1.52324V3.55613C0.000682817 3.93035 0.139665 4.29102 0.389912 4.56926C0.640159 4.8475 0.984132 5.0238 1.35613 5.06449V16.4429C1.35727 17.3866 1.73264 18.2912 2.3999 18.9585C3.06716 19.6257 3.97183 20.0011 4.91548 20.0023H15.085C16.0287 20.0011 16.9334 19.6257 17.6006 18.9585C18.2679 18.2912 18.6432 17.3866 18.6444 16.4429V5.0644C19.0162 5.02348 19.3599 4.8471 19.6099 4.56891C19.86 4.29072 19.9988 3.9302 20 3.55616V1.52327C19.9996 1.11883 19.8387 0.731078 19.5527 0.445093C19.2667 0.159109 18.879 -0.00175311 18.4746 -0.00219727ZM15.085 18.9853H4.91548C4.24139 18.9847 3.59508 18.7166 3.11842 18.24C2.64177 17.7633 2.37371 17.117 2.37309 16.4429V5.0816H17.6274V16.4429C17.6268 17.117 17.3587 17.7633 16.8821 18.24C16.4054 18.7166 15.7591 18.9847 15.085 18.9853H15.085ZM18.983 3.55616C18.9828 3.69094 18.9291 3.82012 18.8338 3.91542C18.7385 4.01072 18.6093 4.06437 18.4746 4.06464H1.52495C1.39017 4.06437 1.26099 4.01072 1.16569 3.91542C1.07039 3.82012 1.01674 3.69094 1.01647 3.55616V1.52327C1.01674 1.38849 1.07039 1.25932 1.16569 1.16402C1.26099 1.06872 1.39017 1.01506 1.52495 1.01479H18.4746C18.6093 1.01506 18.7385 1.06872 18.8338 1.16402C18.9291 1.25932 18.9828 1.38849 18.983 1.52327V3.55616Z" fill="#171723"/>
<path d="M12.7117 6.77783H7.28826C7.15341 6.77783 7.02407 6.8314 6.92871 6.92676C6.83336 7.02212 6.77979 7.15145 6.77979 7.28631C6.77979 7.42117 6.83336 7.5505 6.92871 7.64586C7.02407 7.74122 7.15341 7.79479 7.28826 7.79479H12.7117C12.8465 7.79479 12.9759 7.74122 13.0712 7.64586C13.1666 7.5505 13.2202 7.42117 13.2202 7.28631C13.2202 7.15145 13.1666 7.02212 13.0712 6.92676C12.9759 6.8314 12.8465 6.77783 12.7117 6.77783Z" fill="#171723"/>
</g>
<defs>
<clipPath id="clip0_5588_35615">
<rect width="20" height="20" fill="white"/>
</clipPath>
</defs>
</svg>
