<svg width="20" height="20" viewBox="0 0 20 20" fill="none" xmlns="http://www.w3.org/2000/svg">
<g clip-path="url(#clip0_5313_35123)">
<path d="M13.0666 5.81127L10.2281 3.03543C10.1906 2.99946 10.1466 2.97092 10.0985 2.95135L10.0938 2.94754L10.0924 2.94738C10.0244 2.92207 9.95094 2.91526 9.87944 2.92765C9.86225 2.93001 9.84524 2.93353 9.82852 2.93818C9.75713 2.95506 9.69161 2.99091 9.63891 3.04194L6.92732 5.81289C6.88844 5.85187 6.85767 5.89818 6.83679 5.94912C6.81591 6.00007 6.80533 6.05465 6.80567 6.10971C6.80601 6.16477 6.81726 6.21921 6.83877 6.2699C6.86027 6.32058 6.89161 6.3665 6.93097 6.405C6.97034 6.4435 7.01694 6.47382 7.06808 6.4942C7.11923 6.51459 7.17391 6.52463 7.22897 6.52375C7.28402 6.52288 7.33835 6.5111 7.38882 6.4891C7.4393 6.4671 7.48491 6.43531 7.52302 6.39558L9.5201 4.35497V16.6666C9.5201 16.7771 9.564 16.8831 9.64214 16.9612C9.72028 17.0393 9.82626 17.0832 9.93676 17.0832C10.0473 17.0832 10.1533 17.0393 10.2314 16.9612C10.3095 16.8831 10.3534 16.7771 10.3534 16.6666V4.32348L12.484 6.40697C12.5632 6.48298 12.6692 6.52464 12.779 6.52289C12.8888 6.52114 12.9935 6.47613 13.0703 6.39763C13.147 6.31913 13.1897 6.2135 13.1891 6.1037C13.1884 5.9939 13.1444 5.88881 13.0666 5.81127V5.81127Z" fill="#494446"/>
</g>
<defs>
<clipPath id="clip0_5313_35123">
<rect width="20" height="20" fill="white"/>
</clipPath>
</defs>
</svg>
