<svg width="20" height="20" viewBox="0 0 20 20" fill="none" xmlns="http://www.w3.org/2000/svg">
<g clip-path="url(#clip0_10310_144566)">
<path d="M17.0524 10.0925C17.0778 10.0243 17.0846 9.95055 17.0721 9.87885C17.0698 9.86194 17.0664 9.8452 17.0618 9.82875C17.045 9.75724 17.0091 9.69165 16.9578 9.63898L14.1868 6.92698C14.1076 6.85087 14.0015 6.80913 13.8917 6.81084C13.7819 6.81255 13.6771 6.85757 13.6003 6.9361C13.5235 7.01464 13.4808 7.12033 13.4815 7.23019C13.4822 7.34004 13.5263 7.44517 13.6042 7.52269L15.6452 9.52019H3.33317C3.22266 9.52019 3.11668 9.56409 3.03854 9.64223C2.9604 9.72037 2.9165 9.82635 2.9165 9.93686C2.9165 10.0474 2.9604 10.1533 3.03854 10.2315C3.11668 10.3096 3.22266 10.3535 3.33317 10.3535H15.6762L13.5928 12.4836C13.5539 12.5226 13.5231 12.5689 13.5022 12.6199C13.4814 12.6708 13.4708 12.7254 13.4711 12.7804C13.4715 12.8355 13.4827 12.8899 13.5042 12.9406C13.5257 12.9913 13.5571 13.0372 13.5964 13.0757C13.6358 13.1142 13.6824 13.1446 13.7335 13.1649C13.7847 13.1853 13.8394 13.1954 13.8944 13.1945C13.9495 13.1936 14.0038 13.1818 14.0543 13.1598C14.1047 13.1378 14.1504 13.106 14.1885 13.0663L16.9644 10.2282C16.9997 10.1911 17.0278 10.1478 17.0473 10.1004L17.0523 10.0943L17.0524 10.0925Z" fill="#171723"/>
</g>
<defs>
<clipPath id="clip0_10310_144566">
<rect width="20" height="20" fill="white" transform="translate(20) rotate(90)"/>
</clipPath>
</defs>
</svg>
