<svg width="20" height="20" viewBox="0 0 20 20" fill="none" xmlns="http://www.w3.org/2000/svg">
<g clip-path="url(#clip0_10317_146829)">
<path d="M16.5296 3.79907H11.2456C10.8046 3.79959 10.3818 3.97501 10.07 4.28686C9.75812 4.5987 9.5827 5.02151 9.5822 5.46252V10.9485C8.86052 10.1632 7.87743 9.66787 6.8169 9.55513C6.68059 9.53891 6.54331 9.53218 6.40607 9.53499C6.39864 9.53458 6.39228 9.53071 6.38481 9.53071C6.37906 9.53071 6.37433 9.53372 6.36863 9.53397H6.35141C5.75474 9.53359 5.16385 9.65079 4.6125 9.87888C4.06115 10.107 3.56015 10.4415 3.13814 10.8632C2.71612 11.285 2.38135 11.7859 2.15297 12.3371C1.92459 12.8883 1.80707 13.4791 1.80713 14.0758V14.7838C1.80636 15.1583 1.95416 15.5177 2.2181 15.7834C2.48204 16.049 2.84056 16.199 3.21502 16.2006H9.49024C9.79109 16.1979 10.083 16.0978 10.3221 15.9153C10.5951 16.0988 10.9167 16.1968 11.2456 16.1966H16.5296C16.9706 16.1961 17.3934 16.0206 17.7053 15.7088C18.0171 15.397 18.1925 14.9742 18.193 14.5332V5.46252C18.1925 5.02151 18.0171 4.5987 17.7053 4.28686C17.3934 3.97501 16.9706 3.79959 16.5296 3.79907ZM3.21502 15.3673C3.06154 15.3658 2.91489 15.3036 2.8072 15.1942C2.69951 15.0848 2.63955 14.9373 2.64047 14.7838V14.0758C2.64039 13.5869 2.73698 13.1028 2.9247 12.6514C3.11242 12.2 3.38755 11.7902 3.73426 11.4455C4.08097 11.1008 4.49242 10.8281 4.94493 10.6431C5.39743 10.458 5.88207 10.3643 6.37094 10.3673H6.39861C6.50465 10.3639 6.61078 10.3691 6.71599 10.3827C7.32032 10.4502 7.89848 10.6665 8.39869 11.0123C8.8989 11.358 9.30554 11.8225 9.5822 12.364V14.5331C9.58401 14.7962 9.649 15.055 9.77172 15.2877C9.68654 15.3386 9.58944 15.3661 9.49024 15.3673L3.21502 15.3673ZM17.3597 14.5331C17.3593 14.7531 17.2718 14.9641 17.1162 15.1196C16.9606 15.2752 16.7497 15.3628 16.5296 15.3632H11.2456C11.0256 15.3628 10.8147 15.2752 10.6591 15.1196C10.5035 14.9641 10.4159 14.7531 10.4155 14.5331V5.46252C10.4159 5.24248 10.5035 5.03156 10.6591 4.87597C10.8147 4.72038 11.0256 4.63281 11.2456 4.63245H16.5296C16.7497 4.63282 16.9606 4.72039 17.1162 4.87598C17.2718 5.03157 17.3593 5.24249 17.3597 5.46252V14.5331Z" fill="#171723"/>
<path d="M6.35058 9.04484C6.86937 9.045 7.37656 8.89131 7.808 8.6032C8.23944 8.31509 8.57575 7.90551 8.77439 7.42626C8.97304 6.947 9.0251 6.4196 8.92398 5.91076C8.82287 5.40192 8.57313 4.93449 8.20635 4.56759C7.83956 4.20069 7.37221 3.9508 6.8634 3.84953C6.35459 3.74826 5.82717 3.80015 5.34785 3.99865C4.86854 4.19715 4.45885 4.53333 4.17061 4.96468C3.88237 5.39602 3.72852 5.90316 3.72852 6.42196C3.72935 7.11719 4.00584 7.78372 4.49737 8.27541C4.9889 8.76709 5.65535 9.04379 6.35058 9.04484ZM6.35058 4.63241C6.70456 4.63224 7.05063 4.73706 7.34503 4.9336C7.63942 5.13014 7.86892 5.40958 8.00449 5.73656C8.14007 6.06354 8.17562 6.42339 8.10666 6.77058C8.03771 7.11777 7.86733 7.43672 7.61709 7.68707C7.36685 7.93743 7.04798 8.10794 6.70082 8.17706C6.35366 8.24618 5.9938 8.21079 5.66676 8.07536C5.33971 7.93994 5.06017 7.71057 4.8635 7.41626C4.66682 7.12195 4.56185 6.77593 4.56185 6.42196C4.56226 5.9476 4.75082 5.49279 5.08616 5.15729C5.4215 4.8218 5.87623 4.63303 6.35058 4.63241Z" fill="#171723"/>
<path d="M16.3289 10.036H11.4469C11.3364 10.036 11.2305 10.0799 11.1523 10.158C11.0742 10.2362 11.0303 10.3422 11.0303 10.4527C11.0303 10.5632 11.0742 10.6692 11.1523 10.7473C11.2305 10.8254 11.3364 10.8693 11.4469 10.8693H16.3289C16.4394 10.8693 16.5454 10.8254 16.6236 10.7473C16.7017 10.6692 16.7456 10.5632 16.7456 10.4527C16.7456 10.3422 16.7017 10.2362 16.6236 10.158C16.5454 10.0799 16.4394 10.036 16.3289 10.036Z" fill="#171723"/>
<path d="M16.3289 12.4506H11.4469C11.3364 12.4506 11.2305 12.4945 11.1523 12.5726C11.0742 12.6507 11.0303 12.7567 11.0303 12.8672C11.0303 12.9777 11.0742 13.0837 11.1523 13.1619C11.2305 13.24 11.3364 13.2839 11.4469 13.2839H16.3289C16.4394 13.2839 16.5454 13.24 16.6236 13.1619C16.7017 13.0837 16.7456 12.9777 16.7456 12.8672C16.7456 12.7567 16.7017 12.6507 16.6236 12.5726C16.5454 12.4945 16.4394 12.4506 16.3289 12.4506Z" fill="#171723"/>
<path d="M13.093 9.07816C13.0969 9.08254 13.1026 9.0838 13.1067 9.08798C13.1105 9.09189 13.1118 9.09714 13.1158 9.10094C13.1396 9.12027 13.1654 9.1368 13.1929 9.15023C13.2091 9.16228 13.2262 9.17316 13.2439 9.18279C13.2931 9.20412 13.346 9.21531 13.3996 9.21568C13.4531 9.21605 13.5062 9.20558 13.5556 9.18492C13.5719 9.17642 13.5876 9.16685 13.6026 9.15629C13.6306 9.14334 13.657 9.12723 13.6814 9.10827C13.686 9.10415 13.6876 9.09827 13.692 9.09398C13.6957 9.09036 13.7007 9.08924 13.7042 9.08549L15.6288 7.05748C15.7045 6.97735 15.7453 6.87048 15.7423 6.7603C15.7393 6.65013 15.6927 6.54566 15.6127 6.4698C15.5327 6.39394 15.426 6.35289 15.3158 6.35566C15.2056 6.35843 15.101 6.40478 15.025 6.48456L13.4103 8.18598L12.7578 7.46276C12.6837 7.38089 12.5801 7.33176 12.4699 7.32618C12.3596 7.3206 12.2516 7.35901 12.1697 7.43299C12.0877 7.50697 12.0385 7.61045 12.0328 7.72071C12.0271 7.83097 12.0654 7.93899 12.1393 8.02103L13.093 9.07816Z" fill="#171723"/>
</g>
<defs>
<clipPath id="clip0_10317_146829">
<rect width="20" height="20" fill="white"/>
</clipPath>
</defs>
</svg>
