<svg width="20" height="20" viewBox="0 0 20 20" fill="none" xmlns="http://www.w3.org/2000/svg">
<g clip-path="url(#clip0_10314_145977)">
<g clip-path="url(#clip1_10314_145977)">
<path d="M10.0128 20C9.99689 19.999 9.98399 20 9.96906 19.999C7.9925 19.9929 6.06208 19.4012 4.42163 18.2986C2.78117 17.1961 1.50426 15.6321 0.752184 13.8043C0.000103757 11.9765 -0.193413 9.96681 0.196074 8.02909C0.585562 6.09137 1.54058 4.31252 2.94052 2.91723C4.34045 1.52194 6.1225 0.572792 8.06158 0.189668C10.0007 -0.193456 12.0098 0.00662897 13.8352 0.764652C15.6606 1.52268 17.2205 2.80464 18.3177 4.44861C19.4149 6.09259 20.0003 8.02484 20 10.0013V11.583C20.0012 11.996 19.9205 12.4052 19.7625 12.7868C19.6045 13.1684 19.3723 13.5149 19.0795 13.8062C18.4802 14.3776 17.6839 14.6964 16.8558 14.6964C16.0277 14.6964 15.2313 14.3776 14.632 13.8062C14.3098 13.4847 14.0611 13.0972 13.9032 12.6703C13.2645 13.6043 12.312 14.2784 11.2186 14.57C10.1252 14.8615 8.96352 14.7514 7.94448 14.2594C6.92544 13.7674 6.11664 12.9263 5.66497 11.8888C5.2133 10.8513 5.14871 9.68627 5.48294 8.60522C5.81717 7.52416 6.52804 6.59882 7.48646 5.99725C8.44488 5.39567 9.58728 5.15776 10.7062 5.32672C11.8251 5.49568 12.8463 6.0603 13.5843 6.91805C14.3224 7.7758 14.7283 8.86978 14.7284 10.0013V11.583C14.7275 11.8625 14.7821 12.1393 14.889 12.3975C14.9958 12.6557 15.1529 12.8902 15.3509 13.0873C15.7562 13.4747 16.2952 13.6909 16.8558 13.6909C17.4164 13.6909 17.9554 13.4747 18.3607 13.0873C18.5587 12.8902 18.7158 12.6557 18.8226 12.3975C18.9295 12.1393 18.9841 11.8625 18.9833 11.583V10.0013C18.9833 8.225 18.4566 6.48853 17.4697 5.01153C16.4828 3.53452 15.0801 2.38333 13.4389 1.70352C11.7977 1.02371 9.99174 0.845828 8.24945 1.19236C6.50715 1.53889 4.90674 2.39427 3.65061 3.65033C2.39448 4.90639 1.53905 6.50672 1.1925 8.24893C0.845946 9.99115 1.02383 11.797 1.70367 13.4381C2.3835 15.0792 3.53474 16.4819 5.01181 17.4688C6.48888 18.4556 8.22543 18.9823 10.0019 18.9823C10.0128 18.9823 10.0227 18.9823 10.0336 18.9833C11.5995 18.9793 13.1368 18.5643 14.492 17.7799C14.6087 17.7122 14.7475 17.6936 14.8778 17.7282C15.0082 17.7629 15.1194 17.8479 15.1871 17.9645C15.2548 18.0812 15.2734 18.2199 15.2387 18.3503C15.2041 18.4806 15.1191 18.5919 15.0024 18.6596C13.4859 19.537 11.7649 19.9993 10.0128 20V20ZM10.0019 6.2918C9.2682 6.29174 8.551 6.50922 7.94096 6.91674C7.33091 7.32427 6.85542 7.90353 6.57461 8.58129C6.29381 9.25904 6.2203 10.0048 6.36338 10.7244C6.50646 11.4439 6.85971 12.1049 7.37845 12.6236C8.0851 13.2985 9.02468 13.6751 10.0019 13.6751C10.979 13.6751 11.9186 13.2985 12.6253 12.6236C13.1441 12.1049 13.4974 11.4439 13.6405 10.7244C13.7836 10.0048 13.7101 9.259 13.4293 8.58122C13.1484 7.90345 12.6729 7.32417 12.0628 6.91666C11.4528 6.50914 10.7355 6.29169 10.0019 6.2918V6.2918Z" fill="#171723"/>
</g>
</g>
<defs>
<clipPath id="clip0_10314_145977">
<rect width="20" height="20" fill="white"/>
</clipPath>
<clipPath id="clip1_10314_145977">
<rect width="20" height="20" fill="white"/>
</clipPath>
</defs>
</svg>
