<svg width="20" height="20" viewBox="0 0 20 20" fill="none" xmlns="http://www.w3.org/2000/svg">
<path d="M10.4883 9.16767L15.7384 6.2282C15.9482 6.1188 16.1828 6.06561 16.4193 6.07382C16.6558 6.08203 16.8862 6.15135 17.0879 6.27504C17.3006 6.40484 17.476 6.58759 17.5969 6.80543C17.7178 7.02328 17.7801 7.26876 17.7778 7.51791V12.4826C17.7801 12.7317 17.7178 12.9772 17.5969 13.1951C17.476 13.4129 17.3006 13.5957 17.0879 13.7254C16.8732 13.8569 16.6264 13.9267 16.3746 13.927C16.1498 13.9263 15.9284 13.8715 15.7291 13.7674L10.4889 10.8359C10.3407 10.7529 10.2172 10.6318 10.1313 10.4853C10.0454 10.3387 10.0001 10.1719 10 10.002C9.99994 9.83206 10.0451 9.66521 10.131 9.51857C10.2168 9.37194 10.3401 9.25081 10.4883 9.16766V9.16767Z" fill="#171723"/>
<path d="M2.71044 9.16767L7.96056 6.2282C8.1704 6.1188 8.40499 6.06561 8.64149 6.07382C8.87799 6.08203 9.10833 6.15135 9.31008 6.27504C9.52276 6.40484 9.69812 6.58759 9.81904 6.80544C9.93996 7.02329 10.0023 7.26878 9.99995 7.51792V12.4826C10.0023 12.7317 9.93995 12.9772 9.81903 13.1951C9.69812 13.4129 9.52275 13.5957 9.31008 13.7255C9.09537 13.857 8.84857 13.9267 8.59679 13.9271C8.37195 13.9263 8.15058 13.8715 7.95131 13.7674L2.71106 10.8359C2.56283 10.7529 2.43941 10.6318 2.35348 10.4853C2.26756 10.3387 2.22223 10.1719 2.22217 10.002C2.22211 9.83208 2.26731 9.66523 2.35313 9.51859C2.43894 9.37195 2.56228 9.25083 2.71044 9.16767V9.16767Z" fill="#171723"/>
</svg>
