<svg width="20" height="20" viewBox="0 0 20 20" fill="none" xmlns="http://www.w3.org/2000/svg">
<g clip-path="url(#clip0_10995_130751)">
<g clip-path="url(#clip1_10995_130751)">
<path d="M6.22703 7.57221L15.7905 2.21802C16.2237 1.99191 16.7081 1.88207 17.1964 1.89924C17.6847 1.91641 18.1602 2.06 18.5764 2.31598C19.0153 2.58341 19.3772 2.96024 19.6267 3.40955C19.8762 3.85887 20.0048 4.36528 19.9999 4.87921V15.122C20.0047 15.6359 19.8762 16.1423 19.6269 16.5918C19.3776 17.0412 19.0161 17.4184 18.5777 17.6865C18.1337 17.9579 17.6236 18.1018 17.1033 18.1025C16.6399 18.1014 16.1835 17.9888 15.7727 17.7742L6.22831 12.4341C5.79598 12.1923 5.43594 11.8396 5.18529 11.4124C4.93463 10.9852 4.80242 10.4988 4.80229 10.0035C4.80216 9.50816 4.93411 9.02175 5.18453 8.59438C5.43496 8.16702 5.79481 7.81415 6.227 7.57216L6.22703 7.57221Z" fill="#171723"/>
<path d="M-6.10352e-05 3.20011V16.7999C-6.10352e-05 17.1454 0.137178 17.4767 0.381465 17.721C0.625752 17.9653 0.957076 18.1025 1.30255 18.1025C1.64802 18.1025 1.97935 17.9653 2.22363 17.721C2.46792 17.4767 2.60516 17.1454 2.60516 16.7999V3.20011C2.60516 2.85464 2.46792 2.52331 2.22363 2.27903C1.97935 2.03474 1.64802 1.8975 1.30255 1.8975C0.957076 1.8975 0.625752 2.03474 0.381465 2.27903C0.137178 2.52331 -6.10352e-05 2.85464 -6.10352e-05 3.20011Z" fill="#171723"/>
</g>
</g>
<defs>
<clipPath id="clip0_10995_130751">
<rect width="20" height="20" fill="white"/>
</clipPath>
<clipPath id="clip1_10995_130751">
<rect width="20" height="20" fill="white"/>
</clipPath>
</defs>
</svg>
