<svg width="20" height="20" viewBox="0 0 20 20" fill="none" xmlns="http://www.w3.org/2000/svg">
<path d="M10.6278 8.92983L17.3779 5.15054C17.6477 5.00988 17.9493 4.9415 18.2534 4.95206C18.5574 4.96261 18.8536 5.05174 19.113 5.21076C19.3864 5.37764 19.6119 5.6126 19.7673 5.89269C19.9228 6.17277 20.0029 6.4884 19.9999 6.80872V13.1918C20.0029 13.5122 19.9228 13.8278 19.7673 14.1079C19.6119 14.3879 19.3864 14.6229 19.113 14.7898C18.8369 14.9589 18.5196 15.0485 18.1959 15.049C17.9068 15.048 17.6222 14.9776 17.366 14.8437L10.6286 11.0747C10.438 10.9679 10.2793 10.8123 10.1688 10.6239C10.0584 10.4354 10.0001 10.2209 10 10.0025C9.99992 9.78404 10.058 9.56952 10.1684 9.38099C10.2787 9.19246 10.4373 9.03672 10.6278 8.92981V8.92983Z" fill="#171723"/>
<path d="M0.627783 8.92983L7.37789 5.15054C7.64768 5.00988 7.9493 4.9415 8.25336 4.95206C8.55743 4.96261 8.85358 5.05174 9.11297 5.21076C9.38641 5.37764 9.61187 5.61261 9.76734 5.8927C9.9228 6.17278 10.0029 6.48841 9.99993 6.80874V13.1919C10.0029 13.5122 9.92279 13.8278 9.76733 14.1079C9.61187 14.388 9.3864 14.6229 9.11297 14.7898C8.83692 14.9589 8.5196 15.0486 8.19589 15.049C7.90681 15.048 7.62219 14.9776 7.366 14.8437L0.628576 11.0747C0.438004 10.9679 0.279318 10.8123 0.168843 10.6239C0.0583677 10.4354 9.22755e-05 10.221 1.15281e-05 10.0025C-6.92192e-05 9.78406 0.0580477 9.56954 0.168384 9.38101C0.27872 9.19248 0.43729 9.03674 0.627783 8.92983V8.92983Z" fill="#171723"/>
</svg>
