<svg width="20" height="20" viewBox="0 0 20 20" fill="none" xmlns="http://www.w3.org/2000/svg">
<g clip-path="url(#clip0_10608_147921)">
<path d="M0.00019266 19.478L0.000192858 14.9543C0.00015543 14.8858 0.0132817 14.8179 0.0388219 14.7545C0.0643622 14.6912 0.101815 14.6336 0.149039 14.5851C0.196264 14.5366 0.252333 14.4982 0.314042 14.472C0.37575 14.4457 0.441888 14.4323 0.508673 14.4323L8.64435 14.4323C8.71114 14.4323 8.77727 14.4457 8.83898 14.472C8.90069 14.4982 8.95676 14.5366 9.00399 14.5851C9.05121 14.6336 9.08866 14.6912 9.1142 14.7545C9.13974 14.8179 9.15287 14.8858 9.15283 14.9543L9.15283 19.478C9.15287 19.5465 9.13974 19.6144 9.1142 19.6778C9.08866 19.7411 9.05121 19.7987 9.00399 19.8472C8.95676 19.8957 8.90069 19.9341 8.83898 19.9603C8.77728 19.9865 8.71114 20 8.64435 20L0.508673 20C0.441888 20 0.37575 19.9865 0.314041 19.9603C0.252333 19.9341 0.196265 19.8957 0.149041 19.8472C0.101817 19.7987 0.0643621 19.7411 0.0388217 19.6778C0.0132813 19.6144 0.000155225 19.5466 0.00019266 19.478V19.478ZM1.01715 15.4763L1.01715 18.956L8.13587 18.956L8.13587 15.4763L1.01715 15.4763Z" fill="#171723"/>
<path d="M-4.22976e-05 5.04567L-4.20999e-05 0.522001C-8.08662e-05 0.453439 0.0130453 0.385542 0.038585 0.322192C0.0641248 0.258842 0.101578 0.201281 0.148803 0.152801C0.196027 0.104321 0.252096 0.0658715 0.313805 0.0396526C0.375514 0.0134336 0.441652 -4.05673e-05 0.508438 -7.64088e-07L19.4915 6.56884e-08C19.5583 -3.97317e-05 19.6244 0.0134345 19.6862 0.0396534C19.7479 0.0658723 19.8039 0.104322 19.8512 0.152802C19.8984 0.201282 19.9358 0.258843 19.9614 0.322193C19.9869 0.385543 20 0.45344 20 0.522002L20 5.04567C20 5.11423 19.9869 5.18213 19.9614 5.24548C19.9358 5.30882 19.8984 5.36638 19.8512 5.41486C19.8039 5.46334 19.7479 5.50179 19.6862 5.52801C19.6244 5.55423 19.5583 5.56771 19.4915 5.56767L0.508438 5.56767C0.441653 5.56771 0.375515 5.55423 0.313806 5.52801C0.252098 5.50179 0.196028 5.46334 0.148804 5.41486C0.10158 5.36638 0.064127 5.30882 0.0385868 5.24547C0.0130465 5.18212 -7.97317e-05 5.11423 -4.22976e-05 5.04567ZM1.01692 1.044L1.01692 4.52367L18.983 4.52367L18.983 1.044L1.01692 1.044Z" fill="#171723"/>
<path d="M-0.000413361 12.263L-0.000413163 7.73825C-0.00045193 7.66969 0.0126742 7.60179 0.038214 7.53844C0.0637538 7.47509 0.101207 7.41753 0.148431 7.36905C0.195656 7.32057 0.251725 7.28212 0.313434 7.2559C0.375143 7.22968 0.441281 7.21621 0.508067 7.21625L14.0677 7.21625C14.1345 7.21621 14.2006 7.22968 14.2623 7.2559C14.324 7.28212 14.3801 7.32057 14.4273 7.36905C14.4746 7.41753 14.512 7.47509 14.5375 7.53844C14.5631 7.60179 14.5762 7.66969 14.5762 7.73825L14.5762 12.263C14.5762 12.3315 14.5631 12.3994 14.5375 12.4628C14.512 12.5261 14.4745 12.5837 14.4273 12.6322C14.3801 12.6806 14.324 12.7191 14.2623 12.7453C14.2006 12.7715 14.1345 12.785 14.0677 12.785L0.508067 12.785C0.441282 12.785 0.375144 12.7715 0.313435 12.7453C0.251727 12.7191 0.195657 12.6806 0.148433 12.6322C0.101209 12.5837 0.0637559 12.5261 0.0382157 12.4628C0.0126754 12.3994 -0.000450795 12.3315 -0.000413361 12.263V12.263ZM1.01655 8.26025L1.01655 11.741L13.5592 11.741L13.5592 8.26025L1.01655 8.26025Z" fill="#171723"/>
</g>
<defs>
<clipPath id="clip0_10608_147921">
<rect width="20" height="20" fill="white" transform="translate(20) rotate(90)"/>
</clipPath>
</defs>
</svg>
