<svg width="20" height="20" viewBox="0 0 20 20" fill="none" xmlns="http://www.w3.org/2000/svg">
<path d="M1.80566 17.5475L1.80566 13.9367C1.80563 13.882 1.81639 13.8278 1.83732 13.7772C1.85825 13.7266 1.88894 13.6807 1.92763 13.642C1.96633 13.6033 2.01228 13.5726 2.06284 13.5517C2.11341 13.5307 2.1676 13.52 2.22233 13.52L8.889 13.52C8.94372 13.52 8.99792 13.5307 9.04849 13.5517C9.09905 13.5726 9.145 13.6033 9.18369 13.642C9.22239 13.6807 9.25308 13.7266 9.27401 13.7772C9.29494 13.8278 9.30569 13.882 9.30566 13.9367L9.30566 17.5475C9.3057 17.6022 9.29494 17.6564 9.27401 17.707C9.25308 17.7576 9.22239 17.8035 9.1837 17.8422C9.145 17.8809 9.09905 17.9116 9.04849 17.9325C8.99792 17.9535 8.94372 17.9642 8.889 17.9642L2.22233 17.9642C2.16761 17.9642 2.11341 17.9535 2.06284 17.9325C2.01228 17.9116 1.96633 17.8809 1.92764 17.8422C1.88894 17.8035 1.85825 17.7576 1.83732 17.707C1.81639 17.6564 1.80563 17.6023 1.80566 17.5475V17.5475ZM2.639 14.3534L2.639 17.1309L8.47233 17.1309L8.47233 14.3534L2.639 14.3534Z" fill="#171723"/>
<path d="M1.80559 6.0275L1.80559 2.41667C1.80555 2.36194 1.81631 2.30774 1.83724 2.25718C1.85817 2.20661 1.88886 2.16066 1.92755 2.12197C1.96625 2.08327 2.0122 2.05258 2.06276 2.03165C2.11333 2.01072 2.16753 1.99997 2.22225 2L17.7777 2C17.8324 1.99997 17.8866 2.01072 17.9372 2.03165C17.9877 2.05258 18.0337 2.08327 18.0724 2.12197C18.1111 2.16067 18.1418 2.20661 18.1627 2.25718C18.1836 2.30774 18.1944 2.36194 18.1943 2.41667L18.1943 6.0275C18.1944 6.08223 18.1836 6.13642 18.1627 6.18699C18.1418 6.23755 18.1111 6.2835 18.0724 6.3222C18.0337 6.36089 17.9877 6.39158 17.9372 6.41251C17.8866 6.43344 17.8324 6.4442 17.7777 6.44417L2.22225 6.44417C2.16753 6.4442 2.11333 6.43344 2.06276 6.41251C2.0122 6.39158 1.96625 6.36089 1.92756 6.3222C1.88886 6.2835 1.85817 6.23755 1.83724 6.18699C1.81631 6.13642 1.80556 6.08223 1.80559 6.0275ZM2.63892 2.83333L2.63892 5.61083L17.361 5.61083L17.361 2.83333L2.63892 2.83333Z" fill="#171723"/>
<path d="M1.80542 11.7883L1.80542 8.17668C1.80539 8.12195 1.81615 8.06775 1.83708 8.01719C1.85801 7.96662 1.8887 7.92067 1.92739 7.88198C1.96609 7.84328 2.01204 7.81259 2.0626 7.79166C2.11317 7.77073 2.16737 7.75998 2.22209 7.76001L13.3333 7.76001C13.3881 7.75998 13.4423 7.77073 13.4928 7.79166C13.5434 7.81259 13.5893 7.84328 13.628 7.88198C13.6667 7.92067 13.6974 7.96662 13.7183 8.01719C13.7393 8.06775 13.75 8.12195 13.75 8.17668L13.75 11.7883C13.75 11.8431 13.7393 11.8973 13.7183 11.9478C13.6974 11.9984 13.6667 12.0443 13.628 12.083C13.5893 12.1217 13.5434 12.1524 13.4928 12.1734C13.4423 12.1943 13.3881 12.205 13.3333 12.205L2.22209 12.205C2.16737 12.205 2.11317 12.1943 2.0626 12.1734C2.01204 12.1524 1.96609 12.1217 1.92739 12.083C1.8887 12.0443 1.85801 11.9984 1.83708 11.9478C1.81615 11.8973 1.80539 11.8431 1.80542 11.7883V11.7883ZM2.63876 8.59334L2.63876 11.3717L12.9167 11.3717L12.9167 8.59334L2.63876 8.59334Z" fill="#171723"/>
</svg>
