<svg width="20" height="20" viewBox="0 0 20 20" fill="none" xmlns="http://www.w3.org/2000/svg">
<path d="M6.8906 10.6693H8.69252C8.828 10.6693 8.95794 10.6158 9.05374 10.5204C9.14954 10.425 9.20336 10.2956 9.20336 10.1607C9.20336 10.0258 9.14954 9.89645 9.05374 9.80106C8.95794 9.70568 8.828 9.65209 8.69252 9.65209H7.85142V9.26364C7.85142 9.12874 7.7976 8.99937 7.7018 8.90398C7.606 8.80859 7.47606 8.755 7.34058 8.755C7.2051 8.755 7.07516 8.80859 6.97936 8.90398C6.88356 8.99937 6.82974 9.12874 6.82974 9.26364V9.65797C6.35752 9.67024 5.90797 9.86224 5.57359 10.1945C5.40057 10.3666 5.26332 10.5711 5.16968 10.7961C5.07603 11.0211 5.02783 11.2622 5.02783 11.5058C5.02783 11.7493 5.07603 11.9905 5.16968 12.2155C5.26332 12.4405 5.40057 12.6449 5.57359 12.8171C5.74608 12.99 5.95131 13.127 6.17738 13.2203C6.40346 13.3135 6.64588 13.3612 6.8906 13.3605H7.34058C7.50688 13.3603 7.66948 13.4093 7.80781 13.5012C7.94614 13.5931 8.05396 13.7238 8.11763 13.8768C8.1813 14.0298 8.19795 14.1981 8.16547 14.3605C8.133 14.5229 8.05286 14.672 7.9352 14.789C7.77718 14.9456 7.56351 15.0338 7.34058 15.0344H5.53867C5.40319 15.0344 5.27326 15.088 5.17746 15.1834C5.08165 15.2788 5.02783 15.4081 5.02783 15.543C5.02783 15.6779 5.08165 15.8073 5.17746 15.9027C5.27326 15.9981 5.40319 16.0517 5.53867 16.0517H6.37976V16.4401C6.37976 16.575 6.43358 16.7044 6.52938 16.7998C6.62518 16.8952 6.75512 16.9487 6.8906 16.9487C7.02609 16.9487 7.15602 16.8952 7.25182 16.7998C7.34762 16.7044 7.40144 16.575 7.40144 16.4401V16.0456C7.87322 16.0306 8.32189 15.8387 8.6576 15.5083C8.91794 15.2489 9.09521 14.9185 9.167 14.5589C9.23879 14.1993 9.20187 13.8265 9.0609 13.4877C8.91994 13.149 8.68127 12.8594 8.37506 12.6557C8.06885 12.452 7.70885 12.3433 7.34058 12.3432H6.8906C6.78012 12.3435 6.67069 12.3219 6.56863 12.2798C6.46657 12.2377 6.37391 12.1758 6.29598 12.0979C6.21786 12.0201 6.15588 11.9278 6.11359 11.8262C6.07131 11.7246 6.04954 11.6158 6.04954 11.5058C6.04954 11.3958 6.07131 11.2869 6.11359 11.1853C6.15588 11.0837 6.21786 10.9914 6.29598 10.9137C6.3739 10.8358 6.46659 10.7741 6.56867 10.7321C6.67075 10.6902 6.78017 10.6688 6.8906 10.6693V10.6693Z" fill="#171723"/>
<path d="M5.5383 3.82863C5.65954 3.82863 5.77806 3.79283 5.87887 3.72576C5.97968 3.65869 6.05825 3.56337 6.10465 3.45184C6.15104 3.34031 6.16318 3.21759 6.13953 3.09919C6.11588 2.9808 6.05749 2.87204 5.97176 2.78668C5.88603 2.70132 5.7768 2.64319 5.65789 2.61964C5.53898 2.59609 5.41573 2.60817 5.30371 2.65437C5.1917 2.70057 5.09596 2.7788 5.0286 2.87917C4.96125 2.97954 4.92529 3.09755 4.92529 3.21827C4.92529 3.38014 4.98988 3.53539 5.10484 3.64986C5.2198 3.76432 5.37572 3.82863 5.5383 3.82863V3.82863Z" fill="#171723"/>
<path d="M15.0743 2.71008H8.26377C8.12829 2.71008 7.99835 2.76367 7.90255 2.85906C7.80675 2.95444 7.75293 3.08382 7.75293 3.21871C7.75293 3.35361 7.80675 3.48298 7.90255 3.57837C7.99835 3.67376 8.12829 3.72735 8.26377 3.72735H15.0743C15.2098 3.72735 15.3397 3.67376 15.4355 3.57837C15.5313 3.48298 15.5851 3.35361 15.5851 3.21871C15.5851 3.08382 15.5313 2.95444 15.4355 2.85906C15.3397 2.76367 15.2098 2.71008 15.0743 2.71008Z" fill="#171723"/>
<path d="M5.5383 6.49C5.65954 6.49 5.77806 6.45421 5.87887 6.38714C5.97968 6.32007 6.05825 6.22475 6.10465 6.11322C6.15104 6.00169 6.16318 5.87897 6.13953 5.76057C6.11588 5.64217 6.05749 5.53342 5.97176 5.44806C5.88603 5.3627 5.7768 5.30457 5.65789 5.28102C5.53898 5.25746 5.41573 5.26955 5.30371 5.31575C5.1917 5.36194 5.09596 5.44018 5.0286 5.54055C4.96125 5.64092 4.92529 5.75893 4.92529 5.87964C4.92529 6.04152 4.98988 6.19677 5.10484 6.31123C5.2198 6.4257 5.37572 6.49 5.5383 6.49V6.49Z" fill="#171723"/>
<path d="M15.0743 5.37134H8.26377C8.12829 5.37134 7.99835 5.42493 7.90255 5.52031C7.80675 5.6157 7.75293 5.74507 7.75293 5.87997C7.75293 6.01487 7.80675 6.14424 7.90255 6.23963C7.99835 6.33501 8.12829 6.3886 8.26377 6.3886H15.0743C15.2098 6.3886 15.3397 6.33501 15.4355 6.23963C15.5313 6.14424 15.5851 6.01487 15.5851 5.87997C15.5851 5.74507 15.5313 5.6157 15.4355 5.52031C15.3397 5.42493 15.2098 5.37134 15.0743 5.37134Z" fill="#171723"/>
<path d="M15.074 9.6521H10.7647C10.6293 9.6521 10.4993 9.70569 10.4035 9.80107C10.3077 9.89646 10.2539 10.0258 10.2539 10.1607C10.2539 10.2956 10.3077 10.425 10.4035 10.5204C10.4993 10.6158 10.6293 10.6694 10.7647 10.6694H15.074C15.2094 10.6694 15.3394 10.6158 15.4352 10.5204C15.531 10.425 15.5848 10.2956 15.5848 10.1607C15.5848 10.0258 15.531 9.89646 15.4352 9.80107C15.3394 9.70569 15.2094 9.6521 15.074 9.6521V9.6521Z" fill="#171723"/>
<path d="M15.074 12.3433H10.7647C10.6293 12.3433 10.4993 12.3968 10.4035 12.4922C10.3077 12.5876 10.2539 12.717 10.2539 12.8519C10.2539 12.9868 10.3077 13.1162 10.4035 13.2115C10.4993 13.3069 10.6293 13.3605 10.7647 13.3605H15.074C15.2094 13.3605 15.3394 13.3069 15.4352 13.2115C15.531 13.1162 15.5848 12.9868 15.5848 12.8519C15.5848 12.717 15.531 12.5876 15.4352 12.4922C15.3394 12.3968 15.2094 12.3433 15.074 12.3433V12.3433Z" fill="#171723"/>
<path d="M15.074 15.0344H10.7647C10.6293 15.0344 10.4993 15.088 10.4035 15.1834C10.3077 15.2788 10.2539 15.4082 10.2539 15.5431C10.2539 15.678 10.3077 15.8073 10.4035 15.9027C10.4993 15.9981 10.6293 16.0517 10.7647 16.0517H15.074C15.2094 16.0517 15.3394 15.9981 15.4352 15.9027C15.531 15.8073 15.5848 15.678 15.5848 15.5431C15.5848 15.4082 15.531 15.2788 15.4352 15.1834C15.3394 15.088 15.2094 15.0344 15.074 15.0344V15.0344Z" fill="#171723"/>
<path d="M18.0002 19.4344V1.52192C17.9998 1.11839 17.8386 0.7315 17.552 0.446166C17.2655 0.160831 16.8769 0.000369004 16.4716 0H3.52802C3.1229 0.000576405 2.73455 0.161137 2.44818 0.446455C2.16181 0.731773 2.0008 1.11855 2.00049 1.52192V19.4501C2.00352 19.4758 2.00865 19.5012 2.01581 19.526C2.01835 19.565 2.02559 19.6036 2.03738 19.6409L2.03981 19.6445C2.06337 19.6984 2.09616 19.7477 2.13672 19.7903C2.14183 19.7958 2.14415 19.8039 2.14944 19.8091C2.23695 19.8938 2.35217 19.9443 2.47402 19.9513C2.4843 19.9521 2.49343 19.9571 2.50383 19.9573L2.51131 19.9588C2.55211 19.9558 2.59237 19.9477 2.63116 19.9348C2.65534 19.9322 2.67931 19.928 2.70287 19.922L4.9338 19.022L7.28546 19.9628C7.4076 20.0124 7.54442 20.0124 7.66655 19.9628L10.0102 19.022L12.3639 19.9628C12.4244 19.9872 12.4891 19.9997 12.5545 19.9995C12.6201 19.9996 12.6851 19.9871 12.746 19.9628L15.0877 19.022L17.2977 19.9121C17.3618 19.9229 17.4257 19.9352 17.4893 19.9488L17.4963 19.9474L17.5063 19.9454C17.6041 19.9426 17.6989 19.9117 17.7795 19.8566C17.8601 19.8015 17.923 19.7244 17.9607 19.6346L17.9632 19.6309C17.9746 19.5672 17.9869 19.5036 18.0001 19.4402L18.0002 19.4344ZM14.8962 18.0018L12.5545 18.9425L10.2009 18.0018C10.0787 17.9521 9.94191 17.9521 9.81977 18.0018L7.4761 18.9425L5.12344 18.0018C5.00095 17.9521 4.86382 17.9521 4.74133 18.0018L3.02223 18.695V1.52192C3.02221 1.38824 3.07546 1.26001 3.1703 1.16539C3.26515 1.07078 3.39382 1.0175 3.52808 1.01726H16.4716C16.606 1.01745 16.7348 1.07068 16.8298 1.16528C16.9248 1.25988 16.9783 1.38813 16.9785 1.52192V18.6857L15.2793 18.0018C15.1565 17.9521 15.019 17.9521 14.8962 18.0018Z" fill="#171723"/>
</svg>
