<svg width="20" height="20" viewBox="0 0 20 20" fill="none" xmlns="http://www.w3.org/2000/svg">
<g clip-path="url(#clip0_10314_144690)">
<g clip-path="url(#clip1_10314_144690)">
<path d="M18.5102 6.0309C18.9053 6.03034 19.2841 5.87306 19.5634 5.59356C19.8427 5.31406 19.9997 4.93519 20 4.54007V1.49083C19.9997 1.09571 19.8427 0.716835 19.5634 0.437339C19.2841 0.157843 18.9053 0.000558648 18.5102 0H15.4597C15.0645 0.000558648 14.6858 0.157843 14.4065 0.437339C14.1272 0.716835 13.9701 1.09571 13.9699 1.49083V1.87517H6.03014V1.49083C6.02987 1.09571 5.87286 0.716834 5.59355 0.437338C5.31425 0.157842 4.93547 0.000558643 4.54032 0H1.48981C1.09467 0.000558643 0.71589 0.157842 0.436585 0.437338C0.15728 0.716834 0.000266971 1.09571 0 1.49083V4.54007C0.000266971 4.93519 0.15728 5.31407 0.436585 5.59356C0.71589 5.87306 1.09467 6.03034 1.48981 6.0309H1.87529V13.9702H1.48981C1.09479 13.9705 0.716026 14.1276 0.436698 14.4069C0.157371 14.6862 0.000309408 15.0649 0 15.4599V18.5103C0.000309408 18.9053 0.157371 19.284 0.436698 19.5633C0.716026 19.8426 1.09479 19.9997 1.48981 20H4.54032C4.93535 19.9997 5.31411 19.8426 5.59344 19.5633C5.87277 19.284 6.02983 18.9053 6.03014 18.5103V18.127H13.9699V18.5103C13.9702 18.9053 14.1273 19.284 14.4066 19.5633C14.6859 19.8426 15.0647 19.9997 15.4597 20H18.5102C18.9052 19.9997 19.284 19.8426 19.5633 19.5633C19.8426 19.284 19.9997 18.9053 20 18.5103V15.4599C19.9997 15.0649 19.8426 14.6862 19.5633 14.4069C19.284 14.1276 18.9052 13.9705 18.5102 13.9702H18.1292V6.0309H18.5102ZM15.1041 1.49083C15.104 1.39639 15.1414 1.30577 15.2081 1.23889C15.2747 1.17201 15.3652 1.13435 15.4597 1.13419H18.5102C18.6046 1.13435 18.6952 1.17201 18.7618 1.23889C18.8285 1.30577 18.8659 1.39639 18.8657 1.49083V4.54007C18.8659 4.63451 18.8285 4.72513 18.7618 4.79201C18.6952 4.85889 18.6046 4.89655 18.5102 4.89671H17.5895C17.5799 4.89622 17.5718 4.89118 17.562 4.89118C17.5523 4.89118 17.5442 4.89622 17.5346 4.89671H15.4597C15.3652 4.89655 15.2747 4.85889 15.2081 4.79201C15.1414 4.72513 15.104 4.63451 15.1041 4.54007V1.49083ZM1.13425 4.54007V1.49083C1.13411 1.39639 1.1715 1.30577 1.23818 1.23888C1.30485 1.172 1.39537 1.13434 1.48981 1.13419H4.54032C4.63477 1.13434 4.72528 1.172 4.79196 1.23888C4.85864 1.30577 4.89602 1.39639 4.89589 1.49083V2.42579L4.89256 2.44227L4.89589 2.45875V4.54007C4.89602 4.63451 4.85864 4.72513 4.79196 4.79201C4.72528 4.8589 4.63477 4.89656 4.54032 4.89671H2.46989C2.46027 4.89622 2.45217 4.89118 2.4424 4.89118C2.43264 4.89118 2.42454 4.89622 2.41492 4.89671H1.48981C1.39537 4.89656 1.30485 4.8589 1.23818 4.79201C1.1715 4.72513 1.13411 4.63451 1.13425 4.54007ZM4.54032 18.8658H1.48981C1.39555 18.8657 1.30517 18.8282 1.23851 18.7616C1.17185 18.6949 1.13436 18.6045 1.13425 18.5103V15.4599C1.13436 15.3657 1.17185 15.2753 1.23851 15.2086C1.30517 15.142 1.39555 15.1045 1.48981 15.1044H4.54032C4.63459 15.1045 4.72497 15.142 4.79163 15.2086C4.85828 15.2753 4.89578 15.3657 4.89589 15.4599V17.5434L4.89256 17.5599L4.89589 17.5764V18.5102C4.89579 18.6045 4.8583 18.6949 4.79164 18.7615C4.72498 18.8282 4.6346 18.8657 4.54032 18.8658V18.8658ZM18.8658 15.4599V18.5103C18.8657 18.6045 18.8282 18.6949 18.7615 18.7616C18.6949 18.8282 18.6045 18.8657 18.5102 18.8658H15.4597C15.3654 18.8657 15.275 18.8282 15.2084 18.7616C15.1417 18.6949 15.1042 18.6045 15.1041 18.5103V15.4599C15.1042 15.3657 15.1417 15.2753 15.2084 15.2086C15.275 15.142 15.3654 15.1045 15.4597 15.1044H18.5102C18.6045 15.1045 18.6948 15.142 18.7615 15.2086C18.8282 15.2753 18.8657 15.3657 18.8658 15.4599ZM16.9949 13.9702H15.4597C15.0647 13.9705 14.6859 14.1276 14.4066 14.4069C14.1273 14.6862 13.9702 15.0649 13.9699 15.4599V16.9929H6.03014V15.4599C6.02983 15.0649 5.87277 14.6862 5.59344 14.4069C5.31411 14.1276 4.93535 13.9705 4.54032 13.9702H3.00954V6.0309H4.54032C4.93547 6.03034 5.31425 5.87306 5.59355 5.59356C5.87286 5.31407 6.02987 4.93519 6.03014 4.54007V3.00936H13.9699V4.54007C13.9701 4.93519 14.1272 5.31406 14.4065 5.59356C14.6858 5.87306 15.0645 6.03034 15.4597 6.0309H16.9949V13.9702Z" fill="#171723"/>
</g>
</g>
<defs>
<clipPath id="clip0_10314_144690">
<rect width="20" height="20" fill="white"/>
</clipPath>
<clipPath id="clip1_10314_144690">
<rect width="20" height="20" fill="white"/>
</clipPath>
</defs>
</svg>
