<svg width="20" height="20" viewBox="0 0 20 20" fill="none" xmlns="http://www.w3.org/2000/svg">
<g clip-path="url(#clip0_5313_35213)">
<path d="M16.6706 9.84615C16.6868 9.82209 16.7128 9.80678 16.7238 9.77916C16.729 9.76619 16.7236 9.7524 16.7274 9.73916C16.7421 9.66119 16.7413 9.58109 16.7251 9.50341C16.7208 9.48912 16.7265 9.47417 16.7205 9.46018C16.7074 9.42987 16.6809 9.41385 16.6632 9.38826C16.6501 9.36993 16.6482 9.3463 16.6318 9.32993L9.94971 2.64781C9.91103 2.60912 9.86511 2.57842 9.81456 2.55748C9.76402 2.53654 9.70984 2.52576 9.65513 2.52576C9.60042 2.52576 9.54624 2.53654 9.49569 2.55748C9.44515 2.57842 9.39922 2.60912 9.36054 2.64781L6.81988 5.18846L4.21892 3.64797C4.17178 3.61992 4.11958 3.60144 4.06529 3.5936C4.011 3.58575 3.9557 3.58869 3.90255 3.60225C3.8494 3.61581 3.79945 3.63972 3.75556 3.67261C3.71166 3.7055 3.67469 3.74673 3.64675 3.79394C3.61881 3.84114 3.60046 3.89339 3.59275 3.9477C3.58504 4.002 3.58811 4.0573 3.6018 4.11041C3.61549 4.16353 3.63952 4.21342 3.67252 4.25724C3.70552 4.30105 3.74684 4.33792 3.79411 4.36575L6.2111 5.79723L2.3431 9.66523C2.17258 9.83548 2.03729 10.0377 1.94499 10.2603C1.85269 10.4829 1.80518 10.7215 1.80518 10.9624C1.80518 11.2034 1.85269 11.442 1.94499 11.6646C2.03729 11.8872 2.17258 12.0894 2.3431 12.2596L7.02003 16.9365C7.36439 17.28 7.83088 17.4728 8.31723 17.4728C8.80357 17.4728 9.27007 17.28 9.61443 16.9365L16.6318 9.91913C16.6522 9.89874 16.6552 9.8696 16.6706 9.84615ZM10.2126 7.19778L7.55998 5.62674L9.6551 3.5316L15.355 9.23147L10.6264 9.34739L3.66904 9.51767L6.95115 6.23556L9.78776 7.91556C9.88293 7.97157 9.99643 7.98756 10.1034 7.96C10.2103 7.93244 10.3019 7.86359 10.3582 7.76856C10.4144 7.67353 10.4307 7.56007 10.4034 7.45307C10.3761 7.34607 10.3075 7.25426 10.2126 7.19779L10.2126 7.19778Z" fill="#171723"/>
<path d="M16.3372 11.9529C16.3372 11.9529 14.8965 13.516 14.8965 14.474C14.8965 14.6632 14.9337 14.8506 15.0061 15.0253C15.0785 15.2001 15.1847 15.3589 15.3184 15.4927C15.4522 15.6265 15.611 15.7326 15.7858 15.805C15.9606 15.8774 16.1479 15.9147 16.3371 15.9147C16.5263 15.9147 16.7136 15.8774 16.8884 15.805C17.0632 15.7326 17.222 15.6265 17.3558 15.4927C17.4896 15.3589 17.5957 15.2001 17.6681 15.0253C17.7405 14.8506 17.7778 14.6632 17.7778 14.474C17.7778 13.516 16.3372 11.9529 16.3372 11.9529Z" fill="#171723"/>
</g>
<defs>
<clipPath id="clip0_5313_35213">
<rect width="20" height="20" fill="white"/>
</clipPath>
</defs>
</svg>
