<svg width="20" height="20" viewBox="0 0 20 20" fill="none" xmlns="http://www.w3.org/2000/svg">
<g clip-path="url(#clip0_10314_144693)">
<g clip-path="url(#clip1_10314_144693)">
<path d="M9.70787 20C9.43544 20.0004 9.16562 19.947 8.91389 19.8428C8.66216 19.7386 8.43348 19.5858 8.24098 19.393L0.60799 11.76C0.415235 11.5673 0.262333 11.3385 0.158013 11.0867C0.053693 10.8349 0 10.565 0 10.2924C0 10.0198 0.053693 9.74991 0.158013 9.49809C0.262333 9.24627 0.415235 9.01747 0.60799 8.82475L8.82416 0.608571C9.04342 0.387534 9.30997 0.219132 9.60375 0.116052C9.89753 0.0129722 10.2109 -0.0220988 10.5202 0.013481L17.3845 0.774716C17.8536 0.824612 18.2916 1.03364 18.6254 1.36701C18.9592 1.70039 19.1688 2.13802 19.2194 2.60709L19.986 9.47936C20.0216 9.78896 19.9866 10.1026 19.8835 10.3967C19.7804 10.6908 19.612 10.9577 19.3909 11.1773L11.1758 19.393C10.9831 19.5859 10.7543 19.7388 10.5024 19.8429C10.2505 19.9471 9.98046 20.0005 9.70787 20V20ZM10.2891 1.01621C10.1503 1.01614 10.0128 1.04354 9.88464 1.09682C9.75646 1.1501 9.6401 1.2282 9.54223 1.32664L1.32606 9.54331C1.22764 9.6417 1.14957 9.75852 1.0963 9.88709C1.04303 10.0157 1.01562 10.1535 1.01562 10.2926C1.01562 10.4318 1.04303 10.5696 1.0963 10.6982C1.14957 10.8267 1.22764 10.9436 1.32606 11.0419L8.95905 18.675C9.15807 18.8731 9.4275 18.9844 9.70836 18.9844C9.98923 18.9844 10.2587 18.8731 10.4577 18.675L18.6729 10.4593C18.7857 10.3472 18.8716 10.211 18.9242 10.061C18.9767 9.91091 18.9946 9.75089 18.9764 9.59294L18.2097 2.72017C18.184 2.48071 18.0771 2.25726 17.9068 2.08701C17.7364 1.91676 17.5129 1.80996 17.2735 1.78439L10.4081 1.02318C10.3686 1.01863 10.3289 1.01631 10.2891 1.01621V1.01621Z" fill="#171723"/>
<path d="M14.3744 8.01701C13.8212 8.01661 13.2852 7.82441 12.8578 7.47317C12.4305 7.12194 12.1381 6.63339 12.0305 6.09075C11.9229 5.54812 12.0068 4.98498 12.2679 4.49726C12.529 4.00955 12.9511 3.62743 13.4623 3.41602C13.9735 3.2046 14.5421 3.17697 15.0714 3.33782C15.6007 3.49867 16.0579 3.83806 16.365 4.29816C16.6721 4.75827 16.8102 5.31062 16.7558 5.86113C16.7013 6.41163 16.4577 6.92623 16.0664 7.31725C15.8444 7.53968 15.5806 7.71601 15.2902 7.8361C14.9999 7.95619 14.6886 8.01768 14.3744 8.01701V8.01701ZM14.3744 4.24962C14.056 4.24991 13.7476 4.36057 13.5017 4.56274C13.2558 4.76492 13.0876 5.0461 13.0257 5.35838C12.9639 5.67066 13.0122 5.99473 13.1625 6.27538C13.3127 6.55603 13.5557 6.7759 13.8499 6.89753C14.1441 7.01917 14.4713 7.03503 14.7759 6.94244C15.0805 6.84984 15.3436 6.65451 15.5203 6.38971C15.697 6.12492 15.7765 5.80704 15.7451 5.49024C15.7138 5.17344 15.5735 4.8773 15.3483 4.65229C15.2205 4.52433 15.0687 4.42289 14.9015 4.35379C14.7344 4.28469 14.5552 4.24929 14.3744 4.24962V4.24962Z" fill="#171723"/>
</g>
</g>
<defs>
<clipPath id="clip0_10314_144693">
<rect width="20" height="20" fill="white"/>
</clipPath>
<clipPath id="clip1_10314_144693">
<rect width="20" height="20" fill="white"/>
</clipPath>
</defs>
</svg>
