<svg width="20" height="20" viewBox="0 0 20 20" fill="none" xmlns="http://www.w3.org/2000/svg">
<g clip-path="url(#clip0_5313_35032)">
<path d="M15.8507 15.2613L10.5894 9.99994L15.8499 4.73921C15.8893 4.70067 15.9206 4.65471 15.942 4.604C15.9635 4.55328 15.9747 4.49882 15.9749 4.44375C15.9752 4.38869 15.9646 4.33411 15.9436 4.28319C15.9227 4.23226 15.8919 4.18599 15.8529 4.14705C15.814 4.10811 15.7677 4.07728 15.7168 4.05634C15.6659 4.03539 15.6113 4.02475 15.5562 4.02503C15.5012 4.02531 15.4467 4.0365 15.396 4.05796C15.3453 4.07941 15.2993 4.11071 15.2608 4.15004L10.0002 9.41077L4.73909 4.14962C4.66069 4.07279 4.55514 4.03 4.44537 4.03056C4.33561 4.03111 4.2305 4.07496 4.15288 4.15258C4.07526 4.23019 4.03141 4.33531 4.03086 4.44507C4.0303 4.55484 4.07309 4.66039 4.14992 4.73878L9.41105 9.99992L4.14992 15.2613C4.11059 15.2998 4.07929 15.3457 4.05784 15.3965C4.03638 15.4472 4.02519 15.5016 4.02491 15.5567C4.02463 15.6118 4.03527 15.6663 4.05621 15.7173C4.07716 15.7682 4.10799 15.8145 4.14693 15.8534C4.18587 15.8923 4.23214 15.9232 4.28306 15.9441C4.33399 15.9651 4.38857 15.9757 4.44363 15.9754C4.4987 15.9752 4.55316 15.964 4.60387 15.9425C4.65459 15.921 4.70054 15.8897 4.73909 15.8504L10.0002 10.5891L15.2616 15.8504C15.3001 15.8897 15.3461 15.921 15.3968 15.9425C15.4475 15.964 15.5019 15.9752 15.557 15.9754C15.6121 15.9757 15.6666 15.9651 15.7176 15.9441C15.7685 15.9232 15.8148 15.8923 15.8537 15.8534C15.8926 15.8145 15.9235 15.7682 15.9444 15.7173C15.9654 15.6663 15.976 15.6118 15.9757 15.5567C15.9755 15.5016 15.9643 15.4472 15.9428 15.3965C15.9213 15.3457 15.89 15.2998 15.8507 15.2613L15.8507 15.2613Z" fill="#171723"/>
</g>
<defs>
<clipPath id="clip0_5313_35032">
<rect width="20" height="20" fill="white"/>
</clipPath>
</defs>
</svg>
