<svg width="20" height="20" viewBox="0 0 20 20" fill="none" xmlns="http://www.w3.org/2000/svg">
<g clip-path="url(#clip0_5313_35101)">
<path d="M18.6489 14.6035V13.5771C18.649 13.5098 18.6358 13.4432 18.6103 13.381C18.5848 13.3188 18.5473 13.2623 18.5001 13.2148C18.4529 13.1672 18.3968 13.1295 18.3351 13.1037C18.2734 13.078 18.2073 13.0648 18.1405 13.0648C18.1335 13.0648 18.1277 13.0685 18.1208 13.0688H10.5045V12.0353H16.9847C17.43 12.0359 17.8699 11.9369 18.2727 11.7456C18.6755 11.5543 19.0312 11.2753 19.3141 10.9288C19.5971 10.5823 19.8002 10.1769 19.9089 9.74173C20.0176 9.30659 20.0292 8.85259 19.9428 8.41241C19.8322 7.84151 19.5604 7.31492 19.16 6.89588C18.7597 6.47685 18.2477 6.18319 17.6857 6.05019C17.4466 5.99136 17.201 5.96313 16.9549 5.96617C16.9499 5.46178 16.8325 4.96495 16.6113 4.51243C16.231 3.84078 15.627 3.3265 14.9063 3.06077C14.1856 2.79503 13.3948 2.79499 12.6741 3.06067C12.2967 2.14955 11.659 1.37208 10.8419 0.827104C10.0248 0.282127 9.0654 -0.00574474 8.08556 8.68782e-05L7.91874 0.00308892C6.75609 0.0748215 5.65619 0.558949 4.81394 1.36968C3.97169 2.18041 3.44148 3.2654 3.31727 4.43236C2.38963 4.54725 1.53717 5.0045 0.924611 5.71576C0.312053 6.42702 -0.0171235 7.3418 0.000686701 8.28335C0.0325714 9.29514 0.456142 10.2542 1.1808 10.9554C1.90545 11.6565 2.87365 12.0441 3.87829 12.0353H9.48765V13.0688H1.88128C1.87432 13.0685 1.86856 13.0648 1.86154 13.0648C1.72617 13.0659 1.59669 13.1207 1.50116 13.2174C1.40562 13.314 1.35173 13.4447 1.35115 13.5811L1.35313 13.591V14.6022C0.957711 14.7256 0.619358 14.9879 0.399581 15.3413C0.179804 15.6948 0.0931949 16.116 0.155497 16.5283C0.2178 16.9406 0.424877 17.3168 0.739087 17.5883C1.0533 17.8598 1.45378 18.0088 1.86773 18.008C2.28168 18.0072 2.68161 17.8568 2.99484 17.5841C3.30806 17.3114 3.51377 16.9346 3.57457 16.522C3.63537 16.1094 3.54724 15.6886 3.32618 15.3359C3.10512 14.9833 2.76582 14.7223 2.36995 14.6004V14.0933H9.48765V16.5942C9.09223 16.7176 8.75388 16.9799 8.5341 17.3333C8.31433 17.6868 8.22772 18.108 8.29002 18.5203C8.35232 18.9326 8.5594 19.3088 8.87361 19.5803C9.18782 19.8518 9.5883 20.0008 10.0022 20C10.4162 19.9992 10.8161 19.8488 11.1294 19.5761C11.4426 19.3034 11.6483 18.9266 11.7091 18.514C11.7699 18.1014 11.6818 17.6806 11.4607 17.3279C11.2396 16.9753 10.9003 16.7143 10.5045 16.5923V14.0933H17.6321V14.5991C17.2359 14.7201 16.8959 14.9803 16.674 15.3324C16.4521 15.6845 16.3629 16.1052 16.4227 16.5179C16.4825 16.9307 16.6873 17.3081 16.9999 17.5816C17.3125 17.8551 17.7121 18.0065 18.1261 18.0083C18.5401 18.0101 18.9409 17.8621 19.2558 17.5913C19.5707 17.3205 19.7787 16.9449 19.842 16.5326C19.9053 16.1204 19.8197 15.699 19.6008 15.345C19.3818 14.991 19.0441 14.7278 18.6489 14.6035V14.6035ZM1.0175 8.26934C1.00976 7.89786 1.07593 7.52857 1.21211 7.18326C1.34828 6.83794 1.5517 6.52361 1.81038 6.25878C2.06905 5.99394 2.37773 5.78399 2.71822 5.64128C3.05871 5.49858 3.42412 5.42601 3.79289 5.42788C3.9257 5.42795 4.05326 5.37565 4.14828 5.28215C4.2433 5.18866 4.29822 5.0614 4.3013 4.92762C4.31154 3.93441 4.69262 2.98152 5.36867 2.25863C6.04471 1.53574 6.96614 1.09588 7.94952 1.0266L8.09251 1.02455C8.95557 1.01757 9.79661 1.2989 10.4842 1.82458C11.1717 2.35027 11.667 3.09067 11.8927 3.93006C11.9133 4.00961 11.9526 4.08298 12.0073 4.14398C12.062 4.20497 12.1305 4.25178 12.207 4.28044C12.2835 4.3091 12.3657 4.31877 12.4466 4.30863C12.5276 4.2985 12.605 4.26885 12.6722 4.2222C12.9182 4.06516 13.1931 3.95977 13.4806 3.91235C13.768 3.86494 14.0619 3.87647 14.3448 3.94625C14.6277 4.01604 14.8937 4.14265 15.1269 4.31849C15.36 4.49433 15.5556 4.71579 15.7017 4.96959C15.9277 5.42076 15.9932 5.93636 15.8874 6.43035C15.8679 6.5153 15.8701 6.60386 15.8939 6.6877C15.9177 6.77154 15.9623 6.8479 16.0235 6.90959C16.0844 6.97195 16.1604 7.01729 16.2439 7.04114C16.3275 7.065 16.4158 7.06655 16.5001 7.04566C16.8134 6.9723 17.1394 6.973 17.4524 7.04771C17.7812 7.12677 18.0847 7.28879 18.3343 7.51853C18.5839 7.74827 18.7714 8.03818 18.8793 8.36103C18.9871 8.68387 19.0117 9.02904 18.9507 9.36409C18.8898 9.69914 18.7452 10.0131 18.5308 10.2764C18.342 10.5052 18.1057 10.6895 17.8386 10.8164C17.5715 10.9433 17.28 11.0096 16.9847 11.0107H3.87829C3.14056 11.0208 2.42821 10.7396 1.89359 10.2273C1.35897 9.71499 1.04452 9.01224 1.0175 8.26934V8.26934ZM1.86451 16.9748C1.67673 16.9752 1.49644 16.9007 1.363 16.7675C1.22957 16.6344 1.15384 16.4535 1.15235 16.2643C1.15086 16.0751 1.22373 15.893 1.35504 15.7577C1.48636 15.6225 1.66545 15.5451 1.85321 15.5424L1.86153 15.5441L1.87283 15.5418C2.06083 15.5438 2.2404 15.6208 2.37225 15.7558C2.50409 15.8909 2.5775 16.073 2.5764 16.2625C2.5753 16.4519 2.49979 16.6332 2.36638 16.7667C2.23297 16.9002 2.05253 16.975 1.86451 16.9748V16.9748ZM9.99903 18.9669C9.85821 18.9669 9.72056 18.9248 9.60348 18.846C9.48639 18.7671 9.39513 18.6551 9.34124 18.524C9.28736 18.3929 9.27325 18.2487 9.30073 18.1095C9.3282 17.9704 9.396 17.8426 9.49558 17.7422C9.59515 17.6419 9.72201 17.5736 9.86012 17.5459C9.99823 17.5182 10.1414 17.5324 10.2715 17.5867C10.4016 17.641 10.5128 17.733 10.591 17.8509C10.6692 17.9689 10.711 18.1076 10.711 18.2495C10.7107 18.4396 10.6355 18.6219 10.5021 18.7564C10.3687 18.8908 10.1878 18.9665 9.99904 18.9669H9.99903ZM18.1336 16.9748C17.9455 16.9748 17.7651 16.8997 17.6318 16.7659C17.4986 16.6322 17.4233 16.4508 17.4225 16.2613C17.4216 16.0718 17.4953 15.8897 17.6274 15.7548C17.7594 15.6199 17.9392 15.5432 18.1272 15.5414L18.1405 15.5441L18.1468 15.5428C18.3343 15.5461 18.5128 15.6239 18.6435 15.7593C18.7743 15.8947 18.8467 16.0766 18.8449 16.2654C18.8432 16.4543 18.7674 16.6348 18.6342 16.7677C18.5009 16.9006 18.321 16.975 18.1336 16.9748V16.9748Z" fill="#171723"/>
</g>
<defs>
<clipPath id="clip0_5313_35101">
<rect width="20" height="20" fill="white"/>
</clipPath>
</defs>
</svg>
