<svg width="20" height="20" viewBox="0 0 20 20" fill="none" xmlns="http://www.w3.org/2000/svg">
<g clip-path="url(#clip0_5313_35250)">
<path d="M18.6523 14.6043V13.5795C18.6519 13.4437 18.5982 13.3136 18.5029 13.2176C18.4076 13.1215 18.2785 13.0674 18.1438 13.067H10.5064V12.0319H16.9845C17.7226 12.0332 18.4354 11.7611 18.9876 11.2674C19.5397 10.7738 19.8926 10.0929 19.9792 9.35415C20.0658 8.61543 19.8801 7.8704 19.4573 7.26063C19.0346 6.65087 18.4043 6.21888 17.6862 6.04676C17.4454 5.99531 17.2001 5.96785 16.9539 5.96477C16.9532 5.4591 16.8348 4.96065 16.6082 4.50947C16.2285 3.83761 15.6244 3.32349 14.9036 3.05882C14.1827 2.79415 13.392 2.79614 12.6725 3.06443C12.2967 2.15221 11.6596 1.37352 10.8427 0.827738C10.0258 0.281953 9.06608 -0.00618223 8.08597 0.000100601H7.91309C6.75141 0.0720328 5.65252 0.556083 4.81114 1.36647C3.96976 2.17686 3.44022 3.26125 3.31638 4.42749C2.46682 4.53455 1.67824 4.92828 1.07905 5.54458C0.726156 5.90431 0.448821 6.33202 0.263608 6.80216C0.0783944 7.27231 -0.010899 7.77525 0.00106055 8.28095C0.0328091 9.2923 0.455982 10.251 1.18007 10.952C1.90416 11.6529 2.87169 12.0406 3.87572 12.0319H9.48939V13.067H1.86212C1.76152 13.0666 1.66313 13.0967 1.57971 13.1534C1.49629 13.21 1.43169 13.2906 1.39431 13.3847C1.3621 13.4446 1.34466 13.5114 1.34346 13.5795C1.34344 13.5808 1.34369 13.5822 1.34419 13.5834C1.34469 13.5847 1.34544 13.5858 1.34639 13.5867C1.34734 13.5877 1.34847 13.5884 1.34972 13.5889C1.35096 13.5894 1.35229 13.5897 1.35363 13.5897V14.6043C0.957973 14.727 0.619137 14.9887 0.398718 15.3418C0.178298 15.695 0.0909284 16.1161 0.152491 16.5286C0.214053 16.9412 0.42046 17.3177 0.73419 17.5899C1.04792 17.8621 1.44815 18.0118 1.86212 18.0118C2.27608 18.0118 2.67631 17.8621 2.99004 17.5899C3.30377 17.3177 3.51018 16.9412 3.57174 16.5286C3.6333 16.1161 3.54593 15.695 3.32551 15.3418C3.10509 14.9887 2.76626 14.727 2.3706 14.6043V14.0919H9.48939V16.5925C9.09373 16.7152 8.7549 16.9769 8.53448 17.3301C8.31406 17.6832 8.22669 18.1043 8.28825 18.5168C8.34981 18.9294 8.55622 19.306 8.86995 19.5781C9.18368 19.8503 9.58391 20 9.99787 20C10.4118 20 10.8121 19.8503 11.1258 19.5781C11.4395 19.306 11.6459 18.9294 11.7075 18.5168C11.7691 18.1043 11.6817 17.6832 11.4613 17.3301C11.2409 16.9769 10.902 16.7152 10.5064 16.5925V14.0919H17.6353V14.6043C17.2425 14.7269 16.9063 14.9875 16.6878 15.3386C16.4693 15.6897 16.3829 16.1081 16.4445 16.5179C16.506 16.9277 16.7113 17.3017 17.0231 17.5719C17.3349 17.8422 17.7325 17.9908 18.1438 17.9908C18.5551 17.9908 18.9527 17.8422 19.2645 17.5719C19.5763 17.3017 19.7816 16.9277 19.8431 16.5179C19.9047 16.1081 19.8183 15.6897 19.5998 15.3386C19.3813 14.9875 19.0451 14.7269 18.6523 14.6043V14.6043Z" fill="#171723"/>
</g>
<defs>
<clipPath id="clip0_5313_35250">
<rect width="20" height="20" fill="white"/>
</clipPath>
</defs>
</svg>
