<svg width="20" height="20" viewBox="0 0 20 20" fill="none" xmlns="http://www.w3.org/2000/svg">
<g clip-path="url(#clip0_10314_145785)">
<path d="M19.5299 8.16331C19.4208 7.60971 19.1544 7.09928 18.7627 6.69313C18.371 6.28697 17.8706 6.0023 17.3213 5.87319C17.0908 5.79825 16.848 5.76889 16.6063 5.78675C16.5974 5.30044 16.4835 4.82178 16.2726 4.38351C16.0034 3.8854 15.6031 3.47033 15.1152 3.18313C14.6272 2.89592 14.07 2.74751 13.5038 2.75392C13.1294 2.75207 12.7582 2.82394 12.4114 2.96544C12.0412 2.08266 11.4173 1.32963 10.6187 0.80174C9.82015 0.273847 8.88288 -0.00515674 7.92562 7.21733e-05L7.74984 0.00108903C6.53874 0.0633073 5.39815 0.589666 4.56498 1.47084C3.83191 2.24529 3.36893 3.23603 3.24516 4.29521C2.41401 4.40061 1.64313 4.78465 1.05836 5.38462C0.541605 5.91325 0.194324 6.58403 0.0609555 7.31114C-0.0724125 8.03825 0.0141991 8.78862 0.309707 9.46623C0.605215 10.1438 1.09618 10.7179 1.71978 11.1149C2.34337 11.5119 3.07124 11.7138 3.81024 11.6948H3.98899V13.7097C3.98895 13.7765 4.00208 13.8426 4.02762 13.9043C4.05316 13.966 4.09061 14.0221 4.13783 14.0693C4.18506 14.1166 4.24112 14.154 4.30283 14.1795C4.36454 14.2051 4.43067 14.2182 4.49746 14.2182H15.0948C15.1616 14.2182 15.2277 14.2051 15.2894 14.1795C15.3511 14.154 15.4072 14.1166 15.4544 14.0693C15.5016 14.0221 15.5391 13.966 15.5646 13.9043C15.5902 13.8426 15.6033 13.7765 15.6033 13.7097V11.6948H16.6251C17.061 11.6941 17.4915 11.5977 17.886 11.4124C18.2805 11.2271 18.6295 10.9573 18.9083 10.6222C19.1844 10.2822 19.383 9.88601 19.4904 9.46135C19.5977 9.03669 19.6112 8.59373 19.5299 8.16331ZM5.00592 13.2012V10.2409H14.5863V11.1814L14.5853 11.1863L14.5863 11.1912V13.2012H5.00592ZM18.1247 9.97468C17.9414 10.1944 17.7121 10.3712 17.453 10.4927C17.1939 10.6142 16.9113 10.6773 16.6251 10.6778H15.6033V9.7324C15.6033 9.66561 15.5902 9.59948 15.5646 9.53777C15.5391 9.47606 15.5016 9.42 15.4544 9.37277C15.4072 9.32555 15.3511 9.2881 15.2894 9.26256C15.2277 9.23702 15.1616 9.22389 15.0948 9.22393H4.49746C4.43067 9.22389 4.36454 9.23702 4.30283 9.26256C4.24112 9.2881 4.18506 9.32555 4.13783 9.37277C4.09061 9.42 4.05316 9.47606 4.02762 9.53777C4.00208 9.59948 3.98895 9.66561 3.98899 9.7324V10.6778H3.81024C3.27137 10.6968 2.73917 10.5539 2.28229 10.2676C1.82541 9.98124 1.4648 9.56457 1.24698 9.07132C1.02916 8.57807 0.964117 8.03088 1.06025 7.50032C1.15638 6.96975 1.40927 6.48016 1.7863 6.0947C2.03794 5.83694 2.33871 5.63224 2.67082 5.49271C3.00292 5.35318 3.35963 5.28165 3.71986 5.28234C3.85253 5.28247 3.97999 5.2307 4.07501 5.1381C4.17002 5.0455 4.22504 4.91941 4.22833 4.78678C4.2503 3.81188 4.63318 2.8798 5.30286 2.17097C5.94991 1.48462 6.83498 1.07175 7.77666 1.01699H7.92562C8.76708 1.00937 9.58727 1.2813 10.2575 1.79013C10.9277 2.29896 11.4101 3.01589 11.6289 3.82845C11.6499 3.90769 11.6896 3.98072 11.7448 4.04138C11.7999 4.10205 11.8688 4.14857 11.9457 4.17702C12.0226 4.20627 12.1056 4.21604 12.1872 4.20547C12.2688 4.1949 12.3465 4.16432 12.4135 4.11644C12.653 3.96661 12.9201 3.86619 13.199 3.8211C13.4779 3.776 13.763 3.78714 14.0375 3.85385C14.3121 3.92057 14.5705 4.04152 14.7976 4.20958C15.0247 4.37764 15.2159 4.58942 15.36 4.83247C15.5776 5.27187 15.6419 5.77142 15.5427 6.2516C15.5232 6.33686 15.526 6.42572 15.5509 6.50957C15.5758 6.59343 15.6219 6.66945 15.6847 6.73028C15.747 6.79181 15.8244 6.83585 15.9091 6.85799C15.9939 6.88012 16.0829 6.87957 16.1674 6.85638C16.4673 6.78321 16.7807 6.78458 17.08 6.86035C17.4378 6.94636 17.764 7.1319 18.0207 7.39552C18.2775 7.65914 18.4544 7.99007 18.5309 8.35001C18.5861 8.63405 18.5784 8.92675 18.5082 9.20746C18.438 9.48818 18.3071 9.75009 18.1247 9.97472V9.97468Z" fill="#171723"/>
<path d="M15.095 15.0057H4.49772C4.43094 15.0057 4.3648 15.0188 4.3031 15.0444C4.24139 15.0699 4.18532 15.1074 4.1381 15.1546C4.09087 15.2018 4.05342 15.2579 4.02788 15.3196C4.00234 15.3813 3.98922 15.4474 3.98926 15.5142V19.4915C3.98922 19.5583 4.00234 19.6245 4.02788 19.6862C4.05342 19.7479 4.09087 19.804 4.1381 19.8512C4.18532 19.8984 4.24139 19.9358 4.3031 19.9614C4.3648 19.9869 4.43094 20.0001 4.49772 20H15.095C15.1618 20.0001 15.228 19.9869 15.2897 19.9614C15.3514 19.9358 15.4074 19.8984 15.4547 19.8512C15.5019 19.8039 15.5393 19.7479 15.5649 19.6862C15.5904 19.6245 15.6035 19.5583 15.6035 19.4915V15.5142C15.6035 15.4474 15.5904 15.3813 15.5649 15.3196C15.5393 15.2579 15.5019 15.2018 15.4547 15.1546C15.4074 15.1074 15.3514 15.0699 15.2897 15.0444C15.228 15.0188 15.1618 15.0057 15.095 15.0057V15.0057ZM14.5866 18.9831H5.00619V16.0227H14.5866V18.9831Z" fill="#171723"/>
<path d="M6.27311 18.0108H8.92468C9.05953 18.0108 9.18886 17.9573 9.28422 17.8619C9.37957 17.7665 9.43314 17.6372 9.43314 17.5024C9.43314 17.3675 9.37957 17.2382 9.28422 17.1428C9.18886 17.0475 9.05953 16.9939 8.92468 16.9939H6.27311C6.13826 16.9939 6.00893 17.0475 5.91358 17.1428C5.81822 17.2382 5.76465 17.3675 5.76465 17.5024C5.76465 17.6372 5.81822 17.7665 5.91358 17.8619C6.00893 17.9573 6.13826 18.0108 6.27311 18.0108Z" fill="#171723"/>
<path d="M13.2715 17.9999C13.5461 17.9999 13.7686 17.7774 13.7686 17.5028C13.7686 17.2283 13.5461 17.0057 13.2715 17.0057C12.997 17.0057 12.7744 17.2283 12.7744 17.5028C12.7744 17.7774 12.997 17.9999 13.2715 17.9999Z" fill="#171723"/>
<path d="M8.92468 11.2122H6.27311C6.13826 11.2122 6.00893 11.2657 5.91358 11.3611C5.81822 11.4564 5.76465 11.5858 5.76465 11.7206C5.76465 11.8555 5.81822 11.9848 5.91358 12.0802C6.00893 12.1755 6.13826 12.2291 6.27311 12.2291H8.92468C9.05953 12.2291 9.18886 12.1755 9.28422 12.0802C9.37957 11.9848 9.43314 11.8555 9.43314 11.7206C9.43314 11.5858 9.37957 11.4564 9.28422 11.3611C9.18886 11.2657 9.05953 11.2122 8.92468 11.2122V11.2122Z" fill="#171723"/>
<path d="M13.2715 12.218C13.5461 12.218 13.7686 11.9954 13.7686 11.7209C13.7686 11.4463 13.5461 11.2238 13.2715 11.2238C12.997 11.2238 12.7744 11.4463 12.7744 11.7209C12.7744 11.9954 12.997 12.218 13.2715 12.218Z" fill="#171723"/>
</g>
<defs>
<clipPath id="clip0_10314_145785">
<rect width="20" height="20" fill="white"/>
</clipPath>
</defs>
</svg>
