<svg width="20" height="20" viewBox="0 0 20 20" fill="none" xmlns="http://www.w3.org/2000/svg">
<path d="M18.2103 8.66833L18.2069 8.6545C18.1457 8.2102 17.9416 7.78823 17.6167 7.43373C17.2918 7.07923 16.8581 6.80553 16.3622 6.64192V4.74581C16.3622 3.09705 13.3467 1.80554 9.49652 1.80554C5.6463 1.80554 2.62986 3.09705 2.62986 4.74581V7.34113L2.62695 7.35323C2.68889 7.79909 2.89375 8.22249 3.2197 8.57836C3.54564 8.93423 3.98048 9.20924 4.47791 9.37411V11.0464C4.16063 11.2239 3.89738 11.4614 3.70929 11.7398C3.52119 12.0182 3.41351 12.3298 3.39487 12.6495C3.39487 12.6576 3.39766 12.6655 3.39778 12.6737V15.244L3.39487 15.2561C3.39487 16.9029 6.41021 18.1925 10.2594 18.193L10.2693 18.1947L10.2814 18.1927C14.1218 18.1882 17.1272 16.9011 17.129 15.2575L17.1301 15.2528V12.8726C17.4412 12.6937 17.6999 12.4579 17.8865 12.1828C18.0731 11.9078 18.1828 11.6008 18.2073 11.285L18.2103 11.2725L18.2103 8.66833ZM17.2155 8.66672C17.2155 9.20372 16.5531 9.74968 15.4088 10.1612L15.3869 10.1681C15.115 10.2631 14.8369 10.3452 14.554 10.414C14.5333 10.4166 14.5129 10.4204 14.4929 10.4254C14.1263 10.5176 13.752 10.5865 13.373 10.6313C12.709 10.7287 12.0361 10.7766 11.3621 10.7743L11.3485 10.772L11.337 10.774C10.6553 10.7755 9.97459 10.7274 9.30266 10.6304C8.61707 10.541 7.94592 10.3861 7.30227 10.1687C7.29226 10.1649 7.28165 10.1631 7.2713 10.1598L7.26941 10.1593C7.24747 10.1461 7.22414 10.1346 7.19972 10.125C7.95654 10.2355 8.72335 10.2908 9.49154 10.2902L9.50142 10.2919L9.51348 10.2898C13.1612 10.2856 16.0503 9.12362 16.3332 7.5987C16.5703 7.70561 16.7738 7.85812 16.9272 8.04376C17.0805 8.22939 17.1793 8.44287 17.2155 8.66672ZM6.51598 15.113C6.88697 15.2142 7.26481 15.2968 7.64748 15.3604V17.126C7.26338 17.0551 6.88537 16.9627 6.51598 16.8494V15.113ZM8.64035 15.499C9.0065 15.5376 9.384 15.5627 9.77284 15.5743V17.35C9.37888 17.3378 9.00139 17.311 8.64035 17.2719V15.499ZM10.7657 15.5741C11.1541 15.5624 11.5281 15.5373 11.8875 15.4989V17.2715C11.5297 17.3104 11.1558 17.3373 10.7657 17.3497V15.5741ZM12.8804 15.3589C13.2631 15.2953 13.6409 15.2127 14.0119 15.1115V16.8481C13.6425 16.9616 13.2645 17.0542 12.8804 17.1253V15.3589ZM14.3067 14.1428C13.6606 14.3695 12.9835 14.528 12.2909 14.6148C11.6316 14.7113 10.9634 14.759 10.2941 14.7574C10.2854 14.757 10.2781 14.7531 10.2693 14.7531C10.2607 14.7531 10.2536 14.7569 10.2452 14.7572C9.56665 14.7584 8.88926 14.7105 8.22054 14.614C7.52915 14.5265 6.85334 14.3674 6.20858 14.1403C5.06549 13.7375 4.40604 13.2019 4.39059 12.6686V12.6486L4.38926 12.6431C4.40302 12.4115 4.51107 12.191 4.69535 12.0183C5.44703 13.2938 8.09347 14.2128 11.3416 14.2128L11.3433 14.2127L11.3484 14.2136L11.3548 14.2125C12.6939 14.224 14.0259 14.0471 15.2955 13.6894C14.9875 13.8716 14.6558 14.0238 14.3067 14.1428ZM6.88054 7.47184V9.22338C6.4961 9.15242 6.11776 9.05992 5.74805 8.94649V7.22119C6.11955 7.3228 6.49766 7.40648 6.88054 7.47184ZM9.00492 7.67662V9.44714C8.61133 9.43499 8.23422 9.40818 7.8734 9.36918V7.60422C8.23942 7.64095 8.6166 7.66508 9.00492 7.67662ZM11.1196 7.60422V9.36864C10.7618 9.4075 10.3879 9.43441 9.99778 9.44682V7.67642C10.3824 7.66502 10.7564 7.64095 11.1196 7.60422ZM13.244 7.2214V8.94528C12.8746 9.05876 12.4966 9.15135 12.1125 9.22243V7.47179C12.495 7.40646 12.8728 7.32286 13.244 7.2214ZM15.3694 6.87014V7.34922L15.3684 7.35323C15.3684 7.76197 14.9562 8.18865 14.2369 8.55094V6.88789C14.643 6.72724 15.0234 6.52443 15.3693 6.28422L15.3694 6.87014ZM8.72764 11.3773V13.1459C8.34354 13.075 7.96552 12.9825 7.59613 12.8692V11.1327C7.96743 11.2323 8.3452 11.3139 8.72761 11.3773H8.72764ZM12.9667 11.516V13.2912C12.6089 13.3301 12.2351 13.357 11.8449 13.3694V11.5908C12.2351 11.5791 12.6083 11.5542 12.9667 11.516H12.9667ZM10.852 13.3697C10.4584 13.3575 10.0813 13.3307 9.72051 13.2916V11.5153C10.0863 11.5539 10.4635 11.579 10.852 11.5907V13.3697ZM5.47075 10.2143C5.81679 10.4501 6.19738 10.6476 6.60324 10.8022V12.476C5.88083 12.1132 5.46686 11.6854 5.46686 11.2758L5.46571 11.2709C5.4662 11.2636 5.47075 11.2571 5.47075 11.2497V10.2143ZM13.9596 13.1451V11.3761C14.2171 11.3338 14.4743 11.2985 14.7343 11.2351L14.7711 11.2277C14.7936 11.2227 14.8125 11.2144 14.8348 11.2092L14.8376 11.2084C14.9266 11.1875 15.0063 11.1578 15.0921 11.1342V12.8675C14.7224 12.9812 14.344 13.0739 13.9596 13.1451ZM9.49651 2.63888C12.957 2.63888 15.3693 3.74888 15.3693 4.74581C15.3693 5.52193 13.9033 6.36457 11.6228 6.70092L11.616 6.69975C11.5851 6.70237 11.5546 6.70753 11.525 6.71516C10.8616 6.80693 10.1904 6.85308 9.51804 6.85315C9.51216 6.853 9.50725 6.8503 9.50131 6.8503C9.49501 6.8503 9.48987 6.8531 9.48362 6.8533C8.80942 6.85356 8.13633 6.80753 7.47108 6.71567C7.44044 6.70769 7.4089 6.70236 7.37697 6.69975L7.36988 6.70097C5.08885 6.36467 3.6227 5.52193 3.6227 4.74581C3.6227 3.7489 6.03505 2.63888 9.49651 2.63888ZM3.62058 7.35868L3.6227 7.34998V6.28405C3.96865 6.52422 4.34911 6.72703 4.75519 6.88774V8.55298C4.03665 8.19191 3.62422 7.76649 3.62058 7.35868ZM4.38849 15.2615L4.39062 15.2528V14.2049C4.73777 14.4386 5.11818 14.6351 5.52311 14.7899V16.4558C4.80457 16.0947 4.39214 15.6693 4.38849 15.2615ZM15.0048 16.4538V14.7882C15.4112 14.6322 15.7918 14.4328 16.1373 14.1949V15.2521L16.1363 15.2561C16.1363 15.6648 15.7241 16.0915 15.0048 16.4538ZM16.4586 12.2616C16.3801 12.2874 16.3109 12.3298 16.2578 12.3848C16.2038 12.4149 16.1431 12.4437 16.0849 12.473V10.812C16.4899 10.6541 16.8703 10.4551 17.2174 10.2193V11.2677L17.2154 11.2758C17.186 11.4774 17.1027 11.6708 16.9716 11.8415C16.8405 12.0122 16.6651 12.1559 16.4586 12.2616Z" fill="#171723"/>
</svg>
