<svg width="20" height="20" viewBox="0 0 20 20" fill="none" xmlns="http://www.w3.org/2000/svg">
<g clip-path="url(#clip0_10608_147884)">
<path d="M10.179 19.5475C8.45333 19.5476 7.00118 19.0416 6.90983 19.0091C5.09314 18.4231 3.56811 17.3667 2.39219 15.8744C0.869541 14.145 0.0209961 11.9203 0.0209961 9.632C0.0210067 4.3209 4.44281 0 9.87794 0C11.7614 0 13.5947 0.5258 15.1796 1.52054C15.6348 1.79812 16.076 2.13109 16.5228 2.5349L17.0178 2.98237L17.0007 2.9969C18.3123 4.3402 19.0126 5.73763 19.0873 5.89085C19.2315 6.16185 21.1003 9.80008 19.0336 12.4391C19.0236 12.464 18.5834 13.1622 17.6375 13.386C16.8582 13.5703 15.9965 13.3728 15.0763 12.799C15.032 12.7729 13.7952 12.0511 13.2505 12.8773C12.6724 13.7537 13.4758 14.5709 13.5694 14.6612C13.6547 14.7579 14.729 16.0565 14.4303 17.3658C14.2713 18.0629 13.7768 18.6094 12.9605 18.9899C12.0627 19.4086 11.0832 19.5475 10.179 19.5475ZM9.87794 1.03823C5.02865 1.03823 1.08348 4.89339 1.08348 9.63199C1.08348 11.6721 1.84079 13.6564 3.21593 15.2193C4.27792 16.5657 5.63181 17.5035 7.25813 18.0284C7.30271 18.0439 10.2978 19.0813 12.503 18.0528C13.0154 17.814 13.3064 17.5163 13.3926 17.1427C13.5486 16.4674 13.008 15.6274 12.7866 15.3607C12.294 14.9006 11.5069 13.6044 12.3574 12.3149C13.2441 10.9698 14.8931 11.4683 15.6412 11.9197C16.3076 12.3352 16.8877 12.4888 17.372 12.3805C17.8942 12.2636 18.1455 11.8735 18.156 11.8569C19.883 9.64612 18.1596 6.39748 18.142 6.36491L18.1308 6.34297C18.123 6.32679 17.3348 4.70962 15.861 3.35318L15.7006 3.20553C15.3085 2.86671 14.9654 2.61375 14.6112 2.39773C13.1921 1.50711 11.5574 1.03825 9.87793 1.03825L9.87794 1.03823Z" fill="#494446"/>
<path d="M10.0089 6.07643C8.87803 6.07643 7.95801 5.17739 7.95801 4.07233C7.95801 2.96727 8.87803 2.06824 10.0089 2.06824C11.1398 2.06824 12.0598 2.96726 12.0598 4.07233C12.0598 5.1774 11.1398 6.07643 10.0089 6.07643ZM10.0089 3.10647C9.46388 3.10647 9.02048 3.53975 9.02048 4.07233C9.02048 4.60491 9.46388 5.0382 10.0089 5.0382C10.5539 5.0382 10.9973 4.60491 10.9973 4.07233C10.9973 3.53975 10.5539 3.10647 10.0089 3.10647V3.10647Z" fill="#494446"/>
<path d="M5.38587 8.78235C4.25499 8.78235 3.33496 7.88333 3.33496 6.77826C3.33496 5.67319 4.255 4.77417 5.38587 4.77417C6.51673 4.77417 7.43676 5.67319 7.43676 6.77826C7.43676 7.88333 6.51674 8.78235 5.38587 8.78235V8.78235ZM5.38587 5.8124C4.84083 5.8124 4.39744 6.24568 4.39744 6.77826C4.39744 7.31084 4.84084 7.74412 5.38587 7.74412C5.93089 7.74412 6.37428 7.31084 6.37428 6.77826C6.37428 6.24568 5.93088 5.8124 5.38587 5.8124V5.8124Z" fill="#494446"/>
<path d="M4.64757 14.3197C3.5167 14.3197 2.59668 13.4207 2.59668 12.3156C2.59668 11.2105 3.5167 10.3115 4.64757 10.3115C5.77845 10.3115 6.69848 11.2105 6.69848 12.3156C6.69848 13.4207 5.77844 14.3197 4.64757 14.3197ZM4.64757 11.3498C4.10256 11.3498 3.65915 11.783 3.65915 12.3156C3.65915 12.8482 4.10256 13.2815 4.64757 13.2815C5.19259 13.2815 5.636 12.8482 5.636 12.3156C5.636 11.783 5.1926 11.3498 4.64757 11.3498Z" fill="#494446"/>
<path d="M9.01427 17.2897C7.8834 17.2897 6.96338 16.3907 6.96338 15.2856C6.96338 14.1805 7.8834 13.2815 9.01427 13.2815C10.1451 13.2815 11.0652 14.1805 11.0652 15.2856C11.0652 16.3907 10.1451 17.2897 9.01427 17.2897ZM9.01427 14.3197C8.46925 14.3197 8.02585 14.753 8.02585 15.2856C8.02585 15.8182 8.46925 16.2514 9.01427 16.2514C9.55929 16.2514 10.0027 15.8182 10.0027 15.2856C10.0027 14.753 9.55929 14.3197 9.01427 14.3197Z" fill="#494446"/>
<path d="M15.5792 10.5315C14.4483 10.5315 13.5283 9.63248 13.5283 8.52741C13.5283 7.42234 14.4483 6.52332 15.5792 6.52332C16.7101 6.52332 17.6301 7.42234 17.6301 8.52741C17.6301 9.63248 16.7101 10.5315 15.5792 10.5315V10.5315ZM15.5792 7.56154C15.0342 7.56154 14.5908 7.99483 14.5908 8.52741C14.5908 9.05999 15.0342 9.49327 15.5792 9.49327C16.1242 9.49327 16.5676 9.05999 16.5676 8.52741C16.5676 7.99483 16.1242 7.56154 15.5792 7.56154Z" fill="#494446"/>
</g>
<defs>
<clipPath id="clip0_10608_147884">
<rect width="20" height="20" fill="white"/>
</clipPath>
</defs>
</svg>
