<svg width="20" height="20" viewBox="0 0 20 20" fill="none" xmlns="http://www.w3.org/2000/svg">
<path d="M9.91456 17.6187C8.56102 17.6187 7.42206 17.2126 7.35041 17.1866C5.92552 16.7162 4.72938 15.8683 3.80707 14.6705C2.61281 13.2824 1.94727 11.4968 1.94727 9.66002C1.94727 5.39706 5.41544 1.92889 9.67839 1.92889C11.1557 1.92889 12.5936 2.35093 13.8367 3.14935C14.1937 3.37215 14.5398 3.63941 14.8901 3.96353L15.2784 4.32269L15.265 4.33435C16.2938 5.41255 16.843 6.5342 16.9016 6.65719C17.0147 6.8747 18.4804 9.79493 16.8595 11.9132C16.8516 11.9331 16.5064 12.4936 15.7645 12.6731C15.1532 12.8211 14.4773 12.6626 13.7556 12.202C13.7209 12.181 12.7508 11.6017 12.3236 12.2648C11.8702 12.9683 12.5003 13.6242 12.5737 13.6967C12.6407 13.7743 13.4832 14.8167 13.249 15.8676C13.1242 16.4271 12.7364 16.8657 12.0962 17.1711C11.392 17.5072 10.6237 17.6187 9.91456 17.6187ZM9.67839 2.76223C5.87493 2.76223 2.78061 5.85657 2.78061 9.66001C2.78061 11.2975 3.37459 12.8902 4.45316 14.1446C5.28611 15.2254 6.34801 15.9781 7.62359 16.3994C7.65855 16.4119 10.0077 17.2445 11.7373 16.419C12.1392 16.2273 12.3674 15.9883 12.4351 15.6885C12.5574 15.1464 12.1334 14.4722 11.9597 14.2582C11.5734 13.8889 10.956 12.8485 11.6231 11.8135C12.3186 10.7338 13.612 11.1339 14.1987 11.4963C14.7213 11.8298 15.1764 11.9531 15.5563 11.8661C15.9658 11.7723 16.1629 11.4591 16.1711 11.4459C17.5257 9.67135 16.174 7.06383 16.1601 7.03769L16.1514 7.02008C16.1453 7.00709 15.527 5.70907 14.3711 4.62032L14.2453 4.50181C13.9378 4.22986 13.6687 4.02682 13.3909 3.85343C12.2778 3.13858 10.9956 2.76224 9.67838 2.76224L9.67839 2.76223Z" fill="#171723"/>
<path d="M9.78095 6.80604C8.89396 6.80604 8.17236 6.08443 8.17236 5.19745C8.17236 4.31048 8.89396 3.58887 9.78095 3.58887C10.6679 3.58887 11.3895 4.31047 11.3895 5.19745C11.3895 6.08443 10.6679 6.80604 9.78095 6.80604ZM9.78095 4.4222C9.35347 4.4222 9.0057 4.76998 9.0057 5.19745C9.0057 5.62493 9.35347 5.97271 9.78095 5.97271C10.2084 5.97271 10.5562 5.62493 10.5562 5.19745C10.5562 4.76998 10.2084 4.4222 9.78095 4.4222V4.4222Z" fill="#171723"/>
<path d="M6.15498 8.97803C5.26799 8.97803 4.54639 8.25643 4.54639 7.36945C4.54639 6.48246 5.268 5.76086 6.15498 5.76086C7.04195 5.76086 7.76356 6.48246 7.76356 7.36945C7.76356 8.25643 7.04196 8.97803 6.15498 8.97803V8.97803ZM6.15498 6.5942C5.72749 6.5942 5.37972 6.94197 5.37972 7.36945C5.37972 7.79692 5.72749 8.1447 6.15498 8.1447C6.58246 8.1447 6.93023 7.79692 6.93023 7.36945C6.93023 6.94197 6.58245 6.5942 6.15498 6.5942V6.5942Z" fill="#171723"/>
<path d="M5.57636 13.4225C4.68937 13.4225 3.96777 12.7009 3.96777 11.8139C3.96777 10.9269 4.68937 10.2053 5.57636 10.2053C6.46334 10.2053 7.18495 10.9269 7.18495 11.8139C7.18495 12.7009 6.46333 13.4225 5.57636 13.4225ZM5.57636 11.0387C5.14888 11.0387 4.80111 11.3864 4.80111 11.8139C4.80111 12.2414 5.14888 12.5892 5.57636 12.5892C6.00383 12.5892 6.35162 12.2414 6.35162 11.8139C6.35162 11.3864 6.00384 11.0387 5.57636 11.0387Z" fill="#171723"/>
<path d="M9.00116 15.8063C8.11418 15.8063 7.39258 15.0847 7.39258 14.1977C7.39258 13.3107 8.11418 12.5891 9.00116 12.5891C9.88814 12.5891 10.6097 13.3107 10.6097 14.1977C10.6097 15.0847 9.88814 15.8063 9.00116 15.8063ZM9.00116 13.4224C8.57369 13.4224 8.22591 13.7702 8.22591 14.1977C8.22591 14.6252 8.57369 14.9729 9.00116 14.9729C9.42864 14.9729 9.77641 14.6252 9.77641 14.1977C9.77641 13.7702 9.42864 13.4224 9.00116 13.4224Z" fill="#171723"/>
<path d="M14.1501 10.3818C13.2631 10.3818 12.5415 9.66024 12.5415 8.77326C12.5415 7.88627 13.2631 7.16467 14.1501 7.16467C15.0371 7.16467 15.7587 7.88627 15.7587 8.77326C15.7587 9.66024 15.0371 10.3818 14.1501 10.3818V10.3818ZM14.1501 7.99801C13.7226 7.99801 13.3748 8.34578 13.3748 8.77326C13.3748 9.20073 13.7226 9.54851 14.1501 9.54851C14.5776 9.54851 14.9253 9.20073 14.9253 8.77326C14.9253 8.34578 14.5776 7.99801 14.1501 7.99801Z" fill="#171723"/>
</svg>
