<svg width="20" height="20" viewBox="0 0 20 20" fill="none" xmlns="http://www.w3.org/2000/svg">
<g clip-path="url(#clip0_5313_35201)">
<g clip-path="url(#clip1_5313_35201)">
<path d="M15.9321 0H4.06793C2.98938 0.00107694 1.95531 0.430008 1.19266 1.19266C0.430007 1.95531 0.00107694 2.98938 0 4.06793V15.9321C0.00107694 17.0106 0.430007 18.0447 1.19266 18.8073C1.95531 19.57 2.98938 19.9989 4.06793 20H15.9321C17.0106 19.9989 18.0447 19.57 18.8073 18.8073C19.57 18.0447 19.9989 17.0106 20 15.9321V4.06793C19.9989 2.98939 19.57 1.95532 18.8073 1.19267C18.0447 0.430015 17.0106 0.00108232 15.9321 0ZM1.017 15.9321V4.06793C1.01789 3.25904 1.33961 2.48353 1.91158 1.91156C2.48356 1.33959 3.25906 1.01787 4.06795 1.01698H9.49153V18.983H4.06795C3.25906 18.9821 2.48356 18.6604 1.91158 18.0885C1.3396 17.5165 1.01787 16.741 1.01698 15.9321L1.017 15.9321ZM18.983 15.9321C18.9822 16.741 18.6604 17.5165 18.0885 18.0884C17.5165 18.6604 16.741 18.9821 15.9321 18.983H10.5085V1.01698H15.9321C16.741 1.01787 17.5165 1.33959 18.0885 1.91156C18.6604 2.48353 18.9822 3.25904 18.983 4.06793V15.9321Z" fill="#171723"/>
</g>
</g>
<defs>
<clipPath id="clip0_5313_35201">
<rect width="20" height="20" fill="white"/>
</clipPath>
<clipPath id="clip1_5313_35201">
<rect width="20" height="20" fill="white"/>
</clipPath>
</defs>
</svg>
