<svg width="20" height="20" viewBox="0 0 20 20" fill="none" xmlns="http://www.w3.org/2000/svg">
<g clip-path="url(#clip0_10325_129868)">
<g clip-path="url(#clip1_10325_129868)">
<path d="M16.3226 20C15.8404 20.0001 15.363 19.9049 14.9176 19.7201C14.4721 19.5352 14.0674 19.2643 13.7264 18.9226C13.3855 18.581 13.1151 18.1755 12.9306 17.7291C12.7461 17.2827 12.6512 16.8043 12.6513 16.3212V13.6611H7.34283V16.3212C7.34408 16.8045 7.2497 17.2833 7.06515 17.7298C6.8806 18.1763 6.60954 18.5818 6.26764 18.9227C5.56844 19.5921 4.63859 19.9657 3.67151 19.9657C2.70443 19.9657 1.77458 19.5921 1.07538 18.9227C0.561905 18.4082 0.212221 17.7527 0.0705513 17.039C-0.0711185 16.3254 0.00158943 15.5857 0.27948 14.9135C0.557371 14.2412 1.02796 13.6667 1.63174 13.2624C2.23552 12.8582 2.94537 12.6425 3.67151 12.6425H6.32622V7.32324H3.67151C2.9454 7.3232 2.23561 7.10742 1.63188 6.70318C1.02815 6.29894 0.5576 5.7244 0.279723 5.0522C0.00184508 4.38 -0.0708788 3.64034 0.0707462 2.92673C0.212371 2.21311 0.561985 1.55761 1.07538 1.04309C1.77458 0.373627 2.70443 4.08025e-05 3.67151 4.08025e-05C4.63859 4.08025e-05 5.56844 0.373627 6.26764 1.04309C6.60953 1.38398 6.88059 1.7894 7.06514 2.23591C7.24969 2.68242 7.34407 3.16116 7.34283 3.64445V6.30456H12.6513V3.64445C12.6502 3.16119 12.7447 2.68251 12.9293 2.23602C13.1138 1.78954 13.3847 1.38408 13.7264 1.04305C14.4256 0.373586 15.3555 0 16.3226 0C17.2896 0 18.2195 0.373586 18.9187 1.04305C19.4322 1.55754 19.7819 2.21305 19.9235 2.92669C20.0652 3.64032 19.9925 4.38003 19.7146 5.05226C19.4367 5.72449 18.9661 6.29905 18.3623 6.70327C17.7586 7.1075 17.0487 7.32323 16.3226 7.3232H13.6679V12.6424H16.3226C16.8052 12.6416 17.2833 12.7362 17.7294 12.9207C18.1755 13.1052 18.581 13.376 18.9225 13.7177C19.2641 14.0594 19.5351 14.4652 19.72 14.912C19.9048 15.3587 20 15.8376 20 16.3212C20 16.8048 19.9048 17.2837 19.72 17.7304C19.5351 18.1771 19.2641 18.583 18.9225 18.9246C18.581 19.2663 18.1755 19.5372 17.7294 19.7217C17.2833 19.9062 16.8052 20.0008 16.3226 20V20ZM13.6679 13.6611V16.3212C13.667 16.6707 13.7352 17.0169 13.8687 17.3398C14.0021 17.6626 14.1981 17.9558 14.4452 18.2024C14.951 18.6861 15.6234 18.956 16.3226 18.956C17.0218 18.956 17.6941 18.6861 18.1999 18.2024C18.5713 17.8304 18.8242 17.3564 18.9266 16.8403C19.0291 16.3242 18.9765 15.7893 18.7756 15.3032C18.5746 14.8171 18.2343 14.4016 17.7976 14.1093C17.361 13.817 16.8477 13.6611 16.3226 13.6611L13.6679 13.6611ZM3.67152 13.6611C3.14648 13.6612 2.63323 13.8172 2.19668 14.1095C1.76014 14.4019 1.41988 14.8173 1.21895 15.3034C1.01801 15.7894 0.965408 16.3243 1.06779 16.8403C1.17018 17.3563 1.42296 17.8303 1.79417 18.2024C2.3 18.6861 2.97233 18.9559 3.67152 18.9559C4.37072 18.9559 5.04305 18.6861 5.54888 18.2024C5.79604 17.9558 5.99199 17.6626 6.12542 17.3398C6.25884 17.0169 6.3271 16.6707 6.32623 16.3212V13.6611H3.67152ZM7.34284 12.6424H12.6513V7.32324H7.34283L7.34284 12.6424ZM13.6679 6.30456H16.3226C16.8476 6.3045 17.3609 6.14845 17.7974 5.85614C18.234 5.56383 18.5742 5.14838 18.7752 4.66232C18.9761 4.17625 19.0287 3.64141 18.9263 3.12539C18.8239 2.60938 18.5711 2.13537 18.1999 1.76329C17.6941 1.2796 17.0218 1.00973 16.3226 1.00973C15.6234 1.00973 14.9511 1.2796 14.4452 1.76329C14.1981 2.00985 14.0021 2.30305 13.8687 2.62593C13.7353 2.94882 13.667 3.29499 13.6679 3.64446V6.30456ZM3.67153 0.98435C2.96746 0.98435 2.29222 1.26461 1.79437 1.76348C1.29652 2.26234 1.01682 2.93895 1.01682 3.64445C1.01682 4.34996 1.29652 5.02657 1.79437 5.52543C2.29222 6.0243 2.96746 6.30456 3.67153 6.30456H6.32622V3.64445C6.32631 3.2951 6.2577 2.94915 6.12432 2.62637C5.99094 2.3036 5.7954 2.01031 5.54887 1.76328C5.30234 1.51625 5.00965 1.32031 4.68753 1.18666C4.3654 1.05301 4.02016 0.984263 3.67151 0.98435H3.67153Z" fill="#171723"/>
</g>
</g>
<defs>
<clipPath id="clip0_10325_129868">
<rect width="20" height="20" fill="white"/>
</clipPath>
<clipPath id="clip1_10325_129868">
<rect width="20" height="20" fill="white"/>
</clipPath>
</defs>
</svg>
