<svg width="20" height="20" viewBox="0 0 20 20" fill="none" xmlns="http://www.w3.org/2000/svg">
<g clip-path="url(#clip0_10314_146460)">
<g clip-path="url(#clip1_10314_146460)">
<path d="M19.4915 16.2714H3.72869V0.5086C3.72869 0.373743 3.67512 0.24441 3.57976 0.149052C3.4844 0.0536938 3.35507 0.00012207 3.22021 0.00012207C3.08536 0.00012207 2.95602 0.0536938 2.86066 0.149052C2.76531 0.24441 2.71173 0.373743 2.71173 0.5086V16.2714H0.50799C0.373133 16.2714 0.2438 16.325 0.148442 16.4204C0.0530835 16.5157 -0.000488281 16.645 -0.000488281 16.7799C-0.000488281 16.9148 0.0530835 17.0441 0.148442 17.1395C0.2438 17.2348 0.373133 17.2884 0.50799 17.2884H2.71173V19.4911C2.71173 19.626 2.76531 19.7553 2.86066 19.8507C2.95602 19.946 3.08536 19.9996 3.22021 19.9996C3.35507 19.9996 3.4844 19.946 3.57976 19.8507C3.67512 19.7553 3.72869 19.626 3.72869 19.4911V17.2884H19.4915C19.6264 17.2884 19.7557 17.2348 19.8511 17.1395C19.9464 17.0441 20 16.9148 20 16.7799C20 16.645 19.9464 16.5157 19.8511 16.4204C19.7557 16.325 19.6264 16.2714 19.4915 16.2714Z" fill="#171723"/>
<path d="M5.62402 10.0079L10.8975 4.73444L15.4768 9.31372L14.0636 10.7269L11.258 7.92236C11.2108 7.87514 11.1548 7.83768 11.0931 7.81213C11.0314 7.78657 10.9653 7.77341 10.8985 7.77341C10.8317 7.77341 10.7656 7.78657 10.7039 7.81213C10.6423 7.83768 10.5862 7.87514 10.539 7.92236L5.10959 13.3518C5.06159 13.3988 5.0234 13.4549 4.99721 13.5168C4.97103 13.5787 4.95737 13.6451 4.95703 13.7123C4.95669 13.7795 4.96968 13.8461 4.99523 13.9083C5.02079 13.9704 5.05842 14.0269 5.10594 14.0744C5.15345 14.1219 5.20992 14.1595 5.27207 14.1851C5.33422 14.2107 5.40082 14.2236 5.46802 14.2233C5.53522 14.223 5.60168 14.2093 5.66357 14.1831C5.72546 14.1569 5.78154 14.1187 5.82858 14.0707L10.8985 9.00087L13.7041 11.8055C13.7513 11.8527 13.8073 11.8902 13.869 11.9157C13.9307 11.9413 13.9968 11.9544 14.0636 11.9544C14.1303 11.9544 14.1964 11.9413 14.2581 11.9157C14.3198 11.8902 14.3759 11.8527 14.4231 11.8055L16.1958 10.0327L18.2605 12.0974C18.3562 12.1912 18.485 12.2434 18.6189 12.2427C18.7529 12.2421 18.8811 12.1886 18.9759 12.0938C19.0706 11.9991 19.1241 11.8708 19.1248 11.7369C19.1254 11.6029 19.0732 11.4741 18.9795 11.3785L16.9148 9.31372L19.3082 6.92031C19.402 6.82464 19.4542 6.69583 19.4535 6.56188C19.4529 6.42792 19.3994 6.29965 19.3046 6.20493C19.2099 6.11021 19.0816 6.0567 18.9477 6.05602C18.8137 6.05535 18.6849 6.10756 18.5893 6.20132L16.1958 8.59474L11.257 3.65592C11.2098 3.60869 11.1538 3.57123 11.0921 3.54567C11.0304 3.52011 10.9643 3.50696 10.8975 3.50696C10.8307 3.50696 10.7646 3.52011 10.7029 3.54567C10.6413 3.57123 10.5852 3.60869 10.538 3.65592L4.90501 9.2889C4.85701 9.33593 4.81882 9.39202 4.79263 9.45391C4.76644 9.51579 4.75279 9.58226 4.75245 9.64946C4.75211 9.71666 4.76509 9.78326 4.79065 9.84541C4.81621 9.90755 4.85384 9.96402 4.90136 10.0115C4.94887 10.0591 5.00534 10.0967 5.06749 10.1222C5.12964 10.1478 5.19624 10.1608 5.26344 10.1604C5.33064 10.1601 5.3971 10.1464 5.45899 10.1203C5.52088 10.0941 5.57696 10.0559 5.62399 10.0079L5.62402 10.0079Z" fill="#171723"/>
</g>
</g>
<defs>
<clipPath id="clip0_10314_146460">
<rect width="20" height="20" fill="white"/>
</clipPath>
<clipPath id="clip1_10314_146460">
<rect width="20" height="20" fill="white"/>
</clipPath>
</defs>
</svg>
