<svg width="20" height="20" viewBox="0 0 20 20" fill="none" xmlns="http://www.w3.org/2000/svg">
<g clip-path="url(#clip0_10314_146460)">
<path d="M17.7777 15.1391H4.86101V2.22245C4.86101 2.11195 4.81711 2.00597 4.73897 1.92783C4.66083 1.84968 4.55485 1.80579 4.44434 1.80579C4.33384 1.80579 4.22785 1.84968 4.14971 1.92783C4.07157 2.00597 4.02768 2.11195 4.02768 2.22245V15.1391H2.22184C2.11134 15.1391 2.00535 15.183 1.92721 15.2612C1.84907 15.3393 1.80518 15.4453 1.80518 15.5558C1.80518 15.6663 1.84907 15.7723 1.92721 15.8504C2.00535 15.9286 2.11134 15.9725 2.22184 15.9725H4.02768V17.7775C4.02768 17.888 4.07157 17.9939 4.14971 18.0721C4.22785 18.1502 4.33384 18.1941 4.44434 18.1941C4.55485 18.1941 4.66083 18.1502 4.73897 18.0721C4.81711 17.9939 4.86101 17.888 4.86101 17.7775V15.9725H17.7777C17.8882 15.9725 17.9942 15.9286 18.0723 15.8504C18.1504 15.7723 18.1943 15.6663 18.1943 15.5558C18.1943 15.4453 18.1504 15.3393 18.0723 15.2612C17.9942 15.183 17.8882 15.1391 17.7777 15.1391Z" fill="#171723"/>
<path d="M6.41392 10.0065L10.7352 5.68517L14.4876 9.43761L13.3296 10.5957L11.0306 8.29748C10.9919 8.25878 10.946 8.22808 10.8955 8.20714C10.8449 8.1862 10.7907 8.17542 10.736 8.17542C10.6813 8.17542 10.6271 8.1862 10.5766 8.20714C10.5261 8.22808 10.4801 8.25878 10.4414 8.29748L5.99237 12.7465C5.95304 12.7851 5.92174 12.831 5.90028 12.8817C5.87882 12.9325 5.86763 12.9869 5.86735 13.042C5.86708 13.0971 5.87772 13.1516 5.89866 13.2026C5.91961 13.2535 5.95044 13.2998 5.98938 13.3387C6.02831 13.3776 6.07458 13.4085 6.12551 13.4294C6.17644 13.4504 6.23101 13.461 6.28608 13.4607C6.34114 13.4604 6.39561 13.4492 6.44632 13.4278C6.49703 13.4063 6.54299 13.375 6.58153 13.3357L10.736 9.18124L13.035 11.4794C13.0737 11.5181 13.1196 11.5488 13.1702 11.5698C13.2207 11.5907 13.2749 11.6015 13.3296 11.6015C13.3843 11.6015 13.4385 11.5907 13.489 11.5698C13.5396 11.5488 13.5855 11.5181 13.6242 11.4794L15.0768 10.0268L16.7687 11.7187C16.8471 11.7955 16.9527 11.8383 17.0624 11.8378C17.1722 11.8372 17.2773 11.7934 17.3549 11.7157C17.4325 11.6381 17.4764 11.533 17.4769 11.4232C17.4775 11.3135 17.4347 11.2079 17.3579 11.1295L15.666 9.43761L17.6273 7.47635C17.7041 7.39795 17.7469 7.29241 17.7464 7.18264C17.7458 7.07287 17.702 6.96776 17.6243 6.89015C17.5467 6.81253 17.4416 6.76868 17.3318 6.76812C17.2221 6.76757 17.1165 6.81036 17.0381 6.88719L15.0769 8.84844L11.0298 4.80138C10.9911 4.76269 10.9452 4.73199 10.8947 4.71105C10.8441 4.6901 10.7899 4.67932 10.7352 4.67932C10.6805 4.67932 10.6263 4.6901 10.5758 4.71105C10.5252 4.73199 10.4793 4.76269 10.4406 4.80138L5.82472 9.41727C5.7854 9.45581 5.7541 9.50177 5.73264 9.55248C5.71118 9.60319 5.69999 9.65766 5.69971 9.71272C5.69943 9.76779 5.71008 9.82236 5.73102 9.87329C5.75196 9.92422 5.7828 9.97049 5.82173 10.0094C5.86067 10.0484 5.90694 10.0792 5.95787 10.1001C6.0088 10.1211 6.06337 10.1317 6.11844 10.1314C6.1735 10.1312 6.22797 10.12 6.27868 10.0985C6.32939 10.0771 6.37535 10.0458 6.41389 10.0064L6.41392 10.0065Z" fill="#171723"/>
</g>
<defs>
<clipPath id="clip0_10314_146460">
<rect width="20" height="20" fill="white"/>
</clipPath>
</defs>
</svg>
