<svg width="20" height="20" viewBox="0 0 20 20" fill="none" xmlns="http://www.w3.org/2000/svg">
<g clip-path="url(#clip0_5313_35146)">
<path d="M17.3548 5.90357C17.2746 5.76755 17.1597 5.65522 17.022 5.57805L10.4318 1.91753C10.2994 1.8457 10.1512 1.80801 10.0006 1.80786C9.85 1.80772 9.70172 1.84512 9.56919 1.9167L2.98063 5.57723C2.84185 5.6541 2.72617 5.76671 2.6456 5.90337C2.56504 6.04003 2.52252 6.19577 2.52246 6.35442V13.6461C2.52253 13.8044 2.56489 13.9599 2.64515 14.0964C2.72541 14.2328 2.84066 14.3454 2.979 14.4224L9.57161 18.0846C9.70334 18.1568 9.85118 18.1946 10.0014 18.1944C10.1516 18.1943 10.2994 18.1562 10.431 18.0837L17.022 14.4224C17.1603 14.3447 17.2757 14.2319 17.3564 14.0953C17.4363 13.9591 17.4781 13.8039 17.4777 13.6461V6.35439C17.4779 6.19582 17.4355 6.04011 17.3548 5.90357ZM10.0257 2.64592L16.2079 6.08892L10.068 9.50302H10.0623C10.0363 9.50302 9.93539 9.50218 9.93619 9.50218L3.78457 6.08652L10.0257 2.64592ZM3.35579 13.6461L3.38229 6.81722L9.51302 10.22C9.53499 10.2338 9.55697 10.246 9.58057 10.2582V17.1339L3.35579 13.6461ZM10.4139 17.1124V10.2615C10.4342 10.2517 10.4538 10.2419 10.4733 10.2306L16.6427 6.80007L16.6167 13.6933L10.4139 17.1124Z" fill="#171723"/>
</g>
<defs>
<clipPath id="clip0_5313_35146">
<rect width="20" height="20" fill="white"/>
</clipPath>
</defs>
</svg>
