<svg width="20" height="20" viewBox="0 0 20 20" fill="none" xmlns="http://www.w3.org/2000/svg">
<g clip-path="url(#clip0_5313_35146)">
<path d="M18.8521 4.99887C18.7555 4.83285 18.6173 4.69575 18.4515 4.60156L10.5196 0.133854C10.3603 0.0461833 10.1819 0.000178104 10.0006 5.161e-07C9.81936 -0.000177072 9.64089 0.0454784 9.48139 0.132837L1.55145 4.60057C1.38441 4.69438 1.24518 4.83182 1.14821 4.99862C1.05124 5.16542 1.00007 5.3555 1 5.54913V14.4487C1.00008 14.642 1.05106 14.8317 1.14766 14.9983C1.24427 15.1649 1.38299 15.3023 1.54949 15.3963L9.48429 19.8659C9.64285 19.9541 9.82078 20.0002 10.0016 20C10.1824 19.9998 10.3602 19.9534 10.5186 19.8649L18.4515 15.3962C18.618 15.3014 18.7569 15.1637 18.8541 14.9969C18.9501 14.8307 19.0005 14.6414 19 14.4487V5.5491C19.0002 5.35556 18.9492 5.16552 18.8521 4.99887ZM10.0309 1.02287L17.4717 5.22508L10.0818 9.39204H10.0749C10.0436 9.39204 9.92213 9.39102 9.9231 9.39102L2.51906 5.22216L10.0309 1.02287ZM2.00299 14.4487L2.03489 6.11398L9.41377 10.2671C9.44022 10.284 9.46667 10.2989 9.49508 10.3138V18.7056L2.00299 14.4487ZM10.4981 18.6794V10.3178C10.5226 10.3058 10.5461 10.2939 10.5696 10.28L17.9949 6.09306L17.9637 14.5063L10.4981 18.6794Z" fill="#171723"/>
</g>
<defs>
<clipPath id="clip0_5313_35146">
<rect width="20" height="20" fill="white"/>
</clipPath>
</defs>
</svg>
