<svg width="21" height="20" viewBox="0 0 21 20" fill="none" xmlns="http://www.w3.org/2000/svg">
<g clip-path="url(#clip0_10314_145407)">
<g clip-path="url(#clip1_10314_145407)">
<path d="M10.887 19.9995C8.50774 19.9826 6.20577 19.1528 4.36293 17.6478C2.52008 16.1429 1.24712 14.0531 0.755186 11.7253C0.263257 9.39741 0.581931 6.97133 1.65835 4.84947C2.73476 2.72762 4.50423 1.0375 6.67322 0.0594811C6.80477 0.00215215 6.95053 -0.0142265 7.09152 0.0124797C7.23252 0.0391859 7.36219 0.107738 7.46366 0.209205C7.56513 0.310671 7.63368 0.440347 7.66039 0.581336C7.6871 0.722324 7.67072 0.868087 7.61339 0.999633C7.15248 2.15768 6.92974 3.39675 6.95849 4.64282C6.96117 7.00992 7.9027 9.27931 9.57652 10.9531C11.2503 12.6269 13.5198 13.5684 15.8869 13.5711C17.133 13.5998 18.3721 13.3771 19.5302 12.9162C19.6617 12.8588 19.8075 12.8424 19.9485 12.8691C20.0895 12.8958 20.2191 12.9644 20.3206 13.0659C20.4221 13.1674 20.4906 13.297 20.5173 13.438C20.544 13.579 20.5276 13.7248 20.4703 13.8563C19.6446 15.7023 18.298 17.267 16.5955 18.3583C14.8931 19.4495 12.9091 20.02 10.887 19.9995V19.9995Z" fill="#171723"/>
</g>
</g>
<defs>
<clipPath id="clip0_10314_145407">
<rect width="20" height="20" fill="white" transform="translate(0.529785)"/>
</clipPath>
<clipPath id="clip1_10314_145407">
<rect width="20" height="20" fill="white" transform="translate(0.529785)"/>
</clipPath>
</defs>
</svg>
