<svg width="20" height="20" viewBox="0 0 20 20" fill="none" xmlns="http://www.w3.org/2000/svg">
<path d="M10.1909 7.78003H4.25633C3.71706 7.78074 3.20007 7.99528 2.81874 8.3766C2.43742 8.75793 2.22288 9.27492 2.22217 9.8142V15.7437C2.22288 16.283 2.43742 16.7999 2.81874 17.1813C3.20007 17.5626 3.71706 17.7771 4.25633 17.7778H10.1909C10.458 17.7779 10.7226 17.7254 10.9694 17.6232C11.2162 17.521 11.4405 17.3711 11.6294 17.1822C11.8183 16.9933 11.9682 16.769 12.0704 16.5222C12.1726 16.2754 12.2251 16.0108 12.225 15.7437V9.8142C12.2251 9.54704 12.1726 9.28249 12.0704 9.03566C11.9682 8.78883 11.8183 8.56455 11.6294 8.37565C11.4405 8.18674 11.2162 8.03691 10.9694 7.93471C10.7226 7.83251 10.458 7.77995 10.1909 7.78003ZM7.22615 9.13274C7.55102 9.13273 7.8686 9.22907 8.13872 9.40955C8.40884 9.59004 8.61938 9.84657 8.7437 10.1467C8.86803 10.4469 8.90056 10.7771 8.83718 11.0957C8.77381 11.4144 8.61737 11.7071 8.38765 11.9368C8.15794 12.1665 7.86526 12.3229 7.54663 12.3863C7.228 12.4497 6.89773 12.4172 6.59759 12.2929C6.29745 12.1685 6.04091 11.958 5.86042 11.6879C5.67993 11.4178 5.58359 11.1002 5.58359 10.7753C5.58426 10.3399 5.75752 9.92248 6.06542 9.61458C6.37331 9.30668 6.79072 9.13341 7.22615 9.13274ZM9.71288 15.6318C9.71291 15.8413 9.63003 16.0424 9.48234 16.191C9.33466 16.3397 9.13416 16.4238 8.92463 16.4251H5.52767C5.31734 16.4249 5.11571 16.3412 4.96698 16.1925C4.81826 16.0438 4.73459 15.8421 4.73433 15.6318V15.2504C4.73341 14.9229 4.79722 14.5985 4.92212 14.2957C5.04702 13.993 5.23053 13.7179 5.4621 13.4864C5.69367 13.2548 5.96874 13.0713 6.27148 12.9464C6.57422 12.8215 6.89867 12.7577 7.22616 12.7586H7.24646C7.26358 12.7578 7.28074 12.7595 7.29736 12.7637C7.35329 12.7637 7.41431 12.7637 7.47024 12.7688C8.09485 12.8473 8.66869 13.1531 9.08231 13.6276C9.49594 14.1022 9.7204 14.7125 9.71289 15.3419L9.71288 15.6318Z" fill="#171723"/>
<path d="M16.4337 2.22217H3.56622C2.82392 2.22217 2.22217 2.82392 2.22217 3.56622V5.32256C2.22217 6.06486 2.82392 6.66661 3.56622 6.66661H16.4337C17.176 6.66661 17.7777 6.06486 17.7777 5.32256V3.56622C17.7777 2.82392 17.176 2.22217 16.4337 2.22217Z" fill="#171723"/>
<path d="M15.3448 17.7778C16.5721 17.7778 17.567 16.7829 17.567 15.5556C17.567 14.3283 16.5721 13.3334 15.3448 13.3334C14.1175 13.3334 13.1226 14.3283 13.1226 15.5556C13.1226 16.7829 14.1175 17.7778 15.3448 17.7778Z" fill="#171723"/>
<path d="M17.3612 9.30538H13.3288C13.2183 9.30538 13.1123 9.26148 13.0341 9.18334C12.956 9.1052 12.9121 8.99922 12.9121 8.88871C12.9121 8.77821 12.956 8.67222 13.0341 8.59408C13.1123 8.51594 13.2183 8.47205 13.3288 8.47205H17.3612C17.4717 8.47205 17.5776 8.51594 17.6558 8.59408C17.7339 8.67222 17.7778 8.77821 17.7778 8.88871C17.7778 8.99922 17.7339 9.1052 17.6558 9.18334C17.5776 9.26148 17.4717 9.30538 17.3612 9.30538Z" fill="#171723"/>
<path d="M17.3612 10.9899H13.3288C13.2183 10.9899 13.1123 10.9461 13.0341 10.8679C12.956 10.7898 12.9121 10.6838 12.9121 10.5733C12.9121 10.4628 12.956 10.3568 13.0341 10.2787C13.1123 10.2005 13.2183 10.1566 13.3288 10.1566H17.3612C17.4717 10.1566 17.5776 10.2005 17.6558 10.2787C17.7339 10.3568 17.7778 10.4628 17.7778 10.5733C17.7778 10.6838 17.7339 10.7898 17.6558 10.8679C17.5776 10.9461 17.4717 10.9899 17.3612 10.9899Z" fill="#171723"/>
<path d="M17.3612 12.6737H13.3288C13.2183 12.6737 13.1123 12.6298 13.0341 12.5516C12.956 12.4735 12.9121 12.3675 12.9121 12.257C12.9121 12.1465 12.956 12.0405 13.0341 11.9624C13.1123 11.8842 13.2183 11.8403 13.3288 11.8403H17.3612C17.4717 11.8403 17.5776 11.8842 17.6558 11.9624C17.7339 12.0405 17.7778 12.1465 17.7778 12.257C17.7778 12.3675 17.7339 12.4735 17.6558 12.5516C17.5776 12.6298 17.4717 12.6737 17.3612 12.6737Z" fill="#171723"/>
</svg>
