<svg width="20" height="20" viewBox="0 0 20 20" fill="none" xmlns="http://www.w3.org/2000/svg">
<g clip-path="url(#clip0_10314_144845)">
<g clip-path="url(#clip1_10314_144845)">
<path d="M3.31793 6.41875V7.76637C2.18544 7.81034 1.05899 7.58117 0.0336914 7.09824C1.05735 6.60939 2.18433 6.37622 3.31793 6.41875V6.41875Z" fill="#171723"/>
<path d="M0 8.33264V10.2353C1.03891 10.7156 2.17395 10.952 3.31825 10.9262V8.89889C2.1891 8.88766 1.06897 8.69651 0 8.33264V8.33264Z" fill="#171723"/>
<path d="M19.9999 14.5842V16.3509C19.9869 16.3913 19.9793 16.4332 19.9772 16.4755C19.2156 16.9352 18.3413 17.1743 17.4517 17.1663L17.0553 17.2003C16.9421 17.2003 16.8062 17.2003 16.6816 17.2117V15.1618C17.1459 15.1505 17.6103 15.1278 18.0859 15.0712C18.743 14.996 19.3868 14.8322 19.9999 14.5842Z" fill="#171723"/>
<path d="M15.5493 15.1051V17.6079C15.2549 17.9703 13.171 18.6385 10 18.6385C8.10278 18.7519 6.20474 18.4304 4.45068 17.6985V15.1164C4.52996 15.1504 4.62058 15.1731 4.7112 15.207L4.77915 15.241C4.8381 15.2614 4.89872 15.2765 4.96032 15.2863C5.2018 15.3676 5.44755 15.4357 5.69648 15.4901C5.78586 15.5144 5.87662 15.5333 5.96827 15.5467C6.33069 15.626 6.6931 15.694 7.07809 15.7393C7.18005 15.7506 7.27066 15.7619 7.37255 15.7732C7.67835 15.8073 7.98416 15.8412 8.30122 15.8639C8.45977 15.8752 8.60702 15.8865 8.76552 15.8978C9.1506 15.9091 9.52435 15.9318 9.88676 15.9318H10.0906C10.3511 15.9318 10.6455 15.9205 10.9513 15.9091C11.0571 15.911 11.163 15.9072 11.2684 15.8978C12.729 15.8686 14.1751 15.6008 15.5493 15.1051V15.1051Z" fill="#171723"/>
<path d="M3.31821 15.1731V17.2003C3.13704 17.189 2.96713 17.189 2.77462 17.1776C2.62739 17.1663 2.46883 17.155 2.29899 17.1324C1.80588 17.0728 1.31765 16.9782 0.838003 16.8492C0.761305 16.8309 0.685702 16.8082 0.611553 16.7813C0.486924 16.736 0.36237 16.6907 0.294464 16.6681C0.101961 16.5548 0.0340121 16.4642 0 16.4868V14.6182L0.0226674 14.6295C0.622309 14.8491 1.2457 14.9973 1.87999 15.0712C1.9026 15.0712 2.02723 15.0825 2.04983 15.0825C2.47055 15.1369 2.89403 15.1671 3.31821 15.1731V15.1731Z" fill="#171723"/>
<path d="M3.31829 12.0588V14.0407C2.92193 14.0293 2.54819 14.0067 2.19711 13.9614C2.17451 13.9614 2.04988 13.9501 2.02728 13.9501C1.50217 13.892 0.985396 13.7743 0.48701 13.599L0.249193 13.4857C0.0906488 13.4065 0.0113766 13.3385 0 13.3385V11.4812C1.06878 11.8473 2.18868 12.0422 3.31829 12.0588V12.0588Z" fill="#171723"/>
<path d="M15.538 11.2546V13.7575C15.2662 14.1199 13.2503 14.7654 10.2038 14.7994C9.98865 14.7994 9.7848 14.7994 9.55829 14.7881C8.3095 14.7681 7.06554 14.6278 5.84369 14.3691C5.78708 14.3464 5.71914 14.335 5.65111 14.3124C5.51523 14.2784 5.39067 14.2444 5.27744 14.2105C5.22082 14.1879 5.16414 14.1765 5.11889 14.1539C4.87302 14.0761 4.64563 13.9489 4.45068 13.7801V11.266C4.49603 11.2887 4.5413 11.2999 4.58665 11.3226C4.62513 11.3358 4.66292 11.3509 4.69987 11.3679C4.7112 11.3679 4.81309 11.4132 4.82443 11.4132C5.65344 11.6748 6.50742 11.8494 7.37257 11.9341C7.49714 11.9455 7.63303 11.9568 7.8256 11.9795C7.89355 11.9908 7.95017 11.9908 8.01811 12.0021H8.09739C8.17994 12.0142 8.26311 12.0218 8.3465 12.0247H8.50505C9.0147 12.0587 9.52434 12.0814 9.99997 12.0814C10.3171 12.0814 10.6569 12.0814 11.0305 12.0587C11.11 12.0606 11.1894 12.0568 11.2683 12.0474C12.7254 12.019 14.1678 11.7512 15.538 11.2546V11.2546Z" fill="#171723"/>
<path d="M20 11.4585V13.2932C19.9887 13.3045 19.9546 13.3385 19.8754 13.4064C19.8369 13.4195 19.7991 13.4347 19.7621 13.4517C19.1906 13.7296 18.5723 13.8986 17.9388 13.95C17.5215 13.999 17.1019 14.0255 16.6817 14.0293V13.8255C16.6817 13.8141 16.6704 13.8141 16.6704 13.8028V12.0361C17.447 12.0219 18.2205 11.9347 18.9807 11.7756C19.0279 11.7738 19.0741 11.7623 19.1166 11.7416C19.3544 11.685 19.5696 11.6171 19.7508 11.5605C19.8187 11.5378 19.8754 11.5151 19.932 11.4925L20 11.4585Z" fill="#171723"/>
<path d="M20 8.32141V10.1674C20 10.1689 19.9997 10.1704 19.9992 10.1718C19.9986 10.1732 19.9978 10.1744 19.9967 10.1755C19.9957 10.1765 19.9944 10.1774 19.993 10.1779C19.9916 10.1785 19.9901 10.1788 19.9886 10.1787C19.9473 10.2145 19.9016 10.2449 19.8527 10.2694C19.7849 10.3173 19.7129 10.359 19.6376 10.3939C19.5522 10.4173 19.4688 10.4476 19.3884 10.4845C19.2298 10.5412 19.0373 10.5864 18.8335 10.6431C18.8109 10.6543 18.7882 10.6543 18.7655 10.6657C18.0751 10.8039 17.3742 10.8835 16.6704 10.9035V10.0088C16.6704 9.9975 16.6817 9.9975 16.6817 9.98617V8.899C17.813 8.90125 18.936 8.70579 20 8.32141V8.32141Z" fill="#171723"/>
<path d="M19.9433 7.09826C18.9264 7.58241 17.807 7.81173 16.6816 7.7664V6.41877C17.8083 6.37227 18.9289 6.60573 19.9433 7.09826Z" fill="#171723"/>
<path d="M15.5494 7.41541V9.90694C15.2889 10.2467 13.6014 10.8016 11.008 10.9262C10.6343 10.9375 10.2493 10.9488 9.86416 10.9488H9.71693C9.32057 10.9375 8.92421 10.9262 8.51647 10.8922C8.32397 10.8809 8.13139 10.8695 7.95022 10.8583C7.93159 10.8534 7.91268 10.8496 7.8936 10.8469C7.837 10.8469 7.80299 10.8356 7.74637 10.8356C6.83831 10.7523 5.94207 10.57 5.07361 10.292C4.84117 10.2258 4.6277 10.1055 4.45068 9.94094V7.46075C6.24151 8.04246 8.11759 8.31811 10.0001 8.27612C11.8863 8.32079 13.7653 8.02934 15.5494 7.41541V7.41541Z" fill="#171723"/>
<path d="M9.99969 3.30433C13.0457 3.30433 15.515 2.86828 15.515 2.33039C15.515 1.7925 13.0457 1.35645 9.99969 1.35645C6.95367 1.35645 4.48438 1.7925 4.48438 2.33039C4.48438 2.86828 6.95367 3.30433 9.99969 3.30433Z" fill="#171723"/>
<path d="M15.5493 3.59888V6.10176C15.5267 6.12436 15.4926 6.14703 15.4701 6.1697C15.3047 6.28226 15.1259 6.37357 14.9377 6.44149C14.8245 6.48676 14.6886 6.53211 14.5527 6.57739C14.3149 6.64534 14.0544 6.71329 13.6693 6.79257C12.4598 7.0199 11.2306 7.12614 10 7.1097C6.72704 7.1097 4.7112 6.46416 4.45068 6.09041V3.59888C6.2422 4.17973 8.11685 4.46283 10 4.43692C11.8832 4.46283 13.7578 4.17973 15.5493 3.59888V3.59888Z" fill="#171723"/>
</g>
</g>
<defs>
<clipPath id="clip0_10314_144845">
<rect width="20" height="20" fill="white"/>
</clipPath>
<clipPath id="clip1_10314_144845">
<rect width="20" height="20" fill="white"/>
</clipPath>
</defs>
</svg>
