<svg width="24" height="24" viewBox="0 0 24 24" fill="none" xmlns="http://www.w3.org/2000/svg">
<path d="M18.8014 4.58014H5.19929C3.80074 4.58014 2.66699 5.71389 2.66699 7.11244V16.8873C2.66699 18.2858 3.80074 19.4196 5.19929 19.4196H18.8014C20.1999 19.4196 21.3337 18.2858 21.3337 16.8873V7.11244C21.3337 5.71389 20.1999 4.58014 18.8014 4.58014Z" fill="white"/>
<path d="M18.8013 19.4946H5.19873C4.50746 19.4938 3.84476 19.2188 3.35596 18.73C2.86716 18.2412 2.59217 17.5785 2.59131 16.8872V7.11279C2.59217 6.42153 2.86716 5.75882 3.35596 5.27002C3.84476 4.78122 4.50746 4.50623 5.19873 4.50537H18.8013C19.4925 4.50623 20.1552 4.78122 20.644 5.27002C21.1328 5.75882 21.4078 6.42153 21.4087 7.11279V16.8872C21.4078 17.5785 21.1328 18.2412 20.644 18.73C20.1552 19.2188 19.4925 19.4938 18.8013 19.4946ZM5.19873 4.65576C4.54735 4.65662 3.9229 4.91575 3.46231 5.37634C3.00172 5.83694 2.74258 6.46139 2.74173 7.11276V16.8872C2.74258 17.5386 3.00172 18.163 3.46231 18.6236C3.9229 19.0842 4.54735 19.3433 5.19873 19.3442H18.8013C19.4526 19.3433 20.0771 19.0842 20.5377 18.6236C20.9983 18.163 21.2574 17.5386 21.2583 16.8872V7.11279C21.2574 6.46142 20.9983 5.83697 20.5377 5.37637C20.0771 4.91578 19.4526 4.65665 18.8013 4.65579L5.19873 4.65576Z" fill="#E4E4E4"/>
<path d="M5.19922 11.0192C5.39935 10.9895 5.60137 10.9745 5.80368 10.9742C6.12284 10.9485 6.43984 11.0449 6.69068 11.2439C6.79547 11.3436 6.87743 11.4648 6.93091 11.5991C6.98417 11.7331 7.00756 11.8771 6.99944 12.021C7.00653 12.1753 6.98224 12.3294 6.92805 12.474C6.87387 12.6187 6.79091 12.7508 6.68419 12.8624C6.41361 13.0871 6.06677 13.1986 5.71596 13.1739C5.54338 13.1748 5.37087 13.1662 5.19923 13.1482L5.19922 11.0192ZM5.48522 12.933C5.57994 12.9459 5.67553 12.9513 5.7711 12.9491C5.89654 12.9635 6.02361 12.9496 6.14302 12.9086C6.26242 12.8675 6.37115 12.8003 6.46127 12.7119C6.55068 12.6242 6.61897 12.5172 6.66098 12.3992C6.703 12.2812 6.71763 12.1552 6.70377 12.0307C6.71375 11.9139 6.69719 11.7965 6.65534 11.687C6.61349 11.5776 6.54742 11.479 6.4621 11.3987C6.37677 11.3184 6.27438 11.2584 6.1626 11.2233C6.05083 11.1882 5.93255 11.1788 5.81662 11.1958C5.70552 11.1957 5.59463 11.2054 5.48522 11.2247V12.933Z" fill="#1D1D1B"/>
<path d="M7.52698 12.4289C7.52041 12.5009 7.5298 12.5734 7.55447 12.6413C7.57926 12.7093 7.61867 12.7712 7.66991 12.8224C7.72156 12.8739 7.78372 12.9136 7.85214 12.9388C7.92056 12.964 7.99362 12.9741 8.06631 12.9684C8.21554 12.9734 8.36407 12.946 8.5017 12.8881L8.55052 13.0905C8.38517 13.1605 8.2068 13.1944 8.0273 13.19C7.92263 13.1963 7.81782 13.1803 7.71986 13.1429C7.62189 13.1054 7.53305 13.0475 7.45925 12.973C7.38605 12.8991 7.32977 12.8101 7.29432 12.7123C7.25887 12.6145 7.24508 12.5101 7.25392 12.4064C7.24257 12.3018 7.25319 12.1959 7.28511 12.0955C7.31703 11.9952 7.36954 11.9026 7.43928 11.8237C7.50903 11.7448 7.59447 11.6813 7.69015 11.6374C7.78583 11.5934 7.88963 11.5699 7.99492 11.5683C8.08717 11.57 8.17807 11.5907 8.26192 11.6292C8.34552 11.6675 8.42022 11.7228 8.48126 11.7915C8.54202 11.8598 8.5877 11.9402 8.61532 12.0273C8.64293 12.1145 8.65187 12.2065 8.64154 12.2973C8.64193 12.3415 8.63753 12.3857 8.62843 12.4289L7.52698 12.4289ZM8.3653 12.2265C8.37313 12.1702 8.36876 12.1127 8.3525 12.0582C8.33624 12.0036 8.30846 11.9532 8.27104 11.9103C8.23332 11.8671 8.1869 11.8323 8.13483 11.8082C8.08275 11.7842 8.02618 11.7714 7.96881 11.7707C7.85153 11.7785 7.74135 11.8297 7.65973 11.9143C7.57868 11.9983 7.53238 12.1098 7.53013 12.2265H8.3653Z" fill="#1D1D1B"/>
<path d="M8.99642 10.8747H9.27911V11.8509H9.28559C9.34032 11.7594 9.41918 11.6848 9.51353 11.6352C9.60829 11.5853 9.71486 11.5621 9.82178 11.5683C9.91875 11.5726 10.0138 11.597 10.1009 11.6398C10.188 11.6827 10.2652 11.7432 10.3278 11.8174C10.3904 11.8916 10.4369 11.9779 10.4645 12.071C10.492 12.1641 10.5 12.2619 10.4879 12.3582C10.4998 12.46 10.4906 12.5632 10.4608 12.6613C10.4311 12.7594 10.3814 12.8503 10.315 12.9284C10.2485 13.0065 10.1666 13.07 10.0745 13.115C9.98241 13.16 9.882 13.1855 9.77958 13.1899C9.67288 13.1956 9.5667 13.1715 9.47287 13.1204C9.37947 13.0696 9.30221 12.9936 9.24987 12.901H9.2434L9.2304 13.1546H8.9834C8.98988 13.0486 8.9964 12.8913 8.9964 12.7564L8.99642 10.8747ZM9.27911 12.5317C9.27849 12.5664 9.28287 12.601 9.29211 12.6344C9.31597 12.7293 9.37115 12.8134 9.44871 12.8731C9.52674 12.9331 9.62253 12.9656 9.72101 12.9652C10.0233 12.9652 10.1987 12.7244 10.1987 12.3679C10.1987 12.0564 10.0363 11.7899 9.72763 11.7899C9.62708 11.7922 9.53007 11.8275 9.45157 11.8903C9.37356 11.9528 9.31861 12.0395 9.29544 12.1367C9.28616 12.1746 9.2807 12.2133 9.27914 12.2523L9.27911 12.5317Z" fill="#1D1D1B"/>
<path d="M11.1714 11.1636C11.1719 11.1871 11.1674 11.2104 11.1583 11.232C11.1492 11.2538 11.1357 11.2733 11.1187 11.2896C11.1016 11.3059 11.0812 11.3185 11.059 11.3267C11.0368 11.3349 11.0131 11.3384 10.9894 11.3371C10.9663 11.338 10.9433 11.334 10.9218 11.3256C10.9003 11.3171 10.8808 11.3043 10.8645 11.288C10.8483 11.2717 10.8357 11.2522 10.8276 11.2307C10.8194 11.2094 10.8159 11.1865 10.8172 11.1636C10.8162 11.1404 10.82 11.1173 10.8285 11.0956C10.8369 11.0739 10.8498 11.0542 10.8662 11.0377C10.8827 11.0211 10.9024 11.0081 10.9241 10.9994C10.9459 10.9906 10.9692 10.9864 10.9927 10.987C11.0163 10.9867 11.0396 10.991 11.0615 10.9997C11.0833 11.0085 11.1031 11.0215 11.1198 11.038C11.1364 11.0544 11.1496 11.074 11.1585 11.0956C11.1674 11.1172 11.1718 11.1403 11.1714 11.1636ZM10.8497 13.1546V11.6036H11.1324V13.1546H10.8497Z" fill="#1D1D1B"/>
<path d="M11.9549 11.1541V11.6035H12.3643V11.8155H11.9549V12.6536C11.9549 12.8463 12.0101 12.9555 12.1693 12.9555C12.2251 12.956 12.2808 12.9496 12.3349 12.9363L12.3481 13.1482C12.2662 13.1795 12.1788 13.1937 12.0913 13.1899C12.0344 13.1923 11.9777 13.183 11.9246 13.1625C11.8715 13.1421 11.8232 13.111 11.7826 13.0711C11.7008 12.9517 11.6628 12.8075 11.6753 12.6633V11.8155H11.4316V11.6035H11.6753V11.2278L11.9549 11.1541Z" fill="#1D1D1B"/>
<path d="M14.5001 13.0968C14.3583 13.1609 14.204 13.1927 14.0484 13.1899C13.9427 13.1954 13.837 13.1784 13.7383 13.1402C13.6396 13.102 13.5501 13.0434 13.4756 12.9681C13.4016 12.8935 13.3446 12.8039 13.3083 12.7053C13.272 12.6067 13.2574 12.5015 13.2653 12.3967C13.2601 12.2858 13.2784 12.1749 13.3191 12.0715C13.3598 11.9682 13.422 11.8746 13.5014 11.7969C13.5815 11.7187 13.677 11.6579 13.7818 11.6185C13.8866 11.5792 13.9984 11.562 14.1102 11.5683C14.2465 11.5671 14.3815 11.5944 14.5066 11.6485L14.4416 11.8669C14.3393 11.8143 14.2252 11.7889 14.1102 11.7931C14.0335 11.7914 13.9572 11.8058 13.8863 11.8352C13.8157 11.8646 13.7519 11.9085 13.6993 11.964C13.647 12.0194 13.607 12.0851 13.5819 12.157C13.541 12.2634 13.5302 12.3789 13.5506 12.491C13.571 12.6031 13.6218 12.7075 13.6976 12.7926C13.7495 12.8476 13.8125 12.891 13.8823 12.9201C13.9524 12.9493 14.0277 12.9635 14.1036 12.9619C14.2238 12.9621 14.3425 12.9359 14.4514 12.8849L14.5001 13.0968Z" fill="#1D1D1B"/>
<path d="M15.9401 12.7822C15.9387 12.9067 15.9463 13.0312 15.9629 13.1546H15.7062L15.6802 12.9588H15.6737C15.6171 13.0319 15.5443 13.0908 15.461 13.1308C15.3774 13.171 15.2856 13.1912 15.1928 13.1899C15.1312 13.1939 15.0694 13.1854 15.0112 13.1647C14.953 13.1441 14.8997 13.1118 14.8544 13.0699C14.8094 13.0282 14.7735 12.9778 14.749 12.9216C14.7245 12.8655 14.7119 12.8049 14.7119 12.7436C14.7119 12.3678 15.0498 12.1623 15.6574 12.1687V12.1334C15.6634 12.0853 15.6583 12.0364 15.6425 11.9904C15.6268 11.9445 15.6008 11.9028 15.5665 11.8684C15.532 11.8338 15.4901 11.8073 15.444 11.7909C15.3979 11.7745 15.3487 11.7687 15.3001 11.7738C15.1555 11.7737 15.0138 11.8137 14.8906 11.8893L14.8256 11.7032C14.9822 11.6118 15.161 11.5652 15.3423 11.5683C15.8232 11.5683 15.9401 11.8926 15.9401 12.2042L15.9401 12.7822ZM15.6639 12.3647C15.3519 12.355 14.9978 12.4097 14.9978 12.7114C14.9948 12.7474 14.9998 12.7836 15.0122 12.8175C15.0247 12.8513 15.0444 12.8821 15.07 12.9076C15.0956 12.9332 15.1265 12.9531 15.1606 12.9658C15.1947 12.9785 15.2312 12.9838 15.2676 12.9813C15.351 12.9835 15.433 12.9595 15.502 12.9127C15.5707 12.8662 15.6228 12.7991 15.6509 12.7211C15.6582 12.6916 15.6626 12.6615 15.6639 12.6311L15.6639 12.3647Z" fill="#1D1D1B"/>
<path d="M16.4026 12.0853C16.4026 11.9023 16.3962 11.7482 16.3896 11.6036H16.6398L16.6496 11.9087H16.6593C16.6878 11.8138 16.7453 11.7301 16.8237 11.6694C16.9026 11.6083 16.9983 11.573 17.0979 11.5683C17.1241 11.5668 17.1504 11.5689 17.176 11.5747V11.8412C17.1451 11.8342 17.1135 11.8309 17.0818 11.8316C16.9842 11.8349 16.8911 11.8737 16.8201 11.9408C16.7495 12.0074 16.7061 12.0978 16.6983 12.1945C16.689 12.2367 16.6847 12.2797 16.6853 12.3229V13.1546H16.4026L16.4026 12.0853Z" fill="#1D1D1B"/>
<path d="M18.7883 10.8747V12.7564C18.7883 12.8913 18.7947 13.0455 18.8013 13.1546H18.5478L18.5348 12.8849H18.5251C18.4755 12.9809 18.3993 13.0606 18.3056 13.1144C18.2115 13.1686 18.1039 13.1948 17.9954 13.19C17.8977 13.1851 17.8021 13.1606 17.7142 13.1177C17.6266 13.0751 17.5487 13.015 17.4852 12.9411C17.422 12.8677 17.3746 12.782 17.3461 12.6894C17.3176 12.5969 17.3085 12.4994 17.3195 12.4031C17.307 12.3013 17.3157 12.198 17.3449 12.0996C17.3742 12.0013 17.4235 11.9101 17.4897 11.8317C17.5559 11.7533 17.6376 11.6894 17.7297 11.6441C17.8217 11.5987 17.9221 11.5729 18.0246 11.5682C18.1176 11.5621 18.2106 11.5805 18.2941 11.6218C18.3773 11.6628 18.4481 11.7252 18.4992 11.8026H18.5057V10.8746L18.7883 10.8747ZM18.5056 12.2331C18.5055 12.1933 18.5023 12.1535 18.4958 12.1142C18.4738 12.0213 18.4208 11.9386 18.3454 11.88C18.2695 11.8209 18.176 11.7892 18.0799 11.7899C17.7842 11.7899 17.6055 12.0435 17.6055 12.3872C17.6055 12.7019 17.7646 12.9652 18.0734 12.9652C18.1717 12.9637 18.2667 12.9293 18.3431 12.8674C18.419 12.8059 18.4717 12.7203 18.4925 12.6248C18.502 12.5848 18.5064 12.5438 18.5056 12.5028V12.2331Z" fill="#1D1D1B"/>
</svg>
