<svg width="20" height="20" viewBox="0 0 20 20" fill="none" xmlns="http://www.w3.org/2000/svg">
<g clip-path="url(#clip0_5313_35033)">
<path d="M11.1115 14.5964C11.1662 14.5965 11.2204 14.5856 11.271 14.5647C11.3216 14.5438 11.3675 14.5131 11.4062 14.4745C11.4449 14.4357 11.4756 14.3898 11.4965 14.3392C11.5174 14.2886 11.5282 14.2345 11.5282 14.1797V10.1905C11.5282 10.08 11.4842 9.97397 11.4061 9.89589C11.328 9.81772 11.222 9.7738 11.1115 9.7738C11.001 9.7738 10.895 9.81772 10.8168 9.89589C10.7387 9.97397 10.6948 10.08 10.6948 10.1905V14.1797C10.6948 14.2345 10.7056 14.2886 10.7265 14.3392C10.7474 14.3898 10.7781 14.4357 10.8168 14.4745C10.8555 14.5131 10.9014 14.5438 10.952 14.5647C11.0026 14.5856 11.0567 14.5965 11.1115 14.5964Z" fill="#171723"/>
<path d="M8.88883 14.5964C8.94358 14.5965 8.99775 14.5856 9.04833 14.5647C9.09892 14.5438 9.14483 14.5131 9.1835 14.4745C9.22225 14.4357 9.25292 14.3898 9.27383 14.3392C9.29475 14.2886 9.3055 14.2345 9.3055 14.1797V10.1905C9.3055 10.08 9.26158 9.97397 9.1835 9.89589C9.10533 9.81772 8.99933 9.7738 8.88883 9.7738C8.77833 9.7738 8.67233 9.81772 8.59425 9.89589C8.51608 9.97397 8.47217 10.08 8.47217 10.1905V14.1797C8.47217 14.2345 8.48292 14.2886 8.50383 14.3392C8.52475 14.3898 8.55542 14.4357 8.59417 14.4745C8.63283 14.5131 8.67875 14.5438 8.72933 14.5647C8.77992 14.5856 8.83408 14.5965 8.88883 14.5964Z" fill="#171723"/>
<path d="M16.1502 4.02834H13.3287V2.72095C13.3285 2.47824 13.2319 2.24554 13.0602 2.07391C12.8887 1.90228 12.656 1.80573 12.4132 1.80542H7.58658C7.34386 1.80573 7.11117 1.90228 6.93953 2.07391C6.76791 2.24554 6.67136 2.47824 6.67106 2.72095V4.02834H3.84961C3.60695 4.02861 3.3743 4.1251 3.20268 4.29664C3.03106 4.46819 2.93447 4.70079 2.93408 4.94344V6.16862C2.93451 6.41173 3.03143 6.64472 3.20357 6.81639C3.37569 6.98807 3.60894 7.08439 3.85205 7.08417L4.04167 7.08304V14.7856C4.04264 15.6894 4.40212 16.5559 5.04122 17.195C5.68032 17.8342 6.54686 18.1936 7.45068 18.1946H12.5516C13.4552 18.1934 14.3217 17.8339 14.9606 17.1948C15.5995 16.5558 15.9588 15.6893 15.9597 14.7856V7.01244L16.1502 7.01131C16.2665 7.01997 16.3834 7.00466 16.4936 6.96633C16.6037 6.92799 16.7048 6.86745 16.7907 6.78846C16.8765 6.70946 16.9452 6.61369 16.9925 6.50708C17.0398 6.40046 17.0647 6.28526 17.0657 6.16862V4.94344C17.0653 4.70079 16.9688 4.46819 16.7972 4.29664C16.6255 4.1251 16.3929 4.02861 16.1502 4.02834ZM7.50439 2.72095C7.5044 2.69916 7.51306 2.67826 7.52847 2.66284C7.54388 2.64743 7.56478 2.63877 7.58658 2.63875H12.4132C12.4351 2.63877 12.4559 2.64743 12.4713 2.66284C12.4867 2.67826 12.4954 2.69916 12.4954 2.72095V4.02834H7.50439V2.72095ZM15.1265 14.7856C15.1258 15.4683 14.8543 16.123 14.3717 16.6058C13.8889 17.0888 13.2343 17.3604 12.5516 17.3613H7.45068C6.76782 17.3604 6.11317 17.0888 5.63031 16.6059C5.14745 16.1231 4.87582 15.4684 4.875 14.7856V7.07807L15.1265 7.01734V14.7856ZM16.1477 6.17798L15.5702 6.18139C15.5607 6.18073 15.5527 6.17594 15.5432 6.17594C15.5329 6.17594 15.5245 6.18104 15.5144 6.18178L3.84961 6.25084C3.82781 6.25083 3.8069 6.24216 3.79149 6.22674C3.77607 6.21133 3.76742 6.19042 3.76742 6.16862V4.94344C3.76742 4.93268 3.76957 4.92202 3.77371 4.91208C3.77785 4.90213 3.78391 4.8931 3.79154 4.88551C3.79917 4.87791 3.80823 4.87189 3.8182 4.8678C3.82817 4.86372 3.83883 4.86164 3.84961 4.86167H16.1502C16.161 4.86164 16.1717 4.86372 16.1817 4.86781C16.1916 4.8719 16.2007 4.87792 16.2083 4.88551C16.2159 4.89311 16.222 4.90214 16.2261 4.91209C16.2302 4.92203 16.2324 4.93269 16.2324 4.94346L16.243 6.15929C16.2135 6.17395 16.1806 6.18041 16.1477 6.17798Z" fill="#171723"/>
</g>
<defs>
<clipPath id="clip0_5313_35033">
<rect width="20" height="20" fill="white"/>
</clipPath>
</defs>
</svg>
