<svg width="20" height="20" viewBox="0 0 20 20" fill="none" xmlns="http://www.w3.org/2000/svg">
<path d="M2.22184 18.1946C2.16712 18.1944 2.11295 18.1837 2.06234 18.1628C1.98623 18.1313 1.92119 18.0779 1.87542 18.0094C1.82964 17.9409 1.8052 17.8603 1.80518 17.7779V4.75871C1.80603 3.97585 2.11734 3.22528 2.67084 2.67164C3.22433 2.118 3.97481 1.80648 4.75768 1.80542H15.2411C16.0241 1.8063 16.7747 2.11774 17.3284 2.67141C17.8821 3.22507 18.1935 3.97575 18.1944 4.75875V12.1733C18.1933 12.9562 17.8818 13.7067 17.3282 14.2602C16.7745 14.8137 16.0239 15.125 15.2411 15.1258H6.3348C5.77173 15.1276 5.23214 15.3516 4.83333 15.7491L2.51726 18.0725C2.43882 18.1507 2.33259 18.1946 2.22184 18.1946ZM4.75768 2.63875C4.19574 2.63953 3.65705 2.86315 3.25977 3.26058C2.8625 3.658 2.63907 4.19677 2.63851 4.75871V16.7696L4.24333 15.1599C4.79918 14.6068 5.55065 14.2951 6.3348 14.2924H15.2411C15.803 14.2919 16.3418 14.0684 16.7392 13.6712C17.1366 13.2739 17.3603 12.7352 17.3611 12.1732V4.75871C17.3603 4.19669 17.1367 3.65789 16.7393 3.26049C16.3419 2.86308 15.8031 2.63949 15.2411 2.63875H4.75768Z" fill="#171723"/>
<path d="M10.6148 12.3376C10.5505 12.3436 10.4856 12.3363 10.4243 12.3161C10.3629 12.296 10.3064 12.2634 10.2582 12.2204C10.21 12.1774 10.1712 12.1249 10.1442 12.0663C10.1172 12.0076 10.1026 11.944 10.1013 11.8795C10.1035 11.8101 10.1139 11.7413 10.1322 11.6744L10.5139 9.96295H8.74141L8.30358 11.9291C8.28361 12.0441 8.22349 12.1482 8.13393 12.223C8.04437 12.2978 7.93117 12.3384 7.81448 12.3376C7.74832 12.3377 7.68289 12.3238 7.62245 12.2969C7.56201 12.27 7.50793 12.2306 7.46373 12.1814C7.4211 12.1343 7.38937 12.0783 7.37081 12.0176C7.35224 11.9568 7.34729 11.8927 7.35632 11.8298L7.77461 9.96295H7.18461C7.12075 9.96502 7.05714 9.95413 6.9976 9.93094C6.93807 9.90775 6.88385 9.87274 6.83822 9.82802C6.79259 9.7833 6.75649 9.7298 6.73211 9.67075C6.70772 9.6117 6.69555 9.54832 6.69632 9.48443C6.69517 9.37064 6.73776 9.26075 6.8153 9.17746C6.89284 9.09416 6.99941 9.04383 7.11299 9.03684H7.96995L8.29222 7.57768H7.40188C7.34716 7.57771 7.29296 7.56695 7.24239 7.54602C7.19183 7.52509 7.14588 7.4944 7.10719 7.45571C7.06849 7.41701 7.0378 7.37106 7.01687 7.3205C6.99594 7.26993 6.98519 7.21574 6.98522 7.16101C6.98125 7.0949 6.99101 7.0287 7.01388 6.96655C7.03675 6.9044 7.07223 6.84765 7.11809 6.79988C7.16395 6.75211 7.2192 6.71434 7.28037 6.68896C7.34153 6.66358 7.40729 6.65112 7.4735 6.65238H8.48668L8.92451 4.68624C8.94584 4.56974 9.00788 4.46461 9.09956 4.38963C9.19124 4.31465 9.30658 4.27469 9.425 4.27689C9.49042 4.27694 9.55509 4.29089 9.61472 4.31783C9.67434 4.34477 9.72755 4.38408 9.77083 4.43314C9.81269 4.4806 9.84352 4.53674 9.86111 4.59752C9.8787 4.65831 9.88261 4.72223 9.87256 4.78471L9.45422 6.65238H11.2267L11.6841 4.60238C11.7049 4.50998 11.7565 4.4274 11.8304 4.36824C11.9044 4.30907 11.9963 4.27685 12.091 4.27686C12.1561 4.27075 12.2218 4.27813 12.2839 4.29855C12.346 4.31896 12.4033 4.35196 12.4521 4.39549C12.5009 4.43902 12.5402 4.49214 12.5675 4.55155C12.5948 4.61095 12.6096 4.67535 12.611 4.74073C12.6079 4.8166 12.5954 4.89179 12.5735 4.96453L12.1944 6.6524H12.8869C12.9416 6.65237 12.9958 6.66313 13.0464 6.68406C13.097 6.70498 13.1429 6.73567 13.1816 6.77437C13.2203 6.81307 13.251 6.85901 13.2719 6.90958C13.2929 6.96015 13.3036 7.01434 13.3036 7.06907C13.3075 7.13523 13.2977 7.2015 13.2748 7.26369C13.2519 7.32588 13.2163 7.38265 13.1704 7.43043C13.1244 7.47821 13.0691 7.51596 13.0078 7.5413C12.9466 7.56665 12.8808 7.57904 12.8145 7.57769H11.9983L11.676 9.03686H12.5256C12.5895 9.03471 12.6532 9.04553 12.7128 9.06868C12.7725 9.09183 12.8268 9.12682 12.8725 9.17155C12.9182 9.21627 12.9544 9.2698 12.9788 9.32889C13.0033 9.38799 13.0155 9.45143 13.0147 9.51538C13.0159 9.62917 12.9733 9.73906 12.8957 9.82235C12.8182 9.90564 12.7116 9.95598 12.5981 9.96297H11.4807L11.0217 12.0121C11.0009 12.1045 10.9493 12.1871 10.8753 12.2463C10.8014 12.3054 10.7095 12.3376 10.6148 12.3376ZM7.49061 11.7468L7.48735 11.759L7.49061 11.7468ZM8.93673 9.03679H10.7092L11.0307 7.57763H9.25819L8.93673 9.03679ZM9.74078 4.85471L9.73753 4.87018L9.74078 4.85471Z" fill="#171723"/>
</svg>
