<svg width="20" height="20" viewBox="0 0 20 20" fill="none" xmlns="http://www.w3.org/2000/svg">
<g clip-path="url(#clip0_5313_35195)">
<path d="M0.507978 19.9998C0.441201 19.9996 0.375095 19.9864 0.313337 19.961C0.220461 19.9225 0.141082 19.8573 0.0852268 19.7737C0.0293711 19.6901 -0.000456269 19.5918 -0.000488281 19.4913V3.60371C0.000550251 2.64837 0.380453 1.73244 1.05589 1.05682C1.73133 0.381199 2.64716 0.00105052 3.6025 -0.000244141H16.3956C17.3511 0.000832494 18.2671 0.380885 18.9428 1.05653C19.6184 1.73218 19.9985 2.64825 19.9996 3.60376V12.6519C19.9983 13.6072 19.6181 14.5231 18.9425 15.1985C18.2669 15.874 17.3509 16.2538 16.3956 16.2549H5.5271C4.83997 16.2571 4.1815 16.5305 3.69483 17.0155L0.86848 19.8508C0.77276 19.9462 0.643125 19.9998 0.507978 19.9998V19.9998ZM3.6025 1.01669C2.91676 1.01763 2.25939 1.29053 1.77459 1.77551C1.28978 2.2605 1.01713 2.91797 1.01644 3.60371V18.2609L2.97484 16.2965C3.65315 15.6215 4.57019 15.2412 5.5271 15.2379H16.3956C17.0813 15.2372 17.7388 14.9645 18.2238 14.4797C18.7088 13.9949 18.9817 13.3376 18.9826 12.6518V3.60371C18.9817 2.91786 18.7089 2.26037 18.2239 1.7754C17.7389 1.29043 17.0814 1.01759 16.3956 1.01669H3.6025Z" fill="#171723"/>
<path d="M10.7501 12.8525C10.6716 12.8599 10.5925 12.8509 10.5176 12.8263C10.4428 12.8017 10.3738 12.7619 10.315 12.7095C10.2562 12.657 10.2088 12.593 10.1759 12.5214C10.1429 12.4498 10.125 12.3722 10.1234 12.2934C10.1261 12.2088 10.1388 12.1248 10.1612 12.0432L10.6269 9.95469H8.46396L7.92967 12.354C7.90529 12.4943 7.83193 12.6214 7.72264 12.7127C7.61335 12.804 7.47521 12.8535 7.33281 12.8525C7.25208 12.8526 7.17223 12.8357 7.09847 12.8028C7.02472 12.77 6.95872 12.722 6.90479 12.6619C6.85276 12.6044 6.81405 12.5361 6.79139 12.462C6.76873 12.3878 6.76269 12.3096 6.7737 12.2328L7.28415 9.95469H6.56417C6.48624 9.95721 6.40861 9.94392 6.33596 9.91562C6.26331 9.88733 6.19715 9.8446 6.14147 9.79003C6.08578 9.73546 6.04173 9.67017 6.01197 9.59811C5.98221 9.52605 5.96735 9.4487 5.9683 9.37074C5.9669 9.23188 6.01887 9.09778 6.1135 8.99613C6.20812 8.89449 6.33816 8.83306 6.47677 8.82454H7.52253L7.9158 7.04389H6.82931C6.76253 7.04393 6.69639 7.0308 6.63468 7.00526C6.57298 6.97972 6.51691 6.94227 6.46969 6.89505C6.42246 6.84783 6.38501 6.79176 6.35947 6.73005C6.33393 6.66834 6.32081 6.60221 6.32084 6.53542C6.31601 6.45476 6.32792 6.37396 6.35583 6.29812C6.38373 6.22228 6.42703 6.15303 6.48299 6.09473C6.53896 6.03644 6.60638 5.99035 6.68102 5.95937C6.75566 5.9284 6.83591 5.9132 6.91671 5.91474H8.15311L8.6874 3.51542C8.71343 3.37325 8.78914 3.24496 8.90102 3.15346C9.01289 3.06196 9.15365 3.01319 9.29816 3.01588C9.378 3.01594 9.45691 3.03297 9.52967 3.06584C9.60243 3.09871 9.66737 3.14668 9.72018 3.20656C9.77127 3.26447 9.80889 3.33297 9.83035 3.40715C9.85182 3.48133 9.85659 3.55934 9.84432 3.63558L9.33382 5.91474H11.4968L12.055 3.41309C12.0803 3.30033 12.1433 3.19956 12.2335 3.12736C12.3238 3.05516 12.4359 3.01583 12.5515 3.01584C12.631 3.00839 12.7111 3.0174 12.7869 3.04231C12.8627 3.06722 12.9326 3.10749 12.9921 3.16061C13.0517 3.21373 13.0996 3.27856 13.133 3.35105C13.1664 3.42354 13.1844 3.50212 13.1861 3.58191C13.1823 3.6745 13.167 3.76625 13.1404 3.85502L12.6777 5.91476H13.5228C13.5896 5.91472 13.6557 5.92785 13.7174 5.95339C13.7791 5.97893 13.8352 6.01638 13.8824 6.0636C13.9296 6.11083 13.9671 6.16689 13.9926 6.2286C14.0182 6.29031 14.0313 6.35644 14.0313 6.42323C14.0361 6.50397 14.0241 6.58484 13.9961 6.66073C13.9681 6.73662 13.9248 6.8059 13.8687 6.8642C13.8126 6.92251 13.7451 6.96857 13.6704 6.9995C13.5956 7.03043 13.5153 7.04555 13.4344 7.04391H12.4384L12.0451 8.82456H13.0819C13.1599 8.82193 13.2376 8.83514 13.3104 8.86339C13.3831 8.89164 13.4494 8.93435 13.5052 8.98892C13.561 9.0435 13.6051 9.10882 13.6349 9.18094C13.6648 9.25305 13.6797 9.33047 13.6788 9.4085C13.6802 9.54737 13.6282 9.68147 13.5336 9.78311C13.4389 9.88475 13.3089 9.94618 13.1703 9.95471H11.8067L11.2466 12.4553C11.2212 12.5681 11.1583 12.6689 11.068 12.7411C10.9778 12.8132 10.8656 12.8526 10.7501 12.8525ZM6.93758 12.1315L6.93361 12.1464L6.93758 12.1315ZM8.70232 8.82448H10.8653L11.2576 7.04383H9.0946L8.70232 8.82448ZM9.68351 3.721L9.67955 3.73988L9.68351 3.721Z" fill="#171723"/>
</g>
<defs>
<clipPath id="clip0_5313_35195">
<rect width="20" height="20" fill="white"/>
</clipPath>
</defs>
</svg>
