<svg width="24" height="24" viewBox="0 0 24 24" fill="none" xmlns="http://www.w3.org/2000/svg">
<g clip-path="url(#clip0_10317_147257)">
<path d="M20.6744 2.53601H3.32512C1.54129 2.53601 0.0952148 3.98209 0.0952148 5.76592V18.2336C0.0952148 20.0174 1.54129 21.4635 3.32512 21.4635H20.6744C22.4582 21.4635 23.9043 20.0174 23.9043 18.2336V5.76592C23.9043 3.98209 22.4582 2.53601 20.6744 2.53601Z" fill="white"/>
<path d="M20.6743 21.5593H3.32572C2.44402 21.5582 1.59875 21.2074 0.975297 20.584C0.351841 19.9605 0.00110031 19.1153 0 18.2336V5.76646C0.00110031 4.88476 0.351841 4.03949 0.975297 3.41603C1.59875 2.79258 2.44402 2.44184 3.32572 2.44073H20.6743C21.556 2.44184 22.4013 2.79258 23.0247 3.41603C23.6482 4.03949 23.9989 4.88476 24 5.76646V18.2336C23.9989 19.1153 23.6482 19.9605 23.0247 20.584C22.4013 21.2074 21.556 21.5582 20.6743 21.5593ZM3.32572 2.63255C2.4949 2.63364 1.69843 2.96417 1.11095 3.55165C0.523472 4.13912 0.192948 4.9356 0.191858 5.76642V18.2335C0.192948 19.0643 0.523472 19.8608 1.11095 20.4483C1.69843 21.0358 2.4949 21.3663 3.32572 21.3674H20.6743C21.5051 21.3663 22.3016 21.0358 22.8891 20.4483C23.4765 19.8608 23.8071 19.0643 23.8082 18.2335V5.76646C23.8071 4.93564 23.4765 4.13916 22.8891 3.55168C22.3016 2.96421 21.5051 2.63368 20.6743 2.63259L3.32572 2.63255Z" fill="#E4E4E4"/>
<path d="M9.10848 9.59928C9.10481 10.0054 9.22615 10.4029 9.45604 10.7377C9.68594 11.0726 10.0133 11.3286 10.3936 11.4711V7.72748C10.0133 7.86997 9.68593 8.126 9.45604 8.46084C9.22615 8.79568 9.10481 9.19313 9.10848 9.59928V9.59928Z" fill="#006AC9"/>
<path d="M11.8184 7.72748V11.4711C12.1965 11.3253 12.5216 11.0684 12.7509 10.7343C12.9803 10.4002 13.1032 10.0045 13.1035 9.59928C13.1071 9.19313 12.9858 8.79569 12.7559 8.46085C12.526 8.12601 12.1987 7.86997 11.8184 7.72748Z" fill="#004A97"/>
<path d="M11.8184 11.4712C12.1965 11.3254 12.5216 11.0685 12.751 10.7345C12.9803 10.4004 13.1032 10.0047 13.1035 9.59943L11.8184 11.4712Z" fill="#023563"/>
<path d="M12.7406 6.13512H11.1203C10.6585 6.12345 10.1992 6.20579 9.77021 6.37716C9.34124 6.54852 8.95159 6.80533 8.62495 7.13196C8.29831 7.45859 8.04149 7.84823 7.87012 8.2772C7.69874 8.70617 7.61638 9.1655 7.62804 9.62729C7.63165 10.0822 7.72486 10.532 7.90233 10.951C8.0798 11.3699 8.33806 11.7498 8.66236 12.0689C8.98666 12.388 9.37065 12.6401 9.79239 12.8107C10.2141 12.9814 10.6654 13.0674 11.1203 13.0636H12.7407C13.6728 13.0713 14.5718 12.7178 15.2489 12.0771C15.926 11.4364 16.3287 10.5584 16.3726 9.62729C16.3508 8.68366 15.9567 7.78695 15.2763 7.13275C14.5959 6.47854 13.6844 6.11993 12.7406 6.13512V6.13512ZM11.1203 12.7564C10.4932 12.7536 9.88091 12.5649 9.36099 12.2142C8.84107 11.8635 8.43682 11.3665 8.19938 10.786C7.96193 10.2055 7.90194 9.56769 8.027 8.95313C8.15206 8.33857 8.45656 7.7749 8.90197 7.33339C9.34739 6.89188 9.91373 6.59237 10.5294 6.47273C11.145 6.35309 11.7823 6.41869 12.3606 6.66125C12.939 6.9038 13.4324 7.31241 13.7786 7.83541C14.1247 8.3584 14.308 8.97229 14.3052 9.59944C14.2951 10.4384 13.9554 11.2397 13.3595 11.8304C12.7636 12.421 11.9593 12.7536 11.1203 12.7564V12.7564Z" fill="#023563"/>
<path d="M4.05157 15.4384C4.05157 15.7177 4.24714 15.7458 4.4427 15.7458C4.5909 15.7513 4.73856 15.7248 4.87557 15.668C5.01258 15.6113 5.13571 15.5256 5.23652 15.4168C5.33733 15.308 5.41346 15.1787 5.45968 15.0378C5.50591 14.8969 5.52114 14.7476 5.50433 14.6003C5.516 14.4456 5.49459 14.2902 5.44153 14.1444C5.38848 13.9987 5.305 13.8659 5.19664 13.7549C5.08828 13.6439 4.95752 13.5572 4.81307 13.5007C4.66862 13.4441 4.51379 13.419 4.35887 13.4269C4.26483 13.4173 4.16982 13.4268 4.07954 13.4548V15.4384H4.05157ZM3.68838 13.7063C3.68838 13.371 3.52075 13.399 3.35313 13.399V13.3151H4.41476C4.59935 13.293 4.78654 13.3107 4.96366 13.3672C5.14078 13.4237 5.30371 13.5176 5.44142 13.6425C5.57912 13.7674 5.6884 13.9204 5.76186 14.0912C5.83531 14.262 5.87124 14.4465 5.8672 14.6324C5.86315 14.8183 5.81924 15.0011 5.73843 15.1685C5.65762 15.3359 5.54179 15.4841 5.39879 15.6029C5.25578 15.7216 5.08893 15.8083 4.90952 15.8571C4.73011 15.9058 4.54233 15.9154 4.35887 15.8853H3.3252V15.8015C3.5487 15.7736 3.66044 15.7736 3.66044 15.5222V13.7062L3.68838 13.7063Z" fill="#004A97"/>
<path d="M6.42678 13.6224C6.37908 13.6176 6.33508 13.5946 6.30387 13.5582C6.27266 13.5218 6.25664 13.4748 6.25912 13.4269C6.25951 13.3827 6.27734 13.3404 6.30874 13.3093C6.34013 13.2781 6.38255 13.2607 6.42677 13.2607C6.47098 13.2607 6.5134 13.2781 6.54479 13.3093C6.57619 13.3404 6.59402 13.3827 6.59441 13.4269C6.59689 13.4747 6.58088 13.5217 6.54968 13.5581C6.51848 13.5946 6.47448 13.6176 6.42678 13.6224V13.6224ZM6.03564 15.7736H6.11944C6.23121 15.7736 6.28707 15.7736 6.28707 15.6619V14.6561C6.28707 14.4885 6.23121 14.4605 6.0915 14.4047V14.3488C6.22539 14.3127 6.35619 14.266 6.48265 14.2092C6.49713 14.1932 6.51705 14.1832 6.53852 14.1811C6.56646 14.1811 6.56646 14.209 6.56646 14.237V15.6339C6.56646 15.7456 6.65025 15.7456 6.76203 15.7456H6.81787V15.8294H6.03564V15.7736Z" fill="#004A97"/>
<path d="M7.15282 14.684C7.15282 14.5443 7.12487 14.5164 6.92931 14.4326V14.3767C7.09692 14.3208 7.23661 14.2649 7.40424 14.2091C7.40793 14.209 7.4116 14.2096 7.41502 14.211C7.41845 14.2124 7.42156 14.2145 7.42417 14.2171C7.42678 14.2197 7.42883 14.2228 7.43021 14.2262C7.43158 14.2296 7.43225 14.2333 7.43217 14.237V14.4884C7.61083 14.3288 7.83611 14.2308 8.07472 14.2091C8.38211 14.2091 8.49381 14.4326 8.49381 14.712V15.6618C8.49381 15.7736 8.57763 15.7736 8.68937 15.7736H8.74526V15.8574H7.96299V15.7736H8.01888C8.13061 15.7736 8.18649 15.7736 8.18649 15.6618V14.712C8.18765 14.6689 8.17953 14.626 8.1627 14.5863C8.14587 14.5466 8.12072 14.511 8.08894 14.4819C8.05716 14.4527 8.0195 14.4307 7.97849 14.4174C7.93749 14.4041 7.8941 14.3997 7.85126 14.4046C7.69942 14.4233 7.55503 14.481 7.43217 14.5722V15.6618C7.43217 15.7735 7.51597 15.7735 7.62774 15.7735H7.68363V15.8573H6.90137V15.7735H6.98515C7.09692 15.7735 7.15282 15.7735 7.15282 15.6618V14.684Z" fill="#004A97"/>
<path d="M9.66681 14.7399C9.75061 14.7399 9.77855 14.6841 9.77855 14.6561C9.78343 14.6133 9.77906 14.5699 9.76573 14.5289C9.75241 14.4879 9.73044 14.4502 9.7013 14.4184C9.67217 14.3867 9.63656 14.3615 9.59687 14.3447C9.55718 14.3278 9.51434 14.3197 9.47124 14.3209C9.3609 14.3234 9.25577 14.3684 9.17772 14.4464C9.09967 14.5244 9.0547 14.6296 9.05217 14.7399H9.66681ZM9.02422 14.8517V15.0751C9.05217 15.4104 9.27569 15.7177 9.55504 15.7177C9.65132 15.7111 9.74532 15.6855 9.83164 15.6423C9.91795 15.5992 9.99485 15.5393 10.0579 15.4663L10.1138 15.5222C10.0422 15.6393 9.94439 15.7381 9.82801 15.8109C9.71163 15.8836 9.57992 15.9282 9.4433 15.9412C9.34312 15.9371 9.24486 15.9124 9.1546 15.8688C9.06434 15.8251 8.98399 15.7634 8.91853 15.6875C8.85307 15.6115 8.80388 15.523 8.77401 15.4273C8.74414 15.3316 8.73422 15.2307 8.74487 15.131C8.74487 14.4047 9.21979 14.2091 9.47124 14.2091C9.5509 14.2041 9.63073 14.2156 9.70572 14.2429C9.7807 14.2703 9.84922 14.3128 9.90695 14.3679C9.96468 14.4231 10.0104 14.4895 10.0412 14.5632C10.072 14.6368 10.0872 14.716 10.0858 14.7958V14.8517H9.02424L9.02422 14.8517Z" fill="#004A97"/>
<path d="M10.1701 15.7736H10.2818C10.3936 15.7736 10.4495 15.7736 10.4495 15.6618V14.6281C10.4495 14.5164 10.3098 14.4884 10.2539 14.4605V14.4046C10.5332 14.2929 10.673 14.209 10.7009 14.209C10.7289 14.209 10.7289 14.209 10.7289 14.2649V14.6002C10.8127 14.4605 10.9803 14.237 11.2038 14.237C11.2297 14.2362 11.2555 14.2407 11.2796 14.2502C11.3037 14.2598 11.3256 14.2741 11.3439 14.2925C11.3622 14.3108 11.3766 14.3327 11.3861 14.3568C11.3957 14.3809 11.4002 14.4066 11.3994 14.4325C11.3994 14.5443 11.3435 14.6281 11.2317 14.6281C11.12 14.6281 11.12 14.5443 10.9803 14.5443C10.9051 14.5546 10.8358 14.591 10.7848 14.6472C10.7337 14.7034 10.704 14.7758 10.701 14.8517V15.7177C10.701 15.8295 10.7848 15.8295 10.8686 15.8295H11.0641V15.9133H10.1143V15.7736L10.1701 15.7736Z" fill="#004A97"/>
<path d="M11.5949 15.3545C11.6507 15.606 11.7904 15.8015 12.0698 15.8015C12.2933 15.8015 12.3772 15.6618 12.3772 15.5501C12.3772 15.131 11.567 15.2708 11.567 14.6561C11.5715 14.5879 11.5897 14.5213 11.6205 14.4602C11.6512 14.3991 11.6939 14.3449 11.746 14.3006C11.7981 14.2563 11.8585 14.2229 11.9238 14.2024C11.989 14.1819 12.0577 14.1747 12.1257 14.1811C12.2727 14.1819 12.417 14.2204 12.5448 14.2929L12.5727 14.6561H12.4889C12.4873 14.6065 12.4759 14.5577 12.4554 14.5125C12.4348 14.4673 12.4055 14.4267 12.3691 14.3929C12.3327 14.3591 12.29 14.3329 12.2435 14.3158C12.1969 14.2986 12.1474 14.2908 12.0978 14.2929C12.0627 14.2898 12.0273 14.294 11.9938 14.3051C11.9604 14.3163 11.9296 14.3343 11.9034 14.3578C11.8772 14.3814 11.8561 14.4102 11.8415 14.4422C11.8269 14.4743 11.8191 14.5091 11.8185 14.5443C11.8185 14.9634 12.6566 14.8517 12.6566 15.4104C12.6566 15.6618 12.461 15.9133 12.014 15.9133C11.8596 15.9026 11.7083 15.8648 11.567 15.8015L11.5391 15.3824L11.5949 15.3545Z" fill="#004A97"/>
<path d="M15.9527 13.9576H15.8689C15.813 13.5386 15.5057 13.3709 15.0866 13.3709C14.939 13.3719 14.7933 13.4041 14.659 13.4653C14.5246 13.5266 14.4048 13.6155 14.3072 13.7262C14.2096 13.837 14.1365 13.9671 14.0927 14.1081C14.0489 14.2491 14.0354 14.3977 14.053 14.5443C14.0345 14.8546 14.1382 15.1598 14.3418 15.3947C14.5454 15.6296 14.8327 15.7756 15.1425 15.8015C15.3216 15.8031 15.495 15.7384 15.6291 15.6197C15.7633 15.5011 15.8487 15.3369 15.8689 15.1589L15.9527 15.1869L15.8689 15.7177C15.613 15.8316 15.3384 15.8979 15.0587 15.9132C14.874 15.9277 14.6883 15.9024 14.5142 15.839C14.3401 15.7757 14.1815 15.6759 14.0492 15.5462C13.9168 15.4165 13.8138 15.26 13.747 15.0872C13.6802 14.9144 13.6511 14.7292 13.6618 14.5443C13.677 14.1887 13.8326 13.8537 14.0945 13.6128C14.3564 13.3718 14.7032 13.2447 15.0587 13.2592C15.3574 13.2676 15.6515 13.334 15.9248 13.4547L15.9527 13.9576Z" fill="#004A97"/>
<path d="M16.0928 15.7736H16.1486C16.2604 15.7736 16.3163 15.7736 16.3163 15.6618V13.6224C16.3163 13.371 16.2604 13.371 16.1207 13.343V13.2872C16.2553 13.2416 16.386 13.1855 16.5118 13.1195C16.5228 13.1089 16.5361 13.1009 16.5506 13.0961C16.5651 13.0913 16.5805 13.0897 16.5956 13.0916C16.6236 13.0916 16.6236 13.1195 16.6236 13.1475V15.6898C16.6236 15.8015 16.7074 15.8015 16.8191 15.8015H16.875V15.8853H16.0928V15.7736Z" fill="#004A97"/>
<path d="M18.4395 15.6619C18.4395 15.7178 18.4674 15.7178 18.5513 15.7178H18.6909V15.8016C18.5233 15.8295 18.2439 15.8854 18.1601 15.9133H18.1322V15.606C17.9597 15.7792 17.7328 15.8878 17.4896 15.9133C17.4336 15.9128 17.3783 15.9003 17.3273 15.8769C17.2764 15.8535 17.231 15.8196 17.194 15.7774C17.1571 15.7352 17.1295 15.6856 17.113 15.632C17.0966 15.5784 17.0916 15.522 17.0985 15.4663V14.5165C17.0985 14.4326 17.0706 14.3209 16.875 14.3209V14.265C17.0147 14.265 17.2941 14.2371 17.3499 14.2371C17.3779 14.2371 17.3779 14.265 17.3779 14.3488V15.2987C17.3779 15.4105 17.3779 15.7178 17.6853 15.7178C17.8537 15.691 18.0098 15.613 18.1322 15.4943V14.5165C18.1322 14.4326 17.9646 14.4047 17.8249 14.3767V14.3209C18.1602 14.2929 18.3558 14.265 18.3837 14.265C18.4116 14.265 18.4116 14.2929 18.4116 14.3209V15.6619H18.4395Z" fill="#004A97"/>
<path d="M19.1663 15.4384C19.1741 15.5369 19.2187 15.6289 19.2911 15.6961C19.3636 15.7634 19.4586 15.801 19.5574 15.8015C19.9486 15.8015 20.1162 15.4104 20.1162 15.1031C20.1229 14.9315 20.0671 14.7633 19.9592 14.6298C19.8513 14.4962 19.6986 14.4063 19.5295 14.3767C19.4653 14.3812 19.4026 14.3982 19.3451 14.427C19.2875 14.4558 19.2363 14.4957 19.1942 14.5444V15.4384H19.1663ZM19.1663 14.4606C19.3194 14.3169 19.516 14.2284 19.7251 14.2091C19.8214 14.2138 19.9157 14.2382 20.0023 14.2806C20.0889 14.323 20.166 14.3827 20.2287 14.4559C20.2915 14.5291 20.3386 14.6144 20.3673 14.7064C20.396 14.7985 20.4056 14.8955 20.3956 14.9914C20.4023 15.231 20.3157 15.4639 20.1542 15.6411C19.9927 15.8182 19.7688 15.9258 19.5295 15.9413C19.3512 15.9504 19.1747 15.9013 19.0267 15.8015L18.9149 15.8854L18.8311 15.8574C18.8636 15.6447 18.8822 15.43 18.887 15.2149V13.6504C18.887 13.3989 18.8311 13.3989 18.6914 13.371V13.3151C18.826 13.2695 18.9567 13.2134 19.0825 13.1474C19.0936 13.1368 19.1068 13.1288 19.1213 13.124C19.1358 13.1191 19.1512 13.1176 19.1663 13.1195C19.1943 13.1195 19.1943 13.1474 19.1943 13.1754V14.4605L19.1663 14.4606Z" fill="#004A97"/>
<path d="M3.35303 17.9807H3.38096C3.46477 17.9807 3.52065 17.9807 3.52065 17.869V16.8353C3.52065 16.7236 3.43684 16.7236 3.38096 16.7236H3.35303V16.6677H3.96763V16.7236H3.93974C3.8559 16.7236 3.80002 16.7236 3.80002 16.8353V17.869C3.80002 17.9807 3.8559 17.9807 3.93974 17.9807H3.96763V18.0366H3.38091V17.9807H3.35303Z" fill="#006AC9"/>
<path d="M3.96763 18.0366V17.9807H3.93974C3.8559 17.9807 3.77207 17.9807 3.77207 17.869V16.8353C3.77207 16.7236 3.8559 16.7236 3.93974 16.7236H3.96763V16.6677H3.38091V16.7236H3.40886C3.49267 16.7236 3.57648 16.7236 3.57648 16.8353V17.869C3.57648 17.9807 3.49267 17.9807 3.40886 17.9807H3.38096V18.0366H3.96768L3.96763 18.0366ZM3.96763 18.0645H3.38091V17.9807H3.40886C3.49267 17.9807 3.54853 17.9807 3.54853 17.869V16.8353C3.54853 16.7236 3.49267 16.7236 3.40886 16.7236H3.35303V16.6677H3.96763V16.7236H3.93974C3.8559 16.7236 3.80002 16.7236 3.80002 16.8353V17.869C3.80002 17.9807 3.8559 17.9807 3.93974 17.9807H3.96763V18.0645Z" fill="#006AC9"/>
<path d="M5.33695 17.6454V16.8911C5.33695 16.7235 5.22516 16.6955 5.16932 16.6955H5.11338V16.6396H5.6442V16.6955H5.61628C5.53248 16.6955 5.44865 16.7235 5.44865 16.947V18.0365H5.36486L4.33114 16.8911V17.7013C4.33114 17.8689 4.35909 17.9248 4.52671 17.9248H4.55466V17.9807H4.05176C4.19144 17.9807 4.21938 17.8969 4.21938 17.7292V16.8911C4.22032 16.8689 4.21662 16.8466 4.20853 16.8259C4.20044 16.8051 4.18812 16.7863 4.17237 16.7705C4.15661 16.7548 4.13776 16.7424 4.11699 16.7344C4.09623 16.7263 4.07402 16.7226 4.05176 16.7235V16.6676H4.44283L5.33695 17.6454Z" fill="#006AC9"/>
<path d="M5.36494 18.0645H5.4208V16.975C5.4208 16.7236 5.53257 16.7236 5.61637 16.7236H5.64431V16.6677H5.14144V16.7236H5.16939C5.19543 16.7222 5.22148 16.7263 5.24583 16.7356C5.27019 16.745 5.2923 16.7593 5.31075 16.7778C5.32919 16.7962 5.34355 16.8183 5.35288 16.8427C5.36222 16.867 5.36633 16.8931 5.36494 16.9191V17.6734L4.47101 16.6677H4.07982V16.7236H4.10776C4.15852 16.7269 4.20633 16.7486 4.2423 16.7846C4.27827 16.8205 4.29995 16.8684 4.30332 16.9191V17.7572C4.30332 17.9249 4.24744 18.0087 4.10776 18.0087H4.07982V18.0645H4.58269V18.0087H4.5268C4.35917 18.0087 4.33123 17.9528 4.33123 17.7572V16.9191L5.36494 18.0645ZM5.44874 18.0925H5.36494L4.35917 16.975V17.7852C4.35917 17.9528 4.38712 18.0087 4.5268 18.0087H4.58269V18.0645H4.05187V17.9808H4.07982C4.2195 17.9808 4.24744 17.8969 4.24744 17.7293V16.8912C4.24837 16.8689 4.24468 16.8467 4.23658 16.826C4.22849 16.8052 4.21617 16.7863 4.20042 16.7706C4.18466 16.7548 4.16581 16.7425 4.14505 16.7344C4.12429 16.7263 4.10208 16.7226 4.07982 16.7236H4.02393V16.6677H4.44295L5.309 17.6455V16.9191C5.309 16.7515 5.19727 16.7515 5.14138 16.7515H5.11349V16.6956H5.64431V16.7515H5.61639C5.53259 16.7515 5.44877 16.7515 5.44877 17.0029V18.0925L5.44874 18.0925Z" fill="#006AC9"/>
<path d="M5.95113 16.7514C5.81145 16.7514 5.78351 16.7793 5.75556 16.919H5.69971C5.69971 16.8631 5.72765 16.8072 5.72765 16.7514V16.5837H5.78351C5.81145 16.6396 5.83939 16.6396 5.89528 16.6396H6.92897C6.98481 16.6396 7.0407 16.6396 7.0407 16.5837H7.09658C7.09658 16.6396 7.06865 16.6955 7.06865 16.7514V16.919L7.01275 16.9469C7.01275 16.8631 7.01275 16.7514 6.87308 16.7514H6.53783V17.813C6.53783 17.9527 6.59372 17.9806 6.70545 17.9806H6.7334V18.0365H6.0629V17.9806H6.09081C6.20258 17.9806 6.25847 17.9806 6.25847 17.813V16.7514L5.95113 16.7514Z" fill="#006AC9"/>
<path d="M6.7334 18.0645H6.0629V17.9807H6.09081C6.20258 17.9807 6.25847 17.9807 6.25847 17.8131V16.7514H6.28638V17.8131C6.28638 17.9807 6.23052 17.9807 6.11875 17.9807H6.09081V18.0365H6.42609C6.52932 18.0319 6.63269 18.0413 6.7334 18.0645V18.0086H6.70545C6.68263 18.0121 6.65932 18.0102 6.63738 18.003C6.61545 17.9958 6.59552 17.9836 6.5792 17.9672C6.56288 17.9509 6.55063 17.931 6.54344 17.909C6.53625 17.8871 6.53433 17.8638 6.53783 17.841V16.7793H6.87308C7.01275 16.7793 7.01275 16.8911 7.0407 16.9749L7.09658 16.947V16.7793C7.08928 16.7309 7.09917 16.6815 7.12452 16.6397H7.09658C7.09658 16.6956 7.0407 16.6956 6.98481 16.6956H5.95113C5.89528 16.6956 5.83939 16.6956 5.83939 16.6397H5.75556V16.8072C5.75556 16.8631 5.72765 16.919 5.72765 16.9749H5.78351C5.81145 16.8352 5.83939 16.7793 5.97908 16.8072C5.83939 16.8072 5.83939 16.8352 5.81145 16.9749H5.69971C5.69971 16.919 5.72765 16.8631 5.72765 16.8072V16.6396H5.78351C5.78351 16.6955 5.83939 16.6955 5.89528 16.6955H6.92897C6.98481 16.6955 7.01275 16.6955 7.0407 16.6396H7.09658C7.09658 16.6955 7.06865 16.7514 7.06865 16.8073V16.9749H6.98481C6.98481 16.8911 6.98481 16.7793 6.84513 16.7793H6.53783V17.841C6.53783 17.9807 6.59372 18.0086 6.70545 18.0086H6.76129L6.7334 18.0645Z" fill="#006AC9"/>
<path d="M7.15283 17.9807H7.18078C7.2646 17.9807 7.32049 17.9807 7.32049 17.869V16.8353C7.32049 16.7236 7.23667 16.7236 7.18078 16.7236H7.15283V16.6677H8.15861V16.975H8.10272C8.10272 16.8353 8.07478 16.7515 7.85131 16.7515H7.5719V17.2823H7.82337C7.9351 17.2823 7.96304 17.2264 7.99099 17.1147H8.04683V17.5617H7.99099C7.99099 17.4499 7.96304 17.3661 7.82337 17.3661H7.5719V17.841C7.5719 17.9807 7.68365 17.9807 7.82337 17.9807C8.07478 17.9807 8.15861 17.9528 8.2424 17.7293H8.29829C8.26859 17.8294 8.24984 17.9324 8.2424 18.0366H7.18078V17.9807H7.15283Z" fill="#006AC9"/>
<path d="M8.21447 18.0366C8.24237 17.9248 8.24238 17.841 8.27032 17.7293H8.2424C8.18655 17.9528 8.07478 17.9807 7.82337 17.9807C7.7116 17.9807 7.5719 17.9807 7.5719 17.841V17.3661H7.82337C7.96304 17.3661 7.96304 17.4499 7.99099 17.5617H8.04683V17.1147H7.99099C7.99424 17.1375 7.99214 17.1607 7.98487 17.1825C7.9776 17.2043 7.96534 17.2241 7.94908 17.2404C7.93282 17.2567 7.91299 17.2689 7.89117 17.2762C7.86935 17.2835 7.84614 17.2856 7.82337 17.2823H7.5719V16.7515H7.85131C8.04683 16.7515 8.10272 16.8632 8.10272 16.975H8.15861V16.6956H7.18078V16.7515H7.20872C7.29255 16.7515 7.37635 16.7515 7.37635 16.8633V17.8969C7.37635 18.0087 7.29255 18.0087 7.20872 18.0087H7.18078V18.0646H7.7116C7.87815 18.0413 8.04636 18.032 8.21447 18.0366V18.0366ZM8.21447 18.0645H7.15283V17.9807H7.18078C7.2646 17.9807 7.32049 17.9807 7.32049 17.869V16.8353C7.32049 16.7515 7.2646 16.7236 7.18078 16.7236H7.15283V16.6677H8.15861V16.975L8.10272 17.0029C8.10272 16.8632 8.07478 16.7794 7.87922 16.7794H7.59989V17.2823H7.8234C7.93514 17.2823 7.96308 17.2264 7.96308 17.1147H8.01894V17.5617H7.96304C7.96304 17.4499 7.9351 17.3661 7.82337 17.3661H7.59985V17.8131C7.59985 17.9249 7.7116 17.9249 7.82337 17.9249C8.07478 17.9249 8.15861 17.9249 8.21449 17.7013L8.27035 17.7293C8.26537 17.8429 8.2466 17.9555 8.21447 18.0645V18.0645Z" fill="#006AC9"/>
<path d="M8.80102 17.3382H8.88482C8.92672 17.345 8.96963 17.3417 9.01002 17.3287C9.05041 17.3156 9.08712 17.2932 9.11713 17.2632C9.14714 17.2332 9.16959 17.1964 9.18263 17.1561C9.19567 17.1157 9.19892 17.0728 9.19212 17.0309C9.19437 16.9936 9.18869 16.9563 9.17544 16.9214C9.1622 16.8865 9.1417 16.8547 9.1153 16.8283C9.0889 16.8019 9.0572 16.7815 9.02229 16.7682C8.98738 16.755 8.95006 16.7493 8.91279 16.7515H8.80102V17.3382ZM8.5496 16.8632C8.5496 16.7236 8.46578 16.7236 8.40992 16.7236H8.38195V16.6677H8.99655C9.24802 16.6677 9.47152 16.7236 9.47152 17.0309C9.46589 17.1122 9.43637 17.19 9.38667 17.2546C9.33696 17.3193 9.26929 17.3677 9.19212 17.394L9.52737 17.8969C9.5434 17.9343 9.57116 17.9654 9.60645 17.9855C9.64173 18.0057 9.68263 18.0138 9.72294 18.0087V18.0645H9.33184C9.19212 17.869 9.05251 17.6455 8.91277 17.422H8.77309V17.841C8.76959 17.8638 8.77151 17.8872 8.7787 17.9091C8.78588 17.931 8.79813 17.951 8.81445 17.9673C8.83077 17.9836 8.85071 17.9959 8.87264 18.0031C8.89458 18.0103 8.9179 18.0122 8.94071 18.0087H8.96865V18.0645H8.354V17.9808H8.38195C8.46575 17.9808 8.52163 17.9528 8.52163 17.869V16.8632L8.5496 16.8632Z" fill="#006AC9"/>
<path d="M8.91314 17.3381C9.10871 17.3381 9.22045 17.2823 9.22045 17.0308C9.22269 16.9936 9.21701 16.9563 9.20376 16.9213C9.19052 16.8864 9.17002 16.8547 9.14362 16.8283C9.11722 16.8019 9.08552 16.7814 9.05061 16.7682C9.0157 16.755 8.97838 16.7493 8.94111 16.7515H8.8293V17.3382L8.91314 17.3381ZM8.80137 17.3381V16.7235H8.91314C8.95404 16.7215 8.9949 16.7281 9.03311 16.7428C9.07131 16.7575 9.10601 16.7801 9.13496 16.809C9.16391 16.838 9.18647 16.8727 9.2012 16.9109C9.21592 16.9491 9.22248 16.99 9.22045 17.0308C9.22045 17.2823 9.10871 17.3381 8.91314 17.3381H8.80137ZM8.80137 17.394H8.94109C9.06437 17.6185 9.20444 17.8333 9.36012 18.0366H9.75126V17.9807C9.71143 17.9825 9.67192 17.9729 9.6373 17.9532C9.60269 17.9334 9.57439 17.9042 9.55569 17.869L9.22045 17.3382C9.29777 17.3215 9.36728 17.2794 9.41792 17.2187C9.46856 17.1579 9.4974 17.082 9.49984 17.0029C9.49984 16.7236 9.27634 16.6677 9.02487 16.6677H8.41027V16.7236H8.43822C8.49407 16.7236 8.57789 16.7236 8.57789 16.8912V17.8969C8.57789 17.9807 8.49407 18.0087 8.43822 18.0087H8.38232V18.0645H8.99693V18.0087H8.96902C8.8852 18.0087 8.80137 18.0087 8.80137 17.841V17.394ZM9.75126 18.0645H9.36012C9.22044 17.869 9.08079 17.6455 8.94109 17.422H8.8293V17.841C8.8293 17.9807 8.8852 17.9807 8.99693 17.9807H9.05282V18.0366H8.43822V17.9807H8.46612C8.54995 17.9807 8.60584 17.9528 8.60584 17.869V16.8632C8.60584 16.7236 8.522 16.7236 8.46612 16.7236H8.38232V16.6677H8.99693C9.24839 16.6677 9.47189 16.7515 9.47189 17.0309C9.46627 17.1122 9.43675 17.19 9.38704 17.2546C9.33734 17.3193 9.26966 17.3677 9.1925 17.394L9.52775 17.8969C9.54378 17.9343 9.57154 17.9654 9.60682 17.9855C9.64211 18.0057 9.683 18.0138 9.72332 18.0087L9.75126 18.0645Z" fill="#006AC9"/>
<path d="M11.0923 17.6454V16.8911C11.0923 16.7235 10.9806 16.6955 10.9247 16.6955H10.8688V16.6396H11.3996V16.6955H11.3717C11.2879 16.6955 11.2041 16.7235 11.2041 16.947V18.0365H11.1203L10.0866 16.8911V17.7013C10.0866 17.8689 10.1145 17.9248 10.2822 17.9248H10.3381V17.9807H9.83519C9.97487 17.9807 10.0028 17.8969 10.0028 17.7292V16.8911C10.0028 16.7793 9.91897 16.7235 9.80724 16.7235H9.7793V16.6676H10.1704L11.0923 17.6454Z" fill="#006AC9"/>
<path d="M11.1203 18.0645H11.1762V16.9749C11.1762 16.7235 11.288 16.7235 11.3717 16.7235H11.3996V16.6676H10.8967V16.7235H10.9247C10.9507 16.7221 10.9768 16.7262 11.0011 16.7355C11.0255 16.7449 11.0476 16.7592 11.066 16.7777C11.0845 16.7961 11.0988 16.8182 11.1082 16.8426C11.1175 16.8669 11.1216 16.893 11.1202 16.919V17.6733L10.2262 16.6675H9.83512V16.7234H9.86303C9.91379 16.7268 9.96161 16.7485 9.99758 16.7844C10.0336 16.8204 10.0552 16.8682 10.0586 16.919V17.7571C10.0586 17.9247 10.0027 18.0086 9.86303 18.0086H9.83512V18.0644H10.338V18.0086H10.3101C10.1424 18.0086 10.1145 17.9527 10.1145 17.7571V16.919L11.1203 18.0645ZM11.2041 18.0924H11.1203L10.1145 16.9749V17.7851C10.1145 17.9527 10.1425 18.0086 10.2822 18.0086H10.3381V18.0645H9.80724V17.9807H9.83519C9.97487 17.9807 10.0028 17.8968 10.0028 17.7292V16.8911C10.0037 16.8688 10 16.8466 9.99195 16.8259C9.98386 16.8051 9.97154 16.7863 9.95579 16.7705C9.94003 16.7548 9.92118 16.7424 9.90042 16.7343C9.87966 16.7263 9.85745 16.7226 9.83519 16.7235H9.7793V16.6676H10.1984L11.0644 17.6454V16.919C11.0644 16.7514 10.9527 16.7514 10.8968 16.7514H10.841V16.6955H11.3718V16.7514H11.3438C11.26 16.7514 11.1761 16.7514 11.1761 17.0028V17.8968C11.2011 17.9588 11.2107 18.0259 11.2041 18.0924H11.2041Z" fill="#006AC9"/>
<path d="M12.0142 16.8912L11.8186 17.45H12.1818L12.0142 16.8912ZM11.7348 17.7573C11.7038 17.8082 11.6847 17.8655 11.6789 17.9249C11.6789 17.9808 11.7627 17.9808 11.8186 17.9808H11.8465V18.0366H11.3716V17.9808C11.4111 17.9796 11.4491 17.9652 11.4795 17.9399C11.5098 17.9145 11.5309 17.8798 11.5392 17.8411L11.8466 16.9192L11.9304 16.6677C11.9863 16.6398 12.0701 16.6118 12.126 16.5839H12.1539C12.1539 16.6118 12.1539 16.6118 12.1818 16.6398L12.5729 17.7014C12.6009 17.7573 12.6288 17.8411 12.6568 17.897C12.6669 17.9249 12.6863 17.9484 12.7117 17.9637C12.7372 17.979 12.7671 17.985 12.7965 17.9808V18.0366H12.2097V17.9808H12.2377C12.2936 17.9808 12.3494 17.9808 12.3494 17.9249C12.3374 17.8789 12.3281 17.8323 12.3215 17.7852L12.2377 17.5617H11.7907L11.7348 17.7573Z" fill="#006AC9"/>
<path d="M11.8465 17.45H12.2097L12.0142 16.8912L11.8465 17.45ZM11.8186 17.45L12.0142 16.8632L12.2097 17.45H11.8186ZM12.2097 18.0366H12.7685V17.9808C12.7397 17.9813 12.7113 17.9737 12.6866 17.9589C12.6619 17.9441 12.6419 17.9226 12.6288 17.897C12.5897 17.8394 12.5701 17.7709 12.5729 17.7014L12.2097 16.6677C12.2097 16.6398 12.2097 16.6398 12.1818 16.6118C12.1289 16.6453 12.0727 16.6734 12.0142 16.6957C11.999 16.7832 11.9707 16.8679 11.9303 16.9471L11.623 17.869C11.6086 17.9095 11.5822 17.9446 11.5472 17.9696C11.5122 17.9946 11.4704 18.0082 11.4275 18.0087V18.0646H11.8465V18.0087C11.7907 18.0087 11.6789 18.0087 11.6789 17.9249C11.693 17.8676 11.7117 17.8116 11.7348 17.7573L11.7907 17.5338H12.2656L12.3494 17.7573C12.3697 17.801 12.3792 17.8488 12.3773 17.897C12.3773 17.9528 12.2935 17.9528 12.2376 17.9528V18.0366L12.2097 18.0366ZM12.7964 18.0646H12.2097V17.9808H12.2376C12.2935 17.9808 12.3494 17.9808 12.3494 17.9249C12.3374 17.8789 12.328 17.8323 12.3215 17.7852L12.2376 17.5617H11.7907L11.7348 17.7573C11.7088 17.8005 11.6899 17.8477 11.6789 17.897C11.6789 17.9528 11.7627 17.9528 11.8186 17.9528H11.8465V18.0087H11.3716V17.9808C11.4072 17.9799 11.4419 17.9689 11.4716 17.9492C11.5012 17.9294 11.5247 17.9016 11.5392 17.869L11.8466 16.9471L11.9304 16.6957C11.989 16.6734 12.0451 16.6453 12.098 16.6118H12.1539C12.1539 16.6398 12.1539 16.6398 12.1818 16.6677L12.5729 17.7014C12.5957 17.7687 12.6238 17.8341 12.6568 17.897C12.6847 17.9528 12.7127 17.9808 12.7685 17.9808H12.7965L12.7964 18.0646Z" fill="#006AC9"/>
<path d="M12.8798 16.7514C12.7401 16.7514 12.7122 16.7793 12.6843 16.919H12.6284C12.6284 16.8631 12.6564 16.8072 12.6564 16.7514V16.5837H12.7122C12.7401 16.6396 12.7681 16.6396 12.824 16.6396H13.8577C13.9136 16.6396 13.9694 16.6396 13.9694 16.5837H14.0253C14.0253 16.6396 13.9973 16.6955 13.9973 16.7514V16.919L13.9415 16.9469C13.9415 16.8631 13.9136 16.7514 13.8018 16.7514H13.4665V17.813C13.4665 17.9527 13.5224 17.9806 13.6342 17.9806H13.6621V18.0365H12.9916V17.9806H13.0196C13.1313 17.9806 13.1872 17.9806 13.1872 17.813V16.7514L12.8798 16.7514Z" fill="#006AC9"/>
<path d="M13.6623 18.0645H12.9918V17.9807H13.0197C13.1315 17.9807 13.1594 17.9807 13.1874 17.8131V16.7514H13.2153V17.8131C13.2153 17.9807 13.1594 17.9807 13.0477 17.9807H13.0197V18.0365H13.355C13.4582 18.0319 13.5616 18.0413 13.6623 18.0645V18.0086H13.6343C13.6115 18.0121 13.5882 18.0102 13.5663 18.003C13.5443 17.9958 13.5244 17.9836 13.5081 17.9672C13.4918 17.9509 13.4795 17.931 13.4723 17.909C13.4651 17.8871 13.4632 17.8638 13.4667 17.841V16.7793H13.802C13.9417 16.7793 13.9417 16.8911 13.9696 16.9749L14.0255 16.947V16.7793C14.0182 16.7309 14.0281 16.6815 14.0534 16.6397H14.0255C14.0255 16.6956 13.9696 16.6956 13.9137 16.6956H12.88C12.8242 16.6956 12.7962 16.6956 12.7683 16.6397H12.7403V16.8072C12.7403 16.8631 12.7124 16.919 12.7124 16.9749H12.7683C12.7962 16.8352 12.8242 16.7793 12.9639 16.8072C12.8242 16.8072 12.8242 16.8352 12.7962 16.9749H12.7124C12.7124 16.919 12.7403 16.8631 12.7403 16.8072V16.6396H12.7962C12.7962 16.6955 12.8521 16.6955 12.908 16.6955H13.9417C13.9975 16.6955 14.0255 16.6955 14.0534 16.6396H14.1093C14.1093 16.6955 14.0814 16.7514 14.0814 16.8073V16.9749L13.9975 17.0028C13.9975 16.919 13.9975 16.8073 13.8579 16.8073H13.5505V17.8689C13.5505 18.0086 13.6064 18.0365 13.7182 18.0365H13.774L13.6623 18.0645Z" fill="#006AC9"/>
<path d="M14.0815 17.9807C14.1933 17.9807 14.2492 17.9807 14.2492 17.869V16.8353C14.2492 16.7236 14.1653 16.7236 14.1095 16.7236H14.0815V16.6677H14.6961V16.7236H14.6682C14.5844 16.7236 14.5285 16.7236 14.5285 16.8353V17.869C14.5285 17.9807 14.6123 17.9807 14.6682 17.9807H14.6961V18.0366H14.1095V17.9807H14.0815Z" fill="#006AC9"/>
<path d="M14.696 18.0366V17.9807H14.6681C14.5843 17.9807 14.5005 17.9807 14.5005 17.869V16.8353C14.5005 16.7236 14.5843 16.7236 14.6681 16.7236H14.696V16.6677H14.1094V16.7236H14.1373C14.2211 16.7236 14.3049 16.7236 14.3049 16.8353V17.869C14.3049 17.9807 14.2211 17.9807 14.1373 17.9807H14.1094V18.0366H14.696V18.0366ZM14.696 18.0645H14.1094V17.9807H14.1373C14.2211 17.9807 14.277 17.9807 14.277 17.869V16.8353C14.277 16.7515 14.2211 16.7236 14.1373 16.7236H14.1094V16.6677H14.724V16.7236H14.696C14.6122 16.7236 14.5564 16.7236 14.5564 16.8353V17.869C14.5564 17.9528 14.6122 17.9807 14.696 17.9807H14.724L14.696 18.0645Z" fill="#006AC9"/>
<path d="M15.5339 17.9808C15.925 17.9808 15.9809 17.6455 15.9809 17.3382C15.9809 17.0589 15.8133 16.6956 15.506 16.6956C15.1428 16.6956 15.059 17.0029 15.059 17.2824C15.031 17.6455 15.1986 17.9808 15.5339 17.9808ZM15.506 16.6397C15.6026 16.6307 15.7 16.6421 15.7919 16.6732C15.8838 16.7043 15.968 16.7545 16.0392 16.8204C16.1104 16.8863 16.1669 16.9665 16.205 17.0557C16.2431 17.1449 16.2619 17.2412 16.2603 17.3382C16.2631 17.438 16.2455 17.5373 16.2085 17.6301C16.1716 17.7229 16.1162 17.8072 16.0456 17.8778C15.9749 17.9484 15.8907 18.0038 15.7979 18.0408C15.7051 18.0777 15.6058 18.0953 15.506 18.0925C15.4077 18.0985 15.3093 18.084 15.217 18.0499C15.1246 18.0159 15.0403 17.9631 14.9694 17.8948C14.8985 17.8266 14.8426 17.7443 14.8051 17.6533C14.7676 17.5623 14.7494 17.4645 14.7516 17.3661C14.7518 17.2684 14.7716 17.1717 14.8099 17.0818C14.8482 16.9919 14.9043 16.9106 14.9747 16.8429C15.045 16.7751 15.1284 16.7222 15.2197 16.6873C15.3109 16.6524 15.4083 16.6362 15.506 16.6397V16.6397Z" fill="#006AC9"/>
<path d="M15.0308 17.2824C15.0308 17.003 15.1426 16.6956 15.5058 16.6956C15.841 16.6956 16.0086 17.0588 16.0086 17.3382C16.0086 17.6175 15.9528 17.9808 15.5337 17.9808C15.9249 17.9808 15.9807 17.6455 15.9807 17.3661C15.9807 17.0867 15.8131 16.7236 15.5058 16.7236C15.1426 16.7236 15.0588 17.0309 15.0308 17.2823C15.0588 17.6455 15.1984 17.9808 15.5337 17.9808C15.1984 18.0087 15.0308 17.6456 15.0308 17.2824ZM14.7515 17.3662C14.7511 17.267 14.7703 17.1687 14.8081 17.077C14.8458 16.9853 14.9014 16.902 14.9715 16.8318C15.0416 16.7617 15.1249 16.7062 15.2166 16.6684C15.3084 16.6306 15.4066 16.6114 15.5058 16.6118C15.3085 16.6204 15.1216 16.7027 14.982 16.8423C14.8423 16.982 14.7601 17.1689 14.7515 17.3662C14.7545 17.4618 14.7765 17.5558 14.8162 17.6428C14.8558 17.7299 14.9124 17.8081 14.9826 17.8731C15.0528 17.9381 15.1352 17.9885 15.225 18.0214C15.3148 18.0542 15.4103 18.0689 15.5058 18.0646C15.6056 18.0674 15.705 18.0498 15.7977 18.0128C15.8905 17.9759 15.9748 17.9204 16.0454 17.8498C16.116 17.7792 16.1715 17.695 16.2084 17.6022C16.2453 17.5094 16.2629 17.4101 16.2601 17.3103C16.2587 17.2154 16.2375 17.1218 16.198 17.0355C16.1584 16.9493 16.1014 16.8722 16.0304 16.8091C15.9595 16.7461 15.8762 16.6985 15.7859 16.6693C15.6956 16.6401 15.6002 16.6301 15.5058 16.6398C15.6034 16.6327 15.7013 16.6453 15.7939 16.6769C15.8865 16.7084 15.9718 16.7583 16.0448 16.8234C16.1177 16.8885 16.1769 16.9677 16.2187 17.0561C16.2605 17.1446 16.2841 17.2405 16.2881 17.3382C16.2937 17.4401 16.2783 17.542 16.2427 17.6376C16.2072 17.7332 16.1523 17.8204 16.0815 17.8938C16.0107 17.9673 15.9255 18.0253 15.8313 18.0643C15.737 18.1033 15.6357 18.1224 15.5338 18.1205C15.4325 18.1238 15.3316 18.1067 15.237 18.0703C15.1425 18.0339 15.0562 17.9789 14.9833 17.9086C14.9103 17.8383 14.8522 17.754 14.8124 17.6609C14.7726 17.5677 14.7519 17.4675 14.7515 17.3662H14.7515Z" fill="#006AC9"/>
<path d="M17.6016 17.6454V16.8911C17.6016 16.7235 17.4899 16.6955 17.434 16.6955H17.3781V16.6396H17.9089V16.6955H17.881C17.7972 16.6955 17.7134 16.7235 17.7134 16.947V18.0365H17.6296L16.5959 16.8911V17.7013C16.5959 17.8689 16.6239 17.9248 16.7915 17.9248H16.8194V17.9807H16.3165C16.4562 17.9807 16.4841 17.8969 16.4841 17.7292V16.8911C16.485 16.8689 16.4813 16.8466 16.4733 16.8259C16.4652 16.8051 16.4528 16.7863 16.4371 16.7705C16.4213 16.7548 16.4025 16.7424 16.3817 16.7344C16.361 16.7263 16.3387 16.7226 16.3165 16.7235H16.2886V16.6676H16.6797L17.6016 17.6454Z" fill="#006AC9"/>
<path d="M17.629 18.0645H17.6849V16.9749C17.6849 16.7235 17.7967 16.7235 17.8805 16.7235H17.9084V16.6676H17.4055V16.7235H17.4335C17.4595 16.7221 17.4856 16.7262 17.5099 16.7355C17.5343 16.7449 17.5564 16.7592 17.5748 16.7777C17.5933 16.7961 17.6076 16.8182 17.617 16.8426C17.6263 16.8669 17.6304 16.893 17.629 16.919V17.6733L16.735 16.6675H16.3439V16.7234H16.3718C16.4226 16.7268 16.4704 16.7485 16.5064 16.7844C16.5424 16.8204 16.564 16.8682 16.5674 16.919V17.7571C16.5674 17.9247 16.5115 18.0086 16.3718 18.0086H16.3439V18.0644H16.8468V18.0086H16.8189C16.6512 18.0086 16.6233 17.9527 16.6233 17.7571V16.919L17.629 18.0645ZM17.7129 18.0924H17.629L16.6233 16.9749V17.7851C16.6233 17.9527 16.6512 18.0086 16.7909 18.0086H16.8468V18.0645H16.3159V17.9807H16.3439C16.4835 17.9807 16.5115 17.8968 16.5115 17.7292V16.8911C16.5124 16.8688 16.5087 16.8466 16.5006 16.8259C16.4925 16.8051 16.4802 16.7863 16.4645 16.7705C16.4487 16.7547 16.4299 16.7424 16.4091 16.7343C16.3883 16.7262 16.3661 16.7225 16.3439 16.7235H16.3159V16.6676H16.735L17.601 17.6454V16.919C17.601 16.7514 17.4893 16.7514 17.4334 16.7514H17.3775V16.6955H17.9083V16.7514H17.8804C17.7966 16.7514 17.7128 16.7514 17.7128 17.0028V18.0924L17.7129 18.0924Z" fill="#006AC9"/>
<path d="M18.5234 16.8912L18.3279 17.45H18.719L18.5234 16.8912ZM18.2441 17.7573C18.2131 17.8082 18.194 17.8655 18.1882 17.9249C18.1882 17.9808 18.272 17.9808 18.3279 17.9808H18.3558V18.0366H17.8809V17.9808C17.9204 17.9796 17.9584 17.9652 17.9887 17.9399C18.0191 17.9145 18.0401 17.8798 18.0485 17.8411L18.3558 16.9192L18.4396 16.6677C18.4955 16.6398 18.5793 16.6118 18.6352 16.5839H18.6631C18.6631 16.6118 18.6631 16.6118 18.691 16.6398L19.0542 17.6735C19.0822 17.7293 19.1101 17.8132 19.1381 17.869C19.166 17.9808 19.2219 17.9808 19.2777 17.9808V18.0366H18.691V17.9808H18.719C18.7749 17.9808 18.8307 17.9808 18.8307 17.9249C18.8187 17.8789 18.8094 17.8323 18.8028 17.7852L18.719 17.5617H18.272L18.2441 17.7573Z" fill="#006AC9"/>
<path d="M18.3558 17.45H18.691L18.5234 16.9191L18.3558 17.45ZM18.3279 17.45L18.5234 16.8632L18.719 17.45H18.3279ZM18.719 18.0366H19.2777V17.9808C19.2489 17.9813 19.2206 17.9737 19.1959 17.9589C19.1712 17.9441 19.1511 17.9226 19.1381 17.897C19.1101 17.8411 19.0822 17.7573 19.0542 17.7014L18.691 16.6677C18.691 16.6398 18.691 16.6398 18.6631 16.6118C18.6102 16.6453 18.554 16.6734 18.4955 16.6957C18.4803 16.7832 18.452 16.8679 18.4117 16.9471L18.1044 17.869C18.0923 17.9056 18.0702 17.9382 18.0405 17.9628C18.0109 17.9875 17.9749 18.0034 17.9367 18.0087V18.0646H18.3558V18.0087C18.2999 18.0087 18.1882 18.0087 18.1882 17.9249C18.2023 17.8676 18.221 17.8116 18.2441 17.7573L18.2999 17.5338H18.7749L18.8587 17.7573C18.8789 17.801 18.8885 17.8488 18.8866 17.897C18.8866 17.9528 18.8028 17.9528 18.7469 17.9528V18.0366L18.719 18.0366ZM19.3057 18.0646H18.719V17.9808H18.7469C18.8028 17.9808 18.8587 17.9808 18.8587 17.9249C18.8466 17.8789 18.8373 17.8323 18.8307 17.7852L18.7469 17.5617H18.2999L18.2441 17.7573C18.2181 17.8005 18.1992 17.8477 18.1882 17.897C18.1882 17.9528 18.272 17.9528 18.3279 17.9528H18.3558V18.0087H17.8809V17.9808C17.9165 17.9799 17.9512 17.9689 17.9808 17.9492C18.0105 17.9294 18.034 17.9016 18.0485 17.869L18.3558 16.9471L18.4396 16.6957C18.4955 16.6677 18.5793 16.6398 18.6352 16.6118H18.691C18.691 16.6398 18.691 16.6398 18.719 16.6677L19.0822 17.7014C19.105 17.7687 19.133 17.8341 19.166 17.897C19.1939 17.9528 19.2219 17.9808 19.2777 17.9808H19.3057L19.3057 18.0646Z" fill="#006AC9"/>
<path d="M19.8084 17.8689C19.807 17.8839 19.8088 17.8991 19.8139 17.9133C19.819 17.9276 19.8272 17.9405 19.8379 17.9512C19.8486 17.9619 19.8615 17.97 19.8757 17.9751C19.89 17.9802 19.9051 17.9821 19.9202 17.9807H20.1716C20.211 17.9799 20.2495 17.9692 20.2837 17.9497C20.3178 17.9302 20.3465 17.9024 20.3672 17.8689C20.3932 17.8256 20.412 17.7785 20.423 17.7292H20.4789L20.3951 18.0645H19.3335V17.9807H19.3614C19.4452 17.9807 19.5011 17.9807 19.5011 17.841V16.8072C19.5011 16.6955 19.4173 16.6955 19.3614 16.6955H19.3335V16.6396H19.9481V16.6955H19.8922C19.8084 16.6955 19.7525 16.6955 19.7525 16.8073V17.8689H19.8084Z" fill="#006AC9"/>
<path d="M20.395 18.0366C20.423 17.9249 20.4509 17.8131 20.4788 17.7293H20.4509C20.4509 17.7852 20.423 17.8131 20.395 17.869C20.3744 17.9025 20.3457 17.9303 20.3115 17.9498C20.2774 17.9693 20.2388 17.98 20.1995 17.9807H19.948C19.8921 17.9807 19.8083 17.9528 19.8083 17.869V16.8353C19.8083 16.7236 19.8642 16.7236 19.948 16.7236H19.976V16.6677H19.3613V16.7236H19.3893C19.4731 16.7236 19.5569 16.7236 19.5569 16.8353V17.869C19.5569 18.0087 19.4731 18.0087 19.3893 18.0087H19.3613V18.0645H19.8921C20.0587 18.0413 20.2269 18.032 20.395 18.0366V18.0366ZM20.423 18.0645H19.3613V17.9808H19.3893C19.4731 17.9808 19.529 17.9808 19.529 17.869V16.8353C19.529 16.7515 19.4731 16.7236 19.3893 16.7236H19.3613V16.6677H19.976V16.7236H19.9201C19.8363 16.7236 19.7804 16.7236 19.7804 16.8353V17.869C19.7804 17.9528 19.8363 17.9528 19.8921 17.9808H20.1436C20.1821 17.9765 20.2193 17.9644 20.253 17.9452C20.2866 17.926 20.316 17.9 20.3392 17.869C20.3671 17.8131 20.395 17.7852 20.395 17.7293H20.4509C20.4695 17.8416 20.4598 17.9568 20.4229 18.0645H20.423Z" fill="#006AC9"/>
<path d="M20.4231 16.8072C20.479 16.8072 20.4789 16.7793 20.4789 16.7514C20.476 16.7302 20.4662 16.7106 20.451 16.6955H20.4231V16.8072ZM20.3672 16.919C20.3952 16.919 20.3952 16.919 20.3952 16.8911V16.7234C20.3952 16.6955 20.3952 16.6955 20.3672 16.6955H20.4789C20.5069 16.6955 20.5628 16.7234 20.5628 16.7514C20.5618 16.7659 20.5556 16.7795 20.5453 16.7898C20.535 16.8 20.5214 16.8062 20.5069 16.8072L20.5348 16.8631C20.5628 16.8911 20.5628 16.919 20.5907 16.919H20.5628C20.5348 16.919 20.5348 16.8911 20.4789 16.8352H20.451V16.8911C20.451 16.919 20.451 16.8911 20.4789 16.919H20.3672ZM20.451 16.9748C20.4842 16.9748 20.5166 16.965 20.5441 16.9466C20.5717 16.9282 20.5932 16.902 20.6059 16.8714C20.6186 16.8407 20.6219 16.807 20.6154 16.7745C20.6089 16.742 20.593 16.7121 20.5695 16.6887C20.5461 16.6653 20.5162 16.6493 20.4837 16.6428C20.4512 16.6364 20.4175 16.6397 20.3869 16.6524C20.3562 16.665 20.33 16.6865 20.3116 16.7141C20.2932 16.7417 20.2834 16.7741 20.2834 16.8072C20.3113 16.8911 20.3672 16.9749 20.451 16.9749V16.9748ZM20.451 16.6117C20.4805 16.6112 20.5097 16.6167 20.537 16.6278C20.5643 16.6389 20.5892 16.6553 20.61 16.6762C20.6308 16.697 20.6473 16.7218 20.6584 16.7491C20.6695 16.7764 20.6749 16.8057 20.6745 16.8352C20.6745 16.9748 20.5907 17.0307 20.451 17.0307C20.4232 17.0341 20.395 17.0316 20.3682 17.0234C20.3414 17.0152 20.3166 17.0014 20.2956 16.9829C20.2745 16.9644 20.2575 16.9418 20.2458 16.9163C20.2341 16.8908 20.2278 16.8632 20.2275 16.8352C20.2315 16.7772 20.2563 16.7226 20.2974 16.6815C20.3385 16.6404 20.393 16.6156 20.451 16.6117V16.6117Z" fill="#006AC9"/>
<path d="M15.73 9.06861C15.7231 8.18867 15.3721 7.34637 14.7522 6.72184C14.1489 6.34388 13.4525 6.14077 12.7407 6.13512H11.1203C10.6585 6.12345 10.1992 6.2058 9.77021 6.37716C9.34123 6.54853 8.95158 6.80533 8.62494 7.13197C8.2983 7.4586 8.04149 7.84825 7.87011 8.27722C7.69873 8.70619 7.61638 9.16553 7.62804 9.62732C7.63371 10.4615 7.94138 11.2654 8.49409 11.8903C9.07766 12.297 9.74665 12.5646 10.4497 12.6725C9.63784 12.5156 8.91662 12.0544 8.43365 11.3832C7.95068 10.712 7.74247 9.88166 7.85164 9.062C7.96082 8.24235 8.37911 7.49541 9.02092 6.97404C9.66274 6.45267 10.4795 6.19629 11.3042 6.25738C12.1288 6.31847 12.8989 6.6924 13.4569 7.30265C14.0149 7.9129 14.3185 8.71332 14.3058 9.54011C14.293 10.3669 13.9647 11.1576 13.3881 11.7502C12.8115 12.3429 12.0302 12.6929 11.204 12.7284H11.3437C12.4099 12.8209 13.4694 12.488 14.2911 11.8024C15.1128 11.1168 15.63 10.1341 15.73 9.06861V9.06861Z" fill="#004A97"/>
<path d="M11.092 6.13506C10.6302 6.12338 10.1709 6.20573 9.74189 6.37709C9.31292 6.54846 8.92327 6.80526 8.59663 7.13189C8.26999 7.45853 8.01317 7.84817 7.8418 8.27713C7.67042 8.7061 7.58806 9.16544 7.59972 9.62723C7.59568 10.4414 7.89439 11.228 8.43784 11.8343L8.52166 11.9181C9.10123 12.3131 9.75844 12.5798 10.4494 12.7004C9.63748 12.5435 8.91626 12.0823 8.43329 11.4111C7.95031 10.7399 7.74211 9.90951 7.85128 9.08986C7.96045 8.2702 8.37875 7.52326 9.02056 7.00189C9.66237 6.48052 10.4792 6.22415 11.3038 6.28524C12.1284 6.34632 12.8985 6.72025 13.4565 7.3305C14.0145 7.94075 14.3182 8.74117 14.3054 9.56797C14.2926 10.3948 13.9643 11.1854 13.3877 11.7781C12.8111 12.3708 12.0298 12.7207 11.2037 12.7563H11.3434C11.4836 12.7609 11.624 12.7515 11.7624 12.7283C12.6711 12.4839 13.4532 11.904 13.951 11.1055C14.4488 10.307 14.6251 9.34937 14.4445 8.42593C14.2965 7.55007 13.8527 6.75139 13.1873 6.16299C13.0489 6.1398 12.9085 6.13044 12.7682 6.13506H11.092Z" fill="#006AC9"/>
</g>
<defs>
<clipPath id="clip0_10317_147257">
<rect width="24" height="24" fill="white"/>
</clipPath>
</defs>
</svg>
