<svg width="24" height="24" viewBox="0 0 24 24" fill="none" xmlns="http://www.w3.org/2000/svg">
<path d="M18.8009 4.58014H5.1988C3.80025 4.58014 2.6665 5.71389 2.6665 7.11244V16.8873C2.6665 18.2858 3.80025 19.4196 5.1988 19.4196H18.8009C20.1995 19.4196 21.3332 18.2858 21.3332 16.8873V7.11244C21.3332 5.71389 20.1995 4.58014 18.8009 4.58014Z" fill="white"/>
<path d="M18.8008 19.4946H5.19922C4.50795 19.4938 3.84524 19.2188 3.35645 18.73C2.86765 18.2412 2.59266 17.5785 2.5918 16.8872V7.11279C2.59266 6.42153 2.86765 5.75882 3.35645 5.27002C3.84524 4.78122 4.50795 4.50623 5.19922 4.50537H18.8008C19.492 4.50623 20.1547 4.78122 20.6435 5.27002C21.1323 5.75882 21.4073 6.42153 21.4082 7.11279V16.8872C21.4073 17.5785 21.1323 18.2412 20.6435 18.73C20.1547 19.2188 19.492 19.4938 18.8008 19.4946ZM5.19922 4.65576C4.54784 4.65662 3.92339 4.91575 3.4628 5.37634C3.00221 5.83694 2.74307 6.46139 2.74222 7.11276V16.8872C2.74307 17.5386 3.00221 18.163 3.4628 18.6236C3.92339 19.0842 4.54784 19.3433 5.19922 19.3442H18.8008C19.4522 19.3433 20.0766 19.0842 20.5372 18.6236C20.9978 18.163 21.2569 17.5386 21.2578 16.8872V7.11279C21.2569 6.46142 20.9978 5.83697 20.5372 5.37637C20.0766 4.91578 19.4522 4.65665 18.8008 4.65579L5.19922 4.65576Z" fill="#E4E4E4"/>
<path d="M9.73297 10.1178C9.7301 10.4363 9.82523 10.7479 10.0055 11.0104C10.1857 11.2729 10.4423 11.4737 10.7405 11.5854V8.65033C10.4423 8.76204 10.1857 8.96277 10.0055 9.2253C9.82523 9.48782 9.7301 9.79942 9.73297 10.1178Z" fill="#006AC9"/>
<path d="M11.8574 8.65033V11.5854C12.1539 11.4711 12.4088 11.2697 12.5886 11.0077C12.7684 10.7458 12.8648 10.4356 12.865 10.1178C12.8678 9.79943 12.7727 9.48782 12.5925 9.2253C12.4122 8.96278 12.1556 8.76205 11.8574 8.65033Z" fill="#004A97"/>
<path d="M11.8574 11.5854C12.1539 11.471 12.4088 11.2697 12.5886 11.0077C12.7684 10.7458 12.8648 10.4356 12.865 10.1179L11.8574 11.5854Z" fill="#023563"/>
<path d="M12.5805 7.40185H11.3101C10.9481 7.3927 10.588 7.45726 10.2516 7.59162C9.91532 7.72597 9.60983 7.92731 9.35373 8.18339C9.09764 8.43948 8.8963 8.74496 8.76193 9.08128C8.62757 9.4176 8.563 9.77772 8.57214 10.1398C8.57497 10.4965 8.64805 10.8491 8.78719 11.1776C8.92633 11.506 9.12881 11.8038 9.38306 12.054C9.63732 12.3042 9.93837 12.5018 10.269 12.6357C10.5997 12.7695 10.9534 12.8368 11.3101 12.8339H12.5805C13.3114 12.84 14.0161 12.5628 14.547 12.0605C15.0779 11.5582 15.3936 10.8698 15.428 10.1398C15.4109 9.39995 15.1019 8.69692 14.5685 8.18401C14.035 7.6711 13.3204 7.38994 12.5805 7.40185ZM11.3101 12.593C10.8184 12.5909 10.3384 12.4429 9.9308 12.168C9.52318 11.893 9.20624 11.5033 9.02008 11.0482C8.83392 10.5931 8.78689 10.093 8.88494 9.61122C8.98298 9.12939 9.22171 8.68746 9.57092 8.34131C9.92014 7.99516 10.3642 7.76034 10.8468 7.66654C11.3295 7.57274 11.8291 7.62418 12.2826 7.81435C12.736 8.00451 13.1229 8.32487 13.3943 8.73491C13.6656 9.14494 13.8093 9.62624 13.8071 10.1179C13.7992 10.7757 13.5329 11.4039 13.0657 11.867C12.5985 12.3301 11.9679 12.5909 11.3101 12.593Z" fill="#023563"/>
<path d="M5.76822 14.6957C5.76822 14.9147 5.92155 14.9367 6.07487 14.9367C6.19106 14.9411 6.30683 14.9203 6.41425 14.8758C6.52167 14.8313 6.6182 14.7641 6.69724 14.6788C6.77628 14.5935 6.83596 14.4922 6.8722 14.3817C6.90844 14.2712 6.92038 14.1542 6.90721 14.0387C6.91635 13.9174 6.89957 13.7956 6.85797 13.6813C6.81638 13.567 6.75093 13.4629 6.66597 13.3759C6.58101 13.2888 6.4785 13.2209 6.36525 13.1766C6.252 13.1322 6.13061 13.1125 6.00915 13.1187C5.93542 13.1112 5.86093 13.1186 5.79015 13.1406V14.6957H5.76822ZM5.48347 13.3377C5.48347 13.0749 5.35205 13.0968 5.22063 13.0968V13.031H6.05297C6.19769 13.0137 6.34445 13.0276 6.48332 13.0719C6.62218 13.1162 6.74992 13.1898 6.85788 13.2877C6.96585 13.3856 7.05152 13.5056 7.10911 13.6395C7.16671 13.7734 7.19487 13.9181 7.1917 14.0638C7.18853 14.2096 7.1541 14.3529 7.09075 14.4842C7.02739 14.6154 6.93658 14.7316 6.82446 14.8247C6.71234 14.9178 6.58153 14.9858 6.44087 15.024C6.30021 15.0622 6.15298 15.0698 6.00915 15.0462H5.19873V14.9804C5.37396 14.9586 5.46157 14.9586 5.46157 14.7614V13.3377L5.48347 13.3377Z" fill="#004A97"/>
<path d="M7.63039 13.272C7.59299 13.2682 7.55849 13.2502 7.53402 13.2216C7.50955 13.1931 7.49699 13.1562 7.49894 13.1187C7.49924 13.084 7.51322 13.0509 7.53784 13.0265C7.56246 13.0021 7.59571 12.9884 7.63038 12.9884C7.66504 12.9884 7.6983 13.0021 7.72291 13.0265C7.74753 13.0509 7.76151 13.084 7.76181 13.1187C7.76376 13.1562 7.7512 13.1931 7.72674 13.2216C7.70228 13.2502 7.66778 13.2682 7.63039 13.272ZM7.32373 14.9586H7.38943C7.47706 14.9586 7.52085 14.9586 7.52085 14.871V14.0824C7.52085 13.951 7.47706 13.9291 7.36752 13.8853V13.8415C7.47249 13.8132 7.57504 13.7766 7.67419 13.732C7.68554 13.7195 7.70116 13.7116 7.71799 13.71C7.7399 13.71 7.7399 13.7319 7.7399 13.7538V14.849C7.7399 14.9367 7.80559 14.9367 7.89323 14.9367H7.93701V15.0024H7.32373V14.9586Z" fill="#004A97"/>
<path d="M8.19958 14.1043C8.19958 13.9948 8.17767 13.9729 8.02435 13.9072V13.8634C8.15576 13.8196 8.26528 13.7758 8.3967 13.7319C8.39959 13.7319 8.40247 13.7324 8.40516 13.7335C8.40784 13.7346 8.41028 13.7362 8.41233 13.7382C8.41437 13.7403 8.41598 13.7427 8.41706 13.7454C8.41814 13.7481 8.41866 13.751 8.4186 13.7538V13.951C8.55867 13.8258 8.73529 13.749 8.92237 13.7319C9.16337 13.7319 9.25094 13.9072 9.25094 14.1262V14.8709C9.25094 14.9586 9.31666 14.9586 9.40426 14.9586H9.44808V15.0242H8.83477V14.9586H8.87859C8.96619 14.9586 9.01 14.9586 9.01 14.8709V14.1262C9.01091 14.0924 9.00454 14.0588 8.99135 14.0277C8.97816 13.9966 8.95843 13.9687 8.93352 13.9458C8.9086 13.923 8.87907 13.9057 8.84692 13.8953C8.81478 13.8848 8.78076 13.8814 8.74717 13.8852C8.62813 13.8999 8.51492 13.9452 8.4186 14.0166V14.8709C8.4186 14.9585 8.4843 14.9585 8.57193 14.9585H8.61575V15.0242H8.00244V14.9585H8.06813C8.15576 14.9585 8.19958 14.9585 8.19958 14.8709V14.1043Z" fill="#004A97"/>
<path d="M10.1709 14.1481C10.2366 14.1481 10.2585 14.1044 10.2585 14.0824C10.2623 14.0489 10.2589 14.0149 10.2484 13.9827C10.238 13.9506 10.2208 13.921 10.1979 13.8961C10.1751 13.8712 10.1472 13.8515 10.1161 13.8383C10.0849 13.8251 10.0514 13.8187 10.0176 13.8196C9.93105 13.8216 9.84863 13.8568 9.78744 13.918C9.72625 13.9792 9.69099 14.0616 9.689 14.1481H10.1709ZM9.66709 14.2358V14.411C9.689 14.6738 9.86424 14.9148 10.0833 14.9148C10.1587 14.9096 10.2324 14.8895 10.3001 14.8557C10.3678 14.8218 10.4281 14.7749 10.4775 14.7176L10.5213 14.7615C10.4652 14.8533 10.3885 14.9308 10.2973 14.9878C10.206 15.0448 10.1028 15.0798 9.99565 15.09C9.91711 15.0868 9.84008 15.0674 9.76931 15.0332C9.69855 14.999 9.63555 14.9506 9.58423 14.8911C9.5329 14.8315 9.49434 14.7621 9.47092 14.687C9.4475 14.612 9.43973 14.533 9.44807 14.4548C9.44807 13.8853 9.82042 13.732 10.0176 13.732C10.08 13.728 10.1426 13.7371 10.2014 13.7585C10.2602 13.7799 10.3139 13.8133 10.3592 13.8565C10.4044 13.8997 10.4403 13.9518 10.4644 14.0096C10.4885 14.0673 10.5005 14.1294 10.4994 14.192V14.2358H9.6671L9.66709 14.2358Z" fill="#004A97"/>
<path d="M10.5653 14.9586H10.6529C10.7405 14.9586 10.7843 14.9586 10.7843 14.8709V14.0605C10.7843 13.9729 10.6748 13.951 10.631 13.9291V13.8853C10.85 13.7977 10.9595 13.7319 10.9814 13.7319C11.0033 13.7319 11.0033 13.7319 11.0033 13.7758V14.0386C11.069 13.9291 11.2005 13.7538 11.3757 13.7538C11.396 13.7532 11.4162 13.7567 11.4351 13.7642C11.454 13.7717 11.4712 13.783 11.4855 13.7973C11.4999 13.8117 11.5112 13.8289 11.5187 13.8477C11.5261 13.8666 11.5297 13.8869 11.529 13.9072C11.529 13.9948 11.4852 14.0605 11.3976 14.0605C11.31 14.0605 11.31 13.9948 11.2005 13.9948C11.1415 14.0029 11.0872 14.0314 11.0472 14.0755C11.0071 14.1195 10.9839 14.1763 10.9815 14.2358V14.9148C10.9815 15.0024 11.0472 15.0024 11.1129 15.0024H11.2662V15.0681H10.5215V14.9586L10.5653 14.9586Z" fill="#004A97"/>
<path d="M11.6824 14.63C11.7262 14.8272 11.8357 14.9805 12.0548 14.9805C12.23 14.9805 12.2958 14.871 12.2958 14.7834C12.2958 14.4548 11.6606 14.5644 11.6606 14.0824C11.6641 14.029 11.6784 13.9767 11.7025 13.9289C11.7266 13.881 11.7601 13.8384 11.8009 13.8037C11.8418 13.769 11.8892 13.7428 11.9403 13.7267C11.9914 13.7106 12.0453 13.705 12.0986 13.7101C12.2138 13.7106 12.327 13.7408 12.4272 13.7977L12.4491 14.0824H12.3834C12.3821 14.0435 12.3732 14.0053 12.3571 13.9699C12.3409 13.9345 12.318 13.9026 12.2894 13.8761C12.2609 13.8496 12.2274 13.8291 12.1909 13.8156C12.1544 13.8021 12.1156 13.7961 12.0767 13.7977C12.0492 13.7953 12.0214 13.7985 11.9952 13.8073C11.969 13.816 11.9449 13.8301 11.9243 13.8486C11.9038 13.8671 11.8873 13.8896 11.8758 13.9148C11.8643 13.9399 11.8582 13.9672 11.8577 13.9948C11.8577 14.3234 12.5148 14.2358 12.5148 14.6738C12.5148 14.8709 12.3615 15.0681 12.0111 15.0681C11.89 15.0597 11.7713 15.0301 11.6606 14.9804L11.6387 14.6519L11.6824 14.63Z" fill="#004A97"/>
<path d="M15.0991 13.5348H15.0333C14.9895 13.2062 14.7486 13.0748 14.42 13.0748C14.3043 13.0756 14.19 13.1008 14.0847 13.1488C13.9794 13.1968 13.8854 13.2666 13.8089 13.3534C13.7324 13.4402 13.6751 13.5423 13.6408 13.6528C13.6064 13.7633 13.5958 13.8798 13.6096 13.9947C13.5952 14.238 13.6764 14.4773 13.8361 14.6615C13.9957 14.8457 14.221 14.9601 14.4639 14.9804C14.6043 14.9817 14.7402 14.931 14.8454 14.8379C14.9505 14.7449 15.0175 14.6162 15.0333 14.4766L15.0991 14.4985L15.0333 14.9147C14.8327 15.004 14.6174 15.056 14.3982 15.068C14.2533 15.0793 14.1078 15.0595 13.9712 15.0099C13.8347 14.9602 13.7104 14.8819 13.6067 14.7803C13.5029 14.6786 13.4221 14.5559 13.3697 14.4204C13.3174 14.2849 13.2946 14.1398 13.303 13.9947C13.3148 13.716 13.4368 13.4533 13.6422 13.2644C13.8475 13.0755 14.1194 12.9758 14.3982 12.9872C14.6323 12.9938 14.8629 13.0459 15.0772 13.1405L15.0991 13.5348Z" fill="#004A97"/>
<path d="M15.209 14.9586H15.2528C15.3404 14.9586 15.3842 14.9586 15.3842 14.8709V13.272C15.3842 13.0749 15.3404 13.0749 15.2309 13.0529V13.0092C15.3364 12.9734 15.4389 12.9295 15.5375 12.8777C15.5462 12.8694 15.5565 12.8631 15.5679 12.8593C15.5793 12.8556 15.5914 12.8544 15.6032 12.8558C15.6252 12.8558 15.6252 12.8777 15.6252 12.8996V14.8929C15.6252 14.9805 15.6908 14.9805 15.7785 14.9805H15.8223V15.0462H15.209V14.9586Z" fill="#004A97"/>
<path d="M17.0489 14.8709C17.0489 14.9147 17.0708 14.9147 17.1365 14.9147H17.246V14.9804C17.1146 15.0023 16.8955 15.0462 16.8298 15.0681H16.8079V14.8271C16.6727 14.9629 16.4948 15.048 16.3042 15.0681C16.2602 15.0676 16.2168 15.0579 16.1769 15.0395C16.1369 15.0211 16.1013 14.9946 16.0724 14.9615C16.0434 14.9284 16.0218 14.8896 16.0089 14.8475C15.996 14.8055 15.9921 14.7612 15.9975 14.7176V13.9729C15.9975 13.9072 15.9756 13.8196 15.8223 13.8196V13.7758C15.9318 13.7758 16.1508 13.7538 16.1946 13.7538C16.2165 13.7538 16.2165 13.7758 16.2165 13.8415V14.5862C16.2165 14.6738 16.2165 14.9147 16.4575 14.9147C16.5896 14.8938 16.712 14.8326 16.808 14.7395V13.9729C16.808 13.9072 16.6765 13.8853 16.567 13.8634V13.8196C16.8299 13.7977 16.9832 13.7758 17.0051 13.7758C17.027 13.7758 17.027 13.7977 17.027 13.8196V14.8709H17.0489Z" fill="#004A97"/>
<path d="M17.6184 14.6957C17.6246 14.773 17.6595 14.8451 17.7163 14.8978C17.7731 14.9506 17.8476 14.98 17.9251 14.9805C18.2317 14.9805 18.3631 14.6738 18.3631 14.4329C18.3684 14.2984 18.3247 14.1665 18.2401 14.0618C18.1555 13.957 18.0358 13.8865 17.9031 13.8634C17.8528 13.8668 17.8037 13.8802 17.7586 13.9028C17.7135 13.9254 17.6733 13.9566 17.6403 13.9948V14.6957H17.6184ZM17.6184 13.9291C17.7384 13.8164 17.8926 13.7471 18.0565 13.732C18.132 13.7357 18.206 13.7547 18.2739 13.788C18.3418 13.8213 18.4022 13.868 18.4514 13.9255C18.5006 13.9829 18.5376 14.0497 18.56 14.1219C18.5825 14.1941 18.5901 14.2701 18.5822 14.3453C18.5874 14.5332 18.5196 14.7158 18.393 14.8546C18.2663 14.9935 18.0908 15.0779 17.9032 15.09C17.7634 15.0971 17.625 15.0587 17.5089 14.9805L17.4213 15.0462L17.3556 15.0243C17.3811 14.8575 17.3957 14.6892 17.3994 14.5205V13.2939C17.3994 13.0968 17.3556 13.0968 17.2461 13.0749V13.031C17.3516 12.9953 17.4541 12.9513 17.5528 12.8996C17.5614 12.8913 17.5718 12.885 17.5831 12.8812C17.5945 12.8774 17.6066 12.8762 17.6184 12.8777C17.6404 12.8777 17.6404 12.8996 17.6404 12.9215V13.9291L17.6184 13.9291Z" fill="#004A97"/>
<path d="M5.2207 16.689H5.2426C5.30831 16.689 5.35212 16.689 5.35212 16.6014V15.791C5.35212 15.7034 5.28641 15.7034 5.2426 15.7034H5.2207V15.6595H5.70256V15.7034H5.68069C5.61496 15.7034 5.57115 15.7034 5.57115 15.791V16.6014C5.57115 16.689 5.61496 16.689 5.68069 16.689H5.70256V16.7328H5.24256V16.689H5.2207Z" fill="#006AC9"/>
<path d="M5.70256 16.7328V16.689H5.68069C5.61496 16.689 5.54924 16.689 5.54924 16.6014V15.791C5.54924 15.7034 5.61496 15.7034 5.68069 15.7034H5.70256V15.6595H5.24256V15.7034H5.26447C5.33018 15.7034 5.39589 15.7034 5.39589 15.791V16.6014C5.39589 16.689 5.33018 16.689 5.26447 16.689H5.2426V16.7328H5.7026L5.70256 16.7328ZM5.70256 16.7547H5.24256V16.689H5.26447C5.33018 16.689 5.37398 16.689 5.37398 16.6014V15.791C5.37398 15.7034 5.33018 15.7034 5.26447 15.7034H5.2207V15.6595H5.70256V15.7034H5.68069C5.61496 15.7034 5.57115 15.7034 5.57115 15.791V16.6014C5.57115 16.689 5.61496 16.689 5.68069 16.689H5.70256V16.7547Z" fill="#006AC9"/>
<path d="M6.77616 16.4261V15.8347C6.77616 15.7033 6.68852 15.6814 6.64474 15.6814H6.60088V15.6376H7.01705V15.6814H6.99516C6.92946 15.6814 6.86374 15.7033 6.86374 15.8785V16.7327H6.79804L5.98759 15.8347V16.4699C5.98759 16.6013 6.0095 16.6452 6.14092 16.6452H6.16283V16.689H5.76855C5.87806 16.689 5.89997 16.6232 5.89997 16.4918V15.8347C5.90071 15.8173 5.89781 15.7999 5.89147 15.7836C5.88512 15.7673 5.87547 15.7525 5.86311 15.7402C5.85076 15.7278 5.83598 15.7182 5.8197 15.7118C5.80342 15.7055 5.78601 15.7026 5.76855 15.7033V15.6595H6.07516L6.77616 16.4261Z" fill="#006AC9"/>
<path d="M6.79796 16.7547H6.84175V15.9004C6.84175 15.7033 6.92938 15.7033 6.99508 15.7033H7.01699V15.6595H6.62273V15.7033H6.64464C6.66506 15.7022 6.68548 15.7054 6.70458 15.7128C6.72367 15.7201 6.74101 15.7313 6.75547 15.7458C6.76993 15.7603 6.78119 15.7776 6.78851 15.7967C6.79583 15.8158 6.79905 15.8362 6.79796 15.8566V16.448L6.0971 15.6595H5.7904V15.7033H5.81231C5.85211 15.7059 5.88959 15.7229 5.91779 15.7511C5.94599 15.7793 5.96299 15.8168 5.96563 15.8566V16.5137C5.96563 16.6451 5.92182 16.7109 5.81231 16.7109H5.7904V16.7547H6.18466V16.7109H6.14084C6.00942 16.7109 5.98751 16.6671 5.98751 16.5137V15.8566L6.79796 16.7547ZM6.86366 16.7766H6.79796L6.00942 15.9004V16.5356C6.00942 16.6671 6.03133 16.7109 6.14084 16.7109H6.18466V16.7547H5.76849V16.689H5.7904C5.89991 16.689 5.92182 16.6232 5.92182 16.4918V15.8347C5.92255 15.8173 5.91965 15.7999 5.91331 15.7836C5.90696 15.7673 5.89731 15.7525 5.88495 15.7402C5.8726 15.7278 5.85782 15.7182 5.84155 15.7118C5.82527 15.7055 5.80786 15.7026 5.7904 15.7033H5.74658V15.6595H6.0751L6.7541 16.4261V15.8566C6.7541 15.7252 6.6665 15.7252 6.62268 15.7252H6.60082V15.6814H7.01699V15.7252H6.9951C6.9294 15.7252 6.86368 15.7252 6.86368 15.9223V16.7766L6.86366 16.7766Z" fill="#006AC9"/>
<path d="M7.25767 15.7252C7.14816 15.7252 7.12625 15.7471 7.10434 15.8567H7.06055C7.06055 15.8128 7.08246 15.769 7.08246 15.7252V15.5938H7.12625C7.14816 15.6376 7.17006 15.6376 7.21388 15.6376H8.02431C8.06809 15.6376 8.11191 15.6376 8.11191 15.5938H8.15572C8.15572 15.6376 8.13382 15.6814 8.13382 15.7252V15.8567L8.09 15.8785C8.09 15.8128 8.09 15.7252 7.98049 15.7252H7.71765V16.5576C7.71765 16.6671 7.76147 16.689 7.84907 16.689H7.87098V16.7328H7.3453V16.689H7.36718C7.45481 16.689 7.49863 16.689 7.49863 16.5576V15.7252L7.25767 15.7252Z" fill="#006AC9"/>
<path d="M7.87098 16.7547H7.3453V16.689H7.36718C7.45481 16.689 7.49863 16.689 7.49863 16.5576V15.7252H7.52051V16.5576C7.52051 16.689 7.47672 16.689 7.38909 16.689H7.36718V16.7328H7.63005C7.71098 16.7292 7.79202 16.7365 7.87098 16.7547V16.7109H7.84907C7.83118 16.7136 7.8129 16.7121 7.7957 16.7065C7.7785 16.7008 7.76288 16.6912 7.75008 16.6784C7.73729 16.6656 7.72768 16.65 7.72205 16.6328C7.71641 16.6156 7.71491 16.5973 7.71765 16.5794V15.7471H7.98049C8.09 15.7471 8.09 15.8347 8.11191 15.9004L8.15572 15.8785V15.7471C8.14999 15.7092 8.15775 15.6704 8.17763 15.6376H8.15572C8.15572 15.6814 8.11191 15.6814 8.06809 15.6814H7.25767C7.21388 15.6814 7.17006 15.6814 7.17006 15.6376H7.10434V15.769C7.10434 15.8128 7.08246 15.8566 7.08246 15.9004H7.12625C7.14816 15.7909 7.17006 15.7471 7.27958 15.769C7.17006 15.769 7.17006 15.7909 7.14816 15.9004H7.06055C7.06055 15.8566 7.08246 15.8128 7.08246 15.769V15.6376H7.12625C7.12625 15.6814 7.17006 15.6814 7.21388 15.6814H8.02431C8.06809 15.6814 8.09 15.6814 8.11191 15.6376H8.15572C8.15572 15.6814 8.13382 15.7252 8.13382 15.769V15.9004H8.06809C8.06809 15.8347 8.06809 15.7471 7.95858 15.7471H7.71765V16.5794C7.71765 16.689 7.76147 16.7109 7.84907 16.7109H7.89285L7.87098 16.7547Z" fill="#006AC9"/>
<path d="M8.19971 16.689H8.22162C8.28734 16.689 8.33116 16.689 8.33116 16.6014V15.791C8.33116 15.7034 8.26544 15.7034 8.22162 15.7034H8.19971V15.6595H8.98826V15.9005H8.94444C8.94444 15.791 8.92253 15.7253 8.74733 15.7253H8.52827V16.1414H8.72542C8.81302 16.1414 8.83493 16.0976 8.85684 16.01H8.90062V16.3605H8.85684C8.85684 16.2729 8.83493 16.2071 8.72542 16.2071H8.52827V16.5795C8.52827 16.689 8.61588 16.689 8.72542 16.689C8.92253 16.689 8.98826 16.6671 9.05395 16.4919H9.09777C9.07448 16.5704 9.05978 16.6511 9.05395 16.7328H8.22162V16.689H8.19971Z" fill="#006AC9"/>
<path d="M9.03205 16.7328C9.05393 16.6452 9.05393 16.5795 9.07584 16.4919H9.05395C9.01016 16.6671 8.92253 16.689 8.72542 16.689C8.63779 16.689 8.52827 16.689 8.52827 16.5795V16.2071H8.72542C8.83493 16.2071 8.83493 16.2728 8.85684 16.3604H8.90062V16.01H8.85684C8.85938 16.0279 8.85774 16.0461 8.85204 16.0632C8.84633 16.0803 8.83673 16.0958 8.82398 16.1086C8.81123 16.1213 8.79568 16.1309 8.77857 16.1366C8.76147 16.1424 8.74327 16.144 8.72542 16.1414H8.52827V15.7253H8.74733C8.90062 15.7253 8.94444 15.8129 8.94444 15.9005H8.98826V15.6815H8.22162V15.7253H8.24353C8.30925 15.7253 8.37495 15.7253 8.37495 15.8129V16.6233C8.37495 16.711 8.30925 16.711 8.24353 16.711H8.22162V16.7547H8.63779C8.76837 16.7365 8.90025 16.7292 9.03205 16.7328ZM9.03205 16.7547H8.19971V16.689H8.22162C8.28734 16.689 8.33116 16.689 8.33116 16.6014V15.791C8.33116 15.7253 8.28734 15.7034 8.22162 15.7034H8.19971V15.6595H8.98826V15.9005L8.94444 15.9224C8.94444 15.8129 8.92253 15.7471 8.76921 15.7471H8.55021V16.1414H8.72545C8.81305 16.1414 8.83496 16.0976 8.83496 16.01H8.87875V16.3605H8.83493C8.83493 16.2729 8.81302 16.2071 8.72542 16.2071H8.55018V16.5576C8.55018 16.6452 8.63779 16.6452 8.72542 16.6452C8.92253 16.6452 8.98826 16.6452 9.03207 16.47L9.07586 16.4919C9.07195 16.5809 9.05724 16.6692 9.03205 16.7547Z" fill="#006AC9"/>
<path d="M9.49207 16.1852H9.55777C9.59062 16.1905 9.62426 16.1879 9.65593 16.1777C9.68759 16.1675 9.71638 16.1499 9.73991 16.1264C9.76344 16.1028 9.78104 16.0741 9.79126 16.0424C9.80148 16.0107 9.80403 15.9771 9.7987 15.9442C9.80046 15.915 9.79601 15.8858 9.78562 15.8584C9.77524 15.831 9.75917 15.8062 9.73847 15.7855C9.71777 15.7648 9.69292 15.7487 9.66555 15.7383C9.63818 15.7279 9.60892 15.7235 9.5797 15.7252H9.49207V16.1852ZM9.29495 15.8128C9.29495 15.7033 9.22923 15.7033 9.18544 15.7033H9.16351V15.6595H9.64537C9.84252 15.6595 10.0178 15.7033 10.0178 15.9442C10.0133 16.008 9.9902 16.069 9.95123 16.1197C9.91226 16.1703 9.8592 16.2084 9.7987 16.229L10.0615 16.6232C10.0741 16.6525 10.0959 16.6769 10.1235 16.6927C10.1512 16.7085 10.1833 16.7149 10.2149 16.7109V16.7547H9.90824C9.7987 16.6013 9.68924 16.4261 9.57968 16.2509H9.47017V16.5794C9.46743 16.5973 9.46893 16.6156 9.47457 16.6328C9.4802 16.65 9.4898 16.6656 9.5026 16.6784C9.5154 16.6912 9.53103 16.7008 9.54822 16.7065C9.56542 16.7121 9.5837 16.7136 9.60159 16.7109H9.62349V16.7547H9.1416V16.689H9.16351C9.22921 16.689 9.27302 16.6671 9.27302 16.6013V15.8128L9.29495 15.8128Z" fill="#006AC9"/>
<path d="M9.57974 16.1852C9.73307 16.1852 9.82067 16.1414 9.82067 15.9443C9.82244 15.9151 9.81798 15.8858 9.8076 15.8584C9.79721 15.8311 9.78114 15.8062 9.76044 15.7855C9.73975 15.7648 9.71489 15.7487 9.68752 15.7384C9.66015 15.728 9.63089 15.7235 9.60167 15.7253H9.51401V16.1853L9.57974 16.1852ZM9.49211 16.1852V15.7034H9.57974C9.61181 15.7018 9.64384 15.7069 9.6738 15.7184C9.70375 15.73 9.73095 15.7477 9.75365 15.7704C9.77635 15.7931 9.79404 15.8203 9.80558 15.8502C9.81713 15.8802 9.82227 15.9122 9.82067 15.9443C9.82067 16.1414 9.73307 16.1852 9.57974 16.1852H9.49211ZM9.49211 16.229H9.60165C9.69831 16.405 9.80813 16.5734 9.93018 16.7328H10.2368V16.689C10.2056 16.6904 10.1746 16.6829 10.1475 16.6674C10.1204 16.6519 10.0982 16.629 10.0835 16.6014L9.82067 16.1852C9.8813 16.1722 9.9358 16.1392 9.9755 16.0916C10.0152 16.0439 10.0378 15.9844 10.0397 15.9224C10.0397 15.7034 9.86449 15.6595 9.66734 15.6595H9.18548V15.7034H9.20739C9.25118 15.7034 9.3169 15.7034 9.3169 15.8348V16.6233C9.3169 16.689 9.25118 16.7109 9.20739 16.7109H9.16357V16.7547H9.64543V16.7109H9.62355C9.55783 16.7109 9.49211 16.7109 9.49211 16.5795V16.229ZM10.2368 16.7547H9.93018C9.82067 16.6014 9.71118 16.4262 9.60165 16.2509H9.51401V16.5795C9.51401 16.689 9.55783 16.689 9.64543 16.689H9.68925V16.7328H9.20739V16.689H9.22927C9.29499 16.689 9.33881 16.6671 9.33881 16.6014V15.8129C9.33881 15.7034 9.27308 15.7034 9.22927 15.7034H9.16357V15.6595H9.64543C9.84258 15.6595 10.0178 15.7253 10.0178 15.9443C10.0134 16.0081 9.99026 16.0691 9.95129 16.1197C9.91232 16.1704 9.85926 16.2084 9.79876 16.229L10.0616 16.6233C10.0742 16.6526 10.0959 16.677 10.1236 16.6928C10.1513 16.7086 10.1833 16.715 10.2149 16.7109L10.2368 16.7547Z" fill="#006AC9"/>
<path d="M11.2882 16.4261V15.8347C11.2882 15.7033 11.2006 15.6814 11.1568 15.6814H11.113V15.6376H11.5291V15.6814H11.5072C11.4415 15.6814 11.3758 15.7033 11.3758 15.8785V16.7327H11.3101L10.4997 15.8347V16.4699C10.4997 16.6013 10.5216 16.6452 10.653 16.6452H10.6969V16.689H10.3026C10.4121 16.689 10.434 16.6232 10.434 16.4918V15.8347C10.434 15.7471 10.3683 15.7033 10.2807 15.7033H10.2588V15.6595H10.5654L11.2882 16.4261Z" fill="#006AC9"/>
<path d="M11.3101 16.7547H11.354V15.9004C11.354 15.7033 11.4416 15.7033 11.5073 15.7033H11.5291V15.6595H11.1349V15.7033H11.1568C11.1772 15.7022 11.1976 15.7055 11.2167 15.7128C11.2358 15.7201 11.2532 15.7314 11.2676 15.7458C11.2821 15.7603 11.2933 15.7776 11.3007 15.7967C11.308 15.8158 11.3112 15.8362 11.3101 15.8567V16.448L10.6092 15.6595H10.3026V15.7033H10.3244C10.3642 15.7059 10.4017 15.7229 10.4299 15.7511C10.4581 15.7793 10.4751 15.8168 10.4778 15.8566V16.5137C10.4778 16.6451 10.434 16.7109 10.3244 16.7109H10.3026V16.7547H10.6968V16.7109H10.6749C10.5435 16.7109 10.5216 16.6671 10.5216 16.5137V15.8566L11.3101 16.7547ZM11.3759 16.7766H11.3101L10.5216 15.9004V16.5357C10.5216 16.6671 10.5435 16.7109 10.653 16.7109H10.6969V16.7547H10.2807V16.689H10.3026C10.4121 16.689 10.434 16.6233 10.434 16.4919V15.8348C10.4348 15.8173 10.4319 15.7999 10.4255 15.7836C10.4192 15.7673 10.4095 15.7526 10.3972 15.7402C10.3848 15.7279 10.37 15.7182 10.3538 15.7119C10.3375 15.7055 10.3201 15.7026 10.3026 15.7033H10.2588V15.6595H10.5874L11.2664 16.4262V15.8567C11.2664 15.7252 11.1787 15.7252 11.1349 15.7252H11.0911V15.6814H11.5073V15.7252H11.4853C11.4197 15.7252 11.3539 15.7252 11.3539 15.9224V16.6233C11.3735 16.6719 11.381 16.7245 11.3758 16.7766H11.3759Z" fill="#006AC9"/>
<path d="M12.0111 15.8347L11.8578 16.2728H12.1425L12.0111 15.8347ZM11.7921 16.5137C11.7678 16.5537 11.7528 16.5986 11.7483 16.6452C11.7483 16.689 11.814 16.689 11.8578 16.689H11.8797V16.7328H11.5073V16.689C11.5383 16.688 11.5681 16.6767 11.5919 16.6569C11.6157 16.637 11.6322 16.6098 11.6387 16.5795L11.8797 15.8567L11.9454 15.6595C11.9893 15.6376 12.055 15.6157 12.0988 15.5938H12.1207C12.1207 15.6157 12.1207 15.6157 12.1426 15.6376L12.4492 16.4699C12.4711 16.5138 12.493 16.5795 12.5149 16.6233C12.5229 16.6451 12.5381 16.6636 12.558 16.6756C12.578 16.6876 12.6014 16.6923 12.6244 16.689V16.7328H12.1644V16.689H12.1864C12.2302 16.689 12.274 16.689 12.274 16.6452C12.2645 16.6091 12.2572 16.5726 12.2521 16.5357L12.1864 16.3604H11.8359L11.7921 16.5137Z" fill="#006AC9"/>
<path d="M11.8797 16.2728H12.1644L12.0111 15.8348L11.8797 16.2728ZM11.8578 16.2728L12.0111 15.8128L12.1644 16.2728H11.8578ZM12.1644 16.7328H12.6025V16.689C12.5799 16.6894 12.5577 16.6835 12.5383 16.6719C12.5189 16.6602 12.5032 16.6434 12.493 16.6233C12.4624 16.5782 12.447 16.5244 12.4492 16.47L12.1644 15.6595C12.1644 15.6376 12.1644 15.6376 12.1425 15.6157C12.1011 15.642 12.057 15.664 12.0111 15.6815C11.9992 15.7501 11.977 15.8165 11.9454 15.8786L11.7045 16.6014C11.6932 16.6331 11.6724 16.6607 11.645 16.6802C11.6176 16.6998 11.5848 16.7105 11.5511 16.7109V16.7547H11.8797V16.7109C11.8359 16.7109 11.7483 16.7109 11.7483 16.6452C11.7593 16.6003 11.774 16.5563 11.7921 16.5138L11.8359 16.3385H12.2082L12.2739 16.5138C12.2898 16.548 12.2973 16.5856 12.2959 16.6233C12.2959 16.6671 12.2301 16.6671 12.1863 16.6671V16.7328L12.1644 16.7328ZM12.6244 16.7547H12.1644V16.689H12.1863C12.2301 16.689 12.274 16.689 12.274 16.6452C12.2645 16.6092 12.2572 16.5726 12.2521 16.5357L12.1863 16.3605H11.8359L11.7921 16.5138C11.7717 16.5477 11.7569 16.5847 11.7483 16.6233C11.7483 16.6671 11.814 16.6671 11.8578 16.6671H11.8797V16.7109H11.5073V16.689C11.5353 16.6883 11.5625 16.6797 11.5857 16.6642C11.609 16.6487 11.6274 16.6269 11.6387 16.6014L11.8797 15.8786L11.9454 15.6815C11.9914 15.664 12.0354 15.642 12.0769 15.6157H12.1207C12.1207 15.6376 12.1207 15.6376 12.1426 15.6595L12.4492 16.47C12.4671 16.5227 12.4891 16.574 12.5149 16.6233C12.5368 16.6671 12.5588 16.689 12.6025 16.689H12.6244L12.6244 16.7547Z" fill="#006AC9"/>
<path d="M12.6898 15.7252C12.5803 15.7252 12.5584 15.7471 12.5365 15.8567H12.4927C12.4927 15.8128 12.5146 15.769 12.5146 15.7252V15.5938H12.5584C12.5803 15.6376 12.6022 15.6376 12.646 15.6376H13.4564C13.5002 15.6376 13.544 15.6376 13.544 15.5938H13.5878C13.5878 15.6376 13.5659 15.6814 13.5659 15.7252V15.8567L13.5222 15.8785C13.5222 15.8128 13.5002 15.7252 13.4126 15.7252H13.1498V16.5576C13.1498 16.6671 13.1936 16.689 13.2812 16.689H13.3031V16.7328H12.7774V16.689H12.7993C12.8869 16.689 12.9307 16.689 12.9307 16.5576V15.7252L12.6898 15.7252Z" fill="#006AC9"/>
<path d="M13.3033 16.7547H12.7776V16.689H12.7996C12.8872 16.689 12.9091 16.689 12.931 16.5576V15.7252H12.9529V16.5576C12.9529 16.689 12.9091 16.689 12.8214 16.689H12.7996V16.7328H13.0624C13.1433 16.7292 13.2244 16.7365 13.3033 16.7547V16.7109H13.2814C13.2635 16.7136 13.2452 16.7121 13.228 16.7065C13.2109 16.7008 13.1952 16.6912 13.1824 16.6784C13.1696 16.6656 13.16 16.65 13.1544 16.6328C13.1488 16.6156 13.1473 16.5973 13.15 16.5794V15.7471H13.4128C13.5224 15.7471 13.5224 15.8347 13.5443 15.9004L13.5881 15.8785V15.7471C13.5823 15.7092 13.5901 15.6704 13.61 15.6376H13.5881C13.5881 15.6814 13.5443 15.6814 13.5005 15.6814H12.69C12.6462 15.6814 12.6243 15.6814 12.6024 15.6376H12.5805V15.769C12.5805 15.8128 12.5586 15.8566 12.5586 15.9004H12.6024C12.6243 15.7909 12.6462 15.7471 12.7557 15.769C12.6462 15.769 12.6462 15.7909 12.6243 15.9004H12.5586C12.5586 15.8566 12.5805 15.8128 12.5805 15.769V15.6376H12.6243C12.6243 15.6814 12.6681 15.6814 12.7119 15.6814H13.5224C13.5662 15.6814 13.5881 15.6814 13.61 15.6376H13.6538C13.6538 15.6814 13.6319 15.7252 13.6319 15.769V15.9004L13.5662 15.9223C13.5662 15.8566 13.5662 15.769 13.4566 15.769H13.2157V16.6013C13.2157 16.7109 13.2595 16.7327 13.3471 16.7327H13.3909L13.3033 16.7547Z" fill="#006AC9"/>
<path d="M13.6318 16.689C13.7194 16.689 13.7633 16.689 13.7633 16.6014V15.791C13.7633 15.7034 13.6975 15.7034 13.6537 15.7034H13.6318V15.6595H14.1137V15.7034H14.0918C14.0261 15.7034 13.9823 15.7034 13.9823 15.791V16.6014C13.9823 16.689 14.048 16.689 14.0918 16.689H14.1137V16.7328H13.6537V16.689H13.6318Z" fill="#006AC9"/>
<path d="M14.1138 16.7328V16.689H14.0919C14.0262 16.689 13.9605 16.689 13.9605 16.6014V15.791C13.9605 15.7034 14.0262 15.7034 14.0919 15.7034H14.1138V15.6595H13.6538V15.7034H13.6757C13.7414 15.7034 13.8071 15.7034 13.8071 15.791V16.6014C13.8071 16.689 13.7414 16.689 13.6757 16.689H13.6538V16.7328H14.1138V16.7328ZM14.1138 16.7547H13.6538V16.689H13.6757C13.7414 16.689 13.7852 16.689 13.7852 16.6014V15.791C13.7852 15.7253 13.7414 15.7034 13.6757 15.7034H13.6538V15.6595H14.1357V15.7034H14.1138C14.0481 15.7034 14.0042 15.7034 14.0042 15.791V16.6014C14.0042 16.6671 14.0481 16.689 14.1138 16.689H14.1357L14.1138 16.7547Z" fill="#006AC9"/>
<path d="M14.7707 16.689C15.0773 16.689 15.1211 16.4262 15.1211 16.1852C15.1211 15.9662 14.9897 15.6814 14.7488 15.6814C14.464 15.6814 14.3983 15.9224 14.3983 16.1414C14.3764 16.4262 14.5078 16.689 14.7707 16.689ZM14.7488 15.6376C14.8245 15.6305 14.9009 15.6394 14.9729 15.6638C15.045 15.6882 15.111 15.7276 15.1669 15.7792C15.2227 15.8309 15.267 15.8938 15.2968 15.9637C15.3267 16.0337 15.3415 16.1092 15.3402 16.1852C15.3424 16.2635 15.3285 16.3414 15.2996 16.4141C15.2707 16.4868 15.2272 16.5529 15.1718 16.6083C15.1165 16.6636 15.0504 16.7071 14.9776 16.736C14.9049 16.765 14.827 16.7788 14.7488 16.7766C14.6717 16.7813 14.5946 16.7699 14.5222 16.7432C14.4498 16.7166 14.3837 16.6752 14.3281 16.6216C14.2725 16.5681 14.2287 16.5036 14.1993 16.4323C14.1699 16.3609 14.1556 16.2843 14.1574 16.2071C14.1575 16.1305 14.173 16.0547 14.2031 15.9842C14.2331 15.9137 14.277 15.85 14.3322 15.7969C14.3874 15.7437 14.4527 15.7022 14.5243 15.6749C14.5959 15.6475 14.6722 15.6348 14.7488 15.6376V15.6376Z" fill="#006AC9"/>
<path d="M14.3762 16.1414C14.3762 15.9223 14.4639 15.6814 14.7486 15.6814C15.0115 15.6814 15.1429 15.9661 15.1429 16.1851C15.1429 16.4042 15.0991 16.6889 14.7705 16.6889C15.0772 16.6889 15.121 16.4261 15.121 16.2071C15.121 15.988 14.9896 15.7033 14.7486 15.7033C14.4639 15.7033 14.3982 15.9442 14.3762 16.1414C14.3982 16.4261 14.5077 16.6889 14.7705 16.6889C14.5077 16.7109 14.3762 16.4261 14.3762 16.1414ZM14.1572 16.2071C14.1569 16.1293 14.172 16.0523 14.2016 15.9804C14.2312 15.9085 14.2747 15.8431 14.3297 15.7882C14.3847 15.7332 14.45 15.6896 14.5219 15.66C14.5938 15.6304 14.6709 15.6153 14.7486 15.6157C14.594 15.6224 14.4474 15.6869 14.338 15.7964C14.2285 15.9059 14.164 16.0524 14.1572 16.2071C14.1596 16.282 14.1769 16.3558 14.208 16.424C14.2391 16.4922 14.2834 16.5536 14.3384 16.6045C14.3935 16.6555 14.4581 16.695 14.5285 16.7208C14.5989 16.7465 14.6737 16.7581 14.7486 16.7547C14.8269 16.7568 14.9048 16.743 14.9775 16.7141C15.0503 16.6851 15.1163 16.6416 15.1717 16.5863C15.227 16.5309 15.2705 16.4649 15.2995 16.3921C15.3284 16.3194 15.3422 16.2415 15.34 16.1633C15.3389 16.0889 15.3223 16.0155 15.2913 15.9479C15.2603 15.8802 15.2156 15.8198 15.16 15.7703C15.1043 15.7209 15.0391 15.6836 14.9683 15.6607C14.8975 15.6379 14.8227 15.63 14.7486 15.6376C14.8251 15.6321 14.902 15.642 14.9745 15.6667C15.0471 15.6914 15.114 15.7305 15.1712 15.7815C15.2284 15.8326 15.2748 15.8947 15.3075 15.964C15.3403 16.0333 15.3588 16.1085 15.362 16.1852C15.3664 16.265 15.3543 16.3449 15.3264 16.4199C15.2986 16.4948 15.2555 16.5632 15.2 16.6208C15.1445 16.6784 15.0777 16.7239 15.0038 16.7544C14.9299 16.785 14.8505 16.8 14.7706 16.7985C14.6912 16.801 14.6121 16.7877 14.5379 16.7591C14.4638 16.7306 14.3961 16.6875 14.339 16.6324C14.2818 16.5772 14.2362 16.5112 14.205 16.4381C14.1738 16.3651 14.1575 16.2865 14.1572 16.2071H14.1572Z" fill="#006AC9"/>
<path d="M16.3918 16.4261V15.8347C16.3918 15.7033 16.3042 15.6814 16.2604 15.6814H16.2165V15.6376H16.6327V15.6814H16.6108C16.5451 15.6814 16.4794 15.7033 16.4794 15.8785V16.7327H16.4137L15.6033 15.8347V16.4699C15.6033 16.6013 15.6252 16.6452 15.7566 16.6452H15.7785V16.689H15.3842C15.4937 16.689 15.5156 16.6232 15.5156 16.4918V15.8347C15.5163 15.8173 15.5134 15.7999 15.5071 15.7836C15.5008 15.7673 15.4911 15.7525 15.4787 15.7402C15.4664 15.7278 15.4516 15.7182 15.4353 15.7118C15.4191 15.7055 15.4016 15.7026 15.3842 15.7033H15.3623V15.6595H15.6689L16.3918 16.4261Z" fill="#006AC9"/>
<path d="M16.4133 16.7547H16.4571V15.9004C16.4571 15.7033 16.5447 15.7033 16.6104 15.7033H16.6323V15.6595H16.2381V15.7033H16.26C16.2804 15.7022 16.3008 15.7055 16.3199 15.7128C16.339 15.7201 16.3563 15.7314 16.3708 15.7458C16.3853 15.7603 16.3965 15.7776 16.4038 15.7967C16.4112 15.8158 16.4144 15.8362 16.4133 15.8567V16.448L15.7124 15.6595H15.4057V15.7033H15.4276C15.4674 15.7059 15.5049 15.7229 15.5331 15.7511C15.5613 15.7793 15.5783 15.8168 15.581 15.8566V16.5137C15.581 16.6451 15.5371 16.7109 15.4276 16.7109H15.4057V16.7547H15.8V16.7109H15.7781C15.6466 16.7109 15.6248 16.6671 15.6248 16.5137V15.8566L16.4133 16.7547ZM16.479 16.7766H16.4133L15.6248 15.9004V16.5357C15.6248 16.6671 15.6467 16.7109 15.7562 16.7109H15.8V16.7547H15.3838V16.689H15.4057C15.5152 16.689 15.5371 16.6233 15.5371 16.4919V15.8348C15.5378 15.8173 15.5349 15.7999 15.5286 15.7836C15.5223 15.7673 15.5126 15.7526 15.5003 15.7402C15.4879 15.7278 15.4731 15.7182 15.4568 15.7119C15.4406 15.7055 15.4231 15.7026 15.4057 15.7033H15.3838V15.6595H15.7123L16.3913 16.4262V15.8567C16.3913 15.7252 16.3037 15.7252 16.2599 15.7252H16.2161V15.6814H16.6323V15.7252H16.6104C16.5447 15.7252 16.479 15.7252 16.479 15.9224V16.7766L16.479 16.7766Z" fill="#006AC9"/>
<path d="M17.1146 15.8347L16.9613 16.2728H17.2679L17.1146 15.8347ZM16.8956 16.5137C16.8713 16.5537 16.8563 16.5986 16.8518 16.6452C16.8518 16.689 16.9175 16.689 16.9613 16.689H16.9832V16.7328H16.6108V16.689C16.6418 16.688 16.6716 16.6767 16.6954 16.6569C16.7192 16.637 16.7357 16.6098 16.7423 16.5795L16.9832 15.8567L17.0489 15.6595C17.0927 15.6376 17.1584 15.6157 17.2022 15.5938H17.2241C17.2241 15.6157 17.2241 15.6157 17.246 15.6376L17.5308 16.448C17.5527 16.4918 17.5746 16.5576 17.5965 16.6014C17.6184 16.689 17.6622 16.689 17.706 16.689V16.7328H17.246V16.689H17.2679C17.3118 16.689 17.3555 16.689 17.3555 16.6452C17.3461 16.6091 17.3388 16.5726 17.3337 16.5357L17.2679 16.3604H16.9175L16.8956 16.5137Z" fill="#006AC9"/>
<path d="M16.9832 16.2728H17.246L17.1146 15.8567L16.9832 16.2728ZM16.9613 16.2728L17.1146 15.8128L17.2679 16.2728H16.9613ZM17.2679 16.7328H17.706V16.689C17.6834 16.6894 17.6612 16.6835 17.6418 16.6719C17.6225 16.6602 17.6068 16.6434 17.5965 16.6233C17.5746 16.5795 17.5527 16.5138 17.5308 16.47L17.246 15.6595C17.246 15.6376 17.246 15.6376 17.2241 15.6157C17.1827 15.642 17.1386 15.664 17.0927 15.6815C17.0808 15.7501 17.0587 15.8165 17.027 15.8786L16.7861 16.6014C16.7766 16.6301 16.7593 16.6556 16.736 16.675C16.7128 16.6943 16.6846 16.7068 16.6546 16.7109V16.7547H16.9832V16.7109C16.9394 16.7109 16.8518 16.7109 16.8518 16.6452C16.8628 16.6003 16.8775 16.5563 16.8956 16.5138L16.9394 16.3385H17.3118L17.3775 16.5138C17.3933 16.548 17.4008 16.5856 17.3994 16.6233C17.3994 16.6671 17.3337 16.6671 17.2899 16.6671V16.7328L17.2679 16.7328ZM17.7279 16.7547H17.2679V16.689H17.2899C17.3337 16.689 17.3775 16.689 17.3775 16.6452C17.368 16.6092 17.3607 16.5726 17.3555 16.5357L17.2899 16.3605H16.9394L16.8956 16.5138C16.8752 16.5477 16.8604 16.5847 16.8518 16.6233C16.8518 16.6671 16.9175 16.6671 16.9613 16.6671H16.9832V16.7109H16.6108V16.689C16.6388 16.6883 16.666 16.6797 16.6892 16.6642C16.7125 16.6487 16.7309 16.6269 16.7423 16.6014L16.9832 15.8786L17.0489 15.6815C17.0927 15.6595 17.1584 15.6376 17.2022 15.6157H17.246C17.246 15.6376 17.246 15.6376 17.2679 15.6595L17.5527 16.47C17.5706 16.5227 17.5925 16.574 17.6184 16.6233C17.6403 16.6671 17.6622 16.689 17.706 16.689H17.7279L17.7279 16.7547Z" fill="#006AC9"/>
<path d="M18.1219 16.6013C18.1207 16.6131 18.1222 16.625 18.1262 16.6362C18.1302 16.6473 18.1366 16.6574 18.145 16.6658C18.1534 16.6742 18.1635 16.6806 18.1746 16.6846C18.1858 16.6886 18.1977 16.6901 18.2095 16.689H18.4066C18.4375 16.6883 18.4677 16.68 18.4944 16.6647C18.5212 16.6494 18.5438 16.6276 18.5599 16.6013C18.5803 16.5674 18.5951 16.5304 18.6037 16.4918H18.6475L18.5818 16.7547H17.7495V16.689H17.7714C17.8371 16.689 17.8809 16.689 17.8809 16.5794V15.769C17.8809 15.6814 17.8152 15.6814 17.7714 15.6814H17.7495V15.6376H18.2314V15.6814H18.1876C18.1219 15.6814 18.0781 15.6814 18.0781 15.769V16.6013H18.1219Z" fill="#006AC9"/>
<path d="M18.5819 16.7327C18.6038 16.6451 18.6257 16.5575 18.6476 16.4918H18.6257C18.6257 16.5356 18.6038 16.5575 18.5819 16.6013C18.5658 16.6276 18.5432 16.6494 18.5164 16.6647C18.4897 16.68 18.4595 16.6883 18.4286 16.689H18.2315C18.1877 16.689 18.122 16.6671 18.122 16.6013V15.7909C18.122 15.7033 18.1658 15.7033 18.2315 15.7033H18.2534V15.6595H17.7715V15.7033H17.7934C17.8591 15.7033 17.9248 15.7033 17.9248 15.7909V16.6013C17.9248 16.7109 17.8591 16.7109 17.7934 16.7109H17.7715V16.7547H18.1877C18.3182 16.7364 18.4501 16.7291 18.5819 16.7327ZM18.6038 16.7547H17.7715V16.689H17.7934C17.8591 16.689 17.9029 16.689 17.9029 16.6013V15.7909C17.9029 15.7252 17.8591 15.7033 17.7934 15.7033H17.7715V15.6595H18.2534V15.7033H18.2096C18.1439 15.7033 18.1 15.7033 18.1 15.7909V16.6013C18.1 16.6671 18.1439 16.6671 18.1877 16.689H18.3848C18.415 16.6857 18.4442 16.6762 18.4706 16.6611C18.4969 16.646 18.5199 16.6257 18.5381 16.6013C18.56 16.5576 18.5819 16.5356 18.5819 16.4918H18.6257C18.6403 16.5799 18.6327 16.6702 18.6038 16.7547H18.6038Z" fill="#006AC9"/>
<path d="M18.604 15.769C18.6478 15.769 18.6478 15.7471 18.6478 15.7252C18.6455 15.7086 18.6378 15.6932 18.6259 15.6814H18.604V15.769ZM18.5602 15.8566C18.5821 15.8566 18.5821 15.8566 18.5821 15.8347V15.7033C18.5821 15.6814 18.5821 15.6814 18.5602 15.6814H18.6478C18.6697 15.6814 18.7135 15.7033 18.7135 15.7252C18.7127 15.7366 18.7079 15.7473 18.6998 15.7553C18.6918 15.7634 18.6811 15.7682 18.6697 15.769L18.6916 15.8128C18.7135 15.8347 18.7135 15.8566 18.7354 15.8566H18.7135C18.6916 15.8566 18.6916 15.8347 18.6478 15.7909H18.6259V15.8347C18.6259 15.8566 18.6259 15.8347 18.6478 15.8566H18.5602ZM18.6259 15.9004C18.6519 15.9004 18.6773 15.8927 18.6989 15.8783C18.7205 15.8638 18.7374 15.8433 18.7473 15.8193C18.7572 15.7953 18.7598 15.7689 18.7548 15.7434C18.7497 15.7179 18.7372 15.6945 18.7188 15.6761C18.7004 15.6577 18.677 15.6452 18.6515 15.6401C18.626 15.635 18.5996 15.6376 18.5756 15.6476C18.5516 15.6575 18.5311 15.6744 18.5166 15.696C18.5022 15.7176 18.4945 15.743 18.4945 15.769C18.5164 15.8348 18.5602 15.9004 18.6259 15.9004V15.9004ZM18.6259 15.6157C18.649 15.6153 18.6719 15.6197 18.6933 15.6283C18.7147 15.637 18.7342 15.6499 18.7505 15.6663C18.7669 15.6826 18.7798 15.7021 18.7885 15.7235C18.7971 15.7449 18.8015 15.7678 18.8011 15.7909C18.8011 15.9004 18.7354 15.9442 18.6259 15.9442C18.6041 15.9469 18.5819 15.945 18.5609 15.9385C18.5399 15.932 18.5205 15.9212 18.504 15.9067C18.4875 15.8923 18.4742 15.8745 18.465 15.8545C18.4558 15.8346 18.4509 15.8129 18.4507 15.7909C18.4538 15.7455 18.4732 15.7027 18.5054 15.6705C18.5376 15.6383 18.5804 15.6188 18.6259 15.6157V15.6157Z" fill="#006AC9"/>
<path d="M14.9242 9.70169C14.9188 9.01181 14.6436 8.35143 14.1576 7.86179C13.6846 7.56546 13.1386 7.40622 12.5805 7.40179H11.3101C10.9481 7.39264 10.588 7.4572 10.2516 7.59156C9.91531 7.72591 9.60982 7.92725 9.35373 8.18334C9.09763 8.43942 8.89629 8.74491 8.76193 9.08123C8.62757 9.41755 8.563 9.77768 8.57214 10.1397C8.57659 10.7938 8.8178 11.424 9.25114 11.9139C9.70867 12.2328 10.2332 12.4426 10.7844 12.5272C10.1479 12.4042 9.58241 12.0426 9.20375 11.5164C8.82509 10.9902 8.66186 10.3391 8.74745 9.69652C8.83304 9.05389 9.16099 8.46828 9.66418 8.05952C10.1674 7.65075 10.8078 7.44975 11.4543 7.49765C12.1008 7.54554 12.7046 7.83871 13.1421 8.31715C13.5795 8.7956 13.8176 9.42314 13.8076 10.0714C13.7975 10.7196 13.5402 11.3395 13.0881 11.8041C12.636 12.2688 12.0235 12.5432 11.3758 12.571H11.4853C12.3212 12.6435 13.1518 12.3826 13.7961 11.845C14.4403 11.3075 14.8458 10.537 14.9242 9.70169Z" fill="#004A97"/>
<path d="M11.2882 7.40184C10.9261 7.39268 10.566 7.45725 10.2297 7.5916C9.89335 7.72595 9.58785 7.92729 9.33176 8.18337C9.07567 8.43946 8.87432 8.74494 8.73996 9.08126C8.6056 9.41758 8.54103 9.77771 8.55017 10.1398C8.547 10.7781 8.78119 11.3948 9.20727 11.8701L9.27299 11.9359C9.72738 12.2455 10.2426 12.4546 10.7843 12.5492C10.1478 12.4262 9.58236 12.0645 9.2037 11.5383C8.82504 11.0121 8.6618 10.3611 8.7474 9.71845C8.83299 9.07583 9.16094 8.49021 9.66413 8.08145C10.1673 7.67269 10.8077 7.47169 11.4542 7.51958C12.1008 7.56747 12.7045 7.86064 13.142 8.33909C13.5795 8.81753 13.8176 9.44508 13.8075 10.0933C13.7975 10.7415 13.5401 11.3614 13.088 11.8261C12.636 12.2908 12.0234 12.5651 11.3757 12.593H11.4852C11.5952 12.5966 11.7053 12.5892 11.8138 12.5711C12.5262 12.3795 13.1394 11.9248 13.5297 11.2987C13.9199 10.6727 14.0582 9.92191 13.9166 9.19792C13.8005 8.51123 13.4526 7.88505 12.9309 7.42374C12.8224 7.40555 12.7123 7.39822 12.6024 7.40184H11.2882Z" fill="#006AC9"/>
</svg>
