<svg width="24" height="24" viewBox="0 0 24 24" fill="none" xmlns="http://www.w3.org/2000/svg">
<path d="M18.8009 4.58014H5.1988C3.80025 4.58014 2.6665 5.71389 2.6665 7.11244V16.8873C2.6665 18.2858 3.80025 19.4196 5.1988 19.4196H18.8009C20.1995 19.4196 21.3332 18.2858 21.3332 16.8873V7.11244C21.3332 5.71389 20.1995 4.58014 18.8009 4.58014Z" fill="white"/>
<path d="M18.8013 19.4946H5.19873C4.50746 19.4938 3.84476 19.2188 3.35596 18.73C2.86716 18.2412 2.59217 17.5785 2.59131 16.8872V7.11279C2.59217 6.42153 2.86716 5.75882 3.35596 5.27002C3.84476 4.78122 4.50746 4.50623 5.19873 4.50537H18.8013C19.4925 4.50623 20.1552 4.78122 20.644 5.27002C21.1328 5.75882 21.4078 6.42153 21.4087 7.11279V16.8872C21.4078 17.5785 21.1328 18.2412 20.644 18.73C20.1552 19.2188 19.4925 19.4938 18.8013 19.4946ZM5.19873 4.65576C4.54735 4.65662 3.9229 4.91575 3.46231 5.37634C3.00172 5.83694 2.74258 6.46139 2.74173 7.11276V16.8872C2.74258 17.5386 3.00172 18.163 3.46231 18.6236C3.9229 19.0842 4.54735 19.3433 5.19873 19.3442H18.8013C19.4526 19.3433 20.0771 19.0842 20.5377 18.6236C20.9983 18.163 21.2574 17.5386 21.2583 16.8872V7.11279C21.2574 6.46142 20.9983 5.83697 20.5377 5.37637C20.0771 4.91578 19.4526 4.65665 18.8013 4.65579L5.19873 4.65576Z" fill="#E4E4E4"/>
<path d="M18.222 15.3553C18.222 15.4497 18.2034 15.5431 18.1673 15.6303C18.1312 15.7175 18.0783 15.7967 18.0115 15.8634C17.9448 15.9302 17.8656 15.9831 17.7784 16.0192C17.6913 16.0553 17.5978 16.0739 17.5035 16.0739H6.7854C6.59484 16.0739 6.41208 15.9982 6.27733 15.8634C6.14259 15.7287 6.06689 15.5459 6.06689 15.3553V8.40976C6.06689 8.3154 6.08547 8.22197 6.12158 8.13479C6.15768 8.04761 6.21061 7.9684 6.27733 7.90168C6.34405 7.83495 6.42326 7.78203 6.51043 7.74592C6.59761 7.70981 6.69105 7.69122 6.7854 7.69122H17.5034C17.5978 7.69122 17.6912 7.70981 17.7784 7.74592C17.8655 7.78203 17.9448 7.83496 18.0115 7.90168C18.0782 7.9684 18.1311 8.04762 18.1672 8.13479C18.2033 8.22197 18.2219 8.3154 18.2219 8.40976L18.222 15.3553Z" fill="#34495E"/>
<path d="M13.4121 11.8779C13.4133 11.7608 13.3911 11.6447 13.3468 11.5364C13.3026 11.428 13.2371 11.3296 13.1542 11.2469C13.0714 11.1642 12.9729 11.0989 12.8644 11.0548C12.756 11.0107 12.6399 10.9887 12.5228 10.9901L12.5195 10.99C12.343 10.99 12.1704 11.0424 12.0236 11.1405C11.8768 11.2386 11.7624 11.378 11.6949 11.5411C11.6273 11.7042 11.6097 11.8837 11.6441 12.0568C11.6786 12.23 11.7636 12.389 11.8884 12.5138C12.0133 12.6387 12.1723 12.7237 12.3455 12.7581C12.5186 12.7926 12.6981 12.7749 12.8612 12.7073C13.0243 12.6398 13.1637 12.5254 13.2618 12.3786C13.3599 12.2318 13.4122 12.0592 13.4123 11.8827L13.4121 11.8779Z" fill="#F26E21"/>
<path d="M11.4605 12.2603C11.4117 12.3164 11.3521 12.3621 11.2852 12.3945C11.2183 12.4269 11.1455 12.4454 11.0712 12.4488C10.9954 12.4498 10.9202 12.4352 10.8502 12.4059C10.7802 12.3766 10.717 12.3333 10.6645 12.2786C10.6119 12.2239 10.5712 12.1591 10.5447 12.088C10.5182 12.0169 10.5066 11.9412 10.5105 11.8654C10.5112 11.7054 10.571 11.5513 10.6785 11.4327C10.7757 11.3369 10.9063 11.2828 11.0427 11.2817C11.1209 11.2815 11.1983 11.2983 11.2694 11.3309C11.3405 11.3635 11.4037 11.4112 11.4546 11.4706V11.0757C11.3281 11.0076 11.1864 10.9722 11.0427 10.9727C10.8276 10.9883 10.6234 11.0733 10.4609 11.215C10.3666 11.2994 10.2903 11.4021 10.2369 11.5169C10.1834 11.6317 10.1538 11.7561 10.1499 11.8826C10.1495 11.9992 10.1724 12.1147 10.2173 12.2222C10.2622 12.3298 10.3282 12.4272 10.4115 12.5088C10.4947 12.5904 10.5934 12.6546 10.7018 12.6974C10.8102 12.7402 10.9261 12.7608 11.0427 12.7581L11.0498 12.7578L11.0598 12.7581C11.2031 12.7546 11.3438 12.7194 11.4719 12.6551L11.4604 12.2602C11.4546 12.266 11.4662 12.2714 11.4604 12.2769L11.4605 12.2603Z" fill="#E7E8E3"/>
<path d="M14.5389 11.2186L14.1501 12.1745L13.7037 11.0414H13.3433L14.0471 12.7752H14.2359L14.974 11.0414H14.6136L14.5389 11.2186Z" fill="#E7E8E3"/>
<path d="M15.1118 11.7967V12.7238H16.056V12.449H15.4551V11.9856H16.0389V11.6937H15.4551V11.3332H16.056V11.0413H15.1118V11.7967Z" fill="#E7E8E3"/>
<path d="M7.35188 11.0414H6.87109V12.7238H7.35185C7.56798 12.7325 7.7804 12.6657 7.95263 12.5349C8.0489 12.4556 8.1265 12.356 8.17991 12.2433C8.23332 12.1305 8.26122 12.0074 8.26163 11.8827C8.26364 11.7657 8.24093 11.6497 8.19498 11.5421C8.14904 11.4345 8.0809 11.3379 7.99502 11.2584C7.90914 11.179 7.80746 11.1186 7.69663 11.0812C7.5858 11.0438 7.46832 11.0302 7.35188 11.0414ZM7.74666 12.3118C7.61957 12.4104 7.46085 12.4592 7.30031 12.449H7.19731V11.3332H7.28312C7.36297 11.3241 7.44384 11.3316 7.52066 11.3552C7.59748 11.3788 7.66858 11.4181 7.7295 11.4705C7.78854 11.5218 7.83593 11.585 7.86851 11.6561C7.90108 11.7272 7.91808 11.8044 7.91837 11.8826C7.92532 11.9626 7.9134 12.0431 7.88358 12.1176C7.85376 12.1922 7.80686 12.2587 7.74666 12.3118Z" fill="#E7E8E3"/>
<path d="M8.74266 11.0412H8.4165V12.7236H8.74266V11.0412Z" fill="#E7E8E3"/>
<path d="M9.56655 11.6937C9.36055 11.6251 9.30904 11.5735 9.30904 11.4877C9.31617 11.4309 9.3454 11.3792 9.3904 11.3439C9.43541 11.3085 9.49254 11.2924 9.54939 11.2989C9.60285 11.298 9.65574 11.31 9.70356 11.3339C9.75138 11.3578 9.79272 11.3929 9.82407 11.4362L9.99577 11.2131C9.85862 11.0912 9.68143 11.024 9.49793 11.0243C9.43133 11.0204 9.36462 11.0299 9.30169 11.052C9.23876 11.0741 9.18085 11.1086 9.13133 11.1533C9.08182 11.198 9.04167 11.2521 9.01324 11.3125C8.9848 11.3728 8.96864 11.4382 8.96569 11.5049C8.96569 11.7453 9.06877 11.8482 9.37769 11.9684C9.45784 11.9887 9.53354 12.0236 9.60094 12.0714C9.63245 12.0875 9.65881 12.1121 9.67702 12.1425C9.69523 12.1728 9.70457 12.2076 9.70396 12.243C9.70421 12.2761 9.69758 12.3089 9.6845 12.3393C9.67141 12.3697 9.65216 12.3971 9.62795 12.4197C9.60374 12.4423 9.57511 12.4596 9.54387 12.4706C9.51262 12.4815 9.47944 12.4859 9.44642 12.4834C9.37145 12.4837 9.29791 12.4629 9.23417 12.4234C9.17042 12.384 9.11904 12.3274 9.08588 12.2602L8.87988 12.4662C8.94036 12.5667 9.02603 12.6496 9.12842 12.7068C9.23081 12.764 9.34636 12.7935 9.46364 12.7923C9.53888 12.7982 9.61452 12.7883 9.68571 12.7633C9.7569 12.7382 9.82206 12.6985 9.87701 12.6468C9.93196 12.5951 9.97548 12.5324 10.0048 12.4629C10.0341 12.3933 10.0485 12.3184 10.0472 12.243C10.0472 11.9512 9.94426 11.8311 9.56655 11.6937Z" fill="#E7E8E3"/>
<path d="M16.9827 12.0199C17.0974 12.0053 17.2022 11.9474 17.2756 11.8581C17.3491 11.7687 17.3855 11.6546 17.3775 11.5393C17.3775 11.2303 17.1543 11.0414 16.7767 11.0414H16.2788V12.7238H16.605V12.0542H16.6565L17.1199 12.7238H17.5148L16.9827 12.0199ZM16.7079 11.8139H16.605V11.2989H16.7079C16.9139 11.2989 17.0341 11.3847 17.0341 11.5565C17.0342 11.7281 16.914 11.8139 16.7079 11.8139H16.7079Z" fill="#E7E8E3"/>
</svg>
