<svg width="20" height="20" viewBox="0 0 20 20" fill="none" xmlns="http://www.w3.org/2000/svg">
<g clip-path="url(#clip0_10277_158817)">
<path d="M10 0C8.02219 0 6.08879 0.58649 4.4443 1.6853C2.79981 2.78412 1.51809 4.3459 0.761209 6.17316C0.00433305 8.00042 -0.193701 10.0111 0.192152 11.9509C0.578004 13.8907 1.53041 15.6725 2.92894 17.0711C4.32746 18.4696 6.10929 19.422 8.0491 19.8078C9.98891 20.1937 11.9996 19.9957 13.8268 19.2388C15.6541 18.4819 17.2159 17.2002 18.3147 15.5557C19.4135 13.9112 20 11.9778 20 10C19.9982 7.34838 18.9441 4.80587 17.0691 2.93089C15.1941 1.05592 12.6516 0.00177636 10 0V0ZM13.5412 12.7059C13.6488 12.8184 13.7089 12.968 13.7089 13.1236C13.7089 13.2792 13.6488 13.4288 13.5412 13.5412C13.4279 13.6471 13.2786 13.706 13.1235 13.706C12.9685 13.706 12.8192 13.6471 12.7059 13.5412L10 10.8353L7.29412 13.5412C7.18081 13.647 7.03154 13.7059 6.87647 13.7059C6.72141 13.7059 6.57213 13.647 6.45883 13.5412C6.40297 13.4869 6.35857 13.422 6.32825 13.3502C6.29793 13.2785 6.28231 13.2014 6.28231 13.1235C6.28231 13.0456 6.29793 12.9686 6.32825 12.8968C6.35857 12.8251 6.40297 12.7602 6.45883 12.7059L9.16471 10L6.45883 7.28235C6.40306 7.22925 6.35866 7.16537 6.32833 7.0946C6.29799 7.02382 6.28235 6.94762 6.28235 6.87062C6.28235 6.79361 6.29799 6.71741 6.32833 6.64663C6.35866 6.57586 6.40306 6.51198 6.45883 6.45888C6.51311 6.40304 6.57804 6.35865 6.64977 6.32834C6.72151 6.29803 6.7986 6.28241 6.87647 6.28241C6.95435 6.28241 7.03144 6.29803 7.10317 6.32834C7.17491 6.35865 7.23984 6.40304 7.29412 6.45888L10 9.16476L12.7059 6.45888C12.7602 6.40304 12.8251 6.35865 12.8968 6.32834C12.9686 6.29803 13.0457 6.28241 13.1235 6.28241C13.2014 6.28241 13.2785 6.29803 13.3502 6.32834C13.422 6.35865 13.4869 6.40304 13.5412 6.45888C13.6487 6.56898 13.7088 6.71675 13.7088 6.87062C13.7088 7.02448 13.6487 7.17225 13.5412 7.28235L10.8353 10L13.5412 12.7059Z" fill="#171723"/>
</g>
<defs>
<clipPath id="clip0_10277_158817">
<rect width="20" height="20" fill="white"/>
</clipPath>
</defs>
</svg>
