<svg width="20" height="20" viewBox="0 0 20 20" fill="none" xmlns="http://www.w3.org/2000/svg">
<g clip-path="url(#clip0_5313_35060)">
<g clip-path="url(#clip1_5313_35060)">
<path d="M13.8101 6.18994C13.7514 6.13115 13.6816 6.08451 13.6048 6.0527C13.528 6.02088 13.4457 6.0045 13.3626 6.0045C13.2794 6.0045 13.1971 6.02088 13.1203 6.0527C13.0435 6.08451 12.9738 6.13115 12.915 6.18994L10.0001 9.10485L7.08512 6.18994C7.02657 6.13019 6.95674 6.08264 6.87969 6.05004C6.80264 6.01743 6.71989 6.00043 6.63623 6.00001C6.55257 5.99959 6.46965 6.01575 6.39227 6.04757C6.3149 6.07939 6.2446 6.12624 6.18544 6.1854C6.12628 6.24456 6.07943 6.31486 6.04761 6.39223C6.01579 6.46961 5.99962 6.55253 6.00005 6.63619C6.00047 6.71985 6.01747 6.8026 6.05007 6.87965C6.08268 6.9567 6.13023 7.02653 6.18998 7.08508L9.10483 10L6.18994 12.9149C6.13019 12.9735 6.08264 13.0433 6.05004 13.1203C6.01743 13.1974 6.00043 13.2801 6.00001 13.3638C5.99959 13.4475 6.01575 13.5304 6.04757 13.6078C6.0794 13.6851 6.12624 13.7554 6.1854 13.8146C6.24456 13.8738 6.31486 13.9206 6.39223 13.9524C6.46961 13.9842 6.55253 14.0004 6.63619 14C6.71985 13.9996 6.8026 13.9826 6.87965 13.95C6.95671 13.9174 7.02653 13.8698 7.08509 13.8101L10 10.8952L12.9149 13.8101C12.9735 13.8698 13.0433 13.9174 13.1203 13.95C13.1974 13.9826 13.2801 13.9996 13.3638 14C13.4475 14.0004 13.5304 13.9842 13.6078 13.9524C13.6851 13.9206 13.7554 13.8738 13.8146 13.8146C13.8738 13.7554 13.9206 13.6851 13.9524 13.6078C13.9842 13.5304 14.0004 13.4475 14 13.3638C13.9996 13.2801 13.9826 13.1974 13.95 13.1203C13.9174 13.0433 13.8698 12.9735 13.8101 12.9149L10.8951 10L13.8101 7.08512C13.8689 7.02636 13.9155 6.95659 13.9473 6.87979C13.9792 6.80299 13.9956 6.72068 13.9956 6.63755C13.9956 6.55442 13.9792 6.4721 13.9474 6.3953C13.9156 6.3185 13.8689 6.24872 13.8101 6.18994Z" fill="#171723"/>
<path d="M10 0C8.02219 0 6.08879 0.58649 4.4443 1.6853C2.79981 2.78412 1.51809 4.3459 0.761209 6.17316C0.00433284 8.00042 -0.1937 10.0111 0.192152 11.9509C0.578004 13.8907 1.53041 15.6725 2.92894 17.0711C4.32746 18.4696 6.10929 19.422 8.0491 19.8078C9.98891 20.1937 11.9996 19.9957 13.8268 19.2388C15.6541 18.4819 17.2159 17.2002 18.3147 15.5557C19.4135 13.9112 20 11.9778 20 10C19.9968 7.3488 18.9423 4.8071 17.0676 2.93242C15.1929 1.05774 12.6512 0.00315707 10 0V0ZM10 18.8235C8.25487 18.8235 6.54893 18.306 5.09791 17.3365C3.64689 16.367 2.51596 14.9889 1.84813 13.3766C1.18029 11.7643 1.00556 9.99021 1.34602 8.27861C1.68647 6.56702 2.52683 4.99481 3.76083 3.76082C4.99482 2.52683 6.56702 1.68647 8.27862 1.34601C9.99021 1.00555 11.7643 1.18029 13.3766 1.84812C14.9889 2.51595 16.367 3.64689 17.3365 5.09791C18.306 6.54893 18.8235 8.25487 18.8235 10C18.821 12.3394 17.8905 14.5822 16.2364 16.2364C14.5822 17.8905 12.3394 18.821 10 18.8235V18.8235Z" fill="#171723"/>
</g>
</g>
<defs>
<clipPath id="clip0_5313_35060">
<rect width="20" height="20" fill="white"/>
</clipPath>
<clipPath id="clip1_5313_35060">
<rect width="20" height="20" fill="white"/>
</clipPath>
</defs>
</svg>
