<svg width="20" height="20" viewBox="0 0 20 20" fill="none" xmlns="http://www.w3.org/2000/svg">
<g clip-path="url(#clip0_5313_35240)">
<path d="M19.9928 4.80948C20.008 4.71952 19.999 4.62714 19.9667 4.54181L19.9666 4.54048L19.9626 4.53564C19.9371 4.47438 19.9 4.4186 19.8534 4.37133L17.1678 1.68696C17.0696 1.59076 16.9374 1.53719 16.7999 1.53788C16.6624 1.53858 16.5308 1.59348 16.4336 1.69066C16.3364 1.78785 16.2815 1.91945 16.2808 2.05689C16.2801 2.19433 16.3337 2.32648 16.4299 2.42464L18.2245 4.2185H9.4113C9.31711 3.33343 8.97439 2.49306 8.42273 1.79445C7.87107 1.09584 7.13298 0.5675 6.29371 0.270461C5.45445 -0.0265774 4.54825 -0.0801968 3.67979 0.115797C2.81133 0.31179 2.01606 0.749399 1.38582 1.37808C0.755579 2.00675 0.316096 2.80085 0.118133 3.66863C-0.0798304 4.53642 -0.0281967 5.44249 0.26707 6.28218C0.562336 7.12187 1.08919 7.86093 1.78677 8.41398C2.48435 8.96703 3.3242 9.31151 4.2093 9.40763V19.4783C4.2093 19.6167 4.26428 19.7494 4.36214 19.8472C4.46001 19.945 4.59274 20 4.73114 20C4.86954 20 5.00228 19.945 5.10014 19.8472C5.19801 19.7494 5.25299 19.6167 5.25299 19.4783V9.40774C6.31374 9.29125 7.30324 8.81726 8.05868 8.06375C8.81412 7.31024 9.29051 6.3221 9.40946 5.2619H18.2247L16.4298 7.05527C16.3806 7.10353 16.3414 7.16107 16.3145 7.22457C16.2876 7.28807 16.2736 7.35626 16.2733 7.42521C16.2729 7.49415 16.2862 7.56248 16.3125 7.62625C16.3387 7.69002 16.3773 7.74795 16.4261 7.7967C16.4749 7.84546 16.5328 7.88406 16.5966 7.91029C16.6604 7.93651 16.7287 7.94983 16.7977 7.94948C16.8666 7.94914 16.9349 7.93512 16.9984 7.90826C17.0619 7.88139 17.1194 7.8422 17.1677 7.79296L19.8534 5.10904C19.9168 5.0424 19.9609 4.95976 19.981 4.86998C19.9862 4.85009 19.9902 4.82988 19.9928 4.80948V4.80948ZM6.76599 6.76395C6.65369 6.86917 6.5059 6.92829 6.35199 6.92953C6.20208 6.92594 6.05881 6.86695 5.94985 6.76395L4.73153 5.53408L3.51311 6.76395C3.40384 6.87015 3.25746 6.92956 3.10506 6.92956C2.95267 6.92956 2.80629 6.87015 2.69702 6.76395C2.59092 6.65702 2.53139 6.5125 2.53139 6.36188C2.53139 6.21126 2.59092 6.06675 2.69702 5.95981L3.93908 4.73L2.69702 3.51187C2.64412 3.45919 2.60222 3.39652 2.57379 3.3275C2.54535 3.25847 2.53094 3.18448 2.53139 3.10984C2.53111 3.03126 2.54789 2.95357 2.58056 2.88211C2.61324 2.81065 2.66103 2.74712 2.72065 2.69593C2.83027 2.60308 2.96749 2.54904 3.11099 2.54219C3.259 2.55425 3.39957 2.61212 3.51315 2.70777L4.73153 3.9377L5.97358 2.69593C6.07989 2.6053 6.21262 2.55138 6.35203 2.54219C6.5037 2.55387 6.64816 2.61164 6.76603 2.70777C6.8722 2.81467 6.93178 2.9592 6.93178 3.10984C6.93178 3.26048 6.8722 3.40501 6.76603 3.51191L5.52411 4.73L6.76599 5.95981C6.87216 6.06671 6.93174 6.21124 6.93174 6.36188C6.93174 6.51252 6.87216 6.65705 6.76599 6.76395V6.76395Z" fill="#171723"/>
</g>
<defs>
<clipPath id="clip0_5313_35240">
<rect width="20" height="20" fill="white"/>
</clipPath>
</defs>
</svg>
