<svg width="20" height="20" viewBox="0 0 20 20" fill="none" xmlns="http://www.w3.org/2000/svg">
<g clip-path="url(#clip0_5313_35060)">
<path d="M12.5077 7.49233C12.469 7.45363 12.4231 7.42294 12.3725 7.40199C12.322 7.38105 12.2678 7.37027 12.2131 7.37027C12.1584 7.37027 12.1042 7.38105 12.0537 7.40199C12.0031 7.42294 11.9572 7.45363 11.9185 7.49233L9.99996 9.41087L8.0814 7.49233C8.04285 7.453 7.9969 7.4217 7.94618 7.40024C7.89547 7.37878 7.84101 7.36759 7.78594 7.36731C7.73088 7.36704 7.6763 7.37768 7.62537 7.39862C7.57445 7.41957 7.52818 7.4504 7.48924 7.48934C7.4503 7.52827 7.41947 7.57454 7.39852 7.62547C7.37758 7.6764 7.36694 7.73097 7.36722 7.78604C7.3675 7.8411 7.37869 7.89557 7.40015 7.94628C7.4216 7.997 7.4529 8.04295 7.49223 8.08149L9.41073 10.0001L7.49221 11.9186C7.45288 11.9571 7.42158 12.0031 7.40012 12.0538C7.37866 12.1045 7.36747 12.159 7.36719 12.214C7.36691 12.2691 7.37756 12.3237 7.3985 12.3746C7.41944 12.4255 7.45028 12.4718 7.48921 12.5108C7.52815 12.5497 7.57442 12.5805 7.62535 12.6015C7.67628 12.6224 7.73085 12.6331 7.78592 12.6328C7.84098 12.6325 7.89545 12.6213 7.94616 12.5998C7.99687 12.5784 8.04283 12.5471 8.08137 12.5078L9.99991 10.5892L11.9185 12.5078C11.957 12.5471 12.003 12.5784 12.0537 12.5998C12.1044 12.6213 12.1588 12.6325 12.2139 12.6328C12.269 12.6331 12.3235 12.6224 12.3745 12.6015C12.4254 12.5805 12.4717 12.5497 12.5106 12.5108C12.5496 12.4718 12.5804 12.4255 12.6013 12.3746C12.6223 12.3237 12.6329 12.2691 12.6326 12.214C12.6324 12.159 12.6212 12.1045 12.5997 12.0538C12.5782 12.0031 12.547 11.9571 12.5076 11.9186L10.5891 10.0001L12.5076 8.08152C12.5463 8.04284 12.577 7.99692 12.598 7.94637C12.6189 7.89583 12.6297 7.84165 12.6297 7.78693C12.6297 7.73222 12.6189 7.67804 12.598 7.62749C12.5771 7.57694 12.5464 7.53101 12.5077 7.49233Z" fill="#171723"/>
<path d="M9.99984 2.91638C8.59889 2.91638 7.2294 3.33181 6.06455 4.11014C4.8997 4.88847 3.99181 5.99473 3.45569 7.28904C2.91957 8.58335 2.7793 10.0076 3.05261 11.3816C3.32592 12.7556 4.00055 14.0178 4.99117 15.0084C5.98179 15.999 7.24392 16.6736 8.61795 16.9469C9.99198 17.2203 11.4162 17.08 12.7105 16.5439C14.0048 16.0077 15.1111 15.0999 15.8894 13.935C16.6677 12.7702 17.0832 11.4007 17.0832 9.99971C17.0809 8.12178 16.3339 6.32141 15.006 4.99351C13.6781 3.66561 11.8778 2.91862 9.99984 2.91638ZM9.99984 16.2497C8.76371 16.2497 7.55533 15.8832 6.52753 15.1964C5.49972 14.5096 4.69864 13.5335 4.22559 12.3915C3.75255 11.2494 3.62877 9.99278 3.86993 8.7804C4.11109 7.56802 4.70634 6.45438 5.58042 5.5803C6.4545 4.70622 7.56814 4.11097 8.78053 3.86981C9.99291 3.62865 11.2496 3.75242 12.3916 4.22547C13.5336 4.69852 14.5098 5.49959 15.1965 6.5274C15.8833 7.55521 16.2498 8.76358 16.2498 9.99971C16.248 11.6568 15.589 13.2454 14.4173 14.4171C13.2455 15.5888 11.6569 16.2479 9.99984 16.2497Z" fill="#171723"/>
</g>
<defs>
<clipPath id="clip0_5313_35060">
<rect width="20" height="20" fill="white"/>
</clipPath>
</defs>
</svg>
