<svg width="20" height="20" viewBox="0 0 20 20" fill="none" xmlns="http://www.w3.org/2000/svg">
<g clip-path="url(#clip0_10317_146851)">
<path d="M17.3985 5.20705C17.9134 5.20696 18.4167 5.05416 18.8448 4.768C19.2729 4.48184 19.6065 4.07516 19.8035 3.59939C20.0005 3.12362 20.0519 2.60013 19.9514 2.09512C19.8508 1.5901 19.6028 1.12624 19.2386 0.762204C18.8744 0.398164 18.4104 0.150291 17.9054 0.04993C17.4003 -0.050431 16.8769 0.00122785 16.4012 0.198374C15.9255 0.395519 15.5189 0.729298 15.2329 1.1575C14.9469 1.5857 14.7943 2.0891 14.7944 2.60403C14.7954 3.29428 15.07 3.95599 15.5582 4.44398C16.0464 4.93197 16.7082 5.20639 17.3985 5.20705V5.20705Z" fill="#171723"/>
<path d="M17.3984 14.7928C16.8836 14.7929 16.3803 14.9457 15.9522 15.2318C15.5241 15.5179 15.1905 15.9246 14.9935 16.4003C14.7965 16.876 14.745 17.3994 14.8455 17.9044C14.9459 18.4094 15.1939 18.8733 15.558 19.2373C15.922 19.6014 16.3859 19.8494 16.8909 19.9498C17.3959 20.0503 17.9193 19.9988 18.395 19.8018C18.8707 19.6048 19.2774 19.2712 19.5635 18.8431C19.8496 18.4151 20.0024 17.9118 20.0025 17.3969C20.0018 16.7065 19.7272 16.0445 19.239 15.5563C18.7508 15.0681 18.0889 14.7936 17.3984 14.7928Z" fill="#171723"/>
<path d="M17.3985 12.6039C18.8366 12.6039 20.0025 11.438 20.0025 9.99984C20.0025 8.56168 18.8366 7.39581 17.3985 7.39581C15.9603 7.39581 14.7944 8.56168 14.7944 9.99984C14.7944 11.438 15.9603 12.6039 17.3985 12.6039Z" fill="#171723"/>
<path d="M14.0448 9.93774C14.0421 9.917 14.0381 9.89645 14.0328 9.87622C14.0135 9.79333 13.9731 9.71681 13.9156 9.65408L13.9104 9.64439L12.7107 8.43475C12.6156 8.33911 12.4864 8.28513 12.3515 8.28467C12.2166 8.28422 12.087 8.33731 11.9912 8.43231C11.8955 8.5273 11.8413 8.65642 11.8406 8.79132C11.84 8.92622 11.8929 9.05587 11.9877 9.15179L12.3284 9.49443H7.4963C7.4413 9.08302 7.31788 8.68371 7.13113 8.31303L12.3911 5.68188L12.243 6.12668C12.2003 6.25469 12.2102 6.39441 12.2706 6.5151C12.3309 6.63579 12.4367 6.72756 12.5647 6.77024C12.6927 6.81291 12.8325 6.80298 12.9532 6.74263C13.0738 6.68229 13.1656 6.57647 13.2083 6.44846L13.7446 4.83858C13.7639 4.77827 13.7716 4.71487 13.7674 4.65169L13.7695 4.64294L13.7688 4.64107C13.7598 4.55359 13.7281 4.46998 13.6768 4.39856C13.6651 4.38089 13.6521 4.36405 13.6381 4.34815C13.5821 4.27971 13.5089 4.22746 13.426 4.19683L13.4248 4.19602L13.4242 4.19583L13.4228 4.19502L13.4213 4.19483L11.8099 3.64978C11.7465 3.62762 11.6793 3.61826 11.6122 3.62223C11.5451 3.6262 11.4794 3.64343 11.4191 3.67292C11.3587 3.70241 11.3047 3.74358 11.2604 3.79405C11.216 3.84452 11.182 3.90328 11.1605 3.96695C11.139 4.03061 11.1303 4.09791 11.1349 4.16495C11.1396 4.23199 11.1575 4.29745 11.1876 4.35754C11.2177 4.41763 11.2594 4.47115 11.3103 4.51502C11.3612 4.55889 11.4203 4.59224 11.4842 4.61313L11.943 4.76806L6.55072 7.46611C6.03899 6.90159 5.36833 6.50523 4.62701 6.3292C3.88568 6.15317 3.10843 6.20572 2.39754 6.47992C1.68665 6.75413 1.07544 7.23715 0.644352 7.86542C0.213264 8.49368 -0.0175032 9.23775 -0.0175781 9.99969C-0.017653 10.7616 0.212967 11.5057 0.643933 12.1341C1.0749 12.7624 1.68601 13.2456 2.39684 13.5199C3.10768 13.7943 3.88492 13.847 4.62628 13.6711C5.36765 13.4952 6.03838 13.099 6.55022 12.5346L11.943 15.2319L11.4842 15.3868C11.37 15.4254 11.2732 15.5034 11.2112 15.6067C11.1491 15.71 11.1258 15.8321 11.1453 15.951C11.1649 16.07 11.2261 16.1781 11.318 16.2561C11.4099 16.3341 11.5265 16.377 11.647 16.377C11.7024 16.3767 11.7574 16.3677 11.8099 16.3501L13.421 15.8062L13.4228 15.8059L13.4241 15.8051L13.4248 15.8049L13.4259 15.8042C13.5088 15.7735 13.5821 15.7212 13.6382 15.6528C13.6519 15.6372 13.6646 15.6207 13.6761 15.6035C13.7278 15.5319 13.7597 15.4479 13.7686 15.36L13.7694 15.358L13.7673 15.3488C13.7714 15.2858 13.7637 15.2225 13.7446 15.1623L13.2083 13.5514C13.1656 13.4234 13.0738 13.3176 12.9531 13.2572C12.8324 13.1969 12.6927 13.1869 12.5647 13.2296C12.4367 13.2723 12.3309 13.364 12.2705 13.4847C12.2102 13.6054 12.2002 13.7451 12.2429 13.8732L12.3914 14.3191L7.1307 11.6876C7.31688 11.3185 7.44023 10.921 7.49567 10.5114H12.3222L11.9897 10.8441C11.9417 10.8912 11.9035 10.9472 11.8773 11.0091C11.8511 11.071 11.8375 11.1375 11.8371 11.2047C11.8368 11.2719 11.8498 11.3385 11.8754 11.4006C11.9009 11.4628 11.9385 11.5193 11.9861 11.5668C12.0336 11.6143 12.09 11.6519 12.1522 11.6775C12.2143 11.703 12.2809 11.716 12.3481 11.7157C12.4153 11.7154 12.4818 11.7017 12.5437 11.6755C12.6056 11.6493 12.6617 11.6111 12.7087 11.5631L13.9084 10.3624C13.9521 10.3175 13.9871 10.2649 14.0115 10.2072L14.0187 10.1985L14.0189 10.1961C14.0501 10.1137 14.059 10.0246 14.0448 9.93774V9.93774Z" fill="#171723"/>
</g>
<defs>
<clipPath id="clip0_10317_146851">
<rect width="20" height="20" fill="white"/>
</clipPath>
</defs>
</svg>
