<svg width="21" height="20" viewBox="0 0 21 20" fill="none" xmlns="http://www.w3.org/2000/svg">
<g clip-path="url(#clip0_10314_145365)">
<g clip-path="url(#clip1_10314_145365)">
<path d="M20.0213 6.77988H13.7499V0.508466C13.7499 0.441682 13.7368 0.375546 13.7113 0.313839C13.6857 0.252131 13.6483 0.196063 13.6011 0.14884C13.5538 0.101617 13.4978 0.064165 13.4361 0.0386259C13.3744 0.0130868 13.3082 -3.86826e-05 13.2414 8.56304e-08H1.03825C0.971468 -3.86826e-05 0.905331 0.0130868 0.843624 0.0386259C0.781917 0.064165 0.725848 0.101617 0.678625 0.14884C0.631402 0.196063 0.59395 0.252131 0.568411 0.313839C0.542872 0.375546 0.529746 0.441682 0.529785 0.508466V12.7116C0.529746 12.7784 0.542872 12.8446 0.568411 12.9063C0.59395 12.968 0.631402 13.0241 0.678625 13.0713C0.725848 13.1185 0.781917 13.1559 0.843624 13.1815C0.905331 13.207 0.971468 13.2202 1.03825 13.2201H7.30967V19.4915C7.30963 19.5583 7.32276 19.6245 7.3483 19.6862C7.37384 19.7479 7.41129 19.8039 7.45851 19.8512C7.50574 19.8984 7.5618 19.9358 7.62351 19.9614C7.68522 19.9869 7.75135 20 7.81814 20H20.0213C20.0881 20 20.1542 19.9869 20.2159 19.9614C20.2777 19.9358 20.3337 19.8984 20.3809 19.8512C20.4282 19.8039 20.4656 19.7479 20.4912 19.6862C20.5167 19.6245 20.5298 19.5583 20.5298 19.4915V7.28835C20.5298 7.22157 20.5167 7.15543 20.4912 7.09372C20.4656 7.03202 20.4282 6.97595 20.3809 6.92873C20.3337 6.88151 20.2777 6.84405 20.2159 6.81851C20.1542 6.79297 20.0881 6.77985 20.0213 6.77988V6.77988ZM1.54672 12.2032V1.01693H12.733V6.77988H7.81814C7.75135 6.77985 7.68522 6.79297 7.62351 6.81851C7.5618 6.84405 7.50574 6.88151 7.45851 6.92873C7.41129 6.97595 7.37384 7.03202 7.3483 7.09372C7.32276 7.15543 7.30963 7.22157 7.30967 7.28835V12.2032H1.54672ZM12.733 7.79682V12.2032H8.3266V7.79682H12.733ZM19.5129 18.9831H8.3266V13.2201H13.2414C13.3082 13.2202 13.3744 13.207 13.4361 13.1815C13.4978 13.1559 13.5538 13.1185 13.6011 13.0713C13.6483 13.0241 13.6857 12.968 13.7113 12.9063C13.7368 12.8446 13.7499 12.7784 13.7499 12.7116V7.79682H19.5129V18.9831Z" fill="#171723"/>
</g>
</g>
<defs>
<clipPath id="clip0_10314_145365">
<rect width="20" height="20" fill="white" transform="translate(0.529785)"/>
</clipPath>
<clipPath id="clip1_10314_145365">
<rect width="20" height="20" fill="white" transform="translate(0.529785)"/>
</clipPath>
</defs>
</svg>
