<svg width="20" height="20" viewBox="0 0 20 20" fill="none" xmlns="http://www.w3.org/2000/svg">
<g clip-path="url(#clip0_5313_35127)">
<path d="M14.7352 7.48783C14.6961 7.44956 14.6498 7.41938 14.599 7.39899C14.5482 7.37861 14.4939 7.36843 14.4392 7.36903C14.3845 7.36963 14.3305 7.38101 14.2802 7.40251C14.2298 7.42401 14.1843 7.45522 14.146 7.49434L10.0949 11.6327L5.84763 7.47969C5.80865 7.44081 5.76235 7.41004 5.7114 7.38916C5.66045 7.36828 5.60587 7.3577 5.55082 7.35804C5.49576 7.35838 5.44131 7.36963 5.39063 7.39114C5.33994 7.41264 5.29402 7.44398 5.25552 7.48334C5.21702 7.5227 5.1867 7.5693 5.16632 7.62045C5.14594 7.6716 5.13589 7.72628 5.13677 7.78133C5.13765 7.83639 5.14943 7.89072 5.17143 7.94119C5.19343 7.99166 5.22522 8.03728 5.26495 8.07539L9.81003 12.5196C9.84914 12.5578 9.89541 12.588 9.94618 12.6084C9.99696 12.6288 10.0513 12.6389 10.106 12.6383C10.1607 12.6377 10.2147 12.6264 10.265 12.6049C10.3154 12.5834 10.3609 12.5522 10.3992 12.5131L14.7416 8.07702C14.7799 8.03791 14.8101 7.99165 14.8305 7.94087C14.8509 7.89009 14.8611 7.8358 14.8605 7.78108C14.8599 7.72637 14.8485 7.67231 14.827 7.62199C14.8055 7.57167 14.7743 7.52609 14.7352 7.48783Z" fill="#171723"/>
</g>
<defs>
<clipPath id="clip0_5313_35127">
<rect width="20" height="20" fill="white"/>
</clipPath>
</defs>
</svg>
