<svg width="20" height="20" viewBox="0 0 20 20" fill="none" xmlns="http://www.w3.org/2000/svg">
<g clip-path="url(#clip0_5313_35138)">
<path d="M4.93549 3.87097C6.00443 3.87097 6.87097 3.00443 6.87097 1.93549C6.87097 0.866547 6.00443 0 4.93549 0C3.86655 0 3 0.866547 3 1.93549C3 3.00443 3.86655 3.87097 4.93549 3.87097Z" fill="#171723"/>
<path d="M4.93549 11.9354C6.00443 11.9354 6.87097 11.0689 6.87097 9.99994C6.87097 8.931 6.00443 8.06445 4.93549 8.06445C3.86655 8.06445 3 8.931 3 9.99994C3 11.0689 3.86655 11.9354 4.93549 11.9354Z" fill="#171723"/>
<path d="M4.93549 20C6.00443 20 6.87097 19.1335 6.87097 18.0645C6.87097 16.9956 6.00443 16.129 4.93549 16.129C3.86655 16.129 3 16.9956 3 18.0645C3 19.1335 3.86655 20 4.93549 20Z" fill="#171723"/>
<path d="M14.6127 3.87097C15.6817 3.87097 16.5482 3.00443 16.5482 1.93549C16.5482 0.866547 15.6817 0 14.6127 0C13.5438 0 12.6772 0.866547 12.6772 1.93549C12.6772 3.00443 13.5438 3.87097 14.6127 3.87097Z" fill="#171723"/>
<path d="M14.6127 11.9354C15.6817 11.9354 16.5482 11.0689 16.5482 9.99994C16.5482 8.931 15.6817 8.06445 14.6127 8.06445C13.5438 8.06445 12.6772 8.931 12.6772 9.99994C12.6772 11.0689 13.5438 11.9354 14.6127 11.9354Z" fill="#171723"/>
<path d="M14.6127 20C15.6817 20 16.5482 19.1335 16.5482 18.0645C16.5482 16.9956 15.6817 16.129 14.6127 16.129C13.5438 16.129 12.6772 16.9956 12.6772 18.0645C12.6772 19.1335 13.5438 20 14.6127 20Z" fill="#171723"/>
</g>
<defs>
<clipPath id="clip0_5313_35138">
<rect width="20" height="20" fill="white"/>
</clipPath>
</defs>
</svg>
