<svg width="20" height="20" viewBox="0 0 20 20" fill="none" xmlns="http://www.w3.org/2000/svg">
<g clip-path="url(#clip0_10314_145591)">
<path d="M9.73747 12.5975C9.62696 12.5975 9.52098 12.6414 9.44284 12.7196C9.3647 12.7977 9.3208 12.9037 9.3208 13.0142C9.3208 13.1247 9.3647 13.2307 9.44284 13.3088C9.52098 13.387 9.62696 13.4309 9.73747 13.4309H10.2624C10.3729 13.4309 10.4789 13.387 10.557 13.3088C10.6351 13.2307 10.679 13.1247 10.679 13.0142C10.679 12.9037 10.6351 12.7977 10.557 12.7196C10.4789 12.6414 10.3729 12.5975 10.2624 12.5975H9.73747Z" fill="#171723"/>
<path d="M17.7777 4.35774H16.3641V4.2808C16.3641 4.1703 16.3202 4.06431 16.2421 3.98617C16.1639 3.90803 16.0579 3.86414 15.9474 3.86414C15.8369 3.86414 15.7309 3.90803 15.6528 3.98617C15.5747 4.06431 15.5308 4.1703 15.5308 4.2808V4.35771H14.1123C14.0018 4.35771 13.8958 4.40161 13.8177 4.47975C13.7396 4.55789 13.6957 4.66387 13.6957 4.77438C13.6957 4.88488 13.7396 4.99086 13.8177 5.06901C13.8958 5.14715 14.0018 5.19104 14.1123 5.19104H15.5308V6.06672H14.8748C14.8201 6.06669 14.7659 6.07744 14.7153 6.09837C14.6648 6.1193 14.6188 6.14999 14.5801 6.18869C14.5414 6.22738 14.5107 6.27333 14.4898 6.3239C14.4689 6.37446 14.4581 6.42866 14.4582 6.48339V7.66298H13.13C12.743 7.66348 12.3719 7.81747 12.0982 8.09116C11.8245 8.36486 11.6706 8.73593 11.6701 9.12299C11.6683 9.2871 11.603 9.44413 11.4878 9.56101C11.3726 9.67789 11.2165 9.7455 11.0524 9.74961H8.96582C8.87117 9.74973 8.77784 9.7275 8.69341 9.68472C8.60899 9.64194 8.53586 9.57983 8.47998 9.50343C8.39129 9.39684 8.34443 9.26161 8.34815 9.12299C8.34766 8.73592 8.19369 8.36484 7.91999 8.09115C7.64629 7.81745 7.27522 7.66347 6.88815 7.66298H5.5625V6.48339C5.56253 6.42866 5.55177 6.37446 5.53085 6.3239C5.50992 6.27333 5.47923 6.22739 5.44053 6.18869C5.40183 6.14999 5.35589 6.1193 5.30532 6.09837C5.25476 6.07744 5.20056 6.06669 5.14583 6.06672H4.4956V5.19107H5.88721C5.99772 5.19107 6.1037 5.14717 6.18184 5.06903C6.25998 4.99089 6.30388 4.88491 6.30388 4.7744C6.30388 4.6639 6.25998 4.55791 6.18184 4.47977C6.1037 4.40163 5.99772 4.35774 5.88721 4.35774H4.4956V4.2808C4.4956 4.1703 4.4517 4.06431 4.37356 3.98617C4.29542 3.90803 4.18944 3.86414 4.07893 3.86414C3.96843 3.86414 3.86245 3.90803 3.78431 3.98617C3.70617 4.06431 3.66227 4.1703 3.66227 4.2808V4.35771H2.22184C2.11134 4.35771 2.00535 4.40161 1.92721 4.47975C1.84907 4.55789 1.80518 4.66387 1.80518 4.77438C1.80518 4.88488 1.84907 4.99086 1.92721 5.06901C2.00535 5.14715 2.11134 5.19104 2.22184 5.19104H3.66227V6.06672H3.00553C2.95081 6.06669 2.89661 6.07744 2.84605 6.09837C2.79548 6.1193 2.74953 6.14999 2.71084 6.18869C2.67214 6.22738 2.64145 6.27333 2.62052 6.3239C2.59959 6.37446 2.58884 6.42866 2.58887 6.48339V8.1179C2.58816 8.47881 2.71905 8.82761 2.95702 9.09895C3.19499 9.3703 3.52371 9.54559 3.88163 9.592C4.23955 9.6384 4.6021 9.55274 4.9014 9.35105C5.2007 9.14936 5.41621 8.84548 5.50757 8.49632H6.88817C7.05369 8.49852 7.21181 8.56525 7.32885 8.6823C7.4459 8.79935 7.51263 8.95747 7.51483 9.12299C7.51623 9.27764 7.54199 9.43111 7.59118 9.57774C6.59648 10.0355 5.75346 10.7682 5.16157 11.6894C4.56968 12.6107 4.25362 13.6819 4.25068 14.7769V15.3026H4.05453C3.94402 15.3026 3.83804 15.3465 3.7599 15.4247C3.68176 15.5028 3.63786 15.6088 3.63786 15.7193C3.63786 15.8298 3.68176 15.9358 3.7599 16.0139C3.83804 16.0921 3.94402 16.136 4.05453 16.136H5.28011C5.39062 16.136 5.4966 16.0921 5.57474 16.0139C5.65288 15.9358 5.69678 15.8298 5.69678 15.7193C5.69678 15.6088 5.65288 15.5028 5.57474 15.4247C5.4966 15.3465 5.39062 15.3026 5.28011 15.3026H5.084V14.7769C5.08607 13.8155 5.37055 12.8759 5.9021 12.0748C6.43365 11.2736 7.18886 10.6464 8.07389 10.2708C8.32695 10.4734 8.64163 10.5835 8.96582 10.5829H9.59244V11.0432C9.0708 11.0469 8.57187 11.2572 8.20493 11.628C7.83798 11.9987 7.63292 12.4998 7.63464 13.0215C7.63637 13.5431 7.84474 14.0429 8.21412 14.4112C8.58351 14.7796 9.08381 14.9865 9.60547 14.9868H10.3932C10.9135 14.9874 11.413 14.7822 11.7826 14.4161C12.1522 14.0499 12.3621 13.5524 12.3664 13.0321C12.3707 12.5119 12.1691 12.011 11.8055 11.6388C11.442 11.2665 10.946 11.0532 10.4258 11.0452V10.5829H11.0524C11.3773 10.584 11.6928 10.4743 11.947 10.2721C12.8312 10.648 13.5856 11.2753 14.1165 12.0761C14.6475 12.8769 14.9315 13.816 14.9335 14.7769V15.3026H14.7561C14.6455 15.3026 14.5396 15.3465 14.4614 15.4246C14.3833 15.5028 14.3394 15.6087 14.3394 15.7192C14.3394 15.8298 14.3833 15.9357 14.4614 16.0139C14.5396 16.092 14.6455 16.1359 14.7561 16.1359H15.9442C16.0547 16.1359 16.1607 16.092 16.2388 16.0139C16.3169 15.9357 16.3608 15.8298 16.3608 15.7192C16.3608 15.6087 16.3169 15.5028 16.2388 15.4246C16.1607 15.3465 16.0547 15.3026 15.9442 15.3026H15.7668V14.7769C15.7638 13.6818 15.4477 12.6104 14.8557 11.6891C14.2638 10.7679 13.4207 10.0351 12.4259 9.57728C12.4758 9.43093 12.5019 9.27757 12.5034 9.12298C12.5056 8.95747 12.5724 8.79935 12.6894 8.6823C12.8064 8.56526 12.9645 8.49852 13.13 8.49631H14.5131C14.6043 8.84545 14.8198 9.14934 15.119 9.35104C15.4183 9.55274 15.7808 9.6384 16.1387 9.59199C16.4965 9.54558 16.8252 9.37027 17.0631 9.09891C17.301 8.82756 17.4318 8.47877 17.431 8.11789V6.48339C17.431 6.42866 17.4203 6.37446 17.3993 6.3239C17.3784 6.27333 17.3477 6.22738 17.309 6.18869C17.2703 6.14999 17.2244 6.1193 17.1738 6.09837C17.1232 6.07744 17.0691 6.06669 17.0143 6.06672H16.3641V5.19107H17.7777C17.8882 5.19107 17.9942 5.14717 18.0723 5.06903C18.1504 4.99089 18.1943 4.88491 18.1943 4.7744C18.1943 4.6639 18.1504 4.55791 18.0723 4.47977C17.9942 4.40163 17.8882 4.35774 17.7777 4.35774ZM4.72917 8.1179C4.72917 8.29122 4.66032 8.45743 4.53777 8.57998C4.41521 8.70254 4.249 8.77138 4.07568 8.77138C3.90237 8.77138 3.73615 8.70254 3.6136 8.57998C3.49105 8.45743 3.4222 8.29122 3.4222 8.1179V6.90005H4.72917V8.1179ZM11.5325 13.0141C11.5322 13.3162 11.4121 13.6058 11.1985 13.8194C10.9849 14.033 10.6953 14.1531 10.3932 14.1535H9.60547C9.30389 14.1526 9.01494 14.0323 8.80198 13.8187C8.58902 13.6052 8.46942 13.3159 8.46942 13.0143C8.46942 12.7128 8.58902 12.4235 8.80198 12.2099C9.01494 11.9964 9.30389 11.876 9.60547 11.8752H10.3932C10.6952 11.8755 10.9848 11.9956 11.1984 12.2091C11.412 12.4226 11.5321 12.7121 11.5325 13.0141ZM16.5976 8.11789C16.5976 8.2911 16.5288 8.45721 16.4064 8.57969C16.2839 8.70216 16.1178 8.77097 15.9446 8.77097C15.7714 8.77097 15.6053 8.70216 15.4828 8.57969C15.3603 8.45721 15.2915 8.2911 15.2915 8.11789V8.0958C15.2918 8.09011 15.2948 8.08538 15.2948 8.07963C15.2948 8.07388 15.2918 8.06915 15.2915 8.06345V6.90005H16.5976V8.11789Z" fill="#171723"/>
</g>
<defs>
<clipPath id="clip0_10314_145591">
<rect width="20" height="20" fill="white"/>
</clipPath>
</defs>
</svg>
