<svg width="20" height="20" viewBox="0 0 20 20" fill="none" xmlns="http://www.w3.org/2000/svg">
<g clip-path="url(#clip0_10314_145591)">
<path d="M9.73747 12.5975C9.62696 12.5975 9.52098 12.6414 9.44284 12.7196C9.3647 12.7977 9.3208 12.9037 9.3208 13.0142C9.3208 13.1247 9.3647 13.2307 9.44284 13.3088C9.52098 13.387 9.62696 13.4309 9.73747 13.4309H10.2624C10.3729 13.4309 10.4789 13.387 10.557 13.3088C10.6351 13.2307 10.679 13.1247 10.679 13.0142C10.679 12.9037 10.6351 12.7977 10.557 12.7196C10.4789 12.6414 10.3729 12.5975 10.2624 12.5975H9.73747Z" fill="#171723"/>
<path d="M19.4915 3.56311H17.7665V3.47534C17.7665 3.34927 17.7129 3.22837 17.6176 3.13923C17.5222 3.05008 17.3929 3 17.2581 3C17.1232 3 16.9939 3.05008 16.8985 3.13923C16.8032 3.22837 16.7496 3.34927 16.7496 3.47534V3.56308H15.0187C14.8838 3.56308 14.7545 3.61316 14.6591 3.70231C14.5638 3.79145 14.5102 3.91236 14.5102 4.03843C14.5102 4.1645 14.5638 4.2854 14.6591 4.37455C14.7545 4.46369 14.8838 4.51377 15.0187 4.51377H16.7496V5.51276H15.9492C15.8824 5.51273 15.8162 5.525 15.7545 5.54887C15.6928 5.57275 15.6367 5.60776 15.5895 5.65191C15.5423 5.69605 15.5048 5.74847 15.4793 5.80616C15.4538 5.86385 15.4406 5.92567 15.4407 5.98811V7.33382H13.8199C13.3476 7.33439 12.8948 7.51006 12.5608 7.8223C12.2268 8.13454 12.0389 8.55786 12.0383 8.99943C12.0362 9.18665 11.9564 9.36579 11.8158 9.49914C11.6752 9.63248 11.4848 9.70961 11.2846 9.7143H8.73827C8.62277 9.71444 8.50887 9.68907 8.40584 9.64027C8.30282 9.59147 8.21358 9.52061 8.14539 9.43346C8.03716 9.31185 7.97997 9.15757 7.98452 8.99943C7.98392 8.55785 7.79602 8.13452 7.46202 7.82228C7.12802 7.51004 6.67519 7.33438 6.20285 7.33382H4.58513V5.98811C4.58517 5.92567 4.57205 5.86385 4.54651 5.80616C4.52097 5.74847 4.48351 5.69606 4.43629 5.65191C4.38907 5.60776 4.333 5.57275 4.27129 5.54887C4.20959 5.525 4.14345 5.51273 4.07667 5.51276H3.28318V4.5138H4.98138C5.11624 4.5138 5.24557 4.46372 5.34092 4.37457C5.43628 4.28543 5.48985 4.16452 5.48985 4.03846C5.48985 3.91239 5.43628 3.79148 5.34092 3.70234C5.24557 3.61319 5.11624 3.56311 4.98138 3.56311H3.28318V3.47534C3.28318 3.34927 3.22961 3.22837 3.13425 3.13923C3.03889 3.05008 2.90956 3 2.77471 3C2.63986 3 2.51053 3.05008 2.41517 3.13923C2.31981 3.22837 2.26624 3.34927 2.26624 3.47534V3.56308H0.508466C0.373613 3.56308 0.244282 3.61316 0.148926 3.70231C0.0535705 3.79145 0 3.91236 0 4.03843C0 4.1645 0.0535705 4.2854 0.148926 4.37455C0.244282 4.46369 0.373613 4.51377 0.508466 4.51377H2.26624V5.51276H1.46482C1.39804 5.51273 1.3319 5.525 1.27019 5.54887C1.20849 5.57275 1.15242 5.60776 1.10519 5.65191C1.05797 5.69605 1.02052 5.74847 0.994979 5.80616C0.96944 5.86385 0.956315 5.92567 0.956354 5.98811V7.8528C0.955493 8.26454 1.11522 8.66245 1.40562 8.97201C1.69601 9.28157 2.09716 9.48155 2.53394 9.53449C2.97071 9.58743 3.41314 9.4897 3.77838 9.25961C4.14362 9.02952 4.40661 8.68284 4.5181 8.28451H6.20287C6.40485 8.28702 6.59781 8.36315 6.74065 8.49668C6.88349 8.63022 6.96492 8.8106 6.9676 8.99943C6.96931 9.17586 7.00075 9.35095 7.06076 9.51823C5.84692 10.0405 4.81816 10.8764 4.09587 11.9273C3.37358 12.9782 2.98789 14.2004 2.98429 15.4496V16.0493H2.74492C2.61007 16.0493 2.48074 16.0994 2.38538 16.1885C2.29003 16.2777 2.23646 16.3986 2.23646 16.5247C2.23646 16.6507 2.29003 16.7716 2.38538 16.8608C2.48074 16.9499 2.61007 17 2.74492 17H4.24053C4.37538 17 4.50471 16.9499 4.60007 16.8608C4.69542 16.7716 4.74899 16.6507 4.74899 16.5247C4.74899 16.3986 4.69542 16.2777 4.60007 16.1885C4.50471 16.0994 4.37538 16.0493 4.24053 16.0493H4.00121V15.4496C4.00373 14.3528 4.35089 13.2808 4.99955 12.3669C5.64822 11.453 6.56981 10.7373 7.64983 10.3089C7.95864 10.5401 8.34265 10.6657 8.73827 10.6649H9.50295V11.1901C8.86637 11.1943 8.25753 11.4342 7.80974 11.8572C7.36195 12.2802 7.11171 12.8518 7.11381 13.4469C7.11591 14.0421 7.37019 14.6121 7.82096 15.0324C8.27173 15.4526 8.88225 15.6887 9.51884 15.689H10.4802C11.1151 15.6897 11.7246 15.4557 12.1756 15.0379C12.6267 14.6202 12.8828 14.0527 12.888 13.4591C12.8933 12.8655 12.6473 12.2941 12.2036 11.8695C11.76 11.4449 11.1547 11.2014 10.5199 11.1923V10.6649H11.2846C11.681 10.6662 12.0661 10.5411 12.3763 10.3103C13.4553 10.7392 14.3759 11.4548 15.0238 12.3684C15.6717 13.282 16.0183 14.3534 16.0207 15.4495V16.0493H15.8042C15.6693 16.0493 15.54 16.0993 15.4447 16.1885C15.3493 16.2776 15.2957 16.3985 15.2957 16.5246C15.2957 16.6507 15.3493 16.7716 15.4447 16.8607C15.54 16.9499 15.6693 17 15.8042 17H17.2541C17.3889 17 17.5183 16.9499 17.6136 16.8607C17.709 16.7716 17.7625 16.6507 17.7625 16.5246C17.7625 16.3985 17.709 16.2776 17.6136 16.1885C17.5183 16.0993 17.3889 16.0493 17.2541 16.0493H17.0376V15.4495C17.034 14.2002 16.6482 12.978 15.9258 11.927C15.2035 10.8759 14.1746 10.04 12.9607 9.5177C13.0215 9.35074 13.0534 9.17578 13.0553 8.99942C13.058 8.8106 13.1394 8.63022 13.2822 8.49669C13.425 8.36316 13.618 8.28703 13.82 8.2845H15.5077C15.619 8.68281 15.8819 9.0295 16.2471 9.2596C16.6123 9.4897 17.0547 9.58743 17.4914 9.53448C17.9281 9.48154 18.3292 9.28154 18.6195 8.97197C18.9099 8.6624 19.0695 8.26449 19.0685 7.8528V5.98811C19.0685 5.92567 19.0554 5.86385 19.0299 5.80616C19.0043 5.74847 18.9669 5.69605 18.9196 5.65191C18.8724 5.60776 18.8163 5.57275 18.7546 5.54887C18.6929 5.525 18.6268 5.51273 18.56 5.51276H17.7665V4.5138H19.4915C19.6264 4.5138 19.7557 4.46372 19.8511 4.37457C19.9464 4.28543 20 4.16452 20 4.03846C20 3.91239 19.9464 3.79148 19.8511 3.70234C19.7557 3.61319 19.6264 3.56311 19.4915 3.56311ZM3.5682 7.8528C3.5682 8.05053 3.48418 8.24015 3.33463 8.37996C3.18508 8.51977 2.98224 8.59831 2.77074 8.59831C2.55924 8.59831 2.35641 8.51977 2.20686 8.37996C2.0573 8.24015 1.97329 8.05053 1.97329 7.8528V6.46345H3.5682V7.8528ZM11.8705 13.4386C11.8701 13.7832 11.7235 14.1135 11.4628 14.3572C11.2022 14.6009 10.8488 14.7379 10.4802 14.7383H9.51884C9.15082 14.7374 8.79821 14.6001 8.53833 14.3565C8.27845 14.1128 8.13251 13.7828 8.13251 13.4388C8.13251 13.0947 8.27845 12.7647 8.53833 12.5211C8.79821 12.2775 9.15082 12.1402 9.51884 12.1392H10.4802C10.8487 12.1396 11.202 12.2766 11.4627 12.5202C11.7233 12.7637 11.87 13.094 11.8705 13.4386V13.4386ZM18.0515 7.8528C18.0515 8.05039 17.9676 8.2399 17.8181 8.37962C17.6687 8.51934 17.4659 8.59784 17.2546 8.59784C17.0432 8.59784 16.8405 8.51934 16.691 8.37962C16.5416 8.2399 16.4576 8.05039 16.4576 7.8528V7.82759C16.4579 7.8211 16.4616 7.8157 16.4616 7.80914C16.4616 7.80258 16.4579 7.79719 16.4576 7.79069V6.46345H18.0515V7.8528Z" fill="#171723"/>
</g>
<defs>
<clipPath id="clip0_10314_145591">
<rect width="20" height="20" fill="white"/>
</clipPath>
</defs>
</svg>
