<svg width="20" height="20" viewBox="0 0 20 20" fill="none" xmlns="http://www.w3.org/2000/svg">
<g clip-path="url(#clip0_5313_35037)">
<g clip-path="url(#clip1_5313_35037)">
<path d="M18.898 1.102C18.191 0.396328 17.2328 0 16.2339 0C15.2349 0 14.2768 0.396328 13.5698 1.102L12.812 1.85984C12.8035 1.86739 12.7926 1.86999 12.7844 1.87811C12.7763 1.88624 12.7737 1.89719 12.7661 1.90568L1.85858 12.8134L1.8521 12.8221C1.8416 12.8312 1.82828 12.8345 1.81827 12.8445C1.76237 12.9003 1.71829 12.9668 1.68866 13.0401C1.42653 13.3516 1.24065 13.7199 1.14577 14.1158L0.0137557 19.2838C-0.00517921 19.3699 -0.00455863 19.4591 0.0155718 19.545C0.0357023 19.6308 0.0748302 19.7111 0.130075 19.7798C0.185319 19.8485 0.255273 19.904 0.334787 19.9421C0.414302 19.9802 0.501351 20 0.589528 20C0.632121 19.9999 0.674583 19.9953 0.716196 19.9862L5.88435 18.8542C6.28007 18.7594 6.64824 18.5736 6.95967 18.3117C7.03351 18.2822 7.10058 18.2379 7.15681 18.1817C7.16731 18.1712 7.17084 18.1572 7.18039 18.1462L7.18672 18.1414L18.0921 7.2364C18.1017 7.22805 18.1139 7.22503 18.123 7.21589C18.1321 7.20675 18.1351 7.19459 18.1435 7.18501L18.898 6.43056C19.6037 5.72344 20 4.76526 20 3.76628C20 2.76729 19.6037 1.80911 18.898 1.102V1.102ZM6.73471 16.9261L3.0735 13.2659L13.206 3.13327L16.8672 6.79391L6.73471 16.9261ZM1.36222 18.6378L2.29732 14.3691C2.31363 14.3166 2.33292 14.2651 2.3551 14.2148L5.78597 17.6448C5.73548 17.6671 5.68374 17.6864 5.63101 17.7027L1.36222 18.6378ZM18.0643 5.59691L17.7009 5.96022L14.0396 2.29956L14.4034 1.93569C14.889 1.45026 15.5475 1.17757 16.234 1.17763C16.9206 1.17768 17.5791 1.45047 18.0645 1.93598C18.55 2.4215 18.8227 3.07996 18.8226 3.76652C18.8225 4.45308 18.5497 5.1115 18.0642 5.59694L18.0643 5.59691Z" fill="#171723"/>
</g>
</g>
<defs>
<clipPath id="clip0_5313_35037">
<rect width="20" height="20" fill="white"/>
</clipPath>
<clipPath id="clip1_5313_35037">
<rect width="20" height="20" fill="white"/>
</clipPath>
</defs>
</svg>
