<svg width="20" height="20" viewBox="0 0 20 20" fill="none" xmlns="http://www.w3.org/2000/svg">
<path d="M17.0681 5.58639C17.0658 6.29296 16.7842 6.96996 16.2848 7.46972L16.0264 7.72806L15.7348 7.42806L15.4348 7.13639L12.8514 4.54472L12.5598 4.25306L12.2598 3.96139L12.5181 3.70306C13.025 3.21771 13.6997 2.94678 14.4015 2.94678C15.1033 2.94678 15.7779 3.21771 16.2848 3.70306C16.5334 3.94958 16.7307 4.24298 16.8651 4.56625C16.9996 4.88953 17.0686 5.23627 17.0681 5.58639Z" fill="#494446"/>
<path d="M15.4436 8.31171L8.28522 15.4784L7.98522 15.1784L7.69355 14.8867L5.10189 12.295L4.81022 12.0034L4.51855 11.7117L11.6769 4.54504L11.9686 4.83671L12.2686 5.13671L14.8519 7.72004L15.1519 8.02004L15.4436 8.31171Z" fill="#494446"/>
<path d="M7.64302 16.0198C7.47168 16.1272 7.28264 16.2034 7.08469 16.2448L3.43469 17.0448C3.40471 17.0521 3.37382 17.0549 3.34302 17.0531C3.23459 17.0522 3.13047 17.0106 3.05135 16.9364C3.00226 16.887 2.96656 16.8258 2.94761 16.7588C2.92866 16.6917 2.92708 16.6209 2.94302 16.5531L3.74302 12.8948C3.78522 12.6983 3.85835 12.5099 3.95969 12.3364L7.64302 16.0198Z" fill="#494446"/>
</svg>
