<svg width="20" height="20" viewBox="0 0 20 20" fill="none" xmlns="http://www.w3.org/2000/svg">
<g clip-path="url(#clip0_10282_162493)">
<path d="M20 3.86451C19.9967 4.89895 19.5868 5.89012 18.8596 6.62179L18.4835 7L18.0589 6.56079L17.6222 6.13377L13.8614 2.33946L13.4367 1.91245L13 1.48544L13.3762 1.10723C14.1141 0.396651 15.0963 0 16.1179 0C17.1396 0 18.1218 0.396651 18.8597 1.10723C19.2216 1.46815 19.5088 1.89769 19.7045 2.37098C19.9003 2.84427 20.0007 3.35191 20 3.86451V3.86451Z" fill="#494446"/>
<path d="M18 7.5122L7.5164 18L7.07704 17.561L6.64989 17.1341L2.85431 13.3415L2.42715 12.9146L2 12.4878L12.4836 2L12.9108 2.42683L13.3501 2.86585L17.1335 6.64634L17.5728 7.08537L18 7.5122Z" fill="#494446"/>
<path d="M7 18.4658C6.7454 18.6252 6.4645 18.7383 6.17036 18.7997L0.74676 19.9869C0.702218 19.9977 0.656316 20.0019 0.610551 19.9992C0.449439 19.9979 0.294717 19.9361 0.177158 19.8261C0.104214 19.7527 0.0511662 19.662 0.0230056 19.5625C-0.00515508 19.463 -0.00750267 19.3579 0.0161838 19.2573L1.20492 13.8285C1.26762 13.5371 1.37629 13.2574 1.52687 13L7 18.4658Z" fill="#494446"/>
</g>
<defs>
<clipPath id="clip0_10282_162493">
<rect width="20" height="20" fill="white"/>
</clipPath>
</defs>
</svg>
