<svg width="20" height="20" viewBox="0 0 20 20" fill="none" xmlns="http://www.w3.org/2000/svg">
<g clip-path="url(#clip0_5313_35037)">
<path d="M16.2874 3.71216C15.7877 3.21345 15.1106 2.93335 14.4047 2.93335C13.6987 2.93335 13.0216 3.21345 12.5219 3.71216L11.9864 4.24774C11.9804 4.25309 11.9727 4.25492 11.9669 4.26066C11.9612 4.2664 11.9593 4.27414 11.954 4.28014L4.24559 11.9889L4.24102 11.995C4.23359 12.0015 4.22418 12.0038 4.21711 12.0109C4.1776 12.0504 4.14645 12.0974 4.12551 12.1491C3.94027 12.3692 3.8089 12.6296 3.74185 12.9093L2.94185 16.5617C2.92847 16.6225 2.92891 16.6856 2.94313 16.7463C2.95736 16.807 2.98501 16.8637 3.02405 16.9122C3.06309 16.9608 3.11253 17 3.16872 17.0269C3.22492 17.0539 3.28644 17.0679 3.34875 17.0679C3.37885 17.0678 3.40886 17.0645 3.43827 17.0581L7.09062 16.2581C7.37027 16.1911 7.63046 16.0598 7.85055 15.8747C7.90273 15.8538 7.95013 15.8226 7.98987 15.7828C7.99729 15.7754 7.99978 15.7656 8.00653 15.7577L8.01101 15.7544L15.7179 8.0475C15.7246 8.0416 15.7332 8.03947 15.7397 8.03301C15.7462 8.02655 15.7483 8.01795 15.7542 8.01119L16.2874 7.47799C16.7861 6.97826 17.0662 6.30108 17.0662 5.59508C17.0662 4.88907 16.7861 4.2119 16.2874 3.71216ZM7.69157 14.8955L5.10418 12.3087L12.2648 5.14771L14.8523 7.73479L7.69157 14.8955ZM3.89482 16.1052L4.55565 13.0884C4.56718 13.0513 4.58081 13.0149 4.59648 12.9794L7.02109 15.4034C6.98541 15.4191 6.94885 15.4328 6.91158 15.4443L3.89482 16.1052ZM15.6982 6.88884L15.4414 7.14559L12.8539 4.55851L13.1111 4.30135C13.4542 3.95828 13.9196 3.76557 14.4048 3.76561C14.89 3.76565 15.3553 3.95844 15.6984 4.30156C16.0414 4.64468 16.2342 5.11004 16.2341 5.59525C16.2341 6.08046 16.0413 6.54578 15.6982 6.88885L15.6982 6.88884Z" fill="#171723"/>
</g>
<defs>
<clipPath id="clip0_5313_35037">
<rect width="20" height="20" fill="white"/>
</clipPath>
</defs>
</svg>
