<svg width="20" height="20" viewBox="0 0 20 20" fill="none" xmlns="http://www.w3.org/2000/svg">
<g clip-path="url(#clip0_10314_146583)">
<path d="M10 0C8.02219 0 6.08879 0.58649 4.4443 1.6853C2.79981 2.78412 1.51809 4.3459 0.761209 6.17316C0.00433305 8.00042 -0.193701 10.0111 0.192152 11.9509C0.578004 13.8907 1.53041 15.6725 2.92894 17.0711C4.32746 18.4696 6.10929 19.422 8.0491 19.8078C9.98891 20.1937 11.9996 19.9957 13.8268 19.2388C15.6541 18.4819 17.2159 17.2002 18.3147 15.5557C19.4135 13.9112 20 11.9778 20 10C19.9982 7.34838 18.9441 4.80587 17.0691 2.93089C15.1941 1.05592 12.6516 0.00177636 10 0V0ZM10 14.7059C9.76732 14.7059 9.53986 14.6369 9.34639 14.5076C9.15292 14.3783 9.00213 14.1946 8.91308 13.9796C8.82404 13.7647 8.80074 13.5281 8.84614 13.2999C8.89153 13.0717 9.00358 12.8621 9.16811 12.6975C9.33264 12.533 9.54227 12.4209 9.77048 12.3755C9.9987 12.3301 10.2352 12.3534 10.4502 12.4425C10.6652 12.5315 10.8489 12.6823 10.9782 12.8758C11.1075 13.0693 11.1765 13.2967 11.1765 13.5294C11.1756 13.8411 11.0513 14.1399 10.8309 14.3603C10.6105 14.5807 10.3117 14.705 10 14.7059ZM10 4.9647C10.1353 4.96513 10.2692 4.99229 10.3939 5.04461C10.5187 5.09693 10.6319 5.17339 10.727 5.2696C10.8221 5.3658 10.8973 5.47985 10.9482 5.6052C10.9991 5.73054 11.0248 5.86471 11.0237 6V10.1059C11.0237 10.3789 10.9152 10.6407 10.7222 10.8338C10.5291 11.0268 10.2673 11.1353 9.99426 11.1353C9.72124 11.1353 9.45941 11.0268 9.26636 10.8338C9.07331 10.6407 8.96485 10.3789 8.96485 10.1059V6C8.96521 5.72556 9.07439 5.46246 9.26843 5.26839C9.46248 5.07431 9.72556 4.96511 10 4.9647Z" fill="#171723"/>
</g>
<defs>
<clipPath id="clip0_10314_146583">
<rect width="20" height="20" fill="white"/>
</clipPath>
</defs>
</svg>
