<svg width="20" height="20" viewBox="0 0 20 20" fill="none" xmlns="http://www.w3.org/2000/svg">
<g clip-path="url(#clip0_10314_146584)">
<path d="M9.99967 19.9998C8.02183 19.9998 6.0884 19.4133 4.44388 18.3145C2.79937 17.2157 1.51762 15.6539 0.760733 13.8266C0.00384462 11.9993 -0.194192 9.98858 0.191666 8.04874C0.577525 6.1089 1.52995 4.32704 2.92849 2.9285C4.32704 1.52995 6.1089 0.577525 8.04874 0.191666C9.98858 -0.194192 11.9993 0.00384483 13.8266 0.760733C15.6539 1.51762 17.2157 2.79937 18.3145 4.44388C19.4133 6.0884 19.9998 8.02183 19.9998 9.99967C19.9967 12.6509 18.9421 15.1927 17.0674 17.0674C15.1927 18.9421 12.6509 19.9967 9.99967 19.9998V19.9998ZM9.99967 1.17601C8.25452 1.17601 6.54855 1.6935 5.09751 2.66306C3.64646 3.63262 2.51551 5.01069 1.84767 6.623C1.17982 8.23532 1.00509 10.0095 1.34555 11.7211C1.68601 13.4327 2.52639 15.0049 3.7604 16.2389C4.99441 17.473 6.56664 18.3133 8.27826 18.6538C9.98989 18.9943 11.764 18.8195 13.3763 18.1517C14.9887 17.4838 16.3667 16.3529 17.3363 14.9018C18.3058 13.4508 18.8233 11.7448 18.8233 9.99967C18.8208 7.66028 17.8903 5.41742 16.2361 3.76322C14.5819 2.10901 12.3391 1.17856 9.99967 1.17601V1.17601Z" fill="#171723"/>
<path d="M9.99973 14.7061C10.6495 14.7061 11.1762 14.1794 11.1762 13.5296C11.1762 12.8799 10.6495 12.3531 9.99973 12.3531C9.34997 12.3531 8.82324 12.8799 8.82324 13.5296C8.82324 14.1794 9.34997 14.7061 9.99973 14.7061Z" fill="#171723"/>
<path d="M9.99964 11.1406C9.86445 11.1406 9.73057 11.114 9.60566 11.0623C9.48075 11.0106 9.36726 10.9348 9.27166 10.8392C9.17606 10.7436 9.10024 10.6301 9.04852 10.5052C8.99679 10.3803 8.97019 10.2464 8.97021 10.1112V5.99806C8.97021 5.72504 9.07867 5.4632 9.27173 5.27014C9.46478 5.07709 9.72662 4.96863 9.99964 4.96863C10.2727 4.96863 10.5345 5.07709 10.7276 5.27014C10.9206 5.4632 11.0291 5.72504 11.0291 5.99806V10.1112C11.0291 10.2464 11.0025 10.3803 10.9508 10.5052C10.899 10.6301 10.8232 10.7436 10.7276 10.8392C10.632 10.9348 10.5185 11.0106 10.3936 11.0623C10.2687 11.114 10.1348 11.1406 9.99964 11.1406V11.1406Z" fill="#171723"/>
</g>
<defs>
<clipPath id="clip0_10314_146584">
<rect width="20" height="20" fill="white"/>
</clipPath>
</defs>
</svg>
