<svg width="20" height="20" viewBox="0 0 20 20" fill="none" xmlns="http://www.w3.org/2000/svg">
<g clip-path="url(#clip0_10317_147178)">
<g clip-path="url(#clip1_10317_147178)">
<path d="M11.6543 20H8.3453C8.01143 20.0007 7.68709 19.8926 7.42481 19.6933C7.16254 19.4939 6.9777 19.215 6.90024 18.9016L6.46488 17.1647C6.43572 17.0499 6.38287 16.9419 6.30948 16.8472C6.23609 16.7525 6.14367 16.673 6.03773 16.6135C5.93054 16.5542 5.81207 16.5162 5.68936 16.5019C5.56666 16.4875 5.44222 16.4972 5.32344 16.5302L3.56344 17.0317C3.24328 17.124 2.90017 17.1092 2.58983 16.9897C2.27948 16.8702 2.02012 16.6529 1.85386 16.3732L0.200896 13.6144C0.0336628 13.336 -0.0315906 13.0114 0.0156467 12.6929C0.062884 12.3744 0.219862 12.0805 0.461294 11.8586L1.79005 10.6361C1.87846 10.5524 1.94868 10.4525 1.99658 10.3423C2.04448 10.2321 2.0691 10.1138 2.069 9.99433C2.0689 9.87483 2.04409 9.75655 1.996 9.64643C1.94792 9.5363 1.87754 9.43655 1.78899 9.353L0.461294 8.1295C0.219477 7.908 0.0622098 7.61424 0.0149516 7.29578C-0.0323065 6.97731 0.0332101 6.65277 0.200896 6.3747L1.85488 3.61488C2.02179 3.33631 2.28088 3.11996 2.59055 3.00055C2.90022 2.88114 3.24249 2.86561 3.5624 2.95646L5.33579 3.45996C5.45281 3.49344 5.57567 3.50357 5.69689 3.48974C5.8181 3.47591 5.93512 3.43841 6.04082 3.37952C6.14901 3.3203 6.24359 3.24046 6.31878 3.14485C6.39397 3.04924 6.44822 2.93986 6.47821 2.82338L6.91054 1.09738C6.98884 0.784349 7.17407 0.505863 7.4364 0.306791C7.69873 0.107718 8.02288 -0.00034818 8.35662 1.68643e-06H11.6543C11.9878 -0.000491996 12.3118 0.107417 12.574 0.306327C12.8361 0.505236 13.0212 0.783551 13.0994 1.09639L13.5347 2.82636C13.5634 2.94061 13.6158 3.04808 13.6887 3.14229C13.7616 3.2365 13.8534 3.3155 13.9588 3.37455C14.0674 3.43829 14.1884 3.47966 14.3144 3.49607C14.4403 3.51247 14.5684 3.50356 14.6906 3.46989L16.4465 2.96937C16.7667 2.87657 17.1101 2.89125 17.4206 3.01101C17.7311 3.13077 17.9903 3.34854 18.156 3.62878L19.8008 6.38761C19.9674 6.66568 20.0323 6.98977 19.9849 7.30772C19.9375 7.62567 19.7806 7.91898 19.5394 8.14043L18.2096 9.36392C18.1212 9.44752 18.0511 9.54727 18.0032 9.65734C17.9553 9.76741 17.9306 9.88559 17.9306 10.005C17.9306 10.1243 17.9553 10.2425 18.0032 10.3526C18.0511 10.4627 18.1212 10.5624 18.2096 10.646L18.2106 10.647L19.5383 11.8705C19.7801 12.0922 19.9373 12.3862 19.9844 12.7049C20.0315 13.0236 19.9657 13.3482 19.7977 13.6263L18.1447 16.3851C17.9785 16.6647 17.7194 16.8818 17.4092 17.0013C17.0991 17.1209 16.7562 17.1357 16.4361 17.0436L14.668 16.541C14.5506 16.5078 14.4274 16.4978 14.3059 16.5118C14.1844 16.5259 14.0671 16.5635 13.9612 16.6226C13.8552 16.6817 13.7628 16.7609 13.6895 16.8554C13.6162 16.95 13.5636 17.0579 13.5348 17.1727L13.1005 18.9026C13.0222 19.2157 12.8369 19.4942 12.5746 19.6932C12.3122 19.8923 11.9881 20.0004 11.6543 20V20ZM5.5787 15.4774C6.01942 15.4775 6.44735 15.6204 6.79391 15.8831C7.14046 16.1458 7.38559 16.5132 7.48999 16.9263L7.92537 18.6633C7.94757 18.7545 8.00118 18.8358 8.07745 18.8939C8.15372 18.952 8.24814 18.9834 8.3453 18.983H11.6543C11.7516 18.983 11.846 18.9514 11.9226 18.8935C11.9991 18.8355 12.0532 18.7544 12.0763 18.6633L12.5097 16.9333C12.5723 16.6847 12.6866 16.4509 12.8456 16.2462C13.0046 16.0414 13.205 15.8699 13.4347 15.7421C13.6643 15.6142 13.9185 15.5327 14.1818 15.5024C14.4451 15.4721 14.712 15.4936 14.9665 15.5658L16.7347 16.0683C16.8281 16.0945 16.9279 16.0898 17.0182 16.0548C17.1085 16.0199 17.1841 15.9568 17.2329 15.8756L18.8858 13.1168C18.9347 13.0357 18.9538 12.9411 18.94 12.8483C18.9261 12.7555 18.8802 12.6699 18.8097 12.6054L17.4819 11.3819C17.2905 11.2034 17.1383 10.9895 17.0343 10.753C16.9303 10.5166 16.8767 10.2623 16.8767 10.0054C16.8767 9.74857 16.9303 9.49433 17.0343 9.25786C17.1383 9.02139 17.2905 8.80753 17.4819 8.62903L18.8117 7.40553C18.8818 7.34095 18.9274 7.25555 18.9412 7.163C18.955 7.07045 18.9362 6.97611 18.8879 6.89508L17.2431 4.13626C17.1948 4.05489 17.1194 3.99167 17.0292 3.95688C16.9389 3.92208 16.8391 3.91775 16.746 3.94459L14.9891 4.44511C14.7338 4.51777 14.466 4.53948 14.2018 4.50891C13.9376 4.47835 13.6826 4.39615 13.4524 4.26734C13.2192 4.13897 13.0154 3.96629 12.8534 3.75975C12.6913 3.55321 12.5744 3.3171 12.5096 3.0657L12.0753 1.33676C12.0525 1.24558 11.9986 1.16446 11.9223 1.10644C11.8459 1.04843 11.7515 1.01692 11.6543 1.01697H8.35663C8.25936 1.01704 8.16491 1.04859 8.08841 1.10656C8.01191 1.16453 7.95777 1.24559 7.93464 1.33676L7.50235 3.06272C7.43913 3.31186 7.32428 3.54607 7.16474 3.75125C7.0052 3.95642 6.80426 4.1283 6.57403 4.25654C6.3438 4.38478 6.08905 4.46672 5.82512 4.49742C5.56119 4.52812 5.29356 4.50695 5.03834 4.43518L3.26393 3.93168C3.17071 3.90451 3.07068 3.90879 2.98031 3.94382C2.88995 3.97884 2.81465 4.04251 2.7668 4.12434L1.1128 6.88317C1.06412 6.96412 1.04515 7.05855 1.05898 7.15118C1.0728 7.24382 1.1186 7.32926 1.18897 7.39367L2.51772 8.61816C2.70907 8.79658 2.86127 9.01032 2.96525 9.24667C3.06922 9.48301 3.12286 9.73712 3.12295 9.99388C3.12305 10.2506 3.06961 10.5048 2.96582 10.7412C2.86202 10.9776 2.70999 11.1915 2.51878 11.37L1.18897 12.5935C1.11874 12.6584 1.07315 12.7442 1.05952 12.8372C1.0459 12.9301 1.06503 13.0247 1.11383 13.1059L2.76684 15.8647C2.81548 15.9461 2.89108 16.0092 2.98146 16.044C3.07183 16.0787 3.17171 16.0831 3.26499 16.0564L5.02501 15.5549C5.20476 15.5036 5.39124 15.4775 5.5787 15.4774Z" fill="#171723"/>
<path d="M9.00537 13.6312C8.68213 13.6307 8.36531 13.541 8.08974 13.372C7.82214 13.2094 7.60125 12.9802 7.44862 12.7068C7.29598 12.4333 7.2168 12.125 7.2188 11.8119V8.19005C7.21655 7.87673 7.29562 7.56818 7.44827 7.29456C7.60093 7.02093 7.82195 6.79158 8.08974 6.62891C8.34896 6.47003 8.64489 6.38095 8.94874 6.37034C9.25259 6.35972 9.55401 6.42793 9.82369 6.56833L13.228 8.47309H13.229C13.5006 8.62543 13.7266 8.84735 13.8838 9.11603C14.0411 9.38471 14.124 9.69044 14.1239 10.0018C14.1238 10.3131 14.0407 10.6188 13.8833 10.8873C13.7258 11.1559 13.4996 11.3777 13.228 11.5298L9.85249 13.4177C9.59138 13.5559 9.3008 13.6292 9.00537 13.6312V13.6312ZM9.01531 7.38565C8.87539 7.38569 8.73823 7.42454 8.61906 7.49787C8.50064 7.57011 8.40303 7.6719 8.33582 7.79325C8.26861 7.9146 8.2341 8.05134 8.23568 8.19005V11.8119C8.23422 11.9506 8.26878 12.0873 8.33598 12.2086C8.40318 12.3299 8.50072 12.4317 8.61906 12.5041C8.73161 12.5727 8.86026 12.6105 8.99206 12.6137C9.12385 12.6168 9.25415 12.5852 9.36984 12.5219L12.7315 10.642C12.8453 10.5782 12.9401 10.4853 13.0061 10.3727C13.0721 10.2601 13.1068 10.132 13.1068 10.0015C13.1068 9.87097 13.0721 9.74284 13.0061 9.63025C12.9401 9.51766 12.8453 9.4247 12.7315 9.36092L9.34205 7.4641C9.24102 7.41209 9.12894 7.38518 9.01531 7.38565V7.38565Z" fill="#171723"/>
</g>
</g>
<defs>
<clipPath id="clip0_10317_147178">
<rect width="20" height="20" fill="white"/>
</clipPath>
<clipPath id="clip1_10317_147178">
<rect width="20" height="20" fill="white"/>
</clipPath>
</defs>
</svg>
