<svg width="20" height="20" viewBox="0 0 20 20" fill="none" xmlns="http://www.w3.org/2000/svg">
<g clip-path="url(#clip0_11427_136129)">
<path d="M17.563 10.6459C17.3902 10.4831 17.2988 10.2492 17.2988 9.99503C17.2988 9.75077 17.3902 9.52736 17.563 9.36451L18.8444 8.13424C19.3225 7.67649 19.4342 6.95462 19.0986 6.38517L17.5123 3.62973C17.1871 3.05035 16.506 2.7758 15.865 2.96893L14.1671 3.46738C13.9437 3.53838 13.6895 3.5081 13.4656 3.37554C13.2625 3.2539 13.1096 3.05035 13.0589 2.82644L12.632 1.0982C12.4791 0.447322 11.9101 0 11.2389 0H8.05647C7.39517 0 6.8262 0.447322 6.66336 1.0982L6.24631 2.82644C6.19568 3.05034 6.04325 3.2539 5.82977 3.37554C5.62621 3.49767 5.37202 3.52845 5.14811 3.45696L3.42981 2.95899C2.79979 2.76587 2.11813 3.03992 1.78301 3.60938L0.196768 6.37523C-0.138851 6.94469 -0.0370717 7.66657 0.440541 8.12382L1.72194 9.35458C1.89471 9.51693 1.99649 9.74084 1.99649 10.005C1.99649 10.2388 1.89471 10.4726 1.72194 10.6355L0.440541 11.8558C-0.0370717 12.3131 -0.138841 13.035 0.196768 13.6148L1.78301 16.3703C2.11813 16.9497 2.79979 17.2143 3.44024 17.0311L5.12825 16.5227C5.36159 16.4616 5.60587 16.4924 5.81935 16.614C6.03283 16.7262 6.17533 16.9293 6.23639 17.1631L6.65344 18.9018C6.80585 19.5427 7.38524 20 8.04605 20H11.2389C11.9101 20 12.4791 19.5427 12.632 18.9018L13.059 17.1736C13.1096 16.9397 13.2625 16.7362 13.4656 16.6245C13.6691 16.5023 13.9233 16.472 14.1467 16.5331L15.8551 17.0415C16.4956 17.2242 17.1668 16.9601 17.5024 16.3802L19.0986 13.6248C19.4342 13.0454 19.3225 12.3235 18.8444 11.8658L17.563 10.6459ZM14.6799 8.09255L9.51461 13.6402C9.37957 13.7846 9.19637 13.8581 9.01318 13.8581C8.85133 13.8581 8.68799 13.801 8.5584 13.6858L5.12627 10.6365C4.84428 10.3848 4.81746 9.95185 5.06918 9.66936C5.32039 9.38587 5.7553 9.36204 6.03581 9.61177L8.96749 12.2173L13.6766 7.15918C13.9362 6.88215 14.3682 6.86775 14.6452 7.12443C14.9217 7.3826 14.9366 7.81601 14.6799 8.09255Z" fill="#171723"/>
</g>
<defs>
<clipPath id="clip0_11427_136129">
<rect width="20" height="20" fill="white"/>
</clipPath>
</defs>
</svg>
