<svg width="20" height="20" viewBox="0 0 20 20" fill="none" xmlns="http://www.w3.org/2000/svg">
<g clip-path="url(#clip0_10317_147175)">
<g clip-path="url(#clip1_10317_147175)">
<path d="M18.2083 10.6457C18.1189 10.5611 18.0484 10.4597 18.0012 10.3478C17.9541 10.2358 17.9314 10.1157 17.9344 9.99494C17.9324 9.87731 17.9558 9.76057 18.0029 9.65207C18.0501 9.54357 18.12 9.44567 18.2083 9.36454L19.5365 8.13425C19.7786 7.91419 19.9363 7.62162 19.9842 7.30411C20.032 6.9866 19.9671 6.66282 19.8 6.3854L18.1557 3.62994C17.992 3.34834 17.7333 3.12924 17.4226 3.00902C17.112 2.8888 16.768 2.87469 16.4479 2.96904L14.6877 3.46726C14.5666 3.50233 14.4392 3.51231 14.3139 3.49654C14.1885 3.48077 14.0681 3.4396 13.9604 3.37575C13.8559 3.31579 13.7647 3.23636 13.6923 3.1421C13.6199 3.04784 13.5676 2.94062 13.5386 2.82669L13.096 1.09817C13.0208 0.783884 12.8368 0.503738 12.5742 0.304062C12.3116 0.104385 11.9862 -0.00286097 11.6518 5.80496e-05H8.35251C8.01896 0.000206417 7.69516 0.108593 7.43322 0.307778C7.17127 0.506962 6.98642 0.78536 6.90839 1.09817L6.47621 2.82669C6.44706 2.94189 6.39366 3.05008 6.31933 3.14453C6.24499 3.23899 6.15132 3.31769 6.04413 3.37575C5.93886 3.43622 5.82161 3.47471 5.69995 3.48873C5.5783 3.50274 5.45494 3.49196 5.33788 3.45709L3.55638 2.95887C3.23735 2.8669 2.89552 2.88106 2.58583 2.99908C2.27615 3.1171 2.01659 3.33213 1.84888 3.6096L0.204344 6.37523C0.0355798 6.65146 -0.0312762 6.97466 0.01466 7.29221C0.0605962 7.60976 0.216619 7.90296 0.457328 8.12408L1.78549 9.35437C1.87545 9.43698 1.94707 9.53636 1.99601 9.64647C2.04494 9.75658 2.07018 9.87514 2.07018 9.99494C2.07018 10.1147 2.04494 10.2333 1.99601 10.3434C1.94707 10.4535 1.87545 10.5529 1.78549 10.6355L0.457328 11.8556C0.216156 12.0786 0.0599943 12.3736 0.0140875 12.6928C-0.0318193 13.012 0.0352112 13.3368 0.204344 13.6147L1.8488 16.3701C2.01728 16.6498 2.27809 16.8668 2.58955 16.9867C2.90101 17.1065 3.24512 17.1221 3.56686 17.031L5.31667 16.5226C5.55878 16.4607 5.81645 16.4936 6.03352 16.6141C6.14139 16.6714 6.2356 16.7498 6.31003 16.8444C6.38447 16.939 6.43747 17.0476 6.46561 17.1632L6.89779 18.9019C6.97622 19.2145 7.16119 19.4926 7.42304 19.6917C7.6849 19.8909 8.00847 19.9994 8.34191 20H11.6518C11.9856 20.001 12.31 19.893 12.5722 19.6936C12.8344 19.4943 13.0189 19.2152 13.0959 18.9019L13.5385 17.1734C13.5647 17.0583 13.6158 16.9499 13.6885 16.8552C13.7612 16.7606 13.8538 16.6819 13.9603 16.6243C14.0659 16.5647 14.1827 16.5258 14.3039 16.5101C14.4251 16.4944 14.5484 16.5021 14.6665 16.5328L16.4373 17.0412C16.7576 17.1322 17.1002 17.1165 17.4101 16.9966C17.7199 16.8767 17.9789 16.6596 18.1451 16.3803L19.8 13.6248C19.9674 13.3457 20.0325 13.0204 19.9847 12.7012C19.9369 12.382 19.779 12.0877 19.5364 11.8658L18.2083 10.6457ZM13.3489 11.5303L9.84924 13.4113C9.57562 13.5485 9.27234 13.6217 8.96396 13.6248C8.63017 13.621 8.30316 13.5334 8.01512 13.3706C7.73908 13.2057 7.51168 12.975 7.35479 12.7008C7.1979 12.4266 7.1168 12.118 7.11929 11.8048V8.18509C7.11817 7.87352 7.19994 7.56689 7.35679 7.29452C7.51363 7.02214 7.7403 6.79315 8.01512 6.62942C8.28464 6.47023 8.59225 6.38096 8.9081 6.37027C9.22394 6.35958 9.53728 6.42784 9.81771 6.56842L13.349 8.46978C13.6304 8.62255 13.8646 8.84479 14.0276 9.11371C14.1907 9.38262 14.2766 9.68852 14.2766 10C14.2766 10.3115 14.1907 10.6174 14.0276 10.8863C13.8646 11.1553 13.6304 11.3775 13.349 11.5303H13.3489Z" fill="#171723"/>
</g>
</g>
<defs>
<clipPath id="clip0_10317_147175">
<rect width="20" height="20" fill="white"/>
</clipPath>
<clipPath id="clip1_10317_147175">
<rect width="20" height="20" fill="white"/>
</clipPath>
</defs>
</svg>
