<svg width="20" height="20" viewBox="0 0 20 20" fill="none" xmlns="http://www.w3.org/2000/svg">
<g clip-path="url(#clip0_10277_158602)">
<g clip-path="url(#clip1_10277_158602)">
<path d="M15.4891 12.537C15.422 12.537 15.3556 12.5501 15.2936 12.5756C15.2316 12.6011 15.1752 12.6386 15.1278 12.6858C15.0803 12.733 15.0427 12.7891 15.017 12.8508C14.9914 12.9125 14.9782 12.9786 14.9782 13.0454V15.9329C14.9773 16.7416 14.6541 17.517 14.0795 18.0888C13.5048 18.6607 12.7256 18.9823 11.9129 18.9832H4.08706C3.27437 18.9823 2.49521 18.6607 1.92055 18.0888C1.34589 17.517 1.02265 16.7416 1.02177 15.9329V4.06712C1.02265 3.25839 1.34589 2.48304 1.92055 1.91118C2.49521 1.33932 3.27437 1.01766 4.08706 1.01678H11.9129C12.7256 1.01766 13.5048 1.33932 14.0795 1.91118C14.6541 2.48304 14.9773 3.25839 14.9782 4.06712V6.9447C14.9782 7.07953 15.0321 7.20884 15.1279 7.30418C15.2237 7.39952 15.3536 7.45309 15.4891 7.45309C15.6246 7.45309 15.7546 7.39952 15.8504 7.30418C15.9462 7.20884 16 7.07953 16 6.9447V4.06712C15.9989 2.98879 15.568 1.95492 14.8017 1.19242C14.0355 0.429922 12.9966 0.00107672 11.9129 0H4.08706C3.00344 0.00107672 1.96451 0.429922 1.19827 1.19242C0.432029 1.95492 0.001082 2.98879 0 4.06712V15.9329C0.001082 17.0112 0.432029 18.0451 1.19827 18.8076C1.96451 19.5701 3.00344 19.9989 4.08706 20H11.9129C12.9966 19.9989 14.0355 19.5701 14.8017 18.8076C15.568 18.0451 15.9989 17.0112 16 15.9329V13.0454C16 12.9786 15.9869 12.9125 15.9612 12.8508C15.9355 12.7891 15.8979 12.733 15.8505 12.6858C15.803 12.6386 15.7467 12.6011 15.6847 12.5756C15.6227 12.5501 15.5562 12.537 15.4891 12.537V12.537Z" fill="#171723"/>
<path d="M19.9695 10.1721C19.9995 10.0729 20.0075 9.96568 19.9929 9.86139C19.9901 9.83686 19.9861 9.8126 19.9807 9.78875C19.9609 9.6846 19.9185 9.58905 19.858 9.51229L17.9233 7.17695C17.8773 7.1204 17.8227 7.07564 17.7626 7.04527C17.7025 7.0149 17.6382 6.99952 17.5733 7.00001C17.5083 7.00051 17.4441 7.01687 17.3843 7.04815C17.3246 7.07943 17.2704 7.12501 17.225 7.18226C17.1796 7.23951 17.1439 7.30729 17.1198 7.38168C17.0958 7.45608 17.0839 7.53561 17.085 7.61568C17.086 7.69575 17.0999 7.77478 17.1258 7.84819C17.1518 7.9216 17.1893 7.98794 17.2361 8.04338L18.31 9.33947H10.4914C10.3611 9.33947 10.2361 9.40332 10.1439 9.51698C10.0518 9.63063 10 9.78477 10 9.9455C10 10.1062 10.0518 10.2604 10.1439 10.374C10.2361 10.4877 10.3611 10.5515 10.4914 10.5515H18.3469L17.2256 11.966C17.1797 12.0227 17.1434 12.09 17.1188 12.1641C17.0942 12.2382 17.0817 12.3176 17.0821 12.3977C17.0825 12.4778 17.0958 12.557 17.1211 12.6307C17.1465 12.7044 17.1835 12.7712 17.2299 12.8272C17.2763 12.8832 17.3312 12.9273 17.3916 12.9569C17.4519 12.9866 17.5164 13.0012 17.5813 12.9999C17.6462 12.9986 17.7103 12.9815 17.7698 12.9495C17.8293 12.9175 17.8831 12.8713 17.9281 12.8135L19.8657 10.3693C19.9083 10.3146 19.942 10.2505 19.9652 10.1803L19.9694 10.174L19.9695 10.1721Z" fill="#171723"/>
</g>
</g>
<defs>
<clipPath id="clip0_10277_158602">
<rect width="20" height="20" fill="white"/>
</clipPath>
<clipPath id="clip1_10277_158602">
<rect width="20" height="20" fill="white"/>
</clipPath>
</defs>
</svg>
