<svg width="20" height="20" viewBox="0 0 20 20" fill="none" xmlns="http://www.w3.org/2000/svg">
<g clip-path="url(#clip0_10277_158602)">
<path d="M14.4368 12.079C14.3821 12.079 14.3279 12.0897 14.2774 12.1107C14.2268 12.1316 14.1808 12.1623 14.1421 12.201C14.1034 12.2397 14.0728 12.2856 14.0518 12.3362C14.0309 12.3868 14.0201 12.441 14.0202 12.4957V14.8622C14.0195 15.525 13.7558 16.1605 13.2871 16.6292C12.8185 17.0979 12.183 17.3615 11.5202 17.3622H5.13753C4.47471 17.3615 3.83925 17.0979 3.37056 16.6292C2.90188 16.1605 2.63826 15.525 2.63753 14.8622V5.13729C2.63826 4.47447 2.90188 3.839 3.37056 3.37032C3.83925 2.90164 4.47471 2.63801 5.13753 2.63729H11.5202C12.183 2.63801 12.8185 2.90164 13.2871 3.37032C13.7558 3.839 14.0195 4.47447 14.0202 5.13729V7.49569C14.0202 7.60619 14.0641 7.71218 14.1422 7.79032C14.2204 7.86846 14.3263 7.91235 14.4368 7.91235C14.5473 7.91235 14.6533 7.86846 14.7315 7.79032C14.8096 7.71218 14.8535 7.60619 14.8535 7.49569V5.13729C14.8526 4.2535 14.5012 3.40617 13.8762 2.78124C13.2513 2.15631 12.404 1.80484 11.5202 1.80396H5.13753C4.25375 1.80484 3.40641 2.15631 2.78148 2.78124C2.15655 3.40617 1.80508 4.2535 1.8042 5.13729V14.8622C1.80508 15.746 2.15655 16.5933 2.78148 17.2183C3.40641 17.8432 4.25375 18.1947 5.13753 18.1956H11.5202C12.404 18.1947 13.2513 17.8432 13.8762 17.2183C14.5012 16.5933 14.8526 15.746 14.8535 14.8622V12.4957C14.8535 12.441 14.8428 12.3868 14.8219 12.3362C14.8009 12.2856 14.7702 12.2397 14.7315 12.201C14.6928 12.1623 14.6469 12.1316 14.5963 12.1107C14.5458 12.0897 14.4916 12.079 14.4368 12.079Z" fill="#171723"/>
<path d="M18.1653 10.1173C18.1907 10.0491 18.1975 9.97542 18.1851 9.90371C18.1828 9.88685 18.1793 9.87017 18.1748 9.85377C18.1579 9.78217 18.122 9.71647 18.0708 9.66369L16.4301 8.05806C16.3912 8.01918 16.3448 7.98841 16.2939 7.96753C16.243 7.94665 16.1884 7.93607 16.1333 7.93641C16.0783 7.93675 16.0238 7.948 15.9731 7.9695C15.9224 7.99101 15.8765 8.02235 15.838 8.06171C15.7995 8.10107 15.7692 8.14767 15.7488 8.19882C15.7284 8.24997 15.7184 8.30465 15.7193 8.3597C15.7201 8.41476 15.7319 8.46909 15.7539 8.51956C15.7759 8.57003 15.8077 8.61565 15.8475 8.65376L16.7581 9.54488H10.1281C10.0176 9.54488 9.91161 9.58878 9.83347 9.66692C9.75532 9.74506 9.71143 9.85104 9.71143 9.96154C9.71143 10.0721 9.75532 10.178 9.83347 10.2562C9.91161 10.3343 10.0176 10.3782 10.1281 10.3782H16.7893L15.8385 11.3507C15.7996 11.3897 15.7688 11.436 15.748 11.4869C15.7271 11.5379 15.7165 11.5925 15.7168 11.6475C15.7172 11.7026 15.7284 11.757 15.7499 11.8077C15.7714 11.8584 15.8028 11.9043 15.8421 11.9428C15.8815 11.9813 15.9281 12.0116 15.9793 12.032C16.0304 12.0524 16.0851 12.0624 16.1401 12.0616C16.1952 12.0607 16.2495 12.0489 16.3 12.0269C16.3505 12.0049 16.3961 11.9731 16.4342 11.9334L18.0773 10.2529C18.1133 10.2153 18.142 10.1712 18.1616 10.123L18.1652 10.1186L18.1653 10.1173Z" fill="#171723"/>
</g>
<defs>
<clipPath id="clip0_10277_158602">
<rect width="20" height="20" fill="white"/>
</clipPath>
</defs>
</svg>
