<svg width="20" height="20" viewBox="0 0 20 20" fill="none" xmlns="http://www.w3.org/2000/svg">
<g clip-path="url(#clip0_10317_147166)">
<g clip-path="url(#clip1_10317_147166)">
<path d="M16.79 7.06805H3.21032C2.59657 7.06862 2.00812 7.31269 1.57413 7.74668C1.14014 8.18066 0.896077 8.76912 0.895508 9.38287V16.7903C0.896077 17.404 1.14014 17.9925 1.57413 18.4265C2.00812 18.8605 2.59657 19.1045 3.21032 19.1051H16.79C17.4037 19.1045 17.9922 18.8605 18.4261 18.4265C18.8601 17.9925 19.1042 17.404 19.1048 16.7903V9.38287C19.1042 8.76912 18.8601 8.18066 18.4261 7.74668C17.9922 7.31269 17.4037 7.06862 16.79 7.06805ZM18.1788 16.7903C18.1784 17.1585 18.032 17.5115 17.7716 17.7719C17.5112 18.0323 17.1582 18.1788 16.79 18.1792H3.21032C2.84209 18.1788 2.48905 18.0323 2.22867 17.7719C1.96829 17.5115 1.82184 17.1585 1.82143 16.7903V9.38287C1.82184 9.01464 1.96829 8.6616 2.22867 8.40122C2.48905 8.14084 2.84209 7.99438 3.21032 7.99398H16.79C17.1582 7.99438 17.5112 8.14084 17.7716 8.40122C18.032 8.6616 18.1784 9.01464 18.1788 9.38287V16.7903Z" fill="#171723"/>
<path d="M9.53718 3.95036V4.15917C9.53718 4.28196 9.58596 4.39971 9.67278 4.48653C9.7596 4.57336 9.87736 4.62213 10.0001 4.62213C10.1229 4.62213 10.2407 4.57336 10.3275 4.48653C10.4143 4.39971 10.4631 4.28196 10.4631 4.15917V3.95036C10.8214 3.83956 11.1281 3.60393 11.3274 3.28627C11.5268 2.96861 11.6056 2.58999 11.5496 2.21916C11.4936 1.84833 11.3064 1.5099 11.0221 1.26532C10.7378 1.02073 10.3752 0.88623 10.0001 0.88623C9.62511 0.88623 9.26251 1.02073 8.9782 1.26532C8.69389 1.5099 8.50672 1.84833 8.4507 2.21916C8.39467 2.58999 8.47349 2.96861 8.67285 3.28627C8.87221 3.60393 9.17889 3.83956 9.53718 3.95036ZM10.0001 1.82085C10.1269 1.82093 10.2507 1.85859 10.356 1.92906C10.4613 1.99953 10.5433 2.09964 10.5918 2.21674C10.6402 2.33384 10.6528 2.46266 10.628 2.58692C10.6031 2.71117 10.542 2.82528 10.4524 2.91482C10.3627 3.00435 10.2485 3.06529 10.1242 3.08992C9.99995 3.11455 9.87115 3.10177 9.75412 3.0532C9.63709 3.00463 9.53709 2.92245 9.46677 2.81704C9.39645 2.71164 9.35896 2.58775 9.35905 2.46104C9.35942 2.29121 9.4271 2.12844 9.54728 2.00844C9.66745 1.88843 9.83031 1.82097 10.0001 1.82085Z" fill="#171723"/>
<path d="M8.7657 6.92336H11.2342C11.357 6.92336 11.4748 6.87459 11.5616 6.78776C11.6484 6.70094 11.6972 6.58318 11.6972 6.4604C11.6972 6.33761 11.6484 6.21986 11.5616 6.13304C11.4748 6.04621 11.357 5.99744 11.2342 5.99744H8.7657C8.64291 5.99744 8.52516 6.04621 8.43833 6.13304C8.35151 6.21986 8.30273 6.33761 8.30273 6.4604C8.30273 6.58318 8.35151 6.70094 8.43833 6.78776C8.52516 6.87459 8.64291 6.92336 8.7657 6.92336Z" fill="#171723"/>
<path d="M8.7657 5.7723H11.2342C11.357 5.7723 11.4748 5.72352 11.5616 5.6367C11.6484 5.54988 11.6972 5.43212 11.6972 5.30934C11.6972 5.18655 11.6484 5.0688 11.5616 4.98197C11.4748 4.89515 11.357 4.84637 11.2342 4.84637H8.7657C8.64291 4.84637 8.52516 4.89515 8.43833 4.98197C8.35151 5.0688 8.30273 5.18655 8.30273 5.30934C8.30273 5.43212 8.35151 5.54988 8.43833 5.6367C8.52516 5.72352 8.64291 5.7723 8.7657 5.7723Z" fill="#171723"/>
<path d="M7.2805 11.5673C7.28051 11.4137 7.23498 11.2636 7.14966 11.1359C7.06434 11.0082 6.94307 10.9087 6.80118 10.8499C6.6593 10.7911 6.50317 10.7757 6.35255 10.8057C6.20192 10.8356 6.06356 10.9096 5.95497 11.0182C5.84637 11.1268 5.77242 11.2652 5.74246 11.4158C5.7125 11.5664 5.72788 11.7225 5.78665 11.8644C5.84543 12.0063 5.94496 12.1276 6.07265 12.2129C6.20035 12.2982 6.35048 12.3437 6.50406 12.3437C6.70998 12.3437 6.90746 12.2619 7.05307 12.1163C7.19868 11.9707 7.28049 11.7732 7.2805 11.5673Z" fill="#171723"/>
<path d="M13.4957 10.7908C13.3421 10.7908 13.192 10.8363 13.0643 10.9216C12.9366 11.007 12.8371 11.1282 12.7783 11.2701C12.7196 11.412 12.7042 11.5681 12.7342 11.7187C12.7641 11.8694 12.8381 12.0077 12.9467 12.1163C13.0553 12.2249 13.1936 12.2989 13.3442 12.3288C13.4948 12.3588 13.651 12.3434 13.7929 12.2846C13.9347 12.2259 14.056 12.1263 14.1413 11.9987C14.2267 11.871 14.2722 11.7209 14.2722 11.5673C14.2722 11.4653 14.2521 11.3643 14.2131 11.2701C14.1741 11.1759 14.1169 11.0903 14.0448 11.0182C13.9727 10.9461 13.8871 10.8889 13.7929 10.8499C13.6986 10.8109 13.5977 10.7908 13.4957 10.7908Z" fill="#171723"/>
<path d="M12.5328 13.9239C11.8393 14.5532 10.9365 14.9018 10 14.9018C9.06362 14.9018 8.16074 14.5532 7.4673 13.9239C7.42325 13.8819 7.37137 13.8491 7.31463 13.8272C7.25789 13.8054 7.19739 13.7949 7.1366 13.7964C7.07581 13.7979 7.01592 13.8114 6.96033 13.8361C6.90475 13.8607 6.85456 13.8961 6.81265 13.9401C6.77073 13.9842 6.7379 14.0361 6.71603 14.0928C6.69417 14.1495 6.68369 14.21 6.6852 14.2708C6.68671 14.3316 6.70018 14.3915 6.72484 14.4471C6.7495 14.5027 6.78487 14.5529 6.82892 14.5948C7.68468 15.4075 8.81983 15.8607 10 15.8607C11.1802 15.8607 12.3154 15.4075 13.1711 14.5948C13.2601 14.5101 13.3118 14.3936 13.3149 14.2708C13.3179 14.1481 13.2721 14.0291 13.1874 13.9401C13.1028 13.8512 12.9862 13.7995 12.8635 13.7964C12.7407 13.7934 12.6217 13.8392 12.5328 13.9239Z" fill="#171723"/>
</g>
</g>
<defs>
<clipPath id="clip0_10317_147166">
<rect width="20" height="20" fill="white"/>
</clipPath>
<clipPath id="clip1_10317_147166">
<rect width="20" height="20" fill="white"/>
</clipPath>
</defs>
</svg>
