<svg width="20" height="20" viewBox="0 0 20 20" fill="none" xmlns="http://www.w3.org/2000/svg">
<g clip-path="url(#clip0_5313_35073)">
<path d="M16.6655 5.14027H14.6239C14.5328 4.78281 14.3253 4.46587 14.034 4.23951C13.7428 4.01314 13.3844 3.89026 13.0155 3.89026C12.6467 3.89026 12.2883 4.01314 11.9971 4.23951C11.7058 4.46587 11.4983 4.78281 11.4072 5.14027H3.33221C3.22181 5.14059 3.11601 5.18459 3.03794 5.26266C2.95987 5.34073 2.91587 5.44653 2.91555 5.55693C2.91501 5.6118 2.92542 5.66622 2.94617 5.71702C2.96692 5.76781 2.99759 5.81396 3.03639 5.85276C3.07519 5.89156 3.12133 5.92223 3.17213 5.94298C3.22292 5.96373 3.27735 5.97414 3.33221 5.9736H11.4072C11.4972 6.33083 11.7039 6.64779 11.9945 6.87424C12.2851 7.10068 12.643 7.22365 13.0114 7.22365C13.3798 7.22365 13.7376 7.10068 14.0282 6.87424C14.3188 6.64779 14.5255 6.33083 14.6155 5.9736H16.6655C16.7204 5.97414 16.7748 5.96373 16.8256 5.94299C16.8764 5.92224 16.9226 5.89157 16.9614 5.85277C17.0002 5.81397 17.0309 5.76782 17.0516 5.71702C17.0723 5.66623 17.0828 5.6118 17.0822 5.55693C17.0819 5.44652 17.0379 5.34072 16.9598 5.26265C16.8818 5.18458 16.776 5.14058 16.6655 5.14027ZM13.8405 5.55693V5.56527C13.8383 5.78556 13.749 5.99602 13.5921 6.15062C13.4351 6.30523 13.2233 6.3914 13.003 6.3903C12.7827 6.3892 12.5718 6.30091 12.4165 6.14474C12.2611 5.98858 12.1738 5.77724 12.1738 5.55693C12.1738 5.33663 12.2611 5.12529 12.4165 4.96912C12.5718 4.81296 12.7827 4.72467 13.003 4.72357C13.2233 4.72247 13.4351 4.80864 13.5921 4.96325C13.749 5.11785 13.8383 5.32831 13.8405 5.5486V5.55693Z" fill="#171723"/>
<path d="M16.6655 14.0236H14.6072C14.5172 13.6664 14.3105 13.3495 14.0199 13.1231C13.7293 12.8966 13.3714 12.7737 13.003 12.7737C12.6347 12.7737 12.2768 12.8966 11.9862 13.1231C11.6956 13.3495 11.4889 13.6664 11.3989 14.0236H3.33221C3.27735 14.0231 3.22292 14.0335 3.17213 14.0542C3.12133 14.075 3.07519 14.1057 3.03639 14.1445C2.99759 14.1833 2.96692 14.2294 2.94617 14.2802C2.92542 14.331 2.91501 14.3854 2.91555 14.4403C2.91587 14.5507 2.95987 14.6565 3.03794 14.7346C3.11601 14.8126 3.22181 14.8566 3.33221 14.857H11.3905C11.4826 15.2147 11.691 15.5316 11.9829 15.7579C12.2748 15.9842 12.6337 16.107 13.003 16.107C13.3724 16.107 13.7313 15.9842 14.0232 15.7579C14.3151 15.5316 14.5235 15.2147 14.6155 14.857H16.6655C16.776 14.8566 16.8818 14.8126 16.9598 14.7346C17.0379 14.6565 17.0819 14.5507 17.0822 14.4403C17.0828 14.3854 17.0723 14.331 17.0516 14.2802C17.0309 14.2294 17.0002 14.1833 16.9614 14.1445C16.9226 14.1057 16.8764 14.075 16.8256 14.0542C16.7748 14.0335 16.7204 14.0231 16.6655 14.0236ZM13.8322 14.4486C13.83 14.6689 13.7407 14.8794 13.5837 15.034C13.4268 15.1885 13.215 15.2747 12.9948 15.2736C12.7745 15.2725 12.5636 15.1842 12.4082 15.0281C12.2528 14.8719 12.1656 14.6606 12.1656 14.4403C12.1656 14.22 12.2528 14.0087 12.4082 13.8525C12.5636 13.6964 12.7745 13.6081 12.9948 13.607C13.215 13.6059 13.4268 13.692 13.5837 13.8466C13.7407 14.0012 13.83 14.2117 13.8322 14.432V14.4486Z" fill="#171723"/>
<path d="M16.6655 9.59027H8.60721C8.51817 9.23103 8.31143 8.91195 8.01993 8.68388C7.72844 8.45582 7.36899 8.33191 6.99888 8.33191C6.62877 8.33191 6.26932 8.45582 5.97783 8.68388C5.68633 8.91195 5.47959 9.23103 5.39055 9.59027H3.33221C3.27735 9.58974 3.22293 9.60015 3.17213 9.6209C3.12134 9.64165 3.07519 9.67232 3.03639 9.71112C2.99759 9.74991 2.96692 9.79606 2.94617 9.84685C2.92542 9.89765 2.91501 9.95207 2.91555 10.0069C2.91587 10.1173 2.95987 10.2231 3.03794 10.3012C3.11601 10.3793 3.22181 10.4233 3.33221 10.4236H5.39055C5.48259 10.779 5.69007 11.0939 5.98042 11.3186C6.27077 11.5433 6.62755 11.6653 6.99471 11.6653C7.36188 11.6653 7.71865 11.5433 8.009 11.3186C8.29935 11.0939 8.50684 10.779 8.59888 10.4236H16.6655C16.776 10.4233 16.8818 10.3793 16.9598 10.3012C17.0379 10.2231 17.0819 10.1173 17.0822 10.0069C17.0828 9.95207 17.0723 9.89764 17.0516 9.84685C17.0308 9.79605 17.0002 9.7499 16.9614 9.71111C16.9226 9.67231 16.8764 9.64163 16.8256 9.62089C16.7748 9.60014 16.7204 9.58973 16.6655 9.59027ZM6.99888 10.8319C6.78065 10.8322 6.57105 10.7468 6.41519 10.594C6.25933 10.4413 6.16968 10.2335 6.16555 10.0153V9.99027C6.16718 9.82582 6.21744 9.66552 6.31 9.52957C6.40255 9.39363 6.53327 9.28811 6.68567 9.2263C6.83808 9.1645 7.00537 9.14917 7.16647 9.18226C7.32758 9.21534 7.47529 9.29535 7.591 9.41222C7.70672 9.52909 7.78527 9.67758 7.81676 9.839C7.84824 10.0004 7.83126 10.1676 7.76796 10.3193C7.70465 10.4711 7.59784 10.6008 7.46098 10.692C7.32413 10.7832 7.16334 10.8319 6.99888 10.8319V10.8319Z" fill="#171723"/>
</g>
<defs>
<clipPath id="clip0_5313_35073">
<rect width="20" height="20" fill="white"/>
</clipPath>
</defs>
</svg>
