<svg width="20" height="20" viewBox="0 0 20 20" fill="none" xmlns="http://www.w3.org/2000/svg">
<path d="M19.4117 2.87498H16.5294C16.4008 2.3388 16.1078 1.8634 15.6967 1.52386C15.2855 1.18433 14.7796 1 14.2588 1C13.7381 1 13.2321 1.18433 12.821 1.52386C12.4098 1.8634 12.1168 2.3388 11.9882 2.87498H0.588261C0.432392 2.87546 0.283035 2.94146 0.172818 3.05857C0.0626012 3.17567 0.000481031 3.33436 2.78729e-05 3.49997C-0.000729839 3.58227 0.013968 3.6639 0.0432612 3.74009C0.0725544 3.81628 0.115855 3.8855 0.170629 3.9437C0.225403 4.0019 0.290551 4.0479 0.362261 4.07903C0.433971 4.11015 0.510803 4.12577 0.588261 4.12496H11.9882C12.1153 4.6608 12.4071 5.13623 12.8174 5.47589C13.2276 5.81555 13.7328 6 14.2529 6C14.773 6 15.2782 5.81555 15.6885 5.47589C16.0987 5.13623 16.3905 4.6608 16.5176 4.12496H19.4117C19.4892 4.12577 19.566 4.11016 19.6377 4.07904C19.7095 4.04792 19.7746 4.00191 19.8294 3.94371C19.8842 3.88552 19.9275 3.8163 19.9568 3.7401C19.986 3.66391 20.0007 3.58227 20 3.49997C19.9995 3.33436 19.9374 3.17566 19.8272 3.05855C19.717 2.94145 19.5676 2.87545 19.4117 2.87498V2.87498ZM15.4235 3.49997V3.51247C15.4204 3.8429 15.2943 4.15858 15.0727 4.39049C14.8512 4.62239 14.5522 4.75165 14.2412 4.75C13.9302 4.74834 13.6324 4.61592 13.413 4.38167C13.1937 4.14743 13.0705 3.83042 13.0705 3.49997C13.0705 3.16952 13.1937 2.85252 13.413 2.61827C13.6324 2.38402 13.9302 2.2516 14.2412 2.24995C14.5522 2.24829 14.8512 2.37755 15.0727 2.60945C15.2943 2.84136 15.4204 3.15704 15.4235 3.48747V3.49997Z" fill="#171723"/>
<path d="M19.4117 15.3749H16.5059C16.3787 14.8391 16.0869 14.3637 15.6767 14.0241C15.2664 13.6844 14.7612 13.5 14.2412 13.5C13.7211 13.5 13.2159 13.6844 12.8057 14.0241C12.3954 14.3637 12.1036 14.8391 11.9765 15.3749H0.588261C0.510803 15.3741 0.433971 15.3898 0.362261 15.4209C0.290551 15.452 0.225403 15.498 0.170629 15.5562C0.115855 15.6144 0.0725544 15.6836 0.0432612 15.7598C0.013968 15.836 -0.000729839 15.9176 2.78729e-05 15.9999C0.000481031 16.1656 0.0626012 16.3243 0.172818 16.4414C0.283035 16.5585 0.432392 16.6245 0.588261 16.625H11.9647C12.0947 17.1615 12.3889 17.6369 12.801 17.9763C13.2131 18.3158 13.7197 18.5 14.2412 18.5C14.7626 18.5 15.2692 18.3158 15.6813 17.9763C16.0935 17.6369 16.3877 17.1615 16.5176 16.625H19.4117C19.5676 16.6245 19.717 16.5585 19.8272 16.4414C19.9374 16.3243 19.9995 16.1656 20 15.9999C20.0007 15.9176 19.986 15.836 19.9568 15.7598C19.9275 15.6836 19.8842 15.6144 19.8294 15.5562C19.7746 15.498 19.7095 15.452 19.6377 15.4209C19.566 15.3897 19.4892 15.3741 19.4117 15.3749V15.3749ZM15.4118 16.0124C15.4086 16.3429 15.2825 16.6585 15.061 16.8904C14.8394 17.1223 14.5405 17.2516 14.2295 17.25C13.9185 17.2483 13.6207 17.1159 13.4014 16.8816C13.182 16.6474 13.0589 16.3304 13.0589 15.9999C13.0589 15.6695 13.182 15.3525 13.4014 15.1183C13.6207 14.884 13.9185 14.7516 14.2295 14.7499C14.5405 14.7483 14.8394 14.8776 15.061 15.1095C15.2825 15.3413 15.4086 15.657 15.4118 15.9874V16.0124Z" fill="#171723"/>
<path d="M19.4117 9.13751H8.0353C7.9096 8.59866 7.61772 8.12004 7.2062 7.77795C6.79468 7.43586 6.28722 7.25 5.76472 7.25C5.24221 7.25 4.73475 7.43586 4.32323 7.77795C3.91172 8.12004 3.61984 8.59866 3.49414 9.13751H0.588261C0.510803 9.13671 0.433972 9.15233 0.362263 9.18345C0.290554 9.21458 0.225406 9.26058 0.170632 9.31878C0.115858 9.37698 0.0725579 9.44619 0.0432641 9.52238C0.0139704 9.59857 -0.000728356 9.68021 2.77566e-05 9.76251C0.000480915 9.92812 0.0626011 10.0868 0.172818 10.2039C0.283035 10.321 0.432392 10.387 0.588261 10.3875H3.49414C3.62407 10.9207 3.91699 11.3929 4.3269 11.73C4.73681 12.0671 5.24048 12.25 5.75884 12.25C6.27719 12.25 6.78086 12.0671 7.19077 11.73C7.60068 11.3929 7.8936 10.9207 8.02353 10.3875H19.4117C19.5676 10.387 19.717 10.321 19.8272 10.2039C19.9374 10.0868 19.9995 9.92812 20 9.76251C20.0007 9.68021 19.986 9.59857 19.9567 9.52238C19.9275 9.44618 19.8842 9.37696 19.8294 9.31876C19.7746 9.26057 19.7095 9.21456 19.6377 9.18344C19.566 9.15232 19.4892 9.1367 19.4117 9.13751V9.13751ZM5.76472 11C5.45663 11.0004 5.16072 10.8723 4.94068 10.6431C4.72065 10.414 4.59409 10.1023 4.58825 9.775V9.73751C4.59056 9.49083 4.66151 9.25039 4.79218 9.04647C4.92285 8.84255 5.10738 8.68427 5.32255 8.59157C5.53771 8.49886 5.77388 8.47588 6.00132 8.5255C6.22876 8.57513 6.43729 8.69514 6.60065 8.87044C6.76402 9.04574 6.87491 9.26848 6.91936 9.5106C6.96382 9.75273 6.93984 10.0034 6.85047 10.2311C6.76109 10.4588 6.6103 10.6533 6.4171 10.7901C6.22389 10.9269 5.9969 10.9999 5.76472 10.9999V11Z" fill="#171723"/>
</svg>
