<svg width="20" height="20" viewBox="0 0 20 20" fill="none" xmlns="http://www.w3.org/2000/svg">
<g clip-path="url(#clip0_10327_130452)">
<path d="M14.8607 1.8056H5.139C4.25521 1.80649 3.40788 2.15796 2.78295 2.78289C2.15802 3.40782 1.80655 4.25515 1.80566 5.13894V14.8614C1.80655 15.7452 2.15802 16.5926 2.78295 17.2175C3.40788 17.8424 4.25521 18.1939 5.139 18.1948H14.8607C15.7444 18.1939 16.5918 17.8424 17.2167 17.2175C17.8416 16.5926 18.1931 15.7452 18.194 14.8614V5.13894C18.1931 4.25515 17.8416 3.40782 17.2167 2.78289C16.5918 2.15796 15.7444 1.80649 14.8607 1.8056ZM17.3607 14.8614C17.3599 15.5243 17.0963 16.1597 16.6276 16.6284C16.1589 17.0971 15.5235 17.3607 14.8607 17.3614H5.139C4.47618 17.3607 3.84071 17.0971 3.37203 16.6284C2.90335 16.1597 2.63972 15.5243 2.639 14.8614V5.13894C2.63972 4.47612 2.90335 3.84065 3.37203 3.37197C3.84071 2.90328 4.47618 2.63966 5.139 2.63894H14.8607C15.5235 2.63966 16.1589 2.90328 16.6276 3.37197C17.0963 3.84065 17.3599 4.47612 17.3607 5.13894V14.8614Z" fill="#171723"/>
<path d="M4.4445 15.0928C4.48468 15.0926 4.52436 15.0838 4.56079 15.0668C4.59722 15.0499 4.62955 15.0252 4.65554 14.9946L7.86193 11.7931L7.86193 12.6009C7.86193 12.6746 7.89119 12.7452 7.94328 12.7973C7.99538 12.8494 8.06603 12.8787 8.1397 12.8787C8.21337 12.8787 8.28403 12.8494 8.33612 12.7973C8.38821 12.7452 8.41748 12.6746 8.41748 12.6009L8.41748 11.123C8.41748 11.1149 8.41141 11.1087 8.4107 11.1007C8.40772 11.0613 8.39608 11.0229 8.37662 10.9884C8.37004 10.9768 8.36256 10.9657 8.35424 10.9552C8.32925 10.9209 8.29661 10.8929 8.2589 10.8734C8.22118 10.854 8.17945 10.8436 8.13701 10.8431L6.65535 10.8431C6.58168 10.8431 6.51102 10.8723 6.45893 10.9244C6.40684 10.9765 6.37757 11.0472 6.37757 11.1209C6.37757 11.1945 6.40684 11.2652 6.45893 11.3173C6.51102 11.3694 6.58168 11.3986 6.65535 11.3986L7.47052 11.3986L4.2481 14.6159C4.19583 14.67 4.16666 14.7424 4.16672 14.8177C4.16675 14.854 4.17398 14.89 4.18798 14.9235C4.20198 14.9571 4.22249 14.9875 4.24831 15.0131C4.27413 15.0387 4.30477 15.0589 4.33844 15.0725C4.37211 15.0862 4.40816 15.0931 4.4445 15.0928Z" fill="#171723"/>
<path d="M10.84 8.14214C10.8413 8.19144 10.856 8.23945 10.8825 8.281C10.8875 8.28938 10.8929 8.29746 10.8988 8.30521C10.9237 8.34023 10.9565 8.36888 10.9946 8.38881C11.0326 8.40875 11.0749 8.41941 11.1178 8.41992L12.6087 8.41992C12.6824 8.41992 12.753 8.39066 12.8051 8.33856C12.8572 8.28647 12.8865 8.21582 12.8865 8.14214C12.8865 8.06847 12.8572 7.99782 12.8051 7.94573C12.753 7.89363 12.6824 7.86437 12.6087 7.86437L11.7874 7.86437L15.0094 4.64279C15.0356 4.6171 15.0565 4.58646 15.0708 4.55265C15.0851 4.51884 15.0926 4.48253 15.0928 4.44582C15.093 4.40911 15.0859 4.37273 15.0719 4.33878C15.0579 4.30483 15.0374 4.27398 15.0114 4.24802C14.9855 4.22206 14.9546 4.20151 14.9207 4.18755C14.8867 4.17358 14.8503 4.16649 14.8136 4.16667C14.7769 4.16686 14.7406 4.17432 14.7068 4.18863C14.673 4.20293 14.6423 4.2238 14.6167 4.25002L11.3956 7.4705L11.3956 6.65288C11.3956 6.57921 11.3664 6.50856 11.3143 6.45646C11.2622 6.40437 11.1915 6.3751 11.1178 6.3751C11.0442 6.3751 10.9735 6.40437 10.9214 6.45646C10.8693 6.50856 10.8401 6.57921 10.8401 6.65288L10.8401 8.14105L10.84 8.14214Z" fill="#171723"/>
</g>
<defs>
<clipPath id="clip0_10327_130452">
<rect width="20" height="20" fill="white"/>
</clipPath>
</defs>
</svg>
