<svg width="20" height="20" viewBox="0 0 20 20" fill="none" xmlns="http://www.w3.org/2000/svg">
<path d="M18.7413 1.84958C18.6613 1.79164 18.5684 1.7534 18.4703 1.73806C18.3722 1.72272 18.2718 1.73073 18.1775 1.76141C15.663 2.5247 12.9525 2.35938 10.5528 1.29636C5.57722 -0.726795 2.64751 0.0619889 1.34445 0.70934C1.24091 0.761033 1.15391 0.839971 1.09311 0.937403C1.03231 1.03483 1.00008 1.14695 1 1.26133V19.3816C1 19.5456 1.06612 19.7029 1.18383 19.8189C1.30153 19.9348 1.46117 20 1.62762 20C1.79408 20 1.95372 19.9348 2.07142 19.8189C2.18912 19.7029 2.25524 19.5456 2.25524 19.3816V12.6282C3.51309 12.1327 5.98013 11.7458 10.0735 13.4099C11.6589 14.0784 13.3628 14.431 15.0872 14.4475C16.2673 14.4478 17.4403 14.2664 18.5636 13.91C18.6903 13.87 18.8009 13.7913 18.8793 13.6854C18.9578 13.5794 19 13.4517 19 13.3205V2.34963C18.9999 2.25209 18.9764 2.15596 18.9315 2.06906C18.8865 1.98217 18.8214 1.90696 18.7413 1.84958V1.84958Z" fill="#171723"/>
</svg>
