<svg width="20" height="20" viewBox="0 0 20 20" fill="none" xmlns="http://www.w3.org/2000/svg">
<g clip-path="url(#clip0_10277_158882)">
<path d="M15.9753 4.84572C15.9728 4.82503 15.9687 4.80458 15.9629 4.78454C15.9623 4.76161 15.9596 4.73879 15.9549 4.71633C15.9529 4.71043 15.9482 4.70652 15.9461 4.70077C15.9341 4.67292 15.9191 4.64653 15.9011 4.62208C15.8898 4.60168 15.8767 4.58227 15.8621 4.56405C15.8093 4.50234 15.7362 4.46145 15.656 4.44869C15.6301 4.44071 15.6035 4.43534 15.5765 4.43267C15.5702 4.43237 15.5649 4.42906 15.5586 4.42906C15.5161 4.43956 15.4728 4.44637 15.4292 4.44941C13.7601 4.96495 11.9602 4.85354 10.3673 4.13607C7.09947 2.78699 5.16235 3.29425 4.28332 3.7278L4.27634 3.73085L4.25407 3.74057C4.23751 3.75164 4.22183 3.76396 4.20717 3.77744C4.18209 3.79312 4.15877 3.81147 4.13764 3.83217C4.12095 3.85234 4.10628 3.87411 4.09385 3.89717C4.07848 3.91922 4.06535 3.94275 4.05463 3.96741C4.04609 3.9947 4.04042 4.02281 4.0377 4.05127C4.03197 4.07131 4.02786 4.09177 4.02539 4.11247V16.3236C4.02539 16.4341 4.06929 16.5401 4.14743 16.6182C4.22557 16.6964 4.33155 16.7403 4.44206 16.7403C4.55256 16.7403 4.65854 16.6964 4.73669 16.6182C4.81483 16.5401 4.85872 16.4341 4.85872 16.3236V11.771C5.69399 11.4373 7.33309 11.1772 10.0491 12.2977C11.1018 12.7477 12.2329 12.9853 13.3776 12.9968C14.1611 12.9969 14.9398 12.8747 15.6855 12.6346C15.692 12.6325 15.6962 12.6275 15.7025 12.6252C15.7292 12.6138 15.7546 12.5996 15.7782 12.5828C15.8238 12.5591 15.8634 12.5252 15.8938 12.4838C15.9243 12.4424 15.9448 12.3946 15.9538 12.3439C15.9631 12.3151 15.9692 12.2852 15.9718 12.255C15.972 12.2488 15.9753 12.2437 15.9753 12.2375L15.9753 4.84572ZM10.3673 11.5279C7.68104 10.4201 5.90049 10.5673 4.85872 10.8923V4.38527C5.68706 4.04728 7.3219 3.7811 10.0491 4.90595C11.1053 5.35631 12.2401 5.59307 13.3882 5.60256C13.9789 5.60297 14.5677 5.53311 15.1419 5.39443V11.9189C13.552 12.3328 11.8687 12.1949 10.3673 11.5279Z" fill="#171723"/>
</g>
<defs>
<clipPath id="clip0_10277_158882">
<rect width="20" height="20" fill="white"/>
</clipPath>
</defs>
</svg>
