<svg width="20" height="20" viewBox="0 0 20 20" fill="none" xmlns="http://www.w3.org/2000/svg">
<g clip-path="url(#clip0_10277_158882)">
<path d="M19 2.34881C18.9963 2.31811 18.9901 2.28775 18.9814 2.25802C18.9804 2.224 18.9764 2.19013 18.9693 2.1568C18.9663 2.14804 18.9593 2.14223 18.956 2.1337C18.938 2.09238 18.9153 2.05321 18.8883 2.01694C18.8712 1.98666 18.8515 1.95786 18.8295 1.93081C18.75 1.83924 18.64 1.77856 18.5191 1.75963C18.4801 1.74778 18.44 1.73981 18.3994 1.73585C18.3899 1.7354 18.3819 1.73049 18.3724 1.73049C18.3084 1.74608 18.2432 1.75619 18.1775 1.76069C15.6633 2.52575 12.9521 2.36041 10.5528 1.29571C5.63046 -0.706295 2.71259 0.0464638 1.38851 0.689841L1.378 0.694367L1.34445 0.708786C1.31952 0.725213 1.2959 0.743508 1.27382 0.763508C1.23603 0.786769 1.20091 0.813998 1.16908 0.844718C1.14393 0.87466 1.12184 0.906969 1.10312 0.941177C1.07997 0.973909 1.06018 1.00883 1.04405 1.04541C1.03118 1.08591 1.02263 1.12762 1.01854 1.16987C1.00992 1.1996 1.00372 1.22997 1 1.26068V19.3817C1 19.5457 1.06612 19.7029 1.18383 19.8189C1.30153 19.9349 1.46117 20 1.62762 20C1.79408 20 1.95371 19.9349 2.07142 19.8189C2.18912 19.7029 2.25524 19.5457 2.25524 19.3817V12.6258C3.5134 12.1306 5.98236 11.7446 10.0735 13.4074C11.6591 14.0751 13.3629 14.4277 15.0871 14.4447C16.2673 14.445 17.4402 14.2636 18.5636 13.9073C18.5732 13.9042 18.5797 13.8968 18.5891 13.8933C18.6293 13.8765 18.6676 13.8554 18.7032 13.8304C18.7719 13.7953 18.8315 13.745 18.8773 13.6836C18.9232 13.6221 18.9541 13.5511 18.9676 13.476C18.9817 13.4331 18.9908 13.3888 18.9947 13.344C18.9951 13.3348 19 13.3272 19 13.318L19 2.34881ZM10.5528 12.2649C6.50647 10.6211 3.82445 10.8394 2.25524 11.3217V1.6655C3.50295 1.16395 5.9655 0.768936 10.0735 2.43819C11.6643 3.10651 13.3737 3.45785 15.1031 3.47194C15.993 3.47255 16.8797 3.36887 17.7447 3.16308V12.8453C15.3499 13.4595 12.8143 13.2549 10.5528 12.2649V12.2649Z" fill="#171723"/>
</g>
<defs>
<clipPath id="clip0_10277_158882">
<rect width="20" height="20" fill="white"/>
</clipPath>
</defs>
</svg>
