<svg width="20" height="20" viewBox="0 0 20 20" fill="none" xmlns="http://www.w3.org/2000/svg">
<g clip-path="url(#clip0_10995_130861)">
<path d="M4.81244 13.3868C4.81319 13.5486 4.75609 13.7054 4.65146 13.8289C4.54682 13.9523 4.40152 14.0344 4.24175 14.0602H0.772025C0.6208 14.0597 0.475892 13.9995 0.36896 13.8925C0.262027 13.7856 0.201762 13.6407 0.201332 13.4895C0.196684 13.3266 0.252378 13.1678 0.357716 13.0435C0.463053 12.9192 0.610605 12.8382 0.772025 12.8161H1.89058V7.95381L1.06879 8.69571C0.931204 8.79839 0.761689 8.849 0.590334 8.83855C0.418978 8.8281 0.256868 8.75728 0.13278 8.63864C0.0404409 8.51971 -0.00678382 8.37191 -0.000515531 8.22148C0.00575276 8.07104 0.0651087 7.92768 0.167022 7.81684L2.13021 6.04764C2.22059 5.9834 2.32577 5.9431 2.43594 5.93049C2.54611 5.91789 2.65767 5.9334 2.76023 5.97556C2.86278 6.01773 2.95299 6.08518 3.02243 6.17163C3.09187 6.25808 3.13828 6.36071 3.15734 6.46995V12.8161H4.24174C4.39296 12.8165 4.53787 12.8768 4.6448 12.9837C4.75173 13.0906 4.812 13.2355 4.81244 13.3868V13.3868Z" fill="#171723"/>
<path d="M7.32382 13.2498C7.32493 13.3695 7.30115 13.4881 7.25399 13.5982C7.20684 13.7082 7.13733 13.8072 7.04988 13.889C6.88275 14.0449 6.66211 14.1307 6.43353 14.1287C6.31709 14.1304 6.20145 14.109 6.09338 14.0656C5.9853 14.0222 5.88696 13.9578 5.80408 13.8759C5.7212 13.7941 5.65545 13.6966 5.61067 13.5891C5.56588 13.4816 5.54297 13.3663 5.54325 13.2498C5.5388 13.072 5.58805 12.897 5.68457 12.7476C5.78108 12.5982 5.92039 12.4814 6.0843 12.4124C6.24822 12.3434 6.42913 12.3254 6.60343 12.3607C6.77772 12.3961 6.93732 12.4832 7.06138 12.6106C7.14603 12.6939 7.21292 12.7935 7.25803 12.9033C7.30313 13.0132 7.32551 13.131 7.32382 13.2498V13.2498Z" fill="#171723"/>
<path d="M13.0577 14.0547H8.69721C8.62226 14.0547 8.54803 14.04 8.47877 14.0113C8.40951 13.9827 8.34658 13.9406 8.29358 13.8876C8.24058 13.8346 8.19854 13.7717 8.16988 13.7024C8.14121 13.6332 8.12648 13.5589 8.12652 13.484C8.12195 13.3871 8.13808 13.2904 8.17383 13.2003C8.20958 13.1101 8.26413 13.0286 8.33384 12.9612L10.8384 10.4154C11.0402 10.2114 11.2297 10.0123 11.4069 9.81797C11.5615 9.65057 11.7028 9.47131 11.8293 9.28183C11.9375 9.11967 12.0262 8.94533 12.0935 8.7624C12.1508 8.60029 12.1795 8.42943 12.1782 8.25748C12.1847 8.07439 12.1508 7.89213 12.079 7.72357C12.0201 7.5928 11.9329 7.4767 11.8238 7.38361C11.7102 7.29172 11.58 7.22247 11.4403 7.17962C11.1097 7.07754 10.7554 7.08144 10.4271 7.19077C10.1362 7.2962 9.89444 7.5054 9.74832 7.77819C9.66879 7.92872 9.61492 8.09145 9.58892 8.2597C9.55306 8.40808 9.47185 8.5416 9.35658 8.64169C9.24132 8.74177 9.09773 8.80345 8.94578 8.81814C8.86099 8.81812 8.77708 8.80093 8.69911 8.7676C8.62114 8.73426 8.55073 8.68548 8.49213 8.62419C8.4349 8.56455 8.39084 8.49354 8.3628 8.41577C8.33477 8.338 8.32338 8.25521 8.32939 8.17276C8.37036 7.84596 8.46686 7.52855 8.61474 7.23425C8.75616 6.95225 8.95113 6.70049 9.18877 6.49301C9.42422 6.28924 9.69564 6.13123 9.98908 6.02709C10.5799 5.82439 11.2195 5.81308 11.8171 5.99477C12.1135 6.08279 12.3894 6.22908 12.6285 6.42507C12.8767 6.63258 13.0767 6.89157 13.2148 7.1841C13.3702 7.52018 13.4469 7.8873 13.4389 8.25749C13.4409 8.57789 13.3858 8.89608 13.2761 9.19712C13.1733 9.47263 13.0375 9.73463 12.8715 9.97738C12.7063 10.2186 12.5226 10.4467 12.322 10.6595C12.1325 10.8646 11.9319 11.0719 11.7235 11.2848L10.2343 12.8041H13.0075C13.1691 12.8131 13.3216 12.8813 13.4361 12.9956C13.5506 13.1099 13.6191 13.2623 13.6284 13.4239C13.6305 13.5816 13.5728 13.7344 13.4669 13.8514C13.3611 13.9684 13.2149 14.041 13.0577 14.0547Z" fill="#171723"/>
<path d="M17.2588 14.1338C16.9621 14.1373 16.6662 14.1029 16.3782 14.0312C16.1354 13.9687 15.9022 13.8734 15.6849 13.7482C15.4857 13.6325 15.3069 13.4849 15.1555 13.3112C15.029 13.1646 14.9184 13.0051 14.8255 12.8352C14.742 12.6808 14.6723 12.5193 14.6171 12.3526C14.5703 12.2021 14.5335 12.0695 14.5034 11.9435C14.4735 11.8184 14.4869 11.6868 14.5413 11.5702C14.5958 11.4536 14.6881 11.3589 14.8033 11.3015C14.9022 11.2556 15.0088 11.2284 15.1176 11.2213C15.2316 11.2202 15.3438 11.2501 15.4421 11.3078C15.5405 11.3655 15.6213 11.4489 15.676 11.549C15.7092 11.6217 15.7375 11.6965 15.7607 11.773C15.7741 11.8343 15.7897 11.89 15.812 11.9669C15.8354 12.0382 15.8653 12.1073 15.9012 12.1731C15.9514 12.2689 16.0107 12.3596 16.0784 12.444C16.144 12.5245 16.2218 12.5941 16.3091 12.6502C16.4278 12.7263 16.557 12.7845 16.6926 12.823C17.0974 12.9302 17.5253 12.9123 17.9198 12.7717C18.0925 12.6977 18.2495 12.5914 18.3824 12.4585C18.4977 12.3429 18.5887 12.2053 18.6499 12.0539C18.7056 11.9238 18.7356 11.7841 18.7379 11.6426C18.7401 11.4867 18.7121 11.3319 18.6554 11.1867C18.6037 11.0647 18.5234 10.9569 18.4214 10.8724C18.2768 10.757 18.1109 10.6714 17.9332 10.6205C17.6604 10.5442 17.3781 10.5074 17.095 10.5112C16.9444 10.51 16.8004 10.4494 16.6943 10.3425C16.5883 10.2356 16.5288 10.0911 16.5287 9.94054C16.5263 9.78363 16.5809 9.63116 16.6823 9.51145C16.7838 9.39174 16.9253 9.31291 17.0805 9.2896C17.3069 9.28536 17.5315 9.2478 17.747 9.17813C17.9105 9.12634 18.0625 9.04387 18.1951 8.93514C18.3044 8.8448 18.3924 8.73137 18.4526 8.60299C18.5127 8.46963 18.5424 8.32456 18.5395 8.17831C18.5456 8.00674 18.514 7.83592 18.4471 7.67784C18.3943 7.5574 18.3137 7.4512 18.2119 7.36797C18.1023 7.28044 17.9765 7.21529 17.8418 7.17622C17.5094 7.07677 17.1545 7.08222 16.8253 7.19182C16.6802 7.24287 16.5459 7.32076 16.4296 7.42143C16.3119 7.52327 16.2137 7.64564 16.1398 7.78258C16.0597 7.93218 16.0055 8.09422 15.9793 8.26187C15.9452 8.40897 15.866 8.54172 15.7526 8.64148C15.6393 8.74123 15.4975 8.80299 15.3473 8.81807C15.2623 8.81795 15.1783 8.80071 15.1002 8.76739C15.022 8.73407 14.9514 8.68534 14.8925 8.62412C14.8356 8.56426 14.7919 8.49319 14.7641 8.41546C14.7362 8.33773 14.7249 8.25504 14.7309 8.17269C14.7721 7.84658 14.8678 7.5297 15.014 7.23528C15.2991 6.66957 15.7926 6.23647 16.3905 6.02703C16.9767 5.82646 17.6108 5.81284 18.2051 5.98807C18.4944 6.07194 18.7649 6.21041 19.0021 6.39602C19.2495 6.59559 19.4484 6.84864 19.5839 7.13614C19.7336 7.46281 19.8075 7.81907 19.8002 8.17832C19.8028 8.48367 19.7393 8.78598 19.614 9.06446C19.4995 9.32034 19.3385 9.55277 19.1392 9.74996C19.1225 9.76668 19.1058 9.78339 19.0879 9.79904C19.1897 9.87151 19.2851 9.95242 19.3733 10.0409C19.58 10.2498 19.7406 10.4996 19.8448 10.7743C19.9491 11.0519 20.0016 11.3462 19.9997 11.6426C19.9995 11.9779 19.9265 12.3092 19.7857 12.6135C19.6456 12.9151 19.4462 13.1854 19.1994 13.4082C18.9478 13.6364 18.656 13.8159 18.3389 13.9377C17.9945 14.0708 17.628 14.1374 17.2588 14.1338V14.1338Z" fill="#171723"/>
</g>
<defs>
<clipPath id="clip0_10995_130861">
<rect width="20" height="20" fill="white"/>
</clipPath>
</defs>
</svg>
