<svg width="20" height="20" viewBox="0 0 20 20" fill="none" xmlns="http://www.w3.org/2000/svg">
<path d="M6.21262 12.4727C6.21316 12.5909 6.17148 12.7054 6.09508 12.7955C6.01868 12.8857 5.9126 12.9455 5.79595 12.9644H3.26268C3.15227 12.9641 3.04647 12.9201 2.9684 12.842C2.89033 12.7639 2.84633 12.6581 2.84602 12.5477C2.84262 12.4288 2.88328 12.3128 2.96019 12.2221C3.0371 12.1313 3.14483 12.0722 3.26268 12.0561H4.07935V8.5061L3.47935 9.04777C3.3789 9.12273 3.25514 9.15968 3.13003 9.15205C3.00492 9.14443 2.88656 9.09271 2.79597 9.0061C2.72855 8.91927 2.69407 8.81136 2.69865 8.70152C2.70322 8.59169 2.74656 8.48702 2.82097 8.4061L4.2543 7.11439C4.32029 7.06749 4.39708 7.03806 4.47752 7.02886C4.55795 7.01966 4.6394 7.03098 4.71428 7.06177C4.78916 7.09255 4.85502 7.1418 4.90572 7.20492C4.95641 7.26804 4.9903 7.34297 5.00422 7.42272V12.0561H5.79594C5.90635 12.0564 6.01215 12.1004 6.09022 12.1784C6.16829 12.2565 6.21229 12.3623 6.21262 12.4727V12.4727Z" fill="#171723"/>
<path d="M8.0463 12.3727C8.04711 12.4601 8.02975 12.5467 7.99532 12.627C7.96089 12.7074 7.91014 12.7797 7.8463 12.8394C7.72427 12.9532 7.56318 13.0159 7.3963 13.0144C7.31128 13.0157 7.22685 13 7.14795 12.9683C7.06904 12.9367 6.99723 12.8896 6.93672 12.8298C6.87621 12.7701 6.82821 12.6989 6.79551 12.6204C6.76282 12.5419 6.74609 12.4577 6.7463 12.3727C6.74305 12.2429 6.779 12.1151 6.84947 12.006C6.91994 11.897 7.02164 11.8117 7.14132 11.7613C7.26099 11.7109 7.39308 11.6978 7.52033 11.7236C7.64759 11.7494 7.76411 11.813 7.85469 11.906C7.91649 11.9668 7.96533 12.0395 7.99826 12.1197C8.0312 12.1999 8.04754 12.286 8.0463 12.3727V12.3727Z" fill="#171723"/>
<path d="M12.2327 12.9603H9.04906C8.99433 12.9603 8.94013 12.9496 8.88957 12.9287C8.839 12.9077 8.79306 12.877 8.75436 12.8383C8.71566 12.7996 8.68497 12.7537 8.66404 12.7031C8.64311 12.6526 8.63236 12.5984 8.63239 12.5436C8.62905 12.4729 8.64083 12.4023 8.66693 12.3365C8.69303 12.2707 8.73286 12.2112 8.78376 12.162L10.6124 10.3033C10.7597 10.1543 10.898 10.0089 11.0274 9.86706C11.1403 9.74484 11.2434 9.61396 11.3358 9.47562C11.4148 9.35723 11.4795 9.22994 11.5287 9.09638C11.5706 8.97802 11.5915 8.85328 11.5906 8.72773C11.5953 8.59406 11.5705 8.46099 11.5181 8.33793C11.4751 8.24245 11.4115 8.15768 11.3318 8.08972C11.2488 8.02263 11.1538 7.97207 11.0518 7.94078C10.8104 7.86625 10.5518 7.8691 10.3121 7.94893C10.0997 8.0259 9.92316 8.17863 9.81647 8.3778C9.75841 8.4877 9.71908 8.60652 9.7001 8.72936C9.67391 8.83769 9.61462 8.93517 9.53047 9.00825C9.44631 9.08132 9.34147 9.12635 9.23054 9.13708C9.16863 9.13706 9.10736 9.12451 9.05044 9.10018C8.99351 9.07584 8.94211 9.04022 8.89932 8.99548C8.85754 8.95193 8.82537 8.90008 8.8049 8.8433C8.78443 8.78653 8.77612 8.72608 8.78051 8.66588C8.81042 8.42728 8.88087 8.19554 8.98884 7.98067C9.09209 7.77478 9.23444 7.59097 9.40795 7.43948C9.57984 7.29071 9.77801 7.17535 9.99226 7.09932C10.4236 6.95132 10.8906 6.94306 11.3269 7.07572C11.5433 7.13998 11.7447 7.24679 11.9193 7.38988C12.1005 7.54139 12.2466 7.73048 12.3474 7.94405C12.4609 8.18943 12.5168 8.45747 12.511 8.72774C12.5125 8.96167 12.4722 9.19398 12.3922 9.41378C12.3171 9.61492 12.2179 9.80621 12.0967 9.98344C11.9761 10.1596 11.842 10.3261 11.6955 10.4815C11.5572 10.6312 11.4107 10.7826 11.2585 10.938L10.1713 12.0472H12.196C12.314 12.0538 12.4254 12.1036 12.509 12.187C12.5926 12.2705 12.6425 12.3818 12.6493 12.4997C12.6509 12.6149 12.6088 12.7264 12.5315 12.8119C12.4542 12.8973 12.3474 12.9503 12.2327 12.9603Z" fill="#171723"/>
<path d="M15.3 13.0181C15.0833 13.0207 14.8673 12.9955 14.657 12.9432C14.4798 12.8975 14.3095 12.828 14.1509 12.7365C14.0054 12.6521 13.8748 12.5443 13.7643 12.4175C13.672 12.3105 13.5912 12.194 13.5234 12.07C13.4625 11.9573 13.4115 11.8393 13.3712 11.7176C13.3371 11.6078 13.3102 11.5109 13.2882 11.419C13.2664 11.3276 13.2762 11.2315 13.3159 11.1464C13.3557 11.0613 13.4231 10.9922 13.5071 10.9502C13.5794 10.9167 13.6572 10.8969 13.7366 10.8916C13.8199 10.8909 13.9018 10.9127 13.9736 10.9548C14.0454 10.997 14.1044 11.0578 14.1443 11.1309C14.1686 11.184 14.1892 11.2386 14.2062 11.2945C14.216 11.3392 14.2274 11.3799 14.2436 11.4361C14.2607 11.4881 14.2825 11.5385 14.3087 11.5866C14.3454 11.6566 14.3887 11.7228 14.4381 11.7844C14.486 11.8431 14.5429 11.8939 14.6066 11.9349C14.6932 11.9905 14.7876 12.033 14.8865 12.0611C15.1821 12.1393 15.4945 12.1263 15.7825 12.0236C15.9087 11.9696 16.0233 11.892 16.1203 11.795C16.2045 11.7106 16.2709 11.6101 16.3156 11.4995C16.3563 11.4046 16.3781 11.3026 16.3799 11.1993C16.3815 11.0855 16.361 10.9724 16.3196 10.8664C16.2819 10.7773 16.2233 10.6986 16.1488 10.6369C16.0432 10.5527 15.9221 10.4902 15.7923 10.453C15.5932 10.3973 15.3871 10.3705 15.1803 10.3732C15.0704 10.3724 14.9653 10.3281 14.8878 10.25C14.8104 10.172 14.7669 10.0665 14.7669 9.95658C14.7651 9.84202 14.805 9.73071 14.8791 9.6433C14.9532 9.5559 15.0564 9.49834 15.1697 9.48132C15.3351 9.47823 15.4991 9.45081 15.6564 9.39994C15.7757 9.36213 15.8868 9.30192 15.9836 9.22253C16.0634 9.15658 16.1276 9.07376 16.1716 8.98003C16.2154 8.88266 16.2371 8.77675 16.235 8.66997C16.2394 8.5447 16.2164 8.41999 16.1675 8.30457C16.129 8.21664 16.0701 8.1391 15.9958 8.07833C15.9158 8.01443 15.824 7.96686 15.7256 7.93833C15.4829 7.86573 15.2238 7.86971 14.9834 7.94972C14.8775 7.987 14.7795 8.04387 14.6945 8.11737C14.6086 8.19172 14.5369 8.28106 14.483 8.38104C14.4245 8.49027 14.3849 8.60857 14.3658 8.73097C14.3409 8.83838 14.283 8.9353 14.2003 9.00813C14.1175 9.08096 14.014 9.12605 13.9043 9.13706C13.8423 9.13697 13.781 9.12439 13.7239 9.10006C13.6669 9.07573 13.6153 9.04015 13.5723 8.99546C13.5308 8.95175 13.4989 8.89986 13.4785 8.84311C13.4582 8.78636 13.45 8.72599 13.4543 8.66587C13.4844 8.42777 13.5543 8.19642 13.661 7.98146C13.8692 7.56843 14.2294 7.25222 14.666 7.09931C15.094 6.95287 15.5569 6.94293 15.9909 7.07086C16.2021 7.13209 16.3996 7.23319 16.5727 7.36871C16.7533 7.51442 16.8986 7.69917 16.9975 7.90907C17.1068 8.14758 17.1608 8.40769 17.1554 8.66997C17.1574 8.89291 17.111 9.11363 17.0195 9.31695C16.9359 9.50377 16.8183 9.67347 16.6729 9.81744C16.6606 9.82965 16.6484 9.84185 16.6354 9.85327C16.7097 9.90618 16.7794 9.96525 16.8438 10.0299C16.9946 10.1824 17.1119 10.3648 17.188 10.5653C17.2641 10.768 17.3025 10.9828 17.3011 11.1993C17.301 11.4441 17.2477 11.686 17.1449 11.9081C17.0426 12.1283 16.897 12.3257 16.7168 12.4884C16.5331 12.6549 16.32 12.786 16.0885 12.8749C15.8371 12.9721 15.5695 13.0207 15.3 13.0181V13.0181Z" fill="#171723"/>
</svg>
