<svg width="20" height="20" viewBox="0 0 20 20" fill="none" xmlns="http://www.w3.org/2000/svg">
<g clip-path="url(#clip0_10314_145787)">
<path d="M12.6583 10.1748H7.34171C7.18967 10.1747 7.04049 10.2162 6.91037 10.2948C6.78024 10.3735 6.67412 10.4862 6.60352 10.6209C6.53292 10.7556 6.50054 10.907 6.50987 11.0587C6.51921 11.2105 6.56991 11.3568 6.65648 11.4818L7.41898 12.5828C7.49567 12.6934 7.59796 12.7838 7.71713 12.8463C7.83631 12.9088 7.96883 12.9415 8.10339 12.9417H11.8965C12.0313 12.9415 12.164 12.9086 12.2833 12.846C12.4026 12.7834 12.505 12.6928 12.5817 12.582L13.3435 11.4826C13.43 11.3575 13.4806 11.2112 13.49 11.0594C13.4993 10.9076 13.4669 10.7562 13.3963 10.6215C13.3258 10.4868 13.2197 10.374 13.0896 10.2952C12.9595 10.2165 12.8103 10.1749 12.6583 10.1748ZM12.6583 11.0073V11.0081L11.8966 12.1084H8.10343L7.34171 11.0081L12.6599 11.0057L13.0009 11.245L12.6583 11.0073Z" fill="#171723"/>
<path d="M18.1574 10.7729L18.1322 10.5475L18.1314 10.545L18.1289 10.5231C18.0638 10.1148 17.9088 9.726 17.6751 9.38487C17.4414 9.04374 17.1348 8.75877 16.7776 8.55057L15.0755 4.92167C14.9329 4.62245 14.7194 4.3626 14.4534 4.16475C14.1875 3.96689 13.8772 3.83702 13.5496 3.78642C11.1747 3.41599 8.75636 3.41955 6.38249 3.797C6.06688 3.8522 5.7694 3.98325 5.51566 4.17888C5.26191 4.37451 5.05949 4.62886 4.92582 4.92005L3.22157 8.55338C2.86219 8.76453 2.5543 9.05302 2.32025 9.39792C2.08619 9.74282 1.93184 10.1355 1.86837 10.5475L1.84233 10.7794C1.81547 11.0837 1.80566 11.3987 1.80566 11.7136C1.80566 11.9985 1.81462 12.2752 1.83252 12.5551C1.85938 12.9229 1.89681 13.2851 1.95052 13.6399C1.97364 13.7785 2.03205 13.9088 2.12013 14.0183C2.20822 14.1278 2.32301 14.2128 2.45346 14.2651V15.2097C2.45393 15.5491 2.58894 15.8744 2.8289 16.1144C3.06886 16.3544 3.39418 16.4894 3.73354 16.4899H5.38233C5.72169 16.4894 6.04701 16.3544 6.28697 16.1144C6.52694 15.8744 6.66196 15.5491 6.66244 15.2098V14.922C6.74331 14.9377 6.82514 14.9479 6.90739 14.9526H13.0931C13.1754 14.9479 13.2572 14.9377 13.3381 14.922V15.2098C13.3385 15.5491 13.4736 15.8744 13.7135 16.1144C13.9535 16.3544 14.2788 16.4894 14.6182 16.4899H16.2669C16.6063 16.4894 16.9316 16.3544 17.1716 16.1144C17.4115 15.8744 17.5466 15.5491 17.547 15.2098V14.2673C17.6782 14.2153 17.7935 14.13 17.8817 14.0199C17.9699 13.9097 18.0279 13.7785 18.05 13.6391C18.1037 13.2851 18.1411 12.923 18.168 12.5519C18.1859 12.2752 18.1948 11.9985 18.1948 11.7137C18.1948 11.3987 18.1851 11.0838 18.1574 10.7729ZM17.3341 11.0081C17.35 11.2408 17.3615 11.4756 17.3615 11.7137C17.3615 11.8485 17.3531 11.977 17.3487 12.1084H15.1203L15.7575 11.1871C15.7959 11.1319 15.8471 11.0867 15.9068 11.0555C15.9665 11.0243 16.0328 11.0081 16.1001 11.0081H17.3341ZM5.68099 5.27327C5.75726 5.10448 5.8734 4.95673 6.01941 4.84275C6.16543 4.72877 6.33694 4.65196 6.51921 4.61894C7.67002 4.43283 8.83408 4.34084 9.99984 4.34387C11.1439 4.34074 12.2863 4.42919 13.4162 4.60836C13.6098 4.63745 13.7933 4.71337 13.9509 4.82952C14.1085 4.94568 14.2353 5.09855 14.3203 5.27487L15.646 8.1012C15.5164 8.06382 15.3717 8.03747 15.2378 8.00298C15.0222 7.94698 14.8059 7.89382 14.5809 7.84496C14.3856 7.8035 14.1867 7.76708 13.985 7.73138C11.3491 7.2476 8.64712 7.24791 6.01134 7.73229C5.81217 7.76759 5.61583 7.8036 5.42276 7.84455C5.19581 7.89372 4.9774 7.94729 4.75996 8.0038C4.62701 8.03802 4.4833 8.06407 4.35454 8.1012L5.68099 5.27327ZM2.65171 12.1084C2.64739 11.9771 2.639 11.8479 2.639 11.7137C2.639 11.4738 2.65019 11.2389 2.66586 11.0081H3.9004C3.96772 11.0081 4.03404 11.0243 4.0937 11.0555C4.15337 11.0867 4.20459 11.1319 4.24301 11.1871L4.88021 12.1084H2.65171ZM5.38233 15.6565H3.73354C3.61506 15.6565 3.50146 15.6094 3.41768 15.5256C3.33391 15.4418 3.28682 15.3282 3.28676 15.2098V14.3317H4.91195C5.16254 14.3318 5.40918 14.3942 5.62972 14.5131L5.82911 14.6211V15.2098C5.82905 15.3282 5.78196 15.4418 5.69819 15.5256C5.61441 15.6094 5.50081 15.6565 5.38233 15.6565ZM6.90739 14.1193C6.74039 14.1193 6.57599 14.0779 6.42888 13.9988L6.02605 13.7807C5.68385 13.5956 5.30099 13.4986 4.91195 13.4983L2.94087 13.5126C2.91777 13.5057 2.89409 13.5009 2.87012 13.4983C2.84435 13.5009 2.8189 13.5061 2.79413 13.5136L2.77413 13.5138C2.7457 13.3263 2.73163 13.133 2.71223 12.9417H4.88021C5.03227 12.9416 5.18143 12.9 5.31152 12.8213C5.44162 12.7425 5.5477 12.6297 5.61828 12.495C5.68885 12.3603 5.72123 12.2089 5.71192 12.0571C5.7026 11.9053 5.65194 11.759 5.56542 11.6339L4.92821 10.7135C4.81325 10.5473 4.65967 10.4114 4.48065 10.3176C4.30163 10.2237 4.10251 10.1747 3.90039 10.1748H2.84031C3.02003 9.75108 3.34319 9.40419 3.7531 9.19494C3.82354 9.1563 3.8967 9.12284 3.97201 9.09484C5.92083 8.47777 7.95581 8.17639 9.99984 8.2021C12.0422 8.17617 14.0755 8.477 16.0228 9.09322C16.1061 9.12384 16.1869 9.16084 16.2645 9.20389C16.6685 9.41256 16.9868 9.75601 17.1642 10.1747H16.1C15.8979 10.1747 15.6988 10.2237 15.5198 10.3175C15.3408 10.4113 15.1872 10.5472 15.0722 10.7135L14.435 11.6339C14.3485 11.7589 14.2978 11.9053 14.2885 12.0571C14.2792 12.2088 14.3116 12.3603 14.3822 12.495C14.4527 12.6297 14.5588 12.7425 14.6889 12.8212C14.819 12.9 14.9682 12.9416 15.1202 12.9416H17.2905C17.2721 13.1289 17.2576 13.3222 17.2337 13.4983H15.0885C14.6997 13.4985 14.3171 13.5955 13.9753 13.7807L13.5708 13.9988C13.424 14.078 13.2599 14.1193 13.0931 14.1193L6.90739 14.1193ZM16.2669 15.6565H14.6182C14.4997 15.6565 14.3861 15.6094 14.3023 15.5256C14.2185 15.4418 14.1714 15.3282 14.1714 15.2098V14.6211L14.3716 14.5131C14.5918 14.3941 14.8382 14.3317 15.0885 14.3317H16.7137V15.2098C16.7137 15.3282 16.6666 15.4418 16.5828 15.5256C16.499 15.6094 16.3854 15.6565 16.2669 15.6565Z" fill="#171723"/>
</g>
<defs>
<clipPath id="clip0_10314_145787">
<rect width="20" height="20" fill="white"/>
</clipPath>
</defs>
</svg>
