<svg width="20" height="20" viewBox="0 0 20 20" fill="none" xmlns="http://www.w3.org/2000/svg">
<g clip-path="url(#clip0_10327_130445)">
<path d="M14.8607 1.8056H5.139C4.25521 1.80649 3.40788 2.15796 2.78295 2.78289C2.15802 3.40782 1.80655 4.25515 1.80566 5.13894V14.8614C1.80655 15.7452 2.15802 16.5926 2.78295 17.2175C3.40788 17.8424 4.25521 18.1939 5.139 18.1948H14.8607C15.7444 18.1939 16.5918 17.8424 17.2167 17.2175C17.8416 16.5926 18.1931 15.7452 18.194 14.8614V5.13894C18.1931 4.25515 17.8416 3.40782 17.2167 2.78289C16.5918 2.15796 15.7444 1.80649 14.8607 1.8056ZM17.3607 14.8614C17.3599 15.5243 17.0963 16.1597 16.6276 16.6284C16.1589 17.0971 15.5235 17.3607 14.8607 17.3614H5.139C4.47618 17.3607 3.84071 17.0971 3.37203 16.6284C2.90335 16.1597 2.63972 15.5243 2.639 14.8614V5.13894C2.63972 4.47612 2.90335 3.84065 3.37203 3.37197C3.84071 2.90328 4.47618 2.63966 5.139 2.63894H14.8607C15.5235 2.63966 16.1589 2.90328 16.6276 3.37197C17.0963 3.84065 17.3599 4.47612 17.3607 5.13894V14.8614Z" fill="#171723"/>
<path d="M8.13949 10.8431C8.0993 10.8432 8.05963 10.8521 8.02319 10.869C7.98676 10.886 7.95443 10.9106 7.92844 10.9413L4.72206 14.1428V13.335C4.72206 13.2613 4.69279 13.1906 4.6407 13.1385C4.58861 13.0864 4.51795 13.0572 4.44428 13.0572C4.37061 13.0572 4.29996 13.0864 4.24786 13.1385C4.19577 13.1906 4.1665 13.2613 4.1665 13.335V14.8128C4.1665 14.8209 4.17258 14.8272 4.17329 14.8351C4.17627 14.8746 4.1879 14.9129 4.20737 14.9474C4.21394 14.959 4.22143 14.9702 4.22975 14.9806C4.25473 15.0149 4.28738 15.0429 4.32509 15.0624C4.3628 15.0819 4.40453 15.0923 4.44697 15.0928H5.92864C6.00231 15.0928 6.07296 15.0635 6.12506 15.0114C6.17715 14.9593 6.20641 14.8887 6.20641 14.815C6.20641 14.7413 6.17715 14.6707 6.12506 14.6186C6.07296 14.5665 6.00231 14.5372 5.92864 14.5372H5.11346L8.33589 11.32C8.38815 11.2658 8.41733 11.1934 8.41726 11.1182C8.41723 11.0818 8.41001 11.0458 8.39601 11.0123C8.382 10.9788 8.3615 10.9483 8.33567 10.9228C8.30985 10.8972 8.27922 10.877 8.24555 10.8633C8.21187 10.8496 8.17583 10.8428 8.13949 10.8431Z" fill="#171723"/>
<path d="M15.0926 4.44446C15.0913 4.39517 15.0766 4.34716 15.0501 4.30561C15.0451 4.29723 15.0397 4.28915 15.0338 4.2814C15.0089 4.24638 14.9761 4.21773 14.938 4.1978C14.9 4.17786 14.8578 4.1672 14.8148 4.16669H13.3239C13.2502 4.16669 13.1796 4.19595 13.1275 4.24805C13.0754 4.30014 13.0461 4.37079 13.0461 4.44446C13.0461 4.51814 13.0754 4.58879 13.1275 4.64088C13.1796 4.69298 13.2502 4.72224 13.3239 4.72224H14.1452L10.9232 7.94381C10.897 7.96951 10.8761 8.00015 10.8618 8.03396C10.8475 8.06777 10.84 8.10407 10.8398 8.14079C10.8397 8.1775 10.8468 8.21388 10.8607 8.24783C10.8747 8.28178 10.8952 8.31263 10.9212 8.33859C10.9472 8.36455 10.978 8.3851 11.012 8.39906C11.0459 8.41303 11.0823 8.42012 11.119 8.41993C11.1557 8.41975 11.192 8.41229 11.2258 8.39798C11.2596 8.38368 11.2903 8.36281 11.316 8.33659L14.537 5.11611V5.93373C14.537 6.0074 14.5663 6.07805 14.6184 6.13014C14.6704 6.18224 14.7411 6.2115 14.8148 6.2115C14.8884 6.2115 14.9591 6.18224 15.0112 6.13014C15.0633 6.07805 15.0926 6.0074 15.0926 5.93373V4.44555L15.0926 4.44446Z" fill="#171723"/>
</g>
<defs>
<clipPath id="clip0_10327_130445">
<rect width="20" height="20" fill="white"/>
</clipPath>
</defs>
</svg>
