<svg width="20" height="20" viewBox="0 0 20 20" fill="none" xmlns="http://www.w3.org/2000/svg">
<g clip-path="url(#clip0_6397_68706)">
<g clip-path="url(#clip1_6397_68706)">
<path d="M15.9324 0.000488281H4.06812C2.98967 0.00164037 1.95572 0.430563 1.19314 1.19314C0.430563 1.95572 0.00164037 2.98967 0.000488281 4.06812V15.9319C0.00156514 17.0103 0.430463 18.0443 1.19306 18.8069C1.95565 19.5695 2.98964 19.9984 4.06812 19.9995H15.9324C17.0108 19.9984 18.0448 19.5695 18.8074 18.8069C19.57 18.0443 19.9989 17.0103 20 15.9319V4.06812C19.9988 2.98966 19.5699 1.95571 18.8073 1.19313C18.0448 0.430555 17.0108 0.00163499 15.9324 0.000488281V0.000488281ZM18.9831 15.9319C18.9822 16.7407 18.6605 17.5161 18.0886 18.0881C17.5166 18.66 16.7412 18.9817 15.9324 18.9826H4.06812C3.25928 18.9817 2.48383 18.66 1.91191 18.0881C1.33998 17.5161 1.01828 16.7407 1.0174 15.9319V4.06812C1.01828 3.25928 1.33998 2.48384 1.91191 1.91191C2.48383 1.33998 3.25928 1.01828 4.06812 1.0174H15.9324C16.7412 1.01828 17.5166 1.33998 18.0886 1.91191C18.6605 2.48384 18.9822 3.25928 18.9831 4.06812L18.9831 15.9319Z" fill="#171723"/>
<path d="M15.1307 3.51545C15.1013 3.44679 15.0571 3.38544 15.0014 3.33576C14.9456 3.28607 14.8796 3.24927 14.808 3.22795C14.661 3.18626 13.8824 3.03082 12.3382 4.013C11.083 3.7111 9.77406 3.7111 8.51884 4.013C6.9756 3.03084 6.19902 3.18626 6.05006 3.22795C5.97874 3.24942 5.91298 3.28624 5.8574 3.33582C5.80181 3.3854 5.75775 3.44654 5.7283 3.51495C5.42354 4.22096 5.3682 5.00968 5.5714 5.75132C5.05292 6.39691 4.7727 7.20143 4.77793 8.02943C4.77793 11.095 6.50688 12.0524 8.11565 12.4024C8.09678 12.4456 8.07891 12.4898 8.06302 12.535C7.94807 12.844 7.89935 13.1737 7.92002 13.5028V13.6047C7.31231 13.7766 6.66212 13.7129 6.09933 13.4264C5.53654 13.1398 5.1026 12.6514 4.88419 12.0588C4.82368 11.9385 4.71793 11.8471 4.59013 11.8047C4.46233 11.7623 4.32293 11.7723 4.20248 11.8325C4.08204 11.8927 3.99041 11.9982 3.94767 12.1259C3.90494 12.2536 3.9146 12.3931 3.97453 12.5136C4.2406 13.1569 4.68929 13.7082 5.26516 14.0993C5.84104 14.4904 6.51888 14.7042 7.21494 14.7143C7.45142 14.7128 7.68733 14.6908 7.92002 14.6486V15.617C7.92048 15.9329 8.0462 16.2356 8.26962 16.4588C8.49303 16.6821 8.79588 16.8075 9.1117 16.8077H11.7463C12.062 16.8073 12.3646 16.6818 12.5878 16.4586C12.811 16.2353 12.9366 15.9327 12.937 15.617L12.936 13.5415C12.9623 13.1975 12.9156 12.8518 12.799 12.5271C12.7821 12.4819 12.7652 12.4372 12.7463 12.3931C14.3551 12.0599 16.0791 11.112 16.0791 8.01211C16.0805 7.1902 15.8005 6.39257 15.2856 5.75188C15.4889 5.01039 15.4343 4.22183 15.1307 3.51545ZM11.8347 11.5062C11.7401 11.5168 11.6504 11.5537 11.5758 11.6128C11.5012 11.6718 11.4446 11.7506 11.4125 11.8402C11.3805 11.9298 11.3742 12.0266 11.3944 12.1196C11.4146 12.2126 11.4605 12.298 11.5269 12.3662C11.6661 12.5105 11.7734 12.6826 11.8417 12.8712C11.9122 13.0738 11.939 13.2891 11.9201 13.5028V15.617C11.9201 15.6631 11.9017 15.7073 11.8692 15.7399C11.8366 15.7724 11.7924 15.7908 11.7463 15.7908H9.1117C9.06552 15.7908 9.02123 15.7725 8.98848 15.74C8.95573 15.7074 8.9372 15.6632 8.93693 15.617L8.93591 13.467C8.92211 13.2687 8.95017 13.0696 9.01826 12.8828C9.08635 12.696 9.19295 12.5256 9.33115 12.3826C9.39693 12.3147 9.44247 12.2298 9.46265 12.1374C9.48283 12.0451 9.47685 11.9489 9.44538 11.8598C9.41391 11.7707 9.3582 11.6921 9.28452 11.6328C9.21083 11.5736 9.12209 11.5361 9.02827 11.5246C7.34898 11.3155 5.79482 10.748 5.79482 8.02698C5.7902 7.35444 6.04733 6.70648 6.51184 6.22012C6.57748 6.15098 6.62242 6.06483 6.64155 5.97144C6.66069 5.87805 6.65325 5.78117 6.62009 5.69179C6.4444 5.22375 6.42076 4.71223 6.55256 4.22999C7.12817 4.37309 7.66962 4.62913 8.14545 4.98324C8.20578 5.02396 8.27419 5.05117 8.34601 5.06299C8.41782 5.07482 8.49135 5.07099 8.56155 5.05176C9.78423 4.72106 11.0728 4.72106 12.2955 5.05176C12.3657 5.07107 12.4392 5.07499 12.511 5.06325C12.5828 5.0515 12.6512 5.02438 12.7116 4.98373C13.1881 4.62995 13.7292 4.37286 14.3045 4.22698C14.4373 4.70996 14.4137 5.22262 14.237 5.69132C14.2038 5.78077 14.1963 5.87773 14.2154 5.9712C14.2346 6.06467 14.2795 6.1509 14.3452 6.22012C14.8066 6.70246 15.0636 7.34461 15.0622 8.01211C15.0622 10.7669 13.511 11.3195 11.8347 11.5062V11.5062Z" fill="#171723"/>
</g>
</g>
<defs>
<clipPath id="clip0_6397_68706">
<rect width="20" height="20" fill="white"/>
</clipPath>
<clipPath id="clip1_6397_68706">
<rect width="20" height="20" fill="white"/>
</clipPath>
</defs>
</svg>
