<svg width="20" height="20" viewBox="0 0 20 20" fill="none" xmlns="http://www.w3.org/2000/svg">
<g clip-path="url(#clip0_5313_35066)">
<path d="M19.571 9.06671C18.0351 7.17397 14.7006 4.00016 9.62423 4.00016C8.88204 3.99613 8.14155 4.06854 7.41568 4.21613C7.34804 4.23005 7.28395 4.25654 7.22705 4.29407C7.17015 4.3316 7.12156 4.37944 7.08407 4.43487C7.00834 4.54681 6.98237 4.68283 7.01188 4.81301C7.04139 4.94319 7.12395 5.05687 7.2414 5.12904C7.35886 5.20121 7.50159 5.22596 7.63819 5.19784C8.29104 5.06597 8.95689 5.00146 9.62423 5.00543C14.2505 5.00543 17.3192 7.93484 18.7345 9.67933C18.8706 9.84641 18.9448 10.0517 18.9455 10.2632C18.9463 10.4747 18.8735 10.6805 18.7386 10.8485C18.0594 11.6827 17.2817 12.4396 16.4209 13.1044C16.3116 13.1878 16.2415 13.309 16.2261 13.4416C16.2106 13.5741 16.2511 13.7071 16.3385 13.8113C16.4259 13.9154 16.5532 13.9822 16.6923 13.9969C16.8314 14.0117 16.9709 13.9731 17.0802 13.8898C18.0046 13.176 18.84 12.3634 19.5699 11.4679C19.8486 11.1241 19.9998 10.7019 20 10.2675C20.0002 9.83304 19.8493 9.41077 19.571 9.06671V9.06671Z" fill="#171723"/>
<path d="M12.9392 9.52839C12.954 9.65803 13.016 9.77771 13.1132 9.86466C13.2105 9.95161 13.3364 9.99978 13.4669 10C13.4873 10 13.5078 9.99896 13.5281 9.99688C13.6683 9.98087 13.7964 9.90983 13.8843 9.79938C13.9721 9.68893 14.0125 9.54812 13.9966 9.40789C13.898 8.53942 13.5079 7.73001 12.8901 7.11177C12.2723 6.49353 11.4632 6.10295 10.5948 6.00379C10.5255 5.99547 10.4553 6.00088 10.3881 6.01971C10.3209 6.03854 10.258 6.07043 10.2031 6.11354C10.1483 6.15666 10.1024 6.21017 10.0682 6.27101C10.034 6.33185 10.0121 6.39883 10.0038 6.46813C9.99547 6.53742 10.0009 6.60768 10.0197 6.67489C10.0385 6.7421 10.0704 6.80494 10.1135 6.85982C10.1567 6.91471 10.2102 6.96057 10.271 6.99477C10.3318 7.02898 10.3988 7.05087 10.4681 7.05919C11.0984 7.13083 11.6859 7.41395 12.1347 7.86238C12.5834 8.31081 12.867 8.89807 12.9392 9.52839V9.52839Z" fill="#171723"/>
<path d="M12.6217 11.9261L12.6198 11.9233L12.6168 11.9212L8.04681 7.37057L8.04478 7.36761L8.04181 7.36559L3.8026 3.1443C3.70719 3.05119 3.57872 2.99933 3.44513 3.00001C3.31153 3.00068 3.1836 3.05382 3.08913 3.14789C2.99466 3.24196 2.94129 3.36935 2.94062 3.50238C2.93995 3.63541 2.99202 3.76333 3.08553 3.85835L4.45297 5.22004C2.88801 6.14173 1.5158 7.35469 0.411183 8.79276C0.144568 9.1377 0 9.56076 0 9.99604C0 10.4313 0.144568 10.8544 0.411183 11.1993C1.58688 12.733 4.87131 16.3014 9.96732 16.3014C11.5503 16.2979 13.1128 15.9444 14.5419 15.2663L16.138 16.8557C16.2334 16.9488 16.3619 17.0007 16.4955 17C16.6291 16.9993 16.757 16.9462 16.8515 16.8521C16.9459 16.758 16.9993 16.6307 17 16.4976C17.0007 16.3646 16.9486 16.2367 16.8551 16.1417L12.6217 11.9261ZM7.7205 8.4738L11.5027 12.24C11.0928 12.5169 10.615 12.6774 10.1205 12.7043C9.626 12.7313 9.13344 12.6237 8.69568 12.393C8.25792 12.1624 7.89147 11.8174 7.63564 11.3952C7.37982 10.9729 7.24427 10.4892 7.24353 9.99607C7.24352 9.45218 7.40989 8.92118 7.7205 8.4738V8.4738ZM9.96734 15.2915C5.32398 15.2915 2.30104 12.0012 1.21448 10.5819C1.08439 10.413 1.01413 10.206 1.01467 9.99312C1.01521 9.78027 1.08651 9.57358 1.21745 9.40532C2.29514 7.99962 3.65012 6.82821 5.19912 5.96307L7.00352 7.75979C6.50494 8.39984 6.23275 9.18601 6.22928 9.99602C6.22715 10.6892 6.42002 11.3691 6.78604 11.9587C7.15206 12.5483 7.6766 13.024 8.30022 13.3319C8.92384 13.6399 9.62161 13.7678 10.3145 13.7011C11.0073 13.6344 11.6676 13.3758 12.2205 12.9547L13.7738 14.5014C12.5719 15.019 11.2768 15.2878 9.96734 15.2915V15.2915Z" fill="#171723"/>
</g>
<defs>
<clipPath id="clip0_5313_35066">
<rect width="20" height="20" fill="white"/>
</clipPath>
</defs>
</svg>
