<svg width="20" height="20" viewBox="0 0 20 20" fill="none" xmlns="http://www.w3.org/2000/svg">
<g clip-path="url(#clip0_5313_35171)">
<g clip-path="url(#clip1_5313_35171)">
<path d="M19.8548 9.64027L18.4868 8.27004L18.46 8.24321L10.3727 0.14307C10.2756 0.0511908 10.1471 0 10.0135 0C9.87999 0 9.7515 0.0511908 9.65443 0.14307L1.50986 8.30134L1.49913 8.31209L0.152402 9.66114C0.104458 9.7082 0.0663044 9.76431 0.0401464 9.82623C0.0139884 9.88815 0.000345515 9.95465 6.47829e-06 10.0219C-0.000332558 10.0891 0.012639 10.1558 0.0381712 10.2179C0.0637034 10.2801 0.10129 10.3366 0.148757 10.3842C0.196223 10.4317 0.252629 10.4693 0.314713 10.4949C0.376796 10.5205 0.443325 10.5335 0.510452 10.5331C0.57758 10.5328 0.643974 10.5191 0.705796 10.4929C0.767618 10.4667 0.823641 10.4285 0.870626 10.3805L1.35475 9.89555V16.4388C1.35736 17.3844 1.73429 18.2903 2.40288 18.9579C3.07148 19.6255 3.97714 20.0003 4.92123 20H15.0592C16.0032 20.0003 16.9088 19.6255 17.5772 18.9578C18.2456 18.2902 18.6223 17.3843 18.6247 16.4388V9.84696L19.1366 10.3597C19.2322 10.4535 19.3609 10.5057 19.4947 10.505C19.6285 10.5044 19.7566 10.4508 19.8512 10.3561C19.9459 10.2613 19.9993 10.1329 20 9.99892C20.0007 9.8649 19.9485 9.73603 19.8549 9.6403L19.8548 9.64027ZM7.79131 18.9825V14.0699C7.79131 13.4851 8.02324 12.9243 8.43608 12.5108C8.84893 12.0973 9.40886 11.865 9.99271 11.865C10.5766 11.865 11.1365 12.0973 11.5493 12.5108C11.9622 12.9243 12.1941 13.4851 12.1941 14.0699V18.9825H7.79131ZM17.6088 16.4388C17.6068 17.1145 17.3372 17.7619 16.8592 18.2387C16.3812 18.7156 15.7338 18.9831 15.0592 18.9825H13.21V14.0699C13.21 13.2153 12.871 12.3957 12.2676 11.7914C11.6643 11.187 10.846 10.8475 9.99269 10.8475C9.13942 10.8475 8.32109 11.187 7.71773 11.7914C7.11438 12.3957 6.77541 13.2153 6.77541 14.0699V18.9825H4.92126C4.24644 18.9833 3.59887 18.7159 3.12067 18.239C2.64248 17.7621 2.37274 17.1147 2.37066 16.4388V8.87797L10.0135 1.22216L17.6088 8.82947V16.4388Z" fill="#171723"/>
</g>
</g>
<defs>
<clipPath id="clip0_5313_35171">
<rect width="20" height="20" fill="white"/>
</clipPath>
<clipPath id="clip1_5313_35171">
<rect width="20" height="20" fill="white"/>
</clipPath>
</defs>
</svg>
