<svg width="20" height="20" viewBox="0 0 20 20" fill="none" xmlns="http://www.w3.org/2000/svg">
<g clip-path="url(#clip0_5313_35171)">
<path d="M18.0816 9.70775L16.9593 8.58552L16.9374 8.56354L10.3032 1.92943C10.2236 1.85418 10.1182 1.81226 10.0087 1.81226C9.89909 1.81226 9.79369 1.85418 9.71407 1.92943L3.03298 8.61115L3.02418 8.61995L1.91945 9.72484C1.88012 9.76338 1.84882 9.80934 1.82737 9.86005C1.80591 9.91077 1.79472 9.96523 1.79444 10.0203C1.79416 10.0754 1.8048 10.1299 1.82575 10.1809C1.84669 10.2318 1.87752 10.2781 1.91646 10.317C1.9554 10.3559 2.00167 10.3868 2.0526 10.4077C2.10352 10.4287 2.1581 10.4393 2.21316 10.439C2.26823 10.4387 2.32269 10.4275 2.37341 10.4061C2.42412 10.3846 2.47008 10.3533 2.50862 10.314L2.90575 9.91682V15.2758C2.90789 16.0503 3.21709 16.7922 3.76554 17.339C4.314 17.8858 5.05692 18.1927 5.83137 18.1925H14.1477C14.922 18.1927 15.6649 17.8857 16.2132 17.3389C16.7615 16.7921 17.0705 16.0502 17.0725 15.2758V9.87702L17.4924 10.2969C17.5708 10.3738 17.6764 10.4166 17.7861 10.416C17.8959 10.4154 18.001 10.3716 18.0786 10.294C18.1562 10.2164 18.2001 10.1113 18.2006 10.0015C18.2012 9.89172 18.1584 9.78617 18.0816 9.70777L18.0816 9.70775ZM8.18573 17.3591V13.3357C8.18573 12.8567 8.37598 12.3974 8.71464 12.0588C9.0533 11.7201 9.51262 11.5298 9.99156 11.5298C10.4705 11.5298 10.9298 11.7201 11.2685 12.0588C11.6071 12.3974 11.7974 12.8567 11.7974 13.3357V17.3591H8.18573ZM16.2391 15.2758C16.2374 15.8292 16.0163 16.3594 15.6242 16.75C15.2321 17.1406 14.7011 17.3596 14.1476 17.3591H12.6307V13.3357C12.6307 12.6357 12.3527 11.9644 11.8577 11.4695C11.3628 10.9746 10.6915 10.6965 9.99154 10.6965C9.29159 10.6965 8.62031 10.9746 8.12537 11.4695C7.63043 11.9644 7.35238 12.6357 7.35238 13.3357V17.3591H5.83139C5.27783 17.3598 4.74662 17.1408 4.35436 16.7502C3.96209 16.3596 3.74082 15.8294 3.73911 15.2758V9.08342L10.0086 2.81322L16.2391 9.04369V15.2758Z" fill="#171723"/>
</g>
<defs>
<clipPath id="clip0_5313_35171">
<rect width="20" height="20" fill="white"/>
</clipPath>
</defs>
</svg>
