<svg width="20" height="20" viewBox="0 0 20 20" fill="none" xmlns="http://www.w3.org/2000/svg">
<path d="M19.9426 12.387C19.832 11.8179 19.5602 11.2931 19.1598 10.8755C18.7594 10.4579 18.2475 10.1653 17.6856 10.0329C17.4445 9.9859 17.2002 9.95756 16.9548 9.94812C16.9498 9.44523 16.8324 8.94989 16.6112 8.49871C16.2304 7.82964 15.6263 7.31738 14.9058 7.05251C14.1854 6.78764 13.3948 6.78723 12.6741 7.05134C12.2963 6.14261 11.6581 5.36726 10.8405 4.82393C10.0228 4.2806 9.06284 3.99383 8.08253 4.0001L7.9187 4.00408C6.7562 4.07555 5.65642 4.55807 4.81419 5.36615C3.97196 6.17423 3.44166 7.25571 3.31725 8.41898C2.38944 8.53355 1.53686 8.98956 0.92429 9.69888C0.311719 10.4082 -0.0173433 11.3204 0.000704942 12.2593C0.0325946 13.268 0.45616 14.2242 1.1808 14.9232C1.90544 15.6222 2.87362 16.0087 3.87825 15.9999H16.9846C17.43 16.0004 17.87 15.9017 18.2728 15.7109C18.6757 15.5201 19.0314 15.2419 19.3144 14.8963C19.5973 14.5507 19.8004 14.1464 19.909 13.7125C20.0177 13.2786 20.0292 12.8259 19.9426 12.3869V12.387Z" fill="#171723"/>
</svg>
