<svg width="20" height="20" viewBox="0 0 20 20" fill="none" xmlns="http://www.w3.org/2000/svg">
<g clip-path="url(#clip0_10317_146887)">
<g clip-path="url(#clip1_10317_146887)">
<path d="M5.232 14.9563C4.39557 14.9563 3.60352 14.6388 2.99799 14.0599C2.38392 13.4728 2.02973 12.6819 2.00068 11.8329C1.99195 11.3994 2.06757 10.9824 2.22529 10.5862C2.38288 10.1901 2.61451 9.83516 2.91358 9.53124C3.21284 9.22728 3.56403 8.99007 3.95759 8.82616C4.20454 8.72335 4.46009 8.65267 4.72157 8.6147C4.82783 7.74001 5.21058 6.92317 5.82417 6.2773C6.54517 5.51833 7.51771 5.06587 8.56263 5.00322L8.70612 5.00014C9.62024 4.99257 10.512 5.29189 11.2325 5.83962C11.7899 6.26345 12.2313 6.8279 12.5117 7.46633C12.7914 7.36211 13.0893 7.30956 13.3933 7.30996C13.7736 7.29836 14.1773 7.37988 14.5399 7.54562C14.9025 7.71139 15.2272 7.96228 15.479 8.27121C15.7307 8.5799 15.911 8.94852 16.0004 9.33713C16.0392 9.50626 16.0609 9.67957 16.0654 9.85333C16.3764 9.86014 16.6818 9.92367 16.9725 10.0425C17.285 10.1703 17.5649 10.3557 17.8046 10.5935C18.0441 10.8314 18.2316 11.11 18.3616 11.4215C18.4916 11.7327 18.5579 12.0619 18.5585 12.3997C18.5591 12.7373 18.4941 13.0667 18.3653 13.3786C18.2364 13.6905 18.0501 13.9697 17.8115 14.2086C17.5724 14.4475 17.2932 14.6339 16.9814 14.7627C16.6694 14.8918 16.3397 14.9612 16.0024 14.9562H5.26453C5.25367 14.9563 5.2428 14.9563 5.232 14.9563V14.9563ZM5.18122 9.58169C4.89143 9.58169 4.6092 9.63809 4.34205 9.74932C4.07227 9.86169 3.83143 10.0243 3.62629 10.2327C3.42121 10.4411 3.26246 10.6844 3.15443 10.956C3.04628 11.2276 2.99446 11.5136 3.00026 11.8058C3.02016 12.3852 3.26485 12.9315 3.68904 13.3371C4.11317 13.7426 4.67055 13.9617 5.25679 13.9562C5.25856 13.9562 5.26039 13.9562 5.26216 13.9562H16.0034C16.1951 13.9582 16.4097 13.917 16.5995 13.8385C16.7891 13.7602 16.9589 13.6468 17.1042 13.5015C17.2493 13.3564 17.3627 13.1865 17.441 12.9969C17.5193 12.8072 17.5589 12.6068 17.5585 12.4015C17.5582 12.1962 17.5179 11.996 17.4388 11.8068C17.3597 11.6172 17.2457 11.4478 17.1 11.3032C16.9543 11.1585 16.7841 11.0458 16.5941 10.9682C16.404 10.8904 16.2033 10.8508 15.9984 10.8527C15.8708 10.8529 15.7454 10.8674 15.6234 10.8958C15.4547 10.9349 15.278 10.8844 15.1558 10.7618C15.0336 10.6392 14.9835 10.4622 15.0234 10.2938C15.08 10.0542 15.0808 9.80085 15.0257 9.56107C14.9706 9.3212 14.8593 9.0936 14.7039 8.90302C14.5484 8.71229 14.3479 8.55741 14.1241 8.45508C13.9003 8.35275 13.6524 8.30216 13.4061 8.30972C13.073 8.307 12.7761 8.40329 12.5203 8.58322C12.3868 8.67706 12.2161 8.69989 12.0626 8.64438C11.9091 8.58887 11.7925 8.46201 11.7499 8.30451C11.5714 7.64307 11.1727 7.05039 10.6273 6.63563C10.0818 6.22096 9.40686 5.99571 8.71893 6.00004L8.6018 6.00224C7.83135 6.04887 7.09503 6.39143 6.54913 6.96605C6.00335 7.5406 5.69897 8.2935 5.6922 9.08601C5.68976 9.36125 5.4209 9.57234 5.19019 9.58171C5.1872 9.58171 5.18421 9.58168 5.18122 9.58168V9.58169Z" fill="#171723"/>
</g>
</g>
<defs>
<clipPath id="clip0_10317_146887">
<rect width="20" height="20" fill="white"/>
</clipPath>
<clipPath id="clip1_10317_146887">
<rect width="16.5585" height="9.95642" fill="white" transform="translate(2 5)"/>
</clipPath>
</defs>
</svg>
