<svg width="20" height="20" viewBox="0 0 20 20" fill="none" xmlns="http://www.w3.org/2000/svg">
<g clip-path="url(#clip0_10314_144689)">
<path d="M14.4544 8.19466H5.54899C5.43848 8.19466 5.3325 8.15076 5.25436 8.07262C5.17622 7.99448 5.13232 7.8885 5.13232 7.77799C5.13232 7.66749 5.17622 7.56151 5.25436 7.48337C5.3325 7.40523 5.43848 7.36133 5.54899 7.36133H14.4544C14.5649 7.36133 14.6709 7.40523 14.7491 7.48337C14.8272 7.56151 14.8711 7.66749 14.8711 7.77799C14.8711 7.8885 14.8272 7.99448 14.7491 8.07262C14.6709 8.15076 14.5649 8.19466 14.4544 8.19466Z" fill="#171723"/>
<path d="M14.4544 5.97213H5.54899C5.43848 5.97213 5.3325 5.92823 5.25436 5.85009C5.17622 5.77195 5.13232 5.66597 5.13232 5.55546C5.13232 5.44495 5.17622 5.33897 5.25436 5.26083C5.3325 5.18269 5.43848 5.13879 5.54899 5.13879H14.4544C14.5649 5.13879 14.6709 5.18269 14.7491 5.26083C14.8272 5.33897 14.8711 5.44495 14.8711 5.55546C14.8711 5.66597 14.8272 5.77195 14.7491 5.85009C14.6709 5.92823 14.5649 5.97213 14.4544 5.97213Z" fill="#171723"/>
<path d="M14.4544 10.4163H5.54899C5.43848 10.4163 5.3325 10.3724 5.25436 10.2943C5.17622 10.2162 5.13232 10.1102 5.13232 9.99967C5.13232 9.88917 5.17622 9.78319 5.25436 9.70505C5.3325 9.62691 5.43848 9.58301 5.54899 9.58301H14.4544C14.5649 9.58301 14.6709 9.62691 14.7491 9.70505C14.8272 9.78319 14.8711 9.88917 14.8711 9.99967C14.8711 10.1102 14.8272 10.2162 14.7491 10.2943C14.6709 10.3724 14.5649 10.4163 14.4544 10.4163Z" fill="#171723"/>
<path d="M14.4544 12.6136H5.54899C5.43848 12.6136 5.3325 12.5697 5.25436 12.4916C5.17622 12.4134 5.13232 12.3074 5.13232 12.1969C5.13232 12.0864 5.17622 11.9805 5.25436 11.9023C5.3325 11.8242 5.43848 11.7803 5.54899 11.7803H14.4544C14.5649 11.7803 14.6709 11.8242 14.7491 11.9023C14.8272 11.9805 14.8711 12.0864 14.8711 12.1969C14.8711 12.3074 14.8272 12.4134 14.7491 12.4916C14.6709 12.5697 14.5649 12.6136 14.4544 12.6136Z" fill="#171723"/>
<path d="M14.4266 18.1963H5.5765C4.92704 18.1956 4.30437 17.9373 3.84514 17.4781C3.3859 17.0189 3.12761 16.3962 3.12695 15.7467V4.25508C3.12757 3.60553 3.38582 2.98275 3.84504 2.52337C4.30426 2.06399 4.92695 1.80553 5.5765 1.80469H14.4266C15.0762 1.80549 15.699 2.06392 16.1584 2.52327C16.6177 2.98263 16.8761 3.60542 16.877 4.25505V15.7467C16.8761 16.3963 16.6177 17.019 16.1583 17.4782C15.6989 17.9374 15.0761 18.1957 14.4266 18.1963ZM5.5765 2.63802C5.14789 2.63858 4.737 2.80915 4.434 3.1123C4.131 3.41546 3.96063 3.82643 3.96029 4.25505V15.7467C3.9608 16.1752 4.13124 16.586 4.43423 16.889C4.73722 17.192 5.14801 17.3624 5.5765 17.3629H14.4266C14.8552 17.3626 15.2662 17.1922 15.5693 16.8892C15.8725 16.5862 16.0431 16.1753 16.0436 15.7467V4.25505C16.0432 3.8263 15.8727 3.41523 15.5696 3.11206C15.2664 2.80889 14.8553 2.6384 14.4266 2.63802H5.5765Z" fill="#171723"/>
</g>
<defs>
<clipPath id="clip0_10314_144689">
<rect width="20" height="20" fill="white"/>
</clipPath>
</defs>
</svg>
