<svg width="20" height="20" viewBox="0 0 20 20" fill="none" xmlns="http://www.w3.org/2000/svg">
<g clip-path="url(#clip0_10814_130663)">
<g clip-path="url(#clip1_10814_130663)">
<path d="M10 0C4.48235 0 0 4.49406 0 10C0 15.5176 4.48235 20 10 20C15.5059 20 20 15.5176 20 10C20 4.49406 15.5059 0 10 0ZM12.2742 15.2268C11.7223 15.4849 9.80785 16.331 8.74131 15.3846C7.67477 14.4383 8.52969 12.7339 9.09954 10.6738C9.66932 8.61378 7.48398 9.41765 7.48398 9.41765L7.64418 8.75789C10.3149 7.70199 10.766 8.15113 11.1594 8.59138C11.7049 9.20166 11.6707 10.051 11.5506 10.5308C11.2988 11.5374 10.2619 14.0874 10.875 14.626C11.4882 15.1647 12.4359 14.5679 12.4359 14.5679L12.2742 15.2268ZM11.1457 6.9188C10.3888 6.9188 9.77532 6.30529 9.77532 5.54846C9.77532 4.79162 10.3888 4.17812 11.1457 4.17812C11.9025 4.17812 12.516 4.79162 12.516 5.54846C12.516 6.30529 11.9025 6.9188 11.1457 6.9188Z" fill="#171723"/>
</g>
</g>
<defs>
<clipPath id="clip0_10814_130663">
<rect width="20" height="20" fill="white"/>
</clipPath>
<clipPath id="clip1_10814_130663">
<rect width="20" height="20" fill="white"/>
</clipPath>
</defs>
</svg>
