<svg width="20" height="20" viewBox="0 0 20 20" fill="none" xmlns="http://www.w3.org/2000/svg">
<g clip-path="url(#clip0_5313_35052)">
<g clip-path="url(#clip1_5313_35052)">
<path d="M10 20C8.02219 20 6.08879 19.4135 4.4443 18.3147C2.79981 17.2159 1.51809 15.6541 0.761209 13.8268C0.00433305 11.9996 -0.193701 9.98891 0.192152 8.0491C0.578004 6.10929 1.53041 4.32746 2.92894 2.92894C4.32746 1.53041 6.10929 0.578004 8.0491 0.192152C9.98891 -0.193701 11.9996 0.00433305 13.8268 0.761209C15.6541 1.51809 17.2159 2.79981 18.3147 4.4443C19.4135 6.08879 20 8.02219 20 10C19.9968 12.6512 18.9423 15.1929 17.0676 17.0676C15.1929 18.9423 12.6512 19.9968 10 20ZM10 1.17647C8.25487 1.17647 6.54893 1.69397 5.09791 2.66351C3.64689 3.63305 2.51596 5.0111 1.84813 6.62338C1.18029 8.23567 1.00556 10.0098 1.34602 11.7214C1.68647 13.433 2.52683 15.0052 3.76083 16.2392C4.99482 17.4732 6.56702 18.3135 8.27862 18.654C9.99021 18.9944 11.7643 18.8197 13.3766 18.1519C14.9889 17.484 16.367 16.3531 17.3365 14.9021C18.306 13.4511 18.8235 11.7451 18.8235 10C18.821 7.66064 17.8905 5.41783 16.2364 3.76365C14.5822 2.10947 12.3394 1.17903 10 1.17647V1.17647Z" fill="#171723"/>
<path d="M10 8C10.5523 8 11 7.55228 11 7C11 6.44772 10.5523 6 10 6C9.44772 6 9 6.44772 9 7C9 7.55228 9.44772 8 10 8Z" fill="#171723"/>
<path d="M10 15C9.86867 15 9.73862 14.9742 9.61728 14.9239C9.49594 14.8736 9.38569 14.7999 9.29283 14.707C9.19997 14.614 9.12631 14.5037 9.07606 14.3823C9.02582 14.2608 8.99997 14.1307 9 13.9993V10.0007C9 9.73533 9.10536 9.48079 9.29289 9.29311C9.48043 9.10544 9.73478 9 10 9C10.2652 9 10.5196 9.10544 10.7071 9.29311C10.8946 9.48079 11 9.73533 11 10.0007V13.9993C11 14.1307 10.9742 14.2608 10.9239 14.3823C10.8737 14.5037 10.8 14.614 10.7072 14.707C10.6143 14.7999 10.5041 14.8736 10.3827 14.9239C10.2614 14.9742 10.1313 15 10 15V15Z" fill="#171723"/>
</g>
</g>
<defs>
<clipPath id="clip0_5313_35052">
<rect width="20" height="20" fill="white"/>
</clipPath>
<clipPath id="clip1_5313_35052">
<rect width="20" height="20" fill="white"/>
</clipPath>
</defs>
</svg>
