<svg width="20" height="20" viewBox="0 0 20 20" fill="none" xmlns="http://www.w3.org/2000/svg">
<g clip-path="url(#clip0_5313_35052)">
<path d="M9.99984 17.0831C8.59889 17.0831 7.2294 16.6676 6.06455 15.8893C4.8997 15.111 3.99181 14.0047 3.45569 12.7104C2.91957 11.4161 2.7793 9.99186 3.05261 8.61783C3.32592 7.2438 4.00055 5.98167 4.99117 4.99105C5.98179 4.00042 7.24392 3.3258 8.61795 3.05249C9.99198 2.77918 11.4162 2.91945 12.7105 3.45557C14.0048 3.99169 15.1111 4.89958 15.8894 6.06443C16.6677 7.22928 17.0832 8.59877 17.0832 9.99972C17.0809 11.8776 16.3339 13.678 15.006 15.0059C13.6781 16.3338 11.8778 17.0808 9.99984 17.0831ZM9.99984 3.74972C8.76371 3.74972 7.55533 4.11627 6.52753 4.80303C5.49972 5.48979 4.69864 6.46591 4.22559 7.60795C3.75255 8.74999 3.62877 10.0067 3.86993 11.219C4.11109 12.4314 4.70634 13.5451 5.58042 14.4191C6.4545 15.2932 7.56814 15.8885 8.78053 16.1296C9.99291 16.3708 11.2496 16.247 12.3916 15.774C13.5336 15.3009 14.5098 14.4998 15.1965 13.472C15.8833 12.4442 16.2498 11.2359 16.2498 9.99972C16.248 8.34267 15.589 6.75401 14.4173 5.5823C13.2455 4.41059 11.6569 3.75153 9.99984 3.74972Z" fill="#171723"/>
<path d="M9.99984 8.25456C10.4601 8.25456 10.8332 7.88146 10.8332 7.42122C10.8332 6.96099 10.4601 6.58789 9.99984 6.58789C9.5396 6.58789 9.1665 6.96099 9.1665 7.42122C9.1665 7.88146 9.5396 8.25456 9.99984 8.25456Z" fill="#171723"/>
<path d="M10.0002 13.4852C9.9044 13.4852 9.80957 13.4663 9.7211 13.4297C9.63262 13.3931 9.55223 13.3393 9.48452 13.2716C9.4168 13.2039 9.3631 13.1235 9.32646 13.0351C9.28982 12.9466 9.27098 12.8517 9.271 12.756V9.84257C9.271 9.64918 9.34782 9.46372 9.48456 9.32697C9.62131 9.19023 9.80678 9.1134 10.0002 9.1134C10.1935 9.1134 10.379 9.19023 10.5158 9.32697C10.6525 9.46372 10.7293 9.64918 10.7293 9.84257V12.756C10.7294 12.8517 10.7105 12.9466 10.6739 13.0351C10.6372 13.1235 10.5835 13.2039 10.5158 13.2716C10.4481 13.3393 10.3677 13.3931 10.2792 13.4297C10.1908 13.4663 10.0959 13.4852 10.0002 13.4852Z" fill="#171723"/>
</g>
<defs>
<clipPath id="clip0_5313_35052">
<rect width="20" height="20" fill="white"/>
</clipPath>
</defs>
</svg>
