<svg width="20" height="20" viewBox="0 0 20 20" fill="none" xmlns="http://www.w3.org/2000/svg">
<g clip-path="url(#clip0_10277_158815)">
<path d="M10 0C8.02219 0 6.08879 0.58649 4.4443 1.6853C2.79981 2.78412 1.51809 4.3459 0.761209 6.17316C0.00433305 8.00042 -0.193701 10.0111 0.192152 11.9509C0.578004 13.8907 1.53041 15.6725 2.92894 17.0711C4.32746 18.4696 6.10929 19.422 8.0491 19.8078C9.98891 20.1937 11.9996 19.9957 13.8268 19.2388C15.6541 18.4819 17.2159 17.2002 18.3147 15.5557C19.4135 13.9112 20 11.9778 20 10C19.9962 7.34899 18.9415 4.80763 17.0669 2.93308C15.1924 1.05853 12.651 0.00375334 10 0V0ZM11.0235 13.8941C11.0235 14.1671 10.9151 14.429 10.722 14.622C10.529 14.8151 10.2671 14.9235 9.99412 14.9235C9.7211 14.9235 9.45927 14.8151 9.26622 14.622C9.07316 14.429 8.96471 14.1671 8.96471 13.8941V9.77647C8.96471 9.50345 9.07316 9.24162 9.26622 9.04856C9.45927 8.85551 9.7211 8.74706 9.99412 8.74706C10.2671 8.74706 10.529 8.85551 10.722 9.04856C10.9151 9.24162 11.0235 9.50345 11.0235 9.77647V13.8941ZM10 7.54117C9.76732 7.54117 9.53986 7.47218 9.34639 7.3429C9.15292 7.21363 9.00213 7.02989 8.91308 6.81492C8.82404 6.59995 8.80074 6.3634 8.84614 6.13519C8.89153 5.90697 9.00358 5.69735 9.16811 5.53281C9.33264 5.36828 9.54227 5.25623 9.77048 5.21084C9.9987 5.16545 10.2352 5.18874 10.4502 5.27779C10.6652 5.36683 10.8489 5.51762 10.9782 5.71109C11.1075 5.90456 11.1765 6.13202 11.1765 6.3647C11.177 6.51935 11.1469 6.67258 11.088 6.81556C11.0291 6.95853 10.9424 7.08844 10.8331 7.19779C10.7237 7.30715 10.5938 7.39378 10.4509 7.45272C10.3079 7.51165 10.1546 7.54171 10 7.54117V7.54117Z" fill="#171723"/>
</g>
<defs>
<clipPath id="clip0_10277_158815">
<rect width="20" height="20" fill="white"/>
</clipPath>
</defs>
</svg>
