<svg width="20" height="20" viewBox="0 0 20 20" fill="none" xmlns="http://www.w3.org/2000/svg">
<g clip-path="url(#clip0_10314_145348)">
<path d="M12.2374 16.4035C12.0305 16.4183 11.8229 16.3875 11.6292 16.3134C11.4485 16.2349 11.2923 16.1091 11.1771 15.9493C11.0619 15.7894 10.992 15.6015 10.9747 15.4052C10.9746 15.3792 10.9768 15.3475 10.9812 15.2841C10.9964 15.0885 11.0242 14.8941 11.0647 14.7022C11.0983 14.5268 11.1297 14.3953 11.1396 14.3542C11.1744 14.2098 11.2136 14.0665 11.2573 13.9242L12.1317 11.1037C12.2129 10.7957 12.2726 10.4825 12.3106 10.1662C12.3382 9.97745 12.3527 9.78699 12.354 9.59622C12.352 9.31859 12.2892 9.04477 12.1702 8.79396C12.0511 8.54314 11.8786 8.32142 11.6648 8.14433C11.0961 7.73949 10.4052 7.5432 9.70855 7.58857C9.20629 7.59551 8.70748 7.67267 8.22661 7.81782C7.70296 7.97065 7.15215 8.15359 6.57417 8.36664L6.32227 9.28361C6.40747 9.25583 6.50196 9.22631 6.60477 9.19504C6.71179 9.16249 6.86372 9.1166 6.93727 9.09604C7.17575 9.02417 7.42276 8.98449 7.67176 8.97803C7.89224 8.9549 8.11485 8.9924 8.31559 9.08647C8.53882 9.21977 8.70526 9.43048 8.78325 9.6785C8.85761 10.0057 8.84193 10.347 8.73788 10.666C8.68718 10.9269 8.62036 11.1844 8.5378 11.4371L7.65602 14.2713C7.58505 14.5344 7.52817 14.8011 7.48562 15.0703C7.45101 15.3002 7.43366 15.5324 7.43373 15.7649C7.43436 16.0462 7.50188 16.3233 7.63072 16.5733C7.75956 16.8234 7.94602 17.0392 8.17471 17.2029C8.75215 17.6141 9.45296 17.8151 10.1605 17.7726C10.662 17.7824 11.1619 17.7144 11.6426 17.5711C12.0625 17.4367 12.6232 17.2446 13.3247 16.9945L13.5619 16.1192C13.3709 16.1923 13.1754 16.2527 12.9764 16.2998C12.7356 16.3663 12.4872 16.4011 12.2374 16.4035Z" fill="#171723"/>
<path d="M11.6483 6.28138C12.7692 6.28138 13.6779 5.3727 13.6779 4.25178C13.6779 3.13085 12.7692 2.22217 11.6483 2.22217C10.5273 2.22217 9.61865 3.13085 9.61865 4.25178C9.61865 5.3727 10.5273 6.28138 11.6483 6.28138Z" fill="#171723"/>
</g>
<defs>
<clipPath id="clip0_10314_145348">
<rect width="20" height="20" fill="white"/>
</clipPath>
</defs>
</svg>
