<svg width="20" height="20" viewBox="0 0 20 20" fill="none" xmlns="http://www.w3.org/2000/svg">
<g clip-path="url(#clip0_10314_145348)">
<path d="M12.5364 17.5169C12.3078 17.5329 12.0784 17.4997 11.8643 17.4197C11.6646 17.335 11.492 17.1993 11.3648 17.0269C11.2375 16.8545 11.1602 16.6517 11.1411 16.44C11.141 16.4119 11.1434 16.3777 11.1483 16.3093C11.165 16.0983 11.1958 15.8886 11.2405 15.6815C11.2777 15.4922 11.3123 15.3504 11.3233 15.306C11.3617 15.1503 11.4051 14.9956 11.4534 14.8421L12.4196 11.7993C12.5093 11.467 12.5754 11.129 12.6174 10.7878C12.6479 10.5842 12.6639 10.3787 12.6652 10.1729C12.663 9.87337 12.5937 9.57795 12.4621 9.30736C12.3306 9.03677 12.14 8.79756 11.9037 8.6065C11.2752 8.16974 10.5117 7.95798 9.74196 8.00692C9.18695 8.01441 8.63575 8.09765 8.10436 8.25425C7.52571 8.41913 6.91705 8.61649 6.27837 8.84634L6 9.83563C6.09415 9.80565 6.19857 9.77381 6.31217 9.74007C6.43044 9.70496 6.59833 9.65545 6.6796 9.63326C6.94313 9.55573 7.21609 9.51292 7.49123 9.50595C7.73487 9.481 7.98087 9.52145 8.20269 9.62294C8.44937 9.76675 8.63329 9.99407 8.71947 10.2617C8.80165 10.6147 8.78432 10.9828 8.66934 11.327C8.61331 11.6085 8.53947 11.8863 8.44824 12.1589L7.47385 15.2167C7.39542 15.5005 7.33256 15.7882 7.28555 16.0786C7.2473 16.3267 7.22813 16.5772 7.22821 16.828C7.2289 17.1315 7.30351 17.4304 7.44588 17.7002C7.58825 17.9699 7.7943 18.2028 8.04701 18.3794C8.6851 18.823 9.45953 19.0399 10.2414 18.994C10.7956 19.0046 11.348 18.9312 11.8791 18.7766C12.3431 18.6317 12.9627 18.4243 13.7379 18.1546L14 17.2103C13.789 17.2891 13.5729 17.3542 13.3531 17.4051C13.087 17.4768 12.8125 17.5144 12.5364 17.5169Z" fill="#171723"/>
<path d="M11.5 6C12.8807 6 14 4.88071 14 3.5C14 2.11929 12.8807 1 11.5 1C10.1193 1 9 2.11929 9 3.5C9 4.88071 10.1193 6 11.5 6Z" fill="#171723"/>
</g>
<defs>
<clipPath id="clip0_10314_145348">
<rect width="20" height="20" fill="white"/>
</clipPath>
</defs>
</svg>
