<svg width="20" height="20" viewBox="0 0 20 20" fill="none" xmlns="http://www.w3.org/2000/svg">
<path d="M5.47343 13.8572C5.47665 14.0421 5.41248 14.2219 5.29289 14.363C5.17329 14.5041 5.00645 14.5969 4.82348 14.6241H0.884741C0.712512 14.6236 0.547476 14.555 0.425691 14.4332C0.303906 14.3114 0.235272 14.1464 0.234785 13.9741C0.229489 13.7887 0.292917 13.6078 0.412886 13.4662C0.532854 13.3246 0.700901 13.2324 0.884741 13.2072H2.15866V7.66964L1.20972 8.51458C1.05546 8.63146 0.864415 8.68917 0.671246 8.67724C0.478078 8.66532 0.295582 8.58455 0.156869 8.44958C0.0487277 8.3154 -0.00695225 8.14648 0.000200654 7.9743C0.00735356 7.80211 0.0768517 7.6384 0.195749 7.51365L2.43168 5.49873C2.53365 5.42563 2.6526 5.37978 2.77726 5.36551C2.90192 5.35125 3.02815 5.36904 3.14401 5.4172C3.25986 5.46537 3.36151 5.54231 3.43931 5.64075C3.51711 5.73918 3.5685 5.85585 3.5886 5.9797V13.2072H4.82345C4.90904 13.2064 4.99394 13.2226 5.07318 13.255C5.15242 13.2873 5.22441 13.3352 5.28493 13.3957C5.34546 13.4562 5.3933 13.5282 5.42567 13.6074C5.45804 13.6867 5.47427 13.7716 5.47343 13.8572V13.8572Z" fill="#171723"/>
<path d="M12.0944 14.6178H7.12837C7.043 14.6178 6.95846 14.601 6.87958 14.5684C6.80071 14.5357 6.72904 14.4879 6.66867 14.4275C6.60831 14.3671 6.56043 14.2955 6.52779 14.2166C6.49514 14.1377 6.47836 14.0532 6.47841 13.9678C6.4732 13.8575 6.49156 13.7473 6.53228 13.6447C6.57299 13.542 6.63512 13.4492 6.71453 13.3724L9.56698 10.473C9.79673 10.2407 10.0125 10.0139 10.2143 9.79262C10.3904 9.60197 10.5513 9.39781 10.6955 9.18201C10.8186 8.99733 10.9196 8.79877 10.9963 8.59045C11.0616 8.40581 11.0942 8.21122 11.0928 8.01539C11.1001 7.80688 11.0616 7.5993 10.9798 7.40733C10.9127 7.25839 10.8134 7.12617 10.6891 7.02015C10.5597 6.91551 10.4115 6.83664 10.2524 6.78783C9.87587 6.67159 9.47239 6.67603 9.09849 6.80053C8.76714 6.92061 8.49182 7.15886 8.32541 7.46953C8.23483 7.64097 8.17348 7.82631 8.14387 8.01793C8.10303 8.18692 8.01054 8.33898 7.87926 8.45296C7.74798 8.56695 7.58445 8.63719 7.4114 8.65392C7.31483 8.6539 7.21926 8.63432 7.13046 8.59635C7.04167 8.55839 6.96148 8.50284 6.89474 8.43304C6.82956 8.3651 6.77938 8.28423 6.74746 8.19566C6.71553 8.1071 6.70256 8.01281 6.7094 7.91891C6.75606 7.54671 6.86597 7.18523 7.03437 6.85005C7.19544 6.52888 7.41749 6.24215 7.68814 6.00586C7.95628 5.77378 8.2654 5.59382 8.59961 5.47523C9.27244 5.24436 10.0009 5.23147 10.6815 5.43842C11.0191 5.53866 11.3333 5.70527 11.6057 5.92849C11.8883 6.16482 12.1161 6.45978 12.2734 6.79293C12.4504 7.17569 12.5376 7.5938 12.5285 8.0154C12.5309 8.3803 12.4681 8.74269 12.3432 9.08554C12.2261 9.39931 12.0714 9.6977 11.8824 9.97416C11.6942 10.2489 11.485 10.5087 11.2566 10.7511C11.0408 10.9846 10.8122 11.2208 10.5749 11.4632L8.87888 13.1935H12.0373C12.2212 13.2037 12.395 13.2814 12.5254 13.4116C12.6558 13.5417 12.7338 13.7154 12.7443 13.8993C12.7467 14.079 12.6811 14.253 12.5605 14.3862C12.44 14.5195 12.2735 14.6022 12.0944 14.6178V14.6178Z" fill="#171723"/>
<path d="M16.8783 14.7079C16.5404 14.712 16.2033 14.6727 15.8754 14.5911C15.5988 14.5198 15.3332 14.4114 15.0858 14.2687C14.8589 14.137 14.6552 13.9689 14.4828 13.7711C14.3388 13.6042 14.2129 13.4225 14.1071 13.229C14.012 13.0531 13.9325 12.8692 13.8697 12.6794C13.8164 12.508 13.7745 12.3569 13.7402 12.2135C13.7061 12.071 13.7214 11.9211 13.7834 11.7883C13.8454 11.6555 13.9505 11.5477 14.0817 11.4823C14.1943 11.43 14.3157 11.399 14.4396 11.3909C14.5695 11.3897 14.6973 11.4238 14.8093 11.4895C14.9213 11.5552 15.0134 11.6501 15.0756 11.7641C15.1134 11.8469 15.1456 11.9322 15.1721 12.0193C15.1874 12.0891 15.2051 12.1526 15.2305 12.2402C15.2571 12.3216 15.2916 12.4002 15.3333 12.475C15.3896 12.5843 15.4568 12.6877 15.5339 12.7835C15.6086 12.8751 15.6973 12.9544 15.7967 13.0183C15.9318 13.1049 16.079 13.1712 16.2334 13.2151C16.6945 13.3372 17.1817 13.3168 17.631 13.1567C17.8278 13.0725 18.0066 12.9514 18.1579 12.8C18.2893 12.6683 18.3929 12.5116 18.4625 12.3392C18.5261 12.191 18.5601 12.0319 18.5628 11.8707C18.5653 11.6932 18.5334 11.5169 18.4689 11.3515C18.41 11.2126 18.3185 11.0898 18.2023 10.9936C18.0377 10.8622 17.8487 10.7647 17.6463 10.7067C17.3356 10.6198 17.0142 10.5779 16.6916 10.5823C16.5202 10.5809 16.3562 10.5118 16.2354 10.39C16.1146 10.2683 16.0468 10.1038 16.0468 9.9323C16.044 9.7536 16.1062 9.57996 16.2217 9.44362C16.3373 9.30728 16.4984 9.2175 16.6751 9.19095C16.9331 9.18612 17.1888 9.14334 17.4343 9.064C17.6204 9.00501 17.7936 8.91109 17.9446 8.78726C18.0691 8.68438 18.1693 8.55519 18.2379 8.40898C18.3063 8.2571 18.3401 8.09189 18.3369 7.92531C18.3438 7.72991 18.3078 7.53537 18.2315 7.35534C18.1714 7.21817 18.0796 7.09722 17.9637 7.00243C17.8388 6.90275 17.6956 6.82855 17.5422 6.78404C17.1636 6.67077 16.7594 6.67698 16.3845 6.80181C16.2192 6.85996 16.0663 6.94867 15.9338 7.06332C15.7998 7.1793 15.688 7.31866 15.6038 7.47462C15.5126 7.645 15.4508 7.82954 15.421 8.02048C15.3822 8.18802 15.2919 8.3392 15.1628 8.45281C15.0337 8.56642 14.8723 8.63675 14.7012 8.65393C14.6046 8.65391 14.509 8.63432 14.4202 8.59636C14.3314 8.5584 14.2513 8.50284 14.1845 8.43305C14.1193 8.36511 14.0692 8.28424 14.0372 8.19567C14.0053 8.1071 13.9923 8.01282 13.9992 7.91892C14.0461 7.54751 14.1551 7.18663 14.3216 6.85131C14.6463 6.20702 15.2083 5.71376 15.8892 5.47524C16.557 5.24681 17.2791 5.2313 17.956 5.43085C18.2854 5.52637 18.5935 5.68408 18.8637 5.89546C19.1454 6.12275 19.372 6.41095 19.5263 6.73838C19.6968 7.11042 19.781 7.51616 19.7726 7.9253C19.7756 8.27307 19.7033 8.61736 19.5606 8.93451C19.4301 9.22593 19.2468 9.49064 19.0198 9.71523C19.0008 9.73427 18.9817 9.7533 18.9614 9.77112C19.0773 9.85366 19.186 9.9458 19.2864 10.0466C19.5218 10.2845 19.7047 10.569 19.8234 10.8819C19.9422 11.198 20.002 11.5331 19.9998 11.8708C19.9996 12.2526 19.9165 12.6299 19.7561 12.9765C19.5966 13.32 19.3695 13.6278 19.0884 13.8816C18.8018 14.1414 18.4695 14.3459 18.1084 14.4846C17.7162 14.6362 17.2987 14.712 16.8783 14.7079Z" fill="#171723"/>
</svg>
