<svg width="20" height="20" viewBox="0 0 20 20" fill="none" xmlns="http://www.w3.org/2000/svg">
<g clip-path="url(#clip0_10314_146624)">
<g clip-path="url(#clip1_10314_146624)">
<path d="M17.4424 1.27124H2.55715C1.87901 1.27187 1.22883 1.54153 0.749316 2.02104C0.269803 2.50056 0.000137448 3.15074 -0.000488281 3.82887V16.1704C0.00370882 16.2562 0.0123379 16.3417 0.0253643 16.4265C0.0195752 16.4904 0.0260796 16.5548 0.044526 16.6163C0.148928 17.2072 0.457851 17.7426 0.917209 18.1286C1.37657 18.5147 1.95709 18.7269 2.55715 18.7281H17.4424C18.1205 18.7275 18.7707 18.4578 19.2502 17.9783C19.7297 17.4988 19.9994 16.8486 20 16.1704V3.82887C19.9994 3.15074 19.7297 2.50056 19.2502 2.02104C18.7707 1.54153 18.1205 1.27187 17.4424 1.27124ZM2.55715 2.29429H17.4424C17.8492 2.29474 18.2393 2.45656 18.527 2.74425C18.8147 3.03195 18.9765 3.42201 18.977 3.82887V14.4029L14.7009 10.126C14.3468 9.78551 13.8746 9.59522 13.3833 9.59503C12.892 9.59484 12.4197 9.78476 12.0653 10.125L8.69446 13.501L7.05198 11.8694C6.88173 11.6946 6.67824 11.5556 6.45348 11.4605C6.22872 11.3655 5.98723 11.3163 5.7432 11.316H5.73321C5.48748 11.3155 5.24412 11.3639 5.01722 11.4582C4.79032 11.5525 4.58441 11.6909 4.41142 11.8655L1.02256 15.2543V3.82887C1.023 3.42201 1.18482 3.03194 1.47252 2.74425C1.76021 2.45656 2.15028 2.29474 2.55715 2.29429V2.29429ZM17.4424 17.705H2.55715C2.23066 17.7039 1.91309 17.5984 1.65076 17.4041C1.38843 17.2097 1.19508 16.9366 1.09893 16.6246L5.13476 12.5888C5.2132 12.5096 5.30657 12.4467 5.40947 12.4038C5.51236 12.361 5.62274 12.3389 5.73421 12.339H5.7382C5.84791 12.3394 5.95644 12.3618 6.05735 12.4048C6.15825 12.4479 6.24949 12.5108 6.32566 12.5898L7.96214 14.2153C8.15379 14.4028 8.41066 14.5087 8.67877 14.5107C8.94687 14.5128 9.20533 14.4108 9.39982 14.2262L12.7877 10.8494C12.9471 10.6946 13.1605 10.6081 13.3826 10.6081C13.6048 10.6081 13.8182 10.6946 13.9776 10.8494L18.977 15.8498V16.1704C18.9765 16.5773 18.8147 16.9674 18.527 17.2551C18.2393 17.5428 17.8492 17.7046 17.4424 17.705V17.705Z" fill="#171723"/>
<path d="M6.01662 9.30485C6.51397 9.30485 7.00016 9.15736 7.41369 8.88105C7.82723 8.60473 8.14954 8.212 8.33987 7.7525C8.5302 7.29301 8.57999 6.78739 8.48297 6.29959C8.38594 5.8118 8.14644 5.36372 7.79476 5.01204C7.44307 4.66036 6.995 4.42086 6.50721 4.32383C6.01941 4.2268 5.51379 4.2766 5.0543 4.46693C4.5948 4.65726 4.20207 4.97957 3.92575 5.39311C3.64944 5.80664 3.50195 6.29283 3.50195 6.79018C3.50267 7.45689 3.76784 8.09609 4.23927 8.56753C4.71071 9.03896 5.34991 9.30413 6.01662 9.30485V9.30485ZM6.01662 5.29857C6.31163 5.29857 6.60002 5.38605 6.84531 5.54995C7.09061 5.71385 7.28179 5.94681 7.39469 6.21936C7.50759 6.49192 7.53712 6.79183 7.47957 7.08118C7.42202 7.37052 7.27995 7.6363 7.07135 7.84491C6.86274 8.05351 6.59696 8.19558 6.30762 8.25313C6.01827 8.31069 5.71836 8.28115 5.4458 8.16825C5.17325 8.05535 4.94029 7.86417 4.77639 7.61887C4.61249 7.37358 4.52501 7.08519 4.52501 6.79018C4.52554 6.39474 4.68287 6.01565 4.96248 5.73604C5.2421 5.45642 5.62118 5.29909 6.01662 5.29855V5.29857Z" fill="#171723"/>
</g>
</g>
<defs>
<clipPath id="clip0_10314_146624">
<rect width="20" height="20" fill="white"/>
</clipPath>
<clipPath id="clip1_10314_146624">
<rect width="20" height="20" fill="white"/>
</clipPath>
</defs>
</svg>
