<svg width="24" height="24" viewBox="0 0 24 24" fill="none" xmlns="http://www.w3.org/2000/svg">
<path d="M18.8009 4.58014H5.1988C3.80025 4.58014 2.6665 5.71389 2.6665 7.11244V16.8873C2.6665 18.2858 3.80025 19.4196 5.1988 19.4196H18.8009C20.1995 19.4196 21.3332 18.2858 21.3332 16.8873V7.11244C21.3332 5.71389 20.1995 4.58014 18.8009 4.58014Z" fill="white"/>
<path d="M18.8008 19.4946H5.19922C4.50795 19.4938 3.84524 19.2188 3.35645 18.73C2.86765 18.2412 2.59266 17.5785 2.5918 16.8872V7.11279C2.59266 6.42153 2.86765 5.75882 3.35645 5.27002C3.84524 4.78122 4.50795 4.50623 5.19922 4.50537H18.8008C19.492 4.50623 20.1547 4.78122 20.6435 5.27002C21.1323 5.75882 21.4073 6.42153 21.4082 7.11279V16.8872C21.4073 17.5785 21.1323 18.2412 20.6435 18.73C20.1547 19.2188 19.492 19.4938 18.8008 19.4946ZM5.19922 4.65576C4.54784 4.65662 3.92339 4.91575 3.4628 5.37634C3.00221 5.83694 2.74307 6.46139 2.74222 7.11276V16.8872C2.74307 17.5386 3.00221 18.163 3.4628 18.6236C3.92339 19.0842 4.54784 19.3433 5.19922 19.3442H18.8008C19.4522 19.3433 20.0766 19.0842 20.5372 18.6236C20.9978 18.163 21.2569 17.5386 21.2578 16.8872V7.11279C21.2569 6.46142 20.9978 5.83697 20.5372 5.37637C20.0766 4.91578 19.4522 4.65665 18.8008 4.65579L5.19922 4.65576Z" fill="#E4E4E4"/>
<path d="M7.44424 7.69126C7.22187 7.67773 6.99917 7.71157 6.79086 7.79053C6.58255 7.8695 6.39338 7.99178 6.23586 8.14931C6.07833 8.30683 5.95604 8.496 5.87708 8.70431C5.79812 8.91262 5.76428 9.13533 5.77781 9.35769V12.3768C5.83443 12.5698 5.95396 12.7383 6.11736 12.8555C6.28077 12.9728 6.47868 13.032 6.67963 13.0238C6.78689 13.0295 6.89419 13.0135 6.99515 12.9768C7.0961 12.9401 7.18866 12.8835 7.2673 12.8104C7.34595 12.7372 7.40908 12.649 7.45294 12.5509C7.4968 12.4529 7.5205 12.347 7.52263 12.2396V10.7104H8.85579V12.22C8.85579 13.063 7.77753 13.4943 6.99332 13.4943C6.56526 13.5002 6.14643 13.3697 5.79741 13.1218V16.4547H7.91476C8.33418 16.4332 8.73074 16.257 9.0277 15.96C9.32467 15.663 9.50091 15.2665 9.52235 14.847V7.69126H7.44424Z" fill="#1174CE"/>
<path d="M5.77783 9.35765V12.3768C5.83446 12.5698 5.95398 12.7383 6.11739 12.8555C6.2808 12.9727 6.47871 13.032 6.67965 13.0238C6.78692 13.0294 6.89422 13.0134 6.99517 12.9768C7.09613 12.9401 7.18868 12.8835 7.26733 12.8103C7.34597 12.7372 7.4091 12.6489 7.45296 12.5509C7.49683 12.4528 7.52053 12.347 7.52265 12.2396V10.7104H8.85581V12.22C8.85581 13.063 7.77755 13.4943 6.99334 13.4943C6.56528 13.5002 6.14645 13.3697 5.79743 13.1218V16.4546H7.91478C8.33421 16.4332 8.73077 16.2569 9.02773 15.96C9.32469 15.663 9.50094 15.2664 9.52237 14.847V7.69122" fill="#0F549D"/>
<path d="M8.83619 10.7104V12.22C8.83619 13.063 7.75792 13.4943 6.97375 13.4943C6.54569 13.5002 6.12686 13.3697 5.77783 13.1218V16.4547H7.89519C8.31462 16.4333 8.71118 16.257 9.00815 15.96C9.30511 15.6631 9.48137 15.2665 9.50281 14.8471" fill="#02375E"/>
<path d="M14.855 12.9846H15.7764C15.896 12.9846 16.0107 12.9371 16.0953 12.8525C16.1798 12.768 16.2273 12.6533 16.2273 12.5337C16.2273 12.4141 16.1798 12.2994 16.0953 12.2148C16.0107 12.1303 15.896 12.0828 15.7764 12.0828H14.855V12.9846Z" fill="#146643"/>
<path d="M15.894 7.69124C15.6728 7.67552 15.4508 7.70718 15.2429 7.78411C15.0349 7.86104 14.8457 7.98145 14.688 8.13732C14.5302 8.29319 14.4076 8.48093 14.3282 8.68798C14.2488 8.89503 14.2145 9.11664 14.2276 9.33801V10.7104H16.6979C16.8681 10.7124 17.0307 10.7815 17.1504 10.9026C17.2701 11.0237 17.3372 11.1871 17.3372 11.3574C17.3372 11.5276 17.2701 11.691 17.1504 11.8122C17.0307 11.9333 16.8681 12.0023 16.6979 12.0043C16.7855 11.9987 16.8734 12.0106 16.9564 12.0391C17.0394 12.0677 17.116 12.1125 17.1816 12.1708C17.2472 12.2291 17.3006 12.2999 17.3387 12.379C17.3769 12.4581 17.3989 12.544 17.4036 12.6317C17.4005 12.7199 17.3795 12.8066 17.3419 12.8864C17.3043 12.9663 17.2509 13.0377 17.185 13.0964C17.119 13.155 17.0418 13.1997 16.9581 13.2276C16.8744 13.2556 16.7858 13.2663 16.6979 13.259H14.208V16.4546H16.3254C16.7448 16.4332 17.1413 16.2569 17.4383 15.96C17.7353 15.663 17.9115 15.2665 17.933 14.847V7.69124H15.894Z" fill="#1BCC38"/>
<path d="M14.208 9.35765V10.7104H16.6782C16.7638 10.7094 16.8488 10.7254 16.9281 10.7574C17.0075 10.7895 17.0797 10.837 17.1406 10.8972C17.2015 10.9573 17.2499 11.029 17.2829 11.108C17.3158 11.187 17.3328 11.2717 17.3328 11.3573C17.3328 11.443 17.3158 11.5277 17.2829 11.6067C17.2499 11.6857 17.2015 11.7574 17.1406 11.8175C17.0797 11.8777 17.0075 11.9252 16.9281 11.9573C16.8488 11.9893 16.7638 12.0053 16.6782 12.0043C16.7658 11.9987 16.8537 12.0105 16.9367 12.0391C17.0198 12.0677 17.0963 12.1124 17.162 12.1708C17.2276 12.2291 17.281 12.2999 17.3191 12.379C17.3572 12.4581 17.3793 12.544 17.384 12.6317C17.3809 12.7199 17.3599 12.8066 17.3223 12.8864C17.2847 12.9663 17.2313 13.0377 17.1653 13.0964C17.0994 13.155 17.0222 13.1997 16.9384 13.2276C16.8547 13.2556 16.7662 13.2663 16.6782 13.259H14.208V16.4546H16.3254C16.7448 16.4332 17.1413 16.2569 17.4383 15.96C17.7353 15.663 17.9115 15.2664 17.933 14.847V7.69122" fill="#329947"/>
<path d="M17.3252 11.3574C17.3237 11.5285 17.2551 11.6922 17.1341 11.8132C17.013 11.9342 16.8493 12.0029 16.6782 12.0044C16.7658 11.9988 16.8537 12.0106 16.9367 12.0392C17.0198 12.0677 17.0963 12.1125 17.1619 12.1708C17.2276 12.2292 17.281 12.2999 17.3191 12.379C17.3572 12.4582 17.3793 12.544 17.384 12.6317C17.3809 12.7199 17.3599 12.8066 17.3223 12.8865C17.2847 12.9663 17.2313 13.0378 17.1653 13.0964C17.0994 13.1551 17.0222 13.1997 16.9384 13.2277C16.8547 13.2556 16.7662 13.2663 16.6782 13.2591H14.208V16.4547H16.3254C16.7448 16.4332 17.1413 16.257 17.4383 15.96C17.7353 15.6631 17.9115 15.2665 17.933 14.8471" fill="#146643"/>
<path d="M16.2077 11.4358C16.2031 11.3177 16.1541 11.2057 16.0705 11.1221C15.9869 11.0385 15.8749 10.9895 15.7568 10.9849H14.855V11.8671H15.7764C15.8905 11.8661 15.9996 11.8203 16.0803 11.7397C16.161 11.659 16.2067 11.5499 16.2077 11.4358Z" fill="#146643"/>
<path d="M11.6394 7.69124C11.4182 7.67552 11.1962 7.70718 10.9882 7.7841C10.7802 7.86103 10.591 7.98145 10.4333 8.13732C10.2756 8.29319 10.1529 8.48092 10.0735 8.68798C9.99413 8.89503 9.95984 9.11664 9.97293 9.33801V11.024C10.2065 10.8181 10.5047 10.7003 10.8159 10.6907H13.0509V11.1612C12.6261 11.0621 12.1929 11.003 11.757 10.9848C11.4924 10.9856 11.2389 11.0913 11.052 11.2788C10.8652 11.4662 10.7603 11.72 10.7603 11.9847C10.7603 12.2493 10.8652 12.5031 11.052 12.6905C11.2389 12.878 11.4924 12.9837 11.757 12.9845C12.1924 12.9751 12.6259 12.9225 13.0509 12.8277V13.259H10.8159C10.5022 13.2622 10.1997 13.1426 9.97293 12.9257V16.4546H12.0903C12.5097 16.4331 12.9063 16.2569 13.2032 15.9599C13.5002 15.663 13.6764 15.2664 13.6979 14.847V7.69124H11.6394Z" fill="#E20E37"/>
<path d="M9.97314 9.35765V11.0437C10.2068 10.8378 10.5049 10.7199 10.8161 10.7104H13.0511V11.1809C12.6263 11.0817 12.1931 11.0227 11.7572 11.0044C11.4926 11.0053 11.2391 11.111 11.0522 11.2984C10.8654 11.4858 10.7605 11.7397 10.7605 12.0043C10.7605 12.2689 10.8654 12.5228 11.0522 12.7102C11.2391 12.8976 11.4926 13.0033 11.7572 13.0042C12.1926 12.9947 12.6261 12.9422 13.0511 12.8473V13.259H10.8161C10.5024 13.2622 10.1999 13.1426 9.97314 12.9257V16.4546H12.0905C12.5099 16.4331 12.9065 16.2569 13.2034 15.9599C13.5004 15.663 13.6766 15.2664 13.6981 14.847V7.69122" fill="#B41F36"/>
<path d="M13.0511 10.7104V11.181C12.6263 11.0819 12.1931 11.0228 11.7572 11.0046C11.4926 11.0054 11.2391 11.1111 11.0522 11.2985C10.8654 11.486 10.7605 11.7398 10.7605 12.0044C10.7605 12.2691 10.8654 12.5229 11.0522 12.7103C11.2391 12.8977 11.4926 13.0034 11.7572 13.0043C12.1926 12.9949 12.6261 12.9423 13.0511 12.8474V13.2591H10.8161C10.5024 13.2623 10.1999 13.1427 9.97314 12.9258V16.4547H12.0905C12.5099 16.4333 12.9065 16.257 13.2035 15.9601C13.5004 15.6631 13.6767 15.2666 13.6981 14.8471" fill="#720A1E"/>
</svg>
