<svg width="21" height="20" viewBox="0 0 21 20" fill="none" xmlns="http://www.w3.org/2000/svg">
<g clip-path="url(#clip0_10314_145409)">
<g clip-path="url(#clip1_10314_145409)">
<path d="M19.0087 16.1123H2.05188C1.6486 16.1118 1.26196 15.9514 0.97679 15.6663C0.691623 15.3811 0.531217 14.9945 0.530762 14.5912V5.40882C0.531217 5.00553 0.691623 4.61889 0.97679 4.33372C1.26196 4.04856 1.6486 3.88815 2.05188 3.8877H19.0087C19.4119 3.88815 19.7986 4.04855 20.0838 4.33372C20.3689 4.61889 20.5293 5.00553 20.5298 5.40882V14.5912C20.5293 14.9945 20.3689 15.3811 20.0838 15.6663C19.7986 15.9514 19.4119 16.1118 19.0087 16.1123V16.1123ZM2.05188 4.90443C1.91817 4.90461 1.78998 4.95782 1.69543 5.05237C1.60088 5.14692 1.54768 5.2751 1.54749 5.40882V14.5912C1.54768 14.7249 1.60088 14.8531 1.69543 14.9476C1.78998 15.0422 1.91817 15.0954 2.05188 15.0956H19.0087C19.1424 15.0954 19.2706 15.0422 19.3651 14.9476C19.4597 14.8531 19.5129 14.7249 19.5131 14.5912V5.40882C19.5129 5.2751 19.4597 5.14692 19.3651 5.05237C19.2706 4.95782 19.1424 4.90461 19.0087 4.90443H2.05188Z" fill="#171723"/>
<path d="M4.59734 8.39647C5.02217 8.39647 5.36656 8.05208 5.36656 7.62725C5.36656 7.20242 5.02217 6.85803 4.59734 6.85803C4.17252 6.85803 3.82812 7.20242 3.82812 7.62725C3.82812 8.05208 4.17252 8.39647 4.59734 8.39647Z" fill="#171723"/>
<path d="M6.97039 8.39647C7.39522 8.39647 7.73961 8.05208 7.73961 7.62725C7.73961 7.20242 7.39522 6.85803 6.97039 6.85803C6.54556 6.85803 6.20117 7.20242 6.20117 7.62725C6.20117 8.05208 6.54556 8.39647 6.97039 8.39647Z" fill="#171723"/>
<path d="M9.34246 8.39647C9.76729 8.39647 10.1117 8.05208 10.1117 7.62725C10.1117 7.20242 9.76729 6.85803 9.34246 6.85803C8.91763 6.85803 8.57324 7.20242 8.57324 7.62725C8.57324 8.05208 8.91763 8.39647 9.34246 8.39647Z" fill="#171723"/>
<path d="M11.716 8.39647C12.1408 8.39647 12.4852 8.05208 12.4852 7.62725C12.4852 7.20242 12.1408 6.85803 11.716 6.85803C11.2912 6.85803 10.9468 7.20242 10.9468 7.62725C10.9468 8.05208 11.2912 8.39647 11.716 8.39647Z" fill="#171723"/>
<path d="M14.0881 8.39647C14.5129 8.39647 14.8573 8.05208 14.8573 7.62725C14.8573 7.20242 14.5129 6.85803 14.0881 6.85803C13.6632 6.85803 13.3188 7.20242 13.3188 7.62725C13.3188 8.05208 13.6632 8.39647 14.0881 8.39647Z" fill="#171723"/>
<path d="M16.4616 8.39647C16.8864 8.39647 17.2308 8.05208 17.2308 7.62725C17.2308 7.20242 16.8864 6.85803 16.4616 6.85803C16.0368 6.85803 15.6924 7.20242 15.6924 7.62725C15.6924 8.05208 16.0368 8.39647 16.4616 8.39647Z" fill="#171723"/>
<path d="M5.78191 10.7693C6.20674 10.7693 6.55113 10.4249 6.55113 10.0001C6.55113 9.57523 6.20674 9.23083 5.78191 9.23083C5.35709 9.23083 5.0127 9.57523 5.0127 10.0001C5.0127 10.4249 5.35709 10.7693 5.78191 10.7693Z" fill="#171723"/>
<path d="M8.15496 10.7693C8.57979 10.7693 8.92418 10.4249 8.92418 10.0001C8.92418 9.57523 8.57979 9.23083 8.15496 9.23083C7.73013 9.23083 7.38574 9.57523 7.38574 10.0001C7.38574 10.4249 7.73013 10.7693 8.15496 10.7693Z" fill="#171723"/>
<path d="M10.5285 10.7693C10.9533 10.7693 11.2977 10.4249 11.2977 10.0001C11.2977 9.57523 10.9533 9.23083 10.5285 9.23083C10.1037 9.23083 9.75928 9.57523 9.75928 10.0001C9.75928 10.4249 10.1037 10.7693 10.5285 10.7693Z" fill="#171723"/>
<path d="M12.9015 10.7693C13.3264 10.7693 13.6708 10.4249 13.6708 10.0001C13.6708 9.57523 13.3264 9.23083 12.9015 9.23083C12.4767 9.23083 12.1323 9.57523 12.1323 10.0001C12.1323 10.4249 12.4767 10.7693 12.9015 10.7693Z" fill="#171723"/>
<path d="M15.2751 10.7693C15.6999 10.7693 16.0443 10.4249 16.0443 10.0001C16.0443 9.57523 15.6999 9.23083 15.2751 9.23083C14.8503 9.23083 14.5059 9.57523 14.5059 10.0001C14.5059 10.4249 14.8503 10.7693 15.2751 10.7693Z" fill="#171723"/>
<path d="M14.5524 13.4746H6.50788C6.37305 13.4746 6.24375 13.4211 6.14841 13.3257C6.05307 13.2304 5.99951 13.1011 5.99951 12.9663C5.99951 12.8314 6.05307 12.7021 6.14841 12.6068C6.24375 12.5114 6.37305 12.4579 6.50788 12.4579H14.5524C14.6872 12.4579 14.8165 12.5114 14.9118 12.6068C15.0072 12.7021 15.0607 12.8314 15.0607 12.9663C15.0607 13.1011 15.0072 13.2304 14.9118 13.3257C14.8165 13.4211 14.6872 13.4746 14.5524 13.4746V13.4746Z" fill="#171723"/>
</g>
</g>
<defs>
<clipPath id="clip0_10314_145409">
<rect width="20" height="20" fill="white" transform="translate(0.529785)"/>
</clipPath>
<clipPath id="clip1_10314_145409">
<rect width="20" height="20" fill="white" transform="translate(0.529785)"/>
</clipPath>
</defs>
</svg>
