<svg width="21" height="20" viewBox="0 0 21 20" fill="none" xmlns="http://www.w3.org/2000/svg">
<g clip-path="url(#clip0_10314_145409)">
<path d="M17.4793 15.0098H3.58121C3.25067 15.0094 2.93378 14.8779 2.70005 14.6442C2.46632 14.4105 2.33485 14.0936 2.33447 13.763V6.23698C2.33485 5.90643 2.46632 5.58954 2.70005 5.35581C2.93378 5.12208 3.25067 4.99061 3.58121 4.99023H17.4793C17.8099 4.9906 18.1268 5.12208 18.3605 5.35581C18.5942 5.58953 18.7257 5.90643 18.7261 6.23698V13.763C18.7257 14.0936 18.5942 14.4105 18.3605 14.6442C18.1268 14.8779 17.8099 15.0094 17.4793 15.0098ZM3.58121 5.82357C3.47162 5.82372 3.36656 5.86733 3.28906 5.94482C3.21157 6.02232 3.16796 6.12738 3.16781 6.23698V13.763C3.16796 13.8726 3.21157 13.9777 3.28906 14.0552C3.36656 14.1327 3.47162 14.1763 3.58121 14.1764H17.4793C17.5889 14.1763 17.694 14.1327 17.7715 14.0552C17.849 13.9777 17.8926 13.8726 17.8927 13.763V6.23698C17.8926 6.12738 17.849 6.02232 17.7715 5.94482C17.694 5.86733 17.5889 5.82372 17.4793 5.82357H3.58121Z" fill="#171723"/>
<path d="M5.66758 8.68574C6.01577 8.68574 6.29804 8.40347 6.29804 8.05527C6.29804 7.70707 6.01577 7.4248 5.66758 7.4248C5.31938 7.4248 5.03711 7.70707 5.03711 8.05527C5.03711 8.40347 5.31938 8.68574 5.66758 8.68574Z" fill="#171723"/>
<path d="M7.6124 8.68574C7.9606 8.68574 8.24287 8.40347 8.24287 8.05527C8.24287 7.70707 7.9606 7.4248 7.6124 7.4248C7.2642 7.4248 6.98193 7.70707 6.98193 8.05527C6.98193 8.40347 7.2642 8.68574 7.6124 8.68574Z" fill="#171723"/>
<path d="M9.55674 8.68574C9.90493 8.68574 10.1872 8.40347 10.1872 8.05527C10.1872 7.70707 9.90493 7.4248 9.55674 7.4248C9.20854 7.4248 8.92627 7.70707 8.92627 8.05527C8.92627 8.40347 9.20854 8.68574 9.55674 8.68574Z" fill="#171723"/>
<path d="M11.502 8.68574C11.8502 8.68574 12.1325 8.40347 12.1325 8.05527C12.1325 7.70707 11.8502 7.4248 11.502 7.4248C11.1539 7.4248 10.8716 7.70707 10.8716 8.05527C10.8716 8.40347 11.1539 8.68574 11.502 8.68574Z" fill="#171723"/>
<path d="M13.4464 8.68574C13.7946 8.68574 14.0769 8.40347 14.0769 8.05527C14.0769 7.70707 13.7946 7.4248 13.4464 7.4248C13.0982 7.4248 12.8159 7.70707 12.8159 8.05527C12.8159 8.40347 13.0982 8.68574 13.4464 8.68574Z" fill="#171723"/>
<path d="M15.3917 8.68574C15.7399 8.68574 16.0222 8.40347 16.0222 8.05527C16.0222 7.70707 15.7399 7.4248 15.3917 7.4248C15.0435 7.4248 14.7612 7.70707 14.7612 8.05527C14.7612 8.40347 15.0435 8.68574 15.3917 8.68574Z" fill="#171723"/>
<path d="M6.63828 10.6304C6.98648 10.6304 7.26875 10.3482 7.26875 9.99997C7.26875 9.65178 6.98648 9.36951 6.63828 9.36951C6.29008 9.36951 6.00781 9.65178 6.00781 9.99997C6.00781 10.3482 6.29008 10.6304 6.63828 10.6304Z" fill="#171723"/>
<path d="M8.58359 10.6304C8.93179 10.6304 9.21406 10.3482 9.21406 9.99997C9.21406 9.65178 8.93179 9.36951 8.58359 9.36951C8.23539 9.36951 7.95312 9.65178 7.95312 9.99997C7.95312 10.3482 8.23539 10.6304 8.58359 10.6304Z" fill="#171723"/>
<path d="M10.5289 10.6304C10.8771 10.6304 11.1594 10.3482 11.1594 9.99997C11.1594 9.65178 10.8771 9.36951 10.5289 9.36951C10.1807 9.36951 9.89844 9.65178 9.89844 9.99997C9.89844 10.3482 10.1807 10.6304 10.5289 10.6304Z" fill="#171723"/>
<path d="M12.4737 10.6304C12.8219 10.6304 13.1042 10.3482 13.1042 9.99997C13.1042 9.65178 12.8219 9.36951 12.4737 9.36951C12.1255 9.36951 11.8433 9.65178 11.8433 9.99997C11.8433 10.3482 12.1255 10.6304 12.4737 10.6304Z" fill="#171723"/>
<path d="M14.419 10.6304C14.7672 10.6304 15.0495 10.3482 15.0495 9.99997C15.0495 9.65178 14.7672 9.36951 14.419 9.36951C14.0708 9.36951 13.7886 9.65178 13.7886 9.99997C13.7886 10.3482 14.0708 10.6304 14.419 10.6304Z" fill="#171723"/>
<path d="M13.827 12.8479H7.23356C7.12305 12.8479 7.01707 12.804 6.93893 12.7258C6.86079 12.6477 6.81689 12.5417 6.81689 12.4312C6.81689 12.3207 6.86079 12.2147 6.93893 12.1366C7.01707 12.0584 7.12305 12.0145 7.23356 12.0145H13.827C13.9375 12.0145 14.0435 12.0584 14.1216 12.1366C14.1998 12.2147 14.2437 12.3207 14.2437 12.4312C14.2437 12.5417 14.1998 12.6477 14.1216 12.7258C14.0435 12.804 13.9375 12.8479 13.827 12.8479Z" fill="#171723"/>
</g>
<defs>
<clipPath id="clip0_10314_145409">
<rect width="20" height="20" fill="white" transform="translate(0.529785)"/>
</clipPath>
</defs>
</svg>
