<svg width="20" height="20" viewBox="0 0 20 20" fill="none" xmlns="http://www.w3.org/2000/svg">
<g clip-path="url(#clip0_10995_130754)">
<g clip-path="url(#clip1_10995_130754)">
<path d="M12.438 7.80769L3.80043 2.97075C3.40937 2.76691 2.97218 2.66782 2.53145 2.68312C2.09071 2.69842 1.66145 2.8276 1.28546 3.05807C0.88912 3.29996 0.562307 3.64053 0.33696 4.04651C0.111613 4.45248 -0.0045581 4.90998 -0.000202305 5.37428V14.6265C-0.00455695 15.0908 0.111615 15.5483 0.336962 15.9543C0.562308 16.3602 0.889121 16.7008 1.28546 16.9427C1.6856 17.1878 2.14555 17.3178 2.61476 17.3184C3.03377 17.317 3.44632 17.2149 3.81767 17.0208L12.438 12.1989C12.8282 11.9803 13.1532 11.6616 13.3793 11.2757C13.6055 10.8898 13.7247 10.4506 13.7247 10.0033C13.7247 9.55598 13.6055 9.11676 13.3793 8.73085C13.1532 8.34494 12.8282 8.02629 12.438 7.80771V7.80769Z" fill="#171723"/>
<path d="M17.8423 7.84329C17.4157 7.84341 16.9988 7.97 16.6441 8.20707C16.2895 8.44414 16.0131 8.78104 15.8499 9.17517C15.6867 9.56931 15.644 10.003 15.7273 10.4214C15.8105 10.8397 16.016 11.224 16.3176 11.5257C16.6193 11.8273 17.0036 12.0327 17.4219 12.116C17.8403 12.1992 18.274 12.1566 18.6681 11.9934C19.0623 11.8302 19.3992 11.5538 19.6362 11.1992C19.8733 10.8445 19.9999 10.4276 20 10.001C19.9996 9.42884 19.7721 8.88026 19.3676 8.4757C18.963 8.07115 18.4144 7.84369 17.8423 7.84329V7.84329Z" fill="#171723"/>
</g>
</g>
<defs>
<clipPath id="clip0_10995_130754">
<rect width="20" height="20" fill="white"/>
</clipPath>
<clipPath id="clip1_10995_130754">
<rect width="20" height="20" fill="white"/>
</clipPath>
</defs>
</svg>
