<svg width="20" height="20" viewBox="0 0 20 20" fill="none" xmlns="http://www.w3.org/2000/svg">
<g clip-path="url(#clip0_10314_144684)">
<path d="M17.3197 3.26163L18.069 2.52147C18.108 2.483 18.139 2.43723 18.1602 2.38677C18.1815 2.33632 18.1926 2.28218 18.193 2.22743C18.1933 2.17268 18.1828 2.1184 18.1622 2.06768C18.1416 2.01697 18.1111 1.97082 18.0727 1.93187C18.0342 1.89291 17.9884 1.86192 17.938 1.84065C17.8875 1.81939 17.8334 1.80827 17.7786 1.80793C17.7239 1.80759 17.6696 1.81804 17.6189 1.83867C17.5682 1.85931 17.522 1.88974 17.4831 1.92821L16.7289 2.67321C16.5218 2.54897 16.2907 2.47033 16.0508 2.44255L10.4282 1.81877C10.1747 1.78963 9.9179 1.8184 9.67713 1.90291C9.43636 1.98742 9.2179 2.12546 9.03822 2.30664L2.30892 9.03595C2.15078 9.19376 2.02532 9.38121 1.93972 9.58757C1.85412 9.79393 1.81006 10.0151 1.81006 10.2386C1.81006 10.462 1.85412 10.6832 1.93972 10.8895C2.02532 11.0959 2.15078 11.2833 2.30892 11.4412L8.56058 17.6928C8.87973 18.0112 9.31215 18.19 9.76298 18.19C10.2138 18.19 10.6462 18.0112 10.9654 17.6928L17.6947 10.9639C17.8754 10.7835 18.0131 10.5647 18.0975 10.3238C18.1819 10.0828 18.2109 9.82594 18.1822 9.57225L17.5539 3.94359C17.5255 3.70215 17.4456 3.46961 17.3197 3.26163ZM17.1055 10.3747L10.3761 17.1036C10.2135 17.2662 9.99291 17.3575 9.76294 17.3575C9.53296 17.3575 9.31239 17.2662 9.14973 17.1036L2.89811 10.8519C2.81737 10.7715 2.75331 10.6759 2.7096 10.5706C2.66589 10.4654 2.64339 10.3525 2.64339 10.2385C2.64339 10.1245 2.66589 10.0117 2.7096 9.90643C2.75331 9.80117 2.81737 9.70557 2.89811 9.62512L9.62744 2.89579C9.70749 2.81516 9.8027 2.75118 9.9076 2.70753C10.0125 2.66389 10.125 2.64144 10.2386 2.64148C10.2712 2.64155 10.3038 2.64345 10.3363 2.64717L15.9596 3.27095C16.0029 3.27973 16.0454 3.29191 16.0868 3.30737L14.6164 4.75984C14.2391 4.5351 13.7987 4.43987 13.3623 4.48865C12.9259 4.53743 12.5174 4.72754 12.1991 5.03002C11.9368 5.29225 11.7543 5.62351 11.6728 5.98533C11.5912 6.34714 11.614 6.72466 11.7385 7.07403C11.863 7.4234 12.084 7.73028 12.376 7.95903C12.6679 8.18779 13.0188 8.32902 13.3878 8.36632C13.7568 8.40363 14.1288 8.33547 14.4606 8.16978C14.7924 8.00409 15.0704 7.74766 15.2623 7.43027C15.4542 7.11288 15.5521 6.74757 15.5446 6.37676C15.5372 6.00595 15.4247 5.64486 15.2202 5.33544L16.6834 3.89019C16.7017 3.93755 16.7158 3.98648 16.7254 4.03636L17.3537 9.66462C17.3685 9.79402 17.3538 9.9251 17.3108 10.0481C17.2679 10.171 17.1977 10.2827 17.1055 10.3747ZM14.3817 7.21304C14.167 7.41793 13.8817 7.53225 13.585 7.53225C13.2882 7.53225 13.0029 7.41793 12.7882 7.21304C12.6033 7.0306 12.4874 6.78975 12.46 6.53144C12.4326 6.27313 12.4956 6.01332 12.6381 5.7962C12.7807 5.57907 12.9941 5.41803 13.242 5.34046C13.4899 5.2629 13.757 5.2736 13.9979 5.37074L13.161 6.19741C13.0829 6.27523 13.0387 6.38083 13.0383 6.49109C13.0378 6.60135 13.0811 6.70731 13.1586 6.78576C13.2361 6.86421 13.3415 6.90877 13.4517 6.9097C13.562 6.91062 13.6681 6.86782 13.7469 6.79068L14.5999 5.94818C14.6974 6.15598 14.7288 6.38872 14.6898 6.61494C14.6508 6.84116 14.5432 7.04993 14.3817 7.21304Z" fill="#171723"/>
<path d="M7.84495 7.7293C7.76655 7.65247 7.661 7.60968 7.55124 7.61023C7.44147 7.61079 7.33636 7.65464 7.25875 7.73226C7.18113 7.80987 7.13728 7.91498 7.13672 8.02475C7.13617 8.13452 7.17896 8.24007 7.25578 8.31846L12.0971 13.1606C12.1755 13.2374 12.281 13.2802 12.3908 13.2796C12.5006 13.2791 12.6057 13.2352 12.6833 13.1576C12.7609 13.08 12.8048 12.9749 12.8053 12.8651C12.8059 12.7554 12.7631 12.6498 12.6863 12.5714L7.84495 7.7293Z" fill="#171723"/>
<path d="M6.23118 9.34355C6.15279 9.26672 6.04724 9.22394 5.93747 9.22449C5.8277 9.22505 5.72259 9.2689 5.64498 9.34651C5.56736 9.42413 5.52351 9.52924 5.52295 9.63901C5.5224 9.74877 5.56519 9.85432 5.64202 9.93272L10.4833 14.7744C10.5617 14.8513 10.6673 14.8941 10.777 14.8935C10.8868 14.8929 10.9919 14.8491 11.0695 14.7715C11.1471 14.6939 11.191 14.5887 11.1916 14.479C11.1921 14.3692 11.1493 14.2637 11.0725 14.1853L6.23118 9.34355Z" fill="#171723"/>
</g>
<defs>
<clipPath id="clip0_10314_144684">
<rect width="20" height="20" fill="white"/>
</clipPath>
</defs>
</svg>
