<svg width="24" height="24" viewBox="0 0 24 24" fill="none" xmlns="http://www.w3.org/2000/svg">
<g clip-path="url(#clip0_10317_147255)">
<path d="M12 24C14.2992 24 16.5468 23.3182 18.4585 22.0409C20.3702 20.7635 21.8602 18.9479 22.7401 16.8237C23.6199 14.6995 23.8501 12.3621 23.4016 10.1071C22.953 7.85209 21.8459 5.78072 20.2201 4.15494C18.5943 2.52916 16.5229 1.42199 14.2679 0.973435C12.0129 0.524884 9.67547 0.7551 7.55128 1.63497C5.4271 2.51484 3.61152 4.00484 2.33416 5.91656C1.05679 7.82828 0.374997 10.0759 0.375 12.3751C0.375007 15.4582 1.59978 18.415 3.77989 20.5951C5.95999 22.7752 8.91685 24 12 24V24Z" fill="#E7EFFF"/>
<path d="M19.9308 20.8724C17.7783 22.8811 14.9438 23.9982 11.9996 23.9982C9.05541 23.9982 6.22089 22.8811 4.06836 20.8724C4.32421 20.401 4.71834 20.0192 5.19771 19.7785C5.67708 19.5378 6.21867 19.4498 6.7496 19.5262C6.74562 19.2459 6.80453 18.9683 6.92199 18.7138C7.03945 18.4593 7.21248 18.2344 7.42834 18.0556C7.6442 17.8768 7.89741 17.7486 8.16933 17.6806C8.44125 17.6125 8.72496 17.6063 8.99959 17.6624V14.6249H14.9996V17.6624C15.272 17.6068 15.5534 17.6125 15.8234 17.6791C16.0934 17.7456 16.3452 17.8714 16.5606 18.0473C16.7759 18.2232 16.9495 18.4448 17.0687 18.696C17.1878 18.9473 17.2496 19.2219 17.2496 19.4999C17.2496 19.5599 17.2195 19.4999 17.6245 19.4999C18.0969 19.5 18.5604 19.6276 18.9663 19.8692C19.3722 20.1107 19.7054 20.4573 19.9308 20.8724H19.9308Z" fill="#7F96D1"/>
<path d="M6 13.4401V16.5C6 16.5493 6.00969 16.598 6.02854 16.6435C6.04738 16.689 6.07501 16.7304 6.10983 16.7652C6.14465 16.8 6.18599 16.8277 6.23149 16.8465C6.27699 16.8653 6.32576 16.875 6.375 16.875H7.3125C7.37072 16.875 7.42813 16.8615 7.4802 16.8354C7.53227 16.8094 7.57756 16.7716 7.6125 16.725L8.62499 15.375V10.5001L6.52314 12.3019C6.35906 12.4427 6.22737 12.6173 6.13707 12.8138C6.04677 13.0102 6.00002 13.2239 6 13.4401V13.4401Z" fill="#3452FF"/>
<path d="M18 13.4401V16.5C18 16.5493 17.9903 16.598 17.9714 16.6435C17.9526 16.689 17.925 16.7304 17.8902 16.7652C17.8553 16.8 17.814 16.8276 17.7685 16.8465C17.723 16.8653 17.6742 16.875 17.625 16.875H16.6875C16.6293 16.875 16.5719 16.8615 16.5198 16.8354C16.4677 16.8094 16.4224 16.7716 16.3875 16.725L15.375 15.375V10.5001L17.4769 12.3019C17.6409 12.4427 17.7726 12.6173 17.8629 12.8138C17.9532 13.0102 18 13.2239 18 13.4401V13.4401Z" fill="#3452FF"/>
<path d="M15.7742 8.08873L15.3748 13.875H8.62487L8.22552 8.08873C8.11794 6.53114 8.40785 4.97176 9.06804 3.55692C9.72824 2.14207 10.7371 0.918148 11.9999 0C13.2624 0.918377 14.271 2.14234 14.9312 3.55713C15.5914 4.97192 15.8814 6.53118 15.7742 8.08873H15.7742Z" fill="white"/>
<path d="M8.625 13.8751H15.375V15.375H8.625V13.8751Z" fill="#4E6AFF"/>
<path d="M11.9996 16.875C11.8924 16.8749 11.7883 16.8391 11.7037 16.7733C11.6191 16.7074 11.559 16.6152 11.5327 16.5113C10.8521 13.7888 10.8633 13.9219 10.9046 13.7588L11.5327 11.2388C11.5589 11.1349 11.6191 11.0427 11.7037 10.9768C11.7882 10.9109 11.8924 10.8752 11.9995 10.8752C12.1067 10.8752 12.2109 10.9109 12.2954 10.9768C12.38 11.0427 12.4402 11.1349 12.4664 11.2388C13.1471 13.9613 13.1358 13.8282 13.0946 13.9913L12.4664 16.5113C12.4401 16.6152 12.38 16.7074 12.2954 16.7733C12.2109 16.8391 12.1068 16.8749 11.9996 16.875V16.875Z" fill="#3452FF"/>
<path d="M12 8.99998C12.445 8.99998 12.88 8.86802 13.25 8.62079C13.62 8.37356 13.9084 8.02216 14.0787 7.61102C14.249 7.19989 14.2936 6.74749 14.2067 6.31104C14.1199 5.87458 13.9056 5.47367 13.591 5.15901C13.2763 4.84434 12.8754 4.63005 12.4389 4.54323C12.0025 4.45642 11.5501 4.50097 11.139 4.67127C10.7278 4.84157 10.3764 5.12995 10.1292 5.49996C9.88196 5.86997 9.75 6.30498 9.75 6.74999C9.75 7.34672 9.98705 7.91902 10.409 8.34097C10.831 8.76293 11.4033 8.99998 12 8.99998V8.99998Z" fill="#4E6AFF"/>
<path d="M12 8.25C12.2967 8.25 12.5867 8.16202 12.8334 7.9972C13.08 7.83238 13.2723 7.59811 13.3858 7.32402C13.4993 7.04993 13.5291 6.74833 13.4712 6.45736C13.4133 6.16639 13.2704 5.89912 13.0607 5.68934C12.8509 5.47956 12.5836 5.3367 12.2926 5.27882C12.0017 5.22094 11.7001 5.25065 11.426 5.36418C11.1519 5.47771 10.9176 5.66997 10.7528 5.91664C10.588 6.16332 10.5 6.45333 10.5 6.75C10.5 7.14782 10.658 7.52935 10.9393 7.81066C11.2206 8.09196 11.6022 8.25 12 8.25Z" fill="#E7EFFF"/>
<path d="M14.1076 2.13749C13.5461 2.6917 12.789 3.00245 12.0001 3.00245C11.2112 3.00245 10.454 2.6917 9.89258 2.13749C10.4737 1.31473 11.1856 0.592681 12 0C12.8145 0.592687 13.5264 1.31474 14.1076 2.13749V2.13749Z" fill="#E1B75B"/>
<path d="M23.3924 10.0518C23.0606 10.1493 23.2987 10.125 19.1249 10.125C18.6589 10.1236 18.2101 9.94879 17.866 9.63454C17.5219 9.32029 17.3071 8.88915 17.2636 8.42517C17.22 7.9612 17.3508 7.49763 17.6305 7.12484C17.9101 6.75206 18.3186 6.49677 18.7762 6.40874C18.846 5.94712 19.0576 5.51863 19.3818 5.18268C19.706 4.84673 20.1267 4.61994 20.5856 4.53375C22.0043 6.0845 22.9746 7.99195 23.3924 10.0518V10.0518Z" fill="white"/>
<path d="M4.50008 13.125C4.50007 13.6223 4.30252 14.0992 3.95089 14.4509C3.59927 14.8025 3.12236 15 2.62508 15H0.673207C0.246045 13.1454 0.278228 11.2145 0.766961 9.37506C1.30133 9.37905 1.81684 9.57311 2.22119 9.92249C2.62554 10.2719 2.89234 10.7538 2.97383 11.2819C3.40312 11.3632 3.79056 11.5918 4.06922 11.9283C4.34788 12.2648 4.50028 12.6881 4.50008 13.125Z" fill="white"/>
<path d="M15.3748 20.9999C15.2753 20.9999 15.1799 20.9604 15.1096 20.8901C15.0393 20.8198 14.9998 20.7244 14.9998 20.6249C14.9998 20.5264 14.9804 20.4289 14.9427 20.3379C14.905 20.2469 14.8497 20.1642 14.7801 20.0946C14.7104 20.025 14.6278 19.9697 14.5368 19.932C14.4458 19.8943 14.3483 19.8749 14.2498 19.8749C14.1507 19.8744 14.0559 19.8346 13.986 19.7643C13.9162 19.6941 13.877 19.599 13.877 19.4999C13.877 19.4009 13.9162 19.3058 13.986 19.2355C14.0559 19.1653 14.1507 19.1255 14.2498 19.1249C14.4467 19.1249 14.6418 19.1637 14.8238 19.2391C15.0058 19.3145 15.1711 19.425 15.3104 19.5643C15.4497 19.7036 15.5602 19.8689 15.6356 20.0509C15.711 20.2329 15.7498 20.428 15.7498 20.6249C15.7498 20.6742 15.7401 20.7229 15.7212 20.7684C15.7024 20.8139 15.6748 20.8553 15.6399 20.8901C15.6051 20.9249 15.5638 20.9525 15.5183 20.9714C15.4728 20.9902 15.424 20.9999 15.3748 20.9999V20.9999Z" fill="#E7EFFF"/>
<path d="M8.625 21.75C8.52555 21.7499 8.43017 21.7104 8.35984 21.6401C8.28951 21.5698 8.25 21.4744 8.25 21.3749C8.25001 20.9771 8.40805 20.5956 8.68935 20.3143C8.97065 20.033 9.35218 19.875 9.75 19.8749C9.84945 19.8749 9.94484 19.9144 10.0152 19.9848C10.0855 20.0551 10.125 20.1505 10.125 20.2499C10.125 20.3494 10.0855 20.4448 10.0152 20.5151C9.94484 20.5854 9.84945 20.6249 9.75 20.6249C9.6515 20.6249 9.55397 20.6443 9.46298 20.682C9.37198 20.7197 9.2893 20.7749 9.21965 20.8446C9.15001 20.9142 9.09476 20.9969 9.05708 21.0879C9.01939 21.1789 9 21.2764 9 21.3749C9 21.4744 8.96049 21.5698 8.89017 21.6401C8.81984 21.7104 8.72446 21.7499 8.625 21.7499V21.75Z" fill="#E7EFFF"/>
<path d="M1.6875 4.87506C1.79875 4.87506 1.9075 4.84207 2 4.78026C2.09251 4.71845 2.1646 4.6306 2.20718 4.52782C2.24975 4.42503 2.26089 4.31194 2.23919 4.20282C2.21748 4.09371 2.16391 3.99348 2.08524 3.91481C2.00658 3.83615 1.90635 3.78257 1.79723 3.76087C1.68812 3.73917 1.57502 3.75031 1.47224 3.79288C1.36946 3.83545 1.28161 3.90755 1.2198 4.00005C1.15799 4.09255 1.125 4.20131 1.125 4.31256C1.125 4.46174 1.18427 4.60481 1.28976 4.7103C1.39524 4.81579 1.53831 4.87505 1.6875 4.87506V4.87506Z" fill="#E1B75B"/>
<path d="M22.6875 17.2501C22.7987 17.2501 22.9075 17.2171 23 17.1553C23.0925 17.0934 23.1646 17.0056 23.2072 16.9028C23.2498 16.8 23.2609 16.6869 23.2392 16.5778C23.2175 16.4687 23.1639 16.3685 23.0852 16.2898C23.0066 16.2111 22.9063 16.1576 22.7972 16.1359C22.6881 16.1142 22.575 16.1253 22.4722 16.1679C22.3695 16.2105 22.2816 16.2825 22.2198 16.3751C22.158 16.4676 22.125 16.5763 22.125 16.6876C22.125 16.7614 22.1395 16.8346 22.1678 16.9028C22.1961 16.9711 22.2375 17.0331 22.2897 17.0853C22.342 17.1375 22.404 17.179 22.4722 17.2072C22.5405 17.2355 22.6136 17.2501 22.6875 17.2501Z" fill="#E1B75B"/>
<path d="M21.937 3.00006C22.0483 3.00005 22.157 2.96706 22.2495 2.90525C22.342 2.84344 22.4141 2.75559 22.4567 2.65281C22.4993 2.55003 22.5104 2.43693 22.4887 2.32781C22.467 2.2187 22.4134 2.11847 22.3348 2.03981C22.2561 1.96114 22.1559 1.90757 22.0467 1.88587C21.9376 1.86417 21.8245 1.87531 21.7217 1.91788C21.619 1.96045 21.5311 2.03255 21.4693 2.12505C21.4075 2.21756 21.3745 2.32631 21.3745 2.43756C21.3745 2.58674 21.4338 2.72982 21.5393 2.83531C21.6448 2.94079 21.7878 3.00006 21.937 3.00006V3.00006Z" fill="#00DE93"/>
<path d="M2.8125 22.1249C2.92375 22.1249 3.0325 22.0919 3.125 22.0301C3.21751 21.9683 3.2896 21.8805 3.33218 21.7777C3.37475 21.6749 3.38589 21.5618 3.36419 21.4527C3.34248 21.3436 3.28891 21.2434 3.21024 21.1647C3.13158 21.086 3.03135 21.0325 2.92224 21.0107C2.81312 20.989 2.70002 21.0002 2.59724 21.0428C2.49446 21.0853 2.40661 21.1574 2.3448 21.2499C2.28299 21.3424 2.25 21.4512 2.25 21.5624C2.25 21.7116 2.30926 21.8547 2.41475 21.9602C2.52024 22.0657 2.66331 22.1249 2.8125 22.1249V22.1249Z" fill="#00DE93"/>
</g>
<defs>
<clipPath id="clip0_10317_147255">
<rect width="24" height="24" fill="white"/>
</clipPath>
</defs>
</svg>
