<svg width="20" height="20" viewBox="0 0 20 20" fill="none" xmlns="http://www.w3.org/2000/svg">
<g clip-path="url(#clip0_1827_8421)">
<path d="M3.60008 17C3.48139 17 3.36537 16.9648 3.26669 16.8988C3.16801 16.8329 3.0911 16.7391 3.04568 16.6295C3.00026 16.5198 2.98838 16.3991 3.01153 16.2827C3.03468 16.1663 3.09183 16.0593 3.17575 15.9754L15.9799 3.17152C16.0928 3.06084 16.2448 2.99921 16.4029 3.00001C16.561 3.00081 16.7124 3.06397 16.8242 3.17578C16.936 3.28759 16.9992 3.43901 17 3.59713C17.0008 3.75525 16.9392 3.9073 16.8285 4.02023L4.0244 16.8242C3.96875 16.88 3.90261 16.9242 3.82979 16.9544C3.75697 16.9846 3.6789 17.0001 3.60008 17V17Z" fill="#171723"/>
</g>
<defs>
<clipPath id="clip0_1827_8421">
<rect width="20" height="20" fill="white"/>
</clipPath>
</defs>
</svg>
