<svg width="20" height="20" viewBox="0 0 20 20" fill="none" xmlns="http://www.w3.org/2000/svg">
<g clip-path="url(#clip0_10314_144784)">
<path d="M19.375 3.875H5.203C5.03727 3.875 4.87834 3.80916 4.76115 3.69198C4.64396 3.57479 4.57812 3.41585 4.57812 3.25012C4.57812 3.08439 4.64396 2.92545 4.76115 2.80827C4.87834 2.69108 5.03727 2.62524 5.203 2.62524H19.375C19.5408 2.62524 19.6997 2.69108 19.8169 2.80827C19.9341 2.92545 19.9999 3.08439 19.9999 3.25012C19.9999 3.41585 19.9341 3.57479 19.8169 3.69198C19.6997 3.80916 19.5408 3.875 19.375 3.875Z" fill="#171723"/>
<path d="M19.3616 17.1915H5.203C5.03727 17.1915 4.87834 17.1257 4.76115 17.0085C4.64396 16.8913 4.57812 16.7324 4.57812 16.5667C4.57812 16.4009 4.64396 16.242 4.76115 16.1248C4.87834 16.0076 5.03727 15.9418 5.203 15.9418H19.3616C19.5273 15.9418 19.6863 16.0076 19.8035 16.1248C19.9207 16.242 19.9865 16.4009 19.9865 16.5667C19.9865 16.7324 19.9207 16.8913 19.8035 17.0085C19.6863 17.1257 19.5273 17.1915 19.3616 17.1915Z" fill="#171723"/>
<path d="M19.3677 10.5425H5.203C5.03727 10.5425 4.87834 10.4766 4.76115 10.3595C4.64396 10.2423 4.57812 10.0833 4.57812 9.9176C4.57812 9.75187 4.64396 9.59293 4.76115 9.47575C4.87834 9.35856 5.03727 9.29272 5.203 9.29272H19.3677C19.5335 9.29272 19.6924 9.35856 19.8096 9.47575C19.9268 9.59293 19.9926 9.75187 19.9926 9.9176C19.9926 10.0833 19.9268 10.2423 19.8096 10.3595C19.6924 10.4766 19.5335 10.5425 19.3677 10.5425H19.3677Z" fill="#171723"/>
<path d="M1.24976 4.49951C1.93998 4.49951 2.49951 3.93998 2.49951 3.24976C2.49951 2.55953 1.93998 2 1.24976 2C0.559534 2 0 2.55953 0 3.24976C0 3.93998 0.559534 4.49951 1.24976 4.49951Z" fill="#171723"/>
<path d="M1.24976 11.1675C1.93998 11.1675 2.49951 10.6079 2.49951 9.91772C2.49951 9.2275 1.93998 8.66797 1.24976 8.66797C0.559534 8.66797 0 9.2275 0 9.91772C0 10.6079 0.559534 11.1675 1.24976 11.1675Z" fill="#171723"/>
<path d="M1.24976 17.817C1.93998 17.817 2.49951 17.2575 2.49951 16.5673C2.49951 15.877 1.93998 15.3175 1.24976 15.3175C0.559534 15.3175 0 15.877 0 16.5673C0 17.2575 0.559534 17.817 1.24976 17.817Z" fill="#171723"/>
</g>
<defs>
<clipPath id="clip0_10314_144784">
<rect width="20" height="20" fill="white"/>
</clipPath>
</defs>
</svg>
