<svg width="20" height="20" viewBox="0 0 20 20" fill="none" xmlns="http://www.w3.org/2000/svg">
<g clip-path="url(#clip0_10314_146071)">
<path d="M18.0639 4.21861C18.0243 4.18093 17.9777 4.15143 17.9266 4.13181C17.8756 4.11219 17.8212 4.10283 17.7665 4.10427C17.7119 4.10571 17.6581 4.11791 17.6081 4.14018C17.5582 4.16245 17.5131 4.19436 17.4756 4.23406L7.38508 14.8662L2.53168 9.48797C2.45761 9.4061 2.35407 9.35697 2.24381 9.35139C2.13354 9.34581 2.02557 9.38423 1.94361 9.4582C1.86165 9.53218 1.81241 9.63567 1.80671 9.74593C1.80101 9.85619 1.8393 9.9642 1.91319 10.0462L7.06785 15.7584C7.07176 15.7627 7.0774 15.764 7.08148 15.7682C7.08529 15.7721 7.08661 15.7773 7.09065 15.7811C7.11438 15.8005 7.14025 15.817 7.16775 15.8304C7.18396 15.8425 7.20101 15.8534 7.21877 15.863C7.2679 15.8843 7.32083 15.8955 7.37439 15.8959C7.42795 15.8962 7.48103 15.8858 7.53044 15.8651C7.54672 15.8566 7.56242 15.847 7.57744 15.8365C7.60545 15.8235 7.63188 15.8074 7.65622 15.7885C7.66081 15.7843 7.66248 15.7785 7.66685 15.7742C7.67051 15.7706 7.6755 15.7694 7.67901 15.7657L18.0794 4.80698C18.1172 4.76741 18.1467 4.72077 18.1664 4.66973C18.1861 4.61869 18.1955 4.56426 18.194 4.50958C18.1926 4.45489 18.1804 4.40104 18.158 4.3511C18.1357 4.30116 18.1037 4.25614 18.0639 4.21861V4.21861Z" fill="#171723"/>
</g>
<defs>
<clipPath id="clip0_10314_146071">
<rect width="20" height="20" fill="white"/>
</clipPath>
</defs>
</svg>
