<svg width="20" height="20" viewBox="0 0 20 20" fill="none" xmlns="http://www.w3.org/2000/svg">
<path d="M16.4598 5.97689H7.00993C6.89942 5.97689 6.79344 5.93299 6.7153 5.85485C6.63716 5.77671 6.59326 5.67073 6.59326 5.56022C6.59326 5.44971 6.63716 5.34373 6.7153 5.26559C6.79344 5.18745 6.89942 5.14355 7.00993 5.14355H16.4598C16.5703 5.14355 16.6763 5.18745 16.7544 5.26559C16.8326 5.34373 16.8765 5.44971 16.8765 5.56022C16.8765 5.67073 16.8326 5.77671 16.7544 5.85485C16.6763 5.93299 16.5703 5.97689 16.4598 5.97689Z" fill="#171723"/>
<path d="M16.4509 14.8563H7.00993C6.89942 14.8563 6.79344 14.8124 6.7153 14.7342C6.63716 14.6561 6.59326 14.5501 6.59326 14.4396C6.59326 14.3291 6.63716 14.2231 6.7153 14.145C6.79344 14.0668 6.89942 14.0229 7.00993 14.0229H16.4509C16.5614 14.0229 16.6673 14.0668 16.7455 14.145C16.8236 14.2231 16.8675 14.3291 16.8675 14.4396C16.8675 14.5501 16.8236 14.6561 16.7455 14.7342C16.6673 14.8124 16.5614 14.8563 16.4509 14.8563Z" fill="#171723"/>
<path d="M16.4549 10.4227H7.00993C6.89942 10.4227 6.79344 10.3788 6.7153 10.3006C6.63716 10.2225 6.59326 10.1165 6.59326 10.006C6.59326 9.89552 6.63716 9.78953 6.7153 9.71139C6.79344 9.63325 6.89942 9.58936 7.00993 9.58936H16.4549C16.5654 9.58936 16.6714 9.63325 16.7496 9.71139C16.8277 9.78953 16.8716 9.89552 16.8716 10.006C16.8716 10.1165 16.8277 10.2225 16.7496 10.3006C16.6714 10.3788 16.5654 10.4227 16.4549 10.4227H16.4549Z" fill="#171723"/>
<path d="M4.37386 6.39335C4.8341 6.39335 5.20719 6.02026 5.20719 5.56002C5.20719 5.09978 4.8341 4.72668 4.37386 4.72668C3.91362 4.72668 3.54053 5.09978 3.54053 5.56002C3.54053 6.02026 3.91362 6.39335 4.37386 6.39335Z" fill="#171723"/>
<path d="M4.37386 10.8395C4.8341 10.8395 5.20719 10.4664 5.20719 10.0062C5.20719 9.54595 4.8341 9.17285 4.37386 9.17285C3.91362 9.17285 3.54053 9.54595 3.54053 10.0062C3.54053 10.4664 3.91362 10.8395 4.37386 10.8395Z" fill="#171723"/>
<path d="M4.37386 15.2734C4.8341 15.2734 5.20719 14.9003 5.20719 14.44C5.20719 13.9798 4.8341 13.6067 4.37386 13.6067C3.91362 13.6067 3.54053 13.9798 3.54053 14.44C3.54053 14.9003 3.91362 15.2734 4.37386 15.2734Z" fill="#171723"/>
</svg>
