<svg width="20" height="20" viewBox="0 0 20 20" fill="none" xmlns="http://www.w3.org/2000/svg">
<g clip-path="url(#clip0_10995_130825)">
<path d="M19.841 3.13592C19.7927 3.09118 19.7357 3.05617 19.6735 3.03287C19.6112 3.00958 19.5448 2.99847 19.4781 3.00017C19.4114 3.00188 19.3457 3.01636 19.2848 3.04281C19.2238 3.06925 19.1688 3.10713 19.123 3.15427L6.80854 15.7775L0.885436 9.39208C0.795044 9.29487 0.668682 9.23654 0.534114 9.22992C0.399545 9.22329 0.267776 9.2689 0.167755 9.35673C0.0677335 9.44456 0.00764115 9.56743 0.000679667 9.69834C-0.00628181 9.82925 0.0404569 9.95749 0.130628 10.0549L6.42138 16.8367C6.42616 16.8419 6.43305 16.8434 6.43802 16.8484C6.44267 16.853 6.44429 16.8593 6.44921 16.8638C6.47818 16.8867 6.50975 16.9063 6.54331 16.9223C6.56309 16.9366 6.5839 16.9495 6.60557 16.9609C6.66553 16.9863 6.73012 16.9996 6.79549 17C6.86085 17.0004 6.92563 16.988 6.98593 16.9635C7.0058 16.9534 7.02496 16.942 7.04329 16.9295C7.07747 16.9141 7.10974 16.895 7.13944 16.8725C7.14503 16.8676 7.14707 16.8606 7.15241 16.8555C7.15688 16.8512 7.16297 16.8499 7.16725 16.8454L19.8599 3.83448C19.906 3.7875 19.9421 3.73212 19.9661 3.67152C19.9901 3.61092 20.0016 3.5463 19.9998 3.48138C19.9981 3.41646 19.9831 3.35251 19.9559 3.29322C19.9286 3.23394 19.8896 3.18048 19.841 3.13592V3.13592Z" fill="#171723"/>
</g>
<defs>
<clipPath id="clip0_10995_130825">
<rect width="20" height="20" fill="white"/>
</clipPath>
</defs>
</svg>
