<svg width="20" height="20" viewBox="0 0 20 20" fill="none" xmlns="http://www.w3.org/2000/svg">
<g clip-path="url(#clip0_10314_145978)">
<path d="M0.550234 11.1394C0.421689 11.1392 0.297985 11.0902 0.204011 11.0021C0.110037 10.914 0.052769 10.7935 0.0437298 10.6647C0.0208886 10.3405 0 10.0064 0 9.67231C0.00126517 7.12941 1.00696 4.69088 2.79642 2.89175C4.58587 1.09263 7.01293 0.079865 9.54505 0.0756836C9.67991 0.0756836 9.80924 0.129484 9.9046 0.225249C9.99996 0.321015 10.0535 0.4509 10.0535 0.586333C10.0535 0.721765 9.99996 0.851651 9.9046 0.947417C9.80924 1.04318 9.67991 1.09698 9.54505 1.09698C7.2826 1.10099 5.11412 2.0061 3.51536 3.61373C1.91659 5.22137 1.01811 7.40023 1.01702 9.67231C1.01702 9.98248 1.03787 10.2927 1.05872 10.5929C1.06813 10.728 1.02374 10.8614 0.93528 10.9637C0.846824 11.066 0.721548 11.1288 0.586977 11.1384C0.575027 11.1394 0.563108 11.1394 0.550234 11.1394Z" fill="#171723"/>
<path d="M0.894259 15.2037C0.782416 15.2037 0.673721 15.1666 0.585011 15.0981C0.496301 15.0297 0.432527 14.9339 0.403568 14.8254C0.374609 14.7169 0.382082 14.6018 0.424828 14.4981C0.467575 14.3943 0.543209 14.3075 0.640016 14.2513L2.82393 12.9826C2.88172 12.9488 2.9456 12.9267 3.0119 12.9177C3.07821 12.9087 3.14563 12.9129 3.2103 12.9301C3.27498 12.9474 3.33562 12.9773 3.38877 13.0181C3.44191 13.0589 3.4865 13.1099 3.51997 13.1681C3.55345 13.2262 3.57516 13.2905 3.58385 13.3571C3.59254 13.4237 3.58804 13.4914 3.57061 13.5563C3.55319 13.6212 3.52317 13.682 3.4823 13.7351C3.44142 13.7883 3.39048 13.8329 3.33241 13.8663L1.1485 15.1349C1.07137 15.1802 0.983596 15.204 0.894259 15.2037V15.2037Z" fill="#171723"/>
<path d="M3.67756 18.3005C3.58387 18.3005 3.49199 18.2746 3.41207 18.2255C3.33215 18.1764 3.26729 18.106 3.22465 18.0223C3.18201 17.9385 3.16325 17.8445 3.17045 17.7507C3.17764 17.6569 3.2105 17.5669 3.2654 17.4906L4.74318 15.4371C4.78226 15.3826 4.83165 15.3364 4.88853 15.3011C4.94541 15.2658 5.00866 15.2421 5.07466 15.2314C5.14066 15.2207 5.20812 15.2231 5.27318 15.2386C5.33824 15.2541 5.39962 15.2823 5.4538 15.3217C5.50799 15.361 5.55392 15.4107 5.58896 15.4679C5.62401 15.5251 5.64748 15.5886 5.65804 15.6549C5.6686 15.7212 5.66604 15.789 5.6505 15.8543C5.63497 15.9196 5.60676 15.9812 5.56749 16.0355L4.08971 18.0891C4.04252 18.1545 3.98057 18.2078 3.90893 18.2445C3.83729 18.2813 3.758 18.3005 3.67756 18.3005V18.3005Z" fill="#171723"/>
<path d="M7.46721 19.9999C7.43152 19.9997 7.39594 19.996 7.36094 19.989C7.22904 19.9606 7.11374 19.8807 7.04038 19.7671C6.96701 19.6534 6.94157 19.5151 6.96964 19.3826L7.49501 16.9091C7.5232 16.7766 7.60265 16.6607 7.71589 16.587C7.82913 16.5133 7.96689 16.4878 8.09885 16.5162C8.23081 16.5445 8.34617 16.6243 8.41955 16.738C8.49294 16.8517 8.51833 16.99 8.49014 17.1226L7.96479 19.596C7.94021 19.7102 7.87745 19.8126 7.78694 19.8861C7.69642 19.9596 7.5836 19.9997 7.46721 19.9999V19.9999Z" fill="#171723"/>
<path d="M11.621 20C11.5047 19.9998 11.392 19.9596 11.3017 19.8861C11.2113 19.8126 11.1487 19.7103 11.1244 19.5961L10.6 17.1226C10.5719 16.9901 10.5974 16.8518 10.6707 16.7381C10.7441 16.6244 10.8594 16.5446 10.9913 16.5162C11.1231 16.4898 11.2599 16.5161 11.3727 16.5895C11.4855 16.6629 11.5653 16.7776 11.5951 16.9092L12.1195 19.3826C12.1476 19.5152 12.1222 19.6534 12.0488 19.7671C11.9754 19.8808 11.8601 19.9606 11.7282 19.989C11.6929 19.9962 11.657 19.9998 11.621 20V20Z" fill="#171723"/>
<path d="M15.4241 18.3006C15.3441 18.3006 15.2653 18.2816 15.194 18.2452C15.1227 18.2088 15.061 18.156 15.0139 18.0911L13.5252 16.0485C13.4457 15.9393 13.4126 15.8028 13.4333 15.6691C13.4539 15.5353 13.5267 15.4153 13.6354 15.3354C13.7442 15.2556 13.8802 15.2223 14.0133 15.2431C14.1465 15.2639 14.266 15.3369 14.3455 15.4461L15.8343 17.4887C15.8896 17.5649 15.9228 17.6549 15.9304 17.7488C15.9379 17.8427 15.9194 17.9369 15.877 18.0209C15.8345 18.105 15.7698 18.1756 15.6898 18.2249C15.6099 18.2743 15.5179 18.3005 15.4241 18.3006V18.3006Z" fill="#171723"/>
<path d="M18.2076 15.2037C18.1182 15.204 18.0305 15.1802 17.9533 15.1349L15.7684 13.8663C15.7104 13.8329 15.6594 13.7883 15.6185 13.7351C15.5777 13.682 15.5477 13.6212 15.5302 13.5563C15.5128 13.4914 15.5083 13.4237 15.517 13.3571C15.5257 13.2905 15.5474 13.2262 15.5809 13.1681C15.6144 13.1099 15.6589 13.0589 15.7121 13.0181C15.7652 12.9773 15.8259 12.9474 15.8905 12.9301C15.9552 12.9129 16.0226 12.9087 16.0889 12.9177C16.1552 12.9267 16.2191 12.9488 16.2769 12.9826L18.4618 14.2513C18.5586 14.3075 18.6343 14.3943 18.677 14.4981C18.7198 14.6018 18.7272 14.7169 18.6983 14.8254C18.6693 14.9339 18.6055 15.0297 18.5168 15.0981C18.4281 15.1666 18.3194 15.2037 18.2076 15.2037Z" fill="#171723"/>
<path d="M19.4925 11.2361C19.4743 11.2361 19.4561 11.2351 19.4379 11.2331L16.9332 10.9648C16.7992 10.9505 16.6763 10.8833 16.5915 10.778C16.5068 10.6727 16.4672 10.538 16.4813 10.4033C16.4975 10.2695 16.5649 10.1473 16.6693 10.0626C16.7737 9.97785 16.9068 9.9373 17.0405 9.94952L19.5452 10.2178C19.6746 10.2316 19.7938 10.2947 19.8782 10.394C19.9627 10.4934 20.006 10.6215 19.9993 10.752C19.9925 10.8825 19.9362 11.0054 19.842 11.0955C19.7477 11.1855 19.6226 11.2359 19.4925 11.2361V11.2361Z" fill="#171723"/>
<path d="M16.6651 7.86013C16.544 7.86019 16.4269 7.81687 16.3348 7.73796C16.2427 7.65905 16.1816 7.54973 16.1626 7.42965C16.1435 7.30958 16.1678 7.18662 16.231 7.08289C16.2941 6.97916 16.3921 6.90147 16.5072 6.86377L18.8947 6.07885C18.9582 6.05795 19.0252 6.04983 19.0919 6.05496C19.1585 6.06008 19.2235 6.07835 19.2832 6.10872C19.3428 6.13909 19.3959 6.18096 19.4394 6.23194C19.4829 6.28292 19.516 6.34201 19.5367 6.40583C19.5574 6.46966 19.5655 6.53696 19.5603 6.6039C19.5551 6.67084 19.5369 6.7361 19.5066 6.79595C19.4763 6.8558 19.4345 6.90906 19.3837 6.9527C19.3329 6.99634 19.2741 7.0295 19.2105 7.05027L16.823 7.8352C16.772 7.85174 16.7187 7.86015 16.6651 7.86013V7.86013Z" fill="#171723"/>
<path d="M15.1017 5.16127C14.9988 5.16127 14.8984 5.12992 14.8136 5.07135C14.7288 5.01279 14.6637 4.92977 14.6269 4.83327C14.5901 4.73676 14.5833 4.63132 14.6074 4.53086C14.6316 4.4304 14.6855 4.33966 14.7621 4.27063L16.647 2.57112C16.7475 2.48155 16.8792 2.43556 17.0134 2.4432C17.1475 2.45085 17.2732 2.5115 17.363 2.61191C17.4527 2.71233 17.4993 2.84433 17.4924 2.97909C17.4856 3.11385 17.4259 3.24041 17.3264 3.33111L15.4414 5.03062C15.3482 5.11494 15.2272 5.16151 15.1017 5.16127V5.16127Z" fill="#171723"/>
<path d="M12.586 3.33311C12.5011 3.33335 12.4175 3.3122 12.3428 3.27161C12.2681 3.23101 12.2048 3.17226 12.1585 3.10073C12.1123 3.02919 12.0847 2.94716 12.0782 2.86214C12.0716 2.77711 12.0865 2.6918 12.1213 2.61401L13.1492 0.302123C13.2043 0.178511 13.3061 0.0819414 13.4321 0.0336246C13.5581 -0.0146921 13.6981 -0.0108054 13.8212 0.0444313C13.9444 0.0996679 14.0407 0.201738 14.089 0.328223C14.1373 0.454709 14.1336 0.595267 14.0787 0.719028L13.0509 3.03091C13.0107 3.12097 12.9454 3.19742 12.8629 3.25105C12.7805 3.30468 12.6843 3.33318 12.586 3.33311V3.33311Z" fill="#171723"/>
</g>
<defs>
<clipPath id="clip0_10314_145978">
<rect width="20" height="20" fill="white"/>
</clipPath>
</defs>
</svg>
