<svg width="20" height="20" viewBox="0 0 20 20" fill="none" xmlns="http://www.w3.org/2000/svg">
<g clip-path="url(#clip0_10314_145182)">
<g clip-path="url(#clip1_10314_145182)">
<path d="M19.9926 17.3375C19.9898 17.3167 19.9856 17.2961 19.98 17.2759C19.9595 17.1875 19.9156 17.1064 19.8531 17.0413L17.8504 15.061C17.7537 14.9671 17.6242 14.9156 17.4901 14.9177C17.356 14.9198 17.2282 14.9754 17.1344 15.0723C17.0406 15.1692 16.9885 15.2996 16.9894 15.4352C16.9903 15.5707 17.0441 15.7005 17.1391 15.7961L18.2497 16.8947H4.06896C3.25986 16.8938 2.48416 16.5685 1.91204 15.9902C1.33993 15.4118 1.01812 14.6277 1.01724 13.8098V8.51415C1.01724 8.37779 0.963653 8.24701 0.868268 8.15059C0.772883 8.05417 0.643514 8 0.50862 8C0.373725 8 0.244356 8.05417 0.148971 8.15059C0.0535867 8.24701 0 8.37779 0 8.51415V13.8098C0.00107721 14.9004 0.430116 15.9459 1.19296 16.7171C1.9558 17.4882 2.99013 17.9219 4.06896 17.923H18.2888L17.1282 19.123C17.0808 19.1712 17.0432 19.2283 17.0178 19.2911C16.9924 19.354 16.9795 19.4213 16.9799 19.4892C16.9804 19.5571 16.9941 19.6243 17.0204 19.6868C17.0466 19.7493 17.0849 19.8059 17.1329 19.8534C17.1809 19.9009 17.2378 19.9383 17.3002 19.9634C17.3626 19.9886 17.4293 20.001 17.4965 19.9999C17.5636 19.9989 17.6299 19.9844 17.6915 19.9573C17.7531 19.9302 17.8088 19.891 17.8553 19.842L19.861 17.7684C19.905 17.722 19.9399 17.6676 19.9639 17.6081L19.9683 17.6027L19.9684 17.6011C19.9995 17.517 20.0078 17.426 19.9926 17.3375V17.3375Z" fill="#171723"/>
<path d="M15.931 2.07129H1.71156L2.87279 0.870571C2.96557 0.772735 3.01642 0.641808 3.01429 0.506255C3.01216 0.370702 2.95721 0.24148 2.86139 0.146682C2.76557 0.0518839 2.63663 -0.000826398 2.5026 9.79917e-06C2.36856 0.000845996 2.24028 0.0551612 2.14562 0.151148L0.138948 2.22602C0.0958014 2.27174 0.0614959 2.32523 0.0378036 2.38371L0.0317001 2.39131L0.031517 2.39357C0.000496357 2.47777 -0.0078174 2.5688 0.00742875 2.65733C0.0102516 2.67821 0.0144624 2.69887 0.0200325 2.71918C0.040557 2.80747 0.0844208 2.88846 0.146933 2.95348L2.14959 4.93541C2.24639 5.02885 2.37569 5.07994 2.50948 5.07761C2.64327 5.07529 2.77076 5.01973 2.86433 4.92298C2.9579 4.82623 3.01 4.69609 3.00935 4.56075C3.0087 4.42541 2.95535 4.29578 2.86086 4.19996L1.74925 3.10018H15.931C16.7401 3.10108 17.5158 3.42657 18.088 4.00524C18.6601 4.58391 18.9819 5.3685 18.9828 6.18686V11.4856C18.9828 11.622 19.0363 11.7528 19.1317 11.8493C19.2271 11.9458 19.3565 12 19.4914 12C19.6263 12 19.7556 11.9458 19.851 11.8493C19.9464 11.7528 20 11.622 20 11.4856V6.18686C19.9989 5.0957 19.5698 4.04956 18.807 3.27799C18.0441 2.50643 17.0098 2.07245 15.931 2.07129V2.07129Z" fill="#171723"/>
</g>
</g>
<defs>
<clipPath id="clip0_10314_145182">
<rect width="20" height="20" fill="white"/>
</clipPath>
<clipPath id="clip1_10314_145182">
<rect width="20" height="20" fill="white"/>
</clipPath>
</defs>
</svg>
