<svg width="24" height="24" viewBox="0 0 24 24" fill="none" xmlns="http://www.w3.org/2000/svg">
<path d="M18.8014 4.58032H5.19929C3.80074 4.58032 2.66699 5.71407 2.66699 7.11262V16.8875C2.66699 18.286 3.80074 19.4198 5.19929 19.4198H18.8014C20.1999 19.4198 21.3337 18.286 21.3337 16.8875V7.11262C21.3337 5.71407 20.1999 4.58032 18.8014 4.58032Z" fill="white"/>
<path d="M18.8013 19.4951H5.19873C4.50746 19.4943 3.84476 19.2193 3.35596 18.7305C2.86716 18.2417 2.59217 17.579 2.59131 16.8877V7.1123C2.59217 6.42104 2.86716 5.75833 3.35596 5.26953C3.84476 4.78073 4.50746 4.50575 5.19873 4.50488H18.8013C19.4925 4.50575 20.1552 4.78073 20.644 5.26953C21.1328 5.75833 21.4078 6.42104 21.4087 7.1123V16.8877C21.4078 17.579 21.1328 18.2417 20.644 18.7305C20.1552 19.2193 19.4925 19.4943 18.8013 19.4951ZM5.19873 4.65527C4.54735 4.65613 3.9229 4.91526 3.46231 5.37586C3.00172 5.83645 2.74258 6.4609 2.74173 7.11227V16.8877C2.74258 17.539 3.00172 18.1635 3.46231 18.6241C3.9229 19.0847 4.54735 19.3438 5.19873 19.3447H18.8013C19.4526 19.3438 20.0771 19.0847 20.5377 18.6241C20.9983 18.1635 21.2574 17.539 21.2583 16.8877V7.1123C21.2574 6.46093 20.9983 5.83648 20.5377 5.37589C20.0771 4.91529 19.4526 4.65616 18.8013 4.6553L5.19873 4.65527Z" fill="#E4E4E4"/>
<path d="M13.7363 14.9265C15.3347 14.9265 16.6304 13.6308 16.6304 12.0325C16.6304 10.4341 15.3347 9.13843 13.7363 9.13843C12.138 9.13843 10.8423 10.4341 10.8423 12.0325C10.8423 13.6308 12.138 14.9265 13.7363 14.9265Z" fill="#FDA135"/>
<path d="M10.1192 14.9265C11.7175 14.9265 13.0132 13.6308 13.0132 12.0325C13.0132 10.4341 11.7175 9.13843 10.1192 9.13843C8.52081 9.13843 7.2251 10.4341 7.2251 12.0325C7.2251 13.6308 8.52081 14.9265 10.1192 14.9265Z" fill="#FB2129"/>
</svg>
