<svg width="20" height="20" viewBox="0 0 20 20" fill="none" xmlns="http://www.w3.org/2000/svg">
<g clip-path="url(#clip0_10314_146457)">
<path d="M19.4915 9.4395H17.6997C18.0962 8.61284 18.2291 7.69411 18.0822 6.79659C17.9352 5.89907 17.5148 5.06198 16.8727 4.38854C15.9783 3.55916 14.7959 3.06795 13.5471 3.00703C12.2984 2.94611 11.0692 3.31966 10.0899 4.05763C9.11055 3.31914 7.88094 2.94536 6.63187 3.00646C5.3828 3.06757 4.20018 3.55936 3.30603 4.38951C2.62931 5.10946 2.20083 6.00871 2.0781 6.96652C1.95537 7.92433 2.14426 8.89486 2.61942 9.74781H0.508466C0.373612 9.74781 0.244282 9.79866 0.148926 9.88918C0.0535702 9.9797 0 10.1025 0 10.2305C0 10.3585 0.0535702 10.4813 0.148926 10.5718C0.244282 10.6623 0.373612 10.7131 0.508466 10.7131H3.17549C3.52235 11.2217 3.93227 11.6888 4.39645 12.1046L9.74229 16.869C9.8363 16.9531 9.96065 17 10.0899 17C10.2191 17 10.3434 16.9531 10.4375 16.869L15.7833 12.1046C16.342 11.6061 16.8219 11.0336 17.2082 10.4049H19.4915C19.6264 10.4049 19.7557 10.354 19.8511 10.2635C19.9464 10.173 20 10.0502 20 9.92221C20 9.7942 19.9464 9.67143 19.8511 9.58091C19.7557 9.4904 19.6264 9.43955 19.4915 9.43955V9.4395ZM4.05085 5.04652C4.39831 4.69604 4.81923 4.41851 5.28652 4.2318C5.75381 4.0451 6.25711 3.95334 6.76402 3.96246C7.86365 3.96645 8.92425 4.34973 9.74828 5.04091C9.84161 5.12187 9.96347 5.16676 10.0899 5.16676C10.2163 5.16676 10.3382 5.12187 10.4315 5.04091C11.2009 4.34872 12.2209 3.96337 13.2809 3.96442C14.341 3.96548 15.3601 4.35285 16.1279 5.04656C16.6738 5.6436 17.0116 6.38644 17.0948 7.17304C17.178 7.95963 17.0026 8.75139 16.5927 9.43955H15.6631L14.4228 8.29038C14.3298 8.20389 14.2055 8.15458 14.0754 8.15265C13.9453 8.15072 13.8193 8.19632 13.7236 8.28002L12.8288 9.06057L11.8387 6.20702C11.8031 6.10905 11.7359 6.02424 11.6465 5.96466C11.5572 5.90508 11.4503 5.87377 11.3412 5.87519C11.2316 5.87833 11.126 5.91499 11.0401 5.9797C10.9542 6.04442 10.8926 6.13374 10.8645 6.23436L9.53473 11.0044L7.94081 7.22698C7.9049 7.14108 7.84363 7.06683 7.76437 7.01316C7.68511 6.95948 7.59121 6.92865 7.49395 6.92437C7.39554 6.91295 7.29588 6.93213 7.20993 6.97905C7.12398 7.02596 7.05638 7.09807 7.01727 7.18456L5.62192 9.74776H3.75118C3.25892 9.03874 3.02205 8.19736 3.07608 7.34976C3.13011 6.50216 3.47212 5.69402 4.05085 5.04652V5.04652ZM15.0881 11.4012L10.0899 15.8555L5.0917 11.4012C4.85188 11.1871 4.62831 10.9571 4.42266 10.7131H5.93177C6.02506 10.713 6.11652 10.6886 6.1962 10.6425C6.27588 10.5965 6.34071 10.5306 6.38364 10.4519L7.41049 8.56561L9.16132 12.7163C9.19906 12.8058 9.26415 12.8826 9.34822 12.9367C9.43228 12.9908 9.53148 13.0197 9.63305 13.0199C9.64298 13.0199 9.65391 13.0199 9.66383 13.0189C9.77056 13.0128 9.87253 12.9748 9.95526 12.9105C10.038 12.8462 10.0972 12.7588 10.1246 12.6607L11.4087 8.05371L12.1098 10.073C12.1363 10.1496 12.1826 10.2187 12.2446 10.2739C12.3065 10.3291 12.3821 10.3686 12.4644 10.3888C12.5464 10.4103 12.633 10.4114 12.7156 10.3919C12.7982 10.3724 12.8742 10.333 12.9361 10.2775L14.0563 9.29995L15.101 10.2672C15.196 10.3556 15.3236 10.405 15.4566 10.4048H16.0002C15.7318 10.7649 15.4263 11.0987 15.0881 11.4013V11.4012Z" fill="#171723"/>
</g>
<defs>
<clipPath id="clip0_10314_146457">
<rect width="20" height="20" fill="white"/>
</clipPath>
</defs>
</svg>
