<svg width="20" height="20" viewBox="0 0 20 20" fill="none" xmlns="http://www.w3.org/2000/svg">
<path d="M16.3853 8.03633C16.8886 7.69587 17.3042 7.2323 17.5958 6.68609C17.8873 6.13988 18.046 5.52767 18.0579 4.90292C18.0697 4.27817 17.9345 3.65989 17.664 3.1021C17.3934 2.5443 16.9958 2.06395 16.5058 1.70302C16.0158 1.34208 15.4484 1.11153 14.8531 1.03151C14.2578 0.951491 13.6528 1.02443 13.0908 1.24397C12.5288 1.4635 12.027 1.82295 11.6293 2.2909C11.2315 2.75886 10.9498 3.3211 10.8089 3.9285C10.2741 3.79354 9.71595 3.79414 9.18139 3.93025C9.04052 3.3249 8.75986 2.7645 8.36377 2.29768C7.96769 1.83086 7.46814 1.47173 6.9085 1.25148C6.34885 1.03122 5.74603 0.95649 5.15236 1.03377C4.55868 1.11105 3.99209 1.33801 3.50178 1.69494C3.01146 2.05187 2.61224 2.528 2.33876 3.08197C2.06528 3.63595 1.92581 4.25105 1.93245 4.87387C1.9391 5.49669 2.09166 6.10841 2.37689 6.65592C2.66213 7.20344 3.07141 7.67021 3.56922 8.01572C2.51627 8.44221 1.61188 9.19033 0.974865 10.1618C0.337851 11.1332 -0.00198362 12.2825 8.71031e-06 13.4588V14.369C0.000436762 14.8489 0.183758 15.309 0.509733 15.6484C0.835709 15.9877 1.2777 16.1786 1.7387 16.179H4.386C4.38544 16.2129 4.38085 16.2463 4.38085 16.2803V17.1926C4.3813 17.6717 4.56429 18.1311 4.88967 18.4699C5.21506 18.8087 5.65626 18.9994 6.11649 19H13.8784C14.3386 18.9994 14.7798 18.8087 15.1052 18.4699C15.4306 18.1311 15.6136 17.6717 15.614 17.1926V16.5088C15.614 16.3964 15.5905 16.2901 15.5848 16.179H18.2613C18.7223 16.1786 19.1643 15.9877 19.4903 15.6484C19.8162 15.309 19.9996 14.8489 20 14.369V13.681C20.0021 12.4732 19.6597 11.292 19.0162 10.2871C18.3727 9.28217 17.457 8.49881 16.3853 8.03633ZM14.3779 2.05853C14.7578 2.05683 15.1337 2.14012 15.48 2.30276C15.8264 2.46541 16.1352 2.70361 16.3854 3.00125C16.6357 3.29889 16.8216 3.64903 16.9306 4.02796C17.0396 4.40689 17.0691 4.80578 17.0172 5.19762C16.9652 5.58947 16.8331 5.96512 16.6296 6.29917C16.4261 6.63322 16.156 6.91787 15.8377 7.13384C15.5194 7.34982 15.1602 7.49209 14.7845 7.55102C14.4088 7.60995 14.0253 7.58417 13.66 7.47542C13.6294 6.8263 13.44 6.19607 13.1098 5.64455C12.7795 5.09303 12.3194 4.63852 11.773 4.32417C11.8847 3.68929 12.2064 3.11514 12.6822 2.70131C13.1579 2.28748 13.7579 2.06007 14.3779 2.05853V2.05853ZM10.981 5.08748C11.0004 5.09573 11.0202 5.10272 11.0404 5.10842C11.6056 5.35893 12.0702 5.80509 12.3555 6.37134C12.6408 6.93759 12.7294 7.58912 12.6062 8.21555C12.4829 8.84199 12.1555 9.40483 11.6793 9.80873C11.2032 10.2126 10.6075 10.4328 9.99328 10.4319C9.37906 10.4309 8.78402 10.209 8.30896 9.8037C7.83389 9.39838 7.50801 8.83457 7.38651 8.20777C7.26501 7.58097 7.35536 6.92971 7.64226 6.36431C7.92915 5.79892 8.39496 5.35414 8.96077 5.10532C8.97517 5.09931 8.99128 5.09791 9.00501 5.09065C9.63766 4.8192 10.3475 4.81806 10.981 5.08747V5.08748ZM2.94899 4.83197C2.94693 4.14111 3.1934 3.47448 3.63987 2.96333C4.08633 2.45219 4.70043 2.13358 5.36126 2.07022C6.02209 2.00687 6.68176 2.20337 7.21038 2.62103C7.739 3.03869 8.09827 3.64724 8.21746 4.32688C7.66923 4.64312 7.2081 5.1005 6.87818 5.65528C6.54825 6.21005 6.36056 6.84367 6.33306 7.49553C6.09878 7.56506 5.85669 7.60199 5.6131 7.60536C4.90681 7.60448 4.22968 7.31201 3.73025 6.79209C3.23081 6.27217 2.94985 5.56725 2.94899 4.83197ZM1.73861 15.1205C1.5472 15.1203 1.36367 15.0411 1.22832 14.9001C1.09297 14.7592 1.01686 14.5682 1.0167 14.3689V13.4587C1.01725 12.7905 1.15167 12.1298 1.41138 11.5188C1.67109 10.9077 2.05037 10.3598 2.52499 9.91001C2.99923 9.45902 3.55962 9.11739 4.16946 8.90746C4.7793 8.69752 5.42485 8.62403 6.06386 8.69178C6.21299 8.70987 6.35256 8.74489 6.4948 8.775C6.73755 9.61546 7.24974 10.3439 7.94593 10.8388C7.07211 11.1941 6.29814 11.7724 5.69521 12.5206C5.09228 13.2688 4.67974 14.1628 4.49556 15.1204L1.73861 15.1205ZM14.5973 17.1925C14.5971 17.391 14.5213 17.5813 14.3866 17.7217C14.2518 17.8621 14.0691 17.9411 13.8784 17.9414H6.11652C5.92588 17.9411 5.74314 17.8621 5.60838 17.7217C5.47362 17.5813 5.39784 17.391 5.39766 17.1925V16.2803C5.39829 15.613 5.53258 14.9532 5.79193 14.343C6.05129 13.7327 6.43002 13.1855 6.90394 12.7362C7.74678 11.9319 8.84962 11.4874 9.993 11.4912H9.99313L9.99797 11.4917L9.99971 11.4915C10.1494 11.4917 10.3001 11.4991 10.4508 11.5139C11.611 11.6698 12.6754 12.2654 13.4404 13.1869C14.2053 14.1084 14.6172 15.291 14.5973 16.5088V17.1925ZM18.9832 14.369C18.983 14.5682 18.9069 14.7593 18.7715 14.9002C18.6362 15.0411 18.4527 15.1203 18.2613 15.1205H15.4462C15.2431 14.176 14.8253 13.2961 14.2277 12.5547C13.6301 11.8133 12.8703 11.232 12.0121 10.8599C12.725 10.367 13.2508 9.63107 13.4991 8.77845C13.9349 8.68034 14.3825 8.65148 14.8267 8.69285C15.9875 8.84651 17.0533 9.44023 17.8201 10.3605C18.5869 11.2807 19.001 12.4629 18.9832 13.681L18.9832 14.369Z" fill="#171723"/>
</svg>
