<svg width="20" height="20" viewBox="0 0 20 20" fill="none" xmlns="http://www.w3.org/2000/svg">
<g clip-path="url(#clip0_10317_146892)">
<path d="M14.8611 2.22223H5.13883C3.528 2.22223 2.22217 3.52806 2.22217 5.1389V14.8611C2.22217 16.472 3.528 17.7778 5.13883 17.7778H14.8611C16.4719 17.7778 17.7777 16.472 17.7777 14.8611V5.1389C17.7777 3.52806 16.4719 2.22223 14.8611 2.22223Z" stroke="#171723" stroke-linecap="round" stroke-linejoin="round"/>
<path d="M15.1655 8.94821C15.123 8.94984 15.0806 8.95412 15.0386 8.96101L13.4109 6.14104C13.4994 6.02203 13.5616 5.88557 13.5934 5.74069C13.6252 5.59582 13.6258 5.44585 13.5952 5.30072C13.5647 5.15558 13.5036 5.0186 13.4161 4.89885C13.3286 4.77909 13.2167 4.6793 13.0877 4.60608C12.9587 4.53286 12.8156 4.48789 12.6679 4.47415C12.5203 4.4604 12.3713 4.4782 12.2311 4.52635C12.0908 4.57451 11.9623 4.65193 11.8542 4.75348C11.7461 4.85503 11.6609 4.97839 11.604 5.11539H8.41976C8.36478 4.97735 8.28106 4.85259 8.17415 4.74941C8.06724 4.64622 7.93959 4.56697 7.79969 4.51693C7.65979 4.46688 7.51084 4.44719 7.36273 4.45915C7.21463 4.47111 7.07077 4.51446 6.94072 4.58631C6.81066 4.65816 6.69739 4.75687 6.60842 4.87588C6.51946 4.99488 6.45685 5.13146 6.42474 5.27654C6.39264 5.42161 6.39178 5.57186 6.42222 5.71729C6.45266 5.86272 6.51371 6.00001 6.6013 6.12002L4.96107 8.96097C4.91922 8.95412 4.87699 8.94985 4.83462 8.94821C4.55654 8.94821 4.28986 9.05867 4.09323 9.2553C3.8966 9.45193 3.78613 9.71862 3.78613 9.99669C3.78613 10.2748 3.8966 10.5415 4.09323 10.7381C4.28986 10.9347 4.55654 11.0452 4.83462 11.0452C4.8771 11.0435 4.91944 11.0393 4.9614 11.0324L6.61024 13.889C6.52449 14.0098 6.46535 14.1474 6.43674 14.2928C6.40813 14.4381 6.4107 14.5879 6.44428 14.7322C6.47786 14.8765 6.54168 15.012 6.63153 15.1298C6.72138 15.2476 6.8352 15.345 6.96548 15.4155C7.09576 15.486 7.23953 15.5281 7.38728 15.5389C7.53503 15.5498 7.68339 15.5291 7.82257 15.4784C7.96174 15.4276 8.08856 15.3479 8.19463 15.2444C8.3007 15.141 8.38361 15.0162 8.43787 14.8784H11.6809C11.7426 15.013 11.8323 15.133 11.9439 15.2304C12.0556 15.3277 12.1866 15.4003 12.3284 15.4432C12.4701 15.4861 12.6194 15.4984 12.7663 15.4792C12.9131 15.4601 13.0543 15.41 13.1803 15.3322C13.3064 15.2544 13.4145 15.1507 13.4974 15.028C13.5804 14.9053 13.6364 14.7664 13.6616 14.6205C13.6868 14.4745 13.6807 14.3249 13.6438 14.1814C13.6068 14.038 13.5398 13.904 13.4472 13.7885L15.0389 11.0324C15.0808 11.0393 15.1231 11.0435 15.1656 11.0452C15.4436 11.0452 15.7103 10.9347 15.907 10.7381C16.1036 10.5415 16.214 10.2748 16.214 9.99669C16.214 9.71862 16.1036 9.45193 15.907 9.2553C15.7103 9.05867 15.4436 8.94821 15.1656 8.94821H15.1655ZM14.4177 9.26302L12.7254 8.43957C12.757 8.25372 12.7344 8.06269 12.6602 7.88937C12.5861 7.71605 12.4635 7.56779 12.3072 7.46236L12.5913 6.56468C12.6829 6.5621 12.7737 6.54742 12.8613 6.52102L14.4346 9.24663L14.4177 9.26302ZM11.6049 14.2126H8.47038C8.42009 14.0297 8.32091 13.8639 8.1835 13.7332L9.04189 11.8789C9.23437 11.9109 9.43203 11.8781 9.60388 11.7857L11.7011 13.9561C11.6578 14.037 11.6255 14.1232 11.6049 14.2126ZM11.9565 6.36357L11.6728 7.25971C11.4455 7.26389 11.2259 7.34253 11.0477 7.48357L8.46795 5.78117H11.5607C11.6213 6.01524 11.7611 6.22106 11.9565 6.36357ZM8.09101 6.32976L10.6805 8.03898C10.6099 8.28354 10.6365 8.54593 10.7549 8.77128L9.61973 9.90648C9.48002 9.8357 9.32608 9.79751 9.16948 9.79478L8.06712 6.34942C8.07541 6.34328 8.08288 6.33609 8.09101 6.32976ZM10.0937 10.374L11.2258 9.24192C11.4228 9.34254 11.6469 9.37725 11.8652 9.34093C12.0834 9.30462 12.2842 9.19921 12.438 9.04021L14.039 9.81938L10.0937 10.374ZM7.14712 6.50603C7.23984 6.53525 7.3362 6.55131 7.43337 6.55374L8.53558 9.99974C8.41777 10.087 8.31961 10.1981 8.24747 10.3258L5.86937 9.86052C5.8401 9.62733 5.73287 9.41088 5.56508 9.24631L7.14712 6.50603ZM5.74177 10.5134L8.12027 10.9788C8.15068 11.2167 8.26223 11.4367 8.4361 11.6019L7.57762 13.4561C7.43482 13.4315 7.28803 13.4458 7.15262 13.4974L5.56508 10.7471C5.63463 10.6778 5.69411 10.5991 5.74177 10.5134ZM12.8888 13.424C12.6519 13.3578 12.3988 13.3822 12.1788 13.4924L10.0818 11.3222C10.1301 11.2316 10.1646 11.1343 10.1841 11.0336L14.2317 10.4644C14.2832 10.5693 14.352 10.6649 14.435 10.7471L12.8888 13.424Z" fill="#171723"/>
</g>
<defs>
<clipPath id="clip0_10317_146892">
<rect width="20" height="20" fill="white"/>
</clipPath>
</defs>
</svg>
