<svg width="20" height="20" viewBox="0 0 20 20" fill="none" xmlns="http://www.w3.org/2000/svg">
<g clip-path="url(#clip0_10317_146892)">
<path d="M15.9322 20H4.06779C1.82478 20 0 18.1752 0 15.9322V4.06779C0 1.82478 1.82478 0 4.06779 0H15.9322C18.1752 0 20 1.82478 20 4.06779V15.9322C20 18.1752 18.1752 20 15.9322 20ZM4.06779 1.01695C2.38552 1.01695 1.01695 2.38552 1.01695 4.06779V15.9322C1.01695 17.6145 2.38552 18.9831 4.06779 18.9831H15.9322C17.6145 18.9831 18.9831 17.6145 18.9831 15.9322V4.06779C18.9831 2.38552 17.6145 1.01695 15.9322 1.01695H4.06779Z" fill="#171723"/>
<path d="M16.3037 8.71644C16.2506 8.71644 16.2002 8.72576 16.1488 8.73206L14.1624 5.29075C14.3209 5.07771 14.4179 4.81647 14.4179 4.53059C14.4179 3.82394 13.8451 3.25108 13.1384 3.25108C12.606 3.25108 12.1502 3.57654 11.9575 4.03911H8.07157C7.88204 3.56945 7.42383 3.23724 6.88629 3.23724C6.17964 3.23724 5.60678 3.81005 5.60678 4.51675C5.60678 4.79708 5.69952 5.05424 5.85245 5.26505L3.85082 8.732C3.79964 8.72575 3.74936 8.71643 3.6965 8.71643C2.98985 8.71643 2.41699 9.28928 2.41699 9.99593C2.41699 10.7026 2.98985 11.2754 3.6965 11.2754C3.74946 11.2754 3.79984 11.2661 3.85121 11.2599L5.86336 14.7458C5.71538 14.9546 5.62662 15.208 5.62662 15.4832C5.62662 16.1899 6.19948 16.7628 6.90613 16.7628C7.44645 16.7628 7.90605 16.4268 8.0937 15.9533H12.0512C12.2552 16.389 12.6944 16.6928 13.2075 16.6928C13.9141 16.6928 14.487 16.12 14.487 15.4133C14.487 15.1135 14.3795 14.8413 14.2067 14.6232L16.1492 11.2599C16.2004 11.2661 16.2508 11.2754 16.3037 11.2754C17.0103 11.2754 17.5831 10.7026 17.5831 9.99593C17.5831 9.28928 17.0103 8.71643 16.3037 8.71643L16.3037 8.71644ZM15.3911 9.10061L13.3259 8.09573C13.3327 8.04193 13.3422 7.98891 13.3422 7.93328C13.3422 7.50909 13.1334 7.13603 12.8156 6.9032L13.1623 5.80772C13.2771 5.80559 13.3864 5.78491 13.4918 5.75446L15.4117 9.08063C15.4048 9.08732 15.3978 9.09376 15.3911 9.10061V9.10061ZM11.9585 15.1408H8.13336C8.07008 14.9142 7.94938 14.7128 7.78325 14.5557L8.83078 12.2929C8.8768 12.2979 8.92143 12.3068 8.96874 12.3068C9.16561 12.3068 9.34998 12.2587 9.5166 12.1792L12.0759 14.8277C12.0249 14.9261 11.9827 15.0295 11.9585 15.1408V15.1408ZM12.3875 5.5623L12.0414 6.6559C11.7527 6.66076 11.4903 6.76341 11.2785 6.92909L8.13038 4.85159H11.9045C11.9799 5.14159 12.1523 5.39067 12.3875 5.5623V5.5623ZM7.67039 5.52104L10.8304 7.60688C10.8027 7.71166 10.7832 7.81976 10.7832 7.93328C10.7832 8.13808 10.8358 8.3289 10.9213 8.50053L9.53595 9.88586C9.36953 9.80284 9.18457 9.75226 8.98651 9.74953L7.64125 5.54504C7.65137 5.53756 7.66049 5.52878 7.6704 5.52104H7.67039ZM10.1144 10.4564L11.4959 9.07487C11.6674 9.16026 11.8581 9.21278 12.0627 9.21278C12.4205 9.21278 12.743 9.0653 12.9752 8.82871L14.9289 9.77958L10.1144 10.4564V10.4564ZM6.51854 5.73616C6.63001 5.76978 6.74585 5.79259 6.86785 5.79438L8.21291 9.99966C8.0689 10.1058 7.95029 10.2414 7.86132 10.3975L4.95925 9.82977C4.92096 9.53759 4.78886 9.27586 4.58792 9.08023L6.51854 5.73617V5.73616ZM4.80354 10.6264L7.70611 11.1944C7.74538 11.4925 7.88364 11.758 8.09152 11.9548L7.04389 14.2176C6.99798 14.2127 6.95334 14.2037 6.90614 14.2037C6.77264 14.2037 6.64639 14.23 6.52529 14.2679L4.58793 10.9117C4.67362 10.8282 4.74384 10.7309 4.80355 10.6264H4.80354ZM13.5253 14.1784C13.4231 14.1521 13.3178 14.1338 13.2075 14.1338C13.0103 14.1338 12.8257 14.1821 12.6589 14.2618L10.0999 11.6134C10.157 11.5036 10.2014 11.3868 10.2247 11.2612L15.1642 10.5667C15.2286 10.695 15.3103 10.8125 15.4123 10.9117L13.5253 14.1784V14.1784Z" fill="#171723"/>
</g>
<defs>
<clipPath id="clip0_10317_146892">
<rect width="20" height="20" fill="white"/>
</clipPath>
</defs>
</svg>
