<svg width="20" height="20" viewBox="0 0 20 20" fill="none" xmlns="http://www.w3.org/2000/svg">
<g clip-path="url(#clip0_10317_146906)">
<path d="M8.08748 11.948L7.03975 14.2166C6.99616 14.2082 6.95174 14.2048 6.90737 14.2065C6.77612 14.206 6.64564 14.2266 6.52092 14.2675L4.58789 10.9104C4.6703 10.8244 4.74206 10.7287 4.80161 10.6255L7.70092 11.1952C7.74097 11.4827 7.87723 11.748 8.08748 11.948Z" fill="#171723"/>
<path d="M4.95423 9.82192C4.92368 9.53887 4.7939 9.27578 4.58789 9.07929L6.52092 5.73236C6.63402 5.76338 6.74975 5.78382 6.86664 5.7934L8.2096 9.99486C8.0681 10.1018 7.95032 10.2369 7.86371 10.3916L4.95423 9.82192Z" fill="#171723"/>
<path d="M8.98256 9.75084L7.63965 5.53921C7.64982 5.52903 7.66 5.52903 7.67017 5.51886L10.8341 7.60433C10.8015 7.70982 10.7844 7.81947 10.7832 7.92987C10.7833 8.12855 10.8322 8.32416 10.9255 8.49955L9.5319 9.88309C9.36171 9.7965 9.17352 9.75119 8.98256 9.75084Z" fill="#171723"/>
<path d="M9.51208 12.1719L12.0757 14.8271C12.0234 14.9263 11.9856 15.0325 11.9637 15.1425H8.12843C8.0687 14.9181 7.94921 14.7142 7.78271 14.5524L8.83049 12.294C8.88135 12.294 8.92204 12.3042 8.97291 12.3042C9.16046 12.3026 9.34507 12.2573 9.51208 12.1719V12.1719Z" fill="#171723"/>
<path d="M11.2822 6.92265L8.12842 4.84735H11.9027C11.9831 5.13179 12.1547 5.38198 12.391 5.55946L12.0451 6.64798C11.7682 6.65665 11.5011 6.75281 11.2822 6.92265Z" fill="#171723"/>
<path d="M11.4959 9.0691C11.6713 9.16254 11.8669 9.21145 12.0656 9.21153C12.4099 9.20896 12.7392 9.06993 12.9811 8.82495L14.9343 9.78121L10.1123 10.4526L11.4959 9.0691Z" fill="#171723"/>
<path d="M15.1683 10.5646C15.2282 10.6937 15.3109 10.8109 15.4124 10.9105L13.5304 14.1761C13.4234 14.1519 13.3144 14.1382 13.2048 14.1354C13.0149 14.1346 12.8272 14.1763 12.6555 14.2574L10.1021 11.6125C10.1593 11.5001 10.2004 11.3803 10.2241 11.2564L15.1683 10.5646Z" fill="#171723"/>
<path d="M13.4896 5.75281L15.4125 9.07939C15.4023 9.07939 15.4023 9.08956 15.3921 9.09973L13.327 8.0926C13.3388 8.03909 13.3456 7.9846 13.3474 7.92983C13.3463 7.72903 13.2978 7.53131 13.2059 7.35277C13.114 7.17424 12.9812 7.01993 12.8184 6.90241L13.1642 5.80372C13.2746 5.8025 13.3842 5.78535 13.4896 5.75281Z" fill="#171723"/>
<path d="M15.9306 -0.00512683H4.06872C3.53431 -0.00526048 3.0051 0.0999014 2.51134 0.304351C2.01758 0.5088 1.56894 0.808531 1.19106 1.18642C0.81317 1.56431 0.513439 2.01295 0.30899 2.5067C0.10454 3.00046 -0.000621808 3.52967 -0.000488154 4.06408V15.936C0.000946456 17.0148 0.430126 18.049 1.19294 18.8118C1.95575 19.5746 2.98994 20.0038 4.06872 20.0052H15.9306C17.0094 20.0038 18.0436 19.5746 18.8064 18.8118C19.5692 18.049 19.9984 17.0148 19.9998 15.936V4.06408C20 3.52967 19.8948 3.00046 19.6904 2.5067C19.4859 2.01295 19.1862 1.56431 18.8083 1.18642C18.4304 0.808531 17.9818 0.5088 17.488 0.304351C16.9942 0.0999014 16.465 -0.00526048 15.9306 -0.00512683ZM16.3069 11.2768C16.2556 11.275 16.2045 11.2682 16.1545 11.2564L14.2114 14.6237C14.3916 14.8486 14.4886 15.1289 14.486 15.4172C14.4849 15.7069 14.3853 15.9876 14.2035 16.2132C14.0218 16.4388 13.7687 16.5958 13.4859 16.6586C13.203 16.7213 12.9073 16.6859 12.6472 16.5583C12.3871 16.4307 12.1782 16.2184 12.0547 15.9563H8.09732C8.00075 16.1931 7.83609 16.3958 7.62421 16.5389C7.41232 16.6819 7.16274 16.7589 6.90707 16.76C6.67259 16.7608 6.4424 16.697 6.24174 16.5757C6.04108 16.4544 5.8777 16.2801 5.76948 16.0721C5.66126 15.8641 5.6124 15.6303 5.62823 15.3963C5.64407 15.1624 5.72399 14.9373 5.85925 14.7458L3.845 11.2564C3.79495 11.2682 3.74388 11.275 3.6925 11.2768C3.35255 11.2768 3.02652 11.1417 2.78613 10.9013C2.54575 10.6609 2.4107 10.3349 2.4107 9.99495C2.4107 9.655 2.54575 9.32897 2.78613 9.08858C3.02652 8.8482 3.35255 8.71315 3.6925 8.71315C3.74388 8.71491 3.79495 8.72173 3.845 8.7335L5.84908 5.2645C5.71036 5.07319 5.62721 4.84726 5.60882 4.61166C5.59043 4.37607 5.63752 4.13997 5.74488 3.92946C5.85225 3.71894 6.01571 3.54219 6.21721 3.41874C6.41871 3.29529 6.65042 3.22993 6.88673 3.22989C7.14141 3.22974 7.39023 3.30634 7.60073 3.4497C7.81124 3.59306 7.97365 3.79652 8.0668 4.03356H11.9528C12.0523 3.80044 12.2183 3.60181 12.43 3.46249C12.6417 3.32317 12.8898 3.24934 13.1432 3.25024C13.4805 3.25037 13.8038 3.38439 14.0423 3.62284C14.2807 3.86128 14.4147 4.18465 14.4149 4.52187C14.4163 4.79724 14.3269 5.06541 14.1606 5.28484L16.1545 8.7335C16.2045 8.72173 16.2556 8.71491 16.307 8.71315C16.6469 8.71315 16.9729 8.8482 17.2133 9.08858C17.4537 9.32897 17.5888 9.655 17.5888 9.99495C17.5888 10.3349 17.4537 10.6609 17.2133 10.9013C16.9729 11.1417 16.6469 11.2768 16.307 11.2768H16.3069Z" fill="#171723"/>
</g>
<defs>
<clipPath id="clip0_10317_146906">
<rect width="20" height="20" fill="white"/>
</clipPath>
</defs>
</svg>
