<svg width="20" height="20" viewBox="0 0 20 20" fill="none" xmlns="http://www.w3.org/2000/svg">
<g clip-path="url(#clip0_10314_144686)">
<g clip-path="url(#clip1_10314_144686)">
<path d="M16.7802 5.77019C16.7134 5.77016 16.6473 5.78328 16.5856 5.80882C16.5239 5.83437 16.4678 5.87182 16.4206 5.91904C16.3733 5.96627 16.3359 6.02234 16.3104 6.08405C16.2848 6.14576 16.2717 6.2119 16.2717 6.27869V16.4336C16.2708 17.1096 16.0017 17.7577 15.5236 18.2356C15.0455 18.7135 14.3973 18.9823 13.7213 18.983H3.56739C2.89137 18.9823 2.24323 18.7135 1.76511 18.2356C1.287 17.7577 1.01795 17.1096 1.01698 16.4336V6.27869C1.01775 5.60251 1.2867 4.95425 1.76483 4.47612C2.24295 3.99799 2.89122 3.72905 3.56739 3.72829H13.7213C13.8562 3.72829 13.9855 3.67471 14.0809 3.57935C14.1762 3.48399 14.2298 3.35466 14.2298 3.2198C14.2298 3.08493 14.1762 2.9556 14.0809 2.86024C13.9855 2.76488 13.8562 2.7113 13.7213 2.7113H3.56739C2.62155 2.71225 1.71472 3.0884 1.04591 3.75721C0.377102 4.42602 0.000947703 5.33285 0 6.27869V16.4336C0.00115505 17.3793 0.377407 18.2859 1.0462 18.9545C1.715 19.6231 2.62171 19.9991 3.56739 20H13.7213C14.667 19.9991 15.5737 19.6231 16.2425 18.9545C16.9113 18.2859 17.2876 17.3793 17.2887 16.4336V6.27869C17.2887 6.2119 17.2756 6.14576 17.2501 6.08405C17.2245 6.02234 17.1871 5.96627 17.1399 5.91904C17.0926 5.87182 17.0366 5.83436 16.9749 5.80882C16.9131 5.78328 16.847 5.77016 16.7802 5.77019V5.77019Z" fill="#171723"/>
<path d="M19.962 0.314329C19.9234 0.221533 19.8583 0.142199 19.7748 0.0862789C19.6913 0.030359 19.5931 0.000344084 19.4927 0H15.4247C15.2899 0 15.1605 0.0535731 15.0652 0.148934C14.9698 0.244294 14.9162 0.373631 14.9162 0.508491C14.9162 0.643352 14.9698 0.772689 15.0652 0.868049C15.1605 0.96341 15.2899 1.01698 15.4247 1.01698H18.2652L12.344 6.93811C12.296 6.98515 12.2578 7.04123 12.2316 7.10312C12.2054 7.16501 12.1918 7.23148 12.1914 7.29868C12.1911 7.36588 12.2041 7.43248 12.2296 7.49463C12.2552 7.55678 12.2928 7.61325 12.3403 7.66077C12.3878 7.70829 12.4443 7.74591 12.5065 7.77147C12.5686 7.79703 12.6352 7.81002 12.7024 7.80968C12.7696 7.80934 12.8361 7.79568 12.898 7.7695C12.9599 7.74331 13.0159 7.70511 13.063 7.65712L18.9841 1.73597V4.5764C18.9841 4.71126 19.0377 4.8406 19.1331 4.93596C19.2284 5.03132 19.3578 5.08489 19.4926 5.08489C19.6275 5.08489 19.7568 5.03132 19.8522 4.93596C19.9475 4.8406 20.0011 4.71126 20.0011 4.5764V0.508471C20.0009 0.44182 19.9877 0.375853 19.962 0.314329V0.314329Z" fill="#171723"/>
</g>
</g>
<defs>
<clipPath id="clip0_10314_144686">
<rect width="20" height="20" fill="white"/>
</clipPath>
<clipPath id="clip1_10314_144686">
<rect width="20" height="20" fill="white"/>
</clipPath>
</defs>
</svg>
