<svg width="20" height="20" viewBox="0 0 20 20" fill="none" xmlns="http://www.w3.org/2000/svg">
<g clip-path="url(#clip0_10995_130752)">
<g clip-path="url(#clip1_10995_130752)">
<path d="M13.7727 7.57228L4.20952 2.21825C3.77639 1.99215 3.29199 1.88231 2.8037 1.89948C2.31541 1.91665 1.83993 2.06024 1.42375 2.3162C0.984865 2.58363 0.622949 2.96044 0.37343 3.40975C0.123911 3.85905 -0.00465873 4.36545 0.000306388 4.87937V15.1219C-0.00449064 15.6358 0.124003 16.1422 0.37325 16.5916C0.622498 17.041 0.983988 17.4182 1.42246 17.6863C1.86639 17.9577 2.37646 18.1016 2.89676 18.1023C3.36018 18.1011 3.81654 17.9886 4.22731 17.774L13.7715 12.434C14.2038 12.1922 14.5638 11.8396 14.8144 11.4124C15.0651 10.9851 15.1973 10.4988 15.1974 10.0035C15.1976 9.50817 15.0656 9.02178 14.8152 8.59442C14.5648 8.16707 14.2049 7.81422 13.7728 7.57223L13.7727 7.57228Z" fill="#171723"/>
<path d="M20 3.20031V16.7997C20 17.1452 19.8628 17.4765 19.6185 17.7208C19.3742 17.965 19.0429 18.1023 18.6974 18.1023C18.352 18.1023 18.0206 17.965 17.7764 17.7208C17.5321 17.4765 17.3949 17.1452 17.3949 16.7997V3.20031C17.3949 2.85484 17.5321 2.52353 17.7764 2.27925C18.0206 2.03497 18.352 1.89774 18.6974 1.89774C19.0429 1.89774 19.3742 2.03497 19.6185 2.27925C19.8628 2.52353 20 2.85484 20 3.20031Z" fill="#171723"/>
</g>
</g>
<defs>
<clipPath id="clip0_10995_130752">
<rect width="20" height="20" fill="white"/>
</clipPath>
<clipPath id="clip1_10995_130752">
<rect width="20" height="20" fill="white"/>
</clipPath>
</defs>
</svg>
