<svg width="20" height="20" viewBox="0 0 20 20" fill="none" xmlns="http://www.w3.org/2000/svg">
<path d="M9.51174 9.16767L4.26162 6.2282C4.05178 6.1188 3.81718 6.06561 3.58068 6.07382C3.34418 6.08203 3.11384 6.15135 2.91209 6.27504C2.69942 6.40484 2.52405 6.58759 2.40314 6.80543C2.28222 7.02328 2.21989 7.26876 2.22223 7.51791V12.4826C2.21989 12.7317 2.28223 12.9772 2.40314 13.1951C2.52406 13.4129 2.69942 13.5957 2.91209 13.7254C3.12681 13.857 3.37363 13.9267 3.62542 13.927C3.85027 13.9263 4.07164 13.8715 4.27091 13.7674L9.51117 10.8359C9.65939 10.7529 9.78281 10.6318 9.86874 10.4853C9.95466 10.3387 9.99999 10.1719 10.0001 10.002C10.0001 9.83206 9.95491 9.66521 9.8691 9.51857C9.78328 9.37194 9.65994 9.25081 9.51178 9.16766L9.51174 9.16767Z" fill="#171723"/>
<path d="M17.2896 9.16767L12.0394 6.2282C11.8296 6.1188 11.595 6.06561 11.3585 6.07382C11.122 6.08203 10.8917 6.15135 10.6899 6.27504C10.4773 6.40484 10.3019 6.58759 10.181 6.80544C10.0601 7.02329 9.99772 7.26878 10.0001 7.51792V12.4826C9.99773 12.7317 10.0601 12.9772 10.181 13.1951C10.3019 13.4129 10.4773 13.5957 10.6899 13.7255C10.9046 13.857 11.1515 13.9267 11.4033 13.9271C11.6281 13.9263 11.8495 13.8715 12.0487 13.7674L17.289 10.8359C17.4372 10.7529 17.5606 10.6318 17.6466 10.4853C17.7325 10.3387 17.7778 10.1719 17.7779 10.002C17.7779 9.83208 17.7327 9.66523 17.6469 9.51859C17.5611 9.37195 17.4378 9.25083 17.2896 9.16767H17.2896Z" fill="#171723"/>
</svg>
