<svg width="20" height="20" viewBox="0 0 20 20" fill="none" xmlns="http://www.w3.org/2000/svg">
<path d="M9.37224 8.92984L2.62217 5.15057C2.35238 5.00991 2.05076 4.94153 1.74669 4.95209C1.44262 4.96264 1.14647 5.05177 0.887084 5.21079C0.613651 5.37767 0.388188 5.61263 0.232727 5.89271C0.0772658 6.1728 -0.00287509 6.48842 0.000135187 6.80874V13.1918C-0.00287323 13.5121 0.0772687 13.8278 0.23273 14.1078C0.388191 14.3879 0.613653 14.6229 0.887084 14.7898C1.16315 14.9588 1.48049 15.0485 1.80422 15.049C2.0933 15.048 2.37792 14.9776 2.63411 14.8437L9.3715 11.0747C9.56207 10.9679 9.72075 10.8123 9.83123 10.6239C9.9417 10.4354 9.99998 10.2209 10.0001 10.0025C10.0001 9.78405 9.94202 9.56953 9.83169 9.381C9.72135 9.19247 9.56278 9.03673 9.37229 8.92982L9.37224 8.92984Z" fill="#171723"/>
<path d="M19.3722 8.92984L12.6221 5.15057C12.3523 5.00991 12.0507 4.94153 11.7466 4.95209C11.4426 4.96264 11.1464 5.05177 10.887 5.21079C10.6136 5.37767 10.3881 5.61264 10.2327 5.89272C10.0772 6.17281 9.99706 6.48844 10.0001 6.80876V13.1918C9.99707 13.5122 10.0772 13.8278 10.2327 14.1079C10.3881 14.3879 10.6136 14.6229 10.887 14.7898C11.1631 14.9589 11.4804 15.0485 11.8042 15.049C12.0932 15.048 12.3779 14.9776 12.6341 14.8437L19.3714 11.0747C19.562 10.9679 19.7207 10.8123 19.8312 10.6239C19.9416 10.4354 19.9999 10.221 20 10.0025C20.0001 9.78407 19.942 9.56955 19.8316 9.38102C19.7213 9.19249 19.5627 9.03675 19.3722 8.92984H19.3722Z" fill="#171723"/>
</svg>
