<svg width="24" height="24" viewBox="0 0 24 24" fill="none" xmlns="http://www.w3.org/2000/svg">
<g clip-path="url(#clip0_10317_147247)">
<path d="M21.2818 12.2881C21.3039 12.2618 21.3232 12.2332 21.3393 12.2028C21.3871 12.1027 21.3986 11.9891 21.3721 11.8815C21.3455 11.7738 21.2824 11.6786 21.1936 11.6122L18.7288 9.60728C18.626 9.52362 18.4942 9.48423 18.3623 9.49779C18.2304 9.51134 18.1094 9.57672 18.0257 9.67954C17.9421 9.78236 17.9027 9.91421 17.9162 10.0461C17.9298 10.1779 17.9952 10.299 18.098 10.3827L19.4673 11.4969H13.6548L19.0353 6.12077C19.2711 6.38415 19.491 6.6614 19.6937 6.95103C19.7312 7.00512 19.7789 7.05128 19.8343 7.08686C19.8896 7.12245 19.9515 7.14676 20.0163 7.15841C20.081 7.17005 20.1475 7.16879 20.2117 7.15471C20.276 7.14063 20.3369 7.114 20.3909 7.07635C20.4448 7.0387 20.4908 6.99077 20.5263 6.9353C20.5617 6.87983 20.5858 6.81792 20.5972 6.75311C20.6087 6.68831 20.6072 6.62188 20.5929 6.55764C20.5786 6.49341 20.5518 6.43262 20.514 6.37877C20.1919 5.9273 19.8321 5.50392 19.4386 5.11314C19.4266 5.09159 19.413 5.07102 19.3978 5.05162C19.3773 5.03538 19.3554 5.02089 19.3325 5.00828C17.4836 3.18423 14.9874 2.16688 12.3903 2.17888C9.79307 2.19087 7.30639 3.23123 5.47442 5.07227C3.64245 6.91331 2.6144 9.4051 2.61523 12.0023C2.61607 14.5995 3.64574 17.0907 5.4789 18.9305C5.48379 18.9359 5.48537 18.9429 5.49056 18.9481C5.49496 18.9525 5.50088 18.9538 5.50539 18.9579C6.52139 19.974 7.74794 20.7547 9.09854 21.2451C10.4491 21.7355 11.8909 21.9236 13.3221 21.7961C14.7533 21.6686 16.1391 21.2286 17.3817 20.5072C18.6244 19.7858 19.6936 18.8006 20.514 17.6209C20.5894 17.5121 20.6186 17.3779 20.5951 17.2476C20.5717 17.1173 20.4976 17.0017 20.3891 16.9259C20.2805 16.8502 20.1464 16.8206 20.016 16.8436C19.8857 16.8666 19.7698 16.9404 19.6937 17.0487C18.9812 18.0755 18.0583 18.9389 16.9864 19.5815C15.9144 20.2241 14.718 20.6312 13.4766 20.7757C12.2351 20.9203 10.9772 20.7989 9.78628 20.4197C8.59539 20.0405 7.49885 19.4122 6.56954 18.5765L12.654 12.4969H19.4811L18.099 13.616C18.0469 13.657 18.0034 13.7079 17.9712 13.7657C17.9389 13.8236 17.9185 13.8873 17.9111 13.9531C17.9037 14.019 17.9094 14.0856 17.928 14.1492C17.9465 14.2128 17.9775 14.2721 18.0192 14.3236C18.0609 14.3751 18.1124 14.4178 18.1707 14.4493C18.229 14.4807 18.293 14.5002 18.359 14.5067C18.4249 14.5132 18.4915 14.5065 18.5548 14.4871C18.6181 14.4676 18.677 14.4358 18.7279 14.3934L21.1986 12.3934C21.2096 12.3845 21.2141 12.3707 21.2241 12.361C21.2456 12.3386 21.2649 12.3142 21.2818 12.2881ZM5.86318 17.8688C4.35945 16.1877 3.55669 13.9945 3.61988 11.7399C3.68306 9.48529 4.60739 7.34051 6.20291 5.74628C7.79843 4.15206 9.94396 3.22949 12.1986 3.16814C14.4533 3.10679 16.6458 3.91132 18.3256 5.41643L12.2402 11.4969H8.25326C8.12065 11.4969 7.99348 11.5496 7.89971 11.6434C7.80594 11.7371 7.75326 11.8643 7.75326 11.9969C7.75326 12.1295 7.80594 12.2567 7.89971 12.3505C7.99348 12.4442 8.12065 12.4969 8.25326 12.4969H11.2394L5.86318 17.8688Z" fill="#171723"/>
</g>
<defs>
<clipPath id="clip0_10317_147247">
<rect width="24" height="24" fill="white"/>
</clipPath>
</defs>
</svg>
