<svg width="24" height="24" viewBox="0 0 24 24" fill="none" xmlns="http://www.w3.org/2000/svg">
<g clip-path="url(#clip0_10317_147013)">
<path d="M20.0192 6.90825C19.9531 6.91076 19.8873 6.91733 19.8221 6.92793L17.2951 2.59162C17.4325 2.40862 17.5291 2.19878 17.5784 1.97601C17.6278 1.75324 17.6287 1.52263 17.5813 1.29945C17.5338 1.07628 17.4391 0.865642 17.3032 0.681495C17.1674 0.497348 16.9936 0.343897 16.7933 0.23131C16.5931 0.118723 16.371 0.0495698 16.1417 0.0284337C15.9125 0.00729762 15.6813 0.0346609 15.4635 0.10871C15.2457 0.18276 15.0463 0.301804 14.8785 0.457956C14.7107 0.614108 14.5783 0.803802 14.4901 1.01447H9.54655C9.46122 0.802186 9.33125 0.610325 9.16528 0.451638C8.99931 0.29295 8.80114 0.171071 8.58394 0.0941009C8.36674 0.017131 8.13549 -0.0131661 7.90556 0.00522283C7.67563 0.0236118 7.45228 0.0902657 7.25037 0.200754C7.04845 0.311243 6.87259 0.463036 6.73447 0.646043C6.59636 0.829051 6.49915 1.03908 6.44931 1.26217C6.39947 1.48527 6.39814 1.71631 6.44541 1.93995C6.49268 2.16359 6.58747 2.3747 6.72347 2.55926L4.17708 6.92792C4.11211 6.91738 4.04655 6.91083 3.98076 6.9083C3.54906 6.9083 3.13504 7.07817 2.82978 7.38053C2.52452 7.68289 2.35303 8.09298 2.35303 8.52058C2.35303 8.94818 2.52452 9.35827 2.82978 9.66063C3.13504 9.96299 3.54906 10.1329 3.98076 10.1329C4.04672 10.1303 4.11245 10.1238 4.17758 10.1132L6.73741 14.5058C6.60428 14.6915 6.51248 14.9032 6.46807 15.1267C6.42365 15.3502 6.42764 15.5805 6.47977 15.8024C6.5319 16.0243 6.63099 16.2327 6.77047 16.4138C6.90996 16.5949 7.08667 16.7446 7.28892 16.8531C7.49117 16.9615 7.71436 17.0262 7.94373 17.0429C8.17311 17.0596 8.40344 17.0278 8.6195 16.9497C8.83556 16.8717 9.03243 16.7491 9.1971 16.59C9.36177 16.431 9.49049 16.2392 9.57474 16.0272H14.6094C14.7053 16.2342 14.8445 16.4187 15.0177 16.5684C15.191 16.7181 15.3945 16.8296 15.6145 16.8956C15.8346 16.9616 16.0664 16.9805 16.2944 16.9511C16.5224 16.9216 16.7415 16.8446 16.9372 16.725C17.1329 16.6054 17.3007 16.4459 17.4295 16.2573C17.5583 16.0686 17.6451 15.855 17.6843 15.6305C17.7234 15.4061 17.714 15.176 17.6567 14.9554C17.5993 14.7349 17.4952 14.5289 17.3514 14.3512L19.8226 10.1132C19.8877 10.1237 19.9533 10.1303 20.0192 10.1328C20.4509 10.1328 20.8649 9.96294 21.1702 9.66058C21.4754 9.35822 21.6469 8.94813 21.6469 8.52053C21.6469 8.09293 21.4754 7.68284 21.1702 7.38048C20.8649 7.07812 20.4509 6.90825 20.0192 6.90825H20.0192ZM18.8581 7.39233L16.2309 6.12616C16.28 5.84038 16.2449 5.54662 16.1298 5.28009C16.0146 5.01356 15.8243 4.78558 15.5817 4.62347L16.0228 3.24309C16.1649 3.23912 16.3059 3.21656 16.442 3.17598L18.8844 7.36718L18.8581 7.39233ZM14.4913 15.0035H9.62516C9.54709 14.7222 9.39312 14.4673 9.17977 14.2662L10.5124 11.4149C10.5705 11.4239 10.6291 11.4298 10.6879 11.4324C10.9294 11.4312 11.1676 11.3762 11.3848 11.2716L14.6407 14.609C14.5735 14.7333 14.5233 14.866 14.4913 15.0034V15.0035ZM15.0372 2.93385L14.5968 4.31185C14.244 4.31828 13.903 4.43921 13.6263 4.65609L9.62137 2.03828H14.4227C14.5168 2.39819 14.7339 2.71467 15.0372 2.9338V2.93385ZM9.03624 2.88187L13.0563 5.51007C12.9467 5.88613 12.9881 6.2896 13.1719 6.63612L11.4095 8.38176C11.1926 8.27292 10.9536 8.21419 10.7105 8.20999L8.9991 2.91205C9.01197 2.90261 9.02357 2.89161 9.03619 2.88181L9.03624 2.88187ZM12.1454 9.10075L13.9029 7.35983C14.2087 7.51454 14.5566 7.5679 14.8954 7.51206C15.2342 7.45622 15.5459 7.29413 15.7847 7.04965L18.2701 8.24783L12.1454 9.10075ZM7.57084 3.15288C7.71477 3.19781 7.86435 3.2225 8.01521 3.22624L9.72635 8.52521C9.54345 8.65944 9.39107 8.83024 9.27908 9.02653L5.58718 8.31113C5.54173 7.95255 5.37526 7.61971 5.11479 7.36664L7.57084 3.15288ZM5.38909 9.315L9.08161 10.0307C9.12882 10.3965 9.30201 10.7349 9.57192 10.9888L8.23917 13.8402C8.0175 13.8024 7.78963 13.8242 7.57942 13.9036L5.11479 9.67444C5.22275 9.56793 5.31509 9.44694 5.38909 9.315V9.315ZM16.4846 13.7908C16.1168 13.6889 15.7238 13.7264 15.3824 13.8958L12.1269 10.5588C12.2018 10.4195 12.2553 10.2699 12.2856 10.1149L18.5694 9.23976C18.6494 9.40113 18.7561 9.54809 18.8851 9.67455L16.4846 13.7908Z" fill="#171723"/>
<path d="M1.40931 19.1323C1.8976 19.0907 2.38453 19.2263 2.77932 19.5139C2.92557 19.6498 3.03995 19.8157 3.1144 20.0001C3.18885 20.1844 3.22154 20.3827 3.21018 20.581C3.21107 20.7825 3.1781 20.9827 3.1126 21.1735C3.04648 21.3614 2.93664 21.5313 2.79196 21.6693C2.62453 21.8242 2.42457 21.9403 2.20643 22.0095C1.9175 22.0992 1.61564 22.1412 1.31295 22.1338H0.7959V23.9339H0V19.1323H1.40931ZM1.3561 19.7863H0.7959V21.4773H1.23066C1.44603 21.4821 1.6608 21.4529 1.86686 21.3907C2.0265 21.3436 2.16624 21.2462 2.26483 21.1132C2.3621 20.9636 2.40953 20.7876 2.40043 20.6098C2.40961 20.4941 2.39149 20.3778 2.3475 20.2702C2.30351 20.1625 2.23485 20.0665 2.14695 19.9897C1.91389 19.8358 1.63528 19.7642 1.35607 19.7864L1.3561 19.7863Z" fill="#171723"/>
<path d="M6.22641 20.2294C6.28851 20.2294 6.35568 20.2332 6.42919 20.2395C6.4926 20.2444 6.55565 20.2532 6.61799 20.2658L6.54448 20.9876C6.48882 20.9731 6.432 20.9634 6.37465 20.9587C6.30621 20.9524 6.24664 20.9487 6.19342 20.9487C6.05778 20.948 5.92308 20.9709 5.79547 21.0164C5.67065 21.06 5.55661 21.1293 5.46089 21.2198C5.36005 21.3151 5.28172 21.4312 5.23149 21.56C5.17402 21.7107 5.14606 21.8709 5.14911 22.032V23.9338H4.36719V20.2985H4.97679L5.08321 20.9386H5.11869C5.19237 20.8086 5.28411 20.6894 5.39122 20.5846C5.49889 20.4771 5.62507 20.3896 5.76383 20.326C5.9091 20.2609 6.06696 20.2279 6.22641 20.2294V20.2294Z" fill="#171723"/>
<path d="M9.03126 20.2294C9.32521 20.2211 9.61611 20.2904 9.87406 20.4303C10.107 20.562 10.295 20.7595 10.4139 20.9977C10.5466 21.272 10.6114 21.5736 10.6028 21.8777V22.2919H8.15298C8.14154 22.5895 8.24382 22.8804 8.43941 23.1066C8.54023 23.2046 8.66066 23.2806 8.79294 23.3297C8.92522 23.3788 9.06641 23.3999 9.20742 23.3916C9.4197 23.3938 9.63151 23.3714 9.83857 23.325C10.0373 23.276 10.2312 23.2091 10.4178 23.1255V23.7531C10.2391 23.8371 10.0511 23.8998 9.85758 23.9401C9.63253 23.983 9.40362 24.0028 9.17447 23.9992C8.84533 24.0064 8.51927 23.9349 8.22395 23.7908C7.95177 23.6524 7.72855 23.4352 7.58394 23.1681C7.42044 22.8507 7.34106 22.4974 7.35327 22.1413C7.34278 21.784 7.41429 21.429 7.5624 21.1031C7.68828 20.8333 7.89259 20.6069 8.14918 20.4529C8.41694 20.2996 8.72211 20.2223 9.03126 20.2294V20.2294ZM9.03126 20.8106C8.921 20.8064 8.81108 20.8252 8.70866 20.8658C8.60624 20.9065 8.51363 20.9681 8.43688 21.0466C8.27045 21.2406 8.17608 21.4851 8.16947 21.7396H9.84113C9.84177 21.5746 9.8108 21.411 9.74987 21.2575C9.69646 21.1239 9.60373 21.0094 9.48373 20.9286C9.34839 20.845 9.19065 20.8038 9.03126 20.8106V20.8106Z" fill="#171723"/>
<path d="M12.9867 23.9991C12.786 24.0062 12.5864 23.967 12.4037 23.8847C12.2209 23.8023 12.06 23.6791 11.9335 23.5246C11.6415 23.1172 11.5013 22.6221 11.5368 22.1237C11.5005 21.62 11.643 21.1195 11.9398 20.7089C12.0678 20.5532 12.2303 20.429 12.4148 20.3458C12.5992 20.2626 12.8006 20.2228 13.0031 20.2295C13.1684 20.2265 13.333 20.2515 13.4898 20.3035C13.6207 20.3479 13.7426 20.415 13.8497 20.5019C13.9481 20.5825 14.0347 20.6763 14.107 20.7805H14.1438C14.1324 20.7128 14.1197 20.6148 14.1057 20.4868C14.0915 20.3685 14.0843 20.2494 14.0842 20.1303V18.8235H14.8662V23.9339H14.2566L14.1171 23.438H14.0843C14.0158 23.5448 13.9311 23.6405 13.8333 23.7217C13.7272 23.8095 13.6062 23.8779 13.4759 23.9239C13.3185 23.9771 13.1529 24.0026 12.9867 23.9991V23.9991ZM13.2047 23.3727C13.3372 23.3864 13.4711 23.3674 13.5945 23.3174C13.7179 23.2675 13.8269 23.1882 13.9119 23.0865C14.0673 22.8281 14.141 22.5294 14.1235 22.2291V22.1274C14.1425 21.8029 14.0738 21.4792 13.9245 21.1897C13.8444 21.0756 13.7346 20.985 13.6068 20.9276C13.479 20.8701 13.3379 20.8479 13.1984 20.8633C13.0709 20.8579 12.9443 20.8861 12.8316 20.9453C12.7189 21.0044 12.6241 21.0923 12.5571 21.1998C12.3947 21.4851 12.3182 21.8105 12.3365 22.1375C12.316 22.4583 12.3928 22.7779 12.5571 23.0551C12.6282 23.1589 12.7252 23.2426 12.8387 23.2983C12.9522 23.3539 13.0782 23.3795 13.2046 23.3727L13.2047 23.3727Z" fill="#171723"/>
<path d="M16.6466 18.9064C16.7575 18.9035 16.8662 18.937 16.9559 19.0018C17.0405 19.09 17.0877 19.2071 17.0877 19.3288C17.0877 19.4505 17.0405 19.5676 16.9559 19.6558C16.8649 19.7195 16.7562 19.7537 16.6447 19.7537C16.5333 19.7537 16.4246 19.7195 16.3336 19.6558C16.2512 19.5664 16.2056 19.4498 16.2056 19.3288C16.2056 19.2078 16.2512 19.0911 16.3336 19.0018C16.4242 18.9361 16.5344 18.9025 16.6466 18.9064V18.9064ZM17.0306 20.2985V23.9339H16.2525V20.2985L17.0306 20.2985Z" fill="#171723"/>
<path d="M19.8949 23.9991C19.5825 24.0071 19.273 23.9385 18.9938 23.7995C18.7368 23.6626 18.531 23.4474 18.407 23.1857C18.2584 22.8551 18.1878 22.4954 18.2004 22.1337C18.186 21.7598 18.2634 21.3881 18.426 21.0504C18.5632 20.7833 18.7824 20.5661 19.0521 20.4303C19.337 20.2919 19.6512 20.2231 19.9684 20.2294C20.1684 20.2273 20.3679 20.2488 20.5628 20.2934C20.7194 20.3283 20.8716 20.3805 21.0165 20.4491L20.7833 21.0667C20.6482 21.0122 20.5098 20.9661 20.3689 20.9286C20.2362 20.8931 20.0995 20.8745 19.9621 20.8733C19.7732 20.8661 19.5865 20.9151 19.426 21.0139C19.2773 21.1168 19.1658 21.2642 19.1079 21.4345C19.0325 21.6576 18.9973 21.8922 19.0039 22.1274C18.9974 22.357 19.033 22.5858 19.1091 22.8028C19.1683 22.9697 19.2786 23.1141 19.4247 23.2158C19.5773 23.3135 19.7564 23.3625 19.938 23.3564C20.121 23.3585 20.3034 23.3339 20.4792 23.2836C20.6356 23.2366 20.7868 23.1739 20.9304 23.0965V23.7669C20.7896 23.8454 20.6386 23.9046 20.4817 23.9426C20.2889 23.9837 20.092 24.0027 19.8949 23.9991Z" fill="#171723"/>
<path d="M23.4257 23.3754C23.5269 23.3757 23.6279 23.3664 23.7273 23.3477C23.8195 23.3308 23.9105 23.3082 23.9999 23.28V23.8649C23.8922 23.9087 23.78 23.9406 23.6653 23.9603C23.5241 23.9869 23.3806 23.9999 23.2369 23.9992C23.0451 24.0024 22.8546 23.9674 22.6767 23.8963C22.5086 23.8248 22.3697 23.6992 22.2826 23.5398C22.1743 23.323 22.1242 23.0822 22.1369 22.8406V20.886H21.6362V20.5421L22.1723 20.2684L22.4283 19.4901H22.9188V20.2985H23.9694V20.886H22.9188V22.8305C22.913 22.9047 22.9223 22.9793 22.9463 23.0498C22.9702 23.1203 23.0083 23.1853 23.0582 23.241C23.1072 23.2867 23.165 23.3222 23.2281 23.3453C23.2913 23.3683 23.3585 23.3786 23.4257 23.3754V23.3754Z" fill="#171723"/>
</g>
<defs>
<clipPath id="clip0_10317_147013">
<rect width="24" height="24" fill="white"/>
</clipPath>
</defs>
</svg>
