<svg width="24" height="24" viewBox="0 0 24 24" fill="none" xmlns="http://www.w3.org/2000/svg">
<path d="M18.179 8.03771C18.1281 8.03966 18.0774 8.04477 18.0272 8.05302L16.08 4.67964C16.1859 4.53727 16.2603 4.37402 16.2983 4.20072C16.3363 4.02742 16.3371 3.84802 16.3005 3.67441C16.264 3.50079 16.1909 3.33693 16.0863 3.19367C15.9816 3.05042 15.8477 2.93104 15.6934 2.84346C15.5391 2.75587 15.3679 2.70208 15.1913 2.68563C15.0146 2.66919 14.8365 2.69048 14.6687 2.74808C14.5009 2.80569 14.3472 2.8983 14.2179 3.01977C14.0886 3.14125 13.9866 3.28882 13.9186 3.45271H10.1094C10.0436 3.28756 9.94347 3.13831 9.81558 3.01486C9.68769 2.89141 9.53499 2.7966 9.36763 2.73672C9.20027 2.67684 9.02208 2.65327 8.8449 2.66758C8.66773 2.68188 8.49563 2.73373 8.34004 2.81969C8.18446 2.90564 8.04895 3.02373 7.94252 3.16609C7.8361 3.30846 7.76119 3.47185 7.72279 3.64541C7.68439 3.81896 7.68336 3.9987 7.71979 4.17267C7.75621 4.34665 7.82925 4.51089 7.93405 4.65446L5.97193 8.05301C5.92187 8.04481 5.87135 8.03971 5.82066 8.03775C5.48801 8.03775 5.16899 8.16989 4.93377 8.40511C4.69855 8.64033 4.56641 8.95935 4.56641 9.292C4.56641 9.62465 4.69855 9.94367 4.93377 10.1789C5.16899 10.4141 5.48801 10.5462 5.82066 10.5462C5.87148 10.5443 5.92212 10.5392 5.97232 10.531L7.94479 13.9481C7.84221 14.0926 7.77147 14.2573 7.73724 14.4311C7.70302 14.605 7.7061 14.7842 7.74627 14.9568C7.78643 15.1294 7.86278 15.2915 7.97026 15.4324C8.07774 15.5733 8.21391 15.6898 8.36975 15.7742C8.5256 15.8585 8.69758 15.9089 8.87432 15.9218C9.05106 15.9348 9.22854 15.9101 9.39503 15.8494C9.56151 15.7886 9.71321 15.6933 9.8401 15.5695C9.96699 15.4458 10.0662 15.2966 10.1311 15.1317H14.0105C14.0844 15.2927 14.1917 15.4362 14.3252 15.5527C14.4587 15.6692 14.6155 15.7559 14.7851 15.8072C14.9546 15.8586 15.1332 15.8733 15.3089 15.8504C15.4846 15.8275 15.6534 15.7676 15.8042 15.6745C15.955 15.5815 16.0843 15.4574 16.1835 15.3107C16.2828 15.1639 16.3497 14.9977 16.3799 14.8231C16.4101 14.6485 16.4028 14.4695 16.3586 14.2979C16.3144 14.1263 16.2342 13.9661 16.1234 13.8279L18.0276 10.5309C18.0777 10.5391 18.1283 10.5442 18.1791 10.5462C18.5117 10.5462 18.8307 10.4141 19.0659 10.1788C19.3012 9.94363 19.4333 9.62461 19.4333 9.29196C19.4333 8.95931 19.3012 8.64029 19.0659 8.40507C18.8307 8.16985 18.5117 8.03771 18.1791 8.03771H18.179ZM17.2844 8.41429L15.2599 7.42929C15.2978 7.20697 15.2708 6.97844 15.1821 6.7711C15.0933 6.56376 14.9467 6.3864 14.7597 6.26029L15.0996 5.18644C15.2091 5.18335 15.3177 5.16579 15.4226 5.13423L17.3046 8.39473L17.2844 8.41429ZM13.9196 14.3353H10.1699C10.1098 14.1165 9.99114 13.9182 9.82675 13.7617L10.8536 11.5436C10.8984 11.5506 10.9435 11.5552 10.9888 11.5572C11.1749 11.5563 11.3585 11.5135 11.5258 11.4321L14.0346 14.0284C13.9829 14.1251 13.9442 14.2283 13.9196 14.3352V14.3353ZM14.3401 4.94587L14.0008 6.01787C13.729 6.02287 13.4663 6.11695 13.253 6.28567L10.167 4.24917H13.8667C13.9392 4.52916 14.1065 4.77536 14.3401 4.94583V4.94587ZM9.71615 4.90543L12.8138 6.95001C12.7293 7.24256 12.7612 7.55644 12.9028 7.82601L11.5448 9.18401C11.3777 9.09933 11.1936 9.05365 11.0062 9.05038L9.68753 4.92891C9.69745 4.92157 9.70639 4.91301 9.71611 4.90539L9.71615 4.90543ZM12.1119 9.74334L13.4661 8.38901C13.7018 8.50936 13.9699 8.55087 14.2309 8.50743C14.4919 8.46399 14.7321 8.3379 14.9161 8.14771L16.8313 9.07982L12.1119 9.74334ZM8.58699 5.11626C8.69789 5.15121 8.81315 5.17042 8.9294 5.17333L10.2479 9.2956C10.107 9.40002 9.98956 9.53289 9.90327 9.6856L7.05848 9.12906C7.02346 8.8501 6.89519 8.59118 6.69448 8.39431L8.58699 5.11626ZM6.90584 9.91001L9.75111 10.4668C9.78749 10.7513 9.92093 11.0146 10.1289 11.2121L9.10197 13.4303C8.93115 13.4009 8.75557 13.4179 8.5936 13.4796L6.69448 10.1896C6.77767 10.1068 6.84882 10.0126 6.90584 9.91001ZM15.4555 13.3919C15.172 13.3127 14.8693 13.3418 14.6061 13.4736L12.0976 10.8776C12.1554 10.7692 12.1966 10.6529 12.2199 10.5323L17.0619 9.85148C17.1236 9.97701 17.2058 10.0913 17.3052 10.1897L15.4555 13.3919Z" fill="#171723"/>
<path d="M3.83936 17.5472C4.21561 17.5148 4.59081 17.6203 4.89502 17.8441C5.00771 17.9497 5.09585 18.0788 5.15322 18.2222C5.21058 18.3657 5.23577 18.5199 5.22702 18.6741C5.22771 18.8309 5.2023 18.9867 5.15183 19.1351C5.10088 19.2813 5.01624 19.4134 4.90476 19.5208C4.77575 19.6413 4.62167 19.7316 4.45358 19.7855C4.23095 19.8553 3.99835 19.8879 3.76511 19.8821H3.3667V21.2825H2.75342V17.5472H3.83936ZM3.79836 18.056H3.3667V19.3714H3.7017C3.86765 19.3752 4.03314 19.3524 4.19193 19.304C4.31493 19.2674 4.42261 19.1916 4.49858 19.0882C4.57353 18.9718 4.61007 18.8349 4.60307 18.6966C4.61014 18.6065 4.59618 18.5161 4.56228 18.4324C4.52838 18.3486 4.47548 18.2739 4.40775 18.2142C4.22816 18.0945 4.01348 18.0387 3.79834 18.056L3.79836 18.056Z" fill="#171723"/>
<path d="M7.55127 18.4007C7.59912 18.4007 7.65088 18.4037 7.70752 18.4085C7.75639 18.4124 7.80497 18.4193 7.853 18.429L7.79636 18.9905C7.75347 18.9793 7.70969 18.9718 7.6655 18.9681C7.61276 18.9632 7.56686 18.9603 7.52585 18.9603C7.42134 18.9597 7.31754 18.9776 7.21921 19.013C7.12304 19.0469 7.03516 19.1008 6.9614 19.1712C6.8837 19.2453 6.82334 19.3357 6.78464 19.4358C6.74035 19.5531 6.71881 19.6777 6.72116 19.803V21.2825H6.11865V18.4544H6.58838L6.67038 18.9524H6.69772C6.7545 18.8513 6.82518 18.7586 6.90772 18.6771C6.99068 18.5934 7.08791 18.5253 7.19483 18.4759C7.30677 18.4252 7.42841 18.3996 7.55127 18.4007Z" fill="#171723"/>
<path d="M9.71237 18.4007C9.93888 18.3942 10.163 18.4482 10.3618 18.557C10.5413 18.6594 10.6861 18.8131 10.7778 18.9984C10.88 19.2118 10.9299 19.4464 10.9233 19.6829V20.0052H9.03561C9.0268 20.2367 9.10561 20.4631 9.25632 20.639C9.334 20.7152 9.4268 20.7744 9.52873 20.8125C9.63066 20.8507 9.73946 20.8671 9.84811 20.8607C10.0117 20.8624 10.1749 20.845 10.3344 20.8089C10.4876 20.7707 10.637 20.7188 10.7807 20.6537V21.1419C10.6431 21.2072 10.4982 21.2561 10.3491 21.2874C10.1757 21.3208 9.99929 21.3362 9.82272 21.3333C9.5691 21.339 9.31786 21.2834 9.0903 21.1712C8.88057 21.0636 8.70857 20.8946 8.59714 20.6869C8.47115 20.4399 8.40999 20.1651 8.4194 19.888C8.41132 19.6101 8.46641 19.334 8.58054 19.0804C8.67754 18.8705 8.83497 18.6944 9.03268 18.5745C9.23901 18.4554 9.47415 18.3952 9.71237 18.4007ZM9.71237 18.8529C9.62741 18.8496 9.54271 18.8642 9.46379 18.8958C9.38487 18.9275 9.31351 18.9754 9.25437 19.0365C9.12613 19.1873 9.05341 19.3776 9.04832 19.5755H10.3364C10.3369 19.4472 10.313 19.32 10.2661 19.2005C10.2249 19.0966 10.1535 19.0075 10.061 18.9447C9.95673 18.8796 9.83519 18.8476 9.71237 18.8529Z" fill="#171723"/>
<path d="M12.7601 21.3333C12.6055 21.3388 12.4517 21.3084 12.3109 21.2443C12.1701 21.1802 12.0461 21.0844 11.9486 20.9642C11.7236 20.6473 11.6156 20.2621 11.643 19.8744C11.615 19.4825 11.7248 19.0932 11.9535 18.7738C12.0521 18.6526 12.1773 18.556 12.3195 18.4913C12.4616 18.4266 12.6168 18.3956 12.7728 18.4008C12.9002 18.3984 13.027 18.4179 13.1478 18.4584C13.2487 18.4929 13.3427 18.5451 13.4252 18.6127C13.501 18.6754 13.5677 18.7484 13.6234 18.8295H13.6517C13.643 18.7767 13.6332 18.7006 13.6224 18.601C13.6115 18.5089 13.6059 18.4163 13.6058 18.3236V17.307H14.2084V21.2826H13.7387L13.6312 20.8968H13.6059C13.5531 20.9799 13.4879 21.0543 13.4125 21.1175C13.3307 21.1858 13.2375 21.239 13.1371 21.2748C13.0159 21.3162 12.8883 21.336 12.7601 21.3333ZM12.9281 20.846C13.0303 20.8566 13.1334 20.8419 13.2285 20.803C13.3236 20.7642 13.4076 20.7025 13.4731 20.6234C13.5928 20.4223 13.6496 20.19 13.6361 19.9564V19.8773C13.6508 19.6248 13.5978 19.373 13.4828 19.1478C13.4211 19.059 13.3365 18.9885 13.238 18.9439C13.1395 18.8992 13.0307 18.8819 12.9233 18.8939C12.8251 18.8896 12.7275 18.9116 12.6406 18.9576C12.5538 19.0036 12.4808 19.072 12.4291 19.1556C12.304 19.3776 12.2451 19.6307 12.2592 19.8851C12.2434 20.1347 12.3025 20.3833 12.4291 20.599C12.4839 20.6797 12.5587 20.7448 12.6461 20.7881C12.7335 20.8314 12.8307 20.8513 12.9281 20.846L12.9281 20.846Z" fill="#171723"/>
<path d="M15.5806 17.3715C15.666 17.3692 15.7498 17.3953 15.8189 17.4457C15.8841 17.5143 15.9204 17.6054 15.9204 17.7001C15.9204 17.7947 15.8841 17.8858 15.8189 17.9545C15.7487 18.004 15.665 18.0306 15.5791 18.0306C15.4932 18.0306 15.4095 18.004 15.3394 17.9545C15.2759 17.8849 15.2407 17.7942 15.2407 17.7001C15.2407 17.6059 15.2759 17.5152 15.3394 17.4457C15.4092 17.3946 15.4941 17.3684 15.5806 17.3715ZM15.8765 18.4545V21.2826H15.2769V18.4545L15.8765 18.4545Z" fill="#171723"/>
<path d="M18.0834 21.3333C17.8427 21.3395 17.6042 21.2861 17.389 21.178C17.1909 21.0715 17.0324 20.9041 16.9369 20.7005C16.8224 20.4433 16.7679 20.1635 16.7777 19.8821C16.7665 19.5913 16.8262 19.3021 16.9515 19.0394C17.0572 18.8316 17.2261 18.6627 17.4339 18.557C17.6535 18.4493 17.8956 18.3958 18.14 18.4007C18.2941 18.3991 18.4478 18.4158 18.598 18.4505C18.7187 18.4776 18.836 18.5183 18.9476 18.5716L18.7679 19.0521C18.6638 19.0097 18.5571 18.9738 18.4486 18.9446C18.3464 18.917 18.241 18.9025 18.1351 18.9016C17.9896 18.896 17.8457 18.9341 17.722 19.011C17.6074 19.091 17.5215 19.2057 17.4769 19.3382C17.4188 19.5118 17.3917 19.6942 17.3968 19.8772C17.3918 20.0558 17.4193 20.2339 17.4779 20.4026C17.5234 20.5325 17.6085 20.6448 17.721 20.7239C17.8386 20.7999 17.9766 20.8381 18.1166 20.8333C18.2576 20.8349 18.3981 20.8158 18.5336 20.7766C18.6541 20.7401 18.7706 20.6913 18.8812 20.6311V21.1526C18.7728 21.2137 18.6564 21.2597 18.5355 21.2893C18.387 21.3213 18.2353 21.3361 18.0834 21.3333Z" fill="#171723"/>
<path d="M20.8042 20.848C20.8821 20.8482 20.96 20.841 21.0366 20.8265C21.1076 20.8133 21.1778 20.7957 21.2466 20.7738V21.2288C21.1636 21.2629 21.0771 21.2877 20.9888 21.3031C20.88 21.3237 20.7694 21.3338 20.6587 21.3333C20.5109 21.3358 20.3641 21.3086 20.2271 21.2533C20.0975 21.1976 19.9905 21.0999 19.9233 20.9759C19.8399 20.8072 19.8013 20.6199 19.811 20.432V18.9114H19.4253V18.6439L19.8384 18.431L20.0356 17.8255H20.4136V18.4544H21.2231V18.9114H20.4136V20.4241C20.4091 20.4818 20.4163 20.5398 20.4348 20.5947C20.4532 20.6496 20.4826 20.7002 20.521 20.7434C20.5587 20.779 20.6033 20.8066 20.6519 20.8246C20.7006 20.8425 20.7524 20.8505 20.8042 20.848Z" fill="#171723"/>
</svg>
