<svg width="24" height="24" viewBox="0 0 24 24" fill="none" xmlns="http://www.w3.org/2000/svg">
<path d="M19.4986 6.90838C19.4332 6.91089 19.368 6.91746 19.3034 6.92806L16.8004 2.59167C16.9365 2.40866 17.0322 2.19882 17.081 1.97604C17.1299 1.75327 17.1309 1.52265 17.0839 1.29948C17.0369 1.0763 16.943 0.865658 16.8085 0.681508C16.6739 0.497357 16.5017 0.343903 16.3034 0.231314C16.1051 0.118725 15.8851 0.0495707 15.658 0.0284342C15.4309 0.00729775 15.2019 0.0346615 14.9862 0.108712C14.7705 0.182763 14.5729 0.30181 14.4067 0.457964C14.2405 0.614119 14.1093 0.803817 14.022 1.01449H9.12532C9.0408 0.802201 8.91206 0.610336 8.74767 0.451646C8.58327 0.292955 8.38698 0.171074 8.17184 0.0941026C7.9567 0.0171313 7.72764 -0.0131664 7.49989 0.00522293C7.27214 0.0236122 7.05091 0.0902673 6.85091 0.200758C6.6509 0.311249 6.47671 0.463044 6.3399 0.646055C6.2031 0.829065 6.10681 1.0391 6.05744 1.2622C6.00808 1.48529 6.00676 1.71634 6.05358 1.93999C6.1004 2.16363 6.19429 2.37475 6.32901 2.5593L3.80676 6.92804C3.74241 6.9175 3.67746 6.91095 3.6123 6.90843C3.18469 6.90843 2.7746 7.0783 2.47223 7.38066C2.16987 7.68303 2 8.09312 2 8.52073C2 8.94834 2.16987 9.35844 2.47223 9.6608C2.7746 9.96317 3.18469 10.133 3.6123 10.133C3.67763 10.1305 3.74274 10.1239 3.80726 10.1134L6.34281 14.506C6.21095 14.6918 6.12001 14.9034 6.07602 15.127C6.03203 15.3505 6.03598 15.5808 6.08762 15.8027C6.13926 16.0246 6.2374 16.2329 6.37556 16.4141C6.51372 16.5952 6.68876 16.7449 6.88909 16.8534C7.08943 16.9618 7.3105 17.0265 7.5377 17.0432C7.7649 17.0599 7.99305 17.0281 8.20706 16.95C8.42107 16.872 8.61608 16.7494 8.77919 16.5903C8.94229 16.4313 9.06979 16.2395 9.15324 16.0275H14.1401C14.2351 16.2345 14.373 16.419 14.5446 16.5687C14.7163 16.7184 14.9178 16.8299 15.1358 16.8959C15.3538 16.9619 15.5833 16.9808 15.8092 16.9514C16.035 16.9219 16.2521 16.8449 16.4459 16.7253C16.6397 16.6057 16.8059 16.4462 16.9335 16.2576C17.0611 16.0689 17.1471 15.8552 17.1859 15.6308C17.2247 15.4064 17.2154 15.1763 17.1585 14.9557C17.1017 14.7352 16.9986 14.5292 16.8562 14.3515L19.304 10.1134C19.3684 10.1239 19.4334 10.1305 19.4987 10.133C19.9263 10.133 20.3364 9.96312 20.6388 9.66075C20.9411 9.35838 21.111 8.94829 21.111 8.52068C21.111 8.09307 20.9411 7.68297 20.6388 7.38061C20.3364 7.07824 19.9263 6.90838 19.4987 6.90838H19.4986ZM18.3486 7.39246L15.7462 6.12627C15.7949 5.84048 15.7602 5.54672 15.6461 5.28018C15.5321 5.01365 15.3436 4.78567 15.1033 4.62355L15.5402 3.24315C15.6809 3.23918 15.8205 3.21661 15.9554 3.17603L18.3746 7.36732L18.3486 7.39246ZM14.0232 15.0037H9.20318C9.12586 14.7225 8.97334 14.4676 8.76202 14.2665L10.082 11.4151C10.1396 11.4241 10.1976 11.43 10.2559 11.4326C10.4951 11.4314 10.731 11.3764 10.9462 11.2718L14.1711 14.6093C14.1046 14.7336 14.0549 14.8662 14.0232 15.0037V15.0037ZM14.5639 2.9339L14.1277 4.31193C13.7782 4.31835 13.4405 4.43929 13.1664 4.65618L9.19943 2.03831H13.9552C14.0484 2.39824 14.2635 2.71472 14.5639 2.93385V2.9339ZM8.61985 2.88192L12.6018 5.51017C12.4932 5.88624 12.5342 6.28972 12.7163 6.63624L10.9706 8.38191C10.7558 8.27307 10.519 8.21434 10.2782 8.21014L8.58306 2.9121C8.59581 2.90267 8.6073 2.89166 8.6198 2.88187L8.61985 2.88192ZM11.6995 9.10092L13.4403 7.35996C13.7433 7.51467 14.0879 7.56804 14.4235 7.5122C14.759 7.45636 15.0678 7.29426 15.3043 7.04978L17.7662 8.24798L11.6995 9.10092ZM7.16834 3.15293C7.31091 3.19786 7.45907 3.22256 7.6085 3.2263L9.30341 8.52536C9.12225 8.6596 8.97131 8.8304 8.86038 9.02669L5.20349 8.31128C5.15847 7.95269 4.99358 7.61984 4.73558 7.36678L7.16834 3.15293ZM5.00727 9.31517L8.66479 10.0309C8.71155 10.3967 8.88309 10.7351 9.15045 10.989L7.83034 13.8405C7.61076 13.8026 7.38505 13.8245 7.17684 13.9038L4.73558 9.67461C4.84252 9.5681 4.93398 9.4471 5.00727 9.31517V9.31517ZM15.9976 13.791C15.6332 13.6892 15.244 13.7266 14.9058 13.8961L11.6812 10.559C11.7554 10.4197 11.8084 10.2701 11.8384 10.1151L18.0627 9.23993C18.1419 9.4013 18.2476 9.54826 18.3754 9.67472L15.9976 13.791Z" fill="#171723"/>
<path d="M5.15074 23.9344H4.35862V19.803H2.95264V19.1327H6.55296V19.803H5.15074V23.9344Z" fill="#171723"/>
<path d="M9.31767 20.2297C9.37918 20.2297 9.44571 20.2335 9.51852 20.2398C9.58135 20.2448 9.64381 20.2536 9.70557 20.2661L9.63276 20.9879C9.57763 20.9735 9.52135 20.9638 9.46455 20.9591C9.39675 20.9528 9.33775 20.949 9.28503 20.949C9.15068 20.9484 9.01726 20.9713 8.89085 21.0168C8.76722 21.0604 8.65425 21.1297 8.55944 21.2202C8.45956 21.3155 8.38197 21.4316 8.33222 21.5604C8.27529 21.7111 8.2476 21.8713 8.25062 22.0324V23.9342H7.47607V20.2988H8.0799L8.18531 20.9389H8.22045C8.29343 20.8089 8.3843 20.6897 8.4904 20.5849C8.59704 20.4774 8.72203 20.3899 8.85947 20.3263C9.00336 20.2612 9.15973 20.2282 9.31767 20.2297V20.2297Z" fill="#171723"/>
<path d="M12.0733 20.2298C12.4463 20.203 12.8166 20.3112 13.1165 20.5348C13.2416 20.658 13.3381 20.8072 13.3991 20.9719C13.4601 21.1366 13.484 21.3126 13.4692 21.4876V23.9343H12.9206L12.7725 23.4183H12.7461C12.6538 23.5396 12.5467 23.6488 12.4273 23.7435C12.3143 23.831 12.1856 23.8962 12.0482 23.9356C11.8777 23.9817 11.7014 24.0033 11.5247 23.9996C11.3246 24.0029 11.1262 23.9622 10.9435 23.8803C10.7748 23.8018 10.6339 23.674 10.5393 23.5138C10.4343 23.323 10.3831 23.1074 10.3912 22.8898C10.3818 22.7249 10.4156 22.5604 10.4891 22.4125C10.5626 22.2646 10.6734 22.1384 10.8104 22.0463C11.1966 21.8293 11.6344 21.7213 12.0771 21.7337L12.7073 21.7111V21.5203C12.7239 21.4273 12.7183 21.3317 12.691 21.2413C12.6636 21.151 12.6153 21.0683 12.55 21.0001C12.4846 20.932 12.4041 20.8802 12.3149 20.8491C12.2257 20.818 12.1305 20.8084 12.0369 20.821C11.8578 20.8206 11.6796 20.8473 11.5084 20.9001C11.3375 20.9526 11.1705 21.0172 11.0088 21.0934L10.759 20.5486C11.1656 20.3396 11.6161 20.2303 12.0733 20.2298L12.0733 20.2298ZM12.7034 22.1969L12.2339 22.2132C11.9503 22.1996 11.6687 22.268 11.423 22.4103C11.3474 22.4661 11.2866 22.5396 11.2459 22.6242C11.2052 22.7089 11.1859 22.8022 11.1895 22.8961C11.1831 22.9697 11.1944 23.0437 11.2223 23.112C11.2503 23.1803 11.2941 23.241 11.3502 23.289C11.4741 23.3759 11.6233 23.4191 11.7745 23.4121C12.0168 23.4204 12.2537 23.3391 12.4398 23.1836C12.531 23.0983 12.6019 22.9938 12.6475 22.8776C12.6931 22.7614 12.7122 22.6365 12.7034 22.512V22.1969Z" fill="#171723"/>
<path d="M15.2088 18.9067C15.3187 18.9038 15.4264 18.9374 15.5151 19.0021C15.599 19.0904 15.6457 19.2075 15.6457 19.3292C15.6457 19.4509 15.599 19.5679 15.5151 19.6562C15.425 19.7199 15.3173 19.7541 15.207 19.7541C15.0966 19.7541 14.9889 19.7199 14.8988 19.6562C14.8172 19.5668 14.772 19.4502 14.772 19.3292C14.772 19.2082 14.8172 19.0915 14.8988 19.0021C14.9885 18.9365 15.0977 18.9029 15.2088 18.9067V18.9067ZM15.5892 20.2989V23.9344H14.8184V20.2989L15.5892 20.2989Z" fill="#171723"/>
<path d="M18.8582 20.2298C19.2062 20.2089 19.549 20.3221 19.816 20.5462C19.9407 20.6825 20.0355 20.8434 20.0945 21.0185C20.1535 21.1935 20.1754 21.379 20.1588 21.563V23.9343H19.3867V21.7074C19.4033 21.482 19.3421 21.2579 19.2134 21.0722C19.1457 20.9983 19.0619 20.9407 18.9686 20.904C18.8753 20.8672 18.7749 20.8522 18.6749 20.8601C18.5347 20.8448 18.393 20.8669 18.264 20.924C18.1351 20.9811 18.0235 21.0712 17.9405 21.1852C17.7863 21.4745 17.715 21.8007 17.7346 22.128V23.9344H16.9639V20.2989H17.5639L17.6732 20.791H17.7159C17.7911 20.6672 17.8911 20.5603 18.0096 20.4771C18.1298 20.394 18.263 20.3316 18.4038 20.2926C18.5516 20.2506 18.7046 20.2295 18.8582 20.2298V20.2298Z" fill="#171723"/>
</svg>
