<svg width="20" height="20" viewBox="0 0 20 20" fill="none" xmlns="http://www.w3.org/2000/svg">
<g clip-path="url(#clip0_10314_145979)">
<path d="M16.1098 5.17457C16.2672 4.80766 16.3315 4.40756 16.2969 4.00983C16.2624 3.6121 16.1301 3.22907 15.9118 2.89479C15.6936 2.5605 15.3961 2.28532 15.0459 2.09371C14.6956 1.90211 14.3035 1.8 13.9043 1.79648C13.5051 1.79296 13.1112 1.88813 12.7576 2.07353C12.404 2.25894 12.1018 2.52883 11.8776 2.85921C11.6535 3.18959 11.5145 3.57023 11.473 3.96729C11.4314 4.36435 11.4886 4.76552 11.6395 5.13514H4.1893C3.85188 5.13563 3.52842 5.26988 3.28983 5.50847C3.05124 5.74706 2.91699 6.07052 2.9165 6.40793V16.9206C2.91699 17.258 3.05124 17.5815 3.28983 17.8201C3.52842 18.0587 3.85187 18.1929 4.18929 18.1934H15.8104C16.1478 18.1929 16.4713 18.0587 16.7098 17.8201C16.9484 17.5815 17.0827 17.258 17.0832 16.9206V6.40793C17.0823 6.12309 16.986 5.84676 16.8095 5.62315C16.633 5.39955 16.3867 5.2416 16.1098 5.17457ZM13.8809 2.64003C14.1951 2.63986 14.5023 2.73288 14.7636 2.90733C15.025 3.08178 15.2287 3.32982 15.3491 3.62007C15.4695 3.91032 15.501 4.22975 15.4398 4.53796C15.3786 4.84616 15.2274 5.12929 15.0053 5.35154C14.7832 5.57378 14.5001 5.72516 14.1919 5.78652C13.8838 5.84789 13.5643 5.81648 13.274 5.69627C12.9837 5.57606 12.7355 5.37245 12.5609 5.1112C12.3864 4.84995 12.2932 4.54279 12.2932 4.22857C12.2937 3.80758 12.4612 3.40399 12.7588 3.10623C13.0564 2.80846 13.4599 2.64082 13.8809 2.64003ZM16.2498 16.9206C16.2498 17.0372 16.2035 17.1489 16.1211 17.2313C16.0387 17.3137 15.9269 17.36 15.8104 17.3601H4.1893C4.07276 17.36 3.96102 17.3137 3.87862 17.2313C3.79622 17.1489 3.7499 17.0372 3.74984 16.9206V6.40793C3.7499 6.2914 3.79622 6.17966 3.87862 6.09726C3.96102 6.01486 4.07276 5.96854 4.18929 5.96848H11.5561L10.1113 7.41379C10.072 7.45234 10.0407 7.49829 10.0193 7.54901C9.9978 7.59972 9.9866 7.65418 9.98633 7.70925C9.98605 7.76431 9.99669 7.81889 10.0176 7.86981C10.0386 7.92074 10.0694 7.96701 10.1083 8.00595C10.1473 8.04489 10.1936 8.07572 10.2445 8.09666C10.2954 8.11761 10.35 8.12825 10.405 8.12797C10.4601 8.12769 10.5146 8.1165 10.5653 8.09504C10.616 8.07359 10.662 8.04229 10.7005 8.00296L12.4945 6.20832C12.9526 6.53307 13.5101 6.68692 14.0699 6.64309C14.6297 6.59926 15.1565 6.36053 15.5585 5.96844H15.8104C15.9269 5.96851 16.0387 6.01483 16.1211 6.09724C16.2035 6.17965 16.2498 6.2914 16.2498 6.40793V16.9206Z" fill="#171723"/>
<path d="M13.3358 9.58423H6.66911C6.5586 9.58423 6.45262 9.62813 6.37448 9.70627C6.29634 9.78441 6.25244 9.89039 6.25244 10.0009C6.25244 10.1114 6.29634 10.2174 6.37448 10.2955C6.45262 10.3737 6.5586 10.4176 6.66911 10.4176H13.3358C13.4463 10.4176 13.5523 10.3737 13.6304 10.2955C13.7085 10.2174 13.7524 10.1114 13.7524 10.0009C13.7524 9.89039 13.7085 9.78441 13.6304 9.70627C13.5523 9.62813 13.4463 9.58423 13.3358 9.58423Z" fill="#171723"/>
<path d="M13.3358 11.8075H6.66911C6.5586 11.8075 6.45262 11.8514 6.37448 11.9295C6.29634 12.0077 6.25244 12.1137 6.25244 12.2242C6.25244 12.3347 6.29634 12.4406 6.37448 12.5188C6.45262 12.5969 6.5586 12.6408 6.66911 12.6408H13.3358C13.4463 12.6408 13.5523 12.5969 13.6304 12.5188C13.7085 12.4406 13.7524 12.3347 13.7524 12.2242C13.7524 12.1137 13.7085 12.0077 13.6304 11.9295C13.5523 11.8514 13.4463 11.8075 13.3358 11.8075Z" fill="#171723"/>
<path d="M13.3358 14.03H6.66911C6.5586 14.03 6.45262 14.0739 6.37448 14.1521C6.29634 14.2302 6.25244 14.3362 6.25244 14.4467C6.25244 14.5572 6.29634 14.6632 6.37448 14.7413C6.45262 14.8195 6.5586 14.8634 6.66911 14.8634H13.3358C13.4463 14.8634 13.5523 14.8195 13.6304 14.7413C13.7085 14.6632 13.7524 14.5572 13.7524 14.4467C13.7524 14.3362 13.7085 14.2302 13.6304 14.1521C13.5523 14.0739 13.4463 14.03 13.3358 14.03Z" fill="#171723"/>
</g>
<defs>
<clipPath id="clip0_10314_145979">
<rect width="20" height="20" fill="white"/>
</clipPath>
</defs>
</svg>
