<svg width="20" height="20" viewBox="0 0 20 20" fill="none" xmlns="http://www.w3.org/2000/svg">
<g clip-path="url(#clip0_10314_145979)">
<path d="M17.7633 4.12048C17.9632 3.67295 18.0449 3.18493 18.001 2.69981C17.9571 2.21469 17.789 1.74749 17.5117 1.33975C17.2344 0.932017 16.8564 0.596373 16.4114 0.362661C15.9664 0.128948 15.4682 0.00440928 14.9609 0.000114955C14.4537 -0.00417937 13.9532 0.111904 13.504 0.338046C13.0548 0.564187 12.6707 0.89338 12.3859 1.29636C12.1012 1.69934 11.9245 2.16362 11.8717 2.64792C11.8189 3.13222 11.8916 3.62155 12.0833 4.07239H2.61719C2.18848 4.07298 1.7775 4.23674 1.47435 4.52775C1.1712 4.81877 1.00062 5.2133 1 5.62486V18.4475C1.00062 18.8591 1.1712 19.2536 1.47435 19.5446C1.77749 19.8356 2.18847 19.9994 2.61718 20H17.3828C17.8115 19.9994 18.2225 19.8356 18.5257 19.5446C18.8288 19.2536 18.9994 18.8591 19 18.4475V5.62486C18.9989 5.27742 18.8765 4.94037 18.6523 4.66763C18.4281 4.3949 18.1151 4.20224 17.7633 4.12048ZM14.9312 1.02901C15.3304 1.02881 15.7208 1.14227 16.0528 1.35505C16.3849 1.56783 16.6438 1.87037 16.7967 2.22441C16.9496 2.57844 16.9898 2.96806 16.912 3.34398C16.8342 3.71991 16.6421 4.06525 16.3599 4.33633C16.0776 4.60741 15.718 4.79205 15.3264 4.8669C14.9349 4.94175 14.529 4.90344 14.1601 4.75682C13.7912 4.61019 13.4759 4.36185 13.2541 4.04319C13.0323 3.72453 12.9139 3.34987 12.9139 2.96661C12.9146 2.45312 13.1273 1.96084 13.5055 1.59765C13.8836 1.23446 14.3963 1.02998 14.9312 1.02901ZM17.9412 18.4475C17.9411 18.5897 17.8822 18.726 17.7775 18.8265C17.6728 18.927 17.5309 18.9835 17.3828 18.9836H2.61719C2.46913 18.9835 2.32715 18.927 2.22246 18.8265C2.11776 18.726 2.0589 18.5897 2.05882 18.4475V5.62486C2.0589 5.48272 2.11776 5.34643 2.22245 5.24592C2.32715 5.14541 2.46912 5.08891 2.61718 5.08883H11.9774L10.1417 6.85173C10.0917 6.89875 10.0519 6.9548 10.0247 7.01666C9.99741 7.07851 9.98319 7.14495 9.98283 7.21211C9.98248 7.27928 9.996 7.34584 10.0226 7.40796C10.0492 7.47008 10.0884 7.52651 10.1379 7.57401C10.1873 7.6215 10.2461 7.65911 10.3108 7.68466C10.3756 7.7102 10.4449 7.72318 10.5149 7.72284C10.5848 7.7225 10.654 7.70885 10.7185 7.68268C10.7829 7.65651 10.8413 7.61833 10.8903 7.57036L13.1697 5.38138C13.7518 5.77749 14.4601 5.96514 15.1714 5.91168C15.8827 5.85822 16.552 5.56703 17.0627 5.08879H17.3828C17.5309 5.08887 17.6729 5.14538 17.7776 5.24589C17.8823 5.34641 17.9411 5.48271 17.9412 5.62486V18.4475Z" fill="#171723"/>
<path d="M13.3358 9.58423H6.66911C6.5586 9.58423 6.45262 9.62813 6.37448 9.70627C6.29634 9.78441 6.25244 9.89039 6.25244 10.0009C6.25244 10.1114 6.29634 10.2174 6.37448 10.2955C6.45262 10.3737 6.5586 10.4176 6.66911 10.4176H13.3358C13.4463 10.4176 13.5523 10.3737 13.6304 10.2955C13.7085 10.2174 13.7524 10.1114 13.7524 10.0009C13.7524 9.89039 13.7085 9.78441 13.6304 9.70627C13.5523 9.62813 13.4463 9.58423 13.3358 9.58423Z" fill="#171723"/>
<path d="M13.3358 11.8075H6.66911C6.5586 11.8075 6.45262 11.8514 6.37448 11.9295C6.29634 12.0077 6.25244 12.1137 6.25244 12.2242C6.25244 12.3347 6.29634 12.4406 6.37448 12.5188C6.45262 12.5969 6.5586 12.6408 6.66911 12.6408H13.3358C13.4463 12.6408 13.5523 12.5969 13.6304 12.5188C13.7085 12.4406 13.7524 12.3347 13.7524 12.2242C13.7524 12.1137 13.7085 12.0077 13.6304 11.9295C13.5523 11.8514 13.4463 11.8075 13.3358 11.8075Z" fill="#171723"/>
<path d="M13.3358 14.03H6.66911C6.5586 14.03 6.45262 14.0739 6.37448 14.1521C6.29634 14.2302 6.25244 14.3362 6.25244 14.4467C6.25244 14.5572 6.29634 14.6632 6.37448 14.7413C6.45262 14.8195 6.5586 14.8634 6.66911 14.8634H13.3358C13.4463 14.8634 13.5523 14.8195 13.6304 14.7413C13.7085 14.6632 13.7524 14.5572 13.7524 14.4467C13.7524 14.3362 13.7085 14.2302 13.6304 14.1521C13.5523 14.0739 13.4463 14.03 13.3358 14.03Z" fill="#171723"/>
</g>
<defs>
<clipPath id="clip0_10314_145979">
<rect width="20" height="20" fill="white"/>
</clipPath>
</defs>
</svg>
