<svg width="20" height="20" viewBox="0 0 20 20" fill="none" xmlns="http://www.w3.org/2000/svg">
<g clip-path="url(#clip0_5313_35178)">
<g clip-path="url(#clip1_5313_35178)">
<path d="M14.3769 5.62315C14.0807 4.359 13.4521 3.19697 12.5561 2.25735C11.6601 1.31773 10.5293 0.634665 9.28064 0.278864C8.03202 -0.0769374 6.71101 -0.0925459 5.45434 0.233654C4.19767 0.559854 3.05101 1.21601 2.13306 2.13419C1.2151 3.05238 0.55921 4.19923 0.233278 5.45604C-0.0926547 6.71284 -0.0767846 8.03392 0.279245 9.28253C0.635275 10.5311 1.31853 11.6619 2.25827 12.5578C3.19802 13.4536 4.36011 14.0821 5.62426 14.378C5.9205 15.6419 6.54915 16.8038 7.44513 17.7432C8.3411 18.6827 9.47185 19.3656 10.7203 19.7213C11.9688 20.077 13.2897 20.0925 14.5462 19.7663C15.8027 19.4401 16.9492 18.784 17.8671 17.8659C18.7849 16.9479 19.4408 15.8012 19.7667 14.5445C20.0926 13.2879 20.0768 11.9669 19.7209 10.7184C19.365 9.46996 18.6819 8.33929 17.7423 7.44345C16.8027 6.54761 15.6408 5.91916 14.3769 5.62315V5.62315ZM1.01697 7.28907C1.01673 5.78656 1.55592 4.3339 2.53642 3.19546C3.51692 2.05702 4.87356 1.30847 6.35943 1.08604C7.84531 0.863611 9.36165 1.18209 10.6325 1.98351C11.9034 2.78493 12.8443 4.01603 13.284 5.45276C13.0948 5.43799 12.9053 5.42383 12.7123 5.42383C10.7802 5.42608 8.92782 6.19466 7.5616 7.56095C6.19538 8.92724 5.42684 10.7797 5.42459 12.7119C5.42459 12.9053 5.43875 13.0952 5.45359 13.2849C4.17049 12.8907 3.04739 12.0959 2.24896 11.0169C1.45053 9.93785 1.01877 8.6314 1.01697 7.28907V7.28907ZM6.44155 12.7119C6.44155 12.6704 6.44695 12.6303 6.44777 12.5891L7.40882 13.554C7.36847 13.5548 7.32925 13.5601 7.28871 13.5601C7.024 13.5583 6.75966 13.5398 6.49729 13.5046C6.46199 13.2418 6.44338 12.9771 6.44155 12.7119V12.7119ZM8.68786 13.3972L6.60592 11.3069C6.68122 10.9756 6.78357 10.6509 6.91194 10.3363L9.6591 13.0917C9.34426 13.2199 9.01942 13.3221 8.68786 13.3972V13.3972ZM10.6073 12.6004L7.40441 9.38801C7.56452 9.13139 7.7429 8.88663 7.93817 8.65564L11.3453 12.0629C11.1126 12.2597 10.866 12.4393 10.6073 12.6004V12.6004ZM12.0643 11.3438L8.65726 7.93659C8.88853 7.74118 9.13358 7.56269 9.39051 7.40251L12.5985 10.6098C12.4383 10.867 12.2598 11.1123 12.0643 11.3438V11.3438ZM11.3082 6.605L13.3955 8.69239C13.3203 9.02375 13.218 9.34837 13.0897 9.66299L10.3372 6.91102C10.652 6.78262 10.9767 6.68026 11.3082 6.605ZM13.5594 7.28907C13.5594 7.33053 13.554 7.37069 13.5532 7.41197L12.5884 6.44714C12.63 6.44633 12.6705 6.44087 12.7123 6.44087C12.977 6.44266 13.2413 6.46122 13.5037 6.49643C13.539 6.7592 13.5576 7.02394 13.5594 7.28907V7.28907ZM12.7123 18.983C11.3703 18.9813 10.0642 18.5498 8.98526 17.7517C7.90637 16.9537 7.11145 15.831 6.71703 14.5482C6.90619 14.563 7.09573 14.5771 7.28871 14.5771C8.24327 14.5776 9.18858 14.39 10.0706 14.0249C10.9526 13.6598 11.754 13.1245 12.429 12.4495L12.4421 12.4407L12.4514 12.4268C12.9489 11.9269 13.3716 11.3579 13.7065 10.7372L13.7152 10.7191C14.2814 9.66452 14.5773 8.48602 14.5764 7.28907C14.5764 7.0957 14.5622 6.90575 14.5474 6.71611C15.9839 7.15572 17.2149 8.09651 18.0163 9.36728C18.8177 10.638 19.1362 12.1543 18.914 13.6402C18.6917 15.126 17.9433 16.4826 16.8051 17.4632C15.667 18.4438 14.2146 18.9831 12.7123 18.983L12.7123 18.983Z" fill="#171723"/>
</g>
</g>
<defs>
<clipPath id="clip0_5313_35178">
<rect width="20" height="20" fill="white"/>
</clipPath>
<clipPath id="clip1_5313_35178">
<rect width="20" height="20" fill="white"/>
</clipPath>
</defs>
</svg>
