<svg width="20" height="20" viewBox="0 0 20 20" fill="none" xmlns="http://www.w3.org/2000/svg">
<g clip-path="url(#clip0_5313_35082)">
<path d="M18.194 7.62064C18.1916 7.60199 18.1879 7.58353 18.1829 7.56541C18.1803 7.53435 18.1741 7.5037 18.1645 7.47406C18.1569 7.45677 18.1481 7.44006 18.1382 7.42406C18.1187 7.37773 18.0868 7.33769 18.046 7.3084C18.017 7.28193 17.9842 7.25986 17.9488 7.24288C17.9369 7.23744 17.9241 7.23531 17.9117 7.23103C17.8833 7.21817 17.8535 7.20868 17.8229 7.20276C17.8103 7.20118 17.7988 7.20609 17.7863 7.20576L17.7773 7.20397H16.3315C16.2672 6.75635 16.044 6.3468 15.7027 6.05013C15.3614 5.75347 14.9247 5.58949 14.4725 5.58814H9.33089C9.14906 5.58762 8.97478 5.51539 8.84589 5.38713L7.52991 4.07084C7.24445 3.78684 6.85842 3.627 6.45575 3.6261H3.69206C3.19194 3.62671 2.71248 3.82564 2.35885 4.17928C2.00521 4.53292 1.80627 5.01237 1.80566 5.51249V14.4871C1.80673 14.977 1.99842 15.4473 2.34016 15.7984C2.6819 16.1494 3.14685 16.3537 3.63656 16.3679L3.64648 16.3711C3.66139 16.3727 3.67629 16.3733 3.69119 16.3734L3.69202 16.3735H15.2619C15.8051 16.3744 16.3295 16.1743 16.7341 15.8118C17.1387 15.4492 17.3949 14.9499 17.4534 14.4098L18.1916 7.66215C18.1923 7.65507 18.1893 7.64882 18.1897 7.6418C18.1901 7.63437 18.194 7.62817 18.194 7.62064ZM2.639 14.4871V5.51249C2.63925 5.23328 2.75028 4.96558 2.94771 4.76814C3.14514 4.57071 3.41284 4.45968 3.69206 4.45943H6.45575C6.63749 4.45999 6.81171 4.53205 6.94075 4.66003L8.25666 5.97595C8.54195 6.26035 8.92805 6.4205 9.33088 6.42151H14.4725C14.7019 6.42353 14.9242 6.50136 15.1048 6.6429C15.2854 6.78443 15.4141 6.98171 15.4708 7.20401H4.65453L4.65075 7.20276C4.64561 7.20215 4.64103 7.20442 4.6359 7.20397H4.6084C4.60168 7.20397 4.59614 7.20748 4.58953 7.20779C4.54096 7.20851 4.49293 7.21819 4.44786 7.23632L4.44241 7.23922C4.39545 7.25936 4.3527 7.28817 4.31643 7.32417L4.30908 7.33287C4.27569 7.36732 4.24866 7.40741 4.22922 7.45127C4.22511 7.46052 4.22353 7.4706 4.22006 7.48016C4.20673 7.50945 4.19693 7.54022 4.19089 7.57182L3.32658 15.4663C3.12569 15.3928 2.9521 15.2596 2.82918 15.0845C2.70625 14.9095 2.63988 14.701 2.639 14.4871ZM16.625 14.3186C16.5885 14.6546 16.4292 14.9651 16.1775 15.1906C15.9259 15.4161 15.5998 15.5406 15.2619 15.5402H4.15689L4.97825 8.03731H17.3122L16.625 14.3186Z" fill="#171723"/>
</g>
<defs>
<clipPath id="clip0_5313_35082">
<rect width="20" height="20" fill="white"/>
</clipPath>
</defs>
</svg>
