<svg width="20" height="20" viewBox="0 0 20 20" fill="none" xmlns="http://www.w3.org/2000/svg">
<g clip-path="url(#clip0_5313_35082)">
<path d="M20 7.01377C19.9971 6.99036 19.9925 6.96719 19.9864 6.94444C19.9832 6.90546 19.9757 6.86699 19.9639 6.82978C19.9547 6.80809 19.944 6.78712 19.9318 6.76703C19.9081 6.70888 19.8692 6.65862 19.8194 6.62186C19.7839 6.58863 19.744 6.56093 19.7008 6.53962C19.6862 6.53279 19.6706 6.53012 19.6554 6.52475C19.6208 6.50861 19.5844 6.4967 19.5471 6.48926C19.5317 6.48728 19.5177 6.49345 19.5024 6.49303L19.4915 6.49079H17.727C17.6485 5.92895 17.3762 5.4149 16.9596 5.04254C16.5431 4.67018 16.0102 4.46436 15.4583 4.46267H9.18363C8.96173 4.46201 8.74904 4.37135 8.59174 4.21037L6.98576 2.55822C6.63739 2.20175 6.16628 2.00114 5.67487 2H2.30211C1.69178 2.00076 1.10666 2.25046 0.675091 2.69433C0.243521 3.1382 0.000740108 3.73999 0 4.36771V15.6322C0.00129826 16.2472 0.235239 16.8374 0.652288 17.2781C1.06934 17.7187 1.63675 17.9751 2.23439 17.993L2.24649 17.9969C2.26469 17.9989 2.28287 17.9997 2.30106 17.9999L2.30207 18H16.4217C17.0846 18.0011 17.7246 17.7499 18.2183 17.2949C18.7121 16.8399 19.0248 16.2131 19.0962 15.5352L19.997 7.06587C19.998 7.05699 19.9943 7.04913 19.9948 7.04033C19.9953 7.03101 20 7.02323 20 7.01377ZM1.01698 15.6322V4.36771C1.01729 4.01726 1.15279 3.68125 1.39373 3.43344C1.63467 3.18564 1.96137 3.04628 2.30211 3.04596H5.67487C5.89666 3.04666 6.10927 3.13711 6.26675 3.29775L7.87267 4.94943C8.22082 5.30639 8.69202 5.5074 9.18362 5.50867H15.4583C15.7383 5.5112 16.0096 5.6089 16.23 5.78655C16.4504 5.9642 16.6074 6.21181 16.6767 6.49083H3.4767L3.47208 6.48926C3.46582 6.4885 3.46022 6.49135 3.45396 6.49079H3.4204C3.4122 6.49079 3.40544 6.49519 3.39737 6.49558C3.33809 6.49649 3.27948 6.50863 3.22449 6.53139L3.21783 6.53503C3.16052 6.5603 3.10835 6.59647 3.06409 6.64165L3.05512 6.65257C3.01437 6.69581 2.98138 6.74613 2.95766 6.80119C2.95264 6.8128 2.95071 6.82544 2.94647 6.83744C2.9302 6.8742 2.91826 6.91283 2.91088 6.9525L1.8561 16.8612C1.61093 16.769 1.39909 16.6019 1.24907 16.3821C1.09906 16.1624 1.01806 15.9007 1.01698 15.6322ZM18.0852 15.4208C18.0407 15.8424 17.8462 16.2322 17.5391 16.5153C17.232 16.7983 16.834 16.9546 16.4217 16.954H2.86939L3.87175 7.53675H18.9239L18.0852 15.4208Z" fill="#171723"/>
</g>
<defs>
<clipPath id="clip0_5313_35082">
<rect width="20" height="20" fill="white"/>
</clipPath>
</defs>
</svg>
