<svg width="20" height="20" viewBox="0 0 20 20" fill="none" xmlns="http://www.w3.org/2000/svg">
<g clip-path="url(#clip0_10314_145334)">
<path d="M14.7663 9.96885L13.8713 9.46033H13.8611L11.3387 10.9148L10.4437 11.4233L10.3114 11.5047C10.1911 11.5757 10.0544 11.6143 9.91471 11.6166C9.77783 11.617 9.6437 11.5782 9.52822 11.5047H9.51805L9.26381 11.3623L8.32806 10.8232L5.95821 9.46033L5.07336 9.96885C5.03008 9.99186 4.99466 10.0273 4.97166 10.0705C4.94971 10.111 4.93917 10.1567 4.94116 10.2027C4.9416 10.2453 4.95205 10.2871 4.97166 10.3248C4.99692 10.3601 5.02788 10.3911 5.06328 10.4163L6.10063 11.0164L7.29073 11.708L8.22642 12.2471L9.78254 13.1422C9.82192 13.1622 9.86549 13.1727 9.90969 13.1727C9.95388 13.1727 9.99745 13.1622 10.0368 13.1422L11.2879 12.42L12.1829 11.9012L13.7289 11.0164C13.7505 11.002 13.7747 10.9917 13.8 10.9859L14.7663 10.4163C14.8012 10.3936 14.8293 10.362 14.8477 10.3248C14.8746 10.2898 14.8889 10.2468 14.8884 10.2027C14.8921 10.1551 14.8776 10.1078 14.8477 10.0705C14.829 10.0307 14.8011 9.99581 14.7663 9.96885V9.96885Z" fill="#171723"/>
<path d="M3.56569 5.13333C3.99853 5.13042 4.42343 5.01674 4.7999 4.80312L6.64987 6.97868L5.07333 7.88383C5.0307 7.90296 4.99513 7.93497 4.97164 7.97536C4.95082 8.01629 4.94035 8.0617 4.94113 8.10762C4.94157 8.15013 4.95202 8.19193 4.97164 8.22965C4.99511 8.27006 5.03068 8.30207 5.07333 8.32117L6.10055 8.92126L8.75517 10.4571L9.69097 10.9961L9.78249 11.047C9.82188 11.067 9.86544 11.0775 9.90964 11.0775C9.95384 11.0775 9.9974 11.067 10.0368 11.047L10.0978 11.0165L10.9928 10.4978L13.7288 8.92126C13.7491 8.9111 13.7796 8.90093 13.8 8.89076L14.7663 8.32115C14.8008 8.29818 14.8289 8.26665 14.8476 8.22963C14.8745 8.1947 14.8889 8.1517 14.8883 8.1076C14.8905 8.06012 14.8761 8.01336 14.8476 7.97534C14.832 7.93625 14.8032 7.90387 14.7663 7.88381L13.9221 7.39568L15.1676 6.33835C15.5308 6.60547 15.9695 6.75005 16.4204 6.75113C16.844 6.75113 17.2582 6.62549 17.6105 6.39011C17.9627 6.15473 18.2373 5.82018 18.3994 5.42876C18.5615 5.03734 18.6039 4.60664 18.5213 4.19111C18.4386 3.77559 18.2346 3.3939 17.935 3.09432C17.6355 2.79474 17.2538 2.59072 16.8383 2.50807C16.4227 2.42541 15.992 2.46783 15.6006 2.62995C15.2092 2.79208 14.8746 3.06663 14.6393 3.41889C14.4039 3.77115 14.2782 4.1853 14.2782 4.60897C14.2804 4.94028 14.3604 5.26645 14.5118 5.56116L12.9863 6.85654L10.0368 5.16821C10.0003 5.14418 9.95823 5.13015 9.91467 5.12753C9.86796 5.13017 9.82259 5.14413 9.78247 5.16821L7.5449 6.45991L5.57528 4.14436C5.9339 3.69665 6.13042 3.14073 6.13284 2.5671C6.13293 2.05947 5.98248 1.5632 5.70052 1.14107C5.41857 0.718939 5.01777 0.389895 4.54881 0.195549C4.07985 0.00120294 3.56379 -0.0497164 3.06589 0.0492299C2.56799 0.148176 2.11062 0.392544 1.7516 0.751432C1.39258 1.11032 1.14805 1.56761 1.04892 2.06547C0.949796 2.56334 1.00053 3.07941 1.19471 3.54844C1.38888 4.01748 1.71778 4.41839 2.13981 4.7005C2.56184 4.98261 3.05805 5.13323 3.56569 5.13333V5.13333Z" fill="#171723"/>
<path d="M16.4206 15.3335C16.0435 15.3361 15.6728 15.4313 15.341 15.6106L13.3731 13.305L14.7665 12.5015C14.8011 12.4785 14.8291 12.447 14.8479 12.41C14.8743 12.3748 14.8885 12.3319 14.8885 12.2879C14.8885 12.2439 14.8743 12.2011 14.8479 12.1659C14.8418 12.1444 14.8314 12.1243 14.8175 12.1068C14.8035 12.0893 14.7862 12.0749 14.7665 12.0642L13.8715 11.5454H13.8613L12.5391 12.3082L11.6441 12.827L10.3116 13.5999C10.1911 13.6699 10.0543 13.7067 9.91495 13.7067C9.77562 13.7067 9.63877 13.6699 9.51827 13.5999L7.79947 12.6032L6.86367 12.0642L5.95844 11.5454L5.07359 12.0642C5.02818 12.0842 4.9919 12.1205 4.9719 12.1659C4.95186 12.2034 4.94137 12.2454 4.94137 12.2879C4.94137 12.3305 4.95186 12.3724 4.9719 12.41C4.9954 12.4504 5.03096 12.4824 5.07359 12.5015L5.83641 12.9389L4.81421 13.8094C4.38167 13.4922 3.8478 13.3449 3.31382 13.3952C2.77985 13.4455 2.2829 13.69 1.91719 14.0823C1.55148 14.4746 1.34245 14.9875 1.32972 15.5237C1.31699 16.0599 1.50145 16.5821 1.84813 16.9913C2.19481 17.4006 2.6796 17.6684 3.21059 17.7439C3.74158 17.8195 4.28184 17.6976 4.72894 17.4014C5.17605 17.1052 5.49891 16.6552 5.6363 16.1367C5.7737 15.6183 5.71609 15.0674 5.47438 14.5887L6.77217 13.4881L9.78274 15.2273C9.82047 15.2522 9.86468 15.2654 9.90988 15.2654C9.95509 15.2654 9.99929 15.2522 10.037 15.2273L12.4781 13.8135L14.5663 16.2657C14.257 16.6676 14.0886 17.1601 14.0868 17.6672C14.0869 18.1286 14.2238 18.5797 14.4802 18.9633C14.7366 19.347 15.1011 19.646 15.5274 19.8225C15.9537 19.9991 16.4228 20.0452 16.8754 19.9552C17.328 19.8651 17.7437 19.6429 18.07 19.3167C18.3963 18.9904 18.6185 18.5747 18.7085 18.1221C18.7986 17.6695 18.7524 17.2004 18.5759 16.7741C18.3994 16.3478 18.1004 15.9833 17.7167 15.7269C17.3331 15.4705 16.8821 15.3336 16.4206 15.3335V15.3335Z" fill="#171723"/>
</g>
<defs>
<clipPath id="clip0_10314_145334">
<rect width="20" height="20" fill="white"/>
</clipPath>
</defs>
</svg>
