<svg width="20" height="20" viewBox="0 0 20 20" fill="none" xmlns="http://www.w3.org/2000/svg">
<g clip-path="url(#clip0_10314_145334)">
<path d="M14.0071 9.97433L13.2736 9.55762H13.2653L11.1983 10.7495L10.4648 11.1662L10.3565 11.2329C10.2579 11.2911 10.1459 11.3227 10.0314 11.3246C9.91921 11.3249 9.8093 11.2931 9.71467 11.2329H9.70634L9.498 11.1162L8.73119 10.6745L6.78919 9.55762L6.06409 9.97433C6.02863 9.99318 5.99961 10.0222 5.98076 10.0577C5.96277 10.0908 5.95413 10.1283 5.95576 10.166C5.95613 10.2008 5.96469 10.2351 5.98076 10.266C6.00146 10.295 6.02683 10.3203 6.05584 10.341L6.9059 10.8327L7.88114 11.3995L8.6479 11.8412L9.92308 12.5747C9.95535 12.5912 9.99105 12.5997 10.0273 12.5997C10.0635 12.5997 10.0992 12.5912 10.1315 12.5747L11.1566 11.9829L11.8901 11.5578L13.1569 10.8327C13.1747 10.8209 13.1945 10.8125 13.2153 10.8077L14.0071 10.341C14.0356 10.3224 14.0587 10.2965 14.0738 10.266C14.0958 10.2374 14.1076 10.2021 14.1071 10.166C14.1102 10.1269 14.0983 10.0882 14.0738 10.0576C14.0584 10.025 14.0356 9.99642 14.0071 9.97433Z" fill="#171723"/>
<path d="M4.82846 6.01173C5.18316 6.00935 5.53134 5.91619 5.83985 5.74114L7.35582 7.52392L6.06391 8.26565C6.02898 8.28133 5.99983 8.30756 5.98058 8.34065C5.96352 8.3742 5.95494 8.41141 5.95558 8.44904C5.95594 8.48387 5.96451 8.51813 5.98058 8.54904C5.99981 8.58215 6.02896 8.60838 6.06391 8.62404L6.90568 9.11579L9.08103 10.3743L9.84788 10.816L9.92288 10.8577C9.95515 10.8741 9.99085 10.8827 10.0271 10.8827C10.0633 10.8827 10.099 10.8741 10.1313 10.8577L10.1813 10.8327L10.9147 10.4077L13.1567 9.11579C13.1734 9.10745 13.1984 9.09912 13.215 9.09079L14.0069 8.62402C14.0352 8.6052 14.0582 8.57936 14.0735 8.54902C14.0956 8.5204 14.1074 8.48516 14.1069 8.44902C14.1087 8.41012 14.0969 8.37179 14.0735 8.34064C14.0608 8.30861 14.0372 8.28207 14.0069 8.26564L13.3151 7.86564L14.3357 6.99919C14.6333 7.21809 14.9929 7.33656 15.3623 7.33745C15.7095 7.33745 16.0489 7.23449 16.3376 7.04161C16.6262 6.84873 16.8512 6.57457 16.9841 6.25382C17.1169 5.93307 17.1517 5.58013 17.084 5.23962C17.0162 4.89911 16.8491 4.58634 16.6036 4.34085C16.3581 4.09535 16.0453 3.92817 15.7048 3.86043C15.3643 3.7927 15.0113 3.82746 14.6906 3.96031C14.3698 4.09317 14.0957 4.31815 13.9028 4.60682C13.7099 4.89548 13.607 5.23486 13.6069 5.58204C13.6087 5.85353 13.6743 6.12081 13.7983 6.36232L12.5483 7.42383L10.1312 6.04031C10.1014 6.02062 10.0669 6.00913 10.0312 6.00698C9.99291 6.00914 9.95573 6.02058 9.92286 6.04031L8.08926 7.09881L6.47524 5.20131C6.76911 4.83443 6.93015 4.37888 6.93214 3.90881C6.93221 3.49282 6.80892 3.08616 6.57787 2.74024C6.34682 2.39432 6.01838 2.12468 5.63409 1.96542C5.2498 1.80616 4.82691 1.76444 4.4189 1.84552C4.01089 1.9266 3.63609 2.12685 3.34189 2.42094C3.04769 2.71504 2.84731 3.08977 2.76608 3.49775C2.68485 3.90573 2.72642 4.32863 2.88554 4.71298C3.04466 5.09733 3.31418 5.42587 3.66002 5.65704C4.00585 5.88822 4.41248 6.01165 4.82846 6.01173Z" fill="#171723"/>
<path d="M15.3625 14.3704C15.0535 14.3725 14.7497 14.4505 14.4778 14.5975L12.8652 12.7081L14.007 12.0497C14.0353 12.0309 14.0583 12.005 14.0737 11.9747C14.0953 11.9459 14.107 11.9108 14.107 11.8747C14.107 11.8386 14.0953 11.8035 14.0737 11.7747C14.0687 11.757 14.0602 11.7406 14.0488 11.7263C14.0373 11.712 14.0231 11.7001 14.007 11.6913L13.2736 11.2662H13.2653L12.1817 11.8913L11.4483 12.3164L10.3564 12.9498C10.2577 13.0072 10.1455 13.0374 10.0314 13.0374C9.91718 13.0374 9.80504 13.0072 9.7063 12.9498L8.2978 12.133L7.53095 11.6914L6.78916 11.2662L6.06406 11.6914C6.02685 11.7077 5.99712 11.7375 5.98073 11.7747C5.96431 11.8055 5.95571 11.8398 5.95571 11.8747C5.95571 11.9096 5.96431 11.944 5.98073 11.9747C5.99999 12.0078 6.02913 12.0341 6.06406 12.0497L6.68916 12.4081L5.85151 13.1215C5.49706 12.8616 5.05957 12.7408 4.622 12.782C4.18443 12.8233 3.7772 13.0236 3.47752 13.3451C3.17784 13.6666 3.00654 14.0869 2.99611 14.5263C2.98568 14.9656 3.13684 15.3936 3.42093 15.7289C3.70502 16.0643 4.10229 16.2837 4.53741 16.3457C4.97253 16.4076 5.41525 16.3077 5.78164 16.065C6.14802 15.8222 6.41259 15.4535 6.52518 15.0286C6.63777 14.6038 6.59056 14.1524 6.39249 13.7601L7.45598 12.8582L9.92301 14.2834C9.95393 14.3038 9.99016 14.3147 10.0272 14.3147C10.0642 14.3147 10.1005 14.3038 10.1314 14.2834L12.1317 13.1248L13.8429 15.1343C13.5895 15.4637 13.4515 15.8672 13.45 16.2828C13.4501 16.6609 13.5623 17.0305 13.7724 17.3449C13.9825 17.6593 14.2812 17.9043 14.6305 18.049C14.9799 18.1936 15.3643 18.2315 15.7352 18.1577C16.106 18.0839 16.4467 17.9018 16.7141 17.6345C16.9814 17.3671 17.1635 17.0264 17.2373 16.6556C17.3111 16.2847 17.2733 15.9003 17.1286 15.5509C16.984 15.2016 16.739 14.9029 16.4246 14.6928C16.1102 14.4827 15.7406 14.3705 15.3625 14.3704Z" fill="#171723"/>
</g>
<defs>
<clipPath id="clip0_10314_145334">
<rect width="20" height="20" fill="white"/>
</clipPath>
</defs>
</svg>
