<svg width="20" height="20" viewBox="0 0 20 20" fill="none" xmlns="http://www.w3.org/2000/svg">
<g clip-path="url(#clip0_5313_35226)">
<path d="M0.508596 8.13379H8.64527C8.92613 8.13379 9.15381 8.36167 9.15381 8.64277V19.491C9.15381 19.7721 8.92613 20 8.64527 20H0.508596C0.227736 20 5.43594e-05 19.7721 5.43594e-05 19.491V8.64277C5.43594e-05 8.36167 0.227736 8.13379 0.508596 8.13379Z" fill="#171723"/>
<path d="M11.3578 0H19.4915C19.7723 0 20 0.227881 20 0.508985V11.3572C20 11.6383 19.7723 11.8662 19.4915 11.8662H11.3578C11.0769 11.8662 10.8492 11.6383 10.8492 11.3572V0.508985C10.8492 0.227881 11.0769 0 11.3578 0Z" fill="#171723"/>
<path d="M0.510113 0H8.6438C8.92466 0 9.15234 0.227881 9.15234 0.508985V5.93336C9.15234 6.21446 8.92466 6.44234 8.6438 6.44234H0.510113C0.229253 6.44234 0.0015707 6.21446 0.0015707 5.93336V0.508985C0.0015707 0.227881 0.229253 0 0.510113 0Z" fill="#171723"/>
<path d="M11.3578 13.5631H19.4915C19.7723 13.5631 20 13.791 20 14.0721V19.49C20 19.7711 19.7723 19.999 19.4915 19.999H11.3578C11.0769 19.999 10.8492 19.7711 10.8492 19.49V14.0721C10.8492 13.791 11.0769 13.5631 11.3578 13.5631Z" fill="#171723"/>
</g>
<defs>
<clipPath id="clip0_5313_35226">
<rect width="20" height="20" fill="white" transform="matrix(-1 0 0 1 20 0)"/>
</clipPath>
</defs>
</svg>
