<svg width="20" height="20" viewBox="0 0 20 20" fill="none" xmlns="http://www.w3.org/2000/svg">
<g clip-path="url(#clip0_10317_147146)">
<path d="M2.22217 5.75787L2.26389 16.8784C2.26411 16.994 2.28718 17.1084 2.33177 17.215C2.37637 17.3217 2.4416 17.4185 2.52372 17.4998C2.60585 17.5812 2.70324 17.6455 2.81031 17.689C2.91737 17.7326 3.032 17.7546 3.14758 17.7537H16.8941C17.0107 17.7558 17.1265 17.7343 17.2346 17.6906C17.3428 17.6469 17.441 17.5819 17.5235 17.4995C17.6059 17.417 17.671 17.3188 17.7146 17.2106C17.7583 17.1025 17.7798 16.9867 17.7778 16.8701V5.75787H2.22217ZM13.2012 8.60886H6.79877C6.57768 8.60886 6.36564 8.52103 6.20931 8.36469C6.05297 8.20836 5.96514 7.99632 5.96514 7.77523C5.96514 7.55414 6.05297 7.34211 6.20931 7.18577C6.36564 7.02944 6.57768 6.94161 6.79877 6.94161H13.2012C13.4222 6.94161 13.6343 7.02944 13.7906 7.18577C13.9469 7.34211 14.0348 7.55414 14.0348 7.77523C14.0348 7.99632 13.9469 8.20836 13.7906 8.36469C13.6343 8.52103 13.4222 8.60886 13.2012 8.60886Z" fill="#171723"/>
<path d="M9.56086 2.24634L9.57845 4.88081H2.61475L4.14273 2.624C4.22323 2.50749 4.3308 2.41225 4.45621 2.34647C4.58162 2.28069 4.72112 2.24633 4.86273 2.24634H9.56086Z" fill="#171723"/>
<path d="M17.4028 4.88086H10.4565L10.439 2.24638H15.181C15.324 2.24411 15.4652 2.27842 15.5912 2.34604C15.7172 2.41367 15.8239 2.51237 15.901 2.63277L17.4028 4.88086Z" fill="#171723"/>
</g>
<defs>
<clipPath id="clip0_10317_147146">
<rect width="20" height="20" fill="white"/>
</clipPath>
</defs>
</svg>
