<svg width="20" height="20" viewBox="0 0 20 20" fill="none" xmlns="http://www.w3.org/2000/svg">
<g clip-path="url(#clip0_10259_149786)">
<path d="M18.1951 8.88794C18.1928 8.8703 18.1893 8.85285 18.1846 8.8357C18.1616 8.37924 17.9709 7.94735 17.6491 7.62288L16.8263 6.7989C16.5894 6.56519 16.2945 6.39896 15.9718 6.31739V6.24715C15.9709 5.36338 15.6194 4.51608 14.9945 3.89117C14.3696 3.26625 13.5223 2.91476 12.6385 2.91381H12.6242C12.5901 2.60897 12.4451 2.32731 12.2168 2.12247C11.9885 1.91763 11.6928 1.80391 11.3861 1.80298H6.39174C6.08492 1.80389 5.78915 1.91758 5.56071 2.12241C5.33228 2.32724 5.18712 2.60891 5.15288 2.91381H5.13851C4.25474 2.91475 3.40744 3.26625 2.78253 3.89116C2.15761 4.51608 1.80612 5.36338 1.80518 6.24715V14.8633C1.80606 15.7471 2.15753 16.5944 2.78246 17.2193C3.40739 17.8443 4.25473 18.1957 5.13851 18.1966H12.6385L12.6466 18.1949H16.3258C16.8215 18.1945 17.2967 17.9974 17.6472 17.647C17.9976 17.2965 18.1947 16.8213 18.1952 16.3256V8.94365C18.1952 8.93088 18.1917 8.91878 18.1915 8.90606C18.1918 8.89974 18.1951 8.8944 18.1951 8.88794ZM17.0591 8.21127C17.1294 8.28871 17.1876 8.37637 17.2316 8.47127H15.9727V7.21083C16.0692 7.25555 16.1582 7.31509 16.2363 7.38727L17.0591 8.21127ZM5.97184 3.05583C5.97199 2.94454 6.0163 2.83786 6.09503 2.75921C6.17376 2.68055 6.28048 2.63635 6.39177 2.63631H11.386C11.4972 2.63651 11.6037 2.68078 11.6823 2.75942C11.7609 2.83807 11.8051 2.94466 11.8052 3.05583V3.60555C11.8051 3.71674 11.761 3.82336 11.6824 3.90202C11.6038 3.98067 11.4972 4.02493 11.3861 4.02507H6.39174C6.28044 4.02509 6.17368 3.98091 6.09494 3.90224C6.0162 3.82357 5.97192 3.71685 5.97184 3.60555V3.05583ZM2.63851 14.8633V6.24715C2.63923 5.58433 2.90286 4.94886 3.37154 4.48018C3.84023 4.01149 4.47569 3.74787 5.13851 3.74715H5.15285C5.18702 4.05212 5.33215 4.33389 5.5606 4.5388C5.78906 4.74371 6.08488 4.85746 6.39177 4.8584H11.386C11.6928 4.85745 11.9885 4.74368 12.2169 4.53875C12.4452 4.33382 12.5902 4.05206 12.6242 3.74715H12.6385C13.3013 3.74787 13.9368 4.01149 14.4055 4.48018C14.8742 4.94886 15.1378 5.58433 15.1385 6.24715V6.24916H10.001C9.50524 6.24965 9.0299 6.44678 8.67929 6.79731C8.32868 7.14783 8.13144 7.62312 8.13083 8.11889V16.3257C8.13059 16.6953 8.24064 17.0566 8.44689 17.3633H5.13851C4.47569 17.3626 3.84023 17.0989 3.37154 16.6302C2.90286 16.1616 2.63923 15.5261 2.63851 14.8633V14.8633ZM16.3258 17.3617H10.001C9.7262 17.3614 9.46277 17.2522 9.26841 17.058C9.07406 16.8638 8.96464 16.6004 8.96417 16.3257V8.11889C8.96462 7.8441 9.07401 7.58069 9.26836 7.38642C9.46271 7.19214 9.72615 7.08285 10.001 7.08249H15.1393V8.88792C15.1393 8.94265 15.15 8.99684 15.1709 9.04741C15.1919 9.09797 15.2226 9.14392 15.2613 9.18262C15.3 9.22131 15.3459 9.252 15.3965 9.27293C15.447 9.29386 15.5012 9.30462 15.556 9.30459H17.3618V16.3257C17.3615 16.6003 17.2523 16.8637 17.058 17.0579C16.8638 17.2521 16.6005 17.3614 16.3258 17.3617H16.3258Z" fill="#171723"/>
</g>
<defs>
<clipPath id="clip0_10259_149786">
<rect width="20" height="20" fill="white"/>
</clipPath>
</defs>
</svg>
