<svg width="20" height="20" viewBox="0 0 20 20" fill="none" xmlns="http://www.w3.org/2000/svg">
<path d="M7.2111 15.9667C6.76908 15.9667 6.34517 15.772 6.03261 15.4254C5.72006 15.0788 5.54446 14.6088 5.54443 14.1187V5.87303C5.54443 5.38291 5.72003 4.91286 6.03259 4.56629C6.34515 4.21972 6.76907 4.02502 7.2111 4.02502C7.65313 4.02502 8.07705 4.21972 8.38961 4.56629C8.70217 4.91286 8.87777 5.38291 8.87777 5.87303V14.1187C8.87774 14.6088 8.70214 15.0788 8.38959 15.4254C8.07703 15.772 7.65312 15.9667 7.2111 15.9667Z" fill="#171723"/>
<path d="M12.7892 15.9667C12.3472 15.9667 11.9233 15.772 11.6107 15.4254C11.2982 15.0788 11.1226 14.6088 11.1226 14.1187V5.87303C11.1226 5.38291 11.2982 4.91286 11.6107 4.56629C11.9233 4.21972 12.3472 4.02502 12.7892 4.02502C13.2313 4.02502 13.6552 4.21972 13.9677 4.56629C14.2803 4.91286 14.4559 5.38291 14.4559 5.87303V14.1187C14.4559 14.6088 14.2803 15.0788 13.9677 15.4254C13.6552 15.772 13.2312 15.9667 12.7892 15.9667Z" fill="#171723"/>
</svg>
