<svg width="20" height="20" viewBox="0 0 20 20" fill="none" xmlns="http://www.w3.org/2000/svg">
<g clip-path="url(#clip0_5313_35174)">
<g clip-path="url(#clip1_5313_35174)">
<path d="M18.3929 4.30414C18.3898 4.27381 18.3837 4.24384 18.3749 4.21465C18.3356 3.48912 18.0314 2.80326 17.52 2.28708L16.1138 0.877908C15.5514 0.317497 14.7904 0.00195723 13.9965 0H4.59864C3.80573 0.000785685 3.0455 0.316051 2.48474 0.876635C1.92397 1.43722 1.60846 2.19734 1.60742 2.99025V17.01C1.60847 17.8029 1.92398 18.563 2.48475 19.1236C3.04552 19.6842 3.80575 19.9995 4.59866 20.0002H15.4027C16.1954 19.9993 16.9555 19.6839 17.516 19.1233C18.0766 18.5628 18.3919 17.8027 18.3929 17.01V4.39948C18.3929 4.37768 18.3871 4.35696 18.3867 4.33524C18.3874 4.3244 18.3929 4.31518 18.3929 4.30414ZM16.799 3.00514C17.0175 3.22726 17.1798 3.49825 17.2727 3.79566H14.5963V1.12103C14.8962 1.21399 15.1696 1.37715 15.3938 1.59696L16.799 3.00514ZM15.4027 18.9833H4.59864C4.07533 18.9829 3.57357 18.7748 3.20344 18.4049C2.83332 18.035 2.62506 17.5333 2.62437 17.01V2.99025C2.62506 2.46694 2.83332 1.96528 3.20345 1.59533C3.57358 1.22538 4.07535 1.01738 4.59866 1.01694H13.5794V4.30414C13.5793 4.37092 13.5925 4.43706 13.618 4.49877C13.6435 4.56048 13.681 4.61654 13.7282 4.66377C13.7754 4.71099 13.8315 4.74844 13.8932 4.77398C13.9549 4.79952 14.0211 4.81265 14.0878 4.81261H17.376V17.01C17.3756 17.5332 17.1675 18.0349 16.7975 18.4048C16.4276 18.7748 15.9259 18.9828 15.4027 18.9833H15.4027Z" fill="#171723"/>
<path d="M4.93318 8.54775H3.8924C3.77104 8.54797 3.65472 8.59627 3.56891 8.68208C3.48309 8.76789 3.43479 8.88421 3.43457 9.00557V13.6176C3.45274 13.7462 3.51729 13.8637 3.61606 13.948C3.71483 14.0323 3.84101 14.0776 3.97086 14.0754C4.09221 14.0752 4.20853 14.0269 4.29435 13.9411C4.38016 13.8553 4.42846 13.7389 4.42867 13.6176V12.0991H4.93318C5.19877 12.1012 5.46286 12.0593 5.71471 11.9749C5.9481 11.8964 6.16519 11.7759 6.35527 11.6194C6.54197 11.4628 6.69213 11.2672 6.79522 11.0464C6.9005 10.82 6.95442 10.5731 6.95312 10.3234C6.9685 10.0696 6.92465 9.81577 6.82503 9.58188C6.72541 9.34798 6.57274 9.14047 6.3791 8.97574C5.9608 8.67082 5.45006 8.51964 4.93318 8.54775V8.54775ZM5.8955 10.6214C5.85185 10.7155 5.78892 10.7994 5.71078 10.8677C5.61647 10.9472 5.50797 11.0082 5.391 11.0474C5.2434 11.0963 5.08862 11.1198 4.93318 11.117H4.42867V9.52894H4.93318C5.22011 9.50454 5.50692 9.57729 5.74753 9.73551C5.82582 9.81047 5.88559 9.9026 5.92213 10.0046C5.95866 10.1067 5.97096 10.2158 5.95804 10.3234C5.95972 10.4262 5.93835 10.528 5.8955 10.6214V10.6214Z" fill="#171723"/>
<path d="M11.4911 9.29653C11.2563 9.04998 10.9701 8.85809 10.6529 8.73442C10.3231 8.60786 9.97234 8.54452 9.61906 8.54772H7.97149C7.85014 8.54794 7.73382 8.59624 7.648 8.68205C7.56219 8.76786 7.51389 8.88419 7.51367 9.00554V13.6175C7.51389 13.7389 7.56219 13.8552 7.648 13.941C7.73381 14.0269 7.85013 14.0752 7.97149 14.0754H9.61906C9.97234 14.0786 10.3231 14.0152 10.6529 13.8887C10.9701 13.765 11.2563 13.5731 11.4911 13.3266C11.7289 13.0725 11.9116 12.7719 12.0274 12.4437C12.2723 11.7088 12.2723 10.9143 12.0274 10.1794C11.9115 9.85124 11.7289 9.55064 11.4911 9.29653V9.29653ZM11.0869 12.111C11.0182 12.3129 10.9083 12.4982 10.7641 12.6552C10.6302 12.7978 10.4655 12.9079 10.2825 12.977C10.0708 13.0578 9.84563 13.0976 9.61906 13.0942H8.50876V9.52891H9.61906C9.84552 9.5257 10.0706 9.56512 10.2825 9.64511C10.4655 9.71515 10.6305 9.82546 10.7651 9.96787C10.9086 10.1254 11.0185 10.3106 11.0879 10.5121C11.2511 11.0326 11.2507 11.5907 11.0869 12.111H11.0869Z" fill="#171723"/>
<path d="M16.1087 8.54773H13.4134C13.292 8.54795 13.1757 8.59625 13.0899 8.68206C13.0041 8.76787 12.9558 8.88419 12.9556 9.00555V13.6176C12.974 13.7462 13.0387 13.8637 13.1376 13.948C13.2366 14.0324 13.3629 14.0776 13.4928 14.0754C13.6142 14.0752 13.7305 14.0269 13.8163 13.941C13.9021 13.8552 13.9504 13.7389 13.9507 13.6176V11.8349H15.779C15.9071 11.8181 16.0245 11.7548 16.1089 11.657C16.1934 11.5592 16.2389 11.4338 16.2368 11.3046C16.2366 11.1832 16.1883 11.0669 16.1025 10.9811C16.0167 10.8953 15.9003 10.847 15.779 10.8468H13.9507V9.53587H16.1087C16.23 9.53566 16.3464 9.48735 16.4322 9.40154C16.518 9.31573 16.5663 9.1994 16.5665 9.07805V9.00555C16.5663 8.88419 16.518 8.76787 16.4322 8.68206C16.3464 8.59625 16.23 8.54794 16.1087 8.54773V8.54773Z" fill="#171723"/>
</g>
</g>
<defs>
<clipPath id="clip0_5313_35174">
<rect width="20" height="20" fill="white"/>
</clipPath>
<clipPath id="clip1_5313_35174">
<rect width="20" height="20" fill="white"/>
</clipPath>
</defs>
</svg>
