<svg width="20" height="20" viewBox="0 0 20 20" fill="none" xmlns="http://www.w3.org/2000/svg">
<g clip-path="url(#clip0_10314_146386)">
<path d="M13.2489 7.27766V2.67642C13.249 2.66437 13.2423 2.65267 13.2419 2.64058H13.4319C13.5424 2.64058 13.6484 2.59669 13.7266 2.51855C13.8047 2.44041 13.8486 2.33442 13.8486 2.22392C13.8486 2.11341 13.8047 2.00743 13.7266 1.92929C13.6484 1.85115 13.5424 1.80725 13.4319 1.80725H6.56836C6.45785 1.80725 6.35187 1.85115 6.27373 1.92929C6.19559 2.00743 6.15169 2.11341 6.15169 2.22392C6.15169 2.33442 6.19559 2.44041 6.27373 2.51855C6.35187 2.59669 6.45785 2.64058 6.56836 2.64058H6.77086C6.77051 2.65177 6.76435 2.66189 6.76445 2.67313V7.29063C6.23568 7.57195 5.78773 7.98394 5.46323 8.48736C5.13874 8.99078 4.9485 9.56889 4.91064 10.1666C4.89764 10.2879 4.91068 10.4105 4.94889 10.5263C4.98678 10.639 5.04714 10.7428 5.1263 10.8315C5.20707 10.9218 5.30606 10.9939 5.41673 11.0431C5.52741 11.0924 5.64726 11.1176 5.76839 11.1172H9.5835V17.7765C9.5835 17.887 9.6274 17.993 9.70554 18.0711C9.78368 18.1493 9.88966 18.1932 10.0002 18.1932C10.1107 18.1932 10.2167 18.1493 10.2948 18.0711C10.3729 17.993 10.4168 17.887 10.4168 17.7765V11.1172H14.2352C14.3572 11.1169 14.4777 11.0906 14.5888 11.0403C14.6999 10.9899 14.799 10.9166 14.8797 10.825C14.9619 10.7309 15.023 10.6201 15.0587 10.5003C15.0936 10.3826 15.1027 10.2589 15.0856 10.1374C15.0365 9.54688 14.8434 8.97743 14.5232 8.47888C14.203 7.98034 13.7654 7.56789 13.2489 7.27766ZM5.73912 10.2537C5.75984 9.7619 5.91828 9.28577 6.1964 8.87959C6.47452 8.47341 6.86114 8.15352 7.31221 7.95637C7.39537 7.92886 7.46774 7.87584 7.51902 7.80483C7.5703 7.73382 7.59789 7.64845 7.59785 7.56086V2.67073L7.62878 2.64062L12.4156 2.67073V7.56086C12.4154 7.64848 12.4429 7.7339 12.4942 7.80493C12.5455 7.87596 12.618 7.92897 12.7012 7.95637C13.1525 8.15666 13.5366 8.48265 13.8076 8.89538C14.0786 9.30811 14.2251 9.79013 14.2295 10.2839L5.73912 10.2537Z" fill="#171723"/>
</g>
<defs>
<clipPath id="clip0_10314_146386">
<rect width="20" height="20" fill="white"/>
</clipPath>
</defs>
</svg>
