<svg width="20" height="20" viewBox="0 0 20 20" fill="none" xmlns="http://www.w3.org/2000/svg">
<g clip-path="url(#clip0_10314_146386)">
<path d="M13.8268 6.67697V1.06087C13.8269 1.04616 13.819 1.03188 13.8186 1.01713H14.0424C14.1725 1.01713 14.2974 0.963553 14.3894 0.868178C14.4814 0.772803 14.5332 0.643447 14.5332 0.508567C14.5332 0.373687 14.4814 0.244331 14.3894 0.148956C14.2974 0.0535809 14.1725 0 14.0424 0H5.95826C5.8281 0 5.70327 0.0535809 5.61123 0.148956C5.5192 0.244331 5.46749 0.373687 5.46749 0.508567C5.46749 0.643447 5.5192 0.772803 5.61123 0.868178C5.70327 0.963553 5.8281 1.01713 5.95826 1.01713H6.19677C6.19635 1.03078 6.1891 1.04314 6.18922 1.05686V6.6928C5.56642 7.03617 5.03881 7.53902 4.65661 8.15348C4.2744 8.76794 4.05034 9.47355 4.00575 10.2031C3.99044 10.3511 4.0058 10.5008 4.0508 10.6422C4.09543 10.7797 4.16652 10.9064 4.25976 11.0147C4.35489 11.1248 4.47148 11.2129 4.60184 11.273C4.73219 11.3331 4.87336 11.3639 5.01603 11.3633H9.50958V19.4914C9.50958 19.6263 9.56129 19.7557 9.65332 19.851C9.74536 19.9464 9.87018 20 10.0003 20C10.1305 20 10.2553 19.9464 10.3474 19.851C10.4394 19.7557 10.4911 19.6263 10.4911 19.4914V11.3633H14.9885C15.1321 11.3629 15.2741 11.3309 15.405 11.2695C15.5358 11.208 15.6526 11.1185 15.7476 11.0067C15.8445 10.8918 15.9164 10.7567 15.9585 10.6104C15.9995 10.4668 16.0103 10.3157 15.9901 10.1674C15.9323 9.44668 15.7048 8.75164 15.3277 8.14314C14.9505 7.53463 14.4352 7.03121 13.8268 6.67697V6.67697ZM4.98156 10.3094C5.00595 9.70913 5.19257 9.12799 5.52015 8.63222C5.84774 8.13646 6.30311 7.74601 6.83439 7.50537C6.93233 7.4718 7.01757 7.40708 7.07797 7.32041C7.13838 7.23374 7.17087 7.12954 7.17082 7.02263V1.05392L7.20725 1.01717L12.8453 1.05392V7.02263C12.8451 7.12957 12.8775 7.23384 12.9379 7.32054C12.9984 7.40724 13.0837 7.47193 13.1817 7.50537C13.7133 7.74985 14.1657 8.14773 14.4849 8.65149C14.8041 9.15525 14.9766 9.74359 14.9818 10.3462L4.98156 10.3094Z" fill="#171723"/>
</g>
<defs>
<clipPath id="clip0_10314_146386">
<rect width="20" height="20" fill="white"/>
</clipPath>
</defs>
</svg>
