<svg width="20" height="20" viewBox="0 0 20 20" fill="none" xmlns="http://www.w3.org/2000/svg">
<path d="M15.3872 20H4.58887C3.79645 19.9992 3.03671 19.6841 2.47638 19.1237C1.91605 18.5634 1.6009 17.8037 1.6001 17.0112V2.98981C1.60085 2.19728 1.91594 1.4374 2.47626 0.876892C3.03657 0.316385 3.79634 0.00102557 4.58887 0H15.3872C16.1798 0.000987452 16.9397 0.316298 17.5002 0.876775C18.0607 1.43725 18.376 2.19714 18.377 2.98977V17.0112C18.376 17.8037 18.0606 18.5635 17.5001 19.1238C16.9396 19.6841 16.1797 19.9992 15.3872 20ZM4.58887 1.01678C4.06591 1.01747 3.56457 1.22559 3.19487 1.59548C2.82517 1.96536 2.6173 2.46681 2.61688 2.98977V17.0112C2.6175 17.534 2.82546 18.0352 3.19515 18.4049C3.56484 18.7746 4.06606 18.9826 4.58887 18.9832H15.3872C15.9102 18.9828 16.4116 18.7749 16.7815 18.4052C17.1514 18.0355 17.3595 17.5342 17.3602 17.0112V2.98977C17.3597 2.46665 17.1517 1.96508 16.7818 1.59517C16.4119 1.22527 15.9103 1.01725 15.3872 1.01678H4.58887Z" fill="#171723"/>
<path d="M15.6414 5.01239H8.85263C8.7178 5.01239 8.58848 4.95882 8.49314 4.86348C8.3978 4.76814 8.34424 4.63883 8.34424 4.504C8.34424 4.36916 8.3978 4.23985 8.49314 4.14451C8.58848 4.04917 8.7178 3.99561 8.85263 3.99561H15.6414C15.7763 3.99561 15.9056 4.04917 16.0009 4.14451C16.0963 4.23985 16.1498 4.36916 16.1498 4.504C16.1498 4.63883 16.0963 4.76814 16.0009 4.86348C15.9056 4.95882 15.7763 5.01239 15.6414 5.01239Z" fill="#171723"/>
<path d="M5.25375 5.85646C5.18698 5.85654 5.12085 5.84343 5.05917 5.81787C4.99748 5.79231 4.94146 5.75481 4.89431 5.70752L3.97682 4.79004C3.88308 4.69439 3.83087 4.5656 3.83155 4.43167C3.83223 4.29774 3.88573 4.16949 3.98043 4.07479C4.07514 3.98009 4.20339 3.92658 4.33731 3.92591C4.47124 3.92523 4.60003 3.97743 4.69568 4.07118L5.25372 4.62922L6.58236 3.30061C6.62939 3.25262 6.68546 3.21443 6.74734 3.18825C6.80922 3.16207 6.87567 3.14842 6.94286 3.14808C7.01004 3.14774 7.07663 3.16072 7.13877 3.18628C7.20091 3.21183 7.25737 3.24945 7.30487 3.29696C7.35238 3.34447 7.39 3.40093 7.41556 3.46306C7.44111 3.5252 7.4541 3.59179 7.45376 3.65898C7.45342 3.72617 7.43976 3.79262 7.41358 3.8545C7.3874 3.91637 7.34921 3.97245 7.30123 4.01947L5.61325 5.70752C5.56609 5.75481 5.51006 5.79231 5.44837 5.81787C5.38667 5.84343 5.32053 5.85655 5.25375 5.85646V5.85646Z" fill="#171723"/>
<path d="M15.6414 10.5084H8.85263C8.7178 10.5084 8.58848 10.4548 8.49314 10.3595C8.3978 10.2641 8.34424 10.1348 8.34424 9.99997C8.34424 9.86513 8.3978 9.73582 8.49314 9.64048C8.58848 9.54514 8.7178 9.49158 8.85263 9.49158H15.6414C15.7763 9.49158 15.9056 9.54514 16.0009 9.64048C16.0963 9.73582 16.1498 9.86513 16.1498 9.99997C16.1498 10.1348 16.0963 10.2641 16.0009 10.3595C15.9056 10.4548 15.7763 10.5084 15.6414 10.5084Z" fill="#171723"/>
<path d="M5.25371 11.3524C5.18694 11.3524 5.12081 11.3393 5.05913 11.3138C4.99744 11.2882 4.94142 11.2507 4.89427 11.2034L3.97682 10.2859C3.88308 10.1903 3.83087 10.0615 3.83155 9.92754C3.83223 9.79362 3.88573 9.66536 3.98043 9.57066C4.07514 9.47596 4.20339 9.42246 4.33732 9.42178C4.47124 9.4211 4.60003 9.47331 4.69568 9.56705L5.25372 10.1251L6.58229 8.79652C6.67795 8.70278 6.80673 8.65058 6.94066 8.65125C7.07459 8.65193 7.20284 8.70543 7.29754 8.80013C7.39225 8.89484 7.44575 9.02309 7.44643 9.15702C7.4471 9.29095 7.3949 9.41973 7.30116 9.51539L5.61321 11.2034C5.56606 11.2507 5.51002 11.2882 5.44833 11.3138C5.38663 11.3393 5.32049 11.3524 5.25371 11.3524V11.3524Z" fill="#171723"/>
<path d="M15.6414 16.0043H8.85263C8.7178 16.0043 8.58848 15.9508 8.49314 15.8554C8.3978 15.7601 8.34424 15.6308 8.34424 15.4959C8.34424 15.3611 8.3978 15.2318 8.49314 15.1365C8.58848 15.0411 8.7178 14.9875 8.85263 14.9875H15.6414C15.7763 14.9875 15.9056 15.0411 16.0009 15.1365C16.0963 15.2318 16.1498 15.3611 16.1498 15.4959C16.1498 15.6308 16.0963 15.7601 16.0009 15.8554C15.9056 15.9508 15.7763 16.0043 15.6414 16.0043Z" fill="#171723"/>
<path d="M5.25375 16.8494C5.18699 16.8494 5.12088 16.8362 5.05921 16.8107C4.99753 16.7851 4.9415 16.7477 4.89431 16.7004L3.97682 15.7829C3.88308 15.6873 3.83087 15.5585 3.83155 15.4246C3.83223 15.2906 3.88573 15.1624 3.98043 15.0677C4.07514 14.973 4.20339 14.9195 4.33732 14.9188C4.47124 14.9181 4.60003 14.9703 4.69568 15.0641L5.25372 15.6221L6.58229 14.2926C6.62932 14.2446 6.68539 14.2064 6.74727 14.1802C6.80915 14.154 6.8756 14.1404 6.94279 14.14C7.00997 14.1397 7.07656 14.1527 7.1387 14.1782C7.20084 14.2038 7.2573 14.2414 7.3048 14.2889C7.35231 14.3364 7.38993 14.3929 7.41549 14.455C7.44104 14.5171 7.45403 14.5837 7.45369 14.6509C7.45335 14.7181 7.43969 14.7846 7.41351 14.8464C7.38733 14.9083 7.34914 14.9644 7.30116 15.0114L5.61325 16.7004C5.56605 16.7477 5.51001 16.7851 5.44833 16.8107C5.38664 16.8362 5.32052 16.8494 5.25375 16.8494Z" fill="#171723"/>
</svg>
