<svg width="20" height="20" viewBox="0 0 20 20" fill="none" xmlns="http://www.w3.org/2000/svg">
<path d="M3.52443 13.5862L6.4216 16.4833C6.27814 16.8285 6.04637 17.1298 5.74956 17.3571C5.45275 17.5843 5.10137 17.7294 4.73072 17.7778C4.72191 17.6545 4.72191 17.5224 4.72191 17.3903C4.73072 17.2406 4.75717 17.1085 4.7748 16.9852C4.79509 16.895 4.78544 16.8007 4.7473 16.7165C4.70917 16.6323 4.64463 16.5628 4.56347 16.5186C4.48355 16.4727 4.39124 16.4531 4.29959 16.4626C4.20794 16.4721 4.12159 16.5102 4.05276 16.5714C3.86762 16.7369 3.66709 16.8843 3.45392 17.0117C3.18671 17.1764 2.8997 17.3066 2.59975 17.3991C2.69872 17.1002 2.83166 16.8136 2.99597 16.545C3.12038 16.3299 3.26803 16.1291 3.43627 15.9462C3.4958 15.8765 3.53273 15.7903 3.54218 15.6991C3.55163 15.6079 3.53314 15.5159 3.48916 15.4355C3.44218 15.3547 3.37093 15.2908 3.28556 15.2529C3.20019 15.2149 3.10503 15.2049 3.0136 15.2241C2.88026 15.2527 2.74481 15.2703 2.6086 15.2769C2.4795 15.2871 2.3497 15.2842 2.22119 15.2682C2.27128 14.898 2.41814 14.5475 2.64696 14.2522C2.87578 13.9569 3.17845 13.7271 3.52443 13.5862Z" fill="#171723"/>
<path d="M2.96083 6.62957C2.89737 6.56493 2.86182 6.47797 2.86182 6.38739C2.86182 6.2968 2.89737 6.20984 2.96083 6.1452L3.61257 5.49354C3.99111 5.1158 4.48395 4.87385 5.01431 4.80536C5.54468 4.73688 6.08281 4.8457 6.54489 5.11489L7.05573 5.41431L4.39631 8.07369L2.96083 6.62957Z" fill="#171723"/>
<path d="M4.95087 11.2617L8.74587 15.0484L7.88337 16.7034L3.3042 12.1159L4.95087 11.2617Z" fill="#171723"/>
<path d="M14.8929 13.4629C15.1586 13.9251 15.2646 14.4619 15.1946 14.9903C15.1246 15.5188 14.8824 16.0095 14.5055 16.3865L13.8538 17.0381C13.824 17.0717 13.7874 17.0985 13.7464 17.1167C13.7054 17.135 13.6609 17.1442 13.616 17.1439C13.5699 17.1443 13.5241 17.1351 13.4816 17.1169C13.4392 17.0987 13.401 17.0719 13.3694 17.0381L11.9341 15.6028L14.5935 12.9434L14.8929 13.4629Z" fill="#171723"/>
<path d="M17.5874 4.15505C17.4973 3.72659 17.2845 3.33361 16.9749 3.02401C16.6653 2.71442 16.2723 2.50158 15.8439 2.41144C14.7833 2.13451 13.67 2.13059 12.6075 2.40004C11.5451 2.6695 10.5681 3.20356 9.76777 3.95245L4.32568 9.3857L5.34719 10.4072L7.46944 12.5294L10.6131 15.6731L16.064 10.2311C16.8098 9.42901 17.3406 8.4513 17.607 7.38895C17.8733 6.32659 17.8666 5.21411 17.5874 4.15505ZM10.6923 13.4893C10.6526 13.531 10.6048 13.5643 10.5518 13.587C10.4988 13.6097 10.4418 13.6214 10.3841 13.6214C10.3265 13.6214 10.2695 13.6097 10.2165 13.587C10.1635 13.5643 10.1157 13.531 10.076 13.4893L6.50953 9.93172C6.42712 9.84869 6.38098 9.73639 6.3812 9.61942C6.38142 9.50244 6.42799 9.39032 6.51071 9.30761C6.59342 9.22489 6.70555 9.17833 6.82253 9.17812C6.93951 9.17791 7.0518 9.22406 7.13482 9.30648L10.6923 12.864C10.7341 12.9047 10.7674 12.9533 10.7901 13.007C10.8128 13.0607 10.8245 13.1184 10.8245 13.1767C10.8245 13.235 10.8128 13.2927 10.7901 13.3464C10.7674 13.4001 10.7341 13.4486 10.6923 13.4893ZM14.0739 9.70275C13.5723 10.1992 12.8951 10.4777 12.1894 10.4777C11.4837 10.4777 10.8065 10.1992 10.3049 9.70275C9.93114 9.32985 9.67641 8.85444 9.57295 8.33669C9.46949 7.81895 9.52197 7.28215 9.72373 6.79425C9.9255 6.30634 10.2675 5.88926 10.7064 5.5958C11.1453 5.30235 11.6614 5.1457 12.1894 5.1457C12.7174 5.1457 13.2335 5.30235 13.6724 5.5958C14.1113 5.88926 14.4533 6.30634 14.6551 6.79425C14.8568 7.28215 14.9093 7.81895 14.8058 8.33669C14.7024 8.85444 14.4476 9.32985 14.0739 9.70275ZM12.1894 6.03066C11.7767 6.03091 11.3769 6.17429 11.0581 6.43635C10.7393 6.6984 10.5213 7.06291 10.4412 7.46774C10.3611 7.87257 10.4239 8.29264 10.6188 8.65636C10.8138 9.02007 11.1289 9.3049 11.5104 9.4623C11.8919 9.61969 12.3161 9.6399 12.7108 9.51948C13.1055 9.39907 13.4463 9.14547 13.6749 8.80194C13.9036 8.45841 14.006 8.0462 13.9648 7.63559C13.9235 7.22499 13.7411 6.8414 13.4487 6.55023C13.1144 6.21693 12.6614 6.03004 12.1894 6.03066Z" fill="#171723"/>
</svg>
