<svg width="20" height="20" viewBox="0 0 20 20" fill="none" xmlns="http://www.w3.org/2000/svg">
<g clip-path="url(#clip0_6394_68553)">
<g clip-path="url(#clip1_6394_68553)">
<path d="M19.7312 3.04832C19.5837 2.3632 19.2417 1.73522 18.7462 1.23975C18.2507 0.744289 17.6227 0.402407 16.9377 0.25515C15.5493 -0.0905452 14.0967 -0.0848771 12.711 0.271642C11.3253 0.628161 10.0502 1.3243 9.00083 2.29721L7.32976 3.9687L6.49903 3.4869C5.7729 3.06605 4.92814 2.89685 4.09599 3.00558C3.26384 3.11432 2.49088 3.4949 1.89719 4.08821L1.14229 4.84233C0.878049 5.10689 0.729622 5.46557 0.729622 5.83954C0.729622 6.21352 0.878049 6.57219 1.14229 6.83676L2.80239 8.49729L2.6521 8.64762C2.47962 8.82072 2.38277 9.05514 2.38277 9.29953C2.38277 9.54393 2.47962 9.77835 2.6521 9.95145L3.40402 10.7037L1.17006 11.8685C1.0994 11.9054 1.03842 11.9585 0.992054 12.0233C0.945688 12.0882 0.915237 12.1631 0.903165 12.2419C0.891092 12.3208 0.897738 12.4013 0.922563 12.4771C0.947387 12.5529 0.989695 12.6218 1.04606 12.6782L1.75968 13.3921C1.18353 13.688 0.709295 14.1499 0.398191 14.7181C0.0870872 15.2863 -0.0465961 15.9347 0.0144005 16.5797C0.0267101 16.6837 0.0708891 16.7812 0.14087 16.8591C0.210851 16.9369 0.303202 16.9911 0.405239 17.0143C0.595627 17.0579 0.788904 17.0878 0.983573 17.1036C0.604625 17.7293 0.364438 18.4291 0.279259 19.1556C0.279978 19.1728 0.281633 19.1899 0.284217 19.2068C0.281693 19.2234 0.280039 19.2401 0.279259 19.2568C0.283284 19.2734 0.288166 19.2898 0.293887 19.3059C0.300005 19.3376 0.309292 19.3687 0.321608 19.3987C0.343649 19.4544 0.375952 19.5054 0.416839 19.5492C0.446398 19.5816 0.480302 19.6098 0.517586 19.6329C0.534142 19.6431 0.551284 19.6524 0.568924 19.6607C0.608461 19.679 0.650325 19.6919 0.693349 19.6989C0.707489 19.7015 0.719018 19.7098 0.733585 19.7113C0.750708 19.7133 0.767936 19.7143 0.785177 19.7142C0.794411 19.7142 0.802446 19.7097 0.811649 19.7092C0.819704 19.7087 0.826591 19.7122 0.834768 19.7113C1.56103 19.6263 2.26061 19.3864 2.88621 19.0077C2.90206 19.2025 2.9319 19.3958 2.97549 19.5862C2.99889 19.6881 3.0532 19.7803 3.13098 19.8501C3.20876 19.9199 3.3062 19.9639 3.40998 19.9762C3.53702 19.9918 3.66488 19.9997 3.79288 20C4.3746 19.9783 4.94031 19.8036 5.43292 19.4934C5.92554 19.1831 6.32763 18.7484 6.5986 18.2331L7.31047 18.9453C7.36686 19.0016 7.43572 19.044 7.51148 19.0688C7.58724 19.0936 7.66779 19.1003 7.7466 19.0882C7.8254 19.0761 7.90026 19.0457 7.96512 18.9993C8.02998 18.9529 8.08302 18.8919 8.11994 18.8212L9.28473 16.5867L10.0365 17.3388C10.2094 17.5116 10.4438 17.6087 10.6882 17.6087C10.9326 17.6087 11.167 17.5116 11.3399 17.3388L11.4907 17.188L13.1503 18.848C13.4148 19.1123 13.7734 19.2608 14.1473 19.2608C14.5211 19.2608 14.8797 19.1123 15.1442 18.848L15.8981 18.0939C16.4912 17.4998 16.8716 16.7265 16.9805 15.8941C17.0894 15.0616 16.9206 14.2165 16.5003 13.4898L16.0179 12.6596L17.6966 10.9804C18.6773 9.93738 19.3781 8.66306 19.7339 7.27614C20.0896 5.88921 20.0887 4.43479 19.7312 3.04832V3.04832ZM1.86052 6.11836C1.78683 6.04448 1.74545 5.94439 1.74545 5.84003C1.74545 5.73568 1.78683 5.63558 1.86052 5.5617L2.61542 4.8066C3.05059 4.37148 3.6173 4.09238 4.22743 4.01271C4.83756 3.93303 5.45692 4.05725 5.98918 4.36604L6.58635 4.71234L3.52059 7.7789L1.86052 6.11836ZM3.90399 18.98C3.88928 18.8323 3.88597 18.6837 3.89406 18.5354C3.90302 18.3793 3.92391 18.2241 3.95657 18.0711C3.97874 17.9662 3.96728 17.857 3.92382 17.7591C3.88037 17.6611 3.80713 17.5793 3.71452 17.5254C3.62136 17.4726 3.51407 17.4502 3.40758 17.4612C3.30109 17.4722 3.20067 17.5162 3.12028 17.5869C2.90768 17.7771 2.67787 17.9472 2.43383 18.0949C2.12365 18.282 1.79277 18.4324 1.44785 18.543C1.64509 17.9245 1.97059 17.3545 2.40308 16.8704C2.47459 16.7906 2.51902 16.6901 2.53002 16.5834C2.54102 16.4768 2.51802 16.3694 2.46432 16.2766C2.41062 16.1838 2.32895 16.1103 2.23101 16.0668C2.13306 16.0232 2.02385 16.0117 1.91899 16.034C1.76636 16.0663 1.61149 16.0868 1.45572 16.0955C1.30722 16.1036 1.15832 16.1003 1.01033 16.0856C1.06665 15.6582 1.23472 15.2533 1.49758 14.9117C1.76043 14.5701 2.10875 14.3039 2.50736 14.1401L5.84913 17.4833C5.68552 17.8821 5.41944 18.2305 5.07786 18.4934C4.73627 18.7562 4.33131 18.9241 3.90399 18.98V18.98ZM7.53963 17.7377L2.25332 12.4489L4.15692 11.4577L6.34425 13.6451L8.53134 15.833L7.53963 17.7377ZM15.6214 13.9998C15.9296 14.5326 16.0534 15.1523 15.9736 15.7626C15.8938 16.373 15.6148 16.94 15.1799 17.3755L14.426 18.1296C14.3518 18.203 14.2516 18.2442 14.1473 18.2442C14.0429 18.2442 13.9427 18.203 13.8685 18.1296L12.2089 16.4696L15.2746 13.4031L15.6214 13.9998ZM10.6882 16.5539L9.51455 15.3798L9.51369 15.3781L7.06248 12.9267L3.43676 9.29953L9.71208 3.02253C10.6369 2.15957 11.7648 1.54449 12.991 1.23448C14.2171 0.924474 15.5018 0.929592 16.7254 1.24936C17.2189 1.35495 17.6714 1.60098 18.0283 1.95782C18.3852 2.31466 18.6314 2.76711 18.7372 3.26066C19.0568 4.48305 19.0625 5.76637 18.7538 6.99155C18.4452 8.21674 17.8321 9.34408 16.9715 10.269L10.6882 16.5539Z" fill="#171723"/>
<path d="M10.3295 5.30768C9.89902 5.73801 9.60583 6.28637 9.48698 6.88339C9.36813 7.48041 9.42896 8.09927 9.66177 8.66171C9.89459 9.22415 10.2889 9.70488 10.7949 10.0431C11.3009 10.3814 11.8958 10.5619 12.5044 10.5619C13.113 10.5619 13.7079 10.3814 14.2139 10.0431C14.7199 9.70488 15.1142 9.22415 15.347 8.66171C15.5798 8.09927 15.6407 7.48041 15.5218 6.88339C15.403 6.28637 15.1098 5.73801 14.6793 5.30768C14.1021 4.73153 13.3199 4.40796 12.5044 4.40796C11.6889 4.40796 10.9067 4.73153 10.3295 5.30768V5.30768ZM13.9611 8.94034C13.6242 9.27684 13.181 9.48607 12.707 9.53239C12.2331 9.57871 11.7578 9.45925 11.3621 9.19436C10.9664 8.92947 10.6747 8.53554 10.5367 8.07967C10.3988 7.6238 10.4231 7.13419 10.6056 6.69425C10.7881 6.25431 11.1174 5.89126 11.5374 5.66693C11.9574 5.4426 12.4423 5.37088 12.9092 5.46398C13.3762 5.55709 13.7965 5.80925 14.0984 6.17753C14.4004 6.5458 14.5654 7.0074 14.5653 7.4837C14.5648 8.03014 14.3476 8.55406 13.9611 8.94034Z" fill="#171723"/>
<path d="M6.67678 9.20621C6.58122 9.11253 6.45256 9.06037 6.31876 9.06104C6.18496 9.06172 6.05683 9.11518 5.96222 9.20982C5.86761 9.30446 5.81416 9.43262 5.81348 9.56645C5.81281 9.70029 5.86496 9.82898 5.95861 9.92457L10.0634 14.0315C10.159 14.1252 10.2877 14.1774 10.4215 14.1767C10.5553 14.176 10.6834 14.1226 10.778 14.0279C10.8726 13.9333 10.9261 13.8051 10.9267 13.6713C10.9274 13.5374 10.8753 13.4088 10.7816 13.3132L6.67678 9.20621Z" fill="#171723"/>
</g>
</g>
<defs>
<clipPath id="clip0_6394_68553">
<rect width="20" height="20" fill="white"/>
</clipPath>
<clipPath id="clip1_6394_68553">
<rect width="20" height="20" fill="white"/>
</clipPath>
</defs>
</svg>
