<svg width="20" height="20" viewBox="0 0 20 20" fill="none" xmlns="http://www.w3.org/2000/svg">
<path d="M17.364 7.09784L5.84319 0.383816C5.34518 0.113228 4.78825 -0.0183087 4.22679 0.0020505C3.66534 0.0224097 3.11856 0.193969 2.63984 0.499974C2.13437 0.821481 1.71762 1.27388 1.43024 1.81302C1.14286 2.35217 0.994679 2.95964 1.00015 3.57617V16.4247C0.994571 17.0409 1.14259 17.6482 1.42975 18.1871C1.71691 18.726 2.13342 19.1782 2.63861 19.4996C3.14895 19.8257 3.73588 19.9989 4.33473 20C4.86648 19.9985 5.39011 19.8641 5.86159 19.6081L17.3628 12.9094C17.8592 12.6203 18.2725 12.1987 18.5603 11.688C18.8481 11.1774 18.9999 10.5961 19 10.004C19.0001 9.41198 18.8486 8.83061 18.5611 8.31979C18.2735 7.80897 17.8603 7.38717 17.364 7.09784H17.364Z" fill="#171723"/>
</svg>
