<svg width="20" height="20" viewBox="0 0 20 20" fill="none" xmlns="http://www.w3.org/2000/svg">
<path d="M15.1477 9.14746H10.8517V4.85227C10.8517 4.62623 10.762 4.40945 10.6021 4.24962C10.4423 4.08979 10.2255 4 9.99944 4C9.7734 4 9.55661 4.08979 9.39677 4.24962C9.23693 4.40945 9.14714 4.62623 9.14714 4.85227V9.14746H4.85231C4.62626 9.14746 4.40947 9.23725 4.24963 9.39708C4.0898 9.55691 4 9.77369 4 9.99973C4 10.2258 4.0898 10.4425 4.24963 10.6024C4.40947 10.7622 4.62626 10.852 4.85231 10.852H9.14714V15.1477C9.14714 15.3738 9.23693 15.5905 9.39677 15.7504C9.55661 15.9102 9.7734 16 9.99944 16C10.2255 16 10.4423 15.9102 10.6021 15.7504C10.762 15.5905 10.8517 15.3738 10.8517 15.1477V10.852H15.1477C15.3737 10.852 15.5905 10.7622 15.7504 10.6024C15.9102 10.4425 16 10.2258 16 9.99973C16 9.77369 15.9102 9.55691 15.7504 9.39708C15.5905 9.23725 15.3737 9.14746 15.1477 9.14746Z" fill="#171723"/>
</svg>
