<svg width="20" height="20" viewBox="0 0 20 20" fill="none" xmlns="http://www.w3.org/2000/svg">
<path d="M13.7747 9.37504H10.6245V6.22522C10.6245 6.05946 10.5587 5.90049 10.4415 5.78328C10.3242 5.66607 10.1653 5.60022 9.99951 5.60022C9.83375 5.60022 9.67478 5.66607 9.55757 5.78328C9.44036 5.90049 9.37451 6.05946 9.37451 6.22522V9.37504H6.2251C6.05934 9.37504 5.90037 9.44089 5.78316 9.5581C5.66595 9.67531 5.6001 9.83428 5.6001 10C5.6001 10.1658 5.66595 10.3248 5.78316 10.442C5.90037 10.5592 6.05934 10.625 6.2251 10.625H9.37451V13.7753C9.37451 13.941 9.44036 14.1 9.55757 14.2172C9.67478 14.3344 9.83375 14.4003 9.99951 14.4003C10.1653 14.4003 10.3242 14.3344 10.4415 14.2172C10.5587 14.1 10.6245 13.941 10.6245 13.7753V10.625H13.7747C13.9405 10.625 14.0995 10.5592 14.2167 10.442C14.3339 10.3248 14.3997 10.1658 14.3997 10C14.3997 9.83428 14.3339 9.67531 14.2167 9.5581C14.0995 9.44089 13.9405 9.37504 13.7747 9.37504Z" fill="#171723"/>
</svg>
