<svg width="20" height="20" viewBox="0 0 20 20" fill="none" xmlns="http://www.w3.org/2000/svg">
<g clip-path="url(#clip0_5313_35147)">
<path d="M10.0002 18.1945C8.37941 18.1946 6.79501 17.714 5.44736 16.8136C4.0997 15.9132 3.04931 14.6334 2.42903 13.136C1.80875 11.6386 1.64644 9.99094 1.96262 8.4013C2.27879 6.81167 3.05926 5.3515 4.20532 4.20544C5.35138 3.05938 6.81155 2.27891 8.40118 1.96274C9.99081 1.64656 11.6385 1.80888 13.1359 2.42916C14.6333 3.04944 15.9131 4.09982 16.8135 5.44748C17.7139 6.79513 18.1944 8.37953 18.1943 10.0003C18.1918 12.1728 17.3277 14.2555 15.7915 15.7917C14.2554 17.3278 12.1726 18.1919 10.0002 18.1945ZM10.0002 2.63863C8.54426 2.63855 7.12102 3.0702 5.91042 3.879C4.69982 4.68779 3.75625 5.83741 3.19901 7.18247C2.64178 8.52753 2.49592 10.0076 2.77988 11.4356C3.06383 12.8635 3.76485 14.1752 4.79428 15.2048C5.82371 16.2343 7.13532 16.9355 8.56325 17.2196C9.99117 17.5037 11.4713 17.358 12.8164 16.801C14.1615 16.2439 15.3113 15.3004 16.1202 14.0899C16.9291 12.8794 17.3609 11.4562 17.361 10.0003C17.3588 8.04869 16.5826 6.17763 15.2027 4.79755C13.8228 3.41748 11.9518 2.64107 10.0002 2.63864V2.63863Z" fill="#171723"/>
<path d="M10.0002 12.2145C11.2233 12.2145 12.2148 11.223 12.2148 9.99997C12.2148 8.7769 11.2233 7.7854 10.0002 7.7854C8.77714 7.7854 7.78564 8.7769 7.78564 9.99997C7.78564 11.223 8.77714 12.2145 10.0002 12.2145Z" fill="#171723"/>
</g>
<defs>
<clipPath id="clip0_5313_35147">
<rect width="20" height="20" fill="white"/>
</clipPath>
</defs>
</svg>
