<svg width="20" height="20" viewBox="0 0 20 20" fill="none" xmlns="http://www.w3.org/2000/svg">
<g clip-path="url(#clip0_5313_35219)">
<path d="M17.6851 11.9096C17.5112 11.814 17.3154 11.7654 17.117 11.7686C16.9186 11.7717 16.7244 11.8265 16.5537 11.9276V11.6761C16.5538 11.5802 16.535 11.4852 16.4983 11.3965C16.4616 11.3078 16.4079 11.2272 16.34 11.1594C16.2722 11.0916 16.1916 11.0378 16.1029 11.0011C16.0142 10.9644 15.9192 10.9456 15.8233 10.9458H14.7457V10.9098C14.7449 10.7164 14.6677 10.5311 14.5309 10.3942C14.3941 10.2574 14.2088 10.1802 14.0154 10.1795H12.9138V7.82676C12.9142 7.70152 12.8898 7.57744 12.8422 7.46163C12.7945 7.34582 12.7244 7.24055 12.636 7.15186C12.5476 7.06318 12.4425 6.99281 12.3269 6.9448C12.2112 6.89678 12.0872 6.87207 11.9619 6.87207C11.8367 6.87207 11.7127 6.89678 11.597 6.9448C11.4814 6.99281 11.3763 7.06318 11.2879 7.15186C11.1994 7.24055 11.1294 7.34582 11.0817 7.46163C11.0341 7.57744 11.0097 7.70152 11.0101 7.82676V12.1012L9.87859 12.3526C9.67674 12.4007 9.49948 12.521 9.38034 12.6909C9.26121 12.8608 9.20846 13.0684 9.23208 13.2746L9.44158 15.1364C9.49004 15.5664 9.63981 15.9788 9.87859 16.3397L10.3755 17.094C10.5621 17.3684 10.8129 17.5931 11.1061 17.7485C11.3992 17.9039 11.7259 17.9855 12.0578 17.986H15.3563C15.7924 17.988 16.2172 17.8471 16.5657 17.5849C16.7967 17.4156 16.9869 17.1967 17.1224 16.9443L17.5893 16.0943C17.8155 15.6786 17.9598 15.2233 18.0144 14.7533L18.212 13.0471C18.2448 12.8267 18.2124 12.6016 18.1188 12.3995C18.0251 12.1974 17.8744 12.0271 17.6851 11.9096Z" fill="#171723"/>
<path d="M11.1722 4.99089H12.5117C12.7288 4.99072 12.9369 4.90442 13.0904 4.75092C13.2439 4.59742 13.3302 4.38928 13.3304 4.1722V2.83272C13.3302 2.61564 13.2439 2.4075 13.0904 2.25401C12.9369 2.10051 12.7288 2.0142 12.5117 2.01404H11.1722C10.9551 2.0142 10.747 2.10051 10.5935 2.25401C10.44 2.4075 10.3537 2.61564 10.3535 2.83272V4.17224C10.3584 4.23824 10.3715 4.30337 10.3927 4.36607L7.55241 7.19877L4.71741 4.36377C4.73826 4.30179 4.75128 4.23744 4.75616 4.17222V2.83272C4.75604 2.61577 4.66985 2.40774 4.51652 2.25425C4.3632 2.10077 4.15524 2.01438 3.9383 2.01404H2.59798C2.38091 2.01421 2.17278 2.10052 2.01929 2.25402C1.8658 2.40752 1.7795 2.61565 1.77933 2.83272V4.17224C1.7795 4.38932 1.8658 4.59746 2.0193 4.75095C2.1728 4.90445 2.38094 4.99076 2.59801 4.99092H2.85192V10.5883H2.59798C2.38103 10.5884 2.173 10.6746 2.01951 10.8279C1.86603 10.9812 1.77964 11.1892 1.7793 11.4061V12.7465C1.77946 12.9635 1.86577 13.1717 2.01927 13.3252C2.17276 13.4787 2.3809 13.565 2.59798 13.5651H3.93831C4.15526 13.5648 4.36321 13.4784 4.51654 13.3249C4.66987 13.1714 4.75605 12.9634 4.75618 12.7465V11.4061C4.75589 11.1893 4.66963 10.9814 4.51631 10.8281C4.363 10.6748 4.15514 10.5885 3.93831 10.5883H3.68522V4.99089H3.93831C4.00282 4.98599 4.06648 4.97311 4.12782 4.95255L7.25782 8.08256C7.33596 8.16058 7.44182 8.20447 7.55223 8.20462C7.66265 8.20478 7.76863 8.16119 7.84699 8.08339L10.9856 4.95318C11.046 4.97328 11.1087 4.98594 11.1722 4.99089ZM3.92285 12.7318L2.61266 12.7465L2.59801 11.4216L3.23949 11.4141C3.24961 11.4148 3.25826 11.4199 3.26859 11.4199C3.28018 11.4199 3.2899 11.4143 3.30124 11.4134L3.92291 11.4061L3.92285 12.7318ZM2.59798 2.84737L3.92285 2.83272V4.15755L3.31056 4.16442C3.29673 4.16082 3.2827 4.15799 3.26856 4.15593C3.25273 4.15813 3.23705 4.16128 3.22161 4.16539L2.61266 4.17224L2.59798 2.84737ZM12.4971 2.83272V4.15755L11.1887 4.1722L11.1868 4.16939L11.1722 2.84737L12.4971 2.83272Z" fill="#171723"/>
</g>
<defs>
<clipPath id="clip0_5313_35219">
<rect width="20" height="20" fill="white"/>
</clipPath>
</defs>
</svg>
