<svg width="20" height="20" viewBox="0 0 20 20" fill="none" xmlns="http://www.w3.org/2000/svg">
<path d="M17.8276 13.594C17.826 13.621 17.8175 13.6472 17.8029 13.6699C17.7882 13.6927 17.768 13.7113 17.744 13.724L11.2571 17.4419C10.8731 17.662 10.4381 17.7778 9.99552 17.7778C9.5529 17.7778 9.11799 17.662 8.73398 17.4419L2.24726 13.724C2.22443 13.7109 2.2055 13.6919 2.19242 13.6691C2.17934 13.6462 2.17259 13.6203 2.17286 13.594C2.17423 13.568 2.18168 13.5427 2.1946 13.5201C2.20752 13.4975 2.22555 13.4783 2.24726 13.4639L3.57576 12.7021L6.23288 14.2257L9.22454 15.9538C9.28781 15.9856 9.35295 16.0135 9.41961 16.0374C9.60218 16.1138 9.79762 16.1548 9.99551 16.1582C10.1834 16.1535 10.369 16.1157 10.5437 16.0467C10.6212 16.0237 10.6959 15.9926 10.7667 15.9538L13.6561 14.2908L16.4155 12.702L17.744 13.4639C17.7679 13.4765 17.7882 13.4951 17.8029 13.5179C17.8175 13.5407 17.826 13.5669 17.8276 13.594Z" fill="#171723"/>
<path d="M17.8276 10.1935C17.826 10.2206 17.8175 10.2467 17.8029 10.2695C17.7883 10.2923 17.768 10.311 17.744 10.3236L16.4155 11.0854L15.0126 11.8844L11.2566 14.0406C10.8727 14.261 10.4379 14.3771 9.99525 14.3774C9.55264 14.3777 9.11764 14.2622 8.73348 14.0424L4.97866 11.8937L3.57576 11.0854L2.24726 10.3236C2.22442 10.3105 2.20549 10.2915 2.19241 10.2686C2.17933 10.2458 2.17259 10.2198 2.17286 10.1935C2.17424 10.1675 2.18169 10.1422 2.19461 10.1197C2.20753 10.0971 2.22556 10.0779 2.24726 10.0635L2.96353 9.65276C3.14993 9.54587 3.36103 9.48955 3.5759 9.48938C3.79078 9.48922 4.00196 9.54521 4.18853 9.65182L5.13653 10.1935L6.23288 10.8253L6.53013 10.9926L9.22455 12.5534C9.28781 12.5852 9.35295 12.6131 9.41962 12.637C9.60218 12.7134 9.79763 12.7544 9.99552 12.7578C10.1834 12.7531 10.369 12.7153 10.5438 12.6463C10.6197 12.6193 10.6941 12.5883 10.7667 12.5534L13.4702 11.0018L13.6561 10.8903L14.8638 10.1935L15.8018 9.65434C15.9886 9.547 16.2002 9.49047 16.4156 9.49036C16.631 9.49026 16.8427 9.54659 17.0295 9.65374L17.744 10.0635C17.768 10.0761 17.7883 10.0947 17.8029 10.1175C17.8175 10.1403 17.8261 10.1665 17.8276 10.1935Z" fill="#171723"/>
<path d="M17.8276 6.79315C17.826 6.8202 17.8175 6.84638 17.8029 6.86917C17.7882 6.89197 17.768 6.91059 17.744 6.92323L16.4155 7.68502L15.0126 8.48406L13.4611 9.37593L12.0582 10.1842L11.2553 10.6435C10.8717 10.8629 10.4375 10.9784 9.99556 10.9784C9.55364 10.9784 9.11939 10.8629 8.7358 10.6435L7.93305 10.1842L6.53939 9.38523L4.97866 8.49336L3.57576 7.68503L2.24726 6.92324C2.22443 6.91012 2.2055 6.89115 2.19242 6.86829C2.17935 6.84543 2.1726 6.8195 2.17286 6.79316C2.17483 6.76602 2.18247 6.73959 2.19529 6.71558C2.2081 6.69158 2.22581 6.67052 2.24726 6.65378L9.92135 2.24071C9.94439 2.22911 9.96973 2.22278 9.99552 2.22217C10.0242 2.22388 10.0525 2.23013 10.0792 2.24071L17.744 6.65377C17.7683 6.66835 17.7887 6.6887 17.8032 6.71301C17.8178 6.73732 17.8262 6.76484 17.8276 6.79315Z" fill="#171723"/>
</svg>
