<svg width="20" height="20" viewBox="0 0 20 20" fill="none" xmlns="http://www.w3.org/2000/svg">
<g clip-path="url(#clip0_10314_146602)">
<path d="M5.08144 2.54283C5.08134 2.06161 4.94473 1.5903 4.68746 1.18362C4.43019 0.776952 4.06283 0.45161 3.62804 0.245386C3.19326 0.0391618 2.70888 -0.0394823 2.23118 0.0185875C1.75349 0.0766573 1.30206 0.269058 0.929345 0.573444C0.556628 0.877829 0.277912 1.28171 0.125569 1.73817C-0.026774 2.19464 -0.0464929 2.68496 0.0687026 3.15218C0.183898 3.61941 0.429281 4.04436 0.776351 4.3777C1.12342 4.71103 1.55794 4.93906 2.02943 5.0353L2.03167 5.03556V14.9643L2.02943 14.9645C1.4118 15.0904 0.862915 15.4411 0.489149 15.9487C0.115383 16.4562 -0.0566402 17.0845 0.00642104 17.7117C0.0694823 18.3388 0.363137 18.9202 0.830468 19.3432C1.2978 19.7662 1.90552 20.0006 2.53585 20.001C3.16618 20.0015 3.77421 19.7679 4.24211 19.3455C4.71001 18.9231 5.00444 18.3421 5.06834 17.715C5.13224 17.088 4.96105 16.4595 4.58797 15.9514C4.21488 15.4434 3.66646 15.0919 3.049 14.9652V5.03458C3.62149 4.91398 4.1354 4.60094 4.5052 4.14758C4.87499 3.69421 5.07836 3.12787 5.08144 2.54283V2.54283Z" fill="#171723"/>
<path d="M17.9731 14.9651V5.5948C17.972 4.6508 17.5965 3.74579 16.9289 3.07828C16.2614 2.41077 15.3564 2.03526 14.4124 2.03412H9.87316L10.8766 1.03069C10.9246 0.98364 10.9628 0.927537 10.989 0.865625C11.0152 0.803714 11.0289 0.737224 11.0292 0.67C11.0295 0.602776 11.0165 0.536152 10.991 0.473979C10.9654 0.411807 10.9278 0.35532 10.8802 0.307784C10.8327 0.260249 10.7762 0.222609 10.714 0.19704C10.6519 0.171471 10.5852 0.15848 10.518 0.15882C10.4508 0.159159 10.3843 0.172822 10.3224 0.199018C10.2605 0.225214 10.2044 0.263423 10.1573 0.311435L8.28455 2.18309L8.28183 2.18831C8.22282 2.25155 8.18137 2.32913 8.16161 2.41334C8.15594 2.43492 8.15175 2.45688 8.14906 2.47904C8.13513 2.56485 8.14373 2.65281 8.17403 2.7343L8.17427 2.73747L8.18099 2.74554C8.20577 2.80441 8.2416 2.85799 8.28655 2.90338L10.1583 4.76519C10.2056 4.81228 10.2618 4.84959 10.3236 4.87498C10.3854 4.90037 10.4516 4.91335 10.5183 4.91316C10.5851 4.91298 10.6512 4.89964 10.7129 4.8739C10.7745 4.84817 10.8305 4.81055 10.8776 4.76319C10.9247 4.71583 10.962 4.65966 10.9874 4.59788C11.0128 4.5361 11.0257 4.46992 11.0256 4.40313C11.0254 4.33634 11.012 4.27023 10.9863 4.2086C10.9606 4.14696 10.923 4.09099 10.8756 4.04389L9.87787 3.05146H14.4124C15.0868 3.05208 15.7333 3.32024 16.2102 3.79708C16.687 4.27391 16.9551 4.92046 16.9558 5.5948V14.9643L16.9536 14.9645C16.3359 15.0904 15.7871 15.4411 15.4133 15.9487C15.0395 16.4562 14.8675 17.0845 14.9306 17.7116C14.9936 18.3388 15.2873 18.9202 15.7546 19.3432C16.2219 19.7662 16.8297 20.0006 17.46 20.001C18.0903 20.0014 18.6984 19.7678 19.1663 19.3455C19.6341 18.9231 19.9286 18.3421 19.9925 17.715C20.0564 17.0879 19.8852 16.4594 19.5121 15.9514C19.139 15.4433 18.5906 15.0919 17.9731 14.9652L17.9731 14.9651Z" fill="#171723"/>
</g>
<defs>
<clipPath id="clip0_10314_146602">
<rect width="20" height="20" fill="white"/>
</clipPath>
</defs>
</svg>
