<svg width="20" height="20" viewBox="0 0 20 20" fill="none" xmlns="http://www.w3.org/2000/svg">
<g clip-path="url(#clip0_5313_35045)">
<path d="M8.61218 5.45134C8.16666 4.98219 7.62123 4.61285 7.01382 4.36901C5.71708 3.87535 4.27583 3.87706 2.98034 4.37379C2.37547 4.62002 1.83232 4.98983 1.38783 5.45805C0.932593 5.94805 0.583015 6.52156 0.359703 7.14477C0.112185 7.84345 -0.00931209 8.57835 0.000556277 9.31713C-0.00930159 10.0568 0.112191 10.7927 0.359703 11.4923C0.582009 12.1142 0.932118 12.6858 1.3888 13.1724C1.83342 13.6397 2.37704 14.0079 2.98226 14.2518C4.01729 14.6438 5.14921 14.7272 6.23331 14.4913C6.49502 14.4343 6.75143 14.3565 6.99995 14.2585L8.54801 15.8466C8.59362 15.8934 8.64828 15.931 8.70886 15.9573C8.76944 15.9836 8.83477 15.998 8.9011 15.9998C8.96743 16.0016 9.03348 15.9907 9.09546 15.9677C9.15745 15.9447 9.21416 15.91 9.26236 15.8658C9.31056 15.8215 9.34931 15.7684 9.37638 15.7096C9.40346 15.6508 9.41834 15.5874 9.42018 15.523C9.42201 15.4586 9.41076 15.3945 9.38707 15.3343C9.36337 15.2741 9.32771 15.2191 9.2821 15.1723L7.91362 13.7681C8.1486 13.6109 8.36646 13.4309 8.56383 13.2308C8.87688 12.9118 9.14165 12.5513 9.35019 12.16C9.5687 11.7433 9.73182 11.3014 9.83563 10.8448C9.94756 10.3429 10.0025 9.83065 9.99942 9.31713C10.0095 8.57614 9.88802 7.83901 9.64027 7.13807C9.41751 6.51461 9.06788 5.941 8.61218 5.45134V5.45134ZM8.84996 10.6293C8.76593 11.004 8.63228 11.3665 8.45234 11.7079C8.28888 12.0168 8.08053 12.3013 7.8337 12.5527C7.33811 13.0475 6.70317 13.3893 6.00838 13.5354C5.12955 13.725 4.2127 13.6594 3.37202 13.3467C2.90031 13.1571 2.47652 12.8705 2.12982 12.5067C1.76621 12.1163 1.48765 11.6585 1.31089 11.1609C1.10232 10.5677 1.00085 9.94391 1.01094 9.31713C1.00124 8.69129 1.1027 8.06852 1.31089 7.47614C1.48859 6.97599 1.76772 6.51548 2.13179 6.12179C2.47776 5.75663 2.90124 5.46871 3.37301 5.27793C3.88704 5.07417 4.43794 4.97257 4.99313 4.97914C5.55192 4.97208 6.1066 5.07267 6.62507 5.2751C7.09782 5.46388 7.52243 5.75056 7.86926 6.11512C8.23281 6.50901 8.51158 6.96949 8.68917 7.46948C8.89757 8.06411 8.99903 8.6891 8.98912 9.31713C8.99199 9.75814 8.94533 10.1981 8.84995 10.6293H8.84996Z" fill="#171723"/>
<path d="M19.9591 14.297L18.4715 10.9133C18.4659 10.8991 18.4603 10.886 18.4535 10.8724L15.5693 4.31229C15.5286 4.21977 15.46 4.14074 15.372 4.08517C15.284 4.0296 15.1807 3.99996 15.0751 4H14.9246C14.8189 3.99996 14.7156 4.0296 14.6276 4.08517C14.5397 4.14074 14.471 4.21977 14.4303 4.31229L10.0405 14.2971C9.98643 14.4213 9.98651 14.5609 10.0407 14.6851C10.0949 14.8093 10.1988 14.9081 10.3296 14.9598C10.4604 15.0115 10.6074 15.0119 10.7385 14.9609C10.8696 14.9099 10.9741 14.8116 11.029 14.6877L12.3879 11.5964H17.6118L18.9707 14.6877C19.0114 14.7802 19.0801 14.8593 19.168 14.9148C19.256 14.9704 19.3593 15 19.465 15C19.5356 14.9998 19.6055 14.9867 19.6708 14.9613C19.8017 14.9093 19.9056 14.8102 19.9596 14.6857C20.0136 14.5612 20.0135 14.4214 19.9591 14.297V14.297ZM12.8342 10.5811L14.9998 5.6547L17.1654 10.5811H12.8342Z" fill="#171723"/>
</g>
<defs>
<clipPath id="clip0_5313_35045">
<rect width="20" height="20" fill="white"/>
</clipPath>
</defs>
</svg>
