<svg width="20" height="20" viewBox="0 0 20 20" fill="none" xmlns="http://www.w3.org/2000/svg">
<g clip-path="url(#clip0_5313_35054)">
<path d="M7.60054 16.6667C7.52585 16.6667 7.45189 16.652 7.38288 16.6233C7.31387 16.5947 7.25117 16.5527 7.19836 16.4997C7.14555 16.4468 7.10367 16.3839 7.07511 16.3147C7.04655 16.2455 7.03187 16.1713 7.03191 16.0964V13.3732C7.03282 12.6286 7.32823 11.9147 7.85334 11.3883C8.37844 10.8618 9.09034 10.5658 9.83282 10.5652C10.5391 10.5667 11.2366 10.4077 11.8729 10.1002C12.5091 9.79275 13.0677 9.34472 13.5066 8.78978C13.9509 8.22582 14.2621 7.56833 14.417 6.86658C14.5718 6.16483 14.5662 5.43703 14.4007 4.73774C14.1989 3.89735 13.7696 3.12917 13.1601 2.51793C12.5507 1.9067 11.7847 1.47616 10.9467 1.27382C10.2497 1.10692 9.52399 1.1009 8.82431 1.25623C8.12463 1.41155 7.46923 1.72415 6.90755 2.17047C6.3542 2.61068 5.90746 3.17087 5.60085 3.80899C5.29425 4.44712 5.13575 5.1466 5.13724 5.85495C5.13724 6.00619 5.07734 6.15124 4.9707 6.25819C4.86406 6.36513 4.71943 6.42522 4.56862 6.42522C4.41781 6.42522 4.27318 6.36513 4.16655 6.25819C4.05991 6.15124 4 6.00619 4 5.85495C3.99936 4.42191 4.52302 3.03844 5.4717 1.96682C6.42039 0.895202 7.72815 0.209913 9.14707 0.0408728C10.566 -0.128168 11.9974 0.230789 13.17 1.04969C14.3427 1.8686 15.1749 3.09053 15.509 4.48384C15.7133 5.35009 15.7191 6.2515 15.5262 7.12035C15.3333 7.98921 14.9466 8.80293 14.3951 9.50042C13.8502 10.1898 13.1566 10.7463 12.3664 11.1283C11.5762 11.5102 10.71 11.7077 9.83282 11.7057C9.3919 11.7062 8.96915 11.8819 8.65727 12.1945C8.3454 12.5071 8.16986 12.931 8.16916 13.3732V16.0965C8.16919 16.1713 8.15451 16.2455 8.12594 16.3147C8.09738 16.3839 8.05549 16.4468 8.00269 16.4998C7.94988 16.5527 7.88718 16.5947 7.81817 16.6233C7.74917 16.652 7.67522 16.6667 7.60054 16.6667Z" fill="#171723"/>
<path d="M7.33333 20C7.79357 20 8.16667 19.6269 8.16667 19.1667C8.16667 18.7065 7.79357 18.3334 7.33333 18.3334C6.8731 18.3334 6.5 18.7065 6.5 19.1667C6.5 19.6269 6.8731 20 7.33333 20Z" fill="#171723"/>
</g>
<defs>
<clipPath id="clip0_5313_35054">
<rect width="20" height="20" fill="white"/>
</clipPath>
</defs>
</svg>
