<svg width="20" height="20" viewBox="0 0 20 20" fill="none" xmlns="http://www.w3.org/2000/svg">
<g clip-path="url(#clip0_10314_146252)">
<g clip-path="url(#clip1_10314_146252)">
<path d="M14.5753 1.35238H14.5575C14.5151 0.980917 14.3377 0.637967 14.0591 0.388656C13.7805 0.139345 13.42 0.00103712 13.0462 0H6.95259C6.57882 0.00105021 6.21846 0.139385 5.94 0.388715C5.66154 0.638044 5.48438 0.98099 5.4422 1.35238H5.42447C4.34615 1.35345 3.31231 1.78229 2.54982 2.54478C1.78734 3.30726 1.3585 4.34111 1.35742 5.41942V15.9335C1.3585 17.0118 1.78734 18.0457 2.54982 18.8082C3.31231 19.5707 4.34615 19.9995 5.42447 20.0006H14.5753C15.6536 19.9995 16.6875 19.5707 17.45 18.8082C18.2125 18.0457 18.6413 17.0118 18.6424 15.9335V5.41942C18.6413 4.34111 18.2125 3.30726 17.45 2.54478C16.6875 1.78229 15.6536 1.35345 14.5753 1.35238ZM6.44123 1.52812C6.44138 1.39255 6.4953 1.26256 6.59117 1.1667C6.68703 1.07083 6.81702 1.01691 6.95259 1.01676H13.0462C13.182 1.0167 13.3122 1.07052 13.4082 1.16641C13.5043 1.26229 13.5584 1.39239 13.5586 1.52812V2.19934C13.5584 2.33507 13.5043 2.46517 13.4082 2.56105C13.3122 2.65694 13.182 2.71076 13.0462 2.7107H6.95259C6.81702 2.71055 6.68703 2.65663 6.59117 2.56076C6.4953 2.4649 6.44138 2.33491 6.44123 2.19934V1.52812ZM17.6256 15.9336C17.6247 16.7423 17.3031 17.5177 16.7312 18.0895C16.1594 18.6614 15.384 18.983 14.5753 18.9839H5.42447C4.61575 18.983 3.84042 18.6614 3.26857 18.0895C2.69672 17.5177 2.37507 16.7423 2.37418 15.9336V5.41942C2.37507 4.61071 2.69672 3.83537 3.26857 3.26352C3.84042 2.69167 4.61575 2.37002 5.42447 2.36914H5.4416C5.48243 2.7417 5.65909 3.08616 5.93781 3.33671C6.21654 3.58727 6.5778 3.72636 6.95259 3.72742H13.0462C13.4211 3.72637 13.7825 3.5873 14.0614 3.33675C14.3403 3.0862 14.5171 2.74173 14.5581 2.36909H14.5753C15.3841 2.36997 16.1594 2.69162 16.7312 3.26347C17.3031 3.83532 17.6247 4.61066 17.6256 5.41937L17.6256 15.9336Z" fill="#171723"/>
<path d="M8.15828 7.76271H9.4908V9.09522C9.4908 9.23005 9.54436 9.35936 9.6397 9.4547C9.73504 9.55004 9.86435 9.6036 9.99918 9.6036C10.134 9.6036 10.2633 9.55004 10.3587 9.4547C10.454 9.35936 10.5076 9.23005 10.5076 9.09522V7.76271H11.8411C11.9759 7.76271 12.1052 7.70915 12.2006 7.61381C12.2959 7.51847 12.3495 7.38916 12.3495 7.25433C12.3495 7.1195 12.2959 6.99019 12.2006 6.89485C12.1052 6.79951 11.9759 6.74595 11.8411 6.74595H10.5076V5.41243C10.5076 5.2776 10.454 5.14829 10.3587 5.05295C10.2633 4.95761 10.134 4.90405 9.99919 4.90405C9.86436 4.90405 9.73505 4.95761 9.63971 5.05295C9.54437 5.14829 9.49081 5.2776 9.49081 5.41243V6.74595H8.15828C8.02345 6.74595 7.89414 6.79951 7.7988 6.89485C7.70346 6.99019 7.6499 7.1195 7.6499 7.25433C7.6499 7.38916 7.70346 7.51847 7.7988 7.61381C7.89414 7.70915 8.02345 7.76271 8.15828 7.76271Z" fill="#171723"/>
<path d="M14.0663 10.8478H5.93221C5.79738 10.8478 5.66807 10.9013 5.57273 10.9967C5.47739 11.092 5.42383 11.2213 5.42383 11.3562C5.42383 11.491 5.47739 11.6203 5.57273 11.7156C5.66807 11.811 5.79738 11.8645 5.93221 11.8645H14.0663C14.2011 11.8645 14.3304 11.811 14.4258 11.7156C14.5211 11.6203 14.5747 11.491 14.5747 11.3562C14.5747 11.2213 14.5211 11.092 14.4258 10.9967C14.3304 10.9013 14.2011 10.8478 14.0663 10.8478Z" fill="#171723"/>
<path d="M14.0663 13.5585H5.93221C5.79738 13.5585 5.66807 13.612 5.57273 13.7074C5.47739 13.8027 5.42383 13.932 5.42383 14.0669C5.42383 14.2017 5.47739 14.331 5.57273 14.4263C5.66807 14.5217 5.79738 14.5752 5.93221 14.5752H14.0663C14.2011 14.5752 14.3304 14.5217 14.4258 14.4263C14.5211 14.331 14.5747 14.2017 14.5747 14.0669C14.5747 13.932 14.5211 13.8027 14.4258 13.7074C14.3304 13.612 14.2011 13.5585 14.0663 13.5585Z" fill="#171723"/>
<path d="M14.0663 16.2701H5.93221C5.79738 16.2701 5.66807 16.3237 5.57273 16.419C5.47739 16.5144 5.42383 16.6437 5.42383 16.7785C5.42383 16.9134 5.47739 17.0427 5.57273 17.138C5.66807 17.2333 5.79738 17.2869 5.93221 17.2869H14.0663C14.2011 17.2869 14.3304 17.2333 14.4258 17.138C14.5211 17.0427 14.5747 16.9134 14.5747 16.7785C14.5747 16.6437 14.5211 16.5144 14.4258 16.419C14.3304 16.3237 14.2011 16.2701 14.0663 16.2701Z" fill="#171723"/>
</g>
</g>
<defs>
<clipPath id="clip0_10314_146252">
<rect width="20" height="20" fill="white"/>
</clipPath>
<clipPath id="clip1_10314_146252">
<rect width="20" height="20" fill="white"/>
</clipPath>
</defs>
</svg>
