<svg width="20" height="20" viewBox="0 0 20 20" fill="none" xmlns="http://www.w3.org/2000/svg">
<g clip-path="url(#clip0_10314_146459)">
<path d="M16.993 5.68963C17.0075 5.60041 16.9995 5.5087 16.9698 5.42385L16.9695 5.42073L16.9617 5.4105C16.9394 5.35307 16.9075 5.30044 16.8675 5.25518L14.9485 3.1598C14.9039 3.11035 14.8505 3.07078 14.7915 3.04337C14.7324 3.01595 14.6689 3.00124 14.6045 3.00008C14.5401 2.99891 14.4761 3.01131 14.4162 3.03657C14.3563 3.06184 14.3017 3.09945 14.2555 3.14726C14.2093 3.19507 14.1725 3.25213 14.1471 3.31516C14.1217 3.37818 14.1083 3.44592 14.1076 3.51449C14.1069 3.58305 14.119 3.65108 14.1431 3.71466C14.1672 3.77825 14.2029 3.83612 14.2481 3.88497L15.3587 5.09763H6.89314C5.85931 5.10056 4.86879 5.5399 4.13893 6.31924C3.40906 7.09858 2.99946 8.15427 3 9.25467V16.48C3 16.6179 3.05147 16.7502 3.14309 16.8477C3.23472 16.9452 3.35898 17 3.48855 17C3.61812 17 3.74239 16.9452 3.83401 16.8477C3.92563 16.7502 3.9771 16.6179 3.9771 16.48V9.2547C3.97639 8.43007 4.28299 7.6388 4.82966 7.05446C5.37632 6.47012 6.1184 6.14042 6.89314 6.13768H15.3226L14.2596 7.24879C14.2129 7.29645 14.1756 7.35349 14.1499 7.41661C14.1241 7.47972 14.1103 7.54766 14.1094 7.61647C14.1085 7.68529 14.1204 7.75361 14.1445 7.81749C14.1685 7.88137 14.2043 7.93953 14.2496 7.98859C14.2949 8.03766 14.349 8.07666 14.4086 8.10333C14.4682 8.13 14.5322 8.14381 14.5968 8.14396C14.6615 8.14411 14.7255 8.1306 14.7852 8.10421C14.845 8.07782 14.8992 8.03907 14.9447 7.99022L16.8578 5.99047L16.8579 5.99041L16.8579 5.99029L16.8598 5.98838L16.8622 5.98368C16.9201 5.91905 16.961 5.83928 16.9807 5.75243C16.9861 5.73182 16.9902 5.71083 16.993 5.68963V5.68963Z" fill="#171723"/>
</g>
<defs>
<clipPath id="clip0_10314_146459">
<rect width="20" height="20" fill="white"/>
</clipPath>
</defs>
</svg>
