<svg width="20" height="20" viewBox="0 0 20 20" fill="none" xmlns="http://www.w3.org/2000/svg">
<g clip-path="url(#clip0_10310_144562)">
<g clip-path="url(#clip1_10310_144562)">
<path d="M0.617578 9.41072C0.775698 6.93898 1.84387 4.61245 3.6172 2.87735C5.39054 1.14225 7.74418 0.120749 10.2267 0.0087848C12.8187 -0.0999413 15.3509 0.804037 17.2842 2.52825L18.0776 1.73691C18.1085 1.70608 18.147 1.6839 18.1892 1.67261C18.2314 1.66131 18.2759 1.66129 18.3181 1.67255C18.3603 1.68381 18.3988 1.70596 18.4298 1.73676C18.4607 1.76756 18.4829 1.80594 18.4942 1.84802L19.343 5.00184C19.3525 5.03717 19.3525 5.07437 19.343 5.1097C19.3335 5.14503 19.3148 5.17725 19.2889 5.20312C19.263 5.229 19.2306 5.24761 19.1952 5.2571C19.1598 5.26659 19.1224 5.26662 19.087 5.25719L15.9221 4.41338C15.8799 4.40211 15.8414 4.37997 15.8104 4.34917C15.7795 4.31838 15.7573 4.28001 15.7459 4.23792C15.7346 4.19584 15.7346 4.15153 15.7459 4.10944C15.7572 4.06735 15.7794 4.02897 15.8103 3.99815L16.563 3.24756C15.5261 2.33765 14.2928 1.67823 12.9587 1.32055C11.6246 0.96286 10.2257 0.916531 8.87079 1.18516C7.07546 1.52442 5.42854 2.40653 4.15396 3.71154C2.87938 5.01656 2.039 6.68114 1.74708 8.47896C1.46868 10.1518 1.667 11.8689 2.31947 13.435C2.97194 15.001 4.05236 16.3531 5.43779 17.3373C6.82322 18.3216 8.45804 18.8985 10.1562 19.0024C11.8544 19.1063 13.5477 18.7331 15.0436 17.9251C15.7906 17.5745 16.4455 17.0554 16.9565 16.4091C16.9986 16.3533 17.0518 16.3067 17.1127 16.2723C17.1736 16.2379 17.241 16.2164 17.3106 16.209C17.3803 16.2017 17.4507 16.2087 17.5175 16.2297C17.5842 16.2506 17.646 16.2851 17.6988 16.3308C17.7517 16.3766 17.7945 16.4327 17.8247 16.4957C17.8548 16.5587 17.8717 16.6272 17.8741 16.697C17.8765 16.7667 17.8645 16.8362 17.8389 16.9011C17.8132 16.9661 17.7744 17.025 17.7248 17.0744C16.2856 18.5075 14.4433 19.4706 12.4421 19.8362C10.441 20.2017 8.37571 19.9523 6.52009 19.121C4.66448 18.2897 3.10625 16.9159 2.05209 15.1817C0.997922 13.4475 0.497654 11.4348 0.617578 9.41072Z" fill="#494446"/>
</g>
</g>
<defs>
<clipPath id="clip0_10310_144562">
<rect width="20" height="20" fill="white" transform="translate(20) rotate(90)"/>
</clipPath>
<clipPath id="clip1_10310_144562">
<rect width="20" height="20" fill="white"/>
</clipPath>
</defs>
</svg>
