<svg width="20" height="20" viewBox="0 0 20 20" fill="none" xmlns="http://www.w3.org/2000/svg">
<g clip-path="url(#clip0_10314_145982)">
<g clip-path="url(#clip1_10314_145982)">
<path d="M0.635551 4.88645H17.8049L16.944 5.72871C16.8834 5.78691 16.835 5.85653 16.8014 5.93356C16.7679 6.01059 16.75 6.09349 16.7487 6.17749C16.7474 6.26149 16.7627 6.34491 16.7938 6.42294C16.8249 6.50098 16.8712 6.57207 16.93 6.63213C16.9887 6.69218 17.0588 6.74001 17.1361 6.77284C17.2134 6.80567 17.2965 6.82285 17.3805 6.8234C17.4645 6.82396 17.5478 6.80786 17.6255 6.77605C17.7033 6.74423 17.7739 6.69733 17.8335 6.63805L19.8087 4.70508C19.887 4.62472 19.9419 4.52454 19.9675 4.41532C19.9744 4.39026 19.9797 4.36476 19.9833 4.339C20.0023 4.22961 19.9919 4.11712 19.9531 4.01307L19.9528 4.01004L19.9445 3.99986C19.9149 3.92791 19.8723 3.86207 19.8187 3.80568L17.8409 1.78266C17.7827 1.722 17.7131 1.67348 17.6361 1.6399C17.559 1.60631 17.4761 1.58833 17.392 1.58699C17.308 1.58566 17.2245 1.60099 17.1464 1.6321C17.0684 1.66321 16.9972 1.70949 16.9371 1.76827C16.8771 1.82704 16.8292 1.89713 16.7964 1.9745C16.7636 2.05187 16.7464 2.13498 16.7459 2.21903C16.7454 2.30308 16.7615 2.38639 16.7934 2.46416C16.8252 2.54193 16.8722 2.61261 16.9316 2.67212L17.8527 3.61437H0.635551C0.466863 3.61437 0.305084 3.68138 0.185803 3.80066C0.0665229 3.91995 -0.000488281 4.08172 -0.000488281 4.25041C-0.000488281 4.4191 0.0665229 4.58088 0.185803 4.70016C0.305084 4.81944 0.466863 4.88645 0.635551 4.88645V4.88645Z" fill="#171723"/>
<path d="M19.3637 15.2059H2.14624L3.0677 14.2631C3.12705 14.2036 3.17402 14.1329 3.2059 14.0551C3.23777 13.9773 3.25392 13.894 3.2534 13.81C3.25288 13.7259 3.23571 13.6428 3.20288 13.5654C3.17005 13.4881 3.12221 13.418 3.06212 13.3592C3.00204 13.3004 2.9309 13.2542 2.85283 13.223C2.77475 13.1919 2.69128 13.1766 2.60724 13.1779C2.52321 13.1793 2.44027 13.1973 2.36322 13.2308C2.28617 13.2644 2.21655 13.3129 2.15836 13.3736L0.180678 15.3972C0.12583 15.4544 0.0823316 15.5215 0.0524908 15.5949L0.0465118 15.6022L0.0462832 15.6044C0.00749977 15.7086 -0.00292582 15.8212 0.0160715 15.9307C0.0196077 15.9564 0.0248728 15.9819 0.0318321 16.0069C0.0574008 16.1161 0.112301 16.2163 0.190613 16.2966L2.16581 18.2284C2.28474 18.3445 2.44432 18.4096 2.61054 18.4097C2.73693 18.4097 2.86045 18.3721 2.96534 18.3015C3.07023 18.231 3.15174 18.1309 3.19946 18.0138C3.24718 17.8968 3.25895 17.7682 3.23327 17.6445C3.20759 17.5207 3.14562 17.4074 3.05527 17.319L2.19562 16.478H19.3637C19.5324 16.478 19.6942 16.411 19.8135 16.2917C19.9327 16.1724 19.9998 16.0107 19.9998 15.842C19.9998 15.6733 19.9327 15.5115 19.8135 15.3922C19.6942 15.273 19.5324 15.2059 19.3637 15.2059Z" fill="#171723"/>
</g>
</g>
<defs>
<clipPath id="clip0_10314_145982">
<rect width="20" height="20" fill="white"/>
</clipPath>
<clipPath id="clip1_10314_145982">
<rect width="20" height="20" fill="white"/>
</clipPath>
</defs>
</svg>
