<svg width="20" height="20" viewBox="0 0 20 20" fill="none" xmlns="http://www.w3.org/2000/svg">
<g clip-path="url(#clip0_10314_145982)">
<path d="M3.8654 6.64955H15.113L14.549 7.20131C14.5093 7.23944 14.4776 7.28505 14.4556 7.33551C14.4336 7.38597 14.4219 7.44028 14.421 7.49531C14.4202 7.55033 14.4302 7.60498 14.4506 7.6561C14.471 7.70722 14.5013 7.7538 14.5398 7.79314C14.5783 7.83248 14.6242 7.86381 14.6748 7.88531C14.7255 7.90682 14.7799 7.91808 14.8349 7.91844C14.89 7.9188 14.9445 7.90826 14.9955 7.88742C15.0464 7.86658 15.0927 7.83585 15.1317 7.79702L16.4257 6.53073C16.4769 6.47809 16.5129 6.41247 16.5297 6.34092C16.5342 6.3245 16.5377 6.3078 16.54 6.29092C16.5525 6.21925 16.5456 6.14557 16.5203 6.0774L16.5201 6.07542L16.5146 6.06875C16.4952 6.02162 16.4673 5.97848 16.4322 5.94154L15.1366 4.61627C15.0984 4.57653 15.0528 4.54475 15.0024 4.52275C14.9519 4.50075 14.8976 4.48897 14.8425 4.48809C14.7874 4.48721 14.7328 4.49726 14.6816 4.51764C14.6305 4.53802 14.5839 4.56834 14.5445 4.60684C14.5051 4.64534 14.4738 4.69126 14.4523 4.74194C14.4308 4.79263 14.4195 4.84708 14.4192 4.90213C14.4189 4.95719 14.4294 5.01177 14.4503 5.06272C14.4712 5.11366 14.502 5.15997 14.5409 5.19895L15.1443 5.81622H3.8654C3.75489 5.81622 3.64891 5.86012 3.57077 5.93826C3.49263 6.0164 3.44873 6.12238 3.44873 6.23288C3.44873 6.34339 3.49263 6.44937 3.57077 6.52751C3.64891 6.60565 3.75489 6.64955 3.8654 6.64955Z" fill="#171723"/>
<path d="M16.1342 13.4099H4.85513L5.45877 12.7922C5.49765 12.7532 5.52843 12.7069 5.54931 12.656C5.57019 12.605 5.58076 12.5505 5.58042 12.4954C5.58008 12.4403 5.56883 12.3859 5.54733 12.3352C5.52582 12.2845 5.49448 12.2386 5.45512 12.2001C5.41576 12.1616 5.36916 12.1313 5.31801 12.1109C5.26686 12.0905 5.21218 12.0805 5.15713 12.0814C5.10208 12.0822 5.04774 12.094 4.99727 12.116C4.9468 12.138 4.90119 12.1698 4.86307 12.2095L3.5675 13.5352C3.53157 13.5727 3.50307 13.6166 3.48352 13.6647L3.4796 13.6695L3.47946 13.6709C3.45405 13.7392 3.44722 13.8129 3.45966 13.8847C3.46198 13.9015 3.46543 13.9182 3.46999 13.9346C3.48674 14.0061 3.5227 14.0718 3.57401 14.1244L4.86795 15.3899C4.94586 15.4659 5.0504 15.5086 5.15929 15.5087C5.24209 15.5087 5.323 15.484 5.39172 15.4378C5.46043 15.3916 5.51382 15.326 5.54509 15.2493C5.57635 15.1727 5.58406 15.0884 5.56723 15.0073C5.55041 14.9263 5.50982 14.8521 5.45063 14.7942L4.88748 14.2432H16.1342C16.2447 14.2432 16.3507 14.1993 16.4289 14.1212C16.507 14.043 16.5509 13.9371 16.5509 13.8266C16.5509 13.716 16.507 13.6101 16.4289 13.5319C16.3507 13.4538 16.2447 13.4099 16.1342 13.4099Z" fill="#171723"/>
</g>
<defs>
<clipPath id="clip0_10314_145982">
<rect width="20" height="20" fill="white"/>
</clipPath>
</defs>
</svg>
