<svg width="20" height="20" viewBox="0 0 20 20" fill="none" xmlns="http://www.w3.org/2000/svg">
<g clip-path="url(#clip0_10317_147251)">
<g clip-path="url(#clip1_10317_147251)">
<path d="M10 20C8.02219 20 6.08879 19.4135 4.4443 18.3147C2.79981 17.2159 1.51809 15.6541 0.761209 13.8268C0.00433284 11.9996 -0.1937 9.98891 0.192152 8.0491C0.578004 6.10929 1.53041 4.32746 2.92894 2.92894C4.32746 1.53041 6.10929 0.578004 8.0491 0.192152C9.98891 -0.193701 11.9996 0.00433305 13.8268 0.761209C15.6541 1.51809 17.2159 2.79981 18.3147 4.4443C19.4135 6.08879 20 8.02219 20 10C19.9968 12.6512 18.9423 15.1929 17.0676 17.0676C15.1929 18.9423 12.6512 19.9968 10 20V20ZM10 1.17647C8.25487 1.17647 6.54893 1.69397 5.09791 2.66351C3.64689 3.63305 2.51596 5.0111 1.84813 6.62338C1.18029 8.23567 1.00556 10.0098 1.34602 11.7214C1.68647 13.433 2.52683 15.0052 3.76083 16.2392C4.99482 17.4732 6.56702 18.3135 8.27862 18.654C9.99021 18.9944 11.7643 18.8197 13.3766 18.1519C14.9889 17.484 16.367 16.3531 17.3365 14.9021C18.306 13.4511 18.8235 11.7451 18.8235 10C18.821 7.66064 17.8905 5.41783 16.2364 3.76365C14.5822 2.10947 12.3394 1.17903 10 1.17647V1.17647Z" fill="#171723"/>
<path d="M13.0922 8.53446L9.55556 6.55454C9.35493 6.44967 9.1305 6.39875 8.90427 6.40676C8.67804 6.41477 8.45777 6.48144 8.26507 6.60023C8.06378 6.72288 7.89774 6.89563 7.78317 7.10162C7.6686 7.30761 7.60941 7.53979 7.61138 7.77549V11.5546C7.60941 11.7903 7.6686 12.0225 7.78317 12.2284C7.89774 12.4344 8.06378 12.6072 8.26507 12.7298C8.46995 12.8552 8.70536 12.9219 8.94558 12.9226C9.16325 12.9215 9.37751 12.8683 9.57046 12.7676L13.0922 10.7976C13.2935 10.685 13.4611 10.5208 13.5777 10.3219C13.6944 10.123 13.7559 9.89661 13.7559 9.66602C13.7559 9.43544 13.6944 9.20903 13.5777 9.01013C13.4611 8.81123 13.2935 8.64704 13.0922 8.53448V8.53446Z" fill="#171723"/>
</g>
</g>
<defs>
<clipPath id="clip0_10317_147251">
<rect width="20" height="20" fill="white"/>
</clipPath>
<clipPath id="clip1_10317_147251">
<rect width="20" height="20" fill="white"/>
</clipPath>
</defs>
</svg>
