<svg width="20" height="20" viewBox="0 0 20 20" fill="none" xmlns="http://www.w3.org/2000/svg">
<path d="M6.50323 5.49215L5.83809 4.81481C7.23106 3.62294 9.01967 2.99558 10.8519 3.05617C12.6842 3.11677 14.4275 3.86093 15.7387 5.14222C15.8176 5.21867 15.9235 5.26075 16.0334 5.25924C16.1432 5.25774 16.248 5.21276 16.3248 5.13417C16.4015 5.05558 16.444 4.94978 16.4429 4.83992C16.4419 4.73007 16.3973 4.62512 16.319 4.54805C14.8522 3.11528 12.9003 2.28634 10.8507 2.22574C8.80119 2.16514 6.80375 2.8773 5.25484 4.2209L4.5658 3.51923C4.54642 3.4995 4.52219 3.48522 4.49554 3.47782C4.46889 3.47042 4.44076 3.47017 4.41398 3.47709C4.3872 3.484 4.36272 3.49785 4.34298 3.51723C4.32325 3.53661 4.30897 3.56084 4.30157 3.58749L3.5619 6.25161C3.5545 6.27825 3.55424 6.30638 3.56115 6.33315C3.56807 6.35993 3.58191 6.38441 3.60129 6.40414C3.62067 6.42387 3.6449 6.43815 3.67155 6.44554C3.6982 6.45294 3.72632 6.45318 3.75309 6.44626L6.43014 5.75509C6.45694 5.7482 6.48144 5.73437 6.50119 5.715C6.52094 5.69562 6.53524 5.67139 6.54265 5.64473C6.55006 5.61808 6.55032 5.58994 6.5434 5.56316C6.53648 5.53637 6.52262 5.51188 6.50323 5.49215Z" fill="#494446"/>
<path d="M10.7262 5.91906C10.6466 5.84381 10.5412 5.80188 10.4316 5.80188C10.3221 5.80188 10.2167 5.84381 10.1371 5.91906L4.55517 11.5013C4.51647 11.54 4.48577 11.5859 4.46483 11.6365C4.44389 11.687 4.43311 11.7412 4.43311 11.7959C4.43311 11.8506 4.44389 11.9048 4.46483 11.9553C4.48577 12.0059 4.51647 12.0518 4.55517 12.0905L10.137 17.6728C10.1757 17.7115 10.2216 17.7422 10.2722 17.7631C10.3227 17.784 10.3769 17.7948 10.4316 17.7948C10.4863 17.7948 10.5405 17.784 10.591 17.7631C10.6416 17.7422 10.6875 17.7115 10.7262 17.6728L16.3089 12.0905C16.3476 12.0518 16.3783 12.0059 16.3992 11.9553C16.4202 11.9048 16.4309 11.8506 16.4309 11.7959C16.4309 11.7412 16.4202 11.687 16.3992 11.6365C16.3783 11.5859 16.3476 11.54 16.3089 11.5013L10.7262 5.91906ZM10.4316 16.789L5.43895 11.7959L10.4316 6.80285L15.4251 11.7959L10.4316 16.789Z" fill="#494446"/>
</svg>
