<svg width="21" height="20" viewBox="0 0 21 20" fill="none" xmlns="http://www.w3.org/2000/svg">
<g clip-path="url(#clip0_10314_145410)">
<g clip-path="url(#clip1_10314_145410)">
<path d="M20.4116 17.2115C20.4633 17.1481 20.4996 17.0727 20.5174 16.9917C20.5351 16.9107 20.5338 16.8265 20.5136 16.7461L19.9494 14.6157C19.9136 14.4808 19.8275 14.3662 19.7102 14.297C19.5928 14.2279 19.4538 14.2099 19.3236 14.2471C19.1935 14.2842 19.0829 14.3734 19.0162 14.4951C18.9495 14.6167 18.9322 14.7609 18.968 14.8958L19.2141 15.8251L18.0671 15.1659V7.70332C18.0675 7.52258 18.021 7.34505 17.9326 7.18928C17.8442 7.0335 17.7171 6.9052 17.5645 6.81778L11.0145 3.04702L11.0095 3.04492V1.76692L11.6741 2.44053C11.7692 2.53678 11.8968 2.59072 12.0297 2.59086C12.1307 2.59086 12.2295 2.55964 12.3134 2.50119C12.3972 2.44275 12.4624 2.35972 12.5006 2.26271C12.5387 2.16571 12.5481 2.05911 12.5276 1.95654C12.5071 1.85396 12.4575 1.76005 12.3853 1.68679L10.8616 0.142245C10.8036 0.0856907 10.7336 0.0441455 10.6572 0.0210026C10.5808 -0.00214021 10.5002 -0.00622443 10.422 0.00908367C10.4071 0.0114424 10.3924 0.0145779 10.3778 0.0184784C10.289 0.0390034 10.2075 0.0847067 10.1424 0.15048L10.1412 0.152473L10.1374 0.154582L8.68417 1.69606C8.63671 1.74538 8.59915 1.80397 8.57367 1.86843C8.54818 1.9329 8.53527 2.00196 8.53568 2.07162C8.5361 2.14129 8.54983 2.21017 8.57608 2.27431C8.60233 2.33844 8.64059 2.39654 8.68863 2.44525C8.73667 2.49397 8.79355 2.53233 8.85598 2.55812C8.91842 2.58391 8.98516 2.59662 9.05235 2.59551C9.11955 2.5944 9.18587 2.57949 9.24748 2.55166C9.30908 2.52382 9.36476 2.4836 9.41128 2.43332L9.99237 1.81649V3.08834L3.51394 6.81984C3.36379 6.9068 3.2384 7.03324 3.15038 7.18641C3.06158 7.3432 3.0143 7.52151 3.01331 7.70332V15.1539L1.84541 15.825L2.09156 14.8958C2.12739 14.7609 2.11005 14.6167 2.04336 14.4951C1.97667 14.3734 1.86609 14.2842 1.73595 14.2471C1.6058 14.2099 1.46676 14.2279 1.3494 14.297C1.23204 14.3662 1.14598 14.4808 1.11015 14.6157L0.545945 16.7461C0.525743 16.8265 0.524463 16.9107 0.542214 16.9917C0.559965 17.0727 0.596227 17.1481 0.647946 17.2115C0.657579 17.2242 0.666255 17.2348 0.676884 17.2464C0.73725 17.3163 0.814967 17.3676 0.901555 17.3949L0.904352 17.3952L0.908492 17.398L2.91301 17.9674C2.95675 17.9795 3.00183 17.9857 3.04711 17.9859C3.1703 17.9859 3.28932 17.9396 3.38205 17.8555C3.47477 17.7714 3.53492 17.6553 3.5513 17.5288C3.56768 17.4022 3.5392 17.2738 3.47113 17.1673C3.40306 17.0609 3.30004 16.9837 3.1812 16.95L2.38158 16.7224L3.4931 16.0837C3.50134 16.0889 3.50756 16.0966 3.51594 16.1016L10.0659 19.8723C10.2109 19.9559 10.3741 19.9998 10.5401 20C10.706 20.0002 10.8693 19.9566 11.0145 19.8734L17.5635 16.1016L17.5779 16.0904L18.678 16.7225L17.8784 16.95C17.7595 16.9837 17.6565 17.0609 17.5884 17.1673C17.5204 17.2738 17.4919 17.4022 17.5083 17.5288C17.5246 17.6553 17.5848 17.7714 17.6775 17.8555C17.7702 17.9396 17.8893 17.9859 18.0125 17.9859C18.0577 17.9858 18.1028 17.9795 18.1466 17.9674L20.1511 17.398L20.1552 17.3953L20.158 17.3949C20.2446 17.3677 20.3223 17.3164 20.3827 17.2465C20.3933 17.2348 20.402 17.2242 20.4116 17.2115ZM10.501 7.45825C10.5678 7.45829 10.6339 7.44468 10.6956 7.4182C10.7573 7.39172 10.8134 7.35289 10.8607 7.30393C10.9079 7.25496 10.9454 7.19683 10.9709 7.13285C10.9964 7.06886 11.0096 7.00029 11.0095 6.93105V4.24991L16.5287 7.42041L10.5228 10.8614L4.55399 7.42549L9.99237 4.27423V6.93105C9.99233 7.00029 10.0055 7.06886 10.031 7.13285C10.0566 7.19683 10.094 7.25496 10.1412 7.30392C10.1885 7.35289 10.2446 7.39172 10.3063 7.4182C10.368 7.44468 10.4342 7.45829 10.501 7.45825V7.45825ZM7.22498 13.3368C7.15925 13.2149 7.04971 13.1248 6.92022 13.0863C6.79072 13.0477 6.65177 13.0637 6.53363 13.1309L4.02873 14.5703L4.01215 8.32082L10.0053 11.7696L10.0291 11.784V18.6468L4.518 15.4948L7.02631 14.0534C7.08479 14.0199 7.13632 13.9748 7.17796 13.9207C7.2196 13.8665 7.25053 13.8044 7.26898 13.7378C7.28743 13.6713 7.29304 13.6016 7.2855 13.5328C7.27795 13.464 7.25738 13.3974 7.22498 13.3368V13.3368ZM11.0463 18.6693V11.7892L11.0562 11.783L17.0515 8.32719L17.0682 14.592L14.5219 13.1288C14.4635 13.0953 14.3992 13.074 14.3329 13.0662C14.2665 13.0584 14.1993 13.0642 14.1351 13.0833C14.0709 13.1025 14.011 13.1345 13.9587 13.1776C13.9065 13.2208 13.8629 13.2742 13.8306 13.3347C13.7982 13.3953 13.7777 13.4619 13.7702 13.5307C13.7626 13.5995 13.7683 13.6692 13.7867 13.7357C13.8052 13.8023 13.8361 13.8644 13.8777 13.9186C13.9193 13.9727 13.9708 14.0179 14.0292 14.0514L16.533 15.49L11.0463 18.6693Z" fill="#171723"/>
</g>
</g>
<defs>
<clipPath id="clip0_10314_145410">
<rect width="20" height="20" fill="white" transform="translate(0.529785)"/>
</clipPath>
<clipPath id="clip1_10314_145410">
<rect width="20" height="20" fill="white" transform="translate(0.529785)"/>
</clipPath>
</defs>
</svg>
