<svg width="20" height="20" viewBox="0 0 20 20" fill="none" xmlns="http://www.w3.org/2000/svg">
<g clip-path="url(#clip0_10314_145251)">
<g clip-path="url(#clip1_10314_145251)">
<path d="M19.4915 16.2669H18.9671V5.91159C18.9672 5.84474 18.954 5.77853 18.9285 5.71676C18.903 5.65498 18.8655 5.59885 18.8183 5.55158C18.771 5.5043 18.715 5.46681 18.6533 5.44125C18.5916 5.41568 18.5254 5.40254 18.4586 5.40258H13.8335C13.7973 3.6551 13.0923 1.98822 11.8641 0.745878C11.3672 0.267644 10.7047 0.000370401 10.0153 3.84701e-07C9.32592 -0.000369632 8.66313 0.266192 8.16565 0.743893C6.92875 1.98239 6.21812 3.65167 6.18241 5.40258H1.54633C1.47955 5.40254 1.41341 5.41568 1.3517 5.44125C1.28999 5.46681 1.23391 5.5043 1.18669 5.55158C1.13946 5.59885 1.10201 5.65498 1.07647 5.71676C1.05093 5.77853 1.0378 5.84474 1.03784 5.91159V16.2669H0.508492C0.441705 16.2668 0.375565 16.28 0.313855 16.3056C0.252144 16.3311 0.196073 16.3686 0.148847 16.4159C0.101622 16.4632 0.064168 16.5193 0.0386276 16.5811C0.0130873 16.6428 -3.86846e-05 16.709 8.56363e-08 16.7759V17.8595C0.000470964 18.4269 0.225764 18.9709 0.626446 19.3722C1.02713 19.7735 1.57047 19.9993 2.13725 20H17.8628C18.4295 19.9993 18.9729 19.7735 19.3736 19.3722C19.7742 18.9709 19.9995 18.4269 20 17.8595V16.7759C20 16.709 19.9869 16.6428 19.9614 16.5811C19.9358 16.5193 19.8984 16.4632 19.8512 16.4159C19.8039 16.3686 19.7479 16.3311 19.6861 16.3056C19.6244 16.28 19.5583 16.2669 19.4915 16.2669V16.2669ZM7.91142 16.2619H6.62132V14.6832L6.62233 14.6782L6.62132 14.6733V14.1752C6.62181 14.0581 6.65391 13.9434 6.71423 13.8431C6.77455 13.7428 6.86084 13.6607 6.96396 13.6055C7.06261 13.5568 7.17188 13.5337 7.28177 13.5383C7.39165 13.5428 7.49864 13.5749 7.59292 13.6316C7.6872 13.6883 7.76577 13.7678 7.82141 13.8627C7.87706 13.9577 7.90801 14.0651 7.91142 14.1752V16.2619ZM6.17543 12.934C5.99811 13.0874 5.85552 13.277 5.75719 13.49C5.65885 13.703 5.60703 13.9345 5.60518 14.1692H4.38177C4.37291 13.6991 4.50318 13.237 4.75619 12.8409C5.09026 12.3457 5.59593 11.992 6.1754 11.8484L6.17543 12.934ZM8.9284 15.9418H11.0756V16.2649H8.9284V15.9418ZM14.3989 14.1692C14.3973 13.9359 14.3468 13.7056 14.2506 13.4931C14.1544 13.2806 14.0147 13.0907 13.8405 12.9358V11.8506C14.4172 11.995 14.9202 12.3477 15.2528 12.841C15.5058 13.237 15.636 13.6992 15.6272 14.1692L14.3989 14.1692ZM13.0738 13.6184C13.1685 13.6771 13.2466 13.759 13.3007 13.8565C13.3548 13.954 13.383 14.0637 13.3827 14.1751V16.2619H12.0926V14.1752C12.0922 14.0602 12.1224 13.9473 12.1801 13.8479C12.2377 13.7486 12.3207 13.6663 12.4206 13.6097C12.5205 13.553 12.6336 13.5239 12.7484 13.5255C12.8632 13.527 12.9755 13.5591 13.0738 13.6184H13.0738ZM17.9501 16.2649H14.3997V15.1872H16.089C16.2082 15.1873 16.3237 15.1455 16.4152 15.0689C16.5067 14.9924 16.5684 14.8861 16.5895 14.7687C16.6754 14.3272 16.672 13.8729 16.5795 13.4328C16.487 12.9927 16.3073 12.5756 16.051 12.2061C15.7947 11.8367 15.4671 11.5224 15.0874 11.2819C14.7077 11.0414 14.2837 10.8795 13.8405 10.8058V6.42061H17.9501V16.2649ZM8.88271 1.46566C9.1854 1.17044 9.5913 1.00523 10.0139 1.00523C10.4365 1.00523 10.8424 1.17044 11.1451 1.46566C12.2188 2.55061 12.8219 4.01557 12.8235 5.54276V12.512C12.7944 12.5105 12.7676 12.5 12.7381 12.5C12.2959 12.502 11.8725 12.6794 11.5608 12.9935C11.2492 13.3075 11.0747 13.7325 11.0756 14.1752V14.9238H8.9284V14.1752C8.92938 13.7326 8.75501 13.3078 8.44355 12.9938C8.13208 12.6797 7.70893 12.5022 7.26687 12.5C7.24073 12.5 7.21814 12.509 7.19238 12.5102V5.54276C7.19362 4.01315 7.80162 2.54665 8.88271 1.46566V1.46566ZM2.05483 6.42061H6.1754V10.8042C5.73142 10.8771 5.30658 11.0385 4.92605 11.2788C4.54551 11.5191 4.21702 11.8334 3.96003 12.2031C3.70304 12.5728 3.52277 12.9903 3.42991 13.431C3.33705 13.8717 3.33347 14.3266 3.4194 14.7687C3.44052 14.8861 3.50224 14.9924 3.59374 15.0689C3.68525 15.1455 3.80072 15.1873 3.91995 15.1872H5.60433V16.2649H2.05483V6.42061ZM18.983 17.8595C18.9829 18.157 18.8649 18.4423 18.6548 18.6527C18.4448 18.8632 18.1599 18.9816 17.8627 18.982H2.13725C1.84008 18.9816 1.55521 18.8632 1.34518 18.6527C1.13514 18.4423 1.01711 18.157 1.01698 17.8595V17.2849H18.983V17.8595Z" fill="#171723"/>
<path d="M10.0081 8.10677C10.4333 8.10677 10.8491 7.98053 11.2026 7.74403C11.5562 7.50752 11.8318 7.17136 11.9946 6.77807C12.1573 6.38477 12.1999 5.952 12.1169 5.53448C12.034 5.11696 11.8292 4.73344 11.5285 4.43242C11.2278 4.13141 10.8446 3.92641 10.4276 3.84336C10.0105 3.76031 9.57814 3.80293 9.18524 3.96584C8.79235 4.12875 8.45654 4.40463 8.22028 4.75859C7.98401 5.11254 7.85791 5.52868 7.85791 5.95439C7.85848 6.52506 8.0852 7.07219 8.48831 7.47572C8.89142 7.87925 9.43799 8.1062 10.0081 8.10677V8.10677ZM10.0081 4.82003C10.2322 4.82003 10.4513 4.88656 10.6376 5.01121C10.824 5.13585 10.9692 5.31301 11.055 5.52029C11.1408 5.72756 11.1632 5.95564 11.1195 6.17569C11.0758 6.39573 10.9678 6.59785 10.8094 6.75649C10.6509 6.91514 10.449 7.02317 10.2292 7.06694C10.0093 7.11071 9.78149 7.08825 9.57443 7.00239C9.36736 6.91653 9.19038 6.77114 9.06587 6.5846C8.94135 6.39806 8.87489 6.17874 8.87489 5.95439C8.87528 5.65366 8.9948 5.36536 9.20723 5.15271C9.41965 4.94006 9.70766 4.82042 10.0081 4.82003V4.82003Z" fill="#171723"/>
</g>
</g>
<defs>
<clipPath id="clip0_10314_145251">
<rect width="20" height="20" fill="white"/>
</clipPath>
<clipPath id="clip1_10314_145251">
<rect width="20" height="20" fill="white"/>
</clipPath>
</defs>
</svg>
