<svg width="20" height="20" viewBox="0 0 20 20" fill="none" xmlns="http://www.w3.org/2000/svg">
<g clip-path="url(#clip0_5313_35049)">
<g clip-path="url(#clip1_5313_35049)">
<path d="M19.8551 19.1382L16.5269 15.8099C16.4643 15.7488 16.3868 15.7051 16.3021 15.6833C16.2174 15.6614 16.1285 15.6622 16.0442 15.6856L14.9426 14.584C16.5014 12.931 17.3472 10.7311 17.2973 8.45954C17.2474 6.18801 16.3056 4.02734 14.6757 2.44445C13.0457 0.861569 10.8583 -0.0164158 8.58631 0.000232512C6.31429 0.0168809 4.14004 0.926826 2.53344 2.53343C0.926829 4.14003 0.0168809 6.31426 0.000232513 8.58628C-0.0164159 10.8583 0.861572 13.0456 2.44446 14.6756C4.02736 16.3056 6.18803 17.2473 8.45957 17.2972C10.7311 17.3472 12.9311 16.5013 14.5841 14.9425L15.6856 16.0439C15.6622 16.1283 15.6614 16.2173 15.6832 16.302C15.705 16.3868 15.7487 16.4643 15.8099 16.5269L19.1382 19.8551C19.2336 19.9486 19.362 20.0007 19.4956 20C19.6292 19.9993 19.7571 19.946 19.8515 19.8515C19.946 19.7571 19.9993 19.6292 20 19.4956C20.0007 19.362 19.9486 19.2336 19.8551 19.1382H19.8551ZM8.67999 16.2852C7.17582 16.2852 5.70542 15.8392 4.45475 15.0035C3.20407 14.1679 2.22929 12.9801 1.65367 11.5904C1.07804 10.2007 0.927435 8.67159 1.22089 7.19633C1.51434 5.72106 2.23866 4.36594 3.30228 3.30233C4.36589 2.23873 5.72101 1.5144 7.19629 1.22095C8.67156 0.927503 10.2007 1.07811 11.5904 1.65373C12.9801 2.22935 14.1678 3.20413 15.0035 4.4548C15.8392 5.70547 16.2852 7.17586 16.2852 8.68003C16.283 10.6964 15.4811 12.6295 14.0553 14.0553C12.6295 15.4811 10.6964 16.283 8.67999 16.2852V16.2852Z" fill="#171723"/>
</g>
</g>
<defs>
<clipPath id="clip0_5313_35049">
<rect width="20" height="20" fill="white"/>
</clipPath>
<clipPath id="clip1_5313_35049">
<rect width="20" height="20" fill="white"/>
</clipPath>
</defs>
</svg>
