<svg width="20" height="20" viewBox="0 0 20 20" fill="none" xmlns="http://www.w3.org/2000/svg">
<g clip-path="url(#clip0_5313_35215)">
<g clip-path="url(#clip1_5313_35215)">
<path d="M17.5028 11.7035C16.915 11.4193 16.2983 11.1965 15.6628 11.0387C15.3021 10.9364 14.9404 10.835 14.5909 10.7039C14.1266 10.532 13.0232 10.0321 12.7976 9.11294C12.7241 8.64872 12.7563 8.17434 12.8921 7.72375C12.948 7.48427 13.0069 7.24577 13.0658 7.00829C13.2681 6.26767 13.4158 5.51384 13.5078 4.75258C13.6564 3.65537 13.4402 2.54051 12.8911 1.57274C12.5879 1.05666 12.1406 0.635694 11.6018 0.35907C11.0629 0.0824453 10.4546 -0.0383985 9.8481 0.0106711C9.32651 0.114956 8.83187 0.321368 8.39397 0.617487C7.95606 0.913605 7.58393 1.29331 7.29997 1.73375C6.77074 2.54542 5.94536 3.12954 4.99159 3.36739C4.57455 3.42536 4.15079 3.41899 3.73577 3.34852L3.54375 3.32069C3.04938 3.22272 2.54154 3.20792 2.04209 3.27693C1.6095 3.36181 1.2068 3.55491 0.873278 3.83741C0.539757 4.1199 0.28681 4.48213 0.139121 4.88875C0.0163315 5.23266 -0.0259599 5.59914 0.0153652 5.96117C0.0566904 6.3232 0.180578 6.67153 0.377892 6.98049C0.559383 7.24295 0.780704 7.47684 1.03424 7.67409C1.17546 7.78738 1.32176 7.8937 1.46912 7.99904C1.62763 8.11232 1.78612 8.22559 1.93344 8.3518C2.0619 8.46034 2.17439 8.58574 2.26771 8.72444L2.26875 8.72545C2.40526 8.93087 2.49471 9.16276 2.53093 9.40518C2.61037 10.0327 2.52577 10.6696 2.28505 11.2564C2.09488 11.6714 1.83644 12.0531 1.52 12.3863C1.40824 12.5194 1.29648 12.6526 1.19284 12.7848C1.14102 12.8503 1.09023 12.9169 1.04349 12.9825C0.606883 13.5692 0.298177 14.2373 0.136511 14.9455C-0.0251545 15.6537 -0.036331 16.3868 0.103674 17.0994C0.243658 17.7314 0.548558 18.3171 0.988692 18.7997C1.42883 19.2822 1.9892 19.645 2.61526 19.8529C2.95273 19.9519 3.30334 20.0015 3.65566 20C4.82442 19.9236 5.95742 19.5743 6.95973 18.9814L7.11213 18.9029C8.12804 18.2271 9.32485 17.8587 10.5534 17.8436C11.366 17.9977 12.1376 18.3136 12.8201 18.7717C13.5967 19.2795 14.4665 19.6355 15.3814 19.8201C16.402 19.923 17.4259 19.6586 18.2615 19.0764C19.0971 18.4942 19.6871 17.6341 19.921 16.6572C20.1035 15.6875 19.9679 14.6863 19.5336 13.7966C19.0993 12.9069 18.3884 12.1743 17.5028 11.7035Z" fill="#171723"/>
</g>
</g>
<defs>
<clipPath id="clip0_5313_35215">
<rect width="20" height="20" fill="white"/>
</clipPath>
<clipPath id="clip1_5313_35215">
<rect width="20" height="20" fill="white"/>
</clipPath>
</defs>
</svg>
