<svg width="20" height="20" viewBox="0 0 20 20" fill="none" xmlns="http://www.w3.org/2000/svg">
<path d="M18.1646 7.5927C18.0971 7.25207 17.9326 6.9382 17.6909 6.68886C17.4492 6.43951 17.1406 6.26533 16.8022 6.18726C16.7013 6.16174 16.5984 6.14487 16.4946 6.13681C16.4764 5.88501 16.4099 5.63908 16.2985 5.4125C16.0822 5.02851 15.7424 4.72889 15.3344 4.56226C14.9264 4.39563 14.4741 4.37176 14.0508 4.49454C13.8176 3.99714 13.4469 3.57684 12.9826 3.28326C12.5183 2.98967 11.9797 2.83504 11.4303 2.83764H11.3343C10.6537 2.87126 10.0086 3.15154 9.51949 3.62611C9.21344 3.54632 8.8913 3.55255 8.58856 3.64411C8.36567 3.18486 8.01753 2.79795 7.58427 2.52798C7.15102 2.25801 6.65029 2.11598 6.13981 2.11825C6.1333 2.11825 6.05029 2.11825 6.04378 2.11909C5.42736 2.15624 4.84237 2.40385 4.38658 2.82053C3.9308 3.23721 3.63185 3.79771 3.53971 4.40834C3.10898 4.48146 2.7126 4.68949 2.40771 5.00241C2.21145 5.20193 2.05713 5.43872 1.95385 5.69883C1.85056 5.95894 1.80039 6.23709 1.80631 6.51689C1.82469 7.0759 2.06053 7.60565 2.46362 7.99339C2.86671 8.38113 3.40522 8.59623 3.96452 8.5929H7.08438L7.09114 8.60429C7.28903 8.95861 7.57866 9.25312 7.92963 9.45688C8.2806 9.66065 8.67996 9.76616 9.08578 9.76234H10.0018L9.64406 10.1041C9.62581 10.1247 9.60894 10.1464 9.59355 10.1692H2.68115C2.62643 10.1692 2.57223 10.18 2.52166 10.2009C2.4711 10.2218 2.42515 10.2525 2.38646 10.2912C2.34776 10.3299 2.31707 10.3758 2.29614 10.4264C2.27521 10.477 2.26445 10.5312 2.26448 10.5859V16.8383H2.22217C2.05641 16.8383 1.89744 16.9042 1.78023 17.0214C1.66302 17.1386 1.59717 17.2976 1.59717 17.4633C1.59717 17.6291 1.66302 17.7881 1.78023 17.9053C1.89744 18.0225 2.05641 18.0883 2.22217 18.0883H13.3347C13.5004 18.0883 13.6594 18.0225 13.7766 17.9053C13.8938 17.7881 13.9597 17.6291 13.9597 17.4633C13.9597 17.2976 13.8938 17.1386 13.7766 17.0214C13.6594 16.9042 13.5004 16.8383 13.3347 16.8383H13.298V12.867C13.3841 12.823 13.4601 12.7615 13.5211 12.6866C13.5822 12.6116 13.6271 12.5248 13.6528 12.4316L13.7529 11.9286L14.2656 12.0833C14.4135 12.123 14.5703 12.1132 14.7121 12.0554C14.8539 11.9977 14.9729 11.8951 15.0509 11.7634L15.5229 10.9456C15.5952 10.8117 15.6218 10.6579 15.5987 10.5075C15.5756 10.3571 15.5042 10.2183 15.3952 10.1122L15.0291 9.76229H16.3791C16.6473 9.76106 16.9119 9.70076 17.1542 9.58569C17.3965 9.47061 17.6105 9.30359 17.7809 9.09648C17.9514 8.88937 18.0741 8.64726 18.1404 8.38736C18.2067 8.12746 18.2149 7.85615 18.1645 7.5927H18.1646ZM2.63964 6.50139C2.63568 6.3314 2.66611 6.16236 2.7291 6.00441C2.79209 5.84647 2.88634 5.70288 3.00619 5.58226C3.12604 5.46164 3.26903 5.36648 3.42657 5.3025C3.58412 5.23851 3.75296 5.20701 3.92298 5.20989C4.03207 5.20986 4.13681 5.16706 4.21471 5.09068C4.29261 5.0143 4.33746 4.91043 4.33964 4.80136C4.33645 4.35367 4.49686 3.92022 4.79072 3.58246C5.08459 3.2447 5.49168 3.02588 5.93551 2.96712C6.37934 2.90836 6.82936 3.01369 7.20099 3.26334C7.57263 3.51298 7.84032 3.88975 7.95374 4.32284C7.97057 4.38797 8.00294 4.44804 8.04809 4.49791C8.09323 4.54777 8.14979 4.58595 8.21293 4.60915C8.27606 4.63236 8.34388 4.6399 8.41058 4.63114C8.47727 4.62238 8.54084 4.59757 8.59583 4.55884C8.70173 4.48343 8.82393 4.4341 8.9525 4.41485C8.80863 4.69329 8.70838 4.99216 8.65526 5.30104C8.18938 5.38277 7.76048 5.60746 7.42805 5.94394C7.21991 6.15571 7.05607 6.40686 6.9461 6.68268C6.83613 6.95851 6.78225 7.25349 6.78758 7.55038C6.79193 7.62051 6.80022 7.69034 6.81241 7.75954H3.96452C3.62329 7.76378 3.29389 7.63465 3.04644 7.39966C2.79899 7.16468 2.65303 6.84238 2.63964 6.50139ZM3.09782 16.8383V11.0025H9.54023L9.98503 11.774C10.0656 11.9047 10.1869 12.0053 10.3303 12.0605C10.4736 12.1156 10.6311 12.1222 10.7785 12.0792L11.2627 11.9311L11.3791 12.4372C11.4182 12.585 11.5049 12.7158 11.6258 12.8094C11.7468 12.9029 11.8951 12.954 12.048 12.9548H12.4647V16.8383H3.09782ZM14.3861 11.2492L13.9718 11.1255C13.8648 11.0982 13.7535 11.0925 13.6443 11.1086C13.535 11.1246 13.4301 11.1622 13.3355 11.2191C13.1507 11.3336 13.019 11.5169 12.9692 11.7285L12.8708 12.1216H12.1611L12.0627 11.6992C12.008 11.5104 11.8884 11.3469 11.7249 11.2377C11.7056 11.2221 11.6849 11.2082 11.6631 11.1962C11.4679 11.0913 11.2391 11.0679 11.0267 11.1311L10.6442 11.2483L10.2926 10.6396L10.5775 10.3645C10.6616 10.2871 10.7284 10.1928 10.7736 10.0878C10.8188 9.98272 10.8412 9.86932 10.8395 9.75499C10.8408 9.64446 10.8191 9.53486 10.7759 9.43316C10.7326 9.33144 10.6686 9.23984 10.588 9.16416L10.4716 9.05185L10.4698 9.05019L10.2926 8.87935L10.6442 8.26982L11.034 8.38619C11.1407 8.41707 11.2525 8.42624 11.3629 8.41315C11.4732 8.40005 11.5798 8.36496 11.6763 8.30995C11.7728 8.25494 11.8573 8.18113 11.9248 8.09288C11.9923 8.00463 12.0414 7.90374 12.0692 7.79619L12.1676 7.3966H12.8708L12.9676 7.78886C13.0124 7.99236 13.1351 8.17024 13.3094 8.28446C13.3308 8.30074 13.3536 8.31491 13.3777 8.32679C13.5673 8.42726 13.7887 8.44975 13.9946 8.38944L14.386 8.27795L14.7344 8.88179L14.5641 9.0472L14.5552 9.05579L14.4227 9.18453C14.2748 9.34105 14.1916 9.54779 14.1899 9.76314C14.192 9.98365 14.2809 10.1945 14.4373 10.3499L14.4438 10.3564L14.7384 10.638L14.3861 11.2492ZM17.1408 8.56362C17.049 8.67732 16.933 8.76911 16.8012 8.83232C16.6694 8.89553 16.5252 8.92857 16.3791 8.92902H15.597C15.6023 8.80499 15.5748 8.68174 15.5173 8.57176L15.0575 7.77509C14.985 7.63693 14.8665 7.5284 14.7225 7.46823C14.5786 7.40806 14.4181 7.40002 14.2689 7.4455L13.7733 7.57734L13.6512 7.08092C13.612 6.93301 13.5251 6.80214 13.4041 6.70858C13.283 6.61501 13.1345 6.56396 12.9814 6.56333H12.048C11.8938 6.56075 11.7435 6.61174 11.6227 6.70761C11.5019 6.80348 11.4181 6.93829 11.3856 7.08905L11.2765 7.58873L10.7646 7.43574C10.6167 7.39592 10.4599 7.40554 10.318 7.46313C10.176 7.52072 10.0568 7.62313 9.97851 7.75474L9.50733 8.57343C9.45104 8.68316 9.4251 8.80594 9.4322 8.92906H9.08578C8.82366 8.92908 8.56633 8.85879 8.34062 8.72554C8.1149 8.59228 7.92905 8.40092 7.80244 8.17141C7.77984 8.13551 7.7605 8.09765 7.74466 8.05829C7.7412 8.05112 7.74014 8.04364 7.73683 8.03642C7.73276 8.02508 7.72976 8.01379 7.72478 8.0029C7.65966 7.85818 7.62435 7.70182 7.62096 7.54316C7.61696 7.35602 7.65031 7.16995 7.71906 6.99585C7.78781 6.82174 7.89057 6.66309 8.02135 6.52916C8.15354 6.39469 8.31107 6.28777 8.48484 6.21457C8.65861 6.14138 8.84517 6.10336 9.03373 6.10273C9.1407 6.10279 9.24358 6.06165 9.32102 5.98784C9.39845 5.91404 9.44449 5.81325 9.44956 5.7064C9.46778 5.26593 9.61088 4.83973 9.86214 4.4775L9.87354 4.45879C9.92318 4.39694 9.9777 4.33509 10.0233 4.28379C10.2058 4.09389 10.4241 3.94198 10.6656 3.83681C10.9071 3.73164 11.167 3.67528 11.4303 3.67099C11.8815 3.66678 12.3212 3.81275 12.6802 4.0859C13.0393 4.35906 13.2973 4.74388 13.4136 5.17978C13.4305 5.24526 13.4632 5.30564 13.5087 5.35569C13.5542 5.40574 13.6112 5.44395 13.6748 5.46704C13.7382 5.49073 13.8064 5.49837 13.8734 5.48928C13.9404 5.4802 14.0042 5.45466 14.0589 5.41496C14.1808 5.34035 14.3162 5.29062 14.4574 5.26864C14.5986 5.24667 14.7427 5.25289 14.8815 5.28694C15.0203 5.32099 15.1509 5.3822 15.2659 5.46703C15.3809 5.55186 15.4779 5.65863 15.5514 5.78118C15.6622 6.00468 15.6938 6.25921 15.6409 6.50302C15.6258 6.57218 15.6286 6.64405 15.649 6.71184C15.6693 6.77964 15.7067 6.84112 15.7574 6.89048C15.8082 6.93984 15.8706 6.97545 15.939 6.99394C16.0073 7.01244 16.0792 7.01321 16.1479 6.99619C16.2987 6.95438 16.4581 6.95496 16.6086 6.99785C16.7707 7.03399 16.9208 7.11123 17.0444 7.22215C17.1681 7.33307 17.2611 7.47394 17.3145 7.63121C17.368 7.78847 17.3801 7.95685 17.3497 8.12014C17.3192 8.28343 17.2473 8.43615 17.1408 8.5636L17.1408 8.56362Z" fill="#171723"/>
<path d="M13.4215 8.96883C13.2607 8.7792 13.0439 8.64555 12.8022 8.58717C12.5716 8.53511 12.3312 8.54751 12.1072 8.623C11.8845 8.70257 11.6907 8.84681 11.5505 9.03722C11.4102 9.23117 11.3263 9.46016 11.308 9.69885C11.2995 9.92507 11.352 10.1494 11.4602 10.3483C11.47 10.3678 11.5139 10.4329 11.5269 10.4508C11.5999 10.557 11.6901 10.6502 11.7939 10.7266C11.9153 10.8172 12.0524 10.8845 12.1983 10.9252C12.301 10.9562 12.4077 10.9713 12.5149 10.97C12.5715 10.9704 12.628 10.9647 12.6834 10.9529C12.8407 10.9314 12.9922 10.8791 13.1293 10.7991C13.3321 10.6782 13.4946 10.5001 13.5964 10.2872C13.7036 10.0764 13.7439 9.83791 13.712 9.6036C13.6968 9.43285 13.6367 9.26917 13.5378 9.12916C13.5079 9.06986 13.4686 9.01573 13.4215 8.96883ZM12.8543 9.908L12.8478 9.92183C12.8191 9.98469 12.7731 10.0381 12.7151 10.0756C12.6534 10.1097 12.5852 10.1305 12.5149 10.1367L12.4262 10.1237C12.3733 10.1088 12.3238 10.0836 12.2806 10.0496C12.2495 10.0239 12.2219 9.99438 12.1984 9.96171C12.1621 9.89778 12.142 9.82599 12.1398 9.75254C12.1465 9.67124 12.1758 9.59345 12.2244 9.52793C12.2637 9.4756 12.3166 9.43507 12.3774 9.41075C12.4248 9.39571 12.4742 9.38802 12.5239 9.38796C12.5849 9.38696 12.6451 9.40208 12.6984 9.43181C12.7517 9.46153 12.7962 9.5048 12.8274 9.55723C12.8593 9.59938 12.8791 9.64949 12.8844 9.70209C12.8965 9.77217 12.886 9.84429 12.8543 9.90797V9.908Z" fill="#171723"/>
<path d="M16.7461 10.3214C16.6914 10.3213 16.6372 10.3321 16.5866 10.353C16.536 10.3739 16.4901 10.4046 16.4514 10.4433C16.4127 10.482 16.382 10.528 16.3611 10.5785C16.3402 10.6291 16.3294 10.6833 16.3294 10.738V13.1518C16.3291 13.4823 16.1977 13.7993 15.9639 14.033C15.7302 14.2667 15.4132 14.3982 15.0827 14.3985H14.2355C14.125 14.3985 14.019 14.4424 13.9409 14.5205C13.8627 14.5987 13.8188 14.7047 13.8188 14.8152C13.8188 14.9257 13.8627 15.0317 13.9409 15.1098C14.019 15.1879 14.125 15.2318 14.2355 15.2318H15.0827C15.6341 15.2311 16.1628 15.0117 16.5527 14.6218C16.9426 14.2319 17.162 13.7032 17.1627 13.1518V10.738C17.1628 10.6833 17.152 10.6291 17.1311 10.5785C17.1102 10.528 17.0795 10.482 17.0408 10.4433C17.0021 10.4046 16.9561 10.3739 16.9056 10.353C16.855 10.3321 16.8008 10.3213 16.7461 10.3214Z" fill="#171723"/>
</svg>
