<svg width="20" height="20" viewBox="0 0 20 20" fill="none" xmlns="http://www.w3.org/2000/svg">
<g clip-path="url(#clip0_10317_146999)">
<path d="M19.9608 6.8559C19.8795 6.42932 19.6813 6.03624 19.3901 5.72398C19.0989 5.41172 18.7271 5.19358 18.3195 5.09581C18.1979 5.06386 18.0739 5.04272 17.9488 5.03263C17.9269 4.71729 17.8467 4.4093 17.7125 4.12555C17.4519 3.64467 17.0426 3.26945 16.551 3.06076C16.0594 2.85208 15.5144 2.82219 15.0044 2.97595C14.7235 2.35304 14.2769 1.82669 13.7175 1.45902C13.1581 1.09134 12.5091 0.897702 11.8472 0.900946H11.7316C10.9115 0.943055 10.1343 1.29406 9.54502 1.88838C9.17628 1.78846 8.78816 1.79626 8.42341 1.91093C8.15486 1.33579 7.73542 0.851242 7.21342 0.513149C6.69142 0.175057 6.08813 -0.00281715 5.47309 3.37391e-05C5.46525 3.37391e-05 5.36524 3.39122e-05 5.3574 0.00107753C4.61472 0.0476021 3.9099 0.357693 3.36076 0.879518C2.81162 1.40134 2.45144 2.10328 2.34042 2.868C1.82147 2.95958 1.3439 3.22009 0.976562 3.61198C0.740109 3.86185 0.554179 4.15839 0.429734 4.48413C0.30529 4.80988 0.244851 5.15822 0.251979 5.50863C0.274125 6.20869 0.558268 6.87212 1.04392 7.35771C1.52958 7.84329 2.17839 8.11266 2.85224 8.10849H6.61113L6.61928 8.12276C6.8577 8.56649 7.20666 8.93531 7.62952 9.19049C8.05238 9.44567 8.53353 9.57781 9.02247 9.57302H10.1262L9.69511 10.0011C9.67312 10.0268 9.65279 10.0541 9.63425 10.0826H1.30601C1.24008 10.0826 1.17478 10.096 1.11386 10.1222C1.05293 10.1485 0.997577 10.1869 0.950954 10.2353C0.90433 10.2838 0.867354 10.3413 0.842139 10.4047C0.816923 10.468 0.803964 10.5359 0.804001 10.6044V18.4346H0.753016C0.553304 18.4346 0.361771 18.517 0.220554 18.6638C0.0793356 18.8106 0 19.0097 0 19.2173C0 19.4249 0.0793356 19.624 0.220554 19.7707C0.361771 19.9175 0.553304 20 0.753016 20H14.1416C14.3414 20 14.5329 19.9175 14.6741 19.7707C14.8153 19.624 14.8947 19.4249 14.8947 19.2173C14.8947 19.0097 14.8153 18.8106 14.6741 18.6638C14.5329 18.517 14.3414 18.4346 14.1416 18.4346H14.0975V13.4611C14.2012 13.406 14.2927 13.329 14.3663 13.2351C14.4399 13.1413 14.4939 13.0325 14.525 12.9158L14.6456 12.286L15.2633 12.4796C15.4414 12.5293 15.6303 12.5171 15.8012 12.4448C15.972 12.3725 16.1154 12.244 16.2094 12.0791L16.7781 11.0548C16.8651 10.8871 16.8972 10.6945 16.8694 10.5062C16.8416 10.3179 16.7555 10.1441 16.6242 10.0112L16.1832 9.57297H17.8096C18.1328 9.57142 18.4516 9.49591 18.7435 9.3518C19.0355 9.20769 19.2933 8.99852 19.4986 8.73914C19.704 8.47977 19.8518 8.17657 19.9317 7.85109C20.0116 7.52561 20.0215 7.18583 19.9608 6.8559H19.9608ZM1.256 5.48922C1.25123 5.27632 1.28789 5.06463 1.36378 4.86683C1.43967 4.66903 1.55322 4.4892 1.69763 4.33815C1.84203 4.1871 2.01431 4.06792 2.20412 3.98779C2.39393 3.90765 2.59735 3.8682 2.80219 3.87181C2.93364 3.87177 3.05982 3.81818 3.15368 3.72253C3.24753 3.62688 3.30158 3.49679 3.30421 3.3602C3.30036 2.79953 3.49362 2.25671 3.84768 1.83372C4.20174 1.41073 4.69221 1.1367 5.22695 1.0631C5.76169 0.989512 6.30388 1.12143 6.75164 1.43407C7.1994 1.74671 7.52191 2.21855 7.65857 2.76093C7.67884 2.84249 7.71785 2.91772 7.77224 2.98017C7.82662 3.04262 7.89477 3.09042 7.97084 3.11948C8.04691 3.14855 8.12862 3.15799 8.20897 3.14702C8.28932 3.13605 8.36591 3.10498 8.43218 3.05648C8.55976 2.96204 8.707 2.90026 8.8619 2.87616C8.68856 3.22485 8.56778 3.59915 8.50377 3.98596C7.94247 4.08832 7.42572 4.36971 7.0252 4.79109C6.77443 5.05631 6.57703 5.37082 6.44454 5.71625C6.31204 6.06168 6.24712 6.43109 6.25355 6.8029C6.25879 6.89073 6.26877 6.97818 6.28346 7.06485H2.85224C2.44113 7.07015 2.04426 6.90844 1.74612 6.61416C1.44799 6.31987 1.27213 5.91625 1.256 5.48922V5.48922ZM1.80802 18.4346V11.1261H9.57001L10.1059 12.0923C10.203 12.256 10.3492 12.382 10.5219 12.4511C10.6946 12.5201 10.8843 12.5283 11.0619 12.4745L11.6453 12.289L11.7855 12.9229C11.8326 13.108 11.9371 13.2718 12.0828 13.3889C12.2285 13.5061 12.4073 13.5701 12.5914 13.5711H13.0935V18.4346H1.80802ZM15.4084 11.435L14.9093 11.2801C14.7804 11.246 14.6463 11.2388 14.5147 11.259C14.3831 11.2791 14.2566 11.3261 14.1426 11.3973C13.92 11.5408 13.7613 11.7703 13.7014 12.0353L13.5827 12.5276H12.7277L12.6091 11.9986C12.5432 11.7621 12.3991 11.5575 12.2022 11.4207C12.1789 11.4011 12.154 11.3837 12.1277 11.3688C11.8925 11.2373 11.6168 11.208 11.3609 11.2872L10.9001 11.434L10.4765 10.6717L10.8197 10.3272C10.9211 10.2302 11.0016 10.1121 11.056 9.98056C11.1104 9.84901 11.1375 9.707 11.1354 9.56383C11.137 9.4254 11.1109 9.28815 11.0587 9.16078C11.0066 9.0334 10.9295 8.91868 10.8324 8.8239L10.6921 8.68326L10.69 8.68117L10.4765 8.46723L10.9001 7.70388L11.3698 7.84961C11.4983 7.8883 11.6331 7.89978 11.766 7.88338C11.8989 7.86698 12.0273 7.82304 12.1436 7.75414C12.2599 7.68525 12.3617 7.59281 12.443 7.48229C12.5243 7.37178 12.5834 7.24543 12.6169 7.11073L12.7356 6.61032H13.5827L13.6994 7.10156C13.7534 7.35641 13.9012 7.57917 14.1112 7.72222C14.1369 7.7426 14.1645 7.76035 14.1935 7.77523C14.422 7.90106 14.6886 7.92922 14.9367 7.8537L15.4084 7.71407L15.828 8.47028L15.6229 8.67743L15.6122 8.68819L15.4525 8.84941C15.2743 9.04544 15.1741 9.30434 15.1721 9.57403C15.1746 9.85019 15.2817 10.1142 15.4702 10.3088L15.478 10.317L15.8329 10.6696L15.4084 11.435ZM18.7274 8.07182C18.6167 8.21421 18.477 8.32917 18.3182 8.40833C18.1594 8.48749 17.9857 8.52886 17.8096 8.52943H16.8673C16.8738 8.3741 16.8407 8.21975 16.7713 8.08202L16.2173 7.08432C16.13 6.91129 15.9872 6.77538 15.8138 6.70002C15.6403 6.62467 15.447 6.6146 15.2672 6.67156L14.6701 6.83666L14.523 6.21498C14.4758 6.02974 14.3711 5.86586 14.2253 5.74868C14.0794 5.6315 13.9004 5.56757 13.7161 5.56679H12.5914C12.4057 5.56355 12.2246 5.62741 12.079 5.74747C11.9335 5.86753 11.8325 6.03636 11.7933 6.22516L11.6619 6.85093L11.0452 6.65933C10.867 6.60947 10.678 6.62151 10.507 6.69364C10.3361 6.76576 10.1924 6.89401 10.0981 7.05883L9.53036 8.0841C9.46254 8.22152 9.4313 8.37529 9.43985 8.52948H9.02247C8.70666 8.5295 8.39663 8.44148 8.12468 8.2746C7.85273 8.10771 7.62882 7.86807 7.47628 7.58064C7.44904 7.53568 7.42574 7.48827 7.40666 7.43898C7.40249 7.43 7.40121 7.42064 7.39722 7.41159C7.39232 7.39738 7.38871 7.38324 7.3827 7.36961C7.30425 7.18837 7.26171 6.99256 7.25762 6.79386C7.25281 6.55949 7.29299 6.32648 7.37582 6.10844C7.45864 5.8904 7.58246 5.69171 7.74002 5.52399C7.89928 5.35559 8.08908 5.22169 8.29845 5.13002C8.50781 5.03835 8.73258 4.99075 8.95976 4.98995C9.08864 4.99002 9.2126 4.9385 9.30589 4.84608C9.39919 4.75365 9.45465 4.62743 9.46077 4.49362C9.48272 3.942 9.65512 3.40825 9.95786 2.95462L9.97158 2.93118C10.0314 2.85372 10.0971 2.77627 10.152 2.71202C10.3719 2.4742 10.6349 2.28396 10.9259 2.15225C11.2168 2.02054 11.53 1.94997 11.8473 1.94459C12.3908 1.93932 12.9206 2.12212 13.3532 2.4642C13.7858 2.80628 14.0966 3.28821 14.2367 3.8341C14.2572 3.91611 14.2965 3.99172 14.3513 4.0544C14.4062 4.11708 14.4748 4.16494 14.5514 4.19386C14.6278 4.22352 14.71 4.23309 14.7907 4.22171C14.8715 4.21033 14.9483 4.17835 15.0142 4.12863C15.1611 4.03519 15.3242 3.97291 15.4943 3.94539C15.6645 3.91787 15.8381 3.92566 16.0053 3.9683C16.1725 4.01095 16.3299 4.0876 16.4685 4.19384C16.607 4.30007 16.7239 4.43379 16.8124 4.58726C16.946 4.86716 16.984 5.18592 16.9203 5.49125C16.9021 5.57786 16.9054 5.66787 16.93 5.75277C16.9545 5.83767 16.9995 5.91467 17.0606 5.97648C17.1218 6.0383 17.1971 6.08289 17.2794 6.10605C17.3617 6.12922 17.4484 6.13018 17.5312 6.10886C17.7128 6.05651 17.9048 6.05723 18.0861 6.11095C18.2814 6.15621 18.4623 6.25294 18.6112 6.39185C18.7602 6.53076 18.8723 6.70718 18.9367 6.90413C19.0011 7.10108 19.0157 7.31194 18.979 7.51644C18.9423 7.72093 18.8557 7.91219 18.7273 8.0718L18.7274 8.07182Z" fill="#171723"/>
<path d="M14.2467 8.57923C14.053 8.34174 13.7917 8.17436 13.5005 8.10125C13.2227 8.03606 12.933 8.05158 12.6632 8.14612C12.3949 8.24578 12.1614 8.42641 11.9925 8.66488C11.8234 8.90776 11.7223 9.19453 11.7003 9.49346C11.69 9.77676 11.7533 10.0577 11.8837 10.3067C11.8954 10.3312 11.9484 10.4127 11.9641 10.4351C12.052 10.5681 12.1607 10.6849 12.2857 10.7806C12.432 10.894 12.5972 10.9783 12.773 11.0293C12.8966 11.0681 13.0252 11.087 13.1544 11.0853C13.2226 11.0859 13.2906 11.0787 13.3573 11.0639C13.5469 11.037 13.7294 10.9715 13.8946 10.8713C14.1389 10.7199 14.3347 10.4969 14.4574 10.2303C14.5865 9.96626 14.6351 9.66761 14.5967 9.37417C14.5784 9.16034 14.506 8.95534 14.3868 8.78001C14.3507 8.70574 14.3034 8.63796 14.2467 8.57923V8.57923ZM13.5633 9.75538L13.5554 9.77271C13.5209 9.85143 13.4654 9.91825 13.3956 9.96533C13.3212 10.008 13.2391 10.0341 13.1544 10.0418L13.0475 10.0255C12.9837 10.0068 12.9241 9.97532 12.872 9.93271C12.8346 9.90055 12.8014 9.86356 12.773 9.82264C12.7294 9.74258 12.7051 9.65267 12.7024 9.56069C12.7105 9.45888 12.7458 9.36145 12.8044 9.27941C12.8517 9.21388 12.9155 9.16311 12.9887 9.13266C13.0458 9.11382 13.1053 9.10419 13.1652 9.10411C13.2387 9.10286 13.3112 9.1218 13.3755 9.15903C13.4397 9.19625 13.4933 9.25043 13.5309 9.3161C13.5694 9.36888 13.5931 9.43164 13.5995 9.49751C13.6141 9.58528 13.6014 9.67559 13.5633 9.75534V9.75538Z" fill="#171723"/>
<path d="M18.2514 10.2731C18.1855 10.2731 18.1202 10.2866 18.0593 10.3128C17.9984 10.339 17.943 10.3774 17.8964 10.4259C17.8498 10.4743 17.8128 10.5319 17.7876 10.5952C17.7623 10.6585 17.7494 10.7264 17.7494 10.7949V13.8178C17.7491 14.2317 17.5907 14.6286 17.3091 14.9214C17.0274 15.2141 16.6456 15.3787 16.2473 15.3791H15.2266C15.0935 15.3791 14.9658 15.4341 14.8716 15.5319C14.7775 15.6298 14.7246 15.7625 14.7246 15.9009C14.7246 16.0393 14.7775 16.172 14.8716 16.2699C14.9658 16.3677 15.0935 16.4227 15.2266 16.4227H16.2473C16.9117 16.4218 17.5486 16.1471 18.0184 15.6587C18.4882 15.1704 18.7525 14.5084 18.7534 13.8178V10.7949C18.7535 10.7264 18.7405 10.6585 18.7153 10.5952C18.6901 10.5319 18.6531 10.4743 18.6065 10.4259C18.5599 10.3774 18.5045 10.339 18.4436 10.3128C18.3827 10.2866 18.3174 10.2731 18.2514 10.2731V10.2731Z" fill="#171723"/>
</g>
<defs>
<clipPath id="clip0_10317_146999">
<rect width="20" height="20" fill="white"/>
</clipPath>
</defs>
</svg>
