<svg width="20" height="20" viewBox="0 0 20 20" fill="none" xmlns="http://www.w3.org/2000/svg">
<g clip-path="url(#clip0_10314_146188)">
<g clip-path="url(#clip1_10314_146188)">
<path d="M13.8959 4.06763H2.03596C1.49606 4.06841 0.978521 4.28329 0.596847 4.66514C0.215172 5.04699 0.000529932 5.56464 0 6.10453V17.9635C0.000529932 18.5034 0.215172 19.021 0.596847 19.4028C0.978521 19.7847 1.49606 19.9996 2.03596 20.0004H13.8959C14.4358 19.9996 14.9533 19.7847 15.335 19.4028C15.7167 19.021 15.9313 18.5034 15.9318 17.9635V6.10453C15.9313 5.56464 15.7167 5.04699 15.335 4.66514C14.9533 4.28329 14.4358 4.0684 13.8959 4.06763V4.06763ZM14.9149 17.9635C14.9147 18.2337 14.8073 18.4929 14.6163 18.6841C14.4252 18.8753 14.1662 18.983 13.8959 18.9834H2.03596C1.76567 18.983 1.50659 18.8753 1.31556 18.6841C1.12453 18.4929 1.01714 18.2337 1.01696 17.9635V6.10453C1.01714 5.83424 1.12452 5.57506 1.31556 5.38385C1.50659 5.19264 1.76567 5.08502 2.03596 5.08459H13.8959C14.1662 5.08502 14.4252 5.19264 14.6163 5.38385C14.8073 5.57506 14.9147 5.83424 14.9149 6.10453V17.9635Z" fill="#171723"/>
<path d="M15.4238 2.03669e-05C15.357 -1.84025e-05 15.2908 0.0131073 15.2291 0.0386471C15.1674 0.0641869 15.1113 0.10164 15.0641 0.148865C15.0169 0.196089 14.9794 0.252159 14.9539 0.313868C14.9284 0.375577 14.9152 0.441716 14.9153 0.508501V1.08449H1.01745V0.508481C1.01745 0.373623 0.963878 0.244289 0.86852 0.148931C0.773161 0.0535721 0.643827 0 0.508969 0C0.374112 0 0.244778 0.0535721 0.149419 0.148931C0.0540603 0.244289 0.000488281 0.373623 0.000488281 0.508481V2.67749C0.000488281 2.81235 0.0540603 2.94168 0.149419 3.03704C0.244778 3.1324 0.374112 3.18597 0.508969 3.18597C0.643827 3.18597 0.773161 3.1324 0.86852 3.03704C0.963878 2.94168 1.01745 2.81235 1.01745 2.67749V2.10145H14.9153V2.67747C14.9153 2.81233 14.9688 2.94166 15.0642 3.03702C15.1595 3.13238 15.2889 3.18595 15.4237 3.18595C15.5586 3.18595 15.6879 3.13238 15.7833 3.03702C15.8786 2.94166 15.9322 2.81233 15.9322 2.67747V0.508501C15.9323 0.441718 15.9191 0.375581 15.8936 0.313873C15.8681 0.252165 15.8306 0.196096 15.7834 0.148872C15.7362 0.101648 15.6801 0.0641942 15.6184 0.0386532C15.5567 0.0131121 15.4905 -1.57286e-05 15.4238 2.03669e-05Z" fill="#171723"/>
<path d="M19.4914 18.9834H18.9173V5.08459H19.4914C19.6262 5.08459 19.7556 5.03102 19.8509 4.93566C19.9463 4.8403 19.9999 4.71097 19.9999 4.57611C19.9999 4.44125 19.9463 4.31192 19.8509 4.21656C19.7556 4.1212 19.6262 4.06763 19.4914 4.06763H17.3264C17.1915 4.06763 17.0622 4.1212 16.9668 4.21656C16.8714 4.31192 16.8179 4.44125 16.8179 4.57611C16.8179 4.71097 16.8714 4.8403 16.9668 4.93566C17.0622 5.03102 17.1915 5.08459 17.3264 5.08459H17.9004V18.9834H17.3264C17.1915 18.9834 17.0622 19.037 16.9668 19.1323C16.8714 19.2277 16.8179 19.357 16.8179 19.4919C16.8179 19.6267 16.8714 19.7561 16.9668 19.8514C17.0622 19.9468 17.1915 20.0004 17.3264 20.0004H19.4914C19.6262 20.0004 19.7556 19.9468 19.8509 19.8514C19.9463 19.7561 19.9999 19.6267 19.9999 19.4919C19.9999 19.357 19.9463 19.2277 19.8509 19.1323C19.7556 19.037 19.6262 18.9834 19.4914 18.9834V18.9834Z" fill="#171723"/>
</g>
</g>
<defs>
<clipPath id="clip0_10314_146188">
<rect width="20" height="20" fill="white"/>
</clipPath>
<clipPath id="clip1_10314_146188">
<rect width="20" height="20" fill="white"/>
</clipPath>
</defs>
</svg>
