<svg width="20" height="20" viewBox="0 0 20 20" fill="none" xmlns="http://www.w3.org/2000/svg">
<g clip-path="url(#clip0_10314_145155)">
<g clip-path="url(#clip1_10314_145155)">
<path d="M9.99983 2.74351C10.0676 2.74355 10.1347 2.73042 10.1973 2.70488C10.2599 2.67934 10.3168 2.64189 10.3647 2.59466C10.4127 2.54744 10.4507 2.49137 10.4766 2.42966C10.5025 2.36795 10.5158 2.30181 10.5158 2.23503V0.508479C10.5158 0.373622 10.4614 0.244288 10.3646 0.14893C10.2679 0.0535716 10.1367 0 9.99983 0C9.86299 0 9.73176 0.0535716 9.635 0.14893C9.53824 0.244288 9.48389 0.373622 9.48389 0.508479V2.23503C9.48385 2.30181 9.49717 2.36795 9.52308 2.42966C9.549 2.49137 9.587 2.54744 9.63492 2.59466C9.68283 2.64189 9.73973 2.67934 9.80234 2.70488C9.86495 2.73042 9.93206 2.74355 9.99983 2.74351V2.74351Z" fill="#171723"/>
<path d="M4.54024 4.37815C4.58377 4.42928 4.6371 4.47145 4.69718 4.50226C4.75725 4.53308 4.8229 4.55193 4.89036 4.55774C4.95783 4.56355 5.0258 4.5562 5.09038 4.53613C5.15497 4.51605 5.21491 4.48363 5.26679 4.44072C5.31866 4.39781 5.36145 4.34526 5.39272 4.28605C5.42398 4.22684 5.44311 4.16215 5.449 4.09566C5.4549 4.02917 5.44745 3.96218 5.42708 3.89853C5.4067 3.83488 5.37381 3.7758 5.33027 3.72468L4.20467 2.40234C4.16113 2.35121 4.1078 2.30904 4.04773 2.27823C3.98765 2.24741 3.92201 2.22856 3.85454 2.22275C3.78708 2.21694 3.71911 2.22429 3.65452 2.24437C3.58994 2.26444 3.52999 2.29686 3.47812 2.33977C3.42625 2.38268 3.38345 2.43523 3.35219 2.49444C3.32092 2.55365 3.3018 2.61834 3.2959 2.68483C3.29001 2.75132 3.29746 2.81831 3.31783 2.88196C3.3382 2.94561 3.3711 3.00469 3.41463 3.05581L4.54024 4.37815Z" fill="#171723"/>
<path d="M2.24142 9.16006C2.37033 9.15979 2.49447 9.11196 2.58939 9.02598C2.68431 8.94001 2.74312 8.82212 2.75424 8.69554C2.76537 8.56896 2.728 8.44287 2.6495 8.34209C2.57099 8.24131 2.45705 8.17315 2.3301 8.15104L0.604932 7.85162C0.470235 7.82818 0.331606 7.85843 0.219542 7.93572C0.107478 8.01301 0.031158 8.13101 0.00737193 8.26376C-0.0164142 8.39651 0.0142818 8.53314 0.0927075 8.64358C0.171133 8.75402 0.290864 8.82924 0.425561 8.85268L2.15073 9.15212C2.18065 9.15747 2.21101 9.16012 2.24142 9.16006V9.16006Z" fill="#171723"/>
<path d="M2.91767 13.4434L1.40109 14.3064C1.34217 14.3397 1.29048 14.384 1.24901 14.437C1.20753 14.49 1.17708 14.5505 1.1594 14.6151C1.14171 14.6797 1.13715 14.7471 1.14597 14.8135C1.15479 14.8798 1.17681 14.9438 1.21078 15.0017C1.24475 15.0596 1.28999 15.1104 1.34391 15.151C1.39783 15.1917 1.45937 15.2214 1.52499 15.2386C1.59061 15.2558 1.65902 15.26 1.7263 15.251C1.79357 15.242 1.85839 15.2201 1.91703 15.1863L3.43361 14.3233C3.55194 14.2559 3.63824 14.1449 3.67354 14.0147C3.70884 13.8846 3.69025 13.7459 3.62185 13.6293C3.55345 13.5126 3.44085 13.4275 3.3088 13.3927C3.17675 13.3578 3.03606 13.3761 2.91767 13.4434V13.4434Z" fill="#171723"/>
<path d="M18.5985 14.3065L17.082 13.4434C16.9636 13.3761 16.8229 13.3578 16.6908 13.3927C16.5588 13.4275 16.4462 13.5126 16.3778 13.6293C16.3094 13.7459 16.2908 13.8846 16.3261 14.0147C16.3614 14.1449 16.4477 14.2559 16.566 14.3233L18.0826 15.1864C18.2009 15.2531 18.3413 15.2709 18.473 15.2359C18.6046 15.2009 18.7169 15.116 18.7851 14.9996C18.8533 14.8832 18.872 14.745 18.837 14.6151C18.8021 14.4852 18.7163 14.3742 18.5985 14.3065V14.3065Z" fill="#171723"/>
<path d="M19.3944 7.85162L17.6692 8.15104C17.5423 8.17315 17.4283 8.24131 17.3498 8.34209C17.2713 8.44287 17.234 8.56896 17.2451 8.69554C17.2562 8.82212 17.315 8.94001 17.4099 9.02598C17.5049 9.11196 17.629 9.15979 17.7579 9.16006C17.7883 9.16013 17.8187 9.15747 17.8486 9.15212L19.5738 8.85268C19.7085 8.82924 19.8282 8.75402 19.9066 8.64358C19.9851 8.53314 20.0158 8.39651 19.992 8.26376C19.9682 8.13101 19.8919 8.01301 19.7798 7.93572C19.6677 7.85843 19.5291 7.82818 19.3944 7.85162V7.85162Z" fill="#171723"/>
<path d="M15.0643 4.55989C15.1397 4.56006 15.2141 4.54387 15.2824 4.51246C15.3507 4.48104 15.4111 4.43519 15.4593 4.37815L16.5849 3.05581C16.6285 3.00469 16.6614 2.94561 16.6817 2.88196C16.7021 2.81831 16.7096 2.75132 16.7037 2.68483C16.6978 2.61834 16.6786 2.55365 16.6474 2.49444C16.6161 2.43523 16.5733 2.38268 16.5214 2.33977C16.4696 2.29686 16.4096 2.26444 16.345 2.24437C16.2805 2.22429 16.2125 2.21694 16.145 2.22275C16.0776 2.22856 16.0119 2.24741 15.9518 2.27822C15.8918 2.30904 15.8384 2.35121 15.7949 2.40233L14.6693 3.72467C14.6061 3.79877 14.5657 3.88912 14.5528 3.98509C14.5399 4.08106 14.5551 4.17866 14.5966 4.26641C14.6381 4.35415 14.7042 4.42839 14.787 4.48038C14.8699 4.53237 14.9661 4.55996 15.0643 4.55989V4.55989Z" fill="#171723"/>
<path d="M10.751 3.79127C10.6391 3.77687 10.5283 3.76644 10.4164 3.75899C9.24649 3.67949 8.07836 3.93704 7.05435 4.50028C6.03034 5.06352 5.19465 5.90812 4.6491 6.93119C4.10355 7.95425 3.87169 9.1116 3.98178 10.2622C4.09187 11.4129 4.53914 12.5071 5.26911 13.4117C5.27973 13.4252 5.29117 13.4382 5.30337 13.4504L5.46057 13.6371C5.59809 13.7912 5.72469 13.9545 5.83946 14.1257C6.27165 14.7752 6.5702 15.502 6.71817 16.2649C6.78208 16.5995 6.96256 16.9016 7.22842 17.119C7.49427 17.3364 7.82883 17.4555 8.17429 17.4556H11.8252C12.1703 17.455 12.5045 17.3359 12.7703 17.1188C13.036 16.9017 13.2167 16.6001 13.2813 16.2659C13.4314 15.4969 13.7337 14.7646 14.1711 14.1108C14.288 13.9395 14.4159 13.7756 14.554 13.6202C14.5619 13.6124 14.5693 13.6041 14.5762 13.5954C14.6195 13.5457 14.6608 13.4961 14.7001 13.4474C14.7112 13.4365 14.7213 13.4246 14.7313 13.4127C15.3996 12.5847 15.8322 11.5964 15.9845 10.5491C16.1369 9.50187 16.0036 8.43353 15.5983 7.45388C15.193 6.47423 14.5304 5.61859 13.6785 4.9749C12.8266 4.33121 11.8161 3.92267 10.751 3.79128V3.79127Z" fill="#171723"/>
<path d="M12.2149 18.1091H7.78108C7.64424 18.1091 7.51301 18.1627 7.41625 18.2581C7.31949 18.3534 7.26514 18.4828 7.26514 18.6176C7.26514 18.7525 7.31949 18.8818 7.41625 18.9772C7.51301 19.0725 7.64424 19.1261 7.78108 19.1261H8.69532C8.79824 19.3838 8.97748 19.6049 9.20971 19.7608C9.44194 19.9167 9.71641 20 9.99739 20C10.2784 20 10.5528 19.9167 10.7851 19.7608C11.0173 19.6049 11.1965 19.3838 11.2995 19.1261H12.2149C12.3517 19.1261 12.4829 19.0725 12.5797 18.9772C12.6765 18.8818 12.7308 18.7525 12.7308 18.6176C12.7308 18.4828 12.6765 18.3534 12.5797 18.2581C12.4829 18.1627 12.3517 18.1091 12.2149 18.1091H12.2149Z" fill="#171723"/>
</g>
</g>
<defs>
<clipPath id="clip0_10314_145155">
<rect width="20" height="20" fill="white"/>
</clipPath>
<clipPath id="clip1_10314_145155">
<rect width="20" height="20" fill="white"/>
</clipPath>
</defs>
</svg>
