<svg width="20" height="20" viewBox="0 0 20 20" fill="none" xmlns="http://www.w3.org/2000/svg">
<g clip-path="url(#clip0_10314_145597)">
<g clip-path="url(#clip1_10314_145597)">
<path d="M19.7021 1.28017C19.6134 1.23848 19.5148 1.22398 19.4182 1.23844C19.3217 1.25289 19.2312 1.29568 19.1578 1.36164L15.1894 4.90375C14.9985 5.07249 14.7938 5.22423 14.5777 5.35732V4.94524C14.5672 4.75153 14.5961 4.55769 14.6625 4.37604C14.7289 4.19438 14.8315 4.02888 14.9636 3.89004C15.0958 3.75119 15.2546 3.64205 15.4301 3.56953C15.6056 3.49701 15.7938 3.4627 15.9829 3.46877C16.0496 3.46561 16.115 3.449 16.1754 3.41989C16.2357 3.39079 16.2899 3.34976 16.3349 3.29915C16.3798 3.24855 16.4145 3.18936 16.4371 3.12498C16.4597 3.06059 16.4697 2.99227 16.4666 2.92392C16.4649 2.85508 16.4497 2.78729 16.4218 2.72465C16.3939 2.66201 16.3539 2.60582 16.3043 2.55946C16.2546 2.51311 16.1963 2.47756 16.1329 2.45495C16.0695 2.43235 16.0022 2.42315 15.9353 2.42793C15.4506 2.43914 14.9793 2.5932 14.5776 2.87172V0.521437C14.5776 0.383143 14.5241 0.250514 14.4287 0.152725C14.3334 0.0549368 14.204 0 14.0692 0C13.9343 0 13.805 0.0549368 13.7096 0.152725C13.6143 0.250514 13.5607 0.383143 13.5607 0.521437V2.91348C13.166 2.62749 12.7014 2.45974 12.219 2.42896C12.0853 2.42047 11.9536 2.46534 11.8515 2.55417C11.7493 2.643 11.6846 2.76891 11.6708 2.90555C11.6653 2.97377 11.673 3.04243 11.6933 3.10762C11.7137 3.17281 11.7464 3.23324 11.7896 3.28545C11.8327 3.33766 11.8855 3.38064 11.9449 3.41191C12.0043 3.44319 12.0691 3.46215 12.1356 3.46772C12.3286 3.46914 12.5194 3.51048 12.6966 3.58925C12.8737 3.66802 13.0335 3.78261 13.1664 3.92617C13.2994 4.06974 13.4028 4.23932 13.4703 4.42478C13.5379 4.61024 13.5683 4.80777 13.5598 5.00556L13.5606 5.01047C13.5608 5.01777 13.5595 5.02695 13.5598 5.03409L13.5608 5.03835V5.80837C13.1475 5.94261 12.7171 6.01356 12.2837 6.01892H11.0999C10.1516 6.01928 9.2198 6.27342 8.39664 6.75624L6.44223 7.90296V7.69399C6.43172 7.50028 6.4606 7.30644 6.52704 7.12478C6.59348 6.94313 6.69602 6.77762 6.82817 6.63878C6.96031 6.49994 7.11916 6.39079 7.29463 6.31827C7.47011 6.24575 7.65837 6.21144 7.84746 6.21752C7.91411 6.21435 7.97951 6.19774 8.0399 6.16863C8.10029 6.13953 8.15449 6.0985 8.19941 6.0479C8.24433 5.99729 8.27908 5.93811 8.30168 5.87372C8.32427 5.80933 8.33427 5.74101 8.3311 5.67266C8.32997 5.60366 8.31509 5.53562 8.28736 5.47274C8.25964 5.40985 8.21967 5.35345 8.16991 5.30699C8.12014 5.26053 8.06164 5.22501 7.99799 5.2026C7.93434 5.18019 7.86689 5.17137 7.7998 5.17668C7.3151 5.18788 6.8438 5.34195 6.44219 5.62046V3.27527C6.44219 3.13698 6.38862 3.00435 6.29327 2.90656C6.19791 2.80877 6.06858 2.75383 5.93373 2.75383C5.79887 2.75383 5.66954 2.80877 5.57419 2.90656C5.47883 3.00435 5.42526 3.13698 5.42526 3.27527V5.66222C5.0305 5.37624 4.56597 5.20849 4.08358 5.1777C3.95001 5.16976 3.81858 5.21482 3.71653 5.30355C3.61447 5.39227 3.54961 5.51786 3.53539 5.65429C3.52986 5.72251 3.5375 5.79118 3.55787 5.85636C3.57824 5.92155 3.61094 5.98198 3.6541 6.03419C3.69727 6.08641 3.75005 6.12938 3.80942 6.16066C3.8688 6.19193 3.9336 6.2109 4.00013 6.21647C4.19319 6.21789 4.38399 6.25922 4.56111 6.33799C4.73824 6.41677 4.89805 6.53136 5.031 6.67493C5.16395 6.81849 5.26731 6.98807 5.33488 7.17354C5.40246 7.359 5.43287 7.55653 5.4243 7.75433L5.42517 7.75923C5.42536 7.76653 5.42405 7.77572 5.4243 7.78285L5.42532 7.78712V8.40442C4.95305 8.57844 4.45537 8.6689 3.95355 8.67194H0.508466C0.441683 8.6719 0.375547 8.68536 0.31384 8.71156C0.252133 8.73775 0.196066 8.77615 0.148843 8.82458C0.10162 8.87301 0.0641681 8.93051 0.0386286 8.99379C0.013089 9.05707 -3.73502e-05 9.12489 7.98238e-08 9.19338V19.4786C-3.73502e-05 19.5471 0.013089 19.6149 0.0386286 19.6782C0.0641681 19.7414 0.10162 19.7989 0.148843 19.8474C0.196066 19.8958 0.252133 19.9342 0.31384 19.9604C0.375547 19.9866 0.441683 20 0.508466 20H19.4915C19.5583 20 19.6245 19.9866 19.6862 19.9604C19.7479 19.9342 19.8039 19.8958 19.8512 19.8474C19.8984 19.7989 19.9358 19.7414 19.9614 19.6782C19.9869 19.6149 20 19.5471 20 19.4786V1.75475C20.0001 1.65464 19.9721 1.55662 19.9192 1.47244C19.8664 1.38827 19.791 1.32151 19.7021 1.28017V1.28017ZM3.95355 9.71482C4.70361 9.71251 5.44512 9.55123 6.13153 9.24111L6.13222 9.24074C6.3116 9.16282 6.4867 9.07493 6.65675 8.97747L8.90112 7.66064C9.5708 7.2684 10.3286 7.062 11.0998 7.0618H12.2836C12.9557 7.06014 13.6216 6.93057 14.2475 6.6797C14.2639 6.67275 14.2799 6.66489 14.2954 6.65614C14.8651 6.42643 15.393 6.09979 15.8568 5.68997L18.9831 2.89947V4.3662L15.1894 7.75229C14.3834 8.47062 13.3515 8.86627 12.2836 8.86646H11.0999C10.1515 8.86744 9.21981 9.12192 8.39664 9.60481L6.15227 10.9216C5.48264 11.314 4.72478 11.5204 3.95356 11.5205H1.01693V9.71482H3.95355ZM1.01693 18.9571V12.5634H3.95355C4.90188 12.5634 5.83375 12.3092 6.65675 11.8261L8.90112 10.5092C9.57087 10.117 10.3286 9.91031 11.0998 9.90936H12.2836C13.5969 9.90925 14.8659 9.42242 15.8568 8.53856L18.9831 5.74809V18.9571H1.01693Z" fill="#171723"/>
<path d="M5.0047 12.9075C4.90349 12.9284 4.81261 12.9837 4.74736 13.0638C4.68211 13.144 4.64648 13.2442 4.64648 13.3475C4.64648 13.4509 4.68211 13.5511 4.74736 13.6312C4.81261 13.7114 4.90349 13.7666 5.0047 13.7875C5.1059 13.7666 5.19678 13.7114 5.26203 13.6312C5.32728 13.5511 5.36291 13.4509 5.36291 13.3475C5.36291 13.2442 5.32728 13.144 5.26203 13.0638C5.19678 12.9837 5.1059 12.9284 5.0047 12.9075V12.9075Z" fill="#171723"/>
<path d="M8.3011 13.3477C8.49894 13.3477 8.65932 13.1506 8.65932 12.9076C8.65932 12.6646 8.49894 12.4675 8.3011 12.4675C8.10325 12.4675 7.94287 12.6646 7.94287 12.9076C7.94287 13.1506 8.10325 13.3477 8.3011 13.3477Z" fill="#171723"/>
<path d="M12.2925 11.2109C12.2016 11.1921 12.1072 11.2018 12.0221 11.2388C11.937 11.2759 11.8654 11.3383 11.8173 11.4176C11.7691 11.4969 11.7466 11.5892 11.753 11.6818C11.7594 11.7743 11.7942 11.8627 11.8528 11.9346C11.9114 12.0066 11.9908 12.0586 12.0802 12.0837C12.1695 12.1087 12.2644 12.1054 12.3519 12.0743C12.4393 12.0433 12.515 11.9859 12.5685 11.9101C12.622 11.8342 12.6507 11.7437 12.6507 11.6509C12.6604 11.5453 12.6284 11.4401 12.5614 11.3578C12.4944 11.2755 12.3979 11.2228 12.2925 11.2109V11.2109Z" fill="#171723"/>
<path d="M14.3608 12.3285C14.27 12.3097 14.1755 12.3195 14.0904 12.3565C14.0053 12.3936 13.9338 12.456 13.8856 12.5353C13.8374 12.6146 13.815 12.7069 13.8214 12.7995C13.8277 12.8921 13.8626 12.9804 13.9212 13.0523C13.9798 13.1243 14.0592 13.1764 14.1486 13.2014C14.2379 13.2264 14.3328 13.2231 14.4203 13.192C14.5077 13.161 14.5834 13.1036 14.6369 13.0277C14.6904 12.9519 14.7191 12.8614 14.7191 12.7686C14.7288 12.663 14.6967 12.5578 14.6298 12.4755C14.5628 12.3932 14.4662 12.3405 14.3608 12.3285V12.3285Z" fill="#171723"/>
<path d="M15.9164 9.61309C15.8256 9.59428 15.7311 9.60406 15.646 9.64108C15.561 9.6781 15.4894 9.74055 15.4413 9.81986C15.3931 9.89916 15.3707 9.99143 15.377 10.084C15.3834 10.1766 15.4183 10.2649 15.4769 10.3368C15.5354 10.4088 15.6149 10.4609 15.7042 10.4859C15.7936 10.5109 15.8885 10.5076 15.9759 10.4765C16.0633 10.4454 16.139 10.3881 16.1925 10.3122C16.246 10.2364 16.2747 10.1459 16.2747 10.0531C16.2844 9.94751 16.2523 9.84228 16.1854 9.76001C16.1184 9.67775 16.0218 9.625 15.9164 9.61309Z" fill="#171723"/>
<path d="M15.7529 15.2465C15.6621 15.2277 15.5676 15.2375 15.4825 15.2745C15.3974 15.3115 15.3259 15.374 15.2777 15.4533C15.2295 15.5326 15.2071 15.6249 15.2135 15.7174C15.2198 15.81 15.2547 15.8984 15.3133 15.9703C15.3719 16.0423 15.4513 16.0943 15.5407 16.1193C15.63 16.1444 15.7249 16.1411 15.8124 16.11C15.8998 16.0789 15.9755 16.0215 16.029 15.9457C16.0825 15.8699 16.1112 15.7794 16.1112 15.6866C16.1209 15.5809 16.0888 15.4757 16.0218 15.3935C15.9549 15.3112 15.8583 15.2584 15.7529 15.2465Z" fill="#171723"/>
<path d="M10.7675 14.3665C10.6766 14.3477 10.5822 14.3575 10.4971 14.3945C10.412 14.4315 10.3405 14.494 10.2923 14.5733C10.2442 14.6526 10.2217 14.7449 10.2281 14.8374C10.2345 14.93 10.2694 15.0183 10.3279 15.0903C10.3865 15.1622 10.4659 15.2143 10.5553 15.2393C10.6446 15.2643 10.7395 15.261 10.827 15.2299C10.9144 15.1989 10.99 15.1415 11.0435 15.0657C11.0971 14.9899 11.1258 14.8994 11.1258 14.8066C11.1355 14.7009 11.1034 14.5957 11.0364 14.5134C10.9695 14.4312 10.8729 14.3784 10.7675 14.3665V14.3665Z" fill="#171723"/>
<path d="M3.93 15.8256C4.12784 15.8256 4.28823 15.6285 4.28823 15.3855C4.28823 15.1425 4.12784 14.9454 3.93 14.9454C3.73216 14.9454 3.57178 15.1425 3.57178 15.3855C3.57178 15.6285 3.73216 15.8256 3.93 15.8256Z" fill="#171723"/>
<path d="M6.96028 16.2656C7.15812 16.2656 7.3185 16.0686 7.3185 15.8256C7.3185 15.5825 7.15812 15.3855 6.96028 15.3855C6.76243 15.3855 6.60205 15.5825 6.60205 15.8256C6.60205 16.0686 6.76243 16.2656 6.96028 16.2656Z" fill="#171723"/>
</g>
</g>
<defs>
<clipPath id="clip0_10314_145597">
<rect width="20" height="20" fill="white"/>
</clipPath>
<clipPath id="clip1_10314_145597">
<rect width="20" height="20" fill="white"/>
</clipPath>
</defs>
</svg>
