<svg width="20" height="20" viewBox="0 0 20 20" fill="none" xmlns="http://www.w3.org/2000/svg">
<g clip-path="url(#clip0_5313_35165)">
<g clip-path="url(#clip1_5313_35165)">
<path d="M13.3895 3.03093e-05C11.6369 0.00205712 9.95664 0.699178 8.71735 1.93846C7.47807 3.17775 6.78094 4.858 6.77892 6.61061C6.77892 6.67151 6.78636 6.73054 6.78807 6.79106C6.72873 6.78964 6.66945 6.77846 6.61009 6.77846C5.30264 6.77846 4.02456 7.16616 2.93745 7.89254C1.85035 8.61892 1.00305 9.65135 0.502715 10.8593C0.00237598 12.0672 -0.128536 13.3964 0.126535 14.6787C0.381606 15.961 1.0112 17.1389 1.93571 18.0634C2.86021 18.9879 4.03811 19.6175 5.32043 19.8726C6.60276 20.1277 7.93193 19.9968 9.13985 19.4964C10.3478 18.9961 11.3802 18.1488 12.1066 17.0617C12.833 15.9746 13.2207 14.6965 13.2207 13.389C13.2207 13.3302 13.2096 13.271 13.2082 13.212C13.269 13.2137 13.3283 13.2212 13.3895 13.2212C15.1428 13.2212 16.8242 12.5247 18.0639 11.285C19.3036 10.0452 20.0001 8.36382 20.0001 6.61058C20.0001 4.85735 19.3036 3.17592 18.0639 1.93619C16.8242 0.69647 15.1428 0 13.3895 0L13.3895 3.03093e-05ZM12.2037 13.389C12.2037 14.4953 11.8756 15.5768 11.261 16.4966C10.6463 17.4165 9.77275 18.1334 8.75066 18.5568C7.72857 18.9801 6.60389 19.0909 5.51884 18.8751C4.4338 18.6593 3.43712 18.1265 2.65484 17.3442C1.87257 16.562 1.33983 15.5653 1.12401 14.4802C0.908177 13.3952 1.01895 12.2705 1.44231 11.2484C1.86568 10.2263 2.58262 9.35275 3.50247 8.73812C4.42233 8.12349 5.50379 7.79543 6.61009 7.79543C6.70506 7.79543 6.7996 7.80967 6.89415 7.81449C7.10618 8.95791 7.61728 10.0248 8.37546 10.9066L6.60861 12.6734L4.76178 10.8266C4.6661 10.7329 4.53729 10.6807 4.40333 10.6813C4.26937 10.682 4.14109 10.7355 4.04636 10.8303C3.95164 10.925 3.89812 11.0533 3.89745 11.1872C3.89677 11.3212 3.94899 11.45 4.04275 11.5457L5.88952 13.3925L4.04272 15.2393C3.99472 15.2864 3.95652 15.3425 3.93034 15.4043C3.90415 15.4662 3.89049 15.5327 3.89015 15.5999C3.88981 15.6671 3.9028 15.7337 3.92836 15.7959C3.95392 15.858 3.99155 15.9145 4.03907 15.962C4.08659 16.0095 4.14306 16.0472 4.20521 16.0727C4.26736 16.0983 4.33397 16.1113 4.40117 16.1109C4.46837 16.1106 4.53484 16.0969 4.59673 16.0707C4.65862 16.0446 4.71471 16.0064 4.76175 15.9584L6.60856 14.1115L8.45536 15.9584C8.55104 16.0521 8.67985 16.1043 8.81381 16.1037C8.94777 16.103 9.07605 16.0495 9.17078 15.9547C9.2655 15.86 9.31902 15.7317 9.31969 15.5978C9.32037 15.4638 9.26815 15.335 9.17439 15.2393L7.32765 13.3925L9.09456 11.6256C9.97588 12.3831 11.042 12.8938 12.1846 13.1059C12.1893 13.2003 12.2036 13.2949 12.2036 13.389L12.2037 13.389ZM13.3895 12.2042C13.1934 12.204 12.9975 12.1935 12.8025 12.1728C12.7734 12.1655 12.7436 12.1609 12.7136 12.1592C11.4712 12.0061 10.3159 11.4412 9.43216 10.5546C8.54841 9.66799 7.98718 8.51088 7.83808 7.26798C7.83617 7.24449 7.8326 7.22118 7.8274 7.1982C7.7086 6.07313 7.93378 4.93847 8.47319 3.94402C9.0126 2.94957 9.8409 2.14206 10.8487 1.6281C11.8566 1.11414 12.9966 0.917885 14.1183 1.06524C15.24 1.21259 16.2906 1.69663 17.1315 2.45346C17.9724 3.21028 18.5641 4.20432 18.8283 5.30435C19.0926 6.40438 19.0171 7.55869 18.6117 8.61491C18.2064 9.67113 17.4903 10.5796 16.5579 11.2204C15.6256 11.8612 14.5208 12.2042 13.3895 12.2042V12.2042Z" fill="#171723"/>
<path d="M15.7043 4.89643L13.1657 7.6217L11.6263 6.2531C11.5765 6.20812 11.5182 6.17344 11.4549 6.15108C11.3916 6.12872 11.3244 6.11912 11.2574 6.12283C11.1904 6.12654 11.1247 6.14349 11.0643 6.17269C11.0038 6.2019 10.9497 6.24279 10.9051 6.29301C10.8605 6.34322 10.8264 6.40176 10.8045 6.46526C10.7827 6.52876 10.7736 6.59595 10.7779 6.66296C10.7821 6.72997 10.7996 6.79548 10.8293 6.8557C10.859 6.91592 10.9004 6.96966 10.9509 7.01383L12.8618 8.71216C12.9612 8.80025 13.0911 8.84602 13.2237 8.83971C13.3564 8.8334 13.4813 8.77551 13.5719 8.67839L16.4492 5.58962C16.4949 5.54075 16.5305 5.48333 16.5541 5.42066C16.5776 5.35799 16.5885 5.2913 16.5862 5.2244C16.5839 5.15751 16.5684 5.09172 16.5406 5.03082C16.5128 4.96992 16.4733 4.9151 16.4243 4.86949C16.3753 4.82389 16.3178 4.78841 16.2551 4.76507C16.1923 4.74174 16.1256 4.73101 16.0587 4.73351C15.9918 4.73601 15.9261 4.75168 15.8653 4.77963C15.8044 4.80758 15.7497 4.84725 15.7043 4.89638V4.89643Z" fill="#171723"/>
</g>
</g>
<defs>
<clipPath id="clip0_5313_35165">
<rect width="20" height="20" fill="white"/>
</clipPath>
<clipPath id="clip1_5313_35165">
<rect width="20" height="20" fill="white"/>
</clipPath>
</defs>
</svg>
