<svg width="20" height="20" viewBox="0 0 20 20" fill="none" xmlns="http://www.w3.org/2000/svg">
<g clip-path="url(#clip0_10579_132598)">
<path d="M17.5932 17.1864H2.81357V2.40678C2.81357 2.18194 2.63123 2 2.40678 2C2.18194 2 2 2.18194 2 2.40678V17.5932C2 17.8181 2.18194 18 2.40678 18H17.5932C17.8181 18 18 17.8181 18 17.5932C18 17.3688 17.8181 17.1864 17.5932 17.1864Z" fill="#171723"/>
<path d="M3.98784 14.4239C4.09192 14.4239 4.196 14.3842 4.27545 14.3048L7.81097 10.7693L9.89096 12.8564C9.96723 12.9327 10.0705 12.976 10.1786 12.976C10.2866 12.976 10.3903 12.9331 10.4666 12.8568L16.3622 6.96123V8.18396C16.3622 8.40881 16.5441 8.59075 16.7689 8.59075C16.9934 8.59075 17.1757 8.40881 17.1757 8.18396V5.97923C17.1757 5.90415 17.1499 5.83781 17.1145 5.77743C17.1058 5.76273 17.0975 5.75042 17.0871 5.73691C17.0438 5.68011 16.9918 5.63164 16.9255 5.60384L16.9247 5.60344C16.9231 5.60304 16.9203 5.60304 16.9203 5.60304C16.8734 5.58397 16.8226 5.57245 16.7689 5.57245H14.5642C14.3394 5.57245 14.1574 5.75479 14.1574 5.97923C14.1574 6.20408 14.3394 6.38601 14.5642 6.38601H15.7869L10.1794 11.9932L8.09977 9.90644C8.02349 9.82977 7.91981 9.78687 7.81176 9.78687C7.73072 9.79005 7.60042 9.82938 7.52376 9.90604L3.70023 13.7295C3.54133 13.8884 3.54133 14.1463 3.70023 14.3048C3.77968 14.3842 3.88376 14.4239 3.98784 14.4239Z" fill="#171723"/>
</g>
<defs>
<clipPath id="clip0_10579_132598">
<rect width="16" height="16" fill="white" transform="translate(2 2)"/>
</clipPath>
</defs>
</svg>
