<svg width="20" height="20" viewBox="0 0 20 20" fill="none" xmlns="http://www.w3.org/2000/svg">
<g clip-path="url(#clip0_5313_35220)">
<g clip-path="url(#clip1_5313_35220)">
<path d="M18.9831 14.2378H15.254V10.5085C15.2538 10.2388 15.1466 9.98026 14.9559 9.78958C14.7653 9.59889 14.5067 9.49169 14.237 9.49151H10.509V5.76223C10.5088 5.49256 10.4016 5.234 10.2109 5.04332C10.0202 4.85263 9.76169 4.74543 9.49204 4.74525H5.76295V1.01698C5.76277 0.747319 5.65557 0.488752 5.4649 0.29807C5.27423 0.107388 5.01567 0.000183185 4.74602 0H1.01693C0.747281 0.000183185 0.488727 0.107388 0.298055 0.29807C0.107383 0.488752 0.000183176 0.747319 0 1.01698V18.983C0.000183176 19.2527 0.107383 19.5112 0.298055 19.7019C0.488727 19.8926 0.747281 19.9998 1.01693 20H18.9831C19.2527 19.9998 19.5113 19.8926 19.7019 19.7019C19.8926 19.5112 19.9998 19.2527 20 18.983V15.2548C19.9998 14.9851 19.8926 14.7265 19.7019 14.5358C19.5113 14.3452 19.2527 14.238 18.9831 14.2378V14.2378ZM9.49204 14.2378H5.76295V10.5085H9.49204V14.2378ZM4.74602 9.49151H1.01693V5.76223H4.74602V9.49151ZM1.01693 10.5085H4.74602V14.2378H1.01693V10.5085ZM9.49204 9.49151H5.76295V5.76223H9.49204V9.49151ZM1.01693 1.01698H4.74602V4.74525H1.01693V1.01698ZM1.01693 18.984L0.508466 18.983H1.01693V15.2548H4.74602V18.983H1.01693V18.984Z" fill="#171723"/>
</g>
</g>
<defs>
<clipPath id="clip0_5313_35220">
<rect width="20" height="20" fill="white"/>
</clipPath>
<clipPath id="clip1_5313_35220">
<rect width="20" height="20" fill="white"/>
</clipPath>
</defs>
</svg>
