<svg width="20" height="20" viewBox="0 0 20 20" fill="none" xmlns="http://www.w3.org/2000/svg">
<g clip-path="url(#clip0_11426_136054)">
<path d="M5.05707 9.24683C5.06185 9.25217 5.06873 9.25372 5.07371 9.25881C5.07836 9.26359 5.07997 9.27005 5.08488 9.27464C5.11306 9.30139 5.14702 9.31573 5.17898 9.33478C5.20033 9.34744 5.21858 9.36519 5.24123 9.3745C5.30311 9.4002 5.36829 9.41466 5.43445 9.41466C5.49801 9.41466 5.56125 9.40119 5.62159 9.3771C5.64232 9.36891 5.6592 9.35321 5.67894 9.34216C5.71166 9.32392 5.7461 9.30964 5.77508 9.28357C5.78067 9.27854 5.78272 9.2714 5.78806 9.26613C5.79252 9.26172 5.79862 9.26035 5.8029 9.25576L7.74639 7.208C7.94004 7.00441 7.9321 6.68265 7.72752 6.48999C7.52593 6.29832 7.20317 6.30329 7.00952 6.50886L5.4442 8.15815L4.84854 7.49799C4.66084 7.28943 4.33907 7.27355 4.13053 7.46124C3.92199 7.64894 3.9051 7.97071 4.09379 8.17925L5.05707 9.24683Z" fill="#171723"/>
<path d="M15.5343 13.1221H9.11983C8.83878 13.1221 8.61137 13.3495 8.61137 13.6306C8.61137 13.9116 8.83878 14.139 9.11983 14.139H15.5343C15.8153 14.139 16.0427 13.9116 16.0427 13.6306C16.0427 13.3495 15.8153 13.1221 15.5343 13.1221Z" fill="#171723"/>
<path d="M9.11983 15.7926H12.1577C12.4388 15.7926 12.6662 15.5651 12.6662 15.2841C12.6662 15.003 12.4388 14.7756 12.1577 14.7756H9.11983C8.83878 14.7756 8.61137 15.003 8.61137 15.2841C8.61137 15.5651 8.83878 15.7926 9.11983 15.7926Z" fill="#171723"/>
<path d="M6.98467 12.4259H4.95975C4.39864 12.4259 3.94182 12.8828 3.94182 13.4449V15.4688C3.94182 16.0309 4.39864 16.4877 4.95975 16.4877H6.98467C7.54578 16.4877 8.0026 16.0309 8.0026 15.4688V13.4449C8.0026 12.8828 7.54578 12.4259 6.98467 12.4259ZM6.98567 15.4698C6.98567 15.4708 6.98467 15.4708 6.98467 15.4708L4.95875 15.4688L4.95975 13.4429L6.98567 13.4449V15.4698Z" fill="#171723"/>
<path d="M15.5343 6.74424H9.11983C8.83878 6.74424 8.61137 6.97165 8.61137 7.2527C8.61137 7.53375 8.83878 7.76117 9.11983 7.76117H15.5343C15.8153 7.76117 16.0427 7.53375 16.0427 7.2527C16.0427 6.97165 15.8153 6.74424 15.5343 6.74424Z" fill="#171723"/>
<path d="M9.11983 9.41467H12.1577C12.4388 9.41467 12.6662 9.18725 12.6662 8.9062C12.6662 8.62515 12.4388 8.39774 12.1577 8.39774H9.11983C8.83878 8.39774 8.61137 8.62515 8.61137 8.9062C8.61137 9.18725 8.83878 9.41467 9.11983 9.41467Z" fill="#171723"/>
<path d="M18.3844 4.30408C18.3844 4.27237 18.372 4.24475 18.3664 4.21465C18.3218 3.48832 18.0303 2.80768 17.5115 2.2871L16.1053 0.877897C15.5402 0.311832 14.7884 0 13.989 0H4.59032C2.94178 0 1.6001 1.34168 1.6001 2.99022V17.0098C1.6001 18.6583 2.94178 20 4.59032 20H15.3942C17.0428 20 18.3844 18.6583 18.3844 17.0098V4.39942C18.3844 4.37764 18.3786 4.3569 18.3782 4.33518C18.3789 4.32432 18.3844 4.31514 18.3844 4.30408ZM16.7915 3.00512C17.0153 3.23011 17.17 3.50216 17.2644 3.79562H14.5888V1.11903C14.8851 1.21375 15.1599 1.36991 15.3863 1.5969L16.7915 3.00512ZM15.3942 18.9831H4.59032C3.50188 18.9831 2.61703 18.0982 2.61703 17.0098V2.99022C2.61703 1.90179 3.50188 1.01693 4.59032 1.01693H13.5719V4.30408C13.5719 4.58513 13.7993 4.81255 14.0804 4.81255H17.3675V17.0098C17.3675 18.0982 16.4827 18.9831 15.3942 18.9831Z" fill="#171723"/>
</g>
<defs>
<clipPath id="clip0_11426_136054">
<rect width="16.7843" height="20" fill="white" transform="translate(1.6001)"/>
</clipPath>
</defs>
</svg>
