<svg width="20" height="20" viewBox="0 0 20 20" fill="none" xmlns="http://www.w3.org/2000/svg">
<path d="M5.95547 8.5495C5.95939 8.55388 5.96504 8.55514 5.9691 8.55932C5.97292 8.56323 5.97424 8.56853 5.97827 8.57228C6.00201 8.59161 6.02788 8.60814 6.05538 8.62158C6.07158 8.63363 6.08863 8.64451 6.10639 8.65413C6.15551 8.67546 6.20844 8.68665 6.262 8.68702C6.31556 8.68739 6.36864 8.67692 6.41805 8.65626C6.43433 8.64776 6.45003 8.63819 6.46504 8.62763C6.49306 8.61469 6.5195 8.59858 6.54384 8.57961C6.54841 8.57549 6.55009 8.56961 6.55446 8.56532C6.55813 8.56171 6.56311 8.56058 6.56662 8.55683L8.15924 6.87877C8.19701 6.83915 8.22659 6.79247 8.24629 6.7414C8.26599 6.69033 8.27542 6.63588 8.27405 6.58116C8.27268 6.52644 8.26052 6.47253 8.23828 6.42251C8.21604 6.3725 8.18416 6.32736 8.14445 6.28969C8.10474 6.25201 8.05799 6.22254 8.00688 6.20296C7.95576 6.18338 7.90129 6.17407 7.84657 6.17557C7.79186 6.17707 7.73797 6.18935 7.68801 6.21171C7.63805 6.23406 7.59299 6.26606 7.5554 6.30585L6.2727 7.65737L5.78457 7.11639C5.74798 7.07553 5.70369 7.0423 5.65422 7.0186C5.60476 6.99489 5.5511 6.98119 5.49633 6.97828C5.44156 6.97537 5.38676 6.9833 5.33506 7.00162C5.28336 7.01994 5.23579 7.04829 5.19507 7.08504C5.15436 7.12179 5.1213 7.16622 5.0978 7.21578C5.0743 7.26534 5.06081 7.31905 5.05812 7.37383C5.05543 7.42861 5.06358 7.48339 5.08211 7.53501C5.10063 7.58663 5.12917 7.63409 5.16609 7.67466L5.95547 8.5495Z" fill="#171723"/>
<path d="M14.5412 13.9174H9.28483C9.17432 13.9174 9.06834 13.9613 8.9902 14.0394C8.91206 14.1175 8.86816 14.2235 8.86816 14.334C8.86816 14.4445 8.91206 14.5505 8.9902 14.6287C9.06834 14.7068 9.17432 14.7507 9.28483 14.7507H14.5412C14.6517 14.7507 14.7577 14.7068 14.8358 14.6287C14.9139 14.5505 14.9578 14.4445 14.9578 14.334C14.9578 14.2235 14.9139 14.1175 14.8358 14.0394C14.7577 13.9613 14.6517 13.9174 14.5412 13.9174Z" fill="#171723"/>
<path d="M11.7742 15.2723H9.28483C9.17432 15.2723 9.06834 15.3162 8.9902 15.3944C8.91206 15.4725 8.86816 15.5785 8.86816 15.689C8.86816 15.7995 8.91206 15.9055 8.9902 15.9836C9.06834 16.0618 9.17432 16.1057 9.28483 16.1057H11.7742C11.8848 16.1057 11.9907 16.0618 12.0689 15.9836C12.147 15.9055 12.1909 15.7995 12.1909 15.689C12.1909 15.5785 12.147 15.4725 12.0689 15.3944C11.9907 15.3162 11.8848 15.2723 11.7742 15.2723Z" fill="#171723"/>
<path d="M7.53501 13.3477H5.87567C5.6544 13.348 5.4423 13.4361 5.28591 13.5927C5.12952 13.7492 5.04163 13.9614 5.0415 14.1827V15.8412C5.04163 16.0625 5.12952 16.2747 5.28591 16.4312C5.4423 16.5877 5.6544 16.6758 5.87567 16.6762H7.53501C7.75629 16.6758 7.96839 16.5877 8.12477 16.4312C8.28116 16.2747 8.36906 16.0625 8.36918 15.8412V14.1826C8.36905 13.9613 8.28114 13.7492 8.12476 13.5926C7.96837 13.4361 7.75628 13.348 7.53501 13.3477ZM7.53585 15.842L7.53501 15.8428L5.87485 15.8411L5.87569 14.181L7.53585 14.1826V15.842Z" fill="#171723"/>
<path d="M14.5412 10.0582H9.28483C9.17432 10.0582 9.06834 10.1021 8.9902 10.1803C8.91206 10.2584 8.86816 10.3644 8.86816 10.4749C8.86816 10.5854 8.91206 10.6914 8.9902 10.7695C9.06834 10.8477 9.17432 10.8916 9.28483 10.8916H14.5412C14.6517 10.8916 14.7577 10.8477 14.8358 10.7695C14.9139 10.6914 14.9578 10.5854 14.9578 10.4749C14.9578 10.3644 14.9139 10.2584 14.8358 10.1803C14.7577 10.1021 14.6517 10.0582 14.5412 10.0582Z" fill="#171723"/>
<path d="M9.28483 12.2465H11.7742C11.8848 12.2465 11.9907 12.2026 12.0689 12.1245C12.147 12.0464 12.1909 11.9404 12.1909 11.8299C12.1909 11.7194 12.147 11.6134 12.0689 11.5352C11.9907 11.4571 11.8848 11.4132 11.7742 11.4132H9.28483C9.17432 11.4132 9.06834 11.4571 8.9902 11.5352C8.91206 11.6134 8.86816 11.7194 8.86816 11.8299C8.86816 11.9404 8.91206 12.0464 8.9902 12.1245C9.06834 12.2026 9.17432 12.2465 9.28483 12.2465Z" fill="#171723"/>
<path d="M7.53501 9.48779H5.87567C5.6544 9.48814 5.4423 9.57624 5.28591 9.73279C5.12952 9.88933 5.04163 10.1015 5.0415 10.3228V11.9813C5.04163 12.2026 5.12953 12.4148 5.28591 12.5713C5.4423 12.7279 5.6544 12.816 5.87567 12.8163H7.53501C7.75629 12.816 7.96839 12.7279 8.12477 12.5713C8.28116 12.4148 8.36906 12.2026 8.36918 11.9813V10.3228C8.36905 10.1015 8.28114 9.88931 8.12476 9.73277C7.96837 9.57624 7.75628 9.48814 7.53501 9.48779ZM7.53585 11.9821L7.53501 11.9829L5.87485 11.9813L5.87569 10.3211L7.53585 10.3228V11.9821Z" fill="#171723"/>
<path d="M14.5412 6.49866H9.28483C9.17432 6.49866 9.06834 6.54256 8.9902 6.6207C8.91206 6.69884 8.86816 6.80482 8.86816 6.91532C8.86816 7.02583 8.91206 7.13181 8.9902 7.20995C9.06834 7.28809 9.17432 7.33199 9.28483 7.33199H14.5412C14.6517 7.33199 14.7577 7.28809 14.8358 7.20995C14.9139 7.13181 14.9578 7.02583 14.9578 6.91532C14.9578 6.80482 14.9139 6.69884 14.8358 6.6207C14.7577 6.54256 14.6517 6.49866 14.5412 6.49866Z" fill="#171723"/>
<path d="M9.28483 8.68697H11.7742C11.8848 8.68697 11.9907 8.64307 12.0689 8.56493C12.147 8.48679 12.1909 8.38081 12.1909 8.2703C12.1909 8.1598 12.147 8.05382 12.0689 7.97568C11.9907 7.89754 11.8848 7.85364 11.7742 7.85364H9.28483C9.17432 7.85364 9.06834 7.89754 8.9902 7.97568C8.91206 8.05382 8.86816 8.1598 8.86816 8.2703C8.86816 8.38081 8.91206 8.48679 8.9902 8.56493C9.06834 8.64307 9.17432 8.68697 9.28483 8.68697Z" fill="#171723"/>
<path d="M16.8771 5.33253C16.8745 5.30768 16.8696 5.28313 16.8624 5.2592C16.8303 4.66462 16.581 4.10252 16.1618 3.67966L15.0094 2.52495C14.7824 2.29622 14.5122 2.11484 14.2145 1.99135C13.9168 1.86786 13.5975 1.8047 13.2752 1.80555H5.57341C4.92378 1.80636 4.30099 2.06478 3.84163 2.52414C3.38228 2.98349 3.12385 3.60628 3.12305 4.25591V15.7444C3.12386 16.394 3.38228 17.0168 3.84163 17.4761C4.30099 17.9355 4.92378 18.1939 5.57341 18.1947H14.4267C15.0764 18.1939 15.6992 17.9355 16.1585 17.4761C16.6179 17.0168 16.8763 16.394 16.8771 15.7444V5.41069C16.8771 5.39283 16.8723 5.37585 16.872 5.35805C16.8725 5.34914 16.8771 5.34162 16.8771 5.33253ZM15.5718 4.26811C15.7505 4.45021 15.8834 4.67227 15.9593 4.9159H13.7668V2.72253C14.0129 2.79867 14.2371 2.93299 14.4203 3.11413L15.5718 4.26811ZM14.4268 17.3614H5.57341C5.14466 17.361 4.73359 17.1905 4.43042 16.8873C4.12725 16.5842 3.95676 16.1731 3.95638 15.7444V4.25591C3.95676 3.82716 4.12725 3.41609 4.43042 3.11292C4.73359 2.80976 5.14466 2.63927 5.57341 2.63888H12.9334V5.33253C12.9334 5.38726 12.9441 5.44146 12.9651 5.49202C12.986 5.54259 13.0167 5.58853 13.0554 5.62723C13.0941 5.66593 13.14 5.69662 13.1906 5.71755C13.2411 5.73848 13.2953 5.74923 13.3501 5.7492H16.0438V15.7444C16.0434 16.1731 15.8729 16.5842 15.5697 16.8873C15.2666 17.1905 14.8555 17.361 14.4268 17.3614H14.4268Z" fill="#171723"/>
</svg>
