<svg width="20" height="20" viewBox="0 0 20 20" fill="none" xmlns="http://www.w3.org/2000/svg">
<g clip-path="url(#clip0_10314_146226)">
<path d="M4.96441 10.3967V12.4212H6.98877V10.3967H4.96441ZM4.96441 10.3967V12.4212H6.98877V10.3967H4.96441ZM4.96441 10.3967V12.4212H6.98877V10.3967H4.96441ZM4.96441 10.3967V12.4212H6.98877V10.3967H4.96441ZM4.96441 10.3967V12.4212H6.98877V10.3967H4.96441ZM4.96441 15.1068V17.1312H6.98877V15.1068L4.96441 15.1068ZM4.96441 10.3967V12.4212H6.98877V10.3967H4.96441ZM4.96441 15.1068V17.1312H6.98877V15.1068L4.96441 15.1068ZM4.96441 10.3967V12.4212H6.98877V10.3967H4.96441ZM4.96441 15.1068V17.1312H6.98877V15.1068L4.96441 15.1068ZM4.96441 10.3967V12.4212H6.98877V10.3967H4.96441ZM4.96441 15.1068V17.1312H6.98877V15.1068L4.96441 15.1068ZM4.96441 17.1312H6.98877V15.1068H4.96436L4.96441 17.1312ZM4.96441 10.3967V12.4211H6.98877V10.3967H4.96441ZM4.96441 15.1067V17.1312H6.98877V15.1068L4.96441 15.1067ZM4.96441 10.3967V12.4211H6.98877V10.3967H4.96441ZM4.96441 15.1067V17.1312H6.98877V15.1068L4.96441 15.1067ZM4.96441 10.3967V12.4211H6.98877V10.3967H4.96441ZM4.96441 15.1067V17.1312H6.98877V15.1068L4.96441 15.1067ZM4.96441 10.3967V12.4211H6.98877V10.3967H4.96441ZM4.96441 15.1067V17.1312H6.98877V15.1068L4.96441 15.1067ZM4.96441 10.3967V12.4211H6.98877V10.3967H4.96441ZM4.96441 10.3967V12.4211H6.98877V10.3967H4.96441ZM4.96441 10.3967V12.4211H6.98877V10.3967H4.96441Z" fill="#171723"/>
<path d="M18.3928 4.30316C18.391 4.27176 18.3841 4.24086 18.3726 4.21161C18.3349 3.48719 18.0305 2.80233 17.518 2.28892L16.1141 0.874875C15.5514 0.316198 14.7912 0.0018497 13.9983 4.65861e-07H4.59833C4.2055 -0.000218838 3.81648 0.0769916 3.45352 0.227217C3.09055 0.377443 2.76075 0.597738 2.48297 0.875507C2.2052 1.15328 1.9849 1.48307 1.83466 1.84604C1.68443 2.209 1.60721 2.59802 1.60742 2.99085V17.0092C1.6072 17.402 1.68442 17.791 1.83465 18.154C1.98488 18.517 2.20518 18.8468 2.48295 19.1245C2.76073 19.4023 3.09053 19.6226 3.45351 19.7728C3.81648 19.9231 4.2055 20.0003 4.59833 20H15.402C16.1948 19.9988 16.9548 19.6833 17.5154 19.1227C18.076 18.5621 18.3916 17.8021 18.3928 17.0092V4.39472C18.3928 4.37437 18.3827 4.35403 18.3827 4.33368C18.3827 4.32351 18.3928 4.31333 18.3928 4.30316ZM14.5983 1.11903C14.8976 1.21179 15.1699 1.37587 15.3918 1.59715L16.7958 3.00102C17.0135 3.22562 17.1771 3.49703 17.2739 3.79451H14.5983V1.11903ZM3.94725 17.1313V15.1068C3.94803 14.8373 4.05546 14.579 4.24608 14.3884C4.43669 14.1978 4.69499 14.0903 4.96455 14.0895H6.98892C7.25848 14.0903 7.51678 14.1978 7.70739 14.3884C7.898 14.579 8.00543 14.8373 8.00621 15.1068V17.1313C8.00543 17.4008 7.898 17.6591 7.70739 17.8497C7.51678 18.0403 7.25848 18.1478 6.98892 18.1486H4.9645C4.69494 18.1478 4.43666 18.0403 4.24606 17.8497C4.05546 17.6591 3.94803 17.4008 3.94725 17.1313V17.1313ZM9.12538 11.0885C8.99048 11.0885 8.8611 11.0349 8.76571 10.9395C8.67032 10.8442 8.61673 10.7148 8.61673 10.5799C8.61673 10.445 8.67032 10.3156 8.76571 10.2202C8.8611 10.1248 8.99048 10.0712 9.12538 10.0712H15.5444C15.6793 10.0712 15.8087 10.1248 15.9041 10.2202C15.9995 10.3156 16.0531 10.445 16.0531 10.5799C16.0531 10.7148 15.9995 10.8442 15.9041 10.9395C15.8087 11.0349 15.6793 11.0885 15.5444 11.0885H9.12538ZM12.6757 12.2381C12.6736 12.3723 12.6194 12.5005 12.5244 12.5954C12.4295 12.6903 12.3013 12.7446 12.1671 12.7467H9.12538C8.9906 12.7463 8.86145 12.6926 8.76614 12.5973C8.67084 12.502 8.61712 12.3728 8.61673 12.2381C8.61607 12.1711 8.62877 12.1046 8.6541 12.0426C8.67942 11.9806 8.71686 11.9243 8.76423 11.8769C8.81159 11.8296 8.86793 11.7921 8.92995 11.7668C8.99196 11.7415 9.0584 11.7288 9.12538 11.7294H12.1671C12.3019 11.7298 12.431 11.7835 12.5263 11.8788C12.6216 11.9741 12.6754 12.1033 12.6757 12.2381H12.6757ZM12.1671 8.39269H9.12538C9.0584 8.39336 8.99196 8.38065 8.92995 8.35533C8.86793 8.33 8.81159 8.29256 8.76423 8.24519C8.71686 8.19783 8.67942 8.14149 8.6541 8.07948C8.62877 8.01747 8.61607 7.95102 8.61673 7.88404C8.61711 7.74926 8.67083 7.6201 8.76613 7.5248C8.86144 7.42949 8.9906 7.37578 9.12538 7.3754H12.1671C12.3013 7.37751 12.4295 7.43177 12.5244 7.52671C12.6194 7.62165 12.6736 7.7498 12.6757 7.88404C12.6754 8.01883 12.6216 8.14799 12.5263 8.24329C12.431 8.3386 12.3019 8.39231 12.1671 8.39269H12.1671ZM5.4528 7.14142L7.00926 5.4934C7.101 5.39492 7.22809 5.33692 7.36259 5.33215C7.49709 5.32738 7.62798 5.37623 7.72646 5.46797C7.82493 5.5597 7.88294 5.6868 7.88771 5.8213C7.89248 5.9558 7.84362 6.08668 7.75189 6.18516L5.80899 8.2401C5.79881 8.2401 5.79881 8.2401 5.78864 8.25027C5.78867 8.25161 5.78842 8.25295 5.78792 8.2542C5.78742 8.25544 5.78667 8.25657 5.78572 8.25752C5.78477 8.25847 5.78364 8.25922 5.78239 8.25972C5.78115 8.26023 5.77981 8.26047 5.77847 8.26044C5.75037 8.28425 5.71962 8.30473 5.68682 8.32148C5.66657 8.33165 5.64621 8.352 5.62584 8.36217C5.56684 8.38217 5.50498 8.39247 5.44268 8.39269C5.37593 8.39494 5.30963 8.38097 5.24945 8.352C5.21893 8.352 5.20876 8.33165 5.17817 8.32148L5.08678 8.26044C5.08678 8.25027 5.08678 8.25027 5.0766 8.2401C5.07111 8.23459 5.06396 8.23104 5.05626 8.22997L4.09987 7.16176C4.05417 7.11249 4.01871 7.05465 3.99554 6.99157C3.97237 6.9285 3.96195 6.86145 3.96488 6.79432C3.96781 6.72719 3.98403 6.66131 4.01261 6.60049C4.04119 6.53968 4.08156 6.48514 4.13137 6.44004C4.18118 6.39494 4.23945 6.36017 4.3028 6.33776C4.36614 6.31534 4.43331 6.30572 4.5004 6.30945C4.56749 6.31319 4.63318 6.3302 4.69365 6.35951C4.75412 6.38881 4.80817 6.42983 4.85267 6.48017L5.4528 7.14142ZM8.00621 10.3968V12.4212C8.00543 12.6907 7.898 12.949 7.70739 13.1397C7.51678 13.3303 7.25848 13.4377 6.98892 13.4385H4.9645C4.69494 13.4377 4.43664 13.3303 4.24603 13.1397C4.05542 12.949 3.94799 12.6907 3.9472 12.4212V10.3968C3.94673 10.263 3.97272 10.1305 4.02367 10.0069C4.07463 9.88326 4.14954 9.77093 4.2441 9.67637C4.33866 9.58181 4.451 9.50689 4.57464 9.45594C4.69827 9.40498 4.83077 9.37899 4.9645 9.37947H6.98892C7.12265 9.37899 7.25515 9.40498 7.37879 9.45594C7.50243 9.5069 7.61477 9.58182 7.70933 9.67639C7.80389 9.77095 7.8788 9.88329 7.92976 10.0069C7.98071 10.1306 8.00669 10.2631 8.00621 10.3968V10.3968ZM12.1671 17.4568H9.12537C8.99059 17.4564 8.86143 17.4027 8.76612 17.3074C8.67081 17.2121 8.6171 17.0829 8.61672 16.9481C8.61606 16.8812 8.62877 16.8147 8.65409 16.7527C8.67942 16.6907 8.71686 16.6344 8.76423 16.587C8.81159 16.5396 8.86793 16.5022 8.92994 16.4769C8.99195 16.4515 9.05839 16.4388 9.12537 16.4395H12.1671C12.3019 16.4399 12.431 16.4936 12.5263 16.5889C12.6216 16.6842 12.6753 16.8134 12.6757 16.9481C12.6736 17.0824 12.6194 17.2105 12.5244 17.3055C12.4295 17.4004 12.3013 17.4547 12.1671 17.4568V17.4568ZM9.12538 15.7986C8.99048 15.7986 8.8611 15.745 8.76571 15.6496C8.67032 15.5542 8.61673 15.4249 8.61673 15.29C8.61673 15.1551 8.67032 15.0257 8.76571 14.9303C8.8611 14.8349 8.99048 14.7813 9.12538 14.7813H15.5444C15.6793 14.7813 15.8087 14.8349 15.9041 14.9303C15.9995 15.0257 16.0531 15.1551 16.0531 15.29C16.0531 15.4249 15.9995 15.5542 15.9041 15.6496C15.8087 15.745 15.6793 15.7986 15.5444 15.7986H9.12538ZM15.5444 6.74467H9.12538C8.9906 6.74429 8.86144 6.69058 8.76613 6.59527C8.67083 6.49996 8.61711 6.37081 8.61673 6.23602C8.61607 6.16904 8.62877 6.1026 8.6541 6.04059C8.67942 5.97858 8.71686 5.92224 8.76423 5.87487C8.81159 5.82751 8.86793 5.79007 8.92995 5.76474C8.99196 5.73941 9.0584 5.72671 9.12538 5.72738H15.5444C15.6792 5.72776 15.8084 5.78147 15.9037 5.87678C15.999 5.97208 16.0527 6.10124 16.0531 6.23602C16.051 6.37027 15.9967 6.49842 15.9018 6.59336C15.8068 6.68829 15.6787 6.74256 15.5444 6.74467V6.74467Z" fill="#171723"/>
</g>
<defs>
<clipPath id="clip0_10314_146226">
<rect width="20" height="20" fill="white"/>
</clipPath>
</defs>
</svg>
