<svg width="20" height="20" viewBox="0 0 20 20" fill="none" xmlns="http://www.w3.org/2000/svg">
<path d="M5.87504 10.3251V11.9834H7.53333V10.3251H5.87504ZM5.87504 10.3251V11.9834H7.53333V10.3251H5.87504ZM5.87504 10.3251V11.9834H7.53333V10.3251H5.87504ZM5.87504 10.3251V11.9834H7.53333V10.3251H5.87504ZM5.87504 10.3251V11.9834H7.53333V10.3251H5.87504ZM5.87504 14.1834V15.8417H7.53333V14.1834L5.87504 14.1834ZM5.87504 10.3251V11.9834H7.53333V10.3251H5.87504ZM5.87504 14.1834V15.8417H7.53333V14.1834L5.87504 14.1834ZM5.87504 10.3251V11.9834H7.53333V10.3251H5.87504ZM5.87504 14.1834V15.8417H7.53333V14.1834L5.87504 14.1834ZM5.87504 10.3251V11.9834H7.53333V10.3251H5.87504ZM5.87504 14.1834V15.8417H7.53333V14.1834L5.87504 14.1834ZM5.87504 15.8417H7.53333V14.1834H5.875L5.87504 15.8417ZM5.87504 10.3251V11.9834H7.53333V10.3251H5.87504ZM5.87504 14.1834V15.8417H7.53333V14.1834L5.87504 14.1834ZM5.87504 10.3251V11.9834H7.53333V10.3251H5.87504ZM5.87504 14.1834V15.8417H7.53333V14.1834L5.87504 14.1834ZM5.87504 10.3251V11.9834H7.53333V10.3251H5.87504ZM5.87504 14.1834V15.8417H7.53333V14.1834L5.87504 14.1834ZM5.87504 10.3251V11.9834H7.53333V10.3251H5.87504ZM5.87504 14.1834V15.8417H7.53333V14.1834L5.87504 14.1834ZM5.87504 10.3251V11.9834H7.53333V10.3251H5.87504ZM5.87504 10.3251V11.9834H7.53333V10.3251H5.87504ZM5.87504 10.3251V11.9834H7.53333V10.3251H5.87504Z" fill="#171723"/>
<path d="M16.875 5.33335C16.8735 5.30763 16.8679 5.28231 16.8584 5.25835C16.8275 4.66493 16.5782 4.10392 16.1584 3.68335L15.0083 2.52502C14.5474 2.06737 13.9247 1.80986 13.2751 1.80835H5.57505C5.25326 1.80817 4.93459 1.87142 4.63726 1.99448C4.33992 2.11754 4.06976 2.298 3.84222 2.52553C3.61468 2.75307 3.43421 3.02323 3.31115 3.32056C3.18808 3.61789 3.12483 3.93656 3.125 4.25835V15.7417C3.12482 16.0635 3.18807 16.3822 3.31113 16.6795C3.4342 16.9768 3.61466 17.247 3.84221 17.4745C4.06975 17.7021 4.33991 17.8825 4.63725 18.0056C4.93458 18.1286 5.25326 18.1919 5.57505 18.1917H14.425C15.0745 18.1907 15.6971 17.9322 16.1563 17.473C16.6155 17.0137 16.874 16.3912 16.875 15.7417V5.40835C16.875 5.39168 16.8668 5.37502 16.8668 5.35835C16.8668 5.35002 16.875 5.34168 16.875 5.33335ZM13.7667 2.72502C14.0119 2.801 14.2349 2.93541 14.4167 3.11668L15.5668 4.26668C15.7452 4.45067 15.8791 4.673 15.9584 4.91668H13.7667V2.72502ZM5.04171 15.8417V14.1834C5.04235 13.9625 5.13035 13.7509 5.28649 13.5948C5.44264 13.4387 5.65422 13.3507 5.87504 13.35H7.53333C7.75415 13.3507 7.96574 13.4387 8.12188 13.5948C8.27802 13.7509 8.36603 13.9625 8.36667 14.1834V15.8417C8.36603 16.0625 8.27802 16.2741 8.12188 16.4302C7.96574 16.5864 7.75415 16.6744 7.53333 16.675H5.875C5.65419 16.6744 5.44261 16.5864 5.28648 16.4302C5.13035 16.2741 5.04235 16.0625 5.04171 15.8417ZM9.28345 10.8917C9.17294 10.8917 9.06696 10.8478 8.98882 10.7696C8.91068 10.6915 8.86678 10.5855 8.86678 10.475C8.86678 10.3645 8.91068 10.2585 8.98882 10.1804C9.06696 10.1022 9.17294 10.0584 9.28345 10.0584H14.5417C14.6522 10.0584 14.7582 10.1022 14.8364 10.1804C14.9145 10.2585 14.9584 10.3645 14.9584 10.475C14.9584 10.5855 14.9145 10.6915 14.8364 10.7696C14.7582 10.8478 14.6522 10.8917 14.5417 10.8917H9.28345ZM12.1918 11.8334C12.19 11.9433 12.1456 12.0483 12.0678 12.1261C11.9901 12.2038 11.8851 12.2483 11.7751 12.25H9.28345C9.17304 12.2497 9.06725 12.2057 8.98918 12.1276C8.91111 12.0496 8.8671 11.9438 8.86678 11.8334C8.86624 11.7785 8.87664 11.7241 8.89739 11.6733C8.91814 11.6225 8.94881 11.5763 8.98761 11.5375C9.02641 11.4987 9.07256 11.468 9.12336 11.4473C9.17415 11.4265 9.22858 11.4161 9.28345 11.4167H11.7751C11.8855 11.417 11.9913 11.461 12.0694 11.5391C12.1475 11.6171 12.1915 11.7229 12.1918 11.8334H12.1918ZM11.7751 8.68335H9.28345C9.22858 8.6839 9.17415 8.67349 9.12336 8.65274C9.07256 8.632 9.02641 8.60133 8.98761 8.56253C8.94881 8.52373 8.91814 8.47758 8.89739 8.42678C8.87664 8.37598 8.86624 8.32155 8.86678 8.26668C8.8671 8.15627 8.91109 8.05047 8.98917 7.9724C9.06724 7.89433 9.17304 7.85033 9.28345 7.85002H11.7751C11.8851 7.85175 11.9901 7.8962 12.0678 7.97397C12.1456 8.05174 12.1901 8.15672 12.1918 8.26668C12.1915 8.3771 12.1475 8.4829 12.0694 8.56097C11.9913 8.63904 11.8855 8.68304 11.7751 8.68335H11.7751ZM6.275 7.65835L7.55 6.30835C7.62515 6.22768 7.72926 6.18017 7.83944 6.17626C7.94961 6.17235 8.05683 6.21237 8.1375 6.28752C8.21817 6.36266 8.26569 6.46677 8.26959 6.57695C8.2735 6.68713 8.23348 6.79435 8.15833 6.87502L6.56678 8.55835C6.55844 8.55835 6.55844 8.55835 6.55011 8.56668C6.55013 8.56778 6.54993 8.56888 6.54952 8.5699C6.54911 8.57092 6.5485 8.57185 6.54772 8.57263C6.54694 8.5734 6.54601 8.57402 6.54499 8.57443C6.54397 8.57484 6.54288 8.57504 6.54178 8.57502C6.51876 8.59452 6.49357 8.6113 6.4667 8.62502C6.45012 8.63335 6.43343 8.65002 6.41675 8.65835C6.36841 8.67473 6.31774 8.68317 6.26671 8.68335C6.21203 8.68519 6.15772 8.67375 6.10843 8.65002C6.08343 8.65002 6.07509 8.63335 6.05003 8.62502L5.97517 8.57502C5.97517 8.56668 5.97517 8.56668 5.96683 8.55835C5.96233 8.55384 5.95648 8.55093 5.95017 8.55006L5.16673 7.67502C5.12929 7.63466 5.10025 7.58727 5.08127 7.5356C5.06228 7.48393 5.05375 7.42901 5.05615 7.37402C5.05855 7.31903 5.07184 7.26506 5.09525 7.21524C5.11866 7.16542 5.15173 7.12075 5.19253 7.0838C5.23333 7.04686 5.28107 7.01838 5.33296 7.00002C5.38485 6.98166 5.43987 6.97378 5.49483 6.97684C5.54979 6.97989 5.60359 6.99383 5.65313 7.01784C5.70266 7.04184 5.74694 7.07544 5.78339 7.11668L6.275 7.65835ZM8.36667 10.325V11.9834C8.36602 12.2042 8.27802 12.4158 8.12188 12.5719C7.96574 12.728 7.75415 12.816 7.53333 12.8167H5.875C5.65418 12.816 5.4426 12.728 5.28645 12.5719C5.13031 12.4158 5.04231 12.2042 5.04167 11.9834V10.325C5.04128 10.2155 5.06257 10.1069 5.10431 10.0057C5.14605 9.90438 5.20742 9.81236 5.28488 9.73489C5.36234 9.65744 5.45436 9.59607 5.55564 9.55433C5.65692 9.51258 5.76546 9.4913 5.875 9.49168H7.53333C7.64288 9.4913 7.75142 9.51259 7.85271 9.55433C7.95399 9.59607 8.04601 9.65744 8.12347 9.73491C8.20093 9.81237 8.2623 9.9044 8.30404 10.0057C8.34578 10.107 8.36706 10.2155 8.36667 10.3251V10.325ZM11.7751 16.1084H9.28344C9.17303 16.108 9.06723 16.064 8.98916 15.986C8.91109 15.9079 8.86709 15.8021 8.86678 15.6917C8.86623 15.6368 8.87664 15.5824 8.89739 15.5316C8.91814 15.4808 8.94881 15.4346 8.98761 15.3959C9.02641 15.3571 9.07256 15.3264 9.12335 15.3056C9.17415 15.2849 9.22857 15.2745 9.28344 15.275H11.7751C11.8855 15.2753 11.9913 15.3193 12.0694 15.3974C12.1475 15.4755 12.1915 15.5813 12.1918 15.6917C12.19 15.8017 12.1456 15.9066 12.0678 15.9844C11.9901 16.0622 11.8851 16.1066 11.7751 16.1084ZM9.28345 14.75C9.17294 14.75 9.06696 14.7061 8.98882 14.628C8.91068 14.5498 8.86678 14.4439 8.86678 14.3334C8.86678 14.2228 8.91068 14.1169 8.98882 14.0387C9.06696 13.9606 9.17294 13.9167 9.28345 13.9167H14.5417C14.6522 13.9167 14.7582 13.9606 14.8364 14.0387C14.9145 14.1169 14.9584 14.2228 14.9584 14.3334C14.9584 14.4439 14.9145 14.5498 14.8364 14.628C14.7582 14.7061 14.6522 14.75 14.5417 14.75H9.28345ZM14.5417 7.33335H9.28345C9.17304 7.33304 9.06724 7.28904 8.98917 7.21097C8.91109 7.13289 8.8671 7.02709 8.86678 6.91668C8.86624 6.86181 8.87664 6.80739 8.89739 6.75659C8.91814 6.70579 8.94881 6.65964 8.98761 6.62084C9.02641 6.58204 9.07256 6.55137 9.12336 6.53062C9.17415 6.50988 9.22858 6.49947 9.28345 6.50002H14.5417C14.6521 6.50033 14.7579 6.54433 14.836 6.6224C14.9141 6.70047 14.9581 6.80627 14.9584 6.91668C14.9567 7.02665 14.9122 7.13163 14.8344 7.2094C14.7567 7.28717 14.6517 7.33162 14.5417 7.33335Z" fill="#171723"/>
</svg>
