<svg width="20" height="20" viewBox="0 0 20 20" fill="none" xmlns="http://www.w3.org/2000/svg">
<g clip-path="url(#clip0_11426_136055)">
<path d="M7.08672 12.9436H5.06258V14.9683H7.08672V12.9436Z" fill="#171723"/>
<path d="M18.3852 4.3031C18.3852 4.27279 18.3753 4.2425 18.3653 4.21171C18.3246 3.48947 18.0296 2.80797 17.5105 2.28889L16.1068 0.875222C15.5475 0.31542 14.7741 0 13.9907 0H4.59126C2.93271 0 1.6 1.34313 1.6 2.99076V17.0092C1.6 18.6574 2.93271 20 4.59126 20H15.3945C17.0426 20 18.3852 18.6574 18.3852 17.0092V4.39499C18.3852 4.37462 18.3753 4.35426 18.3753 4.33389C18.3753 4.32346 18.3852 4.31353 18.3852 4.3031ZM4.22859 6.95147C4.44217 6.76867 4.76753 6.77861 4.95082 6.9922L5.55085 7.65334L7.10709 6.00571C7.30031 5.79162 7.62616 5.79162 7.82932 5.98534C8.03298 6.17857 8.04341 6.49399 7.84968 6.69715L5.907 8.75209C5.90005 8.75209 5.89326 8.75556 5.88664 8.76251C5.88664 8.76251 5.88664 8.77245 5.87621 8.77245C5.84591 8.80324 5.81511 8.81318 5.78482 8.83355C5.76445 8.84349 5.74409 8.86434 5.72372 8.87428C5.66262 8.89465 5.60152 8.90459 5.54043 8.90459C5.4694 8.90459 5.4083 8.89465 5.3472 8.86435C5.3169 8.86435 5.30647 8.84349 5.27618 8.83356C5.24587 8.81319 5.21508 8.79283 5.18478 8.77246C5.18478 8.76584 5.18131 8.75905 5.17436 8.7521C5.17436 8.7521 5.16442 8.74216 5.15399 8.74216L4.1978 7.67371C4.00458 7.46012 4.02493 7.14469 4.22859 6.95147ZM8.10401 14.9683C8.10401 15.5276 7.64652 15.9855 7.08672 15.9855H5.06258C4.50277 15.9855 4.04529 15.5276 4.04529 14.9683V12.9436C4.04529 12.3739 4.50277 11.9263 5.06258 11.9263H7.08672C7.64652 11.9263 8.10401 12.3739 8.10401 12.9436V14.9683ZM12.265 15.2936H9.22312C8.9385 15.2936 8.71448 15.0597 8.71448 14.785C8.71448 14.4999 8.9385 14.2763 9.22312 14.2763H12.265C12.5397 14.2763 12.7737 14.4999 12.7737 14.785C12.7737 15.0597 12.5397 15.2936 12.265 15.2936ZM15.6422 13.6356H9.22312C8.9385 13.6356 8.71448 13.4115 8.71448 13.1269C8.71448 12.8418 8.9385 12.6183 9.22312 12.6183H15.6423C15.9169 12.6183 16.1509 12.8418 16.1509 13.1269C16.1509 13.4115 15.9169 13.6356 15.6422 13.6356ZM8.71447 8.39593C8.71447 8.12125 8.93849 7.88729 9.22311 7.88729H12.265C12.5397 7.88729 12.7737 8.12125 12.7737 8.39593C12.7737 8.68105 12.5397 8.90458 12.265 8.90458H9.22311C8.93849 8.90458 8.71447 8.68105 8.71447 8.39593ZM15.6422 7.25695H9.22312C8.9385 7.25695 8.71448 7.02299 8.71448 6.74831C8.71448 6.46319 8.9385 6.23966 9.22312 6.23966H15.6423C15.9169 6.23966 16.1509 6.46319 16.1509 6.74831C16.1509 7.02299 15.9169 7.25695 15.6422 7.25695ZM14.696 3.28904V0.613698C14.991 0.705091 15.2657 0.868019 15.4897 1.09204L16.8935 2.49577C17.1175 2.71978 17.27 2.99398 17.3718 3.28904H14.696Z" fill="#171723"/>
</g>
<defs>
<clipPath id="clip0_11426_136055">
<rect width="16.7852" height="20" fill="white" transform="translate(1.6)"/>
</clipPath>
</defs>
</svg>
