<svg width="20" height="20" viewBox="0 0 20 20" fill="none" xmlns="http://www.w3.org/2000/svg">
<g clip-path="url(#clip0_10314_146206)">
<path d="M5.06442 8.22992C5.0692 8.23526 5.0761 8.23681 5.08106 8.2419C5.08572 8.24668 5.08733 8.25314 5.09225 8.25773C5.12121 8.2813 5.15278 8.30149 5.18634 8.31788C5.20612 8.33259 5.22692 8.34586 5.24859 8.3576C5.30854 8.38364 5.37313 8.39729 5.43849 8.39774C5.50385 8.39819 5.56863 8.38542 5.62893 8.3602C5.64879 8.34983 5.66794 8.33815 5.68627 8.32526C5.72046 8.30947 5.75272 8.28981 5.78242 8.26666C5.78801 8.26164 5.79005 8.25446 5.79539 8.24922C5.79986 8.24482 5.80594 8.24345 5.81023 8.23886L7.75375 6.19108C7.79984 6.14273 7.83593 6.08577 7.85997 6.02345C7.88402 5.96113 7.89553 5.89468 7.89385 5.8279C7.89217 5.76113 7.87734 5.69534 7.8502 5.6343C7.82306 5.57327 7.78415 5.51819 7.73569 5.47221C7.68724 5.42624 7.63019 5.39027 7.56781 5.36638C7.50543 5.34248 7.43896 5.33112 7.37219 5.33295C7.30542 5.33479 7.23966 5.34977 7.17869 5.37705C7.11772 5.40433 7.06273 5.44337 7.01686 5.49194L5.45155 7.14123L4.85587 6.48106C4.81122 6.4312 4.75717 6.39064 4.6968 6.36172C4.63644 6.3328 4.57096 6.31608 4.50413 6.31252C4.43729 6.30897 4.37041 6.31865 4.30732 6.34101C4.24423 6.36336 4.18618 6.39796 4.13649 6.44281C4.08681 6.48765 4.04647 6.54187 4.01779 6.60235C3.98911 6.66282 3.97265 6.72837 3.96936 6.79522C3.96608 6.86207 3.97602 6.92892 3.99863 6.99191C4.02124 7.05491 4.05607 7.11283 4.10112 7.16233L5.06442 8.22992Z" fill="#171723"/>
<path d="M15.5416 14.7805H9.12712C8.99227 14.7805 8.86294 14.8341 8.76758 14.9294C8.67222 15.0248 8.61865 15.1541 8.61865 15.289C8.61865 15.4238 8.67222 15.5532 8.76758 15.6485C8.86294 15.7439 8.99227 15.7975 9.12712 15.7975H15.5416C15.6764 15.7975 15.8058 15.7439 15.9011 15.6485C15.9965 15.5532 16.0501 15.4238 16.0501 15.289C16.0501 15.1541 15.9965 15.0248 15.9011 14.9294C15.8058 14.8341 15.6764 14.7805 15.5416 14.7805Z" fill="#171723"/>
<path d="M12.165 16.434H9.12712C8.99227 16.434 8.86294 16.4875 8.76758 16.5829C8.67222 16.6782 8.61865 16.8076 8.61865 16.9424C8.61865 17.0773 8.67222 17.2066 8.76758 17.302C8.86294 17.3973 8.99227 17.4509 9.12712 17.4509H12.165C12.2999 17.4509 12.4292 17.3973 12.5246 17.302C12.6199 17.2066 12.6735 17.0773 12.6735 16.9424C12.6735 16.8076 12.6199 16.6782 12.5246 16.5829C12.4292 16.4875 12.2999 16.434 12.165 16.434Z" fill="#171723"/>
<path d="M6.99211 14.0852H4.96717C4.69715 14.0856 4.43832 14.1931 4.24747 14.3842C4.05663 14.5752 3.94937 14.8341 3.94922 15.1042V17.1281C3.94937 17.3982 4.05663 17.6571 4.24747 17.8481C4.43832 18.0392 4.69715 18.1467 4.96717 18.1471H6.99211C7.26214 18.1467 7.52097 18.0392 7.71182 17.8481C7.90266 17.6571 8.00992 17.3982 8.01007 17.1281V15.1041C8.00991 14.8341 7.90264 14.5752 7.7118 14.3842C7.52096 14.1931 7.26213 14.0856 6.99211 14.0852V14.0852ZM6.99313 17.1291L6.99211 17.1301L4.96618 17.1281L4.96719 15.1021L6.99313 15.1042V17.1291Z" fill="#171723"/>
<path d="M15.5416 10.0712H9.12712C8.99227 10.0712 8.86294 10.1247 8.76758 10.2201C8.67222 10.3155 8.61865 10.4448 8.61865 10.5796C8.61865 10.7145 8.67222 10.8438 8.76758 10.9392C8.86294 11.0345 8.99227 11.0881 9.12712 11.0881H15.5416C15.6764 11.0881 15.8058 11.0345 15.9011 10.9392C15.9965 10.8438 16.0501 10.7145 16.0501 10.5796C16.0501 10.4448 15.9965 10.3155 15.9011 10.2201C15.8058 10.1247 15.6764 10.0712 15.5416 10.0712Z" fill="#171723"/>
<path d="M9.12712 12.7415H12.165C12.2999 12.7415 12.4292 12.688 12.5246 12.5926C12.6199 12.4973 12.6735 12.3679 12.6735 12.2331C12.6735 12.0982 12.6199 11.9689 12.5246 11.8735C12.4292 11.7782 12.2999 11.7246 12.165 11.7246H9.12712C8.99227 11.7246 8.86294 11.7782 8.76758 11.8735C8.67222 11.9689 8.61865 12.0982 8.61865 12.2331C8.61865 12.3679 8.67222 12.4973 8.76758 12.5926C8.86294 12.688 8.99227 12.7415 9.12712 12.7415Z" fill="#171723"/>
<path d="M6.99211 9.375H4.96717C4.69715 9.37542 4.43832 9.48294 4.24747 9.67397C4.05663 9.86501 3.94937 10.1239 3.94922 10.394V12.4179C3.94937 12.6879 4.05663 12.9469 4.24748 13.1379C4.43832 13.3289 4.69715 13.4365 4.96717 13.4369H6.99211C7.26214 13.4365 7.52097 13.3289 7.71181 13.1379C7.90265 12.9469 8.00992 12.6879 8.01007 12.4179V10.3939C8.00991 10.1239 7.90264 9.86498 7.7118 9.67395C7.52096 9.48293 7.26213 9.37542 6.99211 9.375V9.375ZM6.99313 12.4189L6.99211 12.4199L4.96618 12.4178L4.96719 10.3919L6.99313 10.394V12.4189Z" fill="#171723"/>
<path d="M15.5416 5.72729H9.12712C8.99227 5.72729 8.86294 5.78087 8.76758 5.87622C8.67222 5.97158 8.61865 6.10091 8.61865 6.23576C8.61865 6.37062 8.67222 6.49995 8.76758 6.59531C8.86294 6.69066 8.99227 6.74423 9.12712 6.74423H15.5416C15.6764 6.74423 15.8058 6.69066 15.9011 6.59531C15.9965 6.49995 16.0501 6.37062 16.0501 6.23576C16.0501 6.10091 15.9965 5.97158 15.9011 5.87622C15.8058 5.78087 15.6764 5.72729 15.5416 5.72729V5.72729Z" fill="#171723"/>
<path d="M9.12712 8.39768H12.165C12.2999 8.39768 12.4292 8.34411 12.5246 8.24875C12.6199 8.15339 12.6735 8.02406 12.6735 7.88921C12.6735 7.75435 12.6199 7.62502 12.5246 7.52967C12.4292 7.43431 12.2999 7.38074 12.165 7.38074H9.12712C8.99227 7.38074 8.86294 7.43431 8.76758 7.52967C8.67222 7.62502 8.61865 7.75435 8.61865 7.88921C8.61865 8.02406 8.67222 8.15339 8.76758 8.24875C8.86294 8.34411 8.99227 8.39768 9.12712 8.39768Z" fill="#171723"/>
<path d="M18.3924 4.30408C18.3892 4.27375 18.3832 4.24379 18.3744 4.21459C18.3352 3.48901 18.031 2.80306 17.5194 2.28703L16.1132 0.877913C15.8361 0.598783 15.5064 0.377447 15.1431 0.226745C14.7798 0.0760431 14.3902 -0.00102525 13.9969 1.02988e-05H4.59815C3.80539 0.000995219 3.04538 0.316354 2.48482 0.876918C1.92425 1.43748 1.6089 2.19749 1.60791 2.99025V17.0099C1.6089 17.8027 1.92426 18.5627 2.48482 19.1232C3.04539 19.6838 3.80539 19.9991 4.59815 20.0001H15.4021C16.1949 19.9991 16.9549 19.6838 17.5154 19.1232C18.076 18.5627 18.3914 17.8027 18.3923 17.0099V4.39946C18.3923 4.37767 18.3865 4.35694 18.3861 4.33522C18.3868 4.32435 18.3924 4.31517 18.3924 4.30408ZM16.7994 3.00513C17.0176 3.22736 17.1797 3.49834 17.2723 3.79565H14.5967V1.11903C14.8971 1.21194 15.1706 1.37585 15.3942 1.5969L16.7994 3.00513ZM15.4021 18.9832H4.59815C4.07494 18.9827 3.5733 18.7747 3.20333 18.4047C2.83337 18.0347 2.62532 17.5331 2.62485 17.0099V2.99025C2.62532 2.46704 2.83337 1.9654 3.20333 1.59543C3.5733 1.22547 4.07494 1.01742 4.59815 1.01695H13.5797V4.30408C13.5797 4.37087 13.5928 4.437 13.6184 4.49871C13.6439 4.56042 13.6814 4.61648 13.7286 4.66371C13.7758 4.71093 13.8319 4.74838 13.8936 4.77392C13.9553 4.79946 14.0214 4.81259 14.0882 4.81255H17.3754V17.0099C17.3749 17.5331 17.1669 18.0347 16.7969 18.4047C16.427 18.7747 15.9253 18.9827 15.4021 18.9832H15.4021Z" fill="#171723"/>
</g>
<defs>
<clipPath id="clip0_10314_146206">
<rect width="20" height="20" fill="white"/>
</clipPath>
</defs>
</svg>
