<svg width="20" height="20" viewBox="0 0 20 20" fill="none" xmlns="http://www.w3.org/2000/svg">
<g clip-path="url(#clip0_5313_35109)">
<path d="M9.99969 18.1946C8.37896 18.1947 6.79459 17.7141 5.44695 16.8138C4.09932 15.9134 3.04893 14.6337 2.42863 13.1363C1.80832 11.639 1.64596 9.99134 1.96207 8.40173C2.27818 6.81212 3.05856 5.35195 4.20453 4.20586C5.35051 3.05976 6.8106 2.27923 8.40018 1.96296C9.98976 1.64669 11.6374 1.80889 13.1348 2.42904C14.6322 3.04919 15.9121 4.09945 16.8126 5.44699C17.7131 6.79454 18.1938 8.37886 18.1939 9.99959C18.1916 12.1722 17.3275 14.2552 15.7914 15.7915C14.2552 17.3278 12.1723 18.1921 9.99969 18.1946V18.1946ZM9.99969 2.63876C8.54374 2.63867 7.12046 3.07034 5.90984 3.87918C4.69923 4.68801 3.75565 5.83768 3.19845 7.18279C2.64124 8.5279 2.49543 10.008 2.77945 11.436C3.06347 12.864 3.76457 14.1757 4.79408 15.2052C5.8236 16.2347 7.13529 16.9358 8.56327 17.2198C9.99125 17.5039 11.4714 17.358 12.8165 16.8008C14.1616 16.2436 15.3113 15.3001 16.1201 14.0894C16.9289 12.8788 17.3606 11.4555 17.3605 9.99959C17.3582 8.04809 16.5819 6.17719 15.202 4.79727C13.8221 3.41735 11.9512 2.64109 9.99969 2.63876V2.63876Z" fill="#171723"/>
<path d="M12.6279 14.0793C12.5732 14.0793 12.519 14.0686 12.4684 14.0476C12.4179 14.0267 12.372 13.9959 12.3333 13.9572L9 10.6239C8.96129 10.5852 8.93059 10.5393 8.90964 10.4887C8.8887 10.4382 8.87792 10.384 8.87793 10.3293V6.02995C8.87793 5.91944 8.92183 5.81346 8.99997 5.73532C9.07811 5.65718 9.18409 5.61328 9.2946 5.61328C9.4051 5.61328 9.51108 5.65718 9.58922 5.73532C9.66736 5.81346 9.71126 5.91944 9.71126 6.02995V10.1567L12.9225 13.368C12.9808 13.4263 13.0205 13.5005 13.0365 13.5813C13.0526 13.6621 13.0444 13.7459 13.0128 13.822C12.9813 13.8982 12.9279 13.9632 12.8594 14.009C12.7909 14.0548 12.7103 14.0793 12.6279 14.0793V14.0793Z" fill="#171723"/>
</g>
<defs>
<clipPath id="clip0_5313_35109">
<rect width="20" height="20" fill="white"/>
</clipPath>
</defs>
</svg>
