<svg width="20" height="20" viewBox="0 0 20 20" fill="none" xmlns="http://www.w3.org/2000/svg">
<path d="M13.5145 5.72511L14.1757 4.94751C14.3385 4.78435 14.3385 4.52108 14.1757 4.35832C14.0129 4.19516 13.7493 4.19516 13.5865 4.35832L12.8093 5.27182C12.026 4.84172 11.1484 4.56462 10.2153 4.47795V2.9598H11.8332C11.821 2.93864 11.8124 2.91504 11.8006 2.89388C11.9211 2.82064 12.0057 2.69409 12.0057 2.54313C12.0057 2.31282 11.8193 2.12646 11.589 2.12646H7.83618C7.60587 2.12646 7.41952 2.31282 7.41952 2.54313C7.41952 2.69409 7.50415 2.82064 7.625 2.89388C7.61279 2.91504 7.60466 2.93864 7.59204 2.9598H9.382V4.45638C8.38306 4.48731 7.44026 4.73592 6.59636 5.15829L5.91601 4.35832C5.75326 4.19516 5.48958 4.19516 5.32682 4.35832C5.16407 4.52108 5.16407 4.78435 5.32682 4.94751L5.86312 5.57862C4.06258 6.78386 2.87402 8.83545 2.87402 11.1605C2.87402 14.8625 5.88591 17.8743 9.5883 17.8743C13.2903 17.8743 16.3026 14.8625 16.3026 11.1605C16.3026 8.92456 15.1999 6.94621 13.5145 5.7251L13.5145 5.72511ZM9.58829 17.041C6.3457 17.041 3.70735 14.4031 3.70735 11.1605C3.70735 7.91749 6.3457 5.27955 9.58829 5.27955C12.8309 5.27955 15.4692 7.91749 15.4692 11.1605C15.4692 14.4031 12.8309 17.041 9.58829 17.041Z" fill="#171723"/>
<path d="M9.5839 6.45184C9.47891 6.45184 9.37597 6.45998 9.27221 6.4673V11.3306H4.88379C4.97412 13.8517 7.04077 15.8692 9.58391 15.8692C12.1848 15.8692 14.293 13.7606 14.293 11.1605C14.293 8.55959 12.1848 6.45184 9.58391 6.45184H9.5839Z" fill="#171723"/>
</svg>
