<svg width="20" height="20" viewBox="0 0 20 20" fill="none" xmlns="http://www.w3.org/2000/svg">
<g clip-path="url(#clip0_10317_146916)">
<path d="M8.09265 15.9546H12.0515C12.1269 16.1189 12.2364 16.2653 12.3726 16.3841C12.5089 16.5029 12.6689 16.5914 12.8419 16.6437C13.015 16.6961 13.1972 16.7111 13.3765 16.6878C13.5558 16.6644 13.7281 16.6033 13.882 16.5084C14.0359 16.4135 14.1678 16.287 14.2691 16.1373C14.3704 15.9875 14.4387 15.818 14.4695 15.6399C14.5003 15.4618 14.4929 15.2792 14.4478 15.1042C14.4026 14.9292 14.3208 14.7658 14.2077 14.6248L16.1509 11.262C16.202 11.2704 16.2537 11.2756 16.3055 11.2776C16.6449 11.2776 16.9705 11.1428 17.2105 10.9029C17.4506 10.663 17.5854 10.3376 17.5854 9.99832C17.5854 9.65903 17.4506 9.33364 17.2105 9.09373C16.9705 8.85381 16.6449 8.71903 16.3055 8.71903C16.2535 8.72103 16.2018 8.72623 16.1505 8.73461L14.1635 5.29389C14.2715 5.14868 14.3474 4.98218 14.3862 4.80542C14.425 4.62866 14.4258 4.44568 14.3885 4.2686C14.3512 4.09152 14.2767 3.92438 14.1698 3.77827C14.063 3.63215 13.9264 3.51039 13.7689 3.42106C13.6115 3.33172 13.4368 3.27685 13.2565 3.26007C13.0763 3.2433 12.8945 3.265 12.7232 3.32375C12.552 3.3825 12.3952 3.47696 12.2632 3.60085C12.1313 3.72475 12.0271 3.87526 11.9578 4.04241H8.07054C8.00344 3.87398 7.90123 3.72176 7.77072 3.59586C7.64021 3.46995 7.48439 3.37326 7.3136 3.3122C7.14282 3.25113 6.96098 3.2271 6.78019 3.2417C6.5994 3.25629 6.42378 3.30918 6.26501 3.39685C6.10625 3.48452 5.96797 3.60496 5.85937 3.75017C5.75077 3.89537 5.67434 4.06202 5.63515 4.23903C5.59596 4.41604 5.59491 4.59936 5.63208 4.77681C5.66924 4.95425 5.74377 5.12176 5.8507 5.2682L3.84841 8.73458C3.79731 8.72621 3.74574 8.72101 3.69399 8.719C3.35453 8.719 3.02898 8.85378 2.78895 9.0937C2.54891 9.33361 2.41406 9.659 2.41406 9.99829C2.41406 10.3376 2.54891 10.663 2.78895 10.9029C3.02898 11.1428 3.35453 11.2776 3.69399 11.2776C3.74586 11.2756 3.79756 11.2704 3.84878 11.262L5.86163 14.7474C5.75694 14.8948 5.68474 15.0627 5.64981 15.2401C5.61487 15.4175 5.61801 15.6002 5.65899 15.7763C5.69998 15.9523 5.77789 16.1177 5.88757 16.2614C5.99725 16.4051 6.1362 16.5239 6.29524 16.61C6.45428 16.696 6.62979 16.7474 6.81015 16.7606C6.99052 16.7738 7.17164 16.7486 7.34154 16.6867C7.51143 16.6247 7.66624 16.5274 7.79572 16.4012C7.9252 16.275 8.02641 16.1228 8.09265 15.9546V15.9546ZM13.5261 14.18C13.2369 14.0992 12.9279 14.129 12.6594 14.2634L10.0995 11.6155C10.1584 11.505 10.2005 11.3863 10.2243 11.2634L15.1655 10.5689C15.2284 10.6969 15.3123 10.8135 15.4137 10.9139L13.5261 14.18ZM10.114 10.4586L11.496 9.07732C11.7365 9.2001 12.0101 9.24245 12.2765 9.19814C12.5429 9.15382 12.788 9.02519 12.9758 8.83117L14.9302 9.78191L10.114 10.4586ZM13.163 5.8107C13.2747 5.80759 13.3856 5.78969 13.4926 5.75746L15.4132 9.08308L15.3925 9.10306L13.3266 8.09832C13.3653 7.87157 13.3377 7.63847 13.2472 7.427C13.1567 7.21552 13.007 7.03463 12.8162 6.90604L13.163 5.8107ZM11.9048 4.85476C11.9788 5.14038 12.1496 5.39152 12.388 5.5654L12.0417 6.65876C11.7643 6.66388 11.4962 6.75985 11.2786 6.93195L8.12941 4.85476H11.9048ZM7.66925 5.52413L10.8303 7.60963C10.7441 7.90801 10.7767 8.22817 10.9212 8.50309L9.53545 9.88819C9.36486 9.80187 9.17693 9.75528 8.98576 9.75195L7.64008 5.54808C7.6502 5.54064 7.65933 5.53183 7.66925 5.52413V5.52413ZM6.51698 5.73923C6.63017 5.77485 6.7478 5.79445 6.86643 5.79744L8.21193 10.002C8.06812 10.1085 7.9483 10.244 7.86025 10.3997L4.95722 9.83215C4.92148 9.54762 4.79057 9.28352 4.58574 9.08272L6.51698 5.73923ZM6.90474 14.2054C6.77522 14.2072 6.64673 14.2288 6.52376 14.2695L4.58574 10.9138C4.67064 10.8293 4.74324 10.7333 4.8014 10.6286L7.70493 11.1965C7.74204 11.4867 7.87823 11.7553 8.09048 11.9567L7.04252 14.2192C6.99689 14.2121 6.95089 14.2075 6.90474 14.2054V14.2054ZM8.83004 12.2949C9.065 12.3338 9.30626 12.2939 9.51607 12.1812L12.0762 14.8293C12.0234 14.928 11.9839 15.0332 11.9588 15.1423H8.13239C8.071 14.9191 7.94991 14.7169 7.78214 14.5573L8.83004 12.2949Z" fill="#171723"/>
<path d="M19.165 6.00245C19.4478 5.71333 19.6179 5.33264 19.6443 4.92917C19.6708 4.5257 19.5521 4.12607 19.3095 3.8025C19.0669 3.47892 18.7165 3.25276 18.3216 3.16488C17.9267 3.077 17.5134 3.1332 17.1564 3.32333C16.7994 3.51345 16.5222 3.82495 16.3749 4.20154C16.2276 4.57813 16.2199 4.99495 16.3533 5.37669C16.4867 5.75842 16.7522 6.07988 17.1021 6.28297C17.4519 6.48605 17.8628 6.55737 18.2607 6.48403C18.7388 7.59664 18.9845 8.79512 18.9827 10.006C18.9816 11.33 18.6877 12.6375 18.122 13.8348C17.5564 15.032 16.733 16.0896 15.7107 16.9317C14.6885 17.7738 13.4927 18.3797 12.2088 18.7061C10.925 19.0324 9.58487 19.0711 8.28431 18.8194C8.15202 18.7947 8.01532 18.8234 7.90414 18.8992C7.79297 18.975 7.71638 19.0918 7.69115 19.2239C7.66592 19.356 7.6941 19.4928 7.76953 19.6042C7.84495 19.7156 7.96147 19.7926 8.09357 19.8183C9.54122 20.098 11.0328 20.0544 12.4617 19.6908C13.8905 19.3272 15.2213 18.6525 16.3589 17.715C17.4965 16.7775 18.4128 15.6003 19.0423 14.2676C19.6717 12.9349 19.9987 11.4797 20 10.006C20.0032 8.628 19.7188 7.26444 19.165 6.00245V6.00245ZM17.1757 4.88139C17.1755 4.72129 17.2228 4.56473 17.3116 4.43152C17.4005 4.29831 17.5269 4.19444 17.6748 4.13303C17.8227 4.07163 17.9855 4.05547 18.1427 4.08658C18.2998 4.11769 18.4441 4.19469 18.5575 4.30783C18.6708 4.42096 18.748 4.56516 18.7793 4.72216C18.8107 4.87917 18.7947 5.04193 18.7334 5.18986C18.6722 5.33779 18.5684 5.46424 18.4352 5.5532C18.3021 5.64217 18.1455 5.68965 17.9853 5.68965C17.7709 5.68928 17.5653 5.60404 17.4136 5.45257C17.2618 5.3011 17.1763 5.09573 17.1757 4.88139V4.88139Z" fill="#171723"/>
<path d="M2.01373 13.4991C1.92131 13.5005 1.82919 13.5098 1.73836 13.5269C1.26074 12.4145 1.01537 11.2164 1.0173 10.0059C1.01848 7.62411 1.9649 5.34003 3.64892 3.65481C5.33294 1.96959 7.61702 1.02086 10 1.01679C10.5794 1.01807 11.1574 1.07291 11.7266 1.18063C11.859 1.20425 11.9954 1.17505 12.1064 1.09931C12.2175 1.02356 12.2944 0.90731 12.3207 0.775506C12.3333 0.709905 12.3327 0.642478 12.3191 0.577094C12.3055 0.51171 12.2791 0.449655 12.2414 0.394487C12.2038 0.33932 12.1556 0.292126 12.0996 0.255612C12.0437 0.219099 11.9811 0.193984 11.9154 0.181708C11.2839 0.0621038 10.6427 0.0012741 10 0C7.34739 0.00459551 4.80487 1.06061 2.93018 2.9364C1.0555 4.81219 0.0017296 7.35459 2.83895e-05 10.0059C-0.00326972 11.3837 0.280832 12.747 0.834204 14.0089C0.576765 14.2813 0.421246 14.6341 0.393906 15.0078C0.366566 15.3815 0.469079 15.7532 0.684138 16.0601C0.899197 16.367 1.21362 16.5903 1.57433 16.6923C1.93504 16.7944 2.31993 16.7689 2.66402 16.6202C3.0081 16.4715 3.2903 16.2086 3.46297 15.876C3.63564 15.5435 3.6882 15.1615 3.61177 14.7947C3.53534 14.4279 3.33461 14.0987 3.04347 13.8626C2.75233 13.6266 2.38862 13.4982 2.01374 13.4991L2.01373 13.4991ZM2.01373 15.9388C1.85373 15.9387 1.69736 15.8912 1.56437 15.8023C1.43138 15.7134 1.32774 15.5871 1.26656 15.4393C1.20537 15.2915 1.18939 15.129 1.22063 14.9721C1.25186 14.8153 1.32892 14.6712 1.44205 14.5581C1.55519 14.4451 1.69932 14.3681 1.85624 14.3368C2.01315 14.3056 2.17581 14.3216 2.32364 14.3827C2.47148 14.4439 2.59786 14.5475 2.68681 14.6804C2.77575 14.8133 2.82328 14.9696 2.82338 15.1295C2.82323 15.3441 2.73788 15.5499 2.58608 15.7016C2.43427 15.8533 2.22842 15.9387 2.01373 15.9388V15.9388Z" fill="#171723"/>
</g>
<defs>
<clipPath id="clip0_10317_146916">
<rect width="20" height="20" fill="white"/>
</clipPath>
</defs>
</svg>
