<svg width="20" height="20" viewBox="0 0 20 20" fill="none" xmlns="http://www.w3.org/2000/svg">
<path d="M15.6566 6.97977C15.579 6.84691 15.468 6.73656 15.3347 6.65958C15.2015 6.5826 15.0505 6.54164 14.8966 6.54073H12.0881L13.627 3.03323C13.6886 2.90084 13.7157 2.75498 13.7056 2.6093C13.6955 2.46362 13.6487 2.32288 13.5694 2.20024C13.4901 2.07759 13.381 1.97706 13.2523 1.90805C13.1237 1.83903 12.9796 1.80379 12.8335 1.80561H8.14688C7.97127 1.80791 7.80027 1.86216 7.65544 1.96151C7.51062 2.06086 7.39846 2.20087 7.3331 2.36388L4.29759 10.224C4.24198 10.3564 4.22065 10.5007 4.23559 10.6435C4.25052 10.7863 4.30124 10.923 4.38304 11.0411C4.46241 11.1594 4.56971 11.2564 4.69548 11.3234C4.82124 11.3904 4.96157 11.4253 5.10407 11.4252H8.86628L7.45108 17.1165C7.40458 17.3174 7.42972 17.5282 7.52214 17.7125C7.61457 17.8968 7.76847 18.0431 7.95727 18.126C8.06514 18.1725 8.1816 18.1958 8.29907 18.1943C8.44404 18.1951 8.58686 18.1593 8.71442 18.0904C8.84198 18.0215 8.95017 17.9217 9.02907 17.8001L15.6266 7.88839L15.6298 7.88433C15.7162 7.75027 15.7644 7.59518 15.7691 7.43578C15.7738 7.27637 15.7349 7.1187 15.6566 6.97977Z" fill="#171723"/>
</svg>
