<svg width="20" height="20" viewBox="0 0 20 20" fill="none" xmlns="http://www.w3.org/2000/svg">
<g clip-path="url(#clip0_10314_145588)">
<path d="M3.7996 18.5795L3.7996 1.42051C3.7996 1.04377 3.94926 0.682457 4.21566 0.416059C4.48206 0.149661 4.84337 -7.85605e-08 5.22011 -6.20926e-08C5.59686 -4.56246e-08 5.95817 0.149661 6.22457 0.416059C6.49096 0.682457 6.64062 1.04377 6.64062 1.42051L6.64062 18.5795C6.64062 18.9562 6.49096 19.3175 6.22456 19.5839C5.95817 19.8503 5.59685 20 5.22011 20C4.84337 20 4.48206 19.8503 4.21566 19.5839C3.94926 19.3175 3.7996 18.9562 3.7996 18.5795L3.7996 18.5795Z" fill="#171723"/>
<path d="M13.2693 18.5795L13.2693 1.42051C13.2693 1.04377 13.419 0.682457 13.6854 0.416059C13.9518 0.149661 14.3131 -7.85605e-08 14.6898 -6.20926e-08C15.0666 -4.56246e-08 15.4279 0.149661 15.6943 0.416059C15.9607 0.682457 16.1104 1.04377 16.1104 1.42051L16.1104 18.5795C16.1104 18.9562 15.9607 19.3175 15.6943 19.5839C15.4279 19.8503 15.0666 20 14.6898 20C14.3131 20 13.9518 19.8503 13.6854 19.5839C13.419 19.3175 13.2693 18.9562 13.2693 18.5795L13.2693 18.5795Z" fill="#171723"/>
</g>
<defs>
<clipPath id="clip0_10314_145588">
<rect width="20" height="20" fill="white"/>
</clipPath>
</defs>
</svg>
