<svg width="20" height="20" viewBox="0 0 20 20" fill="none" xmlns="http://www.w3.org/2000/svg">
<g clip-path="url(#clip0_10314_146458)">
<path d="M12.6516 6.07064H5.43215L6.37886 5.09897C6.45525 5.01963 6.49712 4.91327 6.49531 4.80315C6.49351 4.69303 6.44818 4.5881 6.36923 4.51131C6.29028 4.43451 6.18414 4.3921 6.07401 4.39334C5.96388 4.39458 5.85872 4.43937 5.78152 4.51792L4.14578 6.19678C4.11177 6.23298 4.08461 6.27505 4.06562 6.32095L4.05871 6.32939L4.05845 6.33203C4.03316 6.39997 4.02636 6.47341 4.03872 6.54484C4.04108 6.56189 4.0446 6.57877 4.04925 6.59535C4.06601 6.6649 4.10086 6.72879 4.15026 6.78054L4.15229 6.78431L4.15387 6.78583L4.15392 6.78593L4.15402 6.78598L5.78559 8.38831C5.82444 8.42742 5.87066 8.45844 5.92158 8.47956C5.97249 8.50068 6.0271 8.51149 6.08222 8.51136C6.13735 8.51123 6.1919 8.50016 6.24272 8.47879C6.29353 8.45743 6.33961 8.42619 6.37827 8.38689C6.41692 8.34759 6.4474 8.30101 6.46793 8.24985C6.48846 8.19869 6.49863 8.14397 6.49785 8.08885C6.49708 8.03372 6.48538 7.97931 6.46342 7.92874C6.44147 7.87818 6.4097 7.83247 6.36995 7.79427L5.46333 6.90397H12.6517C13.3124 6.90617 13.9453 7.17035 14.4115 7.63856C14.8778 8.10677 15.1393 8.74078 15.1386 9.40153V15.1909C15.1386 15.3014 15.1825 15.4074 15.2607 15.4855C15.3388 15.5637 15.4448 15.6076 15.5553 15.6076C15.6658 15.6076 15.7718 15.5637 15.8499 15.4855C15.9281 15.4074 15.972 15.3014 15.972 15.1909V9.40153C15.9724 8.5198 15.6231 7.67391 15.0006 7.04945C14.3781 6.42499 13.5333 6.07297 12.6516 6.07064Z" fill="#171723"/>
</g>
<defs>
<clipPath id="clip0_10314_146458">
<rect width="20" height="20" fill="white"/>
</clipPath>
</defs>
</svg>
