<svg width="20" height="20" viewBox="0 0 20 20" fill="none" xmlns="http://www.w3.org/2000/svg">
<g clip-path="url(#clip0_10995_130829)">
<g clip-path="url(#clip1_10995_130829)">
<path d="M14.4379 2.99142H2.34425L3.93013 1.25851C4.05809 1.11701 4.12823 0.927326 4.12521 0.730929C4.12219 0.534533 4.04625 0.347399 3.914 0.210439C3.78175 0.0734799 3.60395 -0.00216368 3.41947 4.71325e-05C3.23498 0.00225795 3.05883 0.0821426 2.92951 0.222237L0.189404 3.21638C0.132434 3.28094 0.0869381 3.35597 0.055127 3.43782L0.0435409 3.45288L0.0431082 3.45759C0.000753944 3.57876 -0.010653 3.70973 0.0100517 3.83712C0.0140104 3.86754 0.0199056 3.89764 0.0276966 3.9272C0.0557801 4.05124 0.114152 4.16518 0.1969 4.25748L0.200306 4.2642L0.202959 4.26692L0.203042 4.2671L0.20321 4.26718L2.93632 7.12484C3.00139 7.19459 3.07882 7.24991 3.16412 7.28758C3.24941 7.32525 3.34088 7.34453 3.43322 7.34429C3.52557 7.34406 3.61695 7.32432 3.70207 7.28621C3.7872 7.24811 3.86438 7.1924 3.92914 7.12231C3.9939 7.05223 4.04495 6.96916 4.07933 6.87791C4.11372 6.78667 4.13076 6.68907 4.12947 6.59077C4.12817 6.49246 4.10856 6.39541 4.07179 6.30523C4.03501 6.21505 3.98179 6.13354 3.91521 6.06541L2.39649 4.47762H14.438C15.5448 4.48154 16.605 4.95268 17.386 5.78771C18.167 6.62273 18.6051 7.75346 18.604 8.93186V19.2569C18.604 19.454 18.6776 19.643 18.8085 19.7823C18.9394 19.9217 19.1169 20 19.302 20C19.4871 20 19.6647 19.9217 19.7956 19.7823C19.9265 19.643 20 19.454 20 19.2569V8.93186C20.0008 7.35936 19.4156 5.85075 18.3728 4.73706C17.3301 3.62337 15.9149 2.99557 14.4379 2.99142V2.99142Z" fill="#171723"/>
</g>
</g>
<defs>
<clipPath id="clip0_10995_130829">
<rect width="20" height="20" fill="white"/>
</clipPath>
<clipPath id="clip1_10995_130829">
<rect width="20" height="20" fill="white"/>
</clipPath>
</defs>
</svg>
