<svg width="20" height="20" viewBox="0 0 20 20" fill="none" xmlns="http://www.w3.org/2000/svg">
<g clip-path="url(#clip0_10314_146458)">
<path d="M13.1065 5.09399H4.64098L5.75109 3.88095C5.84066 3.78191 5.88976 3.64913 5.88765 3.51165C5.88553 3.37417 5.83238 3.24318 5.7398 3.14731C5.64723 3.05144 5.52277 2.99849 5.39363 3.00003C5.26449 3.00158 5.14118 3.0575 5.05066 3.15557L3.13258 5.25147C3.0927 5.29666 3.06086 5.34918 3.03859 5.40648L3.03048 5.41702L3.03018 5.42031C3.00053 5.50513 2.99254 5.59681 3.00704 5.68599C3.00981 5.70728 3.01393 5.72834 3.01939 5.74904C3.03905 5.83587 3.07991 5.91563 3.13783 5.98024L3.14021 5.98494L3.14207 5.98684L3.14213 5.98697L3.14225 5.98703L5.05542 7.98739C5.10097 8.03622 5.15517 8.07494 5.21488 8.10131C5.27459 8.12768 5.33862 8.14117 5.40326 8.141C5.4679 8.14084 5.53186 8.12702 5.59145 8.10035C5.65104 8.07368 5.70507 8.03468 5.7504 7.98562C5.79573 7.93656 5.83146 7.87841 5.85553 7.81454C5.87961 7.75067 5.89153 7.68235 5.89063 7.61354C5.88972 7.54472 5.876 7.47679 5.85025 7.41366C5.8245 7.35054 5.78725 7.29348 5.74064 7.24579L4.67754 6.13433H13.1066C13.8814 6.13708 14.6235 6.46688 15.1702 7.0514C15.7169 7.63591 16.0235 8.42742 16.0228 9.2523V16.4798C16.0228 16.6178 16.0743 16.7501 16.1659 16.8476C16.2576 16.9452 16.3818 17 16.5114 17C16.641 17 16.7653 16.9452 16.8569 16.8476C16.9485 16.7501 17 16.6178 17 16.4798V9.2523C17.0005 8.15155 16.5909 7.09552 15.861 6.31594C15.131 5.53636 14.1404 5.0969 13.1065 5.09399V5.09399Z" fill="#171723"/>
</g>
<defs>
<clipPath id="clip0_10314_146458">
<rect width="20" height="20" fill="white"/>
</clipPath>
</defs>
</svg>
