<svg width="20" height="20" viewBox="0 0 20 20" fill="none" xmlns="http://www.w3.org/2000/svg">
<g clip-path="url(#clip0_10317_146764)">
<path d="M16.8771 5.33285C16.8745 5.30819 16.8696 5.28382 16.8624 5.26007C16.8308 4.66523 16.5814 4.10282 16.1618 3.68L15.0094 2.52565C14.7825 2.29665 14.5124 2.11505 14.2147 1.9914C13.9169 1.86776 13.5976 1.80454 13.2752 1.80543H5.57341C4.92376 1.80617 4.30093 2.06457 3.84156 2.52394C3.38219 2.98331 3.12379 3.60614 3.12305 4.25579V15.7442C3.12379 16.3939 3.38219 17.0167 3.84156 17.4761C4.30093 17.9354 4.92376 18.1938 5.57341 18.1946H14.4267C15.0764 18.1938 15.6992 17.9354 16.1586 17.4761C16.618 17.0167 16.8764 16.3939 16.8771 15.7442V5.41057C16.8771 5.39277 16.8724 5.37593 16.872 5.35818C16.8726 5.34933 16.8771 5.34185 16.8771 5.33285ZM15.5718 4.2684C15.7508 4.45036 15.8836 4.67246 15.9594 4.91619H13.7668V2.7225C14.0128 2.79872 14.237 2.93299 14.4202 3.114L15.5718 4.2684ZM14.4268 17.3613H5.57341C5.14468 17.3608 4.73365 17.1903 4.4305 16.8871C4.12735 16.584 3.95683 16.173 3.95638 15.7442V4.25579C3.95683 3.82706 4.12734 3.41603 4.4305 3.11288C4.73365 2.80972 5.14468 2.63921 5.57341 2.63876H12.9334V5.33285C12.9334 5.38758 12.9441 5.44178 12.9651 5.49234C12.986 5.54291 13.0167 5.58886 13.0554 5.62755C13.0941 5.66625 13.14 5.69694 13.1906 5.71787C13.2411 5.7388 13.2953 5.74955 13.3501 5.74952H16.0438V15.7442C16.0433 16.1729 15.8728 16.584 15.5696 16.8871C15.2665 17.1903 14.8555 17.3608 14.4268 17.3613H14.4268Z" fill="#171723"/>
<path d="M10.7985 6.31106C10.4586 6.23132 10.1051 6.22942 9.76432 6.30552C9.42358 6.38162 9.10443 6.53373 8.83074 6.75051C8.56011 6.9652 8.34161 7.2384 8.19165 7.5496C8.04168 7.86081 7.96414 8.20193 7.96485 8.54738C7.96485 8.65789 8.00875 8.76387 8.08689 8.84201C8.16503 8.92015 8.27101 8.96405 8.38152 8.96405C8.49202 8.96405 8.598 8.92015 8.67614 8.84201C8.75428 8.76387 8.79818 8.65789 8.79818 8.54738C8.79823 8.25789 8.88411 7.97492 9.04498 7.73423C9.20584 7.49355 9.43445 7.30597 9.70192 7.19521C9.96938 7.08445 10.2637 7.05548 10.5476 7.11197C10.8315 7.16846 11.0923 7.30787 11.297 7.51257C11.5017 7.71727 11.6411 7.97807 11.6976 8.26199C11.7541 8.54592 11.7251 8.84022 11.6144 9.10768C11.5036 9.37514 11.316 9.60376 11.0754 9.76462C10.8347 9.92548 10.5517 10.0114 10.2622 10.0114C9.94048 10.0119 9.63205 10.1399 9.40459 10.3674C9.17713 10.595 9.0492 10.9035 9.04888 11.2252V12.1301C9.04888 12.2407 9.09278 12.3466 9.17092 12.4248C9.24906 12.5029 9.35504 12.5468 9.46555 12.5468C9.57605 12.5468 9.68204 12.5029 9.76018 12.4248C9.83832 12.3466 9.88221 12.2407 9.88221 12.1301V11.2252C9.88218 11.1244 9.92219 11.0276 9.99345 10.9563C10.0647 10.885 10.1614 10.8448 10.2622 10.8447C10.6076 10.8456 10.9488 10.7681 11.26 10.6182C11.5712 10.4683 11.8444 10.2499 12.0591 9.97926C12.2761 9.70568 12.4283 9.38654 12.5044 9.04576C12.5805 8.70498 12.5785 8.35139 12.4985 8.01149C12.4025 7.59746 12.1923 7.21865 11.8918 6.91808C11.5913 6.6175 11.2125 6.4072 10.7985 6.31106Z" fill="#171723"/>
<path d="M9.46517 13.4064C9.3498 13.4064 9.23701 13.4406 9.14108 13.5047C9.04515 13.5688 8.97039 13.66 8.92624 13.7665C8.88209 13.8731 8.87054 13.9904 8.89305 14.1036C8.91556 14.2167 8.97112 14.3207 9.0527 14.4023C9.13429 14.4838 9.23823 14.5394 9.35139 14.5619C9.46455 14.5844 9.58184 14.5728 9.68843 14.5287C9.79502 14.4845 9.88612 14.4098 9.95021 14.3138C10.0143 14.2179 10.0485 14.1051 10.0485 13.9897C10.0485 13.9131 10.0334 13.8373 10.0041 13.7665C9.97479 13.6957 9.93182 13.6314 9.87765 13.5773C9.82348 13.5231 9.75918 13.4801 9.6884 13.4508C9.61763 13.4215 9.54177 13.4064 9.46517 13.4064Z" fill="#171723"/>
</g>
<defs>
<clipPath id="clip0_10317_146764">
<rect width="20" height="20" fill="white"/>
</clipPath>
</defs>
</svg>
