<svg width="20" height="20" viewBox="0 0 20 20" fill="none" xmlns="http://www.w3.org/2000/svg">
<g clip-path="url(#clip0_10314_145849)">
<path d="M19.1867 9.60157V9.10969C19.3277 8.85699 19.401 8.57113 19.399 8.28069C19.3971 7.99025 19.3201 7.70541 19.1758 7.45465C19.0533 7.25716 18.8875 7.09121 18.6911 6.96983L18.4488 6.44569C18.1726 5.83914 17.7465 5.31538 17.2119 4.92525C16.6774 4.53513 16.0526 4.29189 15.3981 4.21916L13.9741 4.06393C13.1775 3.97544 12.3736 3.97882 11.5778 4.07401C10.6879 4.17482 9.81346 4.3857 8.97398 4.70196L8.1825 5.00128C6.96531 5.45912 5.84998 6.15809 4.90141 7.05751L4.00964 7.90015C3.73936 8.16484 3.42188 8.37488 3.07418 8.51902L1.39589 9.24272C1.14407 9.35146 0.928303 9.5313 0.774232 9.76086L0.30054 10.4513C0.0597893 10.8173 -0.0415177 11.2598 0.0155228 11.6961L0.157533 12.9147C0.205934 13.2985 0.389991 13.6514 0.675487 13.9078C0.960983 14.1642 1.32849 14.3066 1.7097 14.3087H2.32316C2.43611 14.7903 2.70576 15.2193 3.08854 15.5262C3.47133 15.8331 3.94488 16 4.43269 16C4.92049 16 5.39405 15.8331 5.77683 15.5262C6.15962 15.2193 6.42927 14.7903 6.54221 14.3087H14.6669C14.7861 14.8192 15.0813 15.2696 15.499 15.5785C15.9168 15.8874 16.4297 16.0345 16.945 15.9932C17.4603 15.9518 17.944 15.7248 18.3088 15.3531C18.6735 14.9814 18.8953 14.4895 18.934 13.9663L18.992 13.9287C19.3011 13.7303 19.5557 13.4558 19.7319 13.1306C19.9082 12.8054 20.0004 12.4402 20 12.069V11.439C20.0001 11.0918 19.9277 10.7485 19.7875 10.4318C19.6473 10.115 19.4425 9.83207 19.1867 9.60157V9.60157ZM17.2255 8.52912C17.2307 8.41158 17.2648 8.29724 17.3247 8.19649C17.4141 8.06863 17.5365 7.96822 17.6784 7.90625C17.8203 7.84428 17.9762 7.82315 18.1292 7.84516C18.2015 7.88047 18.2642 7.93328 18.3118 7.99895C18.35 8.08209 18.3694 8.17288 18.3686 8.26463C18.3677 8.35639 18.3465 8.44677 18.3066 8.52913L17.2255 8.52912ZM1.61436 10.3424C1.65886 10.2755 1.7217 10.2233 1.7951 10.1922L2.12762 10.049C2.1349 10.1918 2.11053 10.3344 2.05631 10.4664C1.96401 10.648 1.82835 10.8033 1.66171 10.9181C1.49507 11.0328 1.30276 11.1034 1.10234 11.1233C1.11313 11.0923 1.12594 11.0621 1.1407 11.0328L1.61436 10.3424ZM4.43268 14.9679C4.12655 14.9675 3.83301 14.8442 3.61608 14.6249C3.39916 14.4057 3.27646 14.1083 3.27477 13.7976L3.27579 13.7926L3.27477 13.7876C3.27564 13.5552 3.34433 13.3283 3.47217 13.1356C3.60001 12.9428 3.78126 12.7928 3.99303 12.7045C4.20481 12.6162 4.43761 12.5936 4.66205 12.6395C4.88648 12.6854 5.09248 12.7978 5.25402 12.9625C5.41557 13.1271 5.52542 13.3367 5.56971 13.5647C5.61399 13.7926 5.59072 14.0288 5.50284 14.2434C5.41496 14.458 5.26641 14.6413 5.07594 14.7703C4.88547 14.8992 4.66163 14.968 4.43268 14.9679V14.9679ZM16.7755 14.9679C16.469 14.9675 16.1751 14.8439 15.9582 14.6241C15.7413 14.4043 15.619 14.1062 15.6181 13.7951L15.6186 13.7926L15.6181 13.7901C15.6185 13.5576 15.6869 13.3306 15.8144 13.1375C15.942 12.9445 16.1231 12.7942 16.3348 12.7056C16.5465 12.617 16.7793 12.5941 17.0038 12.6397C17.2284 12.6854 17.4345 12.7976 17.5963 12.9622C17.758 13.1268 17.868 13.3363 17.9124 13.5643C17.9569 13.7923 17.9337 14.0286 17.8458 14.2432C17.758 14.4579 17.6094 14.6413 17.4189 14.7703C17.2284 14.8992 17.0045 14.968 16.7755 14.9679V14.9679ZM18.9831 12.069C18.9796 12.3396 18.884 12.6006 18.7126 12.8079C18.5154 12.4025 18.1996 12.0687 17.8085 11.8522C17.4174 11.6357 16.97 11.5471 16.5274 11.5983C16.0848 11.6496 15.6685 11.8383 15.3355 12.1387C15.0025 12.439 14.769 12.8364 14.6668 13.2765H6.54227C6.42954 12.7946 6.15996 12.3655 5.77715 12.0584C5.39433 11.7513 4.92065 11.5842 4.43271 11.5842C3.94477 11.5842 3.47109 11.7513 3.08828 12.0584C2.70546 12.3655 2.43589 12.7946 2.32315 13.2765H1.7097C1.62525 13.2764 1.542 13.2561 1.46663 13.2175C1.39127 13.1788 1.32588 13.1227 1.27573 13.0537C1.21868 12.9772 1.18116 12.8875 1.16649 12.7927L1.09327 12.1497C1.49142 12.1301 1.87709 12.0024 2.20999 11.7799C2.54288 11.5573 2.81079 11.2482 2.98573 10.8846C3.15328 10.489 3.19357 10.0498 3.10086 9.62959L3.46743 9.47159C3.92852 9.27858 4.34989 8.99959 4.70975 8.64906L5.59656 7.81045C6.44653 7.00456 7.44613 6.37854 8.53702 5.96894L9.3265 5.67059C9.9101 5.45771 10.5118 5.29993 11.124 5.19925V8.01204C11.1239 8.14915 11.0701 8.28062 10.9746 8.37757C10.8791 8.47452 10.7496 8.52904 10.6145 8.52914H6.28773C6.15288 8.52914 6.02356 8.58351 5.9282 8.68029C5.83285 8.77707 5.77928 8.90834 5.77928 9.04521C5.77928 9.18207 5.83285 9.31334 5.9282 9.41012C6.02356 9.5069 6.15288 9.56127 6.28773 9.56127H10.6145C11.0193 9.56099 11.4073 9.39767 11.6935 9.1072C11.9797 8.81672 12.1406 8.42283 12.1409 8.01204V5.07131C12.7153 5.02594 13.2925 5.0322 13.8659 5.09002L15.2899 5.24524C15.77 5.29869 16.2283 5.47735 16.6202 5.76384C17.0121 6.05034 17.3242 6.43491 17.5263 6.88014L17.53 6.8882C17.0937 6.996 16.7133 7.26661 16.4647 7.64618C16.3023 7.91161 16.2139 8.21675 16.2088 8.52914H13.4219C13.2871 8.52914 13.1578 8.58351 13.0624 8.68029C12.967 8.77707 12.9135 8.90834 12.9135 9.04521C12.9135 9.18207 12.967 9.31334 13.0624 9.41012C13.1578 9.5069 13.2871 9.56127 13.4219 9.56127H18.1698V9.85055C18.1699 9.93365 18.1897 10.0155 18.2276 10.0892C18.2654 10.1629 18.3202 10.2262 18.3873 10.2739C18.5716 10.4051 18.7221 10.5796 18.8258 10.7824C18.9295 10.9853 18.9835 11.2105 18.9831 11.4391V12.069Z" fill="#171723"/>
<path d="M15.5526 12.4297C15.4275 12.4295 15.3051 12.4665 15.2011 12.5359C15.097 12.6052 15.0158 12.7039 14.9678 12.8195C14.9198 12.935 14.9072 13.0622 14.9315 13.1849C14.9558 13.3076 15.0159 13.4203 15.1043 13.5088C15.1927 13.5974 15.3054 13.6577 15.4281 13.6821C15.5508 13.7066 15.678 13.6941 15.7935 13.6463C15.9091 13.5984 16.0079 13.5174 16.0775 13.4134C16.147 13.3094 16.1841 13.1871 16.1841 13.062C16.1838 12.8945 16.1172 12.734 15.9988 12.6155C15.8805 12.497 15.72 12.4302 15.5526 12.4297V12.4297ZM15.3508 13.062C15.3508 13.0086 15.372 12.9574 15.4097 12.9196C15.4475 12.8818 15.4987 12.8606 15.5522 12.8606C15.6056 12.8606 15.6568 12.8818 15.6946 12.9196C15.7324 12.9574 15.7536 13.0086 15.7536 13.062C15.7536 13.2842 15.3507 13.2826 15.3507 13.062H15.3508Z" fill="#171723"/>
<path d="M5.43701 12.4297C5.31195 12.4297 5.1897 12.4668 5.08571 12.5363C4.98173 12.6057 4.90068 12.7045 4.85282 12.82C4.80496 12.9356 4.79244 13.0627 4.81684 13.1854C4.84124 13.308 4.90146 13.4207 4.98989 13.5091C5.07832 13.5976 5.19099 13.6578 5.31365 13.6822C5.43631 13.7066 5.56345 13.6941 5.67899 13.6462C5.79454 13.5983 5.89329 13.5173 5.96277 13.4133C6.03225 13.3093 6.06934 13.1871 6.06934 13.062C6.06903 12.8944 6.00231 12.7338 5.88379 12.6152C5.76527 12.4967 5.60462 12.43 5.43701 12.4297ZM5.236 13.062C5.23635 13.0089 5.25767 12.9581 5.29534 12.9207C5.333 12.8833 5.38393 12.8623 5.43702 12.8623C5.49011 12.8623 5.54104 12.8833 5.5787 12.9207C5.61636 12.9581 5.63769 13.0089 5.63803 13.062C5.63803 13.2833 5.236 13.2833 5.236 13.062V13.062Z" fill="#171723"/>
</g>
<defs>
<clipPath id="clip0_10314_145849">
<rect width="20" height="20" fill="white"/>
</clipPath>
</defs>
</svg>
