<svg width="24" height="24" viewBox="0 0 24 24" fill="none" xmlns="http://www.w3.org/2000/svg">
<g clip-path="url(#clip0_10317_147263)">
<path d="M20.6738 2.5368H3.32544C1.54171 2.5368 0.0957031 3.98281 0.0957031 5.76654V18.2336C0.0957031 20.0173 1.54171 21.4633 3.32544 21.4633H20.6738C22.4575 21.4633 23.9035 20.0173 23.9035 18.2336V5.76654C23.9035 3.98281 22.4575 2.5368 20.6738 2.5368Z" fill="white"/>
<path d="M20.6745 21.5594H3.32555C2.4439 21.5583 1.59867 21.2076 0.975246 20.5842C0.351823 19.9607 0.00110025 19.1155 0 18.2339V5.76616C0.00110025 4.88451 0.351823 4.03928 0.975246 3.41586C1.59867 2.79244 2.4439 2.44171 3.32555 2.44061H20.6745C21.5561 2.44171 22.4013 2.79244 23.0248 3.41586C23.6482 4.03928 23.9989 4.88451 24 5.76616V18.2339C23.9989 19.1155 23.6482 19.9607 23.0248 20.5842C22.4013 21.2076 21.5561 21.5583 20.6745 21.5594ZM3.32555 2.63242C2.49477 2.63351 1.69834 2.96402 1.11089 3.55147C0.523445 4.13891 0.192938 4.93535 0.191848 5.76612V18.2338C0.192938 19.0646 0.523445 19.861 1.11089 20.4485C1.69834 21.0359 2.49477 21.3664 3.32555 21.3675H20.6745C21.5052 21.3664 22.3017 21.0359 22.8891 20.4485C23.4766 19.861 23.8071 19.0646 23.8082 18.2338V5.76616C23.8071 4.93539 23.4766 4.13895 22.8891 3.5515C22.3017 2.96406 21.5052 2.63355 20.6745 2.63246L3.32555 2.63242Z" fill="#E4E4E4"/>
<path d="M9.86145 9.54858L7.73551 14.5462H6.34786L5.30242 10.5582C5.29225 10.4643 5.2582 10.3746 5.20352 10.2976C5.14885 10.2206 5.07536 10.1589 4.99007 10.1183C4.57732 9.92433 4.14232 9.78169 3.69482 9.69363L3.72696 9.54856H5.95948C6.10448 9.54758 6.24508 9.59835 6.35599 9.69177C6.4669 9.78518 6.54084 9.9151 6.56452 10.0582L7.11732 12.9507L8.4827 9.54868H9.86143L9.86145 9.54858ZM15.2967 12.9138C15.3028 11.5955 13.445 11.5237 13.4584 10.934C13.462 10.754 13.6352 10.5635 14.0145 10.5154C14.458 10.4735 14.9047 10.5505 15.3087 10.7383L15.5389 9.67899C15.1459 9.53386 14.7305 9.45896 14.3115 9.4577C13.0145 9.4577 12.1014 10.1373 12.0937 11.1098C12.0852 11.8289 12.7452 12.2303 13.243 12.4697C13.7541 12.7148 13.925 12.8713 13.9232 13.091C13.9199 13.4265 13.5154 13.5731 13.1381 13.5797C12.6692 13.5898 12.2053 13.4811 11.7897 13.2637L11.5521 14.3595C12.0182 14.5371 12.5131 14.6272 13.0119 14.6253C14.3905 14.6252 15.2923 13.9528 15.2967 12.9138ZM18.7218 14.5463H19.9359L18.8765 9.54868H17.7558C17.6368 9.5473 17.5201 9.58142 17.4206 9.64667C17.3211 9.71192 17.2433 9.80535 17.1971 9.91503L15.2291 14.5463H16.6066L16.88 13.7999H18.5638L18.7218 14.5463ZM17.2575 12.7756L17.9486 10.899L18.3461 12.7756H17.2575ZM11.7369 9.54858L10.6511 14.5462H9.33844L10.4245 9.54858H11.7369Z" fill="#1A2ADF"/>
</g>
<defs>
<clipPath id="clip0_10317_147263">
<rect width="24" height="24" fill="white"/>
</clipPath>
</defs>
</svg>
