<svg width="20" height="20" viewBox="0 0 20 20" fill="none" xmlns="http://www.w3.org/2000/svg">
<g clip-path="url(#clip0_5313_35047)">
<path d="M18.0724 17.4836L15.3372 14.7483C15.2859 14.6981 15.2223 14.6623 15.1528 14.6443C15.0833 14.6263 15.0103 14.6269 14.9411 14.646L14.0355 13.7404C15.3168 12.3817 16.012 10.5735 15.971 8.70635C15.9299 6.83925 15.1559 5.06328 13.8161 3.76223C12.4763 2.46118 10.6784 1.73954 8.81087 1.75324C6.94337 1.76695 5.15625 2.51491 3.83571 3.83549C2.51517 5.15607 1.76726 6.94321 1.75361 8.81071C1.73995 10.6782 2.46165 12.4761 3.76274 13.8158C5.06382 15.1556 6.83982 15.9296 8.70692 15.9706C10.574 16.0116 12.3823 15.3164 13.741 14.035L14.646 14.9401C14.6267 15.0095 14.6259 15.0827 14.6438 15.1525C14.6617 15.2222 14.6977 15.286 14.748 15.3375L17.4832 18.0727C17.5616 18.1495 17.6672 18.1923 17.7769 18.1918C17.8867 18.1912 17.9918 18.1474 18.0694 18.0698C18.147 17.9921 18.1909 17.887 18.1914 17.7773C18.192 17.6675 18.1492 17.5619 18.0724 17.4835L18.0724 17.4836ZM8.88865 15.139C7.65252 15.139 6.44415 14.7724 5.41634 14.0857C4.38853 13.3989 3.58745 12.4228 3.11441 11.2808C2.64136 10.1387 2.51759 8.88206 2.75874 7.66968C2.9999 6.45729 3.59516 5.34365 4.46923 4.46957C5.34331 3.59549 6.45696 3.00024 7.66934 2.75908C8.88172 2.51792 10.1384 2.6417 11.2804 3.11474C12.4225 3.58779 13.3986 4.38887 14.0853 5.41668C14.7721 6.44448 15.1387 7.65286 15.1387 8.88899C15.1368 10.546 14.4778 12.1347 13.3061 13.3064C12.1344 14.4781 10.5457 15.1372 8.88865 15.139Z" fill="#171723"/>
<path d="M12.2204 8.46993H9.30534V5.5557C9.30534 5.4452 9.26144 5.33922 9.1833 5.26108C9.10516 5.18294 8.99918 5.13904 8.88867 5.13904C8.77816 5.13904 8.67218 5.18294 8.59404 5.26108C8.5159 5.33922 8.472 5.4452 8.472 5.5557V8.46993H5.55778C5.44727 8.46993 5.34129 8.51383 5.26315 8.59197C5.18501 8.67011 5.14111 8.77609 5.14111 8.8866C5.14111 8.9971 5.18501 9.10308 5.26315 9.18122C5.34129 9.25936 5.44727 9.30326 5.55778 9.30326H8.472V12.2175C8.472 12.328 8.5159 12.434 8.59404 12.5121C8.67218 12.5903 8.77816 12.6342 8.88867 12.6342C8.99918 12.6342 9.10516 12.5903 9.1833 12.5121C9.26144 12.434 9.30534 12.328 9.30534 12.2175V9.30326H12.2204C12.3309 9.30326 12.4369 9.25936 12.515 9.18122C12.5931 9.10308 12.637 8.9971 12.637 8.8866C12.637 8.77609 12.5931 8.67011 12.515 8.59197C12.4369 8.51383 12.3309 8.46993 12.2204 8.46993Z" fill="#171723"/>
</g>
<defs>
<clipPath id="clip0_5313_35047">
<rect width="20" height="20" fill="white"/>
</clipPath>
</defs>
</svg>
